<?xml version="1.0" encoding="UTF-8" standalone="no"?>
<!DOCTYPE svg PUBLIC "-//W3C//DTD SVG 1.1//EN"
 "http://www.w3.org/Graphics/SVG/1.1/DTD/svg11.dtd">
<!-- Generated by graphviz version 12.1.2 (0)
 -->
<!-- Title: anch::sql::Timestamp Pages: 1 -->
<svg width="112pt" height="564pt"
 viewBox="0.00 0.00 112.00 564.00" xmlns="http://www.w3.org/2000/svg" xmlns:xlink="http://www.w3.org/1999/xlink">
<g id="graph0" class="graph" transform="scale(1 1) rotate(0) translate(4 560)">
<title>anch::sql::Timestamp</title>
<!-- Node1 -->
<g id="Node000001" class="node">
<title>Node1</title>
<g id="a_Node000001"><a xlink:title="SQL timestamp type.">
<polygon fill="#999999" stroke="none" points="104,-116 0,-116 0,0 104,0 104,-116"/>
<text text-anchor="start" x="4.75" y="-102.5" font-family="Helvetica,sans-Serif" font-size="10.00">anch::sql::Timestamp</text>
<text text-anchor="start" x="50.5" y="-86.5" font-family="Helvetica,sans-Serif" font-size="10.00"> </text>
<text text-anchor="start" x="10.5" y="-70.5" font-family="Helvetica,sans-Serif" font-size="10.00">+</text>
<text text-anchor="start" x="27" y="-70.5" font-family="Helvetica,sans-Serif" font-size="10.00">Timestamp()</text>
<text text-anchor="start" x="10.5" y="-54.5" font-family="Helvetica,sans-Serif" font-size="10.00">+</text>
<text text-anchor="start" x="27" y="-54.5" font-family="Helvetica,sans-Serif" font-size="10.00">Timestamp()</text>
<text text-anchor="start" x="10.5" y="-38.5" font-family="Helvetica,sans-Serif" font-size="10.00">+</text>
<text text-anchor="start" x="27" y="-38.5" font-family="Helvetica,sans-Serif" font-size="10.00">Timestamp()</text>
<text text-anchor="start" x="10.5" y="-22.5" font-family="Helvetica,sans-Serif" font-size="10.00">+</text>
<text text-anchor="start" x="27" y="-22.5" font-family="Helvetica,sans-Serif" font-size="10.00">Timestamp()</text>
<text text-anchor="start" x="10.5" y="-6.5" font-family="Helvetica,sans-Serif" font-size="10.00">+</text>
<text text-anchor="start" x="27" y="-6.5" font-family="Helvetica,sans-Serif" font-size="10.00">~Timestamp()</text>
<polygon fill="#666666" stroke="#666666" points="0,-98 0,-98 104,-98 104,-98 0,-98"/>
<polygon fill="#666666" stroke="#666666" points="0,-82 0,-82 104,-82 104,-82 0,-82"/>
<polygon fill="none" stroke="#666666" points="0,0 0,-116 104,-116 104,0 0,0"/>
</a>
</g>
</g>
<!-- Node2 -->
<g id="Node000002" class="node">
<title>Node2</title>
<g id="a_Node000002"><a xlink:href="classanch_1_1date_1_1_date.html" target="_top" xlink:title=" ">
<polygon fill="white" stroke="none" points="94,-556 10,-556 10,-152 94,-152 94,-556"/>
<text text-anchor="start" x="15.62" y="-542.5" font-family="Helvetica,sans-Serif" font-size="10.00">anch::date::Date</text>
<text text-anchor="start" x="14.38" y="-526.5" font-family="Helvetica,sans-Serif" font-size="10.00">#</text>
<text text-anchor="start" x="24" y="-526.5" font-family="Helvetica,sans-Serif" font-size="10.00">_timestamp</text>
<text text-anchor="start" x="14.38" y="-510.5" font-family="Helvetica,sans-Serif" font-size="10.00">#</text>
<text text-anchor="start" x="24" y="-510.5" font-family="Helvetica,sans-Serif" font-size="10.00">_years</text>
<text text-anchor="start" x="14.38" y="-494.5" font-family="Helvetica,sans-Serif" font-size="10.00">#</text>
<text text-anchor="start" x="24" y="-494.5" font-family="Helvetica,sans-Serif" font-size="10.00">_months</text>
<text text-anchor="start" x="14.38" y="-478.5" font-family="Helvetica,sans-Serif" font-size="10.00">#</text>
<text text-anchor="start" x="24" y="-478.5" font-family="Helvetica,sans-Serif" font-size="10.00">_ydays</text>
<text text-anchor="start" x="14.38" y="-462.5" font-family="Helvetica,sans-Serif" font-size="10.00">#</text>
<text text-anchor="start" x="24" y="-462.5" font-family="Helvetica,sans-Serif" font-size="10.00">_mdays</text>
<text text-anchor="start" x="14.38" y="-446.5" font-family="Helvetica,sans-Serif" font-size="10.00">#</text>
<text text-anchor="start" x="24" y="-446.5" font-family="Helvetica,sans-Serif" font-size="10.00">_wdays</text>
<text text-anchor="start" x="14.38" y="-430.5" font-family="Helvetica,sans-Serif" font-size="10.00">#</text>
<text text-anchor="start" x="24" y="-430.5" font-family="Helvetica,sans-Serif" font-size="10.00">_hours</text>
<text text-anchor="start" x="14.38" y="-414.5" font-family="Helvetica,sans-Serif" font-size="10.00">#</text>
<text text-anchor="start" x="24" y="-414.5" font-family="Helvetica,sans-Serif" font-size="10.00">_minutes</text>
<text text-anchor="start" x="14.38" y="-398.5" font-family="Helvetica,sans-Serif" font-size="10.00">#</text>
<text text-anchor="start" x="24" y="-398.5" font-family="Helvetica,sans-Serif" font-size="10.00">_seconds</text>
<text text-anchor="start" x="14.38" y="-382.5" font-family="Helvetica,sans-Serif" font-size="10.00">#</text>
<text text-anchor="start" x="24" y="-382.5" font-family="Helvetica,sans-Serif" font-size="10.00">_milliseconds</text>
<text text-anchor="start" x="14.38" y="-366.5" font-family="Helvetica,sans-Serif" font-size="10.00">#</text>
<text text-anchor="start" x="24" y="-366.5" font-family="Helvetica,sans-Serif" font-size="10.00">_microseconds</text>
<text text-anchor="start" x="14.38" y="-350.5" font-family="Helvetica,sans-Serif" font-size="10.00">#</text>
<text text-anchor="start" x="24" y="-350.5" font-family="Helvetica,sans-Serif" font-size="10.00">_nanoseconds</text>
<text text-anchor="start" x="14.38" y="-334.5" font-family="Helvetica,sans-Serif" font-size="10.00">#</text>
<text text-anchor="start" x="24" y="-334.5" font-family="Helvetica,sans-Serif" font-size="10.00">_mutex</text>
<text text-anchor="start" x="14" y="-318.5" font-family="Helvetica,sans-Serif" font-size="10.00">+</text>
<text text-anchor="start" x="24" y="-318.5" font-family="Helvetica,sans-Serif" font-size="10.00">Date()</text>
<text text-anchor="start" x="14" y="-302.5" font-family="Helvetica,sans-Serif" font-size="10.00">+</text>
<text text-anchor="start" x="24" y="-302.5" font-family="Helvetica,sans-Serif" font-size="10.00">Date()</text>
<text text-anchor="start" x="14" y="-286.5" font-family="Helvetica,sans-Serif" font-size="10.00">+</text>
<text text-anchor="start" x="24" y="-286.5" font-family="Helvetica,sans-Serif" font-size="10.00">Date()</text>
<text text-anchor="start" x="14" y="-270.5" font-family="Helvetica,sans-Serif" font-size="10.00">+</text>
<text text-anchor="start" x="24" y="-270.5" font-family="Helvetica,sans-Serif" font-size="10.00">Date()</text>
<text text-anchor="start" x="14" y="-254.5" font-family="Helvetica,sans-Serif" font-size="10.00">+</text>
<text text-anchor="start" x="24" y="-254.5" font-family="Helvetica,sans-Serif" font-size="10.00">~Date()</text>
<text text-anchor="start" x="14" y="-238.5" font-family="Helvetica,sans-Serif" font-size="10.00">+</text>
<text text-anchor="start" x="24" y="-238.5" font-family="Helvetica,sans-Serif" font-size="10.00">after()</text>
<text text-anchor="start" x="14" y="-222.5" font-family="Helvetica,sans-Serif" font-size="10.00">+</text>
<text text-anchor="start" x="24" y="-222.5" font-family="Helvetica,sans-Serif" font-size="10.00">before()</text>
<text text-anchor="start" x="14" y="-206.5" font-family="Helvetica,sans-Serif" font-size="10.00">+</text>
<text text-anchor="start" x="24" y="-206.5" font-family="Helvetica,sans-Serif" font-size="10.00">equals()</text>
<text text-anchor="start" x="14" y="-190.5" font-family="Helvetica,sans-Serif" font-size="10.00">+</text>
<text text-anchor="start" x="24" y="-190.5" font-family="Helvetica,sans-Serif" font-size="10.00">operator&gt;()</text>
<text text-anchor="start" x="14" y="-174.5" font-family="Helvetica,sans-Serif" font-size="10.00">+</text>
<text text-anchor="start" x="24" y="-174.5" font-family="Helvetica,sans-Serif" font-size="10.00">operator&gt;=()</text>
<text text-anchor="start" x="24" y="-158.5" font-family="Helvetica,sans-Serif" font-size="10.00">and 7 more...</text>
<polygon fill="#666666" stroke="#666666" points="10,-538 10,-538 94,-538 94,-538 10,-538"/>
<polygon fill="#666666" stroke="#666666" points="10,-330 10,-330 22,-330 22,-330 10,-330"/>
<polygon fill="#666666" stroke="#666666" points="22,-330 22,-330 94,-330 94,-330 22,-330"/>
<polygon fill="none" stroke="#666666" points="10,-152 10,-556 94,-556 94,-152 10,-152"/>
</a>
</g>
</g>
<!-- Node2&#45;&gt;Node1 -->
<g id="edge1_Node000001_Node000002" class="edge">
<title>Node2&#45;&gt;Node1</title>
<g id="a_edge1_Node000001_Node000002"><a xlink:title=" ">
<path fill="none" stroke="#63b8ff" d="M52,-140.79C52,-132.07 52,-123.73 52,-115.95"/>
<polygon fill="none" stroke="#63b8ff" points="48.5,-140.51 52,-150.51 55.5,-140.51 48.5,-140.51"/>
</a>
</g>
</g>
</g>
</svg>
