<?xml version="1.0" encoding="UTF-8" standalone="no"?>
<!DOCTYPE svg PUBLIC "-//W3C//DTD SVG 1.1//EN"
 "http://www.w3.org/Graphics/SVG/1.1/DTD/svg11.dtd">
<!-- Generated by graphviz version 13.1.2 (0)
 -->
<!-- Title: anch::date::Date Pages: 1 -->
<!--zoomable 564 -->

<svg id="main" version="1.1" xmlns="http://www.w3.org/2000/svg" xmlns:xlink="http://www.w3.org/1999/xlink" xml:space="preserve" onload="init(evt)">

<style type="text/css"><![CDATA[
.node, .edge {opacity: 0.7;}
.node.selected, .edge.selected {opacity: 1;}
.edge:hover path { stroke: red; }
.edge:hover polygon { stroke: red; fill: red; }
]]></style>

<defs>
  <circle id="rim" cx="0" cy="0" r="7"/>
  <circle id="rim2" cx="0" cy="0" r="3.5"/>
  <g id="zoomPlus">
    <use xlink:href="#rim" fill="#404040"><set attributeName="fill" to="#808080" begin="zoomplus.mouseover" end="zoomplus.mouseout"/></use>
    <path d="M-4,0h8M0,-4v8" fill="none" stroke="white" stroke-width="1.5" pointer-events="none"/>
  </g>
  <g id="zoomMin">
    <use xlink:href="#rim" fill="#404040"><set attributeName="fill" to="#808080" begin="zoomminus.mouseover" end="zoomminus.mouseout"/></use>
    <path d="M-4,0h8" fill="none" stroke="white" stroke-width="1.5" pointer-events="none"/>
  </g>
  <g id="arrowUp" transform="translate(30 24)">
    <use xlink:href="#rim"/>
    <path pointer-events="none" fill="none" stroke="white" stroke-width="1.5" d="M0,-3.0v7 M-2.5,-0.5L0,-3.0L2.5,-0.5"/>
  </g>
  <g id="arrowRight" transform="rotate(90) translate(36 -43)">
    <use xlink:href="#rim"/>
    <path pointer-events="none" fill="none" stroke="white" stroke-width="1.5" d="M0,-3.0v7 M-2.5,-0.5L0,-3.0L2.5,-0.5"/>
  </g>
  <g id="arrowDown" transform="rotate(180) translate(-30 -48)">
    <use xlink:href="#rim"/>
    <path pointer-events="none" fill="none" stroke="white" stroke-width="1.5" d="M0,-3.0v7 M-2.5,-0.5L0,-3.0L2.5,-0.5"/>
  </g>
  <g id="arrowLeft" transform="rotate(270) translate(-36 17)">
    <use xlink:href="#rim"/>
    <path pointer-events="none" fill="none" stroke="white" stroke-width="1.5" d="M0,-3.0v7 M-2.5,-0.5L0,-3.0L2.5,-0.5"/>
  </g>
  <g id="resetDef">
    <use xlink:href="#rim2" fill="#404040"><set attributeName="fill" to="#808080" begin="reset.mouseover" end="reset.mouseout"/></use>
  </g>
</defs>
<script type="application/ecmascript">
var viewWidth = 297;
var viewHeight = 564;
var sectionId = 'dynsection-0';
</script>
<script type="application/ecmascript" xlink:href="svg.min.js"/>
<svg id="graph" class="graph">
<g id="viewport">
<title>anch::date::Date</title>
<!-- Node1 -->
<g id="Node000001" class="node">
<title>Node1</title>
<g id="a_Node000001"><a xlink:title=" ">
<polygon fill="#999999" stroke="none" points="172.38,-556 88.38,-556 88.38,-152 172.38,-152 172.38,-556"/>
<text xml:space="preserve" text-anchor="start" x="94" y="-542.5" font-family="Helvetica,sans-Serif" font-size="10.00">anch::date::Date</text>
<text xml:space="preserve" text-anchor="start" x="92.75" y="-526.5" font-family="Helvetica,sans-Serif" font-size="10.00">#</text>
<text xml:space="preserve" text-anchor="start" x="102.38" y="-526.5" font-family="Helvetica,sans-Serif" font-size="10.00">_timestamp</text>
<text xml:space="preserve" text-anchor="start" x="92.75" y="-510.5" font-family="Helvetica,sans-Serif" font-size="10.00">#</text>
<text xml:space="preserve" text-anchor="start" x="102.38" y="-510.5" font-family="Helvetica,sans-Serif" font-size="10.00">_years</text>
<text xml:space="preserve" text-anchor="start" x="92.75" y="-494.5" font-family="Helvetica,sans-Serif" font-size="10.00">#</text>
<text xml:space="preserve" text-anchor="start" x="102.38" y="-494.5" font-family="Helvetica,sans-Serif" font-size="10.00">_months</text>
<text xml:space="preserve" text-anchor="start" x="92.75" y="-478.5" font-family="Helvetica,sans-Serif" font-size="10.00">#</text>
<text xml:space="preserve" text-anchor="start" x="102.38" y="-478.5" font-family="Helvetica,sans-Serif" font-size="10.00">_ydays</text>
<text xml:space="preserve" text-anchor="start" x="92.75" y="-462.5" font-family="Helvetica,sans-Serif" font-size="10.00">#</text>
<text xml:space="preserve" text-anchor="start" x="102.38" y="-462.5" font-family="Helvetica,sans-Serif" font-size="10.00">_mdays</text>
<text xml:space="preserve" text-anchor="start" x="92.75" y="-446.5" font-family="Helvetica,sans-Serif" font-size="10.00">#</text>
<text xml:space="preserve" text-anchor="start" x="102.38" y="-446.5" font-family="Helvetica,sans-Serif" font-size="10.00">_wdays</text>
<text xml:space="preserve" text-anchor="start" x="92.75" y="-430.5" font-family="Helvetica,sans-Serif" font-size="10.00">#</text>
<text xml:space="preserve" text-anchor="start" x="102.38" y="-430.5" font-family="Helvetica,sans-Serif" font-size="10.00">_hours</text>
<text xml:space="preserve" text-anchor="start" x="92.75" y="-414.5" font-family="Helvetica,sans-Serif" font-size="10.00">#</text>
<text xml:space="preserve" text-anchor="start" x="102.38" y="-414.5" font-family="Helvetica,sans-Serif" font-size="10.00">_minutes</text>
<text xml:space="preserve" text-anchor="start" x="92.75" y="-398.5" font-family="Helvetica,sans-Serif" font-size="10.00">#</text>
<text xml:space="preserve" text-anchor="start" x="102.38" y="-398.5" font-family="Helvetica,sans-Serif" font-size="10.00">_seconds</text>
<text xml:space="preserve" text-anchor="start" x="92.75" y="-382.5" font-family="Helvetica,sans-Serif" font-size="10.00">#</text>
<text xml:space="preserve" text-anchor="start" x="102.38" y="-382.5" font-family="Helvetica,sans-Serif" font-size="10.00">_milliseconds</text>
<text xml:space="preserve" text-anchor="start" x="92.75" y="-366.5" font-family="Helvetica,sans-Serif" font-size="10.00">#</text>
<text xml:space="preserve" text-anchor="start" x="102.38" y="-366.5" font-family="Helvetica,sans-Serif" font-size="10.00">_microseconds</text>
<text xml:space="preserve" text-anchor="start" x="92.75" y="-350.5" font-family="Helvetica,sans-Serif" font-size="10.00">#</text>
<text xml:space="preserve" text-anchor="start" x="102.38" y="-350.5" font-family="Helvetica,sans-Serif" font-size="10.00">_nanoseconds</text>
<text xml:space="preserve" text-anchor="start" x="92.75" y="-334.5" font-family="Helvetica,sans-Serif" font-size="10.00">#</text>
<text xml:space="preserve" text-anchor="start" x="102.38" y="-334.5" font-family="Helvetica,sans-Serif" font-size="10.00">_mutex</text>
<text xml:space="preserve" text-anchor="start" x="92.38" y="-318.5" font-family="Helvetica,sans-Serif" font-size="10.00">+</text>
<text xml:space="preserve" text-anchor="start" x="102.38" y="-318.5" font-family="Helvetica,sans-Serif" font-size="10.00">Date()</text>
<text xml:space="preserve" text-anchor="start" x="92.38" y="-302.5" font-family="Helvetica,sans-Serif" font-size="10.00">+</text>
<text xml:space="preserve" text-anchor="start" x="102.38" y="-302.5" font-family="Helvetica,sans-Serif" font-size="10.00">Date()</text>
<text xml:space="preserve" text-anchor="start" x="92.38" y="-286.5" font-family="Helvetica,sans-Serif" font-size="10.00">+</text>
<text xml:space="preserve" text-anchor="start" x="102.38" y="-286.5" font-family="Helvetica,sans-Serif" font-size="10.00">Date()</text>
<text xml:space="preserve" text-anchor="start" x="92.38" y="-270.5" font-family="Helvetica,sans-Serif" font-size="10.00">+</text>
<text xml:space="preserve" text-anchor="start" x="102.38" y="-270.5" font-family="Helvetica,sans-Serif" font-size="10.00">Date()</text>
<text xml:space="preserve" text-anchor="start" x="92.38" y="-254.5" font-family="Helvetica,sans-Serif" font-size="10.00">+</text>
<text xml:space="preserve" text-anchor="start" x="102.38" y="-254.5" font-family="Helvetica,sans-Serif" font-size="10.00">~Date()</text>
<text xml:space="preserve" text-anchor="start" x="92.38" y="-238.5" font-family="Helvetica,sans-Serif" font-size="10.00">+</text>
<text xml:space="preserve" text-anchor="start" x="102.38" y="-238.5" font-family="Helvetica,sans-Serif" font-size="10.00">after()</text>
<text xml:space="preserve" text-anchor="start" x="92.38" y="-222.5" font-family="Helvetica,sans-Serif" font-size="10.00">+</text>
<text xml:space="preserve" text-anchor="start" x="102.38" y="-222.5" font-family="Helvetica,sans-Serif" font-size="10.00">before()</text>
<text xml:space="preserve" text-anchor="start" x="92.38" y="-206.5" font-family="Helvetica,sans-Serif" font-size="10.00">+</text>
<text xml:space="preserve" text-anchor="start" x="102.38" y="-206.5" font-family="Helvetica,sans-Serif" font-size="10.00">equals()</text>
<text xml:space="preserve" text-anchor="start" x="92.38" y="-190.5" font-family="Helvetica,sans-Serif" font-size="10.00">+</text>
<text xml:space="preserve" text-anchor="start" x="102.38" y="-190.5" font-family="Helvetica,sans-Serif" font-size="10.00">operator&gt;()</text>
<text xml:space="preserve" text-anchor="start" x="92.38" y="-174.5" font-family="Helvetica,sans-Serif" font-size="10.00">+</text>
<text xml:space="preserve" text-anchor="start" x="102.38" y="-174.5" font-family="Helvetica,sans-Serif" font-size="10.00">operator&gt;=()</text>
<text xml:space="preserve" text-anchor="start" x="102.38" y="-158.5" font-family="Helvetica,sans-Serif" font-size="10.00">and 7 more...</text>
<polygon fill="#666666" stroke="#666666" points="88.38,-538 88.38,-538 172.38,-538 172.38,-538 88.38,-538"/>
<polygon fill="#666666" stroke="#666666" points="88.38,-330 88.38,-330 100.38,-330 100.38,-330 88.38,-330"/>
<polygon fill="#666666" stroke="#666666" points="100.38,-330 100.38,-330 172.38,-330 172.38,-330 100.38,-330"/>
<polygon fill="none" stroke="#666666" points="88.38,-152 88.38,-556 172.38,-556 172.38,-152 88.38,-152"/>
</a>
</g>
</g>
<!-- Node2 -->
<g id="Node000002" class="node">
<title>Node2</title>
<g id="a_Node000002"><a xlink:href="classanch_1_1sql_1_1_date.html" target="_top" xlink:title="SQL date type.">
<polygon fill="white" stroke="none" points="74.75,-116 0,-116 0,0 74.75,0 74.75,-116"/>
<text xml:space="preserve" text-anchor="start" x="4" y="-102.5" font-family="Helvetica,sans-Serif" font-size="10.00">anch::sql::Date</text>
<text xml:space="preserve" text-anchor="start" x="35.88" y="-86.5" font-family="Helvetica,sans-Serif" font-size="10.00"> </text>
<text xml:space="preserve" text-anchor="start" x="9.94" y="-70.5" font-family="Helvetica,sans-Serif" font-size="10.00">+</text>
<text xml:space="preserve" text-anchor="start" x="25.88" y="-70.5" font-family="Helvetica,sans-Serif" font-size="10.00">Date()</text>
<text xml:space="preserve" text-anchor="start" x="9.94" y="-54.5" font-family="Helvetica,sans-Serif" font-size="10.00">+</text>
<text xml:space="preserve" text-anchor="start" x="25.88" y="-54.5" font-family="Helvetica,sans-Serif" font-size="10.00">Date()</text>
<text xml:space="preserve" text-anchor="start" x="9.94" y="-38.5" font-family="Helvetica,sans-Serif" font-size="10.00">+</text>
<text xml:space="preserve" text-anchor="start" x="25.88" y="-38.5" font-family="Helvetica,sans-Serif" font-size="10.00">Date()</text>
<text xml:space="preserve" text-anchor="start" x="9.94" y="-22.5" font-family="Helvetica,sans-Serif" font-size="10.00">+</text>
<text xml:space="preserve" text-anchor="start" x="25.88" y="-22.5" font-family="Helvetica,sans-Serif" font-size="10.00">Date()</text>
<text xml:space="preserve" text-anchor="start" x="9.94" y="-6.5" font-family="Helvetica,sans-Serif" font-size="10.00">+</text>
<text xml:space="preserve" text-anchor="start" x="25.88" y="-6.5" font-family="Helvetica,sans-Serif" font-size="10.00">~Date()</text>
<polygon fill="#666666" stroke="#666666" points="0,-98 0,-98 74.75,-98 74.75,-98 0,-98"/>
<polygon fill="#666666" stroke="#666666" points="0,-82 0,-82 74.75,-82 74.75,-82 0,-82"/>
<polygon fill="none" stroke="#666666" points="0,0 0,-116 74.75,-116 74.75,0 0,0"/>
</a>
</g>
</g>
<!-- Node1&#45;&gt;Node2 -->
<g id="edge1_Node000001_Node000002" class="edge">
<title>Node1&#45;&gt;Node2</title>
<g id="a_edge1_Node000001_Node000002"><a xlink:title=" ">
<path fill="none" stroke="#63b8ff" d="M85.07,-209.79C74.5,-176.37 63.85,-142.69 55.3,-115.66"/>
<polygon fill="none" stroke="#63b8ff" points="81.69,-210.7 88.04,-219.18 88.36,-208.59 81.69,-210.7"/>
</a>
</g>
</g>
<!-- Node3 -->
<g id="Node000003" class="node">
<title>Node3</title>
<g id="a_Node000003"><a xlink:href="classanch_1_1sql_1_1_time.html" target="_top" xlink:title="SQL time type.">
<polygon fill="white" stroke="none" points="168.12,-116 92.62,-116 92.62,0 168.12,0 168.12,-116"/>
<text xml:space="preserve" text-anchor="start" x="96.62" y="-102.5" font-family="Helvetica,sans-Serif" font-size="10.00">anch::sql::Time</text>
<text xml:space="preserve" text-anchor="start" x="128.88" y="-86.5" font-family="Helvetica,sans-Serif" font-size="10.00"> </text>
<text xml:space="preserve" text-anchor="start" x="102.56" y="-70.5" font-family="Helvetica,sans-Serif" font-size="10.00">+</text>
<text xml:space="preserve" text-anchor="start" x="118.5" y="-70.5" font-family="Helvetica,sans-Serif" font-size="10.00">Time()</text>
<text xml:space="preserve" text-anchor="start" x="102.56" y="-54.5" font-family="Helvetica,sans-Serif" font-size="10.00">+</text>
<text xml:space="preserve" text-anchor="start" x="118.5" y="-54.5" font-family="Helvetica,sans-Serif" font-size="10.00">Time()</text>
<text xml:space="preserve" text-anchor="start" x="102.56" y="-38.5" font-family="Helvetica,sans-Serif" font-size="10.00">+</text>
<text xml:space="preserve" text-anchor="start" x="118.5" y="-38.5" font-family="Helvetica,sans-Serif" font-size="10.00">Time()</text>
<text xml:space="preserve" text-anchor="start" x="102.56" y="-22.5" font-family="Helvetica,sans-Serif" font-size="10.00">+</text>
<text xml:space="preserve" text-anchor="start" x="118.5" y="-22.5" font-family="Helvetica,sans-Serif" font-size="10.00">Time()</text>
<text xml:space="preserve" text-anchor="start" x="102.56" y="-6.5" font-family="Helvetica,sans-Serif" font-size="10.00">+</text>
<text xml:space="preserve" text-anchor="start" x="118.5" y="-6.5" font-family="Helvetica,sans-Serif" font-size="10.00">~Time()</text>
<polygon fill="#666666" stroke="#666666" points="92.62,-98 92.62,-98 168.12,-98 168.12,-98 92.62,-98"/>
<polygon fill="#666666" stroke="#666666" points="92.62,-82 92.62,-82 168.12,-82 168.12,-82 92.62,-82"/>
<polygon fill="none" stroke="#666666" points="92.62,0 92.62,-116 168.12,-116 168.12,0 92.62,0"/>
</a>
</g>
</g>
<!-- Node1&#45;&gt;Node3 -->
<g id="edge2_Node000001_Node000003" class="edge">
<title>Node1&#45;&gt;Node3</title>
<g id="a_edge2_Node000001_Node000003"><a xlink:title=" ">
<path fill="none" stroke="#63b8ff" d="M130.38,-140.79C130.38,-132.07 130.38,-123.73 130.38,-115.95"/>
<polygon fill="none" stroke="#63b8ff" points="126.88,-140.51 130.38,-150.51 133.88,-140.51 126.88,-140.51"/>
</a>
</g>
</g>
<!-- Node4 -->
<g id="Node000004" class="node">
<title>Node4</title>
<g id="a_Node000004"><a xlink:href="classanch_1_1sql_1_1_timestamp.html" target="_top" xlink:title="SQL timestamp type.">
<polygon fill="white" stroke="none" points="288.62,-116 186.12,-116 186.12,0 288.62,0 288.62,-116"/>
<text xml:space="preserve" text-anchor="start" x="190.12" y="-102.5" font-family="Helvetica,sans-Serif" font-size="10.00">anch::sql::Timestamp</text>
<text xml:space="preserve" text-anchor="start" x="235.88" y="-86.5" font-family="Helvetica,sans-Serif" font-size="10.00"> </text>
<text xml:space="preserve" text-anchor="start" x="196.06" y="-70.5" font-family="Helvetica,sans-Serif" font-size="10.00">+</text>
<text xml:space="preserve" text-anchor="start" x="212" y="-70.5" font-family="Helvetica,sans-Serif" font-size="10.00">Timestamp()</text>
<text xml:space="preserve" text-anchor="start" x="196.06" y="-54.5" font-family="Helvetica,sans-Serif" font-size="10.00">+</text>
<text xml:space="preserve" text-anchor="start" x="212" y="-54.5" font-family="Helvetica,sans-Serif" font-size="10.00">Timestamp()</text>
<text xml:space="preserve" text-anchor="start" x="196.06" y="-38.5" font-family="Helvetica,sans-Serif" font-size="10.00">+</text>
<text xml:space="preserve" text-anchor="start" x="212" y="-38.5" font-family="Helvetica,sans-Serif" font-size="10.00">Timestamp()</text>
<text xml:space="preserve" text-anchor="start" x="196.06" y="-22.5" font-family="Helvetica,sans-Serif" font-size="10.00">+</text>
<text xml:space="preserve" text-anchor="start" x="212" y="-22.5" font-family="Helvetica,sans-Serif" font-size="10.00">Timestamp()</text>
<text xml:space="preserve" text-anchor="start" x="196.06" y="-6.5" font-family="Helvetica,sans-Serif" font-size="10.00">+</text>
<text xml:space="preserve" text-anchor="start" x="212" y="-6.5" font-family="Helvetica,sans-Serif" font-size="10.00">~Timestamp()</text>
<polygon fill="#666666" stroke="#666666" points="186.12,-98 186.12,-98 288.62,-98 288.62,-98 186.12,-98"/>
<polygon fill="#666666" stroke="#666666" points="186.12,-82 186.12,-82 288.62,-82 288.62,-82 186.12,-82"/>
<polygon fill="none" stroke="#666666" points="186.12,0 186.12,-116 288.62,-116 288.62,0 186.12,0"/>
</a>
</g>
</g>
<!-- Node1&#45;&gt;Node4 -->
<g id="edge3_Node000001_Node000004" class="edge">
<title>Node1&#45;&gt;Node4</title>
<g id="a_edge3_Node000001_Node000004"><a xlink:title=" ">
<path fill="none" stroke="#63b8ff" d="M176.13,-227.29C190.26,-188.44 205.14,-147.57 216.69,-115.83"/>
<polygon fill="none" stroke="#63b8ff" points="173.01,-225.63 172.87,-236.22 179.58,-228.02 173.01,-225.63"/>
</a>
</g>
</g>
</g>
</svg>

<g id="navigator" transform="translate(0 0)" fill="#404254">
  <rect fill="#f2f5e9" fill-opacity="0.5" stroke="#606060" stroke-width=".5" x="0" y="0" width="60" height="60"/>
  <use id="zoomplus" xlink:href="#zoomPlus" x="17" y="9" onmousedown="handleZoom(evt,'in')"/>
  <use id="zoomminus" xlink:href="#zoomMin" x="42" y="9" onmousedown="handleZoom(evt,'out')"/>
  <use id="reset" xlink:href="#resetDef" x="30" y="36" onmousedown="handleReset()"/>
   <use id="arrowup" xlink:href="#arrowUp" x="0" y="0" onmousedown="handlePan(0,-1)"/>
  <use id="arrowright" xlink:href="#arrowRight" x="0" y="0" onmousedown="handlePan(1,0)"/>
  <use id="arrowdown" xlink:href="#arrowDown" x="0" y="0" onmousedown="handlePan(0,1)"/>
  <use id="arrowleft" xlink:href="#arrowLeft" x="0" y="0" onmousedown="handlePan(-1,0)"/>
</g>
<svg viewBox="0 0 15 15" width="100%" height="30px" preserveAspectRatio="xMaxYMin meet">
 <g id="arrow_out" transform="scale(0.3 0.3)">
  <a xlink:href="classanch_1_1date_1_1_date__inherit__graph_org.svg" target="_base">
   <rect id="button" ry="5" rx="5" y="6" x="6" height="38" width="38"
        fill="#f2f5e9" fill-opacity="0.5" stroke="#606060" stroke-width="1.0"/>
   <path id="arrow"
     d="M 11.500037,31.436501 C 11.940474,20.09759 22.043105,11.32322 32.158766,21.979434 L 37.068811,17.246167 C 37.068811,17.246167 37.088388,32 37.088388,32 L 22.160133,31.978069 C 22.160133,31.978069 26.997745,27.140456 26.997745,27.140456 C 18.528582,18.264221 13.291696,25.230495 11.500037,31.436501 z"
     style="fill:#404040;"/>
  </a>
 </g>
</svg>

<style type='text/css'>
<![CDATA[
[data-mouse-over-selected='false'] { opacity: 0.7; }
[data-mouse-over-selected='true']  { opacity: 1.0; }
]]>
</style>
<script type="application/ecmascript"><![CDATA[
document.addEventListener('DOMContentLoaded', (event) => {
  highlightEdges();
  highlightAdjacentNodes();
});
]]></script>
</svg>
