<?xml version="1.0" encoding="UTF-8" standalone="no"?>
<!DOCTYPE svg PUBLIC "-//W3C//DTD SVG 1.1//EN"
 "http://www.w3.org/Graphics/SVG/1.1/DTD/svg11.dtd">
<!-- Generated by graphviz version 13.1.0 (0)
 -->
<!-- Title: anch::crypto::BlockCipherModeOfOperation&lt; Derived, Cipher &gt; Pages: 1 -->
<!--zoomable 619 -->

<svg id="main" version="1.1" xmlns="http://www.w3.org/2000/svg" xmlns:xlink="http://www.w3.org/1999/xlink" xml:space="preserve" onload="init(evt)">

<style type="text/css"><![CDATA[
.node, .edge {opacity: 0.7;}
.node.selected, .edge.selected {opacity: 1;}
.edge:hover path { stroke: red; }
.edge:hover polygon { stroke: red; fill: red; }
]]></style>

<defs>
  <circle id="rim" cx="0" cy="0" r="7"/>
  <circle id="rim2" cx="0" cy="0" r="3.5"/>
  <g id="zoomPlus">
    <use xlink:href="#rim" fill="#404040"><set attributeName="fill" to="#808080" begin="zoomplus.mouseover" end="zoomplus.mouseout"/></use>
    <path d="M-4,0h8M0,-4v8" fill="none" stroke="white" stroke-width="1.5" pointer-events="none"/>
  </g>
  <g id="zoomMin">
    <use xlink:href="#rim" fill="#404040"><set attributeName="fill" to="#808080" begin="zoomminus.mouseover" end="zoomminus.mouseout"/></use>
    <path d="M-4,0h8" fill="none" stroke="white" stroke-width="1.5" pointer-events="none"/>
  </g>
  <g id="arrowUp" transform="translate(30 24)">
    <use xlink:href="#rim"/>
    <path pointer-events="none" fill="none" stroke="white" stroke-width="1.5" d="M0,-3.0v7 M-2.5,-0.5L0,-3.0L2.5,-0.5"/>
  </g>
  <g id="arrowRight" transform="rotate(90) translate(36 -43)">
    <use xlink:href="#rim"/>
    <path pointer-events="none" fill="none" stroke="white" stroke-width="1.5" d="M0,-3.0v7 M-2.5,-0.5L0,-3.0L2.5,-0.5"/>
  </g>
  <g id="arrowDown" transform="rotate(180) translate(-30 -48)">
    <use xlink:href="#rim"/>
    <path pointer-events="none" fill="none" stroke="white" stroke-width="1.5" d="M0,-3.0v7 M-2.5,-0.5L0,-3.0L2.5,-0.5"/>
  </g>
  <g id="arrowLeft" transform="rotate(270) translate(-36 17)">
    <use xlink:href="#rim"/>
    <path pointer-events="none" fill="none" stroke="white" stroke-width="1.5" d="M0,-3.0v7 M-2.5,-0.5L0,-3.0L2.5,-0.5"/>
  </g>
  <g id="resetDef">
    <use xlink:href="#rim2" fill="#404040"><set attributeName="fill" to="#808080" begin="reset.mouseover" end="reset.mouseout"/></use>
  </g>
</defs>
<script type="application/ecmascript">
var viewWidth = 1058;
var viewHeight = 619;
var sectionId = 'dynsection-0';
</script>
<script type="application/ecmascript" xlink:href="svg.min.js"/>
<svg id="graph" class="graph">
<g id="viewport">
<title>anch::crypto::BlockCipherModeOfOperation&lt; Derived, Cipher &gt;</title>
<!-- Node1 -->
<g id="Node000001" class="node">
<title>Node1</title>
<g id="a_Node000001"><a xlink:title="Block cipher mode of operation interface.">
<polygon fill="#999999" stroke="none" points="596.75,-611 437,-611 437,-423 596.75,-423 596.75,-611"/>
<text xml:space="preserve" text-anchor="start" x="455.75" y="-597.5" font-family="Helvetica,sans-Serif" font-size="10.00">anch::crypto::BlockCipher</text>
<text xml:space="preserve" text-anchor="start" x="455.75" y="-585.5" font-family="Helvetica,sans-Serif" font-size="10.00">ModeOfOperation&lt; Derived,</text>
<text xml:space="preserve" text-anchor="start" x="496.62" y="-573.5" font-family="Helvetica,sans-Serif" font-size="10.00"> Cipher &gt;</text>
<text xml:space="preserve" text-anchor="start" x="515.38" y="-557.5" font-family="Helvetica,sans-Serif" font-size="10.00"> </text>
<text xml:space="preserve" text-anchor="start" x="441" y="-541.5" font-family="Helvetica,sans-Serif" font-size="10.00">+</text>
<text xml:space="preserve" text-anchor="start" x="451" y="-541.5" font-family="Helvetica,sans-Serif" font-size="10.00">cipher()</text>
<text xml:space="preserve" text-anchor="start" x="441" y="-525.5" font-family="Helvetica,sans-Serif" font-size="10.00">+</text>
<text xml:space="preserve" text-anchor="start" x="451" y="-525.5" font-family="Helvetica,sans-Serif" font-size="10.00">decipher()</text>
<text xml:space="preserve" text-anchor="start" x="441" y="-509.5" font-family="Helvetica,sans-Serif" font-size="10.00">+</text>
<text xml:space="preserve" text-anchor="start" x="451" y="-509.5" font-family="Helvetica,sans-Serif" font-size="10.00">setNbThread()</text>
<text xml:space="preserve" text-anchor="start" x="441.38" y="-493.5" font-family="Helvetica,sans-Serif" font-size="10.00">#</text>
<text xml:space="preserve" text-anchor="start" x="451" y="-493.5" font-family="Helvetica,sans-Serif" font-size="10.00">BlockCipherModeOfOperation()</text>
<text xml:space="preserve" text-anchor="start" x="441.38" y="-477.5" font-family="Helvetica,sans-Serif" font-size="10.00">#</text>
<text xml:space="preserve" text-anchor="start" x="451" y="-477.5" font-family="Helvetica,sans-Serif" font-size="10.00">~BlockCipherModeOfOperation()</text>
<text xml:space="preserve" text-anchor="start" x="441.38" y="-461.5" font-family="Helvetica,sans-Serif" font-size="10.00">#</text>
<text xml:space="preserve" text-anchor="start" x="451" y="-461.5" font-family="Helvetica,sans-Serif" font-size="10.00">cipherBlock()</text>
<text xml:space="preserve" text-anchor="start" x="441.38" y="-445.5" font-family="Helvetica,sans-Serif" font-size="10.00">#</text>
<text xml:space="preserve" text-anchor="start" x="451" y="-445.5" font-family="Helvetica,sans-Serif" font-size="10.00">decipherBlock()</text>
<text xml:space="preserve" text-anchor="start" x="441.38" y="-429.5" font-family="Helvetica,sans-Serif" font-size="10.00">#</text>
<text xml:space="preserve" text-anchor="start" x="451" y="-429.5" font-family="Helvetica,sans-Serif" font-size="10.00">reset()</text>
<polygon fill="#666666" stroke="#666666" points="437,-569 437,-569 596.75,-569 596.75,-569 437,-569"/>
<polygon fill="#666666" stroke="#666666" points="437,-553 437,-553 596.75,-553 596.75,-553 437,-553"/>
<polygon fill="none" stroke="#666666" points="437,-423 437,-611 596.75,-611 596.75,-423 437,-423"/>
</a>
</g>
</g>
<!-- Node2 -->
<g id="Node000002" class="node">
<title>Node2</title>
<g id="a_Node000002"><a xlink:href="classanch_1_1crypto_1_1_block_cipher_mode_of_operation.html" target="_top" xlink:title=" ">
<polygon fill="white" stroke="none" points="159.75,-353 0,-353 0,-165 159.75,-165 159.75,-353"/>
<text xml:space="preserve" text-anchor="start" x="6" y="-339.5" font-family="Helvetica,sans-Serif" font-size="10.00">anch::crypto::BlockCipher</text>
<text xml:space="preserve" text-anchor="start" x="6" y="-327.5" font-family="Helvetica,sans-Serif" font-size="10.00">ModeOfOperation&lt; CBC&lt; Cipher,</text>
<text xml:space="preserve" text-anchor="start" x="34.5" y="-315.5" font-family="Helvetica,sans-Serif" font-size="10.00"> Padding &gt;, Cipher &gt;</text>
<text xml:space="preserve" text-anchor="start" x="78.38" y="-299.5" font-family="Helvetica,sans-Serif" font-size="10.00"> </text>
<text xml:space="preserve" text-anchor="start" x="4" y="-283.5" font-family="Helvetica,sans-Serif" font-size="10.00">+</text>
<text xml:space="preserve" text-anchor="start" x="14" y="-283.5" font-family="Helvetica,sans-Serif" font-size="10.00">cipher()</text>
<text xml:space="preserve" text-anchor="start" x="4" y="-267.5" font-family="Helvetica,sans-Serif" font-size="10.00">+</text>
<text xml:space="preserve" text-anchor="start" x="14" y="-267.5" font-family="Helvetica,sans-Serif" font-size="10.00">decipher()</text>
<text xml:space="preserve" text-anchor="start" x="4" y="-251.5" font-family="Helvetica,sans-Serif" font-size="10.00">+</text>
<text xml:space="preserve" text-anchor="start" x="14" y="-251.5" font-family="Helvetica,sans-Serif" font-size="10.00">setNbThread()</text>
<text xml:space="preserve" text-anchor="start" x="4.38" y="-235.5" font-family="Helvetica,sans-Serif" font-size="10.00">#</text>
<text xml:space="preserve" text-anchor="start" x="14" y="-235.5" font-family="Helvetica,sans-Serif" font-size="10.00">BlockCipherModeOfOperation()</text>
<text xml:space="preserve" text-anchor="start" x="4.38" y="-219.5" font-family="Helvetica,sans-Serif" font-size="10.00">#</text>
<text xml:space="preserve" text-anchor="start" x="14" y="-219.5" font-family="Helvetica,sans-Serif" font-size="10.00">~BlockCipherModeOfOperation()</text>
<text xml:space="preserve" text-anchor="start" x="4.38" y="-203.5" font-family="Helvetica,sans-Serif" font-size="10.00">#</text>
<text xml:space="preserve" text-anchor="start" x="14" y="-203.5" font-family="Helvetica,sans-Serif" font-size="10.00">cipherBlock()</text>
<text xml:space="preserve" text-anchor="start" x="4.38" y="-187.5" font-family="Helvetica,sans-Serif" font-size="10.00">#</text>
<text xml:space="preserve" text-anchor="start" x="14" y="-187.5" font-family="Helvetica,sans-Serif" font-size="10.00">decipherBlock()</text>
<text xml:space="preserve" text-anchor="start" x="4.38" y="-171.5" font-family="Helvetica,sans-Serif" font-size="10.00">#</text>
<text xml:space="preserve" text-anchor="start" x="14" y="-171.5" font-family="Helvetica,sans-Serif" font-size="10.00">reset()</text>
<polygon fill="#666666" stroke="#666666" points="0,-311 0,-311 159.75,-311 159.75,-311 0,-311"/>
<polygon fill="#666666" stroke="#666666" points="0,-295 0,-295 159.75,-295 159.75,-295 0,-295"/>
<polygon fill="none" stroke="#666666" points="0,-165 0,-353 159.75,-353 159.75,-165 0,-165"/>
</a>
</g>
</g>
<!-- Node1&#45;&gt;Node2 -->
<g id="edge1_Node000001_Node000002" class="edge">
<title>Node1&#45;&gt;Node2</title>
<g id="a_edge1_Node000001_Node000002"><a xlink:title=" ">
<path fill="none" stroke="orange" d="M426.22,-502.84C353.4,-488.62 251.56,-460.12 178.38,-405 159.66,-390.9 143.29,-372.17 129.55,-352.86"/>
<polygon fill="orange" stroke="orange" points="425.24,-506.22 435.71,-504.64 426.54,-499.34 425.24,-506.22"/>
</a>
</g>
<text xml:space="preserve" text-anchor="start" x="181.38" y="-392.5" font-family="Helvetica,sans-Serif" font-size="10.00" fill="grey">&lt; CBC&lt; Cipher, Padding</text>
<text xml:space="preserve" text-anchor="start" x="181.38" y="-376.5" font-family="Helvetica,sans-Serif" font-size="10.00" fill="grey">   &gt;, Cipher &gt;</text>
</g>
<!-- Node4 -->
<g id="Node000004" class="node">
<title>Node4</title>
<g id="a_Node000004"><a xlink:href="classanch_1_1crypto_1_1_block_cipher_mode_of_operation.html" target="_top" xlink:title=" ">
<polygon fill="white" stroke="none" points="337.75,-353 178,-353 178,-165 337.75,-165 337.75,-353"/>
<text xml:space="preserve" text-anchor="start" x="186.25" y="-339.5" font-family="Helvetica,sans-Serif" font-size="10.00">anch::crypto::BlockCipher</text>
<text xml:space="preserve" text-anchor="start" x="186.25" y="-327.5" font-family="Helvetica,sans-Serif" font-size="10.00">ModeOfOperation&lt; CFB&lt; Cipher</text>
<text xml:space="preserve" text-anchor="start" x="231.62" y="-315.5" font-family="Helvetica,sans-Serif" font-size="10.00"> &gt;, Cipher &gt;</text>
<text xml:space="preserve" text-anchor="start" x="256.38" y="-299.5" font-family="Helvetica,sans-Serif" font-size="10.00"> </text>
<text xml:space="preserve" text-anchor="start" x="182" y="-283.5" font-family="Helvetica,sans-Serif" font-size="10.00">+</text>
<text xml:space="preserve" text-anchor="start" x="192" y="-283.5" font-family="Helvetica,sans-Serif" font-size="10.00">cipher()</text>
<text xml:space="preserve" text-anchor="start" x="182" y="-267.5" font-family="Helvetica,sans-Serif" font-size="10.00">+</text>
<text xml:space="preserve" text-anchor="start" x="192" y="-267.5" font-family="Helvetica,sans-Serif" font-size="10.00">decipher()</text>
<text xml:space="preserve" text-anchor="start" x="182" y="-251.5" font-family="Helvetica,sans-Serif" font-size="10.00">+</text>
<text xml:space="preserve" text-anchor="start" x="192" y="-251.5" font-family="Helvetica,sans-Serif" font-size="10.00">setNbThread()</text>
<text xml:space="preserve" text-anchor="start" x="182.38" y="-235.5" font-family="Helvetica,sans-Serif" font-size="10.00">#</text>
<text xml:space="preserve" text-anchor="start" x="192" y="-235.5" font-family="Helvetica,sans-Serif" font-size="10.00">BlockCipherModeOfOperation()</text>
<text xml:space="preserve" text-anchor="start" x="182.38" y="-219.5" font-family="Helvetica,sans-Serif" font-size="10.00">#</text>
<text xml:space="preserve" text-anchor="start" x="192" y="-219.5" font-family="Helvetica,sans-Serif" font-size="10.00">~BlockCipherModeOfOperation()</text>
<text xml:space="preserve" text-anchor="start" x="182.38" y="-203.5" font-family="Helvetica,sans-Serif" font-size="10.00">#</text>
<text xml:space="preserve" text-anchor="start" x="192" y="-203.5" font-family="Helvetica,sans-Serif" font-size="10.00">cipherBlock()</text>
<text xml:space="preserve" text-anchor="start" x="182.38" y="-187.5" font-family="Helvetica,sans-Serif" font-size="10.00">#</text>
<text xml:space="preserve" text-anchor="start" x="192" y="-187.5" font-family="Helvetica,sans-Serif" font-size="10.00">decipherBlock()</text>
<text xml:space="preserve" text-anchor="start" x="182.38" y="-171.5" font-family="Helvetica,sans-Serif" font-size="10.00">#</text>
<text xml:space="preserve" text-anchor="start" x="192" y="-171.5" font-family="Helvetica,sans-Serif" font-size="10.00">reset()</text>
<polygon fill="#666666" stroke="#666666" points="178,-311 178,-311 337.75,-311 337.75,-311 178,-311"/>
<polygon fill="#666666" stroke="#666666" points="178,-295 178,-295 337.75,-295 337.75,-295 178,-295"/>
<polygon fill="none" stroke="#666666" points="178,-165 178,-353 337.75,-353 337.75,-165 178,-165"/>
</a>
</g>
</g>
<!-- Node1&#45;&gt;Node4 -->
<g id="edge3_Node000001_Node000004" class="edge">
<title>Node1&#45;&gt;Node4</title>
<g id="a_edge3_Node000001_Node000004"><a xlink:title=" ">
<path fill="none" stroke="orange" d="M426.88,-480.41C390.13,-462.29 349.57,-437.2 320.62,-405 307.06,-389.9 296.09,-371.42 287.35,-352.77"/>
<polygon fill="orange" stroke="orange" points="425.23,-483.5 435.76,-484.68 428.26,-477.2 425.23,-483.5"/>
</a>
</g>
<text xml:space="preserve" text-anchor="start" x="323.62" y="-384.5" font-family="Helvetica,sans-Serif" font-size="10.00" fill="grey">&lt; CFB&lt; Cipher &gt;, Cipher &gt;</text>
</g>
<!-- Node6 -->
<g id="Node000006" class="node">
<title>Node6</title>
<g id="a_Node000006"><a xlink:href="classanch_1_1crypto_1_1_block_cipher_mode_of_operation.html" target="_top" xlink:title=" ">
<polygon fill="white" stroke="none" points="515.75,-353 356,-353 356,-165 515.75,-165 515.75,-353"/>
<text xml:space="preserve" text-anchor="start" x="363.88" y="-339.5" font-family="Helvetica,sans-Serif" font-size="10.00">anch::crypto::BlockCipher</text>
<text xml:space="preserve" text-anchor="start" x="363.88" y="-327.5" font-family="Helvetica,sans-Serif" font-size="10.00">ModeOfOperation&lt; CTR&lt; Cipher</text>
<text xml:space="preserve" text-anchor="start" x="409.62" y="-315.5" font-family="Helvetica,sans-Serif" font-size="10.00"> &gt;, Cipher &gt;</text>
<text xml:space="preserve" text-anchor="start" x="434.38" y="-299.5" font-family="Helvetica,sans-Serif" font-size="10.00"> </text>
<text xml:space="preserve" text-anchor="start" x="360" y="-283.5" font-family="Helvetica,sans-Serif" font-size="10.00">+</text>
<text xml:space="preserve" text-anchor="start" x="370" y="-283.5" font-family="Helvetica,sans-Serif" font-size="10.00">cipher()</text>
<text xml:space="preserve" text-anchor="start" x="360" y="-267.5" font-family="Helvetica,sans-Serif" font-size="10.00">+</text>
<text xml:space="preserve" text-anchor="start" x="370" y="-267.5" font-family="Helvetica,sans-Serif" font-size="10.00">decipher()</text>
<text xml:space="preserve" text-anchor="start" x="360" y="-251.5" font-family="Helvetica,sans-Serif" font-size="10.00">+</text>
<text xml:space="preserve" text-anchor="start" x="370" y="-251.5" font-family="Helvetica,sans-Serif" font-size="10.00">setNbThread()</text>
<text xml:space="preserve" text-anchor="start" x="360.38" y="-235.5" font-family="Helvetica,sans-Serif" font-size="10.00">#</text>
<text xml:space="preserve" text-anchor="start" x="370" y="-235.5" font-family="Helvetica,sans-Serif" font-size="10.00">BlockCipherModeOfOperation()</text>
<text xml:space="preserve" text-anchor="start" x="360.38" y="-219.5" font-family="Helvetica,sans-Serif" font-size="10.00">#</text>
<text xml:space="preserve" text-anchor="start" x="370" y="-219.5" font-family="Helvetica,sans-Serif" font-size="10.00">~BlockCipherModeOfOperation()</text>
<text xml:space="preserve" text-anchor="start" x="360.38" y="-203.5" font-family="Helvetica,sans-Serif" font-size="10.00">#</text>
<text xml:space="preserve" text-anchor="start" x="370" y="-203.5" font-family="Helvetica,sans-Serif" font-size="10.00">cipherBlock()</text>
<text xml:space="preserve" text-anchor="start" x="360.38" y="-187.5" font-family="Helvetica,sans-Serif" font-size="10.00">#</text>
<text xml:space="preserve" text-anchor="start" x="370" y="-187.5" font-family="Helvetica,sans-Serif" font-size="10.00">decipherBlock()</text>
<text xml:space="preserve" text-anchor="start" x="360.38" y="-171.5" font-family="Helvetica,sans-Serif" font-size="10.00">#</text>
<text xml:space="preserve" text-anchor="start" x="370" y="-171.5" font-family="Helvetica,sans-Serif" font-size="10.00">reset()</text>
<polygon fill="#666666" stroke="#666666" points="356,-311 356,-311 515.75,-311 515.75,-311 356,-311"/>
<polygon fill="#666666" stroke="#666666" points="356,-295 356,-295 515.75,-295 515.75,-295 356,-295"/>
<polygon fill="none" stroke="#666666" points="356,-165 356,-353 515.75,-353 515.75,-165 356,-165"/>
</a>
</g>
</g>
<!-- Node1&#45;&gt;Node6 -->
<g id="edge5_Node000001_Node000006" class="edge">
<title>Node1&#45;&gt;Node6</title>
<g id="a_edge5_Node000001_Node000006"><a xlink:title=" ">
<path fill="none" stroke="orange" d="M460.55,-412.63C459.61,-410.08 458.71,-407.53 457.88,-405 452.4,-388.44 448.27,-370.36 445.17,-352.76"/>
<polygon fill="orange" stroke="orange" points="457.2,-413.68 464.11,-421.71 463.72,-411.13 457.2,-413.68"/>
</a>
</g>
<text xml:space="preserve" text-anchor="start" x="460.88" y="-384.5" font-family="Helvetica,sans-Serif" font-size="10.00" fill="grey">&lt; CTR&lt; Cipher &gt;, Cipher &gt;</text>
</g>
<!-- Node8 -->
<g id="Node000008" class="node">
<title>Node8</title>
<g id="a_Node000008"><a xlink:href="classanch_1_1crypto_1_1_block_cipher_mode_of_operation.html" target="_top" xlink:title=" ">
<polygon fill="white" stroke="none" points="693.75,-353 534,-353 534,-165 693.75,-165 693.75,-353"/>
<text xml:space="preserve" text-anchor="start" x="540.38" y="-339.5" font-family="Helvetica,sans-Serif" font-size="10.00">anch::crypto::BlockCipher</text>
<text xml:space="preserve" text-anchor="start" x="540.38" y="-327.5" font-family="Helvetica,sans-Serif" font-size="10.00">ModeOfOperation&lt; ECB&lt; Cipher,</text>
<text xml:space="preserve" text-anchor="start" x="568.5" y="-315.5" font-family="Helvetica,sans-Serif" font-size="10.00"> Padding &gt;, Cipher &gt;</text>
<text xml:space="preserve" text-anchor="start" x="612.38" y="-299.5" font-family="Helvetica,sans-Serif" font-size="10.00"> </text>
<text xml:space="preserve" text-anchor="start" x="538" y="-283.5" font-family="Helvetica,sans-Serif" font-size="10.00">+</text>
<text xml:space="preserve" text-anchor="start" x="548" y="-283.5" font-family="Helvetica,sans-Serif" font-size="10.00">cipher()</text>
<text xml:space="preserve" text-anchor="start" x="538" y="-267.5" font-family="Helvetica,sans-Serif" font-size="10.00">+</text>
<text xml:space="preserve" text-anchor="start" x="548" y="-267.5" font-family="Helvetica,sans-Serif" font-size="10.00">decipher()</text>
<text xml:space="preserve" text-anchor="start" x="538" y="-251.5" font-family="Helvetica,sans-Serif" font-size="10.00">+</text>
<text xml:space="preserve" text-anchor="start" x="548" y="-251.5" font-family="Helvetica,sans-Serif" font-size="10.00">setNbThread()</text>
<text xml:space="preserve" text-anchor="start" x="538.38" y="-235.5" font-family="Helvetica,sans-Serif" font-size="10.00">#</text>
<text xml:space="preserve" text-anchor="start" x="548" y="-235.5" font-family="Helvetica,sans-Serif" font-size="10.00">BlockCipherModeOfOperation()</text>
<text xml:space="preserve" text-anchor="start" x="538.38" y="-219.5" font-family="Helvetica,sans-Serif" font-size="10.00">#</text>
<text xml:space="preserve" text-anchor="start" x="548" y="-219.5" font-family="Helvetica,sans-Serif" font-size="10.00">~BlockCipherModeOfOperation()</text>
<text xml:space="preserve" text-anchor="start" x="538.38" y="-203.5" font-family="Helvetica,sans-Serif" font-size="10.00">#</text>
<text xml:space="preserve" text-anchor="start" x="548" y="-203.5" font-family="Helvetica,sans-Serif" font-size="10.00">cipherBlock()</text>
<text xml:space="preserve" text-anchor="start" x="538.38" y="-187.5" font-family="Helvetica,sans-Serif" font-size="10.00">#</text>
<text xml:space="preserve" text-anchor="start" x="548" y="-187.5" font-family="Helvetica,sans-Serif" font-size="10.00">decipherBlock()</text>
<text xml:space="preserve" text-anchor="start" x="538.38" y="-171.5" font-family="Helvetica,sans-Serif" font-size="10.00">#</text>
<text xml:space="preserve" text-anchor="start" x="548" y="-171.5" font-family="Helvetica,sans-Serif" font-size="10.00">reset()</text>
<polygon fill="#666666" stroke="#666666" points="534,-311 534,-311 693.75,-311 693.75,-311 534,-311"/>
<polygon fill="#666666" stroke="#666666" points="534,-295 534,-295 693.75,-295 693.75,-295 534,-295"/>
<polygon fill="none" stroke="#666666" points="534,-165 534,-353 693.75,-353 693.75,-165 534,-165"/>
</a>
</g>
</g>
<!-- Node1&#45;&gt;Node8 -->
<g id="edge7_Node000001_Node000008" class="edge">
<title>Node1&#45;&gt;Node8</title>
<g id="a_edge7_Node000001_Node000008"><a xlink:title=" ">
<path fill="none" stroke="orange" d="M580.57,-413C581.73,-410.33 582.83,-407.66 583.88,-405 590.35,-388.49 595.51,-370.34 599.6,-352.64"/>
<polygon fill="orange" stroke="orange" points="577.47,-411.36 576.5,-421.91 583.84,-414.27 577.47,-411.36"/>
</a>
</g>
<text xml:space="preserve" text-anchor="start" x="597.07" y="-392.5" font-family="Helvetica,sans-Serif" font-size="10.00" fill="grey">&lt; ECB&lt; Cipher, Padding</text>
<text xml:space="preserve" text-anchor="start" x="597.07" y="-376.5" font-family="Helvetica,sans-Serif" font-size="10.00" fill="grey">   &gt;, Cipher &gt;</text>
</g>
<!-- Node10 -->
<g id="Node000010" class="node">
<title>Node10</title>
<g id="a_Node000010"><a xlink:href="classanch_1_1crypto_1_1_block_cipher_mode_of_operation.html" target="_top" xlink:title=" ">
<polygon fill="white" stroke="none" points="871.75,-353 712,-353 712,-165 871.75,-165 871.75,-353"/>
<text xml:space="preserve" text-anchor="start" x="720.25" y="-339.5" font-family="Helvetica,sans-Serif" font-size="10.00">anch::crypto::BlockCipher</text>
<text xml:space="preserve" text-anchor="start" x="720.25" y="-327.5" font-family="Helvetica,sans-Serif" font-size="10.00">ModeOfOperation&lt; OFB&lt; Cipher</text>
<text xml:space="preserve" text-anchor="start" x="765.62" y="-315.5" font-family="Helvetica,sans-Serif" font-size="10.00"> &gt;, Cipher &gt;</text>
<text xml:space="preserve" text-anchor="start" x="790.38" y="-299.5" font-family="Helvetica,sans-Serif" font-size="10.00"> </text>
<text xml:space="preserve" text-anchor="start" x="716" y="-283.5" font-family="Helvetica,sans-Serif" font-size="10.00">+</text>
<text xml:space="preserve" text-anchor="start" x="726" y="-283.5" font-family="Helvetica,sans-Serif" font-size="10.00">cipher()</text>
<text xml:space="preserve" text-anchor="start" x="716" y="-267.5" font-family="Helvetica,sans-Serif" font-size="10.00">+</text>
<text xml:space="preserve" text-anchor="start" x="726" y="-267.5" font-family="Helvetica,sans-Serif" font-size="10.00">decipher()</text>
<text xml:space="preserve" text-anchor="start" x="716" y="-251.5" font-family="Helvetica,sans-Serif" font-size="10.00">+</text>
<text xml:space="preserve" text-anchor="start" x="726" y="-251.5" font-family="Helvetica,sans-Serif" font-size="10.00">setNbThread()</text>
<text xml:space="preserve" text-anchor="start" x="716.38" y="-235.5" font-family="Helvetica,sans-Serif" font-size="10.00">#</text>
<text xml:space="preserve" text-anchor="start" x="726" y="-235.5" font-family="Helvetica,sans-Serif" font-size="10.00">BlockCipherModeOfOperation()</text>
<text xml:space="preserve" text-anchor="start" x="716.38" y="-219.5" font-family="Helvetica,sans-Serif" font-size="10.00">#</text>
<text xml:space="preserve" text-anchor="start" x="726" y="-219.5" font-family="Helvetica,sans-Serif" font-size="10.00">~BlockCipherModeOfOperation()</text>
<text xml:space="preserve" text-anchor="start" x="716.38" y="-203.5" font-family="Helvetica,sans-Serif" font-size="10.00">#</text>
<text xml:space="preserve" text-anchor="start" x="726" y="-203.5" font-family="Helvetica,sans-Serif" font-size="10.00">cipherBlock()</text>
<text xml:space="preserve" text-anchor="start" x="716.38" y="-187.5" font-family="Helvetica,sans-Serif" font-size="10.00">#</text>
<text xml:space="preserve" text-anchor="start" x="726" y="-187.5" font-family="Helvetica,sans-Serif" font-size="10.00">decipherBlock()</text>
<text xml:space="preserve" text-anchor="start" x="716.38" y="-171.5" font-family="Helvetica,sans-Serif" font-size="10.00">#</text>
<text xml:space="preserve" text-anchor="start" x="726" y="-171.5" font-family="Helvetica,sans-Serif" font-size="10.00">reset()</text>
<polygon fill="#666666" stroke="#666666" points="712,-311 712,-311 871.75,-311 871.75,-311 712,-311"/>
<polygon fill="#666666" stroke="#666666" points="712,-295 712,-295 871.75,-295 871.75,-295 712,-295"/>
<polygon fill="none" stroke="#666666" points="712,-165 712,-353 871.75,-353 871.75,-165 712,-165"/>
</a>
</g>
</g>
<!-- Node1&#45;&gt;Node10 -->
<g id="edge9_Node000001_Node000010" class="edge">
<title>Node1&#45;&gt;Node10</title>
<g id="a_edge9_Node000001_Node000010"><a xlink:title=" ">
<path fill="none" stroke="orange" d="M606.74,-478.41C642.84,-460.13 682.92,-435.45 712.88,-405 727.75,-389.88 740.63,-371.38 751.42,-352.73"/>
<polygon fill="orange" stroke="orange" points="605.43,-475.15 598.03,-482.72 608.54,-481.42 605.43,-475.15"/>
</a>
</g>
<text xml:space="preserve" text-anchor="start" x="741.32" y="-384.5" font-family="Helvetica,sans-Serif" font-size="10.00" fill="grey">&lt; OFB&lt; Cipher &gt;, Cipher &gt;</text>
</g>
<!-- Node12 -->
<g id="Node000012" class="node">
<title>Node12</title>
<g id="a_Node000012"><a xlink:href="classanch_1_1crypto_1_1_block_cipher_mode_of_operation.html" target="_top" xlink:title=" ">
<polygon fill="white" stroke="none" points="1049.75,-353 890,-353 890,-165 1049.75,-165 1049.75,-353"/>
<text xml:space="preserve" text-anchor="start" x="907.25" y="-339.5" font-family="Helvetica,sans-Serif" font-size="10.00">anch::crypto::BlockCipher</text>
<text xml:space="preserve" text-anchor="start" x="907.25" y="-327.5" font-family="Helvetica,sans-Serif" font-size="10.00">ModeOfOperation&lt; PCBC&lt;</text>
<text xml:space="preserve" text-anchor="start" x="907.25" y="-315.5" font-family="Helvetica,sans-Serif" font-size="10.00"> Cipher, Padding &gt;, Cipher &gt;</text>
<text xml:space="preserve" text-anchor="start" x="968.38" y="-299.5" font-family="Helvetica,sans-Serif" font-size="10.00"> </text>
<text xml:space="preserve" text-anchor="start" x="894" y="-283.5" font-family="Helvetica,sans-Serif" font-size="10.00">+</text>
<text xml:space="preserve" text-anchor="start" x="904" y="-283.5" font-family="Helvetica,sans-Serif" font-size="10.00">cipher()</text>
<text xml:space="preserve" text-anchor="start" x="894" y="-267.5" font-family="Helvetica,sans-Serif" font-size="10.00">+</text>
<text xml:space="preserve" text-anchor="start" x="904" y="-267.5" font-family="Helvetica,sans-Serif" font-size="10.00">decipher()</text>
<text xml:space="preserve" text-anchor="start" x="894" y="-251.5" font-family="Helvetica,sans-Serif" font-size="10.00">+</text>
<text xml:space="preserve" text-anchor="start" x="904" y="-251.5" font-family="Helvetica,sans-Serif" font-size="10.00">setNbThread()</text>
<text xml:space="preserve" text-anchor="start" x="894.38" y="-235.5" font-family="Helvetica,sans-Serif" font-size="10.00">#</text>
<text xml:space="preserve" text-anchor="start" x="904" y="-235.5" font-family="Helvetica,sans-Serif" font-size="10.00">BlockCipherModeOfOperation()</text>
<text xml:space="preserve" text-anchor="start" x="894.38" y="-219.5" font-family="Helvetica,sans-Serif" font-size="10.00">#</text>
<text xml:space="preserve" text-anchor="start" x="904" y="-219.5" font-family="Helvetica,sans-Serif" font-size="10.00">~BlockCipherModeOfOperation()</text>
<text xml:space="preserve" text-anchor="start" x="894.38" y="-203.5" font-family="Helvetica,sans-Serif" font-size="10.00">#</text>
<text xml:space="preserve" text-anchor="start" x="904" y="-203.5" font-family="Helvetica,sans-Serif" font-size="10.00">cipherBlock()</text>
<text xml:space="preserve" text-anchor="start" x="894.38" y="-187.5" font-family="Helvetica,sans-Serif" font-size="10.00">#</text>
<text xml:space="preserve" text-anchor="start" x="904" y="-187.5" font-family="Helvetica,sans-Serif" font-size="10.00">decipherBlock()</text>
<text xml:space="preserve" text-anchor="start" x="894.38" y="-171.5" font-family="Helvetica,sans-Serif" font-size="10.00">#</text>
<text xml:space="preserve" text-anchor="start" x="904" y="-171.5" font-family="Helvetica,sans-Serif" font-size="10.00">reset()</text>
<polygon fill="#666666" stroke="#666666" points="890,-311 890,-311 1049.75,-311 1049.75,-311 890,-311"/>
<polygon fill="#666666" stroke="#666666" points="890,-295 890,-295 1049.75,-295 1049.75,-295 890,-295"/>
<polygon fill="none" stroke="#666666" points="890,-165 890,-353 1049.75,-353 1049.75,-165 890,-165"/>
</a>
</g>
</g>
<!-- Node1&#45;&gt;Node12 -->
<g id="edge11_Node000001_Node000012" class="edge">
<title>Node1&#45;&gt;Node12</title>
<g id="a_edge11_Node000001_Node000012"><a xlink:title=" ">
<path fill="none" stroke="orange" d="M607.61,-503.83C683.15,-490.06 790.47,-461.68 867.88,-405 887.12,-390.91 904.06,-372.06 918.33,-352.63"/>
<polygon fill="orange" stroke="orange" points="607.44,-500.31 598.2,-505.5 608.65,-507.2 607.44,-500.31"/>
</a>
</g>
<text xml:space="preserve" text-anchor="start" x="905.89" y="-392.5" font-family="Helvetica,sans-Serif" font-size="10.00" fill="grey">&lt; PCBC&lt; Cipher, Padding</text>
<text xml:space="preserve" text-anchor="start" x="905.89" y="-376.5" font-family="Helvetica,sans-Serif" font-size="10.00" fill="grey">   &gt;, Cipher &gt;</text>
</g>
<!-- Node3 -->
<g id="Node000003" class="node">
<title>Node3</title>
<g id="a_Node000003"><a xlink:href="classanch_1_1crypto_1_1_c_b_c.html" target="_top" xlink:title="Cipher&#45;block chaining implementation.">
<polygon fill="white" stroke="none" points="127.75,-128 32,-128 32,0 127.75,0 127.75,-128"/>
<text xml:space="preserve" text-anchor="start" x="36" y="-114.5" font-family="Helvetica,sans-Serif" font-size="10.00">anch::crypto::CBC&lt;</text>
<text xml:space="preserve" text-anchor="start" x="39" y="-102.5" font-family="Helvetica,sans-Serif" font-size="10.00"> Cipher, Padding &gt;</text>
<text xml:space="preserve" text-anchor="start" x="78.38" y="-86.5" font-family="Helvetica,sans-Serif" font-size="10.00"> </text>
<text xml:space="preserve" text-anchor="start" x="38.56" y="-70.5" font-family="Helvetica,sans-Serif" font-size="10.00">+</text>
<text xml:space="preserve" text-anchor="start" x="51.12" y="-70.5" font-family="Helvetica,sans-Serif" font-size="10.00">CBC()</text>
<text xml:space="preserve" text-anchor="start" x="38.56" y="-54.5" font-family="Helvetica,sans-Serif" font-size="10.00">+</text>
<text xml:space="preserve" text-anchor="start" x="51.12" y="-54.5" font-family="Helvetica,sans-Serif" font-size="10.00">~CBC()</text>
<text xml:space="preserve" text-anchor="start" x="38.94" y="-38.5" font-family="Helvetica,sans-Serif" font-size="10.00">#</text>
<text xml:space="preserve" text-anchor="start" x="51.12" y="-38.5" font-family="Helvetica,sans-Serif" font-size="10.00">cipherBlock()</text>
<text xml:space="preserve" text-anchor="start" x="38.94" y="-22.5" font-family="Helvetica,sans-Serif" font-size="10.00">#</text>
<text xml:space="preserve" text-anchor="start" x="51.12" y="-22.5" font-family="Helvetica,sans-Serif" font-size="10.00">decipherBlock()</text>
<text xml:space="preserve" text-anchor="start" x="38.94" y="-6.5" font-family="Helvetica,sans-Serif" font-size="10.00">#</text>
<text xml:space="preserve" text-anchor="start" x="51.12" y="-6.5" font-family="Helvetica,sans-Serif" font-size="10.00">reset()</text>
<polygon fill="#666666" stroke="#666666" points="32,-98 32,-98 127.75,-98 127.75,-98 32,-98"/>
<polygon fill="#666666" stroke="#666666" points="32,-82 32,-82 127.75,-82 127.75,-82 32,-82"/>
<polygon fill="none" stroke="#666666" points="32,0 32,-128 127.75,-128 127.75,0 32,0"/>
</a>
</g>
</g>
<!-- Node2&#45;&gt;Node3 -->
<g id="edge2_Node000002_Node000003" class="edge">
<title>Node2&#45;&gt;Node3</title>
<g id="a_edge2_Node000002_Node000003"><a xlink:title=" ">
<path fill="none" stroke="#63b8ff" d="M79.88,-153.91C79.88,-145.03 79.88,-136.24 79.88,-127.84"/>
<polygon fill="none" stroke="#63b8ff" points="76.38,-153.66 79.88,-163.66 83.38,-153.66 76.38,-153.66"/>
</a>
</g>
</g>
<!-- Node5 -->
<g id="Node000005" class="node">
<title>Node5</title>
<g id="a_Node000005"><a xlink:href="classanch_1_1crypto_1_1_c_f_b.html" target="_top" xlink:title="Cipher feedback implementation.">
<polygon fill="white" stroke="none" points="305,-128 210.75,-128 210.75,0 305,0 305,-128"/>
<text xml:space="preserve" text-anchor="start" x="214.75" y="-114.5" font-family="Helvetica,sans-Serif" font-size="10.00">anch::crypto::CFB&lt;</text>
<text xml:space="preserve" text-anchor="start" x="237.62" y="-102.5" font-family="Helvetica,sans-Serif" font-size="10.00"> Cipher &gt;</text>
<text xml:space="preserve" text-anchor="start" x="256.38" y="-86.5" font-family="Helvetica,sans-Serif" font-size="10.00"> </text>
<text xml:space="preserve" text-anchor="start" x="216.94" y="-70.5" font-family="Helvetica,sans-Serif" font-size="10.00">+</text>
<text xml:space="preserve" text-anchor="start" x="229.12" y="-70.5" font-family="Helvetica,sans-Serif" font-size="10.00">CFB()</text>
<text xml:space="preserve" text-anchor="start" x="216.94" y="-54.5" font-family="Helvetica,sans-Serif" font-size="10.00">+</text>
<text xml:space="preserve" text-anchor="start" x="229.12" y="-54.5" font-family="Helvetica,sans-Serif" font-size="10.00">~CFB()</text>
<text xml:space="preserve" text-anchor="start" x="217.31" y="-38.5" font-family="Helvetica,sans-Serif" font-size="10.00">#</text>
<text xml:space="preserve" text-anchor="start" x="229.12" y="-38.5" font-family="Helvetica,sans-Serif" font-size="10.00">cipherBlock()</text>
<text xml:space="preserve" text-anchor="start" x="217.31" y="-22.5" font-family="Helvetica,sans-Serif" font-size="10.00">#</text>
<text xml:space="preserve" text-anchor="start" x="229.12" y="-22.5" font-family="Helvetica,sans-Serif" font-size="10.00">decipherBlock()</text>
<text xml:space="preserve" text-anchor="start" x="217.31" y="-6.5" font-family="Helvetica,sans-Serif" font-size="10.00">#</text>
<text xml:space="preserve" text-anchor="start" x="229.12" y="-6.5" font-family="Helvetica,sans-Serif" font-size="10.00">reset()</text>
<polygon fill="#666666" stroke="#666666" points="210.75,-98 210.75,-98 305,-98 305,-98 210.75,-98"/>
<polygon fill="#666666" stroke="#666666" points="210.75,-82 210.75,-82 305,-82 305,-82 210.75,-82"/>
<polygon fill="none" stroke="#666666" points="210.75,0 210.75,-128 305,-128 305,0 210.75,0"/>
</a>
</g>
</g>
<!-- Node4&#45;&gt;Node5 -->
<g id="edge4_Node000004_Node000005" class="edge">
<title>Node4&#45;&gt;Node5</title>
<g id="a_edge4_Node000004_Node000005"><a xlink:title=" ">
<path fill="none" stroke="#63b8ff" d="M257.88,-153.91C257.88,-145.03 257.88,-136.24 257.88,-127.84"/>
<polygon fill="none" stroke="#63b8ff" points="254.38,-153.66 257.88,-163.66 261.38,-153.66 254.38,-153.66"/>
</a>
</g>
</g>
<!-- Node7 -->
<g id="Node000007" class="node">
<title>Node7</title>
<g id="a_Node000007"><a xlink:href="classanch_1_1crypto_1_1_c_t_r.html" target="_top" xlink:title="Counter implementation.">
<polygon fill="white" stroke="none" points="483.38,-128 388.38,-128 388.38,0 483.38,0 483.38,-128"/>
<text xml:space="preserve" text-anchor="start" x="392.38" y="-114.5" font-family="Helvetica,sans-Serif" font-size="10.00">anch::crypto::CTR&lt;</text>
<text xml:space="preserve" text-anchor="start" x="415.62" y="-102.5" font-family="Helvetica,sans-Serif" font-size="10.00"> Cipher &gt;</text>
<text xml:space="preserve" text-anchor="start" x="434.38" y="-86.5" font-family="Helvetica,sans-Serif" font-size="10.00"> </text>
<text xml:space="preserve" text-anchor="start" x="394.75" y="-70.5" font-family="Helvetica,sans-Serif" font-size="10.00">+</text>
<text xml:space="preserve" text-anchor="start" x="407.12" y="-70.5" font-family="Helvetica,sans-Serif" font-size="10.00">CTR()</text>
<text xml:space="preserve" text-anchor="start" x="394.75" y="-54.5" font-family="Helvetica,sans-Serif" font-size="10.00">+</text>
<text xml:space="preserve" text-anchor="start" x="407.12" y="-54.5" font-family="Helvetica,sans-Serif" font-size="10.00">~CTR()</text>
<text xml:space="preserve" text-anchor="start" x="395.12" y="-38.5" font-family="Helvetica,sans-Serif" font-size="10.00">#</text>
<text xml:space="preserve" text-anchor="start" x="407.12" y="-38.5" font-family="Helvetica,sans-Serif" font-size="10.00">cipherBlock()</text>
<text xml:space="preserve" text-anchor="start" x="395.12" y="-22.5" font-family="Helvetica,sans-Serif" font-size="10.00">#</text>
<text xml:space="preserve" text-anchor="start" x="407.12" y="-22.5" font-family="Helvetica,sans-Serif" font-size="10.00">decipherBlock()</text>
<text xml:space="preserve" text-anchor="start" x="395.12" y="-6.5" font-family="Helvetica,sans-Serif" font-size="10.00">#</text>
<text xml:space="preserve" text-anchor="start" x="407.12" y="-6.5" font-family="Helvetica,sans-Serif" font-size="10.00">reset()</text>
<polygon fill="#666666" stroke="#666666" points="388.38,-98 388.38,-98 483.38,-98 483.38,-98 388.38,-98"/>
<polygon fill="#666666" stroke="#666666" points="388.38,-82 388.38,-82 483.38,-82 483.38,-82 388.38,-82"/>
<polygon fill="none" stroke="#666666" points="388.38,0 388.38,-128 483.38,-128 483.38,0 388.38,0"/>
</a>
</g>
</g>
<!-- Node6&#45;&gt;Node7 -->
<g id="edge6_Node000006_Node000007" class="edge">
<title>Node6&#45;&gt;Node7</title>
<g id="a_edge6_Node000006_Node000007"><a xlink:title=" ">
<path fill="none" stroke="#63b8ff" d="M435.88,-153.91C435.88,-145.03 435.88,-136.24 435.88,-127.84"/>
<polygon fill="none" stroke="#63b8ff" points="432.38,-153.66 435.88,-163.66 439.38,-153.66 432.38,-153.66"/>
</a>
</g>
</g>
<!-- Node9 -->
<g id="Node000009" class="node">
<title>Node9</title>
<g id="a_Node000009"><a xlink:href="classanch_1_1crypto_1_1_e_c_b.html" target="_top" xlink:title="Electronic codebook implementation.">
<polygon fill="white" stroke="none" points="661.38,-128 566.38,-128 566.38,0 661.38,0 661.38,-128"/>
<text xml:space="preserve" text-anchor="start" x="570.38" y="-114.5" font-family="Helvetica,sans-Serif" font-size="10.00">anch::crypto::ECB&lt;</text>
<text xml:space="preserve" text-anchor="start" x="573" y="-102.5" font-family="Helvetica,sans-Serif" font-size="10.00"> Cipher, Padding &gt;</text>
<text xml:space="preserve" text-anchor="start" x="612.38" y="-86.5" font-family="Helvetica,sans-Serif" font-size="10.00"> </text>
<text xml:space="preserve" text-anchor="start" x="572.75" y="-70.5" font-family="Helvetica,sans-Serif" font-size="10.00">+</text>
<text xml:space="preserve" text-anchor="start" x="585.12" y="-70.5" font-family="Helvetica,sans-Serif" font-size="10.00">ECB()</text>
<text xml:space="preserve" text-anchor="start" x="572.75" y="-54.5" font-family="Helvetica,sans-Serif" font-size="10.00">+</text>
<text xml:space="preserve" text-anchor="start" x="585.12" y="-54.5" font-family="Helvetica,sans-Serif" font-size="10.00">~ECB()</text>
<text xml:space="preserve" text-anchor="start" x="573.12" y="-38.5" font-family="Helvetica,sans-Serif" font-size="10.00">#</text>
<text xml:space="preserve" text-anchor="start" x="585.12" y="-38.5" font-family="Helvetica,sans-Serif" font-size="10.00">cipherBlock()</text>
<text xml:space="preserve" text-anchor="start" x="573.12" y="-22.5" font-family="Helvetica,sans-Serif" font-size="10.00">#</text>
<text xml:space="preserve" text-anchor="start" x="585.12" y="-22.5" font-family="Helvetica,sans-Serif" font-size="10.00">decipherBlock()</text>
<text xml:space="preserve" text-anchor="start" x="573.12" y="-6.5" font-family="Helvetica,sans-Serif" font-size="10.00">#</text>
<text xml:space="preserve" text-anchor="start" x="585.12" y="-6.5" font-family="Helvetica,sans-Serif" font-size="10.00">reset()</text>
<polygon fill="#666666" stroke="#666666" points="566.38,-98 566.38,-98 661.38,-98 661.38,-98 566.38,-98"/>
<polygon fill="#666666" stroke="#666666" points="566.38,-82 566.38,-82 661.38,-82 661.38,-82 566.38,-82"/>
<polygon fill="none" stroke="#666666" points="566.38,0 566.38,-128 661.38,-128 661.38,0 566.38,0"/>
</a>
</g>
</g>
<!-- Node8&#45;&gt;Node9 -->
<g id="edge8_Node000008_Node000009" class="edge">
<title>Node8&#45;&gt;Node9</title>
<g id="a_edge8_Node000008_Node000009"><a xlink:title=" ">
<path fill="none" stroke="#63b8ff" d="M613.88,-153.91C613.88,-145.03 613.88,-136.24 613.88,-127.84"/>
<polygon fill="none" stroke="#63b8ff" points="610.38,-153.66 613.88,-163.66 617.38,-153.66 610.38,-153.66"/>
</a>
</g>
</g>
<!-- Node11 -->
<g id="Node000011" class="node">
<title>Node11</title>
<g id="a_Node000011"><a xlink:href="classanch_1_1crypto_1_1_o_f_b.html" target="_top" xlink:title="Output feedback implementation.">
<polygon fill="white" stroke="none" points="839,-128 744.75,-128 744.75,0 839,0 839,-128"/>
<text xml:space="preserve" text-anchor="start" x="748.75" y="-114.5" font-family="Helvetica,sans-Serif" font-size="10.00">anch::crypto::OFB&lt;</text>
<text xml:space="preserve" text-anchor="start" x="771.62" y="-102.5" font-family="Helvetica,sans-Serif" font-size="10.00"> Cipher &gt;</text>
<text xml:space="preserve" text-anchor="start" x="790.38" y="-86.5" font-family="Helvetica,sans-Serif" font-size="10.00"> </text>
<text xml:space="preserve" text-anchor="start" x="750.94" y="-70.5" font-family="Helvetica,sans-Serif" font-size="10.00">+</text>
<text xml:space="preserve" text-anchor="start" x="763.12" y="-70.5" font-family="Helvetica,sans-Serif" font-size="10.00">OFB()</text>
<text xml:space="preserve" text-anchor="start" x="750.94" y="-54.5" font-family="Helvetica,sans-Serif" font-size="10.00">+</text>
<text xml:space="preserve" text-anchor="start" x="763.12" y="-54.5" font-family="Helvetica,sans-Serif" font-size="10.00">~OFB()</text>
<text xml:space="preserve" text-anchor="start" x="751.31" y="-38.5" font-family="Helvetica,sans-Serif" font-size="10.00">#</text>
<text xml:space="preserve" text-anchor="start" x="763.12" y="-38.5" font-family="Helvetica,sans-Serif" font-size="10.00">cipherBlock()</text>
<text xml:space="preserve" text-anchor="start" x="751.31" y="-22.5" font-family="Helvetica,sans-Serif" font-size="10.00">#</text>
<text xml:space="preserve" text-anchor="start" x="763.12" y="-22.5" font-family="Helvetica,sans-Serif" font-size="10.00">decipherBlock()</text>
<text xml:space="preserve" text-anchor="start" x="751.31" y="-6.5" font-family="Helvetica,sans-Serif" font-size="10.00">#</text>
<text xml:space="preserve" text-anchor="start" x="763.12" y="-6.5" font-family="Helvetica,sans-Serif" font-size="10.00">reset()</text>
<polygon fill="#666666" stroke="#666666" points="744.75,-98 744.75,-98 839,-98 839,-98 744.75,-98"/>
<polygon fill="#666666" stroke="#666666" points="744.75,-82 744.75,-82 839,-82 839,-82 744.75,-82"/>
<polygon fill="none" stroke="#666666" points="744.75,0 744.75,-128 839,-128 839,0 744.75,0"/>
</a>
</g>
</g>
<!-- Node10&#45;&gt;Node11 -->
<g id="edge10_Node000010_Node000011" class="edge">
<title>Node10&#45;&gt;Node11</title>
<g id="a_edge10_Node000010_Node000011"><a xlink:title=" ">
<path fill="none" stroke="#63b8ff" d="M791.88,-153.91C791.88,-145.03 791.88,-136.24 791.88,-127.84"/>
<polygon fill="none" stroke="#63b8ff" points="788.38,-153.66 791.88,-163.66 795.38,-153.66 788.38,-153.66"/>
</a>
</g>
</g>
<!-- Node13 -->
<g id="Node000013" class="node">
<title>Node13</title>
<g id="a_Node000013"><a xlink:href="classanch_1_1crypto_1_1_p_c_b_c.html" target="_top" xlink:title="Propagating cipher&#45;block chaining implementation.">
<polygon fill="white" stroke="none" points="1018.12,-128 921.62,-128 921.62,0 1018.12,0 1018.12,-128"/>
<text xml:space="preserve" text-anchor="start" x="925.62" y="-114.5" font-family="Helvetica,sans-Serif" font-size="10.00">anch::crypto::PCBC</text>
<text xml:space="preserve" text-anchor="start" x="926" y="-102.5" font-family="Helvetica,sans-Serif" font-size="10.00">&lt; Cipher, Padding &gt;</text>
<text xml:space="preserve" text-anchor="start" x="968.38" y="-86.5" font-family="Helvetica,sans-Serif" font-size="10.00"> </text>
<text xml:space="preserve" text-anchor="start" x="928.38" y="-70.5" font-family="Helvetica,sans-Serif" font-size="10.00">+</text>
<text xml:space="preserve" text-anchor="start" x="941.12" y="-70.5" font-family="Helvetica,sans-Serif" font-size="10.00">PCBC()</text>
<text xml:space="preserve" text-anchor="start" x="928.38" y="-54.5" font-family="Helvetica,sans-Serif" font-size="10.00">+</text>
<text xml:space="preserve" text-anchor="start" x="941.12" y="-54.5" font-family="Helvetica,sans-Serif" font-size="10.00">~PCBC()</text>
<text xml:space="preserve" text-anchor="start" x="928.75" y="-38.5" font-family="Helvetica,sans-Serif" font-size="10.00">#</text>
<text xml:space="preserve" text-anchor="start" x="941.12" y="-38.5" font-family="Helvetica,sans-Serif" font-size="10.00">cipherBlock()</text>
<text xml:space="preserve" text-anchor="start" x="928.75" y="-22.5" font-family="Helvetica,sans-Serif" font-size="10.00">#</text>
<text xml:space="preserve" text-anchor="start" x="941.12" y="-22.5" font-family="Helvetica,sans-Serif" font-size="10.00">decipherBlock()</text>
<text xml:space="preserve" text-anchor="start" x="928.75" y="-6.5" font-family="Helvetica,sans-Serif" font-size="10.00">#</text>
<text xml:space="preserve" text-anchor="start" x="941.12" y="-6.5" font-family="Helvetica,sans-Serif" font-size="10.00">reset()</text>
<polygon fill="#666666" stroke="#666666" points="921.62,-98 921.62,-98 1018.12,-98 1018.12,-98 921.62,-98"/>
<polygon fill="#666666" stroke="#666666" points="921.62,-82 921.62,-82 1018.12,-82 1018.12,-82 921.62,-82"/>
<polygon fill="none" stroke="#666666" points="921.62,0 921.62,-128 1018.12,-128 1018.12,0 921.62,0"/>
</a>
</g>
</g>
<!-- Node12&#45;&gt;Node13 -->
<g id="edge12_Node000012_Node000013" class="edge">
<title>Node12&#45;&gt;Node13</title>
<g id="a_edge12_Node000012_Node000013"><a xlink:title=" ">
<path fill="none" stroke="#63b8ff" d="M969.88,-153.91C969.88,-145.03 969.88,-136.24 969.88,-127.84"/>
<polygon fill="none" stroke="#63b8ff" points="966.38,-153.66 969.88,-163.66 973.38,-153.66 966.38,-153.66"/>
</a>
</g>
</g>
</g>
</svg>

<g id="navigator" transform="translate(0 0)" fill="#404254">
  <rect fill="#f2f5e9" fill-opacity="0.5" stroke="#606060" stroke-width=".5" x="0" y="0" width="60" height="60"/>
  <use id="zoomplus" xlink:href="#zoomPlus" x="17" y="9" onmousedown="handleZoom(evt,'in')"/>
  <use id="zoomminus" xlink:href="#zoomMin" x="42" y="9" onmousedown="handleZoom(evt,'out')"/>
  <use id="reset" xlink:href="#resetDef" x="30" y="36" onmousedown="handleReset()"/>
   <use id="arrowup" xlink:href="#arrowUp" x="0" y="0" onmousedown="handlePan(0,-1)"/>
  <use id="arrowright" xlink:href="#arrowRight" x="0" y="0" onmousedown="handlePan(1,0)"/>
  <use id="arrowdown" xlink:href="#arrowDown" x="0" y="0" onmousedown="handlePan(0,1)"/>
  <use id="arrowleft" xlink:href="#arrowLeft" x="0" y="0" onmousedown="handlePan(-1,0)"/>
</g>
<svg viewBox="0 0 15 15" width="100%" height="30px" preserveAspectRatio="xMaxYMin meet">
 <g id="arrow_out" transform="scale(0.3 0.3)">
  <a xlink:href="classanch_1_1crypto_1_1_block_cipher_mode_of_operation__inherit__graph_org.svg" target="_base">
   <rect id="button" ry="5" rx="5" y="6" x="6" height="38" width="38"
        fill="#f2f5e9" fill-opacity="0.5" stroke="#606060" stroke-width="1.0"/>
   <path id="arrow"
     d="M 11.500037,31.436501 C 11.940474,20.09759 22.043105,11.32322 32.158766,21.979434 L 37.068811,17.246167 C 37.068811,17.246167 37.088388,32 37.088388,32 L 22.160133,31.978069 C 22.160133,31.978069 26.997745,27.140456 26.997745,27.140456 C 18.528582,18.264221 13.291696,25.230495 11.500037,31.436501 z"
     style="fill:#404040;"/>
  </a>
 </g>
</svg>

<style type='text/css'>
<![CDATA[
[data-mouse-over-selected='false'] { opacity: 0.7; }
[data-mouse-over-selected='true']  { opacity: 1.0; }
]]>
</style>
<script type="application/ecmascript"><![CDATA[
document.addEventListener('DOMContentLoaded', (event) => {
  highlightEdges();
  highlightAdjacentNodes();
});
]]></script>
</svg>
