<?xml version="1.0" encoding="UTF-8" standalone="no"?>
<!DOCTYPE svg PUBLIC "-//W3C//DTD SVG 1.1//EN"
 "http://www.w3.org/Graphics/SVG/1.1/DTD/svg11.dtd">
<!-- Generated by graphviz version 10.0.1 (0)
 -->
<!-- Title: anch::logger::formatter::CategoryFormatter Pages: 1 -->
<svg width="136pt" height="254pt"
 viewBox="0.00 0.00 136.00 254.00" xmlns="http://www.w3.org/2000/svg" xmlns:xlink="http://www.w3.org/1999/xlink">
<g id="graph0" class="graph" transform="scale(1 1) rotate(0) translate(4 250)">
<title>anch::logger::formatter::CategoryFormatter</title>
<!-- Node1 -->
<g id="Node000001" class="node">
<title>Node1</title>
<g id="a_Node000001"><a xlink:title=" ">
<polygon fill="#999999" stroke="none" points="128,-113 0,-113 0,0 128,0 128,-113"/>
<text text-anchor="start" x="7.75" y="-99.5" font-family="Helvetica,sans-Serif" font-size="10.00">anch::logger::formatter</text>
<text text-anchor="start" x="14.88" y="-86.75" font-family="Helvetica,sans-Serif" font-size="10.00">::CategoryFormatter</text>
<text text-anchor="start" x="62.5" y="-70.5" font-family="Helvetica,sans-Serif" font-size="10.00"> </text>
<text text-anchor="start" x="3.88" y="-54.5" font-family="Helvetica,sans-Serif" font-size="10.00">+</text>
<text text-anchor="start" x="16" y="-54.5" font-family="Helvetica,sans-Serif" font-size="10.00">CategoryFormatter()</text>
<text text-anchor="start" x="3.88" y="-38.5" font-family="Helvetica,sans-Serif" font-size="10.00">+</text>
<text text-anchor="start" x="16" y="-38.5" font-family="Helvetica,sans-Serif" font-size="10.00">~CategoryFormatter()</text>
<text text-anchor="start" x="3.88" y="-22.5" font-family="Helvetica,sans-Serif" font-size="10.00">+</text>
<text text-anchor="start" x="16" y="-22.5" font-family="Helvetica,sans-Serif" font-size="10.00">formatValue()</text>
<text text-anchor="start" x="3.88" y="-6.5" font-family="Helvetica,sans-Serif" font-size="10.00">+</text>
<text text-anchor="start" x="16" y="-6.5" font-family="Helvetica,sans-Serif" font-size="10.00">getType()</text>
<polygon fill="#666666" stroke="#666666" points="0,-82 0,-82 128,-82 128,-82 0,-82"/>
<polygon fill="#666666" stroke="#666666" points="0,-66 0,-66 128,-66 128,-66 0,-66"/>
<polygon fill="none" stroke="#666666" points="0,0 0,-113 128,-113 128,0 0,0"/>
</a>
</g>
</g>
<!-- Node2 -->
<g id="Node000002" class="node">
<title>Node2</title>
<g id="a_Node000002"><a xlink:href="classanch_1_1logger_1_1formatter_1_1_i_formatter.html" target="_top" xlink:title=" ">
<polygon fill="white" stroke="none" points="125,-246 3,-246 3,-149 125,-149 125,-246"/>
<text text-anchor="start" x="7.75" y="-232.5" font-family="Helvetica,sans-Serif" font-size="10.00">anch::logger::formatter</text>
<text text-anchor="start" x="35.5" y="-219.75" font-family="Helvetica,sans-Serif" font-size="10.00">::IFormatter</text>
<text text-anchor="start" x="62.5" y="-203.5" font-family="Helvetica,sans-Serif" font-size="10.00"> </text>
<text text-anchor="start" x="15.38" y="-187.5" font-family="Helvetica,sans-Serif" font-size="10.00">+</text>
<text text-anchor="start" x="36" y="-187.5" font-family="Helvetica,sans-Serif" font-size="10.00">~IFormatter()</text>
<text text-anchor="start" x="15.38" y="-171.5" font-family="Helvetica,sans-Serif" font-size="10.00">+</text>
<text text-anchor="start" x="36" y="-171.5" font-family="Helvetica,sans-Serif" font-size="10.00">getType()</text>
<text text-anchor="start" x="15.38" y="-155.5" font-family="Helvetica,sans-Serif" font-size="10.00">+</text>
<text text-anchor="start" x="36" y="-155.5" font-family="Helvetica,sans-Serif" font-size="10.00">formatValue()</text>
<polygon fill="#666666" stroke="#666666" points="3,-215 3,-215 125,-215 125,-215 3,-215"/>
<polygon fill="#666666" stroke="#666666" points="3,-199 3,-199 125,-199 125,-199 3,-199"/>
<polygon fill="none" stroke="#666666" points="3,-149 3,-246 125,-246 125,-149 3,-149"/>
</a>
</g>
</g>
<!-- Node2&#45;&gt;Node1 -->
<g id="edge1_Node000001_Node000002" class="edge">
<title>Node2&#45;&gt;Node1</title>
<g id="a_edge1_Node000001_Node000002"><a xlink:title=" ">
<path fill="none" stroke="#63b8ff" d="M64,-137.63C64,-129.43 64,-121.02 64,-112.88"/>
<polygon fill="none" stroke="#63b8ff" points="60.5,-137.54 64,-147.54 67.5,-137.54 60.5,-137.54"/>
</a>
</g>
</g>
</g>
</svg>
