<?xml version="1.0" encoding="UTF-8" standalone="no"?>
<!DOCTYPE svg PUBLIC "-//W3C//DTD SVG 1.1//EN"
 "http://www.w3.org/Graphics/SVG/1.1/DTD/svg11.dtd">
<!-- Generated by graphviz version 2.40.1 (20161225.0304)
 -->
<!-- Title: anch::sql::MySQLConnection Pages: 1 -->
<!--zoomable 1192 -->
<svg id="main" version="1.1" xmlns="http://www.w3.org/2000/svg" xmlns:xlink="http://www.w3.org/1999/xlink" xml:space="preserve" onload="init(evt)">
<style type="text/css"><![CDATA[
.edge:hover path { stroke: red; }
.edge:hover polygon { stroke: red; fill: red; }
]]></style>
<script type="text/javascript"><![CDATA[
var edges = document.getElementsByTagName('g');
if (edges && edges.length) {
  for (var i=0;i<edges.length;i++) {
    if (edges[i].id.substr(0,4)=='edge') {
      edges[i].setAttribute('class','edge');
    }
  }
}
]]></script>
        <defs>
                <circle id="rim" cx="0" cy="0" r="7"/>
                <circle id="rim2" cx="0" cy="0" r="3.5"/>
                <g id="zoomPlus">
                        <use xlink:href="#rim" fill="#404040">
                                <set attributeName="fill" to="#808080" begin="zoomplus.mouseover" end="zoomplus.mouseout"/>
                        </use>
                        <path d="M-4,0h8M0,-4v8" fill="none" stroke="white" stroke-width="1.5" pointer-events="none"/>
                </g>
                <g id="zoomMin">
                        <use xlink:href="#rim" fill="#404040">
                                <set attributeName="fill" to="#808080" begin="zoomminus.mouseover" end="zoomminus.mouseout"/>
                        </use>
                        <path d="M-4,0h8" fill="none" stroke="white" stroke-width="1.5" pointer-events="none"/>
                </g>
                <g id="dirArrow">
                        <path fill="none" stroke="white" stroke-width="1.5" d="M0,-3.0v7 M-2.5,-0.5L0,-3.0L2.5,-0.5"/>
                </g>
               <g id="resetDef">
                       <use xlink:href="#rim2" fill="#404040">
                               <set attributeName="fill" to="#808080" begin="reset.mouseover" end="reset.mouseout"/>
                       </use>
               </g>
        </defs>

<script type="text/javascript">
var viewWidth = 395;
var viewHeight = 1192;
var sectionId = 'dynsection-1';
</script>
<script xlink:href="svgpan.js"/>
<svg id="graph" class="graph">
<g id="viewport">
<title>anch::sql::MySQLConnection</title>
<!-- Node2 -->
<g id="node1" class="node">
<title>Node2</title>
<polygon fill="#bfbfbf" stroke="#000000" points="66,-.5 66,-156.5 220,-156.5 220,-.5 66,-.5"/>
<text text-anchor="middle" x="143" y="-144.5" font-family="Helvetica,sans-Serif" font-size="10.00" fill="#000000">anch::sql::MySQLConnection</text>
<polyline fill="none" stroke="#000000" points="66,-137.5 220,-137.5 "/>
<text text-anchor="middle" x="143" y="-125.5" font-family="Helvetica,sans-Serif" font-size="10.00" fill="#000000"> </text>
<polyline fill="none" stroke="#000000" points="66,-118.5 220,-118.5 "/>
<text text-anchor="start" x="74" y="-106.5" font-family="Helvetica,sans-Serif" font-size="10.00" fill="#000000">+ MySQLConnection()</text>
<text text-anchor="start" x="74" y="-95.5" font-family="Helvetica,sans-Serif" font-size="10.00" fill="#000000">+ MySQLConnection()</text>
<text text-anchor="start" x="74" y="-84.5" font-family="Helvetica,sans-Serif" font-size="10.00" fill="#000000">+ MySQLConnection()</text>
<text text-anchor="start" x="74" y="-73.5" font-family="Helvetica,sans-Serif" font-size="10.00" fill="#000000">+ ~MySQLConnection()</text>
<text text-anchor="start" x="74" y="-62.5" font-family="Helvetica,sans-Serif" font-size="10.00" fill="#000000"># executeQuery()</text>
<text text-anchor="start" x="74" y="-51.5" font-family="Helvetica,sans-Serif" font-size="10.00" fill="#000000"># executeUpdate()</text>
<text text-anchor="start" x="74" y="-40.5" font-family="Helvetica,sans-Serif" font-size="10.00" fill="#000000"># sendCommit()</text>
<text text-anchor="start" x="74" y="-29.5" font-family="Helvetica,sans-Serif" font-size="10.00" fill="#000000"># sendRollback()</text>
<text text-anchor="start" x="74" y="-18.5" font-family="Helvetica,sans-Serif" font-size="10.00" fill="#000000"># toggleAutoCommit()</text>
<text text-anchor="start" x="74" y="-7.5" font-family="Helvetica,sans-Serif" font-size="10.00" fill="#000000"># makePrepared()</text>
</g>
<!-- Node3 -->
<g id="node2" class="node">
<title>Node3</title>
<g id="a_node2"><a xlink:href="classanch_1_1sql_1_1_connection.html" target="_top" xlink:title="SQL connection virtual class. ">
<polygon fill="none" stroke="#000000" points="79,-194.5 79,-471.5 207,-471.5 207,-194.5 79,-194.5"/>
<text text-anchor="middle" x="143" y="-459.5" font-family="Helvetica,sans-Serif" font-size="10.00" fill="#000000">anch::sql::Connection</text>
<polyline fill="none" stroke="#000000" points="79,-452.5 207,-452.5 "/>
<text text-anchor="start" x="87" y="-440.5" font-family="Helvetica,sans-Serif" font-size="10.00" fill="#000000"># _autoCommit</text>
<text text-anchor="start" x="87" y="-429.5" font-family="Helvetica,sans-Serif" font-size="10.00" fill="#000000"># _valid</text>
<polyline fill="none" stroke="#000000" points="79,-422.5 207,-422.5 "/>
<text text-anchor="start" x="87" y="-410.5" font-family="Helvetica,sans-Serif" font-size="10.00" fill="#000000">+ Connection()</text>
<text text-anchor="start" x="87" y="-399.5" font-family="Helvetica,sans-Serif" font-size="10.00" fill="#000000">+ Connection()</text>
<text text-anchor="start" x="87" y="-388.5" font-family="Helvetica,sans-Serif" font-size="10.00" fill="#000000">+ ~Connection()</text>
<text text-anchor="start" x="87" y="-377.5" font-family="Helvetica,sans-Serif" font-size="10.00" fill="#000000">+ commit()</text>
<text text-anchor="start" x="87" y="-366.5" font-family="Helvetica,sans-Serif" font-size="10.00" fill="#000000">+ rollback()</text>
<text text-anchor="start" x="87" y="-355.5" font-family="Helvetica,sans-Serif" font-size="10.00" fill="#000000">+ setAutoCommit()</text>
<text text-anchor="start" x="87" y="-344.5" font-family="Helvetica,sans-Serif" font-size="10.00" fill="#000000">+ prepareStatement()</text>
<text text-anchor="start" x="87" y="-333.5" font-family="Helvetica,sans-Serif" font-size="10.00" fill="#000000">+ query()</text>
<text text-anchor="start" x="87" y="-322.5" font-family="Helvetica,sans-Serif" font-size="10.00" fill="#000000">+ queryMapRow()</text>
<text text-anchor="start" x="87" y="-311.5" font-family="Helvetica,sans-Serif" font-size="10.00" fill="#000000">+ queryExtract()</text>
<text text-anchor="start" x="87" y="-300.5" font-family="Helvetica,sans-Serif" font-size="10.00" fill="#000000">+ update()</text>
<text text-anchor="start" x="87" y="-289.5" font-family="Helvetica,sans-Serif" font-size="10.00" fill="#000000">+ isAutoCommit()</text>
<text text-anchor="start" x="87" y="-278.5" font-family="Helvetica,sans-Serif" font-size="10.00" fill="#000000">+ isValid()</text>
<text text-anchor="start" x="87" y="-267.5" font-family="Helvetica,sans-Serif" font-size="10.00" fill="#000000"># executeQuery()</text>
<text text-anchor="start" x="87" y="-256.5" font-family="Helvetica,sans-Serif" font-size="10.00" fill="#000000"># executeUpdate()</text>
<text text-anchor="start" x="87" y="-245.5" font-family="Helvetica,sans-Serif" font-size="10.00" fill="#000000"># sendCommit()</text>
<text text-anchor="start" x="87" y="-234.5" font-family="Helvetica,sans-Serif" font-size="10.00" fill="#000000"># sendRollback()</text>
<text text-anchor="start" x="87" y="-223.5" font-family="Helvetica,sans-Serif" font-size="10.00" fill="#000000"># toggleAutoCommit()</text>
<text text-anchor="start" x="87" y="-212.5" font-family="Helvetica,sans-Serif" font-size="10.00" fill="#000000"># makePrepared()</text>
<text text-anchor="start" x="87" y="-201.5" font-family="Helvetica,sans-Serif" font-size="10.00" fill="#000000"># setValid()</text>
</a>
</g>
</g>
<!-- Node3&#45;&gt;Node2 -->
<g id="edge1" class="edge">
<title>Node3&#45;&gt;Node2</title>
<path fill="none" stroke="#191970" d="M143,-184.0545C143,-174.7467 143,-165.5985 143,-156.817"/>
<polygon fill="none" stroke="#191970" points="139.5001,-184.2072 143,-194.2072 146.5001,-184.2073 139.5001,-184.2072"/>
</g>
<!-- Node4 -->
<g id="node3" class="node">
<title>Node4</title>
<polygon fill="none" stroke="#bfbfbf" points="53,-519.5 53,-587.5 233,-587.5 233,-519.5 53,-519.5"/>
<text text-anchor="start" x="61" y="-575.5" font-family="Helvetica,sans-Serif" font-size="10.00" fill="#000000">std::map&lt; std::string,</text>
<text text-anchor="middle" x="143" y="-564.5" font-family="Helvetica,sans-Serif" font-size="10.00" fill="#000000"> anch::sql::PreparedStatement *&gt;</text>
<polyline fill="none" stroke="#bfbfbf" points="53,-557.5 233,-557.5 "/>
<text text-anchor="middle" x="143" y="-545.5" font-family="Helvetica,sans-Serif" font-size="10.00" fill="#000000"> </text>
<polyline fill="none" stroke="#bfbfbf" points="53,-538.5 233,-538.5 "/>
<text text-anchor="middle" x="143" y="-526.5" font-family="Helvetica,sans-Serif" font-size="10.00" fill="#000000"> </text>
</g>
<!-- Node4&#45;&gt;Node3 -->
<g id="edge2" class="edge">
<title>Node4&#45;&gt;Node3</title>
<path fill="none" stroke="#404040" d="M143,-519.0469C143,-508.7532 143,-496.7509 143,-483.8909"/>
<polygon fill="none" stroke="#404040" points="143.0001,-483.8639 139,-477.8639 143,-471.8639 147,-477.8638 143.0001,-483.8639"/>
<text text-anchor="middle" x="165.5" y="-493" font-family="Helvetica,sans-Serif" font-size="10.00" fill="#000000"> #_stmts</text>
</g>
<!-- Node5 -->
<g id="node4" class="node">
<title>Node5</title>
<g id="a_node4"><a xlink:href="classanch_1_1sql_1_1_prepared_statement.html" target="_top" xlink:title="SQL prepared statement. ">
<polygon fill="none" stroke="#000000" points="62.5,-635.5 62.5,-824.5 223.5,-824.5 223.5,-635.5 62.5,-635.5"/>
<text text-anchor="middle" x="143" y="-812.5" font-family="Helvetica,sans-Serif" font-size="10.00" fill="#000000">anch::sql::PreparedStatement</text>
<polyline fill="none" stroke="#000000" points="62.5,-805.5 223.5,-805.5 "/>
<text text-anchor="start" x="70.5" y="-793.5" font-family="Helvetica,sans-Serif" font-size="10.00" fill="#000000"># _nbPlaceholders</text>
<polyline fill="none" stroke="#000000" points="62.5,-786.5 223.5,-786.5 "/>
<text text-anchor="start" x="70.5" y="-774.5" font-family="Helvetica,sans-Serif" font-size="10.00" fill="#000000">+ PreparedStatement()</text>
<text text-anchor="start" x="70.5" y="-763.5" font-family="Helvetica,sans-Serif" font-size="10.00" fill="#000000">+ ~PreparedStatement()</text>
<text text-anchor="start" x="70.5" y="-752.5" font-family="Helvetica,sans-Serif" font-size="10.00" fill="#000000">+ executeQuery()</text>
<text text-anchor="start" x="70.5" y="-741.5" font-family="Helvetica,sans-Serif" font-size="10.00" fill="#000000">+ executeUpdate()</text>
<text text-anchor="start" x="70.5" y="-730.5" font-family="Helvetica,sans-Serif" font-size="10.00" fill="#000000">+ set()</text>
<text text-anchor="start" x="70.5" y="-719.5" font-family="Helvetica,sans-Serif" font-size="10.00" fill="#000000">+ set()</text>
<text text-anchor="start" x="70.5" y="-708.5" font-family="Helvetica,sans-Serif" font-size="10.00" fill="#000000">+ set()</text>
<text text-anchor="start" x="70.5" y="-697.5" font-family="Helvetica,sans-Serif" font-size="10.00" fill="#000000">+ set()</text>
<text text-anchor="start" x="70.5" y="-686.5" font-family="Helvetica,sans-Serif" font-size="10.00" fill="#000000">+ set()</text>
<text text-anchor="start" x="70.5" y="-675.5" font-family="Helvetica,sans-Serif" font-size="10.00" fill="#000000">+ set()</text>
<text text-anchor="start" x="70.5" y="-664.5" font-family="Helvetica,sans-Serif" font-size="10.00" fill="#000000">+ set()</text>
<text text-anchor="start" x="70.5" y="-653.5" font-family="Helvetica,sans-Serif" font-size="10.00" fill="#000000"># getPlaceholders()</text>
<text text-anchor="start" x="70.5" y="-642.5" font-family="Helvetica,sans-Serif" font-size="10.00" fill="#000000"># checkIndex()</text>
</a>
</g>
</g>
<!-- Node5&#45;&gt;Node4 -->
<g id="edge3" class="edge">
<title>Node5&#45;&gt;Node4</title>
<path fill="none" stroke="#404040" d="M143,-635.2915C143,-623.0657 143,-611.0061 143,-600.0579"/>
<polygon fill="none" stroke="#404040" points="143.0001,-599.773 139,-593.773 143,-587.773 147,-593.773 143.0001,-599.773"/>
<text text-anchor="middle" x="172" y="-609" font-family="Helvetica,sans-Serif" font-size="10.00" fill="#000000"> +elements</text>
</g>
<!-- Node6 -->
<g id="node5" class="node">
<title>Node6</title>
<polygon fill="none" stroke="#bfbfbf" points="87.5,-883.5 87.5,-951.5 198.5,-951.5 198.5,-883.5 87.5,-883.5"/>
<text text-anchor="start" x="95.5" y="-939.5" font-family="Helvetica,sans-Serif" font-size="10.00" fill="#000000">std::map&lt; std::size</text>
<text text-anchor="middle" x="143" y="-928.5" font-family="Helvetica,sans-Serif" font-size="10.00" fill="#000000">_t, std::string &gt;</text>
<polyline fill="none" stroke="#bfbfbf" points="87.5,-921.5 198.5,-921.5 "/>
<text text-anchor="start" x="95.5" y="-909.5" font-family="Helvetica,sans-Serif" font-size="10.00" fill="#000000">+ keys</text>
<polyline fill="none" stroke="#bfbfbf" points="87.5,-902.5 198.5,-902.5 "/>
<text text-anchor="middle" x="143" y="-890.5" font-family="Helvetica,sans-Serif" font-size="10.00" fill="#000000"> </text>
</g>
<!-- Node6&#45;&gt;Node5 -->
<g id="edge4" class="edge">
<title>Node6&#45;&gt;Node5</title>
<path fill="none" stroke="#404040" d="M143,-883.1096C143,-869.7531 143,-853.6659 143,-837.0088"/>
<polygon fill="none" stroke="#404040" points="143.0001,-836.81 139,-830.81 143,-824.81 147,-830.81 143.0001,-836.81"/>
<text text-anchor="middle" x="167.5" y="-851.5" font-family="Helvetica,sans-Serif" font-size="10.00" fill="#000000"> #_values</text>
</g>
<!-- Node7 -->
<g id="node6" class="node">
<title>Node7</title>
<g id="a_node6"><a xlink:title="STL class. ">
<polygon fill="none" stroke="#bfbfbf" points="19.5,-1010.5 19.5,-1067.5 84.5,-1067.5 84.5,-1010.5 19.5,-1010.5"/>
<text text-anchor="middle" x="52" y="-1055.5" font-family="Helvetica,sans-Serif" font-size="10.00" fill="#000000">std::string</text>
<polyline fill="none" stroke="#bfbfbf" points="19.5,-1048.5 84.5,-1048.5 "/>
<text text-anchor="middle" x="52" y="-1036.5" font-family="Helvetica,sans-Serif" font-size="10.00" fill="#000000"> </text>
<polyline fill="none" stroke="#bfbfbf" points="19.5,-1029.5 84.5,-1029.5 "/>
<text text-anchor="middle" x="52" y="-1017.5" font-family="Helvetica,sans-Serif" font-size="10.00" fill="#000000"> </text>
</a>
</g>
</g>
<!-- Node7&#45;&gt;Node4 -->
<g id="edge10" class="edge">
<title>Node7&#45;&gt;Node4</title>
<path fill="none" stroke="#404040" d="M44.5467,-1010.4434C28.2383,-942.0219 -4.746,-764.7629 53,-635 59.5563,-620.2672 70.231,-607.0617 81.9773,-595.7864"/>
<polygon fill="none" stroke="#404040" points="82.2047,-595.5814 83.9833,-588.593 91.1181,-587.547 89.3396,-594.5353 82.2047,-595.5814"/>
<text text-anchor="middle" x="40.5" y="-851.5" font-family="Helvetica,sans-Serif" font-size="10.00" fill="#000000"> +keys</text>
</g>
<!-- Node7&#45;&gt;Node6 -->
<g id="edge5" class="edge">
<title>Node7&#45;&gt;Node6</title>
<path fill="none" stroke="#404040" d="M62.6987,-1010.4041C68.2867,-997.4102 75.873,-982.2428 85,-970 87.4696,-966.6874 90.1713,-963.4206 93.0151,-960.2357"/>
<polygon fill="none" stroke="#404040" points="93.0539,-960.1949 94.2962,-953.0916 101.3309,-951.5062 100.0886,-958.6096 93.0539,-960.1949"/>
<text text-anchor="middle" x="114" y="-978.5" font-family="Helvetica,sans-Serif" font-size="10.00" fill="#000000"> +elements</text>
</g>
<!-- Node8 -->
<g id="node7" class="node">
<title>Node8</title>
<g id="a_node7"><a xlink:title="STL class. ">
<polygon fill="none" stroke="#bfbfbf" points="0,-1115.5 0,-1183.5 104,-1183.5 104,-1115.5 0,-1115.5"/>
<text text-anchor="start" x="8" y="-1171.5" font-family="Helvetica,sans-Serif" font-size="10.00" fill="#000000">std::basic_string&lt;</text>
<text text-anchor="middle" x="52" y="-1160.5" font-family="Helvetica,sans-Serif" font-size="10.00" fill="#000000"> char &gt;</text>
<polyline fill="none" stroke="#bfbfbf" points="0,-1153.5 104,-1153.5 "/>
<text text-anchor="middle" x="52" y="-1141.5" font-family="Helvetica,sans-Serif" font-size="10.00" fill="#000000"> </text>
<polyline fill="none" stroke="#bfbfbf" points="0,-1134.5 104,-1134.5 "/>
<text text-anchor="middle" x="52" y="-1122.5" font-family="Helvetica,sans-Serif" font-size="10.00" fill="#000000"> </text>
</a>
</g>
</g>
<!-- Node8&#45;&gt;Node7 -->
<g id="edge6" class="edge">
<title>Node8&#45;&gt;Node7</title>
<path fill="none" stroke="#191970" d="M52,-1105.0661C52,-1092.4172 52,-1078.9812 52,-1067.5519"/>
<polygon fill="none" stroke="#191970" points="48.5001,-1105.4447 52,-1115.4447 55.5001,-1105.4447 48.5001,-1105.4447"/>
</g>
<!-- Node9 -->
<g id="node8" class="node">
<title>Node9</title>
<g id="a_node8"><a xlink:title="STL class. ">
<polygon fill="none" stroke="#bfbfbf" points="143.5,-1010.5 143.5,-1067.5 244.5,-1067.5 244.5,-1010.5 143.5,-1010.5"/>
<text text-anchor="middle" x="194" y="-1055.5" font-family="Helvetica,sans-Serif" font-size="10.00" fill="#000000">std::map&lt; K, T &gt;</text>
<polyline fill="none" stroke="#bfbfbf" points="143.5,-1048.5 244.5,-1048.5 "/>
<text text-anchor="middle" x="194" y="-1036.5" font-family="Helvetica,sans-Serif" font-size="10.00" fill="#000000"> </text>
<polyline fill="none" stroke="#bfbfbf" points="143.5,-1029.5 244.5,-1029.5 "/>
<text text-anchor="middle" x="194" y="-1017.5" font-family="Helvetica,sans-Serif" font-size="10.00" fill="#000000"> </text>
</a>
</g>
</g>
<!-- Node9&#45;&gt;Node4 -->
<g id="edge11" class="edge">
<title>Node9&#45;&gt;Node4</title>
<path fill="none" stroke="#ffa500" d="M232.8248,-1002.087C234.8584,-998.8522 236.6255,-995.4793 238,-992 241.5924,-982.9061 238.073,-979.7775 238,-970 236.8889,-821.0987 289.8035,-772.6452 233,-635 225.3608,-616.4889 210.9974,-600.493 195.9523,-587.6949"/>
<polygon fill="#ffa500" stroke="#ffa500" points="229.9098,-1000.1455 226.9059,-1010.3056 235.5901,-1004.2364 229.9098,-1000.1455"/>
<text text-anchor="start" x="249" y="-857" font-family="Helvetica,sans-Serif" font-size="10.00" fill="#000000"> &lt; std::string, anch</text>
<text text-anchor="middle" x="318" y="-846" font-family="Helvetica,sans-Serif" font-size="10.00" fill="#000000">::sql::PreparedStatement *&gt;</text>
</g>
<!-- Node9&#45;&gt;Node6 -->
<g id="edge7" class="edge">
<title>Node9&#45;&gt;Node6</title>
<path fill="none" stroke="#ffa500" d="M158.5011,-1001.9818C156.4157,-998.7481 154.543,-995.4059 153,-992 147.3455,-979.5186 144.6471,-964.7428 143.4313,-951.6546"/>
<polygon fill="#ffa500" stroke="#ffa500" points="155.7649,-1004.1721 164.4377,-1010.2576 161.4528,-1000.0919 155.7649,-1004.1721"/>
<text text-anchor="start" x="153" y="-984" font-family="Helvetica,sans-Serif" font-size="10.00" fill="#000000"> &lt; std::size_t, std</text>
<text text-anchor="middle" x="195.5" y="-973" font-family="Helvetica,sans-Serif" font-size="10.00" fill="#000000">::string &gt;</text>
</g>
<!-- Node10 -->
<g id="node9" class="node">
<title>Node10</title>
<polygon fill="none" stroke="#bfbfbf" points="150.5,-1121 150.5,-1178 179.5,-1178 179.5,-1121 150.5,-1121"/>
<text text-anchor="middle" x="165" y="-1166" font-family="Helvetica,sans-Serif" font-size="10.00" fill="#000000">K</text>
<polyline fill="none" stroke="#bfbfbf" points="150.5,-1159 179.5,-1159 "/>
<text text-anchor="middle" x="165" y="-1147" font-family="Helvetica,sans-Serif" font-size="10.00" fill="#000000"> </text>
<polyline fill="none" stroke="#bfbfbf" points="150.5,-1140 179.5,-1140 "/>
<text text-anchor="middle" x="165" y="-1128" font-family="Helvetica,sans-Serif" font-size="10.00" fill="#000000"> </text>
</g>
<!-- Node10&#45;&gt;Node9 -->
<g id="edge8" class="edge">
<title>Node10&#45;&gt;Node9</title>
<path fill="none" stroke="#404040" d="M162.3345,-1120.9089C162.1033,-1109.8209 162.8394,-1097.1372 166,-1086 166.7268,-1083.4387 167.6302,-1080.8749 168.6628,-1078.3397"/>
<polygon fill="none" stroke="#404040" points="168.6717,-1078.3209 167.6655,-1071.1803 173.8699,-1067.5052 174.876,-1074.6457 168.6717,-1078.3209"/>
<text text-anchor="middle" x="183.5" y="-1089" font-family="Helvetica,sans-Serif" font-size="10.00" fill="#000000"> +keys</text>
</g>
<!-- Node11 -->
<g id="node10" class="node">
<title>Node11</title>
<polygon fill="none" stroke="#bfbfbf" points="208.5,-1121 208.5,-1178 237.5,-1178 237.5,-1121 208.5,-1121"/>
<text text-anchor="middle" x="223" y="-1166" font-family="Helvetica,sans-Serif" font-size="10.00" fill="#000000">T</text>
<polyline fill="none" stroke="#bfbfbf" points="208.5,-1159 237.5,-1159 "/>
<text text-anchor="middle" x="223" y="-1147" font-family="Helvetica,sans-Serif" font-size="10.00" fill="#000000"> </text>
<polyline fill="none" stroke="#bfbfbf" points="208.5,-1140 237.5,-1140 "/>
<text text-anchor="middle" x="223" y="-1128" font-family="Helvetica,sans-Serif" font-size="10.00" fill="#000000"> </text>
</g>
<!-- Node11&#45;&gt;Node9 -->
<g id="edge9" class="edge">
<title>Node11&#45;&gt;Node9</title>
<path fill="none" stroke="#404040" d="M215.4563,-1120.7559C212.1334,-1108.0945 208.1717,-1092.9992 204.5623,-1079.2459"/>
<polygon fill="none" stroke="#404040" points="204.5522,-1079.2071 199.1601,-1074.4191 201.5059,-1067.6002 206.898,-1072.3883 204.5522,-1079.2071"/>
<text text-anchor="middle" x="238" y="-1089" font-family="Helvetica,sans-Serif" font-size="10.00" fill="#000000"> +elements</text>
</g>
</g>
</svg>
        <g id="navigator" transform="translate(0 0)" fill="#404254">
                <rect fill="#f2f5e9" fill-opacity="0.5" stroke="#606060" stroke-width=".5" x="0" y="0" width="60" height="60"/>
                <use id="zoomplus" xlink:href="#zoomPlus" x="17" y="9" onmousedown="handleZoom(evt,'in')"/>
                <use id="zoomminus" xlink:href="#zoomMin" x="42" y="9" onmousedown="handleZoom(evt,'out')"/>
                <use id="reset" xlink:href="#resetDef" x="30" y="36" onmousedown="handleReset()"/>
                <g id="arrowUp" xlink:href="#dirArrow" transform="translate(30 24)" onmousedown="handlePan(0,-1)">
                  <use xlink:href="#rim" fill="#404040">
                        <set attributeName="fill" to="#808080" begin="arrowUp.mouseover" end="arrowUp.mouseout"/>
                  </use>
                  <path fill="none" stroke="white" stroke-width="1.5" d="M0,-3.0v7 M-2.5,-0.5L0,-3.0L2.5,-0.5"/>
                </g>
                <g id="arrowRight" xlink:href="#dirArrow" transform="rotate(90) translate(36 -43)" onmousedown="handlePan(1,0)">
                  <use xlink:href="#rim" fill="#404040">
                        <set attributeName="fill" to="#808080" begin="arrowRight.mouseover" end="arrowRight.mouseout"/>
                  </use>
                  <path fill="none" stroke="white" stroke-width="1.5" d="M0,-3.0v7 M-2.5,-0.5L0,-3.0L2.5,-0.5"/>
                </g>
                <g id="arrowDown" xlink:href="#dirArrow" transform="rotate(180) translate(-30 -48)" onmousedown="handlePan(0,1)">
                  <use xlink:href="#rim" fill="#404040">
                        <set attributeName="fill" to="#808080" begin="arrowDown.mouseover" end="arrowDown.mouseout"/>
                  </use>
                  <path fill="none" stroke="white" stroke-width="1.5" d="M0,-3.0v7 M-2.5,-0.5L0,-3.0L2.5,-0.5"/>
                </g>
                <g id="arrowLeft" xlink:href="#dirArrow" transform="rotate(270) translate(-36 17)" onmousedown="handlePan(-1,0)">
                  <use xlink:href="#rim" fill="#404040">
                        <set attributeName="fill" to="#808080" begin="arrowLeft.mouseover" end="arrowLeft.mouseout"/>
                  </use>
                  <path fill="none" stroke="white" stroke-width="1.5" d="M0,-3.0v7 M-2.5,-0.5L0,-3.0L2.5,-0.5"/>
                </g>
        </g>
        <svg viewBox="0 0 15 15" width="100%" height="30px" preserveAspectRatio="xMaxYMin meet">
         <g id="arrow_out" transform="scale(0.3 0.3)">
          <a xlink:href="classanch_1_1sql_1_1_my_s_q_l_connection__coll__graph_org.svg" target="_base">
           <rect id="button" ry="5" rx="5" y="6" x="6" height="38" width="38"
                fill="#f2f5e9" fill-opacity="0.5" stroke="#606060" stroke-width="1.0"/>
           <path id="arrow"
             d="M 11.500037,31.436501 C 11.940474,20.09759 22.043105,11.32322 32.158766,21.979434 L 37.068811,17.246167 C 37.068811,17.246167 37.088388,32 37.088388,32 L 22.160133,31.978069 C 22.160133,31.978069 26.997745,27.140456 26.997745,27.140456 C 18.528582,18.264221 13.291696,25.230495 11.500037,31.436501 z"
             style="fill:#404040;"/>
          </a>
         </g>
        </svg>
</svg>
