<?xml version="1.0" encoding="UTF-8" standalone="no"?>
<!DOCTYPE svg PUBLIC "-//W3C//DTD SVG 1.1//EN"
 "http://www.w3.org/Graphics/SVG/1.1/DTD/svg11.dtd">
<!-- Generated by graphviz version 7.1.0 (0)
 -->
<!-- Title: anch::sql::PreparedStatement Pages: 1 -->
<svg width="251pt" height="590pt"
 viewBox="0.00 0.00 251.00 590.00" xmlns="http://www.w3.org/2000/svg" xmlns:xlink="http://www.w3.org/1999/xlink">
<g id="graph0" class="graph" transform="scale(1 1) rotate(0) translate(4 586)">
<title>anch::sql::PreparedStatement</title>
<!-- Node1 -->
<g id="node1" class="node">
<title>Node1</title>
<g id="a_node1"><a xlink:title="SQL prepared statement.">
<polygon fill="#999999" stroke="#666666" points="21.5,-0.5 21.5,-233.5 182.5,-233.5 182.5,-0.5 21.5,-0.5"/>
<text text-anchor="middle" x="102" y="-221.5" font-family="Helvetica,sans-Serif" font-size="10.00">anch::sql::PreparedStatement</text>
<polyline fill="none" stroke="#666666" points="21.5,-214.5 182.5,-214.5"/>
<text text-anchor="start" x="29.5" y="-202.5" font-family="Helvetica,sans-Serif" font-size="10.00"># _nbPlaceholders</text>
<polyline fill="none" stroke="#666666" points="21.5,-195.5 182.5,-195.5"/>
<text text-anchor="start" x="29.5" y="-183.5" font-family="Helvetica,sans-Serif" font-size="10.00">+ PreparedStatement()</text>
<text text-anchor="start" x="29.5" y="-172.5" font-family="Helvetica,sans-Serif" font-size="10.00">+ ~PreparedStatement()</text>
<text text-anchor="start" x="29.5" y="-161.5" font-family="Helvetica,sans-Serif" font-size="10.00">+ executeQuery()</text>
<text text-anchor="start" x="29.5" y="-150.5" font-family="Helvetica,sans-Serif" font-size="10.00">+ executeUpdate()</text>
<text text-anchor="start" x="29.5" y="-139.5" font-family="Helvetica,sans-Serif" font-size="10.00">+ set()</text>
<text text-anchor="start" x="29.5" y="-128.5" font-family="Helvetica,sans-Serif" font-size="10.00">+ set()</text>
<text text-anchor="start" x="29.5" y="-117.5" font-family="Helvetica,sans-Serif" font-size="10.00">+ set()</text>
<text text-anchor="start" x="29.5" y="-106.5" font-family="Helvetica,sans-Serif" font-size="10.00">+ set()</text>
<text text-anchor="start" x="29.5" y="-95.5" font-family="Helvetica,sans-Serif" font-size="10.00">+ set()</text>
<text text-anchor="start" x="29.5" y="-84.5" font-family="Helvetica,sans-Serif" font-size="10.00">+ set()</text>
<text text-anchor="start" x="29.5" y="-73.5" font-family="Helvetica,sans-Serif" font-size="10.00">+ set()</text>
<text text-anchor="start" x="29.5" y="-62.5" font-family="Helvetica,sans-Serif" font-size="10.00">+ set()</text>
<text text-anchor="start" x="29.5" y="-51.5" font-family="Helvetica,sans-Serif" font-size="10.00">+ set()</text>
<text text-anchor="start" x="29.5" y="-40.5" font-family="Helvetica,sans-Serif" font-size="10.00">+ set()</text>
<text text-anchor="start" x="29.5" y="-29.5" font-family="Helvetica,sans-Serif" font-size="10.00">+ set()</text>
<text text-anchor="start" x="29.5" y="-18.5" font-family="Helvetica,sans-Serif" font-size="10.00"># getPlaceholders()</text>
<text text-anchor="start" x="29.5" y="-7.5" font-family="Helvetica,sans-Serif" font-size="10.00"># checkIndex()</text>
</a>
</g>
</g>
<!-- Node2 -->
<g id="node2" class="node">
<title>Node2</title>
<g id="a_node2"><a xlink:title=" ">
<polygon fill="white" stroke="#666666" points="46.5,-281.5 46.5,-349.5 157.5,-349.5 157.5,-281.5 46.5,-281.5"/>
<text text-anchor="start" x="54.5" y="-337.5" font-family="Helvetica,sans-Serif" font-size="10.00">std::map&lt; std::size</text>
<text text-anchor="middle" x="102" y="-326.5" font-family="Helvetica,sans-Serif" font-size="10.00">_t, std::string &gt;</text>
<polyline fill="none" stroke="#666666" points="46.5,-319.5 157.5,-319.5"/>
<text text-anchor="start" x="54.5" y="-307.5" font-family="Helvetica,sans-Serif" font-size="10.00">+ keys</text>
<polyline fill="none" stroke="#666666" points="46.5,-300.5 157.5,-300.5"/>
<text text-anchor="middle" x="102" y="-288.5" font-family="Helvetica,sans-Serif" font-size="10.00"> </text>
</a>
</g>
</g>
<!-- Node2&#45;&gt;Node1 -->
<g id="edge1" class="edge">
<title>Node2&#45;&gt;Node1</title>
<path fill="none" stroke="#404040" d="M102,-281.61C102,-271.18 102,-258.95 102,-245.95"/>
<polygon fill="none" stroke="#404040" points="102,-246.19 98,-240.19 102,-234.19 106,-240.19 102,-246.19"/>
<text text-anchor="middle" x="126.5" y="-255" font-family="Helvetica,sans-Serif" font-size="10.00"> #_values</text>
</g>
<!-- Node3 -->
<g id="node3" class="node">
<title>Node3</title>
<g id="a_node3"><a xlink:title=" ">
<polygon fill="white" stroke="#666666" points="19.5,-408.5 19.5,-465.5 84.5,-465.5 84.5,-408.5 19.5,-408.5"/>
<text text-anchor="middle" x="52" y="-453.5" font-family="Helvetica,sans-Serif" font-size="10.00">std::string</text>
<polyline fill="none" stroke="#666666" points="19.5,-446.5 84.5,-446.5"/>
<text text-anchor="middle" x="52" y="-434.5" font-family="Helvetica,sans-Serif" font-size="10.00"> </text>
<polyline fill="none" stroke="#666666" points="19.5,-427.5 84.5,-427.5"/>
<text text-anchor="middle" x="52" y="-415.5" font-family="Helvetica,sans-Serif" font-size="10.00"> </text>
</a>
</g>
</g>
<!-- Node3&#45;&gt;Node2 -->
<g id="edge2" class="edge">
<title>Node3&#45;&gt;Node2</title>
<path fill="none" stroke="#404040" d="M56.12,-408.82C58.62,-396.09 62.43,-380.92 68,-368 69.06,-365.54 70.24,-363.07 71.5,-360.62"/>
<polygon fill="none" stroke="#404040" points="71.54,-360.55 71.01,-353.36 77.45,-350.11 77.97,-357.31 71.54,-360.55"/>
<text text-anchor="middle" x="97" y="-376.5" font-family="Helvetica,sans-Serif" font-size="10.00"> +elements</text>
</g>
<!-- Node4 -->
<g id="node4" class="node">
<title>Node4</title>
<g id="a_node4"><a xlink:title=" ">
<polygon fill="white" stroke="#666666" points="0,-513.5 0,-581.5 104,-581.5 104,-513.5 0,-513.5"/>
<text text-anchor="start" x="8" y="-569.5" font-family="Helvetica,sans-Serif" font-size="10.00">std::basic_string&lt;</text>
<text text-anchor="middle" x="52" y="-558.5" font-family="Helvetica,sans-Serif" font-size="10.00"> Char &gt;</text>
<polyline fill="none" stroke="#666666" points="0,-551.5 104,-551.5"/>
<text text-anchor="middle" x="52" y="-539.5" font-family="Helvetica,sans-Serif" font-size="10.00"> </text>
<polyline fill="none" stroke="#666666" points="0,-532.5 104,-532.5"/>
<text text-anchor="middle" x="52" y="-520.5" font-family="Helvetica,sans-Serif" font-size="10.00"> </text>
</a>
</g>
</g>
<!-- Node4&#45;&gt;Node3 -->
<g id="edge3" class="edge">
<title>Node4&#45;&gt;Node3</title>
<path fill="none" stroke="#63b8ff" d="M52,-502.4C52,-489.83 52,-476.51 52,-465.26"/>
<polygon fill="none" stroke="#63b8ff" points="48.5,-502.14 52,-512.14 55.5,-502.14 48.5,-502.14"/>
</g>
<!-- Node5 -->
<g id="node5" class="node">
<title>Node5</title>
<g id="a_node5"><a xlink:title=" ">
<polygon fill="white" stroke="#666666" points="102.5,-408.5 102.5,-465.5 203.5,-465.5 203.5,-408.5 102.5,-408.5"/>
<text text-anchor="middle" x="153" y="-453.5" font-family="Helvetica,sans-Serif" font-size="10.00">std::map&lt; K, T &gt;</text>
<polyline fill="none" stroke="#666666" points="102.5,-446.5 203.5,-446.5"/>
<text text-anchor="middle" x="153" y="-434.5" font-family="Helvetica,sans-Serif" font-size="10.00"> </text>
<polyline fill="none" stroke="#666666" points="102.5,-427.5 203.5,-427.5"/>
<text text-anchor="middle" x="153" y="-415.5" font-family="Helvetica,sans-Serif" font-size="10.00"> </text>
</a>
</g>
</g>
<!-- Node5&#45;&gt;Node2 -->
<g id="edge4" class="edge">
<title>Node5&#45;&gt;Node2</title>
<path fill="none" stroke="orange" d="M138.37,-398.01C134.46,-388.19 130.17,-377.66 126,-368 123.38,-361.93 120.49,-355.51 117.65,-349.34"/>
<polygon fill="orange" stroke="orange" points="135.11,-399.29 142.03,-407.31 141.62,-396.72 135.11,-399.29"/>
<text text-anchor="start" x="135" y="-382" font-family="Helvetica,sans-Serif" font-size="10.00"> &lt; std::size_t, std</text>
<text text-anchor="middle" x="177.5" y="-371" font-family="Helvetica,sans-Serif" font-size="10.00">::string &gt;</text>
</g>
<!-- Node6 -->
<g id="node6" class="node">
<title>Node6</title>
<g id="a_node6"><a xlink:title=" ">
<polygon fill="white" stroke="#bfbfbf" points="130.5,-519 130.5,-576 159.5,-576 159.5,-519 130.5,-519"/>
<text text-anchor="middle" x="145" y="-564" font-family="Helvetica,sans-Serif" font-size="10.00">K</text>
<polyline fill="none" stroke="#bfbfbf" points="130.5,-557 159.5,-557"/>
<text text-anchor="middle" x="145" y="-545" font-family="Helvetica,sans-Serif" font-size="10.00"> </text>
<polyline fill="none" stroke="#bfbfbf" points="130.5,-538 159.5,-538"/>
<text text-anchor="middle" x="145" y="-526" font-family="Helvetica,sans-Serif" font-size="10.00"> </text>
</a>
</g>
</g>
<!-- Node6&#45;&gt;Node5 -->
<g id="edge5" class="edge">
<title>Node6&#45;&gt;Node5</title>
<path fill="none" stroke="#404040" d="M144.64,-519.08C144.7,-508.15 145.04,-495.46 146,-484 146.17,-481.99 146.37,-479.94 146.6,-477.87"/>
<polygon fill="none" stroke="#404040" points="146.58,-477.96 143.39,-471.5 148.13,-466.06 151.32,-472.53 146.58,-477.96"/>
<text text-anchor="middle" x="163" y="-487" font-family="Helvetica,sans-Serif" font-size="10.00"> +keys</text>
</g>
<!-- Node7 -->
<g id="node7" class="node">
<title>Node7</title>
<g id="a_node7"><a xlink:title=" ">
<polygon fill="white" stroke="#bfbfbf" points="187.5,-519 187.5,-576 216.5,-576 216.5,-519 187.5,-519"/>
<text text-anchor="middle" x="202" y="-564" font-family="Helvetica,sans-Serif" font-size="10.00">T</text>
<polyline fill="none" stroke="#bfbfbf" points="187.5,-557 216.5,-557"/>
<text text-anchor="middle" x="202" y="-545" font-family="Helvetica,sans-Serif" font-size="10.00"> </text>
<polyline fill="none" stroke="#bfbfbf" points="187.5,-538 216.5,-538"/>
<text text-anchor="middle" x="202" y="-526" font-family="Helvetica,sans-Serif" font-size="10.00"> </text>
</a>
</g>
</g>
<!-- Node7&#45;&gt;Node5 -->
<g id="edge6" class="edge">
<title>Node7&#45;&gt;Node5</title>
<path fill="none" stroke="#404040" d="M193.69,-519.28C189.96,-508.15 185.23,-495.27 180,-484 178.87,-481.57 177.66,-479.11 176.38,-476.64"/>
<polygon fill="none" stroke="#404040" points="176.35,-476.58 169.96,-473.24 170.59,-466.06 176.98,-469.4 176.35,-476.58"/>
<text text-anchor="middle" x="214" y="-487" font-family="Helvetica,sans-Serif" font-size="10.00"> +elements</text>
</g>
</g>
</svg>
