<?xml version="1.0" encoding="UTF-8" standalone="no"?>
<!DOCTYPE svg PUBLIC "-//W3C//DTD SVG 1.1//EN"
 "http://www.w3.org/Graphics/SVG/1.1/DTD/svg11.dtd">
<!-- Generated by graphviz version 12.1.2 (0)
 -->
<!-- Title: anch::crypto::ECB&lt; Cipher, Padding &gt; Pages: 1 -->
<svg width="219pt" height="616pt"
 viewBox="0.00 0.00 218.75 615.50" xmlns="http://www.w3.org/2000/svg" xmlns:xlink="http://www.w3.org/1999/xlink">
<g id="graph0" class="graph" transform="scale(1 1) rotate(0) translate(4 611.5)">
<title>anch::crypto::ECB&lt; Cipher, Padding &gt;</title>
<!-- Node1 -->
<g id="Node000001" class="node">
<title>Node1</title>
<g id="a_Node000001"><a xlink:title="Electronic codebook implementation.">
<polygon fill="#999999" stroke="none" points="141.5,-129 38.5,-129 38.5,0 141.5,0 141.5,-129"/>
<text text-anchor="start" x="43.12" y="-115.5" font-family="Helvetica,sans-Serif" font-size="10.00">anch::crypto::ECB&lt;</text>
<text text-anchor="start" x="45" y="-102.75" font-family="Helvetica,sans-Serif" font-size="10.00"> Cipher, Padding &gt;</text>
<text text-anchor="start" x="88.5" y="-86.5" font-family="Helvetica,sans-Serif" font-size="10.00"> </text>
<text text-anchor="start" x="43.88" y="-70.5" font-family="Helvetica,sans-Serif" font-size="10.00">+</text>
<text text-anchor="start" x="57.5" y="-70.5" font-family="Helvetica,sans-Serif" font-size="10.00">ECB()</text>
<text text-anchor="start" x="43.88" y="-54.5" font-family="Helvetica,sans-Serif" font-size="10.00">+</text>
<text text-anchor="start" x="57.5" y="-54.5" font-family="Helvetica,sans-Serif" font-size="10.00">~ECB()</text>
<text text-anchor="start" x="43.88" y="-38.5" font-family="Helvetica,sans-Serif" font-size="10.00">#</text>
<text text-anchor="start" x="57.5" y="-38.5" font-family="Helvetica,sans-Serif" font-size="10.00">cipherBlock()</text>
<text text-anchor="start" x="43.88" y="-22.5" font-family="Helvetica,sans-Serif" font-size="10.00">#</text>
<text text-anchor="start" x="57.5" y="-22.5" font-family="Helvetica,sans-Serif" font-size="10.00">decipherBlock()</text>
<text text-anchor="start" x="43.88" y="-6.5" font-family="Helvetica,sans-Serif" font-size="10.00">#</text>
<text text-anchor="start" x="57.5" y="-6.5" font-family="Helvetica,sans-Serif" font-size="10.00">reset()</text>
<polygon fill="#666666" stroke="#666666" points="38.5,-98 38.5,-98 141.5,-98 141.5,-98 38.5,-98"/>
<polygon fill="#666666" stroke="#666666" points="38.5,-82 38.5,-82 141.5,-82 141.5,-82 38.5,-82"/>
<polygon fill="none" stroke="#666666" points="38.5,0 38.5,-129 141.5,-129 141.5,0 38.5,0"/>
</a>
</g>
</g>
<!-- Node2 -->
<g id="Node000002" class="node">
<title>Node2</title>
<g id="a_Node000002"><a xlink:href="classanch_1_1crypto_1_1_block_cipher_mode_of_operation.html" target="_top" xlink:title=" ">
<polygon fill="white" stroke="none" points="180,-356 0,-356 0,-166 180,-166 180,-356"/>
<text text-anchor="start" x="8.62" y="-342.5" font-family="Helvetica,sans-Serif" font-size="10.00">anch::crypto::BlockCipher</text>
<text text-anchor="start" x="8.62" y="-329.75" font-family="Helvetica,sans-Serif" font-size="10.00">ModeOfOperation&lt; ECB&lt; Cipher,</text>
<text text-anchor="start" x="39.38" y="-317" font-family="Helvetica,sans-Serif" font-size="10.00"> Padding &gt;, Cipher &gt;</text>
<text text-anchor="start" x="88.5" y="-300.5" font-family="Helvetica,sans-Serif" font-size="10.00"> </text>
<text text-anchor="start" x="3.88" y="-284.5" font-family="Helvetica,sans-Serif" font-size="10.00">+</text>
<text text-anchor="start" x="16" y="-284.5" font-family="Helvetica,sans-Serif" font-size="10.00">cipher()</text>
<text text-anchor="start" x="3.88" y="-268.5" font-family="Helvetica,sans-Serif" font-size="10.00">+</text>
<text text-anchor="start" x="16" y="-268.5" font-family="Helvetica,sans-Serif" font-size="10.00">decipher()</text>
<text text-anchor="start" x="3.88" y="-252.5" font-family="Helvetica,sans-Serif" font-size="10.00">+</text>
<text text-anchor="start" x="16" y="-252.5" font-family="Helvetica,sans-Serif" font-size="10.00">setNbThread()</text>
<text text-anchor="start" x="3.88" y="-236.5" font-family="Helvetica,sans-Serif" font-size="10.00">#</text>
<text text-anchor="start" x="16" y="-236.5" font-family="Helvetica,sans-Serif" font-size="10.00">BlockCipherModeOfOperation()</text>
<text text-anchor="start" x="3.88" y="-220.5" font-family="Helvetica,sans-Serif" font-size="10.00">#</text>
<text text-anchor="start" x="16" y="-220.5" font-family="Helvetica,sans-Serif" font-size="10.00">~BlockCipherModeOfOperation()</text>
<text text-anchor="start" x="3.88" y="-204.5" font-family="Helvetica,sans-Serif" font-size="10.00">#</text>
<text text-anchor="start" x="16" y="-204.5" font-family="Helvetica,sans-Serif" font-size="10.00">cipherBlock()</text>
<text text-anchor="start" x="3.88" y="-188.5" font-family="Helvetica,sans-Serif" font-size="10.00">#</text>
<text text-anchor="start" x="16" y="-188.5" font-family="Helvetica,sans-Serif" font-size="10.00">decipherBlock()</text>
<text text-anchor="start" x="3.88" y="-172.5" font-family="Helvetica,sans-Serif" font-size="10.00">#</text>
<text text-anchor="start" x="16" y="-172.5" font-family="Helvetica,sans-Serif" font-size="10.00">reset()</text>
<polygon fill="#666666" stroke="#666666" points="0,-312 0,-312 180,-312 180,-312 0,-312"/>
<polygon fill="#666666" stroke="#666666" points="0,-296 0,-296 180,-296 180,-296 0,-296"/>
<polygon fill="none" stroke="#666666" points="0,-166 0,-356 180,-356 180,-166 0,-166"/>
</a>
</g>
</g>
<!-- Node2&#45;&gt;Node1 -->
<g id="edge1_Node000001_Node000002" class="edge">
<title>Node2&#45;&gt;Node1</title>
<g id="a_edge1_Node000001_Node000002"><a xlink:title=" ">
<path fill="none" stroke="#63b8ff" d="M90,-154.92C90,-146.06 90,-137.29 90,-128.9"/>
<polygon fill="none" stroke="#63b8ff" points="86.5,-154.65 90,-164.65 93.5,-154.65 86.5,-154.65"/>
</a>
</g>
</g>
<!-- Node3 -->
<g id="Node000003" class="node">
<title>Node3</title>
<g id="a_Node000003"><a xlink:href="classanch_1_1crypto_1_1_block_cipher_mode_of_operation.html" target="_top" xlink:title="Block cipher mode of operation interface.">
<polygon fill="white" stroke="none" points="180,-607.5 0,-607.5 0,-417.5 180,-417.5 180,-607.5"/>
<text text-anchor="start" x="20.62" y="-594" font-family="Helvetica,sans-Serif" font-size="10.00">anch::crypto::BlockCipher</text>
<text text-anchor="start" x="20.62" y="-581.25" font-family="Helvetica,sans-Serif" font-size="10.00">ModeOfOperation&lt; Derived,</text>
<text text-anchor="start" x="67.12" y="-568.5" font-family="Helvetica,sans-Serif" font-size="10.00"> Cipher &gt;</text>
<text text-anchor="start" x="88.5" y="-552" font-family="Helvetica,sans-Serif" font-size="10.00"> </text>
<text text-anchor="start" x="3.88" y="-536" font-family="Helvetica,sans-Serif" font-size="10.00">+</text>
<text text-anchor="start" x="16" y="-536" font-family="Helvetica,sans-Serif" font-size="10.00">cipher()</text>
<text text-anchor="start" x="3.88" y="-520" font-family="Helvetica,sans-Serif" font-size="10.00">+</text>
<text text-anchor="start" x="16" y="-520" font-family="Helvetica,sans-Serif" font-size="10.00">decipher()</text>
<text text-anchor="start" x="3.88" y="-504" font-family="Helvetica,sans-Serif" font-size="10.00">+</text>
<text text-anchor="start" x="16" y="-504" font-family="Helvetica,sans-Serif" font-size="10.00">setNbThread()</text>
<text text-anchor="start" x="3.88" y="-488" font-family="Helvetica,sans-Serif" font-size="10.00">#</text>
<text text-anchor="start" x="16" y="-488" font-family="Helvetica,sans-Serif" font-size="10.00">BlockCipherModeOfOperation()</text>
<text text-anchor="start" x="3.88" y="-472" font-family="Helvetica,sans-Serif" font-size="10.00">#</text>
<text text-anchor="start" x="16" y="-472" font-family="Helvetica,sans-Serif" font-size="10.00">~BlockCipherModeOfOperation()</text>
<text text-anchor="start" x="3.88" y="-456" font-family="Helvetica,sans-Serif" font-size="10.00">#</text>
<text text-anchor="start" x="16" y="-456" font-family="Helvetica,sans-Serif" font-size="10.00">cipherBlock()</text>
<text text-anchor="start" x="3.88" y="-440" font-family="Helvetica,sans-Serif" font-size="10.00">#</text>
<text text-anchor="start" x="16" y="-440" font-family="Helvetica,sans-Serif" font-size="10.00">decipherBlock()</text>
<text text-anchor="start" x="3.88" y="-424" font-family="Helvetica,sans-Serif" font-size="10.00">#</text>
<text text-anchor="start" x="16" y="-424" font-family="Helvetica,sans-Serif" font-size="10.00">reset()</text>
<polygon fill="#666666" stroke="#666666" points="0,-563.5 0,-563.5 180,-563.5 180,-563.5 0,-563.5"/>
<polygon fill="#666666" stroke="#666666" points="0,-547.5 0,-547.5 180,-547.5 180,-547.5 0,-547.5"/>
<polygon fill="none" stroke="#666666" points="0,-417.5 0,-607.5 180,-607.5 180,-417.5 0,-417.5"/>
</a>
</g>
</g>
<!-- Node3&#45;&gt;Node2 -->
<g id="edge2_Node000002_Node000003" class="edge">
<title>Node3&#45;&gt;Node2</title>
<g id="a_edge2_Node000002_Node000003"><a xlink:title=" ">
<path fill="none" stroke="orange" d="M90,-406.08C90,-389.41 90,-372.27 90,-355.89"/>
<polygon fill="orange" stroke="orange" points="86.5,-406.02 90,-416.02 93.5,-406.02 86.5,-406.02"/>
</a>
</g>
<text text-anchor="start" x="90" y="-390" font-family="Helvetica,sans-Serif" font-size="10.00" fill="grey"> &lt; ECB&lt; Cipher, Padding</text>
<text text-anchor="middle" x="150.38" y="-377.25" font-family="Helvetica,sans-Serif" font-size="10.00" fill="grey"> &gt;, Cipher &gt;</text>
</g>
</g>
</svg>
