<?xml version="1.0" encoding="UTF-8" standalone="no"?>
<!DOCTYPE svg PUBLIC "-//W3C//DTD SVG 1.1//EN"
 "http://www.w3.org/Graphics/SVG/1.1/DTD/svg11.dtd">
<!-- Generated by graphviz version 13.1.2 (0)
 -->
<!-- Title: anch::sql::MySQLConnection::executeUpdate Pages: 1 -->
<svg width="300pt" height="58pt"
 viewBox="0.00 0.00 300.00 58.00" xmlns="http://www.w3.org/2000/svg" xmlns:xlink="http://www.w3.org/1999/xlink">
<g id="graph0" class="graph" transform="scale(1 1) rotate(0) translate(4 54)">
<title>anch::sql::MySQLConnection::executeUpdate</title>
<!-- Node1 -->
<g id="Node000001" class="node">
<title>Node1</title>
<g id="a_Node000001"><a xlink:title=" ">
<polygon fill="#999999" stroke="#666666" points="144.25,-32 0,-32 0,0 144.25,0 144.25,-32"/>
<text xml:space="preserve" text-anchor="start" x="8" y="-18.5" font-family="Helvetica,sans-Serif" font-size="10.00">anch::sql::MySQLConnection</text>
<text xml:space="preserve" text-anchor="middle" x="72.12" y="-6.5" font-family="Helvetica,sans-Serif" font-size="10.00">::executeUpdate</text>
</a>
</g>
</g>
<!-- Node1&#45;&gt;Node1 -->
<g id="edge1_Node000001_Node000001" class="edge">
<title>Node1&#45;&gt;Node1</title>
<g id="a_edge1_Node000001_Node000001"><a xlink:title=" ">
<path fill="none" stroke="#63b8ff" d="M42.89,-32.44C37.43,-41.58 47.18,-50 72.12,-50 85.77,-50 94.86,-47.48 99.41,-43.71"/>
<polygon fill="#63b8ff" stroke="#63b8ff" points="102.85,-44.38 101.1,-33.93 95.95,-43.19 102.85,-44.38"/>
</a>
</g>
</g>
<!-- Node2 -->
<g id="Node000002" class="node">
<title>Node2</title>
<g id="a_Node000002"><a xlink:href="classanch_1_1sql_1_1_connection.html#a81b8bf61bf16b985e11e15dc0e556443" target="_top" xlink:title=" ">
<polygon fill="white" stroke="#666666" points="291.5,-32 180.25,-32 180.25,0 291.5,0 291.5,-32"/>
<text xml:space="preserve" text-anchor="start" x="188.25" y="-18.5" font-family="Helvetica,sans-Serif" font-size="10.00">anch::sql::Connection</text>
<text xml:space="preserve" text-anchor="middle" x="235.88" y="-6.5" font-family="Helvetica,sans-Serif" font-size="10.00">::query</text>
</a>
</g>
</g>
<!-- Node1&#45;&gt;Node2 -->
<g id="edge2_Node000001_Node000002" class="edge">
<title>Node1&#45;&gt;Node2</title>
<g id="a_edge2_Node000001_Node000002"><a xlink:title=" ">
<path fill="none" stroke="#63b8ff" d="M144.54,-16C152.5,-16 160.59,-16 168.48,-16"/>
<polygon fill="#63b8ff" stroke="#63b8ff" points="168.36,-19.5 178.36,-16 168.36,-12.5 168.36,-19.5"/>
</a>
</g>
</g>
<!-- Node2&#45;&gt;Node2 -->
<g id="edge3_Node000002_Node000002" class="edge">
<title>Node2&#45;&gt;Node2</title>
<g id="a_edge3_Node000002_Node000002"><a xlink:title=" ">
<path fill="none" stroke="#63b8ff" d="M206.64,-32.44C201.18,-41.58 210.93,-50 235.88,-50 249.52,-50 258.61,-47.48 263.16,-43.71"/>
<polygon fill="#63b8ff" stroke="#63b8ff" points="266.6,-44.38 264.85,-33.93 259.7,-43.19 266.6,-44.38"/>
</a>
</g>
</g>
</g>
</svg>
