<?xml version="1.0" encoding="UTF-8" standalone="no"?>
<!DOCTYPE svg PUBLIC "-//W3C//DTD SVG 1.1//EN"
 "http://www.w3.org/Graphics/SVG/1.1/DTD/svg11.dtd">
<!-- Generated by graphviz version 12.1.2 (0)
 -->
<!-- Title: anch::crypto::BlockCipher&lt; B &gt; Pages: 1 -->
<svg width="156pt" height="92pt"
 viewBox="0.00 0.00 156.00 92.00" xmlns="http://www.w3.org/2000/svg" xmlns:xlink="http://www.w3.org/1999/xlink">
<g id="graph0" class="graph" transform="scale(1 1) rotate(0) translate(4 88)">
<title>anch::crypto::BlockCipher&lt; B &gt;</title>
<!-- Node1 -->
<g id="Node000001" class="node">
<title>Node1</title>
<g id="a_Node000001"><a xlink:title="Block cipher interface.">
<polygon fill="#999999" stroke="none" points="148,-84 0,-84 0,0 148,0 148,-84"/>
<text text-anchor="start" x="5" y="-70.5" font-family="Helvetica,sans-Serif" font-size="10.00">anch::crypto::BlockCipher&lt; B &gt;</text>
<text text-anchor="start" x="72.5" y="-54.5" font-family="Helvetica,sans-Serif" font-size="10.00"> </text>
<text text-anchor="start" x="20.5" y="-38.5" font-family="Helvetica,sans-Serif" font-size="10.00">+</text>
<text text-anchor="start" x="47" y="-38.5" font-family="Helvetica,sans-Serif" font-size="10.00">cipher()</text>
<text text-anchor="start" x="20.5" y="-22.5" font-family="Helvetica,sans-Serif" font-size="10.00">+</text>
<text text-anchor="start" x="47" y="-22.5" font-family="Helvetica,sans-Serif" font-size="10.00">decipher()</text>
<text text-anchor="start" x="20.5" y="-6.5" font-family="Helvetica,sans-Serif" font-size="10.00">+</text>
<text text-anchor="start" x="47" y="-6.5" font-family="Helvetica,sans-Serif" font-size="10.00">getBlockSize()</text>
<polygon fill="#666666" stroke="#666666" points="0,-66 0,-66 148,-66 148,-66 0,-66"/>
<polygon fill="#666666" stroke="#666666" points="0,-50 0,-50 148,-50 148,-50 0,-50"/>
<polygon fill="none" stroke="#666666" points="0,0 0,-84 148,-84 148,0 0,0"/>
</a>
</g>
</g>
</g>
</svg>
