<?xml version="1.0" encoding="UTF-8" standalone="no"?>
<!DOCTYPE svg PUBLIC "-//W3C//DTD SVG 1.1//EN"
 "http://www.w3.org/Graphics/SVG/1.1/DTD/svg11.dtd">
<!-- Generated by graphviz version 2.40.1 (20161225.0304)
 -->
<!-- Title: anch::network::IOException Pages: 1 -->
<svg width="158pt" height="193pt"
 viewBox="0.00 0.00 158.00 193.00" xmlns="http://www.w3.org/2000/svg" xmlns:xlink="http://www.w3.org/1999/xlink">
<g id="graph0" class="graph" transform="scale(1 1) rotate(0) translate(4 189)">
<title>anch::network::IOException</title>
<!-- Node0 -->
<g id="node1" class="node">
<title>Node0</title>
<polygon fill="#bfbfbf" stroke="#000000" points="0,-.5 0,-90.5 150,-90.5 150,-.5 0,-.5"/>
<text text-anchor="middle" x="75" y="-78.5" font-family="Helvetica,sans-Serif" font-size="10.00" fill="#000000">anch::network::IOException</text>
<polyline fill="none" stroke="#000000" points="0,-71.5 150,-71.5 "/>
<text text-anchor="middle" x="75" y="-59.5" font-family="Helvetica,sans-Serif" font-size="10.00" fill="#000000"> </text>
<polyline fill="none" stroke="#000000" points="0,-52.5 150,-52.5 "/>
<text text-anchor="start" x="8" y="-40.5" font-family="Helvetica,sans-Serif" font-size="10.00" fill="#000000">+ IOException()</text>
<text text-anchor="start" x="8" y="-29.5" font-family="Helvetica,sans-Serif" font-size="10.00" fill="#000000">+ IOException()</text>
<text text-anchor="start" x="8" y="-18.5" font-family="Helvetica,sans-Serif" font-size="10.00" fill="#000000">+ ~IOException()</text>
<text text-anchor="start" x="8" y="-7.5" font-family="Helvetica,sans-Serif" font-size="10.00" fill="#000000">+ what()</text>
</g>
<!-- Node1 -->
<g id="node2" class="node">
<title>Node1</title>
<g id="a_node2"><a xlink:title="STL class. ">
<polygon fill="none" stroke="#bfbfbf" points="32,-127.5 32,-184.5 118,-184.5 118,-127.5 32,-127.5"/>
<text text-anchor="middle" x="75" y="-172.5" font-family="Helvetica,sans-Serif" font-size="10.00" fill="#000000">std::exception</text>
<polyline fill="none" stroke="#bfbfbf" points="32,-165.5 118,-165.5 "/>
<text text-anchor="middle" x="75" y="-153.5" font-family="Helvetica,sans-Serif" font-size="10.00" fill="#000000"> </text>
<polyline fill="none" stroke="#bfbfbf" points="32,-146.5 118,-146.5 "/>
<text text-anchor="middle" x="75" y="-134.5" font-family="Helvetica,sans-Serif" font-size="10.00" fill="#000000"> </text>
</a>
</g>
</g>
<!-- Node1&#45;&gt;Node0 -->
<g id="edge1" class="edge">
<title>Node1&#45;&gt;Node0</title>
<path fill="none" stroke="#191970" d="M75,-117.1977C75,-108.667 75,-99.5607 75,-90.7995"/>
<polygon fill="none" stroke="#191970" points="71.5001,-117.2559 75,-127.2559 78.5001,-117.2559 71.5001,-117.2559"/>
</g>
</g>
</svg>
