<?xml version="1.0" encoding="UTF-8" standalone="no"?>
<!DOCTYPE svg PUBLIC "-//W3C//DTD SVG 1.1//EN"
 "http://www.w3.org/Graphics/SVG/1.1/DTD/svg11.dtd">
<!-- Generated by graphviz version 13.1.2 (0)
 -->
<!-- Title: anch::crypto::CTR&lt; Cipher &gt; Pages: 1 -->
<svg width="214pt" height="603pt"
 viewBox="0.00 0.00 214.00 603.00" xmlns="http://www.w3.org/2000/svg" xmlns:xlink="http://www.w3.org/1999/xlink">
<g id="graph0" class="graph" transform="scale(1 1) rotate(0) translate(4 599)">
<title>anch::crypto::CTR&lt; Cipher &gt;</title>
<!-- Node1 -->
<g id="Node000001" class="node">
<title>Node1</title>
<g id="a_Node000001"><a xlink:title="Counter implementation.">
<polygon fill="#999999" stroke="none" points="127.38,-128 32.38,-128 32.38,0 127.38,0 127.38,-128"/>
<text xml:space="preserve" text-anchor="start" x="36.38" y="-114.5" font-family="Helvetica,sans-Serif" font-size="10.00">anch::crypto::CTR&lt;</text>
<text xml:space="preserve" text-anchor="start" x="59.62" y="-102.5" font-family="Helvetica,sans-Serif" font-size="10.00"> Cipher &gt;</text>
<text xml:space="preserve" text-anchor="start" x="78.38" y="-86.5" font-family="Helvetica,sans-Serif" font-size="10.00"> </text>
<text xml:space="preserve" text-anchor="start" x="38.75" y="-70.5" font-family="Helvetica,sans-Serif" font-size="10.00">+</text>
<text xml:space="preserve" text-anchor="start" x="51.12" y="-70.5" font-family="Helvetica,sans-Serif" font-size="10.00">CTR()</text>
<text xml:space="preserve" text-anchor="start" x="38.75" y="-54.5" font-family="Helvetica,sans-Serif" font-size="10.00">+</text>
<text xml:space="preserve" text-anchor="start" x="51.12" y="-54.5" font-family="Helvetica,sans-Serif" font-size="10.00">~CTR()</text>
<text xml:space="preserve" text-anchor="start" x="39.12" y="-38.5" font-family="Helvetica,sans-Serif" font-size="10.00">#</text>
<text xml:space="preserve" text-anchor="start" x="51.12" y="-38.5" font-family="Helvetica,sans-Serif" font-size="10.00">cipherBlock()</text>
<text xml:space="preserve" text-anchor="start" x="39.12" y="-22.5" font-family="Helvetica,sans-Serif" font-size="10.00">#</text>
<text xml:space="preserve" text-anchor="start" x="51.12" y="-22.5" font-family="Helvetica,sans-Serif" font-size="10.00">decipherBlock()</text>
<text xml:space="preserve" text-anchor="start" x="39.12" y="-6.5" font-family="Helvetica,sans-Serif" font-size="10.00">#</text>
<text xml:space="preserve" text-anchor="start" x="51.12" y="-6.5" font-family="Helvetica,sans-Serif" font-size="10.00">reset()</text>
<polygon fill="#666666" stroke="#666666" points="32.38,-98 32.38,-98 127.38,-98 127.38,-98 32.38,-98"/>
<polygon fill="#666666" stroke="#666666" points="32.38,-82 32.38,-82 127.38,-82 127.38,-82 32.38,-82"/>
<polygon fill="none" stroke="#666666" points="32.38,0 32.38,-128 127.38,-128 127.38,0 32.38,0"/>
</a>
</g>
</g>
<!-- Node2 -->
<g id="Node000002" class="node">
<title>Node2</title>
<g id="a_Node000002"><a xlink:href="classanch_1_1crypto_1_1_block_cipher_mode_of_operation.html" target="_top" xlink:title=" ">
<polygon fill="white" stroke="none" points="159.75,-353 0,-353 0,-165 159.75,-165 159.75,-353"/>
<text xml:space="preserve" text-anchor="start" x="7.88" y="-339.5" font-family="Helvetica,sans-Serif" font-size="10.00">anch::crypto::BlockCipher</text>
<text xml:space="preserve" text-anchor="start" x="7.88" y="-327.5" font-family="Helvetica,sans-Serif" font-size="10.00">ModeOfOperation&lt; CTR&lt; Cipher</text>
<text xml:space="preserve" text-anchor="start" x="53.62" y="-315.5" font-family="Helvetica,sans-Serif" font-size="10.00"> &gt;, Cipher &gt;</text>
<text xml:space="preserve" text-anchor="start" x="78.38" y="-299.5" font-family="Helvetica,sans-Serif" font-size="10.00"> </text>
<text xml:space="preserve" text-anchor="start" x="4" y="-283.5" font-family="Helvetica,sans-Serif" font-size="10.00">+</text>
<text xml:space="preserve" text-anchor="start" x="14" y="-283.5" font-family="Helvetica,sans-Serif" font-size="10.00">cipher()</text>
<text xml:space="preserve" text-anchor="start" x="4" y="-267.5" font-family="Helvetica,sans-Serif" font-size="10.00">+</text>
<text xml:space="preserve" text-anchor="start" x="14" y="-267.5" font-family="Helvetica,sans-Serif" font-size="10.00">decipher()</text>
<text xml:space="preserve" text-anchor="start" x="4" y="-251.5" font-family="Helvetica,sans-Serif" font-size="10.00">+</text>
<text xml:space="preserve" text-anchor="start" x="14" y="-251.5" font-family="Helvetica,sans-Serif" font-size="10.00">setNbThread()</text>
<text xml:space="preserve" text-anchor="start" x="4.38" y="-235.5" font-family="Helvetica,sans-Serif" font-size="10.00">#</text>
<text xml:space="preserve" text-anchor="start" x="14" y="-235.5" font-family="Helvetica,sans-Serif" font-size="10.00">BlockCipherModeOfOperation()</text>
<text xml:space="preserve" text-anchor="start" x="4.38" y="-219.5" font-family="Helvetica,sans-Serif" font-size="10.00">#</text>
<text xml:space="preserve" text-anchor="start" x="14" y="-219.5" font-family="Helvetica,sans-Serif" font-size="10.00">~BlockCipherModeOfOperation()</text>
<text xml:space="preserve" text-anchor="start" x="4.38" y="-203.5" font-family="Helvetica,sans-Serif" font-size="10.00">#</text>
<text xml:space="preserve" text-anchor="start" x="14" y="-203.5" font-family="Helvetica,sans-Serif" font-size="10.00">cipherBlock()</text>
<text xml:space="preserve" text-anchor="start" x="4.38" y="-187.5" font-family="Helvetica,sans-Serif" font-size="10.00">#</text>
<text xml:space="preserve" text-anchor="start" x="14" y="-187.5" font-family="Helvetica,sans-Serif" font-size="10.00">decipherBlock()</text>
<text xml:space="preserve" text-anchor="start" x="4.38" y="-171.5" font-family="Helvetica,sans-Serif" font-size="10.00">#</text>
<text xml:space="preserve" text-anchor="start" x="14" y="-171.5" font-family="Helvetica,sans-Serif" font-size="10.00">reset()</text>
<polygon fill="#666666" stroke="#666666" points="0,-311 0,-311 159.75,-311 159.75,-311 0,-311"/>
<polygon fill="#666666" stroke="#666666" points="0,-295 0,-295 159.75,-295 159.75,-295 0,-295"/>
<polygon fill="none" stroke="#666666" points="0,-165 0,-353 159.75,-353 159.75,-165 0,-165"/>
</a>
</g>
</g>
<!-- Node2&#45;&gt;Node1 -->
<g id="edge1_Node000001_Node000002" class="edge">
<title>Node2&#45;&gt;Node1</title>
<g id="a_edge1_Node000001_Node000002"><a xlink:title=" ">
<path fill="none" stroke="#63b8ff" d="M79.88,-153.91C79.88,-145.03 79.88,-136.24 79.88,-127.84"/>
<polygon fill="none" stroke="#63b8ff" points="76.38,-153.66 79.88,-163.66 83.38,-153.66 76.38,-153.66"/>
</a>
</g>
</g>
<!-- Node3 -->
<g id="Node000003" class="node">
<title>Node3</title>
<g id="a_Node000003"><a xlink:href="classanch_1_1crypto_1_1_block_cipher_mode_of_operation.html" target="_top" xlink:title="Block cipher mode of operation interface.">
<polygon fill="white" stroke="none" points="159.75,-595 0,-595 0,-407 159.75,-407 159.75,-595"/>
<text xml:space="preserve" text-anchor="start" x="18.75" y="-581.5" font-family="Helvetica,sans-Serif" font-size="10.00">anch::crypto::BlockCipher</text>
<text xml:space="preserve" text-anchor="start" x="18.75" y="-569.5" font-family="Helvetica,sans-Serif" font-size="10.00">ModeOfOperation&lt; Derived,</text>
<text xml:space="preserve" text-anchor="start" x="59.62" y="-557.5" font-family="Helvetica,sans-Serif" font-size="10.00"> Cipher &gt;</text>
<text xml:space="preserve" text-anchor="start" x="78.38" y="-541.5" font-family="Helvetica,sans-Serif" font-size="10.00"> </text>
<text xml:space="preserve" text-anchor="start" x="4" y="-525.5" font-family="Helvetica,sans-Serif" font-size="10.00">+</text>
<text xml:space="preserve" text-anchor="start" x="14" y="-525.5" font-family="Helvetica,sans-Serif" font-size="10.00">cipher()</text>
<text xml:space="preserve" text-anchor="start" x="4" y="-509.5" font-family="Helvetica,sans-Serif" font-size="10.00">+</text>
<text xml:space="preserve" text-anchor="start" x="14" y="-509.5" font-family="Helvetica,sans-Serif" font-size="10.00">decipher()</text>
<text xml:space="preserve" text-anchor="start" x="4" y="-493.5" font-family="Helvetica,sans-Serif" font-size="10.00">+</text>
<text xml:space="preserve" text-anchor="start" x="14" y="-493.5" font-family="Helvetica,sans-Serif" font-size="10.00">setNbThread()</text>
<text xml:space="preserve" text-anchor="start" x="4.38" y="-477.5" font-family="Helvetica,sans-Serif" font-size="10.00">#</text>
<text xml:space="preserve" text-anchor="start" x="14" y="-477.5" font-family="Helvetica,sans-Serif" font-size="10.00">BlockCipherModeOfOperation()</text>
<text xml:space="preserve" text-anchor="start" x="4.38" y="-461.5" font-family="Helvetica,sans-Serif" font-size="10.00">#</text>
<text xml:space="preserve" text-anchor="start" x="14" y="-461.5" font-family="Helvetica,sans-Serif" font-size="10.00">~BlockCipherModeOfOperation()</text>
<text xml:space="preserve" text-anchor="start" x="4.38" y="-445.5" font-family="Helvetica,sans-Serif" font-size="10.00">#</text>
<text xml:space="preserve" text-anchor="start" x="14" y="-445.5" font-family="Helvetica,sans-Serif" font-size="10.00">cipherBlock()</text>
<text xml:space="preserve" text-anchor="start" x="4.38" y="-429.5" font-family="Helvetica,sans-Serif" font-size="10.00">#</text>
<text xml:space="preserve" text-anchor="start" x="14" y="-429.5" font-family="Helvetica,sans-Serif" font-size="10.00">decipherBlock()</text>
<text xml:space="preserve" text-anchor="start" x="4.38" y="-413.5" font-family="Helvetica,sans-Serif" font-size="10.00">#</text>
<text xml:space="preserve" text-anchor="start" x="14" y="-413.5" font-family="Helvetica,sans-Serif" font-size="10.00">reset()</text>
<polygon fill="#666666" stroke="#666666" points="0,-553 0,-553 159.75,-553 159.75,-553 0,-553"/>
<polygon fill="#666666" stroke="#666666" points="0,-537 0,-537 159.75,-537 159.75,-537 0,-537"/>
<polygon fill="none" stroke="#666666" points="0,-407 0,-595 159.75,-595 159.75,-407 0,-407"/>
</a>
</g>
</g>
<!-- Node3&#45;&gt;Node2 -->
<g id="edge2_Node000002_Node000003" class="edge">
<title>Node3&#45;&gt;Node2</title>
<g id="a_edge2_Node000002_Node000003"><a xlink:title=" ">
<path fill="none" stroke="orange" d="M79.88,-395.84C79.88,-381.57 79.88,-366.99 79.88,-352.94"/>
<polygon fill="orange" stroke="orange" points="76.38,-395.7 79.88,-405.7 83.38,-395.7 76.38,-395.7"/>
</a>
</g>
<text xml:space="preserve" text-anchor="start" x="82.88" y="-376.5" font-family="Helvetica,sans-Serif" font-size="10.00" fill="grey">&lt; CTR&lt; Cipher &gt;, Cipher &gt;</text>
</g>
</g>
</svg>
