<?xml version="1.0" encoding="UTF-8" standalone="no"?>
<!DOCTYPE svg PUBLIC "-//W3C//DTD SVG 1.1//EN"
 "http://www.w3.org/Graphics/SVG/1.1/DTD/svg11.dtd">
<!-- Generated by graphviz version 14.0.0 (0)
 -->
<!-- Title: anch::network::Socket Pages: 1 -->
<!--zoomable 619 -->

<svg id="main" version="1.1" xmlns="http://www.w3.org/2000/svg" xmlns:xlink="http://www.w3.org/1999/xlink" xml:space="preserve" onload="init(evt)">

<style type="text/css"><![CDATA[
.node, .edge {opacity: 0.7;}
.node.selected, .edge.selected {opacity: 1;}
.edge:hover path { stroke: red; }
.edge:hover polygon { stroke: red; fill: red; }
]]></style>

<defs>
  <circle id="rim" cx="0" cy="0" r="7"/>
  <circle id="rim2" cx="0" cy="0" r="3.5"/>
  <g id="zoomPlus">
    <use xlink:href="#rim" fill="#404040"><set attributeName="fill" to="#808080" begin="zoomplus.mouseover" end="zoomplus.mouseout"/></use>
    <path d="M-4,0h8M0,-4v8" fill="none" stroke="white" stroke-width="1.5" pointer-events="none"/>
  </g>
  <g id="zoomMin">
    <use xlink:href="#rim" fill="#404040"><set attributeName="fill" to="#808080" begin="zoomminus.mouseover" end="zoomminus.mouseout"/></use>
    <path d="M-4,0h8" fill="none" stroke="white" stroke-width="1.5" pointer-events="none"/>
  </g>
  <g id="arrowUp" transform="translate(30 24)">
    <use xlink:href="#rim"/>
    <path pointer-events="none" fill="none" stroke="white" stroke-width="1.5" d="M0,-3.0v7 M-2.5,-0.5L0,-3.0L2.5,-0.5"/>
  </g>
  <g id="arrowRight" transform="rotate(90) translate(36 -43)">
    <use xlink:href="#rim"/>
    <path pointer-events="none" fill="none" stroke="white" stroke-width="1.5" d="M0,-3.0v7 M-2.5,-0.5L0,-3.0L2.5,-0.5"/>
  </g>
  <g id="arrowDown" transform="rotate(180) translate(-30 -48)">
    <use xlink:href="#rim"/>
    <path pointer-events="none" fill="none" stroke="white" stroke-width="1.5" d="M0,-3.0v7 M-2.5,-0.5L0,-3.0L2.5,-0.5"/>
  </g>
  <g id="arrowLeft" transform="rotate(270) translate(-36 17)">
    <use xlink:href="#rim"/>
    <path pointer-events="none" fill="none" stroke="white" stroke-width="1.5" d="M0,-3.0v7 M-2.5,-0.5L0,-3.0L2.5,-0.5"/>
  </g>
  <g id="resetDef">
    <use xlink:href="#rim2" fill="#404040"><set attributeName="fill" to="#808080" begin="reset.mouseover" end="reset.mouseout"/></use>
  </g>
</defs>
<script type="application/ecmascript">
var viewWidth = 160;
var viewHeight = 619;
var sectionId = 'dynsection-1';
</script>
<script type="application/ecmascript" xlink:href="svg.min.js"/>
<svg id="graph" class="graph">
<g id="viewport">
<title>anch::network::Socket</title>
<!-- Node1 -->
<g id="Node000001" class="node">
<title>Node1</title>
<g id="a_Node000001"><a xlink:title=" ">
<polygon fill="#999999" stroke="none" points="124.62,-260 18.38,-260 18.38,0 124.62,0 124.62,-260"/>
<text xml:space="preserve" text-anchor="start" x="22.38" y="-246.5" font-family="Helvetica,sans-Serif" font-size="10.00">anch::network::Socket</text>
<text xml:space="preserve" text-anchor="start" x="29.25" y="-230.5" font-family="Helvetica,sans-Serif" font-size="10.00">#</text>
<text xml:space="preserve" text-anchor="start" x="45.38" y="-230.5" font-family="Helvetica,sans-Serif" font-size="10.00">_sock</text>
<text xml:space="preserve" text-anchor="start" x="29.25" y="-214.5" font-family="Helvetica,sans-Serif" font-size="10.00">#</text>
<text xml:space="preserve" text-anchor="start" x="45.38" y="-214.5" font-family="Helvetica,sans-Serif" font-size="10.00">_backlog</text>
<text xml:space="preserve" text-anchor="start" x="29.25" y="-198.5" font-family="Helvetica,sans-Serif" font-size="10.00">#</text>
<text xml:space="preserve" text-anchor="start" x="45.38" y="-198.5" font-family="Helvetica,sans-Serif" font-size="10.00">_address</text>
<text xml:space="preserve" text-anchor="start" x="28.88" y="-182.5" font-family="Helvetica,sans-Serif" font-size="10.00">+</text>
<text xml:space="preserve" text-anchor="start" x="45.38" y="-182.5" font-family="Helvetica,sans-Serif" font-size="10.00">Socket()</text>
<text xml:space="preserve" text-anchor="start" x="28.88" y="-166.5" font-family="Helvetica,sans-Serif" font-size="10.00">+</text>
<text xml:space="preserve" text-anchor="start" x="45.38" y="-166.5" font-family="Helvetica,sans-Serif" font-size="10.00">~Socket()</text>
<text xml:space="preserve" text-anchor="start" x="28.88" y="-150.5" font-family="Helvetica,sans-Serif" font-size="10.00">+</text>
<text xml:space="preserve" text-anchor="start" x="45.38" y="-150.5" font-family="Helvetica,sans-Serif" font-size="10.00">bind()</text>
<text xml:space="preserve" text-anchor="start" x="28.88" y="-134.5" font-family="Helvetica,sans-Serif" font-size="10.00">+</text>
<text xml:space="preserve" text-anchor="start" x="45.38" y="-134.5" font-family="Helvetica,sans-Serif" font-size="10.00">connect()</text>
<text xml:space="preserve" text-anchor="start" x="28.88" y="-118.5" font-family="Helvetica,sans-Serif" font-size="10.00">+</text>
<text xml:space="preserve" text-anchor="start" x="45.38" y="-118.5" font-family="Helvetica,sans-Serif" font-size="10.00">listen()</text>
<text xml:space="preserve" text-anchor="start" x="28.88" y="-102.5" font-family="Helvetica,sans-Serif" font-size="10.00">+</text>
<text xml:space="preserve" text-anchor="start" x="45.38" y="-102.5" font-family="Helvetica,sans-Serif" font-size="10.00">accept()</text>
<text xml:space="preserve" text-anchor="start" x="28.88" y="-86.5" font-family="Helvetica,sans-Serif" font-size="10.00">+</text>
<text xml:space="preserve" text-anchor="start" x="45.38" y="-86.5" font-family="Helvetica,sans-Serif" font-size="10.00">send()</text>
<text xml:space="preserve" text-anchor="start" x="28.88" y="-70.5" font-family="Helvetica,sans-Serif" font-size="10.00">+</text>
<text xml:space="preserve" text-anchor="start" x="45.38" y="-70.5" font-family="Helvetica,sans-Serif" font-size="10.00">receive()</text>
<text xml:space="preserve" text-anchor="start" x="28.88" y="-54.5" font-family="Helvetica,sans-Serif" font-size="10.00">+</text>
<text xml:space="preserve" text-anchor="start" x="45.38" y="-54.5" font-family="Helvetica,sans-Serif" font-size="10.00">receive()</text>
<text xml:space="preserve" text-anchor="start" x="28.88" y="-38.5" font-family="Helvetica,sans-Serif" font-size="10.00">+</text>
<text xml:space="preserve" text-anchor="start" x="45.38" y="-38.5" font-family="Helvetica,sans-Serif" font-size="10.00">shutdown()</text>
<text xml:space="preserve" text-anchor="start" x="45.38" y="-22.5" font-family="Helvetica,sans-Serif" font-size="10.00">and 11 more...</text>
<text xml:space="preserve" text-anchor="start" x="29.25" y="-6.5" font-family="Helvetica,sans-Serif" font-size="10.00">#</text>
<text xml:space="preserve" text-anchor="start" x="45.38" y="-6.5" font-family="Helvetica,sans-Serif" font-size="10.00">Socket()</text>
<polygon fill="#666666" stroke="#666666" points="18.38,-242 18.38,-242 124.62,-242 124.62,-242 18.38,-242"/>
<polygon fill="#666666" stroke="#666666" points="18.38,-194 18.38,-194 43.38,-194 43.38,-194 18.38,-194"/>
<polygon fill="#666666" stroke="#666666" points="43.38,-194 43.38,-194 124.62,-194 124.62,-194 43.38,-194"/>
<polygon fill="none" stroke="#666666" points="18.38,0 18.38,-260 124.62,-260 124.62,0 18.38,0"/>
</a>
</g>
</g>
<!-- Node2 -->
<g id="Node000002" class="node">
<title>Node2</title>
<g id="a_Node000002"><a xlink:href="classanch_1_1events_1_1_observable.html" target="_top" xlink:title=" ">
<polygon fill="white" stroke="none" points="131.38,-425 11.63,-425 11.63,-297 131.38,-297 131.38,-425"/>
<text xml:space="preserve" text-anchor="start" x="15.62" y="-411.5" font-family="Helvetica,sans-Serif" font-size="10.00">anch::events::Observable</text>
<text xml:space="preserve" text-anchor="start" x="34.38" y="-399.5" font-family="Helvetica,sans-Serif" font-size="10.00">&lt; SocketEvent &gt;</text>
<text xml:space="preserve" text-anchor="start" x="70" y="-383.5" font-family="Helvetica,sans-Serif" font-size="10.00"> </text>
<text xml:space="preserve" text-anchor="start" x="21.56" y="-367.5" font-family="Helvetica,sans-Serif" font-size="10.00">+</text>
<text xml:space="preserve" text-anchor="start" x="37.5" y="-367.5" font-family="Helvetica,sans-Serif" font-size="10.00">Observable()</text>
<text xml:space="preserve" text-anchor="start" x="21.56" y="-351.5" font-family="Helvetica,sans-Serif" font-size="10.00">+</text>
<text xml:space="preserve" text-anchor="start" x="37.5" y="-351.5" font-family="Helvetica,sans-Serif" font-size="10.00">~Observable()</text>
<text xml:space="preserve" text-anchor="start" x="21.56" y="-335.5" font-family="Helvetica,sans-Serif" font-size="10.00">+</text>
<text xml:space="preserve" text-anchor="start" x="37.5" y="-335.5" font-family="Helvetica,sans-Serif" font-size="10.00">addObserver()</text>
<text xml:space="preserve" text-anchor="start" x="21.56" y="-319.5" font-family="Helvetica,sans-Serif" font-size="10.00">+</text>
<text xml:space="preserve" text-anchor="start" x="37.5" y="-319.5" font-family="Helvetica,sans-Serif" font-size="10.00">removeObserver()</text>
<text xml:space="preserve" text-anchor="start" x="21.56" y="-303.5" font-family="Helvetica,sans-Serif" font-size="10.00">+</text>
<text xml:space="preserve" text-anchor="start" x="37.5" y="-303.5" font-family="Helvetica,sans-Serif" font-size="10.00">notifyObservers()</text>
<polygon fill="#666666" stroke="#666666" points="11.62,-395 11.62,-395 131.38,-395 131.38,-395 11.62,-395"/>
<polygon fill="#666666" stroke="#666666" points="11.62,-379 11.62,-379 131.38,-379 131.38,-379 11.62,-379"/>
<polygon fill="none" stroke="#666666" points="11.62,-297 11.62,-425 131.38,-425 131.38,-297 11.62,-297"/>
</a>
</g>
</g>
<!-- Node2&#45;&gt;Node1 -->
<g id="edge1_Node000001_Node000002" class="edge">
<title>Node2&#45;&gt;Node1</title>
<g id="a_edge1_Node000001_Node000002"><a xlink:title=" ">
<path fill="none" stroke="#63b8ff" d="M71.5,-285.82C71.5,-277.37 71.5,-268.58 71.5,-259.68"/>
<polygon fill="none" stroke="#63b8ff" points="68,-285.61 71.5,-295.61 75,-285.61 68,-285.61"/>
</a>
</g>
</g>
<!-- Node3 -->
<g id="Node000003" class="node">
<title>Node3</title>
<g id="a_Node000003"><a xlink:href="classanch_1_1events_1_1_observable.html" target="_top" xlink:title="An observable implementation of the observers/observable design pattern.">
<polygon fill="white" stroke="none" points="143,-611 0,-611 0,-479 143,-479 143,-611"/>
<text xml:space="preserve" text-anchor="start" x="4" y="-597.5" font-family="Helvetica,sans-Serif" font-size="10.00">anch::events::Observable&lt; T &gt;</text>
<text xml:space="preserve" text-anchor="start" x="70" y="-581.5" font-family="Helvetica,sans-Serif" font-size="10.00"> </text>
<text xml:space="preserve" text-anchor="start" x="15.75" y="-565.5" font-family="Helvetica,sans-Serif" font-size="10.00">+</text>
<text xml:space="preserve" text-anchor="start" x="37.5" y="-565.5" font-family="Helvetica,sans-Serif" font-size="10.00">Observable()</text>
<text xml:space="preserve" text-anchor="start" x="15.75" y="-549.5" font-family="Helvetica,sans-Serif" font-size="10.00">+</text>
<text xml:space="preserve" text-anchor="start" x="37.5" y="-549.5" font-family="Helvetica,sans-Serif" font-size="10.00">~Observable()</text>
<text xml:space="preserve" text-anchor="start" x="15.75" y="-533.5" font-family="Helvetica,sans-Serif" font-size="10.00">+</text>
<text xml:space="preserve" text-anchor="start" x="37.5" y="-533.5" font-family="Helvetica,sans-Serif" font-size="10.00">addObserver()</text>
<text xml:space="preserve" text-anchor="start" x="15.75" y="-517.5" font-family="Helvetica,sans-Serif" font-size="10.00">+</text>
<text xml:space="preserve" text-anchor="start" x="37.5" y="-517.5" font-family="Helvetica,sans-Serif" font-size="10.00">removeObserver()</text>
<text xml:space="preserve" text-anchor="start" x="15.75" y="-501.5" font-family="Helvetica,sans-Serif" font-size="10.00">+</text>
<text xml:space="preserve" text-anchor="start" x="37.5" y="-501.5" font-family="Helvetica,sans-Serif" font-size="10.00">notifyObservers()</text>
<text xml:space="preserve" text-anchor="start" x="15.75" y="-485.5" font-family="Helvetica,sans-Serif" font-size="10.00">+</text>
<text xml:space="preserve" text-anchor="start" x="37.5" y="-485.5" font-family="Helvetica,sans-Serif" font-size="10.00">notifyObservers()</text>
<polygon fill="#666666" stroke="#666666" points="0,-593 0,-593 143,-593 143,-593 0,-593"/>
<polygon fill="#666666" stroke="#666666" points="0,-577 0,-577 143,-577 143,-577 0,-577"/>
<polygon fill="none" stroke="#666666" points="0,-479 0,-611 143,-611 143,-479 0,-479"/>
</a>
</g>
</g>
<!-- Node3&#45;&gt;Node2 -->
<g id="edge2_Node000002_Node000003" class="edge">
<title>Node3&#45;&gt;Node2</title>
<g id="a_edge2_Node000002_Node000003"><a xlink:title=" ">
<path fill="none" stroke="orange" d="M71.5,-467.73C71.5,-453.42 71.5,-438.61 71.5,-424.77"/>
<polygon fill="orange" stroke="orange" points="68,-467.55 71.5,-477.55 75,-467.55 68,-467.55"/>
</a>
</g>
<text xml:space="preserve" text-anchor="start" x="74.5" y="-448.5" font-family="Helvetica,sans-Serif" font-size="10.00" fill="grey">&lt; SocketEvent &gt;</text>
</g>
</g>
</svg>

<g id="navigator" transform="translate(0 0)" fill="#404254">
  <rect fill="#f2f5e9" fill-opacity="0.5" stroke="#606060" stroke-width=".5" x="0" y="0" width="60" height="60"/>
  <use id="zoomplus" xlink:href="#zoomPlus" x="17" y="9" onmousedown="handleZoom(evt,'in')"/>
  <use id="zoomminus" xlink:href="#zoomMin" x="42" y="9" onmousedown="handleZoom(evt,'out')"/>
  <use id="reset" xlink:href="#resetDef" x="30" y="36" onmousedown="handleReset()"/>
   <use id="arrowup" xlink:href="#arrowUp" x="0" y="0" onmousedown="handlePan(0,-1)"/>
  <use id="arrowright" xlink:href="#arrowRight" x="0" y="0" onmousedown="handlePan(1,0)"/>
  <use id="arrowdown" xlink:href="#arrowDown" x="0" y="0" onmousedown="handlePan(0,1)"/>
  <use id="arrowleft" xlink:href="#arrowLeft" x="0" y="0" onmousedown="handlePan(-1,0)"/>
</g>
<svg viewBox="0 0 15 15" width="100%" height="30px" preserveAspectRatio="xMaxYMin meet">
 <g id="arrow_out" transform="scale(0.3 0.3)">
  <a xlink:href="classanch_1_1network_1_1_socket__coll__graph_org.svg" target="_base">
   <rect id="button" ry="5" rx="5" y="6" x="6" height="38" width="38"
        fill="#f2f5e9" fill-opacity="0.5" stroke="#606060" stroke-width="1.0"/>
   <path id="arrow"
     d="M 11.500037,31.436501 C 11.940474,20.09759 22.043105,11.32322 32.158766,21.979434 L 37.068811,17.246167 C 37.068811,17.246167 37.088388,32 37.088388,32 L 22.160133,31.978069 C 22.160133,31.978069 26.997745,27.140456 26.997745,27.140456 C 18.528582,18.264221 13.291696,25.230495 11.500037,31.436501 z"
     style="fill:#404040;"/>
  </a>
 </g>
</svg>

<style type='text/css'>
<![CDATA[
[data-mouse-over-selected='false'] { opacity: 0.7; }
[data-mouse-over-selected='true']  { opacity: 1.0; }
]]>
</style>
<script type="application/ecmascript"><![CDATA[
document.addEventListener('DOMContentLoaded', (event) => {
  highlightEdges();
  highlightAdjacentNodes();
});
]]></script>
</svg>
