<?xml version="1.0" encoding="UTF-8" standalone="no"?>
<!DOCTYPE svg PUBLIC "-//W3C//DTD SVG 1.1//EN"
 "http://www.w3.org/Graphics/SVG/1.1/DTD/svg11.dtd">
<!-- Generated by graphviz version 13.1.0 (0)
 -->
<!-- Title: anch::json::ObjectMapper&lt; T &gt; Pages: 1 -->
<svg width="179pt" height="631pt"
 viewBox="0.00 0.00 179.00 631.00" xmlns="http://www.w3.org/2000/svg" xmlns:xlink="http://www.w3.org/1999/xlink">
<g id="graph0" class="graph" transform="scale(1 1) rotate(0) translate(4 627)">
<title>anch::json::ObjectMapper&lt; T &gt;</title>
<!-- Node1 -->
<g id="Node000001" class="node">
<title>Node1</title>
<g id="a_Node000001"><a xlink:title="JSON complex object mapper.">
<polygon fill="#999999" stroke="none" points="143,-212 0,-212 0,0 143,0 143,-212"/>
<text xml:space="preserve" text-anchor="start" x="4" y="-198.5" font-family="Helvetica,sans-Serif" font-size="10.00">anch::json::ObjectMapper&lt; T &gt;</text>
<text xml:space="preserve" text-anchor="start" x="70" y="-182.5" font-family="Helvetica,sans-Serif" font-size="10.00"> </text>
<text xml:space="preserve" text-anchor="start" x="18.56" y="-166.5" font-family="Helvetica,sans-Serif" font-size="10.00">+</text>
<text xml:space="preserve" text-anchor="start" x="43.12" y="-166.5" font-family="Helvetica,sans-Serif" font-size="10.00">ObjectMapper()</text>
<text xml:space="preserve" text-anchor="start" x="18.56" y="-150.5" font-family="Helvetica,sans-Serif" font-size="10.00">+</text>
<text xml:space="preserve" text-anchor="start" x="43.12" y="-150.5" font-family="Helvetica,sans-Serif" font-size="10.00">ObjectMapper()</text>
<text xml:space="preserve" text-anchor="start" x="18.56" y="-134.5" font-family="Helvetica,sans-Serif" font-size="10.00">+</text>
<text xml:space="preserve" text-anchor="start" x="43.12" y="-134.5" font-family="Helvetica,sans-Serif" font-size="10.00">generic()</text>
<text xml:space="preserve" text-anchor="start" x="18.56" y="-118.5" font-family="Helvetica,sans-Serif" font-size="10.00">+</text>
<text xml:space="preserve" text-anchor="start" x="43.12" y="-118.5" font-family="Helvetica,sans-Serif" font-size="10.00">serialize()</text>
<text xml:space="preserve" text-anchor="start" x="18.56" y="-102.5" font-family="Helvetica,sans-Serif" font-size="10.00">+</text>
<text xml:space="preserve" text-anchor="start" x="43.12" y="-102.5" font-family="Helvetica,sans-Serif" font-size="10.00">serialize()</text>
<text xml:space="preserve" text-anchor="start" x="18.56" y="-86.5" font-family="Helvetica,sans-Serif" font-size="10.00">+</text>
<text xml:space="preserve" text-anchor="start" x="43.12" y="-86.5" font-family="Helvetica,sans-Serif" font-size="10.00">serialize()</text>
<text xml:space="preserve" text-anchor="start" x="18.56" y="-70.5" font-family="Helvetica,sans-Serif" font-size="10.00">+</text>
<text xml:space="preserve" text-anchor="start" x="43.12" y="-70.5" font-family="Helvetica,sans-Serif" font-size="10.00">serialize()</text>
<text xml:space="preserve" text-anchor="start" x="18.56" y="-54.5" font-family="Helvetica,sans-Serif" font-size="10.00">+</text>
<text xml:space="preserve" text-anchor="start" x="43.12" y="-54.5" font-family="Helvetica,sans-Serif" font-size="10.00">serialize()</text>
<text xml:space="preserve" text-anchor="start" x="18.56" y="-38.5" font-family="Helvetica,sans-Serif" font-size="10.00">+</text>
<text xml:space="preserve" text-anchor="start" x="43.12" y="-38.5" font-family="Helvetica,sans-Serif" font-size="10.00">serialize()</text>
<text xml:space="preserve" text-anchor="start" x="18.56" y="-22.5" font-family="Helvetica,sans-Serif" font-size="10.00">+</text>
<text xml:space="preserve" text-anchor="start" x="43.12" y="-22.5" font-family="Helvetica,sans-Serif" font-size="10.00">serialize()</text>
<text xml:space="preserve" text-anchor="start" x="18.56" y="-6.5" font-family="Helvetica,sans-Serif" font-size="10.00">+</text>
<text xml:space="preserve" text-anchor="start" x="43.12" y="-6.5" font-family="Helvetica,sans-Serif" font-size="10.00">deserialize()</text>
<polygon fill="#666666" stroke="#666666" points="0,-194 0,-194 143,-194 143,-194 0,-194"/>
<polygon fill="#666666" stroke="#666666" points="0,-178 0,-178 143,-178 143,-178 0,-178"/>
<polygon fill="none" stroke="#666666" points="0,0 0,-212 143,-212 143,0 0,0"/>
</a>
</g>
</g>
<!-- Node2 -->
<g id="Node000002" class="node">
<title>Node2</title>
<g id="a_Node000002"><a xlink:href="classanch_1_1json_1_1_generic_mapper.html" target="_top" xlink:title=" ">
<polygon fill="white" stroke="none" points="134,-345 9,-345 9,-249 134,-249 134,-345"/>
<text xml:space="preserve" text-anchor="start" x="13" y="-331.5" font-family="Helvetica,sans-Serif" font-size="10.00">anch::json::GenericMapper</text>
<text xml:space="preserve" text-anchor="start" x="14.88" y="-319.5" font-family="Helvetica,sans-Serif" font-size="10.00">&lt; ObjectMapper&lt; T &gt;, T &gt;</text>
<text xml:space="preserve" text-anchor="start" x="70" y="-303.5" font-family="Helvetica,sans-Serif" font-size="10.00"> </text>
<text xml:space="preserve" text-anchor="start" x="20.25" y="-287.5" font-family="Helvetica,sans-Serif" font-size="10.00">+</text>
<text xml:space="preserve" text-anchor="start" x="37.5" y="-287.5" font-family="Helvetica,sans-Serif" font-size="10.00">deserialize()</text>
<text xml:space="preserve" text-anchor="start" x="20.62" y="-271.5" font-family="Helvetica,sans-Serif" font-size="10.00">#</text>
<text xml:space="preserve" text-anchor="start" x="37.5" y="-271.5" font-family="Helvetica,sans-Serif" font-size="10.00">GenericMapper()</text>
<text xml:space="preserve" text-anchor="start" x="20.62" y="-255.5" font-family="Helvetica,sans-Serif" font-size="10.00">#</text>
<text xml:space="preserve" text-anchor="start" x="37.5" y="-255.5" font-family="Helvetica,sans-Serif" font-size="10.00">~GenericMapper()</text>
<polygon fill="#666666" stroke="#666666" points="9,-315 9,-315 134,-315 134,-315 9,-315"/>
<polygon fill="#666666" stroke="#666666" points="9,-299 9,-299 134,-299 134,-299 9,-299"/>
<polygon fill="none" stroke="#666666" points="9,-249 9,-345 134,-345 134,-249 9,-249"/>
</a>
</g>
</g>
<!-- Node2&#45;&gt;Node1 -->
<g id="edge1_Node000001_Node000002" class="edge">
<title>Node2&#45;&gt;Node1</title>
<g id="a_edge1_Node000001_Node000002"><a xlink:title=" ">
<path fill="none" stroke="#63b8ff" d="M71.5,-237.78C71.5,-229.41 71.5,-220.59 71.5,-211.65"/>
<polygon fill="none" stroke="#63b8ff" points="68,-237.77 71.5,-247.77 75,-237.77 68,-237.77"/>
</a>
</g>
</g>
<!-- Node3 -->
<g id="Node000003" class="node">
<title>Node3</title>
<g id="a_Node000003"><a xlink:href="classanch_1_1json_1_1_generic_mapper.html" target="_top" xlink:title="Generic mapper.">
<polygon fill="white" stroke="none" points="134,-623 9,-623 9,-415 134,-415 134,-623"/>
<text xml:space="preserve" text-anchor="start" x="13" y="-609.5" font-family="Helvetica,sans-Serif" font-size="10.00">anch::json::GenericMapper</text>
<text xml:space="preserve" text-anchor="start" x="52.75" y="-597.5" font-family="Helvetica,sans-Serif" font-size="10.00">&lt; M, T &gt;</text>
<text xml:space="preserve" text-anchor="start" x="70" y="-581.5" font-family="Helvetica,sans-Serif" font-size="10.00"> </text>
<text xml:space="preserve" text-anchor="start" x="20.25" y="-565.5" font-family="Helvetica,sans-Serif" font-size="10.00">+</text>
<text xml:space="preserve" text-anchor="start" x="37.5" y="-565.5" font-family="Helvetica,sans-Serif" font-size="10.00">GenericMapper()</text>
<text xml:space="preserve" text-anchor="start" x="20.25" y="-549.5" font-family="Helvetica,sans-Serif" font-size="10.00">+</text>
<text xml:space="preserve" text-anchor="start" x="37.5" y="-549.5" font-family="Helvetica,sans-Serif" font-size="10.00">GenericMapper()</text>
<text xml:space="preserve" text-anchor="start" x="20.25" y="-533.5" font-family="Helvetica,sans-Serif" font-size="10.00">+</text>
<text xml:space="preserve" text-anchor="start" x="37.5" y="-533.5" font-family="Helvetica,sans-Serif" font-size="10.00">deserialize()</text>
<text xml:space="preserve" text-anchor="start" x="20.25" y="-517.5" font-family="Helvetica,sans-Serif" font-size="10.00">+</text>
<text xml:space="preserve" text-anchor="start" x="37.5" y="-517.5" font-family="Helvetica,sans-Serif" font-size="10.00">deserialize()</text>
<text xml:space="preserve" text-anchor="start" x="20.25" y="-501.5" font-family="Helvetica,sans-Serif" font-size="10.00">+</text>
<text xml:space="preserve" text-anchor="start" x="37.5" y="-501.5" font-family="Helvetica,sans-Serif" font-size="10.00">deserialize()</text>
<text xml:space="preserve" text-anchor="start" x="20.25" y="-485.5" font-family="Helvetica,sans-Serif" font-size="10.00">+</text>
<text xml:space="preserve" text-anchor="start" x="37.5" y="-485.5" font-family="Helvetica,sans-Serif" font-size="10.00">deserialize()</text>
<text xml:space="preserve" text-anchor="start" x="20.25" y="-469.5" font-family="Helvetica,sans-Serif" font-size="10.00">+</text>
<text xml:space="preserve" text-anchor="start" x="37.5" y="-469.5" font-family="Helvetica,sans-Serif" font-size="10.00">deserialize()</text>
<text xml:space="preserve" text-anchor="start" x="20.25" y="-453.5" font-family="Helvetica,sans-Serif" font-size="10.00">+</text>
<text xml:space="preserve" text-anchor="start" x="37.5" y="-453.5" font-family="Helvetica,sans-Serif" font-size="10.00">deserialize()</text>
<text xml:space="preserve" text-anchor="start" x="20.62" y="-437.5" font-family="Helvetica,sans-Serif" font-size="10.00">#</text>
<text xml:space="preserve" text-anchor="start" x="37.5" y="-437.5" font-family="Helvetica,sans-Serif" font-size="10.00">GenericMapper()</text>
<text xml:space="preserve" text-anchor="start" x="20.62" y="-421.5" font-family="Helvetica,sans-Serif" font-size="10.00">#</text>
<text xml:space="preserve" text-anchor="start" x="37.5" y="-421.5" font-family="Helvetica,sans-Serif" font-size="10.00">~GenericMapper()</text>
<polygon fill="#666666" stroke="#666666" points="9,-593 9,-593 134,-593 134,-593 9,-593"/>
<polygon fill="#666666" stroke="#666666" points="9,-577 9,-577 134,-577 134,-577 9,-577"/>
<polygon fill="none" stroke="#666666" points="9,-415 9,-623 134,-623 134,-415 9,-415"/>
</a>
</g>
</g>
<!-- Node3&#45;&gt;Node2 -->
<g id="edge2_Node000002_Node000003" class="edge">
<title>Node3&#45;&gt;Node2</title>
<g id="a_edge2_Node000002_Node000003"><a xlink:title=" ">
<path fill="none" stroke="orange" d="M71.5,-403.83C71.5,-382.95 71.5,-362.27 71.5,-344.8"/>
<polygon fill="orange" stroke="orange" points="68,-403.57 71.5,-413.57 75,-403.57 68,-403.57"/>
</a>
</g>
<text xml:space="preserve" text-anchor="start" x="74.5" y="-384.5" font-family="Helvetica,sans-Serif" font-size="10.00" fill="grey">&lt; ObjectMapper&lt; T &gt;</text>
<text xml:space="preserve" text-anchor="start" x="74.5" y="-368.5" font-family="Helvetica,sans-Serif" font-size="10.00" fill="grey">  , T &gt;</text>
</g>
</g>
</svg>
