<?xml version="1.0" encoding="UTF-8" standalone="no"?>
<!DOCTYPE svg PUBLIC "-//W3C//DTD SVG 1.1//EN"
 "http://www.w3.org/Graphics/SVG/1.1/DTD/svg11.dtd">
<!-- Generated by graphviz version 10.0.1 (0)
 -->
<!-- Title: anch::rest::ClientIface Pages: 1 -->
<svg width="126pt" height="516pt"
 viewBox="0.00 0.00 126.00 516.00" xmlns="http://www.w3.org/2000/svg" xmlns:xlink="http://www.w3.org/1999/xlink">
<g id="graph0" class="graph" transform="scale(1 1) rotate(0) translate(4 512)">
<title>anch::rest::ClientIface</title>
<!-- Node1 -->
<g id="Node000001" class="node">
<title>Node1</title>
<g id="a_Node000001"><a xlink:title="HTTP client interface.">
<polygon fill="#999999" stroke="none" points="117,-508 1,-508 1,-248 117,-248 117,-508"/>
<text text-anchor="start" x="5.75" y="-494.5" font-family="Helvetica,sans-Serif" font-size="10.00">anch::rest::ClientIface</text>
<text text-anchor="start" x="57.5" y="-478.5" font-family="Helvetica,sans-Serif" font-size="10.00"> </text>
<text text-anchor="start" x="14.88" y="-462.5" font-family="Helvetica,sans-Serif" font-size="10.00">+</text>
<text text-anchor="start" x="37" y="-462.5" font-family="Helvetica,sans-Serif" font-size="10.00">GET()</text>
<text text-anchor="start" x="14.88" y="-446.5" font-family="Helvetica,sans-Serif" font-size="10.00">+</text>
<text text-anchor="start" x="37" y="-446.5" font-family="Helvetica,sans-Serif" font-size="10.00">GET()</text>
<text text-anchor="start" x="14.88" y="-430.5" font-family="Helvetica,sans-Serif" font-size="10.00">+</text>
<text text-anchor="start" x="37" y="-430.5" font-family="Helvetica,sans-Serif" font-size="10.00">POST()</text>
<text text-anchor="start" x="14.88" y="-414.5" font-family="Helvetica,sans-Serif" font-size="10.00">+</text>
<text text-anchor="start" x="37" y="-414.5" font-family="Helvetica,sans-Serif" font-size="10.00">PUT()</text>
<text text-anchor="start" x="14.88" y="-398.5" font-family="Helvetica,sans-Serif" font-size="10.00">+</text>
<text text-anchor="start" x="37" y="-398.5" font-family="Helvetica,sans-Serif" font-size="10.00">PATCH()</text>
<text text-anchor="start" x="14.88" y="-382.5" font-family="Helvetica,sans-Serif" font-size="10.00">+</text>
<text text-anchor="start" x="37" y="-382.5" font-family="Helvetica,sans-Serif" font-size="10.00">DELETE()</text>
<text text-anchor="start" x="14.88" y="-366.5" font-family="Helvetica,sans-Serif" font-size="10.00">+</text>
<text text-anchor="start" x="37" y="-366.5" font-family="Helvetica,sans-Serif" font-size="10.00">DELETE()</text>
<text text-anchor="start" x="14.88" y="-350.5" font-family="Helvetica,sans-Serif" font-size="10.00">+</text>
<text text-anchor="start" x="37" y="-350.5" font-family="Helvetica,sans-Serif" font-size="10.00">HEAD()</text>
<text text-anchor="start" x="14.88" y="-334.5" font-family="Helvetica,sans-Serif" font-size="10.00">+</text>
<text text-anchor="start" x="37" y="-334.5" font-family="Helvetica,sans-Serif" font-size="10.00">HEAD()</text>
<text text-anchor="start" x="14.88" y="-318.5" font-family="Helvetica,sans-Serif" font-size="10.00">+</text>
<text text-anchor="start" x="37" y="-318.5" font-family="Helvetica,sans-Serif" font-size="10.00">OPTIONS()</text>
<text text-anchor="start" x="14.88" y="-302.5" font-family="Helvetica,sans-Serif" font-size="10.00">+</text>
<text text-anchor="start" x="37" y="-302.5" font-family="Helvetica,sans-Serif" font-size="10.00">OPTIONS()</text>
<text text-anchor="start" x="14.88" y="-286.5" font-family="Helvetica,sans-Serif" font-size="10.00">+</text>
<text text-anchor="start" x="37" y="-286.5" font-family="Helvetica,sans-Serif" font-size="10.00">CONNECT()</text>
<text text-anchor="start" x="14.88" y="-270.5" font-family="Helvetica,sans-Serif" font-size="10.00">+</text>
<text text-anchor="start" x="37" y="-270.5" font-family="Helvetica,sans-Serif" font-size="10.00">CONNECT()</text>
<text text-anchor="start" x="14.88" y="-254.5" font-family="Helvetica,sans-Serif" font-size="10.00">+</text>
<text text-anchor="start" x="37" y="-254.5" font-family="Helvetica,sans-Serif" font-size="10.00">TRACE()</text>
<polygon fill="#666666" stroke="#666666" points="1,-490 1,-490 117,-490 117,-490 1,-490"/>
<polygon fill="#666666" stroke="#666666" points="1,-474 1,-474 117,-474 117,-474 1,-474"/>
<polygon fill="none" stroke="#666666" points="1,-248 1,-508 117,-508 117,-248 1,-248"/>
</a>
</g>
</g>
<!-- Node2 -->
<g id="Node000002" class="node">
<title>Node2</title>
<g id="a_Node000002"><a xlink:href="classanch_1_1rest_1_1_c_u_r_l_client.html" target="_top" xlink:title="cURL HTTP client implementation">
<polygon fill="white" stroke="none" points="118,-212 0,-212 0,0 118,0 118,-212"/>
<text text-anchor="start" x="4.62" y="-198.5" font-family="Helvetica,sans-Serif" font-size="10.00">anch::rest::CURLClient</text>
<text text-anchor="start" x="57.5" y="-182.5" font-family="Helvetica,sans-Serif" font-size="10.00"> </text>
<text text-anchor="start" x="10.88" y="-166.5" font-family="Helvetica,sans-Serif" font-size="10.00">+</text>
<text text-anchor="start" x="30" y="-166.5" font-family="Helvetica,sans-Serif" font-size="10.00">CURLClient()</text>
<text text-anchor="start" x="10.88" y="-150.5" font-family="Helvetica,sans-Serif" font-size="10.00">+</text>
<text text-anchor="start" x="30" y="-150.5" font-family="Helvetica,sans-Serif" font-size="10.00">~CURLClient()</text>
<text text-anchor="start" x="10.88" y="-134.5" font-family="Helvetica,sans-Serif" font-size="10.00">+</text>
<text text-anchor="start" x="30" y="-134.5" font-family="Helvetica,sans-Serif" font-size="10.00">GET()</text>
<text text-anchor="start" x="10.88" y="-118.5" font-family="Helvetica,sans-Serif" font-size="10.00">+</text>
<text text-anchor="start" x="30" y="-118.5" font-family="Helvetica,sans-Serif" font-size="10.00">GET()</text>
<text text-anchor="start" x="10.88" y="-102.5" font-family="Helvetica,sans-Serif" font-size="10.00">+</text>
<text text-anchor="start" x="30" y="-102.5" font-family="Helvetica,sans-Serif" font-size="10.00">POST()</text>
<text text-anchor="start" x="10.88" y="-86.5" font-family="Helvetica,sans-Serif" font-size="10.00">+</text>
<text text-anchor="start" x="30" y="-86.5" font-family="Helvetica,sans-Serif" font-size="10.00">PUT()</text>
<text text-anchor="start" x="10.88" y="-70.5" font-family="Helvetica,sans-Serif" font-size="10.00">+</text>
<text text-anchor="start" x="30" y="-70.5" font-family="Helvetica,sans-Serif" font-size="10.00">PATCH()</text>
<text text-anchor="start" x="10.88" y="-54.5" font-family="Helvetica,sans-Serif" font-size="10.00">+</text>
<text text-anchor="start" x="30" y="-54.5" font-family="Helvetica,sans-Serif" font-size="10.00">DELETE()</text>
<text text-anchor="start" x="10.88" y="-38.5" font-family="Helvetica,sans-Serif" font-size="10.00">+</text>
<text text-anchor="start" x="30" y="-38.5" font-family="Helvetica,sans-Serif" font-size="10.00">DELETE()</text>
<text text-anchor="start" x="10.88" y="-22.5" font-family="Helvetica,sans-Serif" font-size="10.00">+</text>
<text text-anchor="start" x="30" y="-22.5" font-family="Helvetica,sans-Serif" font-size="10.00">HEAD()</text>
<text text-anchor="start" x="30" y="-6.5" font-family="Helvetica,sans-Serif" font-size="10.00">and 6 more...</text>
<polygon fill="#666666" stroke="#666666" points="0,-194 0,-194 118,-194 118,-194 0,-194"/>
<polygon fill="#666666" stroke="#666666" points="0,-178 0,-178 118,-178 118,-178 0,-178"/>
<polygon fill="none" stroke="#666666" points="0,0 0,-212 118,-212 118,0 0,0"/>
</a>
</g>
</g>
<!-- Node1&#45;&gt;Node2 -->
<g id="edge1_Node000001_Node000002" class="edge">
<title>Node1&#45;&gt;Node2</title>
<g id="a_edge1_Node000001_Node000002"><a xlink:title=" ">
<path fill="none" stroke="#63b8ff" d="M59,-236.86C59,-228.45 59,-220.07 59,-211.85"/>
<polygon fill="none" stroke="#63b8ff" points="55.5,-236.81 59,-246.81 62.5,-236.81 55.5,-236.81"/>
</a>
</g>
</g>
</g>
</svg>
