<?xml version="1.0" encoding="UTF-8" standalone="no"?>
<!DOCTYPE svg PUBLIC "-//W3C//DTD SVG 1.1//EN"
 "http://www.w3.org/Graphics/SVG/1.1/DTD/svg11.dtd">
<!-- Generated by graphviz version 12.1.2 (0)
 -->
<!-- Title: anch::events::EventHandler&lt; T, Derived &gt; Pages: 1 -->
<svg width="143pt" height="208pt"
 viewBox="0.00 0.00 143.00 208.00" xmlns="http://www.w3.org/2000/svg" xmlns:xlink="http://www.w3.org/1999/xlink">
<g id="graph0" class="graph" transform="scale(1 1) rotate(0) translate(4 204)">
<title>anch::events::EventHandler&lt; T, Derived &gt;</title>
<!-- Node1 -->
<g id="Node000001" class="node">
<title>Node1</title>
<g id="a_Node000001"><a xlink:title="An event handler.">
<polygon fill="#999999" stroke="none" points="133,-112 2,-112 2,0 133,0 133,-112"/>
<text text-anchor="start" x="6.75" y="-98.5" font-family="Helvetica,sans-Serif" font-size="10.00">anch::events::EventHandler</text>
<text text-anchor="start" x="36.38" y="-86.5" font-family="Helvetica,sans-Serif" font-size="10.00">&lt; T, Derived &gt;</text>
<text text-anchor="start" x="66" y="-70.5" font-family="Helvetica,sans-Serif" font-size="10.00"> </text>
<text text-anchor="start" x="16.5" y="-54.5" font-family="Helvetica,sans-Serif" font-size="10.00">+</text>
<text text-anchor="start" x="37" y="-54.5" font-family="Helvetica,sans-Serif" font-size="10.00">EventHandler()</text>
<text text-anchor="start" x="16.5" y="-38.5" font-family="Helvetica,sans-Serif" font-size="10.00">+</text>
<text text-anchor="start" x="37" y="-38.5" font-family="Helvetica,sans-Serif" font-size="10.00">EventHandler()</text>
<text text-anchor="start" x="16.5" y="-22.5" font-family="Helvetica,sans-Serif" font-size="10.00">+</text>
<text text-anchor="start" x="37" y="-22.5" font-family="Helvetica,sans-Serif" font-size="10.00">~EventHandler()</text>
<text text-anchor="start" x="16.5" y="-6.5" font-family="Helvetica,sans-Serif" font-size="10.00">+</text>
<text text-anchor="start" x="37" y="-6.5" font-family="Helvetica,sans-Serif" font-size="10.00">handle()</text>
<polygon fill="#666666" stroke="#666666" points="2,-82 2,-82 133,-82 133,-82 2,-82"/>
<polygon fill="#666666" stroke="#666666" points="2,-66 2,-66 133,-66 133,-66 2,-66"/>
<polygon fill="none" stroke="#666666" points="2,0 2,-112 133,-112 133,0 2,0"/>
</a>
</g>
</g>
<!-- Node2 -->
<g id="Node000002" class="node">
<title>Node2</title>
<g id="a_Node000002"><a xlink:href="classanch_1_1events_1_1_observer.html" target="_top" xlink:title="An observer interface of the observers/observable design pattern.">
<polygon fill="white" stroke="none" points="135,-200 0,-200 0,-148 135,-148 135,-200"/>
<text text-anchor="start" x="4.88" y="-186.5" font-family="Helvetica,sans-Serif" font-size="10.00">anch::events::Observer&lt; T &gt;</text>
<text text-anchor="start" x="66" y="-170.5" font-family="Helvetica,sans-Serif" font-size="10.00"> </text>
<text text-anchor="start" x="24.5" y="-154.5" font-family="Helvetica,sans-Serif" font-size="10.00">+</text>
<text text-anchor="start" x="55" y="-154.5" font-family="Helvetica,sans-Serif" font-size="10.00">handle()</text>
<polygon fill="#666666" stroke="#666666" points="0,-182 0,-182 135,-182 135,-182 0,-182"/>
<polygon fill="#666666" stroke="#666666" points="0,-166 0,-166 135,-166 135,-166 0,-166"/>
<polygon fill="none" stroke="#666666" points="0,-148 0,-200 135,-200 135,-148 0,-148"/>
</a>
</g>
</g>
<!-- Node2&#45;&gt;Node1 -->
<g id="edge1_Node000001_Node000002" class="edge">
<title>Node2&#45;&gt;Node1</title>
<g id="a_edge1_Node000001_Node000002"><a xlink:title=" ">
<path fill="none" stroke="#63b8ff" d="M67.5,-136.71C67.5,-128.82 67.5,-120.31 67.5,-111.88"/>
<polygon fill="none" stroke="#63b8ff" points="64,-136.6 67.5,-146.6 71,-136.6 64,-136.6"/>
</a>
</g>
</g>
</g>
</svg>
