<?xml version="1.0" encoding="UTF-8" standalone="no"?>
<!DOCTYPE svg PUBLIC "-//W3C//DTD SVG 1.1//EN"
 "http://www.w3.org/Graphics/SVG/1.1/DTD/svg11.dtd">
<!-- Generated by graphviz version 2.40.1 (20161225.0304)
 -->
<!-- Title: anch::sql::ResultSet Pages: 1 -->
<svg width="740pt" height="325pt"
 viewBox="0.00 0.00 740.00 325.00" xmlns="http://www.w3.org/2000/svg" xmlns:xlink="http://www.w3.org/1999/xlink">
<g id="graph0" class="graph" transform="scale(1 1) rotate(0) translate(4 321)">
<title>anch::sql::ResultSet</title>
<!-- Node0 -->
<g id="node1" class="node">
<title>Node0</title>
<polygon fill="#bfbfbf" stroke="#000000" points="338.5,-138.5 338.5,-316.5 450.5,-316.5 450.5,-138.5 338.5,-138.5"/>
<text text-anchor="middle" x="394.5" y="-304.5" font-family="Helvetica,sans-Serif" font-size="10.00" fill="#000000">anch::sql::ResultSet</text>
<polyline fill="none" stroke="#000000" points="338.5,-297.5 450.5,-297.5 "/>
<text text-anchor="start" x="346.5" y="-285.5" font-family="Helvetica,sans-Serif" font-size="10.00" fill="#000000"># _fields</text>
<polyline fill="none" stroke="#000000" points="338.5,-278.5 450.5,-278.5 "/>
<text text-anchor="start" x="346.5" y="-266.5" font-family="Helvetica,sans-Serif" font-size="10.00" fill="#000000">+ ResultSet()</text>
<text text-anchor="start" x="346.5" y="-255.5" font-family="Helvetica,sans-Serif" font-size="10.00" fill="#000000">+ ~ResultSet()</text>
<text text-anchor="start" x="346.5" y="-244.5" font-family="Helvetica,sans-Serif" font-size="10.00" fill="#000000">+ get()</text>
<text text-anchor="start" x="346.5" y="-233.5" font-family="Helvetica,sans-Serif" font-size="10.00" fill="#000000">+ get()</text>
<text text-anchor="start" x="346.5" y="-222.5" font-family="Helvetica,sans-Serif" font-size="10.00" fill="#000000">+ get()</text>
<text text-anchor="start" x="346.5" y="-211.5" font-family="Helvetica,sans-Serif" font-size="10.00" fill="#000000">+ get()</text>
<text text-anchor="start" x="346.5" y="-200.5" font-family="Helvetica,sans-Serif" font-size="10.00" fill="#000000">+ next()</text>
<text text-anchor="start" x="346.5" y="-189.5" font-family="Helvetica,sans-Serif" font-size="10.00" fill="#000000">+ get()</text>
<text text-anchor="start" x="346.5" y="-178.5" font-family="Helvetica,sans-Serif" font-size="10.00" fill="#000000">+ get()</text>
<text text-anchor="start" x="346.5" y="-167.5" font-family="Helvetica,sans-Serif" font-size="10.00" fill="#000000">+ get()</text>
<text text-anchor="start" x="346.5" y="-156.5" font-family="Helvetica,sans-Serif" font-size="10.00" fill="#000000">and 9 more...</text>
<text text-anchor="start" x="346.5" y="-145.5" font-family="Helvetica,sans-Serif" font-size="10.00" fill="#000000"># getValue()</text>
</g>
<!-- Node1 -->
<g id="node2" class="node">
<title>Node1</title>
<g id="a_node2"><a xlink:href="classanch_1_1sql_1_1_my_s_q_l_prepared_statement_result_set.html" target="_top" xlink:title="MySQL result set implementation for prepared statement ... shitty API. ">
<polygon fill="none" stroke="#000000" points="0,-.5 0,-101.5 217,-101.5 217,-.5 0,-.5"/>
<text text-anchor="start" x="8" y="-89.5" font-family="Helvetica,sans-Serif" font-size="10.00" fill="#000000">anch::sql::MySQLPrepared</text>
<text text-anchor="middle" x="108.5" y="-78.5" font-family="Helvetica,sans-Serif" font-size="10.00" fill="#000000">StatementResultSet</text>
<polyline fill="none" stroke="#000000" points="0,-71.5 217,-71.5 "/>
<text text-anchor="middle" x="108.5" y="-59.5" font-family="Helvetica,sans-Serif" font-size="10.00" fill="#000000"> </text>
<polyline fill="none" stroke="#000000" points="0,-52.5 217,-52.5 "/>
<text text-anchor="start" x="8" y="-40.5" font-family="Helvetica,sans-Serif" font-size="10.00" fill="#000000">+ MySQLPreparedStatementResultSet()</text>
<text text-anchor="start" x="8" y="-29.5" font-family="Helvetica,sans-Serif" font-size="10.00" fill="#000000">+ ~MySQLPreparedStatementResultSet()</text>
<text text-anchor="start" x="8" y="-18.5" font-family="Helvetica,sans-Serif" font-size="10.00" fill="#000000">+ next()</text>
<text text-anchor="start" x="8" y="-7.5" font-family="Helvetica,sans-Serif" font-size="10.00" fill="#000000"># getValue()</text>
</a>
</g>
</g>
<!-- Node0&#45;&gt;Node1 -->
<g id="edge1" class="edge">
<title>Node0&#45;&gt;Node1</title>
<path fill="none" stroke="#191970" d="M329.7369,-187.5326C288.5062,-162.0877 234.7391,-128.9063 190.5347,-101.6263"/>
<polygon fill="none" stroke="#191970" points="327.9888,-190.5665 338.3368,-192.8399 331.665,-184.6096 327.9888,-190.5665"/>
</g>
<!-- Node2 -->
<g id="node3" class="node">
<title>Node2</title>
<g id="a_node3"><a xlink:href="classanch_1_1sql_1_1_my_s_q_l_result_set.html" target="_top" xlink:title="MySQL result set implementation. ">
<polygon fill="none" stroke="#000000" points="235,-6 235,-96 380,-96 380,-6 235,-6"/>
<text text-anchor="middle" x="307.5" y="-84" font-family="Helvetica,sans-Serif" font-size="10.00" fill="#000000">anch::sql::MySQLResultSet</text>
<polyline fill="none" stroke="#000000" points="235,-77 380,-77 "/>
<text text-anchor="middle" x="307.5" y="-65" font-family="Helvetica,sans-Serif" font-size="10.00" fill="#000000"> </text>
<polyline fill="none" stroke="#000000" points="235,-58 380,-58 "/>
<text text-anchor="start" x="243" y="-46" font-family="Helvetica,sans-Serif" font-size="10.00" fill="#000000">+ MySQLResultSet()</text>
<text text-anchor="start" x="243" y="-35" font-family="Helvetica,sans-Serif" font-size="10.00" fill="#000000">+ ~MySQLResultSet()</text>
<text text-anchor="start" x="243" y="-24" font-family="Helvetica,sans-Serif" font-size="10.00" fill="#000000">+ next()</text>
<text text-anchor="start" x="243" y="-13" font-family="Helvetica,sans-Serif" font-size="10.00" fill="#000000"># getValue()</text>
</a>
</g>
</g>
<!-- Node0&#45;&gt;Node2 -->
<g id="edge2" class="edge">
<title>Node0&#45;&gt;Node2</title>
<path fill="none" stroke="#191970" d="M346.0838,-129.2764C340.4512,-117.8492 334.9298,-106.6479 329.9042,-96.4522"/>
<polygon fill="none" stroke="#191970" points="343.057,-131.0523 350.6177,-138.4744 349.3357,-127.9574 343.057,-131.0523"/>
</g>
<!-- Node3 -->
<g id="node4" class="node">
<title>Node3</title>
<g id="a_node4"><a xlink:href="classanch_1_1sql_1_1_postgre_s_q_l_result_set.html" target="_top" xlink:title="PostgreSQL result set implementation. ">
<polygon fill="none" stroke="#000000" points="398,-6 398,-96 565,-96 565,-6 398,-6"/>
<text text-anchor="middle" x="481.5" y="-84" font-family="Helvetica,sans-Serif" font-size="10.00" fill="#000000">anch::sql::PostgreSQLResultSet</text>
<polyline fill="none" stroke="#000000" points="398,-77 565,-77 "/>
<text text-anchor="middle" x="481.5" y="-65" font-family="Helvetica,sans-Serif" font-size="10.00" fill="#000000"> </text>
<polyline fill="none" stroke="#000000" points="398,-58 565,-58 "/>
<text text-anchor="start" x="406" y="-46" font-family="Helvetica,sans-Serif" font-size="10.00" fill="#000000">+ PostgreSQLResultSet()</text>
<text text-anchor="start" x="406" y="-35" font-family="Helvetica,sans-Serif" font-size="10.00" fill="#000000">+ ~PostgreSQLResultSet()</text>
<text text-anchor="start" x="406" y="-24" font-family="Helvetica,sans-Serif" font-size="10.00" fill="#000000">+ next()</text>
<text text-anchor="start" x="406" y="-13" font-family="Helvetica,sans-Serif" font-size="10.00" fill="#000000"># getValue()</text>
</a>
</g>
</g>
<!-- Node0&#45;&gt;Node3 -->
<g id="edge3" class="edge">
<title>Node0&#45;&gt;Node3</title>
<path fill="none" stroke="#191970" d="M442.9162,-129.2764C448.5488,-117.8492 454.0702,-106.6479 459.0958,-96.4522"/>
<polygon fill="none" stroke="#191970" points="439.6643,-127.9574 438.3823,-138.4744 445.943,-131.0523 439.6643,-127.9574"/>
</g>
<!-- Node4 -->
<g id="node5" class="node">
<title>Node4</title>
<g id="a_node5"><a xlink:href="classanch_1_1sql_1_1_s_q_lite3_result_set.html" target="_top" xlink:title="SQLite3 result set implementation. ">
<polygon fill="none" stroke="#000000" points="583,-6 583,-96 732,-96 732,-6 583,-6"/>
<text text-anchor="middle" x="657.5" y="-84" font-family="Helvetica,sans-Serif" font-size="10.00" fill="#000000">anch::sql::SQLite3ResultSet</text>
<polyline fill="none" stroke="#000000" points="583,-77 732,-77 "/>
<text text-anchor="middle" x="657.5" y="-65" font-family="Helvetica,sans-Serif" font-size="10.00" fill="#000000"> </text>
<polyline fill="none" stroke="#000000" points="583,-58 732,-58 "/>
<text text-anchor="start" x="591" y="-46" font-family="Helvetica,sans-Serif" font-size="10.00" fill="#000000">+ SQLite3ResultSet()</text>
<text text-anchor="start" x="591" y="-35" font-family="Helvetica,sans-Serif" font-size="10.00" fill="#000000">+ ~SQLite3ResultSet()</text>
<text text-anchor="start" x="591" y="-24" font-family="Helvetica,sans-Serif" font-size="10.00" fill="#000000">+ next()</text>
<text text-anchor="start" x="591" y="-13" font-family="Helvetica,sans-Serif" font-size="10.00" fill="#000000"># getValue()</text>
</a>
</g>
</g>
<!-- Node0&#45;&gt;Node4 -->
<g id="edge4" class="edge">
<title>Node0&#45;&gt;Node4</title>
<path fill="none" stroke="#191970" d="M458.9286,-184.2618C498.8065,-157.4996 549.9223,-123.1957 590.305,-96.0947"/>
<polygon fill="none" stroke="#191970" points="456.9506,-181.3741 450.5975,-189.8528 460.8514,-187.1865 456.9506,-181.3741"/>
</g>
</g>
</svg>
