<?xml version="1.0" encoding="UTF-8" standalone="no"?>
<!DOCTYPE svg PUBLIC "-//W3C//DTD SVG 1.1//EN"
 "http://www.w3.org/Graphics/SVG/1.1/DTD/svg11.dtd">
<!-- Generated by graphviz version 12.1.1 (0)
 -->
<!-- Title: anch::crypto::MD5 Pages: 1 -->
<svg width="220pt" height="978pt"
 viewBox="0.00 0.00 220.00 978.00" xmlns="http://www.w3.org/2000/svg" xmlns:xlink="http://www.w3.org/1999/xlink">
<g id="graph0" class="graph" transform="scale(1 1) rotate(0) translate(4 974)">
<title>anch::crypto::MD5</title>
<!-- Node1 -->
<g id="Node000001" class="node">
<title>Node1</title>
<g id="a_Node000001"><a xlink:title="MD5 hash algorithm implementation.">
<polygon fill="#999999" stroke="none" points="112,-164 14,-164 14,0 112,0 112,-164"/>
<text text-anchor="start" x="18.75" y="-150.5" font-family="Helvetica,sans-Serif" font-size="10.00">anch::crypto::MD5</text>
<text text-anchor="start" x="61.5" y="-134.5" font-family="Helvetica,sans-Serif" font-size="10.00"> </text>
<text text-anchor="start" x="25.38" y="-118.5" font-family="Helvetica,sans-Serif" font-size="10.00">+</text>
<text text-anchor="start" x="45" y="-118.5" font-family="Helvetica,sans-Serif" font-size="10.00">MD5()</text>
<text text-anchor="start" x="25.38" y="-102.5" font-family="Helvetica,sans-Serif" font-size="10.00">+</text>
<text text-anchor="start" x="45" y="-102.5" font-family="Helvetica,sans-Serif" font-size="10.00">MD5()</text>
<text text-anchor="start" x="25.38" y="-86.5" font-family="Helvetica,sans-Serif" font-size="10.00">+</text>
<text text-anchor="start" x="45" y="-86.5" font-family="Helvetica,sans-Serif" font-size="10.00">MD5()</text>
<text text-anchor="start" x="25.38" y="-70.5" font-family="Helvetica,sans-Serif" font-size="10.00">+</text>
<text text-anchor="start" x="45" y="-70.5" font-family="Helvetica,sans-Serif" font-size="10.00">~MD5()</text>
<text text-anchor="start" x="25.38" y="-54.5" font-family="Helvetica,sans-Serif" font-size="10.00">+</text>
<text text-anchor="start" x="45" y="-54.5" font-family="Helvetica,sans-Serif" font-size="10.00">digest()</text>
<text text-anchor="start" x="25.38" y="-38.5" font-family="Helvetica,sans-Serif" font-size="10.00">#</text>
<text text-anchor="start" x="45" y="-38.5" font-family="Helvetica,sans-Serif" font-size="10.00">reset()</text>
<text text-anchor="start" x="25.38" y="-22.5" font-family="Helvetica,sans-Serif" font-size="10.00">#</text>
<text text-anchor="start" x="45" y="-22.5" font-family="Helvetica,sans-Serif" font-size="10.00">addData()</text>
<text text-anchor="start" x="25.38" y="-6.5" font-family="Helvetica,sans-Serif" font-size="10.00">#</text>
<text text-anchor="start" x="45" y="-6.5" font-family="Helvetica,sans-Serif" font-size="10.00">finalize()</text>
<polygon fill="#666666" stroke="#666666" points="14,-146 14,-146 112,-146 112,-146 14,-146"/>
<polygon fill="#666666" stroke="#666666" points="14,-130 14,-130 112,-130 112,-130 14,-130"/>
<polygon fill="none" stroke="#666666" points="14,0 14,-164 112,-164 112,0 14,0"/>
</a>
</g>
</g>
<!-- Node2 -->
<g id="Node000002" class="node">
<title>Node2</title>
<g id="a_Node000002"><a xlink:href="classanch_1_1crypto_1_1_hash.html" target="_top" xlink:title=" ">
<polygon fill="white" stroke="none" points="113,-410 13,-410 13,-201 113,-201 113,-410"/>
<text text-anchor="start" x="17.62" y="-396.5" font-family="Helvetica,sans-Serif" font-size="10.00">anch::crypto::Hash</text>
<text text-anchor="start" x="36.75" y="-383.75" font-family="Helvetica,sans-Serif" font-size="10.00">&lt; 16, 64 &gt;</text>
<text text-anchor="start" x="61.5" y="-367.5" font-family="Helvetica,sans-Serif" font-size="10.00"> </text>
<text text-anchor="start" x="17.88" y="-351.5" font-family="Helvetica,sans-Serif" font-size="10.00">+</text>
<text text-anchor="start" x="31" y="-351.5" font-family="Helvetica,sans-Serif" font-size="10.00">digest()</text>
<text text-anchor="start" x="17.88" y="-335.5" font-family="Helvetica,sans-Serif" font-size="10.00">+</text>
<text text-anchor="start" x="31" y="-335.5" font-family="Helvetica,sans-Serif" font-size="10.00">digest()</text>
<text text-anchor="start" x="17.88" y="-319.5" font-family="Helvetica,sans-Serif" font-size="10.00">+</text>
<text text-anchor="start" x="31" y="-319.5" font-family="Helvetica,sans-Serif" font-size="10.00">digest()</text>
<text text-anchor="start" x="17.88" y="-303.5" font-family="Helvetica,sans-Serif" font-size="10.00">+</text>
<text text-anchor="start" x="31" y="-303.5" font-family="Helvetica,sans-Serif" font-size="10.00">digest()</text>
<text text-anchor="start" x="17.88" y="-287.5" font-family="Helvetica,sans-Serif" font-size="10.00">+</text>
<text text-anchor="start" x="31" y="-287.5" font-family="Helvetica,sans-Serif" font-size="10.00">digest()</text>
<text text-anchor="start" x="17.88" y="-271.5" font-family="Helvetica,sans-Serif" font-size="10.00">+</text>
<text text-anchor="start" x="31" y="-271.5" font-family="Helvetica,sans-Serif" font-size="10.00">getOutputSize()</text>
<text text-anchor="start" x="17.88" y="-255.5" font-family="Helvetica,sans-Serif" font-size="10.00">+</text>
<text text-anchor="start" x="31" y="-255.5" font-family="Helvetica,sans-Serif" font-size="10.00">getBlockSize()</text>
<text text-anchor="start" x="17.88" y="-239.5" font-family="Helvetica,sans-Serif" font-size="10.00">#</text>
<text text-anchor="start" x="31" y="-239.5" font-family="Helvetica,sans-Serif" font-size="10.00">reset()</text>
<text text-anchor="start" x="17.88" y="-223.5" font-family="Helvetica,sans-Serif" font-size="10.00">#</text>
<text text-anchor="start" x="31" y="-223.5" font-family="Helvetica,sans-Serif" font-size="10.00">addData()</text>
<text text-anchor="start" x="17.88" y="-207.5" font-family="Helvetica,sans-Serif" font-size="10.00">#</text>
<text text-anchor="start" x="31" y="-207.5" font-family="Helvetica,sans-Serif" font-size="10.00">finalize()</text>
<polygon fill="#666666" stroke="#666666" points="13,-379 13,-379 113,-379 113,-379 13,-379"/>
<polygon fill="#666666" stroke="#666666" points="13,-363 13,-363 113,-363 113,-363 13,-363"/>
<polygon fill="none" stroke="#666666" points="13,-201 13,-410 113,-410 113,-201 13,-201"/>
</a>
</g>
</g>
<!-- Node2&#45;&gt;Node1 -->
<g id="edge1_Node000001_Node000002" class="edge">
<title>Node2&#45;&gt;Node1</title>
<g id="a_edge1_Node000001_Node000002"><a xlink:title=" ">
<path fill="none" stroke="#63b8ff" d="M63,-189.75C63,-181.03 63,-172.35 63,-163.91"/>
<polygon fill="none" stroke="#63b8ff" points="59.5,-189.69 63,-199.69 66.5,-189.69 59.5,-189.69"/>
</a>
</g>
</g>
<!-- Node3 -->
<g id="Node000003" class="node">
<title>Node3</title>
<g id="a_Node000003"><a xlink:title=" ">
<polygon fill="white" stroke="none" points="126,-768.5 0,-768.5 0,-716.5 126,-716.5 126,-768.5"/>
<text text-anchor="start" x="4.88" y="-755" font-family="Helvetica,sans-Serif" font-size="10.00">std::array&lt; uint8_t, O &gt;</text>
<text text-anchor="start" x="18.88" y="-739" font-family="Helvetica,sans-Serif" font-size="10.00">+</text>
<text text-anchor="start" x="46" y="-739" font-family="Helvetica,sans-Serif" font-size="10.00">elements</text>
<text text-anchor="start" x="61.5" y="-723" font-family="Helvetica,sans-Serif" font-size="10.00"> </text>
<polygon fill="#666666" stroke="#666666" points="0,-750.5 0,-750.5 126,-750.5 126,-750.5 0,-750.5"/>
<polygon fill="#666666" stroke="#666666" points="0,-734.5 0,-734.5 44,-734.5 44,-734.5 0,-734.5"/>
<polygon fill="#666666" stroke="#666666" points="44,-734.5 44,-734.5 126,-734.5 126,-734.5 44,-734.5"/>
<polygon fill="none" stroke="#666666" points="0,-716.5 0,-768.5 126,-768.5 126,-716.5 0,-716.5"/>
</a>
</g>
</g>
<!-- Node3&#45;&gt;Node2 -->
<g id="edge2_Node000002_Node000003" class="edge">
<title>Node3&#45;&gt;Node2</title>
<g id="a_edge2_Node000002_Node000003"><a xlink:title=" ">
<path fill="none" stroke="#63b8ff" d="M60.26,-716.62C58.82,-702.34 57.22,-684.06 56.5,-667.75 52.9,-585.89 54.67,-493.52 57.26,-422.68"/>
<polygon fill="none" stroke="#63b8ff" points="57.26,-422.6 53.49,-416.45 57.72,-410.61 61.49,-416.75 57.26,-422.6"/>
</a>
</g>
<text text-anchor="middle" x="79.75" y="-560.12" font-family="Helvetica,sans-Serif" font-size="10.00" fill="grey"> #_digest</text>
</g>
<!-- Node6 -->
<g id="Node000006" class="node">
<title>Node6</title>
<g id="a_Node000006"><a xlink:href="classanch_1_1crypto_1_1_hash.html" target="_top" xlink:title="Hash algorithm abstract class.">
<polygon fill="white" stroke="none" points="212,-667.75 112,-667.75 112,-458.75 212,-458.75 212,-667.75"/>
<text text-anchor="start" x="116.62" y="-654.25" font-family="Helvetica,sans-Serif" font-size="10.00">anch::crypto::Hash</text>
<text text-anchor="start" x="140.62" y="-641.5" font-family="Helvetica,sans-Serif" font-size="10.00">&lt; O, B &gt;</text>
<text text-anchor="start" x="160.5" y="-625.25" font-family="Helvetica,sans-Serif" font-size="10.00"> </text>
<text text-anchor="start" x="116.88" y="-609.25" font-family="Helvetica,sans-Serif" font-size="10.00">+</text>
<text text-anchor="start" x="130" y="-609.25" font-family="Helvetica,sans-Serif" font-size="10.00">digest()</text>
<text text-anchor="start" x="116.88" y="-593.25" font-family="Helvetica,sans-Serif" font-size="10.00">+</text>
<text text-anchor="start" x="130" y="-593.25" font-family="Helvetica,sans-Serif" font-size="10.00">digest()</text>
<text text-anchor="start" x="116.88" y="-577.25" font-family="Helvetica,sans-Serif" font-size="10.00">+</text>
<text text-anchor="start" x="130" y="-577.25" font-family="Helvetica,sans-Serif" font-size="10.00">digest()</text>
<text text-anchor="start" x="116.88" y="-561.25" font-family="Helvetica,sans-Serif" font-size="10.00">+</text>
<text text-anchor="start" x="130" y="-561.25" font-family="Helvetica,sans-Serif" font-size="10.00">digest()</text>
<text text-anchor="start" x="116.88" y="-545.25" font-family="Helvetica,sans-Serif" font-size="10.00">+</text>
<text text-anchor="start" x="130" y="-545.25" font-family="Helvetica,sans-Serif" font-size="10.00">digest()</text>
<text text-anchor="start" x="116.88" y="-529.25" font-family="Helvetica,sans-Serif" font-size="10.00">+</text>
<text text-anchor="start" x="130" y="-529.25" font-family="Helvetica,sans-Serif" font-size="10.00">getOutputSize()</text>
<text text-anchor="start" x="116.88" y="-513.25" font-family="Helvetica,sans-Serif" font-size="10.00">+</text>
<text text-anchor="start" x="130" y="-513.25" font-family="Helvetica,sans-Serif" font-size="10.00">getBlockSize()</text>
<text text-anchor="start" x="116.88" y="-497.25" font-family="Helvetica,sans-Serif" font-size="10.00">#</text>
<text text-anchor="start" x="130" y="-497.25" font-family="Helvetica,sans-Serif" font-size="10.00">reset()</text>
<text text-anchor="start" x="116.88" y="-481.25" font-family="Helvetica,sans-Serif" font-size="10.00">#</text>
<text text-anchor="start" x="130" y="-481.25" font-family="Helvetica,sans-Serif" font-size="10.00">addData()</text>
<text text-anchor="start" x="116.88" y="-465.25" font-family="Helvetica,sans-Serif" font-size="10.00">#</text>
<text text-anchor="start" x="130" y="-465.25" font-family="Helvetica,sans-Serif" font-size="10.00">finalize()</text>
<polygon fill="#666666" stroke="#666666" points="112,-636.75 112,-636.75 212,-636.75 212,-636.75 112,-636.75"/>
<polygon fill="#666666" stroke="#666666" points="112,-620.75 112,-620.75 212,-620.75 212,-620.75 112,-620.75"/>
<polygon fill="none" stroke="#666666" points="112,-458.75 112,-667.75 212,-667.75 212,-458.75 112,-458.75"/>
</a>
</g>
</g>
<!-- Node3&#45;&gt;Node6 -->
<g id="edge6_Node000006_Node000003" class="edge">
<title>Node3&#45;&gt;Node6</title>
<g id="a_edge6_Node000006_Node000003"><a xlink:title=" ">
<path fill="none" stroke="#63b8ff" d="M76.77,-716.85C84.62,-702.79 95.04,-684.13 105.9,-664.7"/>
<polygon fill="none" stroke="#63b8ff" points="105.85,-664.79 105.28,-657.6 111.7,-654.31 112.26,-661.5 105.85,-664.79"/>
</a>
</g>
<text text-anchor="middle" x="115.5" y="-689" font-family="Helvetica,sans-Serif" font-size="10.00" fill="grey"> #_digest</text>
</g>
<!-- Node4 -->
<g id="Node000004" class="node">
<title>Node4</title>
<g id="a_Node000004"><a xlink:title=" ">
<polygon fill="white" stroke="none" points="105.5,-869.25 20.5,-869.25 20.5,-817.25 105.5,-817.25 105.5,-869.25"/>
<text text-anchor="start" x="25.5" y="-855.75" font-family="Helvetica,sans-Serif" font-size="10.00">std::array&lt; T &gt;</text>
<text text-anchor="start" x="61.5" y="-839.75" font-family="Helvetica,sans-Serif" font-size="10.00"> </text>
<text text-anchor="start" x="61.5" y="-823.75" font-family="Helvetica,sans-Serif" font-size="10.00"> </text>
<polygon fill="#666666" stroke="#666666" points="20.5,-851.25 20.5,-851.25 105.5,-851.25 105.5,-851.25 20.5,-851.25"/>
<polygon fill="#666666" stroke="#666666" points="20.5,-835.25 20.5,-835.25 105.5,-835.25 105.5,-835.25 20.5,-835.25"/>
<polygon fill="none" stroke="#666666" points="20.5,-817.25 20.5,-869.25 105.5,-869.25 105.5,-817.25 20.5,-817.25"/>
</a>
</g>
</g>
<!-- Node4&#45;&gt;Node3 -->
<g id="edge3_Node000003_Node000004" class="edge">
<title>Node4&#45;&gt;Node3</title>
<g id="a_edge3_Node000003_Node000004"><a xlink:title=" ">
<path fill="none" stroke="orange" d="M63,-805.86C63,-793.4 63,-779.75 63,-768.41"/>
<polygon fill="orange" stroke="orange" points="59.5,-805.82 63,-815.82 66.5,-805.82 59.5,-805.82"/>
</a>
</g>
<text text-anchor="middle" x="99.38" y="-789.75" font-family="Helvetica,sans-Serif" font-size="10.00" fill="grey"> &lt; uint8_t, O &gt;</text>
</g>
<!-- Node5 -->
<g id="Node000005" class="node">
<title>Node5</title>
<g id="a_Node000005"><a xlink:title=" ">
<polygon fill="white" stroke="none" points="71,-970 55,-970 55,-918 71,-918 71,-970"/>
<text text-anchor="start" x="60" y="-956.5" font-family="Helvetica,sans-Serif" font-size="10.00">T</text>
<text text-anchor="start" x="61.5" y="-940.5" font-family="Helvetica,sans-Serif" font-size="10.00"> </text>
<text text-anchor="start" x="61.5" y="-924.5" font-family="Helvetica,sans-Serif" font-size="10.00"> </text>
<polygon fill="#bfbfbf" stroke="#bfbfbf" points="55,-952 55,-952 71,-952 71,-952 55,-952"/>
<polygon fill="#bfbfbf" stroke="#bfbfbf" points="55,-936 55,-936 71,-936 71,-936 55,-936"/>
<polygon fill="none" stroke="#bfbfbf" points="55,-918 55,-970 71,-970 71,-918 55,-918"/>
</a>
</g>
</g>
<!-- Node5&#45;&gt;Node4 -->
<g id="edge4_Node000004_Node000005" class="edge">
<title>Node5&#45;&gt;Node4</title>
<g id="a_edge4_Node000004_Node000005"><a xlink:title=" ">
<path fill="none" stroke="#63b8ff" d="M63,-918.08C63,-907.2 63,-894.21 63,-882.18"/>
<polygon fill="none" stroke="#63b8ff" points="63,-882.06 59,-876.06 63,-870.06 67,-876.06 63,-882.06"/>
</a>
</g>
<text text-anchor="middle" x="91.5" y="-890.5" font-family="Helvetica,sans-Serif" font-size="10.00" fill="grey"> +elements</text>
</g>
<!-- Node6&#45;&gt;Node2 -->
<g id="edge5_Node000002_Node000006" class="edge">
<title>Node6&#45;&gt;Node2</title>
<g id="a_edge5_Node000002_Node000006"><a xlink:title=" ">
<path fill="none" stroke="orange" d="M117.87,-448.25C112.91,-435.43 107.88,-422.43 102.97,-409.76"/>
<polygon fill="orange" stroke="orange" points="114.6,-449.49 121.47,-457.55 121.13,-446.96 114.6,-449.49"/>
</a>
</g>
<text text-anchor="middle" x="140.25" y="-431.25" font-family="Helvetica,sans-Serif" font-size="10.00" fill="grey"> &lt; 16, 64 &gt;</text>
</g>
</g>
</svg>
