<?xml version="1.0" encoding="UTF-8" standalone="no"?>
<!DOCTYPE svg PUBLIC "-//W3C//DTD SVG 1.1//EN"
 "http://www.w3.org/Graphics/SVG/1.1/DTD/svg11.dtd">
<!-- Generated by graphviz version 13.1.2 (0)
 -->
<!-- Title: anch::rest::GlobalMapperRegistry Pages: 1 -->
<svg width="346pt" height="331pt"
 viewBox="0.00 0.00 346.00 331.00" xmlns="http://www.w3.org/2000/svg" xmlns:xlink="http://www.w3.org/1999/xlink">

<svg id="main" version="1.1" xmlns="http://www.w3.org/2000/svg" xmlns:xlink="http://www.w3.org/1999/xlink" xml:space="preserve">

<style type="text/css"><![CDATA[
.node, .edge {opacity: 0.7;}
.node.selected, .edge.selected {opacity: 1;}
.edge:hover path { stroke: red; }
.edge:hover polygon { stroke: red; fill: red; }
]]></style>
<script type="application/ecmascript" xlink:href="svg.min.js"/>
<svg id="graph" class="graph">
<g id="graph0" class="graph" transform="scale(1 1) rotate(0) translate(4 327)">
<title>anch::rest::GlobalMapperRegistry</title>
<!-- Node1 -->
<g id="Node000001" class="node">
<title>Node1</title>
<g id="a_Node000001"><a xlink:title=" ">
<polygon fill="#999999" stroke="none" points="134,-64 16.5,-64 16.5,0 134,0 134,-64"/>
<text xml:space="preserve" text-anchor="start" x="20.5" y="-50.5" font-family="Helvetica,sans-Serif" font-size="10.00">anch::rest::GlobalMapper</text>
<text xml:space="preserve" text-anchor="start" x="56.88" y="-38.5" font-family="Helvetica,sans-Serif" font-size="10.00">Registry</text>
<text xml:space="preserve" text-anchor="start" x="73.75" y="-22.5" font-family="Helvetica,sans-Serif" font-size="10.00"> </text>
<text xml:space="preserve" text-anchor="start" x="73.75" y="-6.5" font-family="Helvetica,sans-Serif" font-size="10.00"> </text>
<polygon fill="#666666" stroke="#666666" points="16.5,-34 16.5,-34 134,-34 134,-34 16.5,-34"/>
<polygon fill="#666666" stroke="#666666" points="16.5,-18 16.5,-18 134,-18 134,-18 16.5,-18"/>
<polygon fill="none" stroke="#666666" points="16.5,0 16.5,-64 134,-64 134,0 16.5,0"/>
</a>
</g>
</g>
<!-- Node2 -->
<g id="Node000002" class="node">
<title>Node2</title>
<g id="a_Node000002"><a xlink:href="classanch_1_1rest_1_1_mapper_registry.html" target="_top" xlink:title=" ">
<polygon fill="white" stroke="none" points="126.5,-217 0,-217 0,-101 126.5,-101 126.5,-217"/>
<text xml:space="preserve" text-anchor="start" x="4" y="-203.5" font-family="Helvetica,sans-Serif" font-size="10.00">anch::rest::MapperRegistry</text>
<text xml:space="preserve" text-anchor="start" x="61.75" y="-187.5" font-family="Helvetica,sans-Serif" font-size="10.00"> </text>
<text xml:space="preserve" text-anchor="start" x="10.88" y="-171.5" font-family="Helvetica,sans-Serif" font-size="10.00">+</text>
<text xml:space="preserve" text-anchor="start" x="27.75" y="-171.5" font-family="Helvetica,sans-Serif" font-size="10.00">MapperRegistry()</text>
<text xml:space="preserve" text-anchor="start" x="10.88" y="-155.5" font-family="Helvetica,sans-Serif" font-size="10.00">+</text>
<text xml:space="preserve" text-anchor="start" x="27.75" y="-155.5" font-family="Helvetica,sans-Serif" font-size="10.00">~MapperRegistry()</text>
<text xml:space="preserve" text-anchor="start" x="10.88" y="-139.5" font-family="Helvetica,sans-Serif" font-size="10.00">+</text>
<text xml:space="preserve" text-anchor="start" x="27.75" y="-139.5" font-family="Helvetica,sans-Serif" font-size="10.00">registerMapper()</text>
<text xml:space="preserve" text-anchor="start" x="10.88" y="-123.5" font-family="Helvetica,sans-Serif" font-size="10.00">+</text>
<text xml:space="preserve" text-anchor="start" x="27.75" y="-123.5" font-family="Helvetica,sans-Serif" font-size="10.00">serialize()</text>
<text xml:space="preserve" text-anchor="start" x="10.88" y="-107.5" font-family="Helvetica,sans-Serif" font-size="10.00">+</text>
<text xml:space="preserve" text-anchor="start" x="27.75" y="-107.5" font-family="Helvetica,sans-Serif" font-size="10.00">deserialize()</text>
<polygon fill="#666666" stroke="#666666" points="0,-199 0,-199 126.5,-199 126.5,-199 0,-199"/>
<polygon fill="#666666" stroke="#666666" points="0,-183 0,-183 126.5,-183 126.5,-183 0,-183"/>
<polygon fill="none" stroke="#666666" points="0,-101 0,-217 126.5,-217 126.5,-101 0,-101"/>
</a>
</g>
</g>
<!-- Node2&#45;&gt;Node1 -->
<g id="edge1_Node000001_Node000002" class="edge">
<title>Node2&#45;&gt;Node1</title>
<g id="a_edge1_Node000001_Node000002"><a xlink:title=" ">
<path fill="none" stroke="#63b8ff" d="M69.77,-90.12C70.65,-80.93 71.52,-71.89 72.29,-63.82"/>
<polygon fill="none" stroke="#63b8ff" points="66.3,-89.56 68.83,-99.85 73.27,-90.23 66.3,-89.56"/>
</a>
</g>
</g>
<!-- Node3 -->
<g id="Node000003" class="node">
<title>Node3</title>
<g id="a_Node000003"><a xlink:href="classanch_1_1_singleton.html" target="_top" xlink:title=" ">
<polygon fill="white" stroke="none" points="289.5,-191 145,-191 145,-127 289.5,-127 289.5,-191"/>
<text xml:space="preserve" text-anchor="start" x="149" y="-177.5" font-family="Helvetica,sans-Serif" font-size="10.00">anch::Singleton&lt; GlobalMapper</text>
<text xml:space="preserve" text-anchor="start" x="194.38" y="-165.5" font-family="Helvetica,sans-Serif" font-size="10.00">Registry &gt;</text>
<text xml:space="preserve" text-anchor="start" x="215.75" y="-149.5" font-family="Helvetica,sans-Serif" font-size="10.00"> </text>
<text xml:space="preserve" text-anchor="start" x="166.38" y="-133.5" font-family="Helvetica,sans-Serif" font-size="10.00">+</text>
<text xml:space="preserve" text-anchor="start" x="193.75" y="-133.5" font-family="Helvetica,sans-Serif" font-size="10.00">getInstance()</text>
<polygon fill="#666666" stroke="#666666" points="145,-161 145,-161 289.5,-161 289.5,-161 145,-161"/>
<polygon fill="#666666" stroke="#666666" points="145,-145 145,-145 289.5,-145 289.5,-145 145,-145"/>
<polygon fill="none" stroke="#666666" points="145,-127 145,-191 289.5,-191 289.5,-127 145,-127"/>
</a>
</g>
</g>
<!-- Node3&#45;&gt;Node1 -->
<g id="edge2_Node000001_Node000003" class="edge">
<title>Node3&#45;&gt;Node1</title>
<g id="a_edge2_Node000001_Node000003"><a xlink:title=" ">
<path fill="none" stroke="#63b8ff" d="M173.69,-119.66C153.4,-101.79 129.57,-80.82 110.44,-63.98"/>
<polygon fill="none" stroke="#63b8ff" points="171.19,-122.12 181.01,-126.1 175.82,-116.87 171.19,-122.12"/>
</a>
</g>
</g>
<!-- Node4 -->
<g id="Node000004" class="node">
<title>Node4</title>
<g id="a_Node000004"><a xlink:href="classanch_1_1_singleton.html" target="_top" xlink:title="Meyers&#39; singleton implementation.">
<polygon fill="white" stroke="none" points="266.62,-323 167.88,-323 167.88,-271 266.62,-271 266.62,-323"/>
<text xml:space="preserve" text-anchor="start" x="171.88" y="-309.5" font-family="Helvetica,sans-Serif" font-size="10.00">anch::Singleton&lt; T &gt;</text>
<text xml:space="preserve" text-anchor="start" x="215.75" y="-293.5" font-family="Helvetica,sans-Serif" font-size="10.00"> </text>
<text xml:space="preserve" text-anchor="start" x="177.81" y="-277.5" font-family="Helvetica,sans-Serif" font-size="10.00">+</text>
<text xml:space="preserve" text-anchor="start" x="193.75" y="-277.5" font-family="Helvetica,sans-Serif" font-size="10.00">getInstance()</text>
<polygon fill="#666666" stroke="#666666" points="167.88,-305 167.88,-305 266.62,-305 266.62,-305 167.88,-305"/>
<polygon fill="#666666" stroke="#666666" points="167.88,-289 167.88,-289 266.62,-289 266.62,-289 167.88,-289"/>
<polygon fill="none" stroke="#666666" points="167.88,-271 167.88,-323 266.62,-323 266.62,-271 167.88,-271"/>
</a>
</g>
</g>
<!-- Node4&#45;&gt;Node3 -->
<g id="edge3_Node000003_Node000004" class="edge">
<title>Node4&#45;&gt;Node3</title>
<g id="a_edge3_Node000003_Node000004"><a xlink:title=" ">
<path fill="none" stroke="orange" d="M217.25,-259.78C217.25,-238.33 217.25,-211.45 217.25,-190.99"/>
<polygon fill="orange" stroke="orange" points="213.75,-259.54 217.25,-269.54 220.75,-259.54 213.75,-259.54"/>
</a>
</g>
<text xml:space="preserve" text-anchor="start" x="220.25" y="-240.5" font-family="Helvetica,sans-Serif" font-size="10.00" fill="grey">&lt; GlobalMapperRegistry &gt;</text>
</g>
</g>
</svg>
</svg>

<style type='text/css'>
<![CDATA[
[data-mouse-over-selected='false'] { opacity: 0.7; }
[data-mouse-over-selected='true']  { opacity: 1.0; }
]]>
</style>
<script type="application/ecmascript"><![CDATA[
document.addEventListener('DOMContentLoaded', (event) => {
  highlightEdges();
  highlightAdjacentNodes();
});
]]></script>
</svg>
