<?xml version="1.0" encoding="UTF-8" standalone="no"?>
<!DOCTYPE svg PUBLIC "-//W3C//DTD SVG 1.1//EN"
 "http://www.w3.org/Graphics/SVG/1.1/DTD/svg11.dtd">
<!-- Generated by graphviz version 14.0.5 (0)
 -->
<!-- Title: anch::conf::ConfError Pages: 1 -->
<svg width="110pt" height="212pt"
 viewBox="0.00 0.00 110.00 212.00" xmlns="http://www.w3.org/2000/svg" xmlns:xlink="http://www.w3.org/1999/xlink">
<g id="graph0" class="graph" transform="scale(1 1) rotate(0) translate(4 208)">
<title>anch::conf::ConfError</title>
<!-- Node1 -->
<g id="Node000001" class="node">
<title>Node1</title>
<g id="a_Node000001"><a xlink:title=" ">
<polygon fill="#999999" stroke="none" points="101.75,-116 0,-116 0,0 101.75,0 101.75,-116"/>
<text xml:space="preserve" text-anchor="start" x="4" y="-102.5" font-family="Helvetica,sans-Serif" font-size="10.00">anch::conf::ConfError</text>
<text xml:space="preserve" text-anchor="start" x="49.38" y="-86.5" font-family="Helvetica,sans-Serif" font-size="10.00"> </text>
<text xml:space="preserve" text-anchor="start" x="9" y="-70.5" font-family="Helvetica,sans-Serif" font-size="10.00">+</text>
<text xml:space="preserve" text-anchor="start" x="24" y="-70.5" font-family="Helvetica,sans-Serif" font-size="10.00">ConfError()</text>
<text xml:space="preserve" text-anchor="start" x="9" y="-54.5" font-family="Helvetica,sans-Serif" font-size="10.00">+</text>
<text xml:space="preserve" text-anchor="start" x="24" y="-54.5" font-family="Helvetica,sans-Serif" font-size="10.00">ConfError()</text>
<text xml:space="preserve" text-anchor="start" x="9" y="-38.5" font-family="Helvetica,sans-Serif" font-size="10.00">+</text>
<text xml:space="preserve" text-anchor="start" x="24" y="-38.5" font-family="Helvetica,sans-Serif" font-size="10.00">~ConfError()</text>
<text xml:space="preserve" text-anchor="start" x="9" y="-22.5" font-family="Helvetica,sans-Serif" font-size="10.00">+</text>
<text xml:space="preserve" text-anchor="start" x="24" y="-22.5" font-family="Helvetica,sans-Serif" font-size="10.00">what()</text>
<text xml:space="preserve" text-anchor="start" x="9" y="-6.5" font-family="Helvetica,sans-Serif" font-size="10.00">+</text>
<text xml:space="preserve" text-anchor="start" x="24" y="-6.5" font-family="Helvetica,sans-Serif" font-size="10.00">getErrorCode()</text>
<polygon fill="#666666" stroke="#666666" points="0,-98 0,-98 101.75,-98 101.75,-98 0,-98"/>
<polygon fill="#666666" stroke="#666666" points="0,-82 0,-82 101.75,-82 101.75,-82 0,-82"/>
<polygon fill="none" stroke="#666666" points="0,0 0,-116 101.75,-116 101.75,0 0,0"/>
</a>
</g>
</g>
<!-- Node2 -->
<g id="Node000002" class="node">
<title>Node2</title>
<g id="a_Node000002"><a xlink:title=" ">
<polygon fill="white" stroke="none" points="85.62,-204 16.12,-204 16.12,-152 85.62,-152 85.62,-204"/>
<text xml:space="preserve" text-anchor="start" x="20.12" y="-190.5" font-family="Helvetica,sans-Serif" font-size="10.00">std::exception</text>
<text xml:space="preserve" text-anchor="start" x="49.38" y="-174.5" font-family="Helvetica,sans-Serif" font-size="10.00"> </text>
<text xml:space="preserve" text-anchor="start" x="49.38" y="-158.5" font-family="Helvetica,sans-Serif" font-size="10.00"> </text>
<polygon fill="#666666" stroke="#666666" points="16.12,-186 16.12,-186 85.62,-186 85.62,-186 16.12,-186"/>
<polygon fill="#666666" stroke="#666666" points="16.12,-170 16.12,-170 85.62,-170 85.62,-170 16.12,-170"/>
<polygon fill="none" stroke="#666666" points="16.12,-152 16.12,-204 85.62,-204 85.62,-152 16.12,-152"/>
</a>
</g>
</g>
<!-- Node2&#45;&gt;Node1 -->
<g id="edge1_Node000001_Node000002" class="edge">
<title>Node2&#45;&gt;Node1</title>
<g id="a_edge1_Node000001_Node000002"><a xlink:title=" ">
<path fill="none" stroke="#63b8ff" d="M50.88,-140.82C50.88,-132.89 50.88,-124.31 50.88,-115.79"/>
<polygon fill="none" stroke="#63b8ff" points="47.38,-140.75 50.88,-150.75 54.38,-140.75 47.38,-140.75"/>
</a>
</g>
</g>
</g>
</svg>
