<?xml version="1.0" encoding="UTF-8" standalone="no"?>
<!DOCTYPE svg PUBLIC "-//W3C//DTD SVG 1.1//EN"
 "http://www.w3.org/Graphics/SVG/1.1/DTD/svg11.dtd">
<!-- Generated by graphviz version 2.43.20190912.0211 (20190912.0211)
 -->
<!-- Title: anch::sql::Connection Pages: 1 -->
<svg width="397pt" height="1020pt"
 viewBox="0.00 0.00 397.00 1020.00" xmlns="http://www.w3.org/2000/svg" xmlns:xlink="http://www.w3.org/1999/xlink">
<g id="graph0" class="graph" transform="scale(1 1) rotate(0) translate(4 1016)">
<title>anch::sql::Connection</title>
<!-- Node1 -->
<g id="node1" class="node">
<title>Node1</title>
<g id="a_node1"><a xlink:title="SQL connection virtual class.">
<polygon fill="#bfbfbf" stroke="black" points="74.5,-0.5 74.5,-255.5 211.5,-255.5 211.5,-0.5 74.5,-0.5"/>
<text text-anchor="middle" x="143" y="-243.5" font-family="Helvetica,sans-Serif" font-size="10.00">anch::sql::Connection</text>
<polyline fill="none" stroke="black" points="74.5,-236.5 211.5,-236.5 "/>
<text text-anchor="start" x="82.5" y="-224.5" font-family="Helvetica,sans-Serif" font-size="10.00"># _valid</text>
<text text-anchor="start" x="82.5" y="-213.5" font-family="Helvetica,sans-Serif" font-size="10.00"># _transaction</text>
<polyline fill="none" stroke="black" points="74.5,-206.5 211.5,-206.5 "/>
<text text-anchor="start" x="82.5" y="-194.5" font-family="Helvetica,sans-Serif" font-size="10.00">+ Connection()</text>
<text text-anchor="start" x="82.5" y="-183.5" font-family="Helvetica,sans-Serif" font-size="10.00">+ Connection()</text>
<text text-anchor="start" x="82.5" y="-172.5" font-family="Helvetica,sans-Serif" font-size="10.00">+ ~Connection()</text>
<text text-anchor="start" x="82.5" y="-161.5" font-family="Helvetica,sans-Serif" font-size="10.00">+ startTransaction()</text>
<text text-anchor="start" x="82.5" y="-150.5" font-family="Helvetica,sans-Serif" font-size="10.00">+ begin()</text>
<text text-anchor="start" x="82.5" y="-139.5" font-family="Helvetica,sans-Serif" font-size="10.00">+ commit()</text>
<text text-anchor="start" x="82.5" y="-128.5" font-family="Helvetica,sans-Serif" font-size="10.00">+ rollback()</text>
<text text-anchor="start" x="82.5" y="-117.5" font-family="Helvetica,sans-Serif" font-size="10.00">+ prepareStatement()</text>
<text text-anchor="start" x="82.5" y="-106.5" font-family="Helvetica,sans-Serif" font-size="10.00">+ query()</text>
<text text-anchor="start" x="82.5" y="-95.5" font-family="Helvetica,sans-Serif" font-size="10.00">+ queryMapRow()</text>
<text text-anchor="start" x="82.5" y="-84.5" font-family="Helvetica,sans-Serif" font-size="10.00">and 8 more...</text>
<text text-anchor="start" x="82.5" y="-73.5" font-family="Helvetica,sans-Serif" font-size="10.00"># executeQuery()</text>
<text text-anchor="start" x="82.5" y="-62.5" font-family="Helvetica,sans-Serif" font-size="10.00"># executeUpdate()</text>
<text text-anchor="start" x="82.5" y="-51.5" font-family="Helvetica,sans-Serif" font-size="10.00"># sendStartTransaction()</text>
<text text-anchor="start" x="82.5" y="-40.5" font-family="Helvetica,sans-Serif" font-size="10.00"># sendCommit()</text>
<text text-anchor="start" x="82.5" y="-29.5" font-family="Helvetica,sans-Serif" font-size="10.00"># sendRollback()</text>
<text text-anchor="start" x="82.5" y="-18.5" font-family="Helvetica,sans-Serif" font-size="10.00"># makePrepared()</text>
<text text-anchor="start" x="82.5" y="-7.5" font-family="Helvetica,sans-Serif" font-size="10.00"># setValid()</text>
</a>
</g>
</g>
<!-- Node2 -->
<g id="node2" class="node">
<title>Node2</title>
<g id="a_node2"><a xlink:title=" ">
<polygon fill="none" stroke="#bfbfbf" points="51.5,-303.5 51.5,-371.5 234.5,-371.5 234.5,-303.5 51.5,-303.5"/>
<text text-anchor="start" x="59.5" y="-359.5" font-family="Helvetica,sans-Serif" font-size="10.00">std::map&lt; std::string,</text>
<text text-anchor="middle" x="143" y="-348.5" font-family="Helvetica,sans-Serif" font-size="10.00"> anch::sql::PreparedStatement * &gt;</text>
<polyline fill="none" stroke="#bfbfbf" points="51.5,-341.5 234.5,-341.5 "/>
<text text-anchor="middle" x="143" y="-329.5" font-family="Helvetica,sans-Serif" font-size="10.00"> </text>
<polyline fill="none" stroke="#bfbfbf" points="51.5,-322.5 234.5,-322.5 "/>
<text text-anchor="middle" x="143" y="-310.5" font-family="Helvetica,sans-Serif" font-size="10.00"> </text>
</a>
</g>
</g>
<!-- Node2&#45;&gt;Node1 -->
<g id="edge1" class="edge">
<title>Node2&#45;&gt;Node1</title>
<path fill="none" stroke="#404040" d="M143,-303.16C143,-292.81 143,-280.69 143,-267.75"/>
<polygon fill="none" stroke="#404040" points="143,-267.66 139,-261.66 143,-255.66 147,-261.66 143,-267.66"/>
<text text-anchor="middle" x="165.5" y="-277" font-family="Helvetica,sans-Serif" font-size="10.00"> #_stmts</text>
</g>
<!-- Node3 -->
<g id="node3" class="node">
<title>Node3</title>
<g id="a_node3"><a xlink:href="classanch_1_1sql_1_1_prepared_statement.html" target="_top" xlink:title="SQL prepared statement.">
<polygon fill="none" stroke="black" points="62.5,-419.5 62.5,-652.5 223.5,-652.5 223.5,-419.5 62.5,-419.5"/>
<text text-anchor="middle" x="143" y="-640.5" font-family="Helvetica,sans-Serif" font-size="10.00">anch::sql::PreparedStatement</text>
<polyline fill="none" stroke="black" points="62.5,-633.5 223.5,-633.5 "/>
<text text-anchor="start" x="70.5" y="-621.5" font-family="Helvetica,sans-Serif" font-size="10.00"># _nbPlaceholders</text>
<polyline fill="none" stroke="black" points="62.5,-614.5 223.5,-614.5 "/>
<text text-anchor="start" x="70.5" y="-602.5" font-family="Helvetica,sans-Serif" font-size="10.00">+ PreparedStatement()</text>
<text text-anchor="start" x="70.5" y="-591.5" font-family="Helvetica,sans-Serif" font-size="10.00">+ ~PreparedStatement()</text>
<text text-anchor="start" x="70.5" y="-580.5" font-family="Helvetica,sans-Serif" font-size="10.00">+ executeQuery()</text>
<text text-anchor="start" x="70.5" y="-569.5" font-family="Helvetica,sans-Serif" font-size="10.00">+ executeUpdate()</text>
<text text-anchor="start" x="70.5" y="-558.5" font-family="Helvetica,sans-Serif" font-size="10.00">+ set()</text>
<text text-anchor="start" x="70.5" y="-547.5" font-family="Helvetica,sans-Serif" font-size="10.00">+ set()</text>
<text text-anchor="start" x="70.5" y="-536.5" font-family="Helvetica,sans-Serif" font-size="10.00">+ set()</text>
<text text-anchor="start" x="70.5" y="-525.5" font-family="Helvetica,sans-Serif" font-size="10.00">+ set()</text>
<text text-anchor="start" x="70.5" y="-514.5" font-family="Helvetica,sans-Serif" font-size="10.00">+ set()</text>
<text text-anchor="start" x="70.5" y="-503.5" font-family="Helvetica,sans-Serif" font-size="10.00">+ set()</text>
<text text-anchor="start" x="70.5" y="-492.5" font-family="Helvetica,sans-Serif" font-size="10.00">+ set()</text>
<text text-anchor="start" x="70.5" y="-481.5" font-family="Helvetica,sans-Serif" font-size="10.00">+ set()</text>
<text text-anchor="start" x="70.5" y="-470.5" font-family="Helvetica,sans-Serif" font-size="10.00">+ set()</text>
<text text-anchor="start" x="70.5" y="-459.5" font-family="Helvetica,sans-Serif" font-size="10.00">+ set()</text>
<text text-anchor="start" x="70.5" y="-448.5" font-family="Helvetica,sans-Serif" font-size="10.00">+ set()</text>
<text text-anchor="start" x="70.5" y="-437.5" font-family="Helvetica,sans-Serif" font-size="10.00"># getPlaceholders()</text>
<text text-anchor="start" x="70.5" y="-426.5" font-family="Helvetica,sans-Serif" font-size="10.00"># checkIndex()</text>
</a>
</g>
</g>
<!-- Node3&#45;&gt;Node2 -->
<g id="edge2" class="edge">
<title>Node3&#45;&gt;Node2</title>
<path fill="none" stroke="#404040" d="M143,-419.27C143,-406.82 143,-394.75 143,-383.9"/>
<polygon fill="none" stroke="#404040" points="143,-383.78 139,-377.78 143,-371.78 147,-377.78 143,-383.78"/>
<text text-anchor="middle" x="172" y="-393" font-family="Helvetica,sans-Serif" font-size="10.00"> +elements</text>
</g>
<!-- Node4 -->
<g id="node4" class="node">
<title>Node4</title>
<g id="a_node4"><a xlink:title=" ">
<polygon fill="none" stroke="#bfbfbf" points="87.5,-711.5 87.5,-779.5 198.5,-779.5 198.5,-711.5 87.5,-711.5"/>
<text text-anchor="start" x="95.5" y="-767.5" font-family="Helvetica,sans-Serif" font-size="10.00">std::map&lt; std::size</text>
<text text-anchor="middle" x="143" y="-756.5" font-family="Helvetica,sans-Serif" font-size="10.00">_t, std::string &gt;</text>
<polyline fill="none" stroke="#bfbfbf" points="87.5,-749.5 198.5,-749.5 "/>
<text text-anchor="start" x="95.5" y="-737.5" font-family="Helvetica,sans-Serif" font-size="10.00">+ keys</text>
<polyline fill="none" stroke="#bfbfbf" points="87.5,-730.5 198.5,-730.5 "/>
<text text-anchor="middle" x="143" y="-718.5" font-family="Helvetica,sans-Serif" font-size="10.00"> </text>
</a>
</g>
</g>
<!-- Node4&#45;&gt;Node3 -->
<g id="edge3" class="edge">
<title>Node4&#45;&gt;Node3</title>
<path fill="none" stroke="#404040" d="M143,-711.16C143,-698.07 143,-682.15 143,-665.31"/>
<polygon fill="none" stroke="#404040" points="143,-664.92 139,-658.92 143,-652.92 147,-658.92 143,-664.92"/>
<text text-anchor="middle" x="167.5" y="-679.5" font-family="Helvetica,sans-Serif" font-size="10.00"> #_values</text>
</g>
<!-- Node5 -->
<g id="node5" class="node">
<title>Node5</title>
<g id="a_node5"><a xlink:title="STL class.">
<polygon fill="none" stroke="#bfbfbf" points="19.5,-838.5 19.5,-895.5 84.5,-895.5 84.5,-838.5 19.5,-838.5"/>
<text text-anchor="middle" x="52" y="-883.5" font-family="Helvetica,sans-Serif" font-size="10.00">std::string</text>
<polyline fill="none" stroke="#bfbfbf" points="19.5,-876.5 84.5,-876.5 "/>
<text text-anchor="middle" x="52" y="-864.5" font-family="Helvetica,sans-Serif" font-size="10.00"> </text>
<polyline fill="none" stroke="#bfbfbf" points="19.5,-857.5 84.5,-857.5 "/>
<text text-anchor="middle" x="52" y="-845.5" font-family="Helvetica,sans-Serif" font-size="10.00"> </text>
</a>
</g>
</g>
<!-- Node5&#45;&gt;Node2 -->
<g id="edge9" class="edge">
<title>Node5&#45;&gt;Node2</title>
<path fill="none" stroke="#404040" d="M44.68,-838.46C26.89,-765.91 -12.51,-565.04 53,-419 59.63,-404.22 70.46,-391.02 82.36,-379.8"/>
<polygon fill="none" stroke="#404040" points="82.62,-379.57 84.46,-372.6 91.6,-371.61 89.76,-378.59 82.62,-379.57"/>
<text text-anchor="middle" x="37" y="-679.5" font-family="Helvetica,sans-Serif" font-size="10.00"> +keys</text>
</g>
<!-- Node5&#45;&gt;Node4 -->
<g id="edge4" class="edge">
<title>Node5&#45;&gt;Node4</title>
<path fill="none" stroke="#404040" d="M62.42,-838.45C68.04,-825.49 75.73,-810.24 85,-798 87.52,-794.68 90.27,-791.41 93.17,-788.23"/>
<polygon fill="none" stroke="#404040" points="93.28,-788.11 94.59,-781.02 101.64,-779.51 100.33,-786.6 93.28,-788.11"/>
<text text-anchor="middle" x="114" y="-806.5" font-family="Helvetica,sans-Serif" font-size="10.00"> +elements</text>
</g>
<!-- Node6 -->
<g id="node6" class="node">
<title>Node6</title>
<g id="a_node6"><a xlink:title="STL class.">
<polygon fill="none" stroke="#bfbfbf" points="0,-943.5 0,-1011.5 104,-1011.5 104,-943.5 0,-943.5"/>
<text text-anchor="start" x="8" y="-999.5" font-family="Helvetica,sans-Serif" font-size="10.00">std::basic_string&lt;</text>
<text text-anchor="middle" x="52" y="-988.5" font-family="Helvetica,sans-Serif" font-size="10.00"> char &gt;</text>
<polyline fill="none" stroke="#bfbfbf" points="0,-981.5 104,-981.5 "/>
<text text-anchor="middle" x="52" y="-969.5" font-family="Helvetica,sans-Serif" font-size="10.00"> </text>
<polyline fill="none" stroke="#bfbfbf" points="0,-962.5 104,-962.5 "/>
<text text-anchor="middle" x="52" y="-950.5" font-family="Helvetica,sans-Serif" font-size="10.00"> </text>
</a>
</g>
</g>
<!-- Node6&#45;&gt;Node5 -->
<g id="edge5" class="edge">
<title>Node6&#45;&gt;Node5</title>
<path fill="none" stroke="midnightblue" d="M52,-933.06C52,-920.51 52,-907.15 52,-895.83"/>
<polygon fill="none" stroke="midnightblue" points="48.5,-933.36 52,-943.36 55.5,-933.36 48.5,-933.36"/>
</g>
<!-- Node7 -->
<g id="node7" class="node">
<title>Node7</title>
<g id="a_node7"><a xlink:title="STL class.">
<polygon fill="none" stroke="#bfbfbf" points="144.5,-838.5 144.5,-895.5 245.5,-895.5 245.5,-838.5 144.5,-838.5"/>
<text text-anchor="middle" x="195" y="-883.5" font-family="Helvetica,sans-Serif" font-size="10.00">std::map&lt; K, T &gt;</text>
<polyline fill="none" stroke="#bfbfbf" points="144.5,-876.5 245.5,-876.5 "/>
<text text-anchor="middle" x="195" y="-864.5" font-family="Helvetica,sans-Serif" font-size="10.00"> </text>
<polyline fill="none" stroke="#bfbfbf" points="144.5,-857.5 245.5,-857.5 "/>
<text text-anchor="middle" x="195" y="-845.5" font-family="Helvetica,sans-Serif" font-size="10.00"> </text>
</a>
</g>
</g>
<!-- Node7&#45;&gt;Node2 -->
<g id="edge10" class="edge">
<title>Node7&#45;&gt;Node2</title>
<path fill="none" stroke="orange" d="M232.75,-830.17C234.82,-826.91 236.61,-823.51 238,-820 241.59,-810.9 238.06,-807.78 238,-798 236.89,-629.54 297.13,-574.78 233,-419 225.34,-400.39 210.77,-384.42 195.55,-371.72"/>
<polygon fill="orange" stroke="orange" points="229.79,-828.29 226.74,-838.43 235.45,-832.41 229.79,-828.29"/>
<text text-anchor="start" x="248" y="-685" font-family="Helvetica,sans-Serif" font-size="10.00"> &lt; std::string, anch</text>
<text text-anchor="middle" x="318.5" y="-674" font-family="Helvetica,sans-Serif" font-size="10.00">::sql::PreparedStatement * &gt;</text>
</g>
<!-- Node7&#45;&gt;Node4 -->
<g id="edge6" class="edge">
<title>Node7&#45;&gt;Node4</title>
<path fill="none" stroke="orange" d="M158.74,-830.03C156.56,-826.79 154.61,-823.43 153,-820 147.16,-807.52 144.46,-792.63 143.29,-779.53"/>
<polygon fill="orange" stroke="orange" points="156.13,-832.38 164.93,-838.28 161.73,-828.18 156.13,-832.38"/>
<text text-anchor="start" x="153" y="-812" font-family="Helvetica,sans-Serif" font-size="10.00"> &lt; std::size_t, std</text>
<text text-anchor="middle" x="195.5" y="-801" font-family="Helvetica,sans-Serif" font-size="10.00">::string &gt;</text>
</g>
<!-- Node8 -->
<g id="node8" class="node">
<title>Node8</title>
<g id="a_node8"><a xlink:title=" ">
<polygon fill="none" stroke="#bfbfbf" points="151.5,-949 151.5,-1006 180.5,-1006 180.5,-949 151.5,-949"/>
<text text-anchor="middle" x="166" y="-994" font-family="Helvetica,sans-Serif" font-size="10.00">K</text>
<polyline fill="none" stroke="#bfbfbf" points="151.5,-987 180.5,-987 "/>
<text text-anchor="middle" x="166" y="-975" font-family="Helvetica,sans-Serif" font-size="10.00"> </text>
<polyline fill="none" stroke="#bfbfbf" points="151.5,-968 180.5,-968 "/>
<text text-anchor="middle" x="166" y="-956" font-family="Helvetica,sans-Serif" font-size="10.00"> </text>
</a>
</g>
</g>
<!-- Node8&#45;&gt;Node7 -->
<g id="edge7" class="edge">
<title>Node8&#45;&gt;Node7</title>
<path fill="none" stroke="#404040" d="M165.21,-948.99C165.55,-937.93 166.78,-925.18 170,-914 170.69,-911.61 171.52,-909.21 172.44,-906.82"/>
<polygon fill="none" stroke="#404040" points="172.44,-906.82 171.27,-899.71 177.38,-895.88 178.56,-903 172.44,-906.82"/>
<text text-anchor="middle" x="187" y="-917" font-family="Helvetica,sans-Serif" font-size="10.00"> +keys</text>
</g>
<!-- Node9 -->
<g id="node9" class="node">
<title>Node9</title>
<g id="a_node9"><a xlink:title=" ">
<polygon fill="none" stroke="#bfbfbf" points="208.5,-949 208.5,-1006 237.5,-1006 237.5,-949 208.5,-949"/>
<text text-anchor="middle" x="223" y="-994" font-family="Helvetica,sans-Serif" font-size="10.00">T</text>
<polyline fill="none" stroke="#bfbfbf" points="208.5,-987 237.5,-987 "/>
<text text-anchor="middle" x="223" y="-975" font-family="Helvetica,sans-Serif" font-size="10.00"> </text>
<polyline fill="none" stroke="#bfbfbf" points="208.5,-968 237.5,-968 "/>
<text text-anchor="middle" x="223" y="-956" font-family="Helvetica,sans-Serif" font-size="10.00"> </text>
</a>
</g>
</g>
<!-- Node9&#45;&gt;Node7 -->
<g id="edge8" class="edge">
<title>Node9&#45;&gt;Node7</title>
<path fill="none" stroke="#404040" d="M215.86,-948.84C212.6,-936.21 208.69,-921.04 205.13,-907.26"/>
<polygon fill="none" stroke="#404040" points="205.12,-907.23 199.75,-902.42 202.12,-895.61 207.5,-900.42 205.12,-907.23"/>
<text text-anchor="middle" x="238" y="-917" font-family="Helvetica,sans-Serif" font-size="10.00"> +elements</text>
</g>
</g>
</svg>
