<?xml version="1.0" encoding="UTF-8" standalone="no"?>
<!DOCTYPE svg PUBLIC "-//W3C//DTD SVG 1.1//EN"
 "http://www.w3.org/Graphics/SVG/1.1/DTD/svg11.dtd">
<!-- Generated by graphviz version 9.0.0 (0)
 -->
<!-- Title: anch::ThreadPool Pages: 1 -->
<svg width="120pt" height="140pt"
 viewBox="0.00 0.00 120.00 140.00" xmlns="http://www.w3.org/2000/svg" xmlns:xlink="http://www.w3.org/1999/xlink">
<g id="graph0" class="graph" transform="scale(1 1) rotate(0) translate(4 136)">
<title>anch::ThreadPool</title>
<!-- Node1 -->
<g id="Node000001" class="node">
<title>Node1</title>
<g id="a_Node000001"><a xlink:title="Thread pool utility class.">
<polygon fill="#999999" stroke="none" points="112,-132 0,-132 0,0 112,0 112,-132"/>
<text text-anchor="start" x="14" y="-118.5" font-family="Helvetica,sans-Serif" font-size="10.00">anch::ThreadPool</text>
<text text-anchor="start" x="54.5" y="-102.5" font-family="Helvetica,sans-Serif" font-size="10.00"> </text>
<text text-anchor="start" x="3.88" y="-86.5" font-family="Helvetica,sans-Serif" font-size="10.00">+</text>
<text text-anchor="start" x="16" y="-86.5" font-family="Helvetica,sans-Serif" font-size="10.00">ThreadPool()</text>
<text text-anchor="start" x="3.88" y="-70.5" font-family="Helvetica,sans-Serif" font-size="10.00">+</text>
<text text-anchor="start" x="16" y="-70.5" font-family="Helvetica,sans-Serif" font-size="10.00">~ThreadPool()</text>
<text text-anchor="start" x="3.88" y="-54.5" font-family="Helvetica,sans-Serif" font-size="10.00">+</text>
<text text-anchor="start" x="16" y="-54.5" font-family="Helvetica,sans-Serif" font-size="10.00">start()</text>
<text text-anchor="start" x="3.88" y="-38.5" font-family="Helvetica,sans-Serif" font-size="10.00">+</text>
<text text-anchor="start" x="16" y="-38.5" font-family="Helvetica,sans-Serif" font-size="10.00">stop()</text>
<text text-anchor="start" x="3.88" y="-22.5" font-family="Helvetica,sans-Serif" font-size="10.00">+</text>
<text text-anchor="start" x="16" y="-22.5" font-family="Helvetica,sans-Serif" font-size="10.00">awaitTermination()</text>
<text text-anchor="start" x="3.88" y="-6.5" font-family="Helvetica,sans-Serif" font-size="10.00">+</text>
<text text-anchor="start" x="16" y="-6.5" font-family="Helvetica,sans-Serif" font-size="10.00">add()</text>
<polygon fill="#666666" stroke="#666666" points="0,-114 0,-114 112,-114 112,-114 0,-114"/>
<polygon fill="#666666" stroke="#666666" points="0,-98 0,-98 112,-98 112,-98 0,-98"/>
<polygon fill="none" stroke="#666666" points="0,0 0,-132 112,-132 112,0 0,0"/>
</a>
</g>
</g>
</g>
</svg>
