<?xml version="1.0" encoding="UTF-8" standalone="no"?>
<!DOCTYPE svg PUBLIC "-//W3C//DTD SVG 1.1//EN"
 "http://www.w3.org/Graphics/SVG/1.1/DTD/svg11.dtd">
<!-- Generated by graphviz version 2.40.1 (20161225.0304)
 -->
<!-- Title: anch::logger::ThreadSafeWriter Pages: 1 -->
<svg width="263pt" height="694pt"
 viewBox="0.00 0.00 263.00 694.00" xmlns="http://www.w3.org/2000/svg" xmlns:xlink="http://www.w3.org/1999/xlink">
<g id="graph0" class="graph" transform="scale(1 1) rotate(0) translate(4 690)">
<title>anch::logger::ThreadSafeWriter</title>
<!-- Node2 -->
<g id="node1" class="node">
<title>Node2</title>
<polygon fill="#bfbfbf" stroke="#000000" points="50,-.5 50,-101.5 188,-101.5 188,-.5 50,-.5"/>
<text text-anchor="start" x="58" y="-89.5" font-family="Helvetica,sans-Serif" font-size="10.00" fill="#000000">anch::logger::ThreadSafe</text>
<text text-anchor="middle" x="119" y="-78.5" font-family="Helvetica,sans-Serif" font-size="10.00" fill="#000000">Writer</text>
<polyline fill="none" stroke="#000000" points="50,-71.5 188,-71.5 "/>
<text text-anchor="middle" x="119" y="-59.5" font-family="Helvetica,sans-Serif" font-size="10.00" fill="#000000"> </text>
<polyline fill="none" stroke="#000000" points="50,-52.5 188,-52.5 "/>
<text text-anchor="start" x="58" y="-40.5" font-family="Helvetica,sans-Serif" font-size="10.00" fill="#000000">+ ThreadSafeWriter()</text>
<text text-anchor="start" x="58" y="-29.5" font-family="Helvetica,sans-Serif" font-size="10.00" fill="#000000">+ ThreadSafeWriter()</text>
<text text-anchor="start" x="58" y="-18.5" font-family="Helvetica,sans-Serif" font-size="10.00" fill="#000000">+ ~ThreadSafeWriter()</text>
<text text-anchor="start" x="58" y="-7.5" font-family="Helvetica,sans-Serif" font-size="10.00" fill="#000000">+ write()</text>
</g>
<!-- Node3 -->
<g id="node2" class="node">
<title>Node3</title>
<g id="a_node2"><a xlink:href="classanch_1_1logger_1_1_writer.html" target="_top" xlink:title="{anch::logger::Writer\n||+ Writer()\l+ Writer()\l+ ~Writer()\l+ write()\l# rotate()\l# rotateFiles()\l}">
<polygon fill="none" stroke="#000000" points="63,-139.5 63,-251.5 175,-251.5 175,-139.5 63,-139.5"/>
<text text-anchor="middle" x="119" y="-239.5" font-family="Helvetica,sans-Serif" font-size="10.00" fill="#000000">anch::logger::Writer</text>
<polyline fill="none" stroke="#000000" points="63,-232.5 175,-232.5 "/>
<text text-anchor="middle" x="119" y="-220.5" font-family="Helvetica,sans-Serif" font-size="10.00" fill="#000000"> </text>
<polyline fill="none" stroke="#000000" points="63,-213.5 175,-213.5 "/>
<text text-anchor="start" x="71" y="-201.5" font-family="Helvetica,sans-Serif" font-size="10.00" fill="#000000">+ Writer()</text>
<text text-anchor="start" x="71" y="-190.5" font-family="Helvetica,sans-Serif" font-size="10.00" fill="#000000">+ Writer()</text>
<text text-anchor="start" x="71" y="-179.5" font-family="Helvetica,sans-Serif" font-size="10.00" fill="#000000">+ ~Writer()</text>
<text text-anchor="start" x="71" y="-168.5" font-family="Helvetica,sans-Serif" font-size="10.00" fill="#000000">+ write()</text>
<text text-anchor="start" x="71" y="-157.5" font-family="Helvetica,sans-Serif" font-size="10.00" fill="#000000"># rotate()</text>
<text text-anchor="start" x="71" y="-146.5" font-family="Helvetica,sans-Serif" font-size="10.00" fill="#000000"># rotateFiles()</text>
</a>
</g>
</g>
<!-- Node3&#45;&gt;Node2 -->
<g id="edge1" class="edge">
<title>Node3&#45;&gt;Node2</title>
<path fill="none" stroke="#191970" d="M119,-128.9623C119,-119.8036 119,-110.5218 119,-101.7104"/>
<polygon fill="none" stroke="#191970" points="115.5001,-129.2187 119,-139.2188 122.5001,-129.2188 115.5001,-129.2187"/>
</g>
<!-- Node4 -->
<g id="node3" class="node">
<title>Node4</title>
<g id="a_node3"><a xlink:href="classanch_1_1logger_1_1formatter_1_1_message_formatter.html" target="_top" xlink:title="{anch::logger::formatter\l::MessageFormatter\n||+ MessageFormatter()\l+ ~MessageFormatter()\l+ formatMessage()\l}">
<polygon fill="none" stroke="#000000" points="0,-299.5 0,-389.5 134,-389.5 134,-299.5 0,-299.5"/>
<text text-anchor="start" x="8" y="-377.5" font-family="Helvetica,sans-Serif" font-size="10.00" fill="#000000">anch::logger::formatter</text>
<text text-anchor="middle" x="67" y="-366.5" font-family="Helvetica,sans-Serif" font-size="10.00" fill="#000000">::MessageFormatter</text>
<polyline fill="none" stroke="#000000" points="0,-359.5 134,-359.5 "/>
<text text-anchor="middle" x="67" y="-347.5" font-family="Helvetica,sans-Serif" font-size="10.00" fill="#000000"> </text>
<polyline fill="none" stroke="#000000" points="0,-340.5 134,-340.5 "/>
<text text-anchor="start" x="8" y="-328.5" font-family="Helvetica,sans-Serif" font-size="10.00" fill="#000000">+ MessageFormatter()</text>
<text text-anchor="start" x="8" y="-317.5" font-family="Helvetica,sans-Serif" font-size="10.00" fill="#000000">+ ~MessageFormatter()</text>
<text text-anchor="start" x="8" y="-306.5" font-family="Helvetica,sans-Serif" font-size="10.00" fill="#000000">+ formatMessage()</text>
</a>
</g>
</g>
<!-- Node4&#45;&gt;Node3 -->
<g id="edge2" class="edge">
<title>Node4&#45;&gt;Node3</title>
<path fill="none" stroke="#404040" d="M77.2544,-299.229C79.8169,-289.4965 82.768,-279.3338 86,-270 86.8136,-267.6503 87.6711,-265.272 88.5626,-262.8801"/>
<polygon fill="none" stroke="#404040" points="88.5846,-262.8236 87.0385,-255.7802 92.9455,-251.644 94.4916,-258.6875 88.5846,-262.8236"/>
<text text-anchor="middle" x="118" y="-273" font-family="Helvetica,sans-Serif" font-size="10.00" fill="#000000"> #_formatter</text>
</g>
<!-- Node5 -->
<g id="node4" class="node">
<title>Node5</title>
<g id="a_node4"><a xlink:title="STL class. ">
<polygon fill="none" stroke="#bfbfbf" points="152,-316 152,-373 230,-373 230,-316 152,-316"/>
<text text-anchor="middle" x="191" y="-361" font-family="Helvetica,sans-Serif" font-size="10.00" fill="#000000">std::ostream</text>
<polyline fill="none" stroke="#bfbfbf" points="152,-354 230,-354 "/>
<text text-anchor="middle" x="191" y="-342" font-family="Helvetica,sans-Serif" font-size="10.00" fill="#000000"> </text>
<polyline fill="none" stroke="#bfbfbf" points="152,-335 230,-335 "/>
<text text-anchor="middle" x="191" y="-323" font-family="Helvetica,sans-Serif" font-size="10.00" fill="#000000"> </text>
</a>
</g>
</g>
<!-- Node5&#45;&gt;Node3 -->
<g id="edge3" class="edge">
<title>Node5&#45;&gt;Node3</title>
<path fill="none" stroke="#404040" d="M177.1177,-315.7713C169.7733,-300.5726 160.4238,-281.2243 151.3819,-262.5125"/>
<polygon fill="none" stroke="#404040" points="151.3322,-262.4096 145.1201,-258.7476 146.1111,-251.6049 152.3232,-255.2669 151.3322,-262.4096"/>
<text text-anchor="middle" x="183.5" y="-273" font-family="Helvetica,sans-Serif" font-size="10.00" fill="#000000"> #_output</text>
</g>
<!-- Node6 -->
<g id="node5" class="node">
<title>Node6</title>
<g id="a_node5"><a xlink:title="STL class. ">
<polygon fill="none" stroke="#bfbfbf" points="136.5,-427.5 136.5,-495.5 245.5,-495.5 245.5,-427.5 136.5,-427.5"/>
<text text-anchor="start" x="144.5" y="-483.5" font-family="Helvetica,sans-Serif" font-size="10.00" fill="#000000">std::basic_ostream</text>
<text text-anchor="middle" x="191" y="-472.5" font-family="Helvetica,sans-Serif" font-size="10.00" fill="#000000">&lt; char &gt;</text>
<polyline fill="none" stroke="#bfbfbf" points="136.5,-465.5 245.5,-465.5 "/>
<text text-anchor="middle" x="191" y="-453.5" font-family="Helvetica,sans-Serif" font-size="10.00" fill="#000000"> </text>
<polyline fill="none" stroke="#bfbfbf" points="136.5,-446.5 245.5,-446.5 "/>
<text text-anchor="middle" x="191" y="-434.5" font-family="Helvetica,sans-Serif" font-size="10.00" fill="#000000"> </text>
</a>
</g>
</g>
<!-- Node6&#45;&gt;Node5 -->
<g id="edge4" class="edge">
<title>Node6&#45;&gt;Node5</title>
<path fill="none" stroke="#191970" d="M191,-416.9743C191,-402.3553 191,-386.4995 191,-373.3568"/>
<polygon fill="none" stroke="#191970" points="187.5001,-417.3442 191,-427.3442 194.5001,-417.3443 187.5001,-417.3442"/>
</g>
<!-- Node7 -->
<g id="node6" class="node">
<title>Node7</title>
<g id="a_node6"><a xlink:title="STL class. ">
<polygon fill="none" stroke="#bfbfbf" points="127,-533.5 127,-590.5 255,-590.5 255,-533.5 127,-533.5"/>
<text text-anchor="middle" x="191" y="-578.5" font-family="Helvetica,sans-Serif" font-size="10.00" fill="#000000">std::basic_ios&lt; Char &gt;</text>
<polyline fill="none" stroke="#bfbfbf" points="127,-571.5 255,-571.5 "/>
<text text-anchor="middle" x="191" y="-559.5" font-family="Helvetica,sans-Serif" font-size="10.00" fill="#000000"> </text>
<polyline fill="none" stroke="#bfbfbf" points="127,-552.5 255,-552.5 "/>
<text text-anchor="middle" x="191" y="-540.5" font-family="Helvetica,sans-Serif" font-size="10.00" fill="#000000"> </text>
</a>
</g>
</g>
<!-- Node7&#45;&gt;Node6 -->
<g id="edge5" class="edge">
<title>Node7&#45;&gt;Node6</title>
<path fill="none" stroke="#191970" d="M191,-523.1903C191,-514.1667 191,-504.6233 191,-495.8097"/>
<polygon fill="none" stroke="#191970" points="187.5001,-523.4695 191,-533.4696 194.5001,-523.4696 187.5001,-523.4695"/>
</g>
<!-- Node8 -->
<g id="node7" class="node">
<title>Node8</title>
<g id="a_node7"><a xlink:title="STL class. ">
<polygon fill="none" stroke="#bfbfbf" points="151,-628.5 151,-685.5 231,-685.5 231,-628.5 151,-628.5"/>
<text text-anchor="middle" x="191" y="-673.5" font-family="Helvetica,sans-Serif" font-size="10.00" fill="#000000">std::ios_base</text>
<polyline fill="none" stroke="#bfbfbf" points="151,-666.5 231,-666.5 "/>
<text text-anchor="middle" x="191" y="-654.5" font-family="Helvetica,sans-Serif" font-size="10.00" fill="#000000"> </text>
<polyline fill="none" stroke="#bfbfbf" points="151,-647.5 231,-647.5 "/>
<text text-anchor="middle" x="191" y="-635.5" font-family="Helvetica,sans-Serif" font-size="10.00" fill="#000000"> </text>
</a>
</g>
</g>
<!-- Node8&#45;&gt;Node7 -->
<g id="edge6" class="edge">
<title>Node8&#45;&gt;Node7</title>
<path fill="none" stroke="#191970" d="M191,-618.3724C191,-609.1627 191,-599.4917 191,-590.8114"/>
<polygon fill="none" stroke="#191970" points="187.5001,-618.4968 191,-628.4969 194.5001,-618.4969 187.5001,-618.4968"/>
</g>
</g>
</svg>
