<?xml version="1.0" encoding="UTF-8" standalone="no"?>
<!DOCTYPE svg PUBLIC "-//W3C//DTD SVG 1.1//EN"
 "http://www.w3.org/Graphics/SVG/1.1/DTD/svg11.dtd">
<!-- Generated by graphviz version 7.0.6 (0)
 -->
<!-- Title: anch::sql::SQLSharedLibraries Pages: 1 -->
<svg width="210pt" height="332pt"
 viewBox="0.00 0.00 209.50 332.00" xmlns="http://www.w3.org/2000/svg" xmlns:xlink="http://www.w3.org/1999/xlink">
<g id="graph0" class="graph" transform="scale(1 1) rotate(0) translate(4 328)">
<title>anch::sql::SQLSharedLibraries</title>
<!-- Node1 -->
<g id="node1" class="node">
<title>Node1</title>
<g id="a_node1"><a xlink:title="SQL shared libraries manager.">
<polygon fill="#999999" stroke="#666666" points="0,-0.5 0,-112.5 161,-112.5 161,-0.5 0,-0.5"/>
<text text-anchor="middle" x="80.5" y="-100.5" font-family="Helvetica,sans-Serif" font-size="10.00">anch::sql::SQLSharedLibraries</text>
<polyline fill="none" stroke="#666666" points="0,-93.5 161,-93.5"/>
<text text-anchor="middle" x="80.5" y="-81.5" font-family="Helvetica,sans-Serif" font-size="10.00"> </text>
<polyline fill="none" stroke="#666666" points="0,-74.5 161,-74.5"/>
<text text-anchor="start" x="8" y="-62.5" font-family="Helvetica,sans-Serif" font-size="10.00">+ registerSQLLibrary()</text>
<text text-anchor="start" x="8" y="-51.5" font-family="Helvetica,sans-Serif" font-size="10.00">+ makeSharedConnection()</text>
<text text-anchor="start" x="8" y="-40.5" font-family="Helvetica,sans-Serif" font-size="10.00">+ makeConnection()</text>
<text text-anchor="start" x="8" y="-29.5" font-family="Helvetica,sans-Serif" font-size="10.00">+ registerMySQL()</text>
<text text-anchor="start" x="8" y="-18.5" font-family="Helvetica,sans-Serif" font-size="10.00">+ registerPostgreSQL()</text>
<text text-anchor="start" x="8" y="-7.5" font-family="Helvetica,sans-Serif" font-size="10.00">+ registerSQLite()</text>
</a>
</g>
</g>
<!-- Node2 -->
<g id="node2" class="node">
<title>Node2</title>
<g id="a_node2"><a xlink:href="classanch_1_1_singleton.html" target="_top" xlink:title=" ">
<polygon fill="white" stroke="#666666" points="3,-150.5 3,-218.5 158,-218.5 158,-150.5 3,-150.5"/>
<text text-anchor="start" x="11" y="-206.5" font-family="Helvetica,sans-Serif" font-size="10.00">anch::Singleton&lt; SQLShared</text>
<text text-anchor="middle" x="80.5" y="-195.5" font-family="Helvetica,sans-Serif" font-size="10.00">Libraries &gt;</text>
<polyline fill="none" stroke="#666666" points="3,-188.5 158,-188.5"/>
<text text-anchor="middle" x="80.5" y="-176.5" font-family="Helvetica,sans-Serif" font-size="10.00"> </text>
<polyline fill="none" stroke="#666666" points="3,-169.5 158,-169.5"/>
<text text-anchor="start" x="11" y="-157.5" font-family="Helvetica,sans-Serif" font-size="10.00">+ getInstance()</text>
</a>
</g>
</g>
<!-- Node2&#45;&gt;Node1 -->
<g id="edge1" class="edge">
<title>Node2&#45;&gt;Node1</title>
<path fill="none" stroke="#63b8ff" d="M80.5,-139.48C80.5,-130.63 80.5,-121.23 80.5,-112.07"/>
<polygon fill="none" stroke="#63b8ff" points="77,-139.21 80.5,-149.21 84,-139.21 77,-139.21"/>
</g>
<!-- Node3 -->
<g id="node3" class="node">
<title>Node3</title>
<g id="a_node3"><a xlink:href="classanch_1_1_singleton.html" target="_top" xlink:title="Meyers&#39; singleton implemtation.">
<polygon fill="white" stroke="#666666" points="20.5,-266.5 20.5,-323.5 140.5,-323.5 140.5,-266.5 20.5,-266.5"/>
<text text-anchor="middle" x="80.5" y="-311.5" font-family="Helvetica,sans-Serif" font-size="10.00">anch::Singleton&lt; T &gt;</text>
<polyline fill="none" stroke="#666666" points="20.5,-304.5 140.5,-304.5"/>
<text text-anchor="middle" x="80.5" y="-292.5" font-family="Helvetica,sans-Serif" font-size="10.00"> </text>
<polyline fill="none" stroke="#666666" points="20.5,-285.5 140.5,-285.5"/>
<text text-anchor="start" x="28.5" y="-273.5" font-family="Helvetica,sans-Serif" font-size="10.00">+ getInstance()</text>
</a>
</g>
</g>
<!-- Node3&#45;&gt;Node2 -->
<g id="edge2" class="edge">
<title>Node3&#45;&gt;Node2</title>
<path fill="none" stroke="orange" d="M80.5,-255.42C80.5,-243.27 80.5,-229.98 80.5,-218.28"/>
<polygon fill="orange" stroke="orange" points="77,-255.11 80.5,-265.11 84,-255.11 77,-255.11"/>
<text text-anchor="middle" x="141" y="-240" font-family="Helvetica,sans-Serif" font-size="10.00"> &lt; SQLSharedLibraries &gt;</text>
</g>
</g>
</svg>
