<?xml version="1.0" encoding="UTF-8" standalone="no"?>
<!DOCTYPE svg PUBLIC "-//W3C//DTD SVG 1.1//EN"
 "http://www.w3.org/Graphics/SVG/1.1/DTD/svg11.dtd">
<!-- Generated by graphviz version 12.1.1 (0)
 -->
<!-- Title: anch::sql::PostgreSQLPreparedStatement Pages: 1 -->
<svg width="193pt" height="481pt"
 viewBox="0.00 0.00 193.00 481.00" xmlns="http://www.w3.org/2000/svg" xmlns:xlink="http://www.w3.org/1999/xlink">
<g id="graph0" class="graph" transform="scale(1 1) rotate(0) translate(4 477)">
<title>anch::sql::PostgreSQLPreparedStatement</title>
<!-- Node1 -->
<g id="Node000001" class="node">
<title>Node1</title>
<g id="a_Node000001"><a xlink:title="PostgreSQL prepared statement implementation.">
<polygon fill="#999999" stroke="none" points="185,-113 0,-113 0,0 185,0 185,-113"/>
<text text-anchor="start" x="18.25" y="-99.5" font-family="Helvetica,sans-Serif" font-size="10.00">anch::sql::PostgreSQLPrepared</text>
<text text-anchor="start" x="67" y="-86.75" font-family="Helvetica,sans-Serif" font-size="10.00">Statement</text>
<text text-anchor="start" x="91" y="-70.5" font-family="Helvetica,sans-Serif" font-size="10.00"> </text>
<text text-anchor="start" x="3.88" y="-54.5" font-family="Helvetica,sans-Serif" font-size="10.00">+</text>
<text text-anchor="start" x="16" y="-54.5" font-family="Helvetica,sans-Serif" font-size="10.00">PostgreSQLPreparedStatement()</text>
<text text-anchor="start" x="3.88" y="-38.5" font-family="Helvetica,sans-Serif" font-size="10.00">+</text>
<text text-anchor="start" x="16" y="-38.5" font-family="Helvetica,sans-Serif" font-size="10.00">~PostgreSQLPreparedStatement()</text>
<text text-anchor="start" x="3.88" y="-22.5" font-family="Helvetica,sans-Serif" font-size="10.00">+</text>
<text text-anchor="start" x="16" y="-22.5" font-family="Helvetica,sans-Serif" font-size="10.00">executeQuery()</text>
<text text-anchor="start" x="3.88" y="-6.5" font-family="Helvetica,sans-Serif" font-size="10.00">+</text>
<text text-anchor="start" x="16" y="-6.5" font-family="Helvetica,sans-Serif" font-size="10.00">executeUpdate()</text>
<polygon fill="#666666" stroke="#666666" points="0,-82 0,-82 185,-82 185,-82 0,-82"/>
<polygon fill="#666666" stroke="#666666" points="0,-66 0,-66 185,-66 185,-66 0,-66"/>
<polygon fill="none" stroke="#666666" points="0,0 0,-113 185,-113 185,0 0,0"/>
</a>
</g>
</g>
<!-- Node2 -->
<g id="Node000002" class="node">
<title>Node2</title>
<g id="a_Node000002"><a xlink:href="classanch_1_1sql_1_1_prepared_statement.html" target="_top" xlink:title="SQL prepared statement.">
<polygon fill="white" stroke="none" points="169.5,-473 15.5,-473 15.5,-149 169.5,-149 169.5,-473"/>
<text text-anchor="start" x="20.5" y="-459.5" font-family="Helvetica,sans-Serif" font-size="10.00">anch::sql::PreparedStatement</text>
<text text-anchor="start" x="25.38" y="-443.5" font-family="Helvetica,sans-Serif" font-size="10.00">#</text>
<text text-anchor="start" x="43.5" y="-443.5" font-family="Helvetica,sans-Serif" font-size="10.00">_values</text>
<text text-anchor="start" x="25.38" y="-427.5" font-family="Helvetica,sans-Serif" font-size="10.00">#</text>
<text text-anchor="start" x="43.5" y="-427.5" font-family="Helvetica,sans-Serif" font-size="10.00">_nbPlaceholders</text>
<text text-anchor="start" x="25.38" y="-411.5" font-family="Helvetica,sans-Serif" font-size="10.00">+</text>
<text text-anchor="start" x="43.5" y="-411.5" font-family="Helvetica,sans-Serif" font-size="10.00">PreparedStatement()</text>
<text text-anchor="start" x="25.38" y="-395.5" font-family="Helvetica,sans-Serif" font-size="10.00">+</text>
<text text-anchor="start" x="43.5" y="-395.5" font-family="Helvetica,sans-Serif" font-size="10.00">~PreparedStatement()</text>
<text text-anchor="start" x="25.38" y="-379.5" font-family="Helvetica,sans-Serif" font-size="10.00">+</text>
<text text-anchor="start" x="43.5" y="-379.5" font-family="Helvetica,sans-Serif" font-size="10.00">executeQuery()</text>
<text text-anchor="start" x="25.38" y="-363.5" font-family="Helvetica,sans-Serif" font-size="10.00">+</text>
<text text-anchor="start" x="43.5" y="-363.5" font-family="Helvetica,sans-Serif" font-size="10.00">executeUpdate()</text>
<text text-anchor="start" x="25.38" y="-347.5" font-family="Helvetica,sans-Serif" font-size="10.00">+</text>
<text text-anchor="start" x="43.5" y="-347.5" font-family="Helvetica,sans-Serif" font-size="10.00">set()</text>
<text text-anchor="start" x="25.38" y="-331.5" font-family="Helvetica,sans-Serif" font-size="10.00">+</text>
<text text-anchor="start" x="43.5" y="-331.5" font-family="Helvetica,sans-Serif" font-size="10.00">set()</text>
<text text-anchor="start" x="25.38" y="-315.5" font-family="Helvetica,sans-Serif" font-size="10.00">+</text>
<text text-anchor="start" x="43.5" y="-315.5" font-family="Helvetica,sans-Serif" font-size="10.00">set()</text>
<text text-anchor="start" x="25.38" y="-299.5" font-family="Helvetica,sans-Serif" font-size="10.00">+</text>
<text text-anchor="start" x="43.5" y="-299.5" font-family="Helvetica,sans-Serif" font-size="10.00">set()</text>
<text text-anchor="start" x="25.38" y="-283.5" font-family="Helvetica,sans-Serif" font-size="10.00">+</text>
<text text-anchor="start" x="43.5" y="-283.5" font-family="Helvetica,sans-Serif" font-size="10.00">set()</text>
<text text-anchor="start" x="25.38" y="-267.5" font-family="Helvetica,sans-Serif" font-size="10.00">+</text>
<text text-anchor="start" x="43.5" y="-267.5" font-family="Helvetica,sans-Serif" font-size="10.00">set()</text>
<text text-anchor="start" x="25.38" y="-251.5" font-family="Helvetica,sans-Serif" font-size="10.00">+</text>
<text text-anchor="start" x="43.5" y="-251.5" font-family="Helvetica,sans-Serif" font-size="10.00">set()</text>
<text text-anchor="start" x="25.38" y="-235.5" font-family="Helvetica,sans-Serif" font-size="10.00">+</text>
<text text-anchor="start" x="43.5" y="-235.5" font-family="Helvetica,sans-Serif" font-size="10.00">set()</text>
<text text-anchor="start" x="25.38" y="-219.5" font-family="Helvetica,sans-Serif" font-size="10.00">+</text>
<text text-anchor="start" x="43.5" y="-219.5" font-family="Helvetica,sans-Serif" font-size="10.00">set()</text>
<text text-anchor="start" x="25.38" y="-203.5" font-family="Helvetica,sans-Serif" font-size="10.00">+</text>
<text text-anchor="start" x="43.5" y="-203.5" font-family="Helvetica,sans-Serif" font-size="10.00">set()</text>
<text text-anchor="start" x="25.38" y="-187.5" font-family="Helvetica,sans-Serif" font-size="10.00">+</text>
<text text-anchor="start" x="43.5" y="-187.5" font-family="Helvetica,sans-Serif" font-size="10.00">set()</text>
<text text-anchor="start" x="25.38" y="-171.5" font-family="Helvetica,sans-Serif" font-size="10.00">#</text>
<text text-anchor="start" x="43.5" y="-171.5" font-family="Helvetica,sans-Serif" font-size="10.00">getPlaceholders()</text>
<text text-anchor="start" x="25.38" y="-155.5" font-family="Helvetica,sans-Serif" font-size="10.00">#</text>
<text text-anchor="start" x="43.5" y="-155.5" font-family="Helvetica,sans-Serif" font-size="10.00">checkIndex()</text>
<polygon fill="#666666" stroke="#666666" points="15.5,-455 15.5,-455 169.5,-455 169.5,-455 15.5,-455"/>
<polygon fill="#666666" stroke="#666666" points="15.5,-423 15.5,-423 41.5,-423 41.5,-423 15.5,-423"/>
<polygon fill="#666666" stroke="#666666" points="41.5,-423 41.5,-423 169.5,-423 169.5,-423 41.5,-423"/>
<polygon fill="none" stroke="#666666" points="15.5,-149 15.5,-473 169.5,-473 169.5,-149 15.5,-149"/>
</a>
</g>
</g>
<!-- Node2&#45;&gt;Node1 -->
<g id="edge1_Node000001_Node000002" class="edge">
<title>Node2&#45;&gt;Node1</title>
<g id="a_edge1_Node000001_Node000002"><a xlink:title=" ">
<path fill="none" stroke="#63b8ff" d="M92.5,-137.77C92.5,-129.02 92.5,-120.62 92.5,-112.75"/>
<polygon fill="none" stroke="#63b8ff" points="89,-137.5 92.5,-147.5 96,-137.5 89,-137.5"/>
</a>
</g>
</g>
</g>
</svg>
