<?xml version="1.0" encoding="UTF-8" standalone="no"?>
<!DOCTYPE svg PUBLIC "-//W3C//DTD SVG 1.1//EN"
 "http://www.w3.org/Graphics/SVG/1.1/DTD/svg11.dtd">
<!-- Generated by graphviz version 2.40.1 (20161225.0304)
 -->
<!-- Title: anch::logger::LowPriorityWriter Pages: 1 -->
<!--zoomable 705 -->
<svg id="main" version="1.1" xmlns="http://www.w3.org/2000/svg" xmlns:xlink="http://www.w3.org/1999/xlink" xml:space="preserve" onload="init(evt)">
<style type="text/css"><![CDATA[
.edge:hover path { stroke: red; }
.edge:hover polygon { stroke: red; fill: red; }
]]></style>
<script type="text/javascript"><![CDATA[
var edges = document.getElementsByTagName('g');
if (edges && edges.length) {
  for (var i=0;i<edges.length;i++) {
    if (edges[i].id.substr(0,4)=='edge') {
      edges[i].setAttribute('class','edge');
    }
  }
}
]]></script>
        <defs>
                <circle id="rim" cx="0" cy="0" r="7"/>
                <circle id="rim2" cx="0" cy="0" r="3.5"/>
                <g id="zoomPlus">
                        <use xlink:href="#rim" fill="#404040">
                                <set attributeName="fill" to="#808080" begin="zoomplus.mouseover" end="zoomplus.mouseout"/>
                        </use>
                        <path d="M-4,0h8M0,-4v8" fill="none" stroke="white" stroke-width="1.5" pointer-events="none"/>
                </g>
                <g id="zoomMin">
                        <use xlink:href="#rim" fill="#404040">
                                <set attributeName="fill" to="#808080" begin="zoomminus.mouseover" end="zoomminus.mouseout"/>
                        </use>
                        <path d="M-4,0h8" fill="none" stroke="white" stroke-width="1.5" pointer-events="none"/>
                </g>
                <g id="dirArrow">
                        <path fill="none" stroke="white" stroke-width="1.5" d="M0,-3.0v7 M-2.5,-0.5L0,-3.0L2.5,-0.5"/>
                </g>
               <g id="resetDef">
                       <use xlink:href="#rim2" fill="#404040">
                               <set attributeName="fill" to="#808080" begin="reset.mouseover" end="reset.mouseout"/>
                       </use>
               </g>
        </defs>

<script type="text/javascript">
var viewWidth = 263;
var viewHeight = 705;
var sectionId = 'dynsection-1';
</script>
<script xlink:href="svgpan.js"/>
<svg id="graph" class="graph">
<g id="viewport">
<title>anch::logger::LowPriorityWriter</title>
<!-- Node2 -->
<g id="node1" class="node">
<title>Node2</title>
<polygon fill="#bfbfbf" stroke="#000000" points="50.5,-.5 50.5,-112.5 187.5,-112.5 187.5,-.5 50.5,-.5"/>
<text text-anchor="start" x="58.5" y="-100.5" font-family="Helvetica,sans-Serif" font-size="10.00" fill="#000000">anch::logger::LowPriority</text>
<text text-anchor="middle" x="119" y="-89.5" font-family="Helvetica,sans-Serif" font-size="10.00" fill="#000000">Writer</text>
<polyline fill="none" stroke="#000000" points="50.5,-82.5 187.5,-82.5 "/>
<text text-anchor="middle" x="119" y="-70.5" font-family="Helvetica,sans-Serif" font-size="10.00" fill="#000000"> </text>
<polyline fill="none" stroke="#000000" points="50.5,-63.5 187.5,-63.5 "/>
<text text-anchor="start" x="58.5" y="-51.5" font-family="Helvetica,sans-Serif" font-size="10.00" fill="#000000">+ LowPriorityWriter()</text>
<text text-anchor="start" x="58.5" y="-40.5" font-family="Helvetica,sans-Serif" font-size="10.00" fill="#000000">+ LowPriorityWriter()</text>
<text text-anchor="start" x="58.5" y="-29.5" font-family="Helvetica,sans-Serif" font-size="10.00" fill="#000000">+ ~LowPriorityWriter()</text>
<text text-anchor="start" x="58.5" y="-18.5" font-family="Helvetica,sans-Serif" font-size="10.00" fill="#000000">+ write()</text>
<text text-anchor="start" x="58.5" y="-7.5" font-family="Helvetica,sans-Serif" font-size="10.00" fill="#000000">+ startTreatment()</text>
</g>
<!-- Node3 -->
<g id="node2" class="node">
<title>Node3</title>
<g id="a_node2"><a xlink:href="classanch_1_1logger_1_1_writer.html" target="_top" xlink:title="{anch::logger::Writer\n||+ Writer()\l+ Writer()\l+ ~Writer()\l+ write()\l# rotate()\l# rotateFiles()\l}">
<polygon fill="none" stroke="#000000" points="63,-150.5 63,-262.5 175,-262.5 175,-150.5 63,-150.5"/>
<text text-anchor="middle" x="119" y="-250.5" font-family="Helvetica,sans-Serif" font-size="10.00" fill="#000000">anch::logger::Writer</text>
<polyline fill="none" stroke="#000000" points="63,-243.5 175,-243.5 "/>
<text text-anchor="middle" x="119" y="-231.5" font-family="Helvetica,sans-Serif" font-size="10.00" fill="#000000"> </text>
<polyline fill="none" stroke="#000000" points="63,-224.5 175,-224.5 "/>
<text text-anchor="start" x="71" y="-212.5" font-family="Helvetica,sans-Serif" font-size="10.00" fill="#000000">+ Writer()</text>
<text text-anchor="start" x="71" y="-201.5" font-family="Helvetica,sans-Serif" font-size="10.00" fill="#000000">+ Writer()</text>
<text text-anchor="start" x="71" y="-190.5" font-family="Helvetica,sans-Serif" font-size="10.00" fill="#000000">+ ~Writer()</text>
<text text-anchor="start" x="71" y="-179.5" font-family="Helvetica,sans-Serif" font-size="10.00" fill="#000000">+ write()</text>
<text text-anchor="start" x="71" y="-168.5" font-family="Helvetica,sans-Serif" font-size="10.00" fill="#000000"># rotate()</text>
<text text-anchor="start" x="71" y="-157.5" font-family="Helvetica,sans-Serif" font-size="10.00" fill="#000000"># rotateFiles()</text>
</a>
</g>
</g>
<!-- Node3&#45;&gt;Node2 -->
<g id="edge1" class="edge">
<title>Node3&#45;&gt;Node2</title>
<path fill="none" stroke="#191970" d="M119,-139.9946C119,-130.8485 119,-121.5318 119,-112.5978"/>
<polygon fill="none" stroke="#191970" points="115.5001,-140.2187 119,-150.2188 122.5001,-140.2188 115.5001,-140.2187"/>
</g>
<!-- Node4 -->
<g id="node3" class="node">
<title>Node4</title>
<g id="a_node3"><a xlink:href="classanch_1_1logger_1_1formatter_1_1_message_formatter.html" target="_top" xlink:title="{anch::logger::formatter\l::MessageFormatter\n||+ MessageFormatter()\l+ ~MessageFormatter()\l+ formatMessage()\l}">
<polygon fill="none" stroke="#000000" points="0,-310.5 0,-400.5 134,-400.5 134,-310.5 0,-310.5"/>
<text text-anchor="start" x="8" y="-388.5" font-family="Helvetica,sans-Serif" font-size="10.00" fill="#000000">anch::logger::formatter</text>
<text text-anchor="middle" x="67" y="-377.5" font-family="Helvetica,sans-Serif" font-size="10.00" fill="#000000">::MessageFormatter</text>
<polyline fill="none" stroke="#000000" points="0,-370.5 134,-370.5 "/>
<text text-anchor="middle" x="67" y="-358.5" font-family="Helvetica,sans-Serif" font-size="10.00" fill="#000000"> </text>
<polyline fill="none" stroke="#000000" points="0,-351.5 134,-351.5 "/>
<text text-anchor="start" x="8" y="-339.5" font-family="Helvetica,sans-Serif" font-size="10.00" fill="#000000">+ MessageFormatter()</text>
<text text-anchor="start" x="8" y="-328.5" font-family="Helvetica,sans-Serif" font-size="10.00" fill="#000000">+ ~MessageFormatter()</text>
<text text-anchor="start" x="8" y="-317.5" font-family="Helvetica,sans-Serif" font-size="10.00" fill="#000000">+ formatMessage()</text>
</a>
</g>
</g>
<!-- Node4&#45;&gt;Node3 -->
<g id="edge2" class="edge">
<title>Node4&#45;&gt;Node3</title>
<path fill="none" stroke="#404040" d="M77.2544,-310.229C79.8169,-300.4965 82.768,-290.3338 86,-281 86.8136,-278.6503 87.6711,-276.272 88.5626,-273.8801"/>
<polygon fill="none" stroke="#404040" points="88.5846,-273.8236 87.0385,-266.7802 92.9455,-262.644 94.4916,-269.6875 88.5846,-273.8236"/>
<text text-anchor="middle" x="118" y="-284" font-family="Helvetica,sans-Serif" font-size="10.00" fill="#000000"> #_formatter</text>
</g>
<!-- Node5 -->
<g id="node4" class="node">
<title>Node5</title>
<g id="a_node4"><a xlink:title="STL class. ">
<polygon fill="none" stroke="#bfbfbf" points="152,-327 152,-384 230,-384 230,-327 152,-327"/>
<text text-anchor="middle" x="191" y="-372" font-family="Helvetica,sans-Serif" font-size="10.00" fill="#000000">std::ostream</text>
<polyline fill="none" stroke="#bfbfbf" points="152,-365 230,-365 "/>
<text text-anchor="middle" x="191" y="-353" font-family="Helvetica,sans-Serif" font-size="10.00" fill="#000000"> </text>
<polyline fill="none" stroke="#bfbfbf" points="152,-346 230,-346 "/>
<text text-anchor="middle" x="191" y="-334" font-family="Helvetica,sans-Serif" font-size="10.00" fill="#000000"> </text>
</a>
</g>
</g>
<!-- Node5&#45;&gt;Node3 -->
<g id="edge3" class="edge">
<title>Node5&#45;&gt;Node3</title>
<path fill="none" stroke="#404040" d="M177.1177,-326.7713C169.7733,-311.5726 160.4238,-292.2243 151.3819,-273.5125"/>
<polygon fill="none" stroke="#404040" points="151.3322,-273.4096 145.1201,-269.7476 146.1111,-262.6049 152.3232,-266.2669 151.3322,-273.4096"/>
<text text-anchor="middle" x="183.5" y="-284" font-family="Helvetica,sans-Serif" font-size="10.00" fill="#000000"> #_output</text>
</g>
<!-- Node6 -->
<g id="node5" class="node">
<title>Node6</title>
<g id="a_node5"><a xlink:title="STL class. ">
<polygon fill="none" stroke="#bfbfbf" points="136.5,-438.5 136.5,-506.5 245.5,-506.5 245.5,-438.5 136.5,-438.5"/>
<text text-anchor="start" x="144.5" y="-494.5" font-family="Helvetica,sans-Serif" font-size="10.00" fill="#000000">std::basic_ostream</text>
<text text-anchor="middle" x="191" y="-483.5" font-family="Helvetica,sans-Serif" font-size="10.00" fill="#000000">&lt; char &gt;</text>
<polyline fill="none" stroke="#bfbfbf" points="136.5,-476.5 245.5,-476.5 "/>
<text text-anchor="middle" x="191" y="-464.5" font-family="Helvetica,sans-Serif" font-size="10.00" fill="#000000"> </text>
<polyline fill="none" stroke="#bfbfbf" points="136.5,-457.5 245.5,-457.5 "/>
<text text-anchor="middle" x="191" y="-445.5" font-family="Helvetica,sans-Serif" font-size="10.00" fill="#000000"> </text>
</a>
</g>
</g>
<!-- Node6&#45;&gt;Node5 -->
<g id="edge4" class="edge">
<title>Node6&#45;&gt;Node5</title>
<path fill="none" stroke="#191970" d="M191,-427.9743C191,-413.3553 191,-397.4995 191,-384.3568"/>
<polygon fill="none" stroke="#191970" points="187.5001,-428.3442 191,-438.3442 194.5001,-428.3443 187.5001,-428.3442"/>
</g>
<!-- Node7 -->
<g id="node6" class="node">
<title>Node7</title>
<g id="a_node6"><a xlink:title="STL class. ">
<polygon fill="none" stroke="#bfbfbf" points="127,-544.5 127,-601.5 255,-601.5 255,-544.5 127,-544.5"/>
<text text-anchor="middle" x="191" y="-589.5" font-family="Helvetica,sans-Serif" font-size="10.00" fill="#000000">std::basic_ios&lt; Char &gt;</text>
<polyline fill="none" stroke="#bfbfbf" points="127,-582.5 255,-582.5 "/>
<text text-anchor="middle" x="191" y="-570.5" font-family="Helvetica,sans-Serif" font-size="10.00" fill="#000000"> </text>
<polyline fill="none" stroke="#bfbfbf" points="127,-563.5 255,-563.5 "/>
<text text-anchor="middle" x="191" y="-551.5" font-family="Helvetica,sans-Serif" font-size="10.00" fill="#000000"> </text>
</a>
</g>
</g>
<!-- Node7&#45;&gt;Node6 -->
<g id="edge5" class="edge">
<title>Node7&#45;&gt;Node6</title>
<path fill="none" stroke="#191970" d="M191,-534.1903C191,-525.1667 191,-515.6233 191,-506.8097"/>
<polygon fill="none" stroke="#191970" points="187.5001,-534.4695 191,-544.4696 194.5001,-534.4696 187.5001,-534.4695"/>
</g>
<!-- Node8 -->
<g id="node7" class="node">
<title>Node8</title>
<g id="a_node7"><a xlink:title="STL class. ">
<polygon fill="none" stroke="#bfbfbf" points="151,-639.5 151,-696.5 231,-696.5 231,-639.5 151,-639.5"/>
<text text-anchor="middle" x="191" y="-684.5" font-family="Helvetica,sans-Serif" font-size="10.00" fill="#000000">std::ios_base</text>
<polyline fill="none" stroke="#bfbfbf" points="151,-677.5 231,-677.5 "/>
<text text-anchor="middle" x="191" y="-665.5" font-family="Helvetica,sans-Serif" font-size="10.00" fill="#000000"> </text>
<polyline fill="none" stroke="#bfbfbf" points="151,-658.5 231,-658.5 "/>
<text text-anchor="middle" x="191" y="-646.5" font-family="Helvetica,sans-Serif" font-size="10.00" fill="#000000"> </text>
</a>
</g>
</g>
<!-- Node8&#45;&gt;Node7 -->
<g id="edge6" class="edge">
<title>Node8&#45;&gt;Node7</title>
<path fill="none" stroke="#191970" d="M191,-629.3724C191,-620.1627 191,-610.4917 191,-601.8114"/>
<polygon fill="none" stroke="#191970" points="187.5001,-629.4968 191,-639.4969 194.5001,-629.4969 187.5001,-629.4968"/>
</g>
</g>
</svg>
        <g id="navigator" transform="translate(0 0)" fill="#404254">
                <rect fill="#f2f5e9" fill-opacity="0.5" stroke="#606060" stroke-width=".5" x="0" y="0" width="60" height="60"/>
                <use id="zoomplus" xlink:href="#zoomPlus" x="17" y="9" onmousedown="handleZoom(evt,'in')"/>
                <use id="zoomminus" xlink:href="#zoomMin" x="42" y="9" onmousedown="handleZoom(evt,'out')"/>
                <use id="reset" xlink:href="#resetDef" x="30" y="36" onmousedown="handleReset()"/>
                <g id="arrowUp" xlink:href="#dirArrow" transform="translate(30 24)" onmousedown="handlePan(0,-1)">
                  <use xlink:href="#rim" fill="#404040">
                        <set attributeName="fill" to="#808080" begin="arrowUp.mouseover" end="arrowUp.mouseout"/>
                  </use>
                  <path fill="none" stroke="white" stroke-width="1.5" d="M0,-3.0v7 M-2.5,-0.5L0,-3.0L2.5,-0.5"/>
                </g>
                <g id="arrowRight" xlink:href="#dirArrow" transform="rotate(90) translate(36 -43)" onmousedown="handlePan(1,0)">
                  <use xlink:href="#rim" fill="#404040">
                        <set attributeName="fill" to="#808080" begin="arrowRight.mouseover" end="arrowRight.mouseout"/>
                  </use>
                  <path fill="none" stroke="white" stroke-width="1.5" d="M0,-3.0v7 M-2.5,-0.5L0,-3.0L2.5,-0.5"/>
                </g>
                <g id="arrowDown" xlink:href="#dirArrow" transform="rotate(180) translate(-30 -48)" onmousedown="handlePan(0,1)">
                  <use xlink:href="#rim" fill="#404040">
                        <set attributeName="fill" to="#808080" begin="arrowDown.mouseover" end="arrowDown.mouseout"/>
                  </use>
                  <path fill="none" stroke="white" stroke-width="1.5" d="M0,-3.0v7 M-2.5,-0.5L0,-3.0L2.5,-0.5"/>
                </g>
                <g id="arrowLeft" xlink:href="#dirArrow" transform="rotate(270) translate(-36 17)" onmousedown="handlePan(-1,0)">
                  <use xlink:href="#rim" fill="#404040">
                        <set attributeName="fill" to="#808080" begin="arrowLeft.mouseover" end="arrowLeft.mouseout"/>
                  </use>
                  <path fill="none" stroke="white" stroke-width="1.5" d="M0,-3.0v7 M-2.5,-0.5L0,-3.0L2.5,-0.5"/>
                </g>
        </g>
        <svg viewBox="0 0 15 15" width="100%" height="30px" preserveAspectRatio="xMaxYMin meet">
         <g id="arrow_out" transform="scale(0.3 0.3)">
          <a xlink:href="classanch_1_1logger_1_1_low_priority_writer__coll__graph_org.svg" target="_base">
           <rect id="button" ry="5" rx="5" y="6" x="6" height="38" width="38"
                fill="#f2f5e9" fill-opacity="0.5" stroke="#606060" stroke-width="1.0"/>
           <path id="arrow"
             d="M 11.500037,31.436501 C 11.940474,20.09759 22.043105,11.32322 32.158766,21.979434 L 37.068811,17.246167 C 37.068811,17.246167 37.088388,32 37.088388,32 L 22.160133,31.978069 C 22.160133,31.978069 26.997745,27.140456 26.997745,27.140456 C 18.528582,18.264221 13.291696,25.230495 11.500037,31.436501 z"
             style="fill:#404040;"/>
          </a>
         </g>
        </svg>
</svg>
