<?xml version="1.0" encoding="UTF-8" standalone="no"?>
<!DOCTYPE svg PUBLIC "-//W3C//DTD SVG 1.1//EN"
 "http://www.w3.org/Graphics/SVG/1.1/DTD/svg11.dtd">
<!-- Generated by graphviz version 7.0.6 (0)
 -->
<!-- Title: anch::sql::MySQLConnection Pages: 1 -->
<svg width="299pt" height="1214pt"
 viewBox="0.00 0.00 298.50 1214.00" xmlns="http://www.w3.org/2000/svg" xmlns:xlink="http://www.w3.org/1999/xlink">
<g id="graph0" class="graph" transform="scale(1 1) rotate(0) translate(4 1210)">
<title>anch::sql::MySQLConnection</title>
<!-- Node1 -->
<g id="node1" class="node">
<title>Node1</title>
<g id="a_node1"><a xlink:title="MySQL connection.">
<polygon fill="#999999" stroke="#666666" points="74,-0.5 74,-156.5 229,-156.5 229,-0.5 74,-0.5"/>
<text text-anchor="middle" x="151.5" y="-144.5" font-family="Helvetica,sans-Serif" font-size="10.00">anch::sql::MySQLConnection</text>
<polyline fill="none" stroke="#666666" points="74,-137.5 229,-137.5"/>
<text text-anchor="middle" x="151.5" y="-125.5" font-family="Helvetica,sans-Serif" font-size="10.00"> </text>
<polyline fill="none" stroke="#666666" points="74,-118.5 229,-118.5"/>
<text text-anchor="start" x="82" y="-106.5" font-family="Helvetica,sans-Serif" font-size="10.00">+ MySQLConnection()</text>
<text text-anchor="start" x="82" y="-95.5" font-family="Helvetica,sans-Serif" font-size="10.00">+ MySQLConnection()</text>
<text text-anchor="start" x="82" y="-84.5" font-family="Helvetica,sans-Serif" font-size="10.00">+ MySQLConnection()</text>
<text text-anchor="start" x="82" y="-73.5" font-family="Helvetica,sans-Serif" font-size="10.00">+ ~MySQLConnection()</text>
<text text-anchor="start" x="82" y="-62.5" font-family="Helvetica,sans-Serif" font-size="10.00"># executeQuery()</text>
<text text-anchor="start" x="82" y="-51.5" font-family="Helvetica,sans-Serif" font-size="10.00"># executeUpdate()</text>
<text text-anchor="start" x="82" y="-40.5" font-family="Helvetica,sans-Serif" font-size="10.00"># sendCommit()</text>
<text text-anchor="start" x="82" y="-29.5" font-family="Helvetica,sans-Serif" font-size="10.00"># sendRollback()</text>
<text text-anchor="start" x="82" y="-18.5" font-family="Helvetica,sans-Serif" font-size="10.00"># sendStartTransaction()</text>
<text text-anchor="start" x="82" y="-7.5" font-family="Helvetica,sans-Serif" font-size="10.00"># makePrepared()</text>
</a>
</g>
</g>
<!-- Node2 -->
<g id="node2" class="node">
<title>Node2</title>
<g id="a_node2"><a xlink:href="classanch_1_1sql_1_1_connection.html" target="_top" xlink:title="SQL connection virtual class.">
<polygon fill="white" stroke="#666666" points="83,-194.5 83,-449.5 220,-449.5 220,-194.5 83,-194.5"/>
<text text-anchor="middle" x="151.5" y="-437.5" font-family="Helvetica,sans-Serif" font-size="10.00">anch::sql::Connection</text>
<polyline fill="none" stroke="#666666" points="83,-430.5 220,-430.5"/>
<text text-anchor="start" x="91" y="-418.5" font-family="Helvetica,sans-Serif" font-size="10.00"># _valid</text>
<text text-anchor="start" x="91" y="-407.5" font-family="Helvetica,sans-Serif" font-size="10.00"># _transaction</text>
<polyline fill="none" stroke="#666666" points="83,-400.5 220,-400.5"/>
<text text-anchor="start" x="91" y="-388.5" font-family="Helvetica,sans-Serif" font-size="10.00">+ Connection()</text>
<text text-anchor="start" x="91" y="-377.5" font-family="Helvetica,sans-Serif" font-size="10.00">+ Connection()</text>
<text text-anchor="start" x="91" y="-366.5" font-family="Helvetica,sans-Serif" font-size="10.00">+ ~Connection()</text>
<text text-anchor="start" x="91" y="-355.5" font-family="Helvetica,sans-Serif" font-size="10.00">+ startTransaction()</text>
<text text-anchor="start" x="91" y="-344.5" font-family="Helvetica,sans-Serif" font-size="10.00">+ begin()</text>
<text text-anchor="start" x="91" y="-333.5" font-family="Helvetica,sans-Serif" font-size="10.00">+ commit()</text>
<text text-anchor="start" x="91" y="-322.5" font-family="Helvetica,sans-Serif" font-size="10.00">+ rollback()</text>
<text text-anchor="start" x="91" y="-311.5" font-family="Helvetica,sans-Serif" font-size="10.00">+ prepareStatement()</text>
<text text-anchor="start" x="91" y="-300.5" font-family="Helvetica,sans-Serif" font-size="10.00">+ query()</text>
<text text-anchor="start" x="91" y="-289.5" font-family="Helvetica,sans-Serif" font-size="10.00">+ queryMapRow()</text>
<text text-anchor="start" x="91" y="-278.5" font-family="Helvetica,sans-Serif" font-size="10.00">and 8 more...</text>
<text text-anchor="start" x="91" y="-267.5" font-family="Helvetica,sans-Serif" font-size="10.00"># executeQuery()</text>
<text text-anchor="start" x="91" y="-256.5" font-family="Helvetica,sans-Serif" font-size="10.00"># executeUpdate()</text>
<text text-anchor="start" x="91" y="-245.5" font-family="Helvetica,sans-Serif" font-size="10.00"># sendStartTransaction()</text>
<text text-anchor="start" x="91" y="-234.5" font-family="Helvetica,sans-Serif" font-size="10.00"># sendCommit()</text>
<text text-anchor="start" x="91" y="-223.5" font-family="Helvetica,sans-Serif" font-size="10.00"># sendRollback()</text>
<text text-anchor="start" x="91" y="-212.5" font-family="Helvetica,sans-Serif" font-size="10.00"># makePrepared()</text>
<text text-anchor="start" x="91" y="-201.5" font-family="Helvetica,sans-Serif" font-size="10.00"># setValid()</text>
</a>
</g>
</g>
<!-- Node2&#45;&gt;Node1 -->
<g id="edge1" class="edge">
<title>Node2&#45;&gt;Node1</title>
<path fill="none" stroke="#63b8ff" d="M151.5,-183.35C151.5,-174.17 151.5,-165.12 151.5,-156.43"/>
<polygon fill="none" stroke="#63b8ff" points="148,-183.08 151.5,-193.08 155,-183.08 148,-183.08"/>
</g>
<!-- Node3 -->
<g id="node3" class="node">
<title>Node3</title>
<g id="a_node3"><a xlink:title=" ">
<polygon fill="white" stroke="#666666" points="60,-497.5 60,-565.5 243,-565.5 243,-497.5 60,-497.5"/>
<text text-anchor="start" x="68" y="-553.5" font-family="Helvetica,sans-Serif" font-size="10.00">std::map&lt; std::string,</text>
<text text-anchor="middle" x="151.5" y="-542.5" font-family="Helvetica,sans-Serif" font-size="10.00"> anch::sql::PreparedStatement * &gt;</text>
<polyline fill="none" stroke="#666666" points="60,-535.5 243,-535.5"/>
<text text-anchor="middle" x="151.5" y="-523.5" font-family="Helvetica,sans-Serif" font-size="10.00"> </text>
<polyline fill="none" stroke="#666666" points="60,-516.5 243,-516.5"/>
<text text-anchor="middle" x="151.5" y="-504.5" font-family="Helvetica,sans-Serif" font-size="10.00"> </text>
</a>
</g>
</g>
<!-- Node3&#45;&gt;Node2 -->
<g id="edge2" class="edge">
<title>Node3&#45;&gt;Node2</title>
<path fill="none" stroke="#404040" d="M151.5,-497.62C151.5,-487.23 151.5,-475.02 151.5,-461.97"/>
<polygon fill="none" stroke="#404040" points="151.5,-462.13 147.5,-456.13 151.5,-450.13 155.5,-456.13 151.5,-462.13"/>
<text text-anchor="middle" x="174" y="-471" font-family="Helvetica,sans-Serif" font-size="10.00"> #_stmts</text>
</g>
<!-- Node4 -->
<g id="node4" class="node">
<title>Node4</title>
<g id="a_node4"><a xlink:title=" ">
<polygon fill="white" stroke="#666666" points="164,-1032.5 164,-1089.5 229,-1089.5 229,-1032.5 164,-1032.5"/>
<text text-anchor="middle" x="196.5" y="-1077.5" font-family="Helvetica,sans-Serif" font-size="10.00">std::string</text>
<polyline fill="none" stroke="#666666" points="164,-1070.5 229,-1070.5"/>
<text text-anchor="middle" x="196.5" y="-1058.5" font-family="Helvetica,sans-Serif" font-size="10.00"> </text>
<polyline fill="none" stroke="#666666" points="164,-1051.5 229,-1051.5"/>
<text text-anchor="middle" x="196.5" y="-1039.5" font-family="Helvetica,sans-Serif" font-size="10.00"> </text>
</a>
</g>
</g>
<!-- Node4&#45;&gt;Node3 -->
<g id="edge3" class="edge">
<title>Node4&#45;&gt;Node3</title>
<path fill="none" stroke="#404040" d="M228.75,-1037.65C235.93,-1030.95 242.57,-1022.96 246.5,-1014 250.43,-1005.05 246.56,-1001.78 246.5,-992 245.39,-823.54 305.63,-768.78 241.5,-613 235.39,-598.16 224.89,-585 213.17,-573.84"/>
<polygon fill="none" stroke="#404040" points="213.22,-573.89 206.08,-572.9 204.24,-565.92 211.39,-566.91 213.22,-573.89"/>
<text text-anchor="middle" x="273.5" y="-873.5" font-family="Helvetica,sans-Serif" font-size="10.00"> +keys</text>
</g>
<!-- Node7 -->
<g id="node7" class="node">
<title>Node7</title>
<g id="a_node7"><a xlink:title=" ">
<polygon fill="white" stroke="#666666" points="121,-905.5 121,-973.5 232,-973.5 232,-905.5 121,-905.5"/>
<text text-anchor="start" x="129" y="-961.5" font-family="Helvetica,sans-Serif" font-size="10.00">std::map&lt; std::size</text>
<text text-anchor="middle" x="176.5" y="-950.5" font-family="Helvetica,sans-Serif" font-size="10.00">_t, std::string &gt;</text>
<polyline fill="none" stroke="#666666" points="121,-943.5 232,-943.5"/>
<text text-anchor="start" x="129" y="-931.5" font-family="Helvetica,sans-Serif" font-size="10.00">+ keys</text>
<polyline fill="none" stroke="#666666" points="121,-924.5 232,-924.5"/>
<text text-anchor="middle" x="176.5" y="-912.5" font-family="Helvetica,sans-Serif" font-size="10.00"> </text>
</a>
</g>
</g>
<!-- Node4&#45;&gt;Node7 -->
<g id="edge7" class="edge">
<title>Node4&#45;&gt;Node7</title>
<path fill="none" stroke="#404040" d="M191.72,-1032.77C190.65,-1026.6 189.52,-1020.07 188.5,-1014 186.98,-1004.99 185.39,-995.35 183.87,-986.12"/>
<polygon fill="none" stroke="#404040" points="183.88,-986.17 178.97,-980.9 181.95,-974.33 186.86,-979.61 183.88,-986.17"/>
<text text-anchor="middle" x="217.5" y="-1000.5" font-family="Helvetica,sans-Serif" font-size="10.00"> +elements</text>
</g>
<!-- Node5 -->
<g id="node5" class="node">
<title>Node5</title>
<g id="a_node5"><a xlink:title=" ">
<polygon fill="white" stroke="#666666" points="144.5,-1137.5 144.5,-1205.5 248.5,-1205.5 248.5,-1137.5 144.5,-1137.5"/>
<text text-anchor="start" x="152.5" y="-1193.5" font-family="Helvetica,sans-Serif" font-size="10.00">std::basic_string&lt;</text>
<text text-anchor="middle" x="196.5" y="-1182.5" font-family="Helvetica,sans-Serif" font-size="10.00"> Char &gt;</text>
<polyline fill="none" stroke="#666666" points="144.5,-1175.5 248.5,-1175.5"/>
<text text-anchor="middle" x="196.5" y="-1163.5" font-family="Helvetica,sans-Serif" font-size="10.00"> </text>
<polyline fill="none" stroke="#666666" points="144.5,-1156.5 248.5,-1156.5"/>
<text text-anchor="middle" x="196.5" y="-1144.5" font-family="Helvetica,sans-Serif" font-size="10.00"> </text>
</a>
</g>
</g>
<!-- Node5&#45;&gt;Node4 -->
<g id="edge4" class="edge">
<title>Node5&#45;&gt;Node4</title>
<path fill="none" stroke="#63b8ff" d="M196.5,-1126.4C196.5,-1113.83 196.5,-1100.51 196.5,-1089.26"/>
<polygon fill="none" stroke="#63b8ff" points="193,-1126.14 196.5,-1136.14 200,-1126.14 193,-1126.14"/>
</g>
<!-- Node6 -->
<g id="node6" class="node">
<title>Node6</title>
<g id="a_node6"><a xlink:href="classanch_1_1sql_1_1_prepared_statement.html" target="_top" xlink:title="SQL prepared statement.">
<polygon fill="white" stroke="#666666" points="71,-613.5 71,-846.5 232,-846.5 232,-613.5 71,-613.5"/>
<text text-anchor="middle" x="151.5" y="-834.5" font-family="Helvetica,sans-Serif" font-size="10.00">anch::sql::PreparedStatement</text>
<polyline fill="none" stroke="#666666" points="71,-827.5 232,-827.5"/>
<text text-anchor="start" x="79" y="-815.5" font-family="Helvetica,sans-Serif" font-size="10.00"># _nbPlaceholders</text>
<polyline fill="none" stroke="#666666" points="71,-808.5 232,-808.5"/>
<text text-anchor="start" x="79" y="-796.5" font-family="Helvetica,sans-Serif" font-size="10.00">+ PreparedStatement()</text>
<text text-anchor="start" x="79" y="-785.5" font-family="Helvetica,sans-Serif" font-size="10.00">+ ~PreparedStatement()</text>
<text text-anchor="start" x="79" y="-774.5" font-family="Helvetica,sans-Serif" font-size="10.00">+ executeQuery()</text>
<text text-anchor="start" x="79" y="-763.5" font-family="Helvetica,sans-Serif" font-size="10.00">+ executeUpdate()</text>
<text text-anchor="start" x="79" y="-752.5" font-family="Helvetica,sans-Serif" font-size="10.00">+ set()</text>
<text text-anchor="start" x="79" y="-741.5" font-family="Helvetica,sans-Serif" font-size="10.00">+ set()</text>
<text text-anchor="start" x="79" y="-730.5" font-family="Helvetica,sans-Serif" font-size="10.00">+ set()</text>
<text text-anchor="start" x="79" y="-719.5" font-family="Helvetica,sans-Serif" font-size="10.00">+ set()</text>
<text text-anchor="start" x="79" y="-708.5" font-family="Helvetica,sans-Serif" font-size="10.00">+ set()</text>
<text text-anchor="start" x="79" y="-697.5" font-family="Helvetica,sans-Serif" font-size="10.00">+ set()</text>
<text text-anchor="start" x="79" y="-686.5" font-family="Helvetica,sans-Serif" font-size="10.00">+ set()</text>
<text text-anchor="start" x="79" y="-675.5" font-family="Helvetica,sans-Serif" font-size="10.00">+ set()</text>
<text text-anchor="start" x="79" y="-664.5" font-family="Helvetica,sans-Serif" font-size="10.00">+ set()</text>
<text text-anchor="start" x="79" y="-653.5" font-family="Helvetica,sans-Serif" font-size="10.00">+ set()</text>
<text text-anchor="start" x="79" y="-642.5" font-family="Helvetica,sans-Serif" font-size="10.00">+ set()</text>
<text text-anchor="start" x="79" y="-631.5" font-family="Helvetica,sans-Serif" font-size="10.00"># getPlaceholders()</text>
<text text-anchor="start" x="79" y="-620.5" font-family="Helvetica,sans-Serif" font-size="10.00"># checkIndex()</text>
</a>
</g>
</g>
<!-- Node6&#45;&gt;Node3 -->
<g id="edge5" class="edge">
<title>Node6&#45;&gt;Node3</title>
<path fill="none" stroke="#404040" d="M151.5,-613.56C151.5,-601.11 151.5,-589.03 151.5,-578.18"/>
<polygon fill="none" stroke="#404040" points="151.5,-578.04 147.5,-572.04 151.5,-566.04 155.5,-572.04 151.5,-578.04"/>
<text text-anchor="middle" x="180.5" y="-587" font-family="Helvetica,sans-Serif" font-size="10.00"> +elements</text>
</g>
<!-- Node7&#45;&gt;Node6 -->
<g id="edge6" class="edge">
<title>Node7&#45;&gt;Node6</title>
<path fill="none" stroke="#404040" d="M172.54,-905.62C170.94,-892.38 168.99,-876.19 166.93,-859.06"/>
<polygon fill="none" stroke="#404040" points="166.95,-859.26 162.26,-853.78 165.52,-847.34 170.21,-852.82 166.95,-859.26"/>
<text text-anchor="middle" x="194" y="-873.5" font-family="Helvetica,sans-Serif" font-size="10.00"> #_values</text>
</g>
<!-- Node8 -->
<g id="node8" class="node">
<title>Node8</title>
<g id="a_node8"><a xlink:title=" ">
<polygon fill="white" stroke="#666666" points="0,-1032.5 0,-1089.5 101,-1089.5 101,-1032.5 0,-1032.5"/>
<text text-anchor="middle" x="50.5" y="-1077.5" font-family="Helvetica,sans-Serif" font-size="10.00">std::map&lt; K, T &gt;</text>
<polyline fill="none" stroke="#666666" points="0,-1070.5 101,-1070.5"/>
<text text-anchor="middle" x="50.5" y="-1058.5" font-family="Helvetica,sans-Serif" font-size="10.00"> </text>
<polyline fill="none" stroke="#666666" points="0,-1051.5 101,-1051.5"/>
<text text-anchor="middle" x="50.5" y="-1039.5" font-family="Helvetica,sans-Serif" font-size="10.00"> </text>
</a>
</g>
</g>
<!-- Node8&#45;&gt;Node3 -->
<g id="edge11" class="edge">
<title>Node8&#45;&gt;Node3</title>
<path fill="none" stroke="orange" d="M40.44,-1021.5C21.46,-940.23 -11.56,-747.61 61.5,-613 71.5,-594.58 87.42,-578.26 103.11,-565.22"/>
<polygon fill="orange" stroke="orange" points="37.03,-1022.29 42.78,-1031.19 43.84,-1020.65 37.03,-1022.29"/>
<text text-anchor="start" x="19.5" y="-879" font-family="Helvetica,sans-Serif" font-size="10.00"> &lt; std::string, anch</text>
<text text-anchor="middle" x="90" y="-868" font-family="Helvetica,sans-Serif" font-size="10.00">::sql::PreparedStatement * &gt;</text>
</g>
<!-- Node8&#45;&gt;Node7 -->
<g id="edge8" class="edge">
<title>Node8&#45;&gt;Node7</title>
<path fill="none" stroke="orange" d="M71,-1022.96C77.94,-1012.25 86.3,-1001.04 95.5,-992 103.23,-984.41 112.25,-977.36 121.42,-971.05"/>
<polygon fill="orange" stroke="orange" points="68.14,-1020.93 65.84,-1031.27 74.09,-1024.62 68.14,-1020.93"/>
<text text-anchor="start" x="95.5" y="-1006" font-family="Helvetica,sans-Serif" font-size="10.00"> &lt; std::size_t, std</text>
<text text-anchor="middle" x="138" y="-995" font-family="Helvetica,sans-Serif" font-size="10.00">::string &gt;</text>
</g>
<!-- Node9 -->
<g id="node9" class="node">
<title>Node9</title>
<g id="a_node9"><a xlink:title=" ">
<polygon fill="white" stroke="#bfbfbf" points="23,-1143 23,-1200 52,-1200 52,-1143 23,-1143"/>
<text text-anchor="middle" x="37.5" y="-1188" font-family="Helvetica,sans-Serif" font-size="10.00">K</text>
<polyline fill="none" stroke="#bfbfbf" points="23,-1181 52,-1181"/>
<text text-anchor="middle" x="37.5" y="-1169" font-family="Helvetica,sans-Serif" font-size="10.00"> </text>
<polyline fill="none" stroke="#bfbfbf" points="23,-1162 52,-1162"/>
<text text-anchor="middle" x="37.5" y="-1150" font-family="Helvetica,sans-Serif" font-size="10.00"> </text>
</a>
</g>
</g>
<!-- Node9&#45;&gt;Node8 -->
<g id="edge9" class="edge">
<title>Node9&#45;&gt;Node8</title>
<path fill="none" stroke="#404040" d="M36.53,-1143.01C36.51,-1132.07 36.95,-1119.4 38.5,-1108 38.79,-1105.86 39.15,-1103.68 39.55,-1101.49"/>
<polygon fill="none" stroke="#404040" points="39.53,-1101.63 36.91,-1094.91 42.11,-1089.91 44.72,-1096.63 39.53,-1101.63"/>
<text text-anchor="middle" x="55.5" y="-1111" font-family="Helvetica,sans-Serif" font-size="10.00"> +keys</text>
</g>
<!-- Node10 -->
<g id="node10" class="node">
<title>Node10</title>
<g id="a_node10"><a xlink:title=" ">
<polygon fill="white" stroke="#bfbfbf" points="80,-1143 80,-1200 109,-1200 109,-1143 80,-1143"/>
<text text-anchor="middle" x="94.5" y="-1188" font-family="Helvetica,sans-Serif" font-size="10.00">T</text>
<polyline fill="none" stroke="#bfbfbf" points="80,-1181 109,-1181"/>
<text text-anchor="middle" x="94.5" y="-1169" font-family="Helvetica,sans-Serif" font-size="10.00"> </text>
<polyline fill="none" stroke="#bfbfbf" points="80,-1162 109,-1162"/>
<text text-anchor="middle" x="94.5" y="-1150" font-family="Helvetica,sans-Serif" font-size="10.00"> </text>
</a>
</g>
</g>
<!-- Node10&#45;&gt;Node8 -->
<g id="edge10" class="edge">
<title>Node10&#45;&gt;Node8</title>
<path fill="none" stroke="#404040" d="M85.6,-1143.19C81.82,-1132.16 77.21,-1119.37 72.5,-1108 71.5,-1105.57 70.43,-1103.09 69.33,-1100.59"/>
<polygon fill="none" stroke="#404040" points="69.4,-1100.75 63.26,-1096.96 64.4,-1089.84 70.53,-1093.63 69.4,-1100.75"/>
<text text-anchor="middle" x="106.5" y="-1111" font-family="Helvetica,sans-Serif" font-size="10.00"> +elements</text>
</g>
</g>
</svg>
