<?xml version="1.0" encoding="UTF-8" standalone="no"?>
<!DOCTYPE svg PUBLIC "-//W3C//DTD SVG 1.1//EN"
 "http://www.w3.org/Graphics/SVG/1.1/DTD/svg11.dtd">
<!-- Generated by graphviz version 7.0.4 (0)
 -->
<!-- Title: anch::logger::LowPriorityWriter Pages: 1 -->
<!--zoomable 570 -->
<svg id="main" version="1.1" xmlns="http://www.w3.org/2000/svg" xmlns:xlink="http://www.w3.org/1999/xlink" xml:space="preserve" onload="init(evt)">
<style type="text/css"><![CDATA[
.edge:hover path { stroke: red; }
.edge:hover polygon { stroke: red; fill: red; }
]]></style>
<script type="text/javascript"><![CDATA[
var edges = document.getElementsByTagName('g');
if (edges && edges.length) {
  for (var i=0;i<edges.length;i++) {
    if (edges[i].id.substr(0,4)=='edge') {
      edges[i].setAttribute('class','edge');
    }
  }
}
]]></script>
        <defs>
                <circle id="rim" cx="0" cy="0" r="7"/>
                <circle id="rim2" cx="0" cy="0" r="3.5"/>
                <g id="zoomPlus">
                        <use xlink:href="#rim" fill="#404040">
                                <set attributeName="fill" to="#808080" begin="zoomplus.mouseover" end="zoomplus.mouseout"/>
                        </use>
                        <path d="M-4,0h8M0,-4v8" fill="none" stroke="white" stroke-width="1.5" pointer-events="none"/>
                </g>
                <g id="zoomMin">
                        <use xlink:href="#rim" fill="#404040">
                                <set attributeName="fill" to="#808080" begin="zoomminus.mouseover" end="zoomminus.mouseout"/>
                        </use>
                        <path d="M-4,0h8" fill="none" stroke="white" stroke-width="1.5" pointer-events="none"/>
                </g>
                <g id="dirArrow">
                        <path fill="none" stroke="white" stroke-width="1.5" d="M0,-3.0v7 M-2.5,-0.5L0,-3.0L2.5,-0.5"/>
                </g>
               <g id="resetDef">
                       <use xlink:href="#rim2" fill="#404040">
                               <set attributeName="fill" to="#808080" begin="reset.mouseover" end="reset.mouseout"/>
                       </use>
               </g>
        </defs>

<script type="text/javascript">
var viewWidth = 271;
var viewHeight = 570;
var sectionId = 'dynsection-1';
</script>
<script xlink:href="svgpan.js"/>
<svg id="graph" class="graph">
<g id="viewport">
<title>anch::logger::LowPriorityWriter</title>
<!-- Node1 -->
<g id="node1" class="node">
<title>Node1</title>
<g id="a_node1"><a xlink:title=" ">
<polygon fill="#999999" stroke="#666666" points="202.5,-96 59.5,-96 59.5,0 202.5,0 202.5,-96"/>
<text text-anchor="start" x="67.5" y="-84" font-family="Helvetica,sans-Serif" font-size="10.00">{anch::logger::LowPriority</text>
<text text-anchor="middle" x="131" y="-73" font-family="Helvetica,sans-Serif" font-size="10.00">Writer</text>
<text text-anchor="start" x="67.5" y="-62" font-family="Helvetica,sans-Serif" font-size="10.00">||+ LowPriorityWriter()</text>
<text text-anchor="start" x="67.5" y="-51" font-family="Helvetica,sans-Serif" font-size="10.00">+ LowPriorityWriter()</text>
<text text-anchor="start" x="67.5" y="-40" font-family="Helvetica,sans-Serif" font-size="10.00">+ ~LowPriorityWriter()</text>
<text text-anchor="start" x="67.5" y="-29" font-family="Helvetica,sans-Serif" font-size="10.00">+ write()</text>
<text text-anchor="start" x="67.5" y="-18" font-family="Helvetica,sans-Serif" font-size="10.00">+ startTreatment()</text>
<text text-anchor="middle" x="131" y="-7" font-family="Helvetica,sans-Serif" font-size="10.00">}</text>
</a>
</g>
</g>
<!-- Node2 -->
<g id="node2" class="node">
<title>Node2</title>
<g id="a_node2"><a xlink:href="classanch_1_1logger_1_1_writer.html" target="_top" xlink:title=" ">
<polygon fill="white" stroke="#666666" points="190.5,-229 71.5,-229 71.5,-133 190.5,-133 190.5,-229"/>
<text text-anchor="middle" x="131" y="-217" font-family="Helvetica,sans-Serif" font-size="10.00">{anch::logger::Writer</text>
<text text-anchor="start" x="79.5" y="-206" font-family="Helvetica,sans-Serif" font-size="10.00">||+ Writer()</text>
<text text-anchor="start" x="79.5" y="-195" font-family="Helvetica,sans-Serif" font-size="10.00">+ Writer()</text>
<text text-anchor="start" x="79.5" y="-184" font-family="Helvetica,sans-Serif" font-size="10.00">+ ~Writer()</text>
<text text-anchor="start" x="79.5" y="-173" font-family="Helvetica,sans-Serif" font-size="10.00">+ write()</text>
<text text-anchor="start" x="79.5" y="-162" font-family="Helvetica,sans-Serif" font-size="10.00"># rotate()</text>
<text text-anchor="start" x="79.5" y="-151" font-family="Helvetica,sans-Serif" font-size="10.00"># rotateFiles()</text>
<text text-anchor="middle" x="131" y="-140" font-family="Helvetica,sans-Serif" font-size="10.00">}</text>
</a>
</g>
</g>
<!-- Node2&#45;&gt;Node1 -->
<g id="edge1" class="edge">
<title>Node2&#45;&gt;Node1</title>
<path fill="none" stroke="#63b8ff" d="M131,-121.37C131,-112.96 131,-104.38 131,-96.22"/>
<polygon fill="none" stroke="#63b8ff" points="127.5,-121.19 131,-131.19 134.5,-121.19 127.5,-121.19"/>
</g>
<!-- Node3 -->
<g id="node3" class="node">
<title>Node3</title>
<g id="a_node3"><a xlink:title=" ">
<polygon fill="white" stroke="#666666" points="109,-328 25,-328 25,-298 109,-298 109,-328"/>
<text text-anchor="middle" x="67" y="-316" font-family="Helvetica,sans-Serif" font-size="10.00">{std::ostream</text>
<text text-anchor="middle" x="67" y="-305" font-family="Helvetica,sans-Serif" font-size="10.00">||}</text>
</a>
</g>
</g>
<!-- Node3&#45;&gt;Node2 -->
<g id="edge2" class="edge">
<title>Node3&#45;&gt;Node2</title>
<path fill="none" stroke="#404040" d="M74.09,-297.59C80.9,-283.76 91.65,-261.92 101.98,-240.94"/>
<polygon fill="none" stroke="#404040" points="101.95,-241 101.01,-233.85 107.25,-230.24 108.19,-237.39 101.95,-241"/>
<text text-anchor="middle" x="123.5" y="-250" font-family="Helvetica,sans-Serif" font-size="10.00"> #_output</text>
</g>
<!-- Node4 -->
<g id="node4" class="node">
<title>Node4</title>
<g id="a_node4"><a xlink:title=" ">
<polygon fill="white" stroke="#666666" points="124.5,-428 9.5,-428 9.5,-387 124.5,-387 124.5,-428"/>
<text text-anchor="start" x="17.5" y="-416" font-family="Helvetica,sans-Serif" font-size="10.00">{std::basic_ostream</text>
<text text-anchor="middle" x="67" y="-405" font-family="Helvetica,sans-Serif" font-size="10.00">&lt; Char &gt;</text>
<text text-anchor="middle" x="67" y="-394" font-family="Helvetica,sans-Serif" font-size="10.00">||}</text>
</a>
</g>
</g>
<!-- Node4&#45;&gt;Node3 -->
<g id="edge3" class="edge">
<title>Node4&#45;&gt;Node3</title>
<path fill="none" stroke="#63b8ff" d="M67,-375.41C67,-359.53 67,-340.97 67,-328.45"/>
<polygon fill="none" stroke="#63b8ff" points="63.5,-375.37 67,-385.37 70.5,-375.37 63.5,-375.37"/>
</g>
<!-- Node5 -->
<g id="node5" class="node">
<title>Node5</title>
<g id="a_node5"><a xlink:title=" ">
<polygon fill="white" stroke="#666666" points="134,-495 0,-495 0,-465 134,-465 134,-495"/>
<text text-anchor="middle" x="67" y="-483" font-family="Helvetica,sans-Serif" font-size="10.00">{std::basic_ios&lt; Char &gt;</text>
<text text-anchor="middle" x="67" y="-472" font-family="Helvetica,sans-Serif" font-size="10.00">||}</text>
</a>
</g>
</g>
<!-- Node5&#45;&gt;Node4 -->
<g id="edge4" class="edge">
<title>Node5&#45;&gt;Node4</title>
<path fill="none" stroke="#63b8ff" d="M67,-453.42C67,-445.16 67,-436.14 67,-428.36"/>
<polygon fill="none" stroke="#63b8ff" points="63.5,-453.22 67,-463.22 70.5,-453.22 63.5,-453.22"/>
</g>
<!-- Node6 -->
<g id="node6" class="node">
<title>Node6</title>
<g id="a_node6"><a xlink:title=" ">
<polygon fill="white" stroke="#666666" points="110,-562 24,-562 24,-532 110,-532 110,-562"/>
<text text-anchor="middle" x="67" y="-550" font-family="Helvetica,sans-Serif" font-size="10.00">{std::ios_base</text>
<text text-anchor="middle" x="67" y="-539" font-family="Helvetica,sans-Serif" font-size="10.00">||}</text>
</a>
</g>
</g>
<!-- Node6&#45;&gt;Node5 -->
<g id="edge5" class="edge">
<title>Node6&#45;&gt;Node5</title>
<path fill="none" stroke="#63b8ff" d="M67,-520.28C67,-511.81 67,-502.7 67,-495.39"/>
<polygon fill="none" stroke="#63b8ff" points="63.5,-520.06 67,-530.06 70.5,-520.06 63.5,-520.06"/>
</g>
<!-- Node7 -->
<g id="node7" class="node">
<title>Node7</title>
<g id="a_node7"><a xlink:href="classanch_1_1logger_1_1formatter_1_1_message_formatter.html" target="_top" xlink:title=" ">
<polygon fill="white" stroke="#666666" points="262.5,-350 127.5,-350 127.5,-276 262.5,-276 262.5,-350"/>
<text text-anchor="start" x="135.5" y="-338" font-family="Helvetica,sans-Serif" font-size="10.00">{anch::logger::formatter</text>
<text text-anchor="middle" x="195" y="-327" font-family="Helvetica,sans-Serif" font-size="10.00">::MessageFormatter</text>
<text text-anchor="start" x="135.5" y="-316" font-family="Helvetica,sans-Serif" font-size="10.00">||+ MessageFormatter()</text>
<text text-anchor="start" x="135.5" y="-305" font-family="Helvetica,sans-Serif" font-size="10.00">+ ~MessageFormatter()</text>
<text text-anchor="start" x="135.5" y="-294" font-family="Helvetica,sans-Serif" font-size="10.00">+ formatMessage()</text>
<text text-anchor="middle" x="195" y="-283" font-family="Helvetica,sans-Serif" font-size="10.00">}</text>
</a>
</g>
</g>
<!-- Node7&#45;&gt;Node2 -->
<g id="edge6" class="edge">
<title>Node7&#45;&gt;Node2</title>
<path fill="none" stroke="#404040" d="M177.17,-275.79C171.79,-264.86 165.74,-252.56 159.83,-240.57"/>
<polygon fill="none" stroke="#404040" points="159.94,-240.78 153.7,-237.17 154.64,-230.02 160.88,-233.63 159.94,-240.78"/>
<text text-anchor="middle" x="198" y="-250" font-family="Helvetica,sans-Serif" font-size="10.00"> #_formatter</text>
</g>
</g>
</svg>
        <g id="navigator" transform="translate(0 0)" fill="#404254">
                <rect fill="#f2f5e9" fill-opacity="0.5" stroke="#606060" stroke-width=".5" x="0" y="0" width="60" height="60"/>
                <use id="zoomplus" xlink:href="#zoomPlus" x="17" y="9" onmousedown="handleZoom(evt,'in')"/>
                <use id="zoomminus" xlink:href="#zoomMin" x="42" y="9" onmousedown="handleZoom(evt,'out')"/>
                <use id="reset" xlink:href="#resetDef" x="30" y="36" onmousedown="handleReset()"/>
                <g id="arrowUp" xlink:href="#dirArrow" transform="translate(30 24)" onmousedown="handlePan(0,-1)">
                  <use xlink:href="#rim" fill="#404040">
                        <set attributeName="fill" to="#808080" begin="arrowUp.mouseover" end="arrowUp.mouseout"/>
                  </use>
                  <path fill="none" stroke="white" stroke-width="1.5" d="M0,-3.0v7 M-2.5,-0.5L0,-3.0L2.5,-0.5"/>
                </g>
                <g id="arrowRight" xlink:href="#dirArrow" transform="rotate(90) translate(36 -43)" onmousedown="handlePan(1,0)">
                  <use xlink:href="#rim" fill="#404040">
                        <set attributeName="fill" to="#808080" begin="arrowRight.mouseover" end="arrowRight.mouseout"/>
                  </use>
                  <path fill="none" stroke="white" stroke-width="1.5" d="M0,-3.0v7 M-2.5,-0.5L0,-3.0L2.5,-0.5"/>
                </g>
                <g id="arrowDown" xlink:href="#dirArrow" transform="rotate(180) translate(-30 -48)" onmousedown="handlePan(0,1)">
                  <use xlink:href="#rim" fill="#404040">
                        <set attributeName="fill" to="#808080" begin="arrowDown.mouseover" end="arrowDown.mouseout"/>
                  </use>
                  <path fill="none" stroke="white" stroke-width="1.5" d="M0,-3.0v7 M-2.5,-0.5L0,-3.0L2.5,-0.5"/>
                </g>
                <g id="arrowLeft" xlink:href="#dirArrow" transform="rotate(270) translate(-36 17)" onmousedown="handlePan(-1,0)">
                  <use xlink:href="#rim" fill="#404040">
                        <set attributeName="fill" to="#808080" begin="arrowLeft.mouseover" end="arrowLeft.mouseout"/>
                  </use>
                  <path fill="none" stroke="white" stroke-width="1.5" d="M0,-3.0v7 M-2.5,-0.5L0,-3.0L2.5,-0.5"/>
                </g>
        </g>
        <svg viewBox="0 0 15 15" width="100%" height="30px" preserveAspectRatio="xMaxYMin meet">
         <g id="arrow_out" transform="scale(0.3 0.3)">
          <a xlink:href="classanch_1_1logger_1_1_low_priority_writer__coll__graph_org.svg" target="_base">
           <rect id="button" ry="5" rx="5" y="6" x="6" height="38" width="38"
                fill="#f2f5e9" fill-opacity="0.5" stroke="#606060" stroke-width="1.0"/>
           <path id="arrow"
             d="M 11.500037,31.436501 C 11.940474,20.09759 22.043105,11.32322 32.158766,21.979434 L 37.068811,17.246167 C 37.068811,17.246167 37.088388,32 37.088388,32 L 22.160133,31.978069 C 22.160133,31.978069 26.997745,27.140456 26.997745,27.140456 C 18.528582,18.264221 13.291696,25.230495 11.500037,31.436501 z"
             style="fill:#404040;"/>
          </a>
         </g>
        </svg>
</svg>
