<?xml version="1.0" encoding="UTF-8" standalone="no"?>
<!DOCTYPE svg PUBLIC "-//W3C//DTD SVG 1.1//EN"
 "http://www.w3.org/Graphics/SVG/1.1/DTD/svg11.dtd">
<!-- Generated by graphviz version 12.2.1 (0)
 -->
<!-- Title: anch::sql::ResultSet::get Pages: 1 -->
<svg width="294pt" height="46pt"
 viewBox="0.00 0.00 293.50 46.00" xmlns="http://www.w3.org/2000/svg" xmlns:xlink="http://www.w3.org/1999/xlink">
<g id="graph0" class="graph" transform="scale(1 1) rotate(0) translate(4 42)">
<title>anch::sql::ResultSet::get</title>
<!-- Node1 -->
<g id="Node000001" class="node">
<title>Node1</title>
<g id="a_Node000001"><a xlink:title=" ">
<polygon fill="#999999" stroke="#666666" points="124.75,-20 0,-20 0,0 124.75,0 124.75,-20"/>
<text text-anchor="middle" x="62.38" y="-6.5" font-family="Helvetica,sans-Serif" font-size="10.00">anch::sql::ResultSet::get</text>
</a>
</g>
</g>
<!-- Node2 -->
<g id="Node000002" class="node">
<title>Node2</title>
<g id="a_Node000002"><a xlink:href="classanch_1_1sql_1_1_result_set.html#ab95995f01abd8000bad67d0226d76929" target="_top" xlink:title=" ">
<polygon fill="white" stroke="#666666" points="285.5,-20 160.75,-20 160.75,0 285.5,0 285.5,-20"/>
<text text-anchor="middle" x="223.12" y="-6.5" font-family="Helvetica,sans-Serif" font-size="10.00">anch::sql::ResultSet::get</text>
</a>
</g>
</g>
<!-- Node1&#45;&gt;Node2 -->
<g id="edge1_Node000001_Node000002" class="edge">
<title>Node1&#45;&gt;Node2</title>
<g id="a_edge1_Node000001_Node000002"><a xlink:title=" ">
<path fill="none" stroke="#63b8ff" d="M125.21,-10C133.08,-10 141.19,-10 149.21,-10"/>
<polygon fill="#63b8ff" stroke="#63b8ff" points="148.95,-13.5 158.95,-10 148.95,-6.5 148.95,-13.5"/>
</a>
</g>
</g>
<!-- Node2&#45;&gt;Node2 -->
<g id="edge2_Node000002_Node000002" class="edge">
<title>Node2&#45;&gt;Node2</title>
<g id="a_edge2_Node000002_Node000002"><a xlink:title=" ">
<path fill="none" stroke="#63b8ff" d="M197.58,-20.34C186.67,-28.98 195.18,-38 223.12,-38 238.41,-38 247.88,-35.3 251.54,-31.44"/>
<polygon fill="#63b8ff" stroke="#63b8ff" points="254.94,-30.61 249.05,-21.8 248.16,-32.36 254.94,-30.61"/>
</a>
</g>
</g>
</g>
</svg>
