<?xml version="1.0" encoding="UTF-8" standalone="no"?>
<!DOCTYPE svg PUBLIC "-//W3C//DTD SVG 1.1//EN"
 "http://www.w3.org/Graphics/SVG/1.1/DTD/svg11.dtd">
<!-- Generated by graphviz version 13.1.2 (0)
 -->
<!-- Title: anch::date::formatter::MillisecondFormatter Pages: 1 -->
<svg width="209pt" height="627pt"
 viewBox="0.00 0.00 209.00 627.00" xmlns="http://www.w3.org/2000/svg" xmlns:xlink="http://www.w3.org/1999/xlink">
<g id="graph0" class="graph" transform="scale(1 1) rotate(0) translate(4 623)">
<title>anch::date::formatter::MillisecondFormatter</title>
<!-- Node1 -->
<g id="Node000001" class="node">
<title>Node1</title>
<g id="a_Node000001"><a xlink:title=" ">
<polygon fill="#999999" stroke="none" points="133.38,-160 12.62,-160 12.62,0 133.38,0 133.38,-160"/>
<text xml:space="preserve" text-anchor="start" x="24.62" y="-146.5" font-family="Helvetica,sans-Serif" font-size="10.00">anch::date::formatter</text>
<text xml:space="preserve" text-anchor="start" x="24.62" y="-134.5" font-family="Helvetica,sans-Serif" font-size="10.00">::MillisecondFormatter</text>
<text xml:space="preserve" text-anchor="start" x="71.5" y="-118.5" font-family="Helvetica,sans-Serif" font-size="10.00"> </text>
<text xml:space="preserve" text-anchor="start" x="16.62" y="-102.5" font-family="Helvetica,sans-Serif" font-size="10.00">+</text>
<text xml:space="preserve" text-anchor="start" x="26.62" y="-102.5" font-family="Helvetica,sans-Serif" font-size="10.00">MillisecondFormatter()</text>
<text xml:space="preserve" text-anchor="start" x="16.62" y="-86.5" font-family="Helvetica,sans-Serif" font-size="10.00">+</text>
<text xml:space="preserve" text-anchor="start" x="26.62" y="-86.5" font-family="Helvetica,sans-Serif" font-size="10.00">~MillisecondFormatter()</text>
<text xml:space="preserve" text-anchor="start" x="16.62" y="-70.5" font-family="Helvetica,sans-Serif" font-size="10.00">+</text>
<text xml:space="preserve" text-anchor="start" x="26.62" y="-70.5" font-family="Helvetica,sans-Serif" font-size="10.00">format()</text>
<text xml:space="preserve" text-anchor="start" x="16.62" y="-54.5" font-family="Helvetica,sans-Serif" font-size="10.00">+</text>
<text xml:space="preserve" text-anchor="start" x="26.62" y="-54.5" font-family="Helvetica,sans-Serif" font-size="10.00">getSize()</text>
<text xml:space="preserve" text-anchor="start" x="16.62" y="-38.5" font-family="Helvetica,sans-Serif" font-size="10.00">+</text>
<text xml:space="preserve" text-anchor="start" x="26.62" y="-38.5" font-family="Helvetica,sans-Serif" font-size="10.00">setValue()</text>
<text xml:space="preserve" text-anchor="start" x="16.62" y="-22.5" font-family="Helvetica,sans-Serif" font-size="10.00">+</text>
<text xml:space="preserve" text-anchor="start" x="26.62" y="-22.5" font-family="Helvetica,sans-Serif" font-size="10.00">getPattern()</text>
<text xml:space="preserve" text-anchor="start" x="16.62" y="-6.5" font-family="Helvetica,sans-Serif" font-size="10.00">+</text>
<text xml:space="preserve" text-anchor="start" x="26.62" y="-6.5" font-family="Helvetica,sans-Serif" font-size="10.00">getInstance()</text>
<polygon fill="#666666" stroke="#666666" points="12.62,-130 12.62,-130 133.38,-130 133.38,-130 12.62,-130"/>
<polygon fill="#666666" stroke="#666666" points="12.62,-114 12.62,-114 133.38,-114 133.38,-114 12.62,-114"/>
<polygon fill="none" stroke="#666666" points="12.62,0 12.62,-160 133.38,-160 133.38,0 12.62,0"/>
</a>
</g>
</g>
<!-- Node2 -->
<g id="Node000002" class="node">
<title>Node2</title>
<g id="a_Node000002"><a xlink:href="classanch_1_1date_1_1formatter_1_1_i_date_part_formatter.html" target="_top" xlink:title=" ">
<polygon fill="white" stroke="none" points="114,-518 0,-518 0,-214 114,-214 114,-518"/>
<text xml:space="preserve" text-anchor="start" x="11.62" y="-504.5" font-family="Helvetica,sans-Serif" font-size="10.00">anch::date::formatter</text>
<text xml:space="preserve" text-anchor="start" x="12" y="-492.5" font-family="Helvetica,sans-Serif" font-size="10.00">::IDatePartFormatter</text>
<text xml:space="preserve" text-anchor="start" x="55.5" y="-476.5" font-family="Helvetica,sans-Serif" font-size="10.00"> </text>
<text xml:space="preserve" text-anchor="start" x="4" y="-460.5" font-family="Helvetica,sans-Serif" font-size="10.00">+</text>
<text xml:space="preserve" text-anchor="start" x="14" y="-460.5" font-family="Helvetica,sans-Serif" font-size="10.00">~IDatePartFormatter()</text>
<text xml:space="preserve" text-anchor="start" x="4" y="-444.5" font-family="Helvetica,sans-Serif" font-size="10.00">+</text>
<text xml:space="preserve" text-anchor="start" x="14" y="-444.5" font-family="Helvetica,sans-Serif" font-size="10.00">format()</text>
<text xml:space="preserve" text-anchor="start" x="4" y="-428.5" font-family="Helvetica,sans-Serif" font-size="10.00">+</text>
<text xml:space="preserve" text-anchor="start" x="14" y="-428.5" font-family="Helvetica,sans-Serif" font-size="10.00">getSize()</text>
<text xml:space="preserve" text-anchor="start" x="4" y="-412.5" font-family="Helvetica,sans-Serif" font-size="10.00">+</text>
<text xml:space="preserve" text-anchor="start" x="14" y="-412.5" font-family="Helvetica,sans-Serif" font-size="10.00">setValue()</text>
<text xml:space="preserve" text-anchor="start" x="4" y="-396.5" font-family="Helvetica,sans-Serif" font-size="10.00">+</text>
<text xml:space="preserve" text-anchor="start" x="14" y="-396.5" font-family="Helvetica,sans-Serif" font-size="10.00">getPattern()</text>
<text xml:space="preserve" text-anchor="start" x="4.38" y="-380.5" font-family="Helvetica,sans-Serif" font-size="10.00">#</text>
<text xml:space="preserve" text-anchor="start" x="14" y="-380.5" font-family="Helvetica,sans-Serif" font-size="10.00">getYear()</text>
<text xml:space="preserve" text-anchor="start" x="4.38" y="-364.5" font-family="Helvetica,sans-Serif" font-size="10.00">#</text>
<text xml:space="preserve" text-anchor="start" x="14" y="-364.5" font-family="Helvetica,sans-Serif" font-size="10.00">setYear()</text>
<text xml:space="preserve" text-anchor="start" x="4.38" y="-348.5" font-family="Helvetica,sans-Serif" font-size="10.00">#</text>
<text xml:space="preserve" text-anchor="start" x="14" y="-348.5" font-family="Helvetica,sans-Serif" font-size="10.00">getMonth()</text>
<text xml:space="preserve" text-anchor="start" x="4.38" y="-332.5" font-family="Helvetica,sans-Serif" font-size="10.00">#</text>
<text xml:space="preserve" text-anchor="start" x="14" y="-332.5" font-family="Helvetica,sans-Serif" font-size="10.00">setMonth()</text>
<text xml:space="preserve" text-anchor="start" x="4.38" y="-316.5" font-family="Helvetica,sans-Serif" font-size="10.00">#</text>
<text xml:space="preserve" text-anchor="start" x="14" y="-316.5" font-family="Helvetica,sans-Serif" font-size="10.00">getDay()</text>
<text xml:space="preserve" text-anchor="start" x="4.38" y="-300.5" font-family="Helvetica,sans-Serif" font-size="10.00">#</text>
<text xml:space="preserve" text-anchor="start" x="14" y="-300.5" font-family="Helvetica,sans-Serif" font-size="10.00">setDay()</text>
<text xml:space="preserve" text-anchor="start" x="4.38" y="-284.5" font-family="Helvetica,sans-Serif" font-size="10.00">#</text>
<text xml:space="preserve" text-anchor="start" x="14" y="-284.5" font-family="Helvetica,sans-Serif" font-size="10.00">getHour()</text>
<text xml:space="preserve" text-anchor="start" x="4.38" y="-268.5" font-family="Helvetica,sans-Serif" font-size="10.00">#</text>
<text xml:space="preserve" text-anchor="start" x="14" y="-268.5" font-family="Helvetica,sans-Serif" font-size="10.00">setHour()</text>
<text xml:space="preserve" text-anchor="start" x="4.38" y="-252.5" font-family="Helvetica,sans-Serif" font-size="10.00">#</text>
<text xml:space="preserve" text-anchor="start" x="14" y="-252.5" font-family="Helvetica,sans-Serif" font-size="10.00">getMinute()</text>
<text xml:space="preserve" text-anchor="start" x="4.38" y="-236.5" font-family="Helvetica,sans-Serif" font-size="10.00">#</text>
<text xml:space="preserve" text-anchor="start" x="14" y="-236.5" font-family="Helvetica,sans-Serif" font-size="10.00">setMinute()</text>
<text xml:space="preserve" text-anchor="start" x="14" y="-220.5" font-family="Helvetica,sans-Serif" font-size="10.00">and 8 more...</text>
<polygon fill="#666666" stroke="#666666" points="0,-488 0,-488 114,-488 114,-488 0,-488"/>
<polygon fill="#666666" stroke="#666666" points="0,-472 0,-472 114,-472 114,-472 0,-472"/>
<polygon fill="none" stroke="#666666" points="0,-214 0,-518 114,-518 114,-214 0,-214"/>
</a>
</g>
</g>
<!-- Node2&#45;&gt;Node1 -->
<g id="edge1_Node000001_Node000002" class="edge">
<title>Node2&#45;&gt;Node1</title>
<g id="a_edge1_Node000001_Node000002"><a xlink:title=" ">
<path fill="none" stroke="#63b8ff" d="M66.14,-202.82C66.98,-187.91 67.8,-173.3 68.57,-159.67"/>
<polygon fill="none" stroke="#63b8ff" points="62.65,-202.58 65.58,-212.76 69.63,-202.97 62.65,-202.58"/>
</a>
</g>
</g>
<!-- Node3 -->
<g id="Node000003" class="node">
<title>Node3</title>
<g id="a_Node000003"><a xlink:title=" ">
<polygon fill="white" stroke="none" points="183.75,-392 132.25,-392 132.25,-340 183.75,-340 183.75,-392"/>
<text xml:space="preserve" text-anchor="start" x="136.25" y="-378.5" font-family="Helvetica,sans-Serif" font-size="10.00">std::string</text>
<text xml:space="preserve" text-anchor="start" x="156.5" y="-362.5" font-family="Helvetica,sans-Serif" font-size="10.00"> </text>
<text xml:space="preserve" text-anchor="start" x="156.5" y="-346.5" font-family="Helvetica,sans-Serif" font-size="10.00"> </text>
<polygon fill="#666666" stroke="#666666" points="132.25,-374 132.25,-374 183.75,-374 183.75,-374 132.25,-374"/>
<polygon fill="#666666" stroke="#666666" points="132.25,-358 132.25,-358 183.75,-358 183.75,-358 132.25,-358"/>
<polygon fill="none" stroke="#666666" points="132.25,-340 132.25,-392 183.75,-392 183.75,-340 132.25,-340"/>
</a>
</g>
</g>
<!-- Node3&#45;&gt;Node1 -->
<g id="edge2_Node000001_Node000003" class="edge">
<title>Node3&#45;&gt;Node1</title>
<g id="a_edge2_Node000001_Node000003"><a xlink:title=" ">
<path fill="none" stroke="#63b8ff" d="M153.29,-340.15C147.33,-310.01 136.24,-257.79 123,-214 118.86,-200.3 114.03,-185.98 109.03,-172.03"/>
<polygon fill="none" stroke="#63b8ff" points="109.02,-172.01 103.21,-167.74 104.92,-160.73 110.73,-165 109.02,-172.01"/>
</a>
</g>
<text xml:space="preserve" text-anchor="start" x="120.16" y="-183.5" font-family="Helvetica,sans-Serif" font-size="10.00" fill="grey">+PATTERN</text>
</g>
<!-- Node4 -->
<g id="Node000004" class="node">
<title>Node4</title>
<g id="a_Node000004"><a xlink:title=" ">
<polygon fill="white" stroke="none" points="201,-619 115,-619 115,-555 201,-555 201,-619"/>
<text xml:space="preserve" text-anchor="start" x="119" y="-605.5" font-family="Helvetica,sans-Serif" font-size="10.00">std::basic_string&lt;</text>
<text xml:space="preserve" text-anchor="start" x="141.5" y="-593.5" font-family="Helvetica,sans-Serif" font-size="10.00"> Char &gt;</text>
<text xml:space="preserve" text-anchor="start" x="156.5" y="-577.5" font-family="Helvetica,sans-Serif" font-size="10.00"> </text>
<text xml:space="preserve" text-anchor="start" x="156.5" y="-561.5" font-family="Helvetica,sans-Serif" font-size="10.00"> </text>
<polygon fill="#666666" stroke="#666666" points="115,-589 115,-589 201,-589 201,-589 115,-589"/>
<polygon fill="#666666" stroke="#666666" points="115,-573 115,-573 201,-573 201,-573 115,-573"/>
<polygon fill="none" stroke="#666666" points="115,-555 115,-619 201,-619 201,-555 115,-555"/>
</a>
</g>
</g>
<!-- Node4&#45;&gt;Node3 -->
<g id="edge3_Node000003_Node000004" class="edge">
<title>Node4&#45;&gt;Node3</title>
<g id="a_edge3_Node000003_Node000004"><a xlink:title=" ">
<path fill="none" stroke="#63b8ff" d="M158,-543.65C158,-498.63 158,-428.94 158,-391.98"/>
<polygon fill="none" stroke="#63b8ff" points="154.5,-543.57 158,-553.57 161.5,-543.57 154.5,-543.57"/>
</a>
</g>
</g>
</g>
</svg>
