<?xml version="1.0" encoding="UTF-8" standalone="no"?>
<!DOCTYPE svg PUBLIC "-//W3C//DTD SVG 1.1//EN"
 "http://www.w3.org/Graphics/SVG/1.1/DTD/svg11.dtd">
<!-- Generated by graphviz version 2.43.20190912.0211 (20190912.0211)
 -->
<!-- Title: anch::events::Observer&lt; Event &gt; Pages: 1 -->
<svg width="306pt" height="226pt"
 viewBox="0.00 0.00 306.00 226.00" xmlns="http://www.w3.org/2000/svg" xmlns:xlink="http://www.w3.org/1999/xlink">
<g id="graph0" class="graph" transform="scale(1 1) rotate(0) translate(4 222)">
<title>anch::events::Observer&lt; Event &gt;</title>
<!-- Node1 -->
<g id="node1" class="node">
<title>Node1</title>
<g id="a_node1"><a xlink:title="An observer interface of the observers/observable design pattern.">
<polygon fill="#bfbfbf" stroke="black" points="90,-149.5 90,-217.5 219,-217.5 219,-149.5 90,-149.5"/>
<text text-anchor="start" x="98" y="-205.5" font-family="Helvetica,sans-Serif" font-size="10.00">anch::events::Observer</text>
<text text-anchor="middle" x="154.5" y="-194.5" font-family="Helvetica,sans-Serif" font-size="10.00">&lt; Event &gt;</text>
<polyline fill="none" stroke="black" points="90,-187.5 219,-187.5 "/>
<text text-anchor="middle" x="154.5" y="-175.5" font-family="Helvetica,sans-Serif" font-size="10.00"> </text>
<polyline fill="none" stroke="black" points="90,-168.5 219,-168.5 "/>
<text text-anchor="start" x="98" y="-156.5" font-family="Helvetica,sans-Serif" font-size="10.00">+ notify()</text>
</a>
</g>
</g>
<!-- Node2 -->
<g id="node2" class="node">
<title>Node2</title>
<g id="a_node2"><a xlink:href="classanch_1_1events_1_1_event_handler.html" target="_top" xlink:title="An event handler.">
<polygon fill="none" stroke="black" points="0,-0.5 0,-101.5 151,-101.5 151,-0.5 0,-0.5"/>
<text text-anchor="start" x="8" y="-89.5" font-family="Helvetica,sans-Serif" font-size="10.00">anch::events::EventHandler</text>
<text text-anchor="middle" x="75.5" y="-78.5" font-family="Helvetica,sans-Serif" font-size="10.00">&lt; Event &gt;</text>
<polyline fill="none" stroke="black" points="0,-71.5 151,-71.5 "/>
<text text-anchor="middle" x="75.5" y="-59.5" font-family="Helvetica,sans-Serif" font-size="10.00"> </text>
<polyline fill="none" stroke="black" points="0,-52.5 151,-52.5 "/>
<text text-anchor="start" x="8" y="-40.5" font-family="Helvetica,sans-Serif" font-size="10.00">+ EventHandler()</text>
<text text-anchor="start" x="8" y="-29.5" font-family="Helvetica,sans-Serif" font-size="10.00">+ EventHandler()</text>
<text text-anchor="start" x="8" y="-18.5" font-family="Helvetica,sans-Serif" font-size="10.00">+ ~EventHandler()</text>
<text text-anchor="start" x="8" y="-7.5" font-family="Helvetica,sans-Serif" font-size="10.00">+ notify()</text>
</a>
</g>
</g>
<!-- Node1&#45;&gt;Node2 -->
<g id="edge1" class="edge">
<title>Node1&#45;&gt;Node2</title>
<path fill="none" stroke="midnightblue" d="M129.1,-140.54C121.66,-128.26 113.46,-114.71 105.75,-101.98"/>
<polygon fill="none" stroke="midnightblue" points="126.19,-142.49 134.36,-149.23 132.18,-138.86 126.19,-142.49"/>
</g>
<!-- Node3 -->
<g id="node3" class="node">
<title>Node3</title>
<g id="a_node3"><a xlink:href="classanch_1_1events_1_1_observer.html" target="_top" xlink:title=" ">
<polygon fill="none" stroke="black" points="169,-17 169,-85 298,-85 298,-17 169,-17"/>
<text text-anchor="start" x="177" y="-73" font-family="Helvetica,sans-Serif" font-size="10.00">anch::events::Observer</text>
<text text-anchor="middle" x="233.5" y="-62" font-family="Helvetica,sans-Serif" font-size="10.00">&lt; SocketEvent &gt;</text>
<polyline fill="none" stroke="black" points="169,-55 298,-55 "/>
<text text-anchor="middle" x="233.5" y="-43" font-family="Helvetica,sans-Serif" font-size="10.00"> </text>
<polyline fill="none" stroke="black" points="169,-36 298,-36 "/>
<text text-anchor="start" x="177" y="-24" font-family="Helvetica,sans-Serif" font-size="10.00">+ notify()</text>
</a>
</g>
</g>
<!-- Node1&#45;&gt;Node3 -->
<g id="edge2" class="edge">
<title>Node1&#45;&gt;Node3</title>
<path fill="none" stroke="orange" d="M179.82,-140.67C190.68,-122.73 203.19,-102.07 213.4,-85.21"/>
<polygon fill="orange" stroke="orange" points="176.82,-138.86 174.64,-149.23 182.81,-142.49 176.82,-138.86"/>
<text text-anchor="middle" x="235.5" y="-123" font-family="Helvetica,sans-Serif" font-size="10.00"> &lt; SocketEvent &gt;</text>
</g>
</g>
</svg>
