<?xml version="1.0" encoding="UTF-8" standalone="no"?>
<!DOCTYPE svg PUBLIC "-//W3C//DTD SVG 1.1//EN"
 "http://www.w3.org/Graphics/SVG/1.1/DTD/svg11.dtd">
<!-- Generated by graphviz version 14.0.0 (0)
 -->
<!-- Title: anch::Singleton&lt; T &gt; Pages: 1 -->
<!--zoomable 443 -->

<svg id="main" version="1.1" xmlns="http://www.w3.org/2000/svg" xmlns:xlink="http://www.w3.org/1999/xlink" xml:space="preserve" onload="init(evt)">

<style type="text/css"><![CDATA[
.node, .edge {opacity: 0.7;}
.node.selected, .edge.selected {opacity: 1;}
.edge:hover path { stroke: red; }
.edge:hover polygon { stroke: red; fill: red; }
]]></style>

<defs>
  <circle id="rim" cx="0" cy="0" r="7"/>
  <circle id="rim2" cx="0" cy="0" r="3.5"/>
  <g id="zoomPlus">
    <use xlink:href="#rim" fill="#404040"><set attributeName="fill" to="#808080" begin="zoomplus.mouseover" end="zoomplus.mouseout"/></use>
    <path d="M-4,0h8M0,-4v8" fill="none" stroke="white" stroke-width="1.5" pointer-events="none"/>
  </g>
  <g id="zoomMin">
    <use xlink:href="#rim" fill="#404040"><set attributeName="fill" to="#808080" begin="zoomminus.mouseover" end="zoomminus.mouseout"/></use>
    <path d="M-4,0h8" fill="none" stroke="white" stroke-width="1.5" pointer-events="none"/>
  </g>
  <g id="arrowUp" transform="translate(30 24)">
    <use xlink:href="#rim"/>
    <path pointer-events="none" fill="none" stroke="white" stroke-width="1.5" d="M0,-3.0v7 M-2.5,-0.5L0,-3.0L2.5,-0.5"/>
  </g>
  <g id="arrowRight" transform="rotate(90) translate(36 -43)">
    <use xlink:href="#rim"/>
    <path pointer-events="none" fill="none" stroke="white" stroke-width="1.5" d="M0,-3.0v7 M-2.5,-0.5L0,-3.0L2.5,-0.5"/>
  </g>
  <g id="arrowDown" transform="rotate(180) translate(-30 -48)">
    <use xlink:href="#rim"/>
    <path pointer-events="none" fill="none" stroke="white" stroke-width="1.5" d="M0,-3.0v7 M-2.5,-0.5L0,-3.0L2.5,-0.5"/>
  </g>
  <g id="arrowLeft" transform="rotate(270) translate(-36 17)">
    <use xlink:href="#rim"/>
    <path pointer-events="none" fill="none" stroke="white" stroke-width="1.5" d="M0,-3.0v7 M-2.5,-0.5L0,-3.0L2.5,-0.5"/>
  </g>
  <g id="resetDef">
    <use xlink:href="#rim2" fill="#404040"><set attributeName="fill" to="#808080" begin="reset.mouseover" end="reset.mouseout"/></use>
  </g>
</defs>
<script type="application/ecmascript">
var viewWidth = 925;
var viewHeight = 443;
var sectionId = 'dynsection-0';
</script>
<script type="application/ecmascript" xlink:href="svg.min.js"/>
<svg id="graph" class="graph">
<g id="viewport">
<title>anch::Singleton&lt; T &gt;</title>
<!-- Node1 -->
<g id="Node000001" class="node">
<title>Node1</title>
<g id="a_Node000001"><a xlink:title="Meyers&#39; singleton implementation.">
<polygon fill="#999999" stroke="none" points="471,-435 372.25,-435 372.25,-383 471,-383 471,-435"/>
<text xml:space="preserve" text-anchor="start" x="376.25" y="-421.5" font-family="Helvetica,sans-Serif" font-size="10.00">anch::Singleton&lt; T &gt;</text>
<text xml:space="preserve" text-anchor="start" x="420.12" y="-405.5" font-family="Helvetica,sans-Serif" font-size="10.00"> </text>
<text xml:space="preserve" text-anchor="start" x="382.19" y="-389.5" font-family="Helvetica,sans-Serif" font-size="10.00">+</text>
<text xml:space="preserve" text-anchor="start" x="398.12" y="-389.5" font-family="Helvetica,sans-Serif" font-size="10.00">getInstance()</text>
<polygon fill="#666666" stroke="#666666" points="372.25,-417 372.25,-417 471,-417 471,-417 372.25,-417"/>
<polygon fill="#666666" stroke="#666666" points="372.25,-401 372.25,-401 471,-401 471,-401 372.25,-401"/>
<polygon fill="none" stroke="#666666" points="372.25,-383 372.25,-435 471,-435 471,-383 372.25,-383"/>
</a>
</g>
</g>
<!-- Node2 -->
<g id="Node000002" class="node">
<title>Node2</title>
<g id="a_Node000002"><a xlink:href="classanch_1_1_singleton.html" target="_top" xlink:title=" ">
<polygon fill="white" stroke="none" points="115.25,-323 0,-323 0,-271 115.25,-271 115.25,-323"/>
<text xml:space="preserve" text-anchor="start" x="4" y="-309.5" font-family="Helvetica,sans-Serif" font-size="10.00">anch::Singleton&lt; CPU &gt;</text>
<text xml:space="preserve" text-anchor="start" x="56.12" y="-293.5" font-family="Helvetica,sans-Serif" font-size="10.00"> </text>
<text xml:space="preserve" text-anchor="start" x="14.06" y="-277.5" font-family="Helvetica,sans-Serif" font-size="10.00">+</text>
<text xml:space="preserve" text-anchor="start" x="34.12" y="-277.5" font-family="Helvetica,sans-Serif" font-size="10.00">getInstance()</text>
<polygon fill="#666666" stroke="#666666" points="0,-305 0,-305 115.25,-305 115.25,-305 0,-305"/>
<polygon fill="#666666" stroke="#666666" points="0,-289 0,-289 115.25,-289 115.25,-289 0,-289"/>
<polygon fill="none" stroke="#666666" points="0,-271 0,-323 115.25,-323 115.25,-271 0,-271"/>
</a>
</g>
</g>
<!-- Node1&#45;&gt;Node2 -->
<g id="edge1_Node000001_Node000002" class="edge">
<title>Node1&#45;&gt;Node2</title>
<g id="a_edge1_Node000001_Node000002"><a xlink:title=" ">
<path fill="none" stroke="orange" d="M361.32,-398.55C319.24,-391.23 262.03,-379.84 212.88,-365 171.93,-352.64 162.83,-346.1 123.62,-329 119.22,-327.08 114.66,-325.04 110.1,-322.97"/>
<polygon fill="orange" stroke="orange" points="360.56,-401.97 371.01,-400.2 361.74,-395.07 360.56,-401.97"/>
</a>
</g>
<text xml:space="preserve" text-anchor="start" x="215.88" y="-352.5" font-family="Helvetica,sans-Serif" font-size="10.00" fill="grey">&lt; CPU &gt;</text>
</g>
<!-- Node4 -->
<g id="Node000004" class="node">
<title>Node4</title>
<g id="a_Node000004"><a xlink:href="classanch_1_1_singleton.html" target="_top" xlink:title=" ">
<polygon fill="white" stroke="none" points="260.25,-329 133,-329 133,-265 260.25,-265 260.25,-329"/>
<text xml:space="preserve" text-anchor="start" x="137" y="-315.5" font-family="Helvetica,sans-Serif" font-size="10.00">anch::Singleton&lt; EventBus</text>
<text xml:space="preserve" text-anchor="start" x="180.5" y="-303.5" font-family="Helvetica,sans-Serif" font-size="10.00">&lt; T &gt; &gt;</text>
<text xml:space="preserve" text-anchor="start" x="195.12" y="-287.5" font-family="Helvetica,sans-Serif" font-size="10.00"> </text>
<text xml:space="preserve" text-anchor="start" x="150.06" y="-271.5" font-family="Helvetica,sans-Serif" font-size="10.00">+</text>
<text xml:space="preserve" text-anchor="start" x="173.12" y="-271.5" font-family="Helvetica,sans-Serif" font-size="10.00">getInstance()</text>
<polygon fill="#666666" stroke="#666666" points="133,-299 133,-299 260.25,-299 260.25,-299 133,-299"/>
<polygon fill="#666666" stroke="#666666" points="133,-283 133,-283 260.25,-283 260.25,-283 133,-283"/>
<polygon fill="none" stroke="#666666" points="133,-265 133,-329 260.25,-329 260.25,-265 133,-265"/>
</a>
</g>
</g>
<!-- Node1&#45;&gt;Node4 -->
<g id="edge3_Node000001_Node000004" class="edge">
<title>Node1&#45;&gt;Node4</title>
<g id="a_edge3_Node000001_Node000004"><a xlink:title=" ">
<path fill="none" stroke="orange" d="M361.48,-391.62C339.57,-384.67 314.96,-375.69 293.62,-365 273.49,-354.92 252.75,-341.13 235.65,-328.68"/>
<polygon fill="orange" stroke="orange" points="360.28,-394.92 370.87,-394.52 362.35,-388.23 360.28,-394.92"/>
</a>
</g>
<text xml:space="preserve" text-anchor="start" x="296.62" y="-352.5" font-family="Helvetica,sans-Serif" font-size="10.00" fill="grey">&lt; EventBus&lt; T &gt; &gt;</text>
</g>
<!-- Node6 -->
<g id="Node000006" class="node">
<title>Node6</title>
<g id="a_Node000006"><a xlink:href="classanch_1_1_singleton.html" target="_top" xlink:title=" ">
<polygon fill="white" stroke="none" points="434.5,-323 278.75,-323 278.75,-271 434.5,-271 434.5,-323"/>
<text xml:space="preserve" text-anchor="start" x="282.75" y="-309.5" font-family="Helvetica,sans-Serif" font-size="10.00">anch::Singleton&lt; LoggerFactory &gt;</text>
<text xml:space="preserve" text-anchor="start" x="355.12" y="-293.5" font-family="Helvetica,sans-Serif" font-size="10.00"> </text>
<text xml:space="preserve" text-anchor="start" x="302.94" y="-277.5" font-family="Helvetica,sans-Serif" font-size="10.00">+</text>
<text xml:space="preserve" text-anchor="start" x="333.12" y="-277.5" font-family="Helvetica,sans-Serif" font-size="10.00">getInstance()</text>
<polygon fill="#666666" stroke="#666666" points="278.75,-305 278.75,-305 434.5,-305 434.5,-305 278.75,-305"/>
<polygon fill="#666666" stroke="#666666" points="278.75,-289 278.75,-289 434.5,-289 434.5,-289 278.75,-289"/>
<polygon fill="none" stroke="#666666" points="278.75,-271 278.75,-323 434.5,-323 434.5,-271 278.75,-271"/>
</a>
</g>
</g>
<!-- Node1&#45;&gt;Node6 -->
<g id="edge5_Node000001_Node000006" class="edge">
<title>Node1&#45;&gt;Node6</title>
<g id="a_edge5_Node000001_Node000006"><a xlink:title=" ">
<path fill="none" stroke="orange" d="M401.1,-373.27C391.43,-356.9 380.11,-337.75 371.32,-322.86"/>
<polygon fill="orange" stroke="orange" points="398,-374.91 406.11,-381.74 404.03,-371.35 398,-374.91"/>
</a>
</g>
<text xml:space="preserve" text-anchor="start" x="397.95" y="-352.5" font-family="Helvetica,sans-Serif" font-size="10.00" fill="grey">&lt; LoggerFactory &gt;</text>
</g>
<!-- Node8 -->
<g id="Node000008" class="node">
<title>Node8</title>
<g id="a_Node000008"><a xlink:href="classanch_1_1_singleton.html" target="_top" xlink:title=" ">
<polygon fill="white" stroke="none" points="596.88,-329 452.38,-329 452.38,-265 596.88,-265 596.88,-329"/>
<text xml:space="preserve" text-anchor="start" x="456.38" y="-315.5" font-family="Helvetica,sans-Serif" font-size="10.00">anch::Singleton&lt; GlobalMapper</text>
<text xml:space="preserve" text-anchor="start" x="501.75" y="-303.5" font-family="Helvetica,sans-Serif" font-size="10.00">Registry &gt;</text>
<text xml:space="preserve" text-anchor="start" x="523.12" y="-287.5" font-family="Helvetica,sans-Serif" font-size="10.00"> </text>
<text xml:space="preserve" text-anchor="start" x="473.75" y="-271.5" font-family="Helvetica,sans-Serif" font-size="10.00">+</text>
<text xml:space="preserve" text-anchor="start" x="501.12" y="-271.5" font-family="Helvetica,sans-Serif" font-size="10.00">getInstance()</text>
<polygon fill="#666666" stroke="#666666" points="452.38,-299 452.38,-299 596.88,-299 596.88,-299 452.38,-299"/>
<polygon fill="#666666" stroke="#666666" points="452.38,-283 452.38,-283 596.88,-283 596.88,-283 452.38,-283"/>
<polygon fill="none" stroke="#666666" points="452.38,-265 452.38,-329 596.88,-329 596.88,-265 452.38,-265"/>
</a>
</g>
</g>
<!-- Node1&#45;&gt;Node8 -->
<g id="edge7_Node000001_Node000008" class="edge">
<title>Node1&#45;&gt;Node8</title>
<g id="a_edge7_Node000001_Node000008"><a xlink:title=" ">
<path fill="none" stroke="orange" d="M471.57,-376.21C475.85,-372.66 479.94,-368.9 483.62,-365 493.64,-354.39 502.45,-340.95 509.31,-328.89"/>
<polygon fill="orange" stroke="orange" points="469.53,-373.36 463.8,-382.28 473.84,-378.88 469.53,-373.36"/>
</a>
</g>
<text xml:space="preserve" text-anchor="start" x="500.09" y="-352.5" font-family="Helvetica,sans-Serif" font-size="10.00" fill="grey">&lt; GlobalMapperRegistry &gt;</text>
</g>
<!-- Node10 -->
<g id="Node000010" class="node">
<title>Node10</title>
<g id="a_Node000010"><a xlink:href="classanch_1_1_singleton.html" target="_top" xlink:title=" ">
<polygon fill="white" stroke="none" points="750,-329 615.25,-329 615.25,-265 750,-265 750,-329"/>
<text xml:space="preserve" text-anchor="start" x="619.25" y="-315.5" font-family="Helvetica,sans-Serif" font-size="10.00">anch::Singleton&lt; SQLShared</text>
<text xml:space="preserve" text-anchor="start" x="659.75" y="-303.5" font-family="Helvetica,sans-Serif" font-size="10.00">Libraries &gt;</text>
<text xml:space="preserve" text-anchor="start" x="681.12" y="-287.5" font-family="Helvetica,sans-Serif" font-size="10.00"> </text>
<text xml:space="preserve" text-anchor="start" x="634.19" y="-271.5" font-family="Helvetica,sans-Serif" font-size="10.00">+</text>
<text xml:space="preserve" text-anchor="start" x="659.12" y="-271.5" font-family="Helvetica,sans-Serif" font-size="10.00">getInstance()</text>
<polygon fill="#666666" stroke="#666666" points="615.25,-299 615.25,-299 750,-299 750,-299 615.25,-299"/>
<polygon fill="#666666" stroke="#666666" points="615.25,-283 615.25,-283 750,-283 750,-283 615.25,-283"/>
<polygon fill="none" stroke="#666666" points="615.25,-265 615.25,-329 750,-329 750,-265 615.25,-265"/>
</a>
</g>
</g>
<!-- Node1&#45;&gt;Node10 -->
<g id="edge9_Node000001_Node000010" class="edge">
<title>Node1&#45;&gt;Node10</title>
<g id="a_edge9_Node000001_Node000010"><a xlink:title=" ">
<path fill="none" stroke="orange" d="M482.01,-404.68C523.6,-400.17 578.85,-389.6 621.62,-365 637.17,-356.06 650.97,-341.79 661.49,-328.72"/>
<polygon fill="orange" stroke="orange" points="481.77,-401.19 472.17,-405.65 482.46,-408.16 481.77,-401.19"/>
</a>
</g>
<text xml:space="preserve" text-anchor="start" x="646.2" y="-352.5" font-family="Helvetica,sans-Serif" font-size="10.00" fill="grey">&lt; SQLSharedLibraries &gt;</text>
</g>
<!-- Node12 -->
<g id="Node000012" class="node">
<title>Node12</title>
<g id="a_Node000012"><a xlink:href="classanch_1_1_singleton.html" target="_top" xlink:title=" ">
<polygon fill="white" stroke="none" points="916.75,-329 768.5,-329 768.5,-265 916.75,-265 916.75,-329"/>
<text xml:space="preserve" text-anchor="start" x="772.5" y="-315.5" font-family="Helvetica,sans-Serif" font-size="10.00">anch::Singleton&lt; SqlConnection</text>
<text xml:space="preserve" text-anchor="start" x="821.62" y="-303.5" font-family="Helvetica,sans-Serif" font-size="10.00">Factory &gt;</text>
<text xml:space="preserve" text-anchor="start" x="841.12" y="-287.5" font-family="Helvetica,sans-Serif" font-size="10.00"> </text>
<text xml:space="preserve" text-anchor="start" x="790.81" y="-271.5" font-family="Helvetica,sans-Serif" font-size="10.00">+</text>
<text xml:space="preserve" text-anchor="start" x="819.12" y="-271.5" font-family="Helvetica,sans-Serif" font-size="10.00">getInstance()</text>
<polygon fill="#666666" stroke="#666666" points="768.5,-299 768.5,-299 916.75,-299 916.75,-299 768.5,-299"/>
<polygon fill="#666666" stroke="#666666" points="768.5,-283 768.5,-283 916.75,-283 916.75,-283 768.5,-283"/>
<polygon fill="none" stroke="#666666" points="768.5,-265 768.5,-329 916.75,-329 916.75,-265 768.5,-265"/>
</a>
</g>
</g>
<!-- Node1&#45;&gt;Node12 -->
<g id="edge11_Node000001_Node000012" class="edge">
<title>Node1&#45;&gt;Node12</title>
<g id="a_edge11_Node000001_Node000012"><a xlink:title=" ">
<path fill="none" stroke="orange" d="M482.11,-404.21C565.27,-398.33 710.11,-385.52 758.62,-365 778.38,-356.64 797.34,-342.28 812.23,-328.98"/>
<polygon fill="orange" stroke="orange" points="482.05,-400.71 472.31,-404.89 482.53,-407.69 482.05,-400.71"/>
</a>
</g>
<text xml:space="preserve" text-anchor="start" x="792.11" y="-352.5" font-family="Helvetica,sans-Serif" font-size="10.00" fill="grey">&lt; SqlConnectionFactory &gt;</text>
</g>
<!-- Node3 -->
<g id="Node000003" class="node">
<title>Node3</title>
<g id="a_Node000003"><a xlink:href="classanch_1_1device_1_1_c_p_u.html" target="_top" xlink:title="CPU features detection.">
<polygon fill="white" stroke="none" points="103.25,-204 12,-204 12,-24 103.25,-24 103.25,-204"/>
<text xml:space="preserve" text-anchor="start" x="16" y="-190.5" font-family="Helvetica,sans-Serif" font-size="10.00">anch::device::CPU</text>
<text xml:space="preserve" text-anchor="start" x="56.12" y="-174.5" font-family="Helvetica,sans-Serif" font-size="10.00"> </text>
<text xml:space="preserve" text-anchor="start" x="21.94" y="-158.5" font-family="Helvetica,sans-Serif" font-size="10.00">+</text>
<text xml:space="preserve" text-anchor="start" x="37.88" y="-158.5" font-family="Helvetica,sans-Serif" font-size="10.00">isAES()</text>
<text xml:space="preserve" text-anchor="start" x="21.94" y="-142.5" font-family="Helvetica,sans-Serif" font-size="10.00">+</text>
<text xml:space="preserve" text-anchor="start" x="37.88" y="-142.5" font-family="Helvetica,sans-Serif" font-size="10.00">isMMX()</text>
<text xml:space="preserve" text-anchor="start" x="21.94" y="-126.5" font-family="Helvetica,sans-Serif" font-size="10.00">+</text>
<text xml:space="preserve" text-anchor="start" x="37.88" y="-126.5" font-family="Helvetica,sans-Serif" font-size="10.00">isSSE()</text>
<text xml:space="preserve" text-anchor="start" x="21.94" y="-110.5" font-family="Helvetica,sans-Serif" font-size="10.00">+</text>
<text xml:space="preserve" text-anchor="start" x="37.88" y="-110.5" font-family="Helvetica,sans-Serif" font-size="10.00">isSSE2()</text>
<text xml:space="preserve" text-anchor="start" x="21.94" y="-94.5" font-family="Helvetica,sans-Serif" font-size="10.00">+</text>
<text xml:space="preserve" text-anchor="start" x="37.88" y="-94.5" font-family="Helvetica,sans-Serif" font-size="10.00">isSSE3()</text>
<text xml:space="preserve" text-anchor="start" x="21.94" y="-78.5" font-family="Helvetica,sans-Serif" font-size="10.00">+</text>
<text xml:space="preserve" text-anchor="start" x="37.88" y="-78.5" font-family="Helvetica,sans-Serif" font-size="10.00">isSSSE3()</text>
<text xml:space="preserve" text-anchor="start" x="21.94" y="-62.5" font-family="Helvetica,sans-Serif" font-size="10.00">+</text>
<text xml:space="preserve" text-anchor="start" x="37.88" y="-62.5" font-family="Helvetica,sans-Serif" font-size="10.00">isSSE4()</text>
<text xml:space="preserve" text-anchor="start" x="21.94" y="-46.5" font-family="Helvetica,sans-Serif" font-size="10.00">+</text>
<text xml:space="preserve" text-anchor="start" x="37.88" y="-46.5" font-family="Helvetica,sans-Serif" font-size="10.00">isSSE4_1()</text>
<text xml:space="preserve" text-anchor="start" x="21.94" y="-30.5" font-family="Helvetica,sans-Serif" font-size="10.00">+</text>
<text xml:space="preserve" text-anchor="start" x="37.88" y="-30.5" font-family="Helvetica,sans-Serif" font-size="10.00">isSSE4_2()</text>
<polygon fill="#666666" stroke="#666666" points="12,-186 12,-186 103.25,-186 103.25,-186 12,-186"/>
<polygon fill="#666666" stroke="#666666" points="12,-170 12,-170 103.25,-170 103.25,-170 12,-170"/>
<polygon fill="none" stroke="#666666" points="12,-24 12,-204 103.25,-204 103.25,-24 12,-24"/>
</a>
</g>
</g>
<!-- Node2&#45;&gt;Node3 -->
<g id="edge2_Node000002_Node000003" class="edge">
<title>Node2&#45;&gt;Node3</title>
<g id="a_edge2_Node000002_Node000003"><a xlink:title=" ">
<path fill="none" stroke="#63b8ff" d="M57.62,-260.05C57.62,-243.73 57.62,-223.64 57.62,-203.66"/>
<polygon fill="none" stroke="#63b8ff" points="54.13,-259.7 57.63,-269.7 61.13,-259.7 54.13,-259.7"/>
</a>
</g>
</g>
<!-- Node5 -->
<g id="Node000005" class="node">
<title>Node5</title>
<g id="a_Node000005"><a xlink:href="classanch_1_1events_1_1_event_bus.html" target="_top" xlink:title="A class which manage global events firing and events QoS.">
<polygon fill="white" stroke="none" points="264.75,-228 128.5,-228 128.5,0 264.75,0 264.75,-228"/>
<text xml:space="preserve" text-anchor="start" x="132.5" y="-214.5" font-family="Helvetica,sans-Serif" font-size="10.00">anch::events::EventBus&lt; T &gt;</text>
<text xml:space="preserve" text-anchor="start" x="195.12" y="-198.5" font-family="Helvetica,sans-Serif" font-size="10.00"> </text>
<text xml:space="preserve" text-anchor="start" x="141.06" y="-182.5" font-family="Helvetica,sans-Serif" font-size="10.00">+</text>
<text xml:space="preserve" text-anchor="start" x="159.62" y="-182.5" font-family="Helvetica,sans-Serif" font-size="10.00">addObserver()</text>
<text xml:space="preserve" text-anchor="start" x="141.06" y="-166.5" font-family="Helvetica,sans-Serif" font-size="10.00">+</text>
<text xml:space="preserve" text-anchor="start" x="159.62" y="-166.5" font-family="Helvetica,sans-Serif" font-size="10.00">removeObserver()</text>
<text xml:space="preserve" text-anchor="start" x="141.06" y="-150.5" font-family="Helvetica,sans-Serif" font-size="10.00">+</text>
<text xml:space="preserve" text-anchor="start" x="159.62" y="-150.5" font-family="Helvetica,sans-Serif" font-size="10.00">fireEvent()</text>
<text xml:space="preserve" text-anchor="start" x="141.06" y="-134.5" font-family="Helvetica,sans-Serif" font-size="10.00">+</text>
<text xml:space="preserve" text-anchor="start" x="159.62" y="-134.5" font-family="Helvetica,sans-Serif" font-size="10.00">fireEvent()</text>
<text xml:space="preserve" text-anchor="start" x="141.06" y="-118.5" font-family="Helvetica,sans-Serif" font-size="10.00">+</text>
<text xml:space="preserve" text-anchor="start" x="159.62" y="-118.5" font-family="Helvetica,sans-Serif" font-size="10.00">scheduleDeferred()</text>
<text xml:space="preserve" text-anchor="start" x="141.06" y="-102.5" font-family="Helvetica,sans-Serif" font-size="10.00">+</text>
<text xml:space="preserve" text-anchor="start" x="159.62" y="-102.5" font-family="Helvetica,sans-Serif" font-size="10.00">scheduleDeferred()</text>
<text xml:space="preserve" text-anchor="start" x="141.06" y="-86.5" font-family="Helvetica,sans-Serif" font-size="10.00">+</text>
<text xml:space="preserve" text-anchor="start" x="159.62" y="-86.5" font-family="Helvetica,sans-Serif" font-size="10.00">AddObserver()</text>
<text xml:space="preserve" text-anchor="start" x="141.06" y="-70.5" font-family="Helvetica,sans-Serif" font-size="10.00">+</text>
<text xml:space="preserve" text-anchor="start" x="159.62" y="-70.5" font-family="Helvetica,sans-Serif" font-size="10.00">RemoveObserver()</text>
<text xml:space="preserve" text-anchor="start" x="141.06" y="-54.5" font-family="Helvetica,sans-Serif" font-size="10.00">+</text>
<text xml:space="preserve" text-anchor="start" x="159.62" y="-54.5" font-family="Helvetica,sans-Serif" font-size="10.00">FireEvent()</text>
<text xml:space="preserve" text-anchor="start" x="141.06" y="-38.5" font-family="Helvetica,sans-Serif" font-size="10.00">+</text>
<text xml:space="preserve" text-anchor="start" x="159.62" y="-38.5" font-family="Helvetica,sans-Serif" font-size="10.00">FireEvent()</text>
<text xml:space="preserve" text-anchor="start" x="141.06" y="-22.5" font-family="Helvetica,sans-Serif" font-size="10.00">+</text>
<text xml:space="preserve" text-anchor="start" x="159.62" y="-22.5" font-family="Helvetica,sans-Serif" font-size="10.00">ScheduleDeferred()</text>
<text xml:space="preserve" text-anchor="start" x="141.06" y="-6.5" font-family="Helvetica,sans-Serif" font-size="10.00">+</text>
<text xml:space="preserve" text-anchor="start" x="159.62" y="-6.5" font-family="Helvetica,sans-Serif" font-size="10.00">ScheduleDeferred()</text>
<polygon fill="#666666" stroke="#666666" points="128.5,-210 128.5,-210 264.75,-210 264.75,-210 128.5,-210"/>
<polygon fill="#666666" stroke="#666666" points="128.5,-194 128.5,-194 264.75,-194 264.75,-194 128.5,-194"/>
<polygon fill="none" stroke="#666666" points="128.5,0 128.5,-228 264.75,-228 264.75,0 128.5,0"/>
</a>
</g>
</g>
<!-- Node4&#45;&gt;Node5 -->
<g id="edge4_Node000004_Node000005" class="edge">
<title>Node4&#45;&gt;Node5</title>
<g id="a_edge4_Node000004_Node000005"><a xlink:title=" ">
<path fill="none" stroke="#63b8ff" d="M196.62,-253.95C196.62,-245.8 196.62,-236.92 196.62,-227.71"/>
<polygon fill="none" stroke="#63b8ff" points="193.13,-253.78 196.63,-263.78 200.13,-253.78 193.13,-253.78"/>
</a>
</g>
</g>
<!-- Node7 -->
<g id="Node000007" class="node">
<title>Node7</title>
<g id="a_Node000007"><a xlink:href="classanch_1_1logger_1_1_logger_factory.html" target="_top" xlink:title="Logger factory.">
<polygon fill="white" stroke="none" points="421.38,-140 291.88,-140 291.88,-88 421.38,-88 421.38,-140"/>
<text xml:space="preserve" text-anchor="start" x="295.88" y="-126.5" font-family="Helvetica,sans-Serif" font-size="10.00">anch::logger::LoggerFactory</text>
<text xml:space="preserve" text-anchor="start" x="310.06" y="-110.5" font-family="Helvetica,sans-Serif" font-size="10.00">+</text>
<text xml:space="preserve" text-anchor="start" x="334.25" y="-110.5" font-family="Helvetica,sans-Serif" font-size="10.00">CONF_FILE</text>
<text xml:space="preserve" text-anchor="start" x="310.06" y="-94.5" font-family="Helvetica,sans-Serif" font-size="10.00">+</text>
<text xml:space="preserve" text-anchor="start" x="334.25" y="-94.5" font-family="Helvetica,sans-Serif" font-size="10.00">getLogger()</text>
<polygon fill="#666666" stroke="#666666" points="291.88,-122 291.88,-122 421.38,-122 421.38,-122 291.88,-122"/>
<polygon fill="#666666" stroke="#666666" points="291.88,-106 291.88,-106 332.25,-106 332.25,-106 291.88,-106"/>
<polygon fill="#666666" stroke="#666666" points="332.25,-106 332.25,-106 421.38,-106 421.38,-106 332.25,-106"/>
<polygon fill="none" stroke="#666666" points="291.88,-88 291.88,-140 421.38,-140 421.38,-88 291.88,-88"/>
</a>
</g>
</g>
<!-- Node6&#45;&gt;Node7 -->
<g id="edge6_Node000006_Node000007" class="edge">
<title>Node6&#45;&gt;Node7</title>
<g id="a_edge6_Node000006_Node000007"><a xlink:title=" ">
<path fill="none" stroke="#63b8ff" d="M356.62,-259.88C356.62,-224.28 356.62,-170.83 356.62,-139.78"/>
<polygon fill="none" stroke="#63b8ff" points="353.13,-259.7 356.63,-269.7 360.13,-259.7 353.13,-259.7"/>
</a>
</g>
</g>
<!-- Node9 -->
<g id="Node000009" class="node">
<title>Node9</title>
<g id="a_Node000009"><a xlink:href="classanch_1_1rest_1_1_global_mapper_registry.html" target="_top" xlink:title=" ">
<polygon fill="white" stroke="none" points="583.38,-146 465.88,-146 465.88,-82 583.38,-82 583.38,-146"/>
<text xml:space="preserve" text-anchor="start" x="469.88" y="-132.5" font-family="Helvetica,sans-Serif" font-size="10.00">anch::rest::GlobalMapper</text>
<text xml:space="preserve" text-anchor="start" x="506.25" y="-120.5" font-family="Helvetica,sans-Serif" font-size="10.00">Registry</text>
<text xml:space="preserve" text-anchor="start" x="523.12" y="-104.5" font-family="Helvetica,sans-Serif" font-size="10.00"> </text>
<text xml:space="preserve" text-anchor="start" x="523.12" y="-88.5" font-family="Helvetica,sans-Serif" font-size="10.00"> </text>
<polygon fill="#666666" stroke="#666666" points="465.88,-116 465.88,-116 583.38,-116 583.38,-116 465.88,-116"/>
<polygon fill="#666666" stroke="#666666" points="465.88,-100 465.88,-100 583.38,-100 583.38,-100 465.88,-100"/>
<polygon fill="none" stroke="#666666" points="465.88,-82 465.88,-146 583.38,-146 583.38,-82 465.88,-82"/>
</a>
</g>
</g>
<!-- Node8&#45;&gt;Node9 -->
<g id="edge8_Node000008_Node000009" class="edge">
<title>Node8&#45;&gt;Node9</title>
<g id="a_edge8_Node000008_Node000009"><a xlink:title=" ">
<path fill="none" stroke="#63b8ff" d="M524.62,-254.16C524.62,-221.09 524.62,-175.68 524.62,-145.85"/>
<polygon fill="none" stroke="#63b8ff" points="521.13,-253.78 524.63,-263.78 528.13,-253.78 521.13,-253.78"/>
</a>
</g>
</g>
<!-- Node11 -->
<g id="Node000011" class="node">
<title>Node11</title>
<g id="a_Node000011"><a xlink:href="classanch_1_1sql_1_1_s_q_l_shared_libraries.html" target="_top" xlink:title="SQL shared libraries manager.">
<polygon fill="white" stroke="none" points="753,-180 612.25,-180 612.25,-48 753,-48 753,-180"/>
<text xml:space="preserve" text-anchor="start" x="616.25" y="-166.5" font-family="Helvetica,sans-Serif" font-size="10.00">anch::sql::SQLSharedLibraries</text>
<text xml:space="preserve" text-anchor="start" x="681.12" y="-150.5" font-family="Helvetica,sans-Serif" font-size="10.00"> </text>
<text xml:space="preserve" text-anchor="start" x="619.38" y="-134.5" font-family="Helvetica,sans-Serif" font-size="10.00">+</text>
<text xml:space="preserve" text-anchor="start" x="632.5" y="-134.5" font-family="Helvetica,sans-Serif" font-size="10.00">registerSQLLibrary()</text>
<text xml:space="preserve" text-anchor="start" x="619.38" y="-118.5" font-family="Helvetica,sans-Serif" font-size="10.00">+</text>
<text xml:space="preserve" text-anchor="start" x="632.5" y="-118.5" font-family="Helvetica,sans-Serif" font-size="10.00">makeSharedConnection()</text>
<text xml:space="preserve" text-anchor="start" x="619.38" y="-102.5" font-family="Helvetica,sans-Serif" font-size="10.00">+</text>
<text xml:space="preserve" text-anchor="start" x="632.5" y="-102.5" font-family="Helvetica,sans-Serif" font-size="10.00">makeConnection()</text>
<text xml:space="preserve" text-anchor="start" x="619.38" y="-86.5" font-family="Helvetica,sans-Serif" font-size="10.00">+</text>
<text xml:space="preserve" text-anchor="start" x="632.5" y="-86.5" font-family="Helvetica,sans-Serif" font-size="10.00">registerMySQL()</text>
<text xml:space="preserve" text-anchor="start" x="619.38" y="-70.5" font-family="Helvetica,sans-Serif" font-size="10.00">+</text>
<text xml:space="preserve" text-anchor="start" x="632.5" y="-70.5" font-family="Helvetica,sans-Serif" font-size="10.00">registerPostgreSQL()</text>
<text xml:space="preserve" text-anchor="start" x="619.38" y="-54.5" font-family="Helvetica,sans-Serif" font-size="10.00">+</text>
<text xml:space="preserve" text-anchor="start" x="632.5" y="-54.5" font-family="Helvetica,sans-Serif" font-size="10.00">registerSQLite()</text>
<polygon fill="#666666" stroke="#666666" points="612.25,-162 612.25,-162 753,-162 753,-162 612.25,-162"/>
<polygon fill="#666666" stroke="#666666" points="612.25,-146 612.25,-146 753,-146 753,-146 612.25,-146"/>
<polygon fill="none" stroke="#666666" points="612.25,-48 612.25,-180 753,-180 753,-48 612.25,-48"/>
</a>
</g>
</g>
<!-- Node10&#45;&gt;Node11 -->
<g id="edge10_Node000010_Node000011" class="edge">
<title>Node10&#45;&gt;Node11</title>
<g id="a_edge10_Node000010_Node000011"><a xlink:title=" ">
<path fill="none" stroke="#63b8ff" d="M682.62,-253.98C682.62,-231.92 682.62,-204.4 682.62,-179.69"/>
<polygon fill="none" stroke="#63b8ff" points="679.13,-253.78 682.63,-263.78 686.13,-253.78 679.13,-253.78"/>
</a>
</g>
</g>
<!-- Node13 -->
<g id="Node000013" class="node">
<title>Node13</title>
<g id="a_Node000013"><a xlink:href="classanch_1_1sql_1_1_sql_connection_factory.html" target="_top" xlink:title="SQL connection factory.">
<polygon fill="white" stroke="none" points="901.38,-154 783.88,-154 783.88,-74 901.38,-74 901.38,-154"/>
<text xml:space="preserve" text-anchor="start" x="787.88" y="-140.5" font-family="Helvetica,sans-Serif" font-size="10.00">anch::sql::SqlConnection</text>
<text xml:space="preserve" text-anchor="start" x="826.12" y="-128.5" font-family="Helvetica,sans-Serif" font-size="10.00">Factory</text>
<text xml:space="preserve" text-anchor="start" x="841.12" y="-112.5" font-family="Helvetica,sans-Serif" font-size="10.00"> </text>
<text xml:space="preserve" text-anchor="start" x="792.12" y="-96.5" font-family="Helvetica,sans-Serif" font-size="10.00">+</text>
<text xml:space="preserve" text-anchor="start" x="806.38" y="-96.5" font-family="Helvetica,sans-Serif" font-size="10.00">createConnection()</text>
<text xml:space="preserve" text-anchor="start" x="792.12" y="-80.5" font-family="Helvetica,sans-Serif" font-size="10.00">+</text>
<text xml:space="preserve" text-anchor="start" x="806.38" y="-80.5" font-family="Helvetica,sans-Serif" font-size="10.00">getPool()</text>
<polygon fill="#666666" stroke="#666666" points="783.88,-124 783.88,-124 901.38,-124 901.38,-124 783.88,-124"/>
<polygon fill="#666666" stroke="#666666" points="783.88,-108 783.88,-108 901.38,-108 901.38,-108 783.88,-108"/>
<polygon fill="none" stroke="#666666" points="783.88,-74 783.88,-154 901.38,-154 901.38,-74 783.88,-74"/>
</a>
</g>
</g>
<!-- Node12&#45;&gt;Node13 -->
<g id="edge12_Node000012_Node000013" class="edge">
<title>Node12&#45;&gt;Node13</title>
<g id="a_edge12_Node000012_Node000013"><a xlink:title=" ">
<path fill="none" stroke="#63b8ff" d="M842.62,-253.84C842.62,-223.61 842.62,-183.18 842.62,-153.75"/>
<polygon fill="none" stroke="#63b8ff" points="839.13,-253.78 842.63,-263.78 846.13,-253.78 839.13,-253.78"/>
</a>
</g>
</g>
</g>
</svg>

<g id="navigator" transform="translate(0 0)" fill="#404254">
  <rect fill="#f2f5e9" fill-opacity="0.5" stroke="#606060" stroke-width=".5" x="0" y="0" width="60" height="60"/>
  <use id="zoomplus" xlink:href="#zoomPlus" x="17" y="9" onmousedown="handleZoom(evt,'in')"/>
  <use id="zoomminus" xlink:href="#zoomMin" x="42" y="9" onmousedown="handleZoom(evt,'out')"/>
  <use id="reset" xlink:href="#resetDef" x="30" y="36" onmousedown="handleReset()"/>
   <use id="arrowup" xlink:href="#arrowUp" x="0" y="0" onmousedown="handlePan(0,-1)"/>
  <use id="arrowright" xlink:href="#arrowRight" x="0" y="0" onmousedown="handlePan(1,0)"/>
  <use id="arrowdown" xlink:href="#arrowDown" x="0" y="0" onmousedown="handlePan(0,1)"/>
  <use id="arrowleft" xlink:href="#arrowLeft" x="0" y="0" onmousedown="handlePan(-1,0)"/>
</g>
<svg viewBox="0 0 15 15" width="100%" height="30px" preserveAspectRatio="xMaxYMin meet">
 <g id="arrow_out" transform="scale(0.3 0.3)">
  <a xlink:href="classanch_1_1_singleton__inherit__graph_org.svg" target="_base">
   <rect id="button" ry="5" rx="5" y="6" x="6" height="38" width="38"
        fill="#f2f5e9" fill-opacity="0.5" stroke="#606060" stroke-width="1.0"/>
   <path id="arrow"
     d="M 11.500037,31.436501 C 11.940474,20.09759 22.043105,11.32322 32.158766,21.979434 L 37.068811,17.246167 C 37.068811,17.246167 37.088388,32 37.088388,32 L 22.160133,31.978069 C 22.160133,31.978069 26.997745,27.140456 26.997745,27.140456 C 18.528582,18.264221 13.291696,25.230495 11.500037,31.436501 z"
     style="fill:#404040;"/>
  </a>
 </g>
</svg>

<style type='text/css'>
<![CDATA[
[data-mouse-over-selected='false'] { opacity: 0.7; }
[data-mouse-over-selected='true']  { opacity: 1.0; }
]]>
</style>
<script type="application/ecmascript"><![CDATA[
document.addEventListener('DOMContentLoaded', (event) => {
  highlightEdges();
  highlightAdjacentNodes();
});
]]></script>
</svg>
