<?xml version="1.0" encoding="UTF-8" standalone="no"?>
<!DOCTYPE svg PUBLIC "-//W3C//DTD SVG 1.1//EN"
 "http://www.w3.org/Graphics/SVG/1.1/DTD/svg11.dtd">
<!-- Generated by graphviz version 12.2.1 (0)
 -->
<!-- Title: anch::events::Observable&lt; T &gt; Pages: 1 -->
<svg width="632pt" height="878pt"
 viewBox="0.00 0.00 631.88 878.00" xmlns="http://www.w3.org/2000/svg" xmlns:xlink="http://www.w3.org/1999/xlink">
<g id="graph0" class="graph" transform="scale(1 1) rotate(0) translate(4 874)">
<title>anch::events::Observable&lt; T &gt;</title>
<!-- Node1 -->
<g id="Node000001" class="node">
<title>Node1</title>
<g id="a_Node000001"><a xlink:title="An observable implementation of the observers/observable design pattern.">
<polygon fill="#999999" stroke="none" points="348.25,-870 205.25,-870 205.25,-738 348.25,-738 348.25,-870"/>
<text text-anchor="start" x="209.25" y="-856.5" font-family="Helvetica,sans-Serif" font-size="10.00">anch::events::Observable&lt; T &gt;</text>
<text text-anchor="start" x="275.25" y="-840.5" font-family="Helvetica,sans-Serif" font-size="10.00"> </text>
<text text-anchor="start" x="221" y="-824.5" font-family="Helvetica,sans-Serif" font-size="10.00">+</text>
<text text-anchor="start" x="242.75" y="-824.5" font-family="Helvetica,sans-Serif" font-size="10.00">Observable()</text>
<text text-anchor="start" x="221" y="-808.5" font-family="Helvetica,sans-Serif" font-size="10.00">+</text>
<text text-anchor="start" x="242.75" y="-808.5" font-family="Helvetica,sans-Serif" font-size="10.00">~Observable()</text>
<text text-anchor="start" x="221" y="-792.5" font-family="Helvetica,sans-Serif" font-size="10.00">+</text>
<text text-anchor="start" x="242.75" y="-792.5" font-family="Helvetica,sans-Serif" font-size="10.00">addObserver()</text>
<text text-anchor="start" x="221" y="-776.5" font-family="Helvetica,sans-Serif" font-size="10.00">+</text>
<text text-anchor="start" x="242.75" y="-776.5" font-family="Helvetica,sans-Serif" font-size="10.00">removeObserver()</text>
<text text-anchor="start" x="221" y="-760.5" font-family="Helvetica,sans-Serif" font-size="10.00">+</text>
<text text-anchor="start" x="242.75" y="-760.5" font-family="Helvetica,sans-Serif" font-size="10.00">notifyObservers()</text>
<text text-anchor="start" x="221" y="-744.5" font-family="Helvetica,sans-Serif" font-size="10.00">+</text>
<text text-anchor="start" x="242.75" y="-744.5" font-family="Helvetica,sans-Serif" font-size="10.00">notifyObservers()</text>
<polygon fill="#666666" stroke="#666666" points="205.25,-852 205.25,-852 348.25,-852 348.25,-852 205.25,-852"/>
<polygon fill="#666666" stroke="#666666" points="205.25,-836 205.25,-836 348.25,-836 348.25,-836 205.25,-836"/>
<polygon fill="none" stroke="#666666" points="205.25,-738 205.25,-870 348.25,-870 348.25,-738 205.25,-738"/>
</a>
</g>
</g>
<!-- Node2 -->
<g id="Node000002" class="node">
<title>Node2</title>
<g id="a_Node000002"><a xlink:href="classanch_1_1events_1_1_observable.html" target="_top" xlink:title=" ">
<polygon fill="white" stroke="none" points="123.5,-690 0,-690 0,-546 123.5,-546 123.5,-690"/>
<text text-anchor="start" x="4" y="-676.5" font-family="Helvetica,sans-Serif" font-size="10.00">anch::events::Observable</text>
<text text-anchor="start" x="4" y="-664.5" font-family="Helvetica,sans-Serif" font-size="10.00">&lt; anch::json::JSONItem &gt;</text>
<text text-anchor="start" x="60.25" y="-648.5" font-family="Helvetica,sans-Serif" font-size="10.00"> </text>
<text text-anchor="start" x="10.88" y="-632.5" font-family="Helvetica,sans-Serif" font-size="10.00">+</text>
<text text-anchor="start" x="27.75" y="-632.5" font-family="Helvetica,sans-Serif" font-size="10.00">Observable()</text>
<text text-anchor="start" x="10.88" y="-616.5" font-family="Helvetica,sans-Serif" font-size="10.00">+</text>
<text text-anchor="start" x="27.75" y="-616.5" font-family="Helvetica,sans-Serif" font-size="10.00">~Observable()</text>
<text text-anchor="start" x="10.88" y="-600.5" font-family="Helvetica,sans-Serif" font-size="10.00">+</text>
<text text-anchor="start" x="27.75" y="-600.5" font-family="Helvetica,sans-Serif" font-size="10.00">addObserver()</text>
<text text-anchor="start" x="10.88" y="-584.5" font-family="Helvetica,sans-Serif" font-size="10.00">+</text>
<text text-anchor="start" x="27.75" y="-584.5" font-family="Helvetica,sans-Serif" font-size="10.00">removeObserver()</text>
<text text-anchor="start" x="10.88" y="-568.5" font-family="Helvetica,sans-Serif" font-size="10.00">+</text>
<text text-anchor="start" x="27.75" y="-568.5" font-family="Helvetica,sans-Serif" font-size="10.00">notifyObservers()</text>
<text text-anchor="start" x="10.88" y="-552.5" font-family="Helvetica,sans-Serif" font-size="10.00">+</text>
<text text-anchor="start" x="27.75" y="-552.5" font-family="Helvetica,sans-Serif" font-size="10.00">notifyObservers()</text>
<polygon fill="#666666" stroke="#666666" points="0,-660 0,-660 123.5,-660 123.5,-660 0,-660"/>
<polygon fill="#666666" stroke="#666666" points="0,-644 0,-644 123.5,-644 123.5,-644 0,-644"/>
<polygon fill="none" stroke="#666666" points="0,-546 0,-690 123.5,-690 123.5,-546 0,-546"/>
</a>
</g>
</g>
<!-- Node1&#45;&gt;Node2 -->
<g id="edge1_Node000001_Node000002" class="edge">
<title>Node1&#45;&gt;Node2</title>
<g id="a_edge1_Node000001_Node000002"><a xlink:title=" ">
<path fill="none" stroke="orange" d="M194.7,-781.98C159.54,-769.24 120.58,-749.56 94.25,-720 86.53,-711.33 80.64,-700.82 76.15,-689.88"/>
<polygon fill="orange" stroke="orange" points="193.45,-785.25 204.05,-785.22 195.74,-778.64 193.45,-785.25"/>
</a>
</g>
<text text-anchor="middle" x="153.5" y="-710.5" font-family="Helvetica,sans-Serif" font-size="10.00" fill="grey"> &lt; anch::json::JSONItem &gt;</text>
</g>
<!-- Node4 -->
<g id="Node000004" class="node">
<title>Node4</title>
<g id="a_Node000004"><a xlink:href="classanch_1_1events_1_1_observable.html" target="_top" xlink:title=" ">
<polygon fill="white" stroke="none" points="261.62,-690 141.88,-690 141.88,-546 261.62,-546 261.62,-690"/>
<text text-anchor="start" x="145.88" y="-676.5" font-family="Helvetica,sans-Serif" font-size="10.00">anch::events::Observable</text>
<text text-anchor="start" x="159" y="-664.5" font-family="Helvetica,sans-Serif" font-size="10.00">&lt; std::streamsize &gt;</text>
<text text-anchor="start" x="200.25" y="-648.5" font-family="Helvetica,sans-Serif" font-size="10.00"> </text>
<text text-anchor="start" x="151.81" y="-632.5" font-family="Helvetica,sans-Serif" font-size="10.00">+</text>
<text text-anchor="start" x="167.75" y="-632.5" font-family="Helvetica,sans-Serif" font-size="10.00">Observable()</text>
<text text-anchor="start" x="151.81" y="-616.5" font-family="Helvetica,sans-Serif" font-size="10.00">+</text>
<text text-anchor="start" x="167.75" y="-616.5" font-family="Helvetica,sans-Serif" font-size="10.00">~Observable()</text>
<text text-anchor="start" x="151.81" y="-600.5" font-family="Helvetica,sans-Serif" font-size="10.00">+</text>
<text text-anchor="start" x="167.75" y="-600.5" font-family="Helvetica,sans-Serif" font-size="10.00">addObserver()</text>
<text text-anchor="start" x="151.81" y="-584.5" font-family="Helvetica,sans-Serif" font-size="10.00">+</text>
<text text-anchor="start" x="167.75" y="-584.5" font-family="Helvetica,sans-Serif" font-size="10.00">removeObserver()</text>
<text text-anchor="start" x="151.81" y="-568.5" font-family="Helvetica,sans-Serif" font-size="10.00">+</text>
<text text-anchor="start" x="167.75" y="-568.5" font-family="Helvetica,sans-Serif" font-size="10.00">notifyObservers()</text>
<text text-anchor="start" x="151.81" y="-552.5" font-family="Helvetica,sans-Serif" font-size="10.00">+</text>
<text text-anchor="start" x="167.75" y="-552.5" font-family="Helvetica,sans-Serif" font-size="10.00">notifyObservers()</text>
<polygon fill="#666666" stroke="#666666" points="141.88,-660 141.88,-660 261.62,-660 261.62,-660 141.88,-660"/>
<polygon fill="#666666" stroke="#666666" points="141.88,-644 141.88,-644 261.62,-644 261.62,-644 141.88,-644"/>
<polygon fill="none" stroke="#666666" points="141.88,-546 141.88,-690 261.62,-690 261.62,-546 141.88,-546"/>
</a>
</g>
</g>
<!-- Node1&#45;&gt;Node4 -->
<g id="edge3_Node000001_Node000004" class="edge">
<title>Node1&#45;&gt;Node4</title>
<g id="a_edge3_Node000001_Node000004"><a xlink:title=" ">
<path fill="none" stroke="orange" d="M223.82,-728.04C222.55,-725.36 221.35,-722.68 220.25,-720 216.36,-710.52 213.28,-700.2 210.85,-689.9"/>
<polygon fill="orange" stroke="orange" points="220.71,-729.64 228.39,-736.93 226.93,-726.44 220.71,-729.64"/>
</a>
</g>
<text text-anchor="middle" x="264.5" y="-710.5" font-family="Helvetica,sans-Serif" font-size="10.00" fill="grey"> &lt; std::streamsize &gt;</text>
</g>
<!-- Node5 -->
<g id="Node000005" class="node">
<title>Node5</title>
<g id="a_Node000005"><a xlink:href="classanch_1_1events_1_1_observable.html" target="_top" xlink:title=" ">
<polygon fill="white" stroke="none" points="414.12,-690 279.38,-690 279.38,-546 414.12,-546 414.12,-690"/>
<text text-anchor="start" x="283.38" y="-676.5" font-family="Helvetica,sans-Serif" font-size="10.00">anch::events::Observable</text>
<text text-anchor="start" x="283.38" y="-664.5" font-family="Helvetica,sans-Serif" font-size="10.00">&lt; anch::json::MappingError &gt;</text>
<text text-anchor="start" x="345.25" y="-648.5" font-family="Helvetica,sans-Serif" font-size="10.00"> </text>
<text text-anchor="start" x="293.06" y="-632.5" font-family="Helvetica,sans-Serif" font-size="10.00">+</text>
<text text-anchor="start" x="312.75" y="-632.5" font-family="Helvetica,sans-Serif" font-size="10.00">Observable()</text>
<text text-anchor="start" x="293.06" y="-616.5" font-family="Helvetica,sans-Serif" font-size="10.00">+</text>
<text text-anchor="start" x="312.75" y="-616.5" font-family="Helvetica,sans-Serif" font-size="10.00">~Observable()</text>
<text text-anchor="start" x="293.06" y="-600.5" font-family="Helvetica,sans-Serif" font-size="10.00">+</text>
<text text-anchor="start" x="312.75" y="-600.5" font-family="Helvetica,sans-Serif" font-size="10.00">addObserver()</text>
<text text-anchor="start" x="293.06" y="-584.5" font-family="Helvetica,sans-Serif" font-size="10.00">+</text>
<text text-anchor="start" x="312.75" y="-584.5" font-family="Helvetica,sans-Serif" font-size="10.00">removeObserver()</text>
<text text-anchor="start" x="293.06" y="-568.5" font-family="Helvetica,sans-Serif" font-size="10.00">+</text>
<text text-anchor="start" x="312.75" y="-568.5" font-family="Helvetica,sans-Serif" font-size="10.00">notifyObservers()</text>
<text text-anchor="start" x="293.06" y="-552.5" font-family="Helvetica,sans-Serif" font-size="10.00">+</text>
<text text-anchor="start" x="312.75" y="-552.5" font-family="Helvetica,sans-Serif" font-size="10.00">notifyObservers()</text>
<polygon fill="#666666" stroke="#666666" points="279.38,-660 279.38,-660 414.12,-660 414.12,-660 279.38,-660"/>
<polygon fill="#666666" stroke="#666666" points="279.38,-644 279.38,-644 414.12,-644 414.12,-644 279.38,-644"/>
<polygon fill="none" stroke="#666666" points="279.38,-546 279.38,-690 414.12,-690 414.12,-546 279.38,-546"/>
</a>
</g>
</g>
<!-- Node1&#45;&gt;Node5 -->
<g id="edge5_Node000001_Node000005" class="edge">
<title>Node1&#45;&gt;Node5</title>
<g id="a_edge5_Node000001_Node000005"><a xlink:title=" ">
<path fill="none" stroke="orange" d="M309.62,-727.99C310.69,-725.3 311.74,-722.63 312.75,-720 316.47,-710.33 320.19,-700.06 323.73,-689.91"/>
<polygon fill="orange" stroke="orange" points="306.47,-726.44 305.96,-737.02 312.96,-729.07 306.47,-726.44"/>
</a>
</g>
<text text-anchor="middle" x="381.7" y="-710.5" font-family="Helvetica,sans-Serif" font-size="10.00" fill="grey"> &lt; anch::json::MappingError &gt;</text>
</g>
<!-- Node6 -->
<g id="Node000006" class="node">
<title>Node6</title>
<g id="a_Node000006"><a xlink:href="classanch_1_1events_1_1_observable.html" target="_top" xlink:title=" ">
<polygon fill="white" stroke="none" points="551.62,-690 431.88,-690 431.88,-546 551.62,-546 551.62,-690"/>
<text text-anchor="start" x="435.88" y="-676.5" font-family="Helvetica,sans-Serif" font-size="10.00">anch::events::Observable</text>
<text text-anchor="start" x="454.62" y="-664.5" font-family="Helvetica,sans-Serif" font-size="10.00">&lt; SocketEvent &gt;</text>
<text text-anchor="start" x="490.25" y="-648.5" font-family="Helvetica,sans-Serif" font-size="10.00"> </text>
<text text-anchor="start" x="441.81" y="-632.5" font-family="Helvetica,sans-Serif" font-size="10.00">+</text>
<text text-anchor="start" x="457.75" y="-632.5" font-family="Helvetica,sans-Serif" font-size="10.00">Observable()</text>
<text text-anchor="start" x="441.81" y="-616.5" font-family="Helvetica,sans-Serif" font-size="10.00">+</text>
<text text-anchor="start" x="457.75" y="-616.5" font-family="Helvetica,sans-Serif" font-size="10.00">~Observable()</text>
<text text-anchor="start" x="441.81" y="-600.5" font-family="Helvetica,sans-Serif" font-size="10.00">+</text>
<text text-anchor="start" x="457.75" y="-600.5" font-family="Helvetica,sans-Serif" font-size="10.00">addObserver()</text>
<text text-anchor="start" x="441.81" y="-584.5" font-family="Helvetica,sans-Serif" font-size="10.00">+</text>
<text text-anchor="start" x="457.75" y="-584.5" font-family="Helvetica,sans-Serif" font-size="10.00">removeObserver()</text>
<text text-anchor="start" x="441.81" y="-568.5" font-family="Helvetica,sans-Serif" font-size="10.00">+</text>
<text text-anchor="start" x="457.75" y="-568.5" font-family="Helvetica,sans-Serif" font-size="10.00">notifyObservers()</text>
<text text-anchor="start" x="441.81" y="-552.5" font-family="Helvetica,sans-Serif" font-size="10.00">+</text>
<text text-anchor="start" x="457.75" y="-552.5" font-family="Helvetica,sans-Serif" font-size="10.00">notifyObservers()</text>
<polygon fill="#666666" stroke="#666666" points="431.88,-660 431.88,-660 551.62,-660 551.62,-660 431.88,-660"/>
<polygon fill="#666666" stroke="#666666" points="431.88,-644 431.88,-644 551.62,-644 551.62,-644 431.88,-644"/>
<polygon fill="none" stroke="#666666" points="431.88,-546 431.88,-690 551.62,-690 551.62,-546 431.88,-546"/>
</a>
</g>
</g>
<!-- Node1&#45;&gt;Node6 -->
<g id="edge7_Node000001_Node000006" class="edge">
<title>Node1&#45;&gt;Node6</title>
<g id="a_edge7_Node000001_Node000006"><a xlink:title=" ">
<path fill="none" stroke="orange" d="M358.47,-778.5C390.65,-765.45 425.79,-746.49 450.75,-720 458.93,-711.32 465.56,-700.8 470.92,-689.86"/>
<polygon fill="orange" stroke="orange" points="357.6,-775.08 349.55,-781.98 360.14,-781.6 357.6,-775.08"/>
</a>
</g>
<text text-anchor="middle" x="498.6" y="-710.5" font-family="Helvetica,sans-Serif" font-size="10.00" fill="grey"> &lt; SocketEvent &gt;</text>
</g>
<!-- Node3 -->
<g id="Node000003" class="node">
<title>Node3</title>
<g id="a_Node000003"><a xlink:href="classanch_1_1json_1_1_reader.html" target="_top" xlink:title="JSON reader based on events.">
<polygon fill="white" stroke="none" points="247,-453 156.5,-453 156.5,-305 247,-305 247,-453"/>
<text text-anchor="start" x="160.5" y="-439.5" font-family="Helvetica,sans-Serif" font-size="10.00">anch::json::Reader</text>
<text text-anchor="start" x="200.25" y="-423.5" font-family="Helvetica,sans-Serif" font-size="10.00"> </text>
<text text-anchor="start" x="166.25" y="-407.5" font-family="Helvetica,sans-Serif" font-size="10.00">+</text>
<text text-anchor="start" x="182" y="-407.5" font-family="Helvetica,sans-Serif" font-size="10.00">Reader()</text>
<text text-anchor="start" x="166.25" y="-391.5" font-family="Helvetica,sans-Serif" font-size="10.00">+</text>
<text text-anchor="start" x="182" y="-391.5" font-family="Helvetica,sans-Serif" font-size="10.00">Reader()</text>
<text text-anchor="start" x="166.25" y="-375.5" font-family="Helvetica,sans-Serif" font-size="10.00">+</text>
<text text-anchor="start" x="182" y="-375.5" font-family="Helvetica,sans-Serif" font-size="10.00">Reader()</text>
<text text-anchor="start" x="166.25" y="-359.5" font-family="Helvetica,sans-Serif" font-size="10.00">+</text>
<text text-anchor="start" x="182" y="-359.5" font-family="Helvetica,sans-Serif" font-size="10.00">Reader()</text>
<text text-anchor="start" x="166.25" y="-343.5" font-family="Helvetica,sans-Serif" font-size="10.00">+</text>
<text text-anchor="start" x="182" y="-343.5" font-family="Helvetica,sans-Serif" font-size="10.00">~Reader()</text>
<text text-anchor="start" x="166.25" y="-327.5" font-family="Helvetica,sans-Serif" font-size="10.00">+</text>
<text text-anchor="start" x="182" y="-327.5" font-family="Helvetica,sans-Serif" font-size="10.00">parse()</text>
<text text-anchor="start" x="166.62" y="-311.5" font-family="Helvetica,sans-Serif" font-size="10.00">#</text>
<text text-anchor="start" x="182" y="-311.5" font-family="Helvetica,sans-Serif" font-size="10.00">refillBuffer()</text>
<polygon fill="#666666" stroke="#666666" points="156.5,-435 156.5,-435 247,-435 247,-435 156.5,-435"/>
<polygon fill="#666666" stroke="#666666" points="156.5,-419 156.5,-419 247,-419 247,-419 156.5,-419"/>
<polygon fill="none" stroke="#666666" points="156.5,-305 156.5,-453 247,-453 247,-305 156.5,-305"/>
</a>
</g>
</g>
<!-- Node2&#45;&gt;Node3 -->
<g id="edge2_Node000002_Node000003" class="edge">
<title>Node2&#45;&gt;Node3</title>
<g id="a_edge2_Node000002_Node000003"><a xlink:title=" ">
<path fill="none" stroke="#63b8ff" d="M109.37,-536.39C125.35,-509.33 143.08,-479.32 158.7,-452.89"/>
<polygon fill="none" stroke="#63b8ff" points="106.41,-534.52 104.33,-544.91 112.43,-538.08 106.41,-534.52"/>
</a>
</g>
</g>
<!-- Node4&#45;&gt;Node3 -->
<g id="edge4_Node000004_Node000003" class="edge">
<title>Node4&#45;&gt;Node3</title>
<g id="a_edge4_Node000004_Node000003"><a xlink:title=" ">
<path fill="none" stroke="#63b8ff" d="M201.75,-534.96C201.75,-508.28 201.75,-478.86 201.75,-452.89"/>
<polygon fill="none" stroke="#63b8ff" points="198.25,-534.7 201.75,-544.7 205.25,-534.7 198.25,-534.7"/>
</a>
</g>
</g>
<!-- Node5&#45;&gt;Node3 -->
<g id="edge6_Node000005_Node000003" class="edge">
<title>Node5&#45;&gt;Node3</title>
<g id="a_edge6_Node000005_Node000003"><a xlink:title=" ">
<path fill="none" stroke="#63b8ff" d="M297.65,-536.74C281.04,-509.59 262.59,-479.44 246.34,-452.89"/>
<polygon fill="none" stroke="#63b8ff" points="294.45,-538.22 302.65,-544.92 300.42,-534.57 294.45,-538.22"/>
</a>
</g>
</g>
<!-- Node7 -->
<g id="Node000007" class="node">
<title>Node7</title>
<g id="a_Node000007"><a xlink:href="classanch_1_1network_1_1_socket.html" target="_top" xlink:title=" ">
<polygon fill="white" stroke="none" points="544.88,-509 438.62,-509 438.62,-249 544.88,-249 544.88,-509"/>
<text text-anchor="start" x="442.62" y="-495.5" font-family="Helvetica,sans-Serif" font-size="10.00">anch::network::Socket</text>
<text text-anchor="start" x="449.5" y="-479.5" font-family="Helvetica,sans-Serif" font-size="10.00">#</text>
<text text-anchor="start" x="465.62" y="-479.5" font-family="Helvetica,sans-Serif" font-size="10.00">_sock</text>
<text text-anchor="start" x="449.5" y="-463.5" font-family="Helvetica,sans-Serif" font-size="10.00">#</text>
<text text-anchor="start" x="465.62" y="-463.5" font-family="Helvetica,sans-Serif" font-size="10.00">_backlog</text>
<text text-anchor="start" x="449.5" y="-447.5" font-family="Helvetica,sans-Serif" font-size="10.00">#</text>
<text text-anchor="start" x="465.62" y="-447.5" font-family="Helvetica,sans-Serif" font-size="10.00">_address</text>
<text text-anchor="start" x="449.12" y="-431.5" font-family="Helvetica,sans-Serif" font-size="10.00">+</text>
<text text-anchor="start" x="465.62" y="-431.5" font-family="Helvetica,sans-Serif" font-size="10.00">Socket()</text>
<text text-anchor="start" x="449.12" y="-415.5" font-family="Helvetica,sans-Serif" font-size="10.00">+</text>
<text text-anchor="start" x="465.62" y="-415.5" font-family="Helvetica,sans-Serif" font-size="10.00">~Socket()</text>
<text text-anchor="start" x="449.12" y="-399.5" font-family="Helvetica,sans-Serif" font-size="10.00">+</text>
<text text-anchor="start" x="465.62" y="-399.5" font-family="Helvetica,sans-Serif" font-size="10.00">bind()</text>
<text text-anchor="start" x="449.12" y="-383.5" font-family="Helvetica,sans-Serif" font-size="10.00">+</text>
<text text-anchor="start" x="465.62" y="-383.5" font-family="Helvetica,sans-Serif" font-size="10.00">connect()</text>
<text text-anchor="start" x="449.12" y="-367.5" font-family="Helvetica,sans-Serif" font-size="10.00">+</text>
<text text-anchor="start" x="465.62" y="-367.5" font-family="Helvetica,sans-Serif" font-size="10.00">listen()</text>
<text text-anchor="start" x="449.12" y="-351.5" font-family="Helvetica,sans-Serif" font-size="10.00">+</text>
<text text-anchor="start" x="465.62" y="-351.5" font-family="Helvetica,sans-Serif" font-size="10.00">accept()</text>
<text text-anchor="start" x="449.12" y="-335.5" font-family="Helvetica,sans-Serif" font-size="10.00">+</text>
<text text-anchor="start" x="465.62" y="-335.5" font-family="Helvetica,sans-Serif" font-size="10.00">send()</text>
<text text-anchor="start" x="449.12" y="-319.5" font-family="Helvetica,sans-Serif" font-size="10.00">+</text>
<text text-anchor="start" x="465.62" y="-319.5" font-family="Helvetica,sans-Serif" font-size="10.00">receive()</text>
<text text-anchor="start" x="449.12" y="-303.5" font-family="Helvetica,sans-Serif" font-size="10.00">+</text>
<text text-anchor="start" x="465.62" y="-303.5" font-family="Helvetica,sans-Serif" font-size="10.00">receive()</text>
<text text-anchor="start" x="449.12" y="-287.5" font-family="Helvetica,sans-Serif" font-size="10.00">+</text>
<text text-anchor="start" x="465.62" y="-287.5" font-family="Helvetica,sans-Serif" font-size="10.00">shutdown()</text>
<text text-anchor="start" x="465.62" y="-271.5" font-family="Helvetica,sans-Serif" font-size="10.00">and 11 more...</text>
<text text-anchor="start" x="449.5" y="-255.5" font-family="Helvetica,sans-Serif" font-size="10.00">#</text>
<text text-anchor="start" x="465.62" y="-255.5" font-family="Helvetica,sans-Serif" font-size="10.00">Socket()</text>
<polygon fill="#666666" stroke="#666666" points="438.62,-491 438.62,-491 544.88,-491 544.88,-491 438.62,-491"/>
<polygon fill="#666666" stroke="#666666" points="438.62,-443 438.62,-443 463.62,-443 463.62,-443 438.62,-443"/>
<polygon fill="#666666" stroke="#666666" points="463.62,-443 463.62,-443 544.88,-443 544.88,-443 463.62,-443"/>
<polygon fill="none" stroke="#666666" points="438.62,-249 438.62,-509 544.88,-509 544.88,-249 438.62,-249"/>
</a>
</g>
</g>
<!-- Node6&#45;&gt;Node7 -->
<g id="edge8_Node000006_Node000007" class="edge">
<title>Node6&#45;&gt;Node7</title>
<g id="a_edge8_Node000006_Node000007"><a xlink:title=" ">
<path fill="none" stroke="#63b8ff" d="M491.75,-534.88C491.75,-526.44 491.75,-517.71 491.75,-508.92"/>
<polygon fill="none" stroke="#63b8ff" points="488.25,-534.7 491.75,-544.7 495.25,-534.7 488.25,-534.7"/>
</a>
</g>
</g>
<!-- Node8 -->
<g id="Node000008" class="node">
<title>Node8</title>
<g id="a_Node000008"><a xlink:href="classanch_1_1network_1_1_tcp_socket.html" target="_top" xlink:title=" ">
<polygon fill="white" stroke="none" points="481.75,-164 359.75,-164 359.75,-48 481.75,-48 481.75,-164"/>
<text text-anchor="start" x="363.75" y="-150.5" font-family="Helvetica,sans-Serif" font-size="10.00">anch::network::TcpSocket</text>
<text text-anchor="start" x="419.25" y="-134.5" font-family="Helvetica,sans-Serif" font-size="10.00"> </text>
<text text-anchor="start" x="375.12" y="-118.5" font-family="Helvetica,sans-Serif" font-size="10.00">+</text>
<text text-anchor="start" x="396.5" y="-118.5" font-family="Helvetica,sans-Serif" font-size="10.00">TcpSocket()</text>
<text text-anchor="start" x="375.12" y="-102.5" font-family="Helvetica,sans-Serif" font-size="10.00">+</text>
<text text-anchor="start" x="396.5" y="-102.5" font-family="Helvetica,sans-Serif" font-size="10.00">TcpSocket()</text>
<text text-anchor="start" x="375.12" y="-86.5" font-family="Helvetica,sans-Serif" font-size="10.00">+</text>
<text text-anchor="start" x="396.5" y="-86.5" font-family="Helvetica,sans-Serif" font-size="10.00">~TcpSocket()</text>
<text text-anchor="start" x="375.12" y="-70.5" font-family="Helvetica,sans-Serif" font-size="10.00">+</text>
<text text-anchor="start" x="396.5" y="-70.5" font-family="Helvetica,sans-Serif" font-size="10.00">send()</text>
<text text-anchor="start" x="375.12" y="-54.5" font-family="Helvetica,sans-Serif" font-size="10.00">+</text>
<text text-anchor="start" x="396.5" y="-54.5" font-family="Helvetica,sans-Serif" font-size="10.00">receive()</text>
<polygon fill="#666666" stroke="#666666" points="359.75,-146 359.75,-146 481.75,-146 481.75,-146 359.75,-146"/>
<polygon fill="#666666" stroke="#666666" points="359.75,-130 359.75,-130 481.75,-130 481.75,-130 359.75,-130"/>
<polygon fill="none" stroke="#666666" points="359.75,-48 359.75,-164 481.75,-164 481.75,-48 359.75,-48"/>
</a>
</g>
</g>
<!-- Node7&#45;&gt;Node8 -->
<g id="edge9_Node000007_Node000008" class="edge">
<title>Node7&#45;&gt;Node8</title>
<g id="a_edge9_Node000007_Node000008"><a xlink:title=" ">
<path fill="none" stroke="#63b8ff" d="M455.16,-238.32C448.23,-211.9 441.37,-185.69 435.61,-163.71"/>
<polygon fill="none" stroke="#63b8ff" points="451.71,-239 457.63,-247.78 458.49,-237.22 451.71,-239"/>
</a>
</g>
</g>
<!-- Node9 -->
<g id="Node000009" class="node">
<title>Node9</title>
<g id="a_Node000009"><a xlink:href="classanch_1_1network_1_1_udp_socket.html" target="_top" xlink:title=" ">
<polygon fill="white" stroke="none" points="623.88,-212 499.62,-212 499.62,0 623.88,0 623.88,-212"/>
<text text-anchor="start" x="503.62" y="-198.5" font-family="Helvetica,sans-Serif" font-size="10.00">anch::network::UdpSocket</text>
<text text-anchor="start" x="560.25" y="-182.5" font-family="Helvetica,sans-Serif" font-size="10.00"> </text>
<text text-anchor="start" x="515" y="-166.5" font-family="Helvetica,sans-Serif" font-size="10.00">+</text>
<text text-anchor="start" x="536.38" y="-166.5" font-family="Helvetica,sans-Serif" font-size="10.00">UdpSocket()</text>
<text text-anchor="start" x="515" y="-150.5" font-family="Helvetica,sans-Serif" font-size="10.00">+</text>
<text text-anchor="start" x="536.38" y="-150.5" font-family="Helvetica,sans-Serif" font-size="10.00">UdpSocket()</text>
<text text-anchor="start" x="515" y="-134.5" font-family="Helvetica,sans-Serif" font-size="10.00">+</text>
<text text-anchor="start" x="536.38" y="-134.5" font-family="Helvetica,sans-Serif" font-size="10.00">~UdpSocket()</text>
<text text-anchor="start" x="515" y="-118.5" font-family="Helvetica,sans-Serif" font-size="10.00">+</text>
<text text-anchor="start" x="536.38" y="-118.5" font-family="Helvetica,sans-Serif" font-size="10.00">listen()</text>
<text text-anchor="start" x="515" y="-102.5" font-family="Helvetica,sans-Serif" font-size="10.00">+</text>
<text text-anchor="start" x="536.38" y="-102.5" font-family="Helvetica,sans-Serif" font-size="10.00">connect()</text>
<text text-anchor="start" x="515" y="-86.5" font-family="Helvetica,sans-Serif" font-size="10.00">+</text>
<text text-anchor="start" x="536.38" y="-86.5" font-family="Helvetica,sans-Serif" font-size="10.00">accept()</text>
<text text-anchor="start" x="515" y="-70.5" font-family="Helvetica,sans-Serif" font-size="10.00">+</text>
<text text-anchor="start" x="536.38" y="-70.5" font-family="Helvetica,sans-Serif" font-size="10.00">send()</text>
<text text-anchor="start" x="515" y="-54.5" font-family="Helvetica,sans-Serif" font-size="10.00">+</text>
<text text-anchor="start" x="536.38" y="-54.5" font-family="Helvetica,sans-Serif" font-size="10.00">send()</text>
<text text-anchor="start" x="515" y="-38.5" font-family="Helvetica,sans-Serif" font-size="10.00">+</text>
<text text-anchor="start" x="536.38" y="-38.5" font-family="Helvetica,sans-Serif" font-size="10.00">receive()</text>
<text text-anchor="start" x="515" y="-22.5" font-family="Helvetica,sans-Serif" font-size="10.00">+</text>
<text text-anchor="start" x="536.38" y="-22.5" font-family="Helvetica,sans-Serif" font-size="10.00">getDomain()</text>
<text text-anchor="start" x="515" y="-6.5" font-family="Helvetica,sans-Serif" font-size="10.00">+</text>
<text text-anchor="start" x="536.38" y="-6.5" font-family="Helvetica,sans-Serif" font-size="10.00">getType()</text>
<polygon fill="#666666" stroke="#666666" points="499.62,-194 499.62,-194 623.88,-194 623.88,-194 499.62,-194"/>
<polygon fill="#666666" stroke="#666666" points="499.62,-178 499.62,-178 623.88,-178 623.88,-178 499.62,-178"/>
<polygon fill="none" stroke="#666666" points="499.62,0 499.62,-212 623.88,-212 623.88,0 499.62,0"/>
</a>
</g>
</g>
<!-- Node7&#45;&gt;Node9 -->
<g id="edge10_Node000007_Node000009" class="edge">
<title>Node7&#45;&gt;Node9</title>
<g id="a_edge10_Node000007_Node000009"><a xlink:title=" ">
<path fill="none" stroke="#63b8ff" d="M527.82,-238.34C530.13,-229.4 532.44,-220.49 534.69,-211.75"/>
<polygon fill="none" stroke="#63b8ff" points="524.5,-237.22 525.39,-247.78 531.28,-238.97 524.5,-237.22"/>
</a>
</g>
</g>
</g>
</svg>
