<?xml version="1.0" encoding="UTF-8" standalone="no"?>
<!DOCTYPE svg PUBLIC "-//W3C//DTD SVG 1.1//EN"
 "http://www.w3.org/Graphics/SVG/1.1/DTD/svg11.dtd">
<!-- Generated by graphviz version 12.2.1 (0)
 -->
<!-- Title: anch::sql::Date Pages: 1 -->
<!--zoomable 649 -->

<svg id="main" version="1.1" xmlns="http://www.w3.org/2000/svg" xmlns:xlink="http://www.w3.org/1999/xlink" xml:space="preserve" onload="init(evt)">

<style type="text/css"><![CDATA[
.node, .edge {opacity: 0.7;}
.node.selected, .edge.selected {opacity: 1;}
.edge:hover path { stroke: red; }
.edge:hover polygon { stroke: red; fill: red; }
]]></style>

<defs>
  <circle id="rim" cx="0" cy="0" r="7"/>
  <circle id="rim2" cx="0" cy="0" r="3.5"/>
  <g id="zoomPlus">
    <use xlink:href="#rim" fill="#404040"><set attributeName="fill" to="#808080" begin="zoomplus.mouseover" end="zoomplus.mouseout"/></use>
    <path d="M-4,0h8M0,-4v8" fill="none" stroke="white" stroke-width="1.5" pointer-events="none"/>
  </g>
  <g id="zoomMin">
    <use xlink:href="#rim" fill="#404040"><set attributeName="fill" to="#808080" begin="zoomminus.mouseover" end="zoomminus.mouseout"/></use>
    <path d="M-4,0h8" fill="none" stroke="white" stroke-width="1.5" pointer-events="none"/>
  </g>
  <g id="arrowUp" transform="translate(30 24)">
    <use xlink:href="#rim"/>
    <path pointer-events="none" fill="none" stroke="white" stroke-width="1.5" d="M0,-3.0v7 M-2.5,-0.5L0,-3.0L2.5,-0.5"/>
  </g>
  <g id="arrowRight" transform="rotate(90) translate(36 -43)">
    <use xlink:href="#rim"/>
    <path pointer-events="none" fill="none" stroke="white" stroke-width="1.5" d="M0,-3.0v7 M-2.5,-0.5L0,-3.0L2.5,-0.5"/>
  </g>
  <g id="arrowDown" transform="rotate(180) translate(-30 -48)">
    <use xlink:href="#rim"/>
    <path pointer-events="none" fill="none" stroke="white" stroke-width="1.5" d="M0,-3.0v7 M-2.5,-0.5L0,-3.0L2.5,-0.5"/>
  </g>
  <g id="arrowLeft" transform="rotate(270) translate(-36 17)">
    <use xlink:href="#rim"/>
    <path pointer-events="none" fill="none" stroke="white" stroke-width="1.5" d="M0,-3.0v7 M-2.5,-0.5L0,-3.0L2.5,-0.5"/>
  </g>
  <g id="resetDef">
    <use xlink:href="#rim2" fill="#404040"><set attributeName="fill" to="#808080" begin="reset.mouseover" end="reset.mouseout"/></use>
  </g>
</defs>
<script type="application/ecmascript">
var viewWidth = 92;
var viewHeight = 649;
var sectionId = 'dynsection-1';
</script>
<script type="application/ecmascript" xlink:href="svg.min.js"/>
<svg id="graph" class="graph">
<g id="viewport">
<title>anch::sql::Date</title>
<!-- Node1 -->
<g id="Node000001" class="node">
<title>Node1</title>
<g id="a_Node000001"><a xlink:title="SQL date type.">
<polygon fill="#999999" stroke="none" points="79.38,-116 4.62,-116 4.62,0 79.38,0 79.38,-116"/>
<text text-anchor="start" x="8.62" y="-102.5" font-family="Helvetica,sans-Serif" font-size="10.00">anch::sql::Date</text>
<text text-anchor="start" x="40.5" y="-86.5" font-family="Helvetica,sans-Serif" font-size="10.00"> </text>
<text text-anchor="start" x="14.56" y="-70.5" font-family="Helvetica,sans-Serif" font-size="10.00">+</text>
<text text-anchor="start" x="30.5" y="-70.5" font-family="Helvetica,sans-Serif" font-size="10.00">Date()</text>
<text text-anchor="start" x="14.56" y="-54.5" font-family="Helvetica,sans-Serif" font-size="10.00">+</text>
<text text-anchor="start" x="30.5" y="-54.5" font-family="Helvetica,sans-Serif" font-size="10.00">Date()</text>
<text text-anchor="start" x="14.56" y="-38.5" font-family="Helvetica,sans-Serif" font-size="10.00">+</text>
<text text-anchor="start" x="30.5" y="-38.5" font-family="Helvetica,sans-Serif" font-size="10.00">Date()</text>
<text text-anchor="start" x="14.56" y="-22.5" font-family="Helvetica,sans-Serif" font-size="10.00">+</text>
<text text-anchor="start" x="30.5" y="-22.5" font-family="Helvetica,sans-Serif" font-size="10.00">Date()</text>
<text text-anchor="start" x="14.56" y="-6.5" font-family="Helvetica,sans-Serif" font-size="10.00">+</text>
<text text-anchor="start" x="30.5" y="-6.5" font-family="Helvetica,sans-Serif" font-size="10.00">~Date()</text>
<polygon fill="#666666" stroke="#666666" points="4.62,-98 4.62,-98 79.38,-98 79.38,-98 4.62,-98"/>
<polygon fill="#666666" stroke="#666666" points="4.62,-82 4.62,-82 79.38,-82 79.38,-82 4.62,-82"/>
<polygon fill="none" stroke="#666666" points="4.62,0 4.62,-116 79.38,-116 79.38,0 4.62,0"/>
</a>
</g>
</g>
<!-- Node2 -->
<g id="Node000002" class="node">
<title>Node2</title>
<g id="a_Node000002"><a xlink:href="classanch_1_1date_1_1_date.html" target="_top" xlink:title=" ">
<polygon fill="white" stroke="none" points="84,-541 0,-541 0,-153 84,-153 84,-541"/>
<text text-anchor="start" x="5.62" y="-527.5" font-family="Helvetica,sans-Serif" font-size="10.00">anch::date::Date</text>
<text text-anchor="start" x="4.38" y="-511.5" font-family="Helvetica,sans-Serif" font-size="10.00">#</text>
<text text-anchor="start" x="14" y="-511.5" font-family="Helvetica,sans-Serif" font-size="10.00">_timestamp</text>
<text text-anchor="start" x="4.38" y="-495.5" font-family="Helvetica,sans-Serif" font-size="10.00">#</text>
<text text-anchor="start" x="14" y="-495.5" font-family="Helvetica,sans-Serif" font-size="10.00">_years</text>
<text text-anchor="start" x="4.38" y="-479.5" font-family="Helvetica,sans-Serif" font-size="10.00">#</text>
<text text-anchor="start" x="14" y="-479.5" font-family="Helvetica,sans-Serif" font-size="10.00">_months</text>
<text text-anchor="start" x="4.38" y="-463.5" font-family="Helvetica,sans-Serif" font-size="10.00">#</text>
<text text-anchor="start" x="14" y="-463.5" font-family="Helvetica,sans-Serif" font-size="10.00">_ydays</text>
<text text-anchor="start" x="4.38" y="-447.5" font-family="Helvetica,sans-Serif" font-size="10.00">#</text>
<text text-anchor="start" x="14" y="-447.5" font-family="Helvetica,sans-Serif" font-size="10.00">_mdays</text>
<text text-anchor="start" x="4.38" y="-431.5" font-family="Helvetica,sans-Serif" font-size="10.00">#</text>
<text text-anchor="start" x="14" y="-431.5" font-family="Helvetica,sans-Serif" font-size="10.00">_wdays</text>
<text text-anchor="start" x="4.38" y="-415.5" font-family="Helvetica,sans-Serif" font-size="10.00">#</text>
<text text-anchor="start" x="14" y="-415.5" font-family="Helvetica,sans-Serif" font-size="10.00">_hours</text>
<text text-anchor="start" x="4.38" y="-399.5" font-family="Helvetica,sans-Serif" font-size="10.00">#</text>
<text text-anchor="start" x="14" y="-399.5" font-family="Helvetica,sans-Serif" font-size="10.00">_minutes</text>
<text text-anchor="start" x="4.38" y="-383.5" font-family="Helvetica,sans-Serif" font-size="10.00">#</text>
<text text-anchor="start" x="14" y="-383.5" font-family="Helvetica,sans-Serif" font-size="10.00">_seconds</text>
<text text-anchor="start" x="4.38" y="-367.5" font-family="Helvetica,sans-Serif" font-size="10.00">#</text>
<text text-anchor="start" x="14" y="-367.5" font-family="Helvetica,sans-Serif" font-size="10.00">_milliseconds</text>
<text text-anchor="start" x="4.38" y="-351.5" font-family="Helvetica,sans-Serif" font-size="10.00">#</text>
<text text-anchor="start" x="14" y="-351.5" font-family="Helvetica,sans-Serif" font-size="10.00">_microseconds</text>
<text text-anchor="start" x="4.38" y="-335.5" font-family="Helvetica,sans-Serif" font-size="10.00">#</text>
<text text-anchor="start" x="14" y="-335.5" font-family="Helvetica,sans-Serif" font-size="10.00">_nanoseconds</text>
<text text-anchor="start" x="4" y="-319.5" font-family="Helvetica,sans-Serif" font-size="10.00">+</text>
<text text-anchor="start" x="14" y="-319.5" font-family="Helvetica,sans-Serif" font-size="10.00">Date()</text>
<text text-anchor="start" x="4" y="-303.5" font-family="Helvetica,sans-Serif" font-size="10.00">+</text>
<text text-anchor="start" x="14" y="-303.5" font-family="Helvetica,sans-Serif" font-size="10.00">Date()</text>
<text text-anchor="start" x="4" y="-287.5" font-family="Helvetica,sans-Serif" font-size="10.00">+</text>
<text text-anchor="start" x="14" y="-287.5" font-family="Helvetica,sans-Serif" font-size="10.00">Date()</text>
<text text-anchor="start" x="4" y="-271.5" font-family="Helvetica,sans-Serif" font-size="10.00">+</text>
<text text-anchor="start" x="14" y="-271.5" font-family="Helvetica,sans-Serif" font-size="10.00">Date()</text>
<text text-anchor="start" x="4" y="-255.5" font-family="Helvetica,sans-Serif" font-size="10.00">+</text>
<text text-anchor="start" x="14" y="-255.5" font-family="Helvetica,sans-Serif" font-size="10.00">~Date()</text>
<text text-anchor="start" x="4" y="-239.5" font-family="Helvetica,sans-Serif" font-size="10.00">+</text>
<text text-anchor="start" x="14" y="-239.5" font-family="Helvetica,sans-Serif" font-size="10.00">after()</text>
<text text-anchor="start" x="4" y="-223.5" font-family="Helvetica,sans-Serif" font-size="10.00">+</text>
<text text-anchor="start" x="14" y="-223.5" font-family="Helvetica,sans-Serif" font-size="10.00">before()</text>
<text text-anchor="start" x="4" y="-207.5" font-family="Helvetica,sans-Serif" font-size="10.00">+</text>
<text text-anchor="start" x="14" y="-207.5" font-family="Helvetica,sans-Serif" font-size="10.00">equals()</text>
<text text-anchor="start" x="4" y="-191.5" font-family="Helvetica,sans-Serif" font-size="10.00">+</text>
<text text-anchor="start" x="14" y="-191.5" font-family="Helvetica,sans-Serif" font-size="10.00">operator&gt;()</text>
<text text-anchor="start" x="4" y="-175.5" font-family="Helvetica,sans-Serif" font-size="10.00">+</text>
<text text-anchor="start" x="14" y="-175.5" font-family="Helvetica,sans-Serif" font-size="10.00">operator&gt;=()</text>
<text text-anchor="start" x="14" y="-159.5" font-family="Helvetica,sans-Serif" font-size="10.00">and 7 more...</text>
<polygon fill="#666666" stroke="#666666" points="0,-523 0,-523 84,-523 84,-523 0,-523"/>
<polygon fill="#666666" stroke="#666666" points="0,-331 0,-331 12,-331 12,-331 0,-331"/>
<polygon fill="#666666" stroke="#666666" points="12,-331 12,-331 84,-331 84,-331 12,-331"/>
<polygon fill="none" stroke="#666666" points="0,-153 0,-541 84,-541 84,-153 0,-153"/>
</a>
</g>
</g>
<!-- Node2&#45;&gt;Node1 -->
<g id="edge1_Node000001_Node000002" class="edge">
<title>Node2&#45;&gt;Node1</title>
<g id="a_edge1_Node000001_Node000002"><a xlink:title=" ">
<path fill="none" stroke="#63b8ff" d="M42,-141.99C42,-132.81 42,-124.03 42,-115.86"/>
<polygon fill="none" stroke="#63b8ff" points="38.5,-141.86 42,-151.86 45.5,-141.86 38.5,-141.86"/>
</a>
</g>
</g>
<!-- Node3 -->
<g id="Node000003" class="node">
<title>Node3</title>
<g id="a_Node000003"><a xlink:title=" ">
<polygon fill="white" stroke="none" points="69.25,-641 14.75,-641 14.75,-589 69.25,-589 69.25,-641"/>
<text text-anchor="start" x="18.75" y="-627.5" font-family="Helvetica,sans-Serif" font-size="10.00">std::mutex</text>
<text text-anchor="start" x="40.5" y="-611.5" font-family="Helvetica,sans-Serif" font-size="10.00"> </text>
<text text-anchor="start" x="40.5" y="-595.5" font-family="Helvetica,sans-Serif" font-size="10.00"> </text>
<polygon fill="#666666" stroke="#666666" points="14.75,-623 14.75,-623 69.25,-623 69.25,-623 14.75,-623"/>
<polygon fill="#666666" stroke="#666666" points="14.75,-607 14.75,-607 69.25,-607 69.25,-607 14.75,-607"/>
<polygon fill="none" stroke="#666666" points="14.75,-589 14.75,-641 69.25,-641 69.25,-589 14.75,-589"/>
</a>
</g>
</g>
<!-- Node3&#45;&gt;Node2 -->
<g id="edge2_Node000002_Node000003" class="edge">
<title>Node3&#45;&gt;Node2</title>
<g id="a_edge2_Node000002_Node000003"><a xlink:title=" ">
<path fill="none" stroke="#63b8ff" d="M42,-589.45C42,-579.65 42,-567.43 42,-553.71"/>
<polygon fill="none" stroke="#63b8ff" points="42,-553.62 38,-547.62 42,-541.62 46,-547.62 42,-553.62"/>
</a>
</g>
<text text-anchor="middle" x="62.25" y="-561.5" font-family="Helvetica,sans-Serif" font-size="10.00" fill="grey"> #_mutex</text>
</g>
</g>
</svg>

<g id="navigator" transform="translate(0 0)" fill="#404254">
  <rect fill="#f2f5e9" fill-opacity="0.5" stroke="#606060" stroke-width=".5" x="0" y="0" width="60" height="60"/>
  <use id="zoomplus" xlink:href="#zoomPlus" x="17" y="9" onmousedown="handleZoom(evt,'in')"/>
  <use id="zoomminus" xlink:href="#zoomMin" x="42" y="9" onmousedown="handleZoom(evt,'out')"/>
  <use id="reset" xlink:href="#resetDef" x="30" y="36" onmousedown="handleReset()"/>
   <use id="arrowup" xlink:href="#arrowUp" x="0" y="0" onmousedown="handlePan(0,-1)"/>
  <use id="arrowright" xlink:href="#arrowRight" x="0" y="0" onmousedown="handlePan(1,0)"/>
  <use id="arrowdown" xlink:href="#arrowDown" x="0" y="0" onmousedown="handlePan(0,1)"/>
  <use id="arrowleft" xlink:href="#arrowLeft" x="0" y="0" onmousedown="handlePan(-1,0)"/>
</g>
<svg viewBox="0 0 15 15" width="100%" height="30px" preserveAspectRatio="xMaxYMin meet">
 <g id="arrow_out" transform="scale(0.3 0.3)">
  <a xlink:href="classanch_1_1sql_1_1_date__coll__graph_org.svg" target="_base">
   <rect id="button" ry="5" rx="5" y="6" x="6" height="38" width="38"
        fill="#f2f5e9" fill-opacity="0.5" stroke="#606060" stroke-width="1.0"/>
   <path id="arrow"
     d="M 11.500037,31.436501 C 11.940474,20.09759 22.043105,11.32322 32.158766,21.979434 L 37.068811,17.246167 C 37.068811,17.246167 37.088388,32 37.088388,32 L 22.160133,31.978069 C 22.160133,31.978069 26.997745,27.140456 26.997745,27.140456 C 18.528582,18.264221 13.291696,25.230495 11.500037,31.436501 z"
     style="fill:#404040;"/>
  </a>
 </g>
</svg>

<style type='text/css'>
<![CDATA[
[data-mouse-over-selected='false'] { opacity: 0.7; }
[data-mouse-over-selected='true']  { opacity: 1.0; }
]]>
</style>
<script type="application/ecmascript"><![CDATA[
document.addEventListener('DOMContentLoaded', (event) => {
  highlightEdges();
  highlightAdjacentNodes();
});
]]></script>
</svg>
