<?xml version="1.0" encoding="UTF-8" standalone="no"?>
<!DOCTYPE svg PUBLIC "-//W3C//DTD SVG 1.1//EN"
 "http://www.w3.org/Graphics/SVG/1.1/DTD/svg11.dtd">
<!-- Generated by graphviz version 7.1.0 (0)
 -->
<!-- Title: anch::rest::GlobalMapperRegistry Pages: 1 -->
<svg width="395pt" height="321pt"
 viewBox="0.00 0.00 395.00 321.00" xmlns="http://www.w3.org/2000/svg" xmlns:xlink="http://www.w3.org/1999/xlink">
<g id="graph0" class="graph" transform="scale(1 1) rotate(0) translate(4 317)">
<title>anch::rest::GlobalMapperRegistry</title>
<!-- Node1 -->
<g id="node1" class="node">
<title>Node1</title>
<g id="a_node1"><a xlink:title=" ">
<polygon fill="#999999" stroke="#666666" points="16.5,-0.5 16.5,-68.5 155.5,-68.5 155.5,-0.5 16.5,-0.5"/>
<text text-anchor="start" x="24.5" y="-56.5" font-family="Helvetica,sans-Serif" font-size="10.00">anch::rest::GlobalMapper</text>
<text text-anchor="middle" x="86" y="-45.5" font-family="Helvetica,sans-Serif" font-size="10.00">Registry</text>
<polyline fill="none" stroke="#666666" points="16.5,-38.5 155.5,-38.5"/>
<text text-anchor="middle" x="86" y="-26.5" font-family="Helvetica,sans-Serif" font-size="10.00"> </text>
<polyline fill="none" stroke="#666666" points="16.5,-19.5 155.5,-19.5"/>
<text text-anchor="middle" x="86" y="-7.5" font-family="Helvetica,sans-Serif" font-size="10.00"> </text>
</a>
</g>
</g>
<!-- Node2 -->
<g id="node2" class="node">
<title>Node2</title>
<g id="a_node2"><a xlink:href="classanch_1_1rest_1_1_mapper_registry.html" target="_top" xlink:title=" ">
<polygon fill="white" stroke="#666666" points="0,-106.5 0,-207.5 148,-207.5 148,-106.5 0,-106.5"/>
<text text-anchor="middle" x="74" y="-195.5" font-family="Helvetica,sans-Serif" font-size="10.00">anch::rest::MapperRegistry</text>
<polyline fill="none" stroke="#666666" points="0,-188.5 148,-188.5"/>
<text text-anchor="middle" x="74" y="-176.5" font-family="Helvetica,sans-Serif" font-size="10.00"> </text>
<polyline fill="none" stroke="#666666" points="0,-169.5 148,-169.5"/>
<text text-anchor="start" x="8" y="-157.5" font-family="Helvetica,sans-Serif" font-size="10.00">+ MapperRegistry()</text>
<text text-anchor="start" x="8" y="-146.5" font-family="Helvetica,sans-Serif" font-size="10.00">+ ~MapperRegistry()</text>
<text text-anchor="start" x="8" y="-135.5" font-family="Helvetica,sans-Serif" font-size="10.00">+ registerMapper()</text>
<text text-anchor="start" x="8" y="-124.5" font-family="Helvetica,sans-Serif" font-size="10.00">+ serialize()</text>
<text text-anchor="start" x="8" y="-113.5" font-family="Helvetica,sans-Serif" font-size="10.00">+ deserialize()</text>
</a>
</g>
</g>
<!-- Node2&#45;&gt;Node1 -->
<g id="edge1" class="edge">
<title>Node2&#45;&gt;Node1</title>
<path fill="none" stroke="#63b8ff" d="M80.04,-95.37C80.96,-86.08 81.89,-76.81 82.72,-68.43"/>
<polygon fill="none" stroke="#63b8ff" points="76.57,-94.84 79.07,-105.13 83.54,-95.53 76.57,-94.84"/>
</g>
<!-- Node3 -->
<g id="node3" class="node">
<title>Node3</title>
<g id="a_node3"><a xlink:href="classanch_1_1_singleton.html" target="_top" xlink:title=" ">
<polygon fill="white" stroke="#666666" points="166.5,-123 166.5,-191 337.5,-191 337.5,-123 166.5,-123"/>
<text text-anchor="start" x="174.5" y="-179" font-family="Helvetica,sans-Serif" font-size="10.00">anch::Singleton&lt; GlobalMapper</text>
<text text-anchor="middle" x="252" y="-168" font-family="Helvetica,sans-Serif" font-size="10.00">Registry &gt;</text>
<polyline fill="none" stroke="#666666" points="166.5,-161 337.5,-161"/>
<text text-anchor="middle" x="252" y="-149" font-family="Helvetica,sans-Serif" font-size="10.00"> </text>
<polyline fill="none" stroke="#666666" points="166.5,-142 337.5,-142"/>
<text text-anchor="start" x="174.5" y="-130" font-family="Helvetica,sans-Serif" font-size="10.00">+ getInstance()</text>
</a>
</g>
</g>
<!-- Node3&#45;&gt;Node1 -->
<g id="edge2" class="edge">
<title>Node3&#45;&gt;Node1</title>
<path fill="none" stroke="#63b8ff" d="M197.35,-116.33C175.95,-100.8 151.7,-83.19 131.31,-68.39"/>
<polygon fill="none" stroke="#63b8ff" points="195.27,-119.14 205.41,-122.18 199.38,-113.48 195.27,-119.14"/>
</g>
<!-- Node4 -->
<g id="node4" class="node">
<title>Node4</title>
<g id="a_node4"><a xlink:href="classanch_1_1_singleton.html" target="_top" xlink:title="Meyers&#39; singleton implemtation.">
<polygon fill="white" stroke="#666666" points="192,-255.5 192,-312.5 312,-312.5 312,-255.5 192,-255.5"/>
<text text-anchor="middle" x="252" y="-300.5" font-family="Helvetica,sans-Serif" font-size="10.00">anch::Singleton&lt; T &gt;</text>
<polyline fill="none" stroke="#666666" points="192,-293.5 312,-293.5"/>
<text text-anchor="middle" x="252" y="-281.5" font-family="Helvetica,sans-Serif" font-size="10.00"> </text>
<polyline fill="none" stroke="#666666" points="192,-274.5 312,-274.5"/>
<text text-anchor="start" x="200" y="-262.5" font-family="Helvetica,sans-Serif" font-size="10.00">+ getInstance()</text>
</a>
</g>
</g>
<!-- Node4&#45;&gt;Node3 -->
<g id="edge3" class="edge">
<title>Node4&#45;&gt;Node3</title>
<path fill="none" stroke="orange" d="M252,-244.21C252,-227.05 252,-207.08 252,-190.69"/>
<polygon fill="orange" stroke="orange" points="248.5,-244.05 252,-254.05 255.5,-244.05 248.5,-244.05"/>
<text text-anchor="middle" x="319.5" y="-229" font-family="Helvetica,sans-Serif" font-size="10.00"> &lt; GlobalMapperRegistry &gt;</text>
</g>
</g>
</svg>
