<?xml version="1.0" encoding="UTF-8" standalone="no"?>
<!DOCTYPE svg PUBLIC "-//W3C//DTD SVG 1.1//EN"
 "http://www.w3.org/Graphics/SVG/1.1/DTD/svg11.dtd">
<!-- Generated by graphviz version 13.1.2 (0)
 -->
<!-- Title: anch::date::IDatePartFormatter Pages: 1 -->
<svg width="1662pt" height="484pt"
 viewBox="0.00 0.00 1662.00 484.00" xmlns="http://www.w3.org/2000/svg" xmlns:xlink="http://www.w3.org/1999/xlink">
<g id="graph0" class="graph" transform="scale(1 1) rotate(0) translate(4 480)">
<title>anch::date::IDatePartFormatter</title>
<!-- Node1 -->
<g id="Node000001" class="node">
<title>Node1</title>
<g id="a_Node000001"><a xlink:title=" ">
<polygon fill="#999999" stroke="none" points="897.62,-476 753.88,-476 753.88,-184 897.62,-184 897.62,-476"/>
<text xml:space="preserve" text-anchor="start" x="757.88" y="-462.5" font-family="Helvetica,sans-Serif" font-size="10.00">anch::date::IDatePartFormatter</text>
<text xml:space="preserve" text-anchor="start" x="824.25" y="-446.5" font-family="Helvetica,sans-Serif" font-size="10.00"> </text>
<text xml:space="preserve" text-anchor="start" x="765.31" y="-430.5" font-family="Helvetica,sans-Serif" font-size="10.00">+</text>
<text xml:space="preserve" text-anchor="start" x="782.75" y="-430.5" font-family="Helvetica,sans-Serif" font-size="10.00">~IDatePartFormatter()</text>
<text xml:space="preserve" text-anchor="start" x="765.31" y="-414.5" font-family="Helvetica,sans-Serif" font-size="10.00">+</text>
<text xml:space="preserve" text-anchor="start" x="782.75" y="-414.5" font-family="Helvetica,sans-Serif" font-size="10.00">format()</text>
<text xml:space="preserve" text-anchor="start" x="765.31" y="-398.5" font-family="Helvetica,sans-Serif" font-size="10.00">+</text>
<text xml:space="preserve" text-anchor="start" x="782.75" y="-398.5" font-family="Helvetica,sans-Serif" font-size="10.00">getSize()</text>
<text xml:space="preserve" text-anchor="start" x="765.31" y="-382.5" font-family="Helvetica,sans-Serif" font-size="10.00">+</text>
<text xml:space="preserve" text-anchor="start" x="782.75" y="-382.5" font-family="Helvetica,sans-Serif" font-size="10.00">setValue()</text>
<text xml:space="preserve" text-anchor="start" x="765.31" y="-366.5" font-family="Helvetica,sans-Serif" font-size="10.00">+</text>
<text xml:space="preserve" text-anchor="start" x="782.75" y="-366.5" font-family="Helvetica,sans-Serif" font-size="10.00">getPattern()</text>
<text xml:space="preserve" text-anchor="start" x="765.69" y="-350.5" font-family="Helvetica,sans-Serif" font-size="10.00">#</text>
<text xml:space="preserve" text-anchor="start" x="782.75" y="-350.5" font-family="Helvetica,sans-Serif" font-size="10.00">getYear()</text>
<text xml:space="preserve" text-anchor="start" x="765.69" y="-334.5" font-family="Helvetica,sans-Serif" font-size="10.00">#</text>
<text xml:space="preserve" text-anchor="start" x="782.75" y="-334.5" font-family="Helvetica,sans-Serif" font-size="10.00">setYear()</text>
<text xml:space="preserve" text-anchor="start" x="765.69" y="-318.5" font-family="Helvetica,sans-Serif" font-size="10.00">#</text>
<text xml:space="preserve" text-anchor="start" x="782.75" y="-318.5" font-family="Helvetica,sans-Serif" font-size="10.00">getMonth()</text>
<text xml:space="preserve" text-anchor="start" x="765.69" y="-302.5" font-family="Helvetica,sans-Serif" font-size="10.00">#</text>
<text xml:space="preserve" text-anchor="start" x="782.75" y="-302.5" font-family="Helvetica,sans-Serif" font-size="10.00">setMonth()</text>
<text xml:space="preserve" text-anchor="start" x="765.69" y="-286.5" font-family="Helvetica,sans-Serif" font-size="10.00">#</text>
<text xml:space="preserve" text-anchor="start" x="782.75" y="-286.5" font-family="Helvetica,sans-Serif" font-size="10.00">getDay()</text>
<text xml:space="preserve" text-anchor="start" x="765.69" y="-270.5" font-family="Helvetica,sans-Serif" font-size="10.00">#</text>
<text xml:space="preserve" text-anchor="start" x="782.75" y="-270.5" font-family="Helvetica,sans-Serif" font-size="10.00">setDay()</text>
<text xml:space="preserve" text-anchor="start" x="765.69" y="-254.5" font-family="Helvetica,sans-Serif" font-size="10.00">#</text>
<text xml:space="preserve" text-anchor="start" x="782.75" y="-254.5" font-family="Helvetica,sans-Serif" font-size="10.00">getHour()</text>
<text xml:space="preserve" text-anchor="start" x="765.69" y="-238.5" font-family="Helvetica,sans-Serif" font-size="10.00">#</text>
<text xml:space="preserve" text-anchor="start" x="782.75" y="-238.5" font-family="Helvetica,sans-Serif" font-size="10.00">setHour()</text>
<text xml:space="preserve" text-anchor="start" x="765.69" y="-222.5" font-family="Helvetica,sans-Serif" font-size="10.00">#</text>
<text xml:space="preserve" text-anchor="start" x="782.75" y="-222.5" font-family="Helvetica,sans-Serif" font-size="10.00">getMinute()</text>
<text xml:space="preserve" text-anchor="start" x="765.69" y="-206.5" font-family="Helvetica,sans-Serif" font-size="10.00">#</text>
<text xml:space="preserve" text-anchor="start" x="782.75" y="-206.5" font-family="Helvetica,sans-Serif" font-size="10.00">setMinute()</text>
<text xml:space="preserve" text-anchor="start" x="782.75" y="-190.5" font-family="Helvetica,sans-Serif" font-size="10.00">and 8 more...</text>
<polygon fill="#666666" stroke="#666666" points="753.88,-458 753.88,-458 897.62,-458 897.62,-458 753.88,-458"/>
<polygon fill="#666666" stroke="#666666" points="753.88,-442 753.88,-442 897.62,-442 897.62,-442 753.88,-442"/>
<polygon fill="none" stroke="#666666" points="753.88,-184 753.88,-476 897.62,-476 897.62,-184 753.88,-184"/>
</a>
</g>
</g>
<!-- Node2 -->
<g id="Node000002" class="node">
<title>Node2</title>
<g id="a_Node000002"><a xlink:href="classanch_1_1date_1_1_constant_formatter.html" target="_top" xlink:title=" ">
<polygon fill="white" stroke="none" points="141.5,-140 0,-140 0,-8 141.5,-8 141.5,-140"/>
<text xml:space="preserve" text-anchor="start" x="4" y="-126.5" font-family="Helvetica,sans-Serif" font-size="10.00">anch::date::ConstantFormatter</text>
<text xml:space="preserve" text-anchor="start" x="11.44" y="-110.5" font-family="Helvetica,sans-Serif" font-size="10.00">+</text>
<text xml:space="preserve" text-anchor="start" x="28.88" y="-110.5" font-family="Helvetica,sans-Serif" font-size="10.00">_message</text>
<text xml:space="preserve" text-anchor="start" x="11.44" y="-94.5" font-family="Helvetica,sans-Serif" font-size="10.00">+</text>
<text xml:space="preserve" text-anchor="start" x="28.88" y="-94.5" font-family="Helvetica,sans-Serif" font-size="10.00">ConstantFormatter()</text>
<text xml:space="preserve" text-anchor="start" x="11.44" y="-78.5" font-family="Helvetica,sans-Serif" font-size="10.00">+</text>
<text xml:space="preserve" text-anchor="start" x="28.88" y="-78.5" font-family="Helvetica,sans-Serif" font-size="10.00">~ConstantFormatter()</text>
<text xml:space="preserve" text-anchor="start" x="11.44" y="-62.5" font-family="Helvetica,sans-Serif" font-size="10.00">+</text>
<text xml:space="preserve" text-anchor="start" x="28.88" y="-62.5" font-family="Helvetica,sans-Serif" font-size="10.00">format()</text>
<text xml:space="preserve" text-anchor="start" x="11.44" y="-46.5" font-family="Helvetica,sans-Serif" font-size="10.00">+</text>
<text xml:space="preserve" text-anchor="start" x="28.88" y="-46.5" font-family="Helvetica,sans-Serif" font-size="10.00">getSize()</text>
<text xml:space="preserve" text-anchor="start" x="11.44" y="-30.5" font-family="Helvetica,sans-Serif" font-size="10.00">+</text>
<text xml:space="preserve" text-anchor="start" x="28.88" y="-30.5" font-family="Helvetica,sans-Serif" font-size="10.00">setValue()</text>
<text xml:space="preserve" text-anchor="start" x="11.44" y="-14.5" font-family="Helvetica,sans-Serif" font-size="10.00">+</text>
<text xml:space="preserve" text-anchor="start" x="28.88" y="-14.5" font-family="Helvetica,sans-Serif" font-size="10.00">getPattern()</text>
<polygon fill="#666666" stroke="#666666" points="0,-122 0,-122 141.5,-122 141.5,-122 0,-122"/>
<polygon fill="#666666" stroke="#666666" points="0,-106 0,-106 26.88,-106 26.88,-106 0,-106"/>
<polygon fill="#666666" stroke="#666666" points="26.88,-106 26.88,-106 141.5,-106 141.5,-106 26.88,-106"/>
<polygon fill="none" stroke="#666666" points="0,-8 0,-140 141.5,-140 141.5,-8 0,-8"/>
</a>
</g>
</g>
<!-- Node1&#45;&gt;Node2 -->
<g id="edge1_Node000001_Node000002" class="edge">
<title>Node1&#45;&gt;Node2</title>
<g id="a_edge1_Node000001_Node000002"><a xlink:title=" ">
<path fill="none" stroke="#63b8ff" d="M742.88,-319.65C610.68,-301.99 346.98,-255.41 150.75,-148 146.3,-145.56 141.89,-142.83 137.58,-139.88"/>
<polygon fill="none" stroke="#63b8ff" points="742.23,-323.09 752.6,-320.92 743.14,-316.15 742.23,-323.09"/>
</a>
</g>
</g>
<!-- Node3 -->
<g id="Node000003" class="node">
<title>Node3</title>
<g id="a_Node000003"><a xlink:href="classanch_1_1date_1_1_day_formatter.html" target="_top" xlink:title=" ">
<polygon fill="white" stroke="none" points="279.62,-148 159.88,-148 159.88,0 279.62,0 279.62,-148"/>
<text xml:space="preserve" text-anchor="start" x="163.88" y="-134.5" font-family="Helvetica,sans-Serif" font-size="10.00">anch::date::DayFormatter</text>
<text xml:space="preserve" text-anchor="start" x="171.31" y="-118.5" font-family="Helvetica,sans-Serif" font-size="10.00">+</text>
<text xml:space="preserve" text-anchor="start" x="188.75" y="-118.5" font-family="Helvetica,sans-Serif" font-size="10.00">PATTERN</text>
<text xml:space="preserve" text-anchor="start" x="171.31" y="-102.5" font-family="Helvetica,sans-Serif" font-size="10.00">+</text>
<text xml:space="preserve" text-anchor="start" x="188.75" y="-102.5" font-family="Helvetica,sans-Serif" font-size="10.00">DayFormatter()</text>
<text xml:space="preserve" text-anchor="start" x="171.31" y="-86.5" font-family="Helvetica,sans-Serif" font-size="10.00">+</text>
<text xml:space="preserve" text-anchor="start" x="188.75" y="-86.5" font-family="Helvetica,sans-Serif" font-size="10.00">~DayFormatter()</text>
<text xml:space="preserve" text-anchor="start" x="171.31" y="-70.5" font-family="Helvetica,sans-Serif" font-size="10.00">+</text>
<text xml:space="preserve" text-anchor="start" x="188.75" y="-70.5" font-family="Helvetica,sans-Serif" font-size="10.00">format()</text>
<text xml:space="preserve" text-anchor="start" x="171.31" y="-54.5" font-family="Helvetica,sans-Serif" font-size="10.00">+</text>
<text xml:space="preserve" text-anchor="start" x="188.75" y="-54.5" font-family="Helvetica,sans-Serif" font-size="10.00">getSize()</text>
<text xml:space="preserve" text-anchor="start" x="171.31" y="-38.5" font-family="Helvetica,sans-Serif" font-size="10.00">+</text>
<text xml:space="preserve" text-anchor="start" x="188.75" y="-38.5" font-family="Helvetica,sans-Serif" font-size="10.00">setValue()</text>
<text xml:space="preserve" text-anchor="start" x="171.31" y="-22.5" font-family="Helvetica,sans-Serif" font-size="10.00">+</text>
<text xml:space="preserve" text-anchor="start" x="188.75" y="-22.5" font-family="Helvetica,sans-Serif" font-size="10.00">getPattern()</text>
<text xml:space="preserve" text-anchor="start" x="171.31" y="-6.5" font-family="Helvetica,sans-Serif" font-size="10.00">+</text>
<text xml:space="preserve" text-anchor="start" x="188.75" y="-6.5" font-family="Helvetica,sans-Serif" font-size="10.00">getInstance()</text>
<polygon fill="#666666" stroke="#666666" points="159.88,-130 159.88,-130 279.62,-130 279.62,-130 159.88,-130"/>
<polygon fill="#666666" stroke="#666666" points="159.88,-114 159.88,-114 186.75,-114 186.75,-114 159.88,-114"/>
<polygon fill="#666666" stroke="#666666" points="186.75,-114 186.75,-114 279.62,-114 279.62,-114 186.75,-114"/>
<polygon fill="none" stroke="#666666" points="159.88,0 159.88,-148 279.62,-148 279.62,0 159.88,0"/>
</a>
</g>
</g>
<!-- Node1&#45;&gt;Node3 -->
<g id="edge2_Node000001_Node000003" class="edge">
<title>Node1&#45;&gt;Node3</title>
<g id="a_edge2_Node000001_Node000003"><a xlink:title=" ">
<path fill="none" stroke="#63b8ff" d="M742.94,-314.16C632.53,-291.59 434.15,-241.06 288.75,-148 285.52,-145.93 282.33,-143.68 279.21,-141.29"/>
<polygon fill="none" stroke="#63b8ff" points="742.02,-317.55 752.51,-316.09 743.4,-310.69 742.02,-317.55"/>
</a>
</g>
</g>
<!-- Node4 -->
<g id="Node000004" class="node">
<title>Node4</title>
<g id="a_Node000004"><a xlink:href="classanch_1_1date_1_1_hour12_formatter.html" target="_top" xlink:title=" ">
<polygon fill="white" stroke="none" points="431.38,-148 298.12,-148 298.12,0 431.38,0 431.38,-148"/>
<text xml:space="preserve" text-anchor="start" x="302.12" y="-134.5" font-family="Helvetica,sans-Serif" font-size="10.00">anch::date::Hour12Formatter</text>
<text xml:space="preserve" text-anchor="start" x="309.56" y="-118.5" font-family="Helvetica,sans-Serif" font-size="10.00">+</text>
<text xml:space="preserve" text-anchor="start" x="327" y="-118.5" font-family="Helvetica,sans-Serif" font-size="10.00">PATTERN</text>
<text xml:space="preserve" text-anchor="start" x="309.56" y="-102.5" font-family="Helvetica,sans-Serif" font-size="10.00">+</text>
<text xml:space="preserve" text-anchor="start" x="327" y="-102.5" font-family="Helvetica,sans-Serif" font-size="10.00">Hour12Formatter()</text>
<text xml:space="preserve" text-anchor="start" x="309.56" y="-86.5" font-family="Helvetica,sans-Serif" font-size="10.00">+</text>
<text xml:space="preserve" text-anchor="start" x="327" y="-86.5" font-family="Helvetica,sans-Serif" font-size="10.00">~Hour12Formatter()</text>
<text xml:space="preserve" text-anchor="start" x="309.56" y="-70.5" font-family="Helvetica,sans-Serif" font-size="10.00">+</text>
<text xml:space="preserve" text-anchor="start" x="327" y="-70.5" font-family="Helvetica,sans-Serif" font-size="10.00">format()</text>
<text xml:space="preserve" text-anchor="start" x="309.56" y="-54.5" font-family="Helvetica,sans-Serif" font-size="10.00">+</text>
<text xml:space="preserve" text-anchor="start" x="327" y="-54.5" font-family="Helvetica,sans-Serif" font-size="10.00">getSize()</text>
<text xml:space="preserve" text-anchor="start" x="309.56" y="-38.5" font-family="Helvetica,sans-Serif" font-size="10.00">+</text>
<text xml:space="preserve" text-anchor="start" x="327" y="-38.5" font-family="Helvetica,sans-Serif" font-size="10.00">setValue()</text>
<text xml:space="preserve" text-anchor="start" x="309.56" y="-22.5" font-family="Helvetica,sans-Serif" font-size="10.00">+</text>
<text xml:space="preserve" text-anchor="start" x="327" y="-22.5" font-family="Helvetica,sans-Serif" font-size="10.00">getPattern()</text>
<text xml:space="preserve" text-anchor="start" x="309.56" y="-6.5" font-family="Helvetica,sans-Serif" font-size="10.00">+</text>
<text xml:space="preserve" text-anchor="start" x="327" y="-6.5" font-family="Helvetica,sans-Serif" font-size="10.00">getInstance()</text>
<polygon fill="#666666" stroke="#666666" points="298.12,-130 298.12,-130 431.38,-130 431.38,-130 298.12,-130"/>
<polygon fill="#666666" stroke="#666666" points="298.12,-114 298.12,-114 325,-114 325,-114 298.12,-114"/>
<polygon fill="#666666" stroke="#666666" points="325,-114 325,-114 431.38,-114 431.38,-114 325,-114"/>
<polygon fill="none" stroke="#666666" points="298.12,0 298.12,-148 431.38,-148 431.38,0 298.12,0"/>
</a>
</g>
</g>
<!-- Node1&#45;&gt;Node4 -->
<g id="edge3_Node000001_Node000004" class="edge">
<title>Node1&#45;&gt;Node4</title>
<g id="a_edge3_Node000001_Node000004"><a xlink:title=" ">
<path fill="none" stroke="#63b8ff" d="M743.34,-299.63C662.16,-268.63 536.6,-215 439.75,-148 436.91,-146.04 434.08,-143.96 431.27,-141.8"/>
<polygon fill="none" stroke="#63b8ff" points="741.99,-302.87 752.58,-303.14 744.47,-296.32 741.99,-302.87"/>
</a>
</g>
</g>
<!-- Node5 -->
<g id="Node000005" class="node">
<title>Node5</title>
<g id="a_Node000005"><a xlink:href="classanch_1_1date_1_1_hour24_formatter.html" target="_top" xlink:title=" ">
<polygon fill="white" stroke="none" points="582.38,-148 449.12,-148 449.12,0 582.38,0 582.38,-148"/>
<text xml:space="preserve" text-anchor="start" x="453.12" y="-134.5" font-family="Helvetica,sans-Serif" font-size="10.00">anch::date::Hour24Formatter</text>
<text xml:space="preserve" text-anchor="start" x="460.56" y="-118.5" font-family="Helvetica,sans-Serif" font-size="10.00">+</text>
<text xml:space="preserve" text-anchor="start" x="478" y="-118.5" font-family="Helvetica,sans-Serif" font-size="10.00">PATTERN</text>
<text xml:space="preserve" text-anchor="start" x="460.56" y="-102.5" font-family="Helvetica,sans-Serif" font-size="10.00">+</text>
<text xml:space="preserve" text-anchor="start" x="478" y="-102.5" font-family="Helvetica,sans-Serif" font-size="10.00">Hour24Formatter()</text>
<text xml:space="preserve" text-anchor="start" x="460.56" y="-86.5" font-family="Helvetica,sans-Serif" font-size="10.00">+</text>
<text xml:space="preserve" text-anchor="start" x="478" y="-86.5" font-family="Helvetica,sans-Serif" font-size="10.00">~Hour24Formatter()</text>
<text xml:space="preserve" text-anchor="start" x="460.56" y="-70.5" font-family="Helvetica,sans-Serif" font-size="10.00">+</text>
<text xml:space="preserve" text-anchor="start" x="478" y="-70.5" font-family="Helvetica,sans-Serif" font-size="10.00">format()</text>
<text xml:space="preserve" text-anchor="start" x="460.56" y="-54.5" font-family="Helvetica,sans-Serif" font-size="10.00">+</text>
<text xml:space="preserve" text-anchor="start" x="478" y="-54.5" font-family="Helvetica,sans-Serif" font-size="10.00">getSize()</text>
<text xml:space="preserve" text-anchor="start" x="460.56" y="-38.5" font-family="Helvetica,sans-Serif" font-size="10.00">+</text>
<text xml:space="preserve" text-anchor="start" x="478" y="-38.5" font-family="Helvetica,sans-Serif" font-size="10.00">setValue()</text>
<text xml:space="preserve" text-anchor="start" x="460.56" y="-22.5" font-family="Helvetica,sans-Serif" font-size="10.00">+</text>
<text xml:space="preserve" text-anchor="start" x="478" y="-22.5" font-family="Helvetica,sans-Serif" font-size="10.00">getPattern()</text>
<text xml:space="preserve" text-anchor="start" x="460.56" y="-6.5" font-family="Helvetica,sans-Serif" font-size="10.00">+</text>
<text xml:space="preserve" text-anchor="start" x="478" y="-6.5" font-family="Helvetica,sans-Serif" font-size="10.00">getInstance()</text>
<polygon fill="#666666" stroke="#666666" points="449.12,-130 449.12,-130 582.38,-130 582.38,-130 449.12,-130"/>
<polygon fill="#666666" stroke="#666666" points="449.12,-114 449.12,-114 476,-114 476,-114 449.12,-114"/>
<polygon fill="#666666" stroke="#666666" points="476,-114 476,-114 582.38,-114 582.38,-114 476,-114"/>
<polygon fill="none" stroke="#666666" points="449.12,0 449.12,-148 582.38,-148 582.38,0 449.12,0"/>
</a>
</g>
</g>
<!-- Node1&#45;&gt;Node5 -->
<g id="edge4_Node000001_Node000005" class="edge">
<title>Node1&#45;&gt;Node5</title>
<g id="a_edge4_Node000001_Node000005"><a xlink:title=" ">
<path fill="none" stroke="#63b8ff" d="M745.03,-269.92C699.14,-235.51 641.15,-190.62 591.75,-148 588.56,-145.25 585.34,-142.41 582.1,-139.51"/>
<polygon fill="none" stroke="#63b8ff" points="742.73,-272.57 752.83,-275.75 746.92,-266.96 742.73,-272.57"/>
</a>
</g>
</g>
<!-- Node6 -->
<g id="Node000006" class="node">
<title>Node6</title>
<g id="a_Node000006"><a xlink:href="classanch_1_1date_1_1_marker_formatter.html" target="_top" xlink:title=" ">
<polygon fill="white" stroke="none" points="732.62,-148 600.88,-148 600.88,0 732.62,0 732.62,-148"/>
<text xml:space="preserve" text-anchor="start" x="604.88" y="-134.5" font-family="Helvetica,sans-Serif" font-size="10.00">anch::date::MarkerFormatter</text>
<text xml:space="preserve" text-anchor="start" x="612.31" y="-118.5" font-family="Helvetica,sans-Serif" font-size="10.00">+</text>
<text xml:space="preserve" text-anchor="start" x="629.75" y="-118.5" font-family="Helvetica,sans-Serif" font-size="10.00">PATTERN</text>
<text xml:space="preserve" text-anchor="start" x="612.31" y="-102.5" font-family="Helvetica,sans-Serif" font-size="10.00">+</text>
<text xml:space="preserve" text-anchor="start" x="629.75" y="-102.5" font-family="Helvetica,sans-Serif" font-size="10.00">MarkerFormatter()</text>
<text xml:space="preserve" text-anchor="start" x="612.31" y="-86.5" font-family="Helvetica,sans-Serif" font-size="10.00">+</text>
<text xml:space="preserve" text-anchor="start" x="629.75" y="-86.5" font-family="Helvetica,sans-Serif" font-size="10.00">~MarkerFormatter()</text>
<text xml:space="preserve" text-anchor="start" x="612.31" y="-70.5" font-family="Helvetica,sans-Serif" font-size="10.00">+</text>
<text xml:space="preserve" text-anchor="start" x="629.75" y="-70.5" font-family="Helvetica,sans-Serif" font-size="10.00">format()</text>
<text xml:space="preserve" text-anchor="start" x="612.31" y="-54.5" font-family="Helvetica,sans-Serif" font-size="10.00">+</text>
<text xml:space="preserve" text-anchor="start" x="629.75" y="-54.5" font-family="Helvetica,sans-Serif" font-size="10.00">getSize()</text>
<text xml:space="preserve" text-anchor="start" x="612.31" y="-38.5" font-family="Helvetica,sans-Serif" font-size="10.00">+</text>
<text xml:space="preserve" text-anchor="start" x="629.75" y="-38.5" font-family="Helvetica,sans-Serif" font-size="10.00">setValue()</text>
<text xml:space="preserve" text-anchor="start" x="612.31" y="-22.5" font-family="Helvetica,sans-Serif" font-size="10.00">+</text>
<text xml:space="preserve" text-anchor="start" x="629.75" y="-22.5" font-family="Helvetica,sans-Serif" font-size="10.00">getPattern()</text>
<text xml:space="preserve" text-anchor="start" x="612.31" y="-6.5" font-family="Helvetica,sans-Serif" font-size="10.00">+</text>
<text xml:space="preserve" text-anchor="start" x="629.75" y="-6.5" font-family="Helvetica,sans-Serif" font-size="10.00">getInstance()</text>
<polygon fill="#666666" stroke="#666666" points="600.88,-130 600.88,-130 732.62,-130 732.62,-130 600.88,-130"/>
<polygon fill="#666666" stroke="#666666" points="600.88,-114 600.88,-114 627.75,-114 627.75,-114 600.88,-114"/>
<polygon fill="#666666" stroke="#666666" points="627.75,-114 627.75,-114 732.62,-114 732.62,-114 627.75,-114"/>
<polygon fill="none" stroke="#666666" points="600.88,0 600.88,-148 732.62,-148 732.62,0 600.88,0"/>
</a>
</g>
</g>
<!-- Node1&#45;&gt;Node6 -->
<g id="edge5_Node000001_Node000006" class="edge">
<title>Node1&#45;&gt;Node6</title>
<g id="a_edge5_Node000001_Node000006"><a xlink:title=" ">
<path fill="none" stroke="#63b8ff" d="M747.94,-204.7C735.73,-185.19 723.46,-165.59 712.29,-147.76"/>
<polygon fill="none" stroke="#63b8ff" points="744.85,-206.36 753.12,-212.98 750.78,-202.65 744.85,-206.36"/>
</a>
</g>
</g>
<!-- Node7 -->
<g id="Node000007" class="node">
<title>Node7</title>
<g id="a_Node000007"><a xlink:href="classanch_1_1date_1_1_millisecond_formatter.html" target="_top" xlink:title=" ">
<polygon fill="white" stroke="none" points="901,-148 750.5,-148 750.5,0 901,0 901,-148"/>
<text xml:space="preserve" text-anchor="start" x="754.5" y="-134.5" font-family="Helvetica,sans-Serif" font-size="10.00">anch::date::MillisecondFormatter</text>
<text xml:space="preserve" text-anchor="start" x="761.94" y="-118.5" font-family="Helvetica,sans-Serif" font-size="10.00">+</text>
<text xml:space="preserve" text-anchor="start" x="779.38" y="-118.5" font-family="Helvetica,sans-Serif" font-size="10.00">PATTERN</text>
<text xml:space="preserve" text-anchor="start" x="761.94" y="-102.5" font-family="Helvetica,sans-Serif" font-size="10.00">+</text>
<text xml:space="preserve" text-anchor="start" x="779.38" y="-102.5" font-family="Helvetica,sans-Serif" font-size="10.00">MillisecondFormatter()</text>
<text xml:space="preserve" text-anchor="start" x="761.94" y="-86.5" font-family="Helvetica,sans-Serif" font-size="10.00">+</text>
<text xml:space="preserve" text-anchor="start" x="779.38" y="-86.5" font-family="Helvetica,sans-Serif" font-size="10.00">~MillisecondFormatter()</text>
<text xml:space="preserve" text-anchor="start" x="761.94" y="-70.5" font-family="Helvetica,sans-Serif" font-size="10.00">+</text>
<text xml:space="preserve" text-anchor="start" x="779.38" y="-70.5" font-family="Helvetica,sans-Serif" font-size="10.00">format()</text>
<text xml:space="preserve" text-anchor="start" x="761.94" y="-54.5" font-family="Helvetica,sans-Serif" font-size="10.00">+</text>
<text xml:space="preserve" text-anchor="start" x="779.38" y="-54.5" font-family="Helvetica,sans-Serif" font-size="10.00">getSize()</text>
<text xml:space="preserve" text-anchor="start" x="761.94" y="-38.5" font-family="Helvetica,sans-Serif" font-size="10.00">+</text>
<text xml:space="preserve" text-anchor="start" x="779.38" y="-38.5" font-family="Helvetica,sans-Serif" font-size="10.00">setValue()</text>
<text xml:space="preserve" text-anchor="start" x="761.94" y="-22.5" font-family="Helvetica,sans-Serif" font-size="10.00">+</text>
<text xml:space="preserve" text-anchor="start" x="779.38" y="-22.5" font-family="Helvetica,sans-Serif" font-size="10.00">getPattern()</text>
<text xml:space="preserve" text-anchor="start" x="761.94" y="-6.5" font-family="Helvetica,sans-Serif" font-size="10.00">+</text>
<text xml:space="preserve" text-anchor="start" x="779.38" y="-6.5" font-family="Helvetica,sans-Serif" font-size="10.00">getInstance()</text>
<polygon fill="#666666" stroke="#666666" points="750.5,-130 750.5,-130 901,-130 901,-130 750.5,-130"/>
<polygon fill="#666666" stroke="#666666" points="750.5,-114 750.5,-114 777.38,-114 777.38,-114 750.5,-114"/>
<polygon fill="#666666" stroke="#666666" points="777.38,-114 777.38,-114 901,-114 901,-114 777.38,-114"/>
<polygon fill="none" stroke="#666666" points="750.5,0 750.5,-148 901,-148 901,0 750.5,0"/>
</a>
</g>
</g>
<!-- Node1&#45;&gt;Node7 -->
<g id="edge6_Node000001_Node000007" class="edge">
<title>Node1&#45;&gt;Node7</title>
<g id="a_edge6_Node000001_Node000007"><a xlink:title=" ">
<path fill="none" stroke="#63b8ff" d="M825.75,-172.87C825.75,-164.32 825.75,-155.96 825.75,-147.96"/>
<polygon fill="none" stroke="#63b8ff" points="822.25,-172.68 825.75,-182.68 829.25,-172.68 822.25,-172.68"/>
</a>
</g>
</g>
<!-- Node8 -->
<g id="Node000008" class="node">
<title>Node8</title>
<g id="a_Node000008"><a xlink:href="classanch_1_1date_1_1_minute_formatter.html" target="_top" xlink:title=" ">
<polygon fill="white" stroke="none" points="1050.25,-148 919.25,-148 919.25,0 1050.25,0 1050.25,-148"/>
<text xml:space="preserve" text-anchor="start" x="923.25" y="-134.5" font-family="Helvetica,sans-Serif" font-size="10.00">anch::date::MinuteFormatter</text>
<text xml:space="preserve" text-anchor="start" x="930.69" y="-118.5" font-family="Helvetica,sans-Serif" font-size="10.00">+</text>
<text xml:space="preserve" text-anchor="start" x="948.12" y="-118.5" font-family="Helvetica,sans-Serif" font-size="10.00">PATTERN</text>
<text xml:space="preserve" text-anchor="start" x="930.69" y="-102.5" font-family="Helvetica,sans-Serif" font-size="10.00">+</text>
<text xml:space="preserve" text-anchor="start" x="948.12" y="-102.5" font-family="Helvetica,sans-Serif" font-size="10.00">MinuteFormatter()</text>
<text xml:space="preserve" text-anchor="start" x="930.69" y="-86.5" font-family="Helvetica,sans-Serif" font-size="10.00">+</text>
<text xml:space="preserve" text-anchor="start" x="948.12" y="-86.5" font-family="Helvetica,sans-Serif" font-size="10.00">~MinuteFormatter()</text>
<text xml:space="preserve" text-anchor="start" x="930.69" y="-70.5" font-family="Helvetica,sans-Serif" font-size="10.00">+</text>
<text xml:space="preserve" text-anchor="start" x="948.12" y="-70.5" font-family="Helvetica,sans-Serif" font-size="10.00">format()</text>
<text xml:space="preserve" text-anchor="start" x="930.69" y="-54.5" font-family="Helvetica,sans-Serif" font-size="10.00">+</text>
<text xml:space="preserve" text-anchor="start" x="948.12" y="-54.5" font-family="Helvetica,sans-Serif" font-size="10.00">getSize()</text>
<text xml:space="preserve" text-anchor="start" x="930.69" y="-38.5" font-family="Helvetica,sans-Serif" font-size="10.00">+</text>
<text xml:space="preserve" text-anchor="start" x="948.12" y="-38.5" font-family="Helvetica,sans-Serif" font-size="10.00">setValue()</text>
<text xml:space="preserve" text-anchor="start" x="930.69" y="-22.5" font-family="Helvetica,sans-Serif" font-size="10.00">+</text>
<text xml:space="preserve" text-anchor="start" x="948.12" y="-22.5" font-family="Helvetica,sans-Serif" font-size="10.00">getPattern()</text>
<text xml:space="preserve" text-anchor="start" x="930.69" y="-6.5" font-family="Helvetica,sans-Serif" font-size="10.00">+</text>
<text xml:space="preserve" text-anchor="start" x="948.12" y="-6.5" font-family="Helvetica,sans-Serif" font-size="10.00">getInstance()</text>
<polygon fill="#666666" stroke="#666666" points="919.25,-130 919.25,-130 1050.25,-130 1050.25,-130 919.25,-130"/>
<polygon fill="#666666" stroke="#666666" points="919.25,-114 919.25,-114 946.12,-114 946.12,-114 919.25,-114"/>
<polygon fill="#666666" stroke="#666666" points="946.12,-114 946.12,-114 1050.25,-114 1050.25,-114 946.12,-114"/>
<polygon fill="none" stroke="#666666" points="919.25,0 919.25,-148 1050.25,-148 1050.25,0 919.25,0"/>
</a>
</g>
</g>
<!-- Node1&#45;&gt;Node8 -->
<g id="edge7_Node000001_Node000008" class="edge">
<title>Node1&#45;&gt;Node8</title>
<g id="a_edge7_Node000001_Node000008"><a xlink:title=" ">
<path fill="none" stroke="#63b8ff" d="M903.56,-204.7C915.77,-185.19 928.04,-165.59 939.21,-147.76"/>
<polygon fill="none" stroke="#63b8ff" points="900.72,-202.65 898.38,-212.98 906.65,-206.36 900.72,-202.65"/>
</a>
</g>
</g>
<!-- Node9 -->
<g id="Node000009" class="node">
<title>Node9</title>
<g id="a_Node000009"><a xlink:href="classanch_1_1date_1_1_month_formatter.html" target="_top" xlink:title=" ">
<polygon fill="white" stroke="none" points="1197.12,-148 1068.38,-148 1068.38,0 1197.12,0 1197.12,-148"/>
<text xml:space="preserve" text-anchor="start" x="1072.38" y="-134.5" font-family="Helvetica,sans-Serif" font-size="10.00">anch::date::MonthFormatter</text>
<text xml:space="preserve" text-anchor="start" x="1079.81" y="-118.5" font-family="Helvetica,sans-Serif" font-size="10.00">+</text>
<text xml:space="preserve" text-anchor="start" x="1097.25" y="-118.5" font-family="Helvetica,sans-Serif" font-size="10.00">PATTERN</text>
<text xml:space="preserve" text-anchor="start" x="1079.81" y="-102.5" font-family="Helvetica,sans-Serif" font-size="10.00">+</text>
<text xml:space="preserve" text-anchor="start" x="1097.25" y="-102.5" font-family="Helvetica,sans-Serif" font-size="10.00">MonthFormatter()</text>
<text xml:space="preserve" text-anchor="start" x="1079.81" y="-86.5" font-family="Helvetica,sans-Serif" font-size="10.00">+</text>
<text xml:space="preserve" text-anchor="start" x="1097.25" y="-86.5" font-family="Helvetica,sans-Serif" font-size="10.00">~MonthFormatter()</text>
<text xml:space="preserve" text-anchor="start" x="1079.81" y="-70.5" font-family="Helvetica,sans-Serif" font-size="10.00">+</text>
<text xml:space="preserve" text-anchor="start" x="1097.25" y="-70.5" font-family="Helvetica,sans-Serif" font-size="10.00">format()</text>
<text xml:space="preserve" text-anchor="start" x="1079.81" y="-54.5" font-family="Helvetica,sans-Serif" font-size="10.00">+</text>
<text xml:space="preserve" text-anchor="start" x="1097.25" y="-54.5" font-family="Helvetica,sans-Serif" font-size="10.00">getSize()</text>
<text xml:space="preserve" text-anchor="start" x="1079.81" y="-38.5" font-family="Helvetica,sans-Serif" font-size="10.00">+</text>
<text xml:space="preserve" text-anchor="start" x="1097.25" y="-38.5" font-family="Helvetica,sans-Serif" font-size="10.00">setValue()</text>
<text xml:space="preserve" text-anchor="start" x="1079.81" y="-22.5" font-family="Helvetica,sans-Serif" font-size="10.00">+</text>
<text xml:space="preserve" text-anchor="start" x="1097.25" y="-22.5" font-family="Helvetica,sans-Serif" font-size="10.00">getPattern()</text>
<text xml:space="preserve" text-anchor="start" x="1079.81" y="-6.5" font-family="Helvetica,sans-Serif" font-size="10.00">+</text>
<text xml:space="preserve" text-anchor="start" x="1097.25" y="-6.5" font-family="Helvetica,sans-Serif" font-size="10.00">getInstance()</text>
<polygon fill="#666666" stroke="#666666" points="1068.38,-130 1068.38,-130 1197.12,-130 1197.12,-130 1068.38,-130"/>
<polygon fill="#666666" stroke="#666666" points="1068.38,-114 1068.38,-114 1095.25,-114 1095.25,-114 1068.38,-114"/>
<polygon fill="#666666" stroke="#666666" points="1095.25,-114 1095.25,-114 1197.12,-114 1197.12,-114 1095.25,-114"/>
<polygon fill="none" stroke="#666666" points="1068.38,0 1068.38,-148 1197.12,-148 1197.12,0 1068.38,0"/>
</a>
</g>
</g>
<!-- Node1&#45;&gt;Node9 -->
<g id="edge8_Node000001_Node000009" class="edge">
<title>Node1&#45;&gt;Node9</title>
<g id="a_edge8_Node000001_Node000009"><a xlink:title=" ">
<path fill="none" stroke="#63b8ff" d="M906.54,-270.49C952.58,-236.17 1010.69,-191.19 1059.75,-148 1062.71,-145.39 1065.7,-142.7 1068.69,-139.94"/>
<polygon fill="none" stroke="#63b8ff" points="904.65,-267.53 898.71,-276.3 908.83,-273.15 904.65,-267.53"/>
</a>
</g>
</g>
<!-- Node10 -->
<g id="Node000010" class="node">
<title>Node10</title>
<g id="a_Node000010"><a xlink:href="classanch_1_1date_1_1_second_formatter.html" target="_top" xlink:title=" ">
<polygon fill="white" stroke="none" points="1350.12,-148 1215.38,-148 1215.38,0 1350.12,0 1350.12,-148"/>
<text xml:space="preserve" text-anchor="start" x="1219.38" y="-134.5" font-family="Helvetica,sans-Serif" font-size="10.00">anch::date::SecondFormatter</text>
<text xml:space="preserve" text-anchor="start" x="1226.81" y="-118.5" font-family="Helvetica,sans-Serif" font-size="10.00">+</text>
<text xml:space="preserve" text-anchor="start" x="1244.25" y="-118.5" font-family="Helvetica,sans-Serif" font-size="10.00">PATTERN</text>
<text xml:space="preserve" text-anchor="start" x="1226.81" y="-102.5" font-family="Helvetica,sans-Serif" font-size="10.00">+</text>
<text xml:space="preserve" text-anchor="start" x="1244.25" y="-102.5" font-family="Helvetica,sans-Serif" font-size="10.00">SecondFormatter()</text>
<text xml:space="preserve" text-anchor="start" x="1226.81" y="-86.5" font-family="Helvetica,sans-Serif" font-size="10.00">+</text>
<text xml:space="preserve" text-anchor="start" x="1244.25" y="-86.5" font-family="Helvetica,sans-Serif" font-size="10.00">~SecondFormatter()</text>
<text xml:space="preserve" text-anchor="start" x="1226.81" y="-70.5" font-family="Helvetica,sans-Serif" font-size="10.00">+</text>
<text xml:space="preserve" text-anchor="start" x="1244.25" y="-70.5" font-family="Helvetica,sans-Serif" font-size="10.00">format()</text>
<text xml:space="preserve" text-anchor="start" x="1226.81" y="-54.5" font-family="Helvetica,sans-Serif" font-size="10.00">+</text>
<text xml:space="preserve" text-anchor="start" x="1244.25" y="-54.5" font-family="Helvetica,sans-Serif" font-size="10.00">getSize()</text>
<text xml:space="preserve" text-anchor="start" x="1226.81" y="-38.5" font-family="Helvetica,sans-Serif" font-size="10.00">+</text>
<text xml:space="preserve" text-anchor="start" x="1244.25" y="-38.5" font-family="Helvetica,sans-Serif" font-size="10.00">setValue()</text>
<text xml:space="preserve" text-anchor="start" x="1226.81" y="-22.5" font-family="Helvetica,sans-Serif" font-size="10.00">+</text>
<text xml:space="preserve" text-anchor="start" x="1244.25" y="-22.5" font-family="Helvetica,sans-Serif" font-size="10.00">getPattern()</text>
<text xml:space="preserve" text-anchor="start" x="1226.81" y="-6.5" font-family="Helvetica,sans-Serif" font-size="10.00">+</text>
<text xml:space="preserve" text-anchor="start" x="1244.25" y="-6.5" font-family="Helvetica,sans-Serif" font-size="10.00">getInstance()</text>
<polygon fill="#666666" stroke="#666666" points="1215.38,-130 1215.38,-130 1350.12,-130 1350.12,-130 1215.38,-130"/>
<polygon fill="#666666" stroke="#666666" points="1215.38,-114 1215.38,-114 1242.25,-114 1242.25,-114 1215.38,-114"/>
<polygon fill="#666666" stroke="#666666" points="1242.25,-114 1242.25,-114 1350.12,-114 1350.12,-114 1242.25,-114"/>
<polygon fill="none" stroke="#666666" points="1215.38,0 1215.38,-148 1350.12,-148 1350.12,0 1215.38,0"/>
</a>
</g>
</g>
<!-- Node1&#45;&gt;Node10 -->
<g id="edge9_Node000001_Node000010" class="edge">
<title>Node1&#45;&gt;Node10</title>
<g id="a_edge9_Node000001_Node000010"><a xlink:title=" ">
<path fill="none" stroke="#63b8ff" d="M908.1,-298.55C987.89,-267.08 1110.48,-213.41 1205.75,-148 1209.09,-145.71 1212.43,-143.27 1215.73,-140.73"/>
<polygon fill="none" stroke="#63b8ff" points="907.07,-295.2 899.03,-302.1 909.62,-301.72 907.07,-295.2"/>
</a>
</g>
</g>
<!-- Node11 -->
<g id="Node000011" class="node">
<title>Node11</title>
<g id="a_Node000011"><a xlink:href="classanch_1_1date_1_1_year2_d_formatter.html" target="_top" xlink:title=" ">
<polygon fill="white" stroke="none" points="1501.75,-148 1367.75,-148 1367.75,0 1501.75,0 1501.75,-148"/>
<text xml:space="preserve" text-anchor="start" x="1371.75" y="-134.5" font-family="Helvetica,sans-Serif" font-size="10.00">anch::date::Year2DFormatter</text>
<text xml:space="preserve" text-anchor="start" x="1379.19" y="-118.5" font-family="Helvetica,sans-Serif" font-size="10.00">+</text>
<text xml:space="preserve" text-anchor="start" x="1396.62" y="-118.5" font-family="Helvetica,sans-Serif" font-size="10.00">PATTERN</text>
<text xml:space="preserve" text-anchor="start" x="1379.19" y="-102.5" font-family="Helvetica,sans-Serif" font-size="10.00">+</text>
<text xml:space="preserve" text-anchor="start" x="1396.62" y="-102.5" font-family="Helvetica,sans-Serif" font-size="10.00">Year2DFormatter()</text>
<text xml:space="preserve" text-anchor="start" x="1379.19" y="-86.5" font-family="Helvetica,sans-Serif" font-size="10.00">+</text>
<text xml:space="preserve" text-anchor="start" x="1396.62" y="-86.5" font-family="Helvetica,sans-Serif" font-size="10.00">~Year2DFormatter()</text>
<text xml:space="preserve" text-anchor="start" x="1379.19" y="-70.5" font-family="Helvetica,sans-Serif" font-size="10.00">+</text>
<text xml:space="preserve" text-anchor="start" x="1396.62" y="-70.5" font-family="Helvetica,sans-Serif" font-size="10.00">format()</text>
<text xml:space="preserve" text-anchor="start" x="1379.19" y="-54.5" font-family="Helvetica,sans-Serif" font-size="10.00">+</text>
<text xml:space="preserve" text-anchor="start" x="1396.62" y="-54.5" font-family="Helvetica,sans-Serif" font-size="10.00">getSize()</text>
<text xml:space="preserve" text-anchor="start" x="1379.19" y="-38.5" font-family="Helvetica,sans-Serif" font-size="10.00">+</text>
<text xml:space="preserve" text-anchor="start" x="1396.62" y="-38.5" font-family="Helvetica,sans-Serif" font-size="10.00">setValue()</text>
<text xml:space="preserve" text-anchor="start" x="1379.19" y="-22.5" font-family="Helvetica,sans-Serif" font-size="10.00">+</text>
<text xml:space="preserve" text-anchor="start" x="1396.62" y="-22.5" font-family="Helvetica,sans-Serif" font-size="10.00">getPattern()</text>
<text xml:space="preserve" text-anchor="start" x="1379.19" y="-6.5" font-family="Helvetica,sans-Serif" font-size="10.00">+</text>
<text xml:space="preserve" text-anchor="start" x="1396.62" y="-6.5" font-family="Helvetica,sans-Serif" font-size="10.00">getInstance()</text>
<polygon fill="#666666" stroke="#666666" points="1367.75,-130 1367.75,-130 1501.75,-130 1501.75,-130 1367.75,-130"/>
<polygon fill="#666666" stroke="#666666" points="1367.75,-114 1367.75,-114 1394.62,-114 1394.62,-114 1367.75,-114"/>
<polygon fill="#666666" stroke="#666666" points="1394.62,-114 1394.62,-114 1501.75,-114 1501.75,-114 1394.62,-114"/>
<polygon fill="none" stroke="#666666" points="1367.75,0 1367.75,-148 1501.75,-148 1501.75,0 1367.75,0"/>
</a>
</g>
</g>
<!-- Node1&#45;&gt;Node11 -->
<g id="edge10_Node000001_Node000011" class="edge">
<title>Node1&#45;&gt;Node11</title>
<g id="a_edge10_Node000001_Node000011"><a xlink:title=" ">
<path fill="none" stroke="#63b8ff" d="M908.19,-312.79C1017.23,-288.8 1212.63,-236.85 1358.75,-148 1361.88,-146.1 1364.98,-144.05 1368.04,-141.89"/>
<polygon fill="none" stroke="#63b8ff" points="907.78,-309.3 898.75,-314.84 909.27,-316.14 907.78,-309.3"/>
</a>
</g>
</g>
<!-- Node12 -->
<g id="Node000012" class="node">
<title>Node12</title>
<g id="a_Node000012"><a xlink:href="classanch_1_1date_1_1_year4_d_formatter.html" target="_top" xlink:title=" ">
<polygon fill="white" stroke="none" points="1653.75,-148 1519.75,-148 1519.75,0 1653.75,0 1653.75,-148"/>
<text xml:space="preserve" text-anchor="start" x="1523.75" y="-134.5" font-family="Helvetica,sans-Serif" font-size="10.00">anch::date::Year4DFormatter</text>
<text xml:space="preserve" text-anchor="start" x="1531.19" y="-118.5" font-family="Helvetica,sans-Serif" font-size="10.00">+</text>
<text xml:space="preserve" text-anchor="start" x="1548.62" y="-118.5" font-family="Helvetica,sans-Serif" font-size="10.00">PATTERN</text>
<text xml:space="preserve" text-anchor="start" x="1531.19" y="-102.5" font-family="Helvetica,sans-Serif" font-size="10.00">+</text>
<text xml:space="preserve" text-anchor="start" x="1548.62" y="-102.5" font-family="Helvetica,sans-Serif" font-size="10.00">Year4DFormatter()</text>
<text xml:space="preserve" text-anchor="start" x="1531.19" y="-86.5" font-family="Helvetica,sans-Serif" font-size="10.00">+</text>
<text xml:space="preserve" text-anchor="start" x="1548.62" y="-86.5" font-family="Helvetica,sans-Serif" font-size="10.00">~Year4DFormatter()</text>
<text xml:space="preserve" text-anchor="start" x="1531.19" y="-70.5" font-family="Helvetica,sans-Serif" font-size="10.00">+</text>
<text xml:space="preserve" text-anchor="start" x="1548.62" y="-70.5" font-family="Helvetica,sans-Serif" font-size="10.00">format()</text>
<text xml:space="preserve" text-anchor="start" x="1531.19" y="-54.5" font-family="Helvetica,sans-Serif" font-size="10.00">+</text>
<text xml:space="preserve" text-anchor="start" x="1548.62" y="-54.5" font-family="Helvetica,sans-Serif" font-size="10.00">getSize()</text>
<text xml:space="preserve" text-anchor="start" x="1531.19" y="-38.5" font-family="Helvetica,sans-Serif" font-size="10.00">+</text>
<text xml:space="preserve" text-anchor="start" x="1548.62" y="-38.5" font-family="Helvetica,sans-Serif" font-size="10.00">setValue()</text>
<text xml:space="preserve" text-anchor="start" x="1531.19" y="-22.5" font-family="Helvetica,sans-Serif" font-size="10.00">+</text>
<text xml:space="preserve" text-anchor="start" x="1548.62" y="-22.5" font-family="Helvetica,sans-Serif" font-size="10.00">getPattern()</text>
<text xml:space="preserve" text-anchor="start" x="1531.19" y="-6.5" font-family="Helvetica,sans-Serif" font-size="10.00">+</text>
<text xml:space="preserve" text-anchor="start" x="1548.62" y="-6.5" font-family="Helvetica,sans-Serif" font-size="10.00">getInstance()</text>
<polygon fill="#666666" stroke="#666666" points="1519.75,-130 1519.75,-130 1653.75,-130 1653.75,-130 1519.75,-130"/>
<polygon fill="#666666" stroke="#666666" points="1519.75,-114 1519.75,-114 1546.62,-114 1546.62,-114 1519.75,-114"/>
<polygon fill="#666666" stroke="#666666" points="1546.62,-114 1546.62,-114 1653.75,-114 1653.75,-114 1546.62,-114"/>
<polygon fill="none" stroke="#666666" points="1519.75,0 1519.75,-148 1653.75,-148 1653.75,0 1519.75,0"/>
</a>
</g>
</g>
<!-- Node1&#45;&gt;Node12 -->
<g id="edge11_Node000001_Node000012" class="edge">
<title>Node1&#45;&gt;Node12</title>
<g id="a_edge11_Node000001_Node000012"><a xlink:title=" ">
<path fill="none" stroke="#63b8ff" d="M908.85,-320.67C1043.02,-304.33 1312.37,-259.44 1510.75,-148 1513.94,-146.21 1517.1,-144.25 1520.2,-142.16"/>
<polygon fill="none" stroke="#63b8ff" points="908.48,-317.19 898.97,-321.85 909.31,-324.14 908.48,-317.19"/>
</a>
</g>
</g>
</g>
</svg>
