<?xml version="1.0" encoding="UTF-8" standalone="no"?>
<!DOCTYPE svg PUBLIC "-//W3C//DTD SVG 1.1//EN"
 "http://www.w3.org/Graphics/SVG/1.1/DTD/svg11.dtd">
<!-- Generated by graphviz version 2.49.3 (0)
 -->
<!-- Title: anch::crypto::AES&lt; K, R &gt; Pages: 1 -->
<svg width="178pt" height="376pt"
 viewBox="0.00 0.00 178.00 376.00" xmlns="http://www.w3.org/2000/svg" xmlns:xlink="http://www.w3.org/1999/xlink">
<g id="graph0" class="graph" transform="scale(1 1) rotate(0) translate(4 372)">
<title>anch::crypto::AES&lt; K, R &gt;</title>
<!-- Node1 -->
<g id="node1" class="node">
<title>Node1</title>
<g id="a_node1"><a xlink:title="AES block cipher algorithm implementation.">
<polygon fill="#bfbfbf" stroke="black" points="30,-0.5 30,-112.5 140,-112.5 140,-0.5 30,-0.5"/>
<text text-anchor="start" x="38" y="-100.5" font-family="Helvetica,sans-Serif" font-size="10.00">anch::crypto::AES&lt;</text>
<text text-anchor="middle" x="85" y="-89.5" font-family="Helvetica,sans-Serif" font-size="10.00"> K, R &gt;</text>
<polyline fill="none" stroke="black" points="30,-82.5 140,-82.5 "/>
<text text-anchor="middle" x="85" y="-70.5" font-family="Helvetica,sans-Serif" font-size="10.00"> </text>
<polyline fill="none" stroke="black" points="30,-63.5 140,-63.5 "/>
<text text-anchor="start" x="38" y="-51.5" font-family="Helvetica,sans-Serif" font-size="10.00">+ AES()</text>
<text text-anchor="start" x="38" y="-40.5" font-family="Helvetica,sans-Serif" font-size="10.00">+ AES()</text>
<text text-anchor="start" x="38" y="-29.5" font-family="Helvetica,sans-Serif" font-size="10.00">+ ~AES()</text>
<text text-anchor="start" x="38" y="-18.5" font-family="Helvetica,sans-Serif" font-size="10.00">+ cipher()</text>
<text text-anchor="start" x="38" y="-7.5" font-family="Helvetica,sans-Serif" font-size="10.00">+ decipher()</text>
</a>
</g>
</g>
<!-- Node2 -->
<g id="node2" class="node">
<title>Node2</title>
<g id="a_node2"><a xlink:href="classanch_1_1crypto_1_1_block_cipher.html" target="_top" xlink:title=" ">
<polygon fill="none" stroke="black" points="14.5,-150.5 14.5,-240.5 155.5,-240.5 155.5,-150.5 14.5,-150.5"/>
<text text-anchor="start" x="22.5" y="-228.5" font-family="Helvetica,sans-Serif" font-size="10.00">anch::crypto::BlockCipher</text>
<text text-anchor="middle" x="85" y="-217.5" font-family="Helvetica,sans-Serif" font-size="10.00">&lt; 16 &gt;</text>
<polyline fill="none" stroke="black" points="14.5,-210.5 155.5,-210.5 "/>
<text text-anchor="middle" x="85" y="-198.5" font-family="Helvetica,sans-Serif" font-size="10.00"> </text>
<polyline fill="none" stroke="black" points="14.5,-191.5 155.5,-191.5 "/>
<text text-anchor="start" x="22.5" y="-179.5" font-family="Helvetica,sans-Serif" font-size="10.00">+ cipher()</text>
<text text-anchor="start" x="22.5" y="-168.5" font-family="Helvetica,sans-Serif" font-size="10.00">+ decipher()</text>
<text text-anchor="start" x="22.5" y="-157.5" font-family="Helvetica,sans-Serif" font-size="10.00">+ getBlockSize()</text>
</a>
</g>
</g>
<!-- Node2&#45;&gt;Node1 -->
<g id="edge1" class="edge">
<title>Node2&#45;&gt;Node1</title>
<path fill="none" stroke="midnightblue" d="M85,-140.29C85,-131.18 85,-121.71 85,-112.57"/>
<polygon fill="none" stroke="midnightblue" points="81.5,-140.4 85,-150.4 88.5,-140.4 81.5,-140.4"/>
</g>
<!-- Node3 -->
<g id="node3" class="node">
<title>Node3</title>
<g id="a_node3"><a xlink:href="classanch_1_1crypto_1_1_block_cipher.html" target="_top" xlink:title="Block cipher interface.">
<polygon fill="none" stroke="black" points="0,-288.5 0,-367.5 170,-367.5 170,-288.5 0,-288.5"/>
<text text-anchor="middle" x="85" y="-355.5" font-family="Helvetica,sans-Serif" font-size="10.00">anch::crypto::BlockCipher&lt; B &gt;</text>
<polyline fill="none" stroke="black" points="0,-348.5 170,-348.5 "/>
<text text-anchor="middle" x="85" y="-336.5" font-family="Helvetica,sans-Serif" font-size="10.00"> </text>
<polyline fill="none" stroke="black" points="0,-329.5 170,-329.5 "/>
<text text-anchor="start" x="8" y="-317.5" font-family="Helvetica,sans-Serif" font-size="10.00">+ cipher()</text>
<text text-anchor="start" x="8" y="-306.5" font-family="Helvetica,sans-Serif" font-size="10.00">+ decipher()</text>
<text text-anchor="start" x="8" y="-295.5" font-family="Helvetica,sans-Serif" font-size="10.00">+ getBlockSize()</text>
</a>
</g>
</g>
<!-- Node3&#45;&gt;Node2 -->
<g id="edge2" class="edge">
<title>Node3&#45;&gt;Node2</title>
<path fill="none" stroke="orange" d="M85,-278.16C85,-265.93 85,-252.88 85,-240.88"/>
<polygon fill="orange" stroke="orange" points="81.5,-278.2 85,-288.2 88.5,-278.2 81.5,-278.2"/>
<text text-anchor="middle" x="104" y="-262" font-family="Helvetica,sans-Serif" font-size="10.00"> &lt; 16 &gt;</text>
</g>
</g>
</svg>
