<?xml version="1.0" encoding="UTF-8" standalone="no"?>
<!DOCTYPE svg PUBLIC "-//W3C//DTD SVG 1.1//EN"
 "http://www.w3.org/Graphics/SVG/1.1/DTD/svg11.dtd">
<!-- Generated by graphviz version 13.1.0 (0)
 -->
<!-- Title: anch::date::Date::operator&lt;= Pages: 1 -->
<svg width="461pt" height="104pt"
 viewBox="0.00 0.00 461.00 104.00" xmlns="http://www.w3.org/2000/svg" xmlns:xlink="http://www.w3.org/1999/xlink">
<g id="graph0" class="graph" transform="scale(1 1) rotate(0) translate(4 100)">
<title>anch::date::Date::operator&lt;=</title>
<!-- Node1 -->
<g id="Node000001" class="node">
<title>Node1</title>
<g id="a_Node000001"><a xlink:title=" ">
<polygon fill="#999999" stroke="#666666" points="142,-58 0,-58 0,-38 142,-38 142,-58"/>
<text xml:space="preserve" text-anchor="middle" x="71" y="-44.5" font-family="Helvetica,sans-Serif" font-size="10.00">anch::date::Date::operator&lt;=</text>
</a>
</g>
</g>
<!-- Node2 -->
<g id="Node000002" class="node">
<title>Node2</title>
<g id="a_Node000002"><a xlink:href="classanch_1_1date_1_1_date.html#a568608f4185ccebb97d059f0939fcc73" target="_top" xlink:title=" ">
<polygon fill="white" stroke="#666666" points="300.5,-96 178.75,-96 178.75,-76 300.5,-76 300.5,-96"/>
<text xml:space="preserve" text-anchor="middle" x="239.62" y="-82.5" font-family="Helvetica,sans-Serif" font-size="10.00">anch::date::Date::before</text>
</a>
</g>
</g>
<!-- Node1&#45;&gt;Node2 -->
<g id="edge1_Node000001_Node000002" class="edge">
<title>Node1&#45;&gt;Node2</title>
<g id="a_edge1_Node000001_Node000002"><a xlink:title=" ">
<path fill="none" stroke="#63b8ff" d="M117.97,-58.48C137.73,-62.99 161.03,-68.3 181.85,-73.05"/>
<polygon fill="#63b8ff" stroke="#63b8ff" points="180.8,-76.4 191.33,-75.21 182.36,-69.58 180.8,-76.4"/>
</a>
</g>
</g>
<!-- Node3 -->
<g id="Node000003" class="node">
<title>Node3</title>
<g id="a_Node000003"><a xlink:href="classanch_1_1date_1_1_date.html#a67ebc88fe2e013b0127fe727ccd7c656" target="_top" xlink:title=" ">
<polygon fill="white" stroke="#666666" points="453,-58 337.25,-58 337.25,-38 453,-38 453,-58"/>
<text xml:space="preserve" text-anchor="middle" x="395.12" y="-44.5" font-family="Helvetica,sans-Serif" font-size="10.00">anch::date::Date::Date</text>
</a>
</g>
</g>
<!-- Node1&#45;&gt;Node3 -->
<g id="edge3_Node000001_Node000003" class="edge">
<title>Node1&#45;&gt;Node3</title>
<g id="a_edge3_Node000001_Node000003"><a xlink:title=" ">
<path fill="none" stroke="#63b8ff" d="M142.29,-48C196.73,-48 271.72,-48 325.68,-48"/>
<polygon fill="#63b8ff" stroke="#63b8ff" points="325.35,-51.5 335.35,-48 325.35,-44.5 325.35,-51.5"/>
</a>
</g>
</g>
<!-- Node4 -->
<g id="Node000004" class="node">
<title>Node4</title>
<g id="a_Node000004"><a xlink:href="classanch_1_1date_1_1_date.html#a12a4ce40c726862c624cb53edcd57485" target="_top" xlink:title=" ">
<polygon fill="white" stroke="#666666" points="301.25,-20 178,-20 178,0 301.25,0 301.25,-20"/>
<text xml:space="preserve" text-anchor="middle" x="239.62" y="-6.5" font-family="Helvetica,sans-Serif" font-size="10.00">anch::date::Date::equals</text>
</a>
</g>
</g>
<!-- Node1&#45;&gt;Node4 -->
<g id="edge4_Node000001_Node000004" class="edge">
<title>Node1&#45;&gt;Node4</title>
<g id="a_edge4_Node000001_Node000004"><a xlink:title=" ">
<path fill="none" stroke="#63b8ff" d="M117.97,-37.52C137.73,-33.01 161.03,-27.7 181.85,-22.95"/>
<polygon fill="#63b8ff" stroke="#63b8ff" points="182.36,-26.42 191.33,-20.79 180.8,-19.6 182.36,-26.42"/>
</a>
</g>
</g>
<!-- Node2&#45;&gt;Node3 -->
<g id="edge2_Node000002_Node000003" class="edge">
<title>Node2&#45;&gt;Node3</title>
<g id="a_edge2_Node000002_Node000003"><a xlink:title=" ">
<path fill="none" stroke="#63b8ff" d="M282.98,-75.52C300.84,-71.09 321.85,-65.89 340.76,-61.21"/>
<polygon fill="#63b8ff" stroke="#63b8ff" points="341.58,-64.61 350.44,-58.81 339.9,-57.82 341.58,-64.61"/>
</a>
</g>
</g>
<!-- Node4&#45;&gt;Node3 -->
<g id="edge5_Node000004_Node000003" class="edge">
<title>Node4&#45;&gt;Node3</title>
<g id="a_edge5_Node000004_Node000003"><a xlink:title=" ">
<path fill="none" stroke="#63b8ff" d="M282.98,-20.48C300.84,-24.91 321.85,-30.11 340.76,-34.79"/>
<polygon fill="#63b8ff" stroke="#63b8ff" points="339.9,-38.18 350.44,-37.19 341.58,-31.39 339.9,-38.18"/>
</a>
</g>
</g>
</g>
</svg>
