<?xml version="1.0" encoding="UTF-8" standalone="no"?>
<!DOCTYPE svg PUBLIC "-//W3C//DTD SVG 1.1//EN"
 "http://www.w3.org/Graphics/SVG/1.1/DTD/svg11.dtd">
<!-- Generated by graphviz version 12.1.2 (0)
 -->
<!-- Title: anch::device::DeviceException Pages: 1 -->
<svg width="153pt" height="196pt"
 viewBox="0.00 0.00 153.00 196.00" xmlns="http://www.w3.org/2000/svg" xmlns:xlink="http://www.w3.org/1999/xlink">
<g id="graph0" class="graph" transform="scale(1 1) rotate(0) translate(4 192)">
<title>anch::device::DeviceException</title>
<!-- Node1 -->
<g id="Node000001" class="node">
<title>Node1</title>
<g id="a_Node000001"><a xlink:title=" ">
<polygon fill="#999999" stroke="none" points="145,-100 0,-100 0,0 145,0 145,-100"/>
<text text-anchor="start" x="4.62" y="-86.5" font-family="Helvetica,sans-Serif" font-size="10.00">anch::device::DeviceException</text>
<text text-anchor="start" x="71" y="-70.5" font-family="Helvetica,sans-Serif" font-size="10.00"> </text>
<text text-anchor="start" x="14" y="-54.5" font-family="Helvetica,sans-Serif" font-size="10.00">+</text>
<text text-anchor="start" x="34" y="-54.5" font-family="Helvetica,sans-Serif" font-size="10.00">DeviceException()</text>
<text text-anchor="start" x="14" y="-38.5" font-family="Helvetica,sans-Serif" font-size="10.00">+</text>
<text text-anchor="start" x="34" y="-38.5" font-family="Helvetica,sans-Serif" font-size="10.00">DeviceException()</text>
<text text-anchor="start" x="14" y="-22.5" font-family="Helvetica,sans-Serif" font-size="10.00">+</text>
<text text-anchor="start" x="34" y="-22.5" font-family="Helvetica,sans-Serif" font-size="10.00">~DeviceException()</text>
<text text-anchor="start" x="14" y="-6.5" font-family="Helvetica,sans-Serif" font-size="10.00">+</text>
<text text-anchor="start" x="34" y="-6.5" font-family="Helvetica,sans-Serif" font-size="10.00">what()</text>
<polygon fill="#666666" stroke="#666666" points="0,-82 0,-82 145,-82 145,-82 0,-82"/>
<polygon fill="#666666" stroke="#666666" points="0,-66 0,-66 145,-66 145,-66 0,-66"/>
<polygon fill="none" stroke="#666666" points="0,0 0,-100 145,-100 145,0 0,0"/>
</a>
</g>
</g>
<!-- Node2 -->
<g id="Node000002" class="node">
<title>Node2</title>
<g id="a_Node000002"><a xlink:title=" ">
<polygon fill="white" stroke="none" points="108,-188 37,-188 37,-136 108,-136 108,-188"/>
<text text-anchor="start" x="41.75" y="-174.5" font-family="Helvetica,sans-Serif" font-size="10.00">std::exception</text>
<text text-anchor="start" x="71" y="-158.5" font-family="Helvetica,sans-Serif" font-size="10.00"> </text>
<text text-anchor="start" x="71" y="-142.5" font-family="Helvetica,sans-Serif" font-size="10.00"> </text>
<polygon fill="#666666" stroke="#666666" points="37,-170 37,-170 108,-170 108,-170 37,-170"/>
<polygon fill="#666666" stroke="#666666" points="37,-154 37,-154 108,-154 108,-154 37,-154"/>
<polygon fill="none" stroke="#666666" points="37,-136 37,-188 108,-188 108,-136 37,-136"/>
</a>
</g>
</g>
<!-- Node2&#45;&gt;Node1 -->
<g id="edge1_Node000001_Node000002" class="edge">
<title>Node2&#45;&gt;Node1</title>
<g id="a_edge1_Node000001_Node000002"><a xlink:title=" ">
<path fill="none" stroke="#63b8ff" d="M72.5,-124.53C72.5,-116.58 72.5,-108.05 72.5,-99.72"/>
<polygon fill="none" stroke="#63b8ff" points="69,-124.53 72.5,-134.53 76,-124.53 69,-124.53"/>
</a>
</g>
</g>
</g>
</svg>
