<?xml version="1.0" encoding="UTF-8" standalone="no"?>
<!DOCTYPE svg PUBLIC "-//W3C//DTD SVG 1.1//EN"
 "http://www.w3.org/Graphics/SVG/1.1/DTD/svg11.dtd">
<!-- Generated by graphviz version 2.40.1 (20161225.0304)
 -->
<!-- Title: anch::sql::PostgreSQLPreparedStatement Pages: 1 -->
<!--zoomable 685 -->
<svg id="main" version="1.1" xmlns="http://www.w3.org/2000/svg" xmlns:xlink="http://www.w3.org/1999/xlink" xml:space="preserve" onload="init(evt)">
<style type="text/css"><![CDATA[
.edge:hover path { stroke: red; }
.edge:hover polygon { stroke: red; fill: red; }
]]></style>
<script type="text/javascript"><![CDATA[
var edges = document.getElementsByTagName('g');
if (edges && edges.length) {
  for (var i=0;i<edges.length;i++) {
    if (edges[i].id.substr(0,4)=='edge') {
      edges[i].setAttribute('class','edge');
    }
  }
}
]]></script>
        <defs>
                <circle id="rim" cx="0" cy="0" r="7"/>
                <circle id="rim2" cx="0" cy="0" r="3.5"/>
                <g id="zoomPlus">
                        <use xlink:href="#rim" fill="#404040">
                                <set attributeName="fill" to="#808080" begin="zoomplus.mouseover" end="zoomplus.mouseout"/>
                        </use>
                        <path d="M-4,0h8M0,-4v8" fill="none" stroke="white" stroke-width="1.5" pointer-events="none"/>
                </g>
                <g id="zoomMin">
                        <use xlink:href="#rim" fill="#404040">
                                <set attributeName="fill" to="#808080" begin="zoomminus.mouseover" end="zoomminus.mouseout"/>
                        </use>
                        <path d="M-4,0h8" fill="none" stroke="white" stroke-width="1.5" pointer-events="none"/>
                </g>
                <g id="dirArrow">
                        <path fill="none" stroke="white" stroke-width="1.5" d="M0,-3.0v7 M-2.5,-0.5L0,-3.0L2.5,-0.5"/>
                </g>
               <g id="resetDef">
                       <use xlink:href="#rim2" fill="#404040">
                               <set attributeName="fill" to="#808080" begin="reset.mouseover" end="reset.mouseout"/>
                       </use>
               </g>
        </defs>

<script type="text/javascript">
var viewWidth = 252;
var viewHeight = 685;
var sectionId = 'dynsection-1';
</script>
<script xlink:href="svgpan.js"/>
<svg id="graph" class="graph">
<g id="viewport">
<title>anch::sql::PostgreSQLPreparedStatement</title>
<!-- Node2 -->
<g id="node1" class="node">
<title>Node2</title>
<polygon fill="#bfbfbf" stroke="#000000" points="5,-.5 5,-101.5 199,-101.5 199,-.5 5,-.5"/>
<text text-anchor="start" x="13" y="-89.5" font-family="Helvetica,sans-Serif" font-size="10.00" fill="#000000">anch::sql::PostgreSQLPrepared</text>
<text text-anchor="middle" x="102" y="-78.5" font-family="Helvetica,sans-Serif" font-size="10.00" fill="#000000">Statement</text>
<polyline fill="none" stroke="#000000" points="5,-71.5 199,-71.5 "/>
<text text-anchor="middle" x="102" y="-59.5" font-family="Helvetica,sans-Serif" font-size="10.00" fill="#000000"> </text>
<polyline fill="none" stroke="#000000" points="5,-52.5 199,-52.5 "/>
<text text-anchor="start" x="13" y="-40.5" font-family="Helvetica,sans-Serif" font-size="10.00" fill="#000000">+ PostgreSQLPreparedStatement()</text>
<text text-anchor="start" x="13" y="-29.5" font-family="Helvetica,sans-Serif" font-size="10.00" fill="#000000">+ ~PostgreSQLPreparedStatement()</text>
<text text-anchor="start" x="13" y="-18.5" font-family="Helvetica,sans-Serif" font-size="10.00" fill="#000000">+ executeQuery()</text>
<text text-anchor="start" x="13" y="-7.5" font-family="Helvetica,sans-Serif" font-size="10.00" fill="#000000">+ executeUpdate()</text>
</g>
<!-- Node3 -->
<g id="node2" class="node">
<title>Node3</title>
<g id="a_node2"><a xlink:href="classanch_1_1sql_1_1_prepared_statement.html" target="_top" xlink:title="SQL prepared statement. ">
<polygon fill="none" stroke="#000000" points="21.5,-139.5 21.5,-328.5 182.5,-328.5 182.5,-139.5 21.5,-139.5"/>
<text text-anchor="middle" x="102" y="-316.5" font-family="Helvetica,sans-Serif" font-size="10.00" fill="#000000">anch::sql::PreparedStatement</text>
<polyline fill="none" stroke="#000000" points="21.5,-309.5 182.5,-309.5 "/>
<text text-anchor="start" x="29.5" y="-297.5" font-family="Helvetica,sans-Serif" font-size="10.00" fill="#000000"># _nbPlaceholders</text>
<polyline fill="none" stroke="#000000" points="21.5,-290.5 182.5,-290.5 "/>
<text text-anchor="start" x="29.5" y="-278.5" font-family="Helvetica,sans-Serif" font-size="10.00" fill="#000000">+ PreparedStatement()</text>
<text text-anchor="start" x="29.5" y="-267.5" font-family="Helvetica,sans-Serif" font-size="10.00" fill="#000000">+ ~PreparedStatement()</text>
<text text-anchor="start" x="29.5" y="-256.5" font-family="Helvetica,sans-Serif" font-size="10.00" fill="#000000">+ executeQuery()</text>
<text text-anchor="start" x="29.5" y="-245.5" font-family="Helvetica,sans-Serif" font-size="10.00" fill="#000000">+ executeUpdate()</text>
<text text-anchor="start" x="29.5" y="-234.5" font-family="Helvetica,sans-Serif" font-size="10.00" fill="#000000">+ set()</text>
<text text-anchor="start" x="29.5" y="-223.5" font-family="Helvetica,sans-Serif" font-size="10.00" fill="#000000">+ set()</text>
<text text-anchor="start" x="29.5" y="-212.5" font-family="Helvetica,sans-Serif" font-size="10.00" fill="#000000">+ set()</text>
<text text-anchor="start" x="29.5" y="-201.5" font-family="Helvetica,sans-Serif" font-size="10.00" fill="#000000">+ set()</text>
<text text-anchor="start" x="29.5" y="-190.5" font-family="Helvetica,sans-Serif" font-size="10.00" fill="#000000">+ set()</text>
<text text-anchor="start" x="29.5" y="-179.5" font-family="Helvetica,sans-Serif" font-size="10.00" fill="#000000">+ set()</text>
<text text-anchor="start" x="29.5" y="-168.5" font-family="Helvetica,sans-Serif" font-size="10.00" fill="#000000">+ set()</text>
<text text-anchor="start" x="29.5" y="-157.5" font-family="Helvetica,sans-Serif" font-size="10.00" fill="#000000"># getPlaceholders()</text>
<text text-anchor="start" x="29.5" y="-146.5" font-family="Helvetica,sans-Serif" font-size="10.00" fill="#000000"># checkIndex()</text>
</a>
</g>
</g>
<!-- Node3&#45;&gt;Node2 -->
<g id="edge1" class="edge">
<title>Node3&#45;&gt;Node2</title>
<path fill="none" stroke="#191970" d="M102,-129.0355C102,-119.6431 102,-110.4443 102,-101.8466"/>
<polygon fill="none" stroke="#191970" points="98.5001,-129.2838 102,-139.2838 105.5001,-129.2838 98.5001,-129.2838"/>
</g>
<!-- Node4 -->
<g id="node3" class="node">
<title>Node4</title>
<polygon fill="none" stroke="#bfbfbf" points="46.5,-376.5 46.5,-444.5 157.5,-444.5 157.5,-376.5 46.5,-376.5"/>
<text text-anchor="start" x="54.5" y="-432.5" font-family="Helvetica,sans-Serif" font-size="10.00" fill="#000000">std::map&lt; std::size</text>
<text text-anchor="middle" x="102" y="-421.5" font-family="Helvetica,sans-Serif" font-size="10.00" fill="#000000">_t, std::string &gt;</text>
<polyline fill="none" stroke="#bfbfbf" points="46.5,-414.5 157.5,-414.5 "/>
<text text-anchor="start" x="54.5" y="-402.5" font-family="Helvetica,sans-Serif" font-size="10.00" fill="#000000">+ keys</text>
<polyline fill="none" stroke="#bfbfbf" points="46.5,-395.5 157.5,-395.5 "/>
<text text-anchor="middle" x="102" y="-383.5" font-family="Helvetica,sans-Serif" font-size="10.00" fill="#000000"> </text>
</g>
<!-- Node4&#45;&gt;Node3 -->
<g id="edge2" class="edge">
<title>Node4&#45;&gt;Node3</title>
<path fill="none" stroke="#404040" d="M102,-376.469C102,-365.9931 102,-353.8528 102,-341.1653"/>
<polygon fill="none" stroke="#404040" points="102.0001,-340.8697 98,-334.8697 102,-328.8697 106,-334.8696 102.0001,-340.8697"/>
<text text-anchor="middle" x="126.5" y="-350" font-family="Helvetica,sans-Serif" font-size="10.00" fill="#000000"> #_values</text>
</g>
<!-- Node5 -->
<g id="node4" class="node">
<title>Node5</title>
<g id="a_node4"><a xlink:title="STL class. ">
<polygon fill="none" stroke="#bfbfbf" points="19.5,-503.5 19.5,-560.5 84.5,-560.5 84.5,-503.5 19.5,-503.5"/>
<text text-anchor="middle" x="52" y="-548.5" font-family="Helvetica,sans-Serif" font-size="10.00" fill="#000000">std::string</text>
<polyline fill="none" stroke="#bfbfbf" points="19.5,-541.5 84.5,-541.5 "/>
<text text-anchor="middle" x="52" y="-529.5" font-family="Helvetica,sans-Serif" font-size="10.00" fill="#000000"> </text>
<polyline fill="none" stroke="#bfbfbf" points="19.5,-522.5 84.5,-522.5 "/>
<text text-anchor="middle" x="52" y="-510.5" font-family="Helvetica,sans-Serif" font-size="10.00" fill="#000000"> </text>
</a>
</g>
</g>
<!-- Node5&#45;&gt;Node4 -->
<g id="edge3" class="edge">
<title>Node5&#45;&gt;Node4</title>
<path fill="none" stroke="#404040" d="M56.3192,-503.4375C58.819,-490.7347 62.5724,-475.7918 68,-463 69.1094,-460.3853 70.3471,-457.7569 71.6752,-455.1448"/>
<polygon fill="none" stroke="#404040" points="71.7192,-455.0653 71.1368,-447.8778 77.5474,-444.5757 78.1299,-451.7632 71.7192,-455.0653"/>
<text text-anchor="middle" x="97" y="-471.5" font-family="Helvetica,sans-Serif" font-size="10.00" fill="#000000"> +elements</text>
</g>
<!-- Node6 -->
<g id="node5" class="node">
<title>Node6</title>
<g id="a_node5"><a xlink:title="STL class. ">
<polygon fill="none" stroke="#bfbfbf" points="0,-608.5 0,-676.5 104,-676.5 104,-608.5 0,-608.5"/>
<text text-anchor="start" x="8" y="-664.5" font-family="Helvetica,sans-Serif" font-size="10.00" fill="#000000">std::basic_string&lt;</text>
<text text-anchor="middle" x="52" y="-653.5" font-family="Helvetica,sans-Serif" font-size="10.00" fill="#000000"> char &gt;</text>
<polyline fill="none" stroke="#bfbfbf" points="0,-646.5 104,-646.5 "/>
<text text-anchor="middle" x="52" y="-634.5" font-family="Helvetica,sans-Serif" font-size="10.00" fill="#000000"> </text>
<polyline fill="none" stroke="#bfbfbf" points="0,-627.5 104,-627.5 "/>
<text text-anchor="middle" x="52" y="-615.5" font-family="Helvetica,sans-Serif" font-size="10.00" fill="#000000"> </text>
</a>
</g>
</g>
<!-- Node6&#45;&gt;Node5 -->
<g id="edge4" class="edge">
<title>Node6&#45;&gt;Node5</title>
<path fill="none" stroke="#191970" d="M52,-598.0661C52,-585.4172 52,-571.9812 52,-560.5519"/>
<polygon fill="none" stroke="#191970" points="48.5001,-598.4447 52,-608.4447 55.5001,-598.4447 48.5001,-598.4447"/>
</g>
<!-- Node7 -->
<g id="node6" class="node">
<title>Node7</title>
<g id="a_node6"><a xlink:title="STL class. ">
<polygon fill="none" stroke="#bfbfbf" points="102.5,-503.5 102.5,-560.5 203.5,-560.5 203.5,-503.5 102.5,-503.5"/>
<text text-anchor="middle" x="153" y="-548.5" font-family="Helvetica,sans-Serif" font-size="10.00" fill="#000000">std::map&lt; K, T &gt;</text>
<polyline fill="none" stroke="#bfbfbf" points="102.5,-541.5 203.5,-541.5 "/>
<text text-anchor="middle" x="153" y="-529.5" font-family="Helvetica,sans-Serif" font-size="10.00" fill="#000000"> </text>
<polyline fill="none" stroke="#bfbfbf" points="102.5,-522.5 203.5,-522.5 "/>
<text text-anchor="middle" x="153" y="-510.5" font-family="Helvetica,sans-Serif" font-size="10.00" fill="#000000"> </text>
</a>
</g>
</g>
<!-- Node7&#45;&gt;Node4 -->
<g id="edge5" class="edge">
<title>Node7&#45;&gt;Node4</title>
<path fill="none" stroke="#ffa500" d="M138.5401,-493.9269C134.5852,-483.8279 130.2225,-472.9626 126,-463 123.458,-457.0023 120.6596,-450.6657 117.8989,-444.549"/>
<polygon fill="#ffa500" stroke="#ffa500" points="135.3055,-495.2662 142.1891,-503.3203 141.8305,-492.7315 135.3055,-495.2662"/>
<text text-anchor="start" x="135" y="-477" font-family="Helvetica,sans-Serif" font-size="10.00" fill="#000000"> &lt; std::size_t, std</text>
<text text-anchor="middle" x="177.5" y="-466" font-family="Helvetica,sans-Serif" font-size="10.00" fill="#000000">::string &gt;</text>
</g>
<!-- Node8 -->
<g id="node7" class="node">
<title>Node8</title>
<polygon fill="none" stroke="#bfbfbf" points="130.5,-614 130.5,-671 159.5,-671 159.5,-614 130.5,-614"/>
<text text-anchor="middle" x="145" y="-659" font-family="Helvetica,sans-Serif" font-size="10.00" fill="#000000">K</text>
<polyline fill="none" stroke="#bfbfbf" points="130.5,-652 159.5,-652 "/>
<text text-anchor="middle" x="145" y="-640" font-family="Helvetica,sans-Serif" font-size="10.00" fill="#000000"> </text>
<polyline fill="none" stroke="#bfbfbf" points="130.5,-633 159.5,-633 "/>
<text text-anchor="middle" x="145" y="-621" font-family="Helvetica,sans-Serif" font-size="10.00" fill="#000000"> </text>
</g>
<!-- Node8&#45;&gt;Node7 -->
<g id="edge6" class="edge">
<title>Node8&#45;&gt;Node7</title>
<path fill="none" stroke="#404040" d="M144.6503,-613.6952C144.729,-602.8085 145.0721,-590.3185 146,-579 146.1668,-576.965 146.3668,-574.8842 146.592,-572.7855"/>
<polygon fill="none" stroke="#404040" points="146.6065,-572.6697 143.3853,-566.218 148.1018,-560.7632 151.323,-567.2149 146.6065,-572.6697"/>
<text text-anchor="middle" x="163.5" y="-582" font-family="Helvetica,sans-Serif" font-size="10.00" fill="#000000"> +keys</text>
</g>
<!-- Node9 -->
<g id="node8" class="node">
<title>Node9</title>
<polygon fill="none" stroke="#bfbfbf" points="188.5,-614 188.5,-671 217.5,-671 217.5,-614 188.5,-614"/>
<text text-anchor="middle" x="203" y="-659" font-family="Helvetica,sans-Serif" font-size="10.00" fill="#000000">T</text>
<polyline fill="none" stroke="#bfbfbf" points="188.5,-652 217.5,-652 "/>
<text text-anchor="middle" x="203" y="-640" font-family="Helvetica,sans-Serif" font-size="10.00" fill="#000000"> </text>
<polyline fill="none" stroke="#bfbfbf" points="188.5,-633 217.5,-633 "/>
<text text-anchor="middle" x="203" y="-621" font-family="Helvetica,sans-Serif" font-size="10.00" fill="#000000"> </text>
</g>
<!-- Node9&#45;&gt;Node7 -->
<g id="edge7" class="edge">
<title>Node9&#45;&gt;Node7</title>
<path fill="none" stroke="#404040" d="M194.4601,-613.878C190.7964,-602.786 186.167,-590.1076 181,-579 179.8001,-576.4205 178.4976,-573.8012 177.1331,-571.1867"/>
<polygon fill="none" stroke="#404040" points="177.0773,-571.0856 170.6755,-567.7662 171.2773,-560.5803 177.6791,-563.8996 177.0773,-571.0856"/>
<text text-anchor="middle" x="215" y="-582" font-family="Helvetica,sans-Serif" font-size="10.00" fill="#000000"> +elements</text>
</g>
</g>
</svg>
        <g id="navigator" transform="translate(0 0)" fill="#404254">
                <rect fill="#f2f5e9" fill-opacity="0.5" stroke="#606060" stroke-width=".5" x="0" y="0" width="60" height="60"/>
                <use id="zoomplus" xlink:href="#zoomPlus" x="17" y="9" onmousedown="handleZoom(evt,'in')"/>
                <use id="zoomminus" xlink:href="#zoomMin" x="42" y="9" onmousedown="handleZoom(evt,'out')"/>
                <use id="reset" xlink:href="#resetDef" x="30" y="36" onmousedown="handleReset()"/>
                <g id="arrowUp" xlink:href="#dirArrow" transform="translate(30 24)" onmousedown="handlePan(0,-1)">
                  <use xlink:href="#rim" fill="#404040">
                        <set attributeName="fill" to="#808080" begin="arrowUp.mouseover" end="arrowUp.mouseout"/>
                  </use>
                  <path fill="none" stroke="white" stroke-width="1.5" d="M0,-3.0v7 M-2.5,-0.5L0,-3.0L2.5,-0.5"/>
                </g>
                <g id="arrowRight" xlink:href="#dirArrow" transform="rotate(90) translate(36 -43)" onmousedown="handlePan(1,0)">
                  <use xlink:href="#rim" fill="#404040">
                        <set attributeName="fill" to="#808080" begin="arrowRight.mouseover" end="arrowRight.mouseout"/>
                  </use>
                  <path fill="none" stroke="white" stroke-width="1.5" d="M0,-3.0v7 M-2.5,-0.5L0,-3.0L2.5,-0.5"/>
                </g>
                <g id="arrowDown" xlink:href="#dirArrow" transform="rotate(180) translate(-30 -48)" onmousedown="handlePan(0,1)">
                  <use xlink:href="#rim" fill="#404040">
                        <set attributeName="fill" to="#808080" begin="arrowDown.mouseover" end="arrowDown.mouseout"/>
                  </use>
                  <path fill="none" stroke="white" stroke-width="1.5" d="M0,-3.0v7 M-2.5,-0.5L0,-3.0L2.5,-0.5"/>
                </g>
                <g id="arrowLeft" xlink:href="#dirArrow" transform="rotate(270) translate(-36 17)" onmousedown="handlePan(-1,0)">
                  <use xlink:href="#rim" fill="#404040">
                        <set attributeName="fill" to="#808080" begin="arrowLeft.mouseover" end="arrowLeft.mouseout"/>
                  </use>
                  <path fill="none" stroke="white" stroke-width="1.5" d="M0,-3.0v7 M-2.5,-0.5L0,-3.0L2.5,-0.5"/>
                </g>
        </g>
        <svg viewBox="0 0 15 15" width="100%" height="30px" preserveAspectRatio="xMaxYMin meet">
         <g id="arrow_out" transform="scale(0.3 0.3)">
          <a xlink:href="classanch_1_1sql_1_1_postgre_s_q_l_prepared_statement__coll__graph_org.svg" target="_base">
           <rect id="button" ry="5" rx="5" y="6" x="6" height="38" width="38"
                fill="#f2f5e9" fill-opacity="0.5" stroke="#606060" stroke-width="1.0"/>
           <path id="arrow"
             d="M 11.500037,31.436501 C 11.940474,20.09759 22.043105,11.32322 32.158766,21.979434 L 37.068811,17.246167 C 37.068811,17.246167 37.088388,32 37.088388,32 L 22.160133,31.978069 C 22.160133,31.978069 26.997745,27.140456 26.997745,27.140456 C 18.528582,18.264221 13.291696,25.230495 11.500037,31.436501 z"
             style="fill:#404040;"/>
          </a>
         </g>
        </svg>
</svg>
