<?xml version="1.0" encoding="UTF-8" standalone="no"?>
<!DOCTYPE svg PUBLIC "-//W3C//DTD SVG 1.1//EN"
 "http://www.w3.org/Graphics/SVG/1.1/DTD/svg11.dtd">
<!-- Generated by graphviz version 7.0.4 (0)
 -->
<!-- Title: anch::sql::PostgreSQLPreparedStatement Pages: 1 -->
<!--zoomable 633 -->
<svg id="main" version="1.1" xmlns="http://www.w3.org/2000/svg" xmlns:xlink="http://www.w3.org/1999/xlink" xml:space="preserve" onload="init(evt)">
<style type="text/css"><![CDATA[
.edge:hover path { stroke: red; }
.edge:hover polygon { stroke: red; fill: red; }
]]></style>
<script type="text/javascript"><![CDATA[
var edges = document.getElementsByTagName('g');
if (edges && edges.length) {
  for (var i=0;i<edges.length;i++) {
    if (edges[i].id.substr(0,4)=='edge') {
      edges[i].setAttribute('class','edge');
    }
  }
}
]]></script>
        <defs>
                <circle id="rim" cx="0" cy="0" r="7"/>
                <circle id="rim2" cx="0" cy="0" r="3.5"/>
                <g id="zoomPlus">
                        <use xlink:href="#rim" fill="#404040">
                                <set attributeName="fill" to="#808080" begin="zoomplus.mouseover" end="zoomplus.mouseout"/>
                        </use>
                        <path d="M-4,0h8M0,-4v8" fill="none" stroke="white" stroke-width="1.5" pointer-events="none"/>
                </g>
                <g id="zoomMin">
                        <use xlink:href="#rim" fill="#404040">
                                <set attributeName="fill" to="#808080" begin="zoomminus.mouseover" end="zoomminus.mouseout"/>
                        </use>
                        <path d="M-4,0h8" fill="none" stroke="white" stroke-width="1.5" pointer-events="none"/>
                </g>
                <g id="dirArrow">
                        <path fill="none" stroke="white" stroke-width="1.5" d="M0,-3.0v7 M-2.5,-0.5L0,-3.0L2.5,-0.5"/>
                </g>
               <g id="resetDef">
                       <use xlink:href="#rim2" fill="#404040">
                               <set attributeName="fill" to="#808080" begin="reset.mouseover" end="reset.mouseout"/>
                       </use>
               </g>
        </defs>

<script type="text/javascript">
var viewWidth = 259;
var viewHeight = 633;
var sectionId = 'dynsection-1';
</script>
<script xlink:href="svgpan.js"/>
<svg id="graph" class="graph">
<g id="viewport">
<title>anch::sql::PostgreSQLPreparedStatement</title>
<!-- Node1 -->
<g id="node1" class="node">
<title>Node1</title>
<g id="a_node1"><a xlink:title="PostgreSQL prepared statement implementation.">
<polygon fill="#999999" stroke="#666666" points="205,-85 11,-85 11,0 205,0 205,-85"/>
<text text-anchor="start" x="19" y="-73" font-family="Helvetica,sans-Serif" font-size="10.00">{anch::sql::PostgreSQLPrepared</text>
<text text-anchor="middle" x="108" y="-62" font-family="Helvetica,sans-Serif" font-size="10.00">Statement</text>
<text text-anchor="start" x="19" y="-51" font-family="Helvetica,sans-Serif" font-size="10.00">||+ PostgreSQLPreparedStatement()</text>
<text text-anchor="start" x="19" y="-40" font-family="Helvetica,sans-Serif" font-size="10.00">+ ~PostgreSQLPreparedStatement()</text>
<text text-anchor="start" x="19" y="-29" font-family="Helvetica,sans-Serif" font-size="10.00">+ executeQuery()</text>
<text text-anchor="start" x="19" y="-18" font-family="Helvetica,sans-Serif" font-size="10.00">+ executeUpdate()</text>
<text text-anchor="middle" x="108" y="-7" font-family="Helvetica,sans-Serif" font-size="10.00">}</text>
</a>
</g>
</g>
<!-- Node2 -->
<g id="node2" class="node">
<title>Node2</title>
<g id="a_node2"><a xlink:href="classanch_1_1sql_1_1_prepared_statement.html" target="_top" xlink:title="SQL prepared statement.">
<polygon fill="white" stroke="#666666" points="191.5,-350 24.5,-350 24.5,-122 191.5,-122 191.5,-350"/>
<text text-anchor="middle" x="108" y="-338" font-family="Helvetica,sans-Serif" font-size="10.00">{anch::sql::PreparedStatement</text>
<text text-anchor="start" x="32.5" y="-327" font-family="Helvetica,sans-Serif" font-size="10.00">|# _nbPlaceholders</text>
<text text-anchor="start" x="32.5" y="-316" font-family="Helvetica,sans-Serif" font-size="10.00">|+ PreparedStatement()</text>
<text text-anchor="start" x="32.5" y="-305" font-family="Helvetica,sans-Serif" font-size="10.00">+ ~PreparedStatement()</text>
<text text-anchor="start" x="32.5" y="-294" font-family="Helvetica,sans-Serif" font-size="10.00">+ executeQuery()</text>
<text text-anchor="start" x="32.5" y="-283" font-family="Helvetica,sans-Serif" font-size="10.00">+ executeUpdate()</text>
<text text-anchor="start" x="32.5" y="-272" font-family="Helvetica,sans-Serif" font-size="10.00">+ set()</text>
<text text-anchor="start" x="32.5" y="-261" font-family="Helvetica,sans-Serif" font-size="10.00">+ set()</text>
<text text-anchor="start" x="32.5" y="-250" font-family="Helvetica,sans-Serif" font-size="10.00">+ set()</text>
<text text-anchor="start" x="32.5" y="-239" font-family="Helvetica,sans-Serif" font-size="10.00">+ set()</text>
<text text-anchor="start" x="32.5" y="-228" font-family="Helvetica,sans-Serif" font-size="10.00">+ set()</text>
<text text-anchor="start" x="32.5" y="-217" font-family="Helvetica,sans-Serif" font-size="10.00">+ set()</text>
<text text-anchor="start" x="32.5" y="-206" font-family="Helvetica,sans-Serif" font-size="10.00">+ set()</text>
<text text-anchor="start" x="32.5" y="-195" font-family="Helvetica,sans-Serif" font-size="10.00">+ set()</text>
<text text-anchor="start" x="32.5" y="-184" font-family="Helvetica,sans-Serif" font-size="10.00">+ set()</text>
<text text-anchor="start" x="32.5" y="-173" font-family="Helvetica,sans-Serif" font-size="10.00">+ set()</text>
<text text-anchor="start" x="32.5" y="-162" font-family="Helvetica,sans-Serif" font-size="10.00">+ set()</text>
<text text-anchor="start" x="32.5" y="-151" font-family="Helvetica,sans-Serif" font-size="10.00"># getPlaceholders()</text>
<text text-anchor="start" x="32.5" y="-140" font-family="Helvetica,sans-Serif" font-size="10.00"># checkIndex()</text>
<text text-anchor="middle" x="108" y="-129" font-family="Helvetica,sans-Serif" font-size="10.00">}</text>
</a>
</g>
</g>
<!-- Node2&#45;&gt;Node1 -->
<g id="edge1" class="edge">
<title>Node2&#45;&gt;Node1</title>
<path fill="none" stroke="#63b8ff" d="M108,-110.3C108,-101.46 108,-92.99 108,-85.21"/>
<polygon fill="none" stroke="#63b8ff" points="104.5,-110.15 108,-120.15 111.5,-110.15 104.5,-110.15"/>
</g>
<!-- Node3 -->
<g id="node3" class="node">
<title>Node3</title>
<g id="a_node3"><a xlink:title=" ">
<polygon fill="white" stroke="#666666" points="166.5,-449 49.5,-449 49.5,-397 166.5,-397 166.5,-449"/>
<text text-anchor="start" x="57.5" y="-437" font-family="Helvetica,sans-Serif" font-size="10.00">{std::map&lt; std::size</text>
<text text-anchor="middle" x="108" y="-426" font-family="Helvetica,sans-Serif" font-size="10.00">_t, std::string &gt;</text>
<text text-anchor="start" x="57.5" y="-415" font-family="Helvetica,sans-Serif" font-size="10.00">|+ keys</text>
<text text-anchor="middle" x="108" y="-404" font-family="Helvetica,sans-Serif" font-size="10.00">|}</text>
</a>
</g>
</g>
<!-- Node3&#45;&gt;Node2 -->
<g id="edge2" class="edge">
<title>Node3&#45;&gt;Node2</title>
<path fill="none" stroke="#404040" d="M108,-396.66C108,-387.16 108,-375.61 108,-363.12"/>
<polygon fill="none" stroke="#404040" points="108,-363.24 104,-357.24 108,-351.24 112,-357.24 108,-363.24"/>
<text text-anchor="middle" x="132.5" y="-371" font-family="Helvetica,sans-Serif" font-size="10.00"> #_values</text>
</g>
<!-- Node4 -->
<g id="node4" class="node">
<title>Node4</title>
<g id="a_node4"><a xlink:title=" ">
<polygon fill="white" stroke="#666666" points="90.5,-537 19.5,-537 19.5,-507 90.5,-507 90.5,-537"/>
<text text-anchor="middle" x="55" y="-525" font-family="Helvetica,sans-Serif" font-size="10.00">{std::string</text>
<text text-anchor="middle" x="55" y="-514" font-family="Helvetica,sans-Serif" font-size="10.00">||}</text>
</a>
</g>
</g>
<!-- Node4&#45;&gt;Node3 -->
<g id="edge3" class="edge">
<title>Node4&#45;&gt;Node3</title>
<path fill="none" stroke="#404040" d="M59,-506.73C62.43,-495.54 67.94,-479.78 75,-467 76.37,-464.52 77.87,-462.04 79.45,-459.57"/>
<polygon fill="none" stroke="#404040" points="79.41,-459.64 79.56,-452.43 86.27,-449.8 86.12,-457 79.41,-459.64"/>
<text text-anchor="middle" x="104" y="-475.5" font-family="Helvetica,sans-Serif" font-size="10.00"> +elements</text>
</g>
<!-- Node5 -->
<g id="node5" class="node">
<title>Node5</title>
<g id="a_node5"><a xlink:title=" ">
<polygon fill="white" stroke="#666666" points="110,-625 0,-625 0,-584 110,-584 110,-625"/>
<text text-anchor="start" x="8" y="-613" font-family="Helvetica,sans-Serif" font-size="10.00">{std::basic_string&lt;</text>
<text text-anchor="middle" x="55" y="-602" font-family="Helvetica,sans-Serif" font-size="10.00"> Char &gt;</text>
<text text-anchor="middle" x="55" y="-591" font-family="Helvetica,sans-Serif" font-size="10.00">||}</text>
</a>
</g>
</g>
<!-- Node5&#45;&gt;Node4 -->
<g id="edge4" class="edge">
<title>Node5&#45;&gt;Node4</title>
<path fill="none" stroke="#63b8ff" d="M55,-572.14C55,-560.14 55,-547.02 55,-537.37"/>
<polygon fill="none" stroke="#63b8ff" points="51.5,-572.09 55,-582.09 58.5,-572.09 51.5,-572.09"/>
</g>
<!-- Node6 -->
<g id="node6" class="node">
<title>Node6</title>
<g id="a_node6"><a xlink:title=" ">
<polygon fill="white" stroke="#666666" points="215.5,-537 108.5,-537 108.5,-507 215.5,-507 215.5,-537"/>
<text text-anchor="middle" x="162" y="-525" font-family="Helvetica,sans-Serif" font-size="10.00">{std::map&lt; K, T &gt;</text>
<text text-anchor="middle" x="162" y="-514" font-family="Helvetica,sans-Serif" font-size="10.00">||}</text>
</a>
</g>
</g>
<!-- Node6&#45;&gt;Node3 -->
<g id="edge5" class="edge">
<title>Node6&#45;&gt;Node3</title>
<path fill="none" stroke="orange" d="M149.11,-496.58C144.14,-487.28 138.37,-476.61 133,-467 129.8,-461.27 126.29,-455.15 122.95,-449.38"/>
<polygon fill="orange" stroke="orange" points="146,-498.19 153.79,-505.38 152.18,-494.91 146,-498.19"/>
<text text-anchor="start" x="145" y="-481" font-family="Helvetica,sans-Serif" font-size="10.00"> &lt; std::size_t, std</text>
<text text-anchor="middle" x="187.5" y="-470" font-family="Helvetica,sans-Serif" font-size="10.00">::string &gt;</text>
</g>
<!-- Node7 -->
<g id="node7" class="node">
<title>Node7</title>
<g id="a_node7"><a xlink:title=" ">
<polygon fill="white" stroke="#bfbfbf" points="166.5,-619.5 137.5,-619.5 137.5,-589.5 166.5,-589.5 166.5,-619.5"/>
<text text-anchor="middle" x="152" y="-607.5" font-family="Helvetica,sans-Serif" font-size="10.00">{K</text>
<text text-anchor="middle" x="152" y="-596.5" font-family="Helvetica,sans-Serif" font-size="10.00">||}</text>
</a>
</g>
</g>
<!-- Node7&#45;&gt;Node6 -->
<g id="edge6" class="edge">
<title>Node7&#45;&gt;Node6</title>
<path fill="none" stroke="#404040" d="M151.35,-589.41C151.14,-579.69 151.29,-566.5 153,-555 153.24,-553.36 153.54,-551.69 153.89,-550.01"/>
<polygon fill="none" stroke="#404040" points="153.89,-549.99 151.5,-543.18 156.86,-538.36 159.25,-545.16 153.89,-549.99"/>
<text text-anchor="middle" x="170" y="-558" font-family="Helvetica,sans-Serif" font-size="10.00"> +keys</text>
</g>
<!-- Node8 -->
<g id="node8" class="node">
<title>Node8</title>
<g id="a_node8"><a xlink:title=" ">
<polygon fill="white" stroke="#bfbfbf" points="223.5,-619.5 194.5,-619.5 194.5,-589.5 223.5,-589.5 223.5,-619.5"/>
<text text-anchor="middle" x="209" y="-607.5" font-family="Helvetica,sans-Serif" font-size="10.00">{T</text>
<text text-anchor="middle" x="209" y="-596.5" font-family="Helvetica,sans-Serif" font-size="10.00">||}</text>
</a>
</g>
</g>
<!-- Node8&#45;&gt;Node6 -->
<g id="edge7" class="edge">
<title>Node8&#45;&gt;Node6</title>
<path fill="none" stroke="#404040" d="M203.5,-589.04C199.49,-579.15 193.61,-565.91 187,-555 185.52,-552.55 183.87,-550.07 182.16,-547.64"/>
<polygon fill="none" stroke="#404040" points="182.24,-547.74 175.43,-545.37 175.01,-538.17 181.82,-540.55 182.24,-547.74"/>
<text text-anchor="middle" x="222" y="-558" font-family="Helvetica,sans-Serif" font-size="10.00"> +elements</text>
</g>
</g>
</svg>
        <g id="navigator" transform="translate(0 0)" fill="#404254">
                <rect fill="#f2f5e9" fill-opacity="0.5" stroke="#606060" stroke-width=".5" x="0" y="0" width="60" height="60"/>
                <use id="zoomplus" xlink:href="#zoomPlus" x="17" y="9" onmousedown="handleZoom(evt,'in')"/>
                <use id="zoomminus" xlink:href="#zoomMin" x="42" y="9" onmousedown="handleZoom(evt,'out')"/>
                <use id="reset" xlink:href="#resetDef" x="30" y="36" onmousedown="handleReset()"/>
                <g id="arrowUp" xlink:href="#dirArrow" transform="translate(30 24)" onmousedown="handlePan(0,-1)">
                  <use xlink:href="#rim" fill="#404040">
                        <set attributeName="fill" to="#808080" begin="arrowUp.mouseover" end="arrowUp.mouseout"/>
                  </use>
                  <path fill="none" stroke="white" stroke-width="1.5" d="M0,-3.0v7 M-2.5,-0.5L0,-3.0L2.5,-0.5"/>
                </g>
                <g id="arrowRight" xlink:href="#dirArrow" transform="rotate(90) translate(36 -43)" onmousedown="handlePan(1,0)">
                  <use xlink:href="#rim" fill="#404040">
                        <set attributeName="fill" to="#808080" begin="arrowRight.mouseover" end="arrowRight.mouseout"/>
                  </use>
                  <path fill="none" stroke="white" stroke-width="1.5" d="M0,-3.0v7 M-2.5,-0.5L0,-3.0L2.5,-0.5"/>
                </g>
                <g id="arrowDown" xlink:href="#dirArrow" transform="rotate(180) translate(-30 -48)" onmousedown="handlePan(0,1)">
                  <use xlink:href="#rim" fill="#404040">
                        <set attributeName="fill" to="#808080" begin="arrowDown.mouseover" end="arrowDown.mouseout"/>
                  </use>
                  <path fill="none" stroke="white" stroke-width="1.5" d="M0,-3.0v7 M-2.5,-0.5L0,-3.0L2.5,-0.5"/>
                </g>
                <g id="arrowLeft" xlink:href="#dirArrow" transform="rotate(270) translate(-36 17)" onmousedown="handlePan(-1,0)">
                  <use xlink:href="#rim" fill="#404040">
                        <set attributeName="fill" to="#808080" begin="arrowLeft.mouseover" end="arrowLeft.mouseout"/>
                  </use>
                  <path fill="none" stroke="white" stroke-width="1.5" d="M0,-3.0v7 M-2.5,-0.5L0,-3.0L2.5,-0.5"/>
                </g>
        </g>
        <svg viewBox="0 0 15 15" width="100%" height="30px" preserveAspectRatio="xMaxYMin meet">
         <g id="arrow_out" transform="scale(0.3 0.3)">
          <a xlink:href="classanch_1_1sql_1_1_postgre_s_q_l_prepared_statement__coll__graph_org.svg" target="_base">
           <rect id="button" ry="5" rx="5" y="6" x="6" height="38" width="38"
                fill="#f2f5e9" fill-opacity="0.5" stroke="#606060" stroke-width="1.0"/>
           <path id="arrow"
             d="M 11.500037,31.436501 C 11.940474,20.09759 22.043105,11.32322 32.158766,21.979434 L 37.068811,17.246167 C 37.068811,17.246167 37.088388,32 37.088388,32 L 22.160133,31.978069 C 22.160133,31.978069 26.997745,27.140456 26.997745,27.140456 C 18.528582,18.264221 13.291696,25.230495 11.500037,31.436501 z"
             style="fill:#404040;"/>
          </a>
         </g>
        </svg>
</svg>
