<?xml version="1.0" encoding="UTF-8" standalone="no"?>
<!DOCTYPE svg PUBLIC "-//W3C//DTD SVG 1.1//EN"
 "http://www.w3.org/Graphics/SVG/1.1/DTD/svg11.dtd">
<!-- Generated by graphviz version 12.1.2 (0)
 -->
<!-- Title: anch::cutils::CIStream Pages: 1 -->
<svg width="117pt" height="472pt"
 viewBox="0.00 0.00 117.00 472.00" xmlns="http://www.w3.org/2000/svg" xmlns:xlink="http://www.w3.org/1999/xlink">
<g id="graph0" class="graph" transform="scale(1 1) rotate(0) translate(4 468)">
<title>anch::cutils::CIStream</title>
<!-- Node1 -->
<g id="Node000001" class="node">
<title>Node1</title>
<g id="a_Node000001"><a xlink:title=" ">
<polygon fill="#999999" stroke="none" points="108.5,-100 0.5,-100 0.5,0 108.5,0 108.5,-100"/>
<text text-anchor="start" x="5.38" y="-86.5" font-family="Helvetica,sans-Serif" font-size="10.00">anch::cutils::CIStream</text>
<text text-anchor="start" x="53" y="-70.5" font-family="Helvetica,sans-Serif" font-size="10.00"> </text>
<text text-anchor="start" x="13.5" y="-54.5" font-family="Helvetica,sans-Serif" font-size="10.00">+</text>
<text text-anchor="start" x="32.5" y="-54.5" font-family="Helvetica,sans-Serif" font-size="10.00">CIStream()</text>
<text text-anchor="start" x="13.5" y="-38.5" font-family="Helvetica,sans-Serif" font-size="10.00">+</text>
<text text-anchor="start" x="32.5" y="-38.5" font-family="Helvetica,sans-Serif" font-size="10.00">~CIStream()</text>
<text text-anchor="start" x="13.88" y="-22.5" font-family="Helvetica,sans-Serif" font-size="10.00">#</text>
<text text-anchor="start" x="32.5" y="-22.5" font-family="Helvetica,sans-Serif" font-size="10.00">CIStream()</text>
<text text-anchor="start" x="13.88" y="-6.5" font-family="Helvetica,sans-Serif" font-size="10.00">#</text>
<text text-anchor="start" x="32.5" y="-6.5" font-family="Helvetica,sans-Serif" font-size="10.00">setBuffer()</text>
<polygon fill="#666666" stroke="#666666" points="0.5,-82 0.5,-82 108.5,-82 108.5,-82 0.5,-82"/>
<polygon fill="#666666" stroke="#666666" points="0.5,-66 0.5,-66 108.5,-66 108.5,-66 0.5,-66"/>
<polygon fill="none" stroke="#666666" points="0.5,0 0.5,-100 108.5,-100 108.5,0 0.5,0"/>
</a>
</g>
</g>
<!-- Node2 -->
<g id="Node000002" class="node">
<title>Node2</title>
<g id="a_Node000002"><a xlink:title=" ">
<polygon fill="white" stroke="none" points="85,-188 24,-188 24,-136 85,-136 85,-188"/>
<text text-anchor="start" x="28.62" y="-174.5" font-family="Helvetica,sans-Serif" font-size="10.00">std::istream</text>
<text text-anchor="start" x="53" y="-158.5" font-family="Helvetica,sans-Serif" font-size="10.00"> </text>
<text text-anchor="start" x="53" y="-142.5" font-family="Helvetica,sans-Serif" font-size="10.00"> </text>
<polygon fill="#666666" stroke="#666666" points="24,-170 24,-170 85,-170 85,-170 24,-170"/>
<polygon fill="#666666" stroke="#666666" points="24,-154 24,-154 85,-154 85,-154 24,-154"/>
<polygon fill="none" stroke="#666666" points="24,-136 24,-188 85,-188 85,-136 24,-136"/>
</a>
</g>
</g>
<!-- Node2&#45;&gt;Node1 -->
<g id="edge1_Node000001_Node000002" class="edge">
<title>Node2&#45;&gt;Node1</title>
<g id="a_edge1_Node000001_Node000002"><a xlink:title=" ">
<path fill="none" stroke="#63b8ff" d="M54.5,-124.53C54.5,-116.58 54.5,-108.05 54.5,-99.72"/>
<polygon fill="none" stroke="#63b8ff" points="51,-124.53 54.5,-134.53 58,-124.53 51,-124.53"/>
</a>
</g>
</g>
<!-- Node3 -->
<g id="Node000003" class="node">
<title>Node3</title>
<g id="a_Node000003"><a xlink:title=" ">
<polygon fill="white" stroke="none" points="99.5,-288 9.5,-288 9.5,-224 99.5,-224 99.5,-288"/>
<text text-anchor="start" x="14.38" y="-274.5" font-family="Helvetica,sans-Serif" font-size="10.00">std::basic_istream</text>
<text text-anchor="start" x="35" y="-262.5" font-family="Helvetica,sans-Serif" font-size="10.00">&lt; Char &gt;</text>
<text text-anchor="start" x="53" y="-246.5" font-family="Helvetica,sans-Serif" font-size="10.00"> </text>
<text text-anchor="start" x="53" y="-230.5" font-family="Helvetica,sans-Serif" font-size="10.00"> </text>
<polygon fill="#666666" stroke="#666666" points="9.5,-258 9.5,-258 99.5,-258 99.5,-258 9.5,-258"/>
<polygon fill="#666666" stroke="#666666" points="9.5,-242 9.5,-242 99.5,-242 99.5,-242 9.5,-242"/>
<polygon fill="none" stroke="#666666" points="9.5,-224 9.5,-288 99.5,-288 99.5,-224 9.5,-224"/>
</a>
</g>
</g>
<!-- Node3&#45;&gt;Node2 -->
<g id="edge2_Node000002_Node000003" class="edge">
<title>Node3&#45;&gt;Node2</title>
<g id="a_edge2_Node000002_Node000003"><a xlink:title=" ">
<path fill="none" stroke="#63b8ff" d="M54.5,-212.72C54.5,-204.21 54.5,-195.53 54.5,-187.86"/>
<polygon fill="none" stroke="#63b8ff" points="51,-212.6 54.5,-222.6 58,-212.6 51,-212.6"/>
</a>
</g>
</g>
<!-- Node4 -->
<g id="Node000004" class="node">
<title>Node4</title>
<g id="a_Node000004"><a xlink:title=" ">
<polygon fill="white" stroke="none" points="109,-376 0,-376 0,-324 109,-324 109,-376"/>
<text text-anchor="start" x="4.62" y="-362.5" font-family="Helvetica,sans-Serif" font-size="10.00">std::basic_ios&lt; Char &gt;</text>
<text text-anchor="start" x="53" y="-346.5" font-family="Helvetica,sans-Serif" font-size="10.00"> </text>
<text text-anchor="start" x="53" y="-330.5" font-family="Helvetica,sans-Serif" font-size="10.00"> </text>
<polygon fill="#666666" stroke="#666666" points="0,-358 0,-358 109,-358 109,-358 0,-358"/>
<polygon fill="#666666" stroke="#666666" points="0,-342 0,-342 109,-342 109,-342 0,-342"/>
<polygon fill="none" stroke="#666666" points="0,-324 0,-376 109,-376 109,-324 0,-324"/>
</a>
</g>
</g>
<!-- Node4&#45;&gt;Node3 -->
<g id="edge3_Node000003_Node000004" class="edge">
<title>Node4&#45;&gt;Node3</title>
<g id="a_edge3_Node000003_Node000004"><a xlink:title=" ">
<path fill="none" stroke="#63b8ff" d="M54.5,-313.06C54.5,-304.78 54.5,-296.04 54.5,-287.98"/>
<polygon fill="none" stroke="#63b8ff" points="51,-312.83 54.5,-322.83 58,-312.83 51,-312.83"/>
</a>
</g>
</g>
<!-- Node5 -->
<g id="Node000005" class="node">
<title>Node5</title>
<g id="a_Node000005"><a xlink:title=" ">
<polygon fill="white" stroke="none" points="88.5,-464 20.5,-464 20.5,-412 88.5,-412 88.5,-464"/>
<text text-anchor="start" x="25.25" y="-450.5" font-family="Helvetica,sans-Serif" font-size="10.00">std::ios_base</text>
<text text-anchor="start" x="53" y="-434.5" font-family="Helvetica,sans-Serif" font-size="10.00"> </text>
<text text-anchor="start" x="53" y="-418.5" font-family="Helvetica,sans-Serif" font-size="10.00"> </text>
<polygon fill="#666666" stroke="#666666" points="20.5,-446 20.5,-446 88.5,-446 88.5,-446 20.5,-446"/>
<polygon fill="#666666" stroke="#666666" points="20.5,-430 20.5,-430 88.5,-430 88.5,-430 20.5,-430"/>
<polygon fill="none" stroke="#666666" points="20.5,-412 20.5,-464 88.5,-464 88.5,-412 20.5,-412"/>
</a>
</g>
</g>
<!-- Node5&#45;&gt;Node4 -->
<g id="edge4_Node000004_Node000005" class="edge">
<title>Node5&#45;&gt;Node4</title>
<g id="a_edge4_Node000004_Node000005"><a xlink:title=" ">
<path fill="none" stroke="#63b8ff" d="M54.5,-400.66C54.5,-392.29 54.5,-383.57 54.5,-375.82"/>
<polygon fill="none" stroke="#63b8ff" points="51,-400.61 54.5,-410.61 58,-400.61 51,-400.61"/>
</a>
</g>
</g>
</g>
</svg>
