<?xml version="1.0" encoding="UTF-8" standalone="no"?>
<!DOCTYPE svg PUBLIC "-//W3C//DTD SVG 1.1//EN"
 "http://www.w3.org/Graphics/SVG/1.1/DTD/svg11.dtd">
<!-- Generated by graphviz version 13.1.2 (0)
 -->
<!-- Title: anch::cutils::COStream Pages: 1 -->
<!--zoomable 472 -->

<svg id="main" version="1.1" xmlns="http://www.w3.org/2000/svg" xmlns:xlink="http://www.w3.org/1999/xlink" xml:space="preserve" onload="init(evt)">

<style type="text/css"><![CDATA[
.node, .edge {opacity: 0.7;}
.node.selected, .edge.selected {opacity: 1;}
.edge:hover path { stroke: red; }
.edge:hover polygon { stroke: red; fill: red; }
]]></style>

<defs>
  <circle id="rim" cx="0" cy="0" r="7"/>
  <circle id="rim2" cx="0" cy="0" r="3.5"/>
  <g id="zoomPlus">
    <use xlink:href="#rim" fill="#404040"><set attributeName="fill" to="#808080" begin="zoomplus.mouseover" end="zoomplus.mouseout"/></use>
    <path d="M-4,0h8M0,-4v8" fill="none" stroke="white" stroke-width="1.5" pointer-events="none"/>
  </g>
  <g id="zoomMin">
    <use xlink:href="#rim" fill="#404040"><set attributeName="fill" to="#808080" begin="zoomminus.mouseover" end="zoomminus.mouseout"/></use>
    <path d="M-4,0h8" fill="none" stroke="white" stroke-width="1.5" pointer-events="none"/>
  </g>
  <g id="arrowUp" transform="translate(30 24)">
    <use xlink:href="#rim"/>
    <path pointer-events="none" fill="none" stroke="white" stroke-width="1.5" d="M0,-3.0v7 M-2.5,-0.5L0,-3.0L2.5,-0.5"/>
  </g>
  <g id="arrowRight" transform="rotate(90) translate(36 -43)">
    <use xlink:href="#rim"/>
    <path pointer-events="none" fill="none" stroke="white" stroke-width="1.5" d="M0,-3.0v7 M-2.5,-0.5L0,-3.0L2.5,-0.5"/>
  </g>
  <g id="arrowDown" transform="rotate(180) translate(-30 -48)">
    <use xlink:href="#rim"/>
    <path pointer-events="none" fill="none" stroke="white" stroke-width="1.5" d="M0,-3.0v7 M-2.5,-0.5L0,-3.0L2.5,-0.5"/>
  </g>
  <g id="arrowLeft" transform="rotate(270) translate(-36 17)">
    <use xlink:href="#rim"/>
    <path pointer-events="none" fill="none" stroke="white" stroke-width="1.5" d="M0,-3.0v7 M-2.5,-0.5L0,-3.0L2.5,-0.5"/>
  </g>
  <g id="resetDef">
    <use xlink:href="#rim2" fill="#404040"><set attributeName="fill" to="#808080" begin="reset.mouseover" end="reset.mouseout"/></use>
  </g>
</defs>
<script type="application/ecmascript">
var viewWidth = 119;
var viewHeight = 472;
var sectionId = 'dynsection-1';
</script>
<script type="application/ecmascript" xlink:href="svg.min.js"/>
<svg id="graph" class="graph">
<g id="viewport">
<title>anch::cutils::COStream</title>
<!-- Node1 -->
<g id="Node000001" class="node">
<title>Node1</title>
<g id="a_Node000001"><a xlink:title=" ">
<polygon fill="#999999" stroke="none" points="110.75,-100 0,-100 0,0 110.75,0 110.75,-100"/>
<text xml:space="preserve" text-anchor="start" x="4" y="-86.5" font-family="Helvetica,sans-Serif" font-size="10.00">anch::cutils::COStream</text>
<text xml:space="preserve" text-anchor="start" x="53.88" y="-70.5" font-family="Helvetica,sans-Serif" font-size="10.00"> </text>
<text xml:space="preserve" text-anchor="start" x="12.56" y="-54.5" font-family="Helvetica,sans-Serif" font-size="10.00">+</text>
<text xml:space="preserve" text-anchor="start" x="31.12" y="-54.5" font-family="Helvetica,sans-Serif" font-size="10.00">COStream()</text>
<text xml:space="preserve" text-anchor="start" x="12.56" y="-38.5" font-family="Helvetica,sans-Serif" font-size="10.00">+</text>
<text xml:space="preserve" text-anchor="start" x="31.12" y="-38.5" font-family="Helvetica,sans-Serif" font-size="10.00">~COStream()</text>
<text xml:space="preserve" text-anchor="start" x="12.94" y="-22.5" font-family="Helvetica,sans-Serif" font-size="10.00">#</text>
<text xml:space="preserve" text-anchor="start" x="31.12" y="-22.5" font-family="Helvetica,sans-Serif" font-size="10.00">COStream()</text>
<text xml:space="preserve" text-anchor="start" x="12.94" y="-6.5" font-family="Helvetica,sans-Serif" font-size="10.00">#</text>
<text xml:space="preserve" text-anchor="start" x="31.12" y="-6.5" font-family="Helvetica,sans-Serif" font-size="10.00">setBuffer()</text>
<polygon fill="#666666" stroke="#666666" points="0,-82 0,-82 110.75,-82 110.75,-82 0,-82"/>
<polygon fill="#666666" stroke="#666666" points="0,-66 0,-66 110.75,-66 110.75,-66 0,-66"/>
<polygon fill="none" stroke="#666666" points="0,0 0,-100 110.75,-100 110.75,0 0,0"/>
</a>
</g>
</g>
<!-- Node2 -->
<g id="Node000002" class="node">
<title>Node2</title>
<g id="a_Node000002"><a xlink:title=" ">
<polygon fill="white" stroke="none" points="86.75,-188 24,-188 24,-136 86.75,-136 86.75,-188"/>
<text xml:space="preserve" text-anchor="start" x="28" y="-174.5" font-family="Helvetica,sans-Serif" font-size="10.00">std::ostream</text>
<text xml:space="preserve" text-anchor="start" x="53.88" y="-158.5" font-family="Helvetica,sans-Serif" font-size="10.00"> </text>
<text xml:space="preserve" text-anchor="start" x="53.88" y="-142.5" font-family="Helvetica,sans-Serif" font-size="10.00"> </text>
<polygon fill="#666666" stroke="#666666" points="24,-170 24,-170 86.75,-170 86.75,-170 24,-170"/>
<polygon fill="#666666" stroke="#666666" points="24,-154 24,-154 86.75,-154 86.75,-154 24,-154"/>
<polygon fill="none" stroke="#666666" points="24,-136 24,-188 86.75,-188 86.75,-136 24,-136"/>
</a>
</g>
</g>
<!-- Node2&#45;&gt;Node1 -->
<g id="edge1_Node000001_Node000002" class="edge">
<title>Node2&#45;&gt;Node1</title>
<g id="a_edge1_Node000001_Node000002"><a xlink:title=" ">
<path fill="none" stroke="#63b8ff" d="M55.38,-124.53C55.38,-116.58 55.38,-108.05 55.38,-99.72"/>
<polygon fill="none" stroke="#63b8ff" points="51.88,-124.53 55.38,-134.53 58.88,-124.53 51.88,-124.53"/>
</a>
</g>
</g>
<!-- Node3 -->
<g id="Node000003" class="node">
<title>Node3</title>
<g id="a_Node000003"><a xlink:title=" ">
<polygon fill="white" stroke="none" points="101,-288 9.75,-288 9.75,-224 101,-224 101,-288"/>
<text xml:space="preserve" text-anchor="start" x="13.75" y="-274.5" font-family="Helvetica,sans-Serif" font-size="10.00">std::basic_ostream</text>
<text xml:space="preserve" text-anchor="start" x="35.88" y="-262.5" font-family="Helvetica,sans-Serif" font-size="10.00">&lt; Char &gt;</text>
<text xml:space="preserve" text-anchor="start" x="53.88" y="-246.5" font-family="Helvetica,sans-Serif" font-size="10.00"> </text>
<text xml:space="preserve" text-anchor="start" x="53.88" y="-230.5" font-family="Helvetica,sans-Serif" font-size="10.00"> </text>
<polygon fill="#666666" stroke="#666666" points="9.75,-258 9.75,-258 101,-258 101,-258 9.75,-258"/>
<polygon fill="#666666" stroke="#666666" points="9.75,-242 9.75,-242 101,-242 101,-242 9.75,-242"/>
<polygon fill="none" stroke="#666666" points="9.75,-224 9.75,-288 101,-288 101,-224 9.75,-224"/>
</a>
</g>
</g>
<!-- Node3&#45;&gt;Node2 -->
<g id="edge2_Node000002_Node000003" class="edge">
<title>Node3&#45;&gt;Node2</title>
<g id="a_edge2_Node000002_Node000003"><a xlink:title=" ">
<path fill="none" stroke="#63b8ff" d="M55.38,-212.72C55.38,-204.21 55.38,-195.53 55.38,-187.86"/>
<polygon fill="none" stroke="#63b8ff" points="51.88,-212.6 55.38,-222.6 58.88,-212.6 51.88,-212.6"/>
</a>
</g>
</g>
<!-- Node4 -->
<g id="Node000004" class="node">
<title>Node4</title>
<g id="a_Node000004"><a xlink:title=" ">
<polygon fill="white" stroke="none" points="109.25,-376 1.5,-376 1.5,-324 109.25,-324 109.25,-376"/>
<text xml:space="preserve" text-anchor="start" x="5.5" y="-362.5" font-family="Helvetica,sans-Serif" font-size="10.00">std::basic_ios&lt; Char &gt;</text>
<text xml:space="preserve" text-anchor="start" x="53.88" y="-346.5" font-family="Helvetica,sans-Serif" font-size="10.00"> </text>
<text xml:space="preserve" text-anchor="start" x="53.88" y="-330.5" font-family="Helvetica,sans-Serif" font-size="10.00"> </text>
<polygon fill="#666666" stroke="#666666" points="1.5,-358 1.5,-358 109.25,-358 109.25,-358 1.5,-358"/>
<polygon fill="#666666" stroke="#666666" points="1.5,-342 1.5,-342 109.25,-342 109.25,-342 1.5,-342"/>
<polygon fill="none" stroke="#666666" points="1.5,-324 1.5,-376 109.25,-376 109.25,-324 1.5,-324"/>
</a>
</g>
</g>
<!-- Node4&#45;&gt;Node3 -->
<g id="edge3_Node000003_Node000004" class="edge">
<title>Node4&#45;&gt;Node3</title>
<g id="a_edge3_Node000003_Node000004"><a xlink:title=" ">
<path fill="none" stroke="#63b8ff" d="M55.38,-313.06C55.38,-304.78 55.38,-296.04 55.38,-287.98"/>
<polygon fill="none" stroke="#63b8ff" points="51.88,-312.83 55.38,-322.83 58.88,-312.83 51.88,-312.83"/>
</a>
</g>
</g>
<!-- Node5 -->
<g id="Node000005" class="node">
<title>Node5</title>
<g id="a_Node000005"><a xlink:title=" ">
<polygon fill="white" stroke="none" points="88.62,-464 22.12,-464 22.12,-412 88.62,-412 88.62,-464"/>
<text xml:space="preserve" text-anchor="start" x="26.12" y="-450.5" font-family="Helvetica,sans-Serif" font-size="10.00">std::ios_base</text>
<text xml:space="preserve" text-anchor="start" x="53.88" y="-434.5" font-family="Helvetica,sans-Serif" font-size="10.00"> </text>
<text xml:space="preserve" text-anchor="start" x="53.88" y="-418.5" font-family="Helvetica,sans-Serif" font-size="10.00"> </text>
<polygon fill="#666666" stroke="#666666" points="22.12,-446 22.12,-446 88.62,-446 88.62,-446 22.12,-446"/>
<polygon fill="#666666" stroke="#666666" points="22.12,-430 22.12,-430 88.62,-430 88.62,-430 22.12,-430"/>
<polygon fill="none" stroke="#666666" points="22.12,-412 22.12,-464 88.62,-464 88.62,-412 22.12,-412"/>
</a>
</g>
</g>
<!-- Node5&#45;&gt;Node4 -->
<g id="edge4_Node000004_Node000005" class="edge">
<title>Node5&#45;&gt;Node4</title>
<g id="a_edge4_Node000004_Node000005"><a xlink:title=" ">
<path fill="none" stroke="#63b8ff" d="M55.38,-400.66C55.38,-392.29 55.38,-383.57 55.38,-375.82"/>
<polygon fill="none" stroke="#63b8ff" points="51.88,-400.61 55.38,-410.61 58.88,-400.61 51.88,-400.61"/>
</a>
</g>
</g>
</g>
</svg>

<g id="navigator" transform="translate(0 0)" fill="#404254">
  <rect fill="#f2f5e9" fill-opacity="0.5" stroke="#606060" stroke-width=".5" x="0" y="0" width="60" height="60"/>
  <use id="zoomplus" xlink:href="#zoomPlus" x="17" y="9" onmousedown="handleZoom(evt,'in')"/>
  <use id="zoomminus" xlink:href="#zoomMin" x="42" y="9" onmousedown="handleZoom(evt,'out')"/>
  <use id="reset" xlink:href="#resetDef" x="30" y="36" onmousedown="handleReset()"/>
   <use id="arrowup" xlink:href="#arrowUp" x="0" y="0" onmousedown="handlePan(0,-1)"/>
  <use id="arrowright" xlink:href="#arrowRight" x="0" y="0" onmousedown="handlePan(1,0)"/>
  <use id="arrowdown" xlink:href="#arrowDown" x="0" y="0" onmousedown="handlePan(0,1)"/>
  <use id="arrowleft" xlink:href="#arrowLeft" x="0" y="0" onmousedown="handlePan(-1,0)"/>
</g>
<svg viewBox="0 0 15 15" width="100%" height="30px" preserveAspectRatio="xMaxYMin meet">
 <g id="arrow_out" transform="scale(0.3 0.3)">
  <a xlink:href="classanch_1_1cutils_1_1_c_o_stream__coll__graph_org.svg" target="_base">
   <rect id="button" ry="5" rx="5" y="6" x="6" height="38" width="38"
        fill="#f2f5e9" fill-opacity="0.5" stroke="#606060" stroke-width="1.0"/>
   <path id="arrow"
     d="M 11.500037,31.436501 C 11.940474,20.09759 22.043105,11.32322 32.158766,21.979434 L 37.068811,17.246167 C 37.068811,17.246167 37.088388,32 37.088388,32 L 22.160133,31.978069 C 22.160133,31.978069 26.997745,27.140456 26.997745,27.140456 C 18.528582,18.264221 13.291696,25.230495 11.500037,31.436501 z"
     style="fill:#404040;"/>
  </a>
 </g>
</svg>

<style type='text/css'>
<![CDATA[
[data-mouse-over-selected='false'] { opacity: 0.7; }
[data-mouse-over-selected='true']  { opacity: 1.0; }
]]>
</style>
<script type="application/ecmascript"><![CDATA[
document.addEventListener('DOMContentLoaded', (event) => {
  highlightEdges();
  highlightAdjacentNodes();
});
]]></script>
</svg>
