<?xml version="1.0" encoding="UTF-8" standalone="no"?>
<!DOCTYPE svg PUBLIC "-//W3C//DTD SVG 1.1//EN"
 "http://www.w3.org/Graphics/SVG/1.1/DTD/svg11.dtd">
<!-- Generated by graphviz version 14.1.3 (0)
 -->
<!-- Title: anch::conf::Resolvers Pages: 1 -->
<svg width="233pt" height="380pt"
 viewBox="0.00 0.00 233.00 380.00" xmlns="http://www.w3.org/2000/svg" xmlns:xlink="http://www.w3.org/1999/xlink">
<g id="graph0" class="graph" transform="scale(1 1) rotate(0) translate(4 376)">
<title>anch::conf::Resolvers</title>
<!-- Node1 -->
<g id="Node000001" class="node">
<title>Node1</title>
<g id="a_Node000001"><a xlink:title="Value resolvers&#39; registry.">
<polygon fill="#999999" stroke="none" points="176.88,-116 72.88,-116 72.88,0 176.88,0 176.88,-116"/>
<text xml:space="preserve" text-anchor="start" x="76.88" y="-102.25" font-family="Helvetica,sans-Serif" font-size="10.00">anch::conf::Resolvers</text>
<text xml:space="preserve" text-anchor="start" x="123.38" y="-86.25" font-family="Helvetica,sans-Serif" font-size="10.00"> </text>
<text xml:space="preserve" text-anchor="start" x="79.06" y="-70.25" font-family="Helvetica,sans-Serif" font-size="10.00">+</text>
<text xml:space="preserve" text-anchor="start" x="91.25" y="-70.25" font-family="Helvetica,sans-Serif" font-size="10.00">Resolvers()</text>
<text xml:space="preserve" text-anchor="start" x="79.06" y="-54.25" font-family="Helvetica,sans-Serif" font-size="10.00">+</text>
<text xml:space="preserve" text-anchor="start" x="91.25" y="-54.25" font-family="Helvetica,sans-Serif" font-size="10.00">Resolvers()</text>
<text xml:space="preserve" text-anchor="start" x="79.06" y="-38.25" font-family="Helvetica,sans-Serif" font-size="10.00">+</text>
<text xml:space="preserve" text-anchor="start" x="91.25" y="-38.25" font-family="Helvetica,sans-Serif" font-size="10.00">registerResolver()</text>
<text xml:space="preserve" text-anchor="start" x="79.06" y="-22.25" font-family="Helvetica,sans-Serif" font-size="10.00">+</text>
<text xml:space="preserve" text-anchor="start" x="91.25" y="-22.25" font-family="Helvetica,sans-Serif" font-size="10.00">getResolver()</text>
<text xml:space="preserve" text-anchor="start" x="79.06" y="-6.25" font-family="Helvetica,sans-Serif" font-size="10.00">+</text>
<text xml:space="preserve" text-anchor="start" x="91.25" y="-6.25" font-family="Helvetica,sans-Serif" font-size="10.00">hasResolver()</text>
<polygon fill="#666666" stroke="#666666" points="72.88,-98 72.88,-98 176.88,-98 176.88,-98 72.88,-98"/>
<polygon fill="#666666" stroke="#666666" points="72.88,-82 72.88,-82 176.88,-82 176.88,-82 72.88,-82"/>
<polygon fill="none" stroke="#666666" points="72.88,0 72.88,-116 176.88,-116 176.88,0 72.88,0"/>
</a>
</g>
</g>
<!-- Node2 -->
<g id="Node000002" class="node">
<title>Node2</title>
<g id="a_Node000002"><a xlink:href="classanch_1_1_singleton.html" target="_top" xlink:title=" ">
<polygon fill="white" stroke="none" points="137.75,-254 0,-254 0,-202 137.75,-202 137.75,-254"/>
<text xml:space="preserve" text-anchor="start" x="4" y="-240.25" font-family="Helvetica,sans-Serif" font-size="10.00">anch::Singleton&lt; Resolvers &gt;</text>
<text xml:space="preserve" text-anchor="start" x="67.38" y="-224.25" font-family="Helvetica,sans-Serif" font-size="10.00"> </text>
<text xml:space="preserve" text-anchor="start" x="19.69" y="-208.25" font-family="Helvetica,sans-Serif" font-size="10.00">+</text>
<text xml:space="preserve" text-anchor="start" x="45.38" y="-208.25" font-family="Helvetica,sans-Serif" font-size="10.00">getInstance()</text>
<polygon fill="#666666" stroke="#666666" points="0,-236 0,-236 137.75,-236 137.75,-236 0,-236"/>
<polygon fill="#666666" stroke="#666666" points="0,-220 0,-220 137.75,-220 137.75,-220 0,-220"/>
<polygon fill="none" stroke="#666666" points="0,-202 0,-254 137.75,-254 137.75,-202 0,-202"/>
</a>
</g>
</g>
<!-- Node2&#45;&gt;Node1 -->
<g id="edge1_Node000001_Node000002" class="edge">
<title>Node2&#45;&gt;Node1</title>
<g id="a_edge1_Node000001_Node000002"><a xlink:title=" ">
<path fill="none" stroke="#63b8ff" d="M80.74,-191.41C88.04,-169.5 97.57,-140.91 105.91,-115.91"/>
<polygon fill="none" stroke="#63b8ff" points="77.46,-190.18 77.62,-200.78 84.1,-192.4 77.46,-190.18"/>
</a>
</g>
</g>
<!-- Node3 -->
<g id="Node000003" class="node">
<title>Node3</title>
<g id="a_Node000003"><a xlink:href="classanch_1_1_singleton.html" target="_top" xlink:title="Meyers&#39; singleton implementation.">
<polygon fill="white" stroke="none" points="118.25,-366 19.5,-366 19.5,-314 118.25,-314 118.25,-366"/>
<text xml:space="preserve" text-anchor="start" x="23.5" y="-352.25" font-family="Helvetica,sans-Serif" font-size="10.00">anch::Singleton&lt; T &gt;</text>
<text xml:space="preserve" text-anchor="start" x="67.38" y="-336.25" font-family="Helvetica,sans-Serif" font-size="10.00"> </text>
<text xml:space="preserve" text-anchor="start" x="29.44" y="-320.25" font-family="Helvetica,sans-Serif" font-size="10.00">+</text>
<text xml:space="preserve" text-anchor="start" x="45.38" y="-320.25" font-family="Helvetica,sans-Serif" font-size="10.00">getInstance()</text>
<polygon fill="#666666" stroke="#666666" points="19.5,-348 19.5,-348 118.25,-348 118.25,-348 19.5,-348"/>
<polygon fill="#666666" stroke="#666666" points="19.5,-332 19.5,-332 118.25,-332 118.25,-332 19.5,-332"/>
<polygon fill="none" stroke="#666666" points="19.5,-314 19.5,-366 118.25,-366 118.25,-314 19.5,-314"/>
</a>
</g>
</g>
<!-- Node3&#45;&gt;Node2 -->
<g id="edge2_Node000002_Node000003" class="edge">
<title>Node3&#45;&gt;Node2</title>
<g id="a_edge2_Node000002_Node000003"><a xlink:title=" ">
<path fill="none" stroke="orange" d="M68.88,-302.87C68.88,-286.82 68.88,-268.33 68.88,-253.86"/>
<polygon fill="orange" stroke="orange" points="65.38,-302.53 68.88,-312.53 72.38,-302.53 65.38,-302.53"/>
</a>
</g>
<text xml:space="preserve" text-anchor="start" x="71.88" y="-277.25" font-family="Helvetica,sans-Serif" font-size="10.00" fill="grey">&lt; Resolvers &gt;</text>
</g>
<!-- Node4 -->
<g id="Node000004" class="node">
<title>Node4</title>
<g id="a_Node000004"><a xlink:title=" ">
<polygon fill="white" stroke="none" points="207.62,-254 156.12,-254 156.12,-202 207.62,-202 207.62,-254"/>
<text xml:space="preserve" text-anchor="start" x="160.12" y="-240.25" font-family="Helvetica,sans-Serif" font-size="10.00">std::string</text>
<text xml:space="preserve" text-anchor="start" x="180.38" y="-224.25" font-family="Helvetica,sans-Serif" font-size="10.00"> </text>
<text xml:space="preserve" text-anchor="start" x="180.38" y="-208.25" font-family="Helvetica,sans-Serif" font-size="10.00"> </text>
<polygon fill="#666666" stroke="#666666" points="156.12,-236 156.12,-236 207.62,-236 207.62,-236 156.12,-236"/>
<polygon fill="#666666" stroke="#666666" points="156.12,-220 156.12,-220 207.62,-220 207.62,-220 156.12,-220"/>
<polygon fill="none" stroke="#666666" points="156.12,-202 156.12,-254 207.62,-254 207.62,-202 156.12,-202"/>
</a>
</g>
</g>
<!-- Node4&#45;&gt;Node1 -->
<g id="edge3_Node000001_Node000004" class="edge">
<title>Node4&#45;&gt;Node1</title>
<g id="a_edge3_Node000001_Node000004"><a xlink:title=" ">
<path fill="none" stroke="#63b8ff" d="M173.46,-202.21C166.83,-182.67 157.25,-154.43 148.35,-128.18"/>
<polygon fill="none" stroke="#63b8ff" points="148.33,-128.12 142.61,-123.73 144.47,-116.76 150.19,-121.16 148.33,-128.12"/>
</a>
</g>
<text xml:space="preserve" text-anchor="start" x="169.59" y="-171.25" font-family="Helvetica,sans-Serif" font-size="10.00" fill="grey">+ARG</text>
<text xml:space="preserve" text-anchor="start" x="169.59" y="-155.25" font-family="Helvetica,sans-Serif" font-size="10.00" fill="grey">+CONF</text>
<text xml:space="preserve" text-anchor="start" x="169.59" y="-139.25" font-family="Helvetica,sans-Serif" font-size="10.00" fill="grey">+ENV</text>
</g>
<!-- Node5 -->
<g id="Node000005" class="node">
<title>Node5</title>
<g id="a_Node000005"><a xlink:title=" ">
<polygon fill="white" stroke="none" points="224.88,-372 138.88,-372 138.88,-308 224.88,-308 224.88,-372"/>
<text xml:space="preserve" text-anchor="start" x="142.88" y="-358.25" font-family="Helvetica,sans-Serif" font-size="10.00">std::basic_string&lt;</text>
<text xml:space="preserve" text-anchor="start" x="165.38" y="-346.25" font-family="Helvetica,sans-Serif" font-size="10.00"> Char &gt;</text>
<text xml:space="preserve" text-anchor="start" x="180.38" y="-330.25" font-family="Helvetica,sans-Serif" font-size="10.00"> </text>
<text xml:space="preserve" text-anchor="start" x="180.38" y="-314.25" font-family="Helvetica,sans-Serif" font-size="10.00"> </text>
<polygon fill="#666666" stroke="#666666" points="138.88,-342 138.88,-342 224.88,-342 224.88,-342 138.88,-342"/>
<polygon fill="#666666" stroke="#666666" points="138.88,-326 138.88,-326 224.88,-326 224.88,-326 138.88,-326"/>
<polygon fill="none" stroke="#666666" points="138.88,-308 138.88,-372 224.88,-372 224.88,-308 138.88,-308"/>
</a>
</g>
</g>
<!-- Node5&#45;&gt;Node4 -->
<g id="edge4_Node000004_Node000005" class="edge">
<title>Node5&#45;&gt;Node4</title>
<g id="a_edge4_Node000004_Node000005"><a xlink:title=" ">
<path fill="none" stroke="#63b8ff" d="M181.88,-296.77C181.88,-282.25 181.88,-266.47 181.88,-253.79"/>
<polygon fill="none" stroke="#63b8ff" points="178.38,-296.55 181.88,-306.55 185.38,-296.55 178.38,-296.55"/>
</a>
</g>
</g>
</g>
</svg>
