<?xml version="1.0" encoding="UTF-8" standalone="no"?>
<!DOCTYPE svg PUBLIC "-//W3C//DTD SVG 1.1//EN"
 "http://www.w3.org/Graphics/SVG/1.1/DTD/svg11.dtd">
<!-- Generated by graphviz version 12.2.1 (0)
 -->
<!-- Title: anch::crypto::BlockCipher&lt; B &gt; Pages: 1 -->
<svg width="341pt" height="657pt"
 viewBox="0.00 0.00 341.25 657.00" xmlns="http://www.w3.org/2000/svg" xmlns:xlink="http://www.w3.org/1999/xlink">
<g id="graph0" class="graph" transform="scale(1 1) rotate(0) translate(4 653)">
<title>anch::crypto::BlockCipher&lt; B &gt;</title>
<!-- Node1 -->
<g id="Node000001" class="node">
<title>Node1</title>
<g id="a_Node000001"><a xlink:title="Block cipher interface.">
<polygon fill="#999999" stroke="none" points="195.12,-649 49.12,-649 49.12,-565 195.12,-565 195.12,-649"/>
<text text-anchor="start" x="53.12" y="-635.5" font-family="Helvetica,sans-Serif" font-size="10.00">anch::crypto::BlockCipher&lt; B &gt;</text>
<text text-anchor="start" x="120.62" y="-619.5" font-family="Helvetica,sans-Serif" font-size="10.00"> </text>
<text text-anchor="start" x="69.19" y="-603.5" font-family="Helvetica,sans-Serif" font-size="10.00">+</text>
<text text-anchor="start" x="95.25" y="-603.5" font-family="Helvetica,sans-Serif" font-size="10.00">cipher()</text>
<text text-anchor="start" x="69.19" y="-587.5" font-family="Helvetica,sans-Serif" font-size="10.00">+</text>
<text text-anchor="start" x="95.25" y="-587.5" font-family="Helvetica,sans-Serif" font-size="10.00">decipher()</text>
<text text-anchor="start" x="69.19" y="-571.5" font-family="Helvetica,sans-Serif" font-size="10.00">+</text>
<text text-anchor="start" x="95.25" y="-571.5" font-family="Helvetica,sans-Serif" font-size="10.00">getBlockSize()</text>
<polygon fill="#666666" stroke="#666666" points="49.12,-631 49.12,-631 195.12,-631 195.12,-631 49.12,-631"/>
<polygon fill="#666666" stroke="#666666" points="49.12,-615 49.12,-615 195.12,-615 195.12,-615 49.12,-615"/>
<polygon fill="none" stroke="#666666" points="49.12,-565 49.12,-649 195.12,-649 195.12,-565 49.12,-565"/>
</a>
</g>
</g>
<!-- Node2 -->
<g id="Node000002" class="node">
<title>Node2</title>
<g id="a_Node000002"><a xlink:href="classanch_1_1crypto_1_1_block_cipher.html" target="_top" xlink:title=" ">
<polygon fill="white" stroke="none" points="182.75,-517 61.5,-517 61.5,-421 182.75,-421 182.75,-517"/>
<text text-anchor="start" x="65.5" y="-503.5" font-family="Helvetica,sans-Serif" font-size="10.00">anch::crypto::BlockCipher</text>
<text text-anchor="start" x="107.88" y="-491.5" font-family="Helvetica,sans-Serif" font-size="10.00">&lt; 16 &gt;</text>
<text text-anchor="start" x="120.62" y="-475.5" font-family="Helvetica,sans-Serif" font-size="10.00"> </text>
<text text-anchor="start" x="75.38" y="-459.5" font-family="Helvetica,sans-Serif" font-size="10.00">+</text>
<text text-anchor="start" x="95.25" y="-459.5" font-family="Helvetica,sans-Serif" font-size="10.00">cipher()</text>
<text text-anchor="start" x="75.38" y="-443.5" font-family="Helvetica,sans-Serif" font-size="10.00">+</text>
<text text-anchor="start" x="95.25" y="-443.5" font-family="Helvetica,sans-Serif" font-size="10.00">decipher()</text>
<text text-anchor="start" x="75.38" y="-427.5" font-family="Helvetica,sans-Serif" font-size="10.00">+</text>
<text text-anchor="start" x="95.25" y="-427.5" font-family="Helvetica,sans-Serif" font-size="10.00">getBlockSize()</text>
<polygon fill="#666666" stroke="#666666" points="61.5,-487 61.5,-487 182.75,-487 182.75,-487 61.5,-487"/>
<polygon fill="#666666" stroke="#666666" points="61.5,-471 61.5,-471 182.75,-471 182.75,-471 61.5,-471"/>
<polygon fill="none" stroke="#666666" points="61.5,-421 61.5,-517 182.75,-517 182.75,-421 61.5,-421"/>
</a>
</g>
</g>
<!-- Node1&#45;&gt;Node2 -->
<g id="edge1_Node000001_Node000002" class="edge">
<title>Node1&#45;&gt;Node2</title>
<g id="a_edge1_Node000001_Node000002"><a xlink:title=" ">
<path fill="none" stroke="orange" d="M122.12,-553.84C122.12,-541.71 122.12,-528.87 122.12,-516.98"/>
<polygon fill="orange" stroke="orange" points="118.63,-553.68 122.13,-563.68 125.63,-553.68 118.63,-553.68"/>
</a>
</g>
<text text-anchor="middle" x="137.88" y="-537.5" font-family="Helvetica,sans-Serif" font-size="10.00" fill="grey"> &lt; 16 &gt;</text>
</g>
<!-- Node3 -->
<g id="Node000003" class="node">
<title>Node3</title>
<g id="a_Node000003"><a xlink:href="classanch_1_1crypto_1_1_a_e_s.html" target="_top" xlink:title=" ">
<polygon fill="white" stroke="none" points="94.25,-208 0,-208 0,0 94.25,0 94.25,-208"/>
<text text-anchor="start" x="4" y="-194.5" font-family="Helvetica,sans-Serif" font-size="10.00">anch::crypto::AES&lt;</text>
<text text-anchor="start" x="30.25" y="-182.5" font-family="Helvetica,sans-Serif" font-size="10.00"> 4, 10 &gt;</text>
<text text-anchor="start" x="45.62" y="-166.5" font-family="Helvetica,sans-Serif" font-size="10.00"> </text>
<text text-anchor="start" x="12.38" y="-150.5" font-family="Helvetica,sans-Serif" font-size="10.00">+</text>
<text text-anchor="start" x="30.75" y="-150.5" font-family="Helvetica,sans-Serif" font-size="10.00">AES()</text>
<text text-anchor="start" x="12.38" y="-134.5" font-family="Helvetica,sans-Serif" font-size="10.00">+</text>
<text text-anchor="start" x="30.75" y="-134.5" font-family="Helvetica,sans-Serif" font-size="10.00">AES()</text>
<text text-anchor="start" x="12.38" y="-118.5" font-family="Helvetica,sans-Serif" font-size="10.00">+</text>
<text text-anchor="start" x="30.75" y="-118.5" font-family="Helvetica,sans-Serif" font-size="10.00">~AES()</text>
<text text-anchor="start" x="12.38" y="-102.5" font-family="Helvetica,sans-Serif" font-size="10.00">+</text>
<text text-anchor="start" x="30.75" y="-102.5" font-family="Helvetica,sans-Serif" font-size="10.00">cipher()</text>
<text text-anchor="start" x="12.38" y="-86.5" font-family="Helvetica,sans-Serif" font-size="10.00">+</text>
<text text-anchor="start" x="30.75" y="-86.5" font-family="Helvetica,sans-Serif" font-size="10.00">decipher()</text>
<text text-anchor="start" x="12.38" y="-70.5" font-family="Helvetica,sans-Serif" font-size="10.00">+</text>
<text text-anchor="start" x="30.75" y="-70.5" font-family="Helvetica,sans-Serif" font-size="10.00">AES()</text>
<text text-anchor="start" x="12.38" y="-54.5" font-family="Helvetica,sans-Serif" font-size="10.00">+</text>
<text text-anchor="start" x="30.75" y="-54.5" font-family="Helvetica,sans-Serif" font-size="10.00">AES()</text>
<text text-anchor="start" x="12.38" y="-38.5" font-family="Helvetica,sans-Serif" font-size="10.00">+</text>
<text text-anchor="start" x="30.75" y="-38.5" font-family="Helvetica,sans-Serif" font-size="10.00">~AES()</text>
<text text-anchor="start" x="12.38" y="-22.5" font-family="Helvetica,sans-Serif" font-size="10.00">+</text>
<text text-anchor="start" x="30.75" y="-22.5" font-family="Helvetica,sans-Serif" font-size="10.00">cipher()</text>
<text text-anchor="start" x="12.38" y="-6.5" font-family="Helvetica,sans-Serif" font-size="10.00">+</text>
<text text-anchor="start" x="30.75" y="-6.5" font-family="Helvetica,sans-Serif" font-size="10.00">decipher()</text>
<polygon fill="#666666" stroke="#666666" points="0,-178 0,-178 94.25,-178 94.25,-178 0,-178"/>
<polygon fill="#666666" stroke="#666666" points="0,-162 0,-162 94.25,-162 94.25,-162 0,-162"/>
<polygon fill="none" stroke="#666666" points="0,0 0,-208 94.25,-208 94.25,0 0,0"/>
</a>
</g>
</g>
<!-- Node2&#45;&gt;Node3 -->
<g id="edge2_Node000002_Node000003" class="edge">
<title>Node2&#45;&gt;Node3</title>
<g id="a_edge2_Node000002_Node000003"><a xlink:title=" ">
<path fill="none" stroke="#63b8ff" d="M100.9,-410.68C98.04,-401.82 95.33,-392.72 93.12,-384 78.55,-326.42 67.48,-260.94 59.85,-207.89"/>
<polygon fill="none" stroke="#63b8ff" points="97.49,-411.51 103.97,-419.9 104.13,-409.3 97.49,-411.51"/>
</a>
</g>
</g>
<!-- Node4 -->
<g id="Node000004" class="node">
<title>Node4</title>
<g id="a_Node000004"><a xlink:href="classanch_1_1crypto_1_1_a_e_s.html" target="_top" xlink:title=" ">
<polygon fill="white" stroke="none" points="333.25,-208 239,-208 239,0 333.25,0 333.25,-208"/>
<text text-anchor="start" x="243" y="-194.5" font-family="Helvetica,sans-Serif" font-size="10.00">anch::crypto::AES&lt;</text>
<text text-anchor="start" x="269.25" y="-182.5" font-family="Helvetica,sans-Serif" font-size="10.00"> 6, 12 &gt;</text>
<text text-anchor="start" x="284.62" y="-166.5" font-family="Helvetica,sans-Serif" font-size="10.00"> </text>
<text text-anchor="start" x="251.38" y="-150.5" font-family="Helvetica,sans-Serif" font-size="10.00">+</text>
<text text-anchor="start" x="269.75" y="-150.5" font-family="Helvetica,sans-Serif" font-size="10.00">AES()</text>
<text text-anchor="start" x="251.38" y="-134.5" font-family="Helvetica,sans-Serif" font-size="10.00">+</text>
<text text-anchor="start" x="269.75" y="-134.5" font-family="Helvetica,sans-Serif" font-size="10.00">AES()</text>
<text text-anchor="start" x="251.38" y="-118.5" font-family="Helvetica,sans-Serif" font-size="10.00">+</text>
<text text-anchor="start" x="269.75" y="-118.5" font-family="Helvetica,sans-Serif" font-size="10.00">~AES()</text>
<text text-anchor="start" x="251.38" y="-102.5" font-family="Helvetica,sans-Serif" font-size="10.00">+</text>
<text text-anchor="start" x="269.75" y="-102.5" font-family="Helvetica,sans-Serif" font-size="10.00">cipher()</text>
<text text-anchor="start" x="251.38" y="-86.5" font-family="Helvetica,sans-Serif" font-size="10.00">+</text>
<text text-anchor="start" x="269.75" y="-86.5" font-family="Helvetica,sans-Serif" font-size="10.00">decipher()</text>
<text text-anchor="start" x="251.38" y="-70.5" font-family="Helvetica,sans-Serif" font-size="10.00">+</text>
<text text-anchor="start" x="269.75" y="-70.5" font-family="Helvetica,sans-Serif" font-size="10.00">AES()</text>
<text text-anchor="start" x="251.38" y="-54.5" font-family="Helvetica,sans-Serif" font-size="10.00">+</text>
<text text-anchor="start" x="269.75" y="-54.5" font-family="Helvetica,sans-Serif" font-size="10.00">AES()</text>
<text text-anchor="start" x="251.38" y="-38.5" font-family="Helvetica,sans-Serif" font-size="10.00">+</text>
<text text-anchor="start" x="269.75" y="-38.5" font-family="Helvetica,sans-Serif" font-size="10.00">~AES()</text>
<text text-anchor="start" x="251.38" y="-22.5" font-family="Helvetica,sans-Serif" font-size="10.00">+</text>
<text text-anchor="start" x="269.75" y="-22.5" font-family="Helvetica,sans-Serif" font-size="10.00">cipher()</text>
<text text-anchor="start" x="251.38" y="-6.5" font-family="Helvetica,sans-Serif" font-size="10.00">+</text>
<text text-anchor="start" x="269.75" y="-6.5" font-family="Helvetica,sans-Serif" font-size="10.00">decipher()</text>
<polygon fill="#666666" stroke="#666666" points="239,-178 239,-178 333.25,-178 333.25,-178 239,-178"/>
<polygon fill="#666666" stroke="#666666" points="239,-162 239,-162 333.25,-162 333.25,-162 239,-162"/>
<polygon fill="none" stroke="#666666" points="239,0 239,-208 333.25,-208 333.25,0 239,0"/>
</a>
</g>
</g>
<!-- Node2&#45;&gt;Node4 -->
<g id="edge3_Node000002_Node000004" class="edge">
<title>Node2&#45;&gt;Node4</title>
<g id="a_edge3_Node000002_Node000004"><a xlink:title=" ">
<path fill="none" stroke="#63b8ff" d="M190.45,-415.15C200.01,-405.56 208.98,-395.06 216.12,-384 250.06,-331.45 267.54,-263.54 276.55,-207.87"/>
<polygon fill="none" stroke="#63b8ff" points="188.18,-412.48 183.41,-421.94 193.04,-417.52 188.18,-412.48"/>
</a>
</g>
</g>
<!-- Node5 -->
<g id="Node000005" class="node">
<title>Node5</title>
<g id="a_Node000005"><a xlink:href="classanch_1_1crypto_1_1_a_e_s.html" target="_top" xlink:title=" ">
<polygon fill="white" stroke="none" points="212.25,-208 118,-208 118,0 212.25,0 212.25,-208"/>
<text text-anchor="start" x="122" y="-194.5" font-family="Helvetica,sans-Serif" font-size="10.00">anch::crypto::AES&lt;</text>
<text text-anchor="start" x="148.25" y="-182.5" font-family="Helvetica,sans-Serif" font-size="10.00"> 8, 14 &gt;</text>
<text text-anchor="start" x="163.62" y="-166.5" font-family="Helvetica,sans-Serif" font-size="10.00"> </text>
<text text-anchor="start" x="130.38" y="-150.5" font-family="Helvetica,sans-Serif" font-size="10.00">+</text>
<text text-anchor="start" x="148.75" y="-150.5" font-family="Helvetica,sans-Serif" font-size="10.00">AES()</text>
<text text-anchor="start" x="130.38" y="-134.5" font-family="Helvetica,sans-Serif" font-size="10.00">+</text>
<text text-anchor="start" x="148.75" y="-134.5" font-family="Helvetica,sans-Serif" font-size="10.00">AES()</text>
<text text-anchor="start" x="130.38" y="-118.5" font-family="Helvetica,sans-Serif" font-size="10.00">+</text>
<text text-anchor="start" x="148.75" y="-118.5" font-family="Helvetica,sans-Serif" font-size="10.00">~AES()</text>
<text text-anchor="start" x="130.38" y="-102.5" font-family="Helvetica,sans-Serif" font-size="10.00">+</text>
<text text-anchor="start" x="148.75" y="-102.5" font-family="Helvetica,sans-Serif" font-size="10.00">cipher()</text>
<text text-anchor="start" x="130.38" y="-86.5" font-family="Helvetica,sans-Serif" font-size="10.00">+</text>
<text text-anchor="start" x="148.75" y="-86.5" font-family="Helvetica,sans-Serif" font-size="10.00">decipher()</text>
<text text-anchor="start" x="130.38" y="-70.5" font-family="Helvetica,sans-Serif" font-size="10.00">+</text>
<text text-anchor="start" x="148.75" y="-70.5" font-family="Helvetica,sans-Serif" font-size="10.00">AES()</text>
<text text-anchor="start" x="130.38" y="-54.5" font-family="Helvetica,sans-Serif" font-size="10.00">+</text>
<text text-anchor="start" x="148.75" y="-54.5" font-family="Helvetica,sans-Serif" font-size="10.00">AES()</text>
<text text-anchor="start" x="130.38" y="-38.5" font-family="Helvetica,sans-Serif" font-size="10.00">+</text>
<text text-anchor="start" x="148.75" y="-38.5" font-family="Helvetica,sans-Serif" font-size="10.00">~AES()</text>
<text text-anchor="start" x="130.38" y="-22.5" font-family="Helvetica,sans-Serif" font-size="10.00">+</text>
<text text-anchor="start" x="148.75" y="-22.5" font-family="Helvetica,sans-Serif" font-size="10.00">cipher()</text>
<text text-anchor="start" x="130.38" y="-6.5" font-family="Helvetica,sans-Serif" font-size="10.00">+</text>
<text text-anchor="start" x="148.75" y="-6.5" font-family="Helvetica,sans-Serif" font-size="10.00">decipher()</text>
<polygon fill="#666666" stroke="#666666" points="118,-178 118,-178 212.25,-178 212.25,-178 118,-178"/>
<polygon fill="#666666" stroke="#666666" points="118,-162 118,-162 212.25,-162 212.25,-162 118,-162"/>
<polygon fill="none" stroke="#666666" points="118,0 118,-208 212.25,-208 212.25,0 118,0"/>
</a>
</g>
</g>
<!-- Node2&#45;&gt;Node5 -->
<g id="edge4_Node000002_Node000005" class="edge">
<title>Node2&#45;&gt;Node5</title>
<g id="a_edge4_Node000002_Node000005"><a xlink:title=" ">
<path fill="none" stroke="#63b8ff" d="M107.96,-410.03C98.25,-360.36 89.8,-287.34 106.12,-226 109.19,-214.48 113.38,-202.75 118.11,-191.35"/>
<polygon fill="none" stroke="#63b8ff" points="104.51,-410.62 109.94,-419.71 111.36,-409.21 104.51,-410.62"/>
</a>
</g>
</g>
<!-- Node6 -->
<g id="Node000006" class="node">
<title>Node6</title>
<g id="a_Node000006"><a xlink:href="classanch_1_1crypto_1_1_a_e_s.html" target="_top" xlink:title="AES block cipher algorithm implementation.">
<polygon fill="white" stroke="none" points="207.25,-384 113,-384 113,-256 207.25,-256 207.25,-384"/>
<text text-anchor="start" x="117" y="-370.5" font-family="Helvetica,sans-Serif" font-size="10.00">anch::crypto::AES&lt;</text>
<text text-anchor="start" x="144" y="-358.5" font-family="Helvetica,sans-Serif" font-size="10.00"> K, R &gt;</text>
<text text-anchor="start" x="158.62" y="-342.5" font-family="Helvetica,sans-Serif" font-size="10.00"> </text>
<text text-anchor="start" x="125.38" y="-326.5" font-family="Helvetica,sans-Serif" font-size="10.00">+</text>
<text text-anchor="start" x="143.75" y="-326.5" font-family="Helvetica,sans-Serif" font-size="10.00">AES()</text>
<text text-anchor="start" x="125.38" y="-310.5" font-family="Helvetica,sans-Serif" font-size="10.00">+</text>
<text text-anchor="start" x="143.75" y="-310.5" font-family="Helvetica,sans-Serif" font-size="10.00">AES()</text>
<text text-anchor="start" x="125.38" y="-294.5" font-family="Helvetica,sans-Serif" font-size="10.00">+</text>
<text text-anchor="start" x="143.75" y="-294.5" font-family="Helvetica,sans-Serif" font-size="10.00">~AES()</text>
<text text-anchor="start" x="125.38" y="-278.5" font-family="Helvetica,sans-Serif" font-size="10.00">+</text>
<text text-anchor="start" x="143.75" y="-278.5" font-family="Helvetica,sans-Serif" font-size="10.00">cipher()</text>
<text text-anchor="start" x="125.38" y="-262.5" font-family="Helvetica,sans-Serif" font-size="10.00">+</text>
<text text-anchor="start" x="143.75" y="-262.5" font-family="Helvetica,sans-Serif" font-size="10.00">decipher()</text>
<polygon fill="#666666" stroke="#666666" points="113,-354 113,-354 207.25,-354 207.25,-354 113,-354"/>
<polygon fill="#666666" stroke="#666666" points="113,-338 113,-338 207.25,-338 207.25,-338 113,-338"/>
<polygon fill="none" stroke="#666666" points="113,-256 113,-384 207.25,-384 207.25,-256 113,-256"/>
</a>
</g>
</g>
<!-- Node2&#45;&gt;Node6 -->
<g id="edge5_Node000002_Node000006" class="edge">
<title>Node2&#45;&gt;Node6</title>
<g id="a_edge5_Node000002_Node000006"><a xlink:title=" ">
<path fill="none" stroke="#63b8ff" d="M137.12,-410C139.34,-401.41 141.64,-392.52 143.88,-383.83"/>
<polygon fill="none" stroke="#63b8ff" points="133.75,-409.06 134.63,-419.62 140.52,-410.81 133.75,-409.06"/>
</a>
</g>
</g>
<!-- Node6&#45;&gt;Node3 -->
<g id="edge6_Node000006_Node000003" class="edge">
<title>Node6&#45;&gt;Node3</title>
<g id="a_edge6_Node000006_Node000003"><a xlink:title=" ">
<path fill="none" stroke="orange" d="M119.78,-246.21C118.28,-243.44 116.81,-240.7 115.38,-238 108.42,-224.94 101.18,-211.11 94.12,-197.49"/>
<polygon fill="orange" stroke="orange" points="116.68,-247.85 124.52,-254.98 122.84,-244.52 116.68,-247.85"/>
</a>
</g>
<text text-anchor="middle" x="136.75" y="-228.5" font-family="Helvetica,sans-Serif" font-size="10.00" fill="grey"> &lt; 4, 10 &gt;</text>
</g>
<!-- Node6&#45;&gt;Node4 -->
<g id="edge7_Node000006_Node000004" class="edge">
<title>Node6&#45;&gt;Node4</title>
<g id="a_edge7_Node000006_Node000004"><a xlink:title=" ">
<path fill="none" stroke="orange" d="M204.09,-246.48C205.79,-243.62 207.48,-240.78 209.12,-238 218.91,-221.47 229.28,-203.72 239.14,-186.74"/>
<polygon fill="orange" stroke="orange" points="201.13,-244.6 199.01,-254.98 207.14,-248.19 201.13,-244.6"/>
</a>
</g>
<text text-anchor="middle" x="236.83" y="-228.5" font-family="Helvetica,sans-Serif" font-size="10.00" fill="grey"> &lt; 6, 12 &gt;</text>
</g>
<!-- Node6&#45;&gt;Node5 -->
<g id="edge8_Node000006_Node000005" class="edge">
<title>Node6&#45;&gt;Node5</title>
<g id="a_edge8_Node000006_Node000005"><a xlink:title=" ">
<path fill="none" stroke="orange" d="M161.85,-244.99C162.13,-233.03 162.43,-220.47 162.72,-207.98"/>
<polygon fill="orange" stroke="orange" points="158.36,-244.65 161.63,-254.73 165.36,-244.81 158.36,-244.65"/>
</a>
</g>
<text text-anchor="middle" x="183.55" y="-228.5" font-family="Helvetica,sans-Serif" font-size="10.00" fill="grey"> &lt; 8, 14 &gt;</text>
</g>
</g>
</svg>
