<?xml version="1.0" encoding="UTF-8" standalone="no"?>
<!DOCTYPE svg PUBLIC "-//W3C//DTD SVG 1.1//EN"
 "http://www.w3.org/Graphics/SVG/1.1/DTD/svg11.dtd">
<!-- Generated by graphviz version 13.1.2 (0)
 -->
<!-- Title: anch::json::WriterContext Pages: 1 -->
<!--zoomable 761 -->

<svg id="main" version="1.1" xmlns="http://www.w3.org/2000/svg" xmlns:xlink="http://www.w3.org/1999/xlink" xml:space="preserve" onload="init(evt)">

<style type="text/css"><![CDATA[
.node, .edge {opacity: 0.7;}
.node.selected, .edge.selected {opacity: 1;}
.edge:hover path { stroke: red; }
.edge:hover polygon { stroke: red; fill: red; }
]]></style>

<defs>
  <circle id="rim" cx="0" cy="0" r="7"/>
  <circle id="rim2" cx="0" cy="0" r="3.5"/>
  <g id="zoomPlus">
    <use xlink:href="#rim" fill="#404040"><set attributeName="fill" to="#808080" begin="zoomplus.mouseover" end="zoomplus.mouseout"/></use>
    <path d="M-4,0h8M0,-4v8" fill="none" stroke="white" stroke-width="1.5" pointer-events="none"/>
  </g>
  <g id="zoomMin">
    <use xlink:href="#rim" fill="#404040"><set attributeName="fill" to="#808080" begin="zoomminus.mouseover" end="zoomminus.mouseout"/></use>
    <path d="M-4,0h8" fill="none" stroke="white" stroke-width="1.5" pointer-events="none"/>
  </g>
  <g id="arrowUp" transform="translate(30 24)">
    <use xlink:href="#rim"/>
    <path pointer-events="none" fill="none" stroke="white" stroke-width="1.5" d="M0,-3.0v7 M-2.5,-0.5L0,-3.0L2.5,-0.5"/>
  </g>
  <g id="arrowRight" transform="rotate(90) translate(36 -43)">
    <use xlink:href="#rim"/>
    <path pointer-events="none" fill="none" stroke="white" stroke-width="1.5" d="M0,-3.0v7 M-2.5,-0.5L0,-3.0L2.5,-0.5"/>
  </g>
  <g id="arrowDown" transform="rotate(180) translate(-30 -48)">
    <use xlink:href="#rim"/>
    <path pointer-events="none" fill="none" stroke="white" stroke-width="1.5" d="M0,-3.0v7 M-2.5,-0.5L0,-3.0L2.5,-0.5"/>
  </g>
  <g id="arrowLeft" transform="rotate(270) translate(-36 17)">
    <use xlink:href="#rim"/>
    <path pointer-events="none" fill="none" stroke="white" stroke-width="1.5" d="M0,-3.0v7 M-2.5,-0.5L0,-3.0L2.5,-0.5"/>
  </g>
  <g id="resetDef">
    <use xlink:href="#rim2" fill="#404040"><set attributeName="fill" to="#808080" begin="reset.mouseover" end="reset.mouseout"/></use>
  </g>
</defs>
<script type="application/ecmascript">
var viewWidth = 261;
var viewHeight = 761;
var sectionId = 'dynsection-0';
</script>
<script type="application/ecmascript" xlink:href="svg.min.js"/>
<svg id="graph" class="graph">
<g id="viewport">
<title>anch::json::WriterContext</title>
<!-- Node1 -->
<g id="Node000001" class="node">
<title>Node1</title>
<g id="a_Node000001"><a xlink:title="JSON writer context.">
<polygon fill="#999999" stroke="none" points="206.38,-244 87.38,-244 87.38,0 206.38,0 206.38,-244"/>
<text xml:space="preserve" text-anchor="start" x="91.38" y="-230.5" font-family="Helvetica,sans-Serif" font-size="10.00">anch::json::WriterContext</text>
<text xml:space="preserve" text-anchor="start" x="145.38" y="-214.5" font-family="Helvetica,sans-Serif" font-size="10.00"> </text>
<text xml:space="preserve" text-anchor="start" x="95.62" y="-198.5" font-family="Helvetica,sans-Serif" font-size="10.00">+</text>
<text xml:space="preserve" text-anchor="start" x="109.88" y="-198.5" font-family="Helvetica,sans-Serif" font-size="10.00">WriterContext()</text>
<text xml:space="preserve" text-anchor="start" x="95.62" y="-182.5" font-family="Helvetica,sans-Serif" font-size="10.00">+</text>
<text xml:space="preserve" text-anchor="start" x="109.88" y="-182.5" font-family="Helvetica,sans-Serif" font-size="10.00">WriterContext()</text>
<text xml:space="preserve" text-anchor="start" x="95.62" y="-166.5" font-family="Helvetica,sans-Serif" font-size="10.00">+</text>
<text xml:space="preserve" text-anchor="start" x="109.88" y="-166.5" font-family="Helvetica,sans-Serif" font-size="10.00">WriterContext()</text>
<text xml:space="preserve" text-anchor="start" x="95.62" y="-150.5" font-family="Helvetica,sans-Serif" font-size="10.00">+</text>
<text xml:space="preserve" text-anchor="start" x="109.88" y="-150.5" font-family="Helvetica,sans-Serif" font-size="10.00">~WriterContext()</text>
<text xml:space="preserve" text-anchor="start" x="95.62" y="-134.5" font-family="Helvetica,sans-Serif" font-size="10.00">+</text>
<text xml:space="preserve" text-anchor="start" x="109.88" y="-134.5" font-family="Helvetica,sans-Serif" font-size="10.00">writeNull()</text>
<text xml:space="preserve" text-anchor="start" x="95.62" y="-118.5" font-family="Helvetica,sans-Serif" font-size="10.00">+</text>
<text xml:space="preserve" text-anchor="start" x="109.88" y="-118.5" font-family="Helvetica,sans-Serif" font-size="10.00">writeEmptyArray()</text>
<text xml:space="preserve" text-anchor="start" x="95.62" y="-102.5" font-family="Helvetica,sans-Serif" font-size="10.00">+</text>
<text xml:space="preserve" text-anchor="start" x="109.88" y="-102.5" font-family="Helvetica,sans-Serif" font-size="10.00">writeEmptyObject()</text>
<text xml:space="preserve" text-anchor="start" x="95.62" y="-86.5" font-family="Helvetica,sans-Serif" font-size="10.00">+</text>
<text xml:space="preserve" text-anchor="start" x="109.88" y="-86.5" font-family="Helvetica,sans-Serif" font-size="10.00">writeField()</text>
<text xml:space="preserve" text-anchor="start" x="95.62" y="-70.5" font-family="Helvetica,sans-Serif" font-size="10.00">+</text>
<text xml:space="preserve" text-anchor="start" x="109.88" y="-70.5" font-family="Helvetica,sans-Serif" font-size="10.00">beginArray()</text>
<text xml:space="preserve" text-anchor="start" x="95.62" y="-54.5" font-family="Helvetica,sans-Serif" font-size="10.00">+</text>
<text xml:space="preserve" text-anchor="start" x="109.88" y="-54.5" font-family="Helvetica,sans-Serif" font-size="10.00">endArray()</text>
<text xml:space="preserve" text-anchor="start" x="95.62" y="-38.5" font-family="Helvetica,sans-Serif" font-size="10.00">+</text>
<text xml:space="preserve" text-anchor="start" x="109.88" y="-38.5" font-family="Helvetica,sans-Serif" font-size="10.00">beginObject()</text>
<text xml:space="preserve" text-anchor="start" x="95.62" y="-22.5" font-family="Helvetica,sans-Serif" font-size="10.00">+</text>
<text xml:space="preserve" text-anchor="start" x="109.88" y="-22.5" font-family="Helvetica,sans-Serif" font-size="10.00">endObject()</text>
<text xml:space="preserve" text-anchor="start" x="95.62" y="-6.5" font-family="Helvetica,sans-Serif" font-size="10.00">+</text>
<text xml:space="preserve" text-anchor="start" x="109.88" y="-6.5" font-family="Helvetica,sans-Serif" font-size="10.00">next()</text>
<polygon fill="#666666" stroke="#666666" points="87.38,-226 87.38,-226 206.38,-226 206.38,-226 87.38,-226"/>
<polygon fill="#666666" stroke="#666666" points="87.38,-210 87.38,-210 206.38,-210 206.38,-210 87.38,-210"/>
<polygon fill="none" stroke="#666666" points="87.38,0 87.38,-244 206.38,-244 206.38,0 87.38,0"/>
</a>
</g>
</g>
<!-- Node2 -->
<g id="Node000002" class="node">
<title>Node2</title>
<g id="a_Node000002"><a xlink:title=" ">
<polygon fill="white" stroke="none" points="85.25,-412 22.5,-412 22.5,-360 85.25,-360 85.25,-412"/>
<text xml:space="preserve" text-anchor="start" x="26.5" y="-398.5" font-family="Helvetica,sans-Serif" font-size="10.00">std::ostream</text>
<text xml:space="preserve" text-anchor="start" x="52.38" y="-382.5" font-family="Helvetica,sans-Serif" font-size="10.00"> </text>
<text xml:space="preserve" text-anchor="start" x="52.38" y="-366.5" font-family="Helvetica,sans-Serif" font-size="10.00"> </text>
<polygon fill="#666666" stroke="#666666" points="22.5,-394 22.5,-394 85.25,-394 85.25,-394 22.5,-394"/>
<polygon fill="#666666" stroke="#666666" points="22.5,-378 22.5,-378 85.25,-378 85.25,-378 22.5,-378"/>
<polygon fill="none" stroke="#666666" points="22.5,-360 22.5,-412 85.25,-412 85.25,-360 22.5,-360"/>
</a>
</g>
</g>
<!-- Node2&#45;&gt;Node1 -->
<g id="edge1_Node000001_Node000002" class="edge">
<title>Node2&#45;&gt;Node1</title>
<g id="a_edge1_Node000001_Node000002"><a xlink:title=" ">
<path fill="none" stroke="#63b8ff" d="M62.62,-360.35C71.35,-335.77 85.47,-295.99 99.67,-255.97"/>
<polygon fill="none" stroke="#63b8ff" points="99.66,-256 97.9,-249.01 103.68,-244.69 105.44,-251.69 99.66,-256"/>
</a>
</g>
<text xml:space="preserve" text-anchor="start" x="97.81" y="-267.5" font-family="Helvetica,sans-Serif" font-size="10.00" fill="grey">+output</text>
</g>
<!-- Node3 -->
<g id="Node000003" class="node">
<title>Node3</title>
<g id="a_Node000003"><a xlink:title=" ">
<polygon fill="white" stroke="none" points="99.5,-575 8.25,-575 8.25,-511 99.5,-511 99.5,-575"/>
<text xml:space="preserve" text-anchor="start" x="12.25" y="-561.5" font-family="Helvetica,sans-Serif" font-size="10.00">std::basic_ostream</text>
<text xml:space="preserve" text-anchor="start" x="34.38" y="-549.5" font-family="Helvetica,sans-Serif" font-size="10.00">&lt; Char &gt;</text>
<text xml:space="preserve" text-anchor="start" x="52.38" y="-533.5" font-family="Helvetica,sans-Serif" font-size="10.00"> </text>
<text xml:space="preserve" text-anchor="start" x="52.38" y="-517.5" font-family="Helvetica,sans-Serif" font-size="10.00"> </text>
<polygon fill="#666666" stroke="#666666" points="8.25,-545 8.25,-545 99.5,-545 99.5,-545 8.25,-545"/>
<polygon fill="#666666" stroke="#666666" points="8.25,-529 8.25,-529 99.5,-529 99.5,-529 8.25,-529"/>
<polygon fill="none" stroke="#666666" points="8.25,-511 8.25,-575 99.5,-575 99.5,-511 8.25,-511"/>
</a>
</g>
</g>
<!-- Node3&#45;&gt;Node2 -->
<g id="edge2_Node000002_Node000003" class="edge">
<title>Node3&#45;&gt;Node2</title>
<g id="a_edge2_Node000002_Node000003"><a xlink:title=" ">
<path fill="none" stroke="#63b8ff" d="M53.88,-499.86C53.88,-471.65 53.88,-435.5 53.88,-411.82"/>
<polygon fill="none" stroke="#63b8ff" points="50.38,-499.49 53.88,-509.49 57.38,-499.49 50.38,-499.49"/>
</a>
</g>
</g>
<!-- Node4 -->
<g id="Node000004" class="node">
<title>Node4</title>
<g id="a_Node000004"><a xlink:title=" ">
<polygon fill="white" stroke="none" points="107.75,-664 0,-664 0,-612 107.75,-612 107.75,-664"/>
<text xml:space="preserve" text-anchor="start" x="4" y="-650.5" font-family="Helvetica,sans-Serif" font-size="10.00">std::basic_ios&lt; Char &gt;</text>
<text xml:space="preserve" text-anchor="start" x="52.38" y="-634.5" font-family="Helvetica,sans-Serif" font-size="10.00"> </text>
<text xml:space="preserve" text-anchor="start" x="52.38" y="-618.5" font-family="Helvetica,sans-Serif" font-size="10.00"> </text>
<polygon fill="#666666" stroke="#666666" points="0,-646 0,-646 107.75,-646 107.75,-646 0,-646"/>
<polygon fill="#666666" stroke="#666666" points="0,-630 0,-630 107.75,-630 107.75,-630 0,-630"/>
<polygon fill="none" stroke="#666666" points="0,-612 0,-664 107.75,-664 107.75,-612 0,-612"/>
</a>
</g>
</g>
<!-- Node4&#45;&gt;Node3 -->
<g id="edge3_Node000003_Node000004" class="edge">
<title>Node4&#45;&gt;Node3</title>
<g id="a_edge3_Node000003_Node000004"><a xlink:title=" ">
<path fill="none" stroke="#63b8ff" d="M53.88,-600.85C53.88,-592.3 53.88,-583.27 53.88,-574.98"/>
<polygon fill="none" stroke="#63b8ff" points="50.38,-600.56 53.88,-610.56 57.38,-600.56 50.38,-600.56"/>
</a>
</g>
</g>
<!-- Node5 -->
<g id="Node000005" class="node">
<title>Node5</title>
<g id="a_Node000005"><a xlink:title=" ">
<polygon fill="white" stroke="none" points="87.12,-753 20.62,-753 20.62,-701 87.12,-701 87.12,-753"/>
<text xml:space="preserve" text-anchor="start" x="24.62" y="-739.5" font-family="Helvetica,sans-Serif" font-size="10.00">std::ios_base</text>
<text xml:space="preserve" text-anchor="start" x="52.38" y="-723.5" font-family="Helvetica,sans-Serif" font-size="10.00"> </text>
<text xml:space="preserve" text-anchor="start" x="52.38" y="-707.5" font-family="Helvetica,sans-Serif" font-size="10.00"> </text>
<polygon fill="#666666" stroke="#666666" points="20.62,-735 20.62,-735 87.12,-735 87.12,-735 20.62,-735"/>
<polygon fill="#666666" stroke="#666666" points="20.62,-719 20.62,-719 87.12,-719 87.12,-719 20.62,-719"/>
<polygon fill="none" stroke="#666666" points="20.62,-701 20.62,-753 87.12,-753 87.12,-701 20.62,-701"/>
</a>
</g>
</g>
<!-- Node5&#45;&gt;Node4 -->
<g id="edge4_Node000004_Node000005" class="edge">
<title>Node5&#45;&gt;Node4</title>
<g id="a_edge4_Node000004_Node000005"><a xlink:title=" ">
<path fill="none" stroke="#63b8ff" d="M53.88,-690.05C53.88,-681.21 53.88,-671.94 53.88,-663.76"/>
<polygon fill="none" stroke="#63b8ff" points="50.38,-689.79 53.88,-699.79 57.38,-689.79 50.38,-689.79"/>
</a>
</g>
</g>
<!-- Node6 -->
<g id="Node000006" class="node">
<title>Node6</title>
<g id="a_Node000006"><a xlink:href="structanch_1_1json_1_1_mapping_options.html" target="_top" xlink:title="JSON mapping options.">
<polygon fill="white" stroke="none" points="252.5,-474 103.25,-474 103.25,-298 252.5,-298 252.5,-474"/>
<text xml:space="preserve" text-anchor="start" x="117.12" y="-460.5" font-family="Helvetica,sans-Serif" font-size="10.00">anch::json::MappingOptions</text>
<text xml:space="preserve" text-anchor="start" x="107.25" y="-444.5" font-family="Helvetica,sans-Serif" font-size="10.00">+</text>
<text xml:space="preserve" text-anchor="start" x="117.25" y="-444.5" font-family="Helvetica,sans-Serif" font-size="10.00">serialize_empty_string</text>
<text xml:space="preserve" text-anchor="start" x="107.25" y="-428.5" font-family="Helvetica,sans-Serif" font-size="10.00">+</text>
<text xml:space="preserve" text-anchor="start" x="117.25" y="-428.5" font-family="Helvetica,sans-Serif" font-size="10.00">serialize_empty_array</text>
<text xml:space="preserve" text-anchor="start" x="107.25" y="-412.5" font-family="Helvetica,sans-Serif" font-size="10.00">+</text>
<text xml:space="preserve" text-anchor="start" x="117.25" y="-412.5" font-family="Helvetica,sans-Serif" font-size="10.00">serialize_null</text>
<text xml:space="preserve" text-anchor="start" x="107.25" y="-396.5" font-family="Helvetica,sans-Serif" font-size="10.00">+</text>
<text xml:space="preserve" text-anchor="start" x="117.25" y="-396.5" font-family="Helvetica,sans-Serif" font-size="10.00">deserialize_ignore</text>
<text xml:space="preserve" text-anchor="start" x="117.25" y="-384.5" font-family="Helvetica,sans-Serif" font-size="10.00">_unknown_field</text>
<text xml:space="preserve" text-anchor="start" x="107.25" y="-368.5" font-family="Helvetica,sans-Serif" font-size="10.00">+</text>
<text xml:space="preserve" text-anchor="start" x="117.25" y="-368.5" font-family="Helvetica,sans-Serif" font-size="10.00">deserialize_max_discard_char</text>
<text xml:space="preserve" text-anchor="start" x="107.25" y="-352.5" font-family="Helvetica,sans-Serif" font-size="10.00">+</text>
<text xml:space="preserve" text-anchor="start" x="117.25" y="-352.5" font-family="Helvetica,sans-Serif" font-size="10.00">deserialize_max_field_char</text>
<text xml:space="preserve" text-anchor="start" x="107.25" y="-336.5" font-family="Helvetica,sans-Serif" font-size="10.00">+</text>
<text xml:space="preserve" text-anchor="start" x="117.25" y="-336.5" font-family="Helvetica,sans-Serif" font-size="10.00">max_payload</text>
<text xml:space="preserve" text-anchor="start" x="107.25" y="-320.5" font-family="Helvetica,sans-Serif" font-size="10.00">+</text>
<text xml:space="preserve" text-anchor="start" x="117.25" y="-320.5" font-family="Helvetica,sans-Serif" font-size="10.00">buffer_size</text>
<text xml:space="preserve" text-anchor="start" x="176.38" y="-304.5" font-family="Helvetica,sans-Serif" font-size="10.00"> </text>
<polygon fill="#666666" stroke="#666666" points="103.25,-456 103.25,-456 252.5,-456 252.5,-456 103.25,-456"/>
<polygon fill="#666666" stroke="#666666" points="103.25,-316 103.25,-316 115.25,-316 115.25,-316 103.25,-316"/>
<polygon fill="#666666" stroke="#666666" points="115.25,-316 115.25,-316 252.5,-316 252.5,-316 115.25,-316"/>
<polygon fill="none" stroke="#666666" points="103.25,-298 103.25,-474 252.5,-474 252.5,-298 103.25,-298"/>
</a>
</g>
</g>
<!-- Node6&#45;&gt;Node1 -->
<g id="edge5_Node000001_Node000006" class="edge">
<title>Node6&#45;&gt;Node1</title>
<g id="a_edge5_Node000001_Node000006"><a xlink:title=" ">
<path fill="none" stroke="#63b8ff" d="M167.6,-298.12C166.02,-284.78 164.36,-270.74 162.69,-256.67"/>
<polygon fill="none" stroke="#63b8ff" points="162.68,-256.56 158,-251.07 161.27,-244.64 165.95,-250.13 162.68,-256.56"/>
</a>
</g>
<text xml:space="preserve" text-anchor="start" x="168.15" y="-267.5" font-family="Helvetica,sans-Serif" font-size="10.00" fill="grey">+options</text>
</g>
</g>
</svg>

<g id="navigator" transform="translate(0 0)" fill="#404254">
  <rect fill="#f2f5e9" fill-opacity="0.5" stroke="#606060" stroke-width=".5" x="0" y="0" width="60" height="60"/>
  <use id="zoomplus" xlink:href="#zoomPlus" x="17" y="9" onmousedown="handleZoom(evt,'in')"/>
  <use id="zoomminus" xlink:href="#zoomMin" x="42" y="9" onmousedown="handleZoom(evt,'out')"/>
  <use id="reset" xlink:href="#resetDef" x="30" y="36" onmousedown="handleReset()"/>
   <use id="arrowup" xlink:href="#arrowUp" x="0" y="0" onmousedown="handlePan(0,-1)"/>
  <use id="arrowright" xlink:href="#arrowRight" x="0" y="0" onmousedown="handlePan(1,0)"/>
  <use id="arrowdown" xlink:href="#arrowDown" x="0" y="0" onmousedown="handlePan(0,1)"/>
  <use id="arrowleft" xlink:href="#arrowLeft" x="0" y="0" onmousedown="handlePan(-1,0)"/>
</g>
<svg viewBox="0 0 15 15" width="100%" height="30px" preserveAspectRatio="xMaxYMin meet">
 <g id="arrow_out" transform="scale(0.3 0.3)">
  <a xlink:href="classanch_1_1json_1_1_writer_context__coll__graph_org.svg" target="_base">
   <rect id="button" ry="5" rx="5" y="6" x="6" height="38" width="38"
        fill="#f2f5e9" fill-opacity="0.5" stroke="#606060" stroke-width="1.0"/>
   <path id="arrow"
     d="M 11.500037,31.436501 C 11.940474,20.09759 22.043105,11.32322 32.158766,21.979434 L 37.068811,17.246167 C 37.068811,17.246167 37.088388,32 37.088388,32 L 22.160133,31.978069 C 22.160133,31.978069 26.997745,27.140456 26.997745,27.140456 C 18.528582,18.264221 13.291696,25.230495 11.500037,31.436501 z"
     style="fill:#404040;"/>
  </a>
 </g>
</svg>

<style type='text/css'>
<![CDATA[
[data-mouse-over-selected='false'] { opacity: 0.7; }
[data-mouse-over-selected='true']  { opacity: 1.0; }
]]>
</style>
<script type="application/ecmascript"><![CDATA[
document.addEventListener('DOMContentLoaded', (event) => {
  highlightEdges();
  highlightAdjacentNodes();
});
]]></script>
</svg>
