<?xml version="1.0" encoding="UTF-8" standalone="no"?>
<!DOCTYPE svg PUBLIC "-//W3C//DTD SVG 1.1//EN"
 "http://www.w3.org/Graphics/SVG/1.1/DTD/svg11.dtd">
<!-- Generated by graphviz version 9.0.0 (0)
 -->
<!-- Title: anch::json::MappingError Pages: 1 -->
<svg width="138pt" height="212pt"
 viewBox="0.00 0.00 138.00 212.00" xmlns="http://www.w3.org/2000/svg" xmlns:xlink="http://www.w3.org/1999/xlink">

<svg id="main" version="1.1" xmlns="http://www.w3.org/2000/svg" xmlns:xlink="http://www.w3.org/1999/xlink" xml:space="preserve" onload="init(evt)">
<style type="text/css"><![CDATA[
.node, .edge {opacity: 0.7;}
.node.selected, .edge.selected {opacity: 1;}
.edge:hover path { stroke: red; }
.edge:hover polygon { stroke: red; fill: red; }
]]></style>
<script type="application/ecmascript" xlink:href="svg.min.js"/>
<svg id="graph" class="graph">
<g id="graph0" class="graph" transform="scale(1 1) rotate(0) translate(4 208)">
<title>anch::json::MappingError</title>
<!-- Node1 -->
<g id="Node000001" class="node">
<title>Node1</title>
<g id="a_Node000001"><a xlink:title="Mapping error.">
<polygon fill="#999999" stroke="none" points="130,-116 0,-116 0,0 130,0 130,-116"/>
<text text-anchor="start" x="4.62" y="-102.5" font-family="Helvetica,sans-Serif" font-size="10.00">anch::json::MappingError</text>
<text text-anchor="start" x="63.5" y="-86.5" font-family="Helvetica,sans-Serif" font-size="10.00"> </text>
<text text-anchor="start" x="10.88" y="-70.5" font-family="Helvetica,sans-Serif" font-size="10.00">+</text>
<text text-anchor="start" x="30" y="-70.5" font-family="Helvetica,sans-Serif" font-size="10.00">MappingError()</text>
<text text-anchor="start" x="10.88" y="-54.5" font-family="Helvetica,sans-Serif" font-size="10.00">+</text>
<text text-anchor="start" x="30" y="-54.5" font-family="Helvetica,sans-Serif" font-size="10.00">MappingError()</text>
<text text-anchor="start" x="10.88" y="-38.5" font-family="Helvetica,sans-Serif" font-size="10.00">+</text>
<text text-anchor="start" x="30" y="-38.5" font-family="Helvetica,sans-Serif" font-size="10.00">~MappingError()</text>
<text text-anchor="start" x="10.88" y="-22.5" font-family="Helvetica,sans-Serif" font-size="10.00">+</text>
<text text-anchor="start" x="30" y="-22.5" font-family="Helvetica,sans-Serif" font-size="10.00">what()</text>
<text text-anchor="start" x="10.88" y="-6.5" font-family="Helvetica,sans-Serif" font-size="10.00">+</text>
<text text-anchor="start" x="30" y="-6.5" font-family="Helvetica,sans-Serif" font-size="10.00">getErrorCode()</text>
<polygon fill="#666666" stroke="#666666" points="0,-98 0,-98 130,-98 130,-98 0,-98"/>
<polygon fill="#666666" stroke="#666666" points="0,-82 0,-82 130,-82 130,-82 0,-82"/>
<polygon fill="none" stroke="#666666" points="0,0 0,-116 130,-116 130,0 0,0"/>
</a>
</g>
</g>
<!-- Node2 -->
<g id="Node000002" class="node">
<title>Node2</title>
<g id="a_Node000002"><a xlink:title=" ">
<polygon fill="white" stroke="none" points="104.5,-204 25.5,-204 25.5,-152 104.5,-152 104.5,-204"/>
<text text-anchor="start" x="30.5" y="-190.5" font-family="Helvetica,sans-Serif" font-size="10.00">std::exception</text>
<text text-anchor="start" x="63.5" y="-174.5" font-family="Helvetica,sans-Serif" font-size="10.00"> </text>
<text text-anchor="start" x="63.5" y="-158.5" font-family="Helvetica,sans-Serif" font-size="10.00"> </text>
<polygon fill="#666666" stroke="#666666" points="25.5,-186 25.5,-186 104.5,-186 104.5,-186 25.5,-186"/>
<polygon fill="#666666" stroke="#666666" points="25.5,-170 25.5,-170 104.5,-170 104.5,-170 25.5,-170"/>
<polygon fill="none" stroke="#666666" points="25.5,-152 25.5,-204 104.5,-204 104.5,-152 25.5,-152"/>
</a>
</g>
</g>
<!-- Node2&#45;&gt;Node1 -->
<g id="edge1_Node000001_Node000002" class="edge">
<title>Node2&#45;&gt;Node1</title>
<g id="a_edge1_Node000001_Node000002"><a xlink:title=" ">
<path fill="none" stroke="#63b8ff" d="M65,-140.82C65,-132.89 65,-124.31 65,-115.79"/>
<polygon fill="none" stroke="#63b8ff" points="61.5,-140.75 65,-150.75 68.5,-140.75 61.5,-140.75"/>
</a>
</g>
</g>
</g>
</svg>
</svg>

<style type='text/css'>
<![CDATA[
[data-mouse-over-selected='false'] { opacity: 0.7; }
[data-mouse-over-selected='true']  { opacity: 1.0; }
]]>
</style>
<script type="application/ecmascript"><![CDATA[
document.addEventListener('DOMContentLoaded', (event) => {
  highlightEdges();
  highlightAdjacentNodes();
});
]]></script>
</svg>
