<?xml version="1.0" encoding="UTF-8" standalone="no"?>
<!DOCTYPE svg PUBLIC "-//W3C//DTD SVG 1.1//EN"
 "http://www.w3.org/Graphics/SVG/1.1/DTD/svg11.dtd">
<!-- Generated by graphviz version 2.44.1 (0)
 -->
<!-- Title: anch::sql::MySQLPreparedStatementResultSet Pages: 1 -->
<svg width="258pt" height="795pt"
 viewBox="0.00 0.00 258.00 795.00" xmlns="http://www.w3.org/2000/svg" xmlns:xlink="http://www.w3.org/1999/xlink">
<g id="graph0" class="graph" transform="scale(1 1) rotate(0) translate(4 791)">
<title>anch::sql::MySQLPreparedStatementResultSet</title>
<!-- Node1 -->
<g id="node1" class="node">
<title>Node1</title>
<g id="a_node1"><a xlink:title="MySQL result set implementation for prepared statement ... shitty API.">
<polygon fill="#bfbfbf" stroke="black" points="0,-0.5 0,-145.5 218,-145.5 218,-0.5 0,-0.5"/>
<text text-anchor="start" x="8" y="-133.5" font-family="Helvetica,sans-Serif" font-size="10.00">anch::sql::MySQLPrepared</text>
<text text-anchor="middle" x="109" y="-122.5" font-family="Helvetica,sans-Serif" font-size="10.00">StatementResultSet</text>
<polyline fill="none" stroke="black" points="0,-115.5 218,-115.5 "/>
<text text-anchor="middle" x="109" y="-103.5" font-family="Helvetica,sans-Serif" font-size="10.00"> </text>
<polyline fill="none" stroke="black" points="0,-96.5 218,-96.5 "/>
<text text-anchor="start" x="8" y="-84.5" font-family="Helvetica,sans-Serif" font-size="10.00">+ MySQLPreparedStatementResultSet()</text>
<text text-anchor="start" x="8" y="-73.5" font-family="Helvetica,sans-Serif" font-size="10.00">+ ~MySQLPreparedStatementResultSet()</text>
<text text-anchor="start" x="8" y="-62.5" font-family="Helvetica,sans-Serif" font-size="10.00">+ next()</text>
<text text-anchor="start" x="8" y="-51.5" font-family="Helvetica,sans-Serif" font-size="10.00"># getValue()</text>
<text text-anchor="start" x="8" y="-40.5" font-family="Helvetica,sans-Serif" font-size="10.00"># getValue()</text>
<text text-anchor="start" x="8" y="-29.5" font-family="Helvetica,sans-Serif" font-size="10.00"># getDateFormatter()</text>
<text text-anchor="start" x="8" y="-18.5" font-family="Helvetica,sans-Serif" font-size="10.00"># getTimeFormatter()</text>
<text text-anchor="start" x="8" y="-7.5" font-family="Helvetica,sans-Serif" font-size="10.00"># getTimestampFormatter()</text>
</a>
</g>
</g>
<!-- Node2 -->
<g id="node2" class="node">
<title>Node2</title>
<g id="a_node2"><a xlink:href="classanch_1_1sql_1_1_result_set.html" target="_top" xlink:title="SQL result representation.">
<polygon fill="none" stroke="black" points="13.5,-183.5 13.5,-438.5 204.5,-438.5 204.5,-183.5 13.5,-183.5"/>
<text text-anchor="middle" x="109" y="-426.5" font-family="Helvetica,sans-Serif" font-size="10.00">anch::sql::ResultSet</text>
<polyline fill="none" stroke="black" points="13.5,-419.5 204.5,-419.5 "/>
<text text-anchor="middle" x="109" y="-407.5" font-family="Helvetica,sans-Serif" font-size="10.00"> </text>
<polyline fill="none" stroke="black" points="13.5,-400.5 204.5,-400.5 "/>
<text text-anchor="start" x="21.5" y="-388.5" font-family="Helvetica,sans-Serif" font-size="10.00">+ ResultSet()</text>
<text text-anchor="start" x="21.5" y="-377.5" font-family="Helvetica,sans-Serif" font-size="10.00">+ ~ResultSet()</text>
<text text-anchor="start" x="21.5" y="-366.5" font-family="Helvetica,sans-Serif" font-size="10.00">+ get()</text>
<text text-anchor="start" x="21.5" y="-355.5" font-family="Helvetica,sans-Serif" font-size="10.00">+ get()</text>
<text text-anchor="start" x="21.5" y="-344.5" font-family="Helvetica,sans-Serif" font-size="10.00">+ get()</text>
<text text-anchor="start" x="21.5" y="-333.5" font-family="Helvetica,sans-Serif" font-size="10.00">+ get()</text>
<text text-anchor="start" x="21.5" y="-322.5" font-family="Helvetica,sans-Serif" font-size="10.00">+ next()</text>
<text text-anchor="start" x="21.5" y="-311.5" font-family="Helvetica,sans-Serif" font-size="10.00">+ get()</text>
<text text-anchor="start" x="21.5" y="-300.5" font-family="Helvetica,sans-Serif" font-size="10.00">+ get()</text>
<text text-anchor="start" x="21.5" y="-289.5" font-family="Helvetica,sans-Serif" font-size="10.00">+ get()</text>
<text text-anchor="start" x="21.5" y="-278.5" font-family="Helvetica,sans-Serif" font-size="10.00">and 9 more...</text>
<text text-anchor="start" x="21.5" y="-267.5" font-family="Helvetica,sans-Serif" font-size="10.00"># getValue()</text>
<text text-anchor="start" x="21.5" y="-256.5" font-family="Helvetica,sans-Serif" font-size="10.00"># getValue()</text>
<text text-anchor="start" x="21.5" y="-245.5" font-family="Helvetica,sans-Serif" font-size="10.00"># getDateFormatter()</text>
<text text-anchor="start" x="21.5" y="-234.5" font-family="Helvetica,sans-Serif" font-size="10.00"># getTimeFormatter()</text>
<text text-anchor="start" x="21.5" y="-223.5" font-family="Helvetica,sans-Serif" font-size="10.00"># getTimestampFormatter()</text>
<text text-anchor="start" x="21.5" y="-212.5" font-family="Helvetica,sans-Serif" font-size="10.00"># getDefaultDateFormatter()</text>
<text text-anchor="start" x="21.5" y="-201.5" font-family="Helvetica,sans-Serif" font-size="10.00"># getDefaultTimeFormatter()</text>
<text text-anchor="start" x="21.5" y="-190.5" font-family="Helvetica,sans-Serif" font-size="10.00"># getDefaultTimestampFormatter()</text>
</a>
</g>
</g>
<!-- Node2&#45;&gt;Node1 -->
<g id="edge1" class="edge">
<title>Node2&#45;&gt;Node1</title>
<path fill="none" stroke="midnightblue" d="M109,-173.12C109,-163.73 109,-154.51 109,-145.69"/>
<polygon fill="none" stroke="midnightblue" points="105.5,-173.36 109,-183.36 112.5,-173.36 105.5,-173.36"/>
</g>
<!-- Node3 -->
<g id="node3" class="node">
<title>Node3</title>
<g id="a_node3"><a xlink:title=" ">
<polygon fill="none" stroke="#bfbfbf" points="48,-486.5 48,-554.5 170,-554.5 170,-486.5 48,-486.5"/>
<text text-anchor="start" x="56" y="-542.5" font-family="Helvetica,sans-Serif" font-size="10.00">std::map&lt; std::string,</text>
<text text-anchor="middle" x="109" y="-531.5" font-family="Helvetica,sans-Serif" font-size="10.00"> std::size_t &gt;</text>
<polyline fill="none" stroke="#bfbfbf" points="48,-524.5 170,-524.5 "/>
<text text-anchor="start" x="56" y="-512.5" font-family="Helvetica,sans-Serif" font-size="10.00">+ elements</text>
<polyline fill="none" stroke="#bfbfbf" points="48,-505.5 170,-505.5 "/>
<text text-anchor="middle" x="109" y="-493.5" font-family="Helvetica,sans-Serif" font-size="10.00"> </text>
</a>
</g>
</g>
<!-- Node3&#45;&gt;Node2 -->
<g id="edge2" class="edge">
<title>Node3&#45;&gt;Node2</title>
<path fill="none" stroke="#404040" d="M109,-486.16C109,-475.81 109,-463.69 109,-450.75"/>
<polygon fill="none" stroke="#404040" points="109,-450.66 105,-444.66 109,-438.66 113,-444.66 109,-450.66"/>
<text text-anchor="middle" x="130.5" y="-460" font-family="Helvetica,sans-Serif" font-size="10.00"> #_fields</text>
</g>
<!-- Node4 -->
<g id="node4" class="node">
<title>Node4</title>
<g id="a_node4"><a xlink:title="STL class.">
<polygon fill="none" stroke="#bfbfbf" points="26.5,-613.5 26.5,-670.5 91.5,-670.5 91.5,-613.5 26.5,-613.5"/>
<text text-anchor="middle" x="59" y="-658.5" font-family="Helvetica,sans-Serif" font-size="10.00">std::string</text>
<polyline fill="none" stroke="#bfbfbf" points="26.5,-651.5 91.5,-651.5 "/>
<text text-anchor="middle" x="59" y="-639.5" font-family="Helvetica,sans-Serif" font-size="10.00"> </text>
<polyline fill="none" stroke="#bfbfbf" points="26.5,-632.5 91.5,-632.5 "/>
<text text-anchor="middle" x="59" y="-620.5" font-family="Helvetica,sans-Serif" font-size="10.00"> </text>
</a>
</g>
</g>
<!-- Node4&#45;&gt;Node3 -->
<g id="edge3" class="edge">
<title>Node4&#45;&gt;Node3</title>
<path fill="none" stroke="#404040" d="M70.6,-613.28C76.49,-599.19 83.8,-581.72 90.46,-565.82"/>
<polygon fill="none" stroke="#404040" points="90.52,-565.66 89.15,-558.58 95.16,-554.59 96.53,-561.67 90.52,-565.66"/>
<text text-anchor="middle" x="104" y="-581.5" font-family="Helvetica,sans-Serif" font-size="10.00"> +keys</text>
</g>
<!-- Node5 -->
<g id="node5" class="node">
<title>Node5</title>
<g id="a_node5"><a xlink:title="STL class.">
<polygon fill="none" stroke="#bfbfbf" points="7,-718.5 7,-786.5 111,-786.5 111,-718.5 7,-718.5"/>
<text text-anchor="start" x="15" y="-774.5" font-family="Helvetica,sans-Serif" font-size="10.00">std::basic_string&lt;</text>
<text text-anchor="middle" x="59" y="-763.5" font-family="Helvetica,sans-Serif" font-size="10.00"> char &gt;</text>
<polyline fill="none" stroke="#bfbfbf" points="7,-756.5 111,-756.5 "/>
<text text-anchor="middle" x="59" y="-744.5" font-family="Helvetica,sans-Serif" font-size="10.00"> </text>
<polyline fill="none" stroke="#bfbfbf" points="7,-737.5 111,-737.5 "/>
<text text-anchor="middle" x="59" y="-725.5" font-family="Helvetica,sans-Serif" font-size="10.00"> </text>
</a>
</g>
</g>
<!-- Node5&#45;&gt;Node4 -->
<g id="edge4" class="edge">
<title>Node5&#45;&gt;Node4</title>
<path fill="none" stroke="midnightblue" d="M59,-708.06C59,-695.51 59,-682.15 59,-670.83"/>
<polygon fill="none" stroke="midnightblue" points="55.5,-708.36 59,-718.36 62.5,-708.36 55.5,-708.36"/>
</g>
<!-- Node6 -->
<g id="node6" class="node">
<title>Node6</title>
<g id="a_node6"><a xlink:title="STL class.">
<polygon fill="none" stroke="#bfbfbf" points="109.5,-613.5 109.5,-670.5 210.5,-670.5 210.5,-613.5 109.5,-613.5"/>
<text text-anchor="middle" x="160" y="-658.5" font-family="Helvetica,sans-Serif" font-size="10.00">std::map&lt; K, T &gt;</text>
<polyline fill="none" stroke="#bfbfbf" points="109.5,-651.5 210.5,-651.5 "/>
<text text-anchor="middle" x="160" y="-639.5" font-family="Helvetica,sans-Serif" font-size="10.00"> </text>
<polyline fill="none" stroke="#bfbfbf" points="109.5,-632.5 210.5,-632.5 "/>
<text text-anchor="middle" x="160" y="-620.5" font-family="Helvetica,sans-Serif" font-size="10.00"> </text>
</a>
</g>
</g>
<!-- Node6&#45;&gt;Node3 -->
<g id="edge5" class="edge">
<title>Node6&#45;&gt;Node3</title>
<path fill="none" stroke="orange" d="M144.14,-603.84C137.42,-588.09 129.64,-569.87 123.12,-554.59"/>
<polygon fill="orange" stroke="orange" points="141.03,-605.46 148.17,-613.28 147.47,-602.71 141.03,-605.46"/>
<text text-anchor="start" x="140" y="-587" font-family="Helvetica,sans-Serif" font-size="10.00"> &lt; std::string, std</text>
<text text-anchor="middle" x="182.5" y="-576" font-family="Helvetica,sans-Serif" font-size="10.00">::size_t &gt;</text>
</g>
<!-- Node7 -->
<g id="node7" class="node">
<title>Node7</title>
<g id="a_node7"><a xlink:title=" ">
<polygon fill="none" stroke="#bfbfbf" points="137.5,-724 137.5,-781 166.5,-781 166.5,-724 137.5,-724"/>
<text text-anchor="middle" x="152" y="-769" font-family="Helvetica,sans-Serif" font-size="10.00">K</text>
<polyline fill="none" stroke="#bfbfbf" points="137.5,-762 166.5,-762 "/>
<text text-anchor="middle" x="152" y="-750" font-family="Helvetica,sans-Serif" font-size="10.00"> </text>
<polyline fill="none" stroke="#bfbfbf" points="137.5,-743 166.5,-743 "/>
<text text-anchor="middle" x="152" y="-731" font-family="Helvetica,sans-Serif" font-size="10.00"> </text>
</a>
</g>
</g>
<!-- Node7&#45;&gt;Node6 -->
<g id="edge6" class="edge">
<title>Node7&#45;&gt;Node6</title>
<path fill="none" stroke="#404040" d="M151.64,-723.77C151.71,-712.91 152.05,-700.35 153,-689 153.17,-686.95 153.38,-684.86 153.61,-682.74"/>
<polygon fill="none" stroke="#404040" points="153.63,-682.56 150.44,-676.1 155.17,-670.66 158.37,-677.12 153.63,-682.56"/>
<text text-anchor="middle" x="170" y="-692" font-family="Helvetica,sans-Serif" font-size="10.00"> +keys</text>
</g>
<!-- Node8 -->
<g id="node8" class="node">
<title>Node8</title>
<g id="a_node8"><a xlink:title=" ">
<polygon fill="none" stroke="#bfbfbf" points="194.5,-724 194.5,-781 223.5,-781 223.5,-724 194.5,-724"/>
<text text-anchor="middle" x="209" y="-769" font-family="Helvetica,sans-Serif" font-size="10.00">T</text>
<polyline fill="none" stroke="#bfbfbf" points="194.5,-762 223.5,-762 "/>
<text text-anchor="middle" x="209" y="-750" font-family="Helvetica,sans-Serif" font-size="10.00"> </text>
<polyline fill="none" stroke="#bfbfbf" points="194.5,-743 223.5,-743 "/>
<text text-anchor="middle" x="209" y="-731" font-family="Helvetica,sans-Serif" font-size="10.00"> </text>
</a>
</g>
</g>
<!-- Node8&#45;&gt;Node6 -->
<g id="edge7" class="edge">
<title>Node8&#45;&gt;Node6</title>
<path fill="none" stroke="#404040" d="M200.58,-723.97C196.88,-712.91 192.18,-700.16 187,-689 185.86,-686.54 184.63,-684.05 183.34,-681.55"/>
<polygon fill="none" stroke="#404040" points="183.2,-681.29 176.81,-677.94 177.44,-670.76 183.83,-674.11 183.2,-681.29"/>
<text text-anchor="middle" x="221" y="-692" font-family="Helvetica,sans-Serif" font-size="10.00"> +elements</text>
</g>
</g>
</svg>
