<?xml version="1.0" encoding="UTF-8" standalone="no"?>
<!DOCTYPE svg PUBLIC "-//W3C//DTD SVG 1.1//EN"
 "http://www.w3.org/Graphics/SVG/1.1/DTD/svg11.dtd">
<!-- Generated by graphviz version 2.43.20190912.0211 (20190912.0211)
 -->
<!-- Title: anch::Singleton&lt; T &gt; Pages: 1 -->
<!--zoomable 365 -->
<svg id="main" version="1.1" xmlns="http://www.w3.org/2000/svg" xmlns:xlink="http://www.w3.org/1999/xlink" xml:space="preserve" onload="init(evt)">
<style type="text/css"><![CDATA[
.edge:hover path { stroke: red; }
.edge:hover polygon { stroke: red; fill: red; }
]]></style>
<script type="text/javascript"><![CDATA[
var edges = document.getElementsByTagName('g');
if (edges && edges.length) {
  for (var i=0;i<edges.length;i++) {
    if (edges[i].id.substr(0,4)=='edge') {
      edges[i].setAttribute('class','edge');
    }
  }
}
]]></script>
        <defs>
                <circle id="rim" cx="0" cy="0" r="7"/>
                <circle id="rim2" cx="0" cy="0" r="3.5"/>
                <g id="zoomPlus">
                        <use xlink:href="#rim" fill="#404040">
                                <set attributeName="fill" to="#808080" begin="zoomplus.mouseover" end="zoomplus.mouseout"/>
                        </use>
                        <path d="M-4,0h8M0,-4v8" fill="none" stroke="white" stroke-width="1.5" pointer-events="none"/>
                </g>
                <g id="zoomMin">
                        <use xlink:href="#rim" fill="#404040">
                                <set attributeName="fill" to="#808080" begin="zoomminus.mouseover" end="zoomminus.mouseout"/>
                        </use>
                        <path d="M-4,0h8" fill="none" stroke="white" stroke-width="1.5" pointer-events="none"/>
                </g>
                <g id="dirArrow">
                        <path fill="none" stroke="white" stroke-width="1.5" d="M0,-3.0v7 M-2.5,-0.5L0,-3.0L2.5,-0.5"/>
                </g>
               <g id="resetDef">
                       <use xlink:href="#rim2" fill="#404040">
                               <set attributeName="fill" to="#808080" begin="reset.mouseover" end="reset.mouseout"/>
                       </use>
               </g>
        </defs>

<script type="text/javascript">
var viewWidth = 1086;
var viewHeight = 365;
var sectionId = 'dynsection-0';
</script>
<script xlink:href="svgpan.js"/>
<svg id="graph" class="graph">
<g id="viewport">
<title>anch::Singleton&lt; T &gt;</title>
<!-- Node1 -->
<g id="node1" class="node">
<title>Node1</title>
<g id="a_node1"><a xlink:title="Meyers&#39; singleton implemtation.">
<polygon fill="#bfbfbf" stroke="black" points="436,-299.5 436,-356.5 556,-356.5 556,-299.5 436,-299.5"/>
<text text-anchor="middle" x="496" y="-344.5" font-family="Helvetica,sans-Serif" font-size="10.00">anch::Singleton&lt; T &gt;</text>
<polyline fill="none" stroke="black" points="436,-337.5 556,-337.5 "/>
<text text-anchor="middle" x="496" y="-325.5" font-family="Helvetica,sans-Serif" font-size="10.00"> </text>
<polyline fill="none" stroke="black" points="436,-318.5 556,-318.5 "/>
<text text-anchor="start" x="444" y="-306.5" font-family="Helvetica,sans-Serif" font-size="10.00">+ getInstance()</text>
</a>
</g>
</g>
<!-- Node2 -->
<g id="node2" class="node">
<title>Node2</title>
<g id="a_node2"><a xlink:href="classanch_1_1_singleton.html" target="_top" xlink:title=" ">
<polygon fill="none" stroke="black" points="0,-189 0,-246 134,-246 134,-189 0,-189"/>
<text text-anchor="middle" x="67" y="-234" font-family="Helvetica,sans-Serif" font-size="10.00">anch::Singleton&lt; CPU &gt;</text>
<polyline fill="none" stroke="black" points="0,-227 134,-227 "/>
<text text-anchor="middle" x="67" y="-215" font-family="Helvetica,sans-Serif" font-size="10.00"> </text>
<polyline fill="none" stroke="black" points="0,-208 134,-208 "/>
<text text-anchor="start" x="8" y="-196" font-family="Helvetica,sans-Serif" font-size="10.00">+ getInstance()</text>
</a>
</g>
</g>
<!-- Node1&#45;&gt;Node2 -->
<g id="edge1" class="edge">
<title>Node1&#45;&gt;Node2</title>
<path fill="none" stroke="orange" d="M425.91,-317.18C353.71,-305.9 238.56,-284.63 143,-252 137.81,-250.23 132.49,-248.25 127.19,-246.15"/>
<polygon fill="orange" stroke="orange" points="425.39,-320.64 435.8,-318.71 426.45,-313.73 425.39,-320.64"/>
<text text-anchor="middle" x="261" y="-273" font-family="Helvetica,sans-Serif" font-size="10.00"> &lt; CPU &gt;</text>
</g>
<!-- Node4 -->
<g id="node4" class="node">
<title>Node4</title>
<g id="a_node4"><a xlink:href="classanch_1_1_singleton.html" target="_top" xlink:title=" ">
<polygon fill="none" stroke="black" points="152.5,-183.5 152.5,-251.5 301.5,-251.5 301.5,-183.5 152.5,-183.5"/>
<text text-anchor="start" x="160.5" y="-239.5" font-family="Helvetica,sans-Serif" font-size="10.00">anch::Singleton&lt; EventBus</text>
<text text-anchor="middle" x="227" y="-228.5" font-family="Helvetica,sans-Serif" font-size="10.00">&lt; Event &gt; &gt;</text>
<polyline fill="none" stroke="black" points="152.5,-221.5 301.5,-221.5 "/>
<text text-anchor="middle" x="227" y="-209.5" font-family="Helvetica,sans-Serif" font-size="10.00"> </text>
<polyline fill="none" stroke="black" points="152.5,-202.5 301.5,-202.5 "/>
<text text-anchor="start" x="160.5" y="-190.5" font-family="Helvetica,sans-Serif" font-size="10.00">+ getInstance()</text>
</a>
</g>
</g>
<!-- Node1&#45;&gt;Node4 -->
<g id="edge3" class="edge">
<title>Node1&#45;&gt;Node4</title>
<path fill="none" stroke="orange" d="M425.85,-312.11C395.7,-304.56 360.46,-294.16 330,-281 311.38,-272.95 292.08,-262.03 275.29,-251.57"/>
<polygon fill="orange" stroke="orange" points="425.33,-315.58 435.87,-314.56 426.99,-308.78 425.33,-315.58"/>
<text text-anchor="middle" x="391" y="-273" font-family="Helvetica,sans-Serif" font-size="10.00"> &lt; EventBus&lt; Event &gt; &gt;</text>
</g>
<!-- Node6 -->
<g id="node6" class="node">
<title>Node6</title>
<g id="a_node6"><a xlink:href="classanch_1_1_singleton.html" target="_top" xlink:title=" ">
<polygon fill="none" stroke="black" points="319,-189 319,-246 513,-246 513,-189 319,-189"/>
<text text-anchor="middle" x="416" y="-234" font-family="Helvetica,sans-Serif" font-size="10.00">anch::Singleton&lt; MySQLInitializer &gt;</text>
<polyline fill="none" stroke="black" points="319,-227 513,-227 "/>
<text text-anchor="middle" x="416" y="-215" font-family="Helvetica,sans-Serif" font-size="10.00"> </text>
<polyline fill="none" stroke="black" points="319,-208 513,-208 "/>
<text text-anchor="start" x="327" y="-196" font-family="Helvetica,sans-Serif" font-size="10.00">+ getInstance()</text>
</a>
</g>
</g>
<!-- Node1&#45;&gt;Node6 -->
<g id="edge5" class="edge">
<title>Node1&#45;&gt;Node6</title>
<path fill="none" stroke="orange" d="M469.46,-291C458.67,-276.37 446.41,-259.75 436.36,-246.11"/>
<polygon fill="orange" stroke="orange" points="466.85,-293.37 475.61,-299.34 472.49,-289.21 466.85,-293.37"/>
<text text-anchor="middle" x="514" y="-273" font-family="Helvetica,sans-Serif" font-size="10.00"> &lt; MySQLInitializer &gt;</text>
</g>
<!-- Node8 -->
<g id="node8" class="node">
<title>Node8</title>
<g id="a_node8"><a xlink:href="classanch_1_1_singleton.html" target="_top" xlink:title=" ">
<polygon fill="none" stroke="black" points="531.5,-183.5 531.5,-251.5 704.5,-251.5 704.5,-183.5 531.5,-183.5"/>
<text text-anchor="start" x="539.5" y="-239.5" font-family="Helvetica,sans-Serif" font-size="10.00">anch::Singleton&lt; SqlConnection</text>
<text text-anchor="middle" x="618" y="-228.5" font-family="Helvetica,sans-Serif" font-size="10.00">Factory &gt;</text>
<polyline fill="none" stroke="black" points="531.5,-221.5 704.5,-221.5 "/>
<text text-anchor="middle" x="618" y="-209.5" font-family="Helvetica,sans-Serif" font-size="10.00"> </text>
<polyline fill="none" stroke="black" points="531.5,-202.5 704.5,-202.5 "/>
<text text-anchor="start" x="539.5" y="-190.5" font-family="Helvetica,sans-Serif" font-size="10.00">+ getInstance()</text>
</a>
</g>
</g>
<!-- Node1&#45;&gt;Node8 -->
<g id="edge7" class="edge">
<title>Node1&#45;&gt;Node8</title>
<path fill="none" stroke="orange" d="M555.66,-293.36C561.05,-289.46 566.25,-285.32 571,-281 580.44,-272.41 589.29,-261.71 596.7,-251.59"/>
<polygon fill="orange" stroke="orange" points="553.31,-290.72 547.08,-299.29 557.29,-296.48 553.31,-290.72"/>
<text text-anchor="middle" x="647.5" y="-273" font-family="Helvetica,sans-Serif" font-size="10.00"> &lt; SqlConnectionFactory &gt;</text>
</g>
<!-- Node10 -->
<g id="node10" class="node">
<title>Node10</title>
<g id="a_node10"><a xlink:href="classanch_1_1_singleton.html" target="_top" xlink:title=" ">
<polygon fill="none" stroke="black" points="722.5,-183.5 722.5,-251.5 877.5,-251.5 877.5,-183.5 722.5,-183.5"/>
<text text-anchor="start" x="730.5" y="-239.5" font-family="Helvetica,sans-Serif" font-size="10.00">anch::Singleton&lt; SQLShared</text>
<text text-anchor="middle" x="800" y="-228.5" font-family="Helvetica,sans-Serif" font-size="10.00">Libraries &gt;</text>
<polyline fill="none" stroke="black" points="722.5,-221.5 877.5,-221.5 "/>
<text text-anchor="middle" x="800" y="-209.5" font-family="Helvetica,sans-Serif" font-size="10.00"> </text>
<polyline fill="none" stroke="black" points="722.5,-202.5 877.5,-202.5 "/>
<text text-anchor="start" x="730.5" y="-190.5" font-family="Helvetica,sans-Serif" font-size="10.00">+ getInstance()</text>
</a>
</g>
</g>
<!-- Node1&#45;&gt;Node10 -->
<g id="edge9" class="edge">
<title>Node1&#45;&gt;Node10</title>
<path fill="none" stroke="orange" d="M566.55,-320.32C611.21,-314.19 669.31,-302.6 717,-281 733.43,-273.56 749.69,-262.39 763.4,-251.55"/>
<polygon fill="orange" stroke="orange" points="565.83,-316.89 556.37,-321.66 566.74,-323.83 565.83,-316.89"/>
<text text-anchor="middle" x="797.5" y="-273" font-family="Helvetica,sans-Serif" font-size="10.00"> &lt; SQLSharedLibraries &gt;</text>
</g>
<!-- Node12 -->
<g id="node12" class="node">
<title>Node12</title>
<g id="a_node12"><a xlink:href="classanch_1_1_singleton.html" target="_top" xlink:title=" ">
<polygon fill="none" stroke="black" points="896,-189 896,-246 1078,-246 1078,-189 896,-189"/>
<text text-anchor="middle" x="987" y="-234" font-family="Helvetica,sans-Serif" font-size="10.00">anch::Singleton&lt; LoggerFactory &gt;</text>
<polyline fill="none" stroke="black" points="896,-227 1078,-227 "/>
<text text-anchor="middle" x="987" y="-215" font-family="Helvetica,sans-Serif" font-size="10.00"> </text>
<polyline fill="none" stroke="black" points="896,-208 1078,-208 "/>
<text text-anchor="start" x="904" y="-196" font-family="Helvetica,sans-Serif" font-size="10.00">+ getInstance()</text>
</a>
</g>
</g>
<!-- Node1&#45;&gt;Node12 -->
<g id="edge11" class="edge">
<title>Node1&#45;&gt;Node12</title>
<path fill="none" stroke="orange" d="M566.48,-325.18C641.27,-321.63 762.2,-311.25 862,-281 889.52,-272.66 918.34,-258.65 941.37,-246"/>
<polygon fill="orange" stroke="orange" points="566.07,-321.69 556.24,-325.63 566.38,-328.69 566.07,-321.69"/>
<text text-anchor="middle" x="938" y="-273" font-family="Helvetica,sans-Serif" font-size="10.00"> &lt; LoggerFactory &gt;</text>
</g>
<!-- Node3 -->
<g id="node3" class="node">
<title>Node3</title>
<g id="a_node3"><a xlink:href="classanch_1_1device_1_1_c_p_u.html" target="_top" xlink:title="CPU features detection.">
<polygon fill="none" stroke="black" points="15,-0.5 15,-145.5 119,-145.5 119,-0.5 15,-0.5"/>
<text text-anchor="middle" x="67" y="-133.5" font-family="Helvetica,sans-Serif" font-size="10.00">anch::device::CPU</text>
<polyline fill="none" stroke="black" points="15,-126.5 119,-126.5 "/>
<text text-anchor="middle" x="67" y="-114.5" font-family="Helvetica,sans-Serif" font-size="10.00"> </text>
<polyline fill="none" stroke="black" points="15,-107.5 119,-107.5 "/>
<text text-anchor="start" x="23" y="-95.5" font-family="Helvetica,sans-Serif" font-size="10.00">+ isAES()</text>
<text text-anchor="start" x="23" y="-84.5" font-family="Helvetica,sans-Serif" font-size="10.00">+ isMMX()</text>
<text text-anchor="start" x="23" y="-73.5" font-family="Helvetica,sans-Serif" font-size="10.00">+ isSSE()</text>
<text text-anchor="start" x="23" y="-62.5" font-family="Helvetica,sans-Serif" font-size="10.00">+ isSSE2()</text>
<text text-anchor="start" x="23" y="-51.5" font-family="Helvetica,sans-Serif" font-size="10.00">+ isSSE3()</text>
<text text-anchor="start" x="23" y="-40.5" font-family="Helvetica,sans-Serif" font-size="10.00">+ isSSSE3()</text>
<text text-anchor="start" x="23" y="-29.5" font-family="Helvetica,sans-Serif" font-size="10.00">+ isSSE4()</text>
<text text-anchor="start" x="23" y="-18.5" font-family="Helvetica,sans-Serif" font-size="10.00">+ isSSE4_1()</text>
<text text-anchor="start" x="23" y="-7.5" font-family="Helvetica,sans-Serif" font-size="10.00">+ isSSE4_2()</text>
</a>
</g>
</g>
<!-- Node2&#45;&gt;Node3 -->
<g id="edge2" class="edge">
<title>Node2&#45;&gt;Node3</title>
<path fill="none" stroke="midnightblue" d="M67,-178.52C67,-168.3 67,-156.91 67,-145.51"/>
<polygon fill="none" stroke="midnightblue" points="63.5,-178.69 67,-188.69 70.5,-178.69 63.5,-178.69"/>
</g>
<!-- Node5 -->
<g id="node5" class="node">
<title>Node5</title>
<g id="a_node5"><a xlink:href="classanch_1_1events_1_1_event_bus.html" target="_top" xlink:title="A class which manage global events firing and events QoS.">
<polygon fill="none" stroke="black" points="161.5,-0.5 161.5,-145.5 292.5,-145.5 292.5,-0.5 161.5,-0.5"/>
<text text-anchor="start" x="169.5" y="-133.5" font-family="Helvetica,sans-Serif" font-size="10.00">anch::events::EventBus</text>
<text text-anchor="middle" x="227" y="-122.5" font-family="Helvetica,sans-Serif" font-size="10.00">&lt; Event &gt;</text>
<polyline fill="none" stroke="black" points="161.5,-115.5 292.5,-115.5 "/>
<text text-anchor="middle" x="227" y="-103.5" font-family="Helvetica,sans-Serif" font-size="10.00"> </text>
<polyline fill="none" stroke="black" points="161.5,-96.5 292.5,-96.5 "/>
<text text-anchor="start" x="169.5" y="-84.5" font-family="Helvetica,sans-Serif" font-size="10.00">+ addObserver()</text>
<text text-anchor="start" x="169.5" y="-73.5" font-family="Helvetica,sans-Serif" font-size="10.00">+ removeObserver()</text>
<text text-anchor="start" x="169.5" y="-62.5" font-family="Helvetica,sans-Serif" font-size="10.00">+ fireEvent()</text>
<text text-anchor="start" x="169.5" y="-51.5" font-family="Helvetica,sans-Serif" font-size="10.00">+ scheduleDeferred()</text>
<text text-anchor="start" x="169.5" y="-40.5" font-family="Helvetica,sans-Serif" font-size="10.00">+ AddObserver()</text>
<text text-anchor="start" x="169.5" y="-29.5" font-family="Helvetica,sans-Serif" font-size="10.00">+ RemoveObserver()</text>
<text text-anchor="start" x="169.5" y="-18.5" font-family="Helvetica,sans-Serif" font-size="10.00">+ FireEvent()</text>
<text text-anchor="start" x="169.5" y="-7.5" font-family="Helvetica,sans-Serif" font-size="10.00">+ ScheduleDeferred()</text>
</a>
</g>
</g>
<!-- Node4&#45;&gt;Node5 -->
<g id="edge4" class="edge">
<title>Node4&#45;&gt;Node5</title>
<path fill="none" stroke="midnightblue" d="M227,-173.19C227,-164.48 227,-155.11 227,-145.72"/>
<polygon fill="none" stroke="midnightblue" points="223.5,-173.45 227,-183.45 230.5,-173.45 223.5,-173.45"/>
</g>
<!-- Node7 -->
<g id="node7" class="node">
<title>Node7</title>
<g id="a_node7"><a xlink:href="class_my_s_q_l_initializer.html" target="_top" xlink:title="MySQL (un)initializer.">
<polygon fill="none" stroke="black" points="368,-44.5 368,-101.5 464,-101.5 464,-44.5 368,-44.5"/>
<text text-anchor="middle" x="416" y="-89.5" font-family="Helvetica,sans-Serif" font-size="10.00">MySQLInitializer</text>
<polyline fill="none" stroke="black" points="368,-82.5 464,-82.5 "/>
<text text-anchor="middle" x="416" y="-70.5" font-family="Helvetica,sans-Serif" font-size="10.00"> </text>
<polyline fill="none" stroke="black" points="368,-63.5 464,-63.5 "/>
<text text-anchor="middle" x="416" y="-51.5" font-family="Helvetica,sans-Serif" font-size="10.00"> </text>
</a>
</g>
</g>
<!-- Node6&#45;&gt;Node7 -->
<g id="edge6" class="edge">
<title>Node6&#45;&gt;Node7</title>
<path fill="none" stroke="midnightblue" d="M416,-178.45C416,-154.3 416,-123.6 416,-101.74"/>
<polygon fill="none" stroke="midnightblue" points="412.5,-178.69 416,-188.69 419.5,-178.69 412.5,-178.69"/>
</g>
<!-- Node9 -->
<g id="node9" class="node">
<title>Node9</title>
<g id="a_node9"><a xlink:href="classanch_1_1sql_1_1_sql_connection_factory.html" target="_top" xlink:title="SQL connection factory.">
<polygon fill="none" stroke="black" points="550,-33.5 550,-112.5 686,-112.5 686,-33.5 550,-33.5"/>
<text text-anchor="start" x="558" y="-100.5" font-family="Helvetica,sans-Serif" font-size="10.00">anch::sql::SqlConnection</text>
<text text-anchor="middle" x="618" y="-89.5" font-family="Helvetica,sans-Serif" font-size="10.00">Factory</text>
<polyline fill="none" stroke="black" points="550,-82.5 686,-82.5 "/>
<text text-anchor="middle" x="618" y="-70.5" font-family="Helvetica,sans-Serif" font-size="10.00"> </text>
<polyline fill="none" stroke="black" points="550,-63.5 686,-63.5 "/>
<text text-anchor="start" x="558" y="-51.5" font-family="Helvetica,sans-Serif" font-size="10.00">+ createConnection()</text>
<text text-anchor="start" x="558" y="-40.5" font-family="Helvetica,sans-Serif" font-size="10.00">+ getPool()</text>
</a>
</g>
</g>
<!-- Node8&#45;&gt;Node9 -->
<g id="edge8" class="edge">
<title>Node8&#45;&gt;Node9</title>
<path fill="none" stroke="midnightblue" d="M618,-173.39C618,-154.07 618,-131.45 618,-112.68"/>
<polygon fill="none" stroke="midnightblue" points="614.5,-173.45 618,-183.45 621.5,-173.45 614.5,-173.45"/>
</g>
<!-- Node11 -->
<g id="node11" class="node">
<title>Node11</title>
<g id="a_node11"><a xlink:href="classanch_1_1sql_1_1_s_q_l_shared_libraries.html" target="_top" xlink:title="SQL shared libraries manager.">
<polygon fill="none" stroke="black" points="719.5,-17 719.5,-129 880.5,-129 880.5,-17 719.5,-17"/>
<text text-anchor="middle" x="800" y="-117" font-family="Helvetica,sans-Serif" font-size="10.00">anch::sql::SQLSharedLibraries</text>
<polyline fill="none" stroke="black" points="719.5,-110 880.5,-110 "/>
<text text-anchor="middle" x="800" y="-98" font-family="Helvetica,sans-Serif" font-size="10.00"> </text>
<polyline fill="none" stroke="black" points="719.5,-91 880.5,-91 "/>
<text text-anchor="start" x="727.5" y="-79" font-family="Helvetica,sans-Serif" font-size="10.00">+ registerSQLLibrary()</text>
<text text-anchor="start" x="727.5" y="-68" font-family="Helvetica,sans-Serif" font-size="10.00">+ makeSharedConnection()</text>
<text text-anchor="start" x="727.5" y="-57" font-family="Helvetica,sans-Serif" font-size="10.00">+ makeConnection()</text>
<text text-anchor="start" x="727.5" y="-46" font-family="Helvetica,sans-Serif" font-size="10.00">+ registerMySQL()</text>
<text text-anchor="start" x="727.5" y="-35" font-family="Helvetica,sans-Serif" font-size="10.00">+ registerPostgreSQL()</text>
<text text-anchor="start" x="727.5" y="-24" font-family="Helvetica,sans-Serif" font-size="10.00">+ registerSQLite()</text>
</a>
</g>
</g>
<!-- Node10&#45;&gt;Node11 -->
<g id="edge10" class="edge">
<title>Node10&#45;&gt;Node11</title>
<path fill="none" stroke="midnightblue" d="M800,-173.21C800,-159.35 800,-143.8 800,-129.2"/>
<polygon fill="none" stroke="midnightblue" points="796.5,-173.45 800,-183.45 803.5,-173.45 796.5,-173.45"/>
</g>
<!-- Node13 -->
<g id="node13" class="node">
<title>Node13</title>
<g id="a_node13"><a xlink:href="classanch_1_1logger_1_1_logger_factory.html" target="_top" xlink:title="Logger factory.">
<polygon fill="none" stroke="black" points="911.5,-44.5 911.5,-101.5 1062.5,-101.5 1062.5,-44.5 911.5,-44.5"/>
<text text-anchor="middle" x="987" y="-89.5" font-family="Helvetica,sans-Serif" font-size="10.00">anch::logger::LoggerFactory</text>
<polyline fill="none" stroke="black" points="911.5,-82.5 1062.5,-82.5 "/>
<text text-anchor="middle" x="987" y="-70.5" font-family="Helvetica,sans-Serif" font-size="10.00"> </text>
<polyline fill="none" stroke="black" points="911.5,-63.5 1062.5,-63.5 "/>
<text text-anchor="start" x="919.5" y="-51.5" font-family="Helvetica,sans-Serif" font-size="10.00">+ getLogger()</text>
</a>
</g>
</g>
<!-- Node12&#45;&gt;Node13 -->
<g id="edge12" class="edge">
<title>Node12&#45;&gt;Node13</title>
<path fill="none" stroke="midnightblue" d="M987,-178.45C987,-154.3 987,-123.6 987,-101.74"/>
<polygon fill="none" stroke="midnightblue" points="983.5,-178.69 987,-188.69 990.5,-178.69 983.5,-178.69"/>
</g>
</g>
</svg>
        <g id="navigator" transform="translate(0 0)" fill="#404254">
                <rect fill="#f2f5e9" fill-opacity="0.5" stroke="#606060" stroke-width=".5" x="0" y="0" width="60" height="60"/>
                <use id="zoomplus" xlink:href="#zoomPlus" x="17" y="9" onmousedown="handleZoom(evt,'in')"/>
                <use id="zoomminus" xlink:href="#zoomMin" x="42" y="9" onmousedown="handleZoom(evt,'out')"/>
                <use id="reset" xlink:href="#resetDef" x="30" y="36" onmousedown="handleReset()"/>
                <g id="arrowUp" xlink:href="#dirArrow" transform="translate(30 24)" onmousedown="handlePan(0,-1)">
                  <use xlink:href="#rim" fill="#404040">
                        <set attributeName="fill" to="#808080" begin="arrowUp.mouseover" end="arrowUp.mouseout"/>
                  </use>
                  <path fill="none" stroke="white" stroke-width="1.5" d="M0,-3.0v7 M-2.5,-0.5L0,-3.0L2.5,-0.5"/>
                </g>
                <g id="arrowRight" xlink:href="#dirArrow" transform="rotate(90) translate(36 -43)" onmousedown="handlePan(1,0)">
                  <use xlink:href="#rim" fill="#404040">
                        <set attributeName="fill" to="#808080" begin="arrowRight.mouseover" end="arrowRight.mouseout"/>
                  </use>
                  <path fill="none" stroke="white" stroke-width="1.5" d="M0,-3.0v7 M-2.5,-0.5L0,-3.0L2.5,-0.5"/>
                </g>
                <g id="arrowDown" xlink:href="#dirArrow" transform="rotate(180) translate(-30 -48)" onmousedown="handlePan(0,1)">
                  <use xlink:href="#rim" fill="#404040">
                        <set attributeName="fill" to="#808080" begin="arrowDown.mouseover" end="arrowDown.mouseout"/>
                  </use>
                  <path fill="none" stroke="white" stroke-width="1.5" d="M0,-3.0v7 M-2.5,-0.5L0,-3.0L2.5,-0.5"/>
                </g>
                <g id="arrowLeft" xlink:href="#dirArrow" transform="rotate(270) translate(-36 17)" onmousedown="handlePan(-1,0)">
                  <use xlink:href="#rim" fill="#404040">
                        <set attributeName="fill" to="#808080" begin="arrowLeft.mouseover" end="arrowLeft.mouseout"/>
                  </use>
                  <path fill="none" stroke="white" stroke-width="1.5" d="M0,-3.0v7 M-2.5,-0.5L0,-3.0L2.5,-0.5"/>
                </g>
        </g>
        <svg viewBox="0 0 15 15" width="100%" height="30px" preserveAspectRatio="xMaxYMin meet">
         <g id="arrow_out" transform="scale(0.3 0.3)">
          <a xlink:href="classanch_1_1_singleton__inherit__graph_org.svg" target="_base">
           <rect id="button" ry="5" rx="5" y="6" x="6" height="38" width="38"
                fill="#f2f5e9" fill-opacity="0.5" stroke="#606060" stroke-width="1.0"/>
           <path id="arrow"
             d="M 11.500037,31.436501 C 11.940474,20.09759 22.043105,11.32322 32.158766,21.979434 L 37.068811,17.246167 C 37.068811,17.246167 37.088388,32 37.088388,32 L 22.160133,31.978069 C 22.160133,31.978069 26.997745,27.140456 26.997745,27.140456 C 18.528582,18.264221 13.291696,25.230495 11.500037,31.436501 z"
             style="fill:#404040;"/>
          </a>
         </g>
        </svg>
</svg>
