<?xml version="1.0" encoding="UTF-8" standalone="no"?>
<!DOCTYPE svg PUBLIC "-//W3C//DTD SVG 1.1//EN"
 "http://www.w3.org/Graphics/SVG/1.1/DTD/svg11.dtd">
<!-- Generated by graphviz version 2.43.20190912.0211 (20190912.0211)
 -->
<!-- Title: anch::device::DeviceException Pages: 1 -->
<svg width="174pt" height="193pt"
 viewBox="0.00 0.00 174.00 193.00" xmlns="http://www.w3.org/2000/svg" xmlns:xlink="http://www.w3.org/1999/xlink">
<g id="graph0" class="graph" transform="scale(1 1) rotate(0) translate(4 189)">
<title>anch::device::DeviceException</title>
<!-- Node1 -->
<g id="node1" class="node">
<title>Node1</title>
<g id="a_node1"><a xlink:title=" ">
<polygon fill="#bfbfbf" stroke="black" points="0,-0.5 0,-90.5 166,-90.5 166,-0.5 0,-0.5"/>
<text text-anchor="middle" x="83" y="-78.5" font-family="Helvetica,sans-Serif" font-size="10.00">anch::device::DeviceException</text>
<polyline fill="none" stroke="black" points="0,-71.5 166,-71.5 "/>
<text text-anchor="middle" x="83" y="-59.5" font-family="Helvetica,sans-Serif" font-size="10.00"> </text>
<polyline fill="none" stroke="black" points="0,-52.5 166,-52.5 "/>
<text text-anchor="start" x="8" y="-40.5" font-family="Helvetica,sans-Serif" font-size="10.00">+ DeviceException()</text>
<text text-anchor="start" x="8" y="-29.5" font-family="Helvetica,sans-Serif" font-size="10.00">+ DeviceException()</text>
<text text-anchor="start" x="8" y="-18.5" font-family="Helvetica,sans-Serif" font-size="10.00">+ ~DeviceException()</text>
<text text-anchor="start" x="8" y="-7.5" font-family="Helvetica,sans-Serif" font-size="10.00">+ what()</text>
</a>
</g>
</g>
<!-- Node2 -->
<g id="node2" class="node">
<title>Node2</title>
<g id="a_node2"><a xlink:title="STL class.">
<polygon fill="none" stroke="#bfbfbf" points="40,-127.5 40,-184.5 126,-184.5 126,-127.5 40,-127.5"/>
<text text-anchor="middle" x="83" y="-172.5" font-family="Helvetica,sans-Serif" font-size="10.00">std::exception</text>
<polyline fill="none" stroke="#bfbfbf" points="40,-165.5 126,-165.5 "/>
<text text-anchor="middle" x="83" y="-153.5" font-family="Helvetica,sans-Serif" font-size="10.00"> </text>
<polyline fill="none" stroke="#bfbfbf" points="40,-146.5 126,-146.5 "/>
<text text-anchor="middle" x="83" y="-134.5" font-family="Helvetica,sans-Serif" font-size="10.00"> </text>
</a>
</g>
</g>
<!-- Node2&#45;&gt;Node1 -->
<g id="edge1" class="edge">
<title>Node2&#45;&gt;Node1</title>
<path fill="none" stroke="midnightblue" d="M83,-117.21C83,-108.61 83,-99.39 83,-90.55"/>
<polygon fill="none" stroke="midnightblue" points="79.5,-117.34 83,-127.34 86.5,-117.34 79.5,-117.34"/>
</g>
</g>
</svg>
