<?xml version="1.0" encoding="UTF-8" standalone="no"?>
<!DOCTYPE svg PUBLIC "-//W3C//DTD SVG 1.1//EN"
 "http://www.w3.org/Graphics/SVG/1.1/DTD/svg11.dtd">
<!-- Generated by graphviz version 12.0.0 (0)
 -->
<!-- Title: anch::logger::formatter::IFormatter Pages: 1 -->
<svg width="130pt" height="105pt"
 viewBox="0.00 0.00 130.00 105.00" xmlns="http://www.w3.org/2000/svg" xmlns:xlink="http://www.w3.org/1999/xlink">
<g id="graph0" class="graph" transform="scale(1 1) rotate(0) translate(4 101)">
<title>anch::logger::formatter::IFormatter</title>
<!-- Node1 -->
<g id="Node000001" class="node">
<title>Node1</title>
<g id="a_Node000001"><a xlink:title=" ">
<polygon fill="#999999" stroke="none" points="122,-97 0,-97 0,0 122,0 122,-97"/>
<text text-anchor="start" x="4.75" y="-83.5" font-family="Helvetica,sans-Serif" font-size="10.00">anch::logger::formatter</text>
<text text-anchor="start" x="32.5" y="-70.75" font-family="Helvetica,sans-Serif" font-size="10.00">::IFormatter</text>
<text text-anchor="start" x="59.5" y="-54.5" font-family="Helvetica,sans-Serif" font-size="10.00"> </text>
<text text-anchor="start" x="12.38" y="-38.5" font-family="Helvetica,sans-Serif" font-size="10.00">+</text>
<text text-anchor="start" x="33" y="-38.5" font-family="Helvetica,sans-Serif" font-size="10.00">~IFormatter()</text>
<text text-anchor="start" x="12.38" y="-22.5" font-family="Helvetica,sans-Serif" font-size="10.00">+</text>
<text text-anchor="start" x="33" y="-22.5" font-family="Helvetica,sans-Serif" font-size="10.00">getType()</text>
<text text-anchor="start" x="12.38" y="-6.5" font-family="Helvetica,sans-Serif" font-size="10.00">+</text>
<text text-anchor="start" x="33" y="-6.5" font-family="Helvetica,sans-Serif" font-size="10.00">formatValue()</text>
<polygon fill="#666666" stroke="#666666" points="0,-66 0,-66 122,-66 122,-66 0,-66"/>
<polygon fill="#666666" stroke="#666666" points="0,-50 0,-50 122,-50 122,-50 0,-50"/>
<polygon fill="none" stroke="#666666" points="0,0 0,-97 122,-97 122,0 0,0"/>
</a>
</g>
</g>
</g>
</svg>
