<?xml version="1.0" encoding="UTF-8" standalone="no"?>
<!DOCTYPE svg PUBLIC "-//W3C//DTD SVG 1.1//EN"
 "http://www.w3.org/Graphics/SVG/1.1/DTD/svg11.dtd">
<!-- Generated by graphviz version 14.0.5 (0)
 -->
<!-- Title: anch::sql::SQLQuery Pages: 1 -->
<svg width="108pt" height="124pt"
 viewBox="0.00 0.00 108.00 124.00" xmlns="http://www.w3.org/2000/svg" xmlns:xlink="http://www.w3.org/1999/xlink">
<g id="graph0" class="graph" transform="scale(1 1) rotate(0) translate(4 120)">
<title>anch::sql::SQLQuery</title>
<!-- Node1 -->
<g id="Node000001" class="node">
<title>Node1</title>
<g id="a_Node000001"><a xlink:title="SQL query.">
<polygon fill="#999999" stroke="none" points="99.5,-116 0,-116 0,0 99.5,0 99.5,-116"/>
<text xml:space="preserve" text-anchor="start" x="4" y="-102.5" font-family="Helvetica,sans-Serif" font-size="10.00">anch::sql::SQLQuery</text>
<text xml:space="preserve" text-anchor="start" x="48.25" y="-86.5" font-family="Helvetica,sans-Serif" font-size="10.00"> </text>
<text xml:space="preserve" text-anchor="start" x="11.44" y="-70.5" font-family="Helvetica,sans-Serif" font-size="10.00">+</text>
<text xml:space="preserve" text-anchor="start" x="28.88" y="-70.5" font-family="Helvetica,sans-Serif" font-size="10.00">SQLQuery()</text>
<text xml:space="preserve" text-anchor="start" x="11.44" y="-54.5" font-family="Helvetica,sans-Serif" font-size="10.00">+</text>
<text xml:space="preserve" text-anchor="start" x="28.88" y="-54.5" font-family="Helvetica,sans-Serif" font-size="10.00">SQLQuery()</text>
<text xml:space="preserve" text-anchor="start" x="11.44" y="-38.5" font-family="Helvetica,sans-Serif" font-size="10.00">+</text>
<text xml:space="preserve" text-anchor="start" x="28.88" y="-38.5" font-family="Helvetica,sans-Serif" font-size="10.00">SQLQuery()</text>
<text xml:space="preserve" text-anchor="start" x="11.44" y="-22.5" font-family="Helvetica,sans-Serif" font-size="10.00">+</text>
<text xml:space="preserve" text-anchor="start" x="28.88" y="-22.5" font-family="Helvetica,sans-Serif" font-size="10.00">getQuery()</text>
<text xml:space="preserve" text-anchor="start" x="11.44" y="-6.5" font-family="Helvetica,sans-Serif" font-size="10.00">+</text>
<text xml:space="preserve" text-anchor="start" x="28.88" y="-6.5" font-family="Helvetica,sans-Serif" font-size="10.00">getValues()</text>
<polygon fill="#666666" stroke="#666666" points="0,-98 0,-98 99.5,-98 99.5,-98 0,-98"/>
<polygon fill="#666666" stroke="#666666" points="0,-82 0,-82 99.5,-82 99.5,-82 0,-82"/>
<polygon fill="none" stroke="#666666" points="0,0 0,-116 99.5,-116 99.5,0 0,0"/>
</a>
</g>
</g>
</g>
</svg>
