<?xml version="1.0" encoding="UTF-8" standalone="no"?>
<!DOCTYPE svg PUBLIC "-//W3C//DTD SVG 1.1//EN"
 "http://www.w3.org/Graphics/SVG/1.1/DTD/svg11.dtd">
<!-- Generated by graphviz version 8.0.3 (0)
 -->
<!-- Title: anch::crypto::SHA384_512&lt; O, I &gt; Pages: 1 -->
<!--zoomable 669 -->
<svg id="main" version="1.1" xmlns="http://www.w3.org/2000/svg" xmlns:xlink="http://www.w3.org/1999/xlink" xml:space="preserve" onload="init(evt)">
<style type="text/css"><![CDATA[
.edge:hover path { stroke: red; }
.edge:hover polygon { stroke: red; fill: red; }
]]></style>
<script type="text/javascript"><![CDATA[
var edges = document.getElementsByTagName('g');
if (edges && edges.length) {
  for (var i=0;i<edges.length;i++) {
    if (edges[i].id.substr(0,4)=='edge') {
      edges[i].setAttribute('class','edge');
    }
  }
}
]]></script>
        <defs>
                <circle id="rim" cx="0" cy="0" r="7"/>
                <circle id="rim2" cx="0" cy="0" r="3.5"/>
                <g id="zoomPlus">
                        <use xlink:href="#rim" fill="#404040">
                                <set attributeName="fill" to="#808080" begin="zoomplus.mouseover" end="zoomplus.mouseout"/>
                        </use>
                        <path d="M-4,0h8M0,-4v8" fill="none" stroke="white" stroke-width="1.5" pointer-events="none"/>
                </g>
                <g id="zoomMin">
                        <use xlink:href="#rim" fill="#404040">
                                <set attributeName="fill" to="#808080" begin="zoomminus.mouseover" end="zoomminus.mouseout"/>
                        </use>
                        <path d="M-4,0h8" fill="none" stroke="white" stroke-width="1.5" pointer-events="none"/>
                </g>
                <g id="dirArrow">
                        <path fill="none" stroke="white" stroke-width="1.5" d="M0,-3.0v7 M-2.5,-0.5L0,-3.0L2.5,-0.5"/>
                </g>
               <g id="resetDef">
                       <use xlink:href="#rim2" fill="#404040">
                               <set attributeName="fill" to="#808080" begin="reset.mouseover" end="reset.mouseout"/>
                       </use>
               </g>
        </defs>

<script type="text/javascript">
var viewWidth = 201;
var viewHeight = 669;
var sectionId = 'dynsection-0';
</script>
<script xlink:href="svgpan.js"/>
<svg id="graph" class="graph">
<g id="viewport">
<title>anch::crypto::SHA384_512&lt; O, I &gt;</title>
<!-- Node1 -->
<g id="node1" class="node">
<title>Node1</title>
<g id="a_node1"><a xlink:title="SHA2 384/512 implementation.">
<polygon fill="#999999" stroke="#666666" points="0,-0.5 0,-101.5 121,-101.5 121,-0.5 0,-0.5"/>
<text text-anchor="start" x="8" y="-89.5" font-family="Helvetica,sans-Serif" font-size="10.00">anch::crypto::SHA384</text>
<text text-anchor="middle" x="60.5" y="-78.5" font-family="Helvetica,sans-Serif" font-size="10.00">_512&lt; O, I &gt;</text>
<polyline fill="none" stroke="#666666" points="0,-71.5 121,-71.5"/>
<text text-anchor="middle" x="60.5" y="-59.5" font-family="Helvetica,sans-Serif" font-size="10.00"> </text>
<polyline fill="none" stroke="#666666" points="0,-52.5 121,-52.5"/>
<text text-anchor="start" x="8" y="-40.5" font-family="Helvetica,sans-Serif" font-size="10.00">+ SHA384_512()</text>
<text text-anchor="start" x="8" y="-29.5" font-family="Helvetica,sans-Serif" font-size="10.00">+ SHA384_512()</text>
<text text-anchor="start" x="8" y="-18.5" font-family="Helvetica,sans-Serif" font-size="10.00">+ SHA384_512()</text>
<text text-anchor="start" x="8" y="-7.5" font-family="Helvetica,sans-Serif" font-size="10.00">+ ~SHA384_512()</text>
</a>
</g>
</g>
<!-- Node2 -->
<g id="node2" class="node">
<title>Node2</title>
<g id="a_node2"><a xlink:href="classanch_1_1crypto_1_1_s_h_a2.html" target="_top" xlink:title=" ">
<polygon fill="white" stroke="#666666" points="6,-139.5 6,-273.5 115,-273.5 115,-139.5 6,-139.5"/>
<text text-anchor="start" x="14" y="-261.5" font-family="Helvetica,sans-Serif" font-size="10.00">anch::crypto::SHA2</text>
<text text-anchor="start" x="14" y="-250.5" font-family="Helvetica,sans-Serif" font-size="10.00">&lt; O, 128, uint64_t,</text>
<text text-anchor="middle" x="60.5" y="-239.5" font-family="Helvetica,sans-Serif" font-size="10.00"> 80, I &gt;</text>
<polyline fill="none" stroke="#666666" points="6,-232.5 115,-232.5"/>
<text text-anchor="start" x="14" y="-220.5" font-family="Helvetica,sans-Serif" font-size="10.00"># _context</text>
<polyline fill="none" stroke="#666666" points="6,-213.5 115,-213.5"/>
<text text-anchor="start" x="14" y="-201.5" font-family="Helvetica,sans-Serif" font-size="10.00">+ SHA2()</text>
<text text-anchor="start" x="14" y="-190.5" font-family="Helvetica,sans-Serif" font-size="10.00">+ ~SHA2()</text>
<text text-anchor="start" x="14" y="-179.5" font-family="Helvetica,sans-Serif" font-size="10.00">+ digest()</text>
<text text-anchor="start" x="14" y="-168.5" font-family="Helvetica,sans-Serif" font-size="10.00"># shiftRight()</text>
<text text-anchor="start" x="14" y="-157.5" font-family="Helvetica,sans-Serif" font-size="10.00"># rotateLeft()</text>
<text text-anchor="start" x="14" y="-146.5" font-family="Helvetica,sans-Serif" font-size="10.00"># rotateRight()</text>
</a>
</g>
</g>
<!-- Node2&#45;&gt;Node1 -->
<g id="edge1" class="edge">
<title>Node2&#45;&gt;Node1</title>
<path fill="none" stroke="#63b8ff" d="M60.5,-128.61C60.5,-119.3 60.5,-110 60.5,-101.24"/>
<polygon fill="none" stroke="#63b8ff" points="57,-128.51 60.5,-138.51 64,-128.51 57,-128.51"/>
</g>
<!-- Node3 -->
<g id="node3" class="node">
<title>Node3</title>
<g id="a_node3"><a xlink:href="classanch_1_1crypto_1_1_hash.html" target="_top" xlink:title="Hash algorithm abstract class.">
<polygon fill="white" stroke="#666666" points="3,-493.5 3,-660.5 110,-660.5 110,-493.5 3,-493.5"/>
<text text-anchor="start" x="11" y="-648.5" font-family="Helvetica,sans-Serif" font-size="10.00">anch::crypto::Hash</text>
<text text-anchor="middle" x="56.5" y="-637.5" font-family="Helvetica,sans-Serif" font-size="10.00">&lt; O, B &gt;</text>
<polyline fill="none" stroke="#666666" points="3,-630.5 110,-630.5"/>
<text text-anchor="start" x="11" y="-618.5" font-family="Helvetica,sans-Serif" font-size="10.00"># _digest</text>
<polyline fill="none" stroke="#666666" points="3,-611.5 110,-611.5"/>
<text text-anchor="start" x="11" y="-599.5" font-family="Helvetica,sans-Serif" font-size="10.00">+ digest()</text>
<text text-anchor="start" x="11" y="-588.5" font-family="Helvetica,sans-Serif" font-size="10.00">+ digest()</text>
<text text-anchor="start" x="11" y="-577.5" font-family="Helvetica,sans-Serif" font-size="10.00">+ digest()</text>
<text text-anchor="start" x="11" y="-566.5" font-family="Helvetica,sans-Serif" font-size="10.00">+ digest()</text>
<text text-anchor="start" x="11" y="-555.5" font-family="Helvetica,sans-Serif" font-size="10.00">+ digest()</text>
<text text-anchor="start" x="11" y="-544.5" font-family="Helvetica,sans-Serif" font-size="10.00">+ getOutputSize()</text>
<text text-anchor="start" x="11" y="-533.5" font-family="Helvetica,sans-Serif" font-size="10.00">+ getBlockSize()</text>
<text text-anchor="start" x="11" y="-522.5" font-family="Helvetica,sans-Serif" font-size="10.00"># reset()</text>
<text text-anchor="start" x="11" y="-511.5" font-family="Helvetica,sans-Serif" font-size="10.00"># addData()</text>
<text text-anchor="start" x="11" y="-500.5" font-family="Helvetica,sans-Serif" font-size="10.00"># finalize()</text>
</a>
</g>
</g>
<!-- Node3&#45;&gt;Node2 -->
<g id="edge2" class="edge">
<title>Node3&#45;&gt;Node2</title>
<path fill="none" stroke="#63b8ff" d="M57.51,-483.03C58.22,-417.6 59.15,-331.62 59.79,-273.23"/>
<polygon fill="none" stroke="#63b8ff" points="54,-482.72 57.39,-492.76 61,-482.8 54,-482.72"/>
</g>
<!-- Node4 -->
<g id="node4" class="node">
<title>Node4</title>
<g id="a_node4"><a xlink:href="classanch_1_1crypto_1_1_s_h_a2.html" target="_top" xlink:title="SHA2 abstract class.">
<polygon fill="white" stroke="#666666" points="73,-332.5 73,-455.5 182,-455.5 182,-332.5 73,-332.5"/>
<text text-anchor="start" x="81" y="-443.5" font-family="Helvetica,sans-Serif" font-size="10.00">anch::crypto::SHA2</text>
<text text-anchor="middle" x="127.5" y="-432.5" font-family="Helvetica,sans-Serif" font-size="10.00">&lt; O, B, W, R, I &gt;</text>
<polyline fill="none" stroke="#666666" points="73,-425.5 182,-425.5"/>
<text text-anchor="start" x="81" y="-413.5" font-family="Helvetica,sans-Serif" font-size="10.00"># _context</text>
<polyline fill="none" stroke="#666666" points="73,-406.5 182,-406.5"/>
<text text-anchor="start" x="81" y="-394.5" font-family="Helvetica,sans-Serif" font-size="10.00">+ SHA2()</text>
<text text-anchor="start" x="81" y="-383.5" font-family="Helvetica,sans-Serif" font-size="10.00">+ ~SHA2()</text>
<text text-anchor="start" x="81" y="-372.5" font-family="Helvetica,sans-Serif" font-size="10.00">+ digest()</text>
<text text-anchor="start" x="81" y="-361.5" font-family="Helvetica,sans-Serif" font-size="10.00"># shiftRight()</text>
<text text-anchor="start" x="81" y="-350.5" font-family="Helvetica,sans-Serif" font-size="10.00"># rotateLeft()</text>
<text text-anchor="start" x="81" y="-339.5" font-family="Helvetica,sans-Serif" font-size="10.00"># rotateRight()</text>
</a>
</g>
</g>
<!-- Node3&#45;&gt;Node4 -->
<g id="edge4" class="edge">
<title>Node3&#45;&gt;Node4</title>
<path fill="none" stroke="#63b8ff" d="M92.7,-483.72C96.47,-474.12 100.22,-464.55 103.79,-455.43"/>
<polygon fill="none" stroke="#63b8ff" points="89.17,-482.12 88.78,-492.71 95.69,-484.68 89.17,-482.12"/>
</g>
<!-- Node4&#45;&gt;Node2 -->
<g id="edge3" class="edge">
<title>Node4&#45;&gt;Node2</title>
<path fill="none" stroke="orange" d="M102.07,-322.6C96.23,-306.43 90.05,-289.31 84.28,-273.34"/>
<polygon fill="orange" stroke="orange" points="98.97,-323.3 105.65,-331.52 105.55,-320.92 98.97,-323.3"/>
<text text-anchor="start" x="97.5" y="-306" font-family="Helvetica,sans-Serif" font-size="10.00"> &lt; O, 128, uint64_t,</text>
<text text-anchor="middle" x="145" y="-295" font-family="Helvetica,sans-Serif" font-size="10.00"> 80, I &gt;</text>
</g>
</g>
</svg>
        <g id="navigator" transform="translate(0 0)" fill="#404254">
                <rect fill="#f2f5e9" fill-opacity="0.5" stroke="#606060" stroke-width=".5" x="0" y="0" width="60" height="60"/>
                <use id="zoomplus" xlink:href="#zoomPlus" x="17" y="9" onmousedown="handleZoom(evt,'in')"/>
                <use id="zoomminus" xlink:href="#zoomMin" x="42" y="9" onmousedown="handleZoom(evt,'out')"/>
                <use id="reset" xlink:href="#resetDef" x="30" y="36" onmousedown="handleReset()"/>
                <g id="arrowUp" xlink:href="#dirArrow" transform="translate(30 24)" onmousedown="handlePan(0,-1)">
                  <use xlink:href="#rim" fill="#404040">
                        <set attributeName="fill" to="#808080" begin="arrowUp.mouseover" end="arrowUp.mouseout"/>
                  </use>
                  <path fill="none" stroke="white" stroke-width="1.5" d="M0,-3.0v7 M-2.5,-0.5L0,-3.0L2.5,-0.5"/>
                </g>
                <g id="arrowRight" xlink:href="#dirArrow" transform="rotate(90) translate(36 -43)" onmousedown="handlePan(1,0)">
                  <use xlink:href="#rim" fill="#404040">
                        <set attributeName="fill" to="#808080" begin="arrowRight.mouseover" end="arrowRight.mouseout"/>
                  </use>
                  <path fill="none" stroke="white" stroke-width="1.5" d="M0,-3.0v7 M-2.5,-0.5L0,-3.0L2.5,-0.5"/>
                </g>
                <g id="arrowDown" xlink:href="#dirArrow" transform="rotate(180) translate(-30 -48)" onmousedown="handlePan(0,1)">
                  <use xlink:href="#rim" fill="#404040">
                        <set attributeName="fill" to="#808080" begin="arrowDown.mouseover" end="arrowDown.mouseout"/>
                  </use>
                  <path fill="none" stroke="white" stroke-width="1.5" d="M0,-3.0v7 M-2.5,-0.5L0,-3.0L2.5,-0.5"/>
                </g>
                <g id="arrowLeft" xlink:href="#dirArrow" transform="rotate(270) translate(-36 17)" onmousedown="handlePan(-1,0)">
                  <use xlink:href="#rim" fill="#404040">
                        <set attributeName="fill" to="#808080" begin="arrowLeft.mouseover" end="arrowLeft.mouseout"/>
                  </use>
                  <path fill="none" stroke="white" stroke-width="1.5" d="M0,-3.0v7 M-2.5,-0.5L0,-3.0L2.5,-0.5"/>
                </g>
        </g>
        <svg viewBox="0 0 15 15" width="100%" height="30px" preserveAspectRatio="xMaxYMin meet">
         <g id="arrow_out" transform="scale(0.3 0.3)">
          <a xlink:href="classanch_1_1crypto_1_1_s_h_a384__512__inherit__graph_org.svg" target="_base">
           <rect id="button" ry="5" rx="5" y="6" x="6" height="38" width="38"
                fill="#f2f5e9" fill-opacity="0.5" stroke="#606060" stroke-width="1.0"/>
           <path id="arrow"
             d="M 11.500037,31.436501 C 11.940474,20.09759 22.043105,11.32322 32.158766,21.979434 L 37.068811,17.246167 C 37.068811,17.246167 37.088388,32 37.088388,32 L 22.160133,31.978069 C 22.160133,31.978069 26.997745,27.140456 26.997745,27.140456 C 18.528582,18.264221 13.291696,25.230495 11.500037,31.436501 z"
             style="fill:#404040;"/>
          </a>
         </g>
        </svg>
</svg>
