<?xml version="1.0" encoding="UTF-8" standalone="no"?>
<!DOCTYPE svg PUBLIC "-//W3C//DTD SVG 1.1//EN"
 "http://www.w3.org/Graphics/SVG/1.1/DTD/svg11.dtd">
<!-- Generated by graphviz version 12.0.0 (0)
 -->
<!-- Title: anch::sql::SqlConnectionFactory Pages: 1 -->
<svg width="222pt" height="292pt"
 viewBox="0.00 0.00 221.50 291.75" xmlns="http://www.w3.org/2000/svg" xmlns:xlink="http://www.w3.org/1999/xlink">
<g id="graph0" class="graph" transform="scale(1 1) rotate(0) translate(4 287.75)">
<title>anch::sql::SqlConnectionFactory</title>
<!-- Node1 -->
<g id="Node000001" class="node">
<title>Node1</title>
<g id="a_Node000001"><a xlink:title="SQL connection factory.">
<polygon fill="#999999" stroke="none" points="147.5,-81 18.5,-81 18.5,0 147.5,0 147.5,-81"/>
<text text-anchor="start" x="23.38" y="-67.5" font-family="Helvetica,sans-Serif" font-size="10.00">anch::sql::SqlConnection</text>
<text text-anchor="start" x="65.38" y="-54.75" font-family="Helvetica,sans-Serif" font-size="10.00">Factory</text>
<text text-anchor="start" x="81.5" y="-38.5" font-family="Helvetica,sans-Serif" font-size="10.00"> </text>
<text text-anchor="start" x="26.38" y="-22.5" font-family="Helvetica,sans-Serif" font-size="10.00">+</text>
<text text-anchor="start" x="42.5" y="-22.5" font-family="Helvetica,sans-Serif" font-size="10.00">createConnection()</text>
<text text-anchor="start" x="26.38" y="-6.5" font-family="Helvetica,sans-Serif" font-size="10.00">+</text>
<text text-anchor="start" x="42.5" y="-6.5" font-family="Helvetica,sans-Serif" font-size="10.00">getPool()</text>
<polygon fill="#666666" stroke="#666666" points="18.5,-50 18.5,-50 147.5,-50 147.5,-50 18.5,-50"/>
<polygon fill="#666666" stroke="#666666" points="18.5,-34 18.5,-34 147.5,-34 147.5,-34 18.5,-34"/>
<polygon fill="none" stroke="#666666" points="18.5,0 18.5,-81 147.5,-81 147.5,0 18.5,0"/>
</a>
</g>
</g>
<!-- Node2 -->
<g id="Node000002" class="node">
<title>Node2</title>
<g id="a_Node000002"><a xlink:href="classanch_1_1_singleton.html" target="_top" xlink:title=" ">
<polygon fill="white" stroke="none" points="166,-183 0,-183 0,-118 166,-118 166,-183"/>
<text text-anchor="start" x="5" y="-169.5" font-family="Helvetica,sans-Serif" font-size="10.00">anch::Singleton&lt; SqlConnection</text>
<text text-anchor="start" x="59.75" y="-156.75" font-family="Helvetica,sans-Serif" font-size="10.00">Factory &gt;</text>
<text text-anchor="start" x="81.5" y="-140.5" font-family="Helvetica,sans-Serif" font-size="10.00"> </text>
<text text-anchor="start" x="24.38" y="-124.5" font-family="Helvetica,sans-Serif" font-size="10.00">+</text>
<text text-anchor="start" x="57" y="-124.5" font-family="Helvetica,sans-Serif" font-size="10.00">getInstance()</text>
<polygon fill="#666666" stroke="#666666" points="0,-152 0,-152 166,-152 166,-152 0,-152"/>
<polygon fill="#666666" stroke="#666666" points="0,-136 0,-136 166,-136 166,-136 0,-136"/>
<polygon fill="none" stroke="#666666" points="0,-118 0,-183 166,-183 166,-118 0,-118"/>
</a>
</g>
</g>
<!-- Node2&#45;&gt;Node1 -->
<g id="edge1_Node000001_Node000002" class="edge">
<title>Node2&#45;&gt;Node1</title>
<g id="a_edge1_Node000001_Node000002"><a xlink:title=" ">
<path fill="none" stroke="#63b8ff" d="M83,-106.86C83,-98.25 83,-89.23 83,-80.74"/>
<polygon fill="none" stroke="#63b8ff" points="79.5,-106.75 83,-116.75 86.5,-106.75 79.5,-106.75"/>
</a>
</g>
</g>
<!-- Node3 -->
<g id="Node000003" class="node">
<title>Node3</title>
<g id="a_Node000003"><a xlink:href="classanch_1_1_singleton.html" target="_top" xlink:title="Meyers&#39; singleton implemtation.">
<polygon fill="white" stroke="none" points="139.5,-283.75 26.5,-283.75 26.5,-231.75 139.5,-231.75 139.5,-283.75"/>
<text text-anchor="start" x="31.25" y="-270.25" font-family="Helvetica,sans-Serif" font-size="10.00">anch::Singleton&lt; T &gt;</text>
<text text-anchor="start" x="81.5" y="-254.25" font-family="Helvetica,sans-Serif" font-size="10.00"> </text>
<text text-anchor="start" x="37.38" y="-238.25" font-family="Helvetica,sans-Serif" font-size="10.00">+</text>
<text text-anchor="start" x="56.5" y="-238.25" font-family="Helvetica,sans-Serif" font-size="10.00">getInstance()</text>
<polygon fill="#666666" stroke="#666666" points="26.5,-265.75 26.5,-265.75 139.5,-265.75 139.5,-265.75 26.5,-265.75"/>
<polygon fill="#666666" stroke="#666666" points="26.5,-249.75 26.5,-249.75 139.5,-249.75 139.5,-249.75 26.5,-249.75"/>
<polygon fill="none" stroke="#666666" points="26.5,-231.75 26.5,-283.75 139.5,-283.75 139.5,-231.75 26.5,-231.75"/>
</a>
</g>
</g>
<!-- Node3&#45;&gt;Node2 -->
<g id="edge2_Node000002_Node000003" class="edge">
<title>Node3&#45;&gt;Node2</title>
<g id="a_edge2_Node000002_Node000003"><a xlink:title=" ">
<path fill="none" stroke="orange" d="M83,-220.51C83,-208.2 83,-194.55 83,-182.67"/>
<polygon fill="orange" stroke="orange" points="79.5,-220.29 83,-230.29 86.5,-220.29 79.5,-220.29"/>
</a>
</g>
<text text-anchor="middle" x="148.25" y="-204.25" font-family="Helvetica,sans-Serif" font-size="10.00" fill="grey"> &lt; SqlConnectionFactory &gt;</text>
</g>
</g>
</svg>
