<?xml version="1.0" encoding="UTF-8" standalone="no"?>
<!DOCTYPE svg PUBLIC "-//W3C//DTD SVG 1.1//EN"
 "http://www.w3.org/Graphics/SVG/1.1/DTD/svg11.dtd">
<!-- Generated by graphviz version 2.43.20190912.0211 (20190912.0211)
 -->
<!-- Title: anch::sql::ResultSet Pages: 1 -->
<svg width="251pt" height="612pt"
 viewBox="0.00 0.00 251.00 612.00" xmlns="http://www.w3.org/2000/svg" xmlns:xlink="http://www.w3.org/1999/xlink">
<g id="graph0" class="graph" transform="scale(1 1) rotate(0) translate(4 608)">
<title>anch::sql::ResultSet</title>
<!-- Node1 -->
<g id="node1" class="node">
<title>Node1</title>
<g id="a_node1"><a xlink:title="SQL result representation.">
<polygon fill="#bfbfbf" stroke="black" points="6.5,-0.5 6.5,-255.5 197.5,-255.5 197.5,-0.5 6.5,-0.5"/>
<text text-anchor="middle" x="102" y="-243.5" font-family="Helvetica,sans-Serif" font-size="10.00">anch::sql::ResultSet</text>
<polyline fill="none" stroke="black" points="6.5,-236.5 197.5,-236.5 "/>
<text text-anchor="middle" x="102" y="-224.5" font-family="Helvetica,sans-Serif" font-size="10.00"> </text>
<polyline fill="none" stroke="black" points="6.5,-217.5 197.5,-217.5 "/>
<text text-anchor="start" x="14.5" y="-205.5" font-family="Helvetica,sans-Serif" font-size="10.00">+ ResultSet()</text>
<text text-anchor="start" x="14.5" y="-194.5" font-family="Helvetica,sans-Serif" font-size="10.00">+ ~ResultSet()</text>
<text text-anchor="start" x="14.5" y="-183.5" font-family="Helvetica,sans-Serif" font-size="10.00">+ get()</text>
<text text-anchor="start" x="14.5" y="-172.5" font-family="Helvetica,sans-Serif" font-size="10.00">+ get()</text>
<text text-anchor="start" x="14.5" y="-161.5" font-family="Helvetica,sans-Serif" font-size="10.00">+ get()</text>
<text text-anchor="start" x="14.5" y="-150.5" font-family="Helvetica,sans-Serif" font-size="10.00">+ get()</text>
<text text-anchor="start" x="14.5" y="-139.5" font-family="Helvetica,sans-Serif" font-size="10.00">+ next()</text>
<text text-anchor="start" x="14.5" y="-128.5" font-family="Helvetica,sans-Serif" font-size="10.00">+ get()</text>
<text text-anchor="start" x="14.5" y="-117.5" font-family="Helvetica,sans-Serif" font-size="10.00">+ get()</text>
<text text-anchor="start" x="14.5" y="-106.5" font-family="Helvetica,sans-Serif" font-size="10.00">+ get()</text>
<text text-anchor="start" x="14.5" y="-95.5" font-family="Helvetica,sans-Serif" font-size="10.00">and 9 more...</text>
<text text-anchor="start" x="14.5" y="-84.5" font-family="Helvetica,sans-Serif" font-size="10.00"># getValue()</text>
<text text-anchor="start" x="14.5" y="-73.5" font-family="Helvetica,sans-Serif" font-size="10.00"># getValue()</text>
<text text-anchor="start" x="14.5" y="-62.5" font-family="Helvetica,sans-Serif" font-size="10.00"># getDateFormatter()</text>
<text text-anchor="start" x="14.5" y="-51.5" font-family="Helvetica,sans-Serif" font-size="10.00"># getTimeFormatter()</text>
<text text-anchor="start" x="14.5" y="-40.5" font-family="Helvetica,sans-Serif" font-size="10.00"># getTimestampFormatter()</text>
<text text-anchor="start" x="14.5" y="-29.5" font-family="Helvetica,sans-Serif" font-size="10.00"># getDefaultDateFormatter()</text>
<text text-anchor="start" x="14.5" y="-18.5" font-family="Helvetica,sans-Serif" font-size="10.00"># getDefaultTimeFormatter()</text>
<text text-anchor="start" x="14.5" y="-7.5" font-family="Helvetica,sans-Serif" font-size="10.00"># getDefaultTimestampFormatter()</text>
</a>
</g>
</g>
<!-- Node2 -->
<g id="node2" class="node">
<title>Node2</title>
<g id="a_node2"><a xlink:title=" ">
<polygon fill="none" stroke="#bfbfbf" points="41,-303.5 41,-371.5 163,-371.5 163,-303.5 41,-303.5"/>
<text text-anchor="start" x="49" y="-359.5" font-family="Helvetica,sans-Serif" font-size="10.00">std::map&lt; std::string,</text>
<text text-anchor="middle" x="102" y="-348.5" font-family="Helvetica,sans-Serif" font-size="10.00"> std::size_t &gt;</text>
<polyline fill="none" stroke="#bfbfbf" points="41,-341.5 163,-341.5 "/>
<text text-anchor="start" x="49" y="-329.5" font-family="Helvetica,sans-Serif" font-size="10.00">+ elements</text>
<polyline fill="none" stroke="#bfbfbf" points="41,-322.5 163,-322.5 "/>
<text text-anchor="middle" x="102" y="-310.5" font-family="Helvetica,sans-Serif" font-size="10.00"> </text>
</a>
</g>
</g>
<!-- Node2&#45;&gt;Node1 -->
<g id="edge1" class="edge">
<title>Node2&#45;&gt;Node1</title>
<path fill="none" stroke="#404040" d="M102,-303.16C102,-292.81 102,-280.69 102,-267.75"/>
<polygon fill="none" stroke="#404040" points="102,-267.66 98,-261.66 102,-255.66 106,-261.66 102,-267.66"/>
<text text-anchor="middle" x="123.5" y="-277" font-family="Helvetica,sans-Serif" font-size="10.00"> #_fields</text>
</g>
<!-- Node3 -->
<g id="node3" class="node">
<title>Node3</title>
<g id="a_node3"><a xlink:title="STL class.">
<polygon fill="none" stroke="#bfbfbf" points="19.5,-430.5 19.5,-487.5 84.5,-487.5 84.5,-430.5 19.5,-430.5"/>
<text text-anchor="middle" x="52" y="-475.5" font-family="Helvetica,sans-Serif" font-size="10.00">std::string</text>
<polyline fill="none" stroke="#bfbfbf" points="19.5,-468.5 84.5,-468.5 "/>
<text text-anchor="middle" x="52" y="-456.5" font-family="Helvetica,sans-Serif" font-size="10.00"> </text>
<polyline fill="none" stroke="#bfbfbf" points="19.5,-449.5 84.5,-449.5 "/>
<text text-anchor="middle" x="52" y="-437.5" font-family="Helvetica,sans-Serif" font-size="10.00"> </text>
</a>
</g>
</g>
<!-- Node3&#45;&gt;Node2 -->
<g id="edge2" class="edge">
<title>Node3&#45;&gt;Node2</title>
<path fill="none" stroke="#404040" d="M63.6,-430.28C69.49,-416.19 76.8,-398.72 83.46,-382.82"/>
<polygon fill="none" stroke="#404040" points="83.52,-382.66 82.15,-375.58 88.16,-371.59 89.53,-378.67 83.52,-382.66"/>
<text text-anchor="middle" x="97" y="-398.5" font-family="Helvetica,sans-Serif" font-size="10.00"> +keys</text>
</g>
<!-- Node4 -->
<g id="node4" class="node">
<title>Node4</title>
<g id="a_node4"><a xlink:title="STL class.">
<polygon fill="none" stroke="#bfbfbf" points="0,-535.5 0,-603.5 104,-603.5 104,-535.5 0,-535.5"/>
<text text-anchor="start" x="8" y="-591.5" font-family="Helvetica,sans-Serif" font-size="10.00">std::basic_string&lt;</text>
<text text-anchor="middle" x="52" y="-580.5" font-family="Helvetica,sans-Serif" font-size="10.00"> char &gt;</text>
<polyline fill="none" stroke="#bfbfbf" points="0,-573.5 104,-573.5 "/>
<text text-anchor="middle" x="52" y="-561.5" font-family="Helvetica,sans-Serif" font-size="10.00"> </text>
<polyline fill="none" stroke="#bfbfbf" points="0,-554.5 104,-554.5 "/>
<text text-anchor="middle" x="52" y="-542.5" font-family="Helvetica,sans-Serif" font-size="10.00"> </text>
</a>
</g>
</g>
<!-- Node4&#45;&gt;Node3 -->
<g id="edge3" class="edge">
<title>Node4&#45;&gt;Node3</title>
<path fill="none" stroke="midnightblue" d="M52,-525.06C52,-512.51 52,-499.15 52,-487.83"/>
<polygon fill="none" stroke="midnightblue" points="48.5,-525.36 52,-535.36 55.5,-525.36 48.5,-525.36"/>
</g>
<!-- Node5 -->
<g id="node5" class="node">
<title>Node5</title>
<g id="a_node5"><a xlink:title="STL class.">
<polygon fill="none" stroke="#bfbfbf" points="102.5,-430.5 102.5,-487.5 203.5,-487.5 203.5,-430.5 102.5,-430.5"/>
<text text-anchor="middle" x="153" y="-475.5" font-family="Helvetica,sans-Serif" font-size="10.00">std::map&lt; K, T &gt;</text>
<polyline fill="none" stroke="#bfbfbf" points="102.5,-468.5 203.5,-468.5 "/>
<text text-anchor="middle" x="153" y="-456.5" font-family="Helvetica,sans-Serif" font-size="10.00"> </text>
<polyline fill="none" stroke="#bfbfbf" points="102.5,-449.5 203.5,-449.5 "/>
<text text-anchor="middle" x="153" y="-437.5" font-family="Helvetica,sans-Serif" font-size="10.00"> </text>
</a>
</g>
</g>
<!-- Node5&#45;&gt;Node2 -->
<g id="edge4" class="edge">
<title>Node5&#45;&gt;Node2</title>
<path fill="none" stroke="orange" d="M137.14,-420.84C130.42,-405.09 122.64,-386.87 116.12,-371.59"/>
<polygon fill="orange" stroke="orange" points="134.03,-422.46 141.17,-430.28 140.47,-419.71 134.03,-422.46"/>
<text text-anchor="start" x="133" y="-404" font-family="Helvetica,sans-Serif" font-size="10.00"> &lt; std::string, std</text>
<text text-anchor="middle" x="175.5" y="-393" font-family="Helvetica,sans-Serif" font-size="10.00">::size_t &gt;</text>
</g>
<!-- Node6 -->
<g id="node6" class="node">
<title>Node6</title>
<g id="a_node6"><a xlink:title=" ">
<polygon fill="none" stroke="#bfbfbf" points="130.5,-541 130.5,-598 159.5,-598 159.5,-541 130.5,-541"/>
<text text-anchor="middle" x="145" y="-586" font-family="Helvetica,sans-Serif" font-size="10.00">K</text>
<polyline fill="none" stroke="#bfbfbf" points="130.5,-579 159.5,-579 "/>
<text text-anchor="middle" x="145" y="-567" font-family="Helvetica,sans-Serif" font-size="10.00"> </text>
<polyline fill="none" stroke="#bfbfbf" points="130.5,-560 159.5,-560 "/>
<text text-anchor="middle" x="145" y="-548" font-family="Helvetica,sans-Serif" font-size="10.00"> </text>
</a>
</g>
</g>
<!-- Node6&#45;&gt;Node5 -->
<g id="edge5" class="edge">
<title>Node6&#45;&gt;Node5</title>
<path fill="none" stroke="#404040" d="M144.64,-540.77C144.71,-529.91 145.05,-517.35 146,-506 146.17,-503.95 146.38,-501.86 146.61,-499.74"/>
<polygon fill="none" stroke="#404040" points="146.63,-499.56 143.44,-493.1 148.17,-487.66 151.37,-494.12 146.63,-499.56"/>
<text text-anchor="middle" x="163" y="-509" font-family="Helvetica,sans-Serif" font-size="10.00"> +keys</text>
</g>
<!-- Node7 -->
<g id="node7" class="node">
<title>Node7</title>
<g id="a_node7"><a xlink:title=" ">
<polygon fill="none" stroke="#bfbfbf" points="187.5,-541 187.5,-598 216.5,-598 216.5,-541 187.5,-541"/>
<text text-anchor="middle" x="202" y="-586" font-family="Helvetica,sans-Serif" font-size="10.00">T</text>
<polyline fill="none" stroke="#bfbfbf" points="187.5,-579 216.5,-579 "/>
<text text-anchor="middle" x="202" y="-567" font-family="Helvetica,sans-Serif" font-size="10.00"> </text>
<polyline fill="none" stroke="#bfbfbf" points="187.5,-560 216.5,-560 "/>
<text text-anchor="middle" x="202" y="-548" font-family="Helvetica,sans-Serif" font-size="10.00"> </text>
</a>
</g>
</g>
<!-- Node7&#45;&gt;Node5 -->
<g id="edge6" class="edge">
<title>Node7&#45;&gt;Node5</title>
<path fill="none" stroke="#404040" d="M193.58,-540.97C189.88,-529.91 185.18,-517.16 180,-506 178.86,-503.54 177.63,-501.05 176.34,-498.55"/>
<polygon fill="none" stroke="#404040" points="176.2,-498.29 169.81,-494.94 170.44,-487.76 176.83,-491.11 176.2,-498.29"/>
<text text-anchor="middle" x="214" y="-509" font-family="Helvetica,sans-Serif" font-size="10.00"> +elements</text>
</g>
</g>
</svg>
