<?xml version="1.0" encoding="UTF-8" standalone="no"?>
<!DOCTYPE svg PUBLIC "-//W3C//DTD SVG 1.1//EN"
 "http://www.w3.org/Graphics/SVG/1.1/DTD/svg11.dtd">
<!-- Generated by graphviz version 8.0.1 (0)
 -->
<!-- Title: anch::date::InvalidFormatException Pages: 1 -->
<svg width="167pt" height="193pt"
 viewBox="0.00 0.00 167.00 193.00" xmlns="http://www.w3.org/2000/svg" xmlns:xlink="http://www.w3.org/1999/xlink">
<g id="graph0" class="graph" transform="scale(1 1) rotate(0) translate(4 189)">
<title>anch::date::InvalidFormatException</title>
<!-- Node1 -->
<g id="node1" class="node">
<title>Node1</title>
<g id="a_node1"><a xlink:title="Invalid date format error.">
<polygon fill="#999999" stroke="#666666" points="0,-0.5 0,-90.5 159,-90.5 159,-0.5 0,-0.5"/>
<text text-anchor="start" x="8" y="-78.5" font-family="Helvetica,sans-Serif" font-size="10.00">anch::date::InvalidFormat</text>
<text text-anchor="middle" x="79.5" y="-67.5" font-family="Helvetica,sans-Serif" font-size="10.00">Exception</text>
<polyline fill="none" stroke="#666666" points="0,-60.5 159,-60.5"/>
<text text-anchor="middle" x="79.5" y="-48.5" font-family="Helvetica,sans-Serif" font-size="10.00"> </text>
<polyline fill="none" stroke="#666666" points="0,-41.5 159,-41.5"/>
<text text-anchor="start" x="8" y="-29.5" font-family="Helvetica,sans-Serif" font-size="10.00">+ InvalidFormatException()</text>
<text text-anchor="start" x="8" y="-18.5" font-family="Helvetica,sans-Serif" font-size="10.00">+ ~InvalidFormatException()</text>
<text text-anchor="start" x="8" y="-7.5" font-family="Helvetica,sans-Serif" font-size="10.00">+ what()</text>
</a>
</g>
</g>
<!-- Node2 -->
<g id="node2" class="node">
<title>Node2</title>
<g id="a_node2"><a xlink:title=" ">
<polygon fill="white" stroke="#666666" points="36.5,-127.5 36.5,-184.5 122.5,-184.5 122.5,-127.5 36.5,-127.5"/>
<text text-anchor="middle" x="79.5" y="-172.5" font-family="Helvetica,sans-Serif" font-size="10.00">std::exception</text>
<polyline fill="none" stroke="#666666" points="36.5,-165.5 122.5,-165.5"/>
<text text-anchor="middle" x="79.5" y="-153.5" font-family="Helvetica,sans-Serif" font-size="10.00"> </text>
<polyline fill="none" stroke="#666666" points="36.5,-146.5 122.5,-146.5"/>
<text text-anchor="middle" x="79.5" y="-134.5" font-family="Helvetica,sans-Serif" font-size="10.00"> </text>
</a>
</g>
</g>
<!-- Node2&#45;&gt;Node1 -->
<g id="edge1" class="edge">
<title>Node2&#45;&gt;Node1</title>
<path fill="none" stroke="#63b8ff" d="M79.5,-116.79C79.5,-108.24 79.5,-99.1 79.5,-90.34"/>
<polygon fill="none" stroke="#63b8ff" points="76,-116.62 79.5,-126.62 83,-116.62 76,-116.62"/>
</g>
</g>
</svg>
