<?xml version="1.0" encoding="UTF-8" standalone="no"?>
<!DOCTYPE svg PUBLIC "-//W3C//DTD SVG 1.1//EN"
 "http://www.w3.org/Graphics/SVG/1.1/DTD/svg11.dtd">
<!-- Generated by graphviz version 13.1.2 (0)
 -->
<!-- Title: anch::sql::Timestamp Pages: 1 -->
<svg width="111pt" height="655pt"
 viewBox="0.00 0.00 111.00 655.00" xmlns="http://www.w3.org/2000/svg" xmlns:xlink="http://www.w3.org/1999/xlink">
<g id="graph0" class="graph" transform="scale(1 1) rotate(0) translate(4 651)">
<title>anch::sql::Timestamp</title>
<!-- Node1 -->
<g id="Node000001" class="node">
<title>Node1</title>
<g id="a_Node000001"><a xlink:title="SQL timestamp type.">
<polygon fill="#999999" stroke="none" points="102.5,-116 0,-116 0,0 102.5,0 102.5,-116"/>
<text xml:space="preserve" text-anchor="start" x="4" y="-102.5" font-family="Helvetica,sans-Serif" font-size="10.00">anch::sql::Timestamp</text>
<text xml:space="preserve" text-anchor="start" x="49.75" y="-86.5" font-family="Helvetica,sans-Serif" font-size="10.00"> </text>
<text xml:space="preserve" text-anchor="start" x="9.94" y="-70.5" font-family="Helvetica,sans-Serif" font-size="10.00">+</text>
<text xml:space="preserve" text-anchor="start" x="25.88" y="-70.5" font-family="Helvetica,sans-Serif" font-size="10.00">Timestamp()</text>
<text xml:space="preserve" text-anchor="start" x="9.94" y="-54.5" font-family="Helvetica,sans-Serif" font-size="10.00">+</text>
<text xml:space="preserve" text-anchor="start" x="25.88" y="-54.5" font-family="Helvetica,sans-Serif" font-size="10.00">Timestamp()</text>
<text xml:space="preserve" text-anchor="start" x="9.94" y="-38.5" font-family="Helvetica,sans-Serif" font-size="10.00">+</text>
<text xml:space="preserve" text-anchor="start" x="25.88" y="-38.5" font-family="Helvetica,sans-Serif" font-size="10.00">Timestamp()</text>
<text xml:space="preserve" text-anchor="start" x="9.94" y="-22.5" font-family="Helvetica,sans-Serif" font-size="10.00">+</text>
<text xml:space="preserve" text-anchor="start" x="25.88" y="-22.5" font-family="Helvetica,sans-Serif" font-size="10.00">Timestamp()</text>
<text xml:space="preserve" text-anchor="start" x="9.94" y="-6.5" font-family="Helvetica,sans-Serif" font-size="10.00">+</text>
<text xml:space="preserve" text-anchor="start" x="25.88" y="-6.5" font-family="Helvetica,sans-Serif" font-size="10.00">~Timestamp()</text>
<polygon fill="#666666" stroke="#666666" points="0,-98 0,-98 102.5,-98 102.5,-98 0,-98"/>
<polygon fill="#666666" stroke="#666666" points="0,-82 0,-82 102.5,-82 102.5,-82 0,-82"/>
<polygon fill="none" stroke="#666666" points="0,0 0,-116 102.5,-116 102.5,0 0,0"/>
</a>
</g>
</g>
<!-- Node2 -->
<g id="Node000002" class="node">
<title>Node2</title>
<g id="a_Node000002"><a xlink:href="classanch_1_1date_1_1_date.html" target="_top" xlink:title=" ">
<polygon fill="white" stroke="none" points="93.25,-541 9.25,-541 9.25,-153 93.25,-153 93.25,-541"/>
<text xml:space="preserve" text-anchor="start" x="14.88" y="-527.5" font-family="Helvetica,sans-Serif" font-size="10.00">anch::date::Date</text>
<text xml:space="preserve" text-anchor="start" x="13.62" y="-511.5" font-family="Helvetica,sans-Serif" font-size="10.00">#</text>
<text xml:space="preserve" text-anchor="start" x="23.25" y="-511.5" font-family="Helvetica,sans-Serif" font-size="10.00">_timestamp</text>
<text xml:space="preserve" text-anchor="start" x="13.62" y="-495.5" font-family="Helvetica,sans-Serif" font-size="10.00">#</text>
<text xml:space="preserve" text-anchor="start" x="23.25" y="-495.5" font-family="Helvetica,sans-Serif" font-size="10.00">_years</text>
<text xml:space="preserve" text-anchor="start" x="13.62" y="-479.5" font-family="Helvetica,sans-Serif" font-size="10.00">#</text>
<text xml:space="preserve" text-anchor="start" x="23.25" y="-479.5" font-family="Helvetica,sans-Serif" font-size="10.00">_months</text>
<text xml:space="preserve" text-anchor="start" x="13.62" y="-463.5" font-family="Helvetica,sans-Serif" font-size="10.00">#</text>
<text xml:space="preserve" text-anchor="start" x="23.25" y="-463.5" font-family="Helvetica,sans-Serif" font-size="10.00">_ydays</text>
<text xml:space="preserve" text-anchor="start" x="13.62" y="-447.5" font-family="Helvetica,sans-Serif" font-size="10.00">#</text>
<text xml:space="preserve" text-anchor="start" x="23.25" y="-447.5" font-family="Helvetica,sans-Serif" font-size="10.00">_mdays</text>
<text xml:space="preserve" text-anchor="start" x="13.62" y="-431.5" font-family="Helvetica,sans-Serif" font-size="10.00">#</text>
<text xml:space="preserve" text-anchor="start" x="23.25" y="-431.5" font-family="Helvetica,sans-Serif" font-size="10.00">_wdays</text>
<text xml:space="preserve" text-anchor="start" x="13.62" y="-415.5" font-family="Helvetica,sans-Serif" font-size="10.00">#</text>
<text xml:space="preserve" text-anchor="start" x="23.25" y="-415.5" font-family="Helvetica,sans-Serif" font-size="10.00">_hours</text>
<text xml:space="preserve" text-anchor="start" x="13.62" y="-399.5" font-family="Helvetica,sans-Serif" font-size="10.00">#</text>
<text xml:space="preserve" text-anchor="start" x="23.25" y="-399.5" font-family="Helvetica,sans-Serif" font-size="10.00">_minutes</text>
<text xml:space="preserve" text-anchor="start" x="13.62" y="-383.5" font-family="Helvetica,sans-Serif" font-size="10.00">#</text>
<text xml:space="preserve" text-anchor="start" x="23.25" y="-383.5" font-family="Helvetica,sans-Serif" font-size="10.00">_seconds</text>
<text xml:space="preserve" text-anchor="start" x="13.62" y="-367.5" font-family="Helvetica,sans-Serif" font-size="10.00">#</text>
<text xml:space="preserve" text-anchor="start" x="23.25" y="-367.5" font-family="Helvetica,sans-Serif" font-size="10.00">_milliseconds</text>
<text xml:space="preserve" text-anchor="start" x="13.62" y="-351.5" font-family="Helvetica,sans-Serif" font-size="10.00">#</text>
<text xml:space="preserve" text-anchor="start" x="23.25" y="-351.5" font-family="Helvetica,sans-Serif" font-size="10.00">_microseconds</text>
<text xml:space="preserve" text-anchor="start" x="13.62" y="-335.5" font-family="Helvetica,sans-Serif" font-size="10.00">#</text>
<text xml:space="preserve" text-anchor="start" x="23.25" y="-335.5" font-family="Helvetica,sans-Serif" font-size="10.00">_nanoseconds</text>
<text xml:space="preserve" text-anchor="start" x="13.25" y="-319.5" font-family="Helvetica,sans-Serif" font-size="10.00">+</text>
<text xml:space="preserve" text-anchor="start" x="23.25" y="-319.5" font-family="Helvetica,sans-Serif" font-size="10.00">Date()</text>
<text xml:space="preserve" text-anchor="start" x="13.25" y="-303.5" font-family="Helvetica,sans-Serif" font-size="10.00">+</text>
<text xml:space="preserve" text-anchor="start" x="23.25" y="-303.5" font-family="Helvetica,sans-Serif" font-size="10.00">Date()</text>
<text xml:space="preserve" text-anchor="start" x="13.25" y="-287.5" font-family="Helvetica,sans-Serif" font-size="10.00">+</text>
<text xml:space="preserve" text-anchor="start" x="23.25" y="-287.5" font-family="Helvetica,sans-Serif" font-size="10.00">Date()</text>
<text xml:space="preserve" text-anchor="start" x="13.25" y="-271.5" font-family="Helvetica,sans-Serif" font-size="10.00">+</text>
<text xml:space="preserve" text-anchor="start" x="23.25" y="-271.5" font-family="Helvetica,sans-Serif" font-size="10.00">Date()</text>
<text xml:space="preserve" text-anchor="start" x="13.25" y="-255.5" font-family="Helvetica,sans-Serif" font-size="10.00">+</text>
<text xml:space="preserve" text-anchor="start" x="23.25" y="-255.5" font-family="Helvetica,sans-Serif" font-size="10.00">~Date()</text>
<text xml:space="preserve" text-anchor="start" x="13.25" y="-239.5" font-family="Helvetica,sans-Serif" font-size="10.00">+</text>
<text xml:space="preserve" text-anchor="start" x="23.25" y="-239.5" font-family="Helvetica,sans-Serif" font-size="10.00">after()</text>
<text xml:space="preserve" text-anchor="start" x="13.25" y="-223.5" font-family="Helvetica,sans-Serif" font-size="10.00">+</text>
<text xml:space="preserve" text-anchor="start" x="23.25" y="-223.5" font-family="Helvetica,sans-Serif" font-size="10.00">before()</text>
<text xml:space="preserve" text-anchor="start" x="13.25" y="-207.5" font-family="Helvetica,sans-Serif" font-size="10.00">+</text>
<text xml:space="preserve" text-anchor="start" x="23.25" y="-207.5" font-family="Helvetica,sans-Serif" font-size="10.00">equals()</text>
<text xml:space="preserve" text-anchor="start" x="13.25" y="-191.5" font-family="Helvetica,sans-Serif" font-size="10.00">+</text>
<text xml:space="preserve" text-anchor="start" x="23.25" y="-191.5" font-family="Helvetica,sans-Serif" font-size="10.00">operator&gt;()</text>
<text xml:space="preserve" text-anchor="start" x="13.25" y="-175.5" font-family="Helvetica,sans-Serif" font-size="10.00">+</text>
<text xml:space="preserve" text-anchor="start" x="23.25" y="-175.5" font-family="Helvetica,sans-Serif" font-size="10.00">operator&gt;=()</text>
<text xml:space="preserve" text-anchor="start" x="23.25" y="-159.5" font-family="Helvetica,sans-Serif" font-size="10.00">and 7 more...</text>
<polygon fill="#666666" stroke="#666666" points="9.25,-523 9.25,-523 93.25,-523 93.25,-523 9.25,-523"/>
<polygon fill="#666666" stroke="#666666" points="9.25,-331 9.25,-331 21.25,-331 21.25,-331 9.25,-331"/>
<polygon fill="#666666" stroke="#666666" points="21.25,-331 21.25,-331 93.25,-331 93.25,-331 21.25,-331"/>
<polygon fill="none" stroke="#666666" points="9.25,-153 9.25,-541 93.25,-541 93.25,-153 9.25,-153"/>
</a>
</g>
</g>
<!-- Node2&#45;&gt;Node1 -->
<g id="edge1_Node000001_Node000002" class="edge">
<title>Node2&#45;&gt;Node1</title>
<g id="a_edge1_Node000001_Node000002"><a xlink:title=" ">
<path fill="none" stroke="#63b8ff" d="M51.25,-141.99C51.25,-132.81 51.25,-124.03 51.25,-115.86"/>
<polygon fill="none" stroke="#63b8ff" points="47.75,-141.86 51.25,-151.86 54.75,-141.86 47.75,-141.86"/>
</a>
</g>
</g>
<!-- Node3 -->
<g id="Node000003" class="node">
<title>Node3</title>
<g id="a_Node000003"><a xlink:title=" ">
<polygon fill="white" stroke="none" points="78.5,-647 24,-647 24,-595 78.5,-595 78.5,-647"/>
<text xml:space="preserve" text-anchor="start" x="28" y="-633.5" font-family="Helvetica,sans-Serif" font-size="10.00">std::mutex</text>
<text xml:space="preserve" text-anchor="start" x="49.75" y="-617.5" font-family="Helvetica,sans-Serif" font-size="10.00"> </text>
<text xml:space="preserve" text-anchor="start" x="49.75" y="-601.5" font-family="Helvetica,sans-Serif" font-size="10.00"> </text>
<polygon fill="#666666" stroke="#666666" points="24,-629 24,-629 78.5,-629 78.5,-629 24,-629"/>
<polygon fill="#666666" stroke="#666666" points="24,-613 24,-613 78.5,-613 78.5,-613 24,-613"/>
<polygon fill="none" stroke="#666666" points="24,-595 24,-647 78.5,-647 78.5,-595 24,-595"/>
</a>
</g>
</g>
<!-- Node3&#45;&gt;Node2 -->
<g id="edge2_Node000002_Node000003" class="edge">
<title>Node3&#45;&gt;Node2</title>
<g id="a_edge2_Node000002_Node000003"><a xlink:title=" ">
<path fill="none" stroke="#63b8ff" d="M51.25,-595.38C51.25,-584.18 51.25,-569.8 51.25,-553.62"/>
<polygon fill="none" stroke="#63b8ff" points="51.25,-553.82 47.25,-547.82 51.25,-541.82 55.25,-547.82 51.25,-553.82"/>
</a>
</g>
<text xml:space="preserve" text-anchor="start" x="54.25" y="-564.5" font-family="Helvetica,sans-Serif" font-size="10.00" fill="grey">#_mutex</text>
</g>
</g>
</svg>
