<?xml version="1.0" encoding="UTF-8" standalone="no"?>
<!DOCTYPE svg PUBLIC "-//W3C//DTD SVG 1.1//EN"
 "http://www.w3.org/Graphics/SVG/1.1/DTD/svg11.dtd">
<!-- Generated by graphviz version 13.1.0 (0)
 -->
<!-- Title: anch::logger::Writer Pages: 1 -->
<!--zoomable 569 -->

<svg id="main" version="1.1" xmlns="http://www.w3.org/2000/svg" xmlns:xlink="http://www.w3.org/1999/xlink" xml:space="preserve" onload="init(evt)">

<style type="text/css"><![CDATA[
.node, .edge {opacity: 0.7;}
.node.selected, .edge.selected {opacity: 1;}
.edge:hover path { stroke: red; }
.edge:hover polygon { stroke: red; fill: red; }
]]></style>

<defs>
  <circle id="rim" cx="0" cy="0" r="7"/>
  <circle id="rim2" cx="0" cy="0" r="3.5"/>
  <g id="zoomPlus">
    <use xlink:href="#rim" fill="#404040"><set attributeName="fill" to="#808080" begin="zoomplus.mouseover" end="zoomplus.mouseout"/></use>
    <path d="M-4,0h8M0,-4v8" fill="none" stroke="white" stroke-width="1.5" pointer-events="none"/>
  </g>
  <g id="zoomMin">
    <use xlink:href="#rim" fill="#404040"><set attributeName="fill" to="#808080" begin="zoomminus.mouseover" end="zoomminus.mouseout"/></use>
    <path d="M-4,0h8" fill="none" stroke="white" stroke-width="1.5" pointer-events="none"/>
  </g>
  <g id="arrowUp" transform="translate(30 24)">
    <use xlink:href="#rim"/>
    <path pointer-events="none" fill="none" stroke="white" stroke-width="1.5" d="M0,-3.0v7 M-2.5,-0.5L0,-3.0L2.5,-0.5"/>
  </g>
  <g id="arrowRight" transform="rotate(90) translate(36 -43)">
    <use xlink:href="#rim"/>
    <path pointer-events="none" fill="none" stroke="white" stroke-width="1.5" d="M0,-3.0v7 M-2.5,-0.5L0,-3.0L2.5,-0.5"/>
  </g>
  <g id="arrowDown" transform="rotate(180) translate(-30 -48)">
    <use xlink:href="#rim"/>
    <path pointer-events="none" fill="none" stroke="white" stroke-width="1.5" d="M0,-3.0v7 M-2.5,-0.5L0,-3.0L2.5,-0.5"/>
  </g>
  <g id="arrowLeft" transform="rotate(270) translate(-36 17)">
    <use xlink:href="#rim"/>
    <path pointer-events="none" fill="none" stroke="white" stroke-width="1.5" d="M0,-3.0v7 M-2.5,-0.5L0,-3.0L2.5,-0.5"/>
  </g>
  <g id="resetDef">
    <use xlink:href="#rim2" fill="#404040"><set attributeName="fill" to="#808080" begin="reset.mouseover" end="reset.mouseout"/></use>
  </g>
</defs>
<script type="application/ecmascript">
var viewWidth = 223;
var viewHeight = 569;
var sectionId = 'dynsection-1';
</script>
<script type="application/ecmascript" xlink:href="svg.min.js"/>
<svg id="graph" class="graph">
<g id="viewport">
<title>anch::logger::Writer</title>
<!-- Node1 -->
<g id="Node000001" class="node">
<title>Node1</title>
<g id="a_Node000001"><a xlink:title=" ">
<polygon fill="#999999" stroke="none" points="152.25,-132 59.5,-132 59.5,0 152.25,0 152.25,-132"/>
<text xml:space="preserve" text-anchor="start" x="63.5" y="-118.5" font-family="Helvetica,sans-Serif" font-size="10.00">anch::logger::Writer</text>
<text xml:space="preserve" text-anchor="start" x="104.38" y="-102.5" font-family="Helvetica,sans-Serif" font-size="10.00"> </text>
<text xml:space="preserve" text-anchor="start" x="69.25" y="-86.5" font-family="Helvetica,sans-Serif" font-size="10.00">+</text>
<text xml:space="preserve" text-anchor="start" x="85" y="-86.5" font-family="Helvetica,sans-Serif" font-size="10.00">Writer()</text>
<text xml:space="preserve" text-anchor="start" x="69.25" y="-70.5" font-family="Helvetica,sans-Serif" font-size="10.00">+</text>
<text xml:space="preserve" text-anchor="start" x="85" y="-70.5" font-family="Helvetica,sans-Serif" font-size="10.00">Writer()</text>
<text xml:space="preserve" text-anchor="start" x="69.25" y="-54.5" font-family="Helvetica,sans-Serif" font-size="10.00">+</text>
<text xml:space="preserve" text-anchor="start" x="85" y="-54.5" font-family="Helvetica,sans-Serif" font-size="10.00">~Writer()</text>
<text xml:space="preserve" text-anchor="start" x="69.25" y="-38.5" font-family="Helvetica,sans-Serif" font-size="10.00">+</text>
<text xml:space="preserve" text-anchor="start" x="85" y="-38.5" font-family="Helvetica,sans-Serif" font-size="10.00">write()</text>
<text xml:space="preserve" text-anchor="start" x="69.62" y="-22.5" font-family="Helvetica,sans-Serif" font-size="10.00">#</text>
<text xml:space="preserve" text-anchor="start" x="85" y="-22.5" font-family="Helvetica,sans-Serif" font-size="10.00">rotate()</text>
<text xml:space="preserve" text-anchor="start" x="69.62" y="-6.5" font-family="Helvetica,sans-Serif" font-size="10.00">#</text>
<text xml:space="preserve" text-anchor="start" x="85" y="-6.5" font-family="Helvetica,sans-Serif" font-size="10.00">rotateFiles()</text>
<polygon fill="#666666" stroke="#666666" points="59.5,-114 59.5,-114 152.25,-114 152.25,-114 59.5,-114"/>
<polygon fill="#666666" stroke="#666666" points="59.5,-98 59.5,-98 152.25,-98 152.25,-98 59.5,-98"/>
<polygon fill="none" stroke="#666666" points="59.5,0 59.5,-132 152.25,-132 152.25,0 59.5,0"/>
</a>
</g>
</g>
<!-- Node2 -->
<g id="Node000002" class="node">
<title>Node2</title>
<g id="a_Node000002"><a xlink:title=" ">
<polygon fill="white" stroke="none" points="85.25,-260 22.5,-260 22.5,-208 85.25,-208 85.25,-260"/>
<text xml:space="preserve" text-anchor="start" x="26.5" y="-246.5" font-family="Helvetica,sans-Serif" font-size="10.00">std::ostream</text>
<text xml:space="preserve" text-anchor="start" x="52.38" y="-230.5" font-family="Helvetica,sans-Serif" font-size="10.00"> </text>
<text xml:space="preserve" text-anchor="start" x="52.38" y="-214.5" font-family="Helvetica,sans-Serif" font-size="10.00"> </text>
<polygon fill="#666666" stroke="#666666" points="22.5,-242 22.5,-242 85.25,-242 85.25,-242 22.5,-242"/>
<polygon fill="#666666" stroke="#666666" points="22.5,-226 22.5,-226 85.25,-226 85.25,-226 22.5,-226"/>
<polygon fill="none" stroke="#666666" points="22.5,-208 22.5,-260 85.25,-260 85.25,-208 22.5,-208"/>
</a>
</g>
</g>
<!-- Node2&#45;&gt;Node1 -->
<g id="edge1_Node000001_Node000002" class="edge">
<title>Node2&#45;&gt;Node1</title>
<g id="a_edge1_Node000001_Node000002"><a xlink:title=" ">
<path fill="none" stroke="#63b8ff" d="M61.66,-208.15C67.02,-191.05 74.44,-167.34 81.68,-144.23"/>
<polygon fill="none" stroke="#63b8ff" points="81.7,-144.18 79.68,-137.26 85.29,-132.73 87.31,-139.65 81.7,-144.18"/>
</a>
</g>
<text xml:space="preserve" text-anchor="start" x="82.88" y="-155.5" font-family="Helvetica,sans-Serif" font-size="10.00" fill="grey">#_output</text>
</g>
<!-- Node3 -->
<g id="Node000003" class="node">
<title>Node3</title>
<g id="a_Node000003"><a xlink:title=" ">
<polygon fill="white" stroke="none" points="99.5,-383 8.25,-383 8.25,-319 99.5,-319 99.5,-383"/>
<text xml:space="preserve" text-anchor="start" x="12.25" y="-369.5" font-family="Helvetica,sans-Serif" font-size="10.00">std::basic_ostream</text>
<text xml:space="preserve" text-anchor="start" x="34.38" y="-357.5" font-family="Helvetica,sans-Serif" font-size="10.00">&lt; Char &gt;</text>
<text xml:space="preserve" text-anchor="start" x="52.38" y="-341.5" font-family="Helvetica,sans-Serif" font-size="10.00"> </text>
<text xml:space="preserve" text-anchor="start" x="52.38" y="-325.5" font-family="Helvetica,sans-Serif" font-size="10.00"> </text>
<polygon fill="#666666" stroke="#666666" points="8.25,-353 8.25,-353 99.5,-353 99.5,-353 8.25,-353"/>
<polygon fill="#666666" stroke="#666666" points="8.25,-337 8.25,-337 99.5,-337 99.5,-337 8.25,-337"/>
<polygon fill="none" stroke="#666666" points="8.25,-319 8.25,-383 99.5,-383 99.5,-319 8.25,-319"/>
</a>
</g>
</g>
<!-- Node3&#45;&gt;Node2 -->
<g id="edge2_Node000002_Node000003" class="edge">
<title>Node3&#45;&gt;Node2</title>
<g id="a_edge2_Node000002_Node000003"><a xlink:title=" ">
<path fill="none" stroke="#63b8ff" d="M53.88,-307.8C53.88,-291.63 53.88,-273.72 53.88,-259.71"/>
<polygon fill="none" stroke="#63b8ff" points="50.38,-307.67 53.88,-317.67 57.38,-307.67 50.38,-307.67"/>
</a>
</g>
</g>
<!-- Node4 -->
<g id="Node000004" class="node">
<title>Node4</title>
<g id="a_Node000004"><a xlink:title=" ">
<polygon fill="white" stroke="none" points="107.75,-472 0,-472 0,-420 107.75,-420 107.75,-472"/>
<text xml:space="preserve" text-anchor="start" x="4" y="-458.5" font-family="Helvetica,sans-Serif" font-size="10.00">std::basic_ios&lt; Char &gt;</text>
<text xml:space="preserve" text-anchor="start" x="52.38" y="-442.5" font-family="Helvetica,sans-Serif" font-size="10.00"> </text>
<text xml:space="preserve" text-anchor="start" x="52.38" y="-426.5" font-family="Helvetica,sans-Serif" font-size="10.00"> </text>
<polygon fill="#666666" stroke="#666666" points="0,-454 0,-454 107.75,-454 107.75,-454 0,-454"/>
<polygon fill="#666666" stroke="#666666" points="0,-438 0,-438 107.75,-438 107.75,-438 0,-438"/>
<polygon fill="none" stroke="#666666" points="0,-420 0,-472 107.75,-472 107.75,-420 0,-420"/>
</a>
</g>
</g>
<!-- Node4&#45;&gt;Node3 -->
<g id="edge3_Node000003_Node000004" class="edge">
<title>Node4&#45;&gt;Node3</title>
<g id="a_edge3_Node000003_Node000004"><a xlink:title=" ">
<path fill="none" stroke="#63b8ff" d="M53.88,-408.85C53.88,-400.3 53.88,-391.27 53.88,-382.98"/>
<polygon fill="none" stroke="#63b8ff" points="50.38,-408.56 53.88,-418.56 57.38,-408.56 50.38,-408.56"/>
</a>
</g>
</g>
<!-- Node5 -->
<g id="Node000005" class="node">
<title>Node5</title>
<g id="a_Node000005"><a xlink:title=" ">
<polygon fill="white" stroke="none" points="87.12,-561 20.62,-561 20.62,-509 87.12,-509 87.12,-561"/>
<text xml:space="preserve" text-anchor="start" x="24.62" y="-547.5" font-family="Helvetica,sans-Serif" font-size="10.00">std::ios_base</text>
<text xml:space="preserve" text-anchor="start" x="52.38" y="-531.5" font-family="Helvetica,sans-Serif" font-size="10.00"> </text>
<text xml:space="preserve" text-anchor="start" x="52.38" y="-515.5" font-family="Helvetica,sans-Serif" font-size="10.00"> </text>
<polygon fill="#666666" stroke="#666666" points="20.62,-543 20.62,-543 87.12,-543 87.12,-543 20.62,-543"/>
<polygon fill="#666666" stroke="#666666" points="20.62,-527 20.62,-527 87.12,-527 87.12,-527 20.62,-527"/>
<polygon fill="none" stroke="#666666" points="20.62,-509 20.62,-561 87.12,-561 87.12,-509 20.62,-509"/>
</a>
</g>
</g>
<!-- Node5&#45;&gt;Node4 -->
<g id="edge4_Node000004_Node000005" class="edge">
<title>Node5&#45;&gt;Node4</title>
<g id="a_edge4_Node000004_Node000005"><a xlink:title=" ">
<path fill="none" stroke="#63b8ff" d="M53.88,-498.05C53.88,-489.21 53.88,-479.94 53.88,-471.76"/>
<polygon fill="none" stroke="#63b8ff" points="50.38,-497.79 53.88,-507.79 57.38,-497.79 50.38,-497.79"/>
</a>
</g>
</g>
<!-- Node6 -->
<g id="Node000006" class="node">
<title>Node6</title>
<g id="a_Node000006"><a xlink:href="classanch_1_1logger_1_1formatter_1_1_message_formatter.html" target="_top" xlink:title=" ">
<polygon fill="white" stroke="none" points="214.75,-282 103,-282 103,-186 214.75,-186 214.75,-282"/>
<text xml:space="preserve" text-anchor="start" x="109.75" y="-268.5" font-family="Helvetica,sans-Serif" font-size="10.00">anch::logger::formatter</text>
<text xml:space="preserve" text-anchor="start" x="115" y="-256.5" font-family="Helvetica,sans-Serif" font-size="10.00">::MessageFormatter</text>
<text xml:space="preserve" text-anchor="start" x="157.38" y="-240.5" font-family="Helvetica,sans-Serif" font-size="10.00"> </text>
<text xml:space="preserve" text-anchor="start" x="107" y="-224.5" font-family="Helvetica,sans-Serif" font-size="10.00">+</text>
<text xml:space="preserve" text-anchor="start" x="117" y="-224.5" font-family="Helvetica,sans-Serif" font-size="10.00">MessageFormatter()</text>
<text xml:space="preserve" text-anchor="start" x="107" y="-208.5" font-family="Helvetica,sans-Serif" font-size="10.00">+</text>
<text xml:space="preserve" text-anchor="start" x="117" y="-208.5" font-family="Helvetica,sans-Serif" font-size="10.00">~MessageFormatter()</text>
<text xml:space="preserve" text-anchor="start" x="107" y="-192.5" font-family="Helvetica,sans-Serif" font-size="10.00">+</text>
<text xml:space="preserve" text-anchor="start" x="117" y="-192.5" font-family="Helvetica,sans-Serif" font-size="10.00">formatMessage()</text>
<polygon fill="#666666" stroke="#666666" points="103,-252 103,-252 214.75,-252 214.75,-252 103,-252"/>
<polygon fill="#666666" stroke="#666666" points="103,-236 103,-236 214.75,-236 214.75,-236 103,-236"/>
<polygon fill="none" stroke="#666666" points="103,-186 103,-282 214.75,-282 214.75,-186 103,-186"/>
</a>
</g>
</g>
<!-- Node6&#45;&gt;Node1 -->
<g id="edge5_Node000001_Node000006" class="edge">
<title>Node6&#45;&gt;Node1</title>
<g id="a_edge5_Node000001_Node000006"><a xlink:title=" ">
<path fill="none" stroke="#63b8ff" d="M143.97,-186.32C139.76,-173.13 135.06,-158.42 130.45,-143.96"/>
<polygon fill="none" stroke="#63b8ff" points="130.52,-144.2 124.89,-139.7 126.87,-132.77 132.51,-137.27 130.52,-144.2"/>
</a>
</g>
<text xml:space="preserve" text-anchor="start" x="140.12" y="-155.5" font-family="Helvetica,sans-Serif" font-size="10.00" fill="grey">#_formatter</text>
</g>
</g>
</svg>

<g id="navigator" transform="translate(0 0)" fill="#404254">
  <rect fill="#f2f5e9" fill-opacity="0.5" stroke="#606060" stroke-width=".5" x="0" y="0" width="60" height="60"/>
  <use id="zoomplus" xlink:href="#zoomPlus" x="17" y="9" onmousedown="handleZoom(evt,'in')"/>
  <use id="zoomminus" xlink:href="#zoomMin" x="42" y="9" onmousedown="handleZoom(evt,'out')"/>
  <use id="reset" xlink:href="#resetDef" x="30" y="36" onmousedown="handleReset()"/>
   <use id="arrowup" xlink:href="#arrowUp" x="0" y="0" onmousedown="handlePan(0,-1)"/>
  <use id="arrowright" xlink:href="#arrowRight" x="0" y="0" onmousedown="handlePan(1,0)"/>
  <use id="arrowdown" xlink:href="#arrowDown" x="0" y="0" onmousedown="handlePan(0,1)"/>
  <use id="arrowleft" xlink:href="#arrowLeft" x="0" y="0" onmousedown="handlePan(-1,0)"/>
</g>
<svg viewBox="0 0 15 15" width="100%" height="30px" preserveAspectRatio="xMaxYMin meet">
 <g id="arrow_out" transform="scale(0.3 0.3)">
  <a xlink:href="classanch_1_1logger_1_1_writer__coll__graph_org.svg" target="_base">
   <rect id="button" ry="5" rx="5" y="6" x="6" height="38" width="38"
        fill="#f2f5e9" fill-opacity="0.5" stroke="#606060" stroke-width="1.0"/>
   <path id="arrow"
     d="M 11.500037,31.436501 C 11.940474,20.09759 22.043105,11.32322 32.158766,21.979434 L 37.068811,17.246167 C 37.068811,17.246167 37.088388,32 37.088388,32 L 22.160133,31.978069 C 22.160133,31.978069 26.997745,27.140456 26.997745,27.140456 C 18.528582,18.264221 13.291696,25.230495 11.500037,31.436501 z"
     style="fill:#404040;"/>
  </a>
 </g>
</svg>

<style type='text/css'>
<![CDATA[
[data-mouse-over-selected='false'] { opacity: 0.7; }
[data-mouse-over-selected='true']  { opacity: 1.0; }
]]>
</style>
<script type="application/ecmascript"><![CDATA[
document.addEventListener('DOMContentLoaded', (event) => {
  highlightEdges();
  highlightAdjacentNodes();
});
]]></script>
</svg>
