<?xml version="1.0" encoding="UTF-8" standalone="no"?>
<!DOCTYPE svg PUBLIC "-//W3C//DTD SVG 1.1//EN"
 "http://www.w3.org/Graphics/SVG/1.1/DTD/svg11.dtd">
<!-- Generated by graphviz version 7.0.4 (0)
 -->
<!-- Title: anch::crypto::SHA224_256&lt; O, I &gt; Pages: 1 -->
<svg width="401pt" height="985pt"
 viewBox="0.00 0.00 400.50 985.00" xmlns="http://www.w3.org/2000/svg" xmlns:xlink="http://www.w3.org/1999/xlink">
<g id="graph0" class="graph" transform="scale(1 1) rotate(0) translate(4 981)">
<title>anch::crypto::SHA224_256&lt; O, I &gt;</title>
<!-- Node1 -->
<g id="node1" class="node">
<title>Node1</title>
<g id="a_node1"><a xlink:title="SHA2 224/256 implementation.">
<polygon fill="#999999" stroke="#666666" points="201,-85 74,-85 74,0 201,0 201,-85"/>
<text text-anchor="start" x="82" y="-73" font-family="Helvetica,sans-Serif" font-size="10.00">{anch::crypto::SHA224</text>
<text text-anchor="middle" x="137.5" y="-62" font-family="Helvetica,sans-Serif" font-size="10.00">_256&lt; O, I &gt;</text>
<text text-anchor="start" x="82" y="-51" font-family="Helvetica,sans-Serif" font-size="10.00">||+ SHA224_256()</text>
<text text-anchor="start" x="82" y="-40" font-family="Helvetica,sans-Serif" font-size="10.00">+ SHA224_256()</text>
<text text-anchor="start" x="82" y="-29" font-family="Helvetica,sans-Serif" font-size="10.00">+ SHA224_256()</text>
<text text-anchor="start" x="82" y="-18" font-family="Helvetica,sans-Serif" font-size="10.00">+ ~SHA224_256()</text>
<text text-anchor="middle" x="137.5" y="-7" font-family="Helvetica,sans-Serif" font-size="10.00">}</text>
</a>
</g>
</g>
<!-- Node2 -->
<g id="node2" class="node">
<title>Node2</title>
<g id="a_node2"><a xlink:href="classanch_1_1crypto_1_1_s_h_a2.html" target="_top" xlink:title=" ">
<polygon fill="white" stroke="#666666" points="206,-229 69,-229 69,-122 206,-122 206,-229"/>
<text text-anchor="start" x="77" y="-217" font-family="Helvetica,sans-Serif" font-size="10.00">{anch::crypto::SHA2</text>
<text text-anchor="middle" x="137.5" y="-206" font-family="Helvetica,sans-Serif" font-size="10.00">&lt; O, 64, uint32_t, 64, I &gt;</text>
<text text-anchor="start" x="77" y="-195" font-family="Helvetica,sans-Serif" font-size="10.00">||+ SHA2()</text>
<text text-anchor="start" x="77" y="-184" font-family="Helvetica,sans-Serif" font-size="10.00">+ ~SHA2()</text>
<text text-anchor="start" x="77" y="-173" font-family="Helvetica,sans-Serif" font-size="10.00">+ digest()</text>
<text text-anchor="start" x="77" y="-162" font-family="Helvetica,sans-Serif" font-size="10.00"># shiftRight()</text>
<text text-anchor="start" x="77" y="-151" font-family="Helvetica,sans-Serif" font-size="10.00"># rotateLeft()</text>
<text text-anchor="start" x="77" y="-140" font-family="Helvetica,sans-Serif" font-size="10.00"># rotateRight()</text>
<text text-anchor="middle" x="137.5" y="-129" font-family="Helvetica,sans-Serif" font-size="10.00">}</text>
</a>
</g>
</g>
<!-- Node2&#45;&gt;Node1 -->
<g id="edge1" class="edge">
<title>Node2&#45;&gt;Node1</title>
<path fill="none" stroke="#63b8ff" d="M137.5,-110.16C137.5,-101.72 137.5,-93.25 137.5,-85.32"/>
<polygon fill="none" stroke="#63b8ff" points="134,-110.08 137.5,-120.08 141,-110.08 134,-110.08"/>
</g>
<!-- Node3 -->
<g id="node3" class="node">
<title>Node3</title>
<g id="a_node3"><a xlink:href="classanch_1_1crypto_1_1_hash.html" target="_top" xlink:title="Hash algorithm abstract class.">
<polygon fill="white" stroke="#666666" points="113,-592 0,-592 0,-441 113,-441 113,-592"/>
<text text-anchor="start" x="8" y="-580" font-family="Helvetica,sans-Serif" font-size="10.00">{anch::crypto::Hash</text>
<text text-anchor="middle" x="56.5" y="-569" font-family="Helvetica,sans-Serif" font-size="10.00">&lt; O, B &gt;</text>
<text text-anchor="start" x="8" y="-558" font-family="Helvetica,sans-Serif" font-size="10.00">||+ digest()</text>
<text text-anchor="start" x="8" y="-547" font-family="Helvetica,sans-Serif" font-size="10.00">+ digest()</text>
<text text-anchor="start" x="8" y="-536" font-family="Helvetica,sans-Serif" font-size="10.00">+ digest()</text>
<text text-anchor="start" x="8" y="-525" font-family="Helvetica,sans-Serif" font-size="10.00">+ digest()</text>
<text text-anchor="start" x="8" y="-514" font-family="Helvetica,sans-Serif" font-size="10.00">+ digest()</text>
<text text-anchor="start" x="8" y="-503" font-family="Helvetica,sans-Serif" font-size="10.00">+ getOutputSize()</text>
<text text-anchor="start" x="8" y="-492" font-family="Helvetica,sans-Serif" font-size="10.00">+ getBlockSize()</text>
<text text-anchor="start" x="8" y="-481" font-family="Helvetica,sans-Serif" font-size="10.00"># reset()</text>
<text text-anchor="start" x="8" y="-470" font-family="Helvetica,sans-Serif" font-size="10.00"># addData()</text>
<text text-anchor="start" x="8" y="-459" font-family="Helvetica,sans-Serif" font-size="10.00"># finalize()</text>
<text text-anchor="middle" x="56.5" y="-448" font-family="Helvetica,sans-Serif" font-size="10.00">}</text>
</a>
</g>
</g>
<!-- Node3&#45;&gt;Node2 -->
<g id="edge2" class="edge">
<title>Node3&#45;&gt;Node2</title>
<path fill="none" stroke="#63b8ff" d="M55.05,-429.25C56.46,-385.76 61.51,-332.68 75.5,-287 81.55,-267.23 91.52,-247.08 101.71,-229.49"/>
<polygon fill="none" stroke="#63b8ff" points="51.55,-429.07 54.79,-439.16 58.55,-429.25 51.55,-429.07"/>
</g>
<!-- Node10 -->
<g id="node10" class="node">
<title>Node10</title>
<g id="a_node10"><a xlink:href="classanch_1_1crypto_1_1_s_h_a2.html" target="_top" xlink:title="SHA2 abstract class.">
<polygon fill="white" stroke="#666666" points="200,-394 85,-394 85,-287 200,-287 200,-394"/>
<text text-anchor="start" x="93" y="-382" font-family="Helvetica,sans-Serif" font-size="10.00">{anch::crypto::SHA2</text>
<text text-anchor="middle" x="142.5" y="-371" font-family="Helvetica,sans-Serif" font-size="10.00">&lt; O, B, W, R, I &gt;</text>
<text text-anchor="start" x="93" y="-360" font-family="Helvetica,sans-Serif" font-size="10.00">||+ SHA2()</text>
<text text-anchor="start" x="93" y="-349" font-family="Helvetica,sans-Serif" font-size="10.00">+ ~SHA2()</text>
<text text-anchor="start" x="93" y="-338" font-family="Helvetica,sans-Serif" font-size="10.00">+ digest()</text>
<text text-anchor="start" x="93" y="-327" font-family="Helvetica,sans-Serif" font-size="10.00"># shiftRight()</text>
<text text-anchor="start" x="93" y="-316" font-family="Helvetica,sans-Serif" font-size="10.00"># rotateLeft()</text>
<text text-anchor="start" x="93" y="-305" font-family="Helvetica,sans-Serif" font-size="10.00"># rotateRight()</text>
<text text-anchor="middle" x="142.5" y="-294" font-family="Helvetica,sans-Serif" font-size="10.00">}</text>
</a>
</g>
</g>
<!-- Node3&#45;&gt;Node10 -->
<g id="edge14" class="edge">
<title>Node3&#45;&gt;Node10</title>
<path fill="none" stroke="#63b8ff" d="M98.55,-430.43C104.61,-418.16 110.7,-405.84 116.33,-394.45"/>
<polygon fill="none" stroke="#63b8ff" points="95.43,-428.83 94.14,-439.34 101.71,-431.93 95.43,-428.83"/>
</g>
<!-- Node4 -->
<g id="node4" class="node">
<title>Node4</title>
<g id="a_node4"><a xlink:title=" ">
<polygon fill="white" stroke="#666666" points="203,-823 64,-823 64,-782 203,-782 203,-823"/>
<text text-anchor="middle" x="133.5" y="-811" font-family="Helvetica,sans-Serif" font-size="10.00">{std::array&lt; uint8_t, O &gt;</text>
<text text-anchor="start" x="72" y="-800" font-family="Helvetica,sans-Serif" font-size="10.00">|+ elements</text>
<text text-anchor="middle" x="133.5" y="-789" font-family="Helvetica,sans-Serif" font-size="10.00">|}</text>
</a>
</g>
</g>
<!-- Node4&#45;&gt;Node3 -->
<g id="edge3" class="edge">
<title>Node4&#45;&gt;Node3</title>
<path fill="none" stroke="#404040" d="M104.1,-781.71C89.37,-770.03 72.92,-753.83 64.5,-735 46.55,-694.84 43.27,-646.22 45.03,-605.14"/>
<polygon fill="none" stroke="#404040" points="45.03,-605.25 41.37,-599.04 45.7,-593.27 49.36,-599.49 45.03,-605.25"/>
<text text-anchor="middle" x="88" y="-684.5" font-family="Helvetica,sans-Serif" font-size="10.00"> #_digest</text>
</g>
<!-- Node7 -->
<g id="node7" class="node">
<title>Node7</title>
<g id="a_node7"><a xlink:href="structanch_1_1crypto_1_1_s_h_a2_1_1_context.html" target="_top" xlink:title=" ">
<polygon fill="white" stroke="#666666" points="325,-559 158,-559 158,-474 325,-474 325,-559"/>
<text text-anchor="start" x="166" y="-547" font-family="Helvetica,sans-Serif" font-size="10.00">{anch::crypto::SHA2</text>
<text text-anchor="middle" x="241.5" y="-536" font-family="Helvetica,sans-Serif" font-size="10.00">&lt; O, B, W, R, I &gt;::Context&lt; I &gt;</text>
<text text-anchor="start" x="166" y="-525" font-family="Helvetica,sans-Serif" font-size="10.00">|+ size</text>
<text text-anchor="start" x="166" y="-514" font-family="Helvetica,sans-Serif" font-size="10.00">+ buffer</text>
<text text-anchor="start" x="166" y="-503" font-family="Helvetica,sans-Serif" font-size="10.00">|+ Context()</text>
<text text-anchor="start" x="166" y="-492" font-family="Helvetica,sans-Serif" font-size="10.00">+ reset()</text>
<text text-anchor="middle" x="241.5" y="-481" font-family="Helvetica,sans-Serif" font-size="10.00">}</text>
</a>
</g>
</g>
<!-- Node4&#45;&gt;Node7 -->
<g id="edge9" class="edge">
<title>Node4&#45;&gt;Node7</title>
<path fill="none" stroke="#404040" d="M130.78,-781.67C127.29,-750.22 123.72,-687.48 142.5,-639 152.47,-613.27 170.07,-588.86 187.7,-568.76"/>
<polygon fill="none" stroke="#404040" points="187.65,-568.81 188.72,-561.68 195.71,-559.92 194.65,-567.05 187.65,-568.81"/>
<text text-anchor="middle" x="163.5" y="-684.5" font-family="Helvetica,sans-Serif" font-size="10.00"> +digest</text>
</g>
<!-- Node9 -->
<g id="node9" class="node">
<title>Node9</title>
<g id="a_node9"><a xlink:href="structanch_1_1crypto_1_1_s_h_a2_1_1_context.html" target="_top" xlink:title=" ">
<polygon fill="white" stroke="#666666" points="335,-735 194,-735 194,-639 335,-639 335,-735"/>
<text text-anchor="start" x="202" y="-723" font-family="Helvetica,sans-Serif" font-size="10.00">{anch::crypto::SHA2</text>
<text text-anchor="start" x="202" y="-712" font-family="Helvetica,sans-Serif" font-size="10.00">&lt; O, B, W, R, I &gt;::Context</text>
<text text-anchor="middle" x="264.5" y="-701" font-family="Helvetica,sans-Serif" font-size="10.00">&lt; Init &gt;</text>
<text text-anchor="start" x="202" y="-690" font-family="Helvetica,sans-Serif" font-size="10.00">|+ size</text>
<text text-anchor="start" x="202" y="-679" font-family="Helvetica,sans-Serif" font-size="10.00">+ buffer</text>
<text text-anchor="start" x="202" y="-668" font-family="Helvetica,sans-Serif" font-size="10.00">|+ Context()</text>
<text text-anchor="start" x="202" y="-657" font-family="Helvetica,sans-Serif" font-size="10.00">+ reset()</text>
<text text-anchor="middle" x="264.5" y="-646" font-family="Helvetica,sans-Serif" font-size="10.00">}</text>
</a>
</g>
</g>
<!-- Node4&#45;&gt;Node9 -->
<g id="edge12" class="edge">
<title>Node4&#45;&gt;Node9</title>
<path fill="none" stroke="#404040" d="M156.32,-781.73C168.58,-771.11 184.38,-757.42 200.09,-743.8"/>
<polygon fill="none" stroke="#404040" points="200.08,-743.81 202,-736.86 209.15,-735.95 207.24,-742.91 200.08,-743.81"/>
<text text-anchor="middle" x="208.5" y="-756" font-family="Helvetica,sans-Serif" font-size="10.00"> +digest</text>
</g>
<!-- Node5 -->
<g id="node5" class="node">
<title>Node5</title>
<g id="a_node5"><a xlink:title=" ">
<polygon fill="white" stroke="#666666" points="254.5,-900 156.5,-900 156.5,-870 254.5,-870 254.5,-900"/>
<text text-anchor="middle" x="205.5" y="-888" font-family="Helvetica,sans-Serif" font-size="10.00">{std::array&lt; T &gt;</text>
<text text-anchor="middle" x="205.5" y="-877" font-family="Helvetica,sans-Serif" font-size="10.00">||}</text>
</a>
</g>
</g>
<!-- Node5&#45;&gt;Node4 -->
<g id="edge4" class="edge">
<title>Node5&#45;&gt;Node4</title>
<path fill="none" stroke="orange" d="M180.25,-861.92C176.88,-858.69 173.54,-855.32 170.5,-852 162.35,-843.09 154.12,-832.5 147.5,-823.49"/>
<polygon fill="orange" stroke="orange" points="177.71,-864.35 187.43,-868.57 182.47,-859.21 177.71,-864.35"/>
<text text-anchor="middle" x="207" y="-844" font-family="Helvetica,sans-Serif" font-size="10.00"> &lt; uint8_t, O &gt;</text>
</g>
<!-- Node8 -->
<g id="node8" class="node">
<title>Node8</title>
<g id="a_node8"><a xlink:title=" ">
<polygon fill="white" stroke="#666666" points="334,-823 221,-823 221,-782 334,-782 334,-823"/>
<text text-anchor="middle" x="277.5" y="-811" font-family="Helvetica,sans-Serif" font-size="10.00">{std::array&lt; W, 8 &gt;</text>
<text text-anchor="start" x="229" y="-800" font-family="Helvetica,sans-Serif" font-size="10.00">|+ elements</text>
<text text-anchor="middle" x="277.5" y="-789" font-family="Helvetica,sans-Serif" font-size="10.00">|}</text>
</a>
</g>
</g>
<!-- Node5&#45;&gt;Node8 -->
<g id="edge8" class="edge">
<title>Node5&#45;&gt;Node8</title>
<path fill="none" stroke="orange" d="M233.04,-862.29C236.7,-858.99 240.29,-855.51 243.5,-852 251.55,-843.2 259.29,-832.42 265.34,-823.26"/>
<polygon fill="orange" stroke="orange" points="230.99,-859.44 225.68,-868.62 235.55,-864.75 230.99,-859.44"/>
<text text-anchor="middle" x="276.5" y="-844" font-family="Helvetica,sans-Serif" font-size="10.00"> &lt; W, 8 &gt;</text>
</g>
<!-- Node6 -->
<g id="node6" class="node">
<title>Node6</title>
<g id="a_node6"><a xlink:title=" ">
<polygon fill="white" stroke="#bfbfbf" points="220,-977 191,-977 191,-947 220,-947 220,-977"/>
<text text-anchor="middle" x="205.5" y="-965" font-family="Helvetica,sans-Serif" font-size="10.00">{T</text>
<text text-anchor="middle" x="205.5" y="-954" font-family="Helvetica,sans-Serif" font-size="10.00">||}</text>
</a>
</g>
</g>
<!-- Node6&#45;&gt;Node5 -->
<g id="edge5" class="edge">
<title>Node6&#45;&gt;Node5</title>
<path fill="none" stroke="#404040" d="M205.5,-946.54C205.5,-937.1 205.5,-924.47 205.5,-913.2"/>
<polygon fill="none" stroke="#404040" points="205.5,-913.32 201.5,-907.32 205.5,-901.32 209.5,-907.32 205.5,-913.32"/>
<text text-anchor="middle" x="234.5" y="-921" font-family="Helvetica,sans-Serif" font-size="10.00"> +elements</text>
</g>
<!-- Node7&#45;&gt;Node2 -->
<g id="edge6" class="edge">
<title>Node7&#45;&gt;Node2</title>
<path fill="none" stroke="#404040" d="M249.49,-473.64C257.88,-418.34 265.16,-319.49 227.5,-247 224.1,-240.46 219.79,-234.33 214.91,-228.63"/>
<polygon fill="none" stroke="#404040" points="215.08,-228.81 208.05,-227.21 206.83,-220.11 213.86,-221.71 215.08,-228.81"/>
<text text-anchor="middle" x="283.5" y="-338" font-family="Helvetica,sans-Serif" font-size="10.00"> #_context</text>
</g>
<!-- Node7&#45;&gt;Node10 -->
<g id="edge15" class="edge">
<title>Node7&#45;&gt;Node10</title>
<path fill="none" stroke="#404040" d="M207.14,-473.82C195.49,-458.45 183.03,-440.5 173.5,-423 170.58,-417.63 167.8,-411.93 165.21,-406.13"/>
<polygon fill="none" stroke="#404040" points="165.17,-406.05 159.15,-402.09 160.49,-395.01 166.51,-398.97 165.17,-406.05"/>
<text text-anchor="middle" x="200.5" y="-415" font-family="Helvetica,sans-Serif" font-size="10.00"> #_context</text>
</g>
<!-- Node8&#45;&gt;Node7 -->
<g id="edge7" class="edge">
<title>Node8&#45;&gt;Node7</title>
<path fill="none" stroke="#404040" d="M306.34,-781.66C320.72,-769.95 336.69,-753.76 344.5,-735 360.9,-695.61 359.19,-679.06 344.5,-639 334.97,-613.01 317.13,-588.76 298.96,-568.87"/>
<polygon fill="none" stroke="#404040" points="298.92,-568.83 291.89,-567.23 290.66,-560.13 297.69,-561.73 298.92,-568.83"/>
<text text-anchor="middle" x="374" y="-684.5" font-family="Helvetica,sans-Serif" font-size="10.00"> +state</text>
</g>
<!-- Node8&#45;&gt;Node9 -->
<g id="edge11" class="edge">
<title>Node8&#45;&gt;Node9</title>
<path fill="none" stroke="#404040" d="M275.24,-781.73C274.14,-772.21 272.77,-760.23 271.38,-748.04"/>
<polygon fill="none" stroke="#404040" points="271.39,-748.18 266.74,-742.68 270.03,-736.26 274.68,-741.77 271.39,-748.18"/>
<text text-anchor="middle" x="292" y="-756" font-family="Helvetica,sans-Serif" font-size="10.00"> +state</text>
</g>
<!-- Node9&#45;&gt;Node7 -->
<g id="edge10" class="edge">
<title>Node9&#45;&gt;Node7</title>
<path fill="none" stroke="orange" d="M256.52,-627.51C253.45,-605.07 250.02,-579.94 247.21,-559.37"/>
<polygon fill="orange" stroke="orange" points="253.01,-627.68 257.83,-637.12 259.94,-626.73 253.01,-627.68"/>
<text text-anchor="middle" x="270" y="-613" font-family="Helvetica,sans-Serif" font-size="10.00"> &lt; I &gt;</text>
</g>
<!-- Node10&#45;&gt;Node2 -->
<g id="edge13" class="edge">
<title>Node10&#45;&gt;Node2</title>
<path fill="none" stroke="orange" d="M138.73,-275.3C138.65,-273.17 138.57,-271.07 138.5,-269 138.07,-256.16 137.81,-242.31 137.65,-229.34"/>
<polygon fill="orange" stroke="orange" points="135.23,-275.42 139.18,-285.26 142.23,-275.11 135.23,-275.42"/>
<text text-anchor="start" x="138.5" y="-261" font-family="Helvetica,sans-Serif" font-size="10.00"> &lt; O, 64, uint32_t,</text>
<text text-anchor="middle" x="183" y="-250" font-family="Helvetica,sans-Serif" font-size="10.00"> 64, I &gt;</text>
</g>
</g>
</svg>
