<?xml version="1.0" encoding="UTF-8" standalone="no"?>
<!DOCTYPE svg PUBLIC "-//W3C//DTD SVG 1.1//EN"
 "http://www.w3.org/Graphics/SVG/1.1/DTD/svg11.dtd">
<!-- Generated by graphviz version 9.0.0 (0)
 -->
<!-- Title: anch::logger::LowPriorityWriter Pages: 1 -->
<!--zoomable 732 -->

<svg id="main" version="1.1" xmlns="http://www.w3.org/2000/svg" xmlns:xlink="http://www.w3.org/1999/xlink" xml:space="preserve" onload="init(evt)">
<style type="text/css"><![CDATA[
.node, .edge {opacity: 0.7;}
.node.selected, .edge.selected {opacity: 1;}
.edge:hover path { stroke: red; }
.edge:hover polygon { stroke: red; fill: red; }
]]></style>

<defs>
  <circle id="rim" cx="0" cy="0" r="7"/>
  <circle id="rim2" cx="0" cy="0" r="3.5"/>
  <g id="zoomPlus">
    <use xlink:href="#rim" fill="#404040"><set attributeName="fill" to="#808080" begin="zoomplus.mouseover" end="zoomplus.mouseout"/></use>
    <path d="M-4,0h8M0,-4v8" fill="none" stroke="white" stroke-width="1.5" pointer-events="none"/>
  </g>
  <g id="zoomMin">
    <use xlink:href="#rim" fill="#404040"><set attributeName="fill" to="#808080" begin="zoomminus.mouseover" end="zoomminus.mouseout"/></use>
    <path d="M-4,0h8" fill="none" stroke="white" stroke-width="1.5" pointer-events="none"/>
  </g>
  <g id="arrowUp" transform="translate(30 24)">
    <use xlink:href="#rim"/>
    <path pointer-events="none" fill="none" stroke="white" stroke-width="1.5" d="M0,-3.0v7 M-2.5,-0.5L0,-3.0L2.5,-0.5"/>
  </g>
  <g id="arrowRight" transform="rotate(90) translate(36 -43)">
    <use xlink:href="#rim"/>
    <path pointer-events="none" fill="none" stroke="white" stroke-width="1.5" d="M0,-3.0v7 M-2.5,-0.5L0,-3.0L2.5,-0.5"/>
  </g>
  <g id="arrowDown" transform="rotate(180) translate(-30 -48)">
    <use xlink:href="#rim"/>
    <path pointer-events="none" fill="none" stroke="white" stroke-width="1.5" d="M0,-3.0v7 M-2.5,-0.5L0,-3.0L2.5,-0.5"/>
  </g>
  <g id="arrowLeft" transform="rotate(270) translate(-36 17)">
    <use xlink:href="#rim"/>
    <path pointer-events="none" fill="none" stroke="white" stroke-width="1.5" d="M0,-3.0v7 M-2.5,-0.5L0,-3.0L2.5,-0.5"/>
  </g>
  <g id="resetDef">
    <use xlink:href="#rim2" fill="#404040"><set attributeName="fill" to="#808080" begin="reset.mouseover" end="reset.mouseout"/></use>
  </g>
</defs>
<script type="application/ecmascript">
var viewWidth = 249;
var viewHeight = 732;
var sectionId = 'dynsection-1';
</script>
<script type="application/ecmascript" xlink:href="svg.min.js"/>
<svg id="graph" class="graph">
<g id="viewport">
<title>anch::logger::LowPriorityWriter</title>
<!-- Node1 -->
<g id="Node000001" class="node">
<title>Node1</title>
<g id="a_Node000001"><a xlink:title=" ">
<polygon fill="#999999" stroke="none" points="206.5,-129 76.5,-129 76.5,0 206.5,0 206.5,-129"/>
<text text-anchor="start" x="81.12" y="-115.5" font-family="Helvetica,sans-Serif" font-size="10.00">anch::logger::LowPriority</text>
<text text-anchor="start" x="126.5" y="-102.75" font-family="Helvetica,sans-Serif" font-size="10.00">Writer</text>
<text text-anchor="start" x="140" y="-86.5" font-family="Helvetica,sans-Serif" font-size="10.00"> </text>
<text text-anchor="start" x="82.88" y="-70.5" font-family="Helvetica,sans-Serif" font-size="10.00">+</text>
<text text-anchor="start" x="97.5" y="-70.5" font-family="Helvetica,sans-Serif" font-size="10.00">LowPriorityWriter()</text>
<text text-anchor="start" x="82.88" y="-54.5" font-family="Helvetica,sans-Serif" font-size="10.00">+</text>
<text text-anchor="start" x="97.5" y="-54.5" font-family="Helvetica,sans-Serif" font-size="10.00">LowPriorityWriter()</text>
<text text-anchor="start" x="82.88" y="-38.5" font-family="Helvetica,sans-Serif" font-size="10.00">+</text>
<text text-anchor="start" x="97.5" y="-38.5" font-family="Helvetica,sans-Serif" font-size="10.00">~LowPriorityWriter()</text>
<text text-anchor="start" x="82.88" y="-22.5" font-family="Helvetica,sans-Serif" font-size="10.00">+</text>
<text text-anchor="start" x="97.5" y="-22.5" font-family="Helvetica,sans-Serif" font-size="10.00">write()</text>
<text text-anchor="start" x="82.88" y="-6.5" font-family="Helvetica,sans-Serif" font-size="10.00">+</text>
<text text-anchor="start" x="97.5" y="-6.5" font-family="Helvetica,sans-Serif" font-size="10.00">startTreatment()</text>
<polygon fill="#666666" stroke="#666666" points="76.5,-98 76.5,-98 206.5,-98 206.5,-98 76.5,-98"/>
<polygon fill="#666666" stroke="#666666" points="76.5,-82 76.5,-82 206.5,-82 206.5,-82 76.5,-82"/>
<polygon fill="none" stroke="#666666" points="76.5,0 76.5,-129 206.5,-129 206.5,0 76.5,0"/>
</a>
</g>
</g>
<!-- Node2 -->
<g id="Node000002" class="node">
<title>Node2</title>
<g id="a_Node000002"><a xlink:href="classanch_1_1logger_1_1_writer.html" target="_top" xlink:title=" ">
<polygon fill="white" stroke="none" points="194.5,-298 88.5,-298 88.5,-166 194.5,-166 194.5,-298"/>
<text text-anchor="start" x="93.5" y="-284.5" font-family="Helvetica,sans-Serif" font-size="10.00">anch::logger::Writer</text>
<text text-anchor="start" x="140" y="-268.5" font-family="Helvetica,sans-Serif" font-size="10.00"> </text>
<text text-anchor="start" x="98.88" y="-252.5" font-family="Helvetica,sans-Serif" font-size="10.00">+</text>
<text text-anchor="start" x="117.5" y="-252.5" font-family="Helvetica,sans-Serif" font-size="10.00">Writer()</text>
<text text-anchor="start" x="98.88" y="-236.5" font-family="Helvetica,sans-Serif" font-size="10.00">+</text>
<text text-anchor="start" x="117.5" y="-236.5" font-family="Helvetica,sans-Serif" font-size="10.00">Writer()</text>
<text text-anchor="start" x="98.88" y="-220.5" font-family="Helvetica,sans-Serif" font-size="10.00">+</text>
<text text-anchor="start" x="117.5" y="-220.5" font-family="Helvetica,sans-Serif" font-size="10.00">~Writer()</text>
<text text-anchor="start" x="98.88" y="-204.5" font-family="Helvetica,sans-Serif" font-size="10.00">+</text>
<text text-anchor="start" x="117.5" y="-204.5" font-family="Helvetica,sans-Serif" font-size="10.00">write()</text>
<text text-anchor="start" x="98.88" y="-188.5" font-family="Helvetica,sans-Serif" font-size="10.00">#</text>
<text text-anchor="start" x="117.5" y="-188.5" font-family="Helvetica,sans-Serif" font-size="10.00">rotate()</text>
<text text-anchor="start" x="98.88" y="-172.5" font-family="Helvetica,sans-Serif" font-size="10.00">#</text>
<text text-anchor="start" x="117.5" y="-172.5" font-family="Helvetica,sans-Serif" font-size="10.00">rotateFiles()</text>
<polygon fill="#666666" stroke="#666666" points="88.5,-280 88.5,-280 194.5,-280 194.5,-280 88.5,-280"/>
<polygon fill="#666666" stroke="#666666" points="88.5,-264 88.5,-264 194.5,-264 194.5,-264 88.5,-264"/>
<polygon fill="none" stroke="#666666" points="88.5,-166 88.5,-298 194.5,-298 194.5,-166 88.5,-166"/>
</a>
</g>
</g>
<!-- Node2&#45;&gt;Node1 -->
<g id="edge1_Node000001_Node000002" class="edge">
<title>Node2&#45;&gt;Node1</title>
<g id="a_edge1_Node000001_Node000002"><a xlink:title=" ">
<path fill="none" stroke="#63b8ff" d="M141.5,-154.77C141.5,-146.11 141.5,-137.36 141.5,-128.89"/>
<polygon fill="none" stroke="#63b8ff" points="138,-154.55 141.5,-164.55 145,-154.55 138,-154.55"/>
</a>
</g>
</g>
<!-- Node3 -->
<g id="Node000003" class="node">
<title>Node3</title>
<g id="a_Node000003"><a xlink:title=" ">
<polygon fill="white" stroke="none" points="96,-421.25 25,-421.25 25,-369.25 96,-369.25 96,-421.25"/>
<text text-anchor="start" x="29.75" y="-407.75" font-family="Helvetica,sans-Serif" font-size="10.00">std::ostream</text>
<text text-anchor="start" x="59" y="-391.75" font-family="Helvetica,sans-Serif" font-size="10.00"> </text>
<text text-anchor="start" x="59" y="-375.75" font-family="Helvetica,sans-Serif" font-size="10.00"> </text>
<polygon fill="#666666" stroke="#666666" points="25,-403.25 25,-403.25 96,-403.25 96,-403.25 25,-403.25"/>
<polygon fill="#666666" stroke="#666666" points="25,-387.25 25,-387.25 96,-387.25 96,-387.25 25,-387.25"/>
<polygon fill="none" stroke="#666666" points="25,-369.25 25,-421.25 96,-421.25 96,-369.25 25,-369.25"/>
</a>
</g>
</g>
<!-- Node3&#45;&gt;Node2 -->
<g id="edge2_Node000002_Node000003" class="edge">
<title>Node3&#45;&gt;Node2</title>
<g id="a_edge2_Node000002_Node000003"><a xlink:title=" ">
<path fill="none" stroke="#63b8ff" d="M72.98,-369.41C81.1,-353.23 92.18,-331.18 103.06,-309.53"/>
<polygon fill="none" stroke="#63b8ff" points="103.09,-309.45 102.21,-302.3 108.48,-298.73 109.36,-305.89 103.09,-309.45"/>
</a>
</g>
<text text-anchor="middle" x="123.5" y="-319.25" font-family="Helvetica,sans-Serif" font-size="10.00" fill="grey"> #_output</text>
</g>
<!-- Node4 -->
<g id="Node000004" class="node">
<title>Node4</title>
<g id="a_Node000004"><a xlink:title=" ">
<polygon fill="white" stroke="none" points="111.5,-545.75 9.5,-545.75 9.5,-480.75 111.5,-480.75 111.5,-545.75"/>
<text text-anchor="start" x="14.38" y="-532.25" font-family="Helvetica,sans-Serif" font-size="10.00">std::basic_ostream</text>
<text text-anchor="start" x="38" y="-519.5" font-family="Helvetica,sans-Serif" font-size="10.00">&lt; Char &gt;</text>
<text text-anchor="start" x="59" y="-503.25" font-family="Helvetica,sans-Serif" font-size="10.00"> </text>
<text text-anchor="start" x="59" y="-487.25" font-family="Helvetica,sans-Serif" font-size="10.00"> </text>
<polygon fill="#666666" stroke="#666666" points="9.5,-514.75 9.5,-514.75 111.5,-514.75 111.5,-514.75 9.5,-514.75"/>
<polygon fill="#666666" stroke="#666666" points="9.5,-498.75 9.5,-498.75 111.5,-498.75 111.5,-498.75 9.5,-498.75"/>
<polygon fill="none" stroke="#666666" points="9.5,-480.75 9.5,-545.75 111.5,-545.75 111.5,-480.75 9.5,-480.75"/>
</a>
</g>
</g>
<!-- Node4&#45;&gt;Node3 -->
<g id="edge3_Node000003_Node000004" class="edge">
<title>Node4&#45;&gt;Node3</title>
<g id="a_edge3_Node000003_Node000004"><a xlink:title=" ">
<path fill="none" stroke="#63b8ff" d="M60.5,-469.39C60.5,-453.11 60.5,-435.11 60.5,-421.05"/>
<polygon fill="none" stroke="#63b8ff" points="57,-469.35 60.5,-479.35 64,-469.35 57,-469.35"/>
</a>
</g>
</g>
<!-- Node5 -->
<g id="Node000005" class="node">
<title>Node5</title>
<g id="a_Node000005"><a xlink:title=" ">
<polygon fill="white" stroke="none" points="121,-634.75 0,-634.75 0,-582.75 121,-582.75 121,-634.75"/>
<text text-anchor="start" x="5" y="-621.25" font-family="Helvetica,sans-Serif" font-size="10.00">std::basic_ios&lt; Char &gt;</text>
<text text-anchor="start" x="59" y="-605.25" font-family="Helvetica,sans-Serif" font-size="10.00"> </text>
<text text-anchor="start" x="59" y="-589.25" font-family="Helvetica,sans-Serif" font-size="10.00"> </text>
<polygon fill="#666666" stroke="#666666" points="0,-616.75 0,-616.75 121,-616.75 121,-616.75 0,-616.75"/>
<polygon fill="#666666" stroke="#666666" points="0,-600.75 0,-600.75 121,-600.75 121,-600.75 0,-600.75"/>
<polygon fill="none" stroke="#666666" points="0,-582.75 0,-634.75 121,-634.75 121,-582.75 0,-582.75"/>
</a>
</g>
</g>
<!-- Node5&#45;&gt;Node4 -->
<g id="edge4_Node000004_Node000005" class="edge">
<title>Node5&#45;&gt;Node4</title>
<g id="a_edge4_Node000004_Node000005"><a xlink:title=" ">
<path fill="none" stroke="#63b8ff" d="M60.5,-571.87C60.5,-563.25 60.5,-554.1 60.5,-545.7"/>
<polygon fill="none" stroke="#63b8ff" points="57,-571.67 60.5,-581.67 64,-571.67 57,-571.67"/>
</a>
</g>
</g>
<!-- Node6 -->
<g id="Node000006" class="node">
<title>Node6</title>
<g id="a_Node000006"><a xlink:title=" ">
<polygon fill="white" stroke="none" points="97,-723.75 24,-723.75 24,-671.75 97,-671.75 97,-723.75"/>
<text text-anchor="start" x="28.62" y="-710.25" font-family="Helvetica,sans-Serif" font-size="10.00">std::ios_base</text>
<text text-anchor="start" x="59" y="-694.25" font-family="Helvetica,sans-Serif" font-size="10.00"> </text>
<text text-anchor="start" x="59" y="-678.25" font-family="Helvetica,sans-Serif" font-size="10.00"> </text>
<polygon fill="#666666" stroke="#666666" points="24,-705.75 24,-705.75 97,-705.75 97,-705.75 24,-705.75"/>
<polygon fill="#666666" stroke="#666666" points="24,-689.75 24,-689.75 97,-689.75 97,-689.75 24,-689.75"/>
<polygon fill="none" stroke="#666666" points="24,-671.75 24,-723.75 97,-723.75 97,-671.75 24,-671.75"/>
</a>
</g>
</g>
<!-- Node6&#45;&gt;Node5 -->
<g id="edge5_Node000005_Node000006" class="edge">
<title>Node6&#45;&gt;Node5</title>
<g id="a_edge5_Node000005_Node000006"><a xlink:title=" ">
<path fill="none" stroke="#63b8ff" d="M60.5,-660.8C60.5,-651.96 60.5,-642.69 60.5,-634.51"/>
<polygon fill="none" stroke="#63b8ff" points="57,-660.54 60.5,-670.54 64,-660.54 57,-660.54"/>
</a>
</g>
</g>
<!-- Node7 -->
<g id="Node000007" class="node">
<title>Node7</title>
<g id="a_Node000007"><a xlink:href="classanch_1_1logger_1_1formatter_1_1_message_formatter.html" target="_top" xlink:title=" ">
<polygon fill="white" stroke="none" points="241,-443.75 114,-443.75 114,-346.75 241,-346.75 241,-443.75"/>
<text text-anchor="start" x="121.25" y="-430.25" font-family="Helvetica,sans-Serif" font-size="10.00">anch::logger::formatter</text>
<text text-anchor="start" x="128.75" y="-417.5" font-family="Helvetica,sans-Serif" font-size="10.00">::MessageFormatter</text>
<text text-anchor="start" x="176" y="-401.25" font-family="Helvetica,sans-Serif" font-size="10.00"> </text>
<text text-anchor="start" x="117.88" y="-385.25" font-family="Helvetica,sans-Serif" font-size="10.00">+</text>
<text text-anchor="start" x="130" y="-385.25" font-family="Helvetica,sans-Serif" font-size="10.00">MessageFormatter()</text>
<text text-anchor="start" x="117.88" y="-369.25" font-family="Helvetica,sans-Serif" font-size="10.00">+</text>
<text text-anchor="start" x="130" y="-369.25" font-family="Helvetica,sans-Serif" font-size="10.00">~MessageFormatter()</text>
<text text-anchor="start" x="117.88" y="-353.25" font-family="Helvetica,sans-Serif" font-size="10.00">+</text>
<text text-anchor="start" x="130" y="-353.25" font-family="Helvetica,sans-Serif" font-size="10.00">formatMessage()</text>
<polygon fill="#666666" stroke="#666666" points="114,-412.75 114,-412.75 241,-412.75 241,-412.75 114,-412.75"/>
<polygon fill="#666666" stroke="#666666" points="114,-396.75 114,-396.75 241,-396.75 241,-396.75 114,-396.75"/>
<polygon fill="none" stroke="#666666" points="114,-346.75 114,-443.75 241,-443.75 241,-346.75 114,-346.75"/>
</a>
</g>
</g>
<!-- Node7&#45;&gt;Node2 -->
<g id="edge6_Node000002_Node000007" class="edge">
<title>Node7&#45;&gt;Node2</title>
<g id="a_edge6_Node000002_Node000007"><a xlink:title=" ">
<path fill="none" stroke="#63b8ff" d="M166.99,-347.18C164.41,-335.6 161.57,-322.91 158.76,-310.32"/>
<polygon fill="none" stroke="#63b8ff" points="158.78,-310.4 153.57,-305.42 156.17,-298.69 161.38,-303.68 158.78,-310.4"/>
</a>
</g>
<text text-anchor="middle" x="194" y="-319.25" font-family="Helvetica,sans-Serif" font-size="10.00" fill="grey"> #_formatter</text>
</g>
</g>
</svg>

<g id="navigator" transform="translate(0 0)" fill="#404254">
  <rect fill="#f2f5e9" fill-opacity="0.5" stroke="#606060" stroke-width=".5" x="0" y="0" width="60" height="60"/>
  <use id="zoomplus" xlink:href="#zoomPlus" x="17" y="9" onmousedown="handleZoom(evt,'in')"/>
  <use id="zoomminus" xlink:href="#zoomMin" x="42" y="9" onmousedown="handleZoom(evt,'out')"/>
  <use id="reset" xlink:href="#resetDef" x="30" y="36" onmousedown="handleReset()"/>
   <use id="arrowup" xlink:href="#arrowUp" x="0" y="0" onmousedown="handlePan(0,-1)"/>
  <use id="arrowright" xlink:href="#arrowRight" x="0" y="0" onmousedown="handlePan(1,0)"/>
  <use id="arrowdown" xlink:href="#arrowDown" x="0" y="0" onmousedown="handlePan(0,1)"/>
  <use id="arrowleft" xlink:href="#arrowLeft" x="0" y="0" onmousedown="handlePan(-1,0)"/>
</g>
<svg viewBox="0 0 15 15" width="100%" height="30px" preserveAspectRatio="xMaxYMin meet">
 <g id="arrow_out" transform="scale(0.3 0.3)">
  <a xlink:href="classanch_1_1logger_1_1_low_priority_writer__coll__graph_org.svg" target="_base">
   <rect id="button" ry="5" rx="5" y="6" x="6" height="38" width="38"
        fill="#f2f5e9" fill-opacity="0.5" stroke="#606060" stroke-width="1.0"/>
   <path id="arrow"
     d="M 11.500037,31.436501 C 11.940474,20.09759 22.043105,11.32322 32.158766,21.979434 L 37.068811,17.246167 C 37.068811,17.246167 37.088388,32 37.088388,32 L 22.160133,31.978069 C 22.160133,31.978069 26.997745,27.140456 26.997745,27.140456 C 18.528582,18.264221 13.291696,25.230495 11.500037,31.436501 z"
     style="fill:#404040;"/>
  </a>
 </g>
</svg>

<style type='text/css'>
<![CDATA[
[data-mouse-over-selected='false'] { opacity: 0.7; }
[data-mouse-over-selected='true']  { opacity: 1.0; }
]]>
</style>
<script type="application/ecmascript"><![CDATA[
document.addEventListener('DOMContentLoaded', (event) => {
  highlightEdges();
  highlightAdjacentNodes();
});
]]></script>
</svg>
