<?xml version="1.0" encoding="UTF-8" standalone="no"?>
<!DOCTYPE svg PUBLIC "-//W3C//DTD SVG 1.1//EN"
 "http://www.w3.org/Graphics/SVG/1.1/DTD/svg11.dtd">
<!-- Generated by graphviz version 14.0.5 (0)
 -->
<!-- Title: anch::events::Observer&lt; T &gt; Pages: 1 -->
<svg width="992pt" height="411pt"
 viewBox="0.00 0.00 992.00 411.00" xmlns="http://www.w3.org/2000/svg" xmlns:xlink="http://www.w3.org/1999/xlink">
<g id="graph0" class="graph" transform="scale(1 1) rotate(0) translate(4 407)">
<title>anch::events::Observer&lt; T &gt;</title>
<!-- Node1 -->
<g id="Node000001" class="node">
<title>Node1</title>
<g id="a_Node000001"><a xlink:title="An observer interface of the observers/observable design pattern.">
<polygon fill="#999999" stroke="none" points="546.38,-403 413.12,-403 413.12,-351 546.38,-351 546.38,-403"/>
<text xml:space="preserve" text-anchor="start" x="417.12" y="-389.5" font-family="Helvetica,sans-Serif" font-size="10.00">anch::events::Observer&lt; T &gt;</text>
<text xml:space="preserve" text-anchor="start" x="478.25" y="-373.5" font-family="Helvetica,sans-Serif" font-size="10.00"> </text>
<text xml:space="preserve" text-anchor="start" x="437.31" y="-357.5" font-family="Helvetica,sans-Serif" font-size="10.00">+</text>
<text xml:space="preserve" text-anchor="start" x="467.5" y="-357.5" font-family="Helvetica,sans-Serif" font-size="10.00">handle()</text>
<polygon fill="#666666" stroke="#666666" points="413.12,-385 413.12,-385 546.38,-385 546.38,-385 413.12,-385"/>
<polygon fill="#666666" stroke="#666666" points="413.12,-369 413.12,-369 546.38,-369 546.38,-369 413.12,-369"/>
<polygon fill="none" stroke="#666666" points="413.12,-351 413.12,-403 546.38,-403 546.38,-351 413.12,-351"/>
</a>
</g>
</g>
<!-- Node2 -->
<g id="Node000002" class="node">
<title>Node2</title>
<g id="a_Node000002"><a xlink:href="classanch_1_1events_1_1_event_handler.html" target="_top" xlink:title="An event handler.">
<polygon fill="white" stroke="none" points="129.5,-297 0,-297 0,-185 129.5,-185 129.5,-297"/>
<text xml:space="preserve" text-anchor="start" x="4" y="-283.5" font-family="Helvetica,sans-Serif" font-size="10.00">anch::events::EventHandler</text>
<text xml:space="preserve" text-anchor="start" x="33.62" y="-271.5" font-family="Helvetica,sans-Serif" font-size="10.00">&lt; T, Derived &gt;</text>
<text xml:space="preserve" text-anchor="start" x="63.25" y="-255.5" font-family="Helvetica,sans-Serif" font-size="10.00"> </text>
<text xml:space="preserve" text-anchor="start" x="14.06" y="-239.5" font-family="Helvetica,sans-Serif" font-size="10.00">+</text>
<text xml:space="preserve" text-anchor="start" x="34.12" y="-239.5" font-family="Helvetica,sans-Serif" font-size="10.00">EventHandler()</text>
<text xml:space="preserve" text-anchor="start" x="14.06" y="-223.5" font-family="Helvetica,sans-Serif" font-size="10.00">+</text>
<text xml:space="preserve" text-anchor="start" x="34.12" y="-223.5" font-family="Helvetica,sans-Serif" font-size="10.00">EventHandler()</text>
<text xml:space="preserve" text-anchor="start" x="14.06" y="-207.5" font-family="Helvetica,sans-Serif" font-size="10.00">+</text>
<text xml:space="preserve" text-anchor="start" x="34.12" y="-207.5" font-family="Helvetica,sans-Serif" font-size="10.00">~EventHandler()</text>
<text xml:space="preserve" text-anchor="start" x="14.06" y="-191.5" font-family="Helvetica,sans-Serif" font-size="10.00">+</text>
<text xml:space="preserve" text-anchor="start" x="34.12" y="-191.5" font-family="Helvetica,sans-Serif" font-size="10.00">handle()</text>
<polygon fill="#666666" stroke="#666666" points="0,-267 0,-267 129.5,-267 129.5,-267 0,-267"/>
<polygon fill="#666666" stroke="#666666" points="0,-251 0,-251 129.5,-251 129.5,-251 0,-251"/>
<polygon fill="none" stroke="#666666" points="0,-185 0,-297 129.5,-297 129.5,-185 0,-185"/>
</a>
</g>
</g>
<!-- Node1&#45;&gt;Node2 -->
<g id="edge1_Node000001_Node000002" class="edge">
<title>Node1&#45;&gt;Node2</title>
<g id="a_edge1_Node000001_Node000002"><a xlink:title=" ">
<path fill="none" stroke="#63b8ff" d="M401.95,-369.97C329.95,-361.69 221.82,-342.27 138.75,-297 135.66,-295.31 132.55,-293.51 129.45,-291.63"/>
<polygon fill="none" stroke="#63b8ff" points="401.36,-373.42 411.68,-371.04 402.13,-366.47 401.36,-373.42"/>
</a>
</g>
</g>
<!-- Node3 -->
<g id="Node000003" class="node">
<title>Node3</title>
<g id="a_Node000003"><a xlink:href="classanch_1_1events_1_1_observer.html" target="_top" xlink:title=" ">
<polygon fill="white" stroke="none" points="282.12,-273 147.38,-273 147.38,-209 282.12,-209 282.12,-273"/>
<text xml:space="preserve" text-anchor="start" x="151.38" y="-259.5" font-family="Helvetica,sans-Serif" font-size="10.00">anch::events::Observer</text>
<text xml:space="preserve" text-anchor="start" x="151.38" y="-247.5" font-family="Helvetica,sans-Serif" font-size="10.00">&lt; anch::json::MappingError &gt;</text>
<text xml:space="preserve" text-anchor="start" x="213.25" y="-231.5" font-family="Helvetica,sans-Serif" font-size="10.00"> </text>
<text xml:space="preserve" text-anchor="start" x="171.94" y="-215.5" font-family="Helvetica,sans-Serif" font-size="10.00">+</text>
<text xml:space="preserve" text-anchor="start" x="202.5" y="-215.5" font-family="Helvetica,sans-Serif" font-size="10.00">handle()</text>
<polygon fill="#666666" stroke="#666666" points="147.38,-243 147.38,-243 282.12,-243 282.12,-243 147.38,-243"/>
<polygon fill="#666666" stroke="#666666" points="147.38,-227 147.38,-227 282.12,-227 282.12,-227 147.38,-227"/>
<polygon fill="none" stroke="#666666" points="147.38,-209 147.38,-273 282.12,-273 282.12,-209 147.38,-209"/>
</a>
</g>
</g>
<!-- Node1&#45;&gt;Node3 -->
<g id="edge2_Node000001_Node000003" class="edge">
<title>Node1&#45;&gt;Node3</title>
<g id="a_edge2_Node000001_Node000003"><a xlink:title=" ">
<path fill="none" stroke="orange" d="M402.09,-368.84C346.44,-362.3 277.51,-350.9 255,-333 236.34,-318.16 226.1,-292.88 220.63,-272.72"/>
<polygon fill="orange" stroke="orange" points="401.55,-372.3 411.88,-369.95 402.34,-365.34 401.55,-372.3"/>
</a>
</g>
<text xml:space="preserve" text-anchor="start" x="258" y="-320.5" font-family="Helvetica,sans-Serif" font-size="10.00" fill="grey">&lt; anch::json::MappingError &gt;</text>
</g>
<!-- Node5 -->
<g id="Node000005" class="node">
<title>Node5</title>
<g id="a_Node000005"><a xlink:href="classanch_1_1events_1_1_observer.html" target="_top" xlink:title=" ">
<polygon fill="white" stroke="none" points="409.75,-273 299.75,-273 299.75,-209 409.75,-209 409.75,-273"/>
<text xml:space="preserve" text-anchor="start" x="303.75" y="-259.5" font-family="Helvetica,sans-Serif" font-size="10.00">anch::events::Observer</text>
<text xml:space="preserve" text-anchor="start" x="322.5" y="-247.5" font-family="Helvetica,sans-Serif" font-size="10.00">&lt; JSONItem &gt;</text>
<text xml:space="preserve" text-anchor="start" x="353.25" y="-231.5" font-family="Helvetica,sans-Serif" font-size="10.00"> </text>
<text xml:space="preserve" text-anchor="start" x="318.12" y="-215.5" font-family="Helvetica,sans-Serif" font-size="10.00">+</text>
<text xml:space="preserve" text-anchor="start" x="342.5" y="-215.5" font-family="Helvetica,sans-Serif" font-size="10.00">handle()</text>
<polygon fill="#666666" stroke="#666666" points="299.75,-243 299.75,-243 409.75,-243 409.75,-243 299.75,-243"/>
<polygon fill="#666666" stroke="#666666" points="299.75,-227 299.75,-227 409.75,-227 409.75,-227 299.75,-227"/>
<polygon fill="none" stroke="#666666" points="299.75,-209 299.75,-273 409.75,-273 409.75,-209 299.75,-209"/>
</a>
</g>
</g>
<!-- Node1&#45;&gt;Node5 -->
<g id="edge4_Node000001_Node000005" class="edge">
<title>Node1&#45;&gt;Node5</title>
<g id="a_edge4_Node000001_Node000005"><a xlink:title=" ">
<path fill="none" stroke="orange" d="M419.57,-344.54C414.82,-340.96 410.3,-337.11 406.25,-333 389.3,-315.81 376.06,-291.92 367.25,-272.93"/>
<polygon fill="orange" stroke="orange" points="417.5,-347.36 427.7,-350.22 421.51,-341.63 417.5,-347.36"/>
</a>
</g>
<text xml:space="preserve" text-anchor="start" x="409.25" y="-320.5" font-family="Helvetica,sans-Serif" font-size="10.00" fill="grey">&lt; JSONItem &gt;</text>
</g>
<!-- Node7 -->
<g id="Node000007" class="node">
<title>Node7</title>
<g id="a_Node000007"><a xlink:href="classanch_1_1events_1_1_observer.html" target="_top" xlink:title=" ">
<polygon fill="white" stroke="none" points="551.5,-273 428,-273 428,-209 551.5,-209 551.5,-273"/>
<text xml:space="preserve" text-anchor="start" x="432" y="-259.5" font-family="Helvetica,sans-Serif" font-size="10.00">anch::events::Observer</text>
<text xml:space="preserve" text-anchor="start" x="432" y="-247.5" font-family="Helvetica,sans-Serif" font-size="10.00">&lt; anch::json::JSONItem &gt;</text>
<text xml:space="preserve" text-anchor="start" x="488.25" y="-231.5" font-family="Helvetica,sans-Serif" font-size="10.00"> </text>
<text xml:space="preserve" text-anchor="start" x="449.75" y="-215.5" font-family="Helvetica,sans-Serif" font-size="10.00">+</text>
<text xml:space="preserve" text-anchor="start" x="477.5" y="-215.5" font-family="Helvetica,sans-Serif" font-size="10.00">handle()</text>
<polygon fill="#666666" stroke="#666666" points="428,-243 428,-243 551.5,-243 551.5,-243 428,-243"/>
<polygon fill="#666666" stroke="#666666" points="428,-227 428,-227 551.5,-227 551.5,-227 428,-227"/>
<polygon fill="none" stroke="#666666" points="428,-209 428,-273 551.5,-273 551.5,-209 428,-209"/>
</a>
</g>
</g>
<!-- Node1&#45;&gt;Node7 -->
<g id="edge6_Node000001_Node000007" class="edge">
<title>Node1&#45;&gt;Node7</title>
<g id="a_edge6_Node000001_Node000007"><a xlink:title=" ">
<path fill="none" stroke="orange" d="M480.1,-339.61C480.33,-331.5 480.69,-322.95 481.25,-315 482.23,-301.13 483.91,-285.83 485.53,-272.84"/>
<polygon fill="orange" stroke="orange" points="476.6,-339.46 479.88,-349.53 483.6,-339.61 476.6,-339.46"/>
</a>
</g>
<text xml:space="preserve" text-anchor="start" x="484.25" y="-320.5" font-family="Helvetica,sans-Serif" font-size="10.00" fill="grey">&lt; anch::json::JSONItem &gt;</text>
</g>
<!-- Node8 -->
<g id="Node000008" class="node">
<title>Node8</title>
<g id="a_Node000008"><a xlink:href="classanch_1_1events_1_1_observer.html" target="_top" xlink:title=" ">
<polygon fill="white" stroke="none" points="679.75,-273 569.75,-273 569.75,-209 679.75,-209 679.75,-273"/>
<text xml:space="preserve" text-anchor="start" x="573.75" y="-259.5" font-family="Helvetica,sans-Serif" font-size="10.00">anch::events::Observer</text>
<text xml:space="preserve" text-anchor="start" x="582" y="-247.5" font-family="Helvetica,sans-Serif" font-size="10.00">&lt; std::streamsize &gt;</text>
<text xml:space="preserve" text-anchor="start" x="623.25" y="-231.5" font-family="Helvetica,sans-Serif" font-size="10.00"> </text>
<text xml:space="preserve" text-anchor="start" x="588.12" y="-215.5" font-family="Helvetica,sans-Serif" font-size="10.00">+</text>
<text xml:space="preserve" text-anchor="start" x="612.5" y="-215.5" font-family="Helvetica,sans-Serif" font-size="10.00">handle()</text>
<polygon fill="#666666" stroke="#666666" points="569.75,-243 569.75,-243 679.75,-243 679.75,-243 569.75,-243"/>
<polygon fill="#666666" stroke="#666666" points="569.75,-227 569.75,-227 679.75,-227 679.75,-227 569.75,-227"/>
<polygon fill="none" stroke="#666666" points="569.75,-209 569.75,-273 679.75,-273 679.75,-209 569.75,-209"/>
</a>
</g>
</g>
<!-- Node1&#45;&gt;Node8 -->
<g id="edge7_Node000001_Node000008" class="edge">
<title>Node1&#45;&gt;Node8</title>
<g id="a_edge7_Node000001_Node000008"><a xlink:title=" ">
<path fill="none" stroke="orange" d="M556.79,-362.07C573.9,-355.72 590.55,-346.47 602.75,-333 617.48,-316.73 622.79,-292.32 624.52,-272.87"/>
<polygon fill="orange" stroke="orange" points="555.91,-358.68 547.54,-365.18 558.14,-365.31 555.91,-358.68"/>
</a>
</g>
<text xml:space="preserve" text-anchor="start" x="616.72" y="-320.5" font-family="Helvetica,sans-Serif" font-size="10.00" fill="grey">&lt; std::streamsize &gt;</text>
</g>
<!-- Node9 -->
<g id="Node000009" class="node">
<title>Node9</title>
<g id="a_Node000009"><a xlink:href="classanch_1_1events_1_1_observer.html" target="_top" xlink:title=" ">
<polygon fill="white" stroke="none" points="807.75,-273 697.75,-273 697.75,-209 807.75,-209 807.75,-273"/>
<text xml:space="preserve" text-anchor="start" x="701.75" y="-259.5" font-family="Helvetica,sans-Serif" font-size="10.00">anch::events::Observer</text>
<text xml:space="preserve" text-anchor="start" x="715.62" y="-247.5" font-family="Helvetica,sans-Serif" font-size="10.00">&lt; SocketEvent &gt;</text>
<text xml:space="preserve" text-anchor="start" x="751.25" y="-231.5" font-family="Helvetica,sans-Serif" font-size="10.00"> </text>
<text xml:space="preserve" text-anchor="start" x="716.12" y="-215.5" font-family="Helvetica,sans-Serif" font-size="10.00">+</text>
<text xml:space="preserve" text-anchor="start" x="740.5" y="-215.5" font-family="Helvetica,sans-Serif" font-size="10.00">handle()</text>
<polygon fill="#666666" stroke="#666666" points="697.75,-243 697.75,-243 807.75,-243 807.75,-243 697.75,-243"/>
<polygon fill="#666666" stroke="#666666" points="697.75,-227 697.75,-227 807.75,-227 807.75,-227 697.75,-227"/>
<polygon fill="none" stroke="#666666" points="697.75,-209 697.75,-273 807.75,-273 807.75,-209 697.75,-209"/>
</a>
</g>
</g>
<!-- Node1&#45;&gt;Node9 -->
<g id="edge8_Node000001_Node000009" class="edge">
<title>Node1&#45;&gt;Node9</title>
<g id="a_edge8_Node000001_Node000009"><a xlink:title=" ">
<path fill="none" stroke="orange" d="M557.52,-368.91C614.32,-362.37 685.33,-350.91 708.75,-333 727.98,-318.29 739.27,-292.99 745.58,-272.8"/>
<polygon fill="orange" stroke="orange" points="557.42,-365.4 547.87,-369.99 558.2,-372.36 557.42,-365.4"/>
</a>
</g>
<text xml:space="preserve" text-anchor="start" x="728.47" y="-320.5" font-family="Helvetica,sans-Serif" font-size="10.00" fill="grey">&lt; SocketEvent &gt;</text>
</g>
<!-- Node10 -->
<g id="Node000010" class="node">
<title>Node10</title>
<g id="a_Node000010"><a xlink:href="classanch_1_1events_1_1_observer.html" target="_top" xlink:title=" ">
<polygon fill="white" stroke="none" points="975.62,-273 825.88,-273 825.88,-209 975.62,-209 975.62,-273"/>
<text xml:space="preserve" text-anchor="start" x="829.88" y="-259.5" font-family="Helvetica,sans-Serif" font-size="10.00">anch::events::Observer</text>
<text xml:space="preserve" text-anchor="start" x="829.88" y="-247.5" font-family="Helvetica,sans-Serif" font-size="10.00">&lt; anch::network::SocketEvent &gt;</text>
<text xml:space="preserve" text-anchor="start" x="899.25" y="-231.5" font-family="Helvetica,sans-Serif" font-size="10.00"> </text>
<text xml:space="preserve" text-anchor="start" x="854.19" y="-215.5" font-family="Helvetica,sans-Serif" font-size="10.00">+</text>
<text xml:space="preserve" text-anchor="start" x="888.5" y="-215.5" font-family="Helvetica,sans-Serif" font-size="10.00">handle()</text>
<polygon fill="#666666" stroke="#666666" points="825.88,-243 825.88,-243 975.62,-243 975.62,-243 825.88,-243"/>
<polygon fill="#666666" stroke="#666666" points="825.88,-227 825.88,-227 975.62,-227 975.62,-227 825.88,-227"/>
<polygon fill="none" stroke="#666666" points="825.88,-209 825.88,-273 975.62,-273 975.62,-209 825.88,-209"/>
</a>
</g>
</g>
<!-- Node1&#45;&gt;Node10 -->
<g id="edge9_Node000001_Node000010" class="edge">
<title>Node1&#45;&gt;Node10</title>
<g id="a_edge9_Node000001_Node000010"><a xlink:title=" ">
<path fill="none" stroke="orange" d="M557.56,-371.64C640.83,-365.97 766.74,-354.17 809.75,-333 837.81,-319.18 862.4,-293.26 878.92,-272.61"/>
<polygon fill="orange" stroke="orange" points="557.37,-368.15 547.62,-372.3 557.83,-375.13 557.37,-368.15"/>
</a>
</g>
<text xml:space="preserve" text-anchor="start" x="839.17" y="-320.5" font-family="Helvetica,sans-Serif" font-size="10.00" fill="grey">&lt; anch::network::SocketEvent &gt;</text>
</g>
<!-- Node4 -->
<g id="Node000004" class="node">
<title>Node4</title>
<g id="a_Node000004"><a xlink:href="class_error_observer.html" target="_top" xlink:title=" ">
<polygon fill="white" stroke="none" points="260.12,-132 169.38,-132 169.38,-16 260.12,-16 260.12,-132"/>
<text xml:space="preserve" text-anchor="start" x="184.38" y="-118.5" font-family="Helvetica,sans-Serif" font-size="10.00">ErrorObserver</text>
<text xml:space="preserve" text-anchor="start" x="213.25" y="-102.5" font-family="Helvetica,sans-Serif" font-size="10.00"> </text>
<text xml:space="preserve" text-anchor="start" x="173.38" y="-86.5" font-family="Helvetica,sans-Serif" font-size="10.00">+</text>
<text xml:space="preserve" text-anchor="start" x="183.38" y="-86.5" font-family="Helvetica,sans-Serif" font-size="10.00">ErrorObserver()</text>
<text xml:space="preserve" text-anchor="start" x="173.38" y="-70.5" font-family="Helvetica,sans-Serif" font-size="10.00">+</text>
<text xml:space="preserve" text-anchor="start" x="183.38" y="-70.5" font-family="Helvetica,sans-Serif" font-size="10.00">ErrorObserver()</text>
<text xml:space="preserve" text-anchor="start" x="173.38" y="-54.5" font-family="Helvetica,sans-Serif" font-size="10.00">+</text>
<text xml:space="preserve" text-anchor="start" x="183.38" y="-54.5" font-family="Helvetica,sans-Serif" font-size="10.00">ErrorObserver()</text>
<text xml:space="preserve" text-anchor="start" x="173.38" y="-38.5" font-family="Helvetica,sans-Serif" font-size="10.00">+</text>
<text xml:space="preserve" text-anchor="start" x="183.38" y="-38.5" font-family="Helvetica,sans-Serif" font-size="10.00">~ErrorObserver()</text>
<text xml:space="preserve" text-anchor="start" x="173.38" y="-22.5" font-family="Helvetica,sans-Serif" font-size="10.00">+</text>
<text xml:space="preserve" text-anchor="start" x="183.38" y="-22.5" font-family="Helvetica,sans-Serif" font-size="10.00">handle()</text>
<polygon fill="#666666" stroke="#666666" points="169.38,-114 169.38,-114 260.12,-114 260.12,-114 169.38,-114"/>
<polygon fill="#666666" stroke="#666666" points="169.38,-98 169.38,-98 260.12,-98 260.12,-98 169.38,-98"/>
<polygon fill="none" stroke="#666666" points="169.38,-16 169.38,-132 260.12,-132 260.12,-16 169.38,-16"/>
</a>
</g>
</g>
<!-- Node3&#45;&gt;Node4 -->
<g id="edge3_Node000003_Node000004" class="edge">
<title>Node3&#45;&gt;Node4</title>
<g id="a_edge3_Node000003_Node000004"><a xlink:title=" ">
<path fill="none" stroke="#63b8ff" d="M214.75,-198.07C214.75,-177.97 214.75,-153.6 214.75,-131.86"/>
<polygon fill="none" stroke="#63b8ff" points="211.25,-197.84 214.75,-207.84 218.25,-197.84 211.25,-197.84"/>
</a>
</g>
</g>
<!-- Node6 -->
<g id="Node000006" class="node">
<title>Node6</title>
<g id="a_Node000006"><a xlink:href="class_j_s_o_n_formatter.html" target="_top" xlink:title=" ">
<polygon fill="white" stroke="none" points="404.25,-148 305.25,-148 305.25,0 404.25,0 404.25,-148"/>
<text xml:space="preserve" text-anchor="start" x="320.25" y="-134.5" font-family="Helvetica,sans-Serif" font-size="10.00">JSONFormatter</text>
<text xml:space="preserve" text-anchor="start" x="353.25" y="-118.5" font-family="Helvetica,sans-Serif" font-size="10.00"> </text>
<text xml:space="preserve" text-anchor="start" x="309.25" y="-102.5" font-family="Helvetica,sans-Serif" font-size="10.00">+</text>
<text xml:space="preserve" text-anchor="start" x="319.25" y="-102.5" font-family="Helvetica,sans-Serif" font-size="10.00">JSONFormatter()</text>
<text xml:space="preserve" text-anchor="start" x="309.25" y="-86.5" font-family="Helvetica,sans-Serif" font-size="10.00">+</text>
<text xml:space="preserve" text-anchor="start" x="319.25" y="-86.5" font-family="Helvetica,sans-Serif" font-size="10.00">JSONFormatter()</text>
<text xml:space="preserve" text-anchor="start" x="309.25" y="-70.5" font-family="Helvetica,sans-Serif" font-size="10.00">+</text>
<text xml:space="preserve" text-anchor="start" x="319.25" y="-70.5" font-family="Helvetica,sans-Serif" font-size="10.00">JSONFormatter()</text>
<text xml:space="preserve" text-anchor="start" x="309.25" y="-54.5" font-family="Helvetica,sans-Serif" font-size="10.00">+</text>
<text xml:space="preserve" text-anchor="start" x="319.25" y="-54.5" font-family="Helvetica,sans-Serif" font-size="10.00">JSONFormatter()</text>
<text xml:space="preserve" text-anchor="start" x="309.25" y="-38.5" font-family="Helvetica,sans-Serif" font-size="10.00">+</text>
<text xml:space="preserve" text-anchor="start" x="319.25" y="-38.5" font-family="Helvetica,sans-Serif" font-size="10.00">~JSONFormatter()</text>
<text xml:space="preserve" text-anchor="start" x="309.25" y="-22.5" font-family="Helvetica,sans-Serif" font-size="10.00">+</text>
<text xml:space="preserve" text-anchor="start" x="319.25" y="-22.5" font-family="Helvetica,sans-Serif" font-size="10.00">addField()</text>
<text xml:space="preserve" text-anchor="start" x="309.25" y="-6.5" font-family="Helvetica,sans-Serif" font-size="10.00">+</text>
<text xml:space="preserve" text-anchor="start" x="319.25" y="-6.5" font-family="Helvetica,sans-Serif" font-size="10.00">handle()</text>
<polygon fill="#666666" stroke="#666666" points="305.25,-130 305.25,-130 404.25,-130 404.25,-130 305.25,-130"/>
<polygon fill="#666666" stroke="#666666" points="305.25,-114 305.25,-114 404.25,-114 404.25,-114 305.25,-114"/>
<polygon fill="none" stroke="#666666" points="305.25,0 305.25,-148 404.25,-148 404.25,0 305.25,0"/>
</a>
</g>
</g>
<!-- Node5&#45;&gt;Node6 -->
<g id="edge5_Node000005_Node000006" class="edge">
<title>Node5&#45;&gt;Node6</title>
<g id="a_edge5_Node000005_Node000006"><a xlink:title=" ">
<path fill="none" stroke="#63b8ff" d="M354.75,-198.2C354.75,-182.92 354.75,-165.16 354.75,-147.96"/>
<polygon fill="none" stroke="#63b8ff" points="351.25,-197.84 354.75,-207.84 358.25,-197.84 351.25,-197.84"/>
</a>
</g>
</g>
<!-- Node11 -->
<g id="Node000011" class="node">
<title>Node11</title>
<g id="a_Node000011"><a xlink:href="classanch_1_1ut_1_1_socket_server_runner.html" target="_top" xlink:title="Socket server unit tests runner.">
<polygon fill="white" stroke="none" points="970.75,-132 830.75,-132 830.75,-16 970.75,-16 970.75,-132"/>
<text xml:space="preserve" text-anchor="start" x="834.75" y="-118.5" font-family="Helvetica,sans-Serif" font-size="10.00">anch::ut::SocketServerRunner</text>
<text xml:space="preserve" text-anchor="start" x="899.25" y="-102.5" font-family="Helvetica,sans-Serif" font-size="10.00"> </text>
<text xml:space="preserve" text-anchor="start" x="839.56" y="-86.5" font-family="Helvetica,sans-Serif" font-size="10.00">+</text>
<text xml:space="preserve" text-anchor="start" x="854.38" y="-86.5" font-family="Helvetica,sans-Serif" font-size="10.00">SocketServerRunner()</text>
<text xml:space="preserve" text-anchor="start" x="839.56" y="-70.5" font-family="Helvetica,sans-Serif" font-size="10.00">+</text>
<text xml:space="preserve" text-anchor="start" x="854.38" y="-70.5" font-family="Helvetica,sans-Serif" font-size="10.00">SocketServerRunner()</text>
<text xml:space="preserve" text-anchor="start" x="839.56" y="-54.5" font-family="Helvetica,sans-Serif" font-size="10.00">+</text>
<text xml:space="preserve" text-anchor="start" x="854.38" y="-54.5" font-family="Helvetica,sans-Serif" font-size="10.00">SocketServerRunner()</text>
<text xml:space="preserve" text-anchor="start" x="839.56" y="-38.5" font-family="Helvetica,sans-Serif" font-size="10.00">+</text>
<text xml:space="preserve" text-anchor="start" x="854.38" y="-38.5" font-family="Helvetica,sans-Serif" font-size="10.00">~SocketServerRunner()</text>
<text xml:space="preserve" text-anchor="start" x="839.56" y="-22.5" font-family="Helvetica,sans-Serif" font-size="10.00">+</text>
<text xml:space="preserve" text-anchor="start" x="854.38" y="-22.5" font-family="Helvetica,sans-Serif" font-size="10.00">handle()</text>
<polygon fill="#666666" stroke="#666666" points="830.75,-114 830.75,-114 970.75,-114 970.75,-114 830.75,-114"/>
<polygon fill="#666666" stroke="#666666" points="830.75,-98 830.75,-98 970.75,-98 970.75,-98 830.75,-98"/>
<polygon fill="none" stroke="#666666" points="830.75,-16 830.75,-132 970.75,-132 970.75,-16 830.75,-16"/>
</a>
</g>
</g>
<!-- Node10&#45;&gt;Node11 -->
<g id="edge10_Node000010_Node000011" class="edge">
<title>Node10&#45;&gt;Node11</title>
<g id="a_edge10_Node000010_Node000011"><a xlink:title=" ">
<path fill="none" stroke="#8b1a1a" d="M900.75,-198.07C900.75,-177.97 900.75,-153.6 900.75,-131.86"/>
<polygon fill="none" stroke="#8b1a1a" points="897.25,-197.84 900.75,-207.84 904.25,-197.84 897.25,-197.84"/>
</a>
</g>
</g>
</g>
</svg>
