<?xml version="1.0" encoding="UTF-8" standalone="no"?>
<!DOCTYPE svg PUBLIC "-//W3C//DTD SVG 1.1//EN"
 "http://www.w3.org/Graphics/SVG/1.1/DTD/svg11.dtd">
<!-- Generated by graphviz version 14.0.5 (0)
 -->
<!-- Title: anch::crypto::SHA1 Pages: 1 -->
<svg width="106pt" height="615pt"
 viewBox="0.00 0.00 106.00 615.00" xmlns="http://www.w3.org/2000/svg" xmlns:xlink="http://www.w3.org/1999/xlink">
<g id="graph0" class="graph" transform="scale(1 1) rotate(0) translate(4 611)">
<title>anch::crypto::SHA1</title>
<!-- Node1 -->
<g id="Node000001" class="node">
<title>Node1</title>
<g id="a_Node000001"><a xlink:title="SHA1 hash algorithm implementation.">
<polygon fill="#999999" stroke="none" points="94.25,-164 0,-164 0,0 94.25,0 94.25,-164"/>
<text xml:space="preserve" text-anchor="start" x="4" y="-150.5" font-family="Helvetica,sans-Serif" font-size="10.00">anch::crypto::SHA1</text>
<text xml:space="preserve" text-anchor="start" x="45.62" y="-134.5" font-family="Helvetica,sans-Serif" font-size="10.00"> </text>
<text xml:space="preserve" text-anchor="start" x="12.38" y="-118.5" font-family="Helvetica,sans-Serif" font-size="10.00">+</text>
<text xml:space="preserve" text-anchor="start" x="30.75" y="-118.5" font-family="Helvetica,sans-Serif" font-size="10.00">SHA1()</text>
<text xml:space="preserve" text-anchor="start" x="12.38" y="-102.5" font-family="Helvetica,sans-Serif" font-size="10.00">+</text>
<text xml:space="preserve" text-anchor="start" x="30.75" y="-102.5" font-family="Helvetica,sans-Serif" font-size="10.00">SHA1()</text>
<text xml:space="preserve" text-anchor="start" x="12.38" y="-86.5" font-family="Helvetica,sans-Serif" font-size="10.00">+</text>
<text xml:space="preserve" text-anchor="start" x="30.75" y="-86.5" font-family="Helvetica,sans-Serif" font-size="10.00">SHA1()</text>
<text xml:space="preserve" text-anchor="start" x="12.38" y="-70.5" font-family="Helvetica,sans-Serif" font-size="10.00">+</text>
<text xml:space="preserve" text-anchor="start" x="30.75" y="-70.5" font-family="Helvetica,sans-Serif" font-size="10.00">~SHA1()</text>
<text xml:space="preserve" text-anchor="start" x="12.38" y="-54.5" font-family="Helvetica,sans-Serif" font-size="10.00">+</text>
<text xml:space="preserve" text-anchor="start" x="30.75" y="-54.5" font-family="Helvetica,sans-Serif" font-size="10.00">digest()</text>
<text xml:space="preserve" text-anchor="start" x="12.75" y="-38.5" font-family="Helvetica,sans-Serif" font-size="10.00">#</text>
<text xml:space="preserve" text-anchor="start" x="30.75" y="-38.5" font-family="Helvetica,sans-Serif" font-size="10.00">reset()</text>
<text xml:space="preserve" text-anchor="start" x="12.75" y="-22.5" font-family="Helvetica,sans-Serif" font-size="10.00">#</text>
<text xml:space="preserve" text-anchor="start" x="30.75" y="-22.5" font-family="Helvetica,sans-Serif" font-size="10.00">addData()</text>
<text xml:space="preserve" text-anchor="start" x="12.75" y="-6.5" font-family="Helvetica,sans-Serif" font-size="10.00">#</text>
<text xml:space="preserve" text-anchor="start" x="30.75" y="-6.5" font-family="Helvetica,sans-Serif" font-size="10.00">finalize()</text>
<polygon fill="#666666" stroke="#666666" points="0,-146 0,-146 94.25,-146 94.25,-146 0,-146"/>
<polygon fill="#666666" stroke="#666666" points="0,-130 0,-130 94.25,-130 94.25,-130 0,-130"/>
<polygon fill="none" stroke="#666666" points="0,0 0,-164 94.25,-164 94.25,0 0,0"/>
</a>
</g>
</g>
<!-- Node2 -->
<g id="Node000002" class="node">
<title>Node2</title>
<g id="a_Node000002"><a xlink:href="classanch_1_1crypto_1_1_hash.html" target="_top" xlink:title=" ">
<polygon fill="white" stroke="none" points="92.75,-345 1.5,-345 1.5,-201 92.75,-201 92.75,-345"/>
<text xml:space="preserve" text-anchor="start" x="5.5" y="-331.5" font-family="Helvetica,sans-Serif" font-size="10.00">anch::crypto::Hash</text>
<text xml:space="preserve" text-anchor="start" x="24.62" y="-319.5" font-family="Helvetica,sans-Serif" font-size="10.00">&lt; 20, 64 &gt;</text>
<text xml:space="preserve" text-anchor="start" x="7.12" y="-303.5" font-family="Helvetica,sans-Serif" font-size="10.00">#</text>
<text xml:space="preserve" text-anchor="start" x="18" y="-303.5" font-family="Helvetica,sans-Serif" font-size="10.00">_digest</text>
<text xml:space="preserve" text-anchor="start" x="6.75" y="-287.5" font-family="Helvetica,sans-Serif" font-size="10.00">+</text>
<text xml:space="preserve" text-anchor="start" x="18" y="-287.5" font-family="Helvetica,sans-Serif" font-size="10.00">digest()</text>
<text xml:space="preserve" text-anchor="start" x="6.75" y="-271.5" font-family="Helvetica,sans-Serif" font-size="10.00">+</text>
<text xml:space="preserve" text-anchor="start" x="18" y="-271.5" font-family="Helvetica,sans-Serif" font-size="10.00">getOutputSize()</text>
<text xml:space="preserve" text-anchor="start" x="6.75" y="-255.5" font-family="Helvetica,sans-Serif" font-size="10.00">+</text>
<text xml:space="preserve" text-anchor="start" x="18" y="-255.5" font-family="Helvetica,sans-Serif" font-size="10.00">getBlockSize()</text>
<text xml:space="preserve" text-anchor="start" x="7.12" y="-239.5" font-family="Helvetica,sans-Serif" font-size="10.00">#</text>
<text xml:space="preserve" text-anchor="start" x="18" y="-239.5" font-family="Helvetica,sans-Serif" font-size="10.00">reset()</text>
<text xml:space="preserve" text-anchor="start" x="7.12" y="-223.5" font-family="Helvetica,sans-Serif" font-size="10.00">#</text>
<text xml:space="preserve" text-anchor="start" x="18" y="-223.5" font-family="Helvetica,sans-Serif" font-size="10.00">addData()</text>
<text xml:space="preserve" text-anchor="start" x="7.12" y="-207.5" font-family="Helvetica,sans-Serif" font-size="10.00">#</text>
<text xml:space="preserve" text-anchor="start" x="18" y="-207.5" font-family="Helvetica,sans-Serif" font-size="10.00">finalize()</text>
<polygon fill="#666666" stroke="#666666" points="1.5,-315 1.5,-315 92.75,-315 92.75,-315 1.5,-315"/>
<polygon fill="#666666" stroke="#666666" points="1.5,-299 1.5,-299 16,-299 16,-299 1.5,-299"/>
<polygon fill="#666666" stroke="#666666" points="16,-299 16,-299 92.75,-299 92.75,-299 16,-299"/>
<polygon fill="none" stroke="#666666" points="1.5,-201 1.5,-345 92.75,-345 92.75,-201 1.5,-201"/>
</a>
</g>
</g>
<!-- Node2&#45;&gt;Node1 -->
<g id="edge1_Node000001_Node000002" class="edge">
<title>Node2&#45;&gt;Node1</title>
<g id="a_edge1_Node000001_Node000002"><a xlink:title=" ">
<path fill="none" stroke="#63b8ff" d="M47.12,-189.85C47.12,-181.22 47.12,-172.46 47.12,-163.84"/>
<polygon fill="none" stroke="#63b8ff" points="43.63,-189.57 47.13,-199.57 50.63,-189.57 43.63,-189.57"/>
</a>
</g>
</g>
<!-- Node3 -->
<g id="Node000003" class="node">
<title>Node3</title>
<g id="a_Node000003"><a xlink:href="classanch_1_1crypto_1_1_hash.html" target="_top" xlink:title="Hash algorithm abstract class.">
<polygon fill="white" stroke="none" points="92.75,-607 1.5,-607 1.5,-399 92.75,-399 92.75,-607"/>
<text xml:space="preserve" text-anchor="start" x="5.5" y="-593.5" font-family="Helvetica,sans-Serif" font-size="10.00">anch::crypto::Hash</text>
<text xml:space="preserve" text-anchor="start" x="28" y="-581.5" font-family="Helvetica,sans-Serif" font-size="10.00">&lt; O, B &gt;</text>
<text xml:space="preserve" text-anchor="start" x="7.12" y="-565.5" font-family="Helvetica,sans-Serif" font-size="10.00">#</text>
<text xml:space="preserve" text-anchor="start" x="18" y="-565.5" font-family="Helvetica,sans-Serif" font-size="10.00">_digest</text>
<text xml:space="preserve" text-anchor="start" x="6.75" y="-549.5" font-family="Helvetica,sans-Serif" font-size="10.00">+</text>
<text xml:space="preserve" text-anchor="start" x="18" y="-549.5" font-family="Helvetica,sans-Serif" font-size="10.00">digest()</text>
<text xml:space="preserve" text-anchor="start" x="6.75" y="-533.5" font-family="Helvetica,sans-Serif" font-size="10.00">+</text>
<text xml:space="preserve" text-anchor="start" x="18" y="-533.5" font-family="Helvetica,sans-Serif" font-size="10.00">digest()</text>
<text xml:space="preserve" text-anchor="start" x="6.75" y="-517.5" font-family="Helvetica,sans-Serif" font-size="10.00">+</text>
<text xml:space="preserve" text-anchor="start" x="18" y="-517.5" font-family="Helvetica,sans-Serif" font-size="10.00">digest()</text>
<text xml:space="preserve" text-anchor="start" x="6.75" y="-501.5" font-family="Helvetica,sans-Serif" font-size="10.00">+</text>
<text xml:space="preserve" text-anchor="start" x="18" y="-501.5" font-family="Helvetica,sans-Serif" font-size="10.00">digest()</text>
<text xml:space="preserve" text-anchor="start" x="6.75" y="-485.5" font-family="Helvetica,sans-Serif" font-size="10.00">+</text>
<text xml:space="preserve" text-anchor="start" x="18" y="-485.5" font-family="Helvetica,sans-Serif" font-size="10.00">digest()</text>
<text xml:space="preserve" text-anchor="start" x="6.75" y="-469.5" font-family="Helvetica,sans-Serif" font-size="10.00">+</text>
<text xml:space="preserve" text-anchor="start" x="18" y="-469.5" font-family="Helvetica,sans-Serif" font-size="10.00">getOutputSize()</text>
<text xml:space="preserve" text-anchor="start" x="6.75" y="-453.5" font-family="Helvetica,sans-Serif" font-size="10.00">+</text>
<text xml:space="preserve" text-anchor="start" x="18" y="-453.5" font-family="Helvetica,sans-Serif" font-size="10.00">getBlockSize()</text>
<text xml:space="preserve" text-anchor="start" x="7.12" y="-437.5" font-family="Helvetica,sans-Serif" font-size="10.00">#</text>
<text xml:space="preserve" text-anchor="start" x="18" y="-437.5" font-family="Helvetica,sans-Serif" font-size="10.00">reset()</text>
<text xml:space="preserve" text-anchor="start" x="7.12" y="-421.5" font-family="Helvetica,sans-Serif" font-size="10.00">#</text>
<text xml:space="preserve" text-anchor="start" x="18" y="-421.5" font-family="Helvetica,sans-Serif" font-size="10.00">addData()</text>
<text xml:space="preserve" text-anchor="start" x="7.12" y="-405.5" font-family="Helvetica,sans-Serif" font-size="10.00">#</text>
<text xml:space="preserve" text-anchor="start" x="18" y="-405.5" font-family="Helvetica,sans-Serif" font-size="10.00">finalize()</text>
<polygon fill="#666666" stroke="#666666" points="1.5,-577 1.5,-577 92.75,-577 92.75,-577 1.5,-577"/>
<polygon fill="#666666" stroke="#666666" points="1.5,-561 1.5,-561 16,-561 16,-561 1.5,-561"/>
<polygon fill="#666666" stroke="#666666" points="16,-561 16,-561 92.75,-561 92.75,-561 16,-561"/>
<polygon fill="none" stroke="#666666" points="1.5,-399 1.5,-607 92.75,-607 92.75,-399 1.5,-399"/>
</a>
</g>
</g>
<!-- Node3&#45;&gt;Node2 -->
<g id="edge2_Node000002_Node000003" class="edge">
<title>Node3&#45;&gt;Node2</title>
<g id="a_edge2_Node000002_Node000003"><a xlink:title=" ">
<path fill="none" stroke="orange" d="M47.12,-387.83C47.12,-373.19 47.12,-358.56 47.12,-344.89"/>
<polygon fill="orange" stroke="orange" points="43.63,-387.49 47.13,-397.49 50.63,-387.49 43.63,-387.49"/>
</a>
</g>
<text xml:space="preserve" text-anchor="start" x="50.12" y="-368.5" font-family="Helvetica,sans-Serif" font-size="10.00" fill="grey">&lt; 20, 64 &gt;</text>
</g>
</g>
</svg>
