<?xml version="1.0" encoding="UTF-8" standalone="no"?>
<!DOCTYPE svg PUBLIC "-//W3C//DTD SVG 1.1//EN"
 "http://www.w3.org/Graphics/SVG/1.1/DTD/svg11.dtd">
<!-- Generated by graphviz version 12.2.1 (0)
 -->
<!-- Title: anch::date::formatter::MillisecondFormatter Pages: 1 -->
<svg width="209pt" height="621pt"
 viewBox="0.00 0.00 209.00 621.00" xmlns="http://www.w3.org/2000/svg" xmlns:xlink="http://www.w3.org/1999/xlink">
<g id="graph0" class="graph" transform="scale(1 1) rotate(0) translate(4 617)">
<title>anch::date::formatter::MillisecondFormatter</title>
<!-- Node1 -->
<g id="Node000001" class="node">
<title>Node1</title>
<g id="a_Node000001"><a xlink:title=" ">
<polygon fill="#999999" stroke="none" points="133.38,-160 12.62,-160 12.62,0 133.38,0 133.38,-160"/>
<text text-anchor="start" x="24.62" y="-146.5" font-family="Helvetica,sans-Serif" font-size="10.00">anch::date::formatter</text>
<text text-anchor="start" x="24.62" y="-134.5" font-family="Helvetica,sans-Serif" font-size="10.00">::MillisecondFormatter</text>
<text text-anchor="start" x="71.5" y="-118.5" font-family="Helvetica,sans-Serif" font-size="10.00"> </text>
<text text-anchor="start" x="16.62" y="-102.5" font-family="Helvetica,sans-Serif" font-size="10.00">+</text>
<text text-anchor="start" x="26.62" y="-102.5" font-family="Helvetica,sans-Serif" font-size="10.00">MillisecondFormatter()</text>
<text text-anchor="start" x="16.62" y="-86.5" font-family="Helvetica,sans-Serif" font-size="10.00">+</text>
<text text-anchor="start" x="26.62" y="-86.5" font-family="Helvetica,sans-Serif" font-size="10.00">~MillisecondFormatter()</text>
<text text-anchor="start" x="16.62" y="-70.5" font-family="Helvetica,sans-Serif" font-size="10.00">+</text>
<text text-anchor="start" x="26.62" y="-70.5" font-family="Helvetica,sans-Serif" font-size="10.00">format()</text>
<text text-anchor="start" x="16.62" y="-54.5" font-family="Helvetica,sans-Serif" font-size="10.00">+</text>
<text text-anchor="start" x="26.62" y="-54.5" font-family="Helvetica,sans-Serif" font-size="10.00">getSize()</text>
<text text-anchor="start" x="16.62" y="-38.5" font-family="Helvetica,sans-Serif" font-size="10.00">+</text>
<text text-anchor="start" x="26.62" y="-38.5" font-family="Helvetica,sans-Serif" font-size="10.00">setValue()</text>
<text text-anchor="start" x="16.62" y="-22.5" font-family="Helvetica,sans-Serif" font-size="10.00">+</text>
<text text-anchor="start" x="26.62" y="-22.5" font-family="Helvetica,sans-Serif" font-size="10.00">getPattern()</text>
<text text-anchor="start" x="16.62" y="-6.5" font-family="Helvetica,sans-Serif" font-size="10.00">+</text>
<text text-anchor="start" x="26.62" y="-6.5" font-family="Helvetica,sans-Serif" font-size="10.00">getInstance()</text>
<polygon fill="#666666" stroke="#666666" points="12.62,-130 12.62,-130 133.38,-130 133.38,-130 12.62,-130"/>
<polygon fill="#666666" stroke="#666666" points="12.62,-114 12.62,-114 133.38,-114 133.38,-114 12.62,-114"/>
<polygon fill="none" stroke="#666666" points="12.62,0 12.62,-160 133.38,-160 133.38,0 12.62,0"/>
</a>
</g>
</g>
<!-- Node2 -->
<g id="Node000002" class="node">
<title>Node2</title>
<g id="a_Node000002"><a xlink:href="classanch_1_1date_1_1formatter_1_1_i_date_part_formatter.html" target="_top" xlink:title=" ">
<polygon fill="white" stroke="none" points="114,-512 0,-512 0,-208 114,-208 114,-512"/>
<text text-anchor="start" x="11.62" y="-498.5" font-family="Helvetica,sans-Serif" font-size="10.00">anch::date::formatter</text>
<text text-anchor="start" x="12" y="-486.5" font-family="Helvetica,sans-Serif" font-size="10.00">::IDatePartFormatter</text>
<text text-anchor="start" x="55.5" y="-470.5" font-family="Helvetica,sans-Serif" font-size="10.00"> </text>
<text text-anchor="start" x="4" y="-454.5" font-family="Helvetica,sans-Serif" font-size="10.00">+</text>
<text text-anchor="start" x="14" y="-454.5" font-family="Helvetica,sans-Serif" font-size="10.00">~IDatePartFormatter()</text>
<text text-anchor="start" x="4" y="-438.5" font-family="Helvetica,sans-Serif" font-size="10.00">+</text>
<text text-anchor="start" x="14" y="-438.5" font-family="Helvetica,sans-Serif" font-size="10.00">format()</text>
<text text-anchor="start" x="4" y="-422.5" font-family="Helvetica,sans-Serif" font-size="10.00">+</text>
<text text-anchor="start" x="14" y="-422.5" font-family="Helvetica,sans-Serif" font-size="10.00">getSize()</text>
<text text-anchor="start" x="4" y="-406.5" font-family="Helvetica,sans-Serif" font-size="10.00">+</text>
<text text-anchor="start" x="14" y="-406.5" font-family="Helvetica,sans-Serif" font-size="10.00">setValue()</text>
<text text-anchor="start" x="4" y="-390.5" font-family="Helvetica,sans-Serif" font-size="10.00">+</text>
<text text-anchor="start" x="14" y="-390.5" font-family="Helvetica,sans-Serif" font-size="10.00">getPattern()</text>
<text text-anchor="start" x="4.38" y="-374.5" font-family="Helvetica,sans-Serif" font-size="10.00">#</text>
<text text-anchor="start" x="14" y="-374.5" font-family="Helvetica,sans-Serif" font-size="10.00">getYear()</text>
<text text-anchor="start" x="4.38" y="-358.5" font-family="Helvetica,sans-Serif" font-size="10.00">#</text>
<text text-anchor="start" x="14" y="-358.5" font-family="Helvetica,sans-Serif" font-size="10.00">setYear()</text>
<text text-anchor="start" x="4.38" y="-342.5" font-family="Helvetica,sans-Serif" font-size="10.00">#</text>
<text text-anchor="start" x="14" y="-342.5" font-family="Helvetica,sans-Serif" font-size="10.00">getMonth()</text>
<text text-anchor="start" x="4.38" y="-326.5" font-family="Helvetica,sans-Serif" font-size="10.00">#</text>
<text text-anchor="start" x="14" y="-326.5" font-family="Helvetica,sans-Serif" font-size="10.00">setMonth()</text>
<text text-anchor="start" x="4.38" y="-310.5" font-family="Helvetica,sans-Serif" font-size="10.00">#</text>
<text text-anchor="start" x="14" y="-310.5" font-family="Helvetica,sans-Serif" font-size="10.00">getDay()</text>
<text text-anchor="start" x="4.38" y="-294.5" font-family="Helvetica,sans-Serif" font-size="10.00">#</text>
<text text-anchor="start" x="14" y="-294.5" font-family="Helvetica,sans-Serif" font-size="10.00">setDay()</text>
<text text-anchor="start" x="4.38" y="-278.5" font-family="Helvetica,sans-Serif" font-size="10.00">#</text>
<text text-anchor="start" x="14" y="-278.5" font-family="Helvetica,sans-Serif" font-size="10.00">getHour()</text>
<text text-anchor="start" x="4.38" y="-262.5" font-family="Helvetica,sans-Serif" font-size="10.00">#</text>
<text text-anchor="start" x="14" y="-262.5" font-family="Helvetica,sans-Serif" font-size="10.00">setHour()</text>
<text text-anchor="start" x="4.38" y="-246.5" font-family="Helvetica,sans-Serif" font-size="10.00">#</text>
<text text-anchor="start" x="14" y="-246.5" font-family="Helvetica,sans-Serif" font-size="10.00">getMinute()</text>
<text text-anchor="start" x="4.38" y="-230.5" font-family="Helvetica,sans-Serif" font-size="10.00">#</text>
<text text-anchor="start" x="14" y="-230.5" font-family="Helvetica,sans-Serif" font-size="10.00">setMinute()</text>
<text text-anchor="start" x="14" y="-214.5" font-family="Helvetica,sans-Serif" font-size="10.00">and 8 more...</text>
<polygon fill="#666666" stroke="#666666" points="0,-482 0,-482 114,-482 114,-482 0,-482"/>
<polygon fill="#666666" stroke="#666666" points="0,-466 0,-466 114,-466 114,-466 0,-466"/>
<polygon fill="none" stroke="#666666" points="0,-208 0,-512 114,-512 114,-208 0,-208"/>
</a>
</g>
</g>
<!-- Node2&#45;&gt;Node1 -->
<g id="edge1_Node000001_Node000002" class="edge">
<title>Node2&#45;&gt;Node1</title>
<g id="a_edge1_Node000001_Node000002"><a xlink:title=" ">
<path fill="none" stroke="#63b8ff" d="M66.33,-196.88C67.07,-184.07 67.79,-171.53 68.47,-159.7"/>
<polygon fill="none" stroke="#63b8ff" points="62.85,-196.51 65.77,-206.69 69.83,-196.91 62.85,-196.51"/>
</a>
</g>
</g>
<!-- Node3 -->
<g id="Node000003" class="node">
<title>Node3</title>
<g id="a_Node000003"><a xlink:title=" ">
<polygon fill="white" stroke="none" points="183.75,-386 132.25,-386 132.25,-334 183.75,-334 183.75,-386"/>
<text text-anchor="start" x="136.25" y="-372.5" font-family="Helvetica,sans-Serif" font-size="10.00">std::string</text>
<text text-anchor="start" x="156.5" y="-356.5" font-family="Helvetica,sans-Serif" font-size="10.00"> </text>
<text text-anchor="start" x="156.5" y="-340.5" font-family="Helvetica,sans-Serif" font-size="10.00"> </text>
<polygon fill="#666666" stroke="#666666" points="132.25,-368 132.25,-368 183.75,-368 183.75,-368 132.25,-368"/>
<polygon fill="#666666" stroke="#666666" points="132.25,-352 132.25,-352 183.75,-352 183.75,-352 132.25,-352"/>
<polygon fill="none" stroke="#666666" points="132.25,-334 132.25,-386 183.75,-386 183.75,-334 132.25,-334"/>
</a>
</g>
</g>
<!-- Node3&#45;&gt;Node1 -->
<g id="edge2_Node000001_Node000003" class="edge">
<title>Node3&#45;&gt;Node1</title>
<g id="a_edge2_Node000001_Node000003"><a xlink:title=" ">
<path fill="none" stroke="#63b8ff" d="M153.4,-334.12C147.56,-303.94 136.58,-251.69 123,-208 119.33,-196.21 115.09,-183.95 110.65,-171.91"/>
<polygon fill="none" stroke="#63b8ff" points="110.7,-172.04 104.84,-167.83 106.48,-160.81 112.33,-165.02 110.7,-172.04"/>
</a>
</g>
<text text-anchor="middle" x="143.37" y="-180.5" font-family="Helvetica,sans-Serif" font-size="10.00" fill="grey"> +PATTERN</text>
</g>
<!-- Node4 -->
<g id="Node000004" class="node">
<title>Node4</title>
<g id="a_Node000004"><a xlink:title=" ">
<polygon fill="white" stroke="none" points="201,-613 115,-613 115,-549 201,-549 201,-613"/>
<text text-anchor="start" x="119" y="-599.5" font-family="Helvetica,sans-Serif" font-size="10.00">std::basic_string&lt;</text>
<text text-anchor="start" x="141.5" y="-587.5" font-family="Helvetica,sans-Serif" font-size="10.00"> Char &gt;</text>
<text text-anchor="start" x="156.5" y="-571.5" font-family="Helvetica,sans-Serif" font-size="10.00"> </text>
<text text-anchor="start" x="156.5" y="-555.5" font-family="Helvetica,sans-Serif" font-size="10.00"> </text>
<polygon fill="#666666" stroke="#666666" points="115,-583 115,-583 201,-583 201,-583 115,-583"/>
<polygon fill="#666666" stroke="#666666" points="115,-567 115,-567 201,-567 201,-567 115,-567"/>
<polygon fill="none" stroke="#666666" points="115,-549 115,-613 201,-613 201,-549 115,-549"/>
</a>
</g>
</g>
<!-- Node4&#45;&gt;Node3 -->
<g id="edge3_Node000003_Node000004" class="edge">
<title>Node4&#45;&gt;Node3</title>
<g id="a_edge3_Node000003_Node000004"><a xlink:title=" ">
<path fill="none" stroke="#63b8ff" d="M158,-537.65C158,-492.63 158,-422.94 158,-385.98"/>
<polygon fill="none" stroke="#63b8ff" points="154.5,-537.57 158,-547.57 161.5,-537.57 154.5,-537.57"/>
</a>
</g>
</g>
</g>
</svg>
