<?xml version="1.0" encoding="UTF-8" standalone="no"?>
<!DOCTYPE svg PUBLIC "-//W3C//DTD SVG 1.1//EN"
 "http://www.w3.org/Graphics/SVG/1.1/DTD/svg11.dtd">
<!-- Generated by graphviz version 7.0.6 (0)
 -->
<!-- Title: anch::logger::formatter::StringFormatter Pages: 1 -->
<svg width="137pt" height="237pt"
 viewBox="0.00 0.00 137.00 237.00" xmlns="http://www.w3.org/2000/svg" xmlns:xlink="http://www.w3.org/1999/xlink">
<g id="graph0" class="graph" transform="scale(1 1) rotate(0) translate(4 233)">
<title>anch::logger::formatter::StringFormatter</title>
<!-- Node1 -->
<g id="node1" class="node">
<title>Node1</title>
<g id="a_node1"><a xlink:title=" ">
<polygon fill="#999999" stroke="#666666" points="0,-0.5 0,-101.5 129,-101.5 129,-0.5 0,-0.5"/>
<text text-anchor="start" x="8" y="-89.5" font-family="Helvetica,sans-Serif" font-size="10.00">anch::logger::formatter</text>
<text text-anchor="middle" x="64.5" y="-78.5" font-family="Helvetica,sans-Serif" font-size="10.00">::StringFormatter</text>
<polyline fill="none" stroke="#666666" points="0,-71.5 129,-71.5"/>
<text text-anchor="middle" x="64.5" y="-59.5" font-family="Helvetica,sans-Serif" font-size="10.00"> </text>
<polyline fill="none" stroke="#666666" points="0,-52.5 129,-52.5"/>
<text text-anchor="start" x="8" y="-40.5" font-family="Helvetica,sans-Serif" font-size="10.00">+ StringFormatter()</text>
<text text-anchor="start" x="8" y="-29.5" font-family="Helvetica,sans-Serif" font-size="10.00">+ ~StringFormatter()</text>
<text text-anchor="start" x="8" y="-18.5" font-family="Helvetica,sans-Serif" font-size="10.00">+ formatValue()</text>
<text text-anchor="start" x="8" y="-7.5" font-family="Helvetica,sans-Serif" font-size="10.00">+ getType()</text>
</a>
</g>
</g>
<!-- Node2 -->
<g id="node2" class="node">
<title>Node2</title>
<g id="a_node2"><a xlink:href="classanch_1_1logger_1_1formatter_1_1_i_formatter.html" target="_top" xlink:title=" ">
<polygon fill="white" stroke="#666666" points="0,-138.5 0,-228.5 129,-228.5 129,-138.5 0,-138.5"/>
<text text-anchor="start" x="8" y="-216.5" font-family="Helvetica,sans-Serif" font-size="10.00">anch::logger::formatter</text>
<text text-anchor="middle" x="64.5" y="-205.5" font-family="Helvetica,sans-Serif" font-size="10.00">::IFormatter</text>
<polyline fill="none" stroke="#666666" points="0,-198.5 129,-198.5"/>
<text text-anchor="middle" x="64.5" y="-186.5" font-family="Helvetica,sans-Serif" font-size="10.00"> </text>
<polyline fill="none" stroke="#666666" points="0,-179.5 129,-179.5"/>
<text text-anchor="start" x="8" y="-167.5" font-family="Helvetica,sans-Serif" font-size="10.00">+ ~IFormatter()</text>
<text text-anchor="start" x="8" y="-156.5" font-family="Helvetica,sans-Serif" font-size="10.00">+ getType()</text>
<text text-anchor="start" x="8" y="-145.5" font-family="Helvetica,sans-Serif" font-size="10.00">+ formatValue()</text>
</a>
</g>
</g>
<!-- Node2&#45;&gt;Node1 -->
<g id="edge1" class="edge">
<title>Node2&#45;&gt;Node1</title>
<path fill="none" stroke="#63b8ff" d="M64.5,-127.18C64.5,-118.59 64.5,-109.77 64.5,-101.32"/>
<polygon fill="none" stroke="#63b8ff" points="61,-127.17 64.5,-137.17 68,-127.17 61,-127.17"/>
</g>
</g>
</svg>
