<?xml version="1.0" encoding="UTF-8" standalone="no"?>
<!DOCTYPE svg PUBLIC "-//W3C//DTD SVG 1.1//EN"
 "http://www.w3.org/Graphics/SVG/1.1/DTD/svg11.dtd">
<!-- Generated by graphviz version 12.1.2 (0)
 -->
<!-- Title: anch::rest::Headers Pages: 1 -->
<svg width="133pt" height="362pt"
 viewBox="0.00 0.00 133.24 361.75" xmlns="http://www.w3.org/2000/svg" xmlns:xlink="http://www.w3.org/1999/xlink">
<g id="graph0" class="graph" transform="scale(1 1) rotate(0) translate(4 357.75)">
<title>anch::rest::Headers</title>
<!-- Node1 -->
<g id="Node000001" class="node">
<title>Node1</title>
<g id="a_Node000001"><a xlink:title="HTTP headers.">
<polygon fill="#999999" stroke="none" points="104,-164 0,-164 0,0 104,0 104,-164"/>
<text text-anchor="start" x="4.75" y="-150.5" font-family="Helvetica,sans-Serif" font-size="10.00">anch::rest::Headers</text>
<text text-anchor="start" x="50.5" y="-134.5" font-family="Helvetica,sans-Serif" font-size="10.00"> </text>
<text text-anchor="start" x="14.88" y="-118.5" font-family="Helvetica,sans-Serif" font-size="10.00">+</text>
<text text-anchor="start" x="38" y="-118.5" font-family="Helvetica,sans-Serif" font-size="10.00">get()</text>
<text text-anchor="start" x="14.88" y="-102.5" font-family="Helvetica,sans-Serif" font-size="10.00">+</text>
<text text-anchor="start" x="38" y="-102.5" font-family="Helvetica,sans-Serif" font-size="10.00">get()</text>
<text text-anchor="start" x="14.88" y="-86.5" font-family="Helvetica,sans-Serif" font-size="10.00">+</text>
<text text-anchor="start" x="38" y="-86.5" font-family="Helvetica,sans-Serif" font-size="10.00">has()</text>
<text text-anchor="start" x="14.88" y="-70.5" font-family="Helvetica,sans-Serif" font-size="10.00">+</text>
<text text-anchor="start" x="38" y="-70.5" font-family="Helvetica,sans-Serif" font-size="10.00">add()</text>
<text text-anchor="start" x="14.88" y="-54.5" font-family="Helvetica,sans-Serif" font-size="10.00">+</text>
<text text-anchor="start" x="38" y="-54.5" font-family="Helvetica,sans-Serif" font-size="10.00">add()</text>
<text text-anchor="start" x="14.88" y="-38.5" font-family="Helvetica,sans-Serif" font-size="10.00">+</text>
<text text-anchor="start" x="38" y="-38.5" font-family="Helvetica,sans-Serif" font-size="10.00">put()</text>
<text text-anchor="start" x="14.88" y="-22.5" font-family="Helvetica,sans-Serif" font-size="10.00">+</text>
<text text-anchor="start" x="38" y="-22.5" font-family="Helvetica,sans-Serif" font-size="10.00">put()</text>
<text text-anchor="start" x="14.88" y="-6.5" font-family="Helvetica,sans-Serif" font-size="10.00">+</text>
<text text-anchor="start" x="38" y="-6.5" font-family="Helvetica,sans-Serif" font-size="10.00">format()</text>
<polygon fill="#666666" stroke="#666666" points="0,-146 0,-146 104,-146 104,-146 0,-146"/>
<polygon fill="#666666" stroke="#666666" points="0,-130 0,-130 104,-130 104,-130 0,-130"/>
<polygon fill="none" stroke="#666666" points="0,0 0,-164 104,-164 104,0 0,0"/>
</a>
</g>
</g>
<!-- Node2 -->
<g id="Node000002" class="node">
<title>Node2</title>
<g id="a_Node000002"><a xlink:title=" ">
<polygon fill="white" stroke="none" points="99,-253 5,-253 5,-201 99,-201 99,-253"/>
<text text-anchor="start" x="10" y="-239.5" font-family="Helvetica,sans-Serif" font-size="10.00">std::map&lt; K, T &gt;</text>
<text text-anchor="start" x="50.5" y="-223.5" font-family="Helvetica,sans-Serif" font-size="10.00"> </text>
<text text-anchor="start" x="50.5" y="-207.5" font-family="Helvetica,sans-Serif" font-size="10.00"> </text>
<polygon fill="#666666" stroke="#666666" points="5,-235 5,-235 99,-235 99,-235 5,-235"/>
<polygon fill="#666666" stroke="#666666" points="5,-219 5,-219 99,-219 99,-219 5,-219"/>
<polygon fill="none" stroke="#666666" points="5,-201 5,-253 99,-253 99,-201 5,-201"/>
</a>
</g>
</g>
<!-- Node2&#45;&gt;Node1 -->
<g id="edge1_Node000001_Node000002" class="edge">
<title>Node2&#45;&gt;Node1</title>
<g id="a_edge1_Node000001_Node000002"><a xlink:title=" ">
<path fill="none" stroke="#8b1a1a" d="M52,-189.61C52,-181.61 52,-172.82 52,-163.83"/>
<polygon fill="none" stroke="#8b1a1a" points="48.5,-189.58 52,-199.58 55.5,-189.58 48.5,-189.58"/>
</a>
</g>
</g>
<!-- Node3 -->
<g id="Node000003" class="node">
<title>Node3</title>
<g id="a_Node000003"><a xlink:title=" ">
<polygon fill="white" stroke="none" points="32,-353.75 16,-353.75 16,-301.75 32,-301.75 32,-353.75"/>
<text text-anchor="start" x="20.62" y="-340.25" font-family="Helvetica,sans-Serif" font-size="10.00">K</text>
<text text-anchor="start" x="22.5" y="-324.25" font-family="Helvetica,sans-Serif" font-size="10.00"> </text>
<text text-anchor="start" x="22.5" y="-308.25" font-family="Helvetica,sans-Serif" font-size="10.00"> </text>
<polygon fill="#bfbfbf" stroke="#bfbfbf" points="16,-335.75 16,-335.75 32,-335.75 32,-335.75 16,-335.75"/>
<polygon fill="#bfbfbf" stroke="#bfbfbf" points="16,-319.75 16,-319.75 32,-319.75 32,-319.75 16,-319.75"/>
<polygon fill="none" stroke="#bfbfbf" points="16,-301.75 16,-353.75 32,-353.75 32,-301.75 16,-301.75"/>
</a>
</g>
</g>
<!-- Node3&#45;&gt;Node2 -->
<g id="edge2_Node000002_Node000003" class="edge">
<title>Node3&#45;&gt;Node2</title>
<g id="a_edge2_Node000002_Node000003"><a xlink:title=" ">
<path fill="none" stroke="#63b8ff" d="M21.77,-301.89C21.6,-292.08 22.32,-280.84 25.25,-271 25.92,-268.76 26.73,-266.52 27.66,-264.31"/>
<polygon fill="none" stroke="#63b8ff" points="27.64,-264.35 26.79,-257.19 33.07,-253.65 33.92,-260.81 27.64,-264.35"/>
</a>
</g>
<text text-anchor="middle" x="42.12" y="-274.25" font-family="Helvetica,sans-Serif" font-size="10.00" fill="grey"> +keys</text>
</g>
<!-- Node4 -->
<g id="Node000004" class="node">
<title>Node4</title>
<g id="a_Node000004"><a xlink:title=" ">
<polygon fill="white" stroke="none" points="89,-353.75 73,-353.75 73,-301.75 89,-301.75 89,-353.75"/>
<text text-anchor="start" x="78" y="-340.25" font-family="Helvetica,sans-Serif" font-size="10.00">T</text>
<text text-anchor="start" x="79.5" y="-324.25" font-family="Helvetica,sans-Serif" font-size="10.00"> </text>
<text text-anchor="start" x="79.5" y="-308.25" font-family="Helvetica,sans-Serif" font-size="10.00"> </text>
<polygon fill="#bfbfbf" stroke="#bfbfbf" points="73,-335.75 73,-335.75 89,-335.75 89,-335.75 73,-335.75"/>
<polygon fill="#bfbfbf" stroke="#bfbfbf" points="73,-319.75 73,-319.75 89,-319.75 89,-319.75 73,-319.75"/>
<polygon fill="none" stroke="#bfbfbf" points="73,-301.75 73,-353.75 89,-353.75 89,-301.75 73,-301.75"/>
</a>
</g>
</g>
<!-- Node4&#45;&gt;Node2 -->
<g id="edge3_Node000002_Node000004" class="edge">
<title>Node4&#45;&gt;Node2</title>
<g id="a_edge3_Node000002_Node000004"><a xlink:title=" ">
<path fill="none" stroke="#63b8ff" d="M73.68,-301.83C70.42,-290.72 66.51,-277.4 62.91,-265.15"/>
<polygon fill="none" stroke="#63b8ff" points="62.95,-265.29 57.42,-260.66 59.57,-253.78 65.1,-258.41 62.95,-265.29"/>
</a>
</g>
<text text-anchor="middle" x="96.74" y="-274.25" font-family="Helvetica,sans-Serif" font-size="10.00" fill="grey"> +elements</text>
</g>
</g>
</svg>
