<?xml version="1.0" encoding="UTF-8" standalone="no"?>
<!DOCTYPE svg PUBLIC "-//W3C//DTD SVG 1.1//EN"
 "http://www.w3.org/Graphics/SVG/1.1/DTD/svg11.dtd">
<!-- Generated by graphviz version 13.1.0 (0)
 -->
<!-- Title: anch::crypto::SHA2&lt; O, B, W, R, I &gt; Pages: 1 -->
<svg width="346pt" height="972pt"
 viewBox="0.00 0.00 346.00 972.00" xmlns="http://www.w3.org/2000/svg" xmlns:xlink="http://www.w3.org/1999/xlink">
<g id="graph0" class="graph" transform="scale(1 1) rotate(0) translate(4 968)">
<title>anch::crypto::SHA2&lt; O, B, W, R, I &gt;</title>
<!-- Node1 -->
<g id="Node000001" class="node">
<title>Node1</title>
<g id="a_Node000001"><a xlink:title="SHA2 abstract class.">
<polygon fill="#999999" stroke="none" points="118.75,-144 24.5,-144 24.5,0 118.75,0 118.75,-144"/>
<text xml:space="preserve" text-anchor="start" x="28.5" y="-130.5" font-family="Helvetica,sans-Serif" font-size="10.00">anch::crypto::SHA2</text>
<text xml:space="preserve" text-anchor="start" x="33.75" y="-118.5" font-family="Helvetica,sans-Serif" font-size="10.00">&lt; O, B, W, R, I &gt;</text>
<text xml:space="preserve" text-anchor="start" x="70.12" y="-102.5" font-family="Helvetica,sans-Serif" font-size="10.00"> </text>
<text xml:space="preserve" text-anchor="start" x="34.06" y="-86.5" font-family="Helvetica,sans-Serif" font-size="10.00">+</text>
<text xml:space="preserve" text-anchor="start" x="49.62" y="-86.5" font-family="Helvetica,sans-Serif" font-size="10.00">SHA2()</text>
<text xml:space="preserve" text-anchor="start" x="34.06" y="-70.5" font-family="Helvetica,sans-Serif" font-size="10.00">+</text>
<text xml:space="preserve" text-anchor="start" x="49.62" y="-70.5" font-family="Helvetica,sans-Serif" font-size="10.00">~SHA2()</text>
<text xml:space="preserve" text-anchor="start" x="34.06" y="-54.5" font-family="Helvetica,sans-Serif" font-size="10.00">+</text>
<text xml:space="preserve" text-anchor="start" x="49.62" y="-54.5" font-family="Helvetica,sans-Serif" font-size="10.00">digest()</text>
<text xml:space="preserve" text-anchor="start" x="34.44" y="-38.5" font-family="Helvetica,sans-Serif" font-size="10.00">#</text>
<text xml:space="preserve" text-anchor="start" x="49.62" y="-38.5" font-family="Helvetica,sans-Serif" font-size="10.00">shiftRight()</text>
<text xml:space="preserve" text-anchor="start" x="34.44" y="-22.5" font-family="Helvetica,sans-Serif" font-size="10.00">#</text>
<text xml:space="preserve" text-anchor="start" x="49.62" y="-22.5" font-family="Helvetica,sans-Serif" font-size="10.00">rotateLeft()</text>
<text xml:space="preserve" text-anchor="start" x="34.44" y="-6.5" font-family="Helvetica,sans-Serif" font-size="10.00">#</text>
<text xml:space="preserve" text-anchor="start" x="49.62" y="-6.5" font-family="Helvetica,sans-Serif" font-size="10.00">rotateRight()</text>
<polygon fill="#666666" stroke="#666666" points="24.5,-114 24.5,-114 118.75,-114 118.75,-114 24.5,-114"/>
<polygon fill="#666666" stroke="#666666" points="24.5,-98 24.5,-98 118.75,-98 118.75,-98 24.5,-98"/>
<polygon fill="none" stroke="#666666" points="24.5,0 24.5,-144 118.75,-144 118.75,0 24.5,0"/>
</a>
</g>
</g>
<!-- Node2 -->
<g id="Node000002" class="node">
<title>Node2</title>
<g id="a_Node000002"><a xlink:href="classanch_1_1crypto_1_1_hash.html" target="_top" xlink:title="Hash algorithm abstract class.">
<polygon fill="white" stroke="none" points="91.25,-520 0,-520 0,-312 91.25,-312 91.25,-520"/>
<text xml:space="preserve" text-anchor="start" x="4" y="-506.5" font-family="Helvetica,sans-Serif" font-size="10.00">anch::crypto::Hash</text>
<text xml:space="preserve" text-anchor="start" x="26.5" y="-494.5" font-family="Helvetica,sans-Serif" font-size="10.00">&lt; O, B &gt;</text>
<text xml:space="preserve" text-anchor="start" x="44.12" y="-478.5" font-family="Helvetica,sans-Serif" font-size="10.00"> </text>
<text xml:space="preserve" text-anchor="start" x="5.25" y="-462.5" font-family="Helvetica,sans-Serif" font-size="10.00">+</text>
<text xml:space="preserve" text-anchor="start" x="16.5" y="-462.5" font-family="Helvetica,sans-Serif" font-size="10.00">digest()</text>
<text xml:space="preserve" text-anchor="start" x="5.25" y="-446.5" font-family="Helvetica,sans-Serif" font-size="10.00">+</text>
<text xml:space="preserve" text-anchor="start" x="16.5" y="-446.5" font-family="Helvetica,sans-Serif" font-size="10.00">digest()</text>
<text xml:space="preserve" text-anchor="start" x="5.25" y="-430.5" font-family="Helvetica,sans-Serif" font-size="10.00">+</text>
<text xml:space="preserve" text-anchor="start" x="16.5" y="-430.5" font-family="Helvetica,sans-Serif" font-size="10.00">digest()</text>
<text xml:space="preserve" text-anchor="start" x="5.25" y="-414.5" font-family="Helvetica,sans-Serif" font-size="10.00">+</text>
<text xml:space="preserve" text-anchor="start" x="16.5" y="-414.5" font-family="Helvetica,sans-Serif" font-size="10.00">digest()</text>
<text xml:space="preserve" text-anchor="start" x="5.25" y="-398.5" font-family="Helvetica,sans-Serif" font-size="10.00">+</text>
<text xml:space="preserve" text-anchor="start" x="16.5" y="-398.5" font-family="Helvetica,sans-Serif" font-size="10.00">digest()</text>
<text xml:space="preserve" text-anchor="start" x="5.25" y="-382.5" font-family="Helvetica,sans-Serif" font-size="10.00">+</text>
<text xml:space="preserve" text-anchor="start" x="16.5" y="-382.5" font-family="Helvetica,sans-Serif" font-size="10.00">getOutputSize()</text>
<text xml:space="preserve" text-anchor="start" x="5.25" y="-366.5" font-family="Helvetica,sans-Serif" font-size="10.00">+</text>
<text xml:space="preserve" text-anchor="start" x="16.5" y="-366.5" font-family="Helvetica,sans-Serif" font-size="10.00">getBlockSize()</text>
<text xml:space="preserve" text-anchor="start" x="5.62" y="-350.5" font-family="Helvetica,sans-Serif" font-size="10.00">#</text>
<text xml:space="preserve" text-anchor="start" x="16.5" y="-350.5" font-family="Helvetica,sans-Serif" font-size="10.00">reset()</text>
<text xml:space="preserve" text-anchor="start" x="5.62" y="-334.5" font-family="Helvetica,sans-Serif" font-size="10.00">#</text>
<text xml:space="preserve" text-anchor="start" x="16.5" y="-334.5" font-family="Helvetica,sans-Serif" font-size="10.00">addData()</text>
<text xml:space="preserve" text-anchor="start" x="5.62" y="-318.5" font-family="Helvetica,sans-Serif" font-size="10.00">#</text>
<text xml:space="preserve" text-anchor="start" x="16.5" y="-318.5" font-family="Helvetica,sans-Serif" font-size="10.00">finalize()</text>
<polygon fill="#666666" stroke="#666666" points="0,-490 0,-490 91.25,-490 91.25,-490 0,-490"/>
<polygon fill="#666666" stroke="#666666" points="0,-474 0,-474 91.25,-474 91.25,-474 0,-474"/>
<polygon fill="none" stroke="#666666" points="0,-312 0,-520 91.25,-520 91.25,-312 0,-312"/>
</a>
</g>
</g>
<!-- Node2&#45;&gt;Node1 -->
<g id="edge1_Node000001_Node000002" class="edge">
<title>Node2&#45;&gt;Node1</title>
<g id="a_edge1_Node000001_Node000002"><a xlink:title=" ">
<path fill="none" stroke="#63b8ff" d="M54.29,-301.09C58.24,-249.11 62.79,-189.2 66.24,-143.82"/>
<polygon fill="none" stroke="#63b8ff" points="50.81,-300.64 53.54,-310.88 57.79,-301.17 50.81,-300.64"/>
</a>
</g>
</g>
<!-- Node3 -->
<g id="Node000003" class="node">
<title>Node3</title>
<g id="a_Node000003"><a xlink:title=" ">
<polygon fill="white" stroke="none" points="162.62,-752 52.62,-752 52.62,-700 162.62,-700 162.62,-752"/>
<text xml:space="preserve" text-anchor="start" x="56.62" y="-738.5" font-family="Helvetica,sans-Serif" font-size="10.00">std::array&lt; uint8_t, O &gt;</text>
<text xml:space="preserve" text-anchor="start" x="69.69" y="-722.5" font-family="Helvetica,sans-Serif" font-size="10.00">+</text>
<text xml:space="preserve" text-anchor="start" x="92.75" y="-722.5" font-family="Helvetica,sans-Serif" font-size="10.00">elements</text>
<text xml:space="preserve" text-anchor="start" x="106.12" y="-706.5" font-family="Helvetica,sans-Serif" font-size="10.00"> </text>
<polygon fill="#666666" stroke="#666666" points="52.62,-734 52.62,-734 162.62,-734 162.62,-734 52.62,-734"/>
<polygon fill="#666666" stroke="#666666" points="52.62,-718 52.62,-718 90.75,-718 90.75,-718 52.62,-718"/>
<polygon fill="#666666" stroke="#666666" points="90.75,-718 90.75,-718 162.62,-718 162.62,-718 90.75,-718"/>
<polygon fill="none" stroke="#666666" points="52.62,-700 52.62,-752 162.62,-752 162.62,-700 52.62,-700"/>
</a>
</g>
</g>
<!-- Node3&#45;&gt;Node2 -->
<g id="edge2_Node000002_Node000003" class="edge">
<title>Node3&#45;&gt;Node2</title>
<g id="a_edge2_Node000002_Node000003"><a xlink:title=" ">
<path fill="none" stroke="#63b8ff" d="M64.48,-700.23C58.62,-694.98 53.41,-688.9 49.88,-682 26.72,-636.79 22.74,-581.3 25.71,-532.8"/>
<polygon fill="none" stroke="#63b8ff" points="25.71,-532.84 22.16,-526.56 26.6,-520.88 30.14,-527.16 25.71,-532.84"/>
</a>
</g>
<text xml:space="preserve" text-anchor="start" x="52.88" y="-669.5" font-family="Helvetica,sans-Serif" font-size="10.00" fill="grey">#_digest</text>
</g>
<!-- Node6 -->
<g id="Node000006" class="node">
<title>Node6</title>
<g id="a_Node000006"><a xlink:href="structanch_1_1crypto_1_1_s_h_a2_1_1_context.html" target="_top" xlink:title=" ">
<polygon fill="white" stroke="none" points="248.25,-294 103,-294 103,-198 248.25,-198 248.25,-294"/>
<text xml:space="preserve" text-anchor="start" x="107" y="-280.5" font-family="Helvetica,sans-Serif" font-size="10.00">anch::crypto::SHA2</text>
<text xml:space="preserve" text-anchor="start" x="107" y="-268.5" font-family="Helvetica,sans-Serif" font-size="10.00">&lt; O, B, W, R, I &gt;::Context&lt; I &gt;</text>
<text xml:space="preserve" text-anchor="start" x="128.69" y="-252.5" font-family="Helvetica,sans-Serif" font-size="10.00">+</text>
<text xml:space="preserve" text-anchor="start" x="160.38" y="-252.5" font-family="Helvetica,sans-Serif" font-size="10.00">size</text>
<text xml:space="preserve" text-anchor="start" x="128.69" y="-236.5" font-family="Helvetica,sans-Serif" font-size="10.00">+</text>
<text xml:space="preserve" text-anchor="start" x="160.38" y="-236.5" font-family="Helvetica,sans-Serif" font-size="10.00">buffer</text>
<text xml:space="preserve" text-anchor="start" x="128.69" y="-220.5" font-family="Helvetica,sans-Serif" font-size="10.00">+</text>
<text xml:space="preserve" text-anchor="start" x="160.38" y="-220.5" font-family="Helvetica,sans-Serif" font-size="10.00">Context()</text>
<text xml:space="preserve" text-anchor="start" x="128.69" y="-204.5" font-family="Helvetica,sans-Serif" font-size="10.00">+</text>
<text xml:space="preserve" text-anchor="start" x="160.38" y="-204.5" font-family="Helvetica,sans-Serif" font-size="10.00">reset()</text>
<polygon fill="#666666" stroke="#666666" points="103,-264 103,-264 248.25,-264 248.25,-264 103,-264"/>
<polygon fill="#666666" stroke="#666666" points="103,-232 103,-232 158.38,-232 158.38,-232 103,-232"/>
<polygon fill="#666666" stroke="#666666" points="158.38,-232 158.38,-232 248.25,-232 248.25,-232 158.38,-232"/>
<polygon fill="none" stroke="#666666" points="103,-198 103,-294 248.25,-294 248.25,-198 103,-198"/>
</a>
</g>
</g>
<!-- Node3&#45;&gt;Node6 -->
<g id="edge8_Node000006_Node000003" class="edge">
<title>Node3&#45;&gt;Node6</title>
<g id="a_edge8_Node000006_Node000003"><a xlink:title=" ">
<path fill="none" stroke="#63b8ff" d="M107.37,-700.09C107.3,-664.15 108.25,-595.72 115.38,-538 125.38,-456.9 146.07,-364.77 160.39,-306.3"/>
<polygon fill="none" stroke="#63b8ff" points="160.34,-306.51 157.89,-299.73 163.22,-294.86 165.66,-301.65 160.34,-306.51"/>
</a>
</g>
<text xml:space="preserve" text-anchor="start" x="118.38" y="-588.5" font-family="Helvetica,sans-Serif" font-size="10.00" fill="grey">+digest</text>
</g>
<!-- Node8 -->
<g id="Node000008" class="node">
<title>Node8</title>
<g id="a_Node000008"><a xlink:href="structanch_1_1crypto_1_1_s_h_a2_1_1_context.html" target="_top" xlink:title=" ">
<polygon fill="white" stroke="none" points="286.75,-646 162.5,-646 162.5,-538 286.75,-538 286.75,-646"/>
<text xml:space="preserve" text-anchor="start" x="166.5" y="-632.5" font-family="Helvetica,sans-Serif" font-size="10.00">anch::crypto::SHA2</text>
<text xml:space="preserve" text-anchor="start" x="166.5" y="-620.5" font-family="Helvetica,sans-Serif" font-size="10.00">&lt; O, B, W, R, I &gt;::Context</text>
<text xml:space="preserve" text-anchor="start" x="208.88" y="-608.5" font-family="Helvetica,sans-Serif" font-size="10.00">&lt; Init &gt;</text>
<text xml:space="preserve" text-anchor="start" x="182.94" y="-592.5" font-family="Helvetica,sans-Serif" font-size="10.00">+</text>
<text xml:space="preserve" text-anchor="start" x="209.38" y="-592.5" font-family="Helvetica,sans-Serif" font-size="10.00">size</text>
<text xml:space="preserve" text-anchor="start" x="182.94" y="-576.5" font-family="Helvetica,sans-Serif" font-size="10.00">+</text>
<text xml:space="preserve" text-anchor="start" x="209.38" y="-576.5" font-family="Helvetica,sans-Serif" font-size="10.00">buffer</text>
<text xml:space="preserve" text-anchor="start" x="182.94" y="-560.5" font-family="Helvetica,sans-Serif" font-size="10.00">+</text>
<text xml:space="preserve" text-anchor="start" x="209.38" y="-560.5" font-family="Helvetica,sans-Serif" font-size="10.00">Context()</text>
<text xml:space="preserve" text-anchor="start" x="182.94" y="-544.5" font-family="Helvetica,sans-Serif" font-size="10.00">+</text>
<text xml:space="preserve" text-anchor="start" x="209.38" y="-544.5" font-family="Helvetica,sans-Serif" font-size="10.00">reset()</text>
<polygon fill="#666666" stroke="#666666" points="162.5,-604 162.5,-604 286.75,-604 286.75,-604 162.5,-604"/>
<polygon fill="#666666" stroke="#666666" points="162.5,-572 162.5,-572 207.38,-572 207.38,-572 162.5,-572"/>
<polygon fill="#666666" stroke="#666666" points="207.38,-572 207.38,-572 286.75,-572 286.75,-572 207.38,-572"/>
<polygon fill="none" stroke="#666666" points="162.5,-538 162.5,-646 286.75,-646 286.75,-538 162.5,-538"/>
</a>
</g>
</g>
<!-- Node3&#45;&gt;Node8 -->
<g id="edge11_Node000008_Node000003" class="edge">
<title>Node3&#45;&gt;Node8</title>
<g id="a_edge11_Node000008_Node000003"><a xlink:title=" ">
<path fill="none" stroke="#63b8ff" d="M129.63,-700.17C140.98,-687.37 155.37,-671.14 169.5,-655.2"/>
<polygon fill="none" stroke="#63b8ff" points="169.2,-655.53 170.19,-648.39 177.16,-646.55 176.18,-653.69 169.2,-655.53"/>
</a>
</g>
<text xml:space="preserve" text-anchor="start" x="162.12" y="-669.5" font-family="Helvetica,sans-Serif" font-size="10.00" fill="grey">+digest</text>
</g>
<!-- Node4 -->
<g id="Node000004" class="node">
<title>Node4</title>
<g id="a_Node000004"><a xlink:title=" ">
<polygon fill="white" stroke="none" points="201.88,-858 129.38,-858 129.38,-806 201.88,-806 201.88,-858"/>
<text xml:space="preserve" text-anchor="start" x="133.38" y="-844.5" font-family="Helvetica,sans-Serif" font-size="10.00">std::array&lt; T &gt;</text>
<text xml:space="preserve" text-anchor="start" x="164.12" y="-828.5" font-family="Helvetica,sans-Serif" font-size="10.00"> </text>
<text xml:space="preserve" text-anchor="start" x="164.12" y="-812.5" font-family="Helvetica,sans-Serif" font-size="10.00"> </text>
<polygon fill="#666666" stroke="#666666" points="129.38,-840 129.38,-840 201.88,-840 201.88,-840 129.38,-840"/>
<polygon fill="#666666" stroke="#666666" points="129.38,-824 129.38,-824 201.88,-824 201.88,-824 129.38,-824"/>
<polygon fill="none" stroke="#666666" points="129.38,-806 129.38,-858 201.88,-858 201.88,-806 129.38,-806"/>
</a>
</g>
</g>
<!-- Node4&#45;&gt;Node3 -->
<g id="edge3_Node000003_Node000004" class="edge">
<title>Node4&#45;&gt;Node3</title>
<g id="a_edge3_Node000003_Node000004"><a xlink:title=" ">
<path fill="none" stroke="orange" d="M134.93,-797.35C132.74,-794.29 130.68,-791.15 128.88,-788 122.45,-776.82 117.51,-763.37 114.02,-751.95"/>
<polygon fill="orange" stroke="orange" points="131.99,-799.28 140.87,-805.06 137.54,-795 131.99,-799.28"/>
</a>
</g>
<text xml:space="preserve" text-anchor="start" x="131.88" y="-775.5" font-family="Helvetica,sans-Serif" font-size="10.00" fill="grey">&lt; uint8_t, O &gt;</text>
</g>
<!-- Node7 -->
<g id="Node000007" class="node">
<title>Node7</title>
<g id="a_Node000007"><a xlink:title=" ">
<polygon fill="white" stroke="none" points="268.38,-752 180.88,-752 180.88,-700 268.38,-700 268.38,-752"/>
<text xml:space="preserve" text-anchor="start" x="184.88" y="-738.5" font-family="Helvetica,sans-Serif" font-size="10.00">std::array&lt; W, 8 &gt;</text>
<text xml:space="preserve" text-anchor="start" x="192.31" y="-722.5" font-family="Helvetica,sans-Serif" font-size="10.00">+</text>
<text xml:space="preserve" text-anchor="start" x="209.75" y="-722.5" font-family="Helvetica,sans-Serif" font-size="10.00">elements</text>
<text xml:space="preserve" text-anchor="start" x="223.12" y="-706.5" font-family="Helvetica,sans-Serif" font-size="10.00"> </text>
<polygon fill="#666666" stroke="#666666" points="180.88,-734 180.88,-734 268.38,-734 268.38,-734 180.88,-734"/>
<polygon fill="#666666" stroke="#666666" points="180.88,-718 180.88,-718 207.75,-718 207.75,-718 180.88,-718"/>
<polygon fill="#666666" stroke="#666666" points="207.75,-718 207.75,-718 268.38,-718 268.38,-718 207.75,-718"/>
<polygon fill="none" stroke="#666666" points="180.88,-700 180.88,-752 268.38,-752 268.38,-700 180.88,-700"/>
</a>
</g>
</g>
<!-- Node4&#45;&gt;Node7 -->
<g id="edge7_Node000007_Node000004" class="edge">
<title>Node4&#45;&gt;Node7</title>
<g id="a_edge7_Node000007_Node000004"><a xlink:title=" ">
<path fill="none" stroke="orange" d="M190.09,-797.01C192.03,-794.01 193.9,-790.97 195.62,-788 202.34,-776.44 208.83,-763.08 213.96,-751.82"/>
<polygon fill="orange" stroke="orange" points="187.28,-794.93 184.63,-805.19 193.1,-798.82 187.28,-794.93"/>
</a>
</g>
<text xml:space="preserve" text-anchor="start" x="208.28" y="-775.5" font-family="Helvetica,sans-Serif" font-size="10.00" fill="grey">&lt; W, 8 &gt;</text>
</g>
<!-- Node5 -->
<g id="Node000005" class="node">
<title>Node5</title>
<g id="a_Node000005"><a xlink:title=" ">
<polygon fill="white" stroke="none" points="172.62,-964 158.62,-964 158.62,-912 172.62,-912 172.62,-964"/>
<text xml:space="preserve" text-anchor="start" x="162.62" y="-950.5" font-family="Helvetica,sans-Serif" font-size="10.00">T</text>
<text xml:space="preserve" text-anchor="start" x="164.12" y="-934.5" font-family="Helvetica,sans-Serif" font-size="10.00"> </text>
<text xml:space="preserve" text-anchor="start" x="164.12" y="-918.5" font-family="Helvetica,sans-Serif" font-size="10.00"> </text>
<polygon fill="#bfbfbf" stroke="#bfbfbf" points="158.62,-946 158.62,-946 172.62,-946 172.62,-946 158.62,-946"/>
<polygon fill="#bfbfbf" stroke="#bfbfbf" points="158.62,-930 158.62,-930 172.62,-930 172.62,-930 158.62,-930"/>
<polygon fill="none" stroke="#bfbfbf" points="158.62,-912 158.62,-964 172.62,-964 172.62,-912 158.62,-912"/>
</a>
</g>
</g>
<!-- Node5&#45;&gt;Node4 -->
<g id="edge4_Node000004_Node000005" class="edge">
<title>Node5&#45;&gt;Node4</title>
<g id="a_edge4_Node000004_Node000005"><a xlink:title=" ">
<path fill="none" stroke="#63b8ff" d="M165.62,-912.09C165.62,-899.61 165.62,-884.25 165.62,-870.39"/>
<polygon fill="none" stroke="#63b8ff" points="165.63,-870.61 161.63,-864.61 165.63,-858.61 169.63,-864.61 165.63,-870.61"/>
</a>
</g>
<text xml:space="preserve" text-anchor="start" x="168.62" y="-881.5" font-family="Helvetica,sans-Serif" font-size="10.00" fill="grey">+elements</text>
</g>
<!-- Node6&#45;&gt;Node1 -->
<g id="edge5_Node000001_Node000006" class="edge">
<title>Node6&#45;&gt;Node1</title>
<g id="a_edge5_Node000001_Node000006"><a xlink:title=" ">
<path fill="none" stroke="#63b8ff" d="M147.21,-198C139.08,-184.55 129.97,-169.49 120.97,-154.61"/>
<polygon fill="none" stroke="#63b8ff" points="121.13,-154.87 114.6,-151.8 114.92,-144.6 121.44,-147.66 121.13,-154.87"/>
</a>
</g>
<text xml:space="preserve" text-anchor="start" x="139" y="-167.5" font-family="Helvetica,sans-Serif" font-size="10.00" fill="grey">#_context</text>
</g>
<!-- Node7&#45;&gt;Node6 -->
<g id="edge6_Node000006_Node000007" class="edge">
<title>Node7&#45;&gt;Node6</title>
<g id="a_edge6_Node000006_Node000007"><a xlink:title=" ">
<path fill="none" stroke="#63b8ff" d="M255.63,-700.34C270.8,-686.24 287.51,-667.18 295.62,-646 312.81,-601.18 300.94,-585.7 295.62,-538 284.22,-435.66 295.66,-401.43 244.62,-312 243.11,-309.35 241.45,-306.74 239.68,-304.18"/>
<polygon fill="none" stroke="#63b8ff" points="239.69,-304.19 232.86,-301.87 232.38,-294.68 239.2,-296.99 239.69,-304.19"/>
</a>
</g>
<text xml:space="preserve" text-anchor="start" x="307.58" y="-588.5" font-family="Helvetica,sans-Serif" font-size="10.00" fill="grey">+state</text>
</g>
<!-- Node7&#45;&gt;Node8 -->
<g id="edge10_Node000008_Node000007" class="edge">
<title>Node7&#45;&gt;Node8</title>
<g id="a_edge10_Node000008_Node000007"><a xlink:title=" ">
<path fill="none" stroke="#63b8ff" d="M224.62,-700.17C224.62,-688.33 224.62,-673.55 224.62,-658.78"/>
<polygon fill="none" stroke="#63b8ff" points="224.63,-658.78 220.63,-652.78 224.63,-646.78 228.63,-652.78 224.63,-658.78"/>
</a>
</g>
<text xml:space="preserve" text-anchor="start" x="227.62" y="-669.5" font-family="Helvetica,sans-Serif" font-size="10.00" fill="grey">+state</text>
</g>
<!-- Node8&#45;&gt;Node6 -->
<g id="edge9_Node000006_Node000008" class="edge">
<title>Node8&#45;&gt;Node6</title>
<g id="a_edge9_Node000006_Node000008"><a xlink:title=" ">
<path fill="none" stroke="orange" d="M215.46,-526.65C205.82,-459.01 190.9,-354.23 182.32,-293.97"/>
<polygon fill="orange" stroke="orange" points="211.99,-527.1 216.86,-536.51 218.92,-526.11 211.99,-527.1"/>
</a>
</g>
<text xml:space="preserve" text-anchor="start" x="217.04" y="-412.5" font-family="Helvetica,sans-Serif" font-size="10.00" fill="grey">&lt; I &gt;</text>
</g>
</g>
</svg>
