<?xml version="1.0" encoding="UTF-8" standalone="no"?>
<!DOCTYPE svg PUBLIC "-//W3C//DTD SVG 1.1//EN"
 "http://www.w3.org/Graphics/SVG/1.1/DTD/svg11.dtd">
<!-- Generated by graphviz version 7.0.6 (0)
 -->
<!-- Title: anch::logger::Writer Pages: 1 -->
<svg width="302pt" height="281pt"
 viewBox="0.00 0.00 301.50 281.00" xmlns="http://www.w3.org/2000/svg" xmlns:xlink="http://www.w3.org/1999/xlink">
<g id="graph0" class="graph" transform="scale(1 1) rotate(0) translate(4 277)">
<title>anch::logger::Writer</title>
<!-- Node1 -->
<g id="node1" class="node">
<title>Node1</title>
<g id="a_node1"><a xlink:title=" ">
<polygon fill="#999999" stroke="#666666" points="90,-149.5 90,-272.5 203,-272.5 203,-149.5 90,-149.5"/>
<text text-anchor="middle" x="146.5" y="-260.5" font-family="Helvetica,sans-Serif" font-size="10.00">anch::logger::Writer</text>
<polyline fill="none" stroke="#666666" points="90,-253.5 203,-253.5"/>
<text text-anchor="start" x="98" y="-241.5" font-family="Helvetica,sans-Serif" font-size="10.00"># _output</text>
<text text-anchor="start" x="98" y="-230.5" font-family="Helvetica,sans-Serif" font-size="10.00"># _formatter</text>
<polyline fill="none" stroke="#666666" points="90,-223.5 203,-223.5"/>
<text text-anchor="start" x="98" y="-211.5" font-family="Helvetica,sans-Serif" font-size="10.00">+ Writer()</text>
<text text-anchor="start" x="98" y="-200.5" font-family="Helvetica,sans-Serif" font-size="10.00">+ Writer()</text>
<text text-anchor="start" x="98" y="-189.5" font-family="Helvetica,sans-Serif" font-size="10.00">+ ~Writer()</text>
<text text-anchor="start" x="98" y="-178.5" font-family="Helvetica,sans-Serif" font-size="10.00">+ write()</text>
<text text-anchor="start" x="98" y="-167.5" font-family="Helvetica,sans-Serif" font-size="10.00"># rotate()</text>
<text text-anchor="start" x="98" y="-156.5" font-family="Helvetica,sans-Serif" font-size="10.00"># rotateFiles()</text>
</a>
</g>
</g>
<!-- Node2 -->
<g id="node2" class="node">
<title>Node2</title>
<g id="a_node2"><a xlink:href="classanch_1_1logger_1_1_low_priority_writer.html" target="_top" xlink:title=" ">
<polygon fill="white" stroke="#666666" points="0,-0.5 0,-112.5 137,-112.5 137,-0.5 0,-0.5"/>
<text text-anchor="start" x="8" y="-100.5" font-family="Helvetica,sans-Serif" font-size="10.00">anch::logger::LowPriority</text>
<text text-anchor="middle" x="68.5" y="-89.5" font-family="Helvetica,sans-Serif" font-size="10.00">Writer</text>
<polyline fill="none" stroke="#666666" points="0,-82.5 137,-82.5"/>
<text text-anchor="middle" x="68.5" y="-70.5" font-family="Helvetica,sans-Serif" font-size="10.00"> </text>
<polyline fill="none" stroke="#666666" points="0,-63.5 137,-63.5"/>
<text text-anchor="start" x="8" y="-51.5" font-family="Helvetica,sans-Serif" font-size="10.00">+ LowPriorityWriter()</text>
<text text-anchor="start" x="8" y="-40.5" font-family="Helvetica,sans-Serif" font-size="10.00">+ LowPriorityWriter()</text>
<text text-anchor="start" x="8" y="-29.5" font-family="Helvetica,sans-Serif" font-size="10.00">+ ~LowPriorityWriter()</text>
<text text-anchor="start" x="8" y="-18.5" font-family="Helvetica,sans-Serif" font-size="10.00">+ write()</text>
<text text-anchor="start" x="8" y="-7.5" font-family="Helvetica,sans-Serif" font-size="10.00">+ startTreatment()</text>
</a>
</g>
</g>
<!-- Node1&#45;&gt;Node2 -->
<g id="edge1" class="edge">
<title>Node1&#45;&gt;Node2</title>
<path fill="none" stroke="#63b8ff" d="M110.45,-139.52C105.79,-130.41 101.07,-121.19 96.57,-112.38"/>
<polygon fill="none" stroke="#63b8ff" points="107.31,-141.07 114.98,-148.38 113.55,-137.88 107.31,-141.07"/>
</g>
<!-- Node3 -->
<g id="node3" class="node">
<title>Node3</title>
<g id="a_node3"><a xlink:href="classanch_1_1logger_1_1_thread_safe_writer.html" target="_top" xlink:title=" ">
<polygon fill="white" stroke="#666666" points="155.5,-6 155.5,-107 293.5,-107 293.5,-6 155.5,-6"/>
<text text-anchor="start" x="163.5" y="-95" font-family="Helvetica,sans-Serif" font-size="10.00">anch::logger::ThreadSafe</text>
<text text-anchor="middle" x="224.5" y="-84" font-family="Helvetica,sans-Serif" font-size="10.00">Writer</text>
<polyline fill="none" stroke="#666666" points="155.5,-77 293.5,-77"/>
<text text-anchor="middle" x="224.5" y="-65" font-family="Helvetica,sans-Serif" font-size="10.00"> </text>
<polyline fill="none" stroke="#666666" points="155.5,-58 293.5,-58"/>
<text text-anchor="start" x="163.5" y="-46" font-family="Helvetica,sans-Serif" font-size="10.00">+ ThreadSafeWriter()</text>
<text text-anchor="start" x="163.5" y="-35" font-family="Helvetica,sans-Serif" font-size="10.00">+ ThreadSafeWriter()</text>
<text text-anchor="start" x="163.5" y="-24" font-family="Helvetica,sans-Serif" font-size="10.00">+ ~ThreadSafeWriter()</text>
<text text-anchor="start" x="163.5" y="-13" font-family="Helvetica,sans-Serif" font-size="10.00">+ write()</text>
</a>
</g>
</g>
<!-- Node1&#45;&gt;Node3 -->
<g id="edge2" class="edge">
<title>Node1&#45;&gt;Node3</title>
<path fill="none" stroke="#63b8ff" d="M182.53,-139.56C188.24,-128.4 194.03,-117.08 199.41,-106.55"/>
<polygon fill="none" stroke="#63b8ff" points="179.45,-137.88 178.02,-148.38 185.69,-141.07 179.45,-137.88"/>
</g>
</g>
</svg>
