<?xml version="1.0" encoding="UTF-8" standalone="no"?>
<!DOCTYPE svg PUBLIC "-//W3C//DTD SVG 1.1//EN"
 "http://www.w3.org/Graphics/SVG/1.1/DTD/svg11.dtd">
<!-- Generated by graphviz version 12.1.2 (0)
 -->
<!-- Title: anch::crypto::AES&lt; K, R &gt; Pages: 1 -->
<svg width="156pt" height="401pt"
 viewBox="0.00 0.00 156.00 401.00" xmlns="http://www.w3.org/2000/svg" xmlns:xlink="http://www.w3.org/1999/xlink">
<g id="graph0" class="graph" transform="scale(1 1) rotate(0) translate(4 397)">
<title>anch::crypto::AES&lt; K, R &gt;</title>
<!-- Node1 -->
<g id="Node000001" class="node">
<title>Node1</title>
<g id="a_Node000001"><a xlink:title="AES block cipher algorithm implementation.">
<polygon fill="#999999" stroke="none" points="122,-128 26,-128 26,0 122,0 122,-128"/>
<text text-anchor="start" x="30.88" y="-114.5" font-family="Helvetica,sans-Serif" font-size="10.00">anch::crypto::AES&lt;</text>
<text text-anchor="start" x="57.88" y="-102.5" font-family="Helvetica,sans-Serif" font-size="10.00"> K, R &gt;</text>
<text text-anchor="start" x="72.5" y="-86.5" font-family="Helvetica,sans-Serif" font-size="10.00"> </text>
<text text-anchor="start" x="39" y="-70.5" font-family="Helvetica,sans-Serif" font-size="10.00">+</text>
<text text-anchor="start" x="58" y="-70.5" font-family="Helvetica,sans-Serif" font-size="10.00">AES()</text>
<text text-anchor="start" x="39" y="-54.5" font-family="Helvetica,sans-Serif" font-size="10.00">+</text>
<text text-anchor="start" x="58" y="-54.5" font-family="Helvetica,sans-Serif" font-size="10.00">AES()</text>
<text text-anchor="start" x="39" y="-38.5" font-family="Helvetica,sans-Serif" font-size="10.00">+</text>
<text text-anchor="start" x="58" y="-38.5" font-family="Helvetica,sans-Serif" font-size="10.00">~AES()</text>
<text text-anchor="start" x="39" y="-22.5" font-family="Helvetica,sans-Serif" font-size="10.00">+</text>
<text text-anchor="start" x="58" y="-22.5" font-family="Helvetica,sans-Serif" font-size="10.00">cipher()</text>
<text text-anchor="start" x="39" y="-6.5" font-family="Helvetica,sans-Serif" font-size="10.00">+</text>
<text text-anchor="start" x="58" y="-6.5" font-family="Helvetica,sans-Serif" font-size="10.00">decipher()</text>
<polygon fill="#666666" stroke="#666666" points="26,-98 26,-98 122,-98 122,-98 26,-98"/>
<polygon fill="#666666" stroke="#666666" points="26,-82 26,-82 122,-82 122,-82 26,-82"/>
<polygon fill="none" stroke="#666666" points="26,0 26,-128 122,-128 122,0 26,0"/>
</a>
</g>
</g>
<!-- Node2 -->
<g id="Node000002" class="node">
<title>Node2</title>
<g id="a_Node000002"><a xlink:href="classanch_1_1crypto_1_1_block_cipher.html" target="_top" xlink:title=" ">
<polygon fill="white" stroke="none" points="135.5,-261 12.5,-261 12.5,-165 135.5,-165 135.5,-261"/>
<text text-anchor="start" x="17.38" y="-247.5" font-family="Helvetica,sans-Serif" font-size="10.00">anch::crypto::BlockCipher</text>
<text text-anchor="start" x="59.75" y="-235.5" font-family="Helvetica,sans-Serif" font-size="10.00">&lt; 16 &gt;</text>
<text text-anchor="start" x="72.5" y="-219.5" font-family="Helvetica,sans-Serif" font-size="10.00"> </text>
<text text-anchor="start" x="27" y="-203.5" font-family="Helvetica,sans-Serif" font-size="10.00">+</text>
<text text-anchor="start" x="47.5" y="-203.5" font-family="Helvetica,sans-Serif" font-size="10.00">cipher()</text>
<text text-anchor="start" x="27" y="-187.5" font-family="Helvetica,sans-Serif" font-size="10.00">+</text>
<text text-anchor="start" x="47.5" y="-187.5" font-family="Helvetica,sans-Serif" font-size="10.00">decipher()</text>
<text text-anchor="start" x="27" y="-171.5" font-family="Helvetica,sans-Serif" font-size="10.00">+</text>
<text text-anchor="start" x="47.5" y="-171.5" font-family="Helvetica,sans-Serif" font-size="10.00">getBlockSize()</text>
<polygon fill="#666666" stroke="#666666" points="12.5,-231 12.5,-231 135.5,-231 135.5,-231 12.5,-231"/>
<polygon fill="#666666" stroke="#666666" points="12.5,-215 12.5,-215 135.5,-215 135.5,-215 12.5,-215"/>
<polygon fill="none" stroke="#666666" points="12.5,-165 12.5,-261 135.5,-261 135.5,-165 12.5,-165"/>
</a>
</g>
</g>
<!-- Node2&#45;&gt;Node1 -->
<g id="edge1_Node000001_Node000002" class="edge">
<title>Node2&#45;&gt;Node1</title>
<g id="a_edge1_Node000001_Node000002"><a xlink:title=" ">
<path fill="none" stroke="#63b8ff" d="M74,-153.71C74,-145.21 74,-136.42 74,-127.83"/>
<polygon fill="none" stroke="#63b8ff" points="70.5,-153.57 74,-163.57 77.5,-153.57 70.5,-153.57"/>
</a>
</g>
</g>
<!-- Node3 -->
<g id="Node000003" class="node">
<title>Node3</title>
<g id="a_Node000003"><a xlink:href="classanch_1_1crypto_1_1_block_cipher.html" target="_top" xlink:title="Block cipher interface.">
<polygon fill="white" stroke="none" points="148,-393 0,-393 0,-309 148,-309 148,-393"/>
<text text-anchor="start" x="5" y="-379.5" font-family="Helvetica,sans-Serif" font-size="10.00">anch::crypto::BlockCipher&lt; B &gt;</text>
<text text-anchor="start" x="72.5" y="-363.5" font-family="Helvetica,sans-Serif" font-size="10.00"> </text>
<text text-anchor="start" x="20.5" y="-347.5" font-family="Helvetica,sans-Serif" font-size="10.00">+</text>
<text text-anchor="start" x="47" y="-347.5" font-family="Helvetica,sans-Serif" font-size="10.00">cipher()</text>
<text text-anchor="start" x="20.5" y="-331.5" font-family="Helvetica,sans-Serif" font-size="10.00">+</text>
<text text-anchor="start" x="47" y="-331.5" font-family="Helvetica,sans-Serif" font-size="10.00">decipher()</text>
<text text-anchor="start" x="20.5" y="-315.5" font-family="Helvetica,sans-Serif" font-size="10.00">+</text>
<text text-anchor="start" x="47" y="-315.5" font-family="Helvetica,sans-Serif" font-size="10.00">getBlockSize()</text>
<polygon fill="#666666" stroke="#666666" points="0,-375 0,-375 148,-375 148,-375 0,-375"/>
<polygon fill="#666666" stroke="#666666" points="0,-359 0,-359 148,-359 148,-359 0,-359"/>
<polygon fill="none" stroke="#666666" points="0,-309 0,-393 148,-393 148,-309 0,-309"/>
</a>
</g>
</g>
<!-- Node3&#45;&gt;Node2 -->
<g id="edge2_Node000002_Node000003" class="edge">
<title>Node3&#45;&gt;Node2</title>
<g id="a_edge2_Node000002_Node000003"><a xlink:title=" ">
<path fill="none" stroke="orange" d="M74,-297.84C74,-285.71 74,-272.87 74,-260.98"/>
<polygon fill="orange" stroke="orange" points="70.5,-297.68 74,-307.68 77.5,-297.68 70.5,-297.68"/>
</a>
</g>
<text text-anchor="middle" x="89.75" y="-281.5" font-family="Helvetica,sans-Serif" font-size="10.00" fill="grey"> &lt; 16 &gt;</text>
</g>
</g>
</svg>
