<?xml version="1.0" encoding="UTF-8" standalone="no"?>
<!DOCTYPE svg PUBLIC "-//W3C//DTD SVG 1.1//EN"
 "http://www.w3.org/Graphics/SVG/1.1/DTD/svg11.dtd">
<!-- Generated by graphviz version 14.1.3 (0)
 -->
<!-- Title: anch::events::EventBus&lt; T &gt; Pages: 1 -->
<svg width="166pt" height="411pt"
 viewBox="0.00 0.00 166.00 411.00" xmlns="http://www.w3.org/2000/svg" xmlns:xlink="http://www.w3.org/1999/xlink">

<svg id="main" version="1.1" xmlns="http://www.w3.org/2000/svg" xmlns:xlink="http://www.w3.org/1999/xlink" xml:space="preserve">

<style type="text/css"><![CDATA[
.node, .edge {opacity: 0.7;}
.node.selected, .edge.selected {opacity: 1;}
.edge:hover path { stroke: red; }
.edge:hover polygon { stroke: red; fill: red; }
]]></style>
<script type="application/ecmascript" xlink:href="svg.min.js"/>
<svg id="graph" class="graph">
<g id="graph0" class="graph" transform="scale(1 1) rotate(0) translate(4 407)">
<title>anch::events::EventBus&lt; T &gt;</title>
<!-- Node1 -->
<g id="Node000001" class="node">
<title>Node1</title>
<g id="a_Node000001"><a xlink:title="A class which manage global events firing and events QoS.">
<polygon fill="#999999" stroke="none" points="136.25,-196 0,-196 0,0 136.25,0 136.25,-196"/>
<text xml:space="preserve" text-anchor="start" x="4" y="-182.25" font-family="Helvetica,sans-Serif" font-size="10.00">anch::events::EventBus&lt; T &gt;</text>
<text xml:space="preserve" text-anchor="start" x="66.62" y="-166.25" font-family="Helvetica,sans-Serif" font-size="10.00"> </text>
<text xml:space="preserve" text-anchor="start" x="12.94" y="-150.25" font-family="Helvetica,sans-Serif" font-size="10.00">+</text>
<text xml:space="preserve" text-anchor="start" x="31.88" y="-150.25" font-family="Helvetica,sans-Serif" font-size="10.00">EventBus()</text>
<text xml:space="preserve" text-anchor="start" x="12.94" y="-134.25" font-family="Helvetica,sans-Serif" font-size="10.00">+</text>
<text xml:space="preserve" text-anchor="start" x="31.88" y="-134.25" font-family="Helvetica,sans-Serif" font-size="10.00">addObserver()</text>
<text xml:space="preserve" text-anchor="start" x="12.94" y="-118.25" font-family="Helvetica,sans-Serif" font-size="10.00">+</text>
<text xml:space="preserve" text-anchor="start" x="31.88" y="-118.25" font-family="Helvetica,sans-Serif" font-size="10.00">removeObserver()</text>
<text xml:space="preserve" text-anchor="start" x="12.94" y="-102.25" font-family="Helvetica,sans-Serif" font-size="10.00">+</text>
<text xml:space="preserve" text-anchor="start" x="31.88" y="-102.25" font-family="Helvetica,sans-Serif" font-size="10.00">fireEvent()</text>
<text xml:space="preserve" text-anchor="start" x="12.94" y="-86.25" font-family="Helvetica,sans-Serif" font-size="10.00">+</text>
<text xml:space="preserve" text-anchor="start" x="31.88" y="-86.25" font-family="Helvetica,sans-Serif" font-size="10.00">fireEvent()</text>
<text xml:space="preserve" text-anchor="start" x="12.94" y="-70.25" font-family="Helvetica,sans-Serif" font-size="10.00">+</text>
<text xml:space="preserve" text-anchor="start" x="31.88" y="-70.25" font-family="Helvetica,sans-Serif" font-size="10.00">release()</text>
<text xml:space="preserve" text-anchor="start" x="12.94" y="-54.25" font-family="Helvetica,sans-Serif" font-size="10.00">+</text>
<text xml:space="preserve" text-anchor="start" x="31.88" y="-54.25" font-family="Helvetica,sans-Serif" font-size="10.00">AddObserver()</text>
<text xml:space="preserve" text-anchor="start" x="12.94" y="-38.25" font-family="Helvetica,sans-Serif" font-size="10.00">+</text>
<text xml:space="preserve" text-anchor="start" x="31.88" y="-38.25" font-family="Helvetica,sans-Serif" font-size="10.00">RemoveObserver()</text>
<text xml:space="preserve" text-anchor="start" x="12.94" y="-22.25" font-family="Helvetica,sans-Serif" font-size="10.00">+</text>
<text xml:space="preserve" text-anchor="start" x="31.88" y="-22.25" font-family="Helvetica,sans-Serif" font-size="10.00">FireEvent()</text>
<text xml:space="preserve" text-anchor="start" x="12.94" y="-6.25" font-family="Helvetica,sans-Serif" font-size="10.00">+</text>
<text xml:space="preserve" text-anchor="start" x="31.88" y="-6.25" font-family="Helvetica,sans-Serif" font-size="10.00">FireEvent()</text>
<polygon fill="#666666" stroke="#666666" points="0,-178 0,-178 136.25,-178 136.25,-178 0,-178"/>
<polygon fill="#666666" stroke="#666666" points="0,-162 0,-162 136.25,-162 136.25,-162 0,-162"/>
<polygon fill="none" stroke="#666666" points="0,0 0,-196 136.25,-196 136.25,0 0,0"/>
</a>
</g>
</g>
<!-- Node2 -->
<g id="Node000002" class="node">
<title>Node2</title>
<g id="a_Node000002"><a xlink:href="classanch_1_1_singleton.html" target="_top" xlink:title=" ">
<polygon fill="white" stroke="none" points="131.75,-297 4.5,-297 4.5,-233 131.75,-233 131.75,-297"/>
<text xml:space="preserve" text-anchor="start" x="8.5" y="-283.25" font-family="Helvetica,sans-Serif" font-size="10.00">anch::Singleton&lt; EventBus</text>
<text xml:space="preserve" text-anchor="start" x="52" y="-271.25" font-family="Helvetica,sans-Serif" font-size="10.00">&lt; T &gt; &gt;</text>
<text xml:space="preserve" text-anchor="start" x="66.62" y="-255.25" font-family="Helvetica,sans-Serif" font-size="10.00"> </text>
<text xml:space="preserve" text-anchor="start" x="21.56" y="-239.25" font-family="Helvetica,sans-Serif" font-size="10.00">+</text>
<text xml:space="preserve" text-anchor="start" x="44.62" y="-239.25" font-family="Helvetica,sans-Serif" font-size="10.00">getInstance()</text>
<polygon fill="#666666" stroke="#666666" points="4.5,-267 4.5,-267 131.75,-267 131.75,-267 4.5,-267"/>
<polygon fill="#666666" stroke="#666666" points="4.5,-251 4.5,-251 131.75,-251 131.75,-251 4.5,-251"/>
<polygon fill="none" stroke="#666666" points="4.5,-233 4.5,-297 131.75,-297 131.75,-233 4.5,-233"/>
</a>
</g>
</g>
<!-- Node2&#45;&gt;Node1 -->
<g id="edge1_Node000001_Node000002" class="edge">
<title>Node2&#45;&gt;Node1</title>
<g id="a_edge1_Node000001_Node000002"><a xlink:title=" ">
<path fill="none" stroke="#63b8ff" d="M68.12,-221.91C68.12,-213.72 68.12,-204.83 68.12,-195.7"/>
<polygon fill="none" stroke="#63b8ff" points="64.63,-221.84 68.13,-231.84 71.63,-221.84 64.63,-221.84"/>
</a>
</g>
</g>
<!-- Node3 -->
<g id="Node000003" class="node">
<title>Node3</title>
<g id="a_Node000003"><a xlink:href="classanch_1_1_singleton.html" target="_top" xlink:title="Meyers&#39; singleton implementation.">
<polygon fill="white" stroke="none" points="117.5,-403 18.75,-403 18.75,-351 117.5,-351 117.5,-403"/>
<text xml:space="preserve" text-anchor="start" x="22.75" y="-389.25" font-family="Helvetica,sans-Serif" font-size="10.00">anch::Singleton&lt; T &gt;</text>
<text xml:space="preserve" text-anchor="start" x="66.62" y="-373.25" font-family="Helvetica,sans-Serif" font-size="10.00"> </text>
<text xml:space="preserve" text-anchor="start" x="28.69" y="-357.25" font-family="Helvetica,sans-Serif" font-size="10.00">+</text>
<text xml:space="preserve" text-anchor="start" x="44.62" y="-357.25" font-family="Helvetica,sans-Serif" font-size="10.00">getInstance()</text>
<polygon fill="#666666" stroke="#666666" points="18.75,-385 18.75,-385 117.5,-385 117.5,-385 18.75,-385"/>
<polygon fill="#666666" stroke="#666666" points="18.75,-369 18.75,-369 117.5,-369 117.5,-369 18.75,-369"/>
<polygon fill="none" stroke="#666666" points="18.75,-351 18.75,-403 117.5,-403 117.5,-351 18.75,-351"/>
</a>
</g>
</g>
<!-- Node3&#45;&gt;Node2 -->
<g id="edge2_Node000002_Node000003" class="edge">
<title>Node3&#45;&gt;Node2</title>
<g id="a_edge2_Node000002_Node000003"><a xlink:title=" ">
<path fill="none" stroke="orange" d="M68.12,-339.86C68.12,-325.92 68.12,-310.14 68.12,-296.75"/>
<polygon fill="orange" stroke="orange" points="64.63,-339.53 68.13,-349.53 71.63,-339.53 64.63,-339.53"/>
</a>
</g>
<text xml:space="preserve" text-anchor="start" x="71.12" y="-320.25" font-family="Helvetica,sans-Serif" font-size="10.00" fill="grey">&lt; EventBus&lt; T &gt; &gt;</text>
</g>
</g>
</svg>
</svg>

<style type='text/css'>
<![CDATA[
[data-mouse-over-selected='false'] { opacity: 0.7; }
[data-mouse-over-selected='true']  { opacity: 1.0; }
]]>
</style>
<script type="application/ecmascript"><![CDATA[
document.addEventListener('DOMContentLoaded', (event) => {
  highlightEdges();
  highlightAdjacentNodes();
});
]]></script>
</svg>
