<?xml version="1.0" encoding="UTF-8" standalone="no"?>
<!DOCTYPE svg PUBLIC "-//W3C//DTD SVG 1.1//EN"
 "http://www.w3.org/Graphics/SVG/1.1/DTD/svg11.dtd">
<!-- Generated by graphviz version 7.1.0 (0)
 -->
<!-- Title: anch::rest::EndpointFunc Pages: 1 -->
<svg width="346pt" height="215pt"
 viewBox="0.00 0.00 345.50 215.00" xmlns="http://www.w3.org/2000/svg" xmlns:xlink="http://www.w3.org/1999/xlink">
<g id="graph0" class="graph" transform="scale(1 1) rotate(0) translate(4 211)">
<title>anch::rest::EndpointFunc</title>
<!-- Node1 -->
<g id="node1" class="node">
<title>Node1</title>
<g id="a_node1"><a xlink:title="Endpoint function interface.">
<polygon fill="#999999" stroke="#666666" points="95.5,-138.5 95.5,-206.5 231.5,-206.5 231.5,-138.5 95.5,-138.5"/>
<text text-anchor="middle" x="163.5" y="-194.5" font-family="Helvetica,sans-Serif" font-size="10.00">anch::rest::EndpointFunc</text>
<polyline fill="none" stroke="#666666" points="95.5,-187.5 231.5,-187.5"/>
<text text-anchor="middle" x="163.5" y="-175.5" font-family="Helvetica,sans-Serif" font-size="10.00"> </text>
<polyline fill="none" stroke="#666666" points="95.5,-168.5 231.5,-168.5"/>
<text text-anchor="start" x="103.5" y="-156.5" font-family="Helvetica,sans-Serif" font-size="10.00">+ ~EndpointFunc()</text>
<text text-anchor="start" x="103.5" y="-145.5" font-family="Helvetica,sans-Serif" font-size="10.00">+ execute()</text>
</a>
</g>
</g>
<!-- Node2 -->
<g id="node2" class="node">
<title>Node2</title>
<g id="a_node2"><a xlink:href="classanch_1_1rest_1_1_endpoint_params_func.html" target="_top" xlink:title=" ">
<polygon fill="white" stroke="#666666" points="0,-0.5 0,-101.5 149,-101.5 149,-0.5 0,-0.5"/>
<text text-anchor="start" x="8" y="-89.5" font-family="Helvetica,sans-Serif" font-size="10.00">anch::rest::EndpointParams</text>
<text text-anchor="middle" x="74.5" y="-78.5" font-family="Helvetica,sans-Serif" font-size="10.00">Func&lt; T &gt;</text>
<polyline fill="none" stroke="#666666" points="0,-71.5 149,-71.5"/>
<text text-anchor="middle" x="74.5" y="-59.5" font-family="Helvetica,sans-Serif" font-size="10.00"> </text>
<polyline fill="none" stroke="#666666" points="0,-52.5 149,-52.5"/>
<text text-anchor="start" x="8" y="-40.5" font-family="Helvetica,sans-Serif" font-size="10.00">+ EndpointParamsFunc()</text>
<text text-anchor="start" x="8" y="-29.5" font-family="Helvetica,sans-Serif" font-size="10.00">+ EndpointParamsFunc()</text>
<text text-anchor="start" x="8" y="-18.5" font-family="Helvetica,sans-Serif" font-size="10.00">+ ~EndpointParamsFunc()</text>
<text text-anchor="start" x="8" y="-7.5" font-family="Helvetica,sans-Serif" font-size="10.00">+ execute()</text>
</a>
</g>
</g>
<!-- Node1&#45;&gt;Node2 -->
<g id="edge1" class="edge">
<title>Node1&#45;&gt;Node2</title>
<path fill="none" stroke="#63b8ff" d="M132.12,-129.37C125.39,-120.33 118.23,-110.71 111.31,-101.43"/>
<polygon fill="none" stroke="#63b8ff" points="129.26,-131.39 138.04,-137.32 134.87,-127.21 129.26,-131.39"/>
</g>
<!-- Node3 -->
<g id="node3" class="node">
<title>Node3</title>
<g id="a_node3"><a xlink:href="classanch_1_1rest_1_1_endpoint_simple_func.html" target="_top" xlink:title=" ">
<polygon fill="white" stroke="#666666" points="167.5,-6 167.5,-96 337.5,-96 337.5,-6 167.5,-6"/>
<text text-anchor="middle" x="252.5" y="-84" font-family="Helvetica,sans-Serif" font-size="10.00">anch::rest::EndpointSimpleFunc</text>
<polyline fill="none" stroke="#666666" points="167.5,-77 337.5,-77"/>
<text text-anchor="middle" x="252.5" y="-65" font-family="Helvetica,sans-Serif" font-size="10.00"> </text>
<polyline fill="none" stroke="#666666" points="167.5,-58 337.5,-58"/>
<text text-anchor="start" x="175.5" y="-46" font-family="Helvetica,sans-Serif" font-size="10.00">+ EndpointSimpleFunc()</text>
<text text-anchor="start" x="175.5" y="-35" font-family="Helvetica,sans-Serif" font-size="10.00">+ EndpointSimpleFunc()</text>
<text text-anchor="start" x="175.5" y="-24" font-family="Helvetica,sans-Serif" font-size="10.00">+ ~EndpointSimpleFunc()</text>
<text text-anchor="start" x="175.5" y="-13" font-family="Helvetica,sans-Serif" font-size="10.00">+ execute()</text>
</a>
</g>
</g>
<!-- Node1&#45;&gt;Node3 -->
<g id="edge2" class="edge">
<title>Node1&#45;&gt;Node3</title>
<path fill="none" stroke="#63b8ff" d="M194.75,-129.54C202.93,-118.55 211.78,-106.68 220.02,-95.61"/>
<polygon fill="none" stroke="#63b8ff" points="192.13,-127.21 188.96,-137.32 197.74,-131.39 192.13,-127.21"/>
</g>
</g>
</svg>
