<?xml version="1.0" encoding="UTF-8" standalone="no"?>
<!DOCTYPE svg PUBLIC "-//W3C//DTD SVG 1.1//EN"
 "http://www.w3.org/Graphics/SVG/1.1/DTD/svg11.dtd">
<!-- Generated by graphviz version 12.2.1 (0)
 -->
<!-- Title: anch::sql::Connection Pages: 1 -->
<svg width="260pt" height="1180pt"
 viewBox="0.00 0.00 259.93 1180.00" xmlns="http://www.w3.org/2000/svg" xmlns:xlink="http://www.w3.org/1999/xlink">
<g id="graph0" class="graph" transform="scale(1 1) rotate(0) translate(4 1176)">
<title>anch::sql::Connection</title>
<!-- Node1 -->
<g id="Node000001" class="node">
<title>Node1</title>
<g id="a_Node000001"><a xlink:title="SQL connection virtual class.">
<polygon fill="#999999" stroke="none" points="189.62,-356 72.62,-356 72.62,0 189.62,0 189.62,-356"/>
<text text-anchor="start" x="83.5" y="-342.5" font-family="Helvetica,sans-Serif" font-size="10.00">anch::sql::Connection</text>
<text text-anchor="start" x="77" y="-326.5" font-family="Helvetica,sans-Serif" font-size="10.00">#</text>
<text text-anchor="start" x="86.62" y="-326.5" font-family="Helvetica,sans-Serif" font-size="10.00">_valid</text>
<text text-anchor="start" x="77" y="-310.5" font-family="Helvetica,sans-Serif" font-size="10.00">#</text>
<text text-anchor="start" x="86.62" y="-310.5" font-family="Helvetica,sans-Serif" font-size="10.00">_transaction</text>
<text text-anchor="start" x="77" y="-294.5" font-family="Helvetica,sans-Serif" font-size="10.00">#</text>
<text text-anchor="start" x="86.62" y="-294.5" font-family="Helvetica,sans-Serif" font-size="10.00">_errors</text>
<text text-anchor="start" x="76.62" y="-278.5" font-family="Helvetica,sans-Serif" font-size="10.00">+</text>
<text text-anchor="start" x="86.62" y="-278.5" font-family="Helvetica,sans-Serif" font-size="10.00">Connection()</text>
<text text-anchor="start" x="76.62" y="-262.5" font-family="Helvetica,sans-Serif" font-size="10.00">+</text>
<text text-anchor="start" x="86.62" y="-262.5" font-family="Helvetica,sans-Serif" font-size="10.00">Connection()</text>
<text text-anchor="start" x="76.62" y="-246.5" font-family="Helvetica,sans-Serif" font-size="10.00">+</text>
<text text-anchor="start" x="86.62" y="-246.5" font-family="Helvetica,sans-Serif" font-size="10.00">~Connection()</text>
<text text-anchor="start" x="76.62" y="-230.5" font-family="Helvetica,sans-Serif" font-size="10.00">+</text>
<text text-anchor="start" x="86.62" y="-230.5" font-family="Helvetica,sans-Serif" font-size="10.00">startTransaction()</text>
<text text-anchor="start" x="76.62" y="-214.5" font-family="Helvetica,sans-Serif" font-size="10.00">+</text>
<text text-anchor="start" x="86.62" y="-214.5" font-family="Helvetica,sans-Serif" font-size="10.00">begin()</text>
<text text-anchor="start" x="76.62" y="-198.5" font-family="Helvetica,sans-Serif" font-size="10.00">+</text>
<text text-anchor="start" x="86.62" y="-198.5" font-family="Helvetica,sans-Serif" font-size="10.00">commit()</text>
<text text-anchor="start" x="76.62" y="-182.5" font-family="Helvetica,sans-Serif" font-size="10.00">+</text>
<text text-anchor="start" x="86.62" y="-182.5" font-family="Helvetica,sans-Serif" font-size="10.00">rollback()</text>
<text text-anchor="start" x="76.62" y="-166.5" font-family="Helvetica,sans-Serif" font-size="10.00">+</text>
<text text-anchor="start" x="86.62" y="-166.5" font-family="Helvetica,sans-Serif" font-size="10.00">release()</text>
<text text-anchor="start" x="76.62" y="-150.5" font-family="Helvetica,sans-Serif" font-size="10.00">+</text>
<text text-anchor="start" x="86.62" y="-150.5" font-family="Helvetica,sans-Serif" font-size="10.00">prepareStatement()</text>
<text text-anchor="start" x="76.62" y="-134.5" font-family="Helvetica,sans-Serif" font-size="10.00">+</text>
<text text-anchor="start" x="86.62" y="-134.5" font-family="Helvetica,sans-Serif" font-size="10.00">query()</text>
<text text-anchor="start" x="86.62" y="-118.5" font-family="Helvetica,sans-Serif" font-size="10.00">and 9 more...</text>
<text text-anchor="start" x="77" y="-102.5" font-family="Helvetica,sans-Serif" font-size="10.00">#</text>
<text text-anchor="start" x="86.62" y="-102.5" font-family="Helvetica,sans-Serif" font-size="10.00">executeQuery()</text>
<text text-anchor="start" x="77" y="-86.5" font-family="Helvetica,sans-Serif" font-size="10.00">#</text>
<text text-anchor="start" x="86.62" y="-86.5" font-family="Helvetica,sans-Serif" font-size="10.00">executeUpdate()</text>
<text text-anchor="start" x="77" y="-70.5" font-family="Helvetica,sans-Serif" font-size="10.00">#</text>
<text text-anchor="start" x="86.62" y="-70.5" font-family="Helvetica,sans-Serif" font-size="10.00">sendStartTransaction()</text>
<text text-anchor="start" x="77" y="-54.5" font-family="Helvetica,sans-Serif" font-size="10.00">#</text>
<text text-anchor="start" x="86.62" y="-54.5" font-family="Helvetica,sans-Serif" font-size="10.00">sendCommit()</text>
<text text-anchor="start" x="77" y="-38.5" font-family="Helvetica,sans-Serif" font-size="10.00">#</text>
<text text-anchor="start" x="86.62" y="-38.5" font-family="Helvetica,sans-Serif" font-size="10.00">sendRollback()</text>
<text text-anchor="start" x="77" y="-22.5" font-family="Helvetica,sans-Serif" font-size="10.00">#</text>
<text text-anchor="start" x="86.62" y="-22.5" font-family="Helvetica,sans-Serif" font-size="10.00">makePrepared()</text>
<text text-anchor="start" x="77" y="-6.5" font-family="Helvetica,sans-Serif" font-size="10.00">#</text>
<text text-anchor="start" x="86.62" y="-6.5" font-family="Helvetica,sans-Serif" font-size="10.00">setValid()</text>
<polygon fill="#666666" stroke="#666666" points="72.62,-338 72.62,-338 189.62,-338 189.62,-338 72.62,-338"/>
<polygon fill="#666666" stroke="#666666" points="72.62,-290 72.62,-290 84.62,-290 84.62,-290 72.62,-290"/>
<polygon fill="#666666" stroke="#666666" points="84.62,-290 84.62,-290 189.62,-290 189.62,-290 84.62,-290"/>
<polygon fill="none" stroke="#666666" points="72.62,0 72.62,-356 189.62,-356 189.62,0 72.62,0"/>
</a>
</g>
</g>
<!-- Node2 -->
<g id="Node000002" class="node">
<title>Node2</title>
<g id="a_Node000002"><a xlink:title=" ">
<polygon fill="white" stroke="none" points="209.38,-468 52.88,-468 52.88,-404 209.38,-404 209.38,-468"/>
<text text-anchor="start" x="56.88" y="-454.5" font-family="Helvetica,sans-Serif" font-size="10.00">std::map&lt; std::string,</text>
<text text-anchor="start" x="56.88" y="-442.5" font-family="Helvetica,sans-Serif" font-size="10.00"> anch::sql::PreparedStatement * &gt;</text>
<text text-anchor="start" x="129.62" y="-426.5" font-family="Helvetica,sans-Serif" font-size="10.00"> </text>
<text text-anchor="start" x="129.62" y="-410.5" font-family="Helvetica,sans-Serif" font-size="10.00"> </text>
<polygon fill="#666666" stroke="#666666" points="52.88,-438 52.88,-438 209.38,-438 209.38,-438 52.88,-438"/>
<polygon fill="#666666" stroke="#666666" points="52.88,-422 52.88,-422 209.38,-422 209.38,-422 52.88,-422"/>
<polygon fill="none" stroke="#666666" points="52.88,-404 52.88,-468 209.38,-468 209.38,-404 52.88,-404"/>
</a>
</g>
</g>
<!-- Node2&#45;&gt;Node1 -->
<g id="edge1_Node000001_Node000002" class="edge">
<title>Node2&#45;&gt;Node1</title>
<g id="a_edge1_Node000001_Node000002"><a xlink:title=" ">
<path fill="none" stroke="#63b8ff" d="M131.12,-404.12C131.12,-394.04 131.12,-382.02 131.12,-368.84"/>
<polygon fill="none" stroke="#63b8ff" points="131.13,-368.78 127.13,-362.78 131.13,-356.78 135.13,-362.78 131.13,-368.78"/>
</a>
</g>
<text text-anchor="middle" x="150.25" y="-376.5" font-family="Helvetica,sans-Serif" font-size="10.00" fill="grey"> #_stmts</text>
</g>
<!-- Node3 -->
<g id="Node000003" class="node">
<title>Node3</title>
<g id="a_Node000003"><a xlink:title=" ">
<polygon fill="white" stroke="none" points="196.88,-1060 145.38,-1060 145.38,-1008 196.88,-1008 196.88,-1060"/>
<text text-anchor="start" x="149.38" y="-1046.5" font-family="Helvetica,sans-Serif" font-size="10.00">std::string</text>
<text text-anchor="start" x="169.62" y="-1030.5" font-family="Helvetica,sans-Serif" font-size="10.00"> </text>
<text text-anchor="start" x="169.62" y="-1014.5" font-family="Helvetica,sans-Serif" font-size="10.00"> </text>
<polygon fill="#666666" stroke="#666666" points="145.38,-1042 145.38,-1042 196.88,-1042 196.88,-1042 145.38,-1042"/>
<polygon fill="#666666" stroke="#666666" points="145.38,-1026 145.38,-1026 196.88,-1026 196.88,-1026 145.38,-1026"/>
<polygon fill="none" stroke="#666666" points="145.38,-1008 145.38,-1060 196.88,-1060 196.88,-1008 145.38,-1008"/>
</a>
</g>
</g>
<!-- Node3&#45;&gt;Node2 -->
<g id="edge2_Node000002_Node000003" class="edge">
<title>Node3&#45;&gt;Node2</title>
<g id="a_edge2_Node000002_Node000003"><a xlink:title=" ">
<path fill="none" stroke="#63b8ff" d="M196.43,-1014.15C203.52,-1007.4 210.33,-999.17 214.12,-990 218.21,-980.15 214.18,-976.67 214.12,-966 213.01,-765.99 278.26,-703.68 209.12,-516 203.76,-501.45 194.07,-488.24 183.29,-476.96"/>
<polygon fill="none" stroke="#63b8ff" points="183.29,-476.97 176.2,-475.64 174.7,-468.59 181.79,-469.91 183.29,-476.97"/>
</a>
</g>
<text text-anchor="middle" x="236.93" y="-850.5" font-family="Helvetica,sans-Serif" font-size="10.00" fill="grey"> +keys</text>
</g>
<!-- Node6 -->
<g id="Node000006" class="node">
<title>Node6</title>
<g id="a_Node000006"><a xlink:title=" ">
<polygon fill="white" stroke="none" points="200.5,-948 107.75,-948 107.75,-884 200.5,-884 200.5,-948"/>
<text text-anchor="start" x="111.75" y="-934.5" font-family="Helvetica,sans-Serif" font-size="10.00">std::map&lt; std::size</text>
<text text-anchor="start" x="120.75" y="-922.5" font-family="Helvetica,sans-Serif" font-size="10.00">_t, std::string &gt;</text>
<text text-anchor="start" x="125.19" y="-906.5" font-family="Helvetica,sans-Serif" font-size="10.00">+</text>
<text text-anchor="start" x="148.62" y="-906.5" font-family="Helvetica,sans-Serif" font-size="10.00">keys</text>
<text text-anchor="start" x="152.62" y="-890.5" font-family="Helvetica,sans-Serif" font-size="10.00"> </text>
<polygon fill="#666666" stroke="#666666" points="107.75,-918 107.75,-918 200.5,-918 200.5,-918 107.75,-918"/>
<polygon fill="#666666" stroke="#666666" points="107.75,-902 107.75,-902 146.62,-902 146.62,-902 107.75,-902"/>
<polygon fill="#666666" stroke="#666666" points="146.62,-902 146.62,-902 200.5,-902 200.5,-902 146.62,-902"/>
<polygon fill="none" stroke="#666666" points="107.75,-884 107.75,-948 200.5,-948 200.5,-884 107.75,-884"/>
</a>
</g>
</g>
<!-- Node3&#45;&gt;Node6 -->
<g id="edge6_Node000006_Node000003" class="edge">
<title>Node3&#45;&gt;Node6</title>
<g id="a_edge6_Node000006_Node000003"><a xlink:title=" ">
<path fill="none" stroke="#63b8ff" d="M167.48,-1008.12C165.43,-994.14 162.82,-976.31 160.45,-960.14"/>
<polygon fill="none" stroke="#63b8ff" points="160.48,-960.39 155.66,-955.03 158.74,-948.52 163.57,-953.87 160.48,-960.39"/>
</a>
</g>
<text text-anchor="middle" x="189.02" y="-974.5" font-family="Helvetica,sans-Serif" font-size="10.00" fill="grey"> +elements</text>
</g>
<!-- Node4 -->
<g id="Node000004" class="node">
<title>Node4</title>
<g id="a_Node000004"><a xlink:title=" ">
<polygon fill="white" stroke="none" points="214.12,-1172 128.12,-1172 128.12,-1108 214.12,-1108 214.12,-1172"/>
<text text-anchor="start" x="132.12" y="-1158.5" font-family="Helvetica,sans-Serif" font-size="10.00">std::basic_string&lt;</text>
<text text-anchor="start" x="154.62" y="-1146.5" font-family="Helvetica,sans-Serif" font-size="10.00"> Char &gt;</text>
<text text-anchor="start" x="169.62" y="-1130.5" font-family="Helvetica,sans-Serif" font-size="10.00"> </text>
<text text-anchor="start" x="169.62" y="-1114.5" font-family="Helvetica,sans-Serif" font-size="10.00"> </text>
<polygon fill="#666666" stroke="#666666" points="128.12,-1142 128.12,-1142 214.12,-1142 214.12,-1142 128.12,-1142"/>
<polygon fill="#666666" stroke="#666666" points="128.12,-1126 128.12,-1126 214.12,-1126 214.12,-1126 128.12,-1126"/>
<polygon fill="none" stroke="#666666" points="128.12,-1108 128.12,-1172 214.12,-1172 214.12,-1108 128.12,-1108"/>
</a>
</g>
</g>
<!-- Node4&#45;&gt;Node3 -->
<g id="edge3_Node000003_Node000004" class="edge">
<title>Node4&#45;&gt;Node3</title>
<g id="a_edge3_Node000003_Node000004"><a xlink:title=" ">
<path fill="none" stroke="#63b8ff" d="M171.12,-1096.81C171.12,-1084.21 171.12,-1070.8 171.12,-1059.71"/>
<polygon fill="none" stroke="#63b8ff" points="167.63,-1096.56 171.13,-1106.56 174.63,-1096.56 167.63,-1096.56"/>
</a>
</g>
</g>
<!-- Node5 -->
<g id="Node000005" class="node">
<title>Node5</title>
<g id="a_Node000005"><a xlink:href="classanch_1_1sql_1_1_prepared_statement.html" target="_top" xlink:title="SQL prepared statement.">
<polygon fill="white" stroke="none" points="200,-824 62.25,-824 62.25,-516 200,-516 200,-824"/>
<text text-anchor="start" x="66.25" y="-810.5" font-family="Helvetica,sans-Serif" font-size="10.00">anch::sql::PreparedStatement</text>
<text text-anchor="start" x="72.56" y="-794.5" font-family="Helvetica,sans-Serif" font-size="10.00">#</text>
<text text-anchor="start" x="88.12" y="-794.5" font-family="Helvetica,sans-Serif" font-size="10.00">_nbPlaceholders</text>
<text text-anchor="start" x="72.19" y="-778.5" font-family="Helvetica,sans-Serif" font-size="10.00">+</text>
<text text-anchor="start" x="88.12" y="-778.5" font-family="Helvetica,sans-Serif" font-size="10.00">PreparedStatement()</text>
<text text-anchor="start" x="72.19" y="-762.5" font-family="Helvetica,sans-Serif" font-size="10.00">+</text>
<text text-anchor="start" x="88.12" y="-762.5" font-family="Helvetica,sans-Serif" font-size="10.00">~PreparedStatement()</text>
<text text-anchor="start" x="72.19" y="-746.5" font-family="Helvetica,sans-Serif" font-size="10.00">+</text>
<text text-anchor="start" x="88.12" y="-746.5" font-family="Helvetica,sans-Serif" font-size="10.00">executeQuery()</text>
<text text-anchor="start" x="72.19" y="-730.5" font-family="Helvetica,sans-Serif" font-size="10.00">+</text>
<text text-anchor="start" x="88.12" y="-730.5" font-family="Helvetica,sans-Serif" font-size="10.00">executeUpdate()</text>
<text text-anchor="start" x="72.19" y="-714.5" font-family="Helvetica,sans-Serif" font-size="10.00">+</text>
<text text-anchor="start" x="88.12" y="-714.5" font-family="Helvetica,sans-Serif" font-size="10.00">set()</text>
<text text-anchor="start" x="72.19" y="-698.5" font-family="Helvetica,sans-Serif" font-size="10.00">+</text>
<text text-anchor="start" x="88.12" y="-698.5" font-family="Helvetica,sans-Serif" font-size="10.00">set()</text>
<text text-anchor="start" x="72.19" y="-682.5" font-family="Helvetica,sans-Serif" font-size="10.00">+</text>
<text text-anchor="start" x="88.12" y="-682.5" font-family="Helvetica,sans-Serif" font-size="10.00">set()</text>
<text text-anchor="start" x="72.19" y="-666.5" font-family="Helvetica,sans-Serif" font-size="10.00">+</text>
<text text-anchor="start" x="88.12" y="-666.5" font-family="Helvetica,sans-Serif" font-size="10.00">set()</text>
<text text-anchor="start" x="72.19" y="-650.5" font-family="Helvetica,sans-Serif" font-size="10.00">+</text>
<text text-anchor="start" x="88.12" y="-650.5" font-family="Helvetica,sans-Serif" font-size="10.00">set()</text>
<text text-anchor="start" x="72.19" y="-634.5" font-family="Helvetica,sans-Serif" font-size="10.00">+</text>
<text text-anchor="start" x="88.12" y="-634.5" font-family="Helvetica,sans-Serif" font-size="10.00">set()</text>
<text text-anchor="start" x="72.19" y="-618.5" font-family="Helvetica,sans-Serif" font-size="10.00">+</text>
<text text-anchor="start" x="88.12" y="-618.5" font-family="Helvetica,sans-Serif" font-size="10.00">set()</text>
<text text-anchor="start" x="72.19" y="-602.5" font-family="Helvetica,sans-Serif" font-size="10.00">+</text>
<text text-anchor="start" x="88.12" y="-602.5" font-family="Helvetica,sans-Serif" font-size="10.00">set()</text>
<text text-anchor="start" x="72.19" y="-586.5" font-family="Helvetica,sans-Serif" font-size="10.00">+</text>
<text text-anchor="start" x="88.12" y="-586.5" font-family="Helvetica,sans-Serif" font-size="10.00">set()</text>
<text text-anchor="start" x="72.19" y="-570.5" font-family="Helvetica,sans-Serif" font-size="10.00">+</text>
<text text-anchor="start" x="88.12" y="-570.5" font-family="Helvetica,sans-Serif" font-size="10.00">set()</text>
<text text-anchor="start" x="72.19" y="-554.5" font-family="Helvetica,sans-Serif" font-size="10.00">+</text>
<text text-anchor="start" x="88.12" y="-554.5" font-family="Helvetica,sans-Serif" font-size="10.00">set()</text>
<text text-anchor="start" x="72.56" y="-538.5" font-family="Helvetica,sans-Serif" font-size="10.00">#</text>
<text text-anchor="start" x="88.12" y="-538.5" font-family="Helvetica,sans-Serif" font-size="10.00">getPlaceholders()</text>
<text text-anchor="start" x="72.56" y="-522.5" font-family="Helvetica,sans-Serif" font-size="10.00">#</text>
<text text-anchor="start" x="88.12" y="-522.5" font-family="Helvetica,sans-Serif" font-size="10.00">checkIndex()</text>
<polygon fill="#666666" stroke="#666666" points="62.25,-806 62.25,-806 200,-806 200,-806 62.25,-806"/>
<polygon fill="#666666" stroke="#666666" points="62.25,-790 62.25,-790 86.12,-790 86.12,-790 62.25,-790"/>
<polygon fill="#666666" stroke="#666666" points="86.12,-790 86.12,-790 200,-790 200,-790 86.12,-790"/>
<polygon fill="none" stroke="#666666" points="62.25,-516 62.25,-824 200,-824 200,-516 62.25,-516"/>
</a>
</g>
</g>
<!-- Node5&#45;&gt;Node2 -->
<g id="edge4_Node000002_Node000005" class="edge">
<title>Node5&#45;&gt;Node2</title>
<g id="a_edge4_Node000002_Node000005"><a xlink:title=" ">
<path fill="none" stroke="#63b8ff" d="M131.12,-516.19C131.12,-503.43 131.12,-491.32 131.12,-480.6"/>
<polygon fill="none" stroke="#63b8ff" points="131.13,-480.7 127.13,-474.7 131.13,-468.7 135.13,-474.7 131.13,-480.7"/>
</a>
</g>
<text text-anchor="middle" x="155.5" y="-488.5" font-family="Helvetica,sans-Serif" font-size="10.00" fill="grey"> +elements</text>
</g>
<!-- Node6&#45;&gt;Node5 -->
<g id="edge5_Node000005_Node000006" class="edge">
<title>Node6&#45;&gt;Node5</title>
<g id="a_edge5_Node000005_Node000006"><a xlink:title=" ">
<path fill="none" stroke="#63b8ff" d="M151.21,-884.1C149.98,-870.98 148.43,-854.6 146.75,-836.78"/>
<polygon fill="none" stroke="#63b8ff" points="146.75,-836.76 142.2,-831.16 145.62,-824.81 150.17,-830.41 146.75,-836.76"/>
</a>
</g>
<text text-anchor="middle" x="170.16" y="-850.5" font-family="Helvetica,sans-Serif" font-size="10.00" fill="grey"> #_values</text>
</g>
<!-- Node7 -->
<g id="Node000007" class="node">
<title>Node7</title>
<g id="a_Node000007"><a xlink:title=" ">
<polygon fill="white" stroke="none" points="82.25,-1060 0,-1060 0,-1008 82.25,-1008 82.25,-1060"/>
<text text-anchor="start" x="4" y="-1046.5" font-family="Helvetica,sans-Serif" font-size="10.00">std::map&lt; K, T &gt;</text>
<text text-anchor="start" x="39.62" y="-1030.5" font-family="Helvetica,sans-Serif" font-size="10.00"> </text>
<text text-anchor="start" x="39.62" y="-1014.5" font-family="Helvetica,sans-Serif" font-size="10.00"> </text>
<polygon fill="#666666" stroke="#666666" points="0,-1042 0,-1042 82.25,-1042 82.25,-1042 0,-1042"/>
<polygon fill="#666666" stroke="#666666" points="0,-1026 0,-1026 82.25,-1026 82.25,-1026 0,-1026"/>
<polygon fill="none" stroke="#666666" points="0,-1008 0,-1060 82.25,-1060 82.25,-1008 0,-1008"/>
</a>
</g>
</g>
<!-- Node7&#45;&gt;Node2 -->
<g id="edge10_Node000002_Node000007" class="edge">
<title>Node7&#45;&gt;Node2</title>
<g id="a_edge10_Node000002_Node000007"><a xlink:title=" ">
<path fill="none" stroke="orange" d="M32.47,-997.09C13.34,-909.66 -24.93,-680.85 53.12,-516 61.79,-497.71 76.46,-481.13 90.77,-467.94"/>
<polygon fill="orange" stroke="orange" points="29.04,-997.76 34.64,-1006.75 35.87,-996.23 29.04,-997.76"/>
</a>
</g>
<text text-anchor="start" x="11.13" y="-856.5" font-family="Helvetica,sans-Serif" font-size="10.00" fill="grey"> &lt; std::string, anch</text>
<text text-anchor="middle" x="73.38" y="-844.5" font-family="Helvetica,sans-Serif" font-size="10.00" fill="grey">::sql::PreparedStatement * &gt;</text>
</g>
<!-- Node7&#45;&gt;Node6 -->
<g id="edge7_Node000006_Node000007" class="edge">
<title>Node7&#45;&gt;Node6</title>
<g id="a_edge7_Node000006_Node000007"><a xlink:title=" ">
<path fill="none" stroke="orange" d="M57.16,-998.36C63.29,-987.27 70.98,-975.43 79.88,-966 88.03,-957.35 98,-949.47 107.95,-942.68"/>
<polygon fill="orange" stroke="orange" points="54.22,-996.42 52.67,-1006.91 60.42,-999.68 54.22,-996.42"/>
</a>
</g>
<text text-anchor="start" x="79.88" y="-980.5" font-family="Helvetica,sans-Serif" font-size="10.00" fill="grey"> &lt; std::size_t, std</text>
<text text-anchor="middle" x="118.5" y="-968.5" font-family="Helvetica,sans-Serif" font-size="10.00" fill="grey">::string &gt;</text>
</g>
<!-- Node8 -->
<g id="Node000008" class="node">
<title>Node8</title>
<g id="a_Node000008"><a xlink:title=" ">
<polygon fill="white" stroke="none" points="40.5,-1166 25.75,-1166 25.75,-1114 40.5,-1114 40.5,-1166"/>
<text text-anchor="start" x="29.75" y="-1152.5" font-family="Helvetica,sans-Serif" font-size="10.00">K</text>
<text text-anchor="start" x="31.62" y="-1136.5" font-family="Helvetica,sans-Serif" font-size="10.00"> </text>
<text text-anchor="start" x="31.62" y="-1120.5" font-family="Helvetica,sans-Serif" font-size="10.00"> </text>
<polygon fill="#bfbfbf" stroke="#bfbfbf" points="25.75,-1148 25.75,-1148 40.5,-1148 40.5,-1148 25.75,-1148"/>
<polygon fill="#bfbfbf" stroke="#bfbfbf" points="25.75,-1132 25.75,-1132 40.5,-1132 40.5,-1132 25.75,-1132"/>
<polygon fill="none" stroke="#bfbfbf" points="25.75,-1114 25.75,-1166 40.5,-1166 40.5,-1114 25.75,-1114"/>
</a>
</g>
</g>
<!-- Node8&#45;&gt;Node7 -->
<g id="edge8_Node000007_Node000008" class="edge">
<title>Node8&#45;&gt;Node7</title>
<g id="a_edge8_Node000007_Node000008"><a xlink:title=" ">
<path fill="none" stroke="#63b8ff" d="M32.72,-1114.03C32.75,-1102.97 33.07,-1089.82 34.12,-1078 34.28,-1076.26 34.47,-1074.47 34.67,-1072.68"/>
<polygon fill="none" stroke="#63b8ff" points="34.67,-1072.71 31.53,-1066.22 36.31,-1060.83 39.45,-1067.32 34.67,-1072.71"/>
</a>
</g>
<text text-anchor="middle" x="49.12" y="-1080.5" font-family="Helvetica,sans-Serif" font-size="10.00" fill="grey"> +keys</text>
</g>
<!-- Node9 -->
<g id="Node000009" class="node">
<title>Node9</title>
<g id="a_Node000009"><a xlink:title=" ">
<polygon fill="white" stroke="none" points="93.12,-1166 79.12,-1166 79.12,-1114 93.12,-1114 93.12,-1166"/>
<text text-anchor="start" x="83.12" y="-1152.5" font-family="Helvetica,sans-Serif" font-size="10.00">T</text>
<text text-anchor="start" x="84.62" y="-1136.5" font-family="Helvetica,sans-Serif" font-size="10.00"> </text>
<text text-anchor="start" x="84.62" y="-1120.5" font-family="Helvetica,sans-Serif" font-size="10.00"> </text>
<polygon fill="#bfbfbf" stroke="#bfbfbf" points="79.12,-1148 79.12,-1148 93.12,-1148 93.12,-1148 79.12,-1148"/>
<polygon fill="#bfbfbf" stroke="#bfbfbf" points="79.12,-1132 79.12,-1132 93.12,-1132 93.12,-1132 79.12,-1132"/>
<polygon fill="none" stroke="#bfbfbf" points="79.12,-1114 79.12,-1166 93.12,-1166 93.12,-1114 79.12,-1114"/>
</a>
</g>
</g>
<!-- Node9&#45;&gt;Node7 -->
<g id="edge9_Node000007_Node000009" class="edge">
<title>Node9&#45;&gt;Node7</title>
<g id="a_edge9_Node000007_Node000009"><a xlink:title=" ">
<path fill="none" stroke="#63b8ff" d="M79.14,-1117.24C75.14,-1105.46 69.8,-1090.75 64.12,-1078 63.12,-1075.74 62.04,-1073.43 60.92,-1071.12"/>
<polygon fill="none" stroke="#63b8ff" points="60.97,-1071.21 54.69,-1067.67 55.54,-1060.51 61.82,-1064.05 60.97,-1071.21"/>
</a>
</g>
<text text-anchor="middle" x="93.31" y="-1080.5" font-family="Helvetica,sans-Serif" font-size="10.00" fill="grey"> +elements</text>
</g>
</g>
</svg>
