<?xml version="1.0" encoding="UTF-8" standalone="no"?>
<!DOCTYPE svg PUBLIC "-//W3C//DTD SVG 1.1//EN"
 "http://www.w3.org/Graphics/SVG/1.1/DTD/svg11.dtd">
<!-- Generated by graphviz version 2.49.3 (0)
 -->
<!-- Title: anch::logger::Writer Pages: 1 -->
<svg width="265pt" height="555pt"
 viewBox="0.00 0.00 264.50 555.00" xmlns="http://www.w3.org/2000/svg" xmlns:xlink="http://www.w3.org/1999/xlink">
<g id="graph0" class="graph" transform="scale(1 1) rotate(0) translate(4 551)">
<title>anch::logger::Writer</title>
<!-- Node1 -->
<g id="node1" class="node">
<title>Node1</title>
<g id="a_node1"><a xlink:title=" ">
<polygon fill="#bfbfbf" stroke="black" points="70.5,-0.5 70.5,-112.5 183.5,-112.5 183.5,-0.5 70.5,-0.5"/>
<text text-anchor="middle" x="127" y="-100.5" font-family="Helvetica,sans-Serif" font-size="10.00">anch::logger::Writer</text>
<polyline fill="none" stroke="black" points="70.5,-93.5 183.5,-93.5 "/>
<text text-anchor="middle" x="127" y="-81.5" font-family="Helvetica,sans-Serif" font-size="10.00"> </text>
<polyline fill="none" stroke="black" points="70.5,-74.5 183.5,-74.5 "/>
<text text-anchor="start" x="78.5" y="-62.5" font-family="Helvetica,sans-Serif" font-size="10.00">+ Writer()</text>
<text text-anchor="start" x="78.5" y="-51.5" font-family="Helvetica,sans-Serif" font-size="10.00">+ Writer()</text>
<text text-anchor="start" x="78.5" y="-40.5" font-family="Helvetica,sans-Serif" font-size="10.00">+ ~Writer()</text>
<text text-anchor="start" x="78.5" y="-29.5" font-family="Helvetica,sans-Serif" font-size="10.00">+ write()</text>
<text text-anchor="start" x="78.5" y="-18.5" font-family="Helvetica,sans-Serif" font-size="10.00"># rotate()</text>
<text text-anchor="start" x="78.5" y="-7.5" font-family="Helvetica,sans-Serif" font-size="10.00"># rotateFiles()</text>
</a>
</g>
</g>
<!-- Node2 -->
<g id="node2" class="node">
<title>Node2</title>
<g id="a_node2"><a xlink:title=" ">
<polygon fill="none" stroke="#bfbfbf" points="25,-177 25,-234 103,-234 103,-177 25,-177"/>
<text text-anchor="middle" x="64" y="-222" font-family="Helvetica,sans-Serif" font-size="10.00">std::ostream</text>
<polyline fill="none" stroke="#bfbfbf" points="25,-215 103,-215 "/>
<text text-anchor="middle" x="64" y="-203" font-family="Helvetica,sans-Serif" font-size="10.00"> </text>
<polyline fill="none" stroke="#bfbfbf" points="25,-196 103,-196 "/>
<text text-anchor="middle" x="64" y="-184" font-family="Helvetica,sans-Serif" font-size="10.00"> </text>
</a>
</g>
</g>
<!-- Node2&#45;&gt;Node1 -->
<g id="edge1" class="edge">
<title>Node2&#45;&gt;Node1</title>
<path fill="none" stroke="#404040" d="M75.85,-176.85C82.29,-161.83 90.54,-142.57 98.54,-123.91"/>
<polygon fill="none" stroke="#404040" points="98.6,-123.76 97.29,-116.67 103.33,-112.73 104.64,-119.82 98.6,-123.76"/>
<text text-anchor="middle" x="120.5" y="-134" font-family="Helvetica,sans-Serif" font-size="10.00"> #_output</text>
</g>
<!-- Node3 -->
<g id="node3" class="node">
<title>Node3</title>
<g id="a_node3"><a xlink:title=" ">
<polygon fill="none" stroke="#bfbfbf" points="9.5,-288.5 9.5,-356.5 118.5,-356.5 118.5,-288.5 9.5,-288.5"/>
<text text-anchor="start" x="17.5" y="-344.5" font-family="Helvetica,sans-Serif" font-size="10.00">std::basic_ostream</text>
<text text-anchor="middle" x="64" y="-333.5" font-family="Helvetica,sans-Serif" font-size="10.00">&lt; Char &gt;</text>
<polyline fill="none" stroke="#bfbfbf" points="9.5,-326.5 118.5,-326.5 "/>
<text text-anchor="middle" x="64" y="-314.5" font-family="Helvetica,sans-Serif" font-size="10.00"> </text>
<polyline fill="none" stroke="#bfbfbf" points="9.5,-307.5 118.5,-307.5 "/>
<text text-anchor="middle" x="64" y="-295.5" font-family="Helvetica,sans-Serif" font-size="10.00"> </text>
</a>
</g>
</g>
<!-- Node3&#45;&gt;Node2 -->
<g id="edge2" class="edge">
<title>Node3&#45;&gt;Node2</title>
<path fill="none" stroke="midnightblue" d="M64,-277.87C64,-263.23 64,-247.33 64,-234.25"/>
<polygon fill="none" stroke="midnightblue" points="60.5,-278.24 64,-288.24 67.5,-278.24 60.5,-278.24"/>
</g>
<!-- Node4 -->
<g id="node4" class="node">
<title>Node4</title>
<g id="a_node4"><a xlink:title=" ">
<polygon fill="none" stroke="#bfbfbf" points="0,-394.5 0,-451.5 128,-451.5 128,-394.5 0,-394.5"/>
<text text-anchor="middle" x="64" y="-439.5" font-family="Helvetica,sans-Serif" font-size="10.00">std::basic_ios&lt; Char &gt;</text>
<polyline fill="none" stroke="#bfbfbf" points="0,-432.5 128,-432.5 "/>
<text text-anchor="middle" x="64" y="-420.5" font-family="Helvetica,sans-Serif" font-size="10.00"> </text>
<polyline fill="none" stroke="#bfbfbf" points="0,-413.5 128,-413.5 "/>
<text text-anchor="middle" x="64" y="-401.5" font-family="Helvetica,sans-Serif" font-size="10.00"> </text>
</a>
</g>
</g>
<!-- Node4&#45;&gt;Node3 -->
<g id="edge3" class="edge">
<title>Node4&#45;&gt;Node3</title>
<path fill="none" stroke="midnightblue" d="M64,-384.01C64,-374.96 64,-365.38 64,-356.58"/>
<polygon fill="none" stroke="midnightblue" points="60.5,-384.3 64,-394.3 67.5,-384.3 60.5,-384.3"/>
</g>
<!-- Node5 -->
<g id="node5" class="node">
<title>Node5</title>
<g id="a_node5"><a xlink:title=" ">
<polygon fill="none" stroke="#bfbfbf" points="24,-489.5 24,-546.5 104,-546.5 104,-489.5 24,-489.5"/>
<text text-anchor="middle" x="64" y="-534.5" font-family="Helvetica,sans-Serif" font-size="10.00">std::ios_base</text>
<polyline fill="none" stroke="#bfbfbf" points="24,-527.5 104,-527.5 "/>
<text text-anchor="middle" x="64" y="-515.5" font-family="Helvetica,sans-Serif" font-size="10.00"> </text>
<polyline fill="none" stroke="#bfbfbf" points="24,-508.5 104,-508.5 "/>
<text text-anchor="middle" x="64" y="-496.5" font-family="Helvetica,sans-Serif" font-size="10.00"> </text>
</a>
</g>
</g>
<!-- Node5&#45;&gt;Node4 -->
<g id="edge4" class="edge">
<title>Node5&#45;&gt;Node4</title>
<path fill="none" stroke="midnightblue" d="M64,-479.24C64,-470.03 64,-460.35 64,-451.71"/>
<polygon fill="none" stroke="midnightblue" points="60.5,-479.35 64,-489.35 67.5,-479.35 60.5,-479.35"/>
</g>
<!-- Node6 -->
<g id="node6" class="node">
<title>Node6</title>
<g id="a_node6"><a xlink:href="classanch_1_1logger_1_1formatter_1_1_message_formatter.html" target="_top" xlink:title=" ">
<polygon fill="none" stroke="black" points="121.5,-160.5 121.5,-250.5 256.5,-250.5 256.5,-160.5 121.5,-160.5"/>
<text text-anchor="start" x="129.5" y="-238.5" font-family="Helvetica,sans-Serif" font-size="10.00">anch::logger::formatter</text>
<text text-anchor="middle" x="189" y="-227.5" font-family="Helvetica,sans-Serif" font-size="10.00">::MessageFormatter</text>
<polyline fill="none" stroke="black" points="121.5,-220.5 256.5,-220.5 "/>
<text text-anchor="middle" x="189" y="-208.5" font-family="Helvetica,sans-Serif" font-size="10.00"> </text>
<polyline fill="none" stroke="black" points="121.5,-201.5 256.5,-201.5 "/>
<text text-anchor="start" x="129.5" y="-189.5" font-family="Helvetica,sans-Serif" font-size="10.00">+ MessageFormatter()</text>
<text text-anchor="start" x="129.5" y="-178.5" font-family="Helvetica,sans-Serif" font-size="10.00">+ ~MessageFormatter()</text>
<text text-anchor="start" x="129.5" y="-167.5" font-family="Helvetica,sans-Serif" font-size="10.00">+ formatMessage()</text>
</a>
</g>
</g>
<!-- Node6&#45;&gt;Node1 -->
<g id="edge5" class="edge">
<title>Node6&#45;&gt;Node1</title>
<path fill="none" stroke="#404040" d="M170.4,-160.4C165.54,-148.87 160.19,-136.19 154.96,-123.79"/>
<polygon fill="none" stroke="#404040" points="154.87,-123.57 148.85,-119.6 150.2,-112.52 156.22,-116.49 154.87,-123.57"/>
<text text-anchor="middle" x="193" y="-134" font-family="Helvetica,sans-Serif" font-size="10.00"> #_formatter</text>
</g>
</g>
</svg>
