<?xml version="1.0" encoding="UTF-8" standalone="no"?>
<!DOCTYPE svg PUBLIC "-//W3C//DTD SVG 1.1//EN"
 "http://www.w3.org/Graphics/SVG/1.1/DTD/svg11.dtd">
<!-- Generated by graphviz version 14.0.0 (0)
 -->
<!-- Title: anch::logger::formatter::MDCFormatter Pages: 1 -->
<svg width="114pt" height="252pt"
 viewBox="0.00 0.00 114.00 252.00" xmlns="http://www.w3.org/2000/svg" xmlns:xlink="http://www.w3.org/1999/xlink">

<svg id="main" version="1.1" xmlns="http://www.w3.org/2000/svg" xmlns:xlink="http://www.w3.org/1999/xlink" xml:space="preserve">

<style type="text/css"><![CDATA[
.node, .edge {opacity: 0.7;}
.node.selected, .edge.selected {opacity: 1;}
.edge:hover path { stroke: red; }
.edge:hover polygon { stroke: red; fill: red; }
]]></style>
<script type="application/ecmascript" xlink:href="svg.min.js"/>
<svg id="graph" class="graph">
<g id="graph0" class="graph" transform="scale(1 1) rotate(0) translate(4 248)">
<title>anch::logger::formatter::MDCFormatter</title>
<!-- Node1 -->
<g id="Node000001" class="node">
<title>Node1</title>
<g id="a_Node000001"><a xlink:title=" ">
<polygon fill="#999999" stroke="none" points="106.25,-112 0,-112 0,0 106.25,0 106.25,-112"/>
<text xml:space="preserve" text-anchor="start" x="4" y="-98.5" font-family="Helvetica,sans-Serif" font-size="10.00">anch::logger::formatter</text>
<text xml:space="preserve" text-anchor="start" x="17.5" y="-86.5" font-family="Helvetica,sans-Serif" font-size="10.00">::MDCFormatter</text>
<text xml:space="preserve" text-anchor="start" x="51.62" y="-70.5" font-family="Helvetica,sans-Serif" font-size="10.00"> </text>
<text xml:space="preserve" text-anchor="start" x="6.75" y="-54.5" font-family="Helvetica,sans-Serif" font-size="10.00">+</text>
<text xml:space="preserve" text-anchor="start" x="19.5" y="-54.5" font-family="Helvetica,sans-Serif" font-size="10.00">MDCFormatter()</text>
<text xml:space="preserve" text-anchor="start" x="6.75" y="-38.5" font-family="Helvetica,sans-Serif" font-size="10.00">+</text>
<text xml:space="preserve" text-anchor="start" x="19.5" y="-38.5" font-family="Helvetica,sans-Serif" font-size="10.00">~MDCFormatter()</text>
<text xml:space="preserve" text-anchor="start" x="6.75" y="-22.5" font-family="Helvetica,sans-Serif" font-size="10.00">+</text>
<text xml:space="preserve" text-anchor="start" x="19.5" y="-22.5" font-family="Helvetica,sans-Serif" font-size="10.00">formatValue()</text>
<text xml:space="preserve" text-anchor="start" x="6.75" y="-6.5" font-family="Helvetica,sans-Serif" font-size="10.00">+</text>
<text xml:space="preserve" text-anchor="start" x="19.5" y="-6.5" font-family="Helvetica,sans-Serif" font-size="10.00">getType()</text>
<polygon fill="#666666" stroke="#666666" points="0,-82 0,-82 106.25,-82 106.25,-82 0,-82"/>
<polygon fill="#666666" stroke="#666666" points="0,-66 0,-66 106.25,-66 106.25,-66 0,-66"/>
<polygon fill="none" stroke="#666666" points="0,0 0,-112 106.25,-112 106.25,0 0,0"/>
</a>
</g>
</g>
<!-- Node2 -->
<g id="Node000002" class="node">
<title>Node2</title>
<g id="a_Node000002"><a xlink:href="classanch_1_1logger_1_1formatter_1_1_i_formatter.html" target="_top" xlink:title=" ">
<polygon fill="white" stroke="none" points="106.25,-244 0,-244 0,-148 106.25,-148 106.25,-244"/>
<text xml:space="preserve" text-anchor="start" x="4" y="-230.5" font-family="Helvetica,sans-Serif" font-size="10.00">anch::logger::formatter</text>
<text xml:space="preserve" text-anchor="start" x="27.62" y="-218.5" font-family="Helvetica,sans-Serif" font-size="10.00">::IFormatter</text>
<text xml:space="preserve" text-anchor="start" x="51.62" y="-202.5" font-family="Helvetica,sans-Serif" font-size="10.00"> </text>
<text xml:space="preserve" text-anchor="start" x="11.62" y="-186.5" font-family="Helvetica,sans-Serif" font-size="10.00">+</text>
<text xml:space="preserve" text-anchor="start" x="29.25" y="-186.5" font-family="Helvetica,sans-Serif" font-size="10.00">~IFormatter()</text>
<text xml:space="preserve" text-anchor="start" x="11.62" y="-170.5" font-family="Helvetica,sans-Serif" font-size="10.00">+</text>
<text xml:space="preserve" text-anchor="start" x="29.25" y="-170.5" font-family="Helvetica,sans-Serif" font-size="10.00">getType()</text>
<text xml:space="preserve" text-anchor="start" x="11.62" y="-154.5" font-family="Helvetica,sans-Serif" font-size="10.00">+</text>
<text xml:space="preserve" text-anchor="start" x="29.25" y="-154.5" font-family="Helvetica,sans-Serif" font-size="10.00">formatValue()</text>
<polygon fill="#666666" stroke="#666666" points="0,-214 0,-214 106.25,-214 106.25,-214 0,-214"/>
<polygon fill="#666666" stroke="#666666" points="0,-198 0,-198 106.25,-198 106.25,-198 0,-198"/>
<polygon fill="none" stroke="#666666" points="0,-148 0,-244 106.25,-244 106.25,-148 0,-148"/>
</a>
</g>
</g>
<!-- Node2&#45;&gt;Node1 -->
<g id="edge1_Node000001_Node000002" class="edge">
<title>Node2&#45;&gt;Node1</title>
<g id="a_edge1_Node000001_Node000002"><a xlink:title=" ">
<path fill="none" stroke="#63b8ff" d="M53.12,-137.05C53.12,-128.68 53.12,-120.08 53.12,-111.78"/>
<polygon fill="none" stroke="#63b8ff" points="49.63,-136.77 53.13,-146.77 56.63,-136.77 49.63,-136.77"/>
</a>
</g>
</g>
</g>
</svg>
</svg>

<style type='text/css'>
<![CDATA[
[data-mouse-over-selected='false'] { opacity: 0.7; }
[data-mouse-over-selected='true']  { opacity: 1.0; }
]]>
</style>
<script type="application/ecmascript"><![CDATA[
document.addEventListener('DOMContentLoaded', (event) => {
  highlightEdges();
  highlightAdjacentNodes();
});
]]></script>
</svg>
