<?xml version="1.0" encoding="UTF-8" standalone="no"?>
<!DOCTYPE svg PUBLIC "-//W3C//DTD SVG 1.1//EN"
 "http://www.w3.org/Graphics/SVG/1.1/DTD/svg11.dtd">
<!-- Generated by graphviz version 14.1.3 (0)
 -->
<!-- Title: anch::Singleton&lt; T &gt; Pages: 1 -->
<svg width="1401pt" height="411pt"
 viewBox="0.00 0.00 1401.00 411.00" xmlns="http://www.w3.org/2000/svg" xmlns:xlink="http://www.w3.org/1999/xlink">
<g id="graph0" class="graph" transform="scale(1 1) rotate(0) translate(4 407)">
<title>anch::Singleton&lt; T &gt;</title>
<!-- Node1 -->
<g id="Node000001" class="node">
<title>Node1</title>
<g id="a_Node000001"><a xlink:title="Meyers&#39; singleton implementation.">
<polygon fill="#999999" stroke="none" points="708,-403 609.25,-403 609.25,-351 708,-351 708,-403"/>
<text xml:space="preserve" text-anchor="start" x="613.25" y="-389.25" font-family="Helvetica,sans-Serif" font-size="10.00">anch::Singleton&lt; T &gt;</text>
<text xml:space="preserve" text-anchor="start" x="657.12" y="-373.25" font-family="Helvetica,sans-Serif" font-size="10.00"> </text>
<text xml:space="preserve" text-anchor="start" x="619.19" y="-357.25" font-family="Helvetica,sans-Serif" font-size="10.00">+</text>
<text xml:space="preserve" text-anchor="start" x="635.12" y="-357.25" font-family="Helvetica,sans-Serif" font-size="10.00">getInstance()</text>
<polygon fill="#666666" stroke="#666666" points="609.25,-385 609.25,-385 708,-385 708,-385 609.25,-385"/>
<polygon fill="#666666" stroke="#666666" points="609.25,-369 609.25,-369 708,-369 708,-369 609.25,-369"/>
<polygon fill="none" stroke="#666666" points="609.25,-351 609.25,-403 708,-403 708,-351 609.25,-351"/>
</a>
</g>
</g>
<!-- Node2 -->
<g id="Node000002" class="node">
<title>Node2</title>
<g id="a_Node000002"><a xlink:href="classanch_1_1_singleton.html" target="_top" xlink:title=" ">
<polygon fill="white" stroke="none" points="127.25,-291 0,-291 0,-239 127.25,-239 127.25,-291"/>
<text xml:space="preserve" text-anchor="start" x="4" y="-277.25" font-family="Helvetica,sans-Serif" font-size="10.00">anch::Singleton&lt; Parsers &gt;</text>
<text xml:space="preserve" text-anchor="start" x="62.12" y="-261.25" font-family="Helvetica,sans-Serif" font-size="10.00"> </text>
<text xml:space="preserve" text-anchor="start" x="17.06" y="-245.25" font-family="Helvetica,sans-Serif" font-size="10.00">+</text>
<text xml:space="preserve" text-anchor="start" x="40.12" y="-245.25" font-family="Helvetica,sans-Serif" font-size="10.00">getInstance()</text>
<polygon fill="#666666" stroke="#666666" points="0,-273 0,-273 127.25,-273 127.25,-273 0,-273"/>
<polygon fill="#666666" stroke="#666666" points="0,-257 0,-257 127.25,-257 127.25,-257 0,-257"/>
<polygon fill="none" stroke="#666666" points="0,-239 0,-291 127.25,-291 127.25,-239 0,-239"/>
</a>
</g>
</g>
<!-- Node1&#45;&gt;Node2 -->
<g id="edge1_Node000001_Node000002" class="edge">
<title>Node1&#45;&gt;Node2</title>
<g id="a_edge1_Node000001_Node000002"><a xlink:title=" ">
<path fill="none" stroke="orange" d="M597.96,-372.37C520.58,-367.05 382.88,-355.25 266.88,-333 207.89,-321.69 193.33,-316.78 136.62,-297 131.29,-295.14 125.8,-293.08 120.33,-290.93"/>
<polygon fill="orange" stroke="orange" points="597.67,-375.86 607.88,-373.04 598.14,-368.87 597.67,-375.86"/>
</a>
</g>
<text xml:space="preserve" text-anchor="start" x="269.88" y="-320.25" font-family="Helvetica,sans-Serif" font-size="10.00" fill="grey">&lt; Parsers &gt;</text>
</g>
<!-- Node4 -->
<g id="Node000004" class="node">
<title>Node4</title>
<g id="a_Node000004"><a xlink:href="classanch_1_1_singleton.html" target="_top" xlink:title=" ">
<polygon fill="white" stroke="none" points="283.5,-291 145.75,-291 145.75,-239 283.5,-239 283.5,-291"/>
<text xml:space="preserve" text-anchor="start" x="149.75" y="-277.25" font-family="Helvetica,sans-Serif" font-size="10.00">anch::Singleton&lt; Resolvers &gt;</text>
<text xml:space="preserve" text-anchor="start" x="213.12" y="-261.25" font-family="Helvetica,sans-Serif" font-size="10.00"> </text>
<text xml:space="preserve" text-anchor="start" x="165.44" y="-245.25" font-family="Helvetica,sans-Serif" font-size="10.00">+</text>
<text xml:space="preserve" text-anchor="start" x="191.12" y="-245.25" font-family="Helvetica,sans-Serif" font-size="10.00">getInstance()</text>
<polygon fill="#666666" stroke="#666666" points="145.75,-273 145.75,-273 283.5,-273 283.5,-273 145.75,-273"/>
<polygon fill="#666666" stroke="#666666" points="145.75,-257 145.75,-257 283.5,-257 283.5,-257 145.75,-257"/>
<polygon fill="none" stroke="#666666" points="145.75,-239 145.75,-291 283.5,-291 283.5,-239 145.75,-239"/>
</a>
</g>
</g>
<!-- Node1&#45;&gt;Node4 -->
<g id="edge3_Node000001_Node000004" class="edge">
<title>Node1&#45;&gt;Node4</title>
<g id="a_edge3_Node000001_Node000004"><a xlink:title=" ">
<path fill="none" stroke="orange" d="M598.11,-370.8C540.96,-364.92 453.25,-353.41 379.38,-333 340.68,-322.31 298.8,-305.2 266.95,-290.95"/>
<polygon fill="orange" stroke="orange" points="597.66,-374.27 607.96,-371.78 598.36,-367.3 597.66,-374.27"/>
</a>
</g>
<text xml:space="preserve" text-anchor="start" x="382.38" y="-320.25" font-family="Helvetica,sans-Serif" font-size="10.00" fill="grey">&lt; Resolvers &gt;</text>
</g>
<!-- Node6 -->
<g id="Node000006" class="node">
<title>Node6</title>
<g id="a_Node000006"><a xlink:href="classanch_1_1_singleton.html" target="_top" xlink:title=" ">
<polygon fill="white" stroke="none" points="417.25,-291 302,-291 302,-239 417.25,-239 417.25,-291"/>
<text xml:space="preserve" text-anchor="start" x="306" y="-277.25" font-family="Helvetica,sans-Serif" font-size="10.00">anch::Singleton&lt; CPU &gt;</text>
<text xml:space="preserve" text-anchor="start" x="358.12" y="-261.25" font-family="Helvetica,sans-Serif" font-size="10.00"> </text>
<text xml:space="preserve" text-anchor="start" x="316.06" y="-245.25" font-family="Helvetica,sans-Serif" font-size="10.00">+</text>
<text xml:space="preserve" text-anchor="start" x="336.12" y="-245.25" font-family="Helvetica,sans-Serif" font-size="10.00">getInstance()</text>
<polygon fill="#666666" stroke="#666666" points="302,-273 302,-273 417.25,-273 417.25,-273 302,-273"/>
<polygon fill="#666666" stroke="#666666" points="302,-257 302,-257 417.25,-257 417.25,-257 302,-257"/>
<polygon fill="none" stroke="#666666" points="302,-239 302,-291 417.25,-291 417.25,-239 302,-239"/>
</a>
</g>
</g>
<!-- Node1&#45;&gt;Node6 -->
<g id="edge5_Node000001_Node000006" class="edge">
<title>Node1&#45;&gt;Node6</title>
<g id="a_edge5_Node000001_Node000006"><a xlink:title=" ">
<path fill="none" stroke="orange" d="M598.61,-363.67C566.7,-356.31 527.1,-345.88 492.88,-333 461.98,-321.37 428.8,-304.71 403.28,-290.91"/>
<polygon fill="orange" stroke="orange" points="597.55,-367.02 608.08,-365.81 599.09,-360.19 597.55,-367.02"/>
</a>
</g>
<text xml:space="preserve" text-anchor="start" x="495.88" y="-320.25" font-family="Helvetica,sans-Serif" font-size="10.00" fill="grey">&lt; CPU &gt;</text>
</g>
<!-- Node8 -->
<g id="Node000008" class="node">
<title>Node8</title>
<g id="a_Node000008"><a xlink:href="classanch_1_1_singleton.html" target="_top" xlink:title=" ">
<polygon fill="white" stroke="none" points="562.25,-297 435,-297 435,-233 562.25,-233 562.25,-297"/>
<text xml:space="preserve" text-anchor="start" x="439" y="-283.25" font-family="Helvetica,sans-Serif" font-size="10.00">anch::Singleton&lt; EventBus</text>
<text xml:space="preserve" text-anchor="start" x="482.5" y="-271.25" font-family="Helvetica,sans-Serif" font-size="10.00">&lt; T &gt; &gt;</text>
<text xml:space="preserve" text-anchor="start" x="497.12" y="-255.25" font-family="Helvetica,sans-Serif" font-size="10.00"> </text>
<text xml:space="preserve" text-anchor="start" x="452.06" y="-239.25" font-family="Helvetica,sans-Serif" font-size="10.00">+</text>
<text xml:space="preserve" text-anchor="start" x="475.12" y="-239.25" font-family="Helvetica,sans-Serif" font-size="10.00">getInstance()</text>
<polygon fill="#666666" stroke="#666666" points="435,-267 435,-267 562.25,-267 562.25,-267 435,-267"/>
<polygon fill="#666666" stroke="#666666" points="435,-251 435,-251 562.25,-251 562.25,-251 435,-251"/>
<polygon fill="none" stroke="#666666" points="435,-233 435,-297 562.25,-297 562.25,-233 435,-233"/>
</a>
</g>
</g>
<!-- Node1&#45;&gt;Node8 -->
<g id="edge7_Node000001_Node000008" class="edge">
<title>Node1&#45;&gt;Node8</title>
<g id="a_edge7_Node000001_Node000008"><a xlink:title=" ">
<path fill="none" stroke="orange" d="M599.12,-352.76C587.25,-347.04 575.2,-340.41 564.62,-333 550.05,-322.79 535.92,-309.13 524.5,-296.8"/>
<polygon fill="orange" stroke="orange" points="597.54,-355.89 608.08,-356.91 600.48,-349.53 597.54,-355.89"/>
</a>
</g>
<text xml:space="preserve" text-anchor="start" x="567.62" y="-320.25" font-family="Helvetica,sans-Serif" font-size="10.00" fill="grey">&lt; EventBus&lt; T &gt; &gt;</text>
</g>
<!-- Node10 -->
<g id="Node000010" class="node">
<title>Node10</title>
<g id="a_Node000010"><a xlink:href="classanch_1_1_singleton.html" target="_top" xlink:title=" ">
<polygon fill="white" stroke="none" points="736.5,-291 580.75,-291 580.75,-239 736.5,-239 736.5,-291"/>
<text xml:space="preserve" text-anchor="start" x="584.75" y="-277.25" font-family="Helvetica,sans-Serif" font-size="10.00">anch::Singleton&lt; LoggerFactory &gt;</text>
<text xml:space="preserve" text-anchor="start" x="657.12" y="-261.25" font-family="Helvetica,sans-Serif" font-size="10.00"> </text>
<text xml:space="preserve" text-anchor="start" x="604.94" y="-245.25" font-family="Helvetica,sans-Serif" font-size="10.00">+</text>
<text xml:space="preserve" text-anchor="start" x="635.12" y="-245.25" font-family="Helvetica,sans-Serif" font-size="10.00">getInstance()</text>
<polygon fill="#666666" stroke="#666666" points="580.75,-273 580.75,-273 736.5,-273 736.5,-273 580.75,-273"/>
<polygon fill="#666666" stroke="#666666" points="580.75,-257 580.75,-257 736.5,-257 736.5,-257 580.75,-257"/>
<polygon fill="none" stroke="#666666" points="580.75,-239 580.75,-291 736.5,-291 736.5,-239 580.75,-239"/>
</a>
</g>
</g>
<!-- Node1&#45;&gt;Node10 -->
<g id="edge9_Node000001_Node000010" class="edge">
<title>Node1&#45;&gt;Node10</title>
<g id="a_edge9_Node000001_Node000010"><a xlink:title=" ">
<path fill="none" stroke="orange" d="M658.62,-339.87C658.62,-323.82 658.62,-305.33 658.62,-290.86"/>
<polygon fill="orange" stroke="orange" points="655.13,-339.53 658.63,-349.53 662.13,-339.53 655.13,-339.53"/>
</a>
</g>
<text xml:space="preserve" text-anchor="start" x="661.62" y="-320.25" font-family="Helvetica,sans-Serif" font-size="10.00" fill="grey">&lt; LoggerFactory &gt;</text>
</g>
<!-- Node12 -->
<g id="Node000012" class="node">
<title>Node12</title>
<g id="a_Node000012"><a xlink:href="classanch_1_1_singleton.html" target="_top" xlink:title=" ">
<polygon fill="white" stroke="none" points="910.5,-291 754.75,-291 754.75,-239 910.5,-239 910.5,-291"/>
<text xml:space="preserve" text-anchor="start" x="758.75" y="-277.25" font-family="Helvetica,sans-Serif" font-size="10.00">anch::Singleton&lt; WriterRegistry &gt;</text>
<text xml:space="preserve" text-anchor="start" x="831.12" y="-261.25" font-family="Helvetica,sans-Serif" font-size="10.00"> </text>
<text xml:space="preserve" text-anchor="start" x="778.94" y="-245.25" font-family="Helvetica,sans-Serif" font-size="10.00">+</text>
<text xml:space="preserve" text-anchor="start" x="809.12" y="-245.25" font-family="Helvetica,sans-Serif" font-size="10.00">getInstance()</text>
<polygon fill="#666666" stroke="#666666" points="754.75,-273 754.75,-273 910.5,-273 910.5,-273 754.75,-273"/>
<polygon fill="#666666" stroke="#666666" points="754.75,-257 754.75,-257 910.5,-257 910.5,-257 754.75,-257"/>
<polygon fill="none" stroke="#666666" points="754.75,-239 754.75,-291 910.5,-291 910.5,-239 754.75,-239"/>
</a>
</g>
</g>
<!-- Node1&#45;&gt;Node12 -->
<g id="edge11_Node000001_Node000012" class="edge">
<title>Node1&#45;&gt;Node12</title>
<g id="a_edge11_Node000001_Node000012"><a xlink:title=" ">
<path fill="none" stroke="orange" d="M718.11,-349.95C728.51,-344.73 739.05,-339 748.62,-333 768.39,-320.62 788.88,-304.36 804.67,-290.96"/>
<polygon fill="orange" stroke="orange" points="716.62,-346.78 709.17,-354.31 719.69,-353.07 716.62,-346.78"/>
</a>
</g>
<text xml:space="preserve" text-anchor="start" x="775.9" y="-320.25" font-family="Helvetica,sans-Serif" font-size="10.00" fill="grey">&lt; WriterRegistry &gt;</text>
</g>
<!-- Node14 -->
<g id="Node000014" class="node">
<title>Node14</title>
<g id="a_Node000014"><a xlink:href="classanch_1_1_singleton.html" target="_top" xlink:title=" ">
<polygon fill="white" stroke="none" points="1072.88,-297 928.38,-297 928.38,-233 1072.88,-233 1072.88,-297"/>
<text xml:space="preserve" text-anchor="start" x="932.38" y="-283.25" font-family="Helvetica,sans-Serif" font-size="10.00">anch::Singleton&lt; GlobalMapper</text>
<text xml:space="preserve" text-anchor="start" x="977.75" y="-271.25" font-family="Helvetica,sans-Serif" font-size="10.00">Registry &gt;</text>
<text xml:space="preserve" text-anchor="start" x="999.12" y="-255.25" font-family="Helvetica,sans-Serif" font-size="10.00"> </text>
<text xml:space="preserve" text-anchor="start" x="949.75" y="-239.25" font-family="Helvetica,sans-Serif" font-size="10.00">+</text>
<text xml:space="preserve" text-anchor="start" x="977.12" y="-239.25" font-family="Helvetica,sans-Serif" font-size="10.00">getInstance()</text>
<polygon fill="#666666" stroke="#666666" points="928.38,-267 928.38,-267 1072.88,-267 1072.88,-267 928.38,-267"/>
<polygon fill="#666666" stroke="#666666" points="928.38,-251 928.38,-251 1072.88,-251 1072.88,-251 928.38,-251"/>
<polygon fill="none" stroke="#666666" points="928.38,-233 928.38,-297 1072.88,-297 1072.88,-233 928.38,-233"/>
</a>
</g>
</g>
<!-- Node1&#45;&gt;Node14 -->
<g id="edge13_Node000001_Node000014" class="edge">
<title>Node1&#45;&gt;Node14</title>
<g id="a_edge13_Node000001_Node000014"><a xlink:title=" ">
<path fill="none" stroke="orange" d="M718.86,-367.41C760.28,-360.53 816.15,-349.3 863.62,-333 891.42,-323.45 920.87,-309.59 945.31,-296.95"/>
<polygon fill="orange" stroke="orange" points="718.39,-363.94 709.08,-368.99 719.51,-370.85 718.39,-363.94"/>
</a>
</g>
<text xml:space="preserve" text-anchor="start" x="909.34" y="-320.25" font-family="Helvetica,sans-Serif" font-size="10.00" fill="grey">&lt; GlobalMapperRegistry &gt;</text>
</g>
<!-- Node16 -->
<g id="Node000016" class="node">
<title>Node16</title>
<g id="a_Node000016"><a xlink:href="classanch_1_1_singleton.html" target="_top" xlink:title=" ">
<polygon fill="white" stroke="none" points="1226,-297 1091.25,-297 1091.25,-233 1226,-233 1226,-297"/>
<text xml:space="preserve" text-anchor="start" x="1095.25" y="-283.25" font-family="Helvetica,sans-Serif" font-size="10.00">anch::Singleton&lt; SQLShared</text>
<text xml:space="preserve" text-anchor="start" x="1135.75" y="-271.25" font-family="Helvetica,sans-Serif" font-size="10.00">Libraries &gt;</text>
<text xml:space="preserve" text-anchor="start" x="1157.12" y="-255.25" font-family="Helvetica,sans-Serif" font-size="10.00"> </text>
<text xml:space="preserve" text-anchor="start" x="1110.19" y="-239.25" font-family="Helvetica,sans-Serif" font-size="10.00">+</text>
<text xml:space="preserve" text-anchor="start" x="1135.12" y="-239.25" font-family="Helvetica,sans-Serif" font-size="10.00">getInstance()</text>
<polygon fill="#666666" stroke="#666666" points="1091.25,-267 1091.25,-267 1226,-267 1226,-267 1091.25,-267"/>
<polygon fill="#666666" stroke="#666666" points="1091.25,-251 1091.25,-251 1226,-251 1226,-251 1091.25,-251"/>
<polygon fill="none" stroke="#666666" points="1091.25,-233 1091.25,-297 1226,-297 1226,-233 1091.25,-233"/>
</a>
</g>
</g>
<!-- Node1&#45;&gt;Node16 -->
<g id="edge15_Node000001_Node000016" class="edge">
<title>Node1&#45;&gt;Node16</title>
<g id="a_edge15_Node000001_Node000016"><a xlink:title=" ">
<path fill="none" stroke="orange" d="M719.01,-375.75C793.77,-373.93 924.24,-365.75 1030.62,-333 1058.19,-324.51 1086.82,-310.13 1110,-296.86"/>
<polygon fill="orange" stroke="orange" points="719.38,-372.24 709.46,-375.95 719.53,-379.24 719.38,-372.24"/>
</a>
</g>
<text xml:space="preserve" text-anchor="start" x="1077.73" y="-320.25" font-family="Helvetica,sans-Serif" font-size="10.00" fill="grey">&lt; SQLSharedLibraries &gt;</text>
</g>
<!-- Node18 -->
<g id="Node000018" class="node">
<title>Node18</title>
<g id="a_Node000018"><a xlink:href="classanch_1_1_singleton.html" target="_top" xlink:title=" ">
<polygon fill="white" stroke="none" points="1392.75,-297 1244.5,-297 1244.5,-233 1392.75,-233 1392.75,-297"/>
<text xml:space="preserve" text-anchor="start" x="1248.5" y="-283.25" font-family="Helvetica,sans-Serif" font-size="10.00">anch::Singleton&lt; SqlConnection</text>
<text xml:space="preserve" text-anchor="start" x="1297.62" y="-271.25" font-family="Helvetica,sans-Serif" font-size="10.00">Factory &gt;</text>
<text xml:space="preserve" text-anchor="start" x="1317.12" y="-255.25" font-family="Helvetica,sans-Serif" font-size="10.00"> </text>
<text xml:space="preserve" text-anchor="start" x="1266.81" y="-239.25" font-family="Helvetica,sans-Serif" font-size="10.00">+</text>
<text xml:space="preserve" text-anchor="start" x="1295.12" y="-239.25" font-family="Helvetica,sans-Serif" font-size="10.00">getInstance()</text>
<polygon fill="#666666" stroke="#666666" points="1244.5,-267 1244.5,-267 1392.75,-267 1392.75,-267 1244.5,-267"/>
<polygon fill="#666666" stroke="#666666" points="1244.5,-251 1244.5,-251 1392.75,-251 1392.75,-251 1244.5,-251"/>
<polygon fill="none" stroke="#666666" points="1244.5,-233 1244.5,-297 1392.75,-297 1392.75,-233 1244.5,-233"/>
</a>
</g>
</g>
<!-- Node1&#45;&gt;Node18 -->
<g id="edge17_Node000001_Node000018" class="edge">
<title>Node1&#45;&gt;Node18</title>
<g id="a_edge17_Node000001_Node000018"><a xlink:title=" ">
<path fill="none" stroke="orange" d="M719.12,-374.11C839.03,-369.88 1102.76,-357.97 1189.62,-333 1217.76,-324.91 1246.88,-310.4 1270.32,-296.94"/>
<polygon fill="orange" stroke="orange" points="719.36,-370.6 709.49,-374.45 719.6,-377.6 719.36,-370.6"/>
</a>
</g>
<text xml:space="preserve" text-anchor="start" x="1237.17" y="-320.25" font-family="Helvetica,sans-Serif" font-size="10.00" fill="grey">&lt; SqlConnectionFactory &gt;</text>
</g>
<!-- Node3 -->
<g id="Node000003" class="node">
<title>Node3</title>
<g id="a_Node000003"><a xlink:href="classanch_1_1conf_1_1_parsers.html" target="_top" xlink:title="Parsers registry.">
<polygon fill="white" stroke="none" points="110.38,-156 16.88,-156 16.88,-40 110.38,-40 110.38,-156"/>
<text xml:space="preserve" text-anchor="start" x="20.88" y="-142.25" font-family="Helvetica,sans-Serif" font-size="10.00">anch::conf::Parsers</text>
<text xml:space="preserve" text-anchor="start" x="62.12" y="-126.25" font-family="Helvetica,sans-Serif" font-size="10.00"> </text>
<text xml:space="preserve" text-anchor="start" x="23.06" y="-110.25" font-family="Helvetica,sans-Serif" font-size="10.00">+</text>
<text xml:space="preserve" text-anchor="start" x="35.25" y="-110.25" font-family="Helvetica,sans-Serif" font-size="10.00">Parsers()</text>
<text xml:space="preserve" text-anchor="start" x="23.06" y="-94.25" font-family="Helvetica,sans-Serif" font-size="10.00">+</text>
<text xml:space="preserve" text-anchor="start" x="35.25" y="-94.25" font-family="Helvetica,sans-Serif" font-size="10.00">Parsers()</text>
<text xml:space="preserve" text-anchor="start" x="23.06" y="-78.25" font-family="Helvetica,sans-Serif" font-size="10.00">+</text>
<text xml:space="preserve" text-anchor="start" x="35.25" y="-78.25" font-family="Helvetica,sans-Serif" font-size="10.00">registerParser()</text>
<text xml:space="preserve" text-anchor="start" x="23.06" y="-62.25" font-family="Helvetica,sans-Serif" font-size="10.00">+</text>
<text xml:space="preserve" text-anchor="start" x="35.25" y="-62.25" font-family="Helvetica,sans-Serif" font-size="10.00">getParser()</text>
<text xml:space="preserve" text-anchor="start" x="23.06" y="-46.25" font-family="Helvetica,sans-Serif" font-size="10.00">+</text>
<text xml:space="preserve" text-anchor="start" x="35.25" y="-46.25" font-family="Helvetica,sans-Serif" font-size="10.00">getParsers()</text>
<polygon fill="#666666" stroke="#666666" points="16.88,-138 16.88,-138 110.38,-138 110.38,-138 16.88,-138"/>
<polygon fill="#666666" stroke="#666666" points="16.88,-122 16.88,-122 110.38,-122 110.38,-122 16.88,-122"/>
<polygon fill="none" stroke="#666666" points="16.88,-40 16.88,-156 110.38,-156 110.38,-40 16.88,-40"/>
</a>
</g>
</g>
<!-- Node2&#45;&gt;Node3 -->
<g id="edge2_Node000002_Node000003" class="edge">
<title>Node2&#45;&gt;Node3</title>
<g id="a_edge2_Node000002_Node000003"><a xlink:title=" ">
<path fill="none" stroke="#63b8ff" d="M63.62,-227.93C63.62,-206.8 63.62,-179.64 63.62,-155.7"/>
<polygon fill="none" stroke="#63b8ff" points="60.13,-227.78 63.63,-237.78 67.13,-227.78 60.13,-227.78"/>
</a>
</g>
</g>
<!-- Node5 -->
<g id="Node000005" class="node">
<title>Node5</title>
<g id="a_Node000005"><a xlink:href="classanch_1_1conf_1_1_resolvers.html" target="_top" xlink:title="Value resolvers&#39; registry.">
<polygon fill="white" stroke="none" points="266.62,-172 162.62,-172 162.62,-24 266.62,-24 266.62,-172"/>
<text xml:space="preserve" text-anchor="start" x="166.62" y="-158.25" font-family="Helvetica,sans-Serif" font-size="10.00">anch::conf::Resolvers</text>
<text xml:space="preserve" text-anchor="start" x="168.81" y="-142.25" font-family="Helvetica,sans-Serif" font-size="10.00">+</text>
<text xml:space="preserve" text-anchor="start" x="181" y="-142.25" font-family="Helvetica,sans-Serif" font-size="10.00">ENV</text>
<text xml:space="preserve" text-anchor="start" x="168.81" y="-126.25" font-family="Helvetica,sans-Serif" font-size="10.00">+</text>
<text xml:space="preserve" text-anchor="start" x="181" y="-126.25" font-family="Helvetica,sans-Serif" font-size="10.00">CONF</text>
<text xml:space="preserve" text-anchor="start" x="168.81" y="-110.25" font-family="Helvetica,sans-Serif" font-size="10.00">+</text>
<text xml:space="preserve" text-anchor="start" x="181" y="-110.25" font-family="Helvetica,sans-Serif" font-size="10.00">ARG</text>
<text xml:space="preserve" text-anchor="start" x="168.81" y="-94.25" font-family="Helvetica,sans-Serif" font-size="10.00">+</text>
<text xml:space="preserve" text-anchor="start" x="181" y="-94.25" font-family="Helvetica,sans-Serif" font-size="10.00">Resolvers()</text>
<text xml:space="preserve" text-anchor="start" x="168.81" y="-78.25" font-family="Helvetica,sans-Serif" font-size="10.00">+</text>
<text xml:space="preserve" text-anchor="start" x="181" y="-78.25" font-family="Helvetica,sans-Serif" font-size="10.00">Resolvers()</text>
<text xml:space="preserve" text-anchor="start" x="168.81" y="-62.25" font-family="Helvetica,sans-Serif" font-size="10.00">+</text>
<text xml:space="preserve" text-anchor="start" x="181" y="-62.25" font-family="Helvetica,sans-Serif" font-size="10.00">registerResolver()</text>
<text xml:space="preserve" text-anchor="start" x="168.81" y="-46.25" font-family="Helvetica,sans-Serif" font-size="10.00">+</text>
<text xml:space="preserve" text-anchor="start" x="181" y="-46.25" font-family="Helvetica,sans-Serif" font-size="10.00">getResolver()</text>
<text xml:space="preserve" text-anchor="start" x="168.81" y="-30.25" font-family="Helvetica,sans-Serif" font-size="10.00">+</text>
<text xml:space="preserve" text-anchor="start" x="181" y="-30.25" font-family="Helvetica,sans-Serif" font-size="10.00">hasResolver()</text>
<polygon fill="#666666" stroke="#666666" points="162.62,-154 162.62,-154 266.62,-154 266.62,-154 162.62,-154"/>
<polygon fill="#666666" stroke="#666666" points="162.62,-106 162.62,-106 179,-106 179,-106 162.62,-106"/>
<polygon fill="#666666" stroke="#666666" points="179,-106 179,-106 266.62,-106 266.62,-106 179,-106"/>
<polygon fill="none" stroke="#666666" points="162.62,-24 162.62,-172 266.62,-172 266.62,-24 162.62,-24"/>
</a>
</g>
</g>
<!-- Node4&#45;&gt;Node5 -->
<g id="edge4_Node000004_Node000005" class="edge">
<title>Node4&#45;&gt;Node5</title>
<g id="a_edge4_Node000004_Node000005"><a xlink:title=" ">
<path fill="none" stroke="#63b8ff" d="M214.62,-227.98C214.62,-211.46 214.62,-191.25 214.62,-171.77"/>
<polygon fill="none" stroke="#63b8ff" points="211.13,-227.78 214.63,-237.78 218.13,-227.78 211.13,-227.78"/>
</a>
</g>
</g>
<!-- Node7 -->
<g id="Node000007" class="node">
<title>Node7</title>
<g id="a_Node000007"><a xlink:href="classanch_1_1device_1_1_c_p_u.html" target="_top" xlink:title="CPU features detection.">
<polygon fill="white" stroke="none" points="405.25,-188 314,-188 314,-8 405.25,-8 405.25,-188"/>
<text xml:space="preserve" text-anchor="start" x="318" y="-174.25" font-family="Helvetica,sans-Serif" font-size="10.00">anch::device::CPU</text>
<text xml:space="preserve" text-anchor="start" x="358.12" y="-158.25" font-family="Helvetica,sans-Serif" font-size="10.00"> </text>
<text xml:space="preserve" text-anchor="start" x="323.94" y="-142.25" font-family="Helvetica,sans-Serif" font-size="10.00">+</text>
<text xml:space="preserve" text-anchor="start" x="339.88" y="-142.25" font-family="Helvetica,sans-Serif" font-size="10.00">isAES()</text>
<text xml:space="preserve" text-anchor="start" x="323.94" y="-126.25" font-family="Helvetica,sans-Serif" font-size="10.00">+</text>
<text xml:space="preserve" text-anchor="start" x="339.88" y="-126.25" font-family="Helvetica,sans-Serif" font-size="10.00">isMMX()</text>
<text xml:space="preserve" text-anchor="start" x="323.94" y="-110.25" font-family="Helvetica,sans-Serif" font-size="10.00">+</text>
<text xml:space="preserve" text-anchor="start" x="339.88" y="-110.25" font-family="Helvetica,sans-Serif" font-size="10.00">isSSE()</text>
<text xml:space="preserve" text-anchor="start" x="323.94" y="-94.25" font-family="Helvetica,sans-Serif" font-size="10.00">+</text>
<text xml:space="preserve" text-anchor="start" x="339.88" y="-94.25" font-family="Helvetica,sans-Serif" font-size="10.00">isSSE2()</text>
<text xml:space="preserve" text-anchor="start" x="323.94" y="-78.25" font-family="Helvetica,sans-Serif" font-size="10.00">+</text>
<text xml:space="preserve" text-anchor="start" x="339.88" y="-78.25" font-family="Helvetica,sans-Serif" font-size="10.00">isSSE3()</text>
<text xml:space="preserve" text-anchor="start" x="323.94" y="-62.25" font-family="Helvetica,sans-Serif" font-size="10.00">+</text>
<text xml:space="preserve" text-anchor="start" x="339.88" y="-62.25" font-family="Helvetica,sans-Serif" font-size="10.00">isSSSE3()</text>
<text xml:space="preserve" text-anchor="start" x="323.94" y="-46.25" font-family="Helvetica,sans-Serif" font-size="10.00">+</text>
<text xml:space="preserve" text-anchor="start" x="339.88" y="-46.25" font-family="Helvetica,sans-Serif" font-size="10.00">isSSE4()</text>
<text xml:space="preserve" text-anchor="start" x="323.94" y="-30.25" font-family="Helvetica,sans-Serif" font-size="10.00">+</text>
<text xml:space="preserve" text-anchor="start" x="339.88" y="-30.25" font-family="Helvetica,sans-Serif" font-size="10.00">isSSE4_1()</text>
<text xml:space="preserve" text-anchor="start" x="323.94" y="-14.25" font-family="Helvetica,sans-Serif" font-size="10.00">+</text>
<text xml:space="preserve" text-anchor="start" x="339.88" y="-14.25" font-family="Helvetica,sans-Serif" font-size="10.00">isSSE4_2()</text>
<polygon fill="#666666" stroke="#666666" points="314,-170 314,-170 405.25,-170 405.25,-170 314,-170"/>
<polygon fill="#666666" stroke="#666666" points="314,-154 314,-154 405.25,-154 405.25,-154 314,-154"/>
<polygon fill="none" stroke="#666666" points="314,-8 314,-188 405.25,-188 405.25,-8 314,-8"/>
</a>
</g>
</g>
<!-- Node6&#45;&gt;Node7 -->
<g id="edge6_Node000006_Node000007" class="edge">
<title>Node6&#45;&gt;Node7</title>
<g id="a_edge6_Node000006_Node000007"><a xlink:title=" ">
<path fill="none" stroke="#63b8ff" d="M359.62,-228C359.62,-215.99 359.62,-202.03 359.62,-187.82"/>
<polygon fill="none" stroke="#63b8ff" points="356.13,-227.78 359.63,-237.78 363.13,-227.78 356.13,-227.78"/>
</a>
</g>
</g>
<!-- Node9 -->
<g id="Node000009" class="node">
<title>Node9</title>
<g id="a_Node000009"><a xlink:href="classanch_1_1events_1_1_event_bus.html" target="_top" xlink:title="A class which manage global events firing and events QoS.">
<polygon fill="white" stroke="none" points="566.75,-196 430.5,-196 430.5,0 566.75,0 566.75,-196"/>
<text xml:space="preserve" text-anchor="start" x="434.5" y="-182.25" font-family="Helvetica,sans-Serif" font-size="10.00">anch::events::EventBus&lt; T &gt;</text>
<text xml:space="preserve" text-anchor="start" x="497.12" y="-166.25" font-family="Helvetica,sans-Serif" font-size="10.00"> </text>
<text xml:space="preserve" text-anchor="start" x="443.44" y="-150.25" font-family="Helvetica,sans-Serif" font-size="10.00">+</text>
<text xml:space="preserve" text-anchor="start" x="462.38" y="-150.25" font-family="Helvetica,sans-Serif" font-size="10.00">EventBus()</text>
<text xml:space="preserve" text-anchor="start" x="443.44" y="-134.25" font-family="Helvetica,sans-Serif" font-size="10.00">+</text>
<text xml:space="preserve" text-anchor="start" x="462.38" y="-134.25" font-family="Helvetica,sans-Serif" font-size="10.00">addObserver()</text>
<text xml:space="preserve" text-anchor="start" x="443.44" y="-118.25" font-family="Helvetica,sans-Serif" font-size="10.00">+</text>
<text xml:space="preserve" text-anchor="start" x="462.38" y="-118.25" font-family="Helvetica,sans-Serif" font-size="10.00">removeObserver()</text>
<text xml:space="preserve" text-anchor="start" x="443.44" y="-102.25" font-family="Helvetica,sans-Serif" font-size="10.00">+</text>
<text xml:space="preserve" text-anchor="start" x="462.38" y="-102.25" font-family="Helvetica,sans-Serif" font-size="10.00">fireEvent()</text>
<text xml:space="preserve" text-anchor="start" x="443.44" y="-86.25" font-family="Helvetica,sans-Serif" font-size="10.00">+</text>
<text xml:space="preserve" text-anchor="start" x="462.38" y="-86.25" font-family="Helvetica,sans-Serif" font-size="10.00">fireEvent()</text>
<text xml:space="preserve" text-anchor="start" x="443.44" y="-70.25" font-family="Helvetica,sans-Serif" font-size="10.00">+</text>
<text xml:space="preserve" text-anchor="start" x="462.38" y="-70.25" font-family="Helvetica,sans-Serif" font-size="10.00">release()</text>
<text xml:space="preserve" text-anchor="start" x="443.44" y="-54.25" font-family="Helvetica,sans-Serif" font-size="10.00">+</text>
<text xml:space="preserve" text-anchor="start" x="462.38" y="-54.25" font-family="Helvetica,sans-Serif" font-size="10.00">AddObserver()</text>
<text xml:space="preserve" text-anchor="start" x="443.44" y="-38.25" font-family="Helvetica,sans-Serif" font-size="10.00">+</text>
<text xml:space="preserve" text-anchor="start" x="462.38" y="-38.25" font-family="Helvetica,sans-Serif" font-size="10.00">RemoveObserver()</text>
<text xml:space="preserve" text-anchor="start" x="443.44" y="-22.25" font-family="Helvetica,sans-Serif" font-size="10.00">+</text>
<text xml:space="preserve" text-anchor="start" x="462.38" y="-22.25" font-family="Helvetica,sans-Serif" font-size="10.00">FireEvent()</text>
<text xml:space="preserve" text-anchor="start" x="443.44" y="-6.25" font-family="Helvetica,sans-Serif" font-size="10.00">+</text>
<text xml:space="preserve" text-anchor="start" x="462.38" y="-6.25" font-family="Helvetica,sans-Serif" font-size="10.00">FireEvent()</text>
<polygon fill="#666666" stroke="#666666" points="430.5,-178 430.5,-178 566.75,-178 566.75,-178 430.5,-178"/>
<polygon fill="#666666" stroke="#666666" points="430.5,-162 430.5,-162 566.75,-162 566.75,-162 430.5,-162"/>
<polygon fill="none" stroke="#666666" points="430.5,0 430.5,-196 566.75,-196 566.75,0 430.5,0"/>
</a>
</g>
</g>
<!-- Node8&#45;&gt;Node9 -->
<g id="edge8_Node000008_Node000009" class="edge">
<title>Node8&#45;&gt;Node9</title>
<g id="a_edge8_Node000008_Node000009"><a xlink:title=" ">
<path fill="none" stroke="#63b8ff" d="M498.62,-221.91C498.62,-213.72 498.62,-204.83 498.62,-195.7"/>
<polygon fill="none" stroke="#63b8ff" points="495.13,-221.84 498.63,-231.84 502.13,-221.84 495.13,-221.84"/>
</a>
</g>
</g>
<!-- Node11 -->
<g id="Node000011" class="node">
<title>Node11</title>
<g id="a_Node000011"><a xlink:href="classanch_1_1log_1_1_logger_factory.html" target="_top" xlink:title="Logger factory.">
<polygon fill="white" stroke="none" points="716.62,-124 600.62,-124 600.62,-72 716.62,-72 716.62,-124"/>
<text xml:space="preserve" text-anchor="start" x="604.62" y="-110.25" font-family="Helvetica,sans-Serif" font-size="10.00">anch::log::LoggerFactory</text>
<text xml:space="preserve" text-anchor="start" x="657.12" y="-94.25" font-family="Helvetica,sans-Serif" font-size="10.00"> </text>
<text xml:space="preserve" text-anchor="start" x="616.94" y="-78.25" font-family="Helvetica,sans-Serif" font-size="10.00">+</text>
<text xml:space="preserve" text-anchor="start" x="639.25" y="-78.25" font-family="Helvetica,sans-Serif" font-size="10.00">getLogger()</text>
<polygon fill="#666666" stroke="#666666" points="600.62,-106 600.62,-106 716.62,-106 716.62,-106 600.62,-106"/>
<polygon fill="#666666" stroke="#666666" points="600.62,-90 600.62,-90 716.62,-90 716.62,-90 600.62,-90"/>
<polygon fill="none" stroke="#666666" points="600.62,-72 600.62,-124 716.62,-124 716.62,-72 600.62,-72"/>
</a>
</g>
</g>
<!-- Node10&#45;&gt;Node11 -->
<g id="edge10_Node000010_Node000011" class="edge">
<title>Node10&#45;&gt;Node11</title>
<g id="a_edge10_Node000010_Node000011"><a xlink:title=" ">
<path fill="none" stroke="#63b8ff" d="M658.62,-227.94C658.62,-196.44 658.62,-151.52 658.62,-123.87"/>
<polygon fill="none" stroke="#63b8ff" points="655.13,-227.78 658.63,-237.78 662.13,-227.78 655.13,-227.78"/>
</a>
</g>
</g>
<!-- Node13 -->
<g id="Node000013" class="node">
<title>Node13</title>
<g id="a_Node000013"><a xlink:href="classanch_1_1log_1_1_writer_registry.html" target="_top" xlink:title="Logger writers&#39; registry.">
<polygon fill="white" stroke="none" points="890.62,-156 774.62,-156 774.62,-40 890.62,-40 890.62,-156"/>
<text xml:space="preserve" text-anchor="start" x="778.62" y="-142.25" font-family="Helvetica,sans-Serif" font-size="10.00">anch::log::WriterRegistry</text>
<text xml:space="preserve" text-anchor="start" x="831.12" y="-126.25" font-family="Helvetica,sans-Serif" font-size="10.00"> </text>
<text xml:space="preserve" text-anchor="start" x="786.06" y="-110.25" font-family="Helvetica,sans-Serif" font-size="10.00">+</text>
<text xml:space="preserve" text-anchor="start" x="803.5" y="-110.25" font-family="Helvetica,sans-Serif" font-size="10.00">WriterRegistry()</text>
<text xml:space="preserve" text-anchor="start" x="786.06" y="-94.25" font-family="Helvetica,sans-Serif" font-size="10.00">+</text>
<text xml:space="preserve" text-anchor="start" x="803.5" y="-94.25" font-family="Helvetica,sans-Serif" font-size="10.00">WriterRegistry()</text>
<text xml:space="preserve" text-anchor="start" x="786.06" y="-78.25" font-family="Helvetica,sans-Serif" font-size="10.00">+</text>
<text xml:space="preserve" text-anchor="start" x="803.5" y="-78.25" font-family="Helvetica,sans-Serif" font-size="10.00">registerWriter()</text>
<text xml:space="preserve" text-anchor="start" x="786.06" y="-62.25" font-family="Helvetica,sans-Serif" font-size="10.00">+</text>
<text xml:space="preserve" text-anchor="start" x="803.5" y="-62.25" font-family="Helvetica,sans-Serif" font-size="10.00">contains()</text>
<text xml:space="preserve" text-anchor="start" x="786.06" y="-46.25" font-family="Helvetica,sans-Serif" font-size="10.00">+</text>
<text xml:space="preserve" text-anchor="start" x="803.5" y="-46.25" font-family="Helvetica,sans-Serif" font-size="10.00">create()</text>
<polygon fill="#666666" stroke="#666666" points="774.62,-138 774.62,-138 890.62,-138 890.62,-138 774.62,-138"/>
<polygon fill="#666666" stroke="#666666" points="774.62,-122 774.62,-122 890.62,-122 890.62,-122 774.62,-122"/>
<polygon fill="none" stroke="#666666" points="774.62,-40 774.62,-156 890.62,-156 890.62,-40 774.62,-40"/>
</a>
</g>
</g>
<!-- Node12&#45;&gt;Node13 -->
<g id="edge12_Node000012_Node000013" class="edge">
<title>Node12&#45;&gt;Node13</title>
<g id="a_edge12_Node000012_Node000013"><a xlink:title=" ">
<path fill="none" stroke="#63b8ff" d="M832.62,-227.93C832.62,-206.8 832.62,-179.64 832.62,-155.7"/>
<polygon fill="none" stroke="#63b8ff" points="829.13,-227.78 832.63,-237.78 836.13,-227.78 829.13,-227.78"/>
</a>
</g>
</g>
<!-- Node15 -->
<g id="Node000015" class="node">
<title>Node15</title>
<g id="a_Node000015"><a xlink:href="classanch_1_1rest_1_1_global_mapper_registry.html" target="_top" xlink:title=" ">
<polygon fill="white" stroke="none" points="1059.38,-130 941.88,-130 941.88,-66 1059.38,-66 1059.38,-130"/>
<text xml:space="preserve" text-anchor="start" x="945.88" y="-116.25" font-family="Helvetica,sans-Serif" font-size="10.00">anch::rest::GlobalMapper</text>
<text xml:space="preserve" text-anchor="start" x="982.25" y="-104.25" font-family="Helvetica,sans-Serif" font-size="10.00">Registry</text>
<text xml:space="preserve" text-anchor="start" x="999.12" y="-88.25" font-family="Helvetica,sans-Serif" font-size="10.00"> </text>
<text xml:space="preserve" text-anchor="start" x="999.12" y="-72.25" font-family="Helvetica,sans-Serif" font-size="10.00"> </text>
<polygon fill="#666666" stroke="#666666" points="941.88,-100 941.88,-100 1059.38,-100 1059.38,-100 941.88,-100"/>
<polygon fill="#666666" stroke="#666666" points="941.88,-84 941.88,-84 1059.38,-84 1059.38,-84 941.88,-84"/>
<polygon fill="none" stroke="#666666" points="941.88,-66 941.88,-130 1059.38,-130 1059.38,-66 941.88,-66"/>
</a>
</g>
</g>
<!-- Node14&#45;&gt;Node15 -->
<g id="edge14_Node000014_Node000015" class="edge">
<title>Node14&#45;&gt;Node15</title>
<g id="a_edge14_Node000014_Node000015"><a xlink:title=" ">
<path fill="none" stroke="#63b8ff" d="M1000.62,-222.02C1000.62,-193.26 1000.62,-155.76 1000.62,-129.76"/>
<polygon fill="none" stroke="#63b8ff" points="997.13,-221.84 1000.63,-231.84 1004.13,-221.84 997.13,-221.84"/>
</a>
</g>
</g>
<!-- Node17 -->
<g id="Node000017" class="node">
<title>Node17</title>
<g id="a_Node000017"><a xlink:href="classanch_1_1sql_1_1_s_q_l_shared_libraries.html" target="_top" xlink:title="SQL shared libraries manager.">
<polygon fill="white" stroke="none" points="1229,-164 1088.25,-164 1088.25,-32 1229,-32 1229,-164"/>
<text xml:space="preserve" text-anchor="start" x="1092.25" y="-150.25" font-family="Helvetica,sans-Serif" font-size="10.00">anch::sql::SQLSharedLibraries</text>
<text xml:space="preserve" text-anchor="start" x="1157.12" y="-134.25" font-family="Helvetica,sans-Serif" font-size="10.00"> </text>
<text xml:space="preserve" text-anchor="start" x="1095.38" y="-118.25" font-family="Helvetica,sans-Serif" font-size="10.00">+</text>
<text xml:space="preserve" text-anchor="start" x="1108.5" y="-118.25" font-family="Helvetica,sans-Serif" font-size="10.00">registerSQLLibrary()</text>
<text xml:space="preserve" text-anchor="start" x="1095.38" y="-102.25" font-family="Helvetica,sans-Serif" font-size="10.00">+</text>
<text xml:space="preserve" text-anchor="start" x="1108.5" y="-102.25" font-family="Helvetica,sans-Serif" font-size="10.00">makeSharedConnection()</text>
<text xml:space="preserve" text-anchor="start" x="1095.38" y="-86.25" font-family="Helvetica,sans-Serif" font-size="10.00">+</text>
<text xml:space="preserve" text-anchor="start" x="1108.5" y="-86.25" font-family="Helvetica,sans-Serif" font-size="10.00">makeConnection()</text>
<text xml:space="preserve" text-anchor="start" x="1095.38" y="-70.25" font-family="Helvetica,sans-Serif" font-size="10.00">+</text>
<text xml:space="preserve" text-anchor="start" x="1108.5" y="-70.25" font-family="Helvetica,sans-Serif" font-size="10.00">registerMySQL()</text>
<text xml:space="preserve" text-anchor="start" x="1095.38" y="-54.25" font-family="Helvetica,sans-Serif" font-size="10.00">+</text>
<text xml:space="preserve" text-anchor="start" x="1108.5" y="-54.25" font-family="Helvetica,sans-Serif" font-size="10.00">registerPostgreSQL()</text>
<text xml:space="preserve" text-anchor="start" x="1095.38" y="-38.25" font-family="Helvetica,sans-Serif" font-size="10.00">+</text>
<text xml:space="preserve" text-anchor="start" x="1108.5" y="-38.25" font-family="Helvetica,sans-Serif" font-size="10.00">registerSQLite()</text>
<polygon fill="#666666" stroke="#666666" points="1088.25,-146 1088.25,-146 1229,-146 1229,-146 1088.25,-146"/>
<polygon fill="#666666" stroke="#666666" points="1088.25,-130 1088.25,-130 1229,-130 1229,-130 1088.25,-130"/>
<polygon fill="none" stroke="#666666" points="1088.25,-32 1088.25,-164 1229,-164 1229,-32 1088.25,-32"/>
</a>
</g>
</g>
<!-- Node16&#45;&gt;Node17 -->
<g id="edge16_Node000016_Node000017" class="edge">
<title>Node16&#45;&gt;Node17</title>
<g id="a_edge16_Node000016_Node000017"><a xlink:title=" ">
<path fill="none" stroke="#63b8ff" d="M1158.62,-221.96C1158.62,-204.26 1158.62,-183.26 1158.62,-163.66"/>
<polygon fill="none" stroke="#63b8ff" points="1155.13,-221.84 1158.63,-231.84 1162.13,-221.84 1155.13,-221.84"/>
</a>
</g>
</g>
<!-- Node19 -->
<g id="Node000019" class="node">
<title>Node19</title>
<g id="a_Node000019"><a xlink:href="classanch_1_1sql_1_1_sql_connection_factory.html" target="_top" xlink:title="SQL connection factory.">
<polygon fill="white" stroke="none" points="1377.38,-138 1259.88,-138 1259.88,-58 1377.38,-58 1377.38,-138"/>
<text xml:space="preserve" text-anchor="start" x="1263.88" y="-124.25" font-family="Helvetica,sans-Serif" font-size="10.00">anch::sql::SqlConnection</text>
<text xml:space="preserve" text-anchor="start" x="1302.12" y="-112.25" font-family="Helvetica,sans-Serif" font-size="10.00">Factory</text>
<text xml:space="preserve" text-anchor="start" x="1317.12" y="-96.25" font-family="Helvetica,sans-Serif" font-size="10.00"> </text>
<text xml:space="preserve" text-anchor="start" x="1268.12" y="-80.25" font-family="Helvetica,sans-Serif" font-size="10.00">+</text>
<text xml:space="preserve" text-anchor="start" x="1282.38" y="-80.25" font-family="Helvetica,sans-Serif" font-size="10.00">createConnection()</text>
<text xml:space="preserve" text-anchor="start" x="1268.12" y="-64.25" font-family="Helvetica,sans-Serif" font-size="10.00">+</text>
<text xml:space="preserve" text-anchor="start" x="1282.38" y="-64.25" font-family="Helvetica,sans-Serif" font-size="10.00">getPool()</text>
<polygon fill="#666666" stroke="#666666" points="1259.88,-108 1259.88,-108 1377.38,-108 1377.38,-108 1259.88,-108"/>
<polygon fill="#666666" stroke="#666666" points="1259.88,-92 1259.88,-92 1377.38,-92 1377.38,-92 1259.88,-92"/>
<polygon fill="none" stroke="#666666" points="1259.88,-58 1259.88,-138 1377.38,-138 1377.38,-58 1259.88,-58"/>
</a>
</g>
</g>
<!-- Node18&#45;&gt;Node19 -->
<g id="edge18_Node000018_Node000019" class="edge">
<title>Node18&#45;&gt;Node19</title>
<g id="a_edge18_Node000018_Node000019"><a xlink:title=" ">
<path fill="none" stroke="#63b8ff" d="M1318.62,-222.02C1318.62,-196.15 1318.62,-163.21 1318.62,-137.93"/>
<polygon fill="none" stroke="#63b8ff" points="1315.13,-221.84 1318.63,-231.84 1322.13,-221.84 1315.13,-221.84"/>
</a>
</g>
</g>
</g>
</svg>
