<?xml version="1.0" encoding="UTF-8" standalone="no"?>
<!DOCTYPE svg PUBLIC "-//W3C//DTD SVG 1.1//EN"
 "http://www.w3.org/Graphics/SVG/1.1/DTD/svg11.dtd">
<!-- Generated by graphviz version 7.1.0 (0)
 -->
<!-- Title: anch::logger::LoggerFactory Pages: 1 -->
<svg width="193pt" height="266pt"
 viewBox="0.00 0.00 193.00 266.00" xmlns="http://www.w3.org/2000/svg" xmlns:xlink="http://www.w3.org/1999/xlink">
<g id="graph0" class="graph" transform="scale(1 1) rotate(0) translate(4 262)">
<title>anch::logger::LoggerFactory</title>
<!-- Node1 -->
<g id="node1" class="node">
<title>Node1</title>
<g id="a_node1"><a xlink:title="Logger factory.">
<polygon fill="#999999" stroke="#666666" points="15.5,-0.5 15.5,-57.5 166.5,-57.5 166.5,-0.5 15.5,-0.5"/>
<text text-anchor="middle" x="91" y="-45.5" font-family="Helvetica,sans-Serif" font-size="10.00">anch::logger::LoggerFactory</text>
<polyline fill="none" stroke="#666666" points="15.5,-38.5 166.5,-38.5"/>
<text text-anchor="middle" x="91" y="-26.5" font-family="Helvetica,sans-Serif" font-size="10.00"> </text>
<polyline fill="none" stroke="#666666" points="15.5,-19.5 166.5,-19.5"/>
<text text-anchor="start" x="23.5" y="-7.5" font-family="Helvetica,sans-Serif" font-size="10.00">+ getLogger()</text>
</a>
</g>
</g>
<!-- Node2 -->
<g id="node2" class="node">
<title>Node2</title>
<g id="a_node2"><a xlink:href="classanch_1_1_singleton.html" target="_top" xlink:title=" ">
<polygon fill="white" stroke="#666666" points="0,-95.5 0,-152.5 182,-152.5 182,-95.5 0,-95.5"/>
<text text-anchor="middle" x="91" y="-140.5" font-family="Helvetica,sans-Serif" font-size="10.00">anch::Singleton&lt; LoggerFactory &gt;</text>
<polyline fill="none" stroke="#666666" points="0,-133.5 182,-133.5"/>
<text text-anchor="middle" x="91" y="-121.5" font-family="Helvetica,sans-Serif" font-size="10.00"> </text>
<polyline fill="none" stroke="#666666" points="0,-114.5 182,-114.5"/>
<text text-anchor="start" x="8" y="-102.5" font-family="Helvetica,sans-Serif" font-size="10.00">+ getInstance()</text>
</a>
</g>
</g>
<!-- Node2&#45;&gt;Node1 -->
<g id="edge1" class="edge">
<title>Node2&#45;&gt;Node1</title>
<path fill="none" stroke="#63b8ff" d="M91,-84.37C91,-75.25 91,-65.7 91,-57.2"/>
<polygon fill="none" stroke="#63b8ff" points="87.5,-84.09 91,-94.09 94.5,-84.09 87.5,-84.09"/>
</g>
<!-- Node3 -->
<g id="node3" class="node">
<title>Node3</title>
<g id="a_node3"><a xlink:href="classanch_1_1_singleton.html" target="_top" xlink:title="Meyers&#39; singleton implemtation.">
<polygon fill="white" stroke="#666666" points="31,-200.5 31,-257.5 151,-257.5 151,-200.5 31,-200.5"/>
<text text-anchor="middle" x="91" y="-245.5" font-family="Helvetica,sans-Serif" font-size="10.00">anch::Singleton&lt; T &gt;</text>
<polyline fill="none" stroke="#666666" points="31,-238.5 151,-238.5"/>
<text text-anchor="middle" x="91" y="-226.5" font-family="Helvetica,sans-Serif" font-size="10.00"> </text>
<polyline fill="none" stroke="#666666" points="31,-219.5 151,-219.5"/>
<text text-anchor="start" x="39" y="-207.5" font-family="Helvetica,sans-Serif" font-size="10.00">+ getInstance()</text>
</a>
</g>
</g>
<!-- Node3&#45;&gt;Node2 -->
<g id="edge2" class="edge">
<title>Node3&#45;&gt;Node2</title>
<path fill="none" stroke="orange" d="M91,-189.33C91,-177.06 91,-163.77 91,-152.46"/>
<polygon fill="orange" stroke="orange" points="87.5,-189.15 91,-199.15 94.5,-189.15 87.5,-189.15"/>
<text text-anchor="middle" x="138" y="-174" font-family="Helvetica,sans-Serif" font-size="10.00"> &lt; LoggerFactory &gt;</text>
</g>
</g>
</svg>
