<?xml version="1.0" encoding="UTF-8" standalone="no"?>
<!DOCTYPE svg PUBLIC "-//W3C//DTD SVG 1.1//EN"
 "http://www.w3.org/Graphics/SVG/1.1/DTD/svg11.dtd">
<!-- Generated by graphviz version 2.40.1 (20161225.0304)
 -->
<!-- Title: anch::logger::ThreadSafeWriter Pages: 1 -->
<!--zoomable 694 -->
<svg id="main" version="1.1" xmlns="http://www.w3.org/2000/svg" xmlns:xlink="http://www.w3.org/1999/xlink" xml:space="preserve" onload="init(evt)">
<style type="text/css"><![CDATA[
.edge:hover path { stroke: red; }
.edge:hover polygon { stroke: red; fill: red; }
]]></style>
<script type="text/javascript"><![CDATA[
var edges = document.getElementsByTagName('g');
if (edges && edges.length) {
  for (var i=0;i<edges.length;i++) {
    if (edges[i].id.substr(0,4)=='edge') {
      edges[i].setAttribute('class','edge');
    }
  }
}
]]></script>
        <defs>
                <circle id="rim" cx="0" cy="0" r="7"/>
                <circle id="rim2" cx="0" cy="0" r="3.5"/>
                <g id="zoomPlus">
                        <use xlink:href="#rim" fill="#404040">
                                <set attributeName="fill" to="#808080" begin="zoomplus.mouseover" end="zoomplus.mouseout"/>
                        </use>
                        <path d="M-4,0h8M0,-4v8" fill="none" stroke="white" stroke-width="1.5" pointer-events="none"/>
                </g>
                <g id="zoomMin">
                        <use xlink:href="#rim" fill="#404040">
                                <set attributeName="fill" to="#808080" begin="zoomminus.mouseover" end="zoomminus.mouseout"/>
                        </use>
                        <path d="M-4,0h8" fill="none" stroke="white" stroke-width="1.5" pointer-events="none"/>
                </g>
                <g id="dirArrow">
                        <path fill="none" stroke="white" stroke-width="1.5" d="M0,-3.0v7 M-2.5,-0.5L0,-3.0L2.5,-0.5"/>
                </g>
               <g id="resetDef">
                       <use xlink:href="#rim2" fill="#404040">
                               <set attributeName="fill" to="#808080" begin="reset.mouseover" end="reset.mouseout"/>
                       </use>
               </g>
        </defs>

<script type="text/javascript">
var viewWidth = 263;
var viewHeight = 694;
var sectionId = 'dynsection-1';
</script>
<script xlink:href="svgpan.js"/>
<svg id="graph" class="graph">
<g id="viewport">
<title>anch::logger::ThreadSafeWriter</title>
<!-- Node2 -->
<g id="node1" class="node">
<title>Node2</title>
<polygon fill="#bfbfbf" stroke="#000000" points="50,-.5 50,-101.5 188,-101.5 188,-.5 50,-.5"/>
<text text-anchor="start" x="58" y="-89.5" font-family="Helvetica,sans-Serif" font-size="10.00" fill="#000000">anch::logger::ThreadSafe</text>
<text text-anchor="middle" x="119" y="-78.5" font-family="Helvetica,sans-Serif" font-size="10.00" fill="#000000">Writer</text>
<polyline fill="none" stroke="#000000" points="50,-71.5 188,-71.5 "/>
<text text-anchor="middle" x="119" y="-59.5" font-family="Helvetica,sans-Serif" font-size="10.00" fill="#000000"> </text>
<polyline fill="none" stroke="#000000" points="50,-52.5 188,-52.5 "/>
<text text-anchor="start" x="58" y="-40.5" font-family="Helvetica,sans-Serif" font-size="10.00" fill="#000000">+ ThreadSafeWriter()</text>
<text text-anchor="start" x="58" y="-29.5" font-family="Helvetica,sans-Serif" font-size="10.00" fill="#000000">+ ThreadSafeWriter()</text>
<text text-anchor="start" x="58" y="-18.5" font-family="Helvetica,sans-Serif" font-size="10.00" fill="#000000">+ ~ThreadSafeWriter()</text>
<text text-anchor="start" x="58" y="-7.5" font-family="Helvetica,sans-Serif" font-size="10.00" fill="#000000">+ write()</text>
</g>
<!-- Node3 -->
<g id="node2" class="node">
<title>Node3</title>
<g id="a_node2"><a xlink:href="classanch_1_1logger_1_1_writer.html" target="_top" xlink:title="{anch::logger::Writer\n||+ Writer()\l+ Writer()\l+ ~Writer()\l+ write()\l# rotate()\l# rotateFiles()\l}">
<polygon fill="none" stroke="#000000" points="63,-139.5 63,-251.5 175,-251.5 175,-139.5 63,-139.5"/>
<text text-anchor="middle" x="119" y="-239.5" font-family="Helvetica,sans-Serif" font-size="10.00" fill="#000000">anch::logger::Writer</text>
<polyline fill="none" stroke="#000000" points="63,-232.5 175,-232.5 "/>
<text text-anchor="middle" x="119" y="-220.5" font-family="Helvetica,sans-Serif" font-size="10.00" fill="#000000"> </text>
<polyline fill="none" stroke="#000000" points="63,-213.5 175,-213.5 "/>
<text text-anchor="start" x="71" y="-201.5" font-family="Helvetica,sans-Serif" font-size="10.00" fill="#000000">+ Writer()</text>
<text text-anchor="start" x="71" y="-190.5" font-family="Helvetica,sans-Serif" font-size="10.00" fill="#000000">+ Writer()</text>
<text text-anchor="start" x="71" y="-179.5" font-family="Helvetica,sans-Serif" font-size="10.00" fill="#000000">+ ~Writer()</text>
<text text-anchor="start" x="71" y="-168.5" font-family="Helvetica,sans-Serif" font-size="10.00" fill="#000000">+ write()</text>
<text text-anchor="start" x="71" y="-157.5" font-family="Helvetica,sans-Serif" font-size="10.00" fill="#000000"># rotate()</text>
<text text-anchor="start" x="71" y="-146.5" font-family="Helvetica,sans-Serif" font-size="10.00" fill="#000000"># rotateFiles()</text>
</a>
</g>
</g>
<!-- Node3&#45;&gt;Node2 -->
<g id="edge1" class="edge">
<title>Node3&#45;&gt;Node2</title>
<path fill="none" stroke="#191970" d="M119,-128.9623C119,-119.8036 119,-110.5218 119,-101.7104"/>
<polygon fill="none" stroke="#191970" points="115.5001,-129.2187 119,-139.2188 122.5001,-129.2188 115.5001,-129.2187"/>
</g>
<!-- Node4 -->
<g id="node3" class="node">
<title>Node4</title>
<g id="a_node3"><a xlink:href="classanch_1_1logger_1_1formatter_1_1_message_formatter.html" target="_top" xlink:title="{anch::logger::formatter\l::MessageFormatter\n||+ MessageFormatter()\l+ ~MessageFormatter()\l+ formatMessage()\l}">
<polygon fill="none" stroke="#000000" points="0,-299.5 0,-389.5 134,-389.5 134,-299.5 0,-299.5"/>
<text text-anchor="start" x="8" y="-377.5" font-family="Helvetica,sans-Serif" font-size="10.00" fill="#000000">anch::logger::formatter</text>
<text text-anchor="middle" x="67" y="-366.5" font-family="Helvetica,sans-Serif" font-size="10.00" fill="#000000">::MessageFormatter</text>
<polyline fill="none" stroke="#000000" points="0,-359.5 134,-359.5 "/>
<text text-anchor="middle" x="67" y="-347.5" font-family="Helvetica,sans-Serif" font-size="10.00" fill="#000000"> </text>
<polyline fill="none" stroke="#000000" points="0,-340.5 134,-340.5 "/>
<text text-anchor="start" x="8" y="-328.5" font-family="Helvetica,sans-Serif" font-size="10.00" fill="#000000">+ MessageFormatter()</text>
<text text-anchor="start" x="8" y="-317.5" font-family="Helvetica,sans-Serif" font-size="10.00" fill="#000000">+ ~MessageFormatter()</text>
<text text-anchor="start" x="8" y="-306.5" font-family="Helvetica,sans-Serif" font-size="10.00" fill="#000000">+ formatMessage()</text>
</a>
</g>
</g>
<!-- Node4&#45;&gt;Node3 -->
<g id="edge2" class="edge">
<title>Node4&#45;&gt;Node3</title>
<path fill="none" stroke="#404040" d="M77.2544,-299.229C79.8169,-289.4965 82.768,-279.3338 86,-270 86.8136,-267.6503 87.6711,-265.272 88.5626,-262.8801"/>
<polygon fill="none" stroke="#404040" points="88.5846,-262.8236 87.0385,-255.7802 92.9455,-251.644 94.4916,-258.6875 88.5846,-262.8236"/>
<text text-anchor="middle" x="118" y="-273" font-family="Helvetica,sans-Serif" font-size="10.00" fill="#000000"> #_formatter</text>
</g>
<!-- Node5 -->
<g id="node4" class="node">
<title>Node5</title>
<g id="a_node4"><a xlink:title="STL class. ">
<polygon fill="none" stroke="#bfbfbf" points="152,-316 152,-373 230,-373 230,-316 152,-316"/>
<text text-anchor="middle" x="191" y="-361" font-family="Helvetica,sans-Serif" font-size="10.00" fill="#000000">std::ostream</text>
<polyline fill="none" stroke="#bfbfbf" points="152,-354 230,-354 "/>
<text text-anchor="middle" x="191" y="-342" font-family="Helvetica,sans-Serif" font-size="10.00" fill="#000000"> </text>
<polyline fill="none" stroke="#bfbfbf" points="152,-335 230,-335 "/>
<text text-anchor="middle" x="191" y="-323" font-family="Helvetica,sans-Serif" font-size="10.00" fill="#000000"> </text>
</a>
</g>
</g>
<!-- Node5&#45;&gt;Node3 -->
<g id="edge3" class="edge">
<title>Node5&#45;&gt;Node3</title>
<path fill="none" stroke="#404040" d="M177.1177,-315.7713C169.7733,-300.5726 160.4238,-281.2243 151.3819,-262.5125"/>
<polygon fill="none" stroke="#404040" points="151.3322,-262.4096 145.1201,-258.7476 146.1111,-251.6049 152.3232,-255.2669 151.3322,-262.4096"/>
<text text-anchor="middle" x="183.5" y="-273" font-family="Helvetica,sans-Serif" font-size="10.00" fill="#000000"> #_output</text>
</g>
<!-- Node6 -->
<g id="node5" class="node">
<title>Node6</title>
<g id="a_node5"><a xlink:title="STL class. ">
<polygon fill="none" stroke="#bfbfbf" points="136.5,-427.5 136.5,-495.5 245.5,-495.5 245.5,-427.5 136.5,-427.5"/>
<text text-anchor="start" x="144.5" y="-483.5" font-family="Helvetica,sans-Serif" font-size="10.00" fill="#000000">std::basic_ostream</text>
<text text-anchor="middle" x="191" y="-472.5" font-family="Helvetica,sans-Serif" font-size="10.00" fill="#000000">&lt; char &gt;</text>
<polyline fill="none" stroke="#bfbfbf" points="136.5,-465.5 245.5,-465.5 "/>
<text text-anchor="middle" x="191" y="-453.5" font-family="Helvetica,sans-Serif" font-size="10.00" fill="#000000"> </text>
<polyline fill="none" stroke="#bfbfbf" points="136.5,-446.5 245.5,-446.5 "/>
<text text-anchor="middle" x="191" y="-434.5" font-family="Helvetica,sans-Serif" font-size="10.00" fill="#000000"> </text>
</a>
</g>
</g>
<!-- Node6&#45;&gt;Node5 -->
<g id="edge4" class="edge">
<title>Node6&#45;&gt;Node5</title>
<path fill="none" stroke="#191970" d="M191,-416.9743C191,-402.3553 191,-386.4995 191,-373.3568"/>
<polygon fill="none" stroke="#191970" points="187.5001,-417.3442 191,-427.3442 194.5001,-417.3443 187.5001,-417.3442"/>
</g>
<!-- Node7 -->
<g id="node6" class="node">
<title>Node7</title>
<g id="a_node6"><a xlink:title="STL class. ">
<polygon fill="none" stroke="#bfbfbf" points="127,-533.5 127,-590.5 255,-590.5 255,-533.5 127,-533.5"/>
<text text-anchor="middle" x="191" y="-578.5" font-family="Helvetica,sans-Serif" font-size="10.00" fill="#000000">std::basic_ios&lt; Char &gt;</text>
<polyline fill="none" stroke="#bfbfbf" points="127,-571.5 255,-571.5 "/>
<text text-anchor="middle" x="191" y="-559.5" font-family="Helvetica,sans-Serif" font-size="10.00" fill="#000000"> </text>
<polyline fill="none" stroke="#bfbfbf" points="127,-552.5 255,-552.5 "/>
<text text-anchor="middle" x="191" y="-540.5" font-family="Helvetica,sans-Serif" font-size="10.00" fill="#000000"> </text>
</a>
</g>
</g>
<!-- Node7&#45;&gt;Node6 -->
<g id="edge5" class="edge">
<title>Node7&#45;&gt;Node6</title>
<path fill="none" stroke="#191970" d="M191,-523.1903C191,-514.1667 191,-504.6233 191,-495.8097"/>
<polygon fill="none" stroke="#191970" points="187.5001,-523.4695 191,-533.4696 194.5001,-523.4696 187.5001,-523.4695"/>
</g>
<!-- Node8 -->
<g id="node7" class="node">
<title>Node8</title>
<g id="a_node7"><a xlink:title="STL class. ">
<polygon fill="none" stroke="#bfbfbf" points="151,-628.5 151,-685.5 231,-685.5 231,-628.5 151,-628.5"/>
<text text-anchor="middle" x="191" y="-673.5" font-family="Helvetica,sans-Serif" font-size="10.00" fill="#000000">std::ios_base</text>
<polyline fill="none" stroke="#bfbfbf" points="151,-666.5 231,-666.5 "/>
<text text-anchor="middle" x="191" y="-654.5" font-family="Helvetica,sans-Serif" font-size="10.00" fill="#000000"> </text>
<polyline fill="none" stroke="#bfbfbf" points="151,-647.5 231,-647.5 "/>
<text text-anchor="middle" x="191" y="-635.5" font-family="Helvetica,sans-Serif" font-size="10.00" fill="#000000"> </text>
</a>
</g>
</g>
<!-- Node8&#45;&gt;Node7 -->
<g id="edge6" class="edge">
<title>Node8&#45;&gt;Node7</title>
<path fill="none" stroke="#191970" d="M191,-618.3724C191,-609.1627 191,-599.4917 191,-590.8114"/>
<polygon fill="none" stroke="#191970" points="187.5001,-618.4968 191,-628.4969 194.5001,-618.4969 187.5001,-618.4968"/>
</g>
</g>
</svg>
        <g id="navigator" transform="translate(0 0)" fill="#404254">
                <rect fill="#f2f5e9" fill-opacity="0.5" stroke="#606060" stroke-width=".5" x="0" y="0" width="60" height="60"/>
                <use id="zoomplus" xlink:href="#zoomPlus" x="17" y="9" onmousedown="handleZoom(evt,'in')"/>
                <use id="zoomminus" xlink:href="#zoomMin" x="42" y="9" onmousedown="handleZoom(evt,'out')"/>
                <use id="reset" xlink:href="#resetDef" x="30" y="36" onmousedown="handleReset()"/>
                <g id="arrowUp" xlink:href="#dirArrow" transform="translate(30 24)" onmousedown="handlePan(0,-1)">
                  <use xlink:href="#rim" fill="#404040">
                        <set attributeName="fill" to="#808080" begin="arrowUp.mouseover" end="arrowUp.mouseout"/>
                  </use>
                  <path fill="none" stroke="white" stroke-width="1.5" d="M0,-3.0v7 M-2.5,-0.5L0,-3.0L2.5,-0.5"/>
                </g>
                <g id="arrowRight" xlink:href="#dirArrow" transform="rotate(90) translate(36 -43)" onmousedown="handlePan(1,0)">
                  <use xlink:href="#rim" fill="#404040">
                        <set attributeName="fill" to="#808080" begin="arrowRight.mouseover" end="arrowRight.mouseout"/>
                  </use>
                  <path fill="none" stroke="white" stroke-width="1.5" d="M0,-3.0v7 M-2.5,-0.5L0,-3.0L2.5,-0.5"/>
                </g>
                <g id="arrowDown" xlink:href="#dirArrow" transform="rotate(180) translate(-30 -48)" onmousedown="handlePan(0,1)">
                  <use xlink:href="#rim" fill="#404040">
                        <set attributeName="fill" to="#808080" begin="arrowDown.mouseover" end="arrowDown.mouseout"/>
                  </use>
                  <path fill="none" stroke="white" stroke-width="1.5" d="M0,-3.0v7 M-2.5,-0.5L0,-3.0L2.5,-0.5"/>
                </g>
                <g id="arrowLeft" xlink:href="#dirArrow" transform="rotate(270) translate(-36 17)" onmousedown="handlePan(-1,0)">
                  <use xlink:href="#rim" fill="#404040">
                        <set attributeName="fill" to="#808080" begin="arrowLeft.mouseover" end="arrowLeft.mouseout"/>
                  </use>
                  <path fill="none" stroke="white" stroke-width="1.5" d="M0,-3.0v7 M-2.5,-0.5L0,-3.0L2.5,-0.5"/>
                </g>
        </g>
        <svg viewBox="0 0 15 15" width="100%" height="30px" preserveAspectRatio="xMaxYMin meet">
         <g id="arrow_out" transform="scale(0.3 0.3)">
          <a xlink:href="classanch_1_1logger_1_1_thread_safe_writer__coll__graph_org.svg" target="_base">
           <rect id="button" ry="5" rx="5" y="6" x="6" height="38" width="38"
                fill="#f2f5e9" fill-opacity="0.5" stroke="#606060" stroke-width="1.0"/>
           <path id="arrow"
             d="M 11.500037,31.436501 C 11.940474,20.09759 22.043105,11.32322 32.158766,21.979434 L 37.068811,17.246167 C 37.068811,17.246167 37.088388,32 37.088388,32 L 22.160133,31.978069 C 22.160133,31.978069 26.997745,27.140456 26.997745,27.140456 C 18.528582,18.264221 13.291696,25.230495 11.500037,31.436501 z"
             style="fill:#404040;"/>
          </a>
         </g>
        </svg>
</svg>
