<?xml version="1.0" encoding="UTF-8" standalone="no"?>
<!DOCTYPE svg PUBLIC "-//W3C//DTD SVG 1.1//EN"
 "http://www.w3.org/Graphics/SVG/1.1/DTD/svg11.dtd">
<!-- Generated by graphviz version 13.1.0 (0)
 -->
<!-- Title: anch::cutils::CStreambuf Pages: 1 -->
<svg width="125pt" height="228pt"
 viewBox="0.00 0.00 125.00 228.00" xmlns="http://www.w3.org/2000/svg" xmlns:xlink="http://www.w3.org/1999/xlink">

<svg id="main" version="1.1" xmlns="http://www.w3.org/2000/svg" xmlns:xlink="http://www.w3.org/1999/xlink" xml:space="preserve">

<style type="text/css"><![CDATA[
.node, .edge {opacity: 0.7;}
.node.selected, .edge.selected {opacity: 1;}
.edge:hover path { stroke: red; }
.edge:hover polygon { stroke: red; fill: red; }
]]></style>
<script type="application/ecmascript" xlink:href="svg.min.js"/>
<svg id="graph" class="graph">
<g id="graph0" class="graph" transform="scale(1 1) rotate(0) translate(4 224)">
<title>anch::cutils::CStreambuf</title>
<!-- Node1 -->
<g id="Node000001" class="node">
<title>Node1</title>
<g id="a_Node000001"><a xlink:title=" ">
<polygon fill="#999999" stroke="none" points="116.75,-132 0,-132 0,0 116.75,0 116.75,-132"/>
<text xml:space="preserve" text-anchor="start" x="4" y="-118.5" font-family="Helvetica,sans-Serif" font-size="10.00">anch::cutils::CStreambuf</text>
<text xml:space="preserve" text-anchor="start" x="56.88" y="-102.5" font-family="Helvetica,sans-Serif" font-size="10.00"> </text>
<text xml:space="preserve" text-anchor="start" x="12.56" y="-86.5" font-family="Helvetica,sans-Serif" font-size="10.00">+</text>
<text xml:space="preserve" text-anchor="start" x="31.12" y="-86.5" font-family="Helvetica,sans-Serif" font-size="10.00">CStreambuf()</text>
<text xml:space="preserve" text-anchor="start" x="12.56" y="-70.5" font-family="Helvetica,sans-Serif" font-size="10.00">+</text>
<text xml:space="preserve" text-anchor="start" x="31.12" y="-70.5" font-family="Helvetica,sans-Serif" font-size="10.00">~CStreambuf()</text>
<text xml:space="preserve" text-anchor="start" x="12.56" y="-54.5" font-family="Helvetica,sans-Serif" font-size="10.00">+</text>
<text xml:space="preserve" text-anchor="start" x="31.12" y="-54.5" font-family="Helvetica,sans-Serif" font-size="10.00">underflow()</text>
<text xml:space="preserve" text-anchor="start" x="12.56" y="-38.5" font-family="Helvetica,sans-Serif" font-size="10.00">+</text>
<text xml:space="preserve" text-anchor="start" x="31.12" y="-38.5" font-family="Helvetica,sans-Serif" font-size="10.00">overflow()</text>
<text xml:space="preserve" text-anchor="start" x="12.56" y="-22.5" font-family="Helvetica,sans-Serif" font-size="10.00">+</text>
<text xml:space="preserve" text-anchor="start" x="31.12" y="-22.5" font-family="Helvetica,sans-Serif" font-size="10.00">sync()</text>
<text xml:space="preserve" text-anchor="start" x="12.94" y="-6.5" font-family="Helvetica,sans-Serif" font-size="10.00">#</text>
<text xml:space="preserve" text-anchor="start" x="31.12" y="-6.5" font-family="Helvetica,sans-Serif" font-size="10.00">CStreambuf()</text>
<polygon fill="#666666" stroke="#666666" points="0,-114 0,-114 116.75,-114 116.75,-114 0,-114"/>
<polygon fill="#666666" stroke="#666666" points="0,-98 0,-98 116.75,-98 116.75,-98 0,-98"/>
<polygon fill="none" stroke="#666666" points="0,0 0,-132 116.75,-132 116.75,0 0,0"/>
</a>
</g>
</g>
<!-- Node2 -->
<g id="Node000002" class="node">
<title>Node2</title>
<g id="a_Node000002"><a xlink:title=" ">
<polygon fill="white" stroke="none" points="93.88,-220 22.88,-220 22.88,-168 93.88,-168 93.88,-220"/>
<text xml:space="preserve" text-anchor="start" x="26.88" y="-206.5" font-family="Helvetica,sans-Serif" font-size="10.00">std::streambuf</text>
<text xml:space="preserve" text-anchor="start" x="56.88" y="-190.5" font-family="Helvetica,sans-Serif" font-size="10.00"> </text>
<text xml:space="preserve" text-anchor="start" x="56.88" y="-174.5" font-family="Helvetica,sans-Serif" font-size="10.00"> </text>
<polygon fill="#bfbfbf" stroke="#bfbfbf" points="22.88,-202 22.88,-202 93.88,-202 93.88,-202 22.88,-202"/>
<polygon fill="#bfbfbf" stroke="#bfbfbf" points="22.88,-186 22.88,-186 93.88,-186 93.88,-186 22.88,-186"/>
<polygon fill="none" stroke="#bfbfbf" points="22.88,-168 22.88,-220 93.88,-220 93.88,-168 22.88,-168"/>
</a>
</g>
</g>
<!-- Node2&#45;&gt;Node1 -->
<g id="edge1_Node000001_Node000002" class="edge">
<title>Node2&#45;&gt;Node1</title>
<g id="a_edge1_Node000001_Node000002"><a xlink:title=" ">
<path fill="none" stroke="#63b8ff" d="M58.38,-156.79C58.38,-148.94 58.38,-140.4 58.38,-131.82"/>
<polygon fill="none" stroke="#63b8ff" points="54.88,-156.59 58.38,-166.59 61.88,-156.59 54.88,-156.59"/>
</a>
</g>
</g>
</g>
</svg>
</svg>

<style type='text/css'>
<![CDATA[
[data-mouse-over-selected='false'] { opacity: 0.7; }
[data-mouse-over-selected='true']  { opacity: 1.0; }
]]>
</style>
<script type="application/ecmascript"><![CDATA[
document.addEventListener('DOMContentLoaded', (event) => {
  highlightEdges();
  highlightAdjacentNodes();
});
]]></script>
</svg>
