<?xml version="1.0" encoding="UTF-8" standalone="no"?>
<!DOCTYPE svg PUBLIC "-//W3C//DTD SVG 1.1//EN"
 "http://www.w3.org/Graphics/SVG/1.1/DTD/svg11.dtd">
<!-- Generated by graphviz version 13.1.2 (0)
 -->
<!-- Title: anch::events::Observer&lt; T &gt; Pages: 1 -->
<svg width="871pt" height="379pt"
 viewBox="0.00 0.00 871.00 379.00" xmlns="http://www.w3.org/2000/svg" xmlns:xlink="http://www.w3.org/1999/xlink">
<g id="graph0" class="graph" transform="scale(1 1) rotate(0) translate(4 375)">
<title>anch::events::Observer&lt; T &gt;</title>
<!-- Node1 -->
<g id="Node000001" class="node">
<title>Node1</title>
<g id="a_Node000001"><a xlink:title="An observer interface of the observers/observable design pattern.">
<polygon fill="#999999" stroke="none" points="478.38,-371 345.12,-371 345.12,-319 478.38,-319 478.38,-371"/>
<text xml:space="preserve" text-anchor="start" x="349.12" y="-357.5" font-family="Helvetica,sans-Serif" font-size="10.00">anch::events::Observer&lt; T &gt;</text>
<text xml:space="preserve" text-anchor="start" x="410.25" y="-341.5" font-family="Helvetica,sans-Serif" font-size="10.00"> </text>
<text xml:space="preserve" text-anchor="start" x="369.31" y="-325.5" font-family="Helvetica,sans-Serif" font-size="10.00">+</text>
<text xml:space="preserve" text-anchor="start" x="399.5" y="-325.5" font-family="Helvetica,sans-Serif" font-size="10.00">handle()</text>
<polygon fill="#666666" stroke="#666666" points="345.12,-353 345.12,-353 478.38,-353 478.38,-353 345.12,-353"/>
<polygon fill="#666666" stroke="#666666" points="345.12,-337 345.12,-337 478.38,-337 478.38,-337 345.12,-337"/>
<polygon fill="none" stroke="#666666" points="345.12,-319 345.12,-371 478.38,-371 478.38,-319 345.12,-319"/>
</a>
</g>
</g>
<!-- Node2 -->
<g id="Node000002" class="node">
<title>Node2</title>
<g id="a_Node000002"><a xlink:href="classanch_1_1events_1_1_event_handler.html" target="_top" xlink:title="An event handler.">
<polygon fill="white" stroke="none" points="129.5,-265 0,-265 0,-153 129.5,-153 129.5,-265"/>
<text xml:space="preserve" text-anchor="start" x="4" y="-251.5" font-family="Helvetica,sans-Serif" font-size="10.00">anch::events::EventHandler</text>
<text xml:space="preserve" text-anchor="start" x="33.62" y="-239.5" font-family="Helvetica,sans-Serif" font-size="10.00">&lt; T, Derived &gt;</text>
<text xml:space="preserve" text-anchor="start" x="63.25" y="-223.5" font-family="Helvetica,sans-Serif" font-size="10.00"> </text>
<text xml:space="preserve" text-anchor="start" x="14.06" y="-207.5" font-family="Helvetica,sans-Serif" font-size="10.00">+</text>
<text xml:space="preserve" text-anchor="start" x="34.12" y="-207.5" font-family="Helvetica,sans-Serif" font-size="10.00">EventHandler()</text>
<text xml:space="preserve" text-anchor="start" x="14.06" y="-191.5" font-family="Helvetica,sans-Serif" font-size="10.00">+</text>
<text xml:space="preserve" text-anchor="start" x="34.12" y="-191.5" font-family="Helvetica,sans-Serif" font-size="10.00">EventHandler()</text>
<text xml:space="preserve" text-anchor="start" x="14.06" y="-175.5" font-family="Helvetica,sans-Serif" font-size="10.00">+</text>
<text xml:space="preserve" text-anchor="start" x="34.12" y="-175.5" font-family="Helvetica,sans-Serif" font-size="10.00">~EventHandler()</text>
<text xml:space="preserve" text-anchor="start" x="14.06" y="-159.5" font-family="Helvetica,sans-Serif" font-size="10.00">+</text>
<text xml:space="preserve" text-anchor="start" x="34.12" y="-159.5" font-family="Helvetica,sans-Serif" font-size="10.00">handle()</text>
<polygon fill="#666666" stroke="#666666" points="0,-235 0,-235 129.5,-235 129.5,-235 0,-235"/>
<polygon fill="#666666" stroke="#666666" points="0,-219 0,-219 129.5,-219 129.5,-219 0,-219"/>
<polygon fill="none" stroke="#666666" points="0,-153 0,-265 129.5,-265 129.5,-153 0,-153"/>
</a>
</g>
</g>
<!-- Node1&#45;&gt;Node2 -->
<g id="edge1_Node000001_Node000002" class="edge">
<title>Node1&#45;&gt;Node2</title>
<g id="a_edge1_Node000001_Node000002"><a xlink:title=" ">
<path fill="none" stroke="#63b8ff" d="M334.47,-332.4C296.28,-325.46 249.91,-315.18 209.75,-301 176.39,-289.22 168.83,-283.62 138.75,-265 135.62,-263.06 132.45,-261.03 129.29,-258.93"/>
<polygon fill="none" stroke="#63b8ff" points="333.57,-335.8 344.03,-334.1 334.79,-328.91 333.57,-335.8"/>
</a>
</g>
</g>
<!-- Node3 -->
<g id="Node000003" class="node">
<title>Node3</title>
<g id="a_Node000003"><a xlink:href="classanch_1_1events_1_1_observer.html" target="_top" xlink:title=" ">
<polygon fill="white" stroke="none" points="271.5,-241 148,-241 148,-177 271.5,-177 271.5,-241"/>
<text xml:space="preserve" text-anchor="start" x="152" y="-227.5" font-family="Helvetica,sans-Serif" font-size="10.00">anch::events::Observer</text>
<text xml:space="preserve" text-anchor="start" x="152" y="-215.5" font-family="Helvetica,sans-Serif" font-size="10.00">&lt; anch::json::JSONItem &gt;</text>
<text xml:space="preserve" text-anchor="start" x="208.25" y="-199.5" font-family="Helvetica,sans-Serif" font-size="10.00"> </text>
<text xml:space="preserve" text-anchor="start" x="169.75" y="-183.5" font-family="Helvetica,sans-Serif" font-size="10.00">+</text>
<text xml:space="preserve" text-anchor="start" x="197.5" y="-183.5" font-family="Helvetica,sans-Serif" font-size="10.00">handle()</text>
<polygon fill="#666666" stroke="#666666" points="148,-211 148,-211 271.5,-211 271.5,-211 148,-211"/>
<polygon fill="#666666" stroke="#666666" points="148,-195 148,-195 271.5,-195 271.5,-195 148,-195"/>
<polygon fill="none" stroke="#666666" points="148,-177 148,-241 271.5,-241 271.5,-177 148,-177"/>
</a>
</g>
</g>
<!-- Node1&#45;&gt;Node3 -->
<g id="edge2_Node000001_Node000003" class="edge">
<title>Node1&#45;&gt;Node3</title>
<g id="a_edge2_Node000001_Node000003"><a xlink:title=" ">
<path fill="none" stroke="orange" d="M334.21,-335.03C289.59,-328.23 239.44,-317.25 224.25,-301 209.39,-285.11 206.23,-260.42 206.53,-240.76"/>
<polygon fill="orange" stroke="orange" points="333.51,-338.46 343.91,-336.45 334.52,-331.54 333.51,-338.46"/>
</a>
</g>
<text xml:space="preserve" text-anchor="start" x="227.25" y="-288.5" font-family="Helvetica,sans-Serif" font-size="10.00" fill="grey">&lt; anch::json::JSONItem &gt;</text>
</g>
<!-- Node4 -->
<g id="Node000004" class="node">
<title>Node4</title>
<g id="a_Node000004"><a xlink:href="classanch_1_1events_1_1_observer.html" target="_top" xlink:title=" ">
<polygon fill="white" stroke="none" points="400.75,-241 290.75,-241 290.75,-177 400.75,-177 400.75,-241"/>
<text xml:space="preserve" text-anchor="start" x="294.75" y="-227.5" font-family="Helvetica,sans-Serif" font-size="10.00">anch::events::Observer</text>
<text xml:space="preserve" text-anchor="start" x="303" y="-215.5" font-family="Helvetica,sans-Serif" font-size="10.00">&lt; std::streamsize &gt;</text>
<text xml:space="preserve" text-anchor="start" x="344.25" y="-199.5" font-family="Helvetica,sans-Serif" font-size="10.00"> </text>
<text xml:space="preserve" text-anchor="start" x="309.12" y="-183.5" font-family="Helvetica,sans-Serif" font-size="10.00">+</text>
<text xml:space="preserve" text-anchor="start" x="333.5" y="-183.5" font-family="Helvetica,sans-Serif" font-size="10.00">handle()</text>
<polygon fill="#666666" stroke="#666666" points="290.75,-211 290.75,-211 400.75,-211 400.75,-211 290.75,-211"/>
<polygon fill="#666666" stroke="#666666" points="290.75,-195 290.75,-195 400.75,-195 400.75,-195 290.75,-195"/>
<polygon fill="none" stroke="#666666" points="290.75,-177 290.75,-241 400.75,-241 400.75,-177 290.75,-177"/>
</a>
</g>
</g>
<!-- Node1&#45;&gt;Node4 -->
<g id="edge3_Node000001_Node000004" class="edge">
<title>Node1&#45;&gt;Node4</title>
<g id="a_edge3_Node000001_Node000004"><a xlink:title=" ">
<path fill="none" stroke="orange" d="M363.52,-311.22C360.76,-308.02 358.28,-304.61 356.25,-301 346.02,-282.85 343.51,-259.45 343.5,-240.92"/>
<polygon fill="orange" stroke="orange" points="360.81,-313.45 370.32,-318.11 365.79,-308.53 360.81,-313.45"/>
</a>
</g>
<text xml:space="preserve" text-anchor="start" x="359.25" y="-288.5" font-family="Helvetica,sans-Serif" font-size="10.00" fill="grey">&lt; std::streamsize &gt;</text>
</g>
<!-- Node5 -->
<g id="Node000005" class="node">
<title>Node5</title>
<g id="a_Node000005"><a xlink:href="classanch_1_1events_1_1_observer.html" target="_top" xlink:title=" ">
<polygon fill="white" stroke="none" points="553.12,-241 418.38,-241 418.38,-177 553.12,-177 553.12,-241"/>
<text xml:space="preserve" text-anchor="start" x="422.38" y="-227.5" font-family="Helvetica,sans-Serif" font-size="10.00">anch::events::Observer</text>
<text xml:space="preserve" text-anchor="start" x="422.38" y="-215.5" font-family="Helvetica,sans-Serif" font-size="10.00">&lt; anch::json::MappingError &gt;</text>
<text xml:space="preserve" text-anchor="start" x="484.25" y="-199.5" font-family="Helvetica,sans-Serif" font-size="10.00"> </text>
<text xml:space="preserve" text-anchor="start" x="442.94" y="-183.5" font-family="Helvetica,sans-Serif" font-size="10.00">+</text>
<text xml:space="preserve" text-anchor="start" x="473.5" y="-183.5" font-family="Helvetica,sans-Serif" font-size="10.00">handle()</text>
<polygon fill="#666666" stroke="#666666" points="418.38,-211 418.38,-211 553.12,-211 553.12,-211 418.38,-211"/>
<polygon fill="#666666" stroke="#666666" points="418.38,-195 418.38,-195 553.12,-195 553.12,-195 418.38,-195"/>
<polygon fill="none" stroke="#666666" points="418.38,-177 418.38,-241 553.12,-241 553.12,-177 418.38,-177"/>
</a>
</g>
</g>
<!-- Node1&#45;&gt;Node5 -->
<g id="edge4_Node000001_Node000005" class="edge">
<title>Node1&#45;&gt;Node5</title>
<g id="a_edge4_Node000001_Node000005"><a xlink:title=" ">
<path fill="none" stroke="orange" d="M441.6,-310.19C443.8,-307.16 445.88,-304.08 447.75,-301 459.31,-281.98 468.93,-258.81 475.6,-240.61"/>
<polygon fill="orange" stroke="orange" points="439.04,-307.78 435.71,-317.84 444.59,-312.05 439.04,-307.78"/>
</a>
</g>
<text xml:space="preserve" text-anchor="start" x="459.85" y="-288.5" font-family="Helvetica,sans-Serif" font-size="10.00" fill="grey">&lt; anch::json::MappingError &gt;</text>
</g>
<!-- Node6 -->
<g id="Node000006" class="node">
<title>Node6</title>
<g id="a_Node000006"><a xlink:href="classanch_1_1events_1_1_observer.html" target="_top" xlink:title=" ">
<polygon fill="white" stroke="none" points="680.75,-241 570.75,-241 570.75,-177 680.75,-177 680.75,-241"/>
<text xml:space="preserve" text-anchor="start" x="574.75" y="-227.5" font-family="Helvetica,sans-Serif" font-size="10.00">anch::events::Observer</text>
<text xml:space="preserve" text-anchor="start" x="588.62" y="-215.5" font-family="Helvetica,sans-Serif" font-size="10.00">&lt; SocketEvent &gt;</text>
<text xml:space="preserve" text-anchor="start" x="624.25" y="-199.5" font-family="Helvetica,sans-Serif" font-size="10.00"> </text>
<text xml:space="preserve" text-anchor="start" x="589.12" y="-183.5" font-family="Helvetica,sans-Serif" font-size="10.00">+</text>
<text xml:space="preserve" text-anchor="start" x="613.5" y="-183.5" font-family="Helvetica,sans-Serif" font-size="10.00">handle()</text>
<polygon fill="#666666" stroke="#666666" points="570.75,-211 570.75,-211 680.75,-211 680.75,-211 570.75,-211"/>
<polygon fill="#666666" stroke="#666666" points="570.75,-195 570.75,-195 680.75,-195 680.75,-195 570.75,-195"/>
<polygon fill="none" stroke="#666666" points="570.75,-177 570.75,-241 680.75,-241 680.75,-177 570.75,-177"/>
</a>
</g>
</g>
<!-- Node1&#45;&gt;Node6 -->
<g id="edge5_Node000001_Node000006" class="edge">
<title>Node1&#45;&gt;Node6</title>
<g id="a_edge5_Node000001_Node000006"><a xlink:title=" ">
<path fill="none" stroke="orange" d="M489.32,-333.24C531.45,-325.96 578.07,-315.1 593.75,-301 610.81,-285.66 618.78,-260.68 622.49,-240.77"/>
<polygon fill="orange" stroke="orange" points="488.93,-329.76 479.65,-334.86 490.09,-336.66 488.93,-329.76"/>
</a>
</g>
<text xml:space="preserve" text-anchor="start" x="609.74" y="-288.5" font-family="Helvetica,sans-Serif" font-size="10.00" fill="grey">&lt; SocketEvent &gt;</text>
</g>
<!-- Node7 -->
<g id="Node000007" class="node">
<title>Node7</title>
<g id="a_Node000007"><a xlink:href="classanch_1_1events_1_1_observer.html" target="_top" xlink:title=" ">
<polygon fill="white" stroke="none" points="848.62,-241 698.88,-241 698.88,-177 848.62,-177 848.62,-241"/>
<text xml:space="preserve" text-anchor="start" x="702.88" y="-227.5" font-family="Helvetica,sans-Serif" font-size="10.00">anch::events::Observer</text>
<text xml:space="preserve" text-anchor="start" x="702.88" y="-215.5" font-family="Helvetica,sans-Serif" font-size="10.00">&lt; anch::network::SocketEvent &gt;</text>
<text xml:space="preserve" text-anchor="start" x="772.25" y="-199.5" font-family="Helvetica,sans-Serif" font-size="10.00"> </text>
<text xml:space="preserve" text-anchor="start" x="727.19" y="-183.5" font-family="Helvetica,sans-Serif" font-size="10.00">+</text>
<text xml:space="preserve" text-anchor="start" x="761.5" y="-183.5" font-family="Helvetica,sans-Serif" font-size="10.00">handle()</text>
<polygon fill="#666666" stroke="#666666" points="698.88,-211 698.88,-211 848.62,-211 848.62,-211 698.88,-211"/>
<polygon fill="#666666" stroke="#666666" points="698.88,-195 698.88,-195 848.62,-195 848.62,-195 698.88,-195"/>
<polygon fill="none" stroke="#666666" points="698.88,-177 698.88,-241 848.62,-241 848.62,-177 698.88,-177"/>
</a>
</g>
</g>
<!-- Node1&#45;&gt;Node7 -->
<g id="edge6_Node000001_Node000007" class="edge">
<title>Node1&#45;&gt;Node7</title>
<g id="a_edge6_Node000001_Node000007"><a xlink:title=" ">
<path fill="none" stroke="orange" d="M489.75,-337.81C559.87,-331.2 656.89,-319.15 690.75,-301 716.95,-286.96 739.16,-261.33 754,-240.85"/>
<polygon fill="orange" stroke="orange" points="489.44,-334.32 479.81,-338.72 490.09,-341.29 489.44,-334.32"/>
</a>
</g>
<text xml:space="preserve" text-anchor="start" x="718.37" y="-288.5" font-family="Helvetica,sans-Serif" font-size="10.00" fill="grey">&lt; anch::network::SocketEvent &gt;</text>
</g>
<!-- Node8 -->
<g id="Node000008" class="node">
<title>Node8</title>
<g id="a_Node000008"><a xlink:href="classanch_1_1ut_1_1_socket_server_runner.html" target="_top" xlink:title="Socket server unit tests runner.">
<polygon fill="white" stroke="none" points="843.75,-116 703.75,-116 703.75,0 843.75,0 843.75,-116"/>
<text xml:space="preserve" text-anchor="start" x="707.75" y="-102.5" font-family="Helvetica,sans-Serif" font-size="10.00">anch::ut::SocketServerRunner</text>
<text xml:space="preserve" text-anchor="start" x="772.25" y="-86.5" font-family="Helvetica,sans-Serif" font-size="10.00"> </text>
<text xml:space="preserve" text-anchor="start" x="712.56" y="-70.5" font-family="Helvetica,sans-Serif" font-size="10.00">+</text>
<text xml:space="preserve" text-anchor="start" x="727.38" y="-70.5" font-family="Helvetica,sans-Serif" font-size="10.00">SocketServerRunner()</text>
<text xml:space="preserve" text-anchor="start" x="712.56" y="-54.5" font-family="Helvetica,sans-Serif" font-size="10.00">+</text>
<text xml:space="preserve" text-anchor="start" x="727.38" y="-54.5" font-family="Helvetica,sans-Serif" font-size="10.00">SocketServerRunner()</text>
<text xml:space="preserve" text-anchor="start" x="712.56" y="-38.5" font-family="Helvetica,sans-Serif" font-size="10.00">+</text>
<text xml:space="preserve" text-anchor="start" x="727.38" y="-38.5" font-family="Helvetica,sans-Serif" font-size="10.00">SocketServerRunner()</text>
<text xml:space="preserve" text-anchor="start" x="712.56" y="-22.5" font-family="Helvetica,sans-Serif" font-size="10.00">+</text>
<text xml:space="preserve" text-anchor="start" x="727.38" y="-22.5" font-family="Helvetica,sans-Serif" font-size="10.00">~SocketServerRunner()</text>
<text xml:space="preserve" text-anchor="start" x="712.56" y="-6.5" font-family="Helvetica,sans-Serif" font-size="10.00">+</text>
<text xml:space="preserve" text-anchor="start" x="727.38" y="-6.5" font-family="Helvetica,sans-Serif" font-size="10.00">handle()</text>
<polygon fill="#666666" stroke="#666666" points="703.75,-98 703.75,-98 843.75,-98 843.75,-98 703.75,-98"/>
<polygon fill="#666666" stroke="#666666" points="703.75,-82 703.75,-82 843.75,-82 843.75,-82 703.75,-82"/>
<polygon fill="none" stroke="#666666" points="703.75,0 703.75,-116 843.75,-116 843.75,0 703.75,0"/>
</a>
</g>
</g>
<!-- Node7&#45;&gt;Node8 -->
<g id="edge7_Node000007_Node000008" class="edge">
<title>Node7&#45;&gt;Node8</title>
<g id="a_edge7_Node000007_Node000008"><a xlink:title=" ">
<path fill="none" stroke="#8b1a1a" d="M773.75,-165.75C773.75,-150.21 773.75,-132.34 773.75,-115.73"/>
<polygon fill="none" stroke="#8b1a1a" points="770.25,-165.61 773.75,-175.61 777.25,-165.61 770.25,-165.61"/>
</a>
</g>
</g>
</g>
</svg>
