<?xml version="1.0" encoding="UTF-8" standalone="no"?>
<!DOCTYPE svg PUBLIC "-//W3C//DTD SVG 1.1//EN"
 "http://www.w3.org/Graphics/SVG/1.1/DTD/svg11.dtd">
<!-- Generated by graphviz version 12.2.1 (0)
 -->
<!-- Title: anch::json::Reader Pages: 1 -->
<!--zoomable 665 -->

<svg id="main" version="1.1" xmlns="http://www.w3.org/2000/svg" xmlns:xlink="http://www.w3.org/1999/xlink" xml:space="preserve" onload="init(evt)">

<style type="text/css"><![CDATA[
.node, .edge {opacity: 0.7;}
.node.selected, .edge.selected {opacity: 1;}
.edge:hover path { stroke: red; }
.edge:hover polygon { stroke: red; fill: red; }
]]></style>

<defs>
  <circle id="rim" cx="0" cy="0" r="7"/>
  <circle id="rim2" cx="0" cy="0" r="3.5"/>
  <g id="zoomPlus">
    <use xlink:href="#rim" fill="#404040"><set attributeName="fill" to="#808080" begin="zoomplus.mouseover" end="zoomplus.mouseout"/></use>
    <path d="M-4,0h8M0,-4v8" fill="none" stroke="white" stroke-width="1.5" pointer-events="none"/>
  </g>
  <g id="zoomMin">
    <use xlink:href="#rim" fill="#404040"><set attributeName="fill" to="#808080" begin="zoomminus.mouseover" end="zoomminus.mouseout"/></use>
    <path d="M-4,0h8" fill="none" stroke="white" stroke-width="1.5" pointer-events="none"/>
  </g>
  <g id="arrowUp" transform="translate(30 24)">
    <use xlink:href="#rim"/>
    <path pointer-events="none" fill="none" stroke="white" stroke-width="1.5" d="M0,-3.0v7 M-2.5,-0.5L0,-3.0L2.5,-0.5"/>
  </g>
  <g id="arrowRight" transform="rotate(90) translate(36 -43)">
    <use xlink:href="#rim"/>
    <path pointer-events="none" fill="none" stroke="white" stroke-width="1.5" d="M0,-3.0v7 M-2.5,-0.5L0,-3.0L2.5,-0.5"/>
  </g>
  <g id="arrowDown" transform="rotate(180) translate(-30 -48)">
    <use xlink:href="#rim"/>
    <path pointer-events="none" fill="none" stroke="white" stroke-width="1.5" d="M0,-3.0v7 M-2.5,-0.5L0,-3.0L2.5,-0.5"/>
  </g>
  <g id="arrowLeft" transform="rotate(270) translate(-36 17)">
    <use xlink:href="#rim"/>
    <path pointer-events="none" fill="none" stroke="white" stroke-width="1.5" d="M0,-3.0v7 M-2.5,-0.5L0,-3.0L2.5,-0.5"/>
  </g>
  <g id="resetDef">
    <use xlink:href="#rim2" fill="#404040"><set attributeName="fill" to="#808080" begin="reset.mouseover" end="reset.mouseout"/></use>
  </g>
</defs>
<script type="application/ecmascript">
var viewWidth = 565;
var viewHeight = 665;
var sectionId = 'dynsection-0';
</script>
<script type="application/ecmascript" xlink:href="svg.min.js"/>
<svg id="graph" class="graph">
<g id="viewport">
<title>anch::json::Reader</title>
<!-- Node1 -->
<g id="Node000001" class="node">
<title>Node1</title>
<g id="a_Node000001"><a xlink:title="JSON reader based on events.">
<polygon fill="#999999" stroke="none" points="310,-148 219.5,-148 219.5,0 310,0 310,-148"/>
<text text-anchor="start" x="223.5" y="-134.5" font-family="Helvetica,sans-Serif" font-size="10.00">anch::json::Reader</text>
<text text-anchor="start" x="263.25" y="-118.5" font-family="Helvetica,sans-Serif" font-size="10.00"> </text>
<text text-anchor="start" x="229.25" y="-102.5" font-family="Helvetica,sans-Serif" font-size="10.00">+</text>
<text text-anchor="start" x="245" y="-102.5" font-family="Helvetica,sans-Serif" font-size="10.00">Reader()</text>
<text text-anchor="start" x="229.25" y="-86.5" font-family="Helvetica,sans-Serif" font-size="10.00">+</text>
<text text-anchor="start" x="245" y="-86.5" font-family="Helvetica,sans-Serif" font-size="10.00">Reader()</text>
<text text-anchor="start" x="229.25" y="-70.5" font-family="Helvetica,sans-Serif" font-size="10.00">+</text>
<text text-anchor="start" x="245" y="-70.5" font-family="Helvetica,sans-Serif" font-size="10.00">Reader()</text>
<text text-anchor="start" x="229.25" y="-54.5" font-family="Helvetica,sans-Serif" font-size="10.00">+</text>
<text text-anchor="start" x="245" y="-54.5" font-family="Helvetica,sans-Serif" font-size="10.00">Reader()</text>
<text text-anchor="start" x="229.25" y="-38.5" font-family="Helvetica,sans-Serif" font-size="10.00">+</text>
<text text-anchor="start" x="245" y="-38.5" font-family="Helvetica,sans-Serif" font-size="10.00">~Reader()</text>
<text text-anchor="start" x="229.25" y="-22.5" font-family="Helvetica,sans-Serif" font-size="10.00">+</text>
<text text-anchor="start" x="245" y="-22.5" font-family="Helvetica,sans-Serif" font-size="10.00">parse()</text>
<text text-anchor="start" x="229.62" y="-6.5" font-family="Helvetica,sans-Serif" font-size="10.00">#</text>
<text text-anchor="start" x="245" y="-6.5" font-family="Helvetica,sans-Serif" font-size="10.00">refillBuffer()</text>
<polygon fill="#666666" stroke="#666666" points="219.5,-130 219.5,-130 310,-130 310,-130 219.5,-130"/>
<polygon fill="#666666" stroke="#666666" points="219.5,-114 219.5,-114 310,-114 310,-114 219.5,-114"/>
<polygon fill="none" stroke="#666666" points="219.5,0 219.5,-148 310,-148 310,0 219.5,0"/>
</a>
</g>
</g>
<!-- Node2 -->
<g id="Node000002" class="node">
<title>Node2</title>
<g id="a_Node000002"><a xlink:href="classanch_1_1events_1_1_observable.html" target="_top" xlink:title=" ">
<polygon fill="white" stroke="none" points="123.5,-403 0,-403 0,-259 123.5,-259 123.5,-403"/>
<text text-anchor="start" x="4" y="-389.5" font-family="Helvetica,sans-Serif" font-size="10.00">anch::events::Observable</text>
<text text-anchor="start" x="4" y="-377.5" font-family="Helvetica,sans-Serif" font-size="10.00">&lt; anch::json::JSONItem &gt;</text>
<text text-anchor="start" x="60.25" y="-361.5" font-family="Helvetica,sans-Serif" font-size="10.00"> </text>
<text text-anchor="start" x="10.88" y="-345.5" font-family="Helvetica,sans-Serif" font-size="10.00">+</text>
<text text-anchor="start" x="27.75" y="-345.5" font-family="Helvetica,sans-Serif" font-size="10.00">Observable()</text>
<text text-anchor="start" x="10.88" y="-329.5" font-family="Helvetica,sans-Serif" font-size="10.00">+</text>
<text text-anchor="start" x="27.75" y="-329.5" font-family="Helvetica,sans-Serif" font-size="10.00">~Observable()</text>
<text text-anchor="start" x="10.88" y="-313.5" font-family="Helvetica,sans-Serif" font-size="10.00">+</text>
<text text-anchor="start" x="27.75" y="-313.5" font-family="Helvetica,sans-Serif" font-size="10.00">addObserver()</text>
<text text-anchor="start" x="10.88" y="-297.5" font-family="Helvetica,sans-Serif" font-size="10.00">+</text>
<text text-anchor="start" x="27.75" y="-297.5" font-family="Helvetica,sans-Serif" font-size="10.00">removeObserver()</text>
<text text-anchor="start" x="10.88" y="-281.5" font-family="Helvetica,sans-Serif" font-size="10.00">+</text>
<text text-anchor="start" x="27.75" y="-281.5" font-family="Helvetica,sans-Serif" font-size="10.00">notifyObservers()</text>
<text text-anchor="start" x="10.88" y="-265.5" font-family="Helvetica,sans-Serif" font-size="10.00">+</text>
<text text-anchor="start" x="27.75" y="-265.5" font-family="Helvetica,sans-Serif" font-size="10.00">notifyObservers()</text>
<polygon fill="#666666" stroke="#666666" points="0,-373 0,-373 123.5,-373 123.5,-373 0,-373"/>
<polygon fill="#666666" stroke="#666666" points="0,-357 0,-357 123.5,-357 123.5,-357 0,-357"/>
<polygon fill="none" stroke="#666666" points="0,-259 0,-403 123.5,-403 123.5,-259 0,-259"/>
</a>
</g>
</g>
<!-- Node2&#45;&gt;Node1 -->
<g id="edge1_Node000001_Node000002" class="edge">
<title>Node2&#45;&gt;Node1</title>
<g id="a_edge1_Node000001_Node000002"><a xlink:title=" ">
<path fill="none" stroke="#63b8ff" d="M94.12,-248.75C104.74,-226.94 117.73,-204.13 132.75,-185 157.25,-153.8 191.92,-125.32 219.59,-105.17"/>
<polygon fill="none" stroke="#63b8ff" points="91.02,-247.11 89.91,-257.65 97.35,-250.11 91.02,-247.11"/>
</a>
</g>
</g>
<!-- Node3 -->
<g id="Node000003" class="node">
<title>Node3</title>
<g id="a_Node000003"><a xlink:href="classanch_1_1events_1_1_observable.html" target="_top" xlink:title="An observable implementation of the observers/observable design pattern.">
<polygon fill="white" stroke="none" points="275.25,-657 132.25,-657 132.25,-525 275.25,-525 275.25,-657"/>
<text text-anchor="start" x="136.25" y="-643.5" font-family="Helvetica,sans-Serif" font-size="10.00">anch::events::Observable&lt; T &gt;</text>
<text text-anchor="start" x="202.25" y="-627.5" font-family="Helvetica,sans-Serif" font-size="10.00"> </text>
<text text-anchor="start" x="148" y="-611.5" font-family="Helvetica,sans-Serif" font-size="10.00">+</text>
<text text-anchor="start" x="169.75" y="-611.5" font-family="Helvetica,sans-Serif" font-size="10.00">Observable()</text>
<text text-anchor="start" x="148" y="-595.5" font-family="Helvetica,sans-Serif" font-size="10.00">+</text>
<text text-anchor="start" x="169.75" y="-595.5" font-family="Helvetica,sans-Serif" font-size="10.00">~Observable()</text>
<text text-anchor="start" x="148" y="-579.5" font-family="Helvetica,sans-Serif" font-size="10.00">+</text>
<text text-anchor="start" x="169.75" y="-579.5" font-family="Helvetica,sans-Serif" font-size="10.00">addObserver()</text>
<text text-anchor="start" x="148" y="-563.5" font-family="Helvetica,sans-Serif" font-size="10.00">+</text>
<text text-anchor="start" x="169.75" y="-563.5" font-family="Helvetica,sans-Serif" font-size="10.00">removeObserver()</text>
<text text-anchor="start" x="148" y="-547.5" font-family="Helvetica,sans-Serif" font-size="10.00">+</text>
<text text-anchor="start" x="169.75" y="-547.5" font-family="Helvetica,sans-Serif" font-size="10.00">notifyObservers()</text>
<text text-anchor="start" x="148" y="-531.5" font-family="Helvetica,sans-Serif" font-size="10.00">+</text>
<text text-anchor="start" x="169.75" y="-531.5" font-family="Helvetica,sans-Serif" font-size="10.00">notifyObservers()</text>
<polygon fill="#666666" stroke="#666666" points="132.25,-639 132.25,-639 275.25,-639 275.25,-639 132.25,-639"/>
<polygon fill="#666666" stroke="#666666" points="132.25,-623 132.25,-623 275.25,-623 275.25,-623 132.25,-623"/>
<polygon fill="none" stroke="#666666" points="132.25,-525 132.25,-657 275.25,-657 275.25,-525 132.25,-525"/>
</a>
</g>
</g>
<!-- Node3&#45;&gt;Node2 -->
<g id="edge2_Node000002_Node000003" class="edge">
<title>Node3&#45;&gt;Node2</title>
<g id="a_edge2_Node000002_Node000003"><a xlink:title=" ">
<path fill="none" stroke="orange" d="M123.04,-550.67C106.36,-538.88 90.71,-524.36 80.25,-507 61.65,-476.12 56.26,-436.53 55.86,-402.81"/>
<polygon fill="orange" stroke="orange" points="120.87,-553.43 131.12,-556.09 124.77,-547.61 120.87,-553.43"/>
</a>
</g>
<text text-anchor="middle" x="139.5" y="-497.5" font-family="Helvetica,sans-Serif" font-size="10.00" fill="grey"> &lt; anch::json::JSONItem &gt;</text>
</g>
<!-- Node4 -->
<g id="Node000004" class="node">
<title>Node4</title>
<g id="a_Node000004"><a xlink:href="classanch_1_1events_1_1_observable.html" target="_top" xlink:title=" ">
<polygon fill="white" stroke="none" points="261.62,-403 141.88,-403 141.88,-259 261.62,-259 261.62,-403"/>
<text text-anchor="start" x="145.88" y="-389.5" font-family="Helvetica,sans-Serif" font-size="10.00">anch::events::Observable</text>
<text text-anchor="start" x="159" y="-377.5" font-family="Helvetica,sans-Serif" font-size="10.00">&lt; std::streamsize &gt;</text>
<text text-anchor="start" x="200.25" y="-361.5" font-family="Helvetica,sans-Serif" font-size="10.00"> </text>
<text text-anchor="start" x="151.81" y="-345.5" font-family="Helvetica,sans-Serif" font-size="10.00">+</text>
<text text-anchor="start" x="167.75" y="-345.5" font-family="Helvetica,sans-Serif" font-size="10.00">Observable()</text>
<text text-anchor="start" x="151.81" y="-329.5" font-family="Helvetica,sans-Serif" font-size="10.00">+</text>
<text text-anchor="start" x="167.75" y="-329.5" font-family="Helvetica,sans-Serif" font-size="10.00">~Observable()</text>
<text text-anchor="start" x="151.81" y="-313.5" font-family="Helvetica,sans-Serif" font-size="10.00">+</text>
<text text-anchor="start" x="167.75" y="-313.5" font-family="Helvetica,sans-Serif" font-size="10.00">addObserver()</text>
<text text-anchor="start" x="151.81" y="-297.5" font-family="Helvetica,sans-Serif" font-size="10.00">+</text>
<text text-anchor="start" x="167.75" y="-297.5" font-family="Helvetica,sans-Serif" font-size="10.00">removeObserver()</text>
<text text-anchor="start" x="151.81" y="-281.5" font-family="Helvetica,sans-Serif" font-size="10.00">+</text>
<text text-anchor="start" x="167.75" y="-281.5" font-family="Helvetica,sans-Serif" font-size="10.00">notifyObservers()</text>
<text text-anchor="start" x="151.81" y="-265.5" font-family="Helvetica,sans-Serif" font-size="10.00">+</text>
<text text-anchor="start" x="167.75" y="-265.5" font-family="Helvetica,sans-Serif" font-size="10.00">notifyObservers()</text>
<polygon fill="#666666" stroke="#666666" points="141.88,-373 141.88,-373 261.62,-373 261.62,-373 141.88,-373"/>
<polygon fill="#666666" stroke="#666666" points="141.88,-357 141.88,-357 261.62,-357 261.62,-357 141.88,-357"/>
<polygon fill="none" stroke="#666666" points="141.88,-259 141.88,-403 261.62,-403 261.62,-259 141.88,-259"/>
</a>
</g>
</g>
<!-- Node3&#45;&gt;Node4 -->
<g id="edge4_Node000004_Node000003" class="edge">
<title>Node3&#45;&gt;Node4</title>
<g id="a_edge4_Node000004_Node000003"><a xlink:title=" ">
<path fill="none" stroke="orange" d="M203.16,-514.04C202.89,-478.83 202.57,-437.23 202.3,-402.7"/>
<polygon fill="orange" stroke="orange" points="199.66,-513.74 203.24,-523.72 206.66,-513.69 199.66,-513.74"/>
</a>
</g>
<text text-anchor="middle" x="247.35" y="-497.5" font-family="Helvetica,sans-Serif" font-size="10.00" fill="grey"> &lt; std::streamsize &gt;</text>
</g>
<!-- Node5 -->
<g id="Node000005" class="node">
<title>Node5</title>
<g id="a_Node000005"><a xlink:href="classanch_1_1events_1_1_observable.html" target="_top" xlink:title=" ">
<polygon fill="white" stroke="none" points="414.12,-403 279.38,-403 279.38,-259 414.12,-259 414.12,-403"/>
<text text-anchor="start" x="283.38" y="-389.5" font-family="Helvetica,sans-Serif" font-size="10.00">anch::events::Observable</text>
<text text-anchor="start" x="283.38" y="-377.5" font-family="Helvetica,sans-Serif" font-size="10.00">&lt; anch::json::MappingError &gt;</text>
<text text-anchor="start" x="345.25" y="-361.5" font-family="Helvetica,sans-Serif" font-size="10.00"> </text>
<text text-anchor="start" x="293.06" y="-345.5" font-family="Helvetica,sans-Serif" font-size="10.00">+</text>
<text text-anchor="start" x="312.75" y="-345.5" font-family="Helvetica,sans-Serif" font-size="10.00">Observable()</text>
<text text-anchor="start" x="293.06" y="-329.5" font-family="Helvetica,sans-Serif" font-size="10.00">+</text>
<text text-anchor="start" x="312.75" y="-329.5" font-family="Helvetica,sans-Serif" font-size="10.00">~Observable()</text>
<text text-anchor="start" x="293.06" y="-313.5" font-family="Helvetica,sans-Serif" font-size="10.00">+</text>
<text text-anchor="start" x="312.75" y="-313.5" font-family="Helvetica,sans-Serif" font-size="10.00">addObserver()</text>
<text text-anchor="start" x="293.06" y="-297.5" font-family="Helvetica,sans-Serif" font-size="10.00">+</text>
<text text-anchor="start" x="312.75" y="-297.5" font-family="Helvetica,sans-Serif" font-size="10.00">removeObserver()</text>
<text text-anchor="start" x="293.06" y="-281.5" font-family="Helvetica,sans-Serif" font-size="10.00">+</text>
<text text-anchor="start" x="312.75" y="-281.5" font-family="Helvetica,sans-Serif" font-size="10.00">notifyObservers()</text>
<text text-anchor="start" x="293.06" y="-265.5" font-family="Helvetica,sans-Serif" font-size="10.00">+</text>
<text text-anchor="start" x="312.75" y="-265.5" font-family="Helvetica,sans-Serif" font-size="10.00">notifyObservers()</text>
<polygon fill="#666666" stroke="#666666" points="279.38,-373 279.38,-373 414.12,-373 414.12,-373 279.38,-373"/>
<polygon fill="#666666" stroke="#666666" points="279.38,-357 279.38,-357 414.12,-357 414.12,-357 279.38,-357"/>
<polygon fill="none" stroke="#666666" points="279.38,-259 279.38,-403 414.12,-403 414.12,-259 279.38,-259"/>
</a>
</g>
</g>
<!-- Node3&#45;&gt;Node5 -->
<g id="edge6_Node000005_Node000003" class="edge">
<title>Node3&#45;&gt;Node5</title>
<g id="a_edge6_Node000005_Node000003"><a xlink:title=" ">
<path fill="none" stroke="orange" d="M282.43,-525.12C287.32,-519.3 291.83,-513.24 295.75,-507 315.51,-475.5 327.87,-436.05 335.47,-402.58"/>
<polygon fill="orange" stroke="orange" points="280.06,-522.51 276.04,-532.32 285.3,-527.16 280.06,-522.51"/>
</a>
</g>
<text text-anchor="middle" x="365.62" y="-497.5" font-family="Helvetica,sans-Serif" font-size="10.00" fill="grey"> &lt; anch::json::MappingError &gt;</text>
</g>
<!-- Node4&#45;&gt;Node1 -->
<g id="edge3_Node000001_Node000004" class="edge">
<title>Node4&#45;&gt;Node1</title>
<g id="a_edge3_Node000001_Node000004"><a xlink:title=" ">
<path fill="none" stroke="#63b8ff" d="M221.88,-248.5C229.89,-216.09 239.03,-179.09 246.81,-147.61"/>
<polygon fill="none" stroke="#63b8ff" points="218.58,-247.29 219.58,-257.84 225.37,-248.97 218.58,-247.29"/>
</a>
</g>
</g>
<!-- Node5&#45;&gt;Node1 -->
<g id="edge5_Node000001_Node000005" class="edge">
<title>Node5&#45;&gt;Node1</title>
<g id="a_edge5_Node000001_Node000005"><a xlink:title=" ">
<path fill="none" stroke="#63b8ff" d="M320.54,-248.5C310.12,-216.09 298.22,-179.09 288.1,-147.61"/>
<polygon fill="none" stroke="#63b8ff" points="317.16,-249.42 323.55,-257.87 323.82,-247.27 317.16,-249.42"/>
</a>
</g>
</g>
<!-- Node6 -->
<g id="Node000006" class="node">
<title>Node6</title>
<g id="a_Node000006"><a xlink:href="classanch_1_1json_1_1_reader_context.html" target="_top" xlink:title="JSON mapper context.">
<polygon fill="white" stroke="none" points="557.25,-477 432.25,-477 432.25,-185 557.25,-185 557.25,-477"/>
<text text-anchor="start" x="436.25" y="-463.5" font-family="Helvetica,sans-Serif" font-size="10.00">anch::json::ReaderContext</text>
<text text-anchor="start" x="443.5" y="-447.5" font-family="Helvetica,sans-Serif" font-size="10.00">+</text>
<text text-anchor="start" x="460.75" y="-447.5" font-family="Helvetica,sans-Serif" font-size="10.00">input</text>
<text text-anchor="start" x="443.5" y="-431.5" font-family="Helvetica,sans-Serif" font-size="10.00">+</text>
<text text-anchor="start" x="460.75" y="-431.5" font-family="Helvetica,sans-Serif" font-size="10.00">options</text>
<text text-anchor="start" x="443.5" y="-415.5" font-family="Helvetica,sans-Serif" font-size="10.00">+</text>
<text text-anchor="start" x="460.75" y="-415.5" font-family="Helvetica,sans-Serif" font-size="10.00">pbuf</text>
<text text-anchor="start" x="443.5" y="-399.5" font-family="Helvetica,sans-Serif" font-size="10.00">+</text>
<text text-anchor="start" x="460.75" y="-399.5" font-family="Helvetica,sans-Serif" font-size="10.00">offset</text>
<text text-anchor="start" x="443.5" y="-383.5" font-family="Helvetica,sans-Serif" font-size="10.00">+</text>
<text text-anchor="start" x="460.75" y="-383.5" font-family="Helvetica,sans-Serif" font-size="10.00">bufferSize</text>
<text text-anchor="start" x="443.5" y="-367.5" font-family="Helvetica,sans-Serif" font-size="10.00">+</text>
<text text-anchor="start" x="460.75" y="-367.5" font-family="Helvetica,sans-Serif" font-size="10.00">buffer</text>
<text text-anchor="start" x="443.5" y="-351.5" font-family="Helvetica,sans-Serif" font-size="10.00">+</text>
<text text-anchor="start" x="460.75" y="-351.5" font-family="Helvetica,sans-Serif" font-size="10.00">read</text>
<text text-anchor="start" x="443.5" y="-335.5" font-family="Helvetica,sans-Serif" font-size="10.00">+</text>
<text text-anchor="start" x="460.75" y="-335.5" font-family="Helvetica,sans-Serif" font-size="10.00">ReaderContext()</text>
<text text-anchor="start" x="443.5" y="-319.5" font-family="Helvetica,sans-Serif" font-size="10.00">+</text>
<text text-anchor="start" x="460.75" y="-319.5" font-family="Helvetica,sans-Serif" font-size="10.00">ReaderContext()</text>
<text text-anchor="start" x="443.5" y="-303.5" font-family="Helvetica,sans-Serif" font-size="10.00">+</text>
<text text-anchor="start" x="460.75" y="-303.5" font-family="Helvetica,sans-Serif" font-size="10.00">ReaderContext()</text>
<text text-anchor="start" x="443.5" y="-287.5" font-family="Helvetica,sans-Serif" font-size="10.00">+</text>
<text text-anchor="start" x="460.75" y="-287.5" font-family="Helvetica,sans-Serif" font-size="10.00">ReaderContext()</text>
<text text-anchor="start" x="443.5" y="-271.5" font-family="Helvetica,sans-Serif" font-size="10.00">+</text>
<text text-anchor="start" x="460.75" y="-271.5" font-family="Helvetica,sans-Serif" font-size="10.00">~ReaderContext()</text>
<text text-anchor="start" x="443.5" y="-255.5" font-family="Helvetica,sans-Serif" font-size="10.00">+</text>
<text text-anchor="start" x="460.75" y="-255.5" font-family="Helvetica,sans-Serif" font-size="10.00">discard()</text>
<text text-anchor="start" x="443.5" y="-239.5" font-family="Helvetica,sans-Serif" font-size="10.00">+</text>
<text text-anchor="start" x="460.75" y="-239.5" font-family="Helvetica,sans-Serif" font-size="10.00">parseUnknown()</text>
<text text-anchor="start" x="443.5" y="-223.5" font-family="Helvetica,sans-Serif" font-size="10.00">+</text>
<text text-anchor="start" x="460.75" y="-223.5" font-family="Helvetica,sans-Serif" font-size="10.00">next()</text>
<text text-anchor="start" x="443.5" y="-207.5" font-family="Helvetica,sans-Serif" font-size="10.00">+</text>
<text text-anchor="start" x="460.75" y="-207.5" font-family="Helvetica,sans-Serif" font-size="10.00">back()</text>
<text text-anchor="start" x="443.88" y="-191.5" font-family="Helvetica,sans-Serif" font-size="10.00">#</text>
<text text-anchor="start" x="460.75" y="-191.5" font-family="Helvetica,sans-Serif" font-size="10.00">refillBuffer()</text>
<polygon fill="#666666" stroke="#666666" points="432.25,-459 432.25,-459 557.25,-459 557.25,-459 432.25,-459"/>
<polygon fill="#666666" stroke="#666666" points="432.25,-347 432.25,-347 458.75,-347 458.75,-347 432.25,-347"/>
<polygon fill="#666666" stroke="#666666" points="458.75,-347 458.75,-347 557.25,-347 557.25,-347 458.75,-347"/>
<polygon fill="none" stroke="#666666" points="432.25,-185 432.25,-477 557.25,-477 557.25,-185 432.25,-185"/>
</a>
</g>
</g>
<!-- Node6&#45;&gt;Node1 -->
<g id="edge7_Node000001_Node000006" class="edge">
<title>Node6&#45;&gt;Node1</title>
<g id="a_edge7_Node000001_Node000006"><a xlink:title=" ">
<path fill="none" stroke="#8b1a1a" d="M425.51,-188.27C424.6,-187.17 423.68,-186.08 422.75,-185 390.99,-148.18 344.29,-117.68 309.9,-98.21"/>
<polygon fill="none" stroke="#8b1a1a" points="422.48,-190.08 431.4,-195.79 427.99,-185.76 422.48,-190.08"/>
</a>
</g>
</g>
</g>
</svg>

<g id="navigator" transform="translate(0 0)" fill="#404254">
  <rect fill="#f2f5e9" fill-opacity="0.5" stroke="#606060" stroke-width=".5" x="0" y="0" width="60" height="60"/>
  <use id="zoomplus" xlink:href="#zoomPlus" x="17" y="9" onmousedown="handleZoom(evt,'in')"/>
  <use id="zoomminus" xlink:href="#zoomMin" x="42" y="9" onmousedown="handleZoom(evt,'out')"/>
  <use id="reset" xlink:href="#resetDef" x="30" y="36" onmousedown="handleReset()"/>
   <use id="arrowup" xlink:href="#arrowUp" x="0" y="0" onmousedown="handlePan(0,-1)"/>
  <use id="arrowright" xlink:href="#arrowRight" x="0" y="0" onmousedown="handlePan(1,0)"/>
  <use id="arrowdown" xlink:href="#arrowDown" x="0" y="0" onmousedown="handlePan(0,1)"/>
  <use id="arrowleft" xlink:href="#arrowLeft" x="0" y="0" onmousedown="handlePan(-1,0)"/>
</g>
<svg viewBox="0 0 15 15" width="100%" height="30px" preserveAspectRatio="xMaxYMin meet">
 <g id="arrow_out" transform="scale(0.3 0.3)">
  <a xlink:href="classanch_1_1json_1_1_reader__inherit__graph_org.svg" target="_base">
   <rect id="button" ry="5" rx="5" y="6" x="6" height="38" width="38"
        fill="#f2f5e9" fill-opacity="0.5" stroke="#606060" stroke-width="1.0"/>
   <path id="arrow"
     d="M 11.500037,31.436501 C 11.940474,20.09759 22.043105,11.32322 32.158766,21.979434 L 37.068811,17.246167 C 37.068811,17.246167 37.088388,32 37.088388,32 L 22.160133,31.978069 C 22.160133,31.978069 26.997745,27.140456 26.997745,27.140456 C 18.528582,18.264221 13.291696,25.230495 11.500037,31.436501 z"
     style="fill:#404040;"/>
  </a>
 </g>
</svg>

<style type='text/css'>
<![CDATA[
[data-mouse-over-selected='false'] { opacity: 0.7; }
[data-mouse-over-selected='true']  { opacity: 1.0; }
]]>
</style>
<script type="application/ecmascript"><![CDATA[
document.addEventListener('DOMContentLoaded', (event) => {
  highlightEdges();
  highlightAdjacentNodes();
});
]]></script>
</svg>
