<?xml version="1.0" encoding="UTF-8" standalone="no"?>
<!DOCTYPE svg PUBLIC "-//W3C//DTD SVG 1.1//EN"
 "http://www.w3.org/Graphics/SVG/1.1/DTD/svg11.dtd">
<!-- Generated by graphviz version 2.40.1 (20161225.0304)
 -->
<!-- Title: anch::sql::PostgreSQLConnection Pages: 1 -->
<!--zoomable 1225 -->
<svg id="main" version="1.1" xmlns="http://www.w3.org/2000/svg" xmlns:xlink="http://www.w3.org/1999/xlink" xml:space="preserve" onload="init(evt)">
<style type="text/css"><![CDATA[
.edge:hover path { stroke: red; }
.edge:hover polygon { stroke: red; fill: red; }
]]></style>
<script type="text/javascript"><![CDATA[
var edges = document.getElementsByTagName('g');
if (edges && edges.length) {
  for (var i=0;i<edges.length;i++) {
    if (edges[i].id.substr(0,4)=='edge') {
      edges[i].setAttribute('class','edge');
    }
  }
}
]]></script>
        <defs>
                <circle id="rim" cx="0" cy="0" r="7"/>
                <circle id="rim2" cx="0" cy="0" r="3.5"/>
                <g id="zoomPlus">
                        <use xlink:href="#rim" fill="#404040">
                                <set attributeName="fill" to="#808080" begin="zoomplus.mouseover" end="zoomplus.mouseout"/>
                        </use>
                        <path d="M-4,0h8M0,-4v8" fill="none" stroke="white" stroke-width="1.5" pointer-events="none"/>
                </g>
                <g id="zoomMin">
                        <use xlink:href="#rim" fill="#404040">
                                <set attributeName="fill" to="#808080" begin="zoomminus.mouseover" end="zoomminus.mouseout"/>
                        </use>
                        <path d="M-4,0h8" fill="none" stroke="white" stroke-width="1.5" pointer-events="none"/>
                </g>
                <g id="dirArrow">
                        <path fill="none" stroke="white" stroke-width="1.5" d="M0,-3.0v7 M-2.5,-0.5L0,-3.0L2.5,-0.5"/>
                </g>
               <g id="resetDef">
                       <use xlink:href="#rim2" fill="#404040">
                               <set attributeName="fill" to="#808080" begin="reset.mouseover" end="reset.mouseout"/>
                       </use>
               </g>
        </defs>

<script type="text/javascript">
var viewWidth = 394;
var viewHeight = 1225;
var sectionId = 'dynsection-1';
</script>
<script xlink:href="svgpan.js"/>
<svg id="graph" class="graph">
<g id="viewport">
<title>anch::sql::PostgreSQLConnection</title>
<!-- Node2 -->
<g id="node1" class="node">
<title>Node2</title>
<polygon fill="#bfbfbf" stroke="#000000" points="55,-.5 55,-167.5 231,-167.5 231,-.5 55,-.5"/>
<text text-anchor="middle" x="143" y="-155.5" font-family="Helvetica,sans-Serif" font-size="10.00" fill="#000000">anch::sql::PostgreSQLConnection</text>
<polyline fill="none" stroke="#000000" points="55,-148.5 231,-148.5 "/>
<text text-anchor="middle" x="143" y="-136.5" font-family="Helvetica,sans-Serif" font-size="10.00" fill="#000000"> </text>
<polyline fill="none" stroke="#000000" points="55,-129.5 231,-129.5 "/>
<text text-anchor="start" x="63" y="-117.5" font-family="Helvetica,sans-Serif" font-size="10.00" fill="#000000">+ PostgreSQLConnection()</text>
<text text-anchor="start" x="63" y="-106.5" font-family="Helvetica,sans-Serif" font-size="10.00" fill="#000000">+ PostgreSQLConnection()</text>
<text text-anchor="start" x="63" y="-95.5" font-family="Helvetica,sans-Serif" font-size="10.00" fill="#000000">+ PostgreSQLConnection()</text>
<text text-anchor="start" x="63" y="-84.5" font-family="Helvetica,sans-Serif" font-size="10.00" fill="#000000">+ PostgreSQLConnection()</text>
<text text-anchor="start" x="63" y="-73.5" font-family="Helvetica,sans-Serif" font-size="10.00" fill="#000000">+ ~PostgreSQLConnection()</text>
<text text-anchor="start" x="63" y="-62.5" font-family="Helvetica,sans-Serif" font-size="10.00" fill="#000000"># executeQuery()</text>
<text text-anchor="start" x="63" y="-51.5" font-family="Helvetica,sans-Serif" font-size="10.00" fill="#000000"># executeUpdate()</text>
<text text-anchor="start" x="63" y="-40.5" font-family="Helvetica,sans-Serif" font-size="10.00" fill="#000000"># sendCommit()</text>
<text text-anchor="start" x="63" y="-29.5" font-family="Helvetica,sans-Serif" font-size="10.00" fill="#000000"># sendRollback()</text>
<text text-anchor="start" x="63" y="-18.5" font-family="Helvetica,sans-Serif" font-size="10.00" fill="#000000"># sendStartTransaction()</text>
<text text-anchor="start" x="63" y="-7.5" font-family="Helvetica,sans-Serif" font-size="10.00" fill="#000000"># makePrepared()</text>
</g>
<!-- Node3 -->
<g id="node2" class="node">
<title>Node3</title>
<g id="a_node2"><a xlink:href="classanch_1_1sql_1_1_connection.html" target="_top" xlink:title="SQL connection virtual class. ">
<polygon fill="none" stroke="#000000" points="74.5,-205.5 74.5,-460.5 211.5,-460.5 211.5,-205.5 74.5,-205.5"/>
<text text-anchor="middle" x="143" y="-448.5" font-family="Helvetica,sans-Serif" font-size="10.00" fill="#000000">anch::sql::Connection</text>
<polyline fill="none" stroke="#000000" points="74.5,-441.5 211.5,-441.5 "/>
<text text-anchor="start" x="82.5" y="-429.5" font-family="Helvetica,sans-Serif" font-size="10.00" fill="#000000"># _valid</text>
<text text-anchor="start" x="82.5" y="-418.5" font-family="Helvetica,sans-Serif" font-size="10.00" fill="#000000"># _transaction</text>
<polyline fill="none" stroke="#000000" points="74.5,-411.5 211.5,-411.5 "/>
<text text-anchor="start" x="82.5" y="-399.5" font-family="Helvetica,sans-Serif" font-size="10.00" fill="#000000">+ Connection()</text>
<text text-anchor="start" x="82.5" y="-388.5" font-family="Helvetica,sans-Serif" font-size="10.00" fill="#000000">+ Connection()</text>
<text text-anchor="start" x="82.5" y="-377.5" font-family="Helvetica,sans-Serif" font-size="10.00" fill="#000000">+ ~Connection()</text>
<text text-anchor="start" x="82.5" y="-366.5" font-family="Helvetica,sans-Serif" font-size="10.00" fill="#000000">+ startTransaction()</text>
<text text-anchor="start" x="82.5" y="-355.5" font-family="Helvetica,sans-Serif" font-size="10.00" fill="#000000">+ begin()</text>
<text text-anchor="start" x="82.5" y="-344.5" font-family="Helvetica,sans-Serif" font-size="10.00" fill="#000000">+ commit()</text>
<text text-anchor="start" x="82.5" y="-333.5" font-family="Helvetica,sans-Serif" font-size="10.00" fill="#000000">+ rollback()</text>
<text text-anchor="start" x="82.5" y="-322.5" font-family="Helvetica,sans-Serif" font-size="10.00" fill="#000000">+ prepareStatement()</text>
<text text-anchor="start" x="82.5" y="-311.5" font-family="Helvetica,sans-Serif" font-size="10.00" fill="#000000">+ query()</text>
<text text-anchor="start" x="82.5" y="-300.5" font-family="Helvetica,sans-Serif" font-size="10.00" fill="#000000">+ queryMapRow()</text>
<text text-anchor="start" x="82.5" y="-289.5" font-family="Helvetica,sans-Serif" font-size="10.00" fill="#000000">and 8 more...</text>
<text text-anchor="start" x="82.5" y="-278.5" font-family="Helvetica,sans-Serif" font-size="10.00" fill="#000000"># executeQuery()</text>
<text text-anchor="start" x="82.5" y="-267.5" font-family="Helvetica,sans-Serif" font-size="10.00" fill="#000000"># executeUpdate()</text>
<text text-anchor="start" x="82.5" y="-256.5" font-family="Helvetica,sans-Serif" font-size="10.00" fill="#000000"># sendStartTransaction()</text>
<text text-anchor="start" x="82.5" y="-245.5" font-family="Helvetica,sans-Serif" font-size="10.00" fill="#000000"># sendCommit()</text>
<text text-anchor="start" x="82.5" y="-234.5" font-family="Helvetica,sans-Serif" font-size="10.00" fill="#000000"># sendRollback()</text>
<text text-anchor="start" x="82.5" y="-223.5" font-family="Helvetica,sans-Serif" font-size="10.00" fill="#000000"># makePrepared()</text>
<text text-anchor="start" x="82.5" y="-212.5" font-family="Helvetica,sans-Serif" font-size="10.00" fill="#000000"># setValid()</text>
</a>
</g>
</g>
<!-- Node3&#45;&gt;Node2 -->
<g id="edge1" class="edge">
<title>Node3&#45;&gt;Node2</title>
<path fill="none" stroke="#191970" d="M143,-195.0561C143,-185.7191 143,-176.4843 143,-167.5648"/>
<polygon fill="none" stroke="#191970" points="139.5001,-195.2176 143,-205.2176 146.5001,-195.2177 139.5001,-195.2176"/>
</g>
<!-- Node4 -->
<g id="node3" class="node">
<title>Node4</title>
<polygon fill="none" stroke="#bfbfbf" points="53,-508.5 53,-576.5 233,-576.5 233,-508.5 53,-508.5"/>
<text text-anchor="start" x="61" y="-564.5" font-family="Helvetica,sans-Serif" font-size="10.00" fill="#000000">std::map&lt; std::string,</text>
<text text-anchor="middle" x="143" y="-553.5" font-family="Helvetica,sans-Serif" font-size="10.00" fill="#000000"> anch::sql::PreparedStatement *&gt;</text>
<polyline fill="none" stroke="#bfbfbf" points="53,-546.5 233,-546.5 "/>
<text text-anchor="middle" x="143" y="-534.5" font-family="Helvetica,sans-Serif" font-size="10.00" fill="#000000"> </text>
<polyline fill="none" stroke="#bfbfbf" points="53,-527.5 233,-527.5 "/>
<text text-anchor="middle" x="143" y="-515.5" font-family="Helvetica,sans-Serif" font-size="10.00" fill="#000000"> </text>
</g>
<!-- Node4&#45;&gt;Node3 -->
<g id="edge2" class="edge">
<title>Node4&#45;&gt;Node3</title>
<path fill="none" stroke="#404040" d="M143,-508.3739C143,-497.9877 143,-485.8676 143,-472.9382"/>
<polygon fill="none" stroke="#404040" points="143.0001,-472.8633 139,-466.8633 143,-460.8633 147,-466.8632 143.0001,-472.8633"/>
<text text-anchor="middle" x="165.5" y="-482" font-family="Helvetica,sans-Serif" font-size="10.00" fill="#000000"> #_stmts</text>
</g>
<!-- Node5 -->
<g id="node4" class="node">
<title>Node5</title>
<g id="a_node4"><a xlink:href="classanch_1_1sql_1_1_prepared_statement.html" target="_top" xlink:title="SQL prepared statement. ">
<polygon fill="none" stroke="#000000" points="62.5,-624.5 62.5,-857.5 223.5,-857.5 223.5,-624.5 62.5,-624.5"/>
<text text-anchor="middle" x="143" y="-845.5" font-family="Helvetica,sans-Serif" font-size="10.00" fill="#000000">anch::sql::PreparedStatement</text>
<polyline fill="none" stroke="#000000" points="62.5,-838.5 223.5,-838.5 "/>
<text text-anchor="start" x="70.5" y="-826.5" font-family="Helvetica,sans-Serif" font-size="10.00" fill="#000000"># _nbPlaceholders</text>
<polyline fill="none" stroke="#000000" points="62.5,-819.5 223.5,-819.5 "/>
<text text-anchor="start" x="70.5" y="-807.5" font-family="Helvetica,sans-Serif" font-size="10.00" fill="#000000">+ PreparedStatement()</text>
<text text-anchor="start" x="70.5" y="-796.5" font-family="Helvetica,sans-Serif" font-size="10.00" fill="#000000">+ ~PreparedStatement()</text>
<text text-anchor="start" x="70.5" y="-785.5" font-family="Helvetica,sans-Serif" font-size="10.00" fill="#000000">+ executeQuery()</text>
<text text-anchor="start" x="70.5" y="-774.5" font-family="Helvetica,sans-Serif" font-size="10.00" fill="#000000">+ executeUpdate()</text>
<text text-anchor="start" x="70.5" y="-763.5" font-family="Helvetica,sans-Serif" font-size="10.00" fill="#000000">+ set()</text>
<text text-anchor="start" x="70.5" y="-752.5" font-family="Helvetica,sans-Serif" font-size="10.00" fill="#000000">+ set()</text>
<text text-anchor="start" x="70.5" y="-741.5" font-family="Helvetica,sans-Serif" font-size="10.00" fill="#000000">+ set()</text>
<text text-anchor="start" x="70.5" y="-730.5" font-family="Helvetica,sans-Serif" font-size="10.00" fill="#000000">+ set()</text>
<text text-anchor="start" x="70.5" y="-719.5" font-family="Helvetica,sans-Serif" font-size="10.00" fill="#000000">+ set()</text>
<text text-anchor="start" x="70.5" y="-708.5" font-family="Helvetica,sans-Serif" font-size="10.00" fill="#000000">+ set()</text>
<text text-anchor="start" x="70.5" y="-697.5" font-family="Helvetica,sans-Serif" font-size="10.00" fill="#000000">+ set()</text>
<text text-anchor="start" x="70.5" y="-686.5" font-family="Helvetica,sans-Serif" font-size="10.00" fill="#000000">+ set()</text>
<text text-anchor="start" x="70.5" y="-675.5" font-family="Helvetica,sans-Serif" font-size="10.00" fill="#000000">+ set()</text>
<text text-anchor="start" x="70.5" y="-664.5" font-family="Helvetica,sans-Serif" font-size="10.00" fill="#000000">+ set()</text>
<text text-anchor="start" x="70.5" y="-653.5" font-family="Helvetica,sans-Serif" font-size="10.00" fill="#000000">+ set()</text>
<text text-anchor="start" x="70.5" y="-642.5" font-family="Helvetica,sans-Serif" font-size="10.00" fill="#000000"># getPlaceholders()</text>
<text text-anchor="start" x="70.5" y="-631.5" font-family="Helvetica,sans-Serif" font-size="10.00" fill="#000000"># checkIndex()</text>
</a>
</g>
</g>
<!-- Node5&#45;&gt;Node4 -->
<g id="edge3" class="edge">
<title>Node5&#45;&gt;Node4</title>
<path fill="none" stroke="#404040" d="M143,-624.3836C143,-611.8885 143,-599.7725 143,-588.8612"/>
<polygon fill="none" stroke="#404040" points="143.0001,-588.6551 139,-582.6552 143,-576.6551 147,-582.6551 143.0001,-588.6551"/>
<text text-anchor="middle" x="172" y="-598" font-family="Helvetica,sans-Serif" font-size="10.00" fill="#000000"> +elements</text>
</g>
<!-- Node6 -->
<g id="node5" class="node">
<title>Node6</title>
<polygon fill="none" stroke="#bfbfbf" points="87.5,-916.5 87.5,-984.5 198.5,-984.5 198.5,-916.5 87.5,-916.5"/>
<text text-anchor="start" x="95.5" y="-972.5" font-family="Helvetica,sans-Serif" font-size="10.00" fill="#000000">std::map&lt; std::size</text>
<text text-anchor="middle" x="143" y="-961.5" font-family="Helvetica,sans-Serif" font-size="10.00" fill="#000000">_t, std::string &gt;</text>
<polyline fill="none" stroke="#bfbfbf" points="87.5,-954.5 198.5,-954.5 "/>
<text text-anchor="start" x="95.5" y="-942.5" font-family="Helvetica,sans-Serif" font-size="10.00" fill="#000000">+ keys</text>
<polyline fill="none" stroke="#bfbfbf" points="87.5,-935.5 198.5,-935.5 "/>
<text text-anchor="middle" x="143" y="-923.5" font-family="Helvetica,sans-Serif" font-size="10.00" fill="#000000"> </text>
</g>
<!-- Node6&#45;&gt;Node5 -->
<g id="edge4" class="edge">
<title>Node6&#45;&gt;Node5</title>
<path fill="none" stroke="#404040" d="M143,-916.3739C143,-903.1253 143,-887.0553 143,-870.0832"/>
<polygon fill="none" stroke="#404040" points="143.0001,-869.5929 139,-863.5929 143,-857.5929 147,-863.5928 143.0001,-869.5929"/>
<text text-anchor="middle" x="167.5" y="-884.5" font-family="Helvetica,sans-Serif" font-size="10.00" fill="#000000"> #_values</text>
</g>
<!-- Node7 -->
<g id="node6" class="node">
<title>Node7</title>
<g id="a_node6"><a xlink:title="STL class. ">
<polygon fill="none" stroke="#bfbfbf" points="19.5,-1043.5 19.5,-1100.5 84.5,-1100.5 84.5,-1043.5 19.5,-1043.5"/>
<text text-anchor="middle" x="52" y="-1088.5" font-family="Helvetica,sans-Serif" font-size="10.00" fill="#000000">std::string</text>
<polyline fill="none" stroke="#bfbfbf" points="19.5,-1081.5 84.5,-1081.5 "/>
<text text-anchor="middle" x="52" y="-1069.5" font-family="Helvetica,sans-Serif" font-size="10.00" fill="#000000"> </text>
<polyline fill="none" stroke="#bfbfbf" points="19.5,-1062.5 84.5,-1062.5 "/>
<text text-anchor="middle" x="52" y="-1050.5" font-family="Helvetica,sans-Serif" font-size="10.00" fill="#000000"> </text>
</a>
</g>
</g>
<!-- Node7&#45;&gt;Node4 -->
<g id="edge10" class="edge">
<title>Node7&#45;&gt;Node4</title>
<path fill="none" stroke="#404040" d="M44.4521,-1043.3581C26.6305,-969.8116 -11.887,-769.8574 53,-624 59.5545,-609.2664 70.2285,-596.0606 81.9746,-584.7852"/>
<polygon fill="none" stroke="#404040" points="82.2021,-584.5802 83.9807,-577.5919 91.1155,-576.5458 89.3369,-583.5341 82.2021,-584.5802"/>
<text text-anchor="middle" x="38.5" y="-884.5" font-family="Helvetica,sans-Serif" font-size="10.00" fill="#000000"> +keys</text>
</g>
<!-- Node7&#45;&gt;Node6 -->
<g id="edge5" class="edge">
<title>Node7&#45;&gt;Node6</title>
<path fill="none" stroke="#404040" d="M62.6987,-1043.4041C68.2867,-1030.4102 75.873,-1015.2428 85,-1003 87.4696,-999.6874 90.1713,-996.4206 93.0151,-993.2357"/>
<polygon fill="none" stroke="#404040" points="93.0539,-993.1949 94.2962,-986.0916 101.3309,-984.5062 100.0886,-991.6096 93.0539,-993.1949"/>
<text text-anchor="middle" x="114" y="-1011.5" font-family="Helvetica,sans-Serif" font-size="10.00" fill="#000000"> +elements</text>
</g>
<!-- Node8 -->
<g id="node7" class="node">
<title>Node8</title>
<g id="a_node7"><a xlink:title="STL class. ">
<polygon fill="none" stroke="#bfbfbf" points="0,-1148.5 0,-1216.5 104,-1216.5 104,-1148.5 0,-1148.5"/>
<text text-anchor="start" x="8" y="-1204.5" font-family="Helvetica,sans-Serif" font-size="10.00" fill="#000000">std::basic_string&lt;</text>
<text text-anchor="middle" x="52" y="-1193.5" font-family="Helvetica,sans-Serif" font-size="10.00" fill="#000000"> char &gt;</text>
<polyline fill="none" stroke="#bfbfbf" points="0,-1186.5 104,-1186.5 "/>
<text text-anchor="middle" x="52" y="-1174.5" font-family="Helvetica,sans-Serif" font-size="10.00" fill="#000000"> </text>
<polyline fill="none" stroke="#bfbfbf" points="0,-1167.5 104,-1167.5 "/>
<text text-anchor="middle" x="52" y="-1155.5" font-family="Helvetica,sans-Serif" font-size="10.00" fill="#000000"> </text>
</a>
</g>
</g>
<!-- Node8&#45;&gt;Node7 -->
<g id="edge6" class="edge">
<title>Node8&#45;&gt;Node7</title>
<path fill="none" stroke="#191970" d="M52,-1138.0661C52,-1125.4172 52,-1111.9812 52,-1100.5519"/>
<polygon fill="none" stroke="#191970" points="48.5001,-1138.4447 52,-1148.4447 55.5001,-1138.4447 48.5001,-1138.4447"/>
</g>
<!-- Node9 -->
<g id="node8" class="node">
<title>Node9</title>
<g id="a_node8"><a xlink:title="STL class. ">
<polygon fill="none" stroke="#bfbfbf" points="143.5,-1043.5 143.5,-1100.5 244.5,-1100.5 244.5,-1043.5 143.5,-1043.5"/>
<text text-anchor="middle" x="194" y="-1088.5" font-family="Helvetica,sans-Serif" font-size="10.00" fill="#000000">std::map&lt; K, T &gt;</text>
<polyline fill="none" stroke="#bfbfbf" points="143.5,-1081.5 244.5,-1081.5 "/>
<text text-anchor="middle" x="194" y="-1069.5" font-family="Helvetica,sans-Serif" font-size="10.00" fill="#000000"> </text>
<polyline fill="none" stroke="#bfbfbf" points="143.5,-1062.5 244.5,-1062.5 "/>
<text text-anchor="middle" x="194" y="-1050.5" font-family="Helvetica,sans-Serif" font-size="10.00" fill="#000000"> </text>
</a>
</g>
</g>
<!-- Node9&#45;&gt;Node4 -->
<g id="edge11" class="edge">
<title>Node9&#45;&gt;Node4</title>
<path fill="none" stroke="#ffa500" d="M232.8248,-1035.087C234.8584,-1031.8522 236.6255,-1028.4793 238,-1025 241.5924,-1015.9061 238.0645,-1012.7776 238,-1003 236.8889,-834.5446 297.1278,-779.7758 233,-624 225.3768,-605.4822 211.0175,-589.4847 195.9714,-576.687"/>
<polygon fill="#ffa500" stroke="#ffa500" points="229.9098,-1033.1455 226.9059,-1043.3056 235.5901,-1037.2364 229.9098,-1033.1455"/>
<text text-anchor="start" x="248" y="-890" font-family="Helvetica,sans-Serif" font-size="10.00" fill="#000000"> &lt; std::string, anch</text>
<text text-anchor="middle" x="317" y="-879" font-family="Helvetica,sans-Serif" font-size="10.00" fill="#000000">::sql::PreparedStatement *&gt;</text>
</g>
<!-- Node9&#45;&gt;Node6 -->
<g id="edge7" class="edge">
<title>Node9&#45;&gt;Node6</title>
<path fill="none" stroke="#ffa500" d="M158.5011,-1034.9818C156.4157,-1031.7481 154.543,-1028.4059 153,-1025 147.3455,-1012.5186 144.6471,-997.7428 143.4313,-984.6546"/>
<polygon fill="#ffa500" stroke="#ffa500" points="155.7649,-1037.1721 164.4377,-1043.2576 161.4528,-1033.0919 155.7649,-1037.1721"/>
<text text-anchor="start" x="153" y="-1017" font-family="Helvetica,sans-Serif" font-size="10.00" fill="#000000"> &lt; std::size_t, std</text>
<text text-anchor="middle" x="195.5" y="-1006" font-family="Helvetica,sans-Serif" font-size="10.00" fill="#000000">::string &gt;</text>
</g>
<!-- Node10 -->
<g id="node9" class="node">
<title>Node10</title>
<polygon fill="none" stroke="#bfbfbf" points="150.5,-1154 150.5,-1211 179.5,-1211 179.5,-1154 150.5,-1154"/>
<text text-anchor="middle" x="165" y="-1199" font-family="Helvetica,sans-Serif" font-size="10.00" fill="#000000">K</text>
<polyline fill="none" stroke="#bfbfbf" points="150.5,-1192 179.5,-1192 "/>
<text text-anchor="middle" x="165" y="-1180" font-family="Helvetica,sans-Serif" font-size="10.00" fill="#000000"> </text>
<polyline fill="none" stroke="#bfbfbf" points="150.5,-1173 179.5,-1173 "/>
<text text-anchor="middle" x="165" y="-1161" font-family="Helvetica,sans-Serif" font-size="10.00" fill="#000000"> </text>
</g>
<!-- Node10&#45;&gt;Node9 -->
<g id="edge8" class="edge">
<title>Node10&#45;&gt;Node9</title>
<path fill="none" stroke="#404040" d="M162.3345,-1153.9089C162.1033,-1142.8209 162.8394,-1130.1372 166,-1119 166.7268,-1116.4387 167.6302,-1113.8749 168.6628,-1111.3397"/>
<polygon fill="none" stroke="#404040" points="168.6717,-1111.3209 167.6655,-1104.1803 173.8699,-1100.5052 174.876,-1107.6457 168.6717,-1111.3209"/>
<text text-anchor="middle" x="183.5" y="-1122" font-family="Helvetica,sans-Serif" font-size="10.00" fill="#000000"> +keys</text>
</g>
<!-- Node11 -->
<g id="node10" class="node">
<title>Node11</title>
<polygon fill="none" stroke="#bfbfbf" points="208.5,-1154 208.5,-1211 237.5,-1211 237.5,-1154 208.5,-1154"/>
<text text-anchor="middle" x="223" y="-1199" font-family="Helvetica,sans-Serif" font-size="10.00" fill="#000000">T</text>
<polyline fill="none" stroke="#bfbfbf" points="208.5,-1192 237.5,-1192 "/>
<text text-anchor="middle" x="223" y="-1180" font-family="Helvetica,sans-Serif" font-size="10.00" fill="#000000"> </text>
<polyline fill="none" stroke="#bfbfbf" points="208.5,-1173 237.5,-1173 "/>
<text text-anchor="middle" x="223" y="-1161" font-family="Helvetica,sans-Serif" font-size="10.00" fill="#000000"> </text>
</g>
<!-- Node11&#45;&gt;Node9 -->
<g id="edge9" class="edge">
<title>Node11&#45;&gt;Node9</title>
<path fill="none" stroke="#404040" d="M215.4563,-1153.7559C212.1334,-1141.0945 208.1717,-1125.9992 204.5623,-1112.2459"/>
<polygon fill="none" stroke="#404040" points="204.5522,-1112.2071 199.1601,-1107.4191 201.5059,-1100.6002 206.898,-1105.3883 204.5522,-1112.2071"/>
<text text-anchor="middle" x="238" y="-1122" font-family="Helvetica,sans-Serif" font-size="10.00" fill="#000000"> +elements</text>
</g>
</g>
</svg>
        <g id="navigator" transform="translate(0 0)" fill="#404254">
                <rect fill="#f2f5e9" fill-opacity="0.5" stroke="#606060" stroke-width=".5" x="0" y="0" width="60" height="60"/>
                <use id="zoomplus" xlink:href="#zoomPlus" x="17" y="9" onmousedown="handleZoom(evt,'in')"/>
                <use id="zoomminus" xlink:href="#zoomMin" x="42" y="9" onmousedown="handleZoom(evt,'out')"/>
                <use id="reset" xlink:href="#resetDef" x="30" y="36" onmousedown="handleReset()"/>
                <g id="arrowUp" xlink:href="#dirArrow" transform="translate(30 24)" onmousedown="handlePan(0,-1)">
                  <use xlink:href="#rim" fill="#404040">
                        <set attributeName="fill" to="#808080" begin="arrowUp.mouseover" end="arrowUp.mouseout"/>
                  </use>
                  <path fill="none" stroke="white" stroke-width="1.5" d="M0,-3.0v7 M-2.5,-0.5L0,-3.0L2.5,-0.5"/>
                </g>
                <g id="arrowRight" xlink:href="#dirArrow" transform="rotate(90) translate(36 -43)" onmousedown="handlePan(1,0)">
                  <use xlink:href="#rim" fill="#404040">
                        <set attributeName="fill" to="#808080" begin="arrowRight.mouseover" end="arrowRight.mouseout"/>
                  </use>
                  <path fill="none" stroke="white" stroke-width="1.5" d="M0,-3.0v7 M-2.5,-0.5L0,-3.0L2.5,-0.5"/>
                </g>
                <g id="arrowDown" xlink:href="#dirArrow" transform="rotate(180) translate(-30 -48)" onmousedown="handlePan(0,1)">
                  <use xlink:href="#rim" fill="#404040">
                        <set attributeName="fill" to="#808080" begin="arrowDown.mouseover" end="arrowDown.mouseout"/>
                  </use>
                  <path fill="none" stroke="white" stroke-width="1.5" d="M0,-3.0v7 M-2.5,-0.5L0,-3.0L2.5,-0.5"/>
                </g>
                <g id="arrowLeft" xlink:href="#dirArrow" transform="rotate(270) translate(-36 17)" onmousedown="handlePan(-1,0)">
                  <use xlink:href="#rim" fill="#404040">
                        <set attributeName="fill" to="#808080" begin="arrowLeft.mouseover" end="arrowLeft.mouseout"/>
                  </use>
                  <path fill="none" stroke="white" stroke-width="1.5" d="M0,-3.0v7 M-2.5,-0.5L0,-3.0L2.5,-0.5"/>
                </g>
        </g>
        <svg viewBox="0 0 15 15" width="100%" height="30px" preserveAspectRatio="xMaxYMin meet">
         <g id="arrow_out" transform="scale(0.3 0.3)">
          <a xlink:href="classanch_1_1sql_1_1_postgre_s_q_l_connection__coll__graph_org.svg" target="_base">
           <rect id="button" ry="5" rx="5" y="6" x="6" height="38" width="38"
                fill="#f2f5e9" fill-opacity="0.5" stroke="#606060" stroke-width="1.0"/>
           <path id="arrow"
             d="M 11.500037,31.436501 C 11.940474,20.09759 22.043105,11.32322 32.158766,21.979434 L 37.068811,17.246167 C 37.068811,17.246167 37.088388,32 37.088388,32 L 22.160133,31.978069 C 22.160133,31.978069 26.997745,27.140456 26.997745,27.140456 C 18.528582,18.264221 13.291696,25.230495 11.500037,31.436501 z"
             style="fill:#404040;"/>
          </a>
         </g>
        </svg>
</svg>
