<?xml version="1.0" encoding="UTF-8" standalone="no"?>
<!DOCTYPE svg PUBLIC "-//W3C//DTD SVG 1.1//EN"
 "http://www.w3.org/Graphics/SVG/1.1/DTD/svg11.dtd">
<!-- Generated by graphviz version 2.40.1 (20161225.0304)
 -->
<!-- Title: anch::crypto::BlockCipher&lt; B &gt; Pages: 1 -->
<svg width="178pt" height="376pt"
 viewBox="0.00 0.00 178.00 376.00" xmlns="http://www.w3.org/2000/svg" xmlns:xlink="http://www.w3.org/1999/xlink">
<g id="graph0" class="graph" transform="scale(1 1) rotate(0) translate(4 372)">
<title>anch::crypto::BlockCipher&lt; B &gt;</title>
<!-- Node0 -->
<g id="node1" class="node">
<title>Node0</title>
<polygon fill="#bfbfbf" stroke="#000000" points="0,-288.5 0,-367.5 170,-367.5 170,-288.5 0,-288.5"/>
<text text-anchor="middle" x="85" y="-355.5" font-family="Helvetica,sans-Serif" font-size="10.00" fill="#000000">anch::crypto::BlockCipher&lt; B &gt;</text>
<polyline fill="none" stroke="#000000" points="0,-348.5 170,-348.5 "/>
<text text-anchor="middle" x="85" y="-336.5" font-family="Helvetica,sans-Serif" font-size="10.00" fill="#000000"> </text>
<polyline fill="none" stroke="#000000" points="0,-329.5 170,-329.5 "/>
<text text-anchor="start" x="8" y="-317.5" font-family="Helvetica,sans-Serif" font-size="10.00" fill="#000000">+ cipher()</text>
<text text-anchor="start" x="8" y="-306.5" font-family="Helvetica,sans-Serif" font-size="10.00" fill="#000000">+ decipher()</text>
<text text-anchor="start" x="8" y="-295.5" font-family="Helvetica,sans-Serif" font-size="10.00" fill="#000000">+ getBlockSize()</text>
</g>
<!-- Node1 -->
<g id="node2" class="node">
<title>Node1</title>
<g id="a_node2"><a xlink:href="classanch_1_1crypto_1_1_block_cipher.html" target="_top" xlink:title="{anch::crypto::BlockCipher\l\&lt; 16 \&gt;\n||+ cipher()\l+ decipher()\l+ getBlockSize()\l}">
<polygon fill="none" stroke="#000000" points="14.5,-150.5 14.5,-240.5 155.5,-240.5 155.5,-150.5 14.5,-150.5"/>
<text text-anchor="start" x="22.5" y="-228.5" font-family="Helvetica,sans-Serif" font-size="10.00" fill="#000000">anch::crypto::BlockCipher</text>
<text text-anchor="middle" x="85" y="-217.5" font-family="Helvetica,sans-Serif" font-size="10.00" fill="#000000">&lt; 16 &gt;</text>
<polyline fill="none" stroke="#000000" points="14.5,-210.5 155.5,-210.5 "/>
<text text-anchor="middle" x="85" y="-198.5" font-family="Helvetica,sans-Serif" font-size="10.00" fill="#000000"> </text>
<polyline fill="none" stroke="#000000" points="14.5,-191.5 155.5,-191.5 "/>
<text text-anchor="start" x="22.5" y="-179.5" font-family="Helvetica,sans-Serif" font-size="10.00" fill="#000000">+ cipher()</text>
<text text-anchor="start" x="22.5" y="-168.5" font-family="Helvetica,sans-Serif" font-size="10.00" fill="#000000">+ decipher()</text>
<text text-anchor="start" x="22.5" y="-157.5" font-family="Helvetica,sans-Serif" font-size="10.00" fill="#000000">+ getBlockSize()</text>
</a>
</g>
</g>
<!-- Node0&#45;&gt;Node1 -->
<g id="edge1" class="edge">
<title>Node0&#45;&gt;Node1</title>
<path fill="none" stroke="#ffa500" d="M85,-278.172C85,-265.9073 85,-252.8413 85,-240.8036"/>
<polygon fill="#ffa500" stroke="#ffa500" points="81.5001,-278.2456 85,-288.2456 88.5001,-278.2457 81.5001,-278.2456"/>
<text text-anchor="middle" x="104" y="-262" font-family="Helvetica,sans-Serif" font-size="10.00" fill="#000000"> &lt; 16 &gt;</text>
</g>
<!-- Node2 -->
<g id="node3" class="node">
<title>Node2</title>
<g id="a_node3"><a xlink:href="classanch_1_1crypto_1_1_a_e_s.html" target="_top" xlink:title="AES block cipher algorithm implementation. ">
<polygon fill="none" stroke="#000000" points="30,-.5 30,-112.5 140,-112.5 140,-.5 30,-.5"/>
<text text-anchor="start" x="38" y="-100.5" font-family="Helvetica,sans-Serif" font-size="10.00" fill="#000000">anch::crypto::AES&lt;</text>
<text text-anchor="middle" x="85" y="-89.5" font-family="Helvetica,sans-Serif" font-size="10.00" fill="#000000"> K, R &gt;</text>
<polyline fill="none" stroke="#000000" points="30,-82.5 140,-82.5 "/>
<text text-anchor="middle" x="85" y="-70.5" font-family="Helvetica,sans-Serif" font-size="10.00" fill="#000000"> </text>
<polyline fill="none" stroke="#000000" points="30,-63.5 140,-63.5 "/>
<text text-anchor="start" x="38" y="-51.5" font-family="Helvetica,sans-Serif" font-size="10.00" fill="#000000">+ AES()</text>
<text text-anchor="start" x="38" y="-40.5" font-family="Helvetica,sans-Serif" font-size="10.00" fill="#000000">+ AES()</text>
<text text-anchor="start" x="38" y="-29.5" font-family="Helvetica,sans-Serif" font-size="10.00" fill="#000000">+ ~AES()</text>
<text text-anchor="start" x="38" y="-18.5" font-family="Helvetica,sans-Serif" font-size="10.00" fill="#000000">+ cipher()</text>
<text text-anchor="start" x="38" y="-7.5" font-family="Helvetica,sans-Serif" font-size="10.00" fill="#000000">+ decipher()</text>
</a>
</g>
</g>
<!-- Node1&#45;&gt;Node2 -->
<g id="edge2" class="edge">
<title>Node1&#45;&gt;Node2</title>
<path fill="none" stroke="#191970" d="M85,-140.2708C85,-131.1654 85,-121.7185 85,-112.5922"/>
<polygon fill="none" stroke="#191970" points="81.5001,-140.3706 85,-150.3707 88.5001,-140.3707 81.5001,-140.3706"/>
</g>
</g>
</svg>
