<?xml version="1.0" encoding="UTF-8" standalone="no"?>
<!DOCTYPE svg PUBLIC "-//W3C//DTD SVG 1.1//EN"
 "http://www.w3.org/Graphics/SVG/1.1/DTD/svg11.dtd">
<!-- Generated by graphviz version 13.1.2 (0)
 -->
<!-- Title: JSONFormatter Pages: 1 -->
<svg width="145pt" height="347pt"
 viewBox="0.00 0.00 145.00 347.00" xmlns="http://www.w3.org/2000/svg" xmlns:xlink="http://www.w3.org/1999/xlink">
<g id="graph0" class="graph" transform="scale(1 1) rotate(0) translate(4 343)">
<title>JSONFormatter</title>
<!-- Node1 -->
<g id="Node000001" class="node">
<title>Node1</title>
<g id="a_Node000001"><a xlink:title=" ">
<polygon fill="#999999" stroke="none" points="113.12,-132 20.12,-132 20.12,0 113.12,0 113.12,-132"/>
<text xml:space="preserve" text-anchor="start" x="32.12" y="-118.5" font-family="Helvetica,sans-Serif" font-size="10.00">JSONFormatter</text>
<text xml:space="preserve" text-anchor="start" x="65.12" y="-102.5" font-family="Helvetica,sans-Serif" font-size="10.00"> </text>
<text xml:space="preserve" text-anchor="start" x="24.12" y="-86.5" font-family="Helvetica,sans-Serif" font-size="10.00">+</text>
<text xml:space="preserve" text-anchor="start" x="34.12" y="-86.5" font-family="Helvetica,sans-Serif" font-size="10.00">JSONFormatter()</text>
<text xml:space="preserve" text-anchor="start" x="24.12" y="-70.5" font-family="Helvetica,sans-Serif" font-size="10.00">+</text>
<text xml:space="preserve" text-anchor="start" x="34.12" y="-70.5" font-family="Helvetica,sans-Serif" font-size="10.00">JSONFormatter()</text>
<text xml:space="preserve" text-anchor="start" x="24.12" y="-54.5" font-family="Helvetica,sans-Serif" font-size="10.00">+</text>
<text xml:space="preserve" text-anchor="start" x="34.12" y="-54.5" font-family="Helvetica,sans-Serif" font-size="10.00">JSONFormatter()</text>
<text xml:space="preserve" text-anchor="start" x="24.12" y="-38.5" font-family="Helvetica,sans-Serif" font-size="10.00">+</text>
<text xml:space="preserve" text-anchor="start" x="34.12" y="-38.5" font-family="Helvetica,sans-Serif" font-size="10.00">JSONFormatter()</text>
<text xml:space="preserve" text-anchor="start" x="24.12" y="-22.5" font-family="Helvetica,sans-Serif" font-size="10.00">+</text>
<text xml:space="preserve" text-anchor="start" x="34.12" y="-22.5" font-family="Helvetica,sans-Serif" font-size="10.00">addField()</text>
<text xml:space="preserve" text-anchor="start" x="24.12" y="-6.5" font-family="Helvetica,sans-Serif" font-size="10.00">+</text>
<text xml:space="preserve" text-anchor="start" x="34.12" y="-6.5" font-family="Helvetica,sans-Serif" font-size="10.00">handle()</text>
<polygon fill="#666666" stroke="#666666" points="20.12,-114 20.12,-114 113.12,-114 113.12,-114 20.12,-114"/>
<polygon fill="#666666" stroke="#666666" points="20.12,-98 20.12,-98 113.12,-98 113.12,-98 20.12,-98"/>
<polygon fill="none" stroke="#666666" points="20.12,0 20.12,-132 113.12,-132 113.12,0 20.12,0"/>
</a>
</g>
</g>
<!-- Node2 -->
<g id="Node000002" class="node">
<title>Node2</title>
<g id="a_Node000002"><a xlink:href="classanch_1_1events_1_1_observer.html" target="_top" xlink:title=" ">
<polygon fill="white" stroke="none" points="121.62,-233 11.62,-233 11.62,-169 121.62,-169 121.62,-233"/>
<text xml:space="preserve" text-anchor="start" x="15.62" y="-219.5" font-family="Helvetica,sans-Serif" font-size="10.00">anch::events::Observer</text>
<text xml:space="preserve" text-anchor="start" x="34.38" y="-207.5" font-family="Helvetica,sans-Serif" font-size="10.00">&lt; JSONItem &gt;</text>
<text xml:space="preserve" text-anchor="start" x="65.12" y="-191.5" font-family="Helvetica,sans-Serif" font-size="10.00"> </text>
<text xml:space="preserve" text-anchor="start" x="30" y="-175.5" font-family="Helvetica,sans-Serif" font-size="10.00">+</text>
<text xml:space="preserve" text-anchor="start" x="54.38" y="-175.5" font-family="Helvetica,sans-Serif" font-size="10.00">handle()</text>
<polygon fill="#666666" stroke="#666666" points="11.62,-203 11.62,-203 121.62,-203 121.62,-203 11.62,-203"/>
<polygon fill="#666666" stroke="#666666" points="11.62,-187 11.62,-187 121.62,-187 121.62,-187 11.62,-187"/>
<polygon fill="none" stroke="#666666" points="11.62,-169 11.62,-233 121.62,-233 121.62,-169 11.62,-169"/>
</a>
</g>
</g>
<!-- Node2&#45;&gt;Node1 -->
<g id="edge1_Node000001_Node000002" class="edge">
<title>Node2&#45;&gt;Node1</title>
<g id="a_edge1_Node000001_Node000002"><a xlink:title=" ">
<path fill="none" stroke="#63b8ff" d="M66.62,-157.86C66.62,-149.55 66.62,-140.65 66.62,-131.8"/>
<polygon fill="none" stroke="#63b8ff" points="63.13,-157.64 66.63,-167.64 70.13,-157.64 63.13,-157.64"/>
</a>
</g>
</g>
<!-- Node3 -->
<g id="Node000003" class="node">
<title>Node3</title>
<g id="a_Node000003"><a xlink:href="classanch_1_1events_1_1_observer.html" target="_top" xlink:title="An observer interface of the observers/observable design pattern.">
<polygon fill="white" stroke="none" points="133.25,-339 0,-339 0,-287 133.25,-287 133.25,-339"/>
<text xml:space="preserve" text-anchor="start" x="4" y="-325.5" font-family="Helvetica,sans-Serif" font-size="10.00">anch::events::Observer&lt; T &gt;</text>
<text xml:space="preserve" text-anchor="start" x="65.12" y="-309.5" font-family="Helvetica,sans-Serif" font-size="10.00"> </text>
<text xml:space="preserve" text-anchor="start" x="24.19" y="-293.5" font-family="Helvetica,sans-Serif" font-size="10.00">+</text>
<text xml:space="preserve" text-anchor="start" x="54.38" y="-293.5" font-family="Helvetica,sans-Serif" font-size="10.00">handle()</text>
<polygon fill="#666666" stroke="#666666" points="0,-321 0,-321 133.25,-321 133.25,-321 0,-321"/>
<polygon fill="#666666" stroke="#666666" points="0,-305 0,-305 133.25,-305 133.25,-305 0,-305"/>
<polygon fill="none" stroke="#666666" points="0,-287 0,-339 133.25,-339 133.25,-287 0,-287"/>
</a>
</g>
</g>
<!-- Node3&#45;&gt;Node2 -->
<g id="edge2_Node000002_Node000003" class="edge">
<title>Node3&#45;&gt;Node2</title>
<g id="a_edge2_Node000002_Node000003"><a xlink:title=" ">
<path fill="none" stroke="orange" d="M66.62,-275.86C66.62,-261.92 66.62,-246.14 66.62,-232.75"/>
<polygon fill="orange" stroke="orange" points="63.13,-275.53 66.63,-285.53 70.13,-275.53 63.13,-275.53"/>
</a>
</g>
<text xml:space="preserve" text-anchor="start" x="69.62" y="-256.5" font-family="Helvetica,sans-Serif" font-size="10.00" fill="grey">&lt; JSONItem &gt;</text>
</g>
</g>
</svg>
