<?xml version="1.0" encoding="UTF-8" standalone="no"?>
<!DOCTYPE svg PUBLIC "-//W3C//DTD SVG 1.1//EN"
 "http://www.w3.org/Graphics/SVG/1.1/DTD/svg11.dtd">
<!-- Generated by graphviz version 7.0.4 (0)
 -->
<!-- Title: anch::crypto::AES&lt; K, R &gt; Pages: 1 -->
<svg width="184pt" height="325pt"
 viewBox="0.00 0.00 184.00 325.00" xmlns="http://www.w3.org/2000/svg" xmlns:xlink="http://www.w3.org/1999/xlink">
<g id="graph0" class="graph" transform="scale(1 1) rotate(0) translate(4 321)">
<title>anch::crypto::AES&lt; K, R &gt;</title>
<!-- Node1 -->
<g id="node1" class="node">
<title>Node1</title>
<g id="a_node1"><a xlink:title="AES block cipher algorithm implementation.">
<polygon fill="#999999" stroke="#666666" points="146,-96 30,-96 30,0 146,0 146,-96"/>
<text text-anchor="start" x="38" y="-84" font-family="Helvetica,sans-Serif" font-size="10.00">{anch::crypto::AES&lt;</text>
<text text-anchor="middle" x="88" y="-73" font-family="Helvetica,sans-Serif" font-size="10.00"> K, R &gt;</text>
<text text-anchor="start" x="38" y="-62" font-family="Helvetica,sans-Serif" font-size="10.00">||+ AES()</text>
<text text-anchor="start" x="38" y="-51" font-family="Helvetica,sans-Serif" font-size="10.00">+ AES()</text>
<text text-anchor="start" x="38" y="-40" font-family="Helvetica,sans-Serif" font-size="10.00">+ ~AES()</text>
<text text-anchor="start" x="38" y="-29" font-family="Helvetica,sans-Serif" font-size="10.00">+ cipher()</text>
<text text-anchor="start" x="38" y="-18" font-family="Helvetica,sans-Serif" font-size="10.00">+ decipher()</text>
<text text-anchor="middle" x="88" y="-7" font-family="Helvetica,sans-Serif" font-size="10.00">}</text>
</a>
</g>
</g>
<!-- Node2 -->
<g id="node2" class="node">
<title>Node2</title>
<g id="a_node2"><a xlink:href="classanch_1_1crypto_1_1_block_cipher.html" target="_top" xlink:title=" ">
<polygon fill="white" stroke="#666666" points="161.5,-207 14.5,-207 14.5,-133 161.5,-133 161.5,-207"/>
<text text-anchor="start" x="22.5" y="-195" font-family="Helvetica,sans-Serif" font-size="10.00">{anch::crypto::BlockCipher</text>
<text text-anchor="middle" x="88" y="-184" font-family="Helvetica,sans-Serif" font-size="10.00">&lt; 16 &gt;</text>
<text text-anchor="start" x="22.5" y="-173" font-family="Helvetica,sans-Serif" font-size="10.00">||+ cipher()</text>
<text text-anchor="start" x="22.5" y="-162" font-family="Helvetica,sans-Serif" font-size="10.00">+ decipher()</text>
<text text-anchor="start" x="22.5" y="-151" font-family="Helvetica,sans-Serif" font-size="10.00">+ getBlockSize()</text>
<text text-anchor="middle" x="88" y="-140" font-family="Helvetica,sans-Serif" font-size="10.00">}</text>
</a>
</g>
</g>
<!-- Node2&#45;&gt;Node1 -->
<g id="edge1" class="edge">
<title>Node2&#45;&gt;Node1</title>
<path fill="none" stroke="#63b8ff" d="M88,-121.31C88,-113.08 88,-104.52 88,-96.3"/>
<polygon fill="none" stroke="#63b8ff" points="84.5,-121.16 88,-131.16 91.5,-121.16 84.5,-121.16"/>
</g>
<!-- Node3 -->
<g id="node3" class="node">
<title>Node3</title>
<g id="a_node3"><a xlink:href="classanch_1_1crypto_1_1_block_cipher.html" target="_top" xlink:title="Block cipher interface.">
<polygon fill="white" stroke="#666666" points="176,-317 0,-317 0,-254 176,-254 176,-317"/>
<text text-anchor="middle" x="88" y="-305" font-family="Helvetica,sans-Serif" font-size="10.00">{anch::crypto::BlockCipher&lt; B &gt;</text>
<text text-anchor="start" x="8" y="-294" font-family="Helvetica,sans-Serif" font-size="10.00">||+ cipher()</text>
<text text-anchor="start" x="8" y="-283" font-family="Helvetica,sans-Serif" font-size="10.00">+ decipher()</text>
<text text-anchor="start" x="8" y="-272" font-family="Helvetica,sans-Serif" font-size="10.00">+ getBlockSize()</text>
<text text-anchor="middle" x="88" y="-261" font-family="Helvetica,sans-Serif" font-size="10.00">}</text>
</a>
</g>
</g>
<!-- Node3&#45;&gt;Node2 -->
<g id="edge2" class="edge">
<title>Node3&#45;&gt;Node2</title>
<path fill="none" stroke="orange" d="M88,-242.6C88,-231.04 88,-218.6 88,-207.38"/>
<polygon fill="orange" stroke="orange" points="84.5,-242.27 88,-252.27 91.5,-242.27 84.5,-242.27"/>
<text text-anchor="middle" x="107" y="-228" font-family="Helvetica,sans-Serif" font-size="10.00"> &lt; 16 &gt;</text>
</g>
</g>
</svg>
