<?xml version="1.0" encoding="UTF-8" standalone="no"?>
<!DOCTYPE svg PUBLIC "-//W3C//DTD SVG 1.1//EN"
 "http://www.w3.org/Graphics/SVG/1.1/DTD/svg11.dtd">
<!-- Generated by graphviz version 7.0.4 (0)
 -->
<!-- Title: anch::json::MappingError Pages: 1 -->
<svg width="151pt" height="159pt"
 viewBox="0.00 0.00 151.00 159.00" xmlns="http://www.w3.org/2000/svg" xmlns:xlink="http://www.w3.org/1999/xlink">
<g id="graph0" class="graph" transform="scale(1 1) rotate(0) translate(4 155)">
<title>anch::json::MappingError</title>
<!-- Node1 -->
<g id="node1" class="node">
<title>Node1</title>
<g id="a_node1"><a xlink:title="Mapping error.">
<polygon fill="#999999" stroke="#666666" points="143,-85 0,-85 0,0 143,0 143,-85"/>
<text text-anchor="middle" x="71.5" y="-73" font-family="Helvetica,sans-Serif" font-size="10.00">{anch::json::MappingError</text>
<text text-anchor="start" x="8" y="-62" font-family="Helvetica,sans-Serif" font-size="10.00">||+ MappingError()</text>
<text text-anchor="start" x="8" y="-51" font-family="Helvetica,sans-Serif" font-size="10.00">+ MappingError()</text>
<text text-anchor="start" x="8" y="-40" font-family="Helvetica,sans-Serif" font-size="10.00">+ ~MappingError()</text>
<text text-anchor="start" x="8" y="-29" font-family="Helvetica,sans-Serif" font-size="10.00">+ what()</text>
<text text-anchor="start" x="8" y="-18" font-family="Helvetica,sans-Serif" font-size="10.00">+ getErrorCode()</text>
<text text-anchor="middle" x="71.5" y="-7" font-family="Helvetica,sans-Serif" font-size="10.00">}</text>
</a>
</g>
</g>
<!-- Node2 -->
<g id="node2" class="node">
<title>Node2</title>
<g id="a_node2"><a xlink:title=" ">
<polygon fill="white" stroke="#666666" points="117.5,-151 25.5,-151 25.5,-121 117.5,-121 117.5,-151"/>
<text text-anchor="middle" x="71.5" y="-139" font-family="Helvetica,sans-Serif" font-size="10.00">{std::exception</text>
<text text-anchor="middle" x="71.5" y="-128" font-family="Helvetica,sans-Serif" font-size="10.00">||}</text>
</a>
</g>
</g>
<!-- Node2&#45;&gt;Node1 -->
<g id="edge1" class="edge">
<title>Node2&#45;&gt;Node1</title>
<path fill="none" stroke="#63b8ff" d="M71.5,-109.22C71.5,-101.79 71.5,-93.5 71.5,-85.37"/>
<polygon fill="none" stroke="#63b8ff" points="68,-109.19 71.5,-119.19 75,-109.19 68,-109.19"/>
</g>
</g>
</svg>
