<?xml version="1.0" encoding="UTF-8" standalone="no"?>
<!DOCTYPE svg PUBLIC "-//W3C//DTD SVG 1.1//EN"
 "http://www.w3.org/Graphics/SVG/1.1/DTD/svg11.dtd">
<!-- Generated by graphviz version 2.40.1 (20161225.0304)
 -->
<!-- Title: anch::sql::ResultSet Pages: 1 -->
<svg width="252pt" height="535pt"
 viewBox="0.00 0.00 252.00 535.00" xmlns="http://www.w3.org/2000/svg" xmlns:xlink="http://www.w3.org/1999/xlink">
<g id="graph0" class="graph" transform="scale(1 1) rotate(0) translate(4 531)">
<title>anch::sql::ResultSet</title>
<!-- Node4 -->
<g id="node1" class="node">
<title>Node4</title>
<polygon fill="#bfbfbf" stroke="#000000" points="46,-.5 46,-178.5 158,-178.5 158,-.5 46,-.5"/>
<text text-anchor="middle" x="102" y="-166.5" font-family="Helvetica,sans-Serif" font-size="10.00" fill="#000000">anch::sql::ResultSet</text>
<polyline fill="none" stroke="#000000" points="46,-159.5 158,-159.5 "/>
<text text-anchor="middle" x="102" y="-147.5" font-family="Helvetica,sans-Serif" font-size="10.00" fill="#000000"> </text>
<polyline fill="none" stroke="#000000" points="46,-140.5 158,-140.5 "/>
<text text-anchor="start" x="54" y="-128.5" font-family="Helvetica,sans-Serif" font-size="10.00" fill="#000000">+ ResultSet()</text>
<text text-anchor="start" x="54" y="-117.5" font-family="Helvetica,sans-Serif" font-size="10.00" fill="#000000">+ ~ResultSet()</text>
<text text-anchor="start" x="54" y="-106.5" font-family="Helvetica,sans-Serif" font-size="10.00" fill="#000000">+ get()</text>
<text text-anchor="start" x="54" y="-95.5" font-family="Helvetica,sans-Serif" font-size="10.00" fill="#000000">+ get()</text>
<text text-anchor="start" x="54" y="-84.5" font-family="Helvetica,sans-Serif" font-size="10.00" fill="#000000">+ get()</text>
<text text-anchor="start" x="54" y="-73.5" font-family="Helvetica,sans-Serif" font-size="10.00" fill="#000000">+ get()</text>
<text text-anchor="start" x="54" y="-62.5" font-family="Helvetica,sans-Serif" font-size="10.00" fill="#000000">+ next()</text>
<text text-anchor="start" x="54" y="-51.5" font-family="Helvetica,sans-Serif" font-size="10.00" fill="#000000">+ get()</text>
<text text-anchor="start" x="54" y="-40.5" font-family="Helvetica,sans-Serif" font-size="10.00" fill="#000000">+ get()</text>
<text text-anchor="start" x="54" y="-29.5" font-family="Helvetica,sans-Serif" font-size="10.00" fill="#000000">+ get()</text>
<text text-anchor="start" x="54" y="-18.5" font-family="Helvetica,sans-Serif" font-size="10.00" fill="#000000">and 9 more...</text>
<text text-anchor="start" x="54" y="-7.5" font-family="Helvetica,sans-Serif" font-size="10.00" fill="#000000"># getValue()</text>
</g>
<!-- Node5 -->
<g id="node2" class="node">
<title>Node5</title>
<polygon fill="none" stroke="#bfbfbf" points="41,-226.5 41,-294.5 163,-294.5 163,-226.5 41,-226.5"/>
<text text-anchor="start" x="49" y="-282.5" font-family="Helvetica,sans-Serif" font-size="10.00" fill="#000000">std::map&lt; std::string,</text>
<text text-anchor="middle" x="102" y="-271.5" font-family="Helvetica,sans-Serif" font-size="10.00" fill="#000000"> std::size_t &gt;</text>
<polyline fill="none" stroke="#bfbfbf" points="41,-264.5 163,-264.5 "/>
<text text-anchor="start" x="49" y="-252.5" font-family="Helvetica,sans-Serif" font-size="10.00" fill="#000000">+ elements</text>
<polyline fill="none" stroke="#bfbfbf" points="41,-245.5 163,-245.5 "/>
<text text-anchor="middle" x="102" y="-233.5" font-family="Helvetica,sans-Serif" font-size="10.00" fill="#000000"> </text>
</g>
<!-- Node5&#45;&gt;Node4 -->
<g id="edge1" class="edge">
<title>Node5&#45;&gt;Node4</title>
<path fill="none" stroke="#404040" d="M102,-226.3066C102,-215.7446 102,-203.5249 102,-190.8225"/>
<polygon fill="none" stroke="#404040" points="102.0001,-190.5343 98,-184.5343 102,-178.5343 106,-184.5343 102.0001,-190.5343"/>
<text text-anchor="middle" x="123.5" y="-200" font-family="Helvetica,sans-Serif" font-size="10.00" fill="#000000"> #_fields</text>
</g>
<!-- Node6 -->
<g id="node3" class="node">
<title>Node6</title>
<g id="a_node3"><a xlink:title="STL class. ">
<polygon fill="none" stroke="#bfbfbf" points="19.5,-353.5 19.5,-410.5 84.5,-410.5 84.5,-353.5 19.5,-353.5"/>
<text text-anchor="middle" x="52" y="-398.5" font-family="Helvetica,sans-Serif" font-size="10.00" fill="#000000">std::string</text>
<polyline fill="none" stroke="#bfbfbf" points="19.5,-391.5 84.5,-391.5 "/>
<text text-anchor="middle" x="52" y="-379.5" font-family="Helvetica,sans-Serif" font-size="10.00" fill="#000000"> </text>
<polyline fill="none" stroke="#bfbfbf" points="19.5,-372.5 84.5,-372.5 "/>
<text text-anchor="middle" x="52" y="-360.5" font-family="Helvetica,sans-Serif" font-size="10.00" fill="#000000"> </text>
</a>
</g>
</g>
<!-- Node6&#45;&gt;Node5 -->
<g id="edge2" class="edge">
<title>Node6&#45;&gt;Node5</title>
<path fill="none" stroke="#404040" d="M63.8493,-353.2062C69.6588,-339.0891 76.7928,-321.7535 83.3136,-305.908"/>
<polygon fill="none" stroke="#404040" points="83.3589,-305.7978 81.9432,-298.727 87.9256,-294.7007 89.3413,-301.7715 83.3589,-305.7978"/>
<text text-anchor="middle" x="97.5" y="-321.5" font-family="Helvetica,sans-Serif" font-size="10.00" fill="#000000"> +keys</text>
</g>
<!-- Node7 -->
<g id="node4" class="node">
<title>Node7</title>
<g id="a_node4"><a xlink:title="STL class. ">
<polygon fill="none" stroke="#bfbfbf" points="0,-458.5 0,-526.5 104,-526.5 104,-458.5 0,-458.5"/>
<text text-anchor="start" x="8" y="-514.5" font-family="Helvetica,sans-Serif" font-size="10.00" fill="#000000">std::basic_string&lt;</text>
<text text-anchor="middle" x="52" y="-503.5" font-family="Helvetica,sans-Serif" font-size="10.00" fill="#000000"> char &gt;</text>
<polyline fill="none" stroke="#bfbfbf" points="0,-496.5 104,-496.5 "/>
<text text-anchor="middle" x="52" y="-484.5" font-family="Helvetica,sans-Serif" font-size="10.00" fill="#000000"> </text>
<polyline fill="none" stroke="#bfbfbf" points="0,-477.5 104,-477.5 "/>
<text text-anchor="middle" x="52" y="-465.5" font-family="Helvetica,sans-Serif" font-size="10.00" fill="#000000"> </text>
</a>
</g>
</g>
<!-- Node7&#45;&gt;Node6 -->
<g id="edge3" class="edge">
<title>Node7&#45;&gt;Node6</title>
<path fill="none" stroke="#191970" d="M52,-448.0661C52,-435.4172 52,-421.9812 52,-410.5519"/>
<polygon fill="none" stroke="#191970" points="48.5001,-448.4447 52,-458.4447 55.5001,-448.4447 48.5001,-448.4447"/>
</g>
<!-- Node8 -->
<g id="node5" class="node">
<title>Node8</title>
<g id="a_node5"><a xlink:title="STL class. ">
<polygon fill="none" stroke="#bfbfbf" points="102.5,-353.5 102.5,-410.5 203.5,-410.5 203.5,-353.5 102.5,-353.5"/>
<text text-anchor="middle" x="153" y="-398.5" font-family="Helvetica,sans-Serif" font-size="10.00" fill="#000000">std::map&lt; K, T &gt;</text>
<polyline fill="none" stroke="#bfbfbf" points="102.5,-391.5 203.5,-391.5 "/>
<text text-anchor="middle" x="153" y="-379.5" font-family="Helvetica,sans-Serif" font-size="10.00" fill="#000000"> </text>
<polyline fill="none" stroke="#bfbfbf" points="102.5,-372.5 203.5,-372.5 "/>
<text text-anchor="middle" x="153" y="-360.5" font-family="Helvetica,sans-Serif" font-size="10.00" fill="#000000"> </text>
</a>
</g>
</g>
<!-- Node8&#45;&gt;Node5 -->
<g id="edge4" class="edge">
<title>Node8&#45;&gt;Node5</title>
<path fill="none" stroke="#ffa500" d="M136.951,-343.7657C130.3516,-328.0436 122.7685,-309.9779 116.3559,-294.7007"/>
<polygon fill="#ffa500" stroke="#ffa500" points="133.816,-345.3402 140.9137,-353.2062 140.2705,-342.6309 133.816,-345.3402"/>
<text text-anchor="start" x="133" y="-327" font-family="Helvetica,sans-Serif" font-size="10.00" fill="#000000"> &lt; std::string, std</text>
<text text-anchor="middle" x="175.5" y="-316" font-family="Helvetica,sans-Serif" font-size="10.00" fill="#000000">::size_t &gt;</text>
</g>
<!-- Node9 -->
<g id="node6" class="node">
<title>Node9</title>
<polygon fill="none" stroke="#bfbfbf" points="130.5,-464 130.5,-521 159.5,-521 159.5,-464 130.5,-464"/>
<text text-anchor="middle" x="145" y="-509" font-family="Helvetica,sans-Serif" font-size="10.00" fill="#000000">K</text>
<polyline fill="none" stroke="#bfbfbf" points="130.5,-502 159.5,-502 "/>
<text text-anchor="middle" x="145" y="-490" font-family="Helvetica,sans-Serif" font-size="10.00" fill="#000000"> </text>
<polyline fill="none" stroke="#bfbfbf" points="130.5,-483 159.5,-483 "/>
<text text-anchor="middle" x="145" y="-471" font-family="Helvetica,sans-Serif" font-size="10.00" fill="#000000"> </text>
</g>
<!-- Node9&#45;&gt;Node8 -->
<g id="edge5" class="edge">
<title>Node9&#45;&gt;Node8</title>
<path fill="none" stroke="#404040" d="M144.6503,-463.6952C144.729,-452.8085 145.0721,-440.3185 146,-429 146.1668,-426.965 146.3668,-424.8842 146.592,-422.7855"/>
<polygon fill="none" stroke="#404040" points="146.6065,-422.6697 143.3853,-416.218 148.1018,-410.7632 151.323,-417.2149 146.6065,-422.6697"/>
<text text-anchor="middle" x="163.5" y="-432" font-family="Helvetica,sans-Serif" font-size="10.00" fill="#000000"> +keys</text>
</g>
<!-- Node10 -->
<g id="node7" class="node">
<title>Node10</title>
<polygon fill="none" stroke="#bfbfbf" points="188.5,-464 188.5,-521 217.5,-521 217.5,-464 188.5,-464"/>
<text text-anchor="middle" x="203" y="-509" font-family="Helvetica,sans-Serif" font-size="10.00" fill="#000000">T</text>
<polyline fill="none" stroke="#bfbfbf" points="188.5,-502 217.5,-502 "/>
<text text-anchor="middle" x="203" y="-490" font-family="Helvetica,sans-Serif" font-size="10.00" fill="#000000"> </text>
<polyline fill="none" stroke="#bfbfbf" points="188.5,-483 217.5,-483 "/>
<text text-anchor="middle" x="203" y="-471" font-family="Helvetica,sans-Serif" font-size="10.00" fill="#000000"> </text>
</g>
<!-- Node10&#45;&gt;Node8 -->
<g id="edge6" class="edge">
<title>Node10&#45;&gt;Node8</title>
<path fill="none" stroke="#404040" d="M194.4601,-463.878C190.7964,-452.786 186.167,-440.1076 181,-429 179.8001,-426.4205 178.4976,-423.8012 177.1331,-421.1867"/>
<polygon fill="none" stroke="#404040" points="177.0773,-421.0856 170.6755,-417.7662 171.2773,-410.5803 177.6791,-413.8996 177.0773,-421.0856"/>
<text text-anchor="middle" x="215" y="-432" font-family="Helvetica,sans-Serif" font-size="10.00" fill="#000000"> +elements</text>
</g>
</g>
</svg>
