<?xml version="1.0" encoding="UTF-8" standalone="no"?>
<!DOCTYPE svg PUBLIC "-//W3C//DTD SVG 1.1//EN"
 "http://www.w3.org/Graphics/SVG/1.1/DTD/svg11.dtd">
<!-- Generated by graphviz version 13.1.2 (0)
 -->
<!-- Title: anch::date::MillisecondFormatter Pages: 1 -->
<svg width="239pt" height="603pt"
 viewBox="0.00 0.00 239.00 603.00" xmlns="http://www.w3.org/2000/svg" xmlns:xlink="http://www.w3.org/1999/xlink">
<g id="graph0" class="graph" transform="scale(1 1) rotate(0) translate(4 599)">
<title>anch::date::MillisecondFormatter</title>
<!-- Node1 -->
<g id="Node000001" class="node">
<title>Node1</title>
<g id="a_Node000001"><a xlink:title=" ">
<polygon fill="#999999" stroke="none" points="163.12,-148 12.62,-148 12.62,0 163.12,0 163.12,-148"/>
<text xml:space="preserve" text-anchor="start" x="16.62" y="-134.5" font-family="Helvetica,sans-Serif" font-size="10.00">anch::date::MillisecondFormatter</text>
<text xml:space="preserve" text-anchor="start" x="86.38" y="-118.5" font-family="Helvetica,sans-Serif" font-size="10.00"> </text>
<text xml:space="preserve" text-anchor="start" x="24.06" y="-102.5" font-family="Helvetica,sans-Serif" font-size="10.00">+</text>
<text xml:space="preserve" text-anchor="start" x="41.5" y="-102.5" font-family="Helvetica,sans-Serif" font-size="10.00">MillisecondFormatter()</text>
<text xml:space="preserve" text-anchor="start" x="24.06" y="-86.5" font-family="Helvetica,sans-Serif" font-size="10.00">+</text>
<text xml:space="preserve" text-anchor="start" x="41.5" y="-86.5" font-family="Helvetica,sans-Serif" font-size="10.00">~MillisecondFormatter()</text>
<text xml:space="preserve" text-anchor="start" x="24.06" y="-70.5" font-family="Helvetica,sans-Serif" font-size="10.00">+</text>
<text xml:space="preserve" text-anchor="start" x="41.5" y="-70.5" font-family="Helvetica,sans-Serif" font-size="10.00">format()</text>
<text xml:space="preserve" text-anchor="start" x="24.06" y="-54.5" font-family="Helvetica,sans-Serif" font-size="10.00">+</text>
<text xml:space="preserve" text-anchor="start" x="41.5" y="-54.5" font-family="Helvetica,sans-Serif" font-size="10.00">getSize()</text>
<text xml:space="preserve" text-anchor="start" x="24.06" y="-38.5" font-family="Helvetica,sans-Serif" font-size="10.00">+</text>
<text xml:space="preserve" text-anchor="start" x="41.5" y="-38.5" font-family="Helvetica,sans-Serif" font-size="10.00">setValue()</text>
<text xml:space="preserve" text-anchor="start" x="24.06" y="-22.5" font-family="Helvetica,sans-Serif" font-size="10.00">+</text>
<text xml:space="preserve" text-anchor="start" x="41.5" y="-22.5" font-family="Helvetica,sans-Serif" font-size="10.00">getPattern()</text>
<text xml:space="preserve" text-anchor="start" x="24.06" y="-6.5" font-family="Helvetica,sans-Serif" font-size="10.00">+</text>
<text xml:space="preserve" text-anchor="start" x="41.5" y="-6.5" font-family="Helvetica,sans-Serif" font-size="10.00">getInstance()</text>
<polygon fill="#666666" stroke="#666666" points="12.62,-130 12.62,-130 163.12,-130 163.12,-130 12.62,-130"/>
<polygon fill="#666666" stroke="#666666" points="12.62,-114 12.62,-114 163.12,-114 163.12,-114 12.62,-114"/>
<polygon fill="none" stroke="#666666" points="12.62,0 12.62,-148 163.12,-148 163.12,0 12.62,0"/>
</a>
</g>
</g>
<!-- Node2 -->
<g id="Node000002" class="node">
<title>Node2</title>
<g id="a_Node000002"><a xlink:href="classanch_1_1date_1_1_i_date_part_formatter.html" target="_top" xlink:title=" ">
<polygon fill="white" stroke="none" points="143.75,-494 0,-494 0,-202 143.75,-202 143.75,-494"/>
<text xml:space="preserve" text-anchor="start" x="4" y="-480.5" font-family="Helvetica,sans-Serif" font-size="10.00">anch::date::IDatePartFormatter</text>
<text xml:space="preserve" text-anchor="start" x="70.38" y="-464.5" font-family="Helvetica,sans-Serif" font-size="10.00"> </text>
<text xml:space="preserve" text-anchor="start" x="11.44" y="-448.5" font-family="Helvetica,sans-Serif" font-size="10.00">+</text>
<text xml:space="preserve" text-anchor="start" x="28.88" y="-448.5" font-family="Helvetica,sans-Serif" font-size="10.00">~IDatePartFormatter()</text>
<text xml:space="preserve" text-anchor="start" x="11.44" y="-432.5" font-family="Helvetica,sans-Serif" font-size="10.00">+</text>
<text xml:space="preserve" text-anchor="start" x="28.88" y="-432.5" font-family="Helvetica,sans-Serif" font-size="10.00">format()</text>
<text xml:space="preserve" text-anchor="start" x="11.44" y="-416.5" font-family="Helvetica,sans-Serif" font-size="10.00">+</text>
<text xml:space="preserve" text-anchor="start" x="28.88" y="-416.5" font-family="Helvetica,sans-Serif" font-size="10.00">getSize()</text>
<text xml:space="preserve" text-anchor="start" x="11.44" y="-400.5" font-family="Helvetica,sans-Serif" font-size="10.00">+</text>
<text xml:space="preserve" text-anchor="start" x="28.88" y="-400.5" font-family="Helvetica,sans-Serif" font-size="10.00">setValue()</text>
<text xml:space="preserve" text-anchor="start" x="11.44" y="-384.5" font-family="Helvetica,sans-Serif" font-size="10.00">+</text>
<text xml:space="preserve" text-anchor="start" x="28.88" y="-384.5" font-family="Helvetica,sans-Serif" font-size="10.00">getPattern()</text>
<text xml:space="preserve" text-anchor="start" x="11.81" y="-368.5" font-family="Helvetica,sans-Serif" font-size="10.00">#</text>
<text xml:space="preserve" text-anchor="start" x="28.88" y="-368.5" font-family="Helvetica,sans-Serif" font-size="10.00">getYear()</text>
<text xml:space="preserve" text-anchor="start" x="11.81" y="-352.5" font-family="Helvetica,sans-Serif" font-size="10.00">#</text>
<text xml:space="preserve" text-anchor="start" x="28.88" y="-352.5" font-family="Helvetica,sans-Serif" font-size="10.00">setYear()</text>
<text xml:space="preserve" text-anchor="start" x="11.81" y="-336.5" font-family="Helvetica,sans-Serif" font-size="10.00">#</text>
<text xml:space="preserve" text-anchor="start" x="28.88" y="-336.5" font-family="Helvetica,sans-Serif" font-size="10.00">getMonth()</text>
<text xml:space="preserve" text-anchor="start" x="11.81" y="-320.5" font-family="Helvetica,sans-Serif" font-size="10.00">#</text>
<text xml:space="preserve" text-anchor="start" x="28.88" y="-320.5" font-family="Helvetica,sans-Serif" font-size="10.00">setMonth()</text>
<text xml:space="preserve" text-anchor="start" x="11.81" y="-304.5" font-family="Helvetica,sans-Serif" font-size="10.00">#</text>
<text xml:space="preserve" text-anchor="start" x="28.88" y="-304.5" font-family="Helvetica,sans-Serif" font-size="10.00">getDay()</text>
<text xml:space="preserve" text-anchor="start" x="11.81" y="-288.5" font-family="Helvetica,sans-Serif" font-size="10.00">#</text>
<text xml:space="preserve" text-anchor="start" x="28.88" y="-288.5" font-family="Helvetica,sans-Serif" font-size="10.00">setDay()</text>
<text xml:space="preserve" text-anchor="start" x="11.81" y="-272.5" font-family="Helvetica,sans-Serif" font-size="10.00">#</text>
<text xml:space="preserve" text-anchor="start" x="28.88" y="-272.5" font-family="Helvetica,sans-Serif" font-size="10.00">getHour()</text>
<text xml:space="preserve" text-anchor="start" x="11.81" y="-256.5" font-family="Helvetica,sans-Serif" font-size="10.00">#</text>
<text xml:space="preserve" text-anchor="start" x="28.88" y="-256.5" font-family="Helvetica,sans-Serif" font-size="10.00">setHour()</text>
<text xml:space="preserve" text-anchor="start" x="11.81" y="-240.5" font-family="Helvetica,sans-Serif" font-size="10.00">#</text>
<text xml:space="preserve" text-anchor="start" x="28.88" y="-240.5" font-family="Helvetica,sans-Serif" font-size="10.00">getMinute()</text>
<text xml:space="preserve" text-anchor="start" x="11.81" y="-224.5" font-family="Helvetica,sans-Serif" font-size="10.00">#</text>
<text xml:space="preserve" text-anchor="start" x="28.88" y="-224.5" font-family="Helvetica,sans-Serif" font-size="10.00">setMinute()</text>
<text xml:space="preserve" text-anchor="start" x="28.88" y="-208.5" font-family="Helvetica,sans-Serif" font-size="10.00">and 8 more...</text>
<polygon fill="#666666" stroke="#666666" points="0,-476 0,-476 143.75,-476 143.75,-476 0,-476"/>
<polygon fill="#666666" stroke="#666666" points="0,-460 0,-460 143.75,-460 143.75,-460 0,-460"/>
<polygon fill="none" stroke="#666666" points="0,-202 0,-494 143.75,-494 143.75,-202 0,-202"/>
</a>
</g>
</g>
<!-- Node2&#45;&gt;Node1 -->
<g id="edge1_Node000001_Node000002" class="edge">
<title>Node2&#45;&gt;Node1</title>
<g id="a_edge1_Node000001_Node000002"><a xlink:title=" ">
<path fill="none" stroke="#63b8ff" d="M81.07,-190.76C81.94,-175.82 82.8,-161.21 83.6,-147.68"/>
<polygon fill="none" stroke="#63b8ff" points="77.57,-190.54 80.48,-200.73 84.56,-190.95 77.57,-190.54"/>
</a>
</g>
</g>
<!-- Node3 -->
<g id="Node000003" class="node">
<title>Node3</title>
<g id="a_Node000003"><a xlink:title=" ">
<polygon fill="white" stroke="none" points="213.62,-374 162.12,-374 162.12,-322 213.62,-322 213.62,-374"/>
<text xml:space="preserve" text-anchor="start" x="166.12" y="-360.5" font-family="Helvetica,sans-Serif" font-size="10.00">std::string</text>
<text xml:space="preserve" text-anchor="start" x="186.38" y="-344.5" font-family="Helvetica,sans-Serif" font-size="10.00"> </text>
<text xml:space="preserve" text-anchor="start" x="186.38" y="-328.5" font-family="Helvetica,sans-Serif" font-size="10.00"> </text>
<polygon fill="#666666" stroke="#666666" points="162.12,-356 162.12,-356 213.62,-356 213.62,-356 162.12,-356"/>
<polygon fill="#666666" stroke="#666666" points="162.12,-340 162.12,-340 213.62,-340 213.62,-340 162.12,-340"/>
<polygon fill="none" stroke="#666666" points="162.12,-322 162.12,-374 213.62,-374 213.62,-322 162.12,-322"/>
</a>
</g>
</g>
<!-- Node3&#45;&gt;Node1 -->
<g id="edge2_Node000001_Node000003" class="edge">
<title>Node3&#45;&gt;Node1</title>
<g id="a_edge2_Node000001_Node000003"><a xlink:title=" ">
<path fill="none" stroke="#63b8ff" d="M183.72,-322.1C178.41,-292.79 168.04,-242.92 152.88,-202 147.66,-187.94 141.28,-173.42 134.57,-159.46"/>
<polygon fill="none" stroke="#63b8ff" points="134.57,-159.46 128.33,-155.84 129.28,-148.69 135.51,-152.31 134.57,-159.46"/>
</a>
</g>
<text xml:space="preserve" text-anchor="start" x="148.7" y="-171.5" font-family="Helvetica,sans-Serif" font-size="10.00" fill="grey">+PATTERN</text>
</g>
<!-- Node4 -->
<g id="Node000004" class="node">
<title>Node4</title>
<g id="a_Node000004"><a xlink:title=" ">
<polygon fill="white" stroke="none" points="230.88,-595 144.88,-595 144.88,-531 230.88,-531 230.88,-595"/>
<text xml:space="preserve" text-anchor="start" x="148.88" y="-581.5" font-family="Helvetica,sans-Serif" font-size="10.00">std::basic_string&lt;</text>
<text xml:space="preserve" text-anchor="start" x="171.38" y="-569.5" font-family="Helvetica,sans-Serif" font-size="10.00"> Char &gt;</text>
<text xml:space="preserve" text-anchor="start" x="186.38" y="-553.5" font-family="Helvetica,sans-Serif" font-size="10.00"> </text>
<text xml:space="preserve" text-anchor="start" x="186.38" y="-537.5" font-family="Helvetica,sans-Serif" font-size="10.00"> </text>
<polygon fill="#666666" stroke="#666666" points="144.88,-565 144.88,-565 230.88,-565 230.88,-565 144.88,-565"/>
<polygon fill="#666666" stroke="#666666" points="144.88,-549 144.88,-549 230.88,-549 230.88,-549 144.88,-549"/>
<polygon fill="none" stroke="#666666" points="144.88,-531 144.88,-595 230.88,-595 230.88,-531 144.88,-531"/>
</a>
</g>
</g>
<!-- Node4&#45;&gt;Node3 -->
<g id="edge3_Node000003_Node000004" class="edge">
<title>Node4&#45;&gt;Node3</title>
<g id="a_edge3_Node000003_Node000004"><a xlink:title=" ">
<path fill="none" stroke="#63b8ff" d="M187.88,-519.64C187.88,-475.99 187.88,-409.42 187.88,-373.7"/>
<polygon fill="none" stroke="#63b8ff" points="184.38,-519.51 187.88,-529.51 191.38,-519.51 184.38,-519.51"/>
</a>
</g>
</g>
</g>
</svg>
