<?xml version="1.0" encoding="UTF-8" standalone="no"?>
<!DOCTYPE svg PUBLIC "-//W3C//DTD SVG 1.1//EN"
 "http://www.w3.org/Graphics/SVG/1.1/DTD/svg11.dtd">
<!-- Generated by graphviz version 12.0.0 (0)
 -->
<!-- Title: anch::date::formatter::IDatePartFormatter Pages: 1 -->
<svg width="1507pt" height="510pt"
 viewBox="0.00 0.00 1507.00 510.00" xmlns="http://www.w3.org/2000/svg" xmlns:xlink="http://www.w3.org/1999/xlink">
<g id="graph0" class="graph" transform="scale(1 1) rotate(0) translate(4 506)">
<title>anch::date::formatter::IDatePartFormatter</title>
<!-- Node1 -->
<g id="Node000001" class="node">
<title>Node1</title>
<g id="a_Node000001"><a xlink:title=" ">
<polygon fill="#999999" stroke="none" points="818.5,-502 690.5,-502 690.5,-197 818.5,-197 818.5,-502"/>
<text text-anchor="start" x="702.75" y="-488.5" font-family="Helvetica,sans-Serif" font-size="10.00">anch::date::formatter</text>
<text text-anchor="start" x="705" y="-475.75" font-family="Helvetica,sans-Serif" font-size="10.00">::IDatePartFormatter</text>
<text text-anchor="start" x="753" y="-459.5" font-family="Helvetica,sans-Serif" font-size="10.00"> </text>
<text text-anchor="start" x="694.38" y="-443.5" font-family="Helvetica,sans-Serif" font-size="10.00">+</text>
<text text-anchor="start" x="706.5" y="-443.5" font-family="Helvetica,sans-Serif" font-size="10.00">~IDatePartFormatter()</text>
<text text-anchor="start" x="694.38" y="-427.5" font-family="Helvetica,sans-Serif" font-size="10.00">+</text>
<text text-anchor="start" x="706.5" y="-427.5" font-family="Helvetica,sans-Serif" font-size="10.00">format()</text>
<text text-anchor="start" x="694.38" y="-411.5" font-family="Helvetica,sans-Serif" font-size="10.00">+</text>
<text text-anchor="start" x="706.5" y="-411.5" font-family="Helvetica,sans-Serif" font-size="10.00">getSize()</text>
<text text-anchor="start" x="694.38" y="-395.5" font-family="Helvetica,sans-Serif" font-size="10.00">+</text>
<text text-anchor="start" x="706.5" y="-395.5" font-family="Helvetica,sans-Serif" font-size="10.00">setValue()</text>
<text text-anchor="start" x="694.38" y="-379.5" font-family="Helvetica,sans-Serif" font-size="10.00">+</text>
<text text-anchor="start" x="706.5" y="-379.5" font-family="Helvetica,sans-Serif" font-size="10.00">getPattern()</text>
<text text-anchor="start" x="694.38" y="-363.5" font-family="Helvetica,sans-Serif" font-size="10.00">#</text>
<text text-anchor="start" x="706.5" y="-363.5" font-family="Helvetica,sans-Serif" font-size="10.00">getYear()</text>
<text text-anchor="start" x="694.38" y="-347.5" font-family="Helvetica,sans-Serif" font-size="10.00">#</text>
<text text-anchor="start" x="706.5" y="-347.5" font-family="Helvetica,sans-Serif" font-size="10.00">setYear()</text>
<text text-anchor="start" x="694.38" y="-331.5" font-family="Helvetica,sans-Serif" font-size="10.00">#</text>
<text text-anchor="start" x="706.5" y="-331.5" font-family="Helvetica,sans-Serif" font-size="10.00">getMonth()</text>
<text text-anchor="start" x="694.38" y="-315.5" font-family="Helvetica,sans-Serif" font-size="10.00">#</text>
<text text-anchor="start" x="706.5" y="-315.5" font-family="Helvetica,sans-Serif" font-size="10.00">setMonth()</text>
<text text-anchor="start" x="694.38" y="-299.5" font-family="Helvetica,sans-Serif" font-size="10.00">#</text>
<text text-anchor="start" x="706.5" y="-299.5" font-family="Helvetica,sans-Serif" font-size="10.00">getDay()</text>
<text text-anchor="start" x="694.38" y="-283.5" font-family="Helvetica,sans-Serif" font-size="10.00">#</text>
<text text-anchor="start" x="706.5" y="-283.5" font-family="Helvetica,sans-Serif" font-size="10.00">setDay()</text>
<text text-anchor="start" x="694.38" y="-267.5" font-family="Helvetica,sans-Serif" font-size="10.00">#</text>
<text text-anchor="start" x="706.5" y="-267.5" font-family="Helvetica,sans-Serif" font-size="10.00">getHour()</text>
<text text-anchor="start" x="694.38" y="-251.5" font-family="Helvetica,sans-Serif" font-size="10.00">#</text>
<text text-anchor="start" x="706.5" y="-251.5" font-family="Helvetica,sans-Serif" font-size="10.00">setHour()</text>
<text text-anchor="start" x="694.38" y="-235.5" font-family="Helvetica,sans-Serif" font-size="10.00">#</text>
<text text-anchor="start" x="706.5" y="-235.5" font-family="Helvetica,sans-Serif" font-size="10.00">getMinute()</text>
<text text-anchor="start" x="694.38" y="-219.5" font-family="Helvetica,sans-Serif" font-size="10.00">#</text>
<text text-anchor="start" x="706.5" y="-219.5" font-family="Helvetica,sans-Serif" font-size="10.00">setMinute()</text>
<text text-anchor="start" x="706.5" y="-203.5" font-family="Helvetica,sans-Serif" font-size="10.00">and 8 more...</text>
<polygon fill="#666666" stroke="#666666" points="690.5,-471 690.5,-471 818.5,-471 818.5,-471 690.5,-471"/>
<polygon fill="#666666" stroke="#666666" points="690.5,-455 690.5,-455 818.5,-455 818.5,-455 690.5,-455"/>
<polygon fill="none" stroke="#666666" points="690.5,-197 690.5,-502 818.5,-502 818.5,-197 690.5,-197"/>
</a>
</g>
</g>
<!-- Node2 -->
<g id="Node000002" class="node">
<title>Node2</title>
<g id="a_Node000002"><a xlink:href="classanch_1_1date_1_1formatter_1_1_constant_formatter.html" target="_top" xlink:title=" ">
<polygon fill="white" stroke="none" points="127,-153 0,-153 0,-8 127,-8 127,-153"/>
<text text-anchor="start" x="11.75" y="-139.5" font-family="Helvetica,sans-Serif" font-size="10.00">anch::date::formatter</text>
<text text-anchor="start" x="14.75" y="-126.75" font-family="Helvetica,sans-Serif" font-size="10.00">::ConstantFormatter</text>
<text text-anchor="start" x="3.88" y="-110.5" font-family="Helvetica,sans-Serif" font-size="10.00">+</text>
<text text-anchor="start" x="16" y="-110.5" font-family="Helvetica,sans-Serif" font-size="10.00">_message</text>
<text text-anchor="start" x="3.88" y="-94.5" font-family="Helvetica,sans-Serif" font-size="10.00">+</text>
<text text-anchor="start" x="16" y="-94.5" font-family="Helvetica,sans-Serif" font-size="10.00">ConstantFormatter()</text>
<text text-anchor="start" x="3.88" y="-78.5" font-family="Helvetica,sans-Serif" font-size="10.00">+</text>
<text text-anchor="start" x="16" y="-78.5" font-family="Helvetica,sans-Serif" font-size="10.00">~ConstantFormatter()</text>
<text text-anchor="start" x="3.88" y="-62.5" font-family="Helvetica,sans-Serif" font-size="10.00">+</text>
<text text-anchor="start" x="16" y="-62.5" font-family="Helvetica,sans-Serif" font-size="10.00">format()</text>
<text text-anchor="start" x="3.88" y="-46.5" font-family="Helvetica,sans-Serif" font-size="10.00">+</text>
<text text-anchor="start" x="16" y="-46.5" font-family="Helvetica,sans-Serif" font-size="10.00">getSize()</text>
<text text-anchor="start" x="3.88" y="-30.5" font-family="Helvetica,sans-Serif" font-size="10.00">+</text>
<text text-anchor="start" x="16" y="-30.5" font-family="Helvetica,sans-Serif" font-size="10.00">setValue()</text>
<text text-anchor="start" x="3.88" y="-14.5" font-family="Helvetica,sans-Serif" font-size="10.00">+</text>
<text text-anchor="start" x="16" y="-14.5" font-family="Helvetica,sans-Serif" font-size="10.00">getPattern()</text>
<polygon fill="#666666" stroke="#666666" points="0,-122 0,-122 127,-122 127,-122 0,-122"/>
<polygon fill="#666666" stroke="#666666" points="0,-106 0,-106 14,-106 14,-106 0,-106"/>
<polygon fill="#666666" stroke="#666666" points="14,-106 14,-106 127,-106 127,-106 14,-106"/>
<polygon fill="none" stroke="#666666" points="0,-8 0,-153 127,-153 127,-8 0,-8"/>
</a>
</g>
</g>
<!-- Node1&#45;&gt;Node2 -->
<g id="edge1_Node000001_Node000002" class="edge">
<title>Node1&#45;&gt;Node2</title>
<g id="a_edge1_Node000001_Node000002"><a xlink:title=" ">
<path fill="none" stroke="#63b8ff" d="M679.48,-339.01C557.33,-320.8 311.44,-272.41 135.5,-161 131.57,-158.51 127.72,-155.75 123.97,-152.79"/>
<polygon fill="none" stroke="#63b8ff" points="678.66,-342.43 689.06,-340.41 679.67,-335.5 678.66,-342.43"/>
</a>
</g>
</g>
<!-- Node3 -->
<g id="Node000003" class="node">
<title>Node3</title>
<g id="a_Node000003"><a xlink:href="classanch_1_1date_1_1formatter_1_1_day_formatter.html" target="_top" xlink:title=" ">
<polygon fill="white" stroke="none" points="258,-161 145,-161 145,0 258,0 258,-161"/>
<text text-anchor="start" x="149.75" y="-147.5" font-family="Helvetica,sans-Serif" font-size="10.00">anch::date::formatter</text>
<text text-anchor="start" x="164.75" y="-134.75" font-family="Helvetica,sans-Serif" font-size="10.00">::DayFormatter</text>
<text text-anchor="start" x="151.38" y="-118.5" font-family="Helvetica,sans-Serif" font-size="10.00">+</text>
<text text-anchor="start" x="166" y="-118.5" font-family="Helvetica,sans-Serif" font-size="10.00">PATTERN</text>
<text text-anchor="start" x="151.38" y="-102.5" font-family="Helvetica,sans-Serif" font-size="10.00">+</text>
<text text-anchor="start" x="166" y="-102.5" font-family="Helvetica,sans-Serif" font-size="10.00">DayFormatter()</text>
<text text-anchor="start" x="151.38" y="-86.5" font-family="Helvetica,sans-Serif" font-size="10.00">+</text>
<text text-anchor="start" x="166" y="-86.5" font-family="Helvetica,sans-Serif" font-size="10.00">~DayFormatter()</text>
<text text-anchor="start" x="151.38" y="-70.5" font-family="Helvetica,sans-Serif" font-size="10.00">+</text>
<text text-anchor="start" x="166" y="-70.5" font-family="Helvetica,sans-Serif" font-size="10.00">format()</text>
<text text-anchor="start" x="151.38" y="-54.5" font-family="Helvetica,sans-Serif" font-size="10.00">+</text>
<text text-anchor="start" x="166" y="-54.5" font-family="Helvetica,sans-Serif" font-size="10.00">getSize()</text>
<text text-anchor="start" x="151.38" y="-38.5" font-family="Helvetica,sans-Serif" font-size="10.00">+</text>
<text text-anchor="start" x="166" y="-38.5" font-family="Helvetica,sans-Serif" font-size="10.00">setValue()</text>
<text text-anchor="start" x="151.38" y="-22.5" font-family="Helvetica,sans-Serif" font-size="10.00">+</text>
<text text-anchor="start" x="166" y="-22.5" font-family="Helvetica,sans-Serif" font-size="10.00">getPattern()</text>
<text text-anchor="start" x="151.38" y="-6.5" font-family="Helvetica,sans-Serif" font-size="10.00">+</text>
<text text-anchor="start" x="166" y="-6.5" font-family="Helvetica,sans-Serif" font-size="10.00">getInstance()</text>
<polygon fill="#666666" stroke="#666666" points="145,-130 145,-130 258,-130 258,-130 145,-130"/>
<polygon fill="#666666" stroke="#666666" points="145,-114 145,-114 164,-114 164,-114 145,-114"/>
<polygon fill="#666666" stroke="#666666" points="164,-114 164,-114 258,-114 258,-114 164,-114"/>
<polygon fill="none" stroke="#666666" points="145,0 145,-161 258,-161 258,0 145,0"/>
</a>
</g>
</g>
<!-- Node1&#45;&gt;Node3 -->
<g id="edge2_Node000001_Node000003" class="edge">
<title>Node1&#45;&gt;Node3</title>
<g id="a_edge2_Node000001_Node000003"><a xlink:title=" ">
<path fill="none" stroke="#63b8ff" d="M679.49,-332.5C578.36,-308.22 396.05,-254.69 266.5,-161 263.47,-158.81 260.49,-156.44 257.59,-153.94"/>
<polygon fill="none" stroke="#63b8ff" points="678.5,-335.86 689.04,-334.76 680.12,-329.05 678.5,-335.86"/>
</a>
</g>
</g>
<!-- Node4 -->
<g id="Node000004" class="node">
<title>Node4</title>
<g id="a_Node000004"><a xlink:href="classanch_1_1date_1_1formatter_1_1_hour12_formatter.html" target="_top" xlink:title=" ">
<polygon fill="white" stroke="none" points="395,-161 276,-161 276,0 395,0 395,-161"/>
<text text-anchor="start" x="283.75" y="-147.5" font-family="Helvetica,sans-Serif" font-size="10.00">anch::date::formatter</text>
<text text-anchor="start" x="290.88" y="-134.75" font-family="Helvetica,sans-Serif" font-size="10.00">::Hour12Formatter</text>
<text text-anchor="start" x="279.88" y="-118.5" font-family="Helvetica,sans-Serif" font-size="10.00">+</text>
<text text-anchor="start" x="292" y="-118.5" font-family="Helvetica,sans-Serif" font-size="10.00">PATTERN</text>
<text text-anchor="start" x="279.88" y="-102.5" font-family="Helvetica,sans-Serif" font-size="10.00">+</text>
<text text-anchor="start" x="292" y="-102.5" font-family="Helvetica,sans-Serif" font-size="10.00">Hour12Formatter()</text>
<text text-anchor="start" x="279.88" y="-86.5" font-family="Helvetica,sans-Serif" font-size="10.00">+</text>
<text text-anchor="start" x="292" y="-86.5" font-family="Helvetica,sans-Serif" font-size="10.00">~Hour12Formatter()</text>
<text text-anchor="start" x="279.88" y="-70.5" font-family="Helvetica,sans-Serif" font-size="10.00">+</text>
<text text-anchor="start" x="292" y="-70.5" font-family="Helvetica,sans-Serif" font-size="10.00">format()</text>
<text text-anchor="start" x="279.88" y="-54.5" font-family="Helvetica,sans-Serif" font-size="10.00">+</text>
<text text-anchor="start" x="292" y="-54.5" font-family="Helvetica,sans-Serif" font-size="10.00">getSize()</text>
<text text-anchor="start" x="279.88" y="-38.5" font-family="Helvetica,sans-Serif" font-size="10.00">+</text>
<text text-anchor="start" x="292" y="-38.5" font-family="Helvetica,sans-Serif" font-size="10.00">setValue()</text>
<text text-anchor="start" x="279.88" y="-22.5" font-family="Helvetica,sans-Serif" font-size="10.00">+</text>
<text text-anchor="start" x="292" y="-22.5" font-family="Helvetica,sans-Serif" font-size="10.00">getPattern()</text>
<text text-anchor="start" x="279.88" y="-6.5" font-family="Helvetica,sans-Serif" font-size="10.00">+</text>
<text text-anchor="start" x="292" y="-6.5" font-family="Helvetica,sans-Serif" font-size="10.00">getInstance()</text>
<polygon fill="#666666" stroke="#666666" points="276,-130 276,-130 395,-130 395,-130 276,-130"/>
<polygon fill="#666666" stroke="#666666" points="276,-114 276,-114 290,-114 290,-114 276,-114"/>
<polygon fill="#666666" stroke="#666666" points="290,-114 290,-114 395,-114 395,-114 290,-114"/>
<polygon fill="none" stroke="#666666" points="276,0 276,-161 395,-161 395,0 276,0"/>
</a>
</g>
</g>
<!-- Node1&#45;&gt;Node4 -->
<g id="edge3_Node000001_Node000004" class="edge">
<title>Node1&#45;&gt;Node4</title>
<g id="a_edge3_Node000001_Node000004"><a xlink:title=" ">
<path fill="none" stroke="#63b8ff" d="M680.43,-318.66C605.89,-286.49 489.91,-230.44 403.5,-161 400.53,-158.61 397.58,-156.08 394.69,-153.44"/>
<polygon fill="none" stroke="#63b8ff" points="678.7,-321.73 689.27,-322.44 681.45,-315.29 678.7,-321.73"/>
</a>
</g>
</g>
<!-- Node5 -->
<g id="Node000005" class="node">
<title>Node5</title>
<g id="a_Node000005"><a xlink:href="classanch_1_1date_1_1formatter_1_1_hour24_formatter.html" target="_top" xlink:title=" ">
<polygon fill="white" stroke="none" points="532,-161 413,-161 413,0 532,0 532,-161"/>
<text text-anchor="start" x="420.75" y="-147.5" font-family="Helvetica,sans-Serif" font-size="10.00">anch::date::formatter</text>
<text text-anchor="start" x="427.88" y="-134.75" font-family="Helvetica,sans-Serif" font-size="10.00">::Hour24Formatter</text>
<text text-anchor="start" x="416.88" y="-118.5" font-family="Helvetica,sans-Serif" font-size="10.00">+</text>
<text text-anchor="start" x="429" y="-118.5" font-family="Helvetica,sans-Serif" font-size="10.00">PATTERN</text>
<text text-anchor="start" x="416.88" y="-102.5" font-family="Helvetica,sans-Serif" font-size="10.00">+</text>
<text text-anchor="start" x="429" y="-102.5" font-family="Helvetica,sans-Serif" font-size="10.00">Hour24Formatter()</text>
<text text-anchor="start" x="416.88" y="-86.5" font-family="Helvetica,sans-Serif" font-size="10.00">+</text>
<text text-anchor="start" x="429" y="-86.5" font-family="Helvetica,sans-Serif" font-size="10.00">~Hour24Formatter()</text>
<text text-anchor="start" x="416.88" y="-70.5" font-family="Helvetica,sans-Serif" font-size="10.00">+</text>
<text text-anchor="start" x="429" y="-70.5" font-family="Helvetica,sans-Serif" font-size="10.00">format()</text>
<text text-anchor="start" x="416.88" y="-54.5" font-family="Helvetica,sans-Serif" font-size="10.00">+</text>
<text text-anchor="start" x="429" y="-54.5" font-family="Helvetica,sans-Serif" font-size="10.00">getSize()</text>
<text text-anchor="start" x="416.88" y="-38.5" font-family="Helvetica,sans-Serif" font-size="10.00">+</text>
<text text-anchor="start" x="429" y="-38.5" font-family="Helvetica,sans-Serif" font-size="10.00">setValue()</text>
<text text-anchor="start" x="416.88" y="-22.5" font-family="Helvetica,sans-Serif" font-size="10.00">+</text>
<text text-anchor="start" x="429" y="-22.5" font-family="Helvetica,sans-Serif" font-size="10.00">getPattern()</text>
<text text-anchor="start" x="416.88" y="-6.5" font-family="Helvetica,sans-Serif" font-size="10.00">+</text>
<text text-anchor="start" x="429" y="-6.5" font-family="Helvetica,sans-Serif" font-size="10.00">getInstance()</text>
<polygon fill="#666666" stroke="#666666" points="413,-130 413,-130 532,-130 532,-130 413,-130"/>
<polygon fill="#666666" stroke="#666666" points="413,-114 413,-114 427,-114 427,-114 413,-114"/>
<polygon fill="#666666" stroke="#666666" points="427,-114 427,-114 532,-114 532,-114 427,-114"/>
<polygon fill="none" stroke="#666666" points="413,0 413,-161 532,-161 532,0 413,0"/>
</a>
</g>
</g>
<!-- Node1&#45;&gt;Node5 -->
<g id="edge4_Node000001_Node000005" class="edge">
<title>Node1&#45;&gt;Node5</title>
<g id="a_edge4_Node000001_Node000005"><a xlink:title=" ">
<path fill="none" stroke="#63b8ff" d="M681.93,-289.4C639.37,-253.66 585.33,-206.36 540.5,-161 537.56,-158.03 534.61,-154.95 531.66,-151.81"/>
<polygon fill="none" stroke="#63b8ff" points="679.48,-291.91 689.39,-295.65 683.97,-286.55 679.48,-291.91"/>
</a>
</g>
</g>
<!-- Node6 -->
<g id="Node000006" class="node">
<title>Node6</title>
<g id="a_Node000006"><a xlink:href="classanch_1_1date_1_1formatter_1_1_marker_formatter.html" target="_top" xlink:title=" ">
<polygon fill="white" stroke="none" points="667,-161 550,-161 550,0 667,0 667,-161"/>
<text text-anchor="start" x="556.75" y="-147.5" font-family="Helvetica,sans-Serif" font-size="10.00">anch::date::formatter</text>
<text text-anchor="start" x="564.62" y="-134.75" font-family="Helvetica,sans-Serif" font-size="10.00">::MarkerFormatter</text>
<text text-anchor="start" x="553.88" y="-118.5" font-family="Helvetica,sans-Serif" font-size="10.00">+</text>
<text text-anchor="start" x="566" y="-118.5" font-family="Helvetica,sans-Serif" font-size="10.00">PATTERN</text>
<text text-anchor="start" x="553.88" y="-102.5" font-family="Helvetica,sans-Serif" font-size="10.00">+</text>
<text text-anchor="start" x="566" y="-102.5" font-family="Helvetica,sans-Serif" font-size="10.00">MarkerFormatter()</text>
<text text-anchor="start" x="553.88" y="-86.5" font-family="Helvetica,sans-Serif" font-size="10.00">+</text>
<text text-anchor="start" x="566" y="-86.5" font-family="Helvetica,sans-Serif" font-size="10.00">~MarkerFormatter()</text>
<text text-anchor="start" x="553.88" y="-70.5" font-family="Helvetica,sans-Serif" font-size="10.00">+</text>
<text text-anchor="start" x="566" y="-70.5" font-family="Helvetica,sans-Serif" font-size="10.00">format()</text>
<text text-anchor="start" x="553.88" y="-54.5" font-family="Helvetica,sans-Serif" font-size="10.00">+</text>
<text text-anchor="start" x="566" y="-54.5" font-family="Helvetica,sans-Serif" font-size="10.00">getSize()</text>
<text text-anchor="start" x="553.88" y="-38.5" font-family="Helvetica,sans-Serif" font-size="10.00">+</text>
<text text-anchor="start" x="566" y="-38.5" font-family="Helvetica,sans-Serif" font-size="10.00">setValue()</text>
<text text-anchor="start" x="553.88" y="-22.5" font-family="Helvetica,sans-Serif" font-size="10.00">+</text>
<text text-anchor="start" x="566" y="-22.5" font-family="Helvetica,sans-Serif" font-size="10.00">getPattern()</text>
<text text-anchor="start" x="553.88" y="-6.5" font-family="Helvetica,sans-Serif" font-size="10.00">+</text>
<text text-anchor="start" x="566" y="-6.5" font-family="Helvetica,sans-Serif" font-size="10.00">getInstance()</text>
<polygon fill="#666666" stroke="#666666" points="550,-130 550,-130 667,-130 667,-130 550,-130"/>
<polygon fill="#666666" stroke="#666666" points="550,-114 550,-114 564,-114 564,-114 550,-114"/>
<polygon fill="#666666" stroke="#666666" points="564,-114 564,-114 667,-114 667,-114 564,-114"/>
<polygon fill="none" stroke="#666666" points="550,0 550,-161 667,-161 667,0 550,0"/>
</a>
</g>
</g>
<!-- Node1&#45;&gt;Node6 -->
<g id="edge5_Node000001_Node000006" class="edge">
<title>Node1&#45;&gt;Node6</title>
<g id="a_edge5_Node000001_Node000006"><a xlink:title=" ">
<path fill="none" stroke="#63b8ff" d="M685.27,-221.9C673.88,-201.07 662.36,-180 651.84,-160.76"/>
<polygon fill="none" stroke="#63b8ff" points="682.08,-223.36 689.95,-230.45 688.22,-220 682.08,-223.36"/>
</a>
</g>
</g>
<!-- Node7 -->
<g id="Node000007" class="node">
<title>Node7</title>
<g id="a_Node000007"><a xlink:href="classanch_1_1date_1_1formatter_1_1_millisecond_formatter.html" target="_top" xlink:title=" ">
<polygon fill="white" stroke="none" points="824,-161 685,-161 685,0 824,0 824,-161"/>
<text text-anchor="start" x="699.75" y="-147.5" font-family="Helvetica,sans-Serif" font-size="10.00">anch::date::formatter</text>
<text text-anchor="start" x="699.75" y="-134.75" font-family="Helvetica,sans-Serif" font-size="10.00">::MillisecondFormatter</text>
<text text-anchor="start" x="688.88" y="-118.5" font-family="Helvetica,sans-Serif" font-size="10.00">+</text>
<text text-anchor="start" x="701" y="-118.5" font-family="Helvetica,sans-Serif" font-size="10.00">PATTERN</text>
<text text-anchor="start" x="688.88" y="-102.5" font-family="Helvetica,sans-Serif" font-size="10.00">+</text>
<text text-anchor="start" x="701" y="-102.5" font-family="Helvetica,sans-Serif" font-size="10.00">MillisecondFormatter()</text>
<text text-anchor="start" x="688.88" y="-86.5" font-family="Helvetica,sans-Serif" font-size="10.00">+</text>
<text text-anchor="start" x="701" y="-86.5" font-family="Helvetica,sans-Serif" font-size="10.00">~MillisecondFormatter()</text>
<text text-anchor="start" x="688.88" y="-70.5" font-family="Helvetica,sans-Serif" font-size="10.00">+</text>
<text text-anchor="start" x="701" y="-70.5" font-family="Helvetica,sans-Serif" font-size="10.00">format()</text>
<text text-anchor="start" x="688.88" y="-54.5" font-family="Helvetica,sans-Serif" font-size="10.00">+</text>
<text text-anchor="start" x="701" y="-54.5" font-family="Helvetica,sans-Serif" font-size="10.00">getSize()</text>
<text text-anchor="start" x="688.88" y="-38.5" font-family="Helvetica,sans-Serif" font-size="10.00">+</text>
<text text-anchor="start" x="701" y="-38.5" font-family="Helvetica,sans-Serif" font-size="10.00">setValue()</text>
<text text-anchor="start" x="688.88" y="-22.5" font-family="Helvetica,sans-Serif" font-size="10.00">+</text>
<text text-anchor="start" x="701" y="-22.5" font-family="Helvetica,sans-Serif" font-size="10.00">getPattern()</text>
<text text-anchor="start" x="688.88" y="-6.5" font-family="Helvetica,sans-Serif" font-size="10.00">+</text>
<text text-anchor="start" x="701" y="-6.5" font-family="Helvetica,sans-Serif" font-size="10.00">getInstance()</text>
<polygon fill="#666666" stroke="#666666" points="685,-130 685,-130 824,-130 824,-130 685,-130"/>
<polygon fill="#666666" stroke="#666666" points="685,-114 685,-114 699,-114 699,-114 685,-114"/>
<polygon fill="#666666" stroke="#666666" points="699,-114 699,-114 824,-114 824,-114 699,-114"/>
<polygon fill="none" stroke="#666666" points="685,0 685,-161 824,-161 824,0 685,0"/>
</a>
</g>
</g>
<!-- Node1&#45;&gt;Node7 -->
<g id="edge6_Node000001_Node000007" class="edge">
<title>Node1&#45;&gt;Node7</title>
<g id="a_edge6_Node000001_Node000007"><a xlink:title=" ">
<path fill="none" stroke="#63b8ff" d="M754.5,-185.73C754.5,-177.17 754.5,-168.78 754.5,-160.71"/>
<polygon fill="none" stroke="#63b8ff" points="751,-185.54 754.5,-195.54 758,-185.54 751,-185.54"/>
</a>
</g>
</g>
<!-- Node8 -->
<g id="Node000008" class="node">
<title>Node8</title>
<g id="a_Node000008"><a xlink:href="classanch_1_1date_1_1formatter_1_1_minute_formatter.html" target="_top" xlink:title=" ">
<polygon fill="white" stroke="none" points="959,-161 842,-161 842,0 959,0 959,-161"/>
<text text-anchor="start" x="848.75" y="-147.5" font-family="Helvetica,sans-Serif" font-size="10.00">anch::date::formatter</text>
<text text-anchor="start" x="856.62" y="-134.75" font-family="Helvetica,sans-Serif" font-size="10.00">::MinuteFormatter</text>
<text text-anchor="start" x="845.88" y="-118.5" font-family="Helvetica,sans-Serif" font-size="10.00">+</text>
<text text-anchor="start" x="858" y="-118.5" font-family="Helvetica,sans-Serif" font-size="10.00">PATTERN</text>
<text text-anchor="start" x="845.88" y="-102.5" font-family="Helvetica,sans-Serif" font-size="10.00">+</text>
<text text-anchor="start" x="858" y="-102.5" font-family="Helvetica,sans-Serif" font-size="10.00">MinuteFormatter()</text>
<text text-anchor="start" x="845.88" y="-86.5" font-family="Helvetica,sans-Serif" font-size="10.00">+</text>
<text text-anchor="start" x="858" y="-86.5" font-family="Helvetica,sans-Serif" font-size="10.00">~MinuteFormatter()</text>
<text text-anchor="start" x="845.88" y="-70.5" font-family="Helvetica,sans-Serif" font-size="10.00">+</text>
<text text-anchor="start" x="858" y="-70.5" font-family="Helvetica,sans-Serif" font-size="10.00">format()</text>
<text text-anchor="start" x="845.88" y="-54.5" font-family="Helvetica,sans-Serif" font-size="10.00">+</text>
<text text-anchor="start" x="858" y="-54.5" font-family="Helvetica,sans-Serif" font-size="10.00">getSize()</text>
<text text-anchor="start" x="845.88" y="-38.5" font-family="Helvetica,sans-Serif" font-size="10.00">+</text>
<text text-anchor="start" x="858" y="-38.5" font-family="Helvetica,sans-Serif" font-size="10.00">setValue()</text>
<text text-anchor="start" x="845.88" y="-22.5" font-family="Helvetica,sans-Serif" font-size="10.00">+</text>
<text text-anchor="start" x="858" y="-22.5" font-family="Helvetica,sans-Serif" font-size="10.00">getPattern()</text>
<text text-anchor="start" x="845.88" y="-6.5" font-family="Helvetica,sans-Serif" font-size="10.00">+</text>
<text text-anchor="start" x="858" y="-6.5" font-family="Helvetica,sans-Serif" font-size="10.00">getInstance()</text>
<polygon fill="#666666" stroke="#666666" points="842,-130 842,-130 959,-130 959,-130 842,-130"/>
<polygon fill="#666666" stroke="#666666" points="842,-114 842,-114 856,-114 856,-114 842,-114"/>
<polygon fill="#666666" stroke="#666666" points="856,-114 856,-114 959,-114 959,-114 856,-114"/>
<polygon fill="none" stroke="#666666" points="842,0 842,-161 959,-161 959,0 842,0"/>
</a>
</g>
</g>
<!-- Node1&#45;&gt;Node8 -->
<g id="edge7_Node000001_Node000008" class="edge">
<title>Node1&#45;&gt;Node8</title>
<g id="a_edge7_Node000001_Node000008"><a xlink:title=" ">
<path fill="none" stroke="#63b8ff" d="M823.73,-221.9C835.12,-201.07 846.64,-180 857.16,-160.76"/>
<polygon fill="none" stroke="#63b8ff" points="820.78,-220 819.05,-230.45 826.92,-223.36 820.78,-220"/>
</a>
</g>
</g>
<!-- Node9 -->
<g id="Node000009" class="node">
<title>Node9</title>
<g id="a_Node000009"><a xlink:href="classanch_1_1date_1_1formatter_1_1_month_formatter.html" target="_top" xlink:title=" ">
<polygon fill="white" stroke="none" points="1091.5,-161 977.5,-161 977.5,0 1091.5,0 1091.5,-161"/>
<text text-anchor="start" x="982.75" y="-147.5" font-family="Helvetica,sans-Serif" font-size="10.00">anch::date::formatter</text>
<text text-anchor="start" x="992.12" y="-134.75" font-family="Helvetica,sans-Serif" font-size="10.00">::MonthFormatter</text>
<text text-anchor="start" x="981.38" y="-118.5" font-family="Helvetica,sans-Serif" font-size="10.00">+</text>
<text text-anchor="start" x="993.5" y="-118.5" font-family="Helvetica,sans-Serif" font-size="10.00">PATTERN</text>
<text text-anchor="start" x="981.38" y="-102.5" font-family="Helvetica,sans-Serif" font-size="10.00">+</text>
<text text-anchor="start" x="993.5" y="-102.5" font-family="Helvetica,sans-Serif" font-size="10.00">MonthFormatter()</text>
<text text-anchor="start" x="981.38" y="-86.5" font-family="Helvetica,sans-Serif" font-size="10.00">+</text>
<text text-anchor="start" x="993.5" y="-86.5" font-family="Helvetica,sans-Serif" font-size="10.00">~MonthFormatter()</text>
<text text-anchor="start" x="981.38" y="-70.5" font-family="Helvetica,sans-Serif" font-size="10.00">+</text>
<text text-anchor="start" x="993.5" y="-70.5" font-family="Helvetica,sans-Serif" font-size="10.00">format()</text>
<text text-anchor="start" x="981.38" y="-54.5" font-family="Helvetica,sans-Serif" font-size="10.00">+</text>
<text text-anchor="start" x="993.5" y="-54.5" font-family="Helvetica,sans-Serif" font-size="10.00">getSize()</text>
<text text-anchor="start" x="981.38" y="-38.5" font-family="Helvetica,sans-Serif" font-size="10.00">+</text>
<text text-anchor="start" x="993.5" y="-38.5" font-family="Helvetica,sans-Serif" font-size="10.00">setValue()</text>
<text text-anchor="start" x="981.38" y="-22.5" font-family="Helvetica,sans-Serif" font-size="10.00">+</text>
<text text-anchor="start" x="993.5" y="-22.5" font-family="Helvetica,sans-Serif" font-size="10.00">getPattern()</text>
<text text-anchor="start" x="981.38" y="-6.5" font-family="Helvetica,sans-Serif" font-size="10.00">+</text>
<text text-anchor="start" x="993.5" y="-6.5" font-family="Helvetica,sans-Serif" font-size="10.00">getInstance()</text>
<polygon fill="#666666" stroke="#666666" points="977.5,-130 977.5,-130 1091.5,-130 1091.5,-130 977.5,-130"/>
<polygon fill="#666666" stroke="#666666" points="977.5,-114 977.5,-114 991.5,-114 991.5,-114 977.5,-114"/>
<polygon fill="#666666" stroke="#666666" points="991.5,-114 991.5,-114 1091.5,-114 1091.5,-114 991.5,-114"/>
<polygon fill="none" stroke="#666666" points="977.5,0 977.5,-161 1091.5,-161 1091.5,0 977.5,0"/>
</a>
</g>
</g>
<!-- Node1&#45;&gt;Node9 -->
<g id="edge8_Node000001_Node000009" class="edge">
<title>Node1&#45;&gt;Node9</title>
<g id="a_edge8_Node000001_Node000009"><a xlink:title=" ">
<path fill="none" stroke="#63b8ff" d="M826.86,-290.03C869.57,-254.33 923.85,-206.86 968.5,-161 971.5,-157.92 974.52,-154.71 977.53,-151.44"/>
<polygon fill="none" stroke="#63b8ff" points="824.81,-287.18 819.36,-296.27 829.29,-292.56 824.81,-287.18"/>
</a>
</g>
</g>
<!-- Node10 -->
<g id="Node000010" class="node">
<title>Node10</title>
<g id="a_Node000010"><a xlink:href="classanch_1_1date_1_1formatter_1_1_second_formatter.html" target="_top" xlink:title=" ">
<polygon fill="white" stroke="none" points="1229,-161 1110,-161 1110,0 1229,0 1229,-161"/>
<text text-anchor="start" x="1117.75" y="-147.5" font-family="Helvetica,sans-Serif" font-size="10.00">anch::date::formatter</text>
<text text-anchor="start" x="1124.88" y="-134.75" font-family="Helvetica,sans-Serif" font-size="10.00">::SecondFormatter</text>
<text text-anchor="start" x="1113.88" y="-118.5" font-family="Helvetica,sans-Serif" font-size="10.00">+</text>
<text text-anchor="start" x="1126" y="-118.5" font-family="Helvetica,sans-Serif" font-size="10.00">PATTERN</text>
<text text-anchor="start" x="1113.88" y="-102.5" font-family="Helvetica,sans-Serif" font-size="10.00">+</text>
<text text-anchor="start" x="1126" y="-102.5" font-family="Helvetica,sans-Serif" font-size="10.00">SecondFormatter()</text>
<text text-anchor="start" x="1113.88" y="-86.5" font-family="Helvetica,sans-Serif" font-size="10.00">+</text>
<text text-anchor="start" x="1126" y="-86.5" font-family="Helvetica,sans-Serif" font-size="10.00">~SecondFormatter()</text>
<text text-anchor="start" x="1113.88" y="-70.5" font-family="Helvetica,sans-Serif" font-size="10.00">+</text>
<text text-anchor="start" x="1126" y="-70.5" font-family="Helvetica,sans-Serif" font-size="10.00">format()</text>
<text text-anchor="start" x="1113.88" y="-54.5" font-family="Helvetica,sans-Serif" font-size="10.00">+</text>
<text text-anchor="start" x="1126" y="-54.5" font-family="Helvetica,sans-Serif" font-size="10.00">getSize()</text>
<text text-anchor="start" x="1113.88" y="-38.5" font-family="Helvetica,sans-Serif" font-size="10.00">+</text>
<text text-anchor="start" x="1126" y="-38.5" font-family="Helvetica,sans-Serif" font-size="10.00">setValue()</text>
<text text-anchor="start" x="1113.88" y="-22.5" font-family="Helvetica,sans-Serif" font-size="10.00">+</text>
<text text-anchor="start" x="1126" y="-22.5" font-family="Helvetica,sans-Serif" font-size="10.00">getPattern()</text>
<text text-anchor="start" x="1113.88" y="-6.5" font-family="Helvetica,sans-Serif" font-size="10.00">+</text>
<text text-anchor="start" x="1126" y="-6.5" font-family="Helvetica,sans-Serif" font-size="10.00">getInstance()</text>
<polygon fill="#666666" stroke="#666666" points="1110,-130 1110,-130 1229,-130 1229,-130 1110,-130"/>
<polygon fill="#666666" stroke="#666666" points="1110,-114 1110,-114 1124,-114 1124,-114 1110,-114"/>
<polygon fill="#666666" stroke="#666666" points="1124,-114 1124,-114 1229,-114 1229,-114 1124,-114"/>
<polygon fill="none" stroke="#666666" points="1110,0 1110,-161 1229,-161 1229,0 1110,0"/>
</a>
</g>
</g>
<!-- Node1&#45;&gt;Node10 -->
<g id="edge9_Node000001_Node000010" class="edge">
<title>Node1&#45;&gt;Node10</title>
<g id="a_edge9_Node000001_Node000010"><a xlink:title=" ">
<path fill="none" stroke="#63b8ff" d="M828.82,-317.68C902.24,-285.14 1015.56,-229.17 1100.5,-161 1103.78,-158.37 1107.02,-155.57 1110.22,-152.65"/>
<polygon fill="none" stroke="#63b8ff" points="827.42,-314.47 819.67,-321.7 830.24,-320.88 827.42,-314.47"/>
</a>
</g>
</g>
<!-- Node11 -->
<g id="Node000011" class="node">
<title>Node11</title>
<g id="a_Node000011"><a xlink:href="classanch_1_1date_1_1formatter_1_1_year2_d_formatter.html" target="_top" xlink:title=" ">
<polygon fill="white" stroke="none" points="1364,-161 1247,-161 1247,0 1364,0 1364,-161"/>
<text text-anchor="start" x="1253.75" y="-147.5" font-family="Helvetica,sans-Serif" font-size="10.00">anch::date::formatter</text>
<text text-anchor="start" x="1261.62" y="-134.75" font-family="Helvetica,sans-Serif" font-size="10.00">::Year2DFormatter</text>
<text text-anchor="start" x="1250.88" y="-118.5" font-family="Helvetica,sans-Serif" font-size="10.00">+</text>
<text text-anchor="start" x="1263" y="-118.5" font-family="Helvetica,sans-Serif" font-size="10.00">PATTERN</text>
<text text-anchor="start" x="1250.88" y="-102.5" font-family="Helvetica,sans-Serif" font-size="10.00">+</text>
<text text-anchor="start" x="1263" y="-102.5" font-family="Helvetica,sans-Serif" font-size="10.00">Year2DFormatter()</text>
<text text-anchor="start" x="1250.88" y="-86.5" font-family="Helvetica,sans-Serif" font-size="10.00">+</text>
<text text-anchor="start" x="1263" y="-86.5" font-family="Helvetica,sans-Serif" font-size="10.00">~Year2DFormatter()</text>
<text text-anchor="start" x="1250.88" y="-70.5" font-family="Helvetica,sans-Serif" font-size="10.00">+</text>
<text text-anchor="start" x="1263" y="-70.5" font-family="Helvetica,sans-Serif" font-size="10.00">format()</text>
<text text-anchor="start" x="1250.88" y="-54.5" font-family="Helvetica,sans-Serif" font-size="10.00">+</text>
<text text-anchor="start" x="1263" y="-54.5" font-family="Helvetica,sans-Serif" font-size="10.00">getSize()</text>
<text text-anchor="start" x="1250.88" y="-38.5" font-family="Helvetica,sans-Serif" font-size="10.00">+</text>
<text text-anchor="start" x="1263" y="-38.5" font-family="Helvetica,sans-Serif" font-size="10.00">setValue()</text>
<text text-anchor="start" x="1250.88" y="-22.5" font-family="Helvetica,sans-Serif" font-size="10.00">+</text>
<text text-anchor="start" x="1263" y="-22.5" font-family="Helvetica,sans-Serif" font-size="10.00">getPattern()</text>
<text text-anchor="start" x="1250.88" y="-6.5" font-family="Helvetica,sans-Serif" font-size="10.00">+</text>
<text text-anchor="start" x="1263" y="-6.5" font-family="Helvetica,sans-Serif" font-size="10.00">getInstance()</text>
<polygon fill="#666666" stroke="#666666" points="1247,-130 1247,-130 1364,-130 1364,-130 1247,-130"/>
<polygon fill="#666666" stroke="#666666" points="1247,-114 1247,-114 1261,-114 1261,-114 1247,-114"/>
<polygon fill="#666666" stroke="#666666" points="1261,-114 1261,-114 1364,-114 1364,-114 1261,-114"/>
<polygon fill="none" stroke="#666666" points="1247,0 1247,-161 1364,-161 1364,0 1247,0"/>
</a>
</g>
</g>
<!-- Node1&#45;&gt;Node11 -->
<g id="edge10_Node000001_Node000011" class="edge">
<title>Node1&#45;&gt;Node11</title>
<g id="a_edge10_Node000001_Node000011"><a xlink:title=" ">
<path fill="none" stroke="#63b8ff" d="M829.1,-331.97C929.26,-307.16 1109.49,-253.11 1238.5,-161 1241.44,-158.9 1244.33,-156.65 1247.15,-154.27"/>
<polygon fill="none" stroke="#63b8ff" points="828.54,-328.51 819.65,-334.28 830.2,-335.31 828.54,-328.51"/>
</a>
</g>
</g>
<!-- Node12 -->
<g id="Node000012" class="node">
<title>Node12</title>
<g id="a_Node000012"><a xlink:href="classanch_1_1date_1_1formatter_1_1_year4_d_formatter.html" target="_top" xlink:title=" ">
<polygon fill="white" stroke="none" points="1499,-161 1382,-161 1382,0 1499,0 1499,-161"/>
<text text-anchor="start" x="1388.75" y="-147.5" font-family="Helvetica,sans-Serif" font-size="10.00">anch::date::formatter</text>
<text text-anchor="start" x="1396.62" y="-134.75" font-family="Helvetica,sans-Serif" font-size="10.00">::Year4DFormatter</text>
<text text-anchor="start" x="1385.88" y="-118.5" font-family="Helvetica,sans-Serif" font-size="10.00">+</text>
<text text-anchor="start" x="1398" y="-118.5" font-family="Helvetica,sans-Serif" font-size="10.00">PATTERN</text>
<text text-anchor="start" x="1385.88" y="-102.5" font-family="Helvetica,sans-Serif" font-size="10.00">+</text>
<text text-anchor="start" x="1398" y="-102.5" font-family="Helvetica,sans-Serif" font-size="10.00">Year4DFormatter()</text>
<text text-anchor="start" x="1385.88" y="-86.5" font-family="Helvetica,sans-Serif" font-size="10.00">+</text>
<text text-anchor="start" x="1398" y="-86.5" font-family="Helvetica,sans-Serif" font-size="10.00">~Year4DFormatter()</text>
<text text-anchor="start" x="1385.88" y="-70.5" font-family="Helvetica,sans-Serif" font-size="10.00">+</text>
<text text-anchor="start" x="1398" y="-70.5" font-family="Helvetica,sans-Serif" font-size="10.00">format()</text>
<text text-anchor="start" x="1385.88" y="-54.5" font-family="Helvetica,sans-Serif" font-size="10.00">+</text>
<text text-anchor="start" x="1398" y="-54.5" font-family="Helvetica,sans-Serif" font-size="10.00">getSize()</text>
<text text-anchor="start" x="1385.88" y="-38.5" font-family="Helvetica,sans-Serif" font-size="10.00">+</text>
<text text-anchor="start" x="1398" y="-38.5" font-family="Helvetica,sans-Serif" font-size="10.00">setValue()</text>
<text text-anchor="start" x="1385.88" y="-22.5" font-family="Helvetica,sans-Serif" font-size="10.00">+</text>
<text text-anchor="start" x="1398" y="-22.5" font-family="Helvetica,sans-Serif" font-size="10.00">getPattern()</text>
<text text-anchor="start" x="1385.88" y="-6.5" font-family="Helvetica,sans-Serif" font-size="10.00">+</text>
<text text-anchor="start" x="1398" y="-6.5" font-family="Helvetica,sans-Serif" font-size="10.00">getInstance()</text>
<polygon fill="#666666" stroke="#666666" points="1382,-130 1382,-130 1499,-130 1499,-130 1382,-130"/>
<polygon fill="#666666" stroke="#666666" points="1382,-114 1382,-114 1396,-114 1396,-114 1382,-114"/>
<polygon fill="#666666" stroke="#666666" points="1396,-114 1396,-114 1499,-114 1499,-114 1396,-114"/>
<polygon fill="none" stroke="#666666" points="1382,0 1382,-161 1499,-161 1499,0 1382,0"/>
</a>
</g>
</g>
<!-- Node1&#45;&gt;Node12 -->
<g id="edge11_Node000001_Node000012" class="edge">
<title>Node1&#45;&gt;Node12</title>
<g id="a_edge11_Node000001_Node000012"><a xlink:title=" ">
<path fill="none" stroke="#63b8ff" d="M829.5,-339.79C952.13,-322.64 1199.35,-275.68 1373.5,-161 1376.52,-159.01 1379.47,-156.85 1382.35,-154.56"/>
<polygon fill="none" stroke="#63b8ff" points="829.31,-336.28 819.88,-341.11 830.26,-343.22 829.31,-336.28"/>
</a>
</g>
</g>
</g>
</svg>
