<?xml version="1.0" encoding="UTF-8" standalone="no"?>
<!DOCTYPE svg PUBLIC "-//W3C//DTD SVG 1.1//EN"
 "http://www.w3.org/Graphics/SVG/1.1/DTD/svg11.dtd">
<!-- Generated by graphviz version 14.1.3 (0)
 -->
<!-- Title: anch::events::Observable&lt; T &gt; Pages: 1 -->
<svg width="785pt" height="868pt"
 viewBox="0.00 0.00 785.00 868.00" xmlns="http://www.w3.org/2000/svg" xmlns:xlink="http://www.w3.org/1999/xlink">
<g id="graph0" class="graph" transform="scale(1 1) rotate(0) translate(4 864)">
<title>anch::events::Observable&lt; T &gt;</title>
<!-- Node1 -->
<g id="Node000001" class="node">
<title>Node1</title>
<g id="a_Node000001"><a xlink:title="An observable implementation of the observers/observable design pattern.">
<polygon fill="#999999" stroke="none" points="435.38,-860 292.38,-860 292.38,-728 435.38,-728 435.38,-860"/>
<text xml:space="preserve" text-anchor="start" x="296.38" y="-846.25" font-family="Helvetica,sans-Serif" font-size="10.00">anch::events::Observable&lt; T &gt;</text>
<text xml:space="preserve" text-anchor="start" x="362.38" y="-830.25" font-family="Helvetica,sans-Serif" font-size="10.00"> </text>
<text xml:space="preserve" text-anchor="start" x="308.12" y="-814.25" font-family="Helvetica,sans-Serif" font-size="10.00">+</text>
<text xml:space="preserve" text-anchor="start" x="329.88" y="-814.25" font-family="Helvetica,sans-Serif" font-size="10.00">Observable()</text>
<text xml:space="preserve" text-anchor="start" x="308.12" y="-798.25" font-family="Helvetica,sans-Serif" font-size="10.00">+</text>
<text xml:space="preserve" text-anchor="start" x="329.88" y="-798.25" font-family="Helvetica,sans-Serif" font-size="10.00">~Observable()</text>
<text xml:space="preserve" text-anchor="start" x="308.12" y="-782.25" font-family="Helvetica,sans-Serif" font-size="10.00">+</text>
<text xml:space="preserve" text-anchor="start" x="329.88" y="-782.25" font-family="Helvetica,sans-Serif" font-size="10.00">addObserver()</text>
<text xml:space="preserve" text-anchor="start" x="308.12" y="-766.25" font-family="Helvetica,sans-Serif" font-size="10.00">+</text>
<text xml:space="preserve" text-anchor="start" x="329.88" y="-766.25" font-family="Helvetica,sans-Serif" font-size="10.00">removeObserver()</text>
<text xml:space="preserve" text-anchor="start" x="308.12" y="-750.25" font-family="Helvetica,sans-Serif" font-size="10.00">+</text>
<text xml:space="preserve" text-anchor="start" x="329.88" y="-750.25" font-family="Helvetica,sans-Serif" font-size="10.00">notifyObservers()</text>
<text xml:space="preserve" text-anchor="start" x="308.12" y="-734.25" font-family="Helvetica,sans-Serif" font-size="10.00">+</text>
<text xml:space="preserve" text-anchor="start" x="329.88" y="-734.25" font-family="Helvetica,sans-Serif" font-size="10.00">notifyObservers()</text>
<polygon fill="#666666" stroke="#666666" points="292.38,-842 292.38,-842 435.38,-842 435.38,-842 292.38,-842"/>
<polygon fill="#666666" stroke="#666666" points="292.38,-826 292.38,-826 435.38,-826 435.38,-826 292.38,-826"/>
<polygon fill="none" stroke="#666666" points="292.38,-728 292.38,-860 435.38,-860 435.38,-728 292.38,-728"/>
</a>
</g>
</g>
<!-- Node2 -->
<g id="Node000002" class="node">
<title>Node2</title>
<g id="a_Node000002"><a xlink:href="classanch_1_1events_1_1_observable.html" target="_top" xlink:title=" ">
<polygon fill="white" stroke="none" points="131.75,-674 0,-674 0,-546 131.75,-546 131.75,-674"/>
<text xml:space="preserve" text-anchor="start" x="4" y="-660.25" font-family="Helvetica,sans-Serif" font-size="10.00">anch::events::Observable</text>
<text xml:space="preserve" text-anchor="start" x="4" y="-648.25" font-family="Helvetica,sans-Serif" font-size="10.00">&lt; anch::conf::ResConfEvt &gt;</text>
<text xml:space="preserve" text-anchor="start" x="64.38" y="-632.25" font-family="Helvetica,sans-Serif" font-size="10.00"> </text>
<text xml:space="preserve" text-anchor="start" x="12.94" y="-616.25" font-family="Helvetica,sans-Serif" font-size="10.00">+</text>
<text xml:space="preserve" text-anchor="start" x="31.88" y="-616.25" font-family="Helvetica,sans-Serif" font-size="10.00">Observable()</text>
<text xml:space="preserve" text-anchor="start" x="12.94" y="-600.25" font-family="Helvetica,sans-Serif" font-size="10.00">+</text>
<text xml:space="preserve" text-anchor="start" x="31.88" y="-600.25" font-family="Helvetica,sans-Serif" font-size="10.00">~Observable()</text>
<text xml:space="preserve" text-anchor="start" x="12.94" y="-584.25" font-family="Helvetica,sans-Serif" font-size="10.00">+</text>
<text xml:space="preserve" text-anchor="start" x="31.88" y="-584.25" font-family="Helvetica,sans-Serif" font-size="10.00">addObserver()</text>
<text xml:space="preserve" text-anchor="start" x="12.94" y="-568.25" font-family="Helvetica,sans-Serif" font-size="10.00">+</text>
<text xml:space="preserve" text-anchor="start" x="31.88" y="-568.25" font-family="Helvetica,sans-Serif" font-size="10.00">removeObserver()</text>
<text xml:space="preserve" text-anchor="start" x="12.94" y="-552.25" font-family="Helvetica,sans-Serif" font-size="10.00">+</text>
<text xml:space="preserve" text-anchor="start" x="31.88" y="-552.25" font-family="Helvetica,sans-Serif" font-size="10.00">notifyObservers()</text>
<polygon fill="#666666" stroke="#666666" points="0,-644 0,-644 131.75,-644 131.75,-644 0,-644"/>
<polygon fill="#666666" stroke="#666666" points="0,-628 0,-628 131.75,-628 131.75,-628 0,-628"/>
<polygon fill="none" stroke="#666666" points="0,-546 0,-674 131.75,-674 131.75,-546 0,-546"/>
</a>
</g>
</g>
<!-- Node1&#45;&gt;Node2 -->
<g id="edge1_Node000001_Node000002" class="edge">
<title>Node1&#45;&gt;Node2</title>
<g id="a_edge1_Node000001_Node000002"><a xlink:title=" ">
<path fill="none" stroke="orange" d="M281.55,-788.88C220.81,-781.43 140.45,-761.63 91.12,-710 81.63,-700.06 75.57,-687.07 71.73,-673.78"/>
<polygon fill="orange" stroke="orange" points="280.82,-792.32 291.15,-789.96 281.6,-785.36 280.82,-792.32"/>
</a>
</g>
<text xml:space="preserve" text-anchor="start" x="94.12" y="-697.25" font-family="Helvetica,sans-Serif" font-size="10.00" fill="grey">&lt; anch::conf::ResConfEvt &gt;</text>
</g>
<!-- Node4 -->
<g id="Node000004" class="node">
<title>Node4</title>
<g id="a_Node000004"><a xlink:href="classanch_1_1events_1_1_observable.html" target="_top" xlink:title=" ">
<polygon fill="white" stroke="none" points="276.62,-674 153.12,-674 153.12,-546 276.62,-546 276.62,-674"/>
<text xml:space="preserve" text-anchor="start" x="157.12" y="-660.25" font-family="Helvetica,sans-Serif" font-size="10.00">anch::events::Observable</text>
<text xml:space="preserve" text-anchor="start" x="157.12" y="-648.25" font-family="Helvetica,sans-Serif" font-size="10.00">&lt; anch::json::JSONItem &gt;</text>
<text xml:space="preserve" text-anchor="start" x="213.38" y="-632.25" font-family="Helvetica,sans-Serif" font-size="10.00"> </text>
<text xml:space="preserve" text-anchor="start" x="164" y="-616.25" font-family="Helvetica,sans-Serif" font-size="10.00">+</text>
<text xml:space="preserve" text-anchor="start" x="180.88" y="-616.25" font-family="Helvetica,sans-Serif" font-size="10.00">Observable()</text>
<text xml:space="preserve" text-anchor="start" x="164" y="-600.25" font-family="Helvetica,sans-Serif" font-size="10.00">+</text>
<text xml:space="preserve" text-anchor="start" x="180.88" y="-600.25" font-family="Helvetica,sans-Serif" font-size="10.00">~Observable()</text>
<text xml:space="preserve" text-anchor="start" x="164" y="-584.25" font-family="Helvetica,sans-Serif" font-size="10.00">+</text>
<text xml:space="preserve" text-anchor="start" x="180.88" y="-584.25" font-family="Helvetica,sans-Serif" font-size="10.00">addObserver()</text>
<text xml:space="preserve" text-anchor="start" x="164" y="-568.25" font-family="Helvetica,sans-Serif" font-size="10.00">+</text>
<text xml:space="preserve" text-anchor="start" x="180.88" y="-568.25" font-family="Helvetica,sans-Serif" font-size="10.00">removeObserver()</text>
<text xml:space="preserve" text-anchor="start" x="164" y="-552.25" font-family="Helvetica,sans-Serif" font-size="10.00">+</text>
<text xml:space="preserve" text-anchor="start" x="180.88" y="-552.25" font-family="Helvetica,sans-Serif" font-size="10.00">notifyObservers()</text>
<polygon fill="#666666" stroke="#666666" points="153.12,-644 153.12,-644 276.62,-644 276.62,-644 153.12,-644"/>
<polygon fill="#666666" stroke="#666666" points="153.12,-628 153.12,-628 276.62,-628 276.62,-628 153.12,-628"/>
<polygon fill="none" stroke="#666666" points="153.12,-546 153.12,-674 276.62,-674 276.62,-546 153.12,-546"/>
</a>
</g>
</g>
<!-- Node1&#45;&gt;Node4 -->
<g id="edge3_Node000001_Node000004" class="edge">
<title>Node1&#45;&gt;Node4</title>
<g id="a_edge3_Node000001_Node000004"><a xlink:title=" ">
<path fill="none" stroke="orange" d="M283.01,-755.99C264.14,-743.83 245.92,-728.55 233.38,-710 226.18,-699.35 221.59,-686.66 218.7,-673.97"/>
<polygon fill="orange" stroke="orange" points="280.97,-758.84 291.32,-761.1 284.63,-752.88 280.97,-758.84"/>
</a>
</g>
<text xml:space="preserve" text-anchor="start" x="236.38" y="-697.25" font-family="Helvetica,sans-Serif" font-size="10.00" fill="grey">&lt; anch::json::JSONItem &gt;</text>
</g>
<!-- Node6 -->
<g id="Node000006" class="node">
<title>Node6</title>
<g id="a_Node000006"><a xlink:href="classanch_1_1events_1_1_observable.html" target="_top" xlink:title=" ">
<polygon fill="white" stroke="none" points="414.75,-674 295,-674 295,-546 414.75,-546 414.75,-674"/>
<text xml:space="preserve" text-anchor="start" x="299" y="-660.25" font-family="Helvetica,sans-Serif" font-size="10.00">anch::events::Observable</text>
<text xml:space="preserve" text-anchor="start" x="312.12" y="-648.25" font-family="Helvetica,sans-Serif" font-size="10.00">&lt; std::streamsize &gt;</text>
<text xml:space="preserve" text-anchor="start" x="353.38" y="-632.25" font-family="Helvetica,sans-Serif" font-size="10.00"> </text>
<text xml:space="preserve" text-anchor="start" x="304.94" y="-616.25" font-family="Helvetica,sans-Serif" font-size="10.00">+</text>
<text xml:space="preserve" text-anchor="start" x="320.88" y="-616.25" font-family="Helvetica,sans-Serif" font-size="10.00">Observable()</text>
<text xml:space="preserve" text-anchor="start" x="304.94" y="-600.25" font-family="Helvetica,sans-Serif" font-size="10.00">+</text>
<text xml:space="preserve" text-anchor="start" x="320.88" y="-600.25" font-family="Helvetica,sans-Serif" font-size="10.00">~Observable()</text>
<text xml:space="preserve" text-anchor="start" x="304.94" y="-584.25" font-family="Helvetica,sans-Serif" font-size="10.00">+</text>
<text xml:space="preserve" text-anchor="start" x="320.88" y="-584.25" font-family="Helvetica,sans-Serif" font-size="10.00">addObserver()</text>
<text xml:space="preserve" text-anchor="start" x="304.94" y="-568.25" font-family="Helvetica,sans-Serif" font-size="10.00">+</text>
<text xml:space="preserve" text-anchor="start" x="320.88" y="-568.25" font-family="Helvetica,sans-Serif" font-size="10.00">removeObserver()</text>
<text xml:space="preserve" text-anchor="start" x="304.94" y="-552.25" font-family="Helvetica,sans-Serif" font-size="10.00">+</text>
<text xml:space="preserve" text-anchor="start" x="320.88" y="-552.25" font-family="Helvetica,sans-Serif" font-size="10.00">notifyObservers()</text>
<polygon fill="#666666" stroke="#666666" points="295,-644 295,-644 414.75,-644 414.75,-644 295,-644"/>
<polygon fill="#666666" stroke="#666666" points="295,-628 295,-628 414.75,-628 414.75,-628 295,-628"/>
<polygon fill="none" stroke="#666666" points="295,-546 295,-674 414.75,-674 414.75,-546 295,-546"/>
</a>
</g>
</g>
<!-- Node1&#45;&gt;Node6 -->
<g id="edge5_Node000001_Node000006" class="edge">
<title>Node1&#45;&gt;Node6</title>
<g id="a_edge5_Node000001_Node000006"><a xlink:title=" ">
<path fill="none" stroke="orange" d="M360.1,-716.73C359.4,-702.42 358.66,-687.61 357.98,-673.77"/>
<polygon fill="orange" stroke="orange" points="356.6,-716.74 360.59,-726.55 363.59,-716.39 356.6,-716.74"/>
</a>
</g>
<text xml:space="preserve" text-anchor="start" x="362.64" y="-697.25" font-family="Helvetica,sans-Serif" font-size="10.00" fill="grey">&lt; std::streamsize &gt;</text>
</g>
<!-- Node7 -->
<g id="Node000007" class="node">
<title>Node7</title>
<g id="a_Node000007"><a xlink:href="classanch_1_1events_1_1_observable.html" target="_top" xlink:title=" ">
<polygon fill="white" stroke="none" points="567.25,-674 432.5,-674 432.5,-546 567.25,-546 567.25,-674"/>
<text xml:space="preserve" text-anchor="start" x="436.5" y="-660.25" font-family="Helvetica,sans-Serif" font-size="10.00">anch::events::Observable</text>
<text xml:space="preserve" text-anchor="start" x="436.5" y="-648.25" font-family="Helvetica,sans-Serif" font-size="10.00">&lt; anch::json::MappingError &gt;</text>
<text xml:space="preserve" text-anchor="start" x="498.38" y="-632.25" font-family="Helvetica,sans-Serif" font-size="10.00"> </text>
<text xml:space="preserve" text-anchor="start" x="446.19" y="-616.25" font-family="Helvetica,sans-Serif" font-size="10.00">+</text>
<text xml:space="preserve" text-anchor="start" x="465.88" y="-616.25" font-family="Helvetica,sans-Serif" font-size="10.00">Observable()</text>
<text xml:space="preserve" text-anchor="start" x="446.19" y="-600.25" font-family="Helvetica,sans-Serif" font-size="10.00">+</text>
<text xml:space="preserve" text-anchor="start" x="465.88" y="-600.25" font-family="Helvetica,sans-Serif" font-size="10.00">~Observable()</text>
<text xml:space="preserve" text-anchor="start" x="446.19" y="-584.25" font-family="Helvetica,sans-Serif" font-size="10.00">+</text>
<text xml:space="preserve" text-anchor="start" x="465.88" y="-584.25" font-family="Helvetica,sans-Serif" font-size="10.00">addObserver()</text>
<text xml:space="preserve" text-anchor="start" x="446.19" y="-568.25" font-family="Helvetica,sans-Serif" font-size="10.00">+</text>
<text xml:space="preserve" text-anchor="start" x="465.88" y="-568.25" font-family="Helvetica,sans-Serif" font-size="10.00">removeObserver()</text>
<text xml:space="preserve" text-anchor="start" x="446.19" y="-552.25" font-family="Helvetica,sans-Serif" font-size="10.00">+</text>
<text xml:space="preserve" text-anchor="start" x="465.88" y="-552.25" font-family="Helvetica,sans-Serif" font-size="10.00">notifyObservers()</text>
<polygon fill="#666666" stroke="#666666" points="432.5,-644 432.5,-644 567.25,-644 567.25,-644 432.5,-644"/>
<polygon fill="#666666" stroke="#666666" points="432.5,-628 432.5,-628 567.25,-628 567.25,-628 432.5,-628"/>
<polygon fill="none" stroke="#666666" points="432.5,-546 432.5,-674 567.25,-674 567.25,-546 432.5,-546"/>
</a>
</g>
</g>
<!-- Node1&#45;&gt;Node7 -->
<g id="edge7_Node000001_Node000007" class="edge">
<title>Node1&#45;&gt;Node7</title>
<g id="a_edge7_Node000001_Node000007"><a xlink:title=" ">
<path fill="none" stroke="orange" d="M442.55,-725.34C446.93,-720.34 451.09,-715.21 454.88,-710 462.87,-699.01 469.93,-686.37 475.95,-673.88"/>
<polygon fill="orange" stroke="orange" points="440.16,-722.76 436,-732.5 445.33,-727.48 440.16,-722.76"/>
</a>
</g>
<text xml:space="preserve" text-anchor="start" x="469.11" y="-697.25" font-family="Helvetica,sans-Serif" font-size="10.00" fill="grey">&lt; anch::json::MappingError &gt;</text>
</g>
<!-- Node8 -->
<g id="Node000008" class="node">
<title>Node8</title>
<g id="a_Node000008"><a xlink:href="classanch_1_1events_1_1_observable.html" target="_top" xlink:title=" ">
<polygon fill="white" stroke="none" points="704.75,-674 585,-674 585,-546 704.75,-546 704.75,-674"/>
<text xml:space="preserve" text-anchor="start" x="589" y="-660.25" font-family="Helvetica,sans-Serif" font-size="10.00">anch::events::Observable</text>
<text xml:space="preserve" text-anchor="start" x="607.75" y="-648.25" font-family="Helvetica,sans-Serif" font-size="10.00">&lt; SocketEvent &gt;</text>
<text xml:space="preserve" text-anchor="start" x="643.38" y="-632.25" font-family="Helvetica,sans-Serif" font-size="10.00"> </text>
<text xml:space="preserve" text-anchor="start" x="594.94" y="-616.25" font-family="Helvetica,sans-Serif" font-size="10.00">+</text>
<text xml:space="preserve" text-anchor="start" x="610.88" y="-616.25" font-family="Helvetica,sans-Serif" font-size="10.00">Observable()</text>
<text xml:space="preserve" text-anchor="start" x="594.94" y="-600.25" font-family="Helvetica,sans-Serif" font-size="10.00">+</text>
<text xml:space="preserve" text-anchor="start" x="610.88" y="-600.25" font-family="Helvetica,sans-Serif" font-size="10.00">~Observable()</text>
<text xml:space="preserve" text-anchor="start" x="594.94" y="-584.25" font-family="Helvetica,sans-Serif" font-size="10.00">+</text>
<text xml:space="preserve" text-anchor="start" x="610.88" y="-584.25" font-family="Helvetica,sans-Serif" font-size="10.00">addObserver()</text>
<text xml:space="preserve" text-anchor="start" x="594.94" y="-568.25" font-family="Helvetica,sans-Serif" font-size="10.00">+</text>
<text xml:space="preserve" text-anchor="start" x="610.88" y="-568.25" font-family="Helvetica,sans-Serif" font-size="10.00">removeObserver()</text>
<text xml:space="preserve" text-anchor="start" x="594.94" y="-552.25" font-family="Helvetica,sans-Serif" font-size="10.00">+</text>
<text xml:space="preserve" text-anchor="start" x="610.88" y="-552.25" font-family="Helvetica,sans-Serif" font-size="10.00">notifyObservers()</text>
<polygon fill="#666666" stroke="#666666" points="585,-644 585,-644 704.75,-644 704.75,-644 585,-644"/>
<polygon fill="#666666" stroke="#666666" points="585,-628 585,-628 704.75,-628 704.75,-628 585,-628"/>
<polygon fill="none" stroke="#666666" points="585,-546 585,-674 704.75,-674 704.75,-546 585,-546"/>
</a>
</g>
</g>
<!-- Node1&#45;&gt;Node8 -->
<g id="edge9_Node000001_Node000008" class="edge">
<title>Node1&#45;&gt;Node8</title>
<g id="a_edge9_Node000001_Node000008"><a xlink:title=" ">
<path fill="none" stroke="orange" d="M446.36,-781.66C496.98,-770.87 560.08,-750.03 602.88,-710 613.44,-700.12 621.46,-687.14 627.51,-673.86"/>
<polygon fill="orange" stroke="orange" points="445.69,-778.23 436.59,-783.64 447.08,-785.09 445.69,-778.23"/>
</a>
</g>
<text xml:space="preserve" text-anchor="start" x="620.58" y="-697.25" font-family="Helvetica,sans-Serif" font-size="10.00" fill="grey">&lt; SocketEvent &gt;</text>
</g>
<!-- Node3 -->
<g id="Node000003" class="node">
<title>Node3</title>
<g id="a_Node000003"><a xlink:href="classanch_1_1conf_1_1_placeholders.html" target="_top" xlink:title="Register placeholders.">
<polygon fill="white" stroke="none" points="123.88,-453 7.88,-453 7.88,-305 123.88,-305 123.88,-453"/>
<text xml:space="preserve" text-anchor="start" x="11.88" y="-439.25" font-family="Helvetica,sans-Serif" font-size="10.00">anch::conf::Placeholders</text>
<text xml:space="preserve" text-anchor="start" x="64.38" y="-423.25" font-family="Helvetica,sans-Serif" font-size="10.00"> </text>
<text xml:space="preserve" text-anchor="start" x="19.31" y="-407.25" font-family="Helvetica,sans-Serif" font-size="10.00">+</text>
<text xml:space="preserve" text-anchor="start" x="36.75" y="-407.25" font-family="Helvetica,sans-Serif" font-size="10.00">Placeholders()</text>
<text xml:space="preserve" text-anchor="start" x="19.31" y="-391.25" font-family="Helvetica,sans-Serif" font-size="10.00">+</text>
<text xml:space="preserve" text-anchor="start" x="36.75" y="-391.25" font-family="Helvetica,sans-Serif" font-size="10.00">Placeholders()</text>
<text xml:space="preserve" text-anchor="start" x="19.31" y="-375.25" font-family="Helvetica,sans-Serif" font-size="10.00">+</text>
<text xml:space="preserve" text-anchor="start" x="36.75" y="-375.25" font-family="Helvetica,sans-Serif" font-size="10.00">Placeholders()</text>
<text xml:space="preserve" text-anchor="start" x="19.31" y="-359.25" font-family="Helvetica,sans-Serif" font-size="10.00">+</text>
<text xml:space="preserve" text-anchor="start" x="36.75" y="-359.25" font-family="Helvetica,sans-Serif" font-size="10.00">Placeholders()</text>
<text xml:space="preserve" text-anchor="start" x="19.31" y="-343.25" font-family="Helvetica,sans-Serif" font-size="10.00">+</text>
<text xml:space="preserve" text-anchor="start" x="36.75" y="-343.25" font-family="Helvetica,sans-Serif" font-size="10.00">~Placeholders()</text>
<text xml:space="preserve" text-anchor="start" x="19.31" y="-327.25" font-family="Helvetica,sans-Serif" font-size="10.00">+</text>
<text xml:space="preserve" text-anchor="start" x="36.75" y="-327.25" font-family="Helvetica,sans-Serif" font-size="10.00">collect()</text>
<text xml:space="preserve" text-anchor="start" x="19.31" y="-311.25" font-family="Helvetica,sans-Serif" font-size="10.00">+</text>
<text xml:space="preserve" text-anchor="start" x="36.75" y="-311.25" font-family="Helvetica,sans-Serif" font-size="10.00">resolve()</text>
<polygon fill="#666666" stroke="#666666" points="7.88,-435 7.88,-435 123.88,-435 123.88,-435 7.88,-435"/>
<polygon fill="#666666" stroke="#666666" points="7.88,-419 7.88,-419 123.88,-419 123.88,-419 7.88,-419"/>
<polygon fill="none" stroke="#666666" points="7.88,-305 7.88,-453 123.88,-453 123.88,-305 7.88,-305"/>
</a>
</g>
</g>
<!-- Node2&#45;&gt;Node3 -->
<g id="edge2_Node000002_Node000003" class="edge">
<title>Node2&#45;&gt;Node3</title>
<g id="a_edge2_Node000002_Node000003"><a xlink:title=" ">
<path fill="none" stroke="#8b1a1a" d="M65.88,-534.7C65.88,-508.46 65.88,-478.99 65.88,-452.87"/>
<polygon fill="none" stroke="#8b1a1a" points="62.38,-534.61 65.88,-544.61 69.38,-534.61 62.38,-534.61"/>
</a>
</g>
</g>
<!-- Node5 -->
<g id="Node000005" class="node">
<title>Node5</title>
<g id="a_Node000005"><a xlink:href="classanch_1_1json_1_1_reader.html" target="_top" xlink:title="JSON reader based on events.">
<polygon fill="white" stroke="none" points="400.12,-477 309.62,-477 309.62,-281 400.12,-281 400.12,-477"/>
<text xml:space="preserve" text-anchor="start" x="313.62" y="-463.25" font-family="Helvetica,sans-Serif" font-size="10.00">anch::json::Reader</text>
<text xml:space="preserve" text-anchor="start" x="353.38" y="-447.25" font-family="Helvetica,sans-Serif" font-size="10.00"> </text>
<text xml:space="preserve" text-anchor="start" x="319.38" y="-431.25" font-family="Helvetica,sans-Serif" font-size="10.00">+</text>
<text xml:space="preserve" text-anchor="start" x="335.12" y="-431.25" font-family="Helvetica,sans-Serif" font-size="10.00">Reader()</text>
<text xml:space="preserve" text-anchor="start" x="319.38" y="-415.25" font-family="Helvetica,sans-Serif" font-size="10.00">+</text>
<text xml:space="preserve" text-anchor="start" x="335.12" y="-415.25" font-family="Helvetica,sans-Serif" font-size="10.00">Reader()</text>
<text xml:space="preserve" text-anchor="start" x="319.38" y="-399.25" font-family="Helvetica,sans-Serif" font-size="10.00">+</text>
<text xml:space="preserve" text-anchor="start" x="335.12" y="-399.25" font-family="Helvetica,sans-Serif" font-size="10.00">Reader()</text>
<text xml:space="preserve" text-anchor="start" x="319.38" y="-383.25" font-family="Helvetica,sans-Serif" font-size="10.00">+</text>
<text xml:space="preserve" text-anchor="start" x="335.12" y="-383.25" font-family="Helvetica,sans-Serif" font-size="10.00">Reader()</text>
<text xml:space="preserve" text-anchor="start" x="319.38" y="-367.25" font-family="Helvetica,sans-Serif" font-size="10.00">+</text>
<text xml:space="preserve" text-anchor="start" x="335.12" y="-367.25" font-family="Helvetica,sans-Serif" font-size="10.00">~Reader()</text>
<text xml:space="preserve" text-anchor="start" x="319.38" y="-351.25" font-family="Helvetica,sans-Serif" font-size="10.00">+</text>
<text xml:space="preserve" text-anchor="start" x="335.12" y="-351.25" font-family="Helvetica,sans-Serif" font-size="10.00">parse()</text>
<text xml:space="preserve" text-anchor="start" x="319.38" y="-335.25" font-family="Helvetica,sans-Serif" font-size="10.00">+</text>
<text xml:space="preserve" text-anchor="start" x="335.12" y="-335.25" font-family="Helvetica,sans-Serif" font-size="10.00">itemObs()</text>
<text xml:space="preserve" text-anchor="start" x="319.38" y="-319.25" font-family="Helvetica,sans-Serif" font-size="10.00">+</text>
<text xml:space="preserve" text-anchor="start" x="335.12" y="-319.25" font-family="Helvetica,sans-Serif" font-size="10.00">sizeObs()</text>
<text xml:space="preserve" text-anchor="start" x="319.38" y="-303.25" font-family="Helvetica,sans-Serif" font-size="10.00">+</text>
<text xml:space="preserve" text-anchor="start" x="335.12" y="-303.25" font-family="Helvetica,sans-Serif" font-size="10.00">errorObs()</text>
<text xml:space="preserve" text-anchor="start" x="319.75" y="-287.25" font-family="Helvetica,sans-Serif" font-size="10.00">#</text>
<text xml:space="preserve" text-anchor="start" x="335.12" y="-287.25" font-family="Helvetica,sans-Serif" font-size="10.00">refillBuffer()</text>
<polygon fill="#666666" stroke="#666666" points="309.62,-459 309.62,-459 400.12,-459 400.12,-459 309.62,-459"/>
<polygon fill="#666666" stroke="#666666" points="309.62,-443 309.62,-443 400.12,-443 400.12,-443 309.62,-443"/>
<polygon fill="none" stroke="#666666" points="309.62,-281 309.62,-477 400.12,-477 400.12,-281 309.62,-281"/>
</a>
</g>
</g>
<!-- Node4&#45;&gt;Node5 -->
<g id="edge4_Node000004_Node000005" class="edge">
<title>Node4&#45;&gt;Node5</title>
<g id="a_edge4_Node000004_Node000005"><a xlink:title=" ">
<path fill="none" stroke="#63b8ff" d="M259.16,-536.56C275.32,-510.13 293.6,-480.23 309.82,-453.69"/>
<polygon fill="none" stroke="#63b8ff" points="256.34,-534.47 254.11,-544.83 262.31,-538.12 256.34,-534.47"/>
</a>
</g>
</g>
<!-- Node6&#45;&gt;Node5 -->
<g id="edge6_Node000006_Node000005" class="edge">
<title>Node6&#45;&gt;Node5</title>
<g id="a_edge6_Node000006_Node000005"><a xlink:title=" ">
<path fill="none" stroke="#63b8ff" d="M354.88,-534.81C354.88,-516.28 354.88,-496.13 354.88,-476.68"/>
<polygon fill="none" stroke="#63b8ff" points="351.38,-534.61 354.88,-544.61 358.38,-534.61 351.38,-534.61"/>
</a>
</g>
</g>
<!-- Node7&#45;&gt;Node5 -->
<g id="edge8_Node000007_Node000005" class="edge">
<title>Node7&#45;&gt;Node5</title>
<g id="a_edge8_Node000007_Node000005"><a xlink:title=" ">
<path fill="none" stroke="#63b8ff" d="M454.06,-536.64C436.79,-509.37 417.17,-478.39 399.97,-451.22"/>
<polygon fill="none" stroke="#63b8ff" points="450.94,-538.27 459.25,-544.84 456.86,-534.52 450.94,-538.27"/>
</a>
</g>
</g>
<!-- Node9 -->
<g id="Node000009" class="node">
<title>Node9</title>
<g id="a_Node000009"><a xlink:href="classanch_1_1network_1_1_socket.html" target="_top" xlink:title=" ">
<polygon fill="white" stroke="none" points="698,-509 591.75,-509 591.75,-249 698,-249 698,-509"/>
<text xml:space="preserve" text-anchor="start" x="595.75" y="-495.25" font-family="Helvetica,sans-Serif" font-size="10.00">anch::network::Socket</text>
<text xml:space="preserve" text-anchor="start" x="602.62" y="-479.25" font-family="Helvetica,sans-Serif" font-size="10.00">#</text>
<text xml:space="preserve" text-anchor="start" x="618.75" y="-479.25" font-family="Helvetica,sans-Serif" font-size="10.00">_sock</text>
<text xml:space="preserve" text-anchor="start" x="602.62" y="-463.25" font-family="Helvetica,sans-Serif" font-size="10.00">#</text>
<text xml:space="preserve" text-anchor="start" x="618.75" y="-463.25" font-family="Helvetica,sans-Serif" font-size="10.00">_backlog</text>
<text xml:space="preserve" text-anchor="start" x="602.62" y="-447.25" font-family="Helvetica,sans-Serif" font-size="10.00">#</text>
<text xml:space="preserve" text-anchor="start" x="618.75" y="-447.25" font-family="Helvetica,sans-Serif" font-size="10.00">_address</text>
<text xml:space="preserve" text-anchor="start" x="602.25" y="-431.25" font-family="Helvetica,sans-Serif" font-size="10.00">+</text>
<text xml:space="preserve" text-anchor="start" x="618.75" y="-431.25" font-family="Helvetica,sans-Serif" font-size="10.00">Socket()</text>
<text xml:space="preserve" text-anchor="start" x="602.25" y="-415.25" font-family="Helvetica,sans-Serif" font-size="10.00">+</text>
<text xml:space="preserve" text-anchor="start" x="618.75" y="-415.25" font-family="Helvetica,sans-Serif" font-size="10.00">~Socket()</text>
<text xml:space="preserve" text-anchor="start" x="602.25" y="-399.25" font-family="Helvetica,sans-Serif" font-size="10.00">+</text>
<text xml:space="preserve" text-anchor="start" x="618.75" y="-399.25" font-family="Helvetica,sans-Serif" font-size="10.00">bind()</text>
<text xml:space="preserve" text-anchor="start" x="602.25" y="-383.25" font-family="Helvetica,sans-Serif" font-size="10.00">+</text>
<text xml:space="preserve" text-anchor="start" x="618.75" y="-383.25" font-family="Helvetica,sans-Serif" font-size="10.00">connect()</text>
<text xml:space="preserve" text-anchor="start" x="602.25" y="-367.25" font-family="Helvetica,sans-Serif" font-size="10.00">+</text>
<text xml:space="preserve" text-anchor="start" x="618.75" y="-367.25" font-family="Helvetica,sans-Serif" font-size="10.00">listen()</text>
<text xml:space="preserve" text-anchor="start" x="602.25" y="-351.25" font-family="Helvetica,sans-Serif" font-size="10.00">+</text>
<text xml:space="preserve" text-anchor="start" x="618.75" y="-351.25" font-family="Helvetica,sans-Serif" font-size="10.00">accept()</text>
<text xml:space="preserve" text-anchor="start" x="602.25" y="-335.25" font-family="Helvetica,sans-Serif" font-size="10.00">+</text>
<text xml:space="preserve" text-anchor="start" x="618.75" y="-335.25" font-family="Helvetica,sans-Serif" font-size="10.00">send()</text>
<text xml:space="preserve" text-anchor="start" x="602.25" y="-319.25" font-family="Helvetica,sans-Serif" font-size="10.00">+</text>
<text xml:space="preserve" text-anchor="start" x="618.75" y="-319.25" font-family="Helvetica,sans-Serif" font-size="10.00">receive()</text>
<text xml:space="preserve" text-anchor="start" x="602.25" y="-303.25" font-family="Helvetica,sans-Serif" font-size="10.00">+</text>
<text xml:space="preserve" text-anchor="start" x="618.75" y="-303.25" font-family="Helvetica,sans-Serif" font-size="10.00">receive()</text>
<text xml:space="preserve" text-anchor="start" x="602.25" y="-287.25" font-family="Helvetica,sans-Serif" font-size="10.00">+</text>
<text xml:space="preserve" text-anchor="start" x="618.75" y="-287.25" font-family="Helvetica,sans-Serif" font-size="10.00">shutdown()</text>
<text xml:space="preserve" text-anchor="start" x="618.75" y="-271.25" font-family="Helvetica,sans-Serif" font-size="10.00">and 11 more...</text>
<text xml:space="preserve" text-anchor="start" x="602.62" y="-255.25" font-family="Helvetica,sans-Serif" font-size="10.00">#</text>
<text xml:space="preserve" text-anchor="start" x="618.75" y="-255.25" font-family="Helvetica,sans-Serif" font-size="10.00">Socket()</text>
<polygon fill="#666666" stroke="#666666" points="591.75,-491 591.75,-491 698,-491 698,-491 591.75,-491"/>
<polygon fill="#666666" stroke="#666666" points="591.75,-443 591.75,-443 616.75,-443 616.75,-443 591.75,-443"/>
<polygon fill="#666666" stroke="#666666" points="616.75,-443 616.75,-443 698,-443 698,-443 616.75,-443"/>
<polygon fill="none" stroke="#666666" points="591.75,-249 591.75,-509 698,-509 698,-249 591.75,-249"/>
</a>
</g>
</g>
<!-- Node8&#45;&gt;Node9 -->
<g id="edge10_Node000008_Node000009" class="edge">
<title>Node8&#45;&gt;Node9</title>
<g id="a_edge10_Node000008_Node000009"><a xlink:title=" ">
<path fill="none" stroke="#63b8ff" d="M644.88,-534.82C644.88,-526.37 644.88,-517.58 644.88,-508.68"/>
<polygon fill="none" stroke="#63b8ff" points="641.38,-534.61 644.88,-544.61 648.38,-534.61 641.38,-534.61"/>
</a>
</g>
</g>
<!-- Node10 -->
<g id="Node000010" class="node">
<title>Node10</title>
<g id="a_Node000010"><a xlink:href="classanch_1_1network_1_1_tcp_socket.html" target="_top" xlink:title=" ">
<polygon fill="white" stroke="none" points="634.88,-164 512.88,-164 512.88,-48 634.88,-48 634.88,-164"/>
<text xml:space="preserve" text-anchor="start" x="516.88" y="-150.25" font-family="Helvetica,sans-Serif" font-size="10.00">anch::network::TcpSocket</text>
<text xml:space="preserve" text-anchor="start" x="572.38" y="-134.25" font-family="Helvetica,sans-Serif" font-size="10.00"> </text>
<text xml:space="preserve" text-anchor="start" x="528.25" y="-118.25" font-family="Helvetica,sans-Serif" font-size="10.00">+</text>
<text xml:space="preserve" text-anchor="start" x="549.62" y="-118.25" font-family="Helvetica,sans-Serif" font-size="10.00">TcpSocket()</text>
<text xml:space="preserve" text-anchor="start" x="528.25" y="-102.25" font-family="Helvetica,sans-Serif" font-size="10.00">+</text>
<text xml:space="preserve" text-anchor="start" x="549.62" y="-102.25" font-family="Helvetica,sans-Serif" font-size="10.00">TcpSocket()</text>
<text xml:space="preserve" text-anchor="start" x="528.25" y="-86.25" font-family="Helvetica,sans-Serif" font-size="10.00">+</text>
<text xml:space="preserve" text-anchor="start" x="549.62" y="-86.25" font-family="Helvetica,sans-Serif" font-size="10.00">~TcpSocket()</text>
<text xml:space="preserve" text-anchor="start" x="528.25" y="-70.25" font-family="Helvetica,sans-Serif" font-size="10.00">+</text>
<text xml:space="preserve" text-anchor="start" x="549.62" y="-70.25" font-family="Helvetica,sans-Serif" font-size="10.00">send()</text>
<text xml:space="preserve" text-anchor="start" x="528.25" y="-54.25" font-family="Helvetica,sans-Serif" font-size="10.00">+</text>
<text xml:space="preserve" text-anchor="start" x="549.62" y="-54.25" font-family="Helvetica,sans-Serif" font-size="10.00">receive()</text>
<polygon fill="#666666" stroke="#666666" points="512.88,-146 512.88,-146 634.88,-146 634.88,-146 512.88,-146"/>
<polygon fill="#666666" stroke="#666666" points="512.88,-130 512.88,-130 634.88,-130 634.88,-130 512.88,-130"/>
<polygon fill="none" stroke="#666666" points="512.88,-48 512.88,-164 634.88,-164 634.88,-48 512.88,-48"/>
</a>
</g>
</g>
<!-- Node9&#45;&gt;Node10 -->
<g id="edge11_Node000009_Node000010" class="edge">
<title>Node9&#45;&gt;Node10</title>
<g id="a_edge11_Node000009_Node000010"><a xlink:title=" ">
<path fill="none" stroke="#63b8ff" d="M608.28,-238.32C601.36,-211.9 594.49,-185.69 588.73,-163.71"/>
<polygon fill="none" stroke="#63b8ff" points="604.84,-239 610.76,-247.78 611.61,-237.22 604.84,-239"/>
</a>
</g>
</g>
<!-- Node11 -->
<g id="Node000011" class="node">
<title>Node11</title>
<g id="a_Node000011"><a xlink:href="classanch_1_1network_1_1_udp_socket.html" target="_top" xlink:title=" ">
<polygon fill="white" stroke="none" points="777,-212 652.75,-212 652.75,0 777,0 777,-212"/>
<text xml:space="preserve" text-anchor="start" x="656.75" y="-198.25" font-family="Helvetica,sans-Serif" font-size="10.00">anch::network::UdpSocket</text>
<text xml:space="preserve" text-anchor="start" x="713.38" y="-182.25" font-family="Helvetica,sans-Serif" font-size="10.00"> </text>
<text xml:space="preserve" text-anchor="start" x="668.12" y="-166.25" font-family="Helvetica,sans-Serif" font-size="10.00">+</text>
<text xml:space="preserve" text-anchor="start" x="689.5" y="-166.25" font-family="Helvetica,sans-Serif" font-size="10.00">UdpSocket()</text>
<text xml:space="preserve" text-anchor="start" x="668.12" y="-150.25" font-family="Helvetica,sans-Serif" font-size="10.00">+</text>
<text xml:space="preserve" text-anchor="start" x="689.5" y="-150.25" font-family="Helvetica,sans-Serif" font-size="10.00">UdpSocket()</text>
<text xml:space="preserve" text-anchor="start" x="668.12" y="-134.25" font-family="Helvetica,sans-Serif" font-size="10.00">+</text>
<text xml:space="preserve" text-anchor="start" x="689.5" y="-134.25" font-family="Helvetica,sans-Serif" font-size="10.00">~UdpSocket()</text>
<text xml:space="preserve" text-anchor="start" x="668.12" y="-118.25" font-family="Helvetica,sans-Serif" font-size="10.00">+</text>
<text xml:space="preserve" text-anchor="start" x="689.5" y="-118.25" font-family="Helvetica,sans-Serif" font-size="10.00">listen()</text>
<text xml:space="preserve" text-anchor="start" x="668.12" y="-102.25" font-family="Helvetica,sans-Serif" font-size="10.00">+</text>
<text xml:space="preserve" text-anchor="start" x="689.5" y="-102.25" font-family="Helvetica,sans-Serif" font-size="10.00">connect()</text>
<text xml:space="preserve" text-anchor="start" x="668.12" y="-86.25" font-family="Helvetica,sans-Serif" font-size="10.00">+</text>
<text xml:space="preserve" text-anchor="start" x="689.5" y="-86.25" font-family="Helvetica,sans-Serif" font-size="10.00">accept()</text>
<text xml:space="preserve" text-anchor="start" x="668.12" y="-70.25" font-family="Helvetica,sans-Serif" font-size="10.00">+</text>
<text xml:space="preserve" text-anchor="start" x="689.5" y="-70.25" font-family="Helvetica,sans-Serif" font-size="10.00">send()</text>
<text xml:space="preserve" text-anchor="start" x="668.12" y="-54.25" font-family="Helvetica,sans-Serif" font-size="10.00">+</text>
<text xml:space="preserve" text-anchor="start" x="689.5" y="-54.25" font-family="Helvetica,sans-Serif" font-size="10.00">send()</text>
<text xml:space="preserve" text-anchor="start" x="668.12" y="-38.25" font-family="Helvetica,sans-Serif" font-size="10.00">+</text>
<text xml:space="preserve" text-anchor="start" x="689.5" y="-38.25" font-family="Helvetica,sans-Serif" font-size="10.00">receive()</text>
<text xml:space="preserve" text-anchor="start" x="668.12" y="-22.25" font-family="Helvetica,sans-Serif" font-size="10.00">+</text>
<text xml:space="preserve" text-anchor="start" x="689.5" y="-22.25" font-family="Helvetica,sans-Serif" font-size="10.00">getDomain()</text>
<text xml:space="preserve" text-anchor="start" x="668.12" y="-6.25" font-family="Helvetica,sans-Serif" font-size="10.00">+</text>
<text xml:space="preserve" text-anchor="start" x="689.5" y="-6.25" font-family="Helvetica,sans-Serif" font-size="10.00">getType()</text>
<polygon fill="#666666" stroke="#666666" points="652.75,-194 652.75,-194 777,-194 777,-194 652.75,-194"/>
<polygon fill="#666666" stroke="#666666" points="652.75,-178 652.75,-178 777,-178 777,-178 652.75,-178"/>
<polygon fill="none" stroke="#666666" points="652.75,0 652.75,-212 777,-212 777,0 652.75,0"/>
</a>
</g>
</g>
<!-- Node9&#45;&gt;Node11 -->
<g id="edge12_Node000009_Node000011" class="edge">
<title>Node9&#45;&gt;Node11</title>
<g id="a_edge12_Node000009_Node000011"><a xlink:title=" ">
<path fill="none" stroke="#63b8ff" d="M680.95,-238.34C683.26,-229.4 685.56,-220.49 687.82,-211.75"/>
<polygon fill="none" stroke="#63b8ff" points="677.62,-237.22 678.51,-247.78 684.4,-238.97 677.62,-237.22"/>
</a>
</g>
</g>
</g>
</svg>
