<?xml version="1.0" encoding="UTF-8" standalone="no"?>
<!DOCTYPE svg PUBLIC "-//W3C//DTD SVG 1.1//EN"
 "http://www.w3.org/Graphics/SVG/1.1/DTD/svg11.dtd">
<!-- Generated by graphviz version 2.44.1 (0)
 -->
<!-- Title: anch::sql::PostgreSQLResultSet Pages: 1 -->
<!--zoomable 784 -->
<svg id="main" version="1.1" xmlns="http://www.w3.org/2000/svg" xmlns:xlink="http://www.w3.org/1999/xlink" xml:space="preserve" onload="init(evt)">
<style type="text/css"><![CDATA[
.edge:hover path { stroke: red; }
.edge:hover polygon { stroke: red; fill: red; }
]]></style>
<script type="text/javascript"><![CDATA[
var edges = document.getElementsByTagName('g');
if (edges && edges.length) {
  for (var i=0;i<edges.length;i++) {
    if (edges[i].id.substr(0,4)=='edge') {
      edges[i].setAttribute('class','edge');
    }
  }
}
]]></script>
        <defs>
                <circle id="rim" cx="0" cy="0" r="7"/>
                <circle id="rim2" cx="0" cy="0" r="3.5"/>
                <g id="zoomPlus">
                        <use xlink:href="#rim" fill="#404040">
                                <set attributeName="fill" to="#808080" begin="zoomplus.mouseover" end="zoomplus.mouseout"/>
                        </use>
                        <path d="M-4,0h8M0,-4v8" fill="none" stroke="white" stroke-width="1.5" pointer-events="none"/>
                </g>
                <g id="zoomMin">
                        <use xlink:href="#rim" fill="#404040">
                                <set attributeName="fill" to="#808080" begin="zoomminus.mouseover" end="zoomminus.mouseout"/>
                        </use>
                        <path d="M-4,0h8" fill="none" stroke="white" stroke-width="1.5" pointer-events="none"/>
                </g>
                <g id="dirArrow">
                        <path fill="none" stroke="white" stroke-width="1.5" d="M0,-3.0v7 M-2.5,-0.5L0,-3.0L2.5,-0.5"/>
                </g>
               <g id="resetDef">
                       <use xlink:href="#rim2" fill="#404040">
                               <set attributeName="fill" to="#808080" begin="reset.mouseover" end="reset.mouseout"/>
                       </use>
               </g>
        </defs>

<script type="text/javascript">
var viewWidth = 251;
var viewHeight = 784;
var sectionId = 'dynsection-1';
</script>
<script xlink:href="svgpan.js"/>
<svg id="graph" class="graph">
<g id="viewport">
<title>anch::sql::PostgreSQLResultSet</title>
<!-- Node1 -->
<g id="node1" class="node">
<title>Node1</title>
<g id="a_node1"><a xlink:title="PostgreSQL result set implementation.">
<polygon fill="#bfbfbf" stroke="black" points="18,-0.5 18,-134.5 186,-134.5 186,-0.5 18,-0.5"/>
<text text-anchor="middle" x="102" y="-122.5" font-family="Helvetica,sans-Serif" font-size="10.00">anch::sql::PostgreSQLResultSet</text>
<polyline fill="none" stroke="black" points="18,-115.5 186,-115.5 "/>
<text text-anchor="middle" x="102" y="-103.5" font-family="Helvetica,sans-Serif" font-size="10.00"> </text>
<polyline fill="none" stroke="black" points="18,-96.5 186,-96.5 "/>
<text text-anchor="start" x="26" y="-84.5" font-family="Helvetica,sans-Serif" font-size="10.00">+ PostgreSQLResultSet()</text>
<text text-anchor="start" x="26" y="-73.5" font-family="Helvetica,sans-Serif" font-size="10.00">+ ~PostgreSQLResultSet()</text>
<text text-anchor="start" x="26" y="-62.5" font-family="Helvetica,sans-Serif" font-size="10.00">+ next()</text>
<text text-anchor="start" x="26" y="-51.5" font-family="Helvetica,sans-Serif" font-size="10.00"># getValue()</text>
<text text-anchor="start" x="26" y="-40.5" font-family="Helvetica,sans-Serif" font-size="10.00"># getValue()</text>
<text text-anchor="start" x="26" y="-29.5" font-family="Helvetica,sans-Serif" font-size="10.00"># getDateFormatter()</text>
<text text-anchor="start" x="26" y="-18.5" font-family="Helvetica,sans-Serif" font-size="10.00"># getTimeFormatter()</text>
<text text-anchor="start" x="26" y="-7.5" font-family="Helvetica,sans-Serif" font-size="10.00"># getTimestampFormatter()</text>
</a>
</g>
</g>
<!-- Node2 -->
<g id="node2" class="node">
<title>Node2</title>
<g id="a_node2"><a xlink:href="classanch_1_1sql_1_1_result_set.html" target="_top" xlink:title="SQL result representation.">
<polygon fill="none" stroke="black" points="6.5,-172.5 6.5,-427.5 197.5,-427.5 197.5,-172.5 6.5,-172.5"/>
<text text-anchor="middle" x="102" y="-415.5" font-family="Helvetica,sans-Serif" font-size="10.00">anch::sql::ResultSet</text>
<polyline fill="none" stroke="black" points="6.5,-408.5 197.5,-408.5 "/>
<text text-anchor="middle" x="102" y="-396.5" font-family="Helvetica,sans-Serif" font-size="10.00"> </text>
<polyline fill="none" stroke="black" points="6.5,-389.5 197.5,-389.5 "/>
<text text-anchor="start" x="14.5" y="-377.5" font-family="Helvetica,sans-Serif" font-size="10.00">+ ResultSet()</text>
<text text-anchor="start" x="14.5" y="-366.5" font-family="Helvetica,sans-Serif" font-size="10.00">+ ~ResultSet()</text>
<text text-anchor="start" x="14.5" y="-355.5" font-family="Helvetica,sans-Serif" font-size="10.00">+ get()</text>
<text text-anchor="start" x="14.5" y="-344.5" font-family="Helvetica,sans-Serif" font-size="10.00">+ get()</text>
<text text-anchor="start" x="14.5" y="-333.5" font-family="Helvetica,sans-Serif" font-size="10.00">+ get()</text>
<text text-anchor="start" x="14.5" y="-322.5" font-family="Helvetica,sans-Serif" font-size="10.00">+ get()</text>
<text text-anchor="start" x="14.5" y="-311.5" font-family="Helvetica,sans-Serif" font-size="10.00">+ next()</text>
<text text-anchor="start" x="14.5" y="-300.5" font-family="Helvetica,sans-Serif" font-size="10.00">+ get()</text>
<text text-anchor="start" x="14.5" y="-289.5" font-family="Helvetica,sans-Serif" font-size="10.00">+ get()</text>
<text text-anchor="start" x="14.5" y="-278.5" font-family="Helvetica,sans-Serif" font-size="10.00">+ get()</text>
<text text-anchor="start" x="14.5" y="-267.5" font-family="Helvetica,sans-Serif" font-size="10.00">and 9 more...</text>
<text text-anchor="start" x="14.5" y="-256.5" font-family="Helvetica,sans-Serif" font-size="10.00"># getValue()</text>
<text text-anchor="start" x="14.5" y="-245.5" font-family="Helvetica,sans-Serif" font-size="10.00"># getValue()</text>
<text text-anchor="start" x="14.5" y="-234.5" font-family="Helvetica,sans-Serif" font-size="10.00"># getDateFormatter()</text>
<text text-anchor="start" x="14.5" y="-223.5" font-family="Helvetica,sans-Serif" font-size="10.00"># getTimeFormatter()</text>
<text text-anchor="start" x="14.5" y="-212.5" font-family="Helvetica,sans-Serif" font-size="10.00"># getTimestampFormatter()</text>
<text text-anchor="start" x="14.5" y="-201.5" font-family="Helvetica,sans-Serif" font-size="10.00"># getDefaultDateFormatter()</text>
<text text-anchor="start" x="14.5" y="-190.5" font-family="Helvetica,sans-Serif" font-size="10.00"># getDefaultTimeFormatter()</text>
<text text-anchor="start" x="14.5" y="-179.5" font-family="Helvetica,sans-Serif" font-size="10.00"># getDefaultTimestampFormatter()</text>
</a>
</g>
</g>
<!-- Node2&#45;&gt;Node1 -->
<g id="edge1" class="edge">
<title>Node2&#45;&gt;Node1</title>
<path fill="none" stroke="midnightblue" d="M102,-162C102,-152.59 102,-143.37 102,-134.62"/>
<polygon fill="none" stroke="midnightblue" points="98.5,-162.29 102,-172.29 105.5,-162.29 98.5,-162.29"/>
</g>
<!-- Node3 -->
<g id="node3" class="node">
<title>Node3</title>
<g id="a_node3"><a xlink:title=" ">
<polygon fill="none" stroke="#bfbfbf" points="41,-475.5 41,-543.5 163,-543.5 163,-475.5 41,-475.5"/>
<text text-anchor="start" x="49" y="-531.5" font-family="Helvetica,sans-Serif" font-size="10.00">std::map&lt; std::string,</text>
<text text-anchor="middle" x="102" y="-520.5" font-family="Helvetica,sans-Serif" font-size="10.00"> std::size_t &gt;</text>
<polyline fill="none" stroke="#bfbfbf" points="41,-513.5 163,-513.5 "/>
<text text-anchor="start" x="49" y="-501.5" font-family="Helvetica,sans-Serif" font-size="10.00">+ elements</text>
<polyline fill="none" stroke="#bfbfbf" points="41,-494.5 163,-494.5 "/>
<text text-anchor="middle" x="102" y="-482.5" font-family="Helvetica,sans-Serif" font-size="10.00"> </text>
</a>
</g>
</g>
<!-- Node3&#45;&gt;Node2 -->
<g id="edge2" class="edge">
<title>Node3&#45;&gt;Node2</title>
<path fill="none" stroke="#404040" d="M102,-475.16C102,-464.81 102,-452.69 102,-439.75"/>
<polygon fill="none" stroke="#404040" points="102,-439.66 98,-433.66 102,-427.66 106,-433.66 102,-439.66"/>
<text text-anchor="middle" x="123.5" y="-449" font-family="Helvetica,sans-Serif" font-size="10.00"> #_fields</text>
</g>
<!-- Node4 -->
<g id="node4" class="node">
<title>Node4</title>
<g id="a_node4"><a xlink:title="STL class.">
<polygon fill="none" stroke="#bfbfbf" points="19.5,-602.5 19.5,-659.5 84.5,-659.5 84.5,-602.5 19.5,-602.5"/>
<text text-anchor="middle" x="52" y="-647.5" font-family="Helvetica,sans-Serif" font-size="10.00">std::string</text>
<polyline fill="none" stroke="#bfbfbf" points="19.5,-640.5 84.5,-640.5 "/>
<text text-anchor="middle" x="52" y="-628.5" font-family="Helvetica,sans-Serif" font-size="10.00"> </text>
<polyline fill="none" stroke="#bfbfbf" points="19.5,-621.5 84.5,-621.5 "/>
<text text-anchor="middle" x="52" y="-609.5" font-family="Helvetica,sans-Serif" font-size="10.00"> </text>
</a>
</g>
</g>
<!-- Node4&#45;&gt;Node3 -->
<g id="edge3" class="edge">
<title>Node4&#45;&gt;Node3</title>
<path fill="none" stroke="#404040" d="M63.6,-602.28C69.49,-588.19 76.8,-570.72 83.46,-554.82"/>
<polygon fill="none" stroke="#404040" points="83.52,-554.66 82.15,-547.58 88.16,-543.59 89.53,-550.67 83.52,-554.66"/>
<text text-anchor="middle" x="97" y="-570.5" font-family="Helvetica,sans-Serif" font-size="10.00"> +keys</text>
</g>
<!-- Node5 -->
<g id="node5" class="node">
<title>Node5</title>
<g id="a_node5"><a xlink:title="STL class.">
<polygon fill="none" stroke="#bfbfbf" points="0,-707.5 0,-775.5 104,-775.5 104,-707.5 0,-707.5"/>
<text text-anchor="start" x="8" y="-763.5" font-family="Helvetica,sans-Serif" font-size="10.00">std::basic_string&lt;</text>
<text text-anchor="middle" x="52" y="-752.5" font-family="Helvetica,sans-Serif" font-size="10.00"> char &gt;</text>
<polyline fill="none" stroke="#bfbfbf" points="0,-745.5 104,-745.5 "/>
<text text-anchor="middle" x="52" y="-733.5" font-family="Helvetica,sans-Serif" font-size="10.00"> </text>
<polyline fill="none" stroke="#bfbfbf" points="0,-726.5 104,-726.5 "/>
<text text-anchor="middle" x="52" y="-714.5" font-family="Helvetica,sans-Serif" font-size="10.00"> </text>
</a>
</g>
</g>
<!-- Node5&#45;&gt;Node4 -->
<g id="edge4" class="edge">
<title>Node5&#45;&gt;Node4</title>
<path fill="none" stroke="midnightblue" d="M52,-697.06C52,-684.51 52,-671.15 52,-659.83"/>
<polygon fill="none" stroke="midnightblue" points="48.5,-697.36 52,-707.36 55.5,-697.36 48.5,-697.36"/>
</g>
<!-- Node6 -->
<g id="node6" class="node">
<title>Node6</title>
<g id="a_node6"><a xlink:title="STL class.">
<polygon fill="none" stroke="#bfbfbf" points="102.5,-602.5 102.5,-659.5 203.5,-659.5 203.5,-602.5 102.5,-602.5"/>
<text text-anchor="middle" x="153" y="-647.5" font-family="Helvetica,sans-Serif" font-size="10.00">std::map&lt; K, T &gt;</text>
<polyline fill="none" stroke="#bfbfbf" points="102.5,-640.5 203.5,-640.5 "/>
<text text-anchor="middle" x="153" y="-628.5" font-family="Helvetica,sans-Serif" font-size="10.00"> </text>
<polyline fill="none" stroke="#bfbfbf" points="102.5,-621.5 203.5,-621.5 "/>
<text text-anchor="middle" x="153" y="-609.5" font-family="Helvetica,sans-Serif" font-size="10.00"> </text>
</a>
</g>
</g>
<!-- Node6&#45;&gt;Node3 -->
<g id="edge5" class="edge">
<title>Node6&#45;&gt;Node3</title>
<path fill="none" stroke="orange" d="M137.14,-592.84C130.42,-577.09 122.64,-558.87 116.12,-543.59"/>
<polygon fill="orange" stroke="orange" points="134.03,-594.46 141.17,-602.28 140.47,-591.71 134.03,-594.46"/>
<text text-anchor="start" x="133" y="-576" font-family="Helvetica,sans-Serif" font-size="10.00"> &lt; std::string, std</text>
<text text-anchor="middle" x="175.5" y="-565" font-family="Helvetica,sans-Serif" font-size="10.00">::size_t &gt;</text>
</g>
<!-- Node7 -->
<g id="node7" class="node">
<title>Node7</title>
<g id="a_node7"><a xlink:title=" ">
<polygon fill="none" stroke="#bfbfbf" points="130.5,-713 130.5,-770 159.5,-770 159.5,-713 130.5,-713"/>
<text text-anchor="middle" x="145" y="-758" font-family="Helvetica,sans-Serif" font-size="10.00">K</text>
<polyline fill="none" stroke="#bfbfbf" points="130.5,-751 159.5,-751 "/>
<text text-anchor="middle" x="145" y="-739" font-family="Helvetica,sans-Serif" font-size="10.00"> </text>
<polyline fill="none" stroke="#bfbfbf" points="130.5,-732 159.5,-732 "/>
<text text-anchor="middle" x="145" y="-720" font-family="Helvetica,sans-Serif" font-size="10.00"> </text>
</a>
</g>
</g>
<!-- Node7&#45;&gt;Node6 -->
<g id="edge6" class="edge">
<title>Node7&#45;&gt;Node6</title>
<path fill="none" stroke="#404040" d="M144.64,-712.77C144.71,-701.91 145.05,-689.35 146,-678 146.17,-675.95 146.38,-673.86 146.61,-671.74"/>
<polygon fill="none" stroke="#404040" points="146.63,-671.56 143.44,-665.1 148.17,-659.66 151.37,-666.12 146.63,-671.56"/>
<text text-anchor="middle" x="163" y="-681" font-family="Helvetica,sans-Serif" font-size="10.00"> +keys</text>
</g>
<!-- Node8 -->
<g id="node8" class="node">
<title>Node8</title>
<g id="a_node8"><a xlink:title=" ">
<polygon fill="none" stroke="#bfbfbf" points="187.5,-713 187.5,-770 216.5,-770 216.5,-713 187.5,-713"/>
<text text-anchor="middle" x="202" y="-758" font-family="Helvetica,sans-Serif" font-size="10.00">T</text>
<polyline fill="none" stroke="#bfbfbf" points="187.5,-751 216.5,-751 "/>
<text text-anchor="middle" x="202" y="-739" font-family="Helvetica,sans-Serif" font-size="10.00"> </text>
<polyline fill="none" stroke="#bfbfbf" points="187.5,-732 216.5,-732 "/>
<text text-anchor="middle" x="202" y="-720" font-family="Helvetica,sans-Serif" font-size="10.00"> </text>
</a>
</g>
</g>
<!-- Node8&#45;&gt;Node6 -->
<g id="edge7" class="edge">
<title>Node8&#45;&gt;Node6</title>
<path fill="none" stroke="#404040" d="M193.58,-712.97C189.88,-701.91 185.18,-689.16 180,-678 178.86,-675.54 177.63,-673.05 176.34,-670.55"/>
<polygon fill="none" stroke="#404040" points="176.2,-670.29 169.81,-666.94 170.44,-659.76 176.83,-663.11 176.2,-670.29"/>
<text text-anchor="middle" x="214" y="-681" font-family="Helvetica,sans-Serif" font-size="10.00"> +elements</text>
</g>
</g>
</svg>
        <g id="navigator" transform="translate(0 0)" fill="#404254">
                <rect fill="#f2f5e9" fill-opacity="0.5" stroke="#606060" stroke-width=".5" x="0" y="0" width="60" height="60"/>
                <use id="zoomplus" xlink:href="#zoomPlus" x="17" y="9" onmousedown="handleZoom(evt,'in')"/>
                <use id="zoomminus" xlink:href="#zoomMin" x="42" y="9" onmousedown="handleZoom(evt,'out')"/>
                <use id="reset" xlink:href="#resetDef" x="30" y="36" onmousedown="handleReset()"/>
                <g id="arrowUp" xlink:href="#dirArrow" transform="translate(30 24)" onmousedown="handlePan(0,-1)">
                  <use xlink:href="#rim" fill="#404040">
                        <set attributeName="fill" to="#808080" begin="arrowUp.mouseover" end="arrowUp.mouseout"/>
                  </use>
                  <path fill="none" stroke="white" stroke-width="1.5" d="M0,-3.0v7 M-2.5,-0.5L0,-3.0L2.5,-0.5"/>
                </g>
                <g id="arrowRight" xlink:href="#dirArrow" transform="rotate(90) translate(36 -43)" onmousedown="handlePan(1,0)">
                  <use xlink:href="#rim" fill="#404040">
                        <set attributeName="fill" to="#808080" begin="arrowRight.mouseover" end="arrowRight.mouseout"/>
                  </use>
                  <path fill="none" stroke="white" stroke-width="1.5" d="M0,-3.0v7 M-2.5,-0.5L0,-3.0L2.5,-0.5"/>
                </g>
                <g id="arrowDown" xlink:href="#dirArrow" transform="rotate(180) translate(-30 -48)" onmousedown="handlePan(0,1)">
                  <use xlink:href="#rim" fill="#404040">
                        <set attributeName="fill" to="#808080" begin="arrowDown.mouseover" end="arrowDown.mouseout"/>
                  </use>
                  <path fill="none" stroke="white" stroke-width="1.5" d="M0,-3.0v7 M-2.5,-0.5L0,-3.0L2.5,-0.5"/>
                </g>
                <g id="arrowLeft" xlink:href="#dirArrow" transform="rotate(270) translate(-36 17)" onmousedown="handlePan(-1,0)">
                  <use xlink:href="#rim" fill="#404040">
                        <set attributeName="fill" to="#808080" begin="arrowLeft.mouseover" end="arrowLeft.mouseout"/>
                  </use>
                  <path fill="none" stroke="white" stroke-width="1.5" d="M0,-3.0v7 M-2.5,-0.5L0,-3.0L2.5,-0.5"/>
                </g>
        </g>
        <svg viewBox="0 0 15 15" width="100%" height="30px" preserveAspectRatio="xMaxYMin meet">
         <g id="arrow_out" transform="scale(0.3 0.3)">
          <a xlink:href="classanch_1_1sql_1_1_postgre_s_q_l_result_set__coll__graph_org.svg" target="_base">
           <rect id="button" ry="5" rx="5" y="6" x="6" height="38" width="38"
                fill="#f2f5e9" fill-opacity="0.5" stroke="#606060" stroke-width="1.0"/>
           <path id="arrow"
             d="M 11.500037,31.436501 C 11.940474,20.09759 22.043105,11.32322 32.158766,21.979434 L 37.068811,17.246167 C 37.068811,17.246167 37.088388,32 37.088388,32 L 22.160133,31.978069 C 22.160133,31.978069 26.997745,27.140456 26.997745,27.140456 C 18.528582,18.264221 13.291696,25.230495 11.500037,31.436501 z"
             style="fill:#404040;"/>
          </a>
         </g>
        </svg>
</svg>
