<?xml version="1.0" encoding="UTF-8" standalone="no"?>
<!DOCTYPE svg PUBLIC "-//W3C//DTD SVG 1.1//EN"
 "http://www.w3.org/Graphics/SVG/1.1/DTD/svg11.dtd">
<!-- Generated by graphviz version 13.1.0 (0)
 -->
<!-- Title: anch::logger::formatter::IFormatter Pages: 1 -->
<!--zoomable 252 -->

<svg id="main" version="1.1" xmlns="http://www.w3.org/2000/svg" xmlns:xlink="http://www.w3.org/1999/xlink" xml:space="preserve" onload="init(evt)">

<style type="text/css"><![CDATA[
.node, .edge {opacity: 0.7;}
.node.selected, .edge.selected {opacity: 1;}
.edge:hover path { stroke: red; }
.edge:hover polygon { stroke: red; fill: red; }
]]></style>

<defs>
  <circle id="rim" cx="0" cy="0" r="7"/>
  <circle id="rim2" cx="0" cy="0" r="3.5"/>
  <g id="zoomPlus">
    <use xlink:href="#rim" fill="#404040"><set attributeName="fill" to="#808080" begin="zoomplus.mouseover" end="zoomplus.mouseout"/></use>
    <path d="M-4,0h8M0,-4v8" fill="none" stroke="white" stroke-width="1.5" pointer-events="none"/>
  </g>
  <g id="zoomMin">
    <use xlink:href="#rim" fill="#404040"><set attributeName="fill" to="#808080" begin="zoomminus.mouseover" end="zoomminus.mouseout"/></use>
    <path d="M-4,0h8" fill="none" stroke="white" stroke-width="1.5" pointer-events="none"/>
  </g>
  <g id="arrowUp" transform="translate(30 24)">
    <use xlink:href="#rim"/>
    <path pointer-events="none" fill="none" stroke="white" stroke-width="1.5" d="M0,-3.0v7 M-2.5,-0.5L0,-3.0L2.5,-0.5"/>
  </g>
  <g id="arrowRight" transform="rotate(90) translate(36 -43)">
    <use xlink:href="#rim"/>
    <path pointer-events="none" fill="none" stroke="white" stroke-width="1.5" d="M0,-3.0v7 M-2.5,-0.5L0,-3.0L2.5,-0.5"/>
  </g>
  <g id="arrowDown" transform="rotate(180) translate(-30 -48)">
    <use xlink:href="#rim"/>
    <path pointer-events="none" fill="none" stroke="white" stroke-width="1.5" d="M0,-3.0v7 M-2.5,-0.5L0,-3.0L2.5,-0.5"/>
  </g>
  <g id="arrowLeft" transform="rotate(270) translate(-36 17)">
    <use xlink:href="#rim"/>
    <path pointer-events="none" fill="none" stroke="white" stroke-width="1.5" d="M0,-3.0v7 M-2.5,-0.5L0,-3.0L2.5,-0.5"/>
  </g>
  <g id="resetDef">
    <use xlink:href="#rim2" fill="#404040"><set attributeName="fill" to="#808080" begin="reset.mouseover" end="reset.mouseout"/></use>
  </g>
</defs>
<script type="application/ecmascript">
var viewWidth = 1002;
var viewHeight = 252;
var sectionId = 'dynsection-0';
</script>
<script type="application/ecmascript" xlink:href="svg.min.js"/>
<svg id="graph" class="graph">
<g id="viewport">
<title>anch::logger::formatter::IFormatter</title>
<!-- Node1 -->
<g id="Node000001" class="node">
<title>Node1</title>
<g id="a_Node000001"><a xlink:title=" ">
<polygon fill="#999999" stroke="none" points="555.88,-244 449.62,-244 449.62,-148 555.88,-148 555.88,-244"/>
<text xml:space="preserve" text-anchor="start" x="453.62" y="-230.5" font-family="Helvetica,sans-Serif" font-size="10.00">anch::logger::formatter</text>
<text xml:space="preserve" text-anchor="start" x="477.25" y="-218.5" font-family="Helvetica,sans-Serif" font-size="10.00">::IFormatter</text>
<text xml:space="preserve" text-anchor="start" x="501.25" y="-202.5" font-family="Helvetica,sans-Serif" font-size="10.00"> </text>
<text xml:space="preserve" text-anchor="start" x="461.25" y="-186.5" font-family="Helvetica,sans-Serif" font-size="10.00">+</text>
<text xml:space="preserve" text-anchor="start" x="478.88" y="-186.5" font-family="Helvetica,sans-Serif" font-size="10.00">~IFormatter()</text>
<text xml:space="preserve" text-anchor="start" x="461.25" y="-170.5" font-family="Helvetica,sans-Serif" font-size="10.00">+</text>
<text xml:space="preserve" text-anchor="start" x="478.88" y="-170.5" font-family="Helvetica,sans-Serif" font-size="10.00">getType()</text>
<text xml:space="preserve" text-anchor="start" x="461.25" y="-154.5" font-family="Helvetica,sans-Serif" font-size="10.00">+</text>
<text xml:space="preserve" text-anchor="start" x="478.88" y="-154.5" font-family="Helvetica,sans-Serif" font-size="10.00">formatValue()</text>
<polygon fill="#666666" stroke="#666666" points="449.62,-214 449.62,-214 555.88,-214 555.88,-214 449.62,-214"/>
<polygon fill="#666666" stroke="#666666" points="449.62,-198 449.62,-198 555.88,-198 555.88,-198 449.62,-198"/>
<polygon fill="none" stroke="#666666" points="449.62,-148 449.62,-244 555.88,-244 555.88,-148 449.62,-148"/>
</a>
</g>
</g>
<!-- Node2 -->
<g id="Node000002" class="node">
<title>Node2</title>
<g id="a_Node000002"><a xlink:href="classanch_1_1logger_1_1formatter_1_1_anch_date_formatter.html" target="_top" xlink:title=" ">
<polygon fill="white" stroke="none" points="115.5,-112 0,-112 0,0 115.5,0 115.5,-112"/>
<text xml:space="preserve" text-anchor="start" x="8.62" y="-98.5" font-family="Helvetica,sans-Serif" font-size="10.00">anch::logger::formatter</text>
<text xml:space="preserve" text-anchor="start" x="12" y="-86.5" font-family="Helvetica,sans-Serif" font-size="10.00">::AnchDateFormatter</text>
<text xml:space="preserve" text-anchor="start" x="56.25" y="-70.5" font-family="Helvetica,sans-Serif" font-size="10.00"> </text>
<text xml:space="preserve" text-anchor="start" x="4" y="-54.5" font-family="Helvetica,sans-Serif" font-size="10.00">+</text>
<text xml:space="preserve" text-anchor="start" x="14" y="-54.5" font-family="Helvetica,sans-Serif" font-size="10.00">AnchDateFormatter()</text>
<text xml:space="preserve" text-anchor="start" x="4" y="-38.5" font-family="Helvetica,sans-Serif" font-size="10.00">+</text>
<text xml:space="preserve" text-anchor="start" x="14" y="-38.5" font-family="Helvetica,sans-Serif" font-size="10.00">~AnchDateFormatter()</text>
<text xml:space="preserve" text-anchor="start" x="4" y="-22.5" font-family="Helvetica,sans-Serif" font-size="10.00">+</text>
<text xml:space="preserve" text-anchor="start" x="14" y="-22.5" font-family="Helvetica,sans-Serif" font-size="10.00">formatValue()</text>
<text xml:space="preserve" text-anchor="start" x="4" y="-6.5" font-family="Helvetica,sans-Serif" font-size="10.00">+</text>
<text xml:space="preserve" text-anchor="start" x="14" y="-6.5" font-family="Helvetica,sans-Serif" font-size="10.00">getType()</text>
<polygon fill="#666666" stroke="#666666" points="0,-82 0,-82 115.5,-82 115.5,-82 0,-82"/>
<polygon fill="#666666" stroke="#666666" points="0,-66 0,-66 115.5,-66 115.5,-66 0,-66"/>
<polygon fill="none" stroke="#666666" points="0,0 0,-112 115.5,-112 115.5,0 0,0"/>
</a>
</g>
</g>
<!-- Node1&#45;&gt;Node2 -->
<g id="edge1_Node000001_Node000002" class="edge">
<title>Node1&#45;&gt;Node2</title>
<g id="a_edge1_Node000001_Node000002"><a xlink:title=" ">
<path fill="none" stroke="#63b8ff" d="M438.73,-190.13C361.06,-182.19 227.74,-161.97 124.75,-112 121.64,-110.49 118.54,-108.81 115.49,-106.99"/>
<polygon fill="none" stroke="#63b8ff" points="437.98,-193.57 448.27,-191.06 438.66,-186.6 437.98,-193.57"/>
</a>
</g>
</g>
<!-- Node3 -->
<g id="Node000003" class="node">
<title>Node3</title>
<g id="a_Node000003"><a xlink:href="classanch_1_1logger_1_1formatter_1_1_category_formatter.html" target="_top" xlink:title=" ">
<polygon fill="white" stroke="none" points="245.62,-112 133.88,-112 133.88,0 245.62,0 245.62,-112"/>
<text xml:space="preserve" text-anchor="start" x="140.62" y="-98.5" font-family="Helvetica,sans-Serif" font-size="10.00">anch::logger::formatter</text>
<text xml:space="preserve" text-anchor="start" x="145.88" y="-86.5" font-family="Helvetica,sans-Serif" font-size="10.00">::CategoryFormatter</text>
<text xml:space="preserve" text-anchor="start" x="188.25" y="-70.5" font-family="Helvetica,sans-Serif" font-size="10.00"> </text>
<text xml:space="preserve" text-anchor="start" x="137.88" y="-54.5" font-family="Helvetica,sans-Serif" font-size="10.00">+</text>
<text xml:space="preserve" text-anchor="start" x="147.88" y="-54.5" font-family="Helvetica,sans-Serif" font-size="10.00">CategoryFormatter()</text>
<text xml:space="preserve" text-anchor="start" x="137.88" y="-38.5" font-family="Helvetica,sans-Serif" font-size="10.00">+</text>
<text xml:space="preserve" text-anchor="start" x="147.88" y="-38.5" font-family="Helvetica,sans-Serif" font-size="10.00">~CategoryFormatter()</text>
<text xml:space="preserve" text-anchor="start" x="137.88" y="-22.5" font-family="Helvetica,sans-Serif" font-size="10.00">+</text>
<text xml:space="preserve" text-anchor="start" x="147.88" y="-22.5" font-family="Helvetica,sans-Serif" font-size="10.00">formatValue()</text>
<text xml:space="preserve" text-anchor="start" x="137.88" y="-6.5" font-family="Helvetica,sans-Serif" font-size="10.00">+</text>
<text xml:space="preserve" text-anchor="start" x="147.88" y="-6.5" font-family="Helvetica,sans-Serif" font-size="10.00">getType()</text>
<polygon fill="#666666" stroke="#666666" points="133.88,-82 133.88,-82 245.62,-82 245.62,-82 133.88,-82"/>
<polygon fill="#666666" stroke="#666666" points="133.88,-66 133.88,-66 245.62,-66 245.62,-66 133.88,-66"/>
<polygon fill="none" stroke="#666666" points="133.88,0 133.88,-112 245.62,-112 245.62,0 133.88,0"/>
</a>
</g>
</g>
<!-- Node1&#45;&gt;Node3 -->
<g id="edge2_Node000001_Node000003" class="edge">
<title>Node1&#45;&gt;Node3</title>
<g id="a_edge2_Node000001_Node000003"><a xlink:title=" ">
<path fill="none" stroke="#63b8ff" d="M438.98,-180.78C387.18,-167.59 313.36,-144.99 254.75,-112 251.66,-110.26 248.57,-108.36 245.53,-106.35"/>
<polygon fill="none" stroke="#63b8ff" points="437.99,-184.14 448.54,-183.16 439.69,-177.35 437.99,-184.14"/>
</a>
</g>
</g>
<!-- Node4 -->
<g id="Node000004" class="node">
<title>Node4</title>
<g id="a_Node000004"><a xlink:href="classanch_1_1logger_1_1formatter_1_1_const_formatter.html" target="_top" xlink:title=" ">
<polygon fill="white" stroke="none" points="369.88,-112 263.62,-112 263.62,0 369.88,0 369.88,-112"/>
<text xml:space="preserve" text-anchor="start" x="267.62" y="-98.5" font-family="Helvetica,sans-Serif" font-size="10.00">anch::logger::formatter</text>
<text xml:space="preserve" text-anchor="start" x="279.62" y="-86.5" font-family="Helvetica,sans-Serif" font-size="10.00">::ConstFormatter</text>
<text xml:space="preserve" text-anchor="start" x="315.25" y="-70.5" font-family="Helvetica,sans-Serif" font-size="10.00"> </text>
<text xml:space="preserve" text-anchor="start" x="269.62" y="-54.5" font-family="Helvetica,sans-Serif" font-size="10.00">+</text>
<text xml:space="preserve" text-anchor="start" x="281.62" y="-54.5" font-family="Helvetica,sans-Serif" font-size="10.00">ConstFormatter()</text>
<text xml:space="preserve" text-anchor="start" x="269.62" y="-38.5" font-family="Helvetica,sans-Serif" font-size="10.00">+</text>
<text xml:space="preserve" text-anchor="start" x="281.62" y="-38.5" font-family="Helvetica,sans-Serif" font-size="10.00">~ConstFormatter()</text>
<text xml:space="preserve" text-anchor="start" x="269.62" y="-22.5" font-family="Helvetica,sans-Serif" font-size="10.00">+</text>
<text xml:space="preserve" text-anchor="start" x="281.62" y="-22.5" font-family="Helvetica,sans-Serif" font-size="10.00">formatValue()</text>
<text xml:space="preserve" text-anchor="start" x="269.62" y="-6.5" font-family="Helvetica,sans-Serif" font-size="10.00">+</text>
<text xml:space="preserve" text-anchor="start" x="281.62" y="-6.5" font-family="Helvetica,sans-Serif" font-size="10.00">getType()</text>
<polygon fill="#666666" stroke="#666666" points="263.62,-82 263.62,-82 369.88,-82 369.88,-82 263.62,-82"/>
<polygon fill="#666666" stroke="#666666" points="263.62,-66 263.62,-66 369.88,-66 369.88,-66 263.62,-66"/>
<polygon fill="none" stroke="#666666" points="263.62,0 263.62,-112 369.88,-112 369.88,0 263.62,0"/>
</a>
</g>
</g>
<!-- Node1&#45;&gt;Node4 -->
<g id="edge3_Node000001_Node000004" class="edge">
<title>Node1&#45;&gt;Node4</title>
<g id="a_edge3_Node000001_Node000004"><a xlink:title=" ">
<path fill="none" stroke="#63b8ff" d="M440.39,-155.64C420.3,-142.34 398.22,-127.04 378.75,-112 375.79,-109.71 372.79,-107.32 369.79,-104.87"/>
<polygon fill="none" stroke="#63b8ff" points="438.22,-158.4 448.5,-160.97 442.06,-152.55 438.22,-158.4"/>
</a>
</g>
</g>
<!-- Node5 -->
<g id="Node000005" class="node">
<title>Node5</title>
<g id="a_Node000005"><a xlink:href="classanch_1_1logger_1_1formatter_1_1_date_formatter.html" target="_top" xlink:title=" ">
<polygon fill="white" stroke="none" points="493.88,-112 387.62,-112 387.62,0 493.88,0 493.88,-112"/>
<text xml:space="preserve" text-anchor="start" x="391.62" y="-98.5" font-family="Helvetica,sans-Serif" font-size="10.00">anch::logger::formatter</text>
<text xml:space="preserve" text-anchor="start" x="406.25" y="-86.5" font-family="Helvetica,sans-Serif" font-size="10.00">::DateFormatter</text>
<text xml:space="preserve" text-anchor="start" x="439.25" y="-70.5" font-family="Helvetica,sans-Serif" font-size="10.00"> </text>
<text xml:space="preserve" text-anchor="start" x="394.94" y="-54.5" font-family="Helvetica,sans-Serif" font-size="10.00">+</text>
<text xml:space="preserve" text-anchor="start" x="408.25" y="-54.5" font-family="Helvetica,sans-Serif" font-size="10.00">DateFormatter()</text>
<text xml:space="preserve" text-anchor="start" x="394.94" y="-38.5" font-family="Helvetica,sans-Serif" font-size="10.00">+</text>
<text xml:space="preserve" text-anchor="start" x="408.25" y="-38.5" font-family="Helvetica,sans-Serif" font-size="10.00">~DateFormatter()</text>
<text xml:space="preserve" text-anchor="start" x="394.94" y="-22.5" font-family="Helvetica,sans-Serif" font-size="10.00">+</text>
<text xml:space="preserve" text-anchor="start" x="408.25" y="-22.5" font-family="Helvetica,sans-Serif" font-size="10.00">formatValue()</text>
<text xml:space="preserve" text-anchor="start" x="394.94" y="-6.5" font-family="Helvetica,sans-Serif" font-size="10.00">+</text>
<text xml:space="preserve" text-anchor="start" x="408.25" y="-6.5" font-family="Helvetica,sans-Serif" font-size="10.00">getType()</text>
<polygon fill="#666666" stroke="#666666" points="387.62,-82 387.62,-82 493.88,-82 493.88,-82 387.62,-82"/>
<polygon fill="#666666" stroke="#666666" points="387.62,-66 387.62,-66 493.88,-66 493.88,-66 387.62,-66"/>
<polygon fill="none" stroke="#666666" points="387.62,0 387.62,-112 493.88,-112 493.88,0 387.62,0"/>
</a>
</g>
</g>
<!-- Node1&#45;&gt;Node5 -->
<g id="edge4_Node000001_Node000005" class="edge">
<title>Node1&#45;&gt;Node5</title>
<g id="a_edge4_Node000001_Node000005"><a xlink:title=" ">
<path fill="none" stroke="#63b8ff" d="M477.1,-137.91C473.22,-129.26 469.22,-120.37 465.36,-111.78"/>
<polygon fill="none" stroke="#63b8ff" points="473.85,-139.21 481.14,-146.9 480.23,-136.34 473.85,-139.21"/>
</a>
</g>
</g>
<!-- Node6 -->
<g id="Node000006" class="node">
<title>Node6</title>
<g id="a_Node000006"><a xlink:href="classanch_1_1logger_1_1formatter_1_1_level_formatter.html" target="_top" xlink:title=" ">
<polygon fill="white" stroke="none" points="617.88,-112 511.62,-112 511.62,0 617.88,0 617.88,-112"/>
<text xml:space="preserve" text-anchor="start" x="515.62" y="-98.5" font-family="Helvetica,sans-Serif" font-size="10.00">anch::logger::formatter</text>
<text xml:space="preserve" text-anchor="start" x="529.12" y="-86.5" font-family="Helvetica,sans-Serif" font-size="10.00">::LevelFormatter</text>
<text xml:space="preserve" text-anchor="start" x="563.25" y="-70.5" font-family="Helvetica,sans-Serif" font-size="10.00"> </text>
<text xml:space="preserve" text-anchor="start" x="518.38" y="-54.5" font-family="Helvetica,sans-Serif" font-size="10.00">+</text>
<text xml:space="preserve" text-anchor="start" x="531.12" y="-54.5" font-family="Helvetica,sans-Serif" font-size="10.00">LevelFormatter()</text>
<text xml:space="preserve" text-anchor="start" x="518.38" y="-38.5" font-family="Helvetica,sans-Serif" font-size="10.00">+</text>
<text xml:space="preserve" text-anchor="start" x="531.12" y="-38.5" font-family="Helvetica,sans-Serif" font-size="10.00">~LevelFormatter()</text>
<text xml:space="preserve" text-anchor="start" x="518.38" y="-22.5" font-family="Helvetica,sans-Serif" font-size="10.00">+</text>
<text xml:space="preserve" text-anchor="start" x="531.12" y="-22.5" font-family="Helvetica,sans-Serif" font-size="10.00">formatValue()</text>
<text xml:space="preserve" text-anchor="start" x="518.38" y="-6.5" font-family="Helvetica,sans-Serif" font-size="10.00">+</text>
<text xml:space="preserve" text-anchor="start" x="531.12" y="-6.5" font-family="Helvetica,sans-Serif" font-size="10.00">getType()</text>
<polygon fill="#666666" stroke="#666666" points="511.62,-82 511.62,-82 617.88,-82 617.88,-82 511.62,-82"/>
<polygon fill="#666666" stroke="#666666" points="511.62,-66 511.62,-66 617.88,-66 617.88,-66 511.62,-66"/>
<polygon fill="none" stroke="#666666" points="511.62,0 511.62,-112 617.88,-112 617.88,0 511.62,0"/>
</a>
</g>
</g>
<!-- Node1&#45;&gt;Node6 -->
<g id="edge5_Node000001_Node000006" class="edge">
<title>Node1&#45;&gt;Node6</title>
<g id="a_edge5_Node000001_Node000006"><a xlink:title=" ">
<path fill="none" stroke="#63b8ff" d="M528.4,-137.91C532.28,-129.26 536.28,-120.37 540.14,-111.78"/>
<polygon fill="none" stroke="#63b8ff" points="525.27,-136.34 524.36,-146.9 531.65,-139.21 525.27,-136.34"/>
</a>
</g>
</g>
<!-- Node7 -->
<g id="Node000007" class="node">
<title>Node7</title>
<g id="a_Node000007"><a xlink:href="classanch_1_1logger_1_1formatter_1_1_m_d_c_formatter.html" target="_top" xlink:title=" ">
<polygon fill="white" stroke="none" points="741.88,-112 635.62,-112 635.62,0 741.88,0 741.88,-112"/>
<text xml:space="preserve" text-anchor="start" x="639.62" y="-98.5" font-family="Helvetica,sans-Serif" font-size="10.00">anch::logger::formatter</text>
<text xml:space="preserve" text-anchor="start" x="653.12" y="-86.5" font-family="Helvetica,sans-Serif" font-size="10.00">::MDCFormatter</text>
<text xml:space="preserve" text-anchor="start" x="687.25" y="-70.5" font-family="Helvetica,sans-Serif" font-size="10.00"> </text>
<text xml:space="preserve" text-anchor="start" x="642.38" y="-54.5" font-family="Helvetica,sans-Serif" font-size="10.00">+</text>
<text xml:space="preserve" text-anchor="start" x="655.12" y="-54.5" font-family="Helvetica,sans-Serif" font-size="10.00">MDCFormatter()</text>
<text xml:space="preserve" text-anchor="start" x="642.38" y="-38.5" font-family="Helvetica,sans-Serif" font-size="10.00">+</text>
<text xml:space="preserve" text-anchor="start" x="655.12" y="-38.5" font-family="Helvetica,sans-Serif" font-size="10.00">~MDCFormatter()</text>
<text xml:space="preserve" text-anchor="start" x="642.38" y="-22.5" font-family="Helvetica,sans-Serif" font-size="10.00">+</text>
<text xml:space="preserve" text-anchor="start" x="655.12" y="-22.5" font-family="Helvetica,sans-Serif" font-size="10.00">formatValue()</text>
<text xml:space="preserve" text-anchor="start" x="642.38" y="-6.5" font-family="Helvetica,sans-Serif" font-size="10.00">+</text>
<text xml:space="preserve" text-anchor="start" x="655.12" y="-6.5" font-family="Helvetica,sans-Serif" font-size="10.00">getType()</text>
<polygon fill="#666666" stroke="#666666" points="635.62,-82 635.62,-82 741.88,-82 741.88,-82 635.62,-82"/>
<polygon fill="#666666" stroke="#666666" points="635.62,-66 635.62,-66 741.88,-66 741.88,-66 635.62,-66"/>
<polygon fill="none" stroke="#666666" points="635.62,0 635.62,-112 741.88,-112 741.88,0 635.62,0"/>
</a>
</g>
</g>
<!-- Node1&#45;&gt;Node7 -->
<g id="edge6_Node000001_Node000007" class="edge">
<title>Node1&#45;&gt;Node7</title>
<g id="a_edge6_Node000001_Node000007"><a xlink:title=" ">
<path fill="none" stroke="#63b8ff" d="M565.11,-155.64C585.2,-142.34 607.28,-127.04 626.75,-112 629.71,-109.71 632.71,-107.32 635.71,-104.87"/>
<polygon fill="none" stroke="#63b8ff" points="563.44,-152.55 557,-160.97 567.28,-158.4 563.44,-152.55"/>
</a>
</g>
</g>
<!-- Node8 -->
<g id="Node000008" class="node">
<title>Node8</title>
<g id="a_Node000008"><a xlink:href="classanch_1_1logger_1_1formatter_1_1_string_formatter.html" target="_top" xlink:title=" ">
<polygon fill="white" stroke="none" points="865.88,-112 759.62,-112 759.62,0 865.88,0 865.88,-112"/>
<text xml:space="preserve" text-anchor="start" x="763.62" y="-98.5" font-family="Helvetica,sans-Serif" font-size="10.00">anch::logger::formatter</text>
<text xml:space="preserve" text-anchor="start" x="776" y="-86.5" font-family="Helvetica,sans-Serif" font-size="10.00">::StringFormatter</text>
<text xml:space="preserve" text-anchor="start" x="811.25" y="-70.5" font-family="Helvetica,sans-Serif" font-size="10.00"> </text>
<text xml:space="preserve" text-anchor="start" x="765.81" y="-54.5" font-family="Helvetica,sans-Serif" font-size="10.00">+</text>
<text xml:space="preserve" text-anchor="start" x="778" y="-54.5" font-family="Helvetica,sans-Serif" font-size="10.00">StringFormatter()</text>
<text xml:space="preserve" text-anchor="start" x="765.81" y="-38.5" font-family="Helvetica,sans-Serif" font-size="10.00">+</text>
<text xml:space="preserve" text-anchor="start" x="778" y="-38.5" font-family="Helvetica,sans-Serif" font-size="10.00">~StringFormatter()</text>
<text xml:space="preserve" text-anchor="start" x="765.81" y="-22.5" font-family="Helvetica,sans-Serif" font-size="10.00">+</text>
<text xml:space="preserve" text-anchor="start" x="778" y="-22.5" font-family="Helvetica,sans-Serif" font-size="10.00">formatValue()</text>
<text xml:space="preserve" text-anchor="start" x="765.81" y="-6.5" font-family="Helvetica,sans-Serif" font-size="10.00">+</text>
<text xml:space="preserve" text-anchor="start" x="778" y="-6.5" font-family="Helvetica,sans-Serif" font-size="10.00">getType()</text>
<polygon fill="#666666" stroke="#666666" points="759.62,-82 759.62,-82 865.88,-82 865.88,-82 759.62,-82"/>
<polygon fill="#666666" stroke="#666666" points="759.62,-66 759.62,-66 865.88,-66 865.88,-66 759.62,-66"/>
<polygon fill="none" stroke="#666666" points="759.62,0 759.62,-112 865.88,-112 865.88,0 759.62,0"/>
</a>
</g>
</g>
<!-- Node1&#45;&gt;Node8 -->
<g id="edge7_Node000001_Node000008" class="edge">
<title>Node1&#45;&gt;Node8</title>
<g id="a_edge7_Node000001_Node000008"><a xlink:title=" ">
<path fill="none" stroke="#63b8ff" d="M566.73,-181.14C618.65,-168.16 692.53,-145.67 750.75,-112 753.74,-110.27 756.71,-108.38 759.65,-106.38"/>
<polygon fill="none" stroke="#63b8ff" points="566.02,-177.71 557.14,-183.49 567.68,-184.51 566.02,-177.71"/>
</a>
</g>
</g>
<!-- Node9 -->
<g id="Node000009" class="node">
<title>Node9</title>
<g id="a_Node000009"><a xlink:href="classanch_1_1logger_1_1formatter_1_1_thread_id_formatter.html" target="_top" xlink:title=" ">
<polygon fill="white" stroke="none" points="993.88,-112 883.62,-112 883.62,0 993.88,0 993.88,-112"/>
<text xml:space="preserve" text-anchor="start" x="889.62" y="-98.5" font-family="Helvetica,sans-Serif" font-size="10.00">anch::logger::formatter</text>
<text xml:space="preserve" text-anchor="start" x="895.62" y="-86.5" font-family="Helvetica,sans-Serif" font-size="10.00">::ThreadIdFormatter</text>
<text xml:space="preserve" text-anchor="start" x="937.25" y="-70.5" font-family="Helvetica,sans-Serif" font-size="10.00"> </text>
<text xml:space="preserve" text-anchor="start" x="887.62" y="-54.5" font-family="Helvetica,sans-Serif" font-size="10.00">+</text>
<text xml:space="preserve" text-anchor="start" x="897.62" y="-54.5" font-family="Helvetica,sans-Serif" font-size="10.00">ThreadIdFormatter()</text>
<text xml:space="preserve" text-anchor="start" x="887.62" y="-38.5" font-family="Helvetica,sans-Serif" font-size="10.00">+</text>
<text xml:space="preserve" text-anchor="start" x="897.62" y="-38.5" font-family="Helvetica,sans-Serif" font-size="10.00">~ThreadIdFormatter()</text>
<text xml:space="preserve" text-anchor="start" x="887.62" y="-22.5" font-family="Helvetica,sans-Serif" font-size="10.00">+</text>
<text xml:space="preserve" text-anchor="start" x="897.62" y="-22.5" font-family="Helvetica,sans-Serif" font-size="10.00">formatValue()</text>
<text xml:space="preserve" text-anchor="start" x="887.62" y="-6.5" font-family="Helvetica,sans-Serif" font-size="10.00">+</text>
<text xml:space="preserve" text-anchor="start" x="897.62" y="-6.5" font-family="Helvetica,sans-Serif" font-size="10.00">getType()</text>
<polygon fill="#666666" stroke="#666666" points="883.62,-82 883.62,-82 993.88,-82 993.88,-82 883.62,-82"/>
<polygon fill="#666666" stroke="#666666" points="883.62,-66 883.62,-66 993.88,-66 993.88,-66 883.62,-66"/>
<polygon fill="none" stroke="#666666" points="883.62,0 883.62,-112 993.88,-112 993.88,0 883.62,0"/>
</a>
</g>
</g>
<!-- Node1&#45;&gt;Node9 -->
<g id="edge8_Node000001_Node000009" class="edge">
<title>Node1&#45;&gt;Node9</title>
<g id="a_edge8_Node000001_Node000009"><a xlink:title=" ">
<path fill="none" stroke="#63b8ff" d="M567.06,-190.2C643.84,-182.37 774.46,-162.28 874.75,-112 877.76,-110.49 880.75,-108.81 883.69,-106.99"/>
<polygon fill="none" stroke="#63b8ff" points="566.79,-186.71 557.18,-191.16 567.47,-193.68 566.79,-186.71"/>
</a>
</g>
</g>
</g>
</svg>

<g id="navigator" transform="translate(0 0)" fill="#404254">
  <rect fill="#f2f5e9" fill-opacity="0.5" stroke="#606060" stroke-width=".5" x="0" y="0" width="60" height="60"/>
  <use id="zoomplus" xlink:href="#zoomPlus" x="17" y="9" onmousedown="handleZoom(evt,'in')"/>
  <use id="zoomminus" xlink:href="#zoomMin" x="42" y="9" onmousedown="handleZoom(evt,'out')"/>
  <use id="reset" xlink:href="#resetDef" x="30" y="36" onmousedown="handleReset()"/>
   <use id="arrowup" xlink:href="#arrowUp" x="0" y="0" onmousedown="handlePan(0,-1)"/>
  <use id="arrowright" xlink:href="#arrowRight" x="0" y="0" onmousedown="handlePan(1,0)"/>
  <use id="arrowdown" xlink:href="#arrowDown" x="0" y="0" onmousedown="handlePan(0,1)"/>
  <use id="arrowleft" xlink:href="#arrowLeft" x="0" y="0" onmousedown="handlePan(-1,0)"/>
</g>
<svg viewBox="0 0 15 15" width="100%" height="30px" preserveAspectRatio="xMaxYMin meet">
 <g id="arrow_out" transform="scale(0.3 0.3)">
  <a xlink:href="classanch_1_1logger_1_1formatter_1_1_i_formatter__inherit__graph_org.svg" target="_base">
   <rect id="button" ry="5" rx="5" y="6" x="6" height="38" width="38"
        fill="#f2f5e9" fill-opacity="0.5" stroke="#606060" stroke-width="1.0"/>
   <path id="arrow"
     d="M 11.500037,31.436501 C 11.940474,20.09759 22.043105,11.32322 32.158766,21.979434 L 37.068811,17.246167 C 37.068811,17.246167 37.088388,32 37.088388,32 L 22.160133,31.978069 C 22.160133,31.978069 26.997745,27.140456 26.997745,27.140456 C 18.528582,18.264221 13.291696,25.230495 11.500037,31.436501 z"
     style="fill:#404040;"/>
  </a>
 </g>
</svg>

<style type='text/css'>
<![CDATA[
[data-mouse-over-selected='false'] { opacity: 0.7; }
[data-mouse-over-selected='true']  { opacity: 1.0; }
]]>
</style>
<script type="application/ecmascript"><![CDATA[
document.addEventListener('DOMContentLoaded', (event) => {
  highlightEdges();
  highlightAdjacentNodes();
});
]]></script>
</svg>
