<?xml version="1.0" encoding="UTF-8" standalone="no"?>
<!DOCTYPE svg PUBLIC "-//W3C//DTD SVG 1.1//EN"
 "http://www.w3.org/Graphics/SVG/1.1/DTD/svg11.dtd">
<!-- Generated by graphviz version 14.0.5 (0)
 -->
<!-- Title: anch::sql::Timestamp Pages: 1 -->
<!--zoomable 655 -->

<svg id="main" version="1.1" xmlns="http://www.w3.org/2000/svg" xmlns:xlink="http://www.w3.org/1999/xlink" xml:space="preserve" onload="init(evt)">

<style type="text/css"><![CDATA[
.node, .edge {opacity: 0.7;}
.node.selected, .edge.selected {opacity: 1;}
.edge:hover path { stroke: red; }
.edge:hover polygon { stroke: red; fill: red; }
]]></style>

<defs>
  <circle id="rim" cx="0" cy="0" r="7"/>
  <circle id="rim2" cx="0" cy="0" r="3.5"/>
  <g id="zoomPlus">
    <use xlink:href="#rim" fill="#404040"><set attributeName="fill" to="#808080" begin="zoomplus.mouseover" end="zoomplus.mouseout"/></use>
    <path d="M-4,0h8M0,-4v8" fill="none" stroke="white" stroke-width="1.5" pointer-events="none"/>
  </g>
  <g id="zoomMin">
    <use xlink:href="#rim" fill="#404040"><set attributeName="fill" to="#808080" begin="zoomminus.mouseover" end="zoomminus.mouseout"/></use>
    <path d="M-4,0h8" fill="none" stroke="white" stroke-width="1.5" pointer-events="none"/>
  </g>
  <g id="arrowUp" transform="translate(30 24)">
    <use xlink:href="#rim"/>
    <path pointer-events="none" fill="none" stroke="white" stroke-width="1.5" d="M0,-3.0v7 M-2.5,-0.5L0,-3.0L2.5,-0.5"/>
  </g>
  <g id="arrowRight" transform="rotate(90) translate(36 -43)">
    <use xlink:href="#rim"/>
    <path pointer-events="none" fill="none" stroke="white" stroke-width="1.5" d="M0,-3.0v7 M-2.5,-0.5L0,-3.0L2.5,-0.5"/>
  </g>
  <g id="arrowDown" transform="rotate(180) translate(-30 -48)">
    <use xlink:href="#rim"/>
    <path pointer-events="none" fill="none" stroke="white" stroke-width="1.5" d="M0,-3.0v7 M-2.5,-0.5L0,-3.0L2.5,-0.5"/>
  </g>
  <g id="arrowLeft" transform="rotate(270) translate(-36 17)">
    <use xlink:href="#rim"/>
    <path pointer-events="none" fill="none" stroke="white" stroke-width="1.5" d="M0,-3.0v7 M-2.5,-0.5L0,-3.0L2.5,-0.5"/>
  </g>
  <g id="resetDef">
    <use xlink:href="#rim2" fill="#404040"><set attributeName="fill" to="#808080" begin="reset.mouseover" end="reset.mouseout"/></use>
  </g>
</defs>
<script type="application/ecmascript">
var viewWidth = 111;
var viewHeight = 655;
var sectionId = 'dynsection-1';
</script>
<script type="application/ecmascript" xlink:href="svg.min.js"/>
<svg id="graph" class="graph">
<g id="viewport">
<title>anch::sql::Timestamp</title>
<!-- Node1 -->
<g id="Node000001" class="node">
<title>Node1</title>
<g id="a_Node000001"><a xlink:title="SQL timestamp type.">
<polygon fill="#999999" stroke="none" points="102.5,-116 0,-116 0,0 102.5,0 102.5,-116"/>
<text xml:space="preserve" text-anchor="start" x="4" y="-102.5" font-family="Helvetica,sans-Serif" font-size="10.00">anch::sql::Timestamp</text>
<text xml:space="preserve" text-anchor="start" x="49.75" y="-86.5" font-family="Helvetica,sans-Serif" font-size="10.00"> </text>
<text xml:space="preserve" text-anchor="start" x="9.94" y="-70.5" font-family="Helvetica,sans-Serif" font-size="10.00">+</text>
<text xml:space="preserve" text-anchor="start" x="25.88" y="-70.5" font-family="Helvetica,sans-Serif" font-size="10.00">Timestamp()</text>
<text xml:space="preserve" text-anchor="start" x="9.94" y="-54.5" font-family="Helvetica,sans-Serif" font-size="10.00">+</text>
<text xml:space="preserve" text-anchor="start" x="25.88" y="-54.5" font-family="Helvetica,sans-Serif" font-size="10.00">Timestamp()</text>
<text xml:space="preserve" text-anchor="start" x="9.94" y="-38.5" font-family="Helvetica,sans-Serif" font-size="10.00">+</text>
<text xml:space="preserve" text-anchor="start" x="25.88" y="-38.5" font-family="Helvetica,sans-Serif" font-size="10.00">Timestamp()</text>
<text xml:space="preserve" text-anchor="start" x="9.94" y="-22.5" font-family="Helvetica,sans-Serif" font-size="10.00">+</text>
<text xml:space="preserve" text-anchor="start" x="25.88" y="-22.5" font-family="Helvetica,sans-Serif" font-size="10.00">Timestamp()</text>
<text xml:space="preserve" text-anchor="start" x="9.94" y="-6.5" font-family="Helvetica,sans-Serif" font-size="10.00">+</text>
<text xml:space="preserve" text-anchor="start" x="25.88" y="-6.5" font-family="Helvetica,sans-Serif" font-size="10.00">~Timestamp()</text>
<polygon fill="#666666" stroke="#666666" points="0,-98 0,-98 102.5,-98 102.5,-98 0,-98"/>
<polygon fill="#666666" stroke="#666666" points="0,-82 0,-82 102.5,-82 102.5,-82 0,-82"/>
<polygon fill="none" stroke="#666666" points="0,0 0,-116 102.5,-116 102.5,0 0,0"/>
</a>
</g>
</g>
<!-- Node2 -->
<g id="Node000002" class="node">
<title>Node2</title>
<g id="a_Node000002"><a xlink:href="classanch_1_1date_1_1_date.html" target="_top" xlink:title=" ">
<polygon fill="white" stroke="none" points="93.25,-541 9.25,-541 9.25,-153 93.25,-153 93.25,-541"/>
<text xml:space="preserve" text-anchor="start" x="14.88" y="-527.5" font-family="Helvetica,sans-Serif" font-size="10.00">anch::date::Date</text>
<text xml:space="preserve" text-anchor="start" x="13.62" y="-511.5" font-family="Helvetica,sans-Serif" font-size="10.00">#</text>
<text xml:space="preserve" text-anchor="start" x="23.25" y="-511.5" font-family="Helvetica,sans-Serif" font-size="10.00">_timestamp</text>
<text xml:space="preserve" text-anchor="start" x="13.62" y="-495.5" font-family="Helvetica,sans-Serif" font-size="10.00">#</text>
<text xml:space="preserve" text-anchor="start" x="23.25" y="-495.5" font-family="Helvetica,sans-Serif" font-size="10.00">_years</text>
<text xml:space="preserve" text-anchor="start" x="13.62" y="-479.5" font-family="Helvetica,sans-Serif" font-size="10.00">#</text>
<text xml:space="preserve" text-anchor="start" x="23.25" y="-479.5" font-family="Helvetica,sans-Serif" font-size="10.00">_months</text>
<text xml:space="preserve" text-anchor="start" x="13.62" y="-463.5" font-family="Helvetica,sans-Serif" font-size="10.00">#</text>
<text xml:space="preserve" text-anchor="start" x="23.25" y="-463.5" font-family="Helvetica,sans-Serif" font-size="10.00">_ydays</text>
<text xml:space="preserve" text-anchor="start" x="13.62" y="-447.5" font-family="Helvetica,sans-Serif" font-size="10.00">#</text>
<text xml:space="preserve" text-anchor="start" x="23.25" y="-447.5" font-family="Helvetica,sans-Serif" font-size="10.00">_mdays</text>
<text xml:space="preserve" text-anchor="start" x="13.62" y="-431.5" font-family="Helvetica,sans-Serif" font-size="10.00">#</text>
<text xml:space="preserve" text-anchor="start" x="23.25" y="-431.5" font-family="Helvetica,sans-Serif" font-size="10.00">_wdays</text>
<text xml:space="preserve" text-anchor="start" x="13.62" y="-415.5" font-family="Helvetica,sans-Serif" font-size="10.00">#</text>
<text xml:space="preserve" text-anchor="start" x="23.25" y="-415.5" font-family="Helvetica,sans-Serif" font-size="10.00">_hours</text>
<text xml:space="preserve" text-anchor="start" x="13.62" y="-399.5" font-family="Helvetica,sans-Serif" font-size="10.00">#</text>
<text xml:space="preserve" text-anchor="start" x="23.25" y="-399.5" font-family="Helvetica,sans-Serif" font-size="10.00">_minutes</text>
<text xml:space="preserve" text-anchor="start" x="13.62" y="-383.5" font-family="Helvetica,sans-Serif" font-size="10.00">#</text>
<text xml:space="preserve" text-anchor="start" x="23.25" y="-383.5" font-family="Helvetica,sans-Serif" font-size="10.00">_seconds</text>
<text xml:space="preserve" text-anchor="start" x="13.62" y="-367.5" font-family="Helvetica,sans-Serif" font-size="10.00">#</text>
<text xml:space="preserve" text-anchor="start" x="23.25" y="-367.5" font-family="Helvetica,sans-Serif" font-size="10.00">_milliseconds</text>
<text xml:space="preserve" text-anchor="start" x="13.62" y="-351.5" font-family="Helvetica,sans-Serif" font-size="10.00">#</text>
<text xml:space="preserve" text-anchor="start" x="23.25" y="-351.5" font-family="Helvetica,sans-Serif" font-size="10.00">_microseconds</text>
<text xml:space="preserve" text-anchor="start" x="13.62" y="-335.5" font-family="Helvetica,sans-Serif" font-size="10.00">#</text>
<text xml:space="preserve" text-anchor="start" x="23.25" y="-335.5" font-family="Helvetica,sans-Serif" font-size="10.00">_nanoseconds</text>
<text xml:space="preserve" text-anchor="start" x="13.25" y="-319.5" font-family="Helvetica,sans-Serif" font-size="10.00">+</text>
<text xml:space="preserve" text-anchor="start" x="23.25" y="-319.5" font-family="Helvetica,sans-Serif" font-size="10.00">Date()</text>
<text xml:space="preserve" text-anchor="start" x="13.25" y="-303.5" font-family="Helvetica,sans-Serif" font-size="10.00">+</text>
<text xml:space="preserve" text-anchor="start" x="23.25" y="-303.5" font-family="Helvetica,sans-Serif" font-size="10.00">Date()</text>
<text xml:space="preserve" text-anchor="start" x="13.25" y="-287.5" font-family="Helvetica,sans-Serif" font-size="10.00">+</text>
<text xml:space="preserve" text-anchor="start" x="23.25" y="-287.5" font-family="Helvetica,sans-Serif" font-size="10.00">Date()</text>
<text xml:space="preserve" text-anchor="start" x="13.25" y="-271.5" font-family="Helvetica,sans-Serif" font-size="10.00">+</text>
<text xml:space="preserve" text-anchor="start" x="23.25" y="-271.5" font-family="Helvetica,sans-Serif" font-size="10.00">Date()</text>
<text xml:space="preserve" text-anchor="start" x="13.25" y="-255.5" font-family="Helvetica,sans-Serif" font-size="10.00">+</text>
<text xml:space="preserve" text-anchor="start" x="23.25" y="-255.5" font-family="Helvetica,sans-Serif" font-size="10.00">~Date()</text>
<text xml:space="preserve" text-anchor="start" x="13.25" y="-239.5" font-family="Helvetica,sans-Serif" font-size="10.00">+</text>
<text xml:space="preserve" text-anchor="start" x="23.25" y="-239.5" font-family="Helvetica,sans-Serif" font-size="10.00">after()</text>
<text xml:space="preserve" text-anchor="start" x="13.25" y="-223.5" font-family="Helvetica,sans-Serif" font-size="10.00">+</text>
<text xml:space="preserve" text-anchor="start" x="23.25" y="-223.5" font-family="Helvetica,sans-Serif" font-size="10.00">before()</text>
<text xml:space="preserve" text-anchor="start" x="13.25" y="-207.5" font-family="Helvetica,sans-Serif" font-size="10.00">+</text>
<text xml:space="preserve" text-anchor="start" x="23.25" y="-207.5" font-family="Helvetica,sans-Serif" font-size="10.00">equals()</text>
<text xml:space="preserve" text-anchor="start" x="13.25" y="-191.5" font-family="Helvetica,sans-Serif" font-size="10.00">+</text>
<text xml:space="preserve" text-anchor="start" x="23.25" y="-191.5" font-family="Helvetica,sans-Serif" font-size="10.00">operator&gt;()</text>
<text xml:space="preserve" text-anchor="start" x="13.25" y="-175.5" font-family="Helvetica,sans-Serif" font-size="10.00">+</text>
<text xml:space="preserve" text-anchor="start" x="23.25" y="-175.5" font-family="Helvetica,sans-Serif" font-size="10.00">operator&gt;=()</text>
<text xml:space="preserve" text-anchor="start" x="23.25" y="-159.5" font-family="Helvetica,sans-Serif" font-size="10.00">and 7 more...</text>
<polygon fill="#666666" stroke="#666666" points="9.25,-523 9.25,-523 93.25,-523 93.25,-523 9.25,-523"/>
<polygon fill="#666666" stroke="#666666" points="9.25,-331 9.25,-331 21.25,-331 21.25,-331 9.25,-331"/>
<polygon fill="#666666" stroke="#666666" points="21.25,-331 21.25,-331 93.25,-331 93.25,-331 21.25,-331"/>
<polygon fill="none" stroke="#666666" points="9.25,-153 9.25,-541 93.25,-541 93.25,-153 9.25,-153"/>
</a>
</g>
</g>
<!-- Node2&#45;&gt;Node1 -->
<g id="edge1_Node000001_Node000002" class="edge">
<title>Node2&#45;&gt;Node1</title>
<g id="a_edge1_Node000001_Node000002"><a xlink:title=" ">
<path fill="none" stroke="#63b8ff" d="M51.25,-141.99C51.25,-132.81 51.25,-124.03 51.25,-115.86"/>
<polygon fill="none" stroke="#63b8ff" points="47.75,-141.86 51.25,-151.86 54.75,-141.86 47.75,-141.86"/>
</a>
</g>
</g>
<!-- Node3 -->
<g id="Node000003" class="node">
<title>Node3</title>
<g id="a_Node000003"><a xlink:title=" ">
<polygon fill="white" stroke="none" points="78.5,-647 24,-647 24,-595 78.5,-595 78.5,-647"/>
<text xml:space="preserve" text-anchor="start" x="28" y="-633.5" font-family="Helvetica,sans-Serif" font-size="10.00">std::mutex</text>
<text xml:space="preserve" text-anchor="start" x="49.75" y="-617.5" font-family="Helvetica,sans-Serif" font-size="10.00"> </text>
<text xml:space="preserve" text-anchor="start" x="49.75" y="-601.5" font-family="Helvetica,sans-Serif" font-size="10.00"> </text>
<polygon fill="#666666" stroke="#666666" points="24,-629 24,-629 78.5,-629 78.5,-629 24,-629"/>
<polygon fill="#666666" stroke="#666666" points="24,-613 24,-613 78.5,-613 78.5,-613 24,-613"/>
<polygon fill="none" stroke="#666666" points="24,-595 24,-647 78.5,-647 78.5,-595 24,-595"/>
</a>
</g>
</g>
<!-- Node3&#45;&gt;Node2 -->
<g id="edge2_Node000002_Node000003" class="edge">
<title>Node3&#45;&gt;Node2</title>
<g id="a_edge2_Node000002_Node000003"><a xlink:title=" ">
<path fill="none" stroke="#63b8ff" d="M51.25,-595.38C51.25,-584.18 51.25,-569.8 51.25,-553.62"/>
<polygon fill="none" stroke="#63b8ff" points="51.25,-553.82 47.25,-547.82 51.25,-541.82 55.25,-547.82 51.25,-553.82"/>
</a>
</g>
<text xml:space="preserve" text-anchor="start" x="54.25" y="-564.5" font-family="Helvetica,sans-Serif" font-size="10.00" fill="grey">#_mutex</text>
</g>
</g>
</svg>

<g id="navigator" transform="translate(0 0)" fill="#404254">
  <rect fill="#f2f5e9" fill-opacity="0.5" stroke="#606060" stroke-width=".5" x="0" y="0" width="60" height="60"/>
  <use id="zoomplus" xlink:href="#zoomPlus" x="17" y="9" onmousedown="handleZoom(evt,'in')"/>
  <use id="zoomminus" xlink:href="#zoomMin" x="42" y="9" onmousedown="handleZoom(evt,'out')"/>
  <use id="reset" xlink:href="#resetDef" x="30" y="36" onmousedown="handleReset()"/>
   <use id="arrowup" xlink:href="#arrowUp" x="0" y="0" onmousedown="handlePan(0,-1)"/>
  <use id="arrowright" xlink:href="#arrowRight" x="0" y="0" onmousedown="handlePan(1,0)"/>
  <use id="arrowdown" xlink:href="#arrowDown" x="0" y="0" onmousedown="handlePan(0,1)"/>
  <use id="arrowleft" xlink:href="#arrowLeft" x="0" y="0" onmousedown="handlePan(-1,0)"/>
</g>
<svg viewBox="0 0 15 15" width="100%" height="30px" preserveAspectRatio="xMaxYMin meet">
 <g id="arrow_out" transform="scale(0.3 0.3)">
  <a xlink:href="classanch_1_1sql_1_1_timestamp__coll__graph_org.svg" target="_base">
   <rect id="button" ry="5" rx="5" y="6" x="6" height="38" width="38"
        fill="#f2f5e9" fill-opacity="0.5" stroke="#606060" stroke-width="1.0"/>
   <path id="arrow"
     d="M 11.500037,31.436501 C 11.940474,20.09759 22.043105,11.32322 32.158766,21.979434 L 37.068811,17.246167 C 37.068811,17.246167 37.088388,32 37.088388,32 L 22.160133,31.978069 C 22.160133,31.978069 26.997745,27.140456 26.997745,27.140456 C 18.528582,18.264221 13.291696,25.230495 11.500037,31.436501 z"
     style="fill:#404040;"/>
  </a>
 </g>
</svg>

<style type='text/css'>
<![CDATA[
[data-mouse-over-selected='false'] { opacity: 0.7; }
[data-mouse-over-selected='true']  { opacity: 1.0; }
]]>
</style>
<script type="application/ecmascript"><![CDATA[
document.addEventListener('DOMContentLoaded', (event) => {
  highlightEdges();
  highlightAdjacentNodes();
});
]]></script>
</svg>
