<?xml version="1.0" encoding="UTF-8" standalone="no"?>
<!DOCTYPE svg PUBLIC "-//W3C//DTD SVG 1.1//EN"
 "http://www.w3.org/Graphics/SVG/1.1/DTD/svg11.dtd">
<!-- Generated by graphviz version 9.0.0 (0)
 -->
<!-- Title: anch::rest::MapperException Pages: 1 -->
<svg width="156pt" height="180pt"
 viewBox="0.00 0.00 156.00 180.00" xmlns="http://www.w3.org/2000/svg" xmlns:xlink="http://www.w3.org/1999/xlink">

<svg id="main" version="1.1" xmlns="http://www.w3.org/2000/svg" xmlns:xlink="http://www.w3.org/1999/xlink" xml:space="preserve" onload="init(evt)">
<style type="text/css"><![CDATA[
.node, .edge {opacity: 0.7;}
.node.selected, .edge.selected {opacity: 1;}
.edge:hover path { stroke: red; }
.edge:hover polygon { stroke: red; fill: red; }
]]></style>
<script type="application/ecmascript" xlink:href="svg.min.js"/>
<svg id="graph" class="graph">
<g id="graph0" class="graph" transform="scale(1 1) rotate(0) translate(4 176)">
<title>anch::rest::MapperException</title>
<!-- Node1 -->
<g id="Node000001" class="node">
<title>Node1</title>
<g id="a_Node000001"><a xlink:title=" ">
<polygon fill="#999999" stroke="none" points="148,-84 0,-84 0,0 148,0 148,-84"/>
<text text-anchor="start" x="4.62" y="-70.5" font-family="Helvetica,sans-Serif" font-size="10.00">anch::rest::MapperException</text>
<text text-anchor="start" x="72.5" y="-54.5" font-family="Helvetica,sans-Serif" font-size="10.00"> </text>
<text text-anchor="start" x="10.88" y="-38.5" font-family="Helvetica,sans-Serif" font-size="10.00">+</text>
<text text-anchor="start" x="30" y="-38.5" font-family="Helvetica,sans-Serif" font-size="10.00">MapperException()</text>
<text text-anchor="start" x="10.88" y="-22.5" font-family="Helvetica,sans-Serif" font-size="10.00">+</text>
<text text-anchor="start" x="30" y="-22.5" font-family="Helvetica,sans-Serif" font-size="10.00">~MapperException()</text>
<text text-anchor="start" x="10.88" y="-6.5" font-family="Helvetica,sans-Serif" font-size="10.00">+</text>
<text text-anchor="start" x="30" y="-6.5" font-family="Helvetica,sans-Serif" font-size="10.00">what()</text>
<polygon fill="#666666" stroke="#666666" points="0,-66 0,-66 148,-66 148,-66 0,-66"/>
<polygon fill="#666666" stroke="#666666" points="0,-50 0,-50 148,-50 148,-50 0,-50"/>
<polygon fill="none" stroke="#666666" points="0,0 0,-84 148,-84 148,0 0,0"/>
</a>
</g>
</g>
<!-- Node2 -->
<g id="Node000002" class="node">
<title>Node2</title>
<g id="a_Node000002"><a xlink:title=" ">
<polygon fill="white" stroke="none" points="113.5,-172 34.5,-172 34.5,-120 113.5,-120 113.5,-172"/>
<text text-anchor="start" x="39.5" y="-158.5" font-family="Helvetica,sans-Serif" font-size="10.00">std::exception</text>
<text text-anchor="start" x="72.5" y="-142.5" font-family="Helvetica,sans-Serif" font-size="10.00"> </text>
<text text-anchor="start" x="72.5" y="-126.5" font-family="Helvetica,sans-Serif" font-size="10.00"> </text>
<polygon fill="#666666" stroke="#666666" points="34.5,-154 34.5,-154 113.5,-154 113.5,-154 34.5,-154"/>
<polygon fill="#666666" stroke="#666666" points="34.5,-138 34.5,-138 113.5,-138 113.5,-138 34.5,-138"/>
<polygon fill="none" stroke="#666666" points="34.5,-120 34.5,-172 113.5,-172 113.5,-120 34.5,-120"/>
</a>
</g>
</g>
<!-- Node2&#45;&gt;Node1 -->
<g id="edge1_Node000001_Node000002" class="edge">
<title>Node2&#45;&gt;Node1</title>
<g id="a_edge1_Node000001_Node000002"><a xlink:title=" ">
<path fill="none" stroke="#63b8ff" d="M74,-108.77C74,-100.75 74,-92.19 74,-83.99"/>
<polygon fill="none" stroke="#63b8ff" points="70.5,-108.53 74,-118.53 77.5,-108.53 70.5,-108.53"/>
</a>
</g>
</g>
</g>
</svg>
</svg>

<style type='text/css'>
<![CDATA[
[data-mouse-over-selected='false'] { opacity: 0.7; }
[data-mouse-over-selected='true']  { opacity: 1.0; }
]]>
</style>
<script type="application/ecmascript"><![CDATA[
document.addEventListener('DOMContentLoaded', (event) => {
  highlightEdges();
  highlightAdjacentNodes();
});
]]></script>
</svg>
