<?xml version="1.0" encoding="UTF-8" standalone="no"?>
<!DOCTYPE svg PUBLIC "-//W3C//DTD SVG 1.1//EN"
 "http://www.w3.org/Graphics/SVG/1.1/DTD/svg11.dtd">
<!-- Generated by graphviz version 12.1.2 (0)
 -->
<!-- Title: anch::date::formatter::Year4DFormatter Pages: 1 -->
<!--zoomable 625 -->

<svg id="main" version="1.1" xmlns="http://www.w3.org/2000/svg" xmlns:xlink="http://www.w3.org/1999/xlink" xml:space="preserve" onload="init(evt)">

<style type="text/css"><![CDATA[
.node, .edge {opacity: 0.7;}
.node.selected, .edge.selected {opacity: 1;}
.edge:hover path { stroke: red; }
.edge:hover polygon { stroke: red; fill: red; }
]]></style>

<defs>
  <circle id="rim" cx="0" cy="0" r="7"/>
  <circle id="rim2" cx="0" cy="0" r="3.5"/>
  <g id="zoomPlus">
    <use xlink:href="#rim" fill="#404040"><set attributeName="fill" to="#808080" begin="zoomplus.mouseover" end="zoomplus.mouseout"/></use>
    <path d="M-4,0h8M0,-4v8" fill="none" stroke="white" stroke-width="1.5" pointer-events="none"/>
  </g>
  <g id="zoomMin">
    <use xlink:href="#rim" fill="#404040"><set attributeName="fill" to="#808080" begin="zoomminus.mouseover" end="zoomminus.mouseout"/></use>
    <path d="M-4,0h8" fill="none" stroke="white" stroke-width="1.5" pointer-events="none"/>
  </g>
  <g id="arrowUp" transform="translate(30 24)">
    <use xlink:href="#rim"/>
    <path pointer-events="none" fill="none" stroke="white" stroke-width="1.5" d="M0,-3.0v7 M-2.5,-0.5L0,-3.0L2.5,-0.5"/>
  </g>
  <g id="arrowRight" transform="rotate(90) translate(36 -43)">
    <use xlink:href="#rim"/>
    <path pointer-events="none" fill="none" stroke="white" stroke-width="1.5" d="M0,-3.0v7 M-2.5,-0.5L0,-3.0L2.5,-0.5"/>
  </g>
  <g id="arrowDown" transform="rotate(180) translate(-30 -48)">
    <use xlink:href="#rim"/>
    <path pointer-events="none" fill="none" stroke="white" stroke-width="1.5" d="M0,-3.0v7 M-2.5,-0.5L0,-3.0L2.5,-0.5"/>
  </g>
  <g id="arrowLeft" transform="rotate(270) translate(-36 17)">
    <use xlink:href="#rim"/>
    <path pointer-events="none" fill="none" stroke="white" stroke-width="1.5" d="M0,-3.0v7 M-2.5,-0.5L0,-3.0L2.5,-0.5"/>
  </g>
  <g id="resetDef">
    <use xlink:href="#rim2" fill="#404040"><set attributeName="fill" to="#808080" begin="reset.mouseover" end="reset.mouseout"/></use>
  </g>
</defs>
<script type="application/ecmascript">
var viewWidth = 232;
var viewHeight = 625;
var sectionId = 'dynsection-1';
</script>
<script type="application/ecmascript" xlink:href="svg.min.js"/>
<svg id="graph" class="graph">
<g id="viewport">
<title>anch::date::formatter::Year4DFormatter</title>
<!-- Node1 -->
<g id="Node000001" class="node">
<title>Node1</title>
<g id="a_Node000001"><a xlink:title=" ">
<polygon fill="#999999" stroke="none" points="158.5,-161 41.5,-161 41.5,0 158.5,0 158.5,-161"/>
<text text-anchor="start" x="48.25" y="-147.5" font-family="Helvetica,sans-Serif" font-size="10.00">anch::date::formatter</text>
<text text-anchor="start" x="56.12" y="-134.75" font-family="Helvetica,sans-Serif" font-size="10.00">::Year4DFormatter</text>
<text text-anchor="start" x="98.5" y="-118.5" font-family="Helvetica,sans-Serif" font-size="10.00"> </text>
<text text-anchor="start" x="45.38" y="-102.5" font-family="Helvetica,sans-Serif" font-size="10.00">+</text>
<text text-anchor="start" x="57.5" y="-102.5" font-family="Helvetica,sans-Serif" font-size="10.00">Year4DFormatter()</text>
<text text-anchor="start" x="45.38" y="-86.5" font-family="Helvetica,sans-Serif" font-size="10.00">+</text>
<text text-anchor="start" x="57.5" y="-86.5" font-family="Helvetica,sans-Serif" font-size="10.00">~Year4DFormatter()</text>
<text text-anchor="start" x="45.38" y="-70.5" font-family="Helvetica,sans-Serif" font-size="10.00">+</text>
<text text-anchor="start" x="57.5" y="-70.5" font-family="Helvetica,sans-Serif" font-size="10.00">format()</text>
<text text-anchor="start" x="45.38" y="-54.5" font-family="Helvetica,sans-Serif" font-size="10.00">+</text>
<text text-anchor="start" x="57.5" y="-54.5" font-family="Helvetica,sans-Serif" font-size="10.00">getSize()</text>
<text text-anchor="start" x="45.38" y="-38.5" font-family="Helvetica,sans-Serif" font-size="10.00">+</text>
<text text-anchor="start" x="57.5" y="-38.5" font-family="Helvetica,sans-Serif" font-size="10.00">setValue()</text>
<text text-anchor="start" x="45.38" y="-22.5" font-family="Helvetica,sans-Serif" font-size="10.00">+</text>
<text text-anchor="start" x="57.5" y="-22.5" font-family="Helvetica,sans-Serif" font-size="10.00">getPattern()</text>
<text text-anchor="start" x="45.38" y="-6.5" font-family="Helvetica,sans-Serif" font-size="10.00">+</text>
<text text-anchor="start" x="57.5" y="-6.5" font-family="Helvetica,sans-Serif" font-size="10.00">getInstance()</text>
<polygon fill="#666666" stroke="#666666" points="41.5,-130 41.5,-130 158.5,-130 158.5,-130 41.5,-130"/>
<polygon fill="#666666" stroke="#666666" points="41.5,-114 41.5,-114 158.5,-114 158.5,-114 41.5,-114"/>
<polygon fill="none" stroke="#666666" points="41.5,0 41.5,-161 158.5,-161 158.5,0 41.5,0"/>
</a>
</g>
</g>
<!-- Node2 -->
<g id="Node000002" class="node">
<title>Node2</title>
<g id="a_Node000002"><a xlink:href="classanch_1_1date_1_1formatter_1_1_i_date_part_formatter.html" target="_top" xlink:title=" ">
<polygon fill="white" stroke="none" points="128,-514.75 0,-514.75 0,-209.75 128,-209.75 128,-514.75"/>
<text text-anchor="start" x="12.25" y="-501.25" font-family="Helvetica,sans-Serif" font-size="10.00">anch::date::formatter</text>
<text text-anchor="start" x="14.5" y="-488.5" font-family="Helvetica,sans-Serif" font-size="10.00">::IDatePartFormatter</text>
<text text-anchor="start" x="62.5" y="-472.25" font-family="Helvetica,sans-Serif" font-size="10.00"> </text>
<text text-anchor="start" x="3.88" y="-456.25" font-family="Helvetica,sans-Serif" font-size="10.00">+</text>
<text text-anchor="start" x="16" y="-456.25" font-family="Helvetica,sans-Serif" font-size="10.00">~IDatePartFormatter()</text>
<text text-anchor="start" x="3.88" y="-440.25" font-family="Helvetica,sans-Serif" font-size="10.00">+</text>
<text text-anchor="start" x="16" y="-440.25" font-family="Helvetica,sans-Serif" font-size="10.00">format()</text>
<text text-anchor="start" x="3.88" y="-424.25" font-family="Helvetica,sans-Serif" font-size="10.00">+</text>
<text text-anchor="start" x="16" y="-424.25" font-family="Helvetica,sans-Serif" font-size="10.00">getSize()</text>
<text text-anchor="start" x="3.88" y="-408.25" font-family="Helvetica,sans-Serif" font-size="10.00">+</text>
<text text-anchor="start" x="16" y="-408.25" font-family="Helvetica,sans-Serif" font-size="10.00">setValue()</text>
<text text-anchor="start" x="3.88" y="-392.25" font-family="Helvetica,sans-Serif" font-size="10.00">+</text>
<text text-anchor="start" x="16" y="-392.25" font-family="Helvetica,sans-Serif" font-size="10.00">getPattern()</text>
<text text-anchor="start" x="3.88" y="-376.25" font-family="Helvetica,sans-Serif" font-size="10.00">#</text>
<text text-anchor="start" x="16" y="-376.25" font-family="Helvetica,sans-Serif" font-size="10.00">getYear()</text>
<text text-anchor="start" x="3.88" y="-360.25" font-family="Helvetica,sans-Serif" font-size="10.00">#</text>
<text text-anchor="start" x="16" y="-360.25" font-family="Helvetica,sans-Serif" font-size="10.00">setYear()</text>
<text text-anchor="start" x="3.88" y="-344.25" font-family="Helvetica,sans-Serif" font-size="10.00">#</text>
<text text-anchor="start" x="16" y="-344.25" font-family="Helvetica,sans-Serif" font-size="10.00">getMonth()</text>
<text text-anchor="start" x="3.88" y="-328.25" font-family="Helvetica,sans-Serif" font-size="10.00">#</text>
<text text-anchor="start" x="16" y="-328.25" font-family="Helvetica,sans-Serif" font-size="10.00">setMonth()</text>
<text text-anchor="start" x="3.88" y="-312.25" font-family="Helvetica,sans-Serif" font-size="10.00">#</text>
<text text-anchor="start" x="16" y="-312.25" font-family="Helvetica,sans-Serif" font-size="10.00">getDay()</text>
<text text-anchor="start" x="3.88" y="-296.25" font-family="Helvetica,sans-Serif" font-size="10.00">#</text>
<text text-anchor="start" x="16" y="-296.25" font-family="Helvetica,sans-Serif" font-size="10.00">setDay()</text>
<text text-anchor="start" x="3.88" y="-280.25" font-family="Helvetica,sans-Serif" font-size="10.00">#</text>
<text text-anchor="start" x="16" y="-280.25" font-family="Helvetica,sans-Serif" font-size="10.00">getHour()</text>
<text text-anchor="start" x="3.88" y="-264.25" font-family="Helvetica,sans-Serif" font-size="10.00">#</text>
<text text-anchor="start" x="16" y="-264.25" font-family="Helvetica,sans-Serif" font-size="10.00">setHour()</text>
<text text-anchor="start" x="3.88" y="-248.25" font-family="Helvetica,sans-Serif" font-size="10.00">#</text>
<text text-anchor="start" x="16" y="-248.25" font-family="Helvetica,sans-Serif" font-size="10.00">getMinute()</text>
<text text-anchor="start" x="3.88" y="-232.25" font-family="Helvetica,sans-Serif" font-size="10.00">#</text>
<text text-anchor="start" x="16" y="-232.25" font-family="Helvetica,sans-Serif" font-size="10.00">setMinute()</text>
<text text-anchor="start" x="16" y="-216.25" font-family="Helvetica,sans-Serif" font-size="10.00">and 8 more...</text>
<polygon fill="#666666" stroke="#666666" points="0,-483.75 0,-483.75 128,-483.75 128,-483.75 0,-483.75"/>
<polygon fill="#666666" stroke="#666666" points="0,-467.75 0,-467.75 128,-467.75 128,-467.75 0,-467.75"/>
<polygon fill="none" stroke="#666666" points="0,-209.75 0,-514.75 128,-514.75 128,-209.75 0,-209.75"/>
</a>
</g>
</g>
<!-- Node2&#45;&gt;Node1 -->
<g id="edge1_Node000001_Node000002" class="edge">
<title>Node2&#45;&gt;Node1</title>
<g id="a_edge1_Node000001_Node000002"><a xlink:title=" ">
<path fill="none" stroke="#63b8ff" d="M84.94,-198.5C86.61,-185.57 88.24,-172.91 89.77,-160.98"/>
<polygon fill="none" stroke="#63b8ff" points="81.47,-198.05 83.67,-208.41 88.42,-198.94 81.47,-198.05"/>
</a>
</g>
</g>
<!-- Node3 -->
<g id="Node000003" class="node">
<title>Node3</title>
<g id="a_Node000003"><a xlink:title=" ">
<polygon fill="white" stroke="none" points="204,-388.25 146,-388.25 146,-336.25 204,-336.25 204,-388.25"/>
<text text-anchor="start" x="150.62" y="-374.75" font-family="Helvetica,sans-Serif" font-size="10.00">std::string</text>
<text text-anchor="start" x="173.5" y="-358.75" font-family="Helvetica,sans-Serif" font-size="10.00"> </text>
<text text-anchor="start" x="173.5" y="-342.75" font-family="Helvetica,sans-Serif" font-size="10.00"> </text>
<polygon fill="#666666" stroke="#666666" points="146,-370.25 146,-370.25 204,-370.25 204,-370.25 146,-370.25"/>
<polygon fill="#666666" stroke="#666666" points="146,-354.25 146,-354.25 204,-354.25 204,-354.25 146,-354.25"/>
<polygon fill="none" stroke="#666666" points="146,-336.25 146,-388.25 204,-388.25 204,-336.25 146,-336.25"/>
</a>
</g>
</g>
<!-- Node3&#45;&gt;Node1 -->
<g id="edge2_Node000001_Node000003" class="edge">
<title>Node3&#45;&gt;Node1</title>
<g id="a_edge2_Node000001_Node000003"><a xlink:title=" ">
<path fill="none" stroke="#63b8ff" d="M169.08,-336.51C161.82,-306.46 149,-254.26 137,-209.75 133.79,-197.84 130.31,-185.33 126.82,-172.99"/>
<polygon fill="none" stroke="#63b8ff" points="126.86,-173.15 121.37,-168.47 123.58,-161.61 129.07,-166.28 126.86,-173.15"/>
</a>
</g>
<text text-anchor="middle" x="158.6" y="-182.25" font-family="Helvetica,sans-Serif" font-size="10.00" fill="grey"> +PATTERN</text>
</g>
<!-- Node4 -->
<g id="Node000004" class="node">
<title>Node4</title>
<g id="a_Node000004"><a xlink:title=" ">
<polygon fill="white" stroke="none" points="223.5,-616.75 126.5,-616.75 126.5,-551.75 223.5,-551.75 223.5,-616.75"/>
<text text-anchor="start" x="131.12" y="-603.25" font-family="Helvetica,sans-Serif" font-size="10.00">std::basic_string&lt;</text>
<text text-anchor="start" x="156.62" y="-590.5" font-family="Helvetica,sans-Serif" font-size="10.00"> Char &gt;</text>
<text text-anchor="start" x="173.5" y="-574.25" font-family="Helvetica,sans-Serif" font-size="10.00"> </text>
<text text-anchor="start" x="173.5" y="-558.25" font-family="Helvetica,sans-Serif" font-size="10.00"> </text>
<polygon fill="#666666" stroke="#666666" points="126.5,-585.75 126.5,-585.75 223.5,-585.75 223.5,-585.75 126.5,-585.75"/>
<polygon fill="#666666" stroke="#666666" points="126.5,-569.75 126.5,-569.75 223.5,-569.75 223.5,-569.75 126.5,-569.75"/>
<polygon fill="none" stroke="#666666" points="126.5,-551.75 126.5,-616.75 223.5,-616.75 223.5,-551.75 126.5,-551.75"/>
</a>
</g>
</g>
<!-- Node4&#45;&gt;Node3 -->
<g id="edge3_Node000003_Node000004" class="edge">
<title>Node4&#45;&gt;Node3</title>
<g id="a_edge3_Node000003_Node000004"><a xlink:title=" ">
<path fill="none" stroke="#63b8ff" d="M175,-540.96C175,-495.61 175,-425.13 175,-388.02"/>
<polygon fill="none" stroke="#63b8ff" points="171.5,-540.68 175,-550.68 178.5,-540.68 171.5,-540.68"/>
</a>
</g>
</g>
</g>
</svg>

<g id="navigator" transform="translate(0 0)" fill="#404254">
  <rect fill="#f2f5e9" fill-opacity="0.5" stroke="#606060" stroke-width=".5" x="0" y="0" width="60" height="60"/>
  <use id="zoomplus" xlink:href="#zoomPlus" x="17" y="9" onmousedown="handleZoom(evt,'in')"/>
  <use id="zoomminus" xlink:href="#zoomMin" x="42" y="9" onmousedown="handleZoom(evt,'out')"/>
  <use id="reset" xlink:href="#resetDef" x="30" y="36" onmousedown="handleReset()"/>
   <use id="arrowup" xlink:href="#arrowUp" x="0" y="0" onmousedown="handlePan(0,-1)"/>
  <use id="arrowright" xlink:href="#arrowRight" x="0" y="0" onmousedown="handlePan(1,0)"/>
  <use id="arrowdown" xlink:href="#arrowDown" x="0" y="0" onmousedown="handlePan(0,1)"/>
  <use id="arrowleft" xlink:href="#arrowLeft" x="0" y="0" onmousedown="handlePan(-1,0)"/>
</g>
<svg viewBox="0 0 15 15" width="100%" height="30px" preserveAspectRatio="xMaxYMin meet">
 <g id="arrow_out" transform="scale(0.3 0.3)">
  <a xlink:href="classanch_1_1date_1_1formatter_1_1_year4_d_formatter__coll__graph_org.svg" target="_base">
   <rect id="button" ry="5" rx="5" y="6" x="6" height="38" width="38"
        fill="#f2f5e9" fill-opacity="0.5" stroke="#606060" stroke-width="1.0"/>
   <path id="arrow"
     d="M 11.500037,31.436501 C 11.940474,20.09759 22.043105,11.32322 32.158766,21.979434 L 37.068811,17.246167 C 37.068811,17.246167 37.088388,32 37.088388,32 L 22.160133,31.978069 C 22.160133,31.978069 26.997745,27.140456 26.997745,27.140456 C 18.528582,18.264221 13.291696,25.230495 11.500037,31.436501 z"
     style="fill:#404040;"/>
  </a>
 </g>
</svg>

<style type='text/css'>
<![CDATA[
[data-mouse-over-selected='false'] { opacity: 0.7; }
[data-mouse-over-selected='true']  { opacity: 1.0; }
]]>
</style>
<script type="application/ecmascript"><![CDATA[
document.addEventListener('DOMContentLoaded', (event) => {
  highlightEdges();
  highlightAdjacentNodes();
});
]]></script>
</svg>
