<?xml version="1.0" encoding="UTF-8" standalone="no"?>
<!DOCTYPE svg PUBLIC "-//W3C//DTD SVG 1.1//EN"
 "http://www.w3.org/Graphics/SVG/1.1/DTD/svg11.dtd">
<!-- Generated by graphviz version 8.0.1 (0)
 -->
<!-- Title: anch::logger::LowPriorityWriter Pages: 1 -->
<!--zoomable 705 -->
<svg id="main" version="1.1" xmlns="http://www.w3.org/2000/svg" xmlns:xlink="http://www.w3.org/1999/xlink" xml:space="preserve" onload="init(evt)">
<style type="text/css"><![CDATA[
.edge:hover path { stroke: red; }
.edge:hover polygon { stroke: red; fill: red; }
]]></style>
<script type="text/javascript"><![CDATA[
var edges = document.getElementsByTagName('g');
if (edges && edges.length) {
  for (var i=0;i<edges.length;i++) {
    if (edges[i].id.substr(0,4)=='edge') {
      edges[i].setAttribute('class','edge');
    }
  }
}
]]></script>
        <defs>
                <circle id="rim" cx="0" cy="0" r="7"/>
                <circle id="rim2" cx="0" cy="0" r="3.5"/>
                <g id="zoomPlus">
                        <use xlink:href="#rim" fill="#404040">
                                <set attributeName="fill" to="#808080" begin="zoomplus.mouseover" end="zoomplus.mouseout"/>
                        </use>
                        <path d="M-4,0h8M0,-4v8" fill="none" stroke="white" stroke-width="1.5" pointer-events="none"/>
                </g>
                <g id="zoomMin">
                        <use xlink:href="#rim" fill="#404040">
                                <set attributeName="fill" to="#808080" begin="zoomminus.mouseover" end="zoomminus.mouseout"/>
                        </use>
                        <path d="M-4,0h8" fill="none" stroke="white" stroke-width="1.5" pointer-events="none"/>
                </g>
                <g id="dirArrow">
                        <path fill="none" stroke="white" stroke-width="1.5" d="M0,-3.0v7 M-2.5,-0.5L0,-3.0L2.5,-0.5"/>
                </g>
               <g id="resetDef">
                       <use xlink:href="#rim2" fill="#404040">
                               <set attributeName="fill" to="#808080" begin="reset.mouseover" end="reset.mouseout"/>
                       </use>
               </g>
        </defs>

<script type="text/javascript">
var viewWidth = 265;
var viewHeight = 705;
var sectionId = 'dynsection-1';
</script>
<script xlink:href="svgpan.js"/>
<svg id="graph" class="graph">
<g id="viewport">
<title>anch::logger::LowPriorityWriter</title>
<!-- Node1 -->
<g id="node1" class="node">
<title>Node1</title>
<g id="a_node1"><a xlink:title=" ">
<polygon fill="#999999" stroke="#666666" points="58.5,-0.5 58.5,-112.5 195.5,-112.5 195.5,-0.5 58.5,-0.5"/>
<text text-anchor="start" x="66.5" y="-100.5" font-family="Helvetica,sans-Serif" font-size="10.00">anch::logger::LowPriority</text>
<text text-anchor="middle" x="127" y="-89.5" font-family="Helvetica,sans-Serif" font-size="10.00">Writer</text>
<polyline fill="none" stroke="#666666" points="58.5,-82.5 195.5,-82.5"/>
<text text-anchor="middle" x="127" y="-70.5" font-family="Helvetica,sans-Serif" font-size="10.00"> </text>
<polyline fill="none" stroke="#666666" points="58.5,-63.5 195.5,-63.5"/>
<text text-anchor="start" x="66.5" y="-51.5" font-family="Helvetica,sans-Serif" font-size="10.00">+ LowPriorityWriter()</text>
<text text-anchor="start" x="66.5" y="-40.5" font-family="Helvetica,sans-Serif" font-size="10.00">+ LowPriorityWriter()</text>
<text text-anchor="start" x="66.5" y="-29.5" font-family="Helvetica,sans-Serif" font-size="10.00">+ ~LowPriorityWriter()</text>
<text text-anchor="start" x="66.5" y="-18.5" font-family="Helvetica,sans-Serif" font-size="10.00">+ write()</text>
<text text-anchor="start" x="66.5" y="-7.5" font-family="Helvetica,sans-Serif" font-size="10.00">+ startTreatment()</text>
</a>
</g>
</g>
<!-- Node2 -->
<g id="node2" class="node">
<title>Node2</title>
<g id="a_node2"><a xlink:href="classanch_1_1logger_1_1_writer.html" target="_top" xlink:title=" ">
<polygon fill="white" stroke="#666666" points="70.5,-150.5 70.5,-262.5 183.5,-262.5 183.5,-150.5 70.5,-150.5"/>
<text text-anchor="middle" x="127" y="-250.5" font-family="Helvetica,sans-Serif" font-size="10.00">anch::logger::Writer</text>
<polyline fill="none" stroke="#666666" points="70.5,-243.5 183.5,-243.5"/>
<text text-anchor="middle" x="127" y="-231.5" font-family="Helvetica,sans-Serif" font-size="10.00"> </text>
<polyline fill="none" stroke="#666666" points="70.5,-224.5 183.5,-224.5"/>
<text text-anchor="start" x="78.5" y="-212.5" font-family="Helvetica,sans-Serif" font-size="10.00">+ Writer()</text>
<text text-anchor="start" x="78.5" y="-201.5" font-family="Helvetica,sans-Serif" font-size="10.00">+ Writer()</text>
<text text-anchor="start" x="78.5" y="-190.5" font-family="Helvetica,sans-Serif" font-size="10.00">+ ~Writer()</text>
<text text-anchor="start" x="78.5" y="-179.5" font-family="Helvetica,sans-Serif" font-size="10.00">+ write()</text>
<text text-anchor="start" x="78.5" y="-168.5" font-family="Helvetica,sans-Serif" font-size="10.00"># rotate()</text>
<text text-anchor="start" x="78.5" y="-157.5" font-family="Helvetica,sans-Serif" font-size="10.00"># rotateFiles()</text>
</a>
</g>
</g>
<!-- Node2&#45;&gt;Node1 -->
<g id="edge1" class="edge">
<title>Node2&#45;&gt;Node1</title>
<path fill="none" stroke="#63b8ff" d="M127,-140.1C127,-130.87 127,-121.46 127,-112.46"/>
<polygon fill="none" stroke="#63b8ff" points="123.5,-139.81 127,-149.81 130.5,-139.81 123.5,-139.81"/>
</g>
<!-- Node3 -->
<g id="node3" class="node">
<title>Node3</title>
<g id="a_node3"><a xlink:title=" ">
<polygon fill="white" stroke="#666666" points="25,-327 25,-384 103,-384 103,-327 25,-327"/>
<text text-anchor="middle" x="64" y="-372" font-family="Helvetica,sans-Serif" font-size="10.00">std::ostream</text>
<polyline fill="none" stroke="#666666" points="25,-365 103,-365"/>
<text text-anchor="middle" x="64" y="-353" font-family="Helvetica,sans-Serif" font-size="10.00"> </text>
<polyline fill="none" stroke="#666666" points="25,-346 103,-346"/>
<text text-anchor="middle" x="64" y="-334" font-family="Helvetica,sans-Serif" font-size="10.00"> </text>
</a>
</g>
</g>
<!-- Node3&#45;&gt;Node2 -->
<g id="edge2" class="edge">
<title>Node3&#45;&gt;Node2</title>
<path fill="none" stroke="#404040" d="M75.7,-327.19C82.13,-312.21 90.4,-292.91 98.41,-274.21"/>
<polygon fill="none" stroke="#404040" points="98.4,-274.23 97.09,-267.13 103.13,-263.2 104.44,-270.29 98.4,-274.23"/>
<text text-anchor="middle" x="120.5" y="-284" font-family="Helvetica,sans-Serif" font-size="10.00"> #_output</text>
</g>
<!-- Node4 -->
<g id="node4" class="node">
<title>Node4</title>
<g id="a_node4"><a xlink:title=" ">
<polygon fill="white" stroke="#666666" points="9.5,-438.5 9.5,-506.5 118.5,-506.5 118.5,-438.5 9.5,-438.5"/>
<text text-anchor="start" x="17.5" y="-494.5" font-family="Helvetica,sans-Serif" font-size="10.00">std::basic_ostream</text>
<text text-anchor="middle" x="64" y="-483.5" font-family="Helvetica,sans-Serif" font-size="10.00">&lt; Char &gt;</text>
<polyline fill="none" stroke="#666666" points="9.5,-476.5 118.5,-476.5"/>
<text text-anchor="middle" x="64" y="-464.5" font-family="Helvetica,sans-Serif" font-size="10.00"> </text>
<polyline fill="none" stroke="#666666" points="9.5,-457.5 118.5,-457.5"/>
<text text-anchor="middle" x="64" y="-445.5" font-family="Helvetica,sans-Serif" font-size="10.00"> </text>
</a>
</g>
</g>
<!-- Node4&#45;&gt;Node3 -->
<g id="edge3" class="edge">
<title>Node4&#45;&gt;Node3</title>
<path fill="none" stroke="#63b8ff" d="M64,-427.56C64,-412.79 64,-396.74 64,-383.64"/>
<polygon fill="none" stroke="#63b8ff" points="60.5,-427.55 64,-437.55 67.5,-427.55 60.5,-427.55"/>
</g>
<!-- Node5 -->
<g id="node5" class="node">
<title>Node5</title>
<g id="a_node5"><a xlink:title=" ">
<polygon fill="white" stroke="#666666" points="0,-544.5 0,-601.5 128,-601.5 128,-544.5 0,-544.5"/>
<text text-anchor="middle" x="64" y="-589.5" font-family="Helvetica,sans-Serif" font-size="10.00">std::basic_ios&lt; Char &gt;</text>
<polyline fill="none" stroke="#666666" points="0,-582.5 128,-582.5"/>
<text text-anchor="middle" x="64" y="-570.5" font-family="Helvetica,sans-Serif" font-size="10.00"> </text>
<polyline fill="none" stroke="#666666" points="0,-563.5 128,-563.5"/>
<text text-anchor="middle" x="64" y="-551.5" font-family="Helvetica,sans-Serif" font-size="10.00"> </text>
</a>
</g>
</g>
<!-- Node5&#45;&gt;Node4 -->
<g id="edge4" class="edge">
<title>Node5&#45;&gt;Node4</title>
<path fill="none" stroke="#63b8ff" d="M64,-533.85C64,-524.79 64,-515.19 64,-506.38"/>
<polygon fill="none" stroke="#63b8ff" points="60.5,-533.56 64,-543.56 67.5,-533.56 60.5,-533.56"/>
</g>
<!-- Node6 -->
<g id="node6" class="node">
<title>Node6</title>
<g id="a_node6"><a xlink:title=" ">
<polygon fill="white" stroke="#666666" points="24,-639.5 24,-696.5 104,-696.5 104,-639.5 24,-639.5"/>
<text text-anchor="middle" x="64" y="-684.5" font-family="Helvetica,sans-Serif" font-size="10.00">std::ios_base</text>
<polyline fill="none" stroke="#666666" points="24,-677.5 104,-677.5"/>
<text text-anchor="middle" x="64" y="-665.5" font-family="Helvetica,sans-Serif" font-size="10.00"> </text>
<polyline fill="none" stroke="#666666" points="24,-658.5 104,-658.5"/>
<text text-anchor="middle" x="64" y="-646.5" font-family="Helvetica,sans-Serif" font-size="10.00"> </text>
</a>
</g>
</g>
<!-- Node6&#45;&gt;Node5 -->
<g id="edge5" class="edge">
<title>Node6&#45;&gt;Node5</title>
<path fill="none" stroke="#63b8ff" d="M64,-628.68C64,-619.46 64,-609.8 64,-601.2"/>
<polygon fill="none" stroke="#63b8ff" points="60.5,-628.6 64,-638.6 67.5,-628.6 60.5,-628.6"/>
</g>
<!-- Node7 -->
<g id="node7" class="node">
<title>Node7</title>
<g id="a_node7"><a xlink:href="classanch_1_1logger_1_1formatter_1_1_message_formatter.html" target="_top" xlink:title=" ">
<polygon fill="white" stroke="#666666" points="121.5,-310.5 121.5,-400.5 256.5,-400.5 256.5,-310.5 121.5,-310.5"/>
<text text-anchor="start" x="129.5" y="-388.5" font-family="Helvetica,sans-Serif" font-size="10.00">anch::logger::formatter</text>
<text text-anchor="middle" x="189" y="-377.5" font-family="Helvetica,sans-Serif" font-size="10.00">::MessageFormatter</text>
<polyline fill="none" stroke="#666666" points="121.5,-370.5 256.5,-370.5"/>
<text text-anchor="middle" x="189" y="-358.5" font-family="Helvetica,sans-Serif" font-size="10.00"> </text>
<polyline fill="none" stroke="#666666" points="121.5,-351.5 256.5,-351.5"/>
<text text-anchor="start" x="129.5" y="-339.5" font-family="Helvetica,sans-Serif" font-size="10.00">+ MessageFormatter()</text>
<text text-anchor="start" x="129.5" y="-328.5" font-family="Helvetica,sans-Serif" font-size="10.00">+ ~MessageFormatter()</text>
<text text-anchor="start" x="129.5" y="-317.5" font-family="Helvetica,sans-Serif" font-size="10.00">+ formatMessage()</text>
</a>
</g>
</g>
<!-- Node7&#45;&gt;Node2 -->
<g id="edge6" class="edge">
<title>Node7&#45;&gt;Node2</title>
<path fill="none" stroke="#404040" d="M170.57,-310.79C165.7,-299.25 160.33,-286.52 155.08,-274.07"/>
<polygon fill="none" stroke="#404040" points="155.11,-274.14 149.09,-270.17 150.44,-263.08 156.46,-267.06 155.11,-274.14"/>
<text text-anchor="middle" x="193" y="-284" font-family="Helvetica,sans-Serif" font-size="10.00"> #_formatter</text>
</g>
</g>
</svg>
        <g id="navigator" transform="translate(0 0)" fill="#404254">
                <rect fill="#f2f5e9" fill-opacity="0.5" stroke="#606060" stroke-width=".5" x="0" y="0" width="60" height="60"/>
                <use id="zoomplus" xlink:href="#zoomPlus" x="17" y="9" onmousedown="handleZoom(evt,'in')"/>
                <use id="zoomminus" xlink:href="#zoomMin" x="42" y="9" onmousedown="handleZoom(evt,'out')"/>
                <use id="reset" xlink:href="#resetDef" x="30" y="36" onmousedown="handleReset()"/>
                <g id="arrowUp" xlink:href="#dirArrow" transform="translate(30 24)" onmousedown="handlePan(0,-1)">
                  <use xlink:href="#rim" fill="#404040">
                        <set attributeName="fill" to="#808080" begin="arrowUp.mouseover" end="arrowUp.mouseout"/>
                  </use>
                  <path fill="none" stroke="white" stroke-width="1.5" d="M0,-3.0v7 M-2.5,-0.5L0,-3.0L2.5,-0.5"/>
                </g>
                <g id="arrowRight" xlink:href="#dirArrow" transform="rotate(90) translate(36 -43)" onmousedown="handlePan(1,0)">
                  <use xlink:href="#rim" fill="#404040">
                        <set attributeName="fill" to="#808080" begin="arrowRight.mouseover" end="arrowRight.mouseout"/>
                  </use>
                  <path fill="none" stroke="white" stroke-width="1.5" d="M0,-3.0v7 M-2.5,-0.5L0,-3.0L2.5,-0.5"/>
                </g>
                <g id="arrowDown" xlink:href="#dirArrow" transform="rotate(180) translate(-30 -48)" onmousedown="handlePan(0,1)">
                  <use xlink:href="#rim" fill="#404040">
                        <set attributeName="fill" to="#808080" begin="arrowDown.mouseover" end="arrowDown.mouseout"/>
                  </use>
                  <path fill="none" stroke="white" stroke-width="1.5" d="M0,-3.0v7 M-2.5,-0.5L0,-3.0L2.5,-0.5"/>
                </g>
                <g id="arrowLeft" xlink:href="#dirArrow" transform="rotate(270) translate(-36 17)" onmousedown="handlePan(-1,0)">
                  <use xlink:href="#rim" fill="#404040">
                        <set attributeName="fill" to="#808080" begin="arrowLeft.mouseover" end="arrowLeft.mouseout"/>
                  </use>
                  <path fill="none" stroke="white" stroke-width="1.5" d="M0,-3.0v7 M-2.5,-0.5L0,-3.0L2.5,-0.5"/>
                </g>
        </g>
        <svg viewBox="0 0 15 15" width="100%" height="30px" preserveAspectRatio="xMaxYMin meet">
         <g id="arrow_out" transform="scale(0.3 0.3)">
          <a xlink:href="classanch_1_1logger_1_1_low_priority_writer__coll__graph_org.svg" target="_base">
           <rect id="button" ry="5" rx="5" y="6" x="6" height="38" width="38"
                fill="#f2f5e9" fill-opacity="0.5" stroke="#606060" stroke-width="1.0"/>
           <path id="arrow"
             d="M 11.500037,31.436501 C 11.940474,20.09759 22.043105,11.32322 32.158766,21.979434 L 37.068811,17.246167 C 37.068811,17.246167 37.088388,32 37.088388,32 L 22.160133,31.978069 C 22.160133,31.978069 26.997745,27.140456 26.997745,27.140456 C 18.528582,18.264221 13.291696,25.230495 11.500037,31.436501 z"
             style="fill:#404040;"/>
          </a>
         </g>
        </svg>
</svg>
