<?xml version="1.0" encoding="UTF-8" standalone="no"?>
<!DOCTYPE svg PUBLIC "-//W3C//DTD SVG 1.1//EN"
 "http://www.w3.org/Graphics/SVG/1.1/DTD/svg11.dtd">
<!-- Generated by graphviz version 10.0.1 (0)
 -->
<!-- Title: anch::crypto::BlockCipherModeOfOperation&lt; Derived, Cipher &gt; Pages: 1 -->
<svg width="188pt" height="198pt"
 viewBox="0.00 0.00 188.00 198.00" xmlns="http://www.w3.org/2000/svg" xmlns:xlink="http://www.w3.org/1999/xlink">
<g id="graph0" class="graph" transform="scale(1 1) rotate(0) translate(4 194)">
<title>anch::crypto::BlockCipherModeOfOperation&lt; Derived, Cipher &gt;</title>
<!-- Node1 -->
<g id="Node000001" class="node">
<title>Node1</title>
<g id="a_Node000001"><a xlink:title="Block cipher mode of operation interface.">
<polygon fill="#999999" stroke="none" points="180,-190 0,-190 0,0 180,0 180,-190"/>
<text text-anchor="start" x="20.62" y="-176.5" font-family="Helvetica,sans-Serif" font-size="10.00">anch::crypto::BlockCipher</text>
<text text-anchor="start" x="20.62" y="-163.75" font-family="Helvetica,sans-Serif" font-size="10.00">ModeOfOperation&lt; Derived,</text>
<text text-anchor="start" x="67.12" y="-151" font-family="Helvetica,sans-Serif" font-size="10.00"> Cipher &gt;</text>
<text text-anchor="start" x="88.5" y="-134.5" font-family="Helvetica,sans-Serif" font-size="10.00"> </text>
<text text-anchor="start" x="3.88" y="-118.5" font-family="Helvetica,sans-Serif" font-size="10.00">+</text>
<text text-anchor="start" x="16" y="-118.5" font-family="Helvetica,sans-Serif" font-size="10.00">cipher()</text>
<text text-anchor="start" x="3.88" y="-102.5" font-family="Helvetica,sans-Serif" font-size="10.00">+</text>
<text text-anchor="start" x="16" y="-102.5" font-family="Helvetica,sans-Serif" font-size="10.00">decipher()</text>
<text text-anchor="start" x="3.88" y="-86.5" font-family="Helvetica,sans-Serif" font-size="10.00">+</text>
<text text-anchor="start" x="16" y="-86.5" font-family="Helvetica,sans-Serif" font-size="10.00">setNbThread()</text>
<text text-anchor="start" x="3.88" y="-70.5" font-family="Helvetica,sans-Serif" font-size="10.00">#</text>
<text text-anchor="start" x="16" y="-70.5" font-family="Helvetica,sans-Serif" font-size="10.00">BlockCipherModeOfOperation()</text>
<text text-anchor="start" x="3.88" y="-54.5" font-family="Helvetica,sans-Serif" font-size="10.00">#</text>
<text text-anchor="start" x="16" y="-54.5" font-family="Helvetica,sans-Serif" font-size="10.00">~BlockCipherModeOfOperation()</text>
<text text-anchor="start" x="3.88" y="-38.5" font-family="Helvetica,sans-Serif" font-size="10.00">#</text>
<text text-anchor="start" x="16" y="-38.5" font-family="Helvetica,sans-Serif" font-size="10.00">cipherBlock()</text>
<text text-anchor="start" x="3.88" y="-22.5" font-family="Helvetica,sans-Serif" font-size="10.00">#</text>
<text text-anchor="start" x="16" y="-22.5" font-family="Helvetica,sans-Serif" font-size="10.00">decipherBlock()</text>
<text text-anchor="start" x="3.88" y="-6.5" font-family="Helvetica,sans-Serif" font-size="10.00">#</text>
<text text-anchor="start" x="16" y="-6.5" font-family="Helvetica,sans-Serif" font-size="10.00">reset()</text>
<polygon fill="#666666" stroke="#666666" points="0,-146 0,-146 180,-146 180,-146 0,-146"/>
<polygon fill="#666666" stroke="#666666" points="0,-130 0,-130 180,-130 180,-130 0,-130"/>
<polygon fill="none" stroke="#666666" points="0,0 0,-190 180,-190 180,0 0,0"/>
</a>
</g>
</g>
</g>
</svg>
