<?xml version="1.0" encoding="UTF-8" standalone="no"?>
<!DOCTYPE svg PUBLIC "-//W3C//DTD SVG 1.1//EN"
 "http://www.w3.org/Graphics/SVG/1.1/DTD/svg11.dtd">
<!-- Generated by graphviz version 13.1.0 (0)
 -->
<!-- Title: anch::json::GenericMapper&lt; M, T &gt; Pages: 1 -->
<svg width="322pt" height="631pt"
 viewBox="0.00 0.00 322.00 631.00" xmlns="http://www.w3.org/2000/svg" xmlns:xlink="http://www.w3.org/1999/xlink">
<g id="graph0" class="graph" transform="scale(1 1) rotate(0) translate(4 627)">
<title>anch::json::GenericMapper&lt; M, T &gt;</title>
<!-- Node1 -->
<g id="Node000001" class="node">
<title>Node1</title>
<g id="a_Node000001"><a xlink:title="Generic mapper.">
<polygon fill="#999999" stroke="none" points="212,-623 87,-623 87,-415 212,-415 212,-623"/>
<text xml:space="preserve" text-anchor="start" x="91" y="-609.5" font-family="Helvetica,sans-Serif" font-size="10.00">anch::json::GenericMapper</text>
<text xml:space="preserve" text-anchor="start" x="130.75" y="-597.5" font-family="Helvetica,sans-Serif" font-size="10.00">&lt; M, T &gt;</text>
<text xml:space="preserve" text-anchor="start" x="148" y="-581.5" font-family="Helvetica,sans-Serif" font-size="10.00"> </text>
<text xml:space="preserve" text-anchor="start" x="98.25" y="-565.5" font-family="Helvetica,sans-Serif" font-size="10.00">+</text>
<text xml:space="preserve" text-anchor="start" x="115.5" y="-565.5" font-family="Helvetica,sans-Serif" font-size="10.00">GenericMapper()</text>
<text xml:space="preserve" text-anchor="start" x="98.25" y="-549.5" font-family="Helvetica,sans-Serif" font-size="10.00">+</text>
<text xml:space="preserve" text-anchor="start" x="115.5" y="-549.5" font-family="Helvetica,sans-Serif" font-size="10.00">GenericMapper()</text>
<text xml:space="preserve" text-anchor="start" x="98.25" y="-533.5" font-family="Helvetica,sans-Serif" font-size="10.00">+</text>
<text xml:space="preserve" text-anchor="start" x="115.5" y="-533.5" font-family="Helvetica,sans-Serif" font-size="10.00">deserialize()</text>
<text xml:space="preserve" text-anchor="start" x="98.25" y="-517.5" font-family="Helvetica,sans-Serif" font-size="10.00">+</text>
<text xml:space="preserve" text-anchor="start" x="115.5" y="-517.5" font-family="Helvetica,sans-Serif" font-size="10.00">deserialize()</text>
<text xml:space="preserve" text-anchor="start" x="98.25" y="-501.5" font-family="Helvetica,sans-Serif" font-size="10.00">+</text>
<text xml:space="preserve" text-anchor="start" x="115.5" y="-501.5" font-family="Helvetica,sans-Serif" font-size="10.00">deserialize()</text>
<text xml:space="preserve" text-anchor="start" x="98.25" y="-485.5" font-family="Helvetica,sans-Serif" font-size="10.00">+</text>
<text xml:space="preserve" text-anchor="start" x="115.5" y="-485.5" font-family="Helvetica,sans-Serif" font-size="10.00">deserialize()</text>
<text xml:space="preserve" text-anchor="start" x="98.25" y="-469.5" font-family="Helvetica,sans-Serif" font-size="10.00">+</text>
<text xml:space="preserve" text-anchor="start" x="115.5" y="-469.5" font-family="Helvetica,sans-Serif" font-size="10.00">deserialize()</text>
<text xml:space="preserve" text-anchor="start" x="98.25" y="-453.5" font-family="Helvetica,sans-Serif" font-size="10.00">+</text>
<text xml:space="preserve" text-anchor="start" x="115.5" y="-453.5" font-family="Helvetica,sans-Serif" font-size="10.00">deserialize()</text>
<text xml:space="preserve" text-anchor="start" x="98.62" y="-437.5" font-family="Helvetica,sans-Serif" font-size="10.00">#</text>
<text xml:space="preserve" text-anchor="start" x="115.5" y="-437.5" font-family="Helvetica,sans-Serif" font-size="10.00">GenericMapper()</text>
<text xml:space="preserve" text-anchor="start" x="98.62" y="-421.5" font-family="Helvetica,sans-Serif" font-size="10.00">#</text>
<text xml:space="preserve" text-anchor="start" x="115.5" y="-421.5" font-family="Helvetica,sans-Serif" font-size="10.00">~GenericMapper()</text>
<polygon fill="#666666" stroke="#666666" points="87,-593 87,-593 212,-593 212,-593 87,-593"/>
<polygon fill="#666666" stroke="#666666" points="87,-577 87,-577 212,-577 212,-577 87,-577"/>
<polygon fill="none" stroke="#666666" points="87,-415 87,-623 212,-623 212,-415 87,-415"/>
</a>
</g>
</g>
<!-- Node2 -->
<g id="Node000002" class="node">
<title>Node2</title>
<g id="a_Node000002"><a xlink:href="classanch_1_1json_1_1_generic_mapper.html" target="_top" xlink:title=" ">
<polygon fill="white" stroke="none" points="139,-345 14,-345 14,-249 139,-249 139,-345"/>
<text xml:space="preserve" text-anchor="start" x="18" y="-331.5" font-family="Helvetica,sans-Serif" font-size="10.00">anch::json::GenericMapper</text>
<text xml:space="preserve" text-anchor="start" x="19.88" y="-319.5" font-family="Helvetica,sans-Serif" font-size="10.00">&lt; ObjectMapper&lt; T &gt;, T &gt;</text>
<text xml:space="preserve" text-anchor="start" x="75" y="-303.5" font-family="Helvetica,sans-Serif" font-size="10.00"> </text>
<text xml:space="preserve" text-anchor="start" x="25.25" y="-287.5" font-family="Helvetica,sans-Serif" font-size="10.00">+</text>
<text xml:space="preserve" text-anchor="start" x="42.5" y="-287.5" font-family="Helvetica,sans-Serif" font-size="10.00">deserialize()</text>
<text xml:space="preserve" text-anchor="start" x="25.62" y="-271.5" font-family="Helvetica,sans-Serif" font-size="10.00">#</text>
<text xml:space="preserve" text-anchor="start" x="42.5" y="-271.5" font-family="Helvetica,sans-Serif" font-size="10.00">GenericMapper()</text>
<text xml:space="preserve" text-anchor="start" x="25.62" y="-255.5" font-family="Helvetica,sans-Serif" font-size="10.00">#</text>
<text xml:space="preserve" text-anchor="start" x="42.5" y="-255.5" font-family="Helvetica,sans-Serif" font-size="10.00">~GenericMapper()</text>
<polygon fill="#666666" stroke="#666666" points="14,-315 14,-315 139,-315 139,-315 14,-315"/>
<polygon fill="#666666" stroke="#666666" points="14,-299 14,-299 139,-299 139,-299 14,-299"/>
<polygon fill="none" stroke="#666666" points="14,-249 14,-345 139,-345 139,-249 14,-249"/>
</a>
</g>
</g>
<!-- Node1&#45;&gt;Node2 -->
<g id="edge1_Node000001_Node000002" class="edge">
<title>Node1&#45;&gt;Node2</title>
<g id="a_edge1_Node000001_Node000002"><a xlink:title=" ">
<path fill="none" stroke="orange" d="M98.01,-404.68C97.14,-402.11 96.3,-399.55 95.5,-397 90.25,-380.3 86.2,-361.55 83.22,-344.88"/>
<polygon fill="orange" stroke="orange" points="94.63,-405.63 101.27,-413.89 101.23,-403.29 94.63,-405.63"/>
</a>
</g>
<text xml:space="preserve" text-anchor="start" x="98.5" y="-384.5" font-family="Helvetica,sans-Serif" font-size="10.00" fill="grey">&lt; ObjectMapper&lt; T &gt;</text>
<text xml:space="preserve" text-anchor="start" x="98.5" y="-368.5" font-family="Helvetica,sans-Serif" font-size="10.00" fill="grey">  , T &gt;</text>
</g>
<!-- Node4 -->
<g id="Node000004" class="node">
<title>Node4</title>
<g id="a_Node000004"><a xlink:href="classanch_1_1json_1_1_generic_mapper.html" target="_top" xlink:title=" ">
<polygon fill="white" stroke="none" points="298,-345 167,-345 167,-249 298,-249 298,-345"/>
<text xml:space="preserve" text-anchor="start" x="171" y="-331.5" font-family="Helvetica,sans-Serif" font-size="10.00">anch::json::GenericMapper</text>
<text xml:space="preserve" text-anchor="start" x="171" y="-319.5" font-family="Helvetica,sans-Serif" font-size="10.00">&lt; PrimitiveMapper&lt; T &gt;, T &gt;</text>
<text xml:space="preserve" text-anchor="start" x="231" y="-303.5" font-family="Helvetica,sans-Serif" font-size="10.00"> </text>
<text xml:space="preserve" text-anchor="start" x="179.75" y="-287.5" font-family="Helvetica,sans-Serif" font-size="10.00">+</text>
<text xml:space="preserve" text-anchor="start" x="198.5" y="-287.5" font-family="Helvetica,sans-Serif" font-size="10.00">deserialize()</text>
<text xml:space="preserve" text-anchor="start" x="180.12" y="-271.5" font-family="Helvetica,sans-Serif" font-size="10.00">#</text>
<text xml:space="preserve" text-anchor="start" x="198.5" y="-271.5" font-family="Helvetica,sans-Serif" font-size="10.00">GenericMapper()</text>
<text xml:space="preserve" text-anchor="start" x="180.12" y="-255.5" font-family="Helvetica,sans-Serif" font-size="10.00">#</text>
<text xml:space="preserve" text-anchor="start" x="198.5" y="-255.5" font-family="Helvetica,sans-Serif" font-size="10.00">~GenericMapper()</text>
<polygon fill="#666666" stroke="#666666" points="167,-315 167,-315 298,-315 298,-315 167,-315"/>
<polygon fill="#666666" stroke="#666666" points="167,-299 167,-299 298,-299 298,-299 167,-299"/>
<polygon fill="none" stroke="#666666" points="167,-249 167,-345 298,-345 298,-249 167,-249"/>
</a>
</g>
</g>
<!-- Node1&#45;&gt;Node4 -->
<g id="edge3_Node000001_Node000004" class="edge">
<title>Node1&#45;&gt;Node4</title>
<g id="a_edge3_Node000001_Node000004"><a xlink:title=" ">
<path fill="none" stroke="orange" d="M192.36,-404.4C200.31,-383.33 208.19,-362.43 214.84,-344.8"/>
<polygon fill="orange" stroke="orange" points="189.12,-403.08 188.86,-413.67 195.67,-405.55 189.12,-403.08"/>
</a>
</g>
<text xml:space="preserve" text-anchor="start" x="210.97" y="-384.5" font-family="Helvetica,sans-Serif" font-size="10.00" fill="grey">&lt; PrimitiveMapper&lt;</text>
<text xml:space="preserve" text-anchor="start" x="210.97" y="-368.5" font-family="Helvetica,sans-Serif" font-size="10.00" fill="grey">   T &gt;, T &gt;</text>
</g>
<!-- Node3 -->
<g id="Node000003" class="node">
<title>Node3</title>
<g id="a_Node000003"><a xlink:href="classanch_1_1json_1_1_object_mapper.html" target="_top" xlink:title="JSON complex object mapper.">
<polygon fill="white" stroke="none" points="143,-212 0,-212 0,0 143,0 143,-212"/>
<text xml:space="preserve" text-anchor="start" x="4" y="-198.5" font-family="Helvetica,sans-Serif" font-size="10.00">anch::json::ObjectMapper&lt; T &gt;</text>
<text xml:space="preserve" text-anchor="start" x="70" y="-182.5" font-family="Helvetica,sans-Serif" font-size="10.00"> </text>
<text xml:space="preserve" text-anchor="start" x="18.56" y="-166.5" font-family="Helvetica,sans-Serif" font-size="10.00">+</text>
<text xml:space="preserve" text-anchor="start" x="43.12" y="-166.5" font-family="Helvetica,sans-Serif" font-size="10.00">ObjectMapper()</text>
<text xml:space="preserve" text-anchor="start" x="18.56" y="-150.5" font-family="Helvetica,sans-Serif" font-size="10.00">+</text>
<text xml:space="preserve" text-anchor="start" x="43.12" y="-150.5" font-family="Helvetica,sans-Serif" font-size="10.00">ObjectMapper()</text>
<text xml:space="preserve" text-anchor="start" x="18.56" y="-134.5" font-family="Helvetica,sans-Serif" font-size="10.00">+</text>
<text xml:space="preserve" text-anchor="start" x="43.12" y="-134.5" font-family="Helvetica,sans-Serif" font-size="10.00">generic()</text>
<text xml:space="preserve" text-anchor="start" x="18.56" y="-118.5" font-family="Helvetica,sans-Serif" font-size="10.00">+</text>
<text xml:space="preserve" text-anchor="start" x="43.12" y="-118.5" font-family="Helvetica,sans-Serif" font-size="10.00">serialize()</text>
<text xml:space="preserve" text-anchor="start" x="18.56" y="-102.5" font-family="Helvetica,sans-Serif" font-size="10.00">+</text>
<text xml:space="preserve" text-anchor="start" x="43.12" y="-102.5" font-family="Helvetica,sans-Serif" font-size="10.00">serialize()</text>
<text xml:space="preserve" text-anchor="start" x="18.56" y="-86.5" font-family="Helvetica,sans-Serif" font-size="10.00">+</text>
<text xml:space="preserve" text-anchor="start" x="43.12" y="-86.5" font-family="Helvetica,sans-Serif" font-size="10.00">serialize()</text>
<text xml:space="preserve" text-anchor="start" x="18.56" y="-70.5" font-family="Helvetica,sans-Serif" font-size="10.00">+</text>
<text xml:space="preserve" text-anchor="start" x="43.12" y="-70.5" font-family="Helvetica,sans-Serif" font-size="10.00">serialize()</text>
<text xml:space="preserve" text-anchor="start" x="18.56" y="-54.5" font-family="Helvetica,sans-Serif" font-size="10.00">+</text>
<text xml:space="preserve" text-anchor="start" x="43.12" y="-54.5" font-family="Helvetica,sans-Serif" font-size="10.00">serialize()</text>
<text xml:space="preserve" text-anchor="start" x="18.56" y="-38.5" font-family="Helvetica,sans-Serif" font-size="10.00">+</text>
<text xml:space="preserve" text-anchor="start" x="43.12" y="-38.5" font-family="Helvetica,sans-Serif" font-size="10.00">serialize()</text>
<text xml:space="preserve" text-anchor="start" x="18.56" y="-22.5" font-family="Helvetica,sans-Serif" font-size="10.00">+</text>
<text xml:space="preserve" text-anchor="start" x="43.12" y="-22.5" font-family="Helvetica,sans-Serif" font-size="10.00">serialize()</text>
<text xml:space="preserve" text-anchor="start" x="18.56" y="-6.5" font-family="Helvetica,sans-Serif" font-size="10.00">+</text>
<text xml:space="preserve" text-anchor="start" x="43.12" y="-6.5" font-family="Helvetica,sans-Serif" font-size="10.00">deserialize()</text>
<polygon fill="#666666" stroke="#666666" points="0,-194 0,-194 143,-194 143,-194 0,-194"/>
<polygon fill="#666666" stroke="#666666" points="0,-178 0,-178 143,-178 143,-178 0,-178"/>
<polygon fill="none" stroke="#666666" points="0,0 0,-212 143,-212 143,0 0,0"/>
</a>
</g>
</g>
<!-- Node2&#45;&gt;Node3 -->
<g id="edge2_Node000002_Node000003" class="edge">
<title>Node2&#45;&gt;Node3</title>
<g id="a_edge2_Node000002_Node000003"><a xlink:title=" ">
<path fill="none" stroke="#63b8ff" d="M74.96,-237.78C74.74,-229.41 74.51,-220.59 74.27,-211.65"/>
<polygon fill="none" stroke="#63b8ff" points="71.46,-237.86 75.22,-247.77 78.46,-237.68 71.46,-237.86"/>
</a>
</g>
</g>
<!-- Node5 -->
<g id="Node000005" class="node">
<title>Node5</title>
<g id="a_Node000005"><a xlink:href="classanch_1_1json_1_1_primitive_mapper.html" target="_top" xlink:title="JSON primitive types mapper.">
<polygon fill="white" stroke="none" points="313.88,-212 161.12,-212 161.12,0 313.88,0 313.88,-212"/>
<text xml:space="preserve" text-anchor="start" x="165.12" y="-198.5" font-family="Helvetica,sans-Serif" font-size="10.00">anch::json::PrimitiveMapper&lt; T &gt;</text>
<text xml:space="preserve" text-anchor="start" x="236" y="-182.5" font-family="Helvetica,sans-Serif" font-size="10.00"> </text>
<text xml:space="preserve" text-anchor="start" x="179.69" y="-166.5" font-family="Helvetica,sans-Serif" font-size="10.00">+</text>
<text xml:space="preserve" text-anchor="start" x="204.25" y="-166.5" font-family="Helvetica,sans-Serif" font-size="10.00">PrimitiveMapper()</text>
<text xml:space="preserve" text-anchor="start" x="179.69" y="-150.5" font-family="Helvetica,sans-Serif" font-size="10.00">+</text>
<text xml:space="preserve" text-anchor="start" x="204.25" y="-150.5" font-family="Helvetica,sans-Serif" font-size="10.00">PrimitiveMapper()</text>
<text xml:space="preserve" text-anchor="start" x="179.69" y="-134.5" font-family="Helvetica,sans-Serif" font-size="10.00">+</text>
<text xml:space="preserve" text-anchor="start" x="204.25" y="-134.5" font-family="Helvetica,sans-Serif" font-size="10.00">generic()</text>
<text xml:space="preserve" text-anchor="start" x="179.69" y="-118.5" font-family="Helvetica,sans-Serif" font-size="10.00">+</text>
<text xml:space="preserve" text-anchor="start" x="204.25" y="-118.5" font-family="Helvetica,sans-Serif" font-size="10.00">serialize()</text>
<text xml:space="preserve" text-anchor="start" x="179.69" y="-102.5" font-family="Helvetica,sans-Serif" font-size="10.00">+</text>
<text xml:space="preserve" text-anchor="start" x="204.25" y="-102.5" font-family="Helvetica,sans-Serif" font-size="10.00">serialize()</text>
<text xml:space="preserve" text-anchor="start" x="179.69" y="-86.5" font-family="Helvetica,sans-Serif" font-size="10.00">+</text>
<text xml:space="preserve" text-anchor="start" x="204.25" y="-86.5" font-family="Helvetica,sans-Serif" font-size="10.00">serialize()</text>
<text xml:space="preserve" text-anchor="start" x="179.69" y="-70.5" font-family="Helvetica,sans-Serif" font-size="10.00">+</text>
<text xml:space="preserve" text-anchor="start" x="204.25" y="-70.5" font-family="Helvetica,sans-Serif" font-size="10.00">serialize()</text>
<text xml:space="preserve" text-anchor="start" x="179.69" y="-54.5" font-family="Helvetica,sans-Serif" font-size="10.00">+</text>
<text xml:space="preserve" text-anchor="start" x="204.25" y="-54.5" font-family="Helvetica,sans-Serif" font-size="10.00">serialize()</text>
<text xml:space="preserve" text-anchor="start" x="179.69" y="-38.5" font-family="Helvetica,sans-Serif" font-size="10.00">+</text>
<text xml:space="preserve" text-anchor="start" x="204.25" y="-38.5" font-family="Helvetica,sans-Serif" font-size="10.00">serialize()</text>
<text xml:space="preserve" text-anchor="start" x="179.69" y="-22.5" font-family="Helvetica,sans-Serif" font-size="10.00">+</text>
<text xml:space="preserve" text-anchor="start" x="204.25" y="-22.5" font-family="Helvetica,sans-Serif" font-size="10.00">serialize()</text>
<text xml:space="preserve" text-anchor="start" x="179.69" y="-6.5" font-family="Helvetica,sans-Serif" font-size="10.00">+</text>
<text xml:space="preserve" text-anchor="start" x="204.25" y="-6.5" font-family="Helvetica,sans-Serif" font-size="10.00">deserialize()</text>
<polygon fill="#666666" stroke="#666666" points="161.12,-194 161.12,-194 313.88,-194 313.88,-194 161.12,-194"/>
<polygon fill="#666666" stroke="#666666" points="161.12,-178 161.12,-178 313.88,-178 313.88,-178 161.12,-178"/>
<polygon fill="none" stroke="#666666" points="161.12,0 161.12,-212 313.88,-212 313.88,0 161.12,0"/>
</a>
</g>
</g>
<!-- Node4&#45;&gt;Node5 -->
<g id="edge4_Node000004_Node000005" class="edge">
<title>Node4&#45;&gt;Node5</title>
<g id="a_edge4_Node000004_Node000005"><a xlink:title=" ">
<path fill="none" stroke="#63b8ff" d="M234.04,-237.78C234.26,-229.41 234.49,-220.59 234.73,-211.65"/>
<polygon fill="none" stroke="#63b8ff" points="230.54,-237.68 233.78,-247.77 237.54,-237.86 230.54,-237.68"/>
</a>
</g>
</g>
</g>
</svg>
