<?xml version="1.0" encoding="UTF-8" standalone="no"?>
<!DOCTYPE svg PUBLIC "-//W3C//DTD SVG 1.1//EN"
 "http://www.w3.org/Graphics/SVG/1.1/DTD/svg11.dtd">
<!-- Generated by graphviz version 2.40.1 (20161225.0304)
 -->
<!-- Title: anch::crypto::SHA2&lt; O, B, W, R, I &gt; Pages: 1 -->
<svg width="290pt" height="669pt"
 viewBox="0.00 0.00 289.50 669.00" xmlns="http://www.w3.org/2000/svg" xmlns:xlink="http://www.w3.org/1999/xlink">
<g id="graph0" class="graph" transform="scale(1 1) rotate(0) translate(4 665)">
<title>anch::crypto::SHA2&lt; O, B, W, R, I &gt;</title>
<!-- Node0 -->
<g id="node1" class="node">
<title>Node0</title>
<polygon fill="#bfbfbf" stroke="#000000" points="84,-332.5 84,-455.5 193,-455.5 193,-332.5 84,-332.5"/>
<text text-anchor="start" x="92" y="-443.5" font-family="Helvetica,sans-Serif" font-size="10.00" fill="#000000">anch::crypto::SHA2</text>
<text text-anchor="middle" x="138.5" y="-432.5" font-family="Helvetica,sans-Serif" font-size="10.00" fill="#000000">&lt; O, B, W, R, I &gt;</text>
<polyline fill="none" stroke="#000000" points="84,-425.5 193,-425.5 "/>
<text text-anchor="middle" x="138.5" y="-413.5" font-family="Helvetica,sans-Serif" font-size="10.00" fill="#000000"> </text>
<polyline fill="none" stroke="#000000" points="84,-406.5 193,-406.5 "/>
<text text-anchor="start" x="92" y="-394.5" font-family="Helvetica,sans-Serif" font-size="10.00" fill="#000000">+ SHA2()</text>
<text text-anchor="start" x="92" y="-383.5" font-family="Helvetica,sans-Serif" font-size="10.00" fill="#000000">+ ~SHA2()</text>
<text text-anchor="start" x="92" y="-372.5" font-family="Helvetica,sans-Serif" font-size="10.00" fill="#000000">+ digest()</text>
<text text-anchor="start" x="92" y="-361.5" font-family="Helvetica,sans-Serif" font-size="10.00" fill="#000000"># shiftRight()</text>
<text text-anchor="start" x="92" y="-350.5" font-family="Helvetica,sans-Serif" font-size="10.00" fill="#000000"># rotateLeft()</text>
<text text-anchor="start" x="92" y="-339.5" font-family="Helvetica,sans-Serif" font-size="10.00" fill="#000000"># rotateRight()</text>
</g>
<!-- Node2 -->
<g id="node3" class="node">
<title>Node2</title>
<g id="a_node3"><a xlink:href="classanch_1_1crypto_1_1_s_h_a2.html" target="_top" xlink:title="{anch::crypto::SHA2\l\&lt; O, 64, uint32_t, 64, I \&gt;\n||+ SHA2()\l+ ~SHA2()\l+ digest()\l# shiftRight()\l# rotateLeft()\l# rotateRight()\l}">
<polygon fill="none" stroke="#000000" points="0,-145 0,-268 137,-268 137,-145 0,-145"/>
<text text-anchor="start" x="8" y="-256" font-family="Helvetica,sans-Serif" font-size="10.00" fill="#000000">anch::crypto::SHA2</text>
<text text-anchor="middle" x="68.5" y="-245" font-family="Helvetica,sans-Serif" font-size="10.00" fill="#000000">&lt; O, 64, uint32_t, 64, I &gt;</text>
<polyline fill="none" stroke="#000000" points="0,-238 137,-238 "/>
<text text-anchor="middle" x="68.5" y="-226" font-family="Helvetica,sans-Serif" font-size="10.00" fill="#000000"> </text>
<polyline fill="none" stroke="#000000" points="0,-219 137,-219 "/>
<text text-anchor="start" x="8" y="-207" font-family="Helvetica,sans-Serif" font-size="10.00" fill="#000000">+ SHA2()</text>
<text text-anchor="start" x="8" y="-196" font-family="Helvetica,sans-Serif" font-size="10.00" fill="#000000">+ ~SHA2()</text>
<text text-anchor="start" x="8" y="-185" font-family="Helvetica,sans-Serif" font-size="10.00" fill="#000000">+ digest()</text>
<text text-anchor="start" x="8" y="-174" font-family="Helvetica,sans-Serif" font-size="10.00" fill="#000000"># shiftRight()</text>
<text text-anchor="start" x="8" y="-163" font-family="Helvetica,sans-Serif" font-size="10.00" fill="#000000"># rotateLeft()</text>
<text text-anchor="start" x="8" y="-152" font-family="Helvetica,sans-Serif" font-size="10.00" fill="#000000"># rotateRight()</text>
</a>
</g>
</g>
<!-- Node0&#45;&gt;Node2 -->
<g id="edge2" class="edge">
<title>Node0&#45;&gt;Node2</title>
<path fill="none" stroke="#ffa500" d="M94.3285,-323.0853C92.9591,-320.0543 91.6749,-317.0189 90.5,-314 84.8691,-299.5313 80.5938,-283.3797 77.3816,-268.0832"/>
<polygon fill="#ffa500" stroke="#ffa500" points="91.1911,-324.6374 98.6679,-332.144 97.5042,-321.6133 91.1911,-324.6374"/>
<text text-anchor="start" x="90.5" y="-306" font-family="Helvetica,sans-Serif" font-size="10.00" fill="#000000"> &lt; O, 64, uint32_t,</text>
<text text-anchor="middle" x="135" y="-295" font-family="Helvetica,sans-Serif" font-size="10.00" fill="#000000"> 64, I &gt;</text>
</g>
<!-- Node4 -->
<g id="node5" class="node">
<title>Node4</title>
<g id="a_node5"><a xlink:href="classanch_1_1crypto_1_1_s_h_a2.html" target="_top" xlink:title="{anch::crypto::SHA2\l\&lt; O, 128, uint64_t,\l 80, I \&gt;\n||+ SHA2()\l+ ~SHA2()\l+ digest()\l# shiftRight()\l# rotateLeft()\l# rotateRight()\l}">
<polygon fill="none" stroke="#000000" points="155,-139.5 155,-273.5 264,-273.5 264,-139.5 155,-139.5"/>
<text text-anchor="start" x="163" y="-261.5" font-family="Helvetica,sans-Serif" font-size="10.00" fill="#000000">anch::crypto::SHA2</text>
<text text-anchor="start" x="163" y="-250.5" font-family="Helvetica,sans-Serif" font-size="10.00" fill="#000000">&lt; O, 128, uint64_t,</text>
<text text-anchor="middle" x="209.5" y="-239.5" font-family="Helvetica,sans-Serif" font-size="10.00" fill="#000000"> 80, I &gt;</text>
<polyline fill="none" stroke="#000000" points="155,-232.5 264,-232.5 "/>
<text text-anchor="middle" x="209.5" y="-220.5" font-family="Helvetica,sans-Serif" font-size="10.00" fill="#000000"> </text>
<polyline fill="none" stroke="#000000" points="155,-213.5 264,-213.5 "/>
<text text-anchor="start" x="163" y="-201.5" font-family="Helvetica,sans-Serif" font-size="10.00" fill="#000000">+ SHA2()</text>
<text text-anchor="start" x="163" y="-190.5" font-family="Helvetica,sans-Serif" font-size="10.00" fill="#000000">+ ~SHA2()</text>
<text text-anchor="start" x="163" y="-179.5" font-family="Helvetica,sans-Serif" font-size="10.00" fill="#000000">+ digest()</text>
<text text-anchor="start" x="163" y="-168.5" font-family="Helvetica,sans-Serif" font-size="10.00" fill="#000000"># shiftRight()</text>
<text text-anchor="start" x="163" y="-157.5" font-family="Helvetica,sans-Serif" font-size="10.00" fill="#000000"># rotateLeft()</text>
<text text-anchor="start" x="163" y="-146.5" font-family="Helvetica,sans-Serif" font-size="10.00" fill="#000000"># rotateRight()</text>
</a>
</g>
</g>
<!-- Node0&#45;&gt;Node4 -->
<g id="edge4" class="edge">
<title>Node0&#45;&gt;Node4</title>
<path fill="none" stroke="#ffa500" d="M175.916,-322.7375C177.1703,-319.8064 178.3709,-316.8864 179.5,-314 184.5116,-301.1881 189.0509,-287.214 192.9945,-273.7078"/>
<polygon fill="#ffa500" stroke="#ffa500" points="172.6142,-321.5486 171.7495,-332.1081 179.0105,-324.3927 172.6142,-321.5486"/>
<text text-anchor="start" x="186.5" y="-306" font-family="Helvetica,sans-Serif" font-size="10.00" fill="#000000"> &lt; O, 128, uint64_t,</text>
<text text-anchor="middle" x="234" y="-295" font-family="Helvetica,sans-Serif" font-size="10.00" fill="#000000"> 80, I &gt;</text>
</g>
<!-- Node1 -->
<g id="node2" class="node">
<title>Node1</title>
<g id="a_node2"><a xlink:href="classanch_1_1crypto_1_1_hash.html" target="_top" xlink:title="Hash algorithm abstract class. ">
<polygon fill="none" stroke="#000000" points="85,-493.5 85,-660.5 192,-660.5 192,-493.5 85,-493.5"/>
<text text-anchor="start" x="93" y="-648.5" font-family="Helvetica,sans-Serif" font-size="10.00" fill="#000000">anch::crypto::Hash</text>
<text text-anchor="middle" x="138.5" y="-637.5" font-family="Helvetica,sans-Serif" font-size="10.00" fill="#000000">&lt; O, B &gt;</text>
<polyline fill="none" stroke="#000000" points="85,-630.5 192,-630.5 "/>
<text text-anchor="middle" x="138.5" y="-618.5" font-family="Helvetica,sans-Serif" font-size="10.00" fill="#000000"> </text>
<polyline fill="none" stroke="#000000" points="85,-611.5 192,-611.5 "/>
<text text-anchor="start" x="93" y="-599.5" font-family="Helvetica,sans-Serif" font-size="10.00" fill="#000000">+ digest()</text>
<text text-anchor="start" x="93" y="-588.5" font-family="Helvetica,sans-Serif" font-size="10.00" fill="#000000">+ digest()</text>
<text text-anchor="start" x="93" y="-577.5" font-family="Helvetica,sans-Serif" font-size="10.00" fill="#000000">+ digest()</text>
<text text-anchor="start" x="93" y="-566.5" font-family="Helvetica,sans-Serif" font-size="10.00" fill="#000000">+ digest()</text>
<text text-anchor="start" x="93" y="-555.5" font-family="Helvetica,sans-Serif" font-size="10.00" fill="#000000">+ digest()</text>
<text text-anchor="start" x="93" y="-544.5" font-family="Helvetica,sans-Serif" font-size="10.00" fill="#000000">+ getOutputSize()</text>
<text text-anchor="start" x="93" y="-533.5" font-family="Helvetica,sans-Serif" font-size="10.00" fill="#000000">+ getBlockSize()</text>
<text text-anchor="start" x="93" y="-522.5" font-family="Helvetica,sans-Serif" font-size="10.00" fill="#000000"># reset()</text>
<text text-anchor="start" x="93" y="-511.5" font-family="Helvetica,sans-Serif" font-size="10.00" fill="#000000"># addData()</text>
<text text-anchor="start" x="93" y="-500.5" font-family="Helvetica,sans-Serif" font-size="10.00" fill="#000000"># finalize()</text>
</a>
</g>
</g>
<!-- Node1&#45;&gt;Node0 -->
<g id="edge1" class="edge">
<title>Node1&#45;&gt;Node0</title>
<path fill="none" stroke="#191970" d="M138.5,-483.117C138.5,-473.7593 138.5,-464.4349 138.5,-455.5355"/>
<polygon fill="none" stroke="#191970" points="135.0001,-483.2656 138.5,-493.2656 142.0001,-483.2656 135.0001,-483.2656"/>
</g>
<!-- Node3 -->
<g id="node4" class="node">
<title>Node3</title>
<g id="a_node4"><a xlink:href="classanch_1_1crypto_1_1_s_h_a224__256.html" target="_top" xlink:title="SHA2 224/256 implementation. ">
<polygon fill="none" stroke="#000000" points="8,-.5 8,-101.5 129,-101.5 129,-.5 8,-.5"/>
<text text-anchor="start" x="16" y="-89.5" font-family="Helvetica,sans-Serif" font-size="10.00" fill="#000000">anch::crypto::SHA224</text>
<text text-anchor="middle" x="68.5" y="-78.5" font-family="Helvetica,sans-Serif" font-size="10.00" fill="#000000">_256&lt; O, I &gt;</text>
<polyline fill="none" stroke="#000000" points="8,-71.5 129,-71.5 "/>
<text text-anchor="middle" x="68.5" y="-59.5" font-family="Helvetica,sans-Serif" font-size="10.00" fill="#000000"> </text>
<polyline fill="none" stroke="#000000" points="8,-52.5 129,-52.5 "/>
<text text-anchor="start" x="16" y="-40.5" font-family="Helvetica,sans-Serif" font-size="10.00" fill="#000000">+ SHA224_256()</text>
<text text-anchor="start" x="16" y="-29.5" font-family="Helvetica,sans-Serif" font-size="10.00" fill="#000000">+ SHA224_256()</text>
<text text-anchor="start" x="16" y="-18.5" font-family="Helvetica,sans-Serif" font-size="10.00" fill="#000000">+ SHA224_256()</text>
<text text-anchor="start" x="16" y="-7.5" font-family="Helvetica,sans-Serif" font-size="10.00" fill="#000000">+ ~SHA224_256()</text>
</a>
</g>
</g>
<!-- Node2&#45;&gt;Node3 -->
<g id="edge3" class="edge">
<title>Node2&#45;&gt;Node3</title>
<path fill="none" stroke="#191970" d="M68.5,-134.495C68.5,-123.4205 68.5,-112.1898 68.5,-101.7081"/>
<polygon fill="none" stroke="#191970" points="65.0001,-134.5954 68.5,-144.5955 72.0001,-134.5955 65.0001,-134.5954"/>
</g>
<!-- Node5 -->
<g id="node6" class="node">
<title>Node5</title>
<g id="a_node6"><a xlink:href="classanch_1_1crypto_1_1_s_h_a384__512.html" target="_top" xlink:title="SHA2 384/512 implementation. ">
<polygon fill="none" stroke="#000000" points="149,-.5 149,-101.5 270,-101.5 270,-.5 149,-.5"/>
<text text-anchor="start" x="157" y="-89.5" font-family="Helvetica,sans-Serif" font-size="10.00" fill="#000000">anch::crypto::SHA384</text>
<text text-anchor="middle" x="209.5" y="-78.5" font-family="Helvetica,sans-Serif" font-size="10.00" fill="#000000">_512&lt; O, I &gt;</text>
<polyline fill="none" stroke="#000000" points="149,-71.5 270,-71.5 "/>
<text text-anchor="middle" x="209.5" y="-59.5" font-family="Helvetica,sans-Serif" font-size="10.00" fill="#000000"> </text>
<polyline fill="none" stroke="#000000" points="149,-52.5 270,-52.5 "/>
<text text-anchor="start" x="157" y="-40.5" font-family="Helvetica,sans-Serif" font-size="10.00" fill="#000000">+ SHA384_512()</text>
<text text-anchor="start" x="157" y="-29.5" font-family="Helvetica,sans-Serif" font-size="10.00" fill="#000000">+ SHA384_512()</text>
<text text-anchor="start" x="157" y="-18.5" font-family="Helvetica,sans-Serif" font-size="10.00" fill="#000000">+ SHA384_512()</text>
<text text-anchor="start" x="157" y="-7.5" font-family="Helvetica,sans-Serif" font-size="10.00" fill="#000000">+ ~SHA384_512()</text>
</a>
</g>
</g>
<!-- Node4&#45;&gt;Node5 -->
<g id="edge5" class="edge">
<title>Node4&#45;&gt;Node5</title>
<path fill="none" stroke="#191970" d="M209.5,-129.0731C209.5,-119.7148 209.5,-110.3502 209.5,-101.5216"/>
<polygon fill="none" stroke="#191970" points="206.0001,-129.1998 209.5,-139.1998 213.0001,-129.1999 206.0001,-129.1998"/>
</g>
</g>
</svg>
