<?xml version="1.0" encoding="UTF-8" standalone="no"?>
<!DOCTYPE svg PUBLIC "-//W3C//DTD SVG 1.1//EN"
 "http://www.w3.org/Graphics/SVG/1.1/DTD/svg11.dtd">
<!-- Generated by graphviz version 14.0.4 (0)
 -->
<!-- Title: anch::crypto::Hash&lt; O, B &gt; Pages: 1 -->
<svg width="323pt" height="615pt"
 viewBox="0.00 0.00 323.00 615.00" xmlns="http://www.w3.org/2000/svg" xmlns:xlink="http://www.w3.org/1999/xlink">
<g id="graph0" class="graph" transform="scale(1 1) rotate(0) translate(4 611)">
<title>anch::crypto::Hash&lt; O, B &gt;</title>
<!-- Node1 -->
<g id="Node000001" class="node">
<title>Node1</title>
<g id="a_Node000001"><a xlink:title="Hash algorithm abstract class.">
<polygon fill="#999999" stroke="none" points="203.75,-607 112.5,-607 112.5,-399 203.75,-399 203.75,-607"/>
<text xml:space="preserve" text-anchor="start" x="116.5" y="-593.5" font-family="Helvetica,sans-Serif" font-size="10.00">anch::crypto::Hash</text>
<text xml:space="preserve" text-anchor="start" x="139" y="-581.5" font-family="Helvetica,sans-Serif" font-size="10.00">&lt; O, B &gt;</text>
<text xml:space="preserve" text-anchor="start" x="118.12" y="-565.5" font-family="Helvetica,sans-Serif" font-size="10.00">#</text>
<text xml:space="preserve" text-anchor="start" x="129" y="-565.5" font-family="Helvetica,sans-Serif" font-size="10.00">_digest</text>
<text xml:space="preserve" text-anchor="start" x="117.75" y="-549.5" font-family="Helvetica,sans-Serif" font-size="10.00">+</text>
<text xml:space="preserve" text-anchor="start" x="129" y="-549.5" font-family="Helvetica,sans-Serif" font-size="10.00">digest()</text>
<text xml:space="preserve" text-anchor="start" x="117.75" y="-533.5" font-family="Helvetica,sans-Serif" font-size="10.00">+</text>
<text xml:space="preserve" text-anchor="start" x="129" y="-533.5" font-family="Helvetica,sans-Serif" font-size="10.00">digest()</text>
<text xml:space="preserve" text-anchor="start" x="117.75" y="-517.5" font-family="Helvetica,sans-Serif" font-size="10.00">+</text>
<text xml:space="preserve" text-anchor="start" x="129" y="-517.5" font-family="Helvetica,sans-Serif" font-size="10.00">digest()</text>
<text xml:space="preserve" text-anchor="start" x="117.75" y="-501.5" font-family="Helvetica,sans-Serif" font-size="10.00">+</text>
<text xml:space="preserve" text-anchor="start" x="129" y="-501.5" font-family="Helvetica,sans-Serif" font-size="10.00">digest()</text>
<text xml:space="preserve" text-anchor="start" x="117.75" y="-485.5" font-family="Helvetica,sans-Serif" font-size="10.00">+</text>
<text xml:space="preserve" text-anchor="start" x="129" y="-485.5" font-family="Helvetica,sans-Serif" font-size="10.00">digest()</text>
<text xml:space="preserve" text-anchor="start" x="117.75" y="-469.5" font-family="Helvetica,sans-Serif" font-size="10.00">+</text>
<text xml:space="preserve" text-anchor="start" x="129" y="-469.5" font-family="Helvetica,sans-Serif" font-size="10.00">getOutputSize()</text>
<text xml:space="preserve" text-anchor="start" x="117.75" y="-453.5" font-family="Helvetica,sans-Serif" font-size="10.00">+</text>
<text xml:space="preserve" text-anchor="start" x="129" y="-453.5" font-family="Helvetica,sans-Serif" font-size="10.00">getBlockSize()</text>
<text xml:space="preserve" text-anchor="start" x="118.12" y="-437.5" font-family="Helvetica,sans-Serif" font-size="10.00">#</text>
<text xml:space="preserve" text-anchor="start" x="129" y="-437.5" font-family="Helvetica,sans-Serif" font-size="10.00">reset()</text>
<text xml:space="preserve" text-anchor="start" x="118.12" y="-421.5" font-family="Helvetica,sans-Serif" font-size="10.00">#</text>
<text xml:space="preserve" text-anchor="start" x="129" y="-421.5" font-family="Helvetica,sans-Serif" font-size="10.00">addData()</text>
<text xml:space="preserve" text-anchor="start" x="118.12" y="-405.5" font-family="Helvetica,sans-Serif" font-size="10.00">#</text>
<text xml:space="preserve" text-anchor="start" x="129" y="-405.5" font-family="Helvetica,sans-Serif" font-size="10.00">finalize()</text>
<polygon fill="#666666" stroke="#666666" points="112.5,-577 112.5,-577 203.75,-577 203.75,-577 112.5,-577"/>
<polygon fill="#666666" stroke="#666666" points="112.5,-561 112.5,-561 127,-561 127,-561 112.5,-561"/>
<polygon fill="#666666" stroke="#666666" points="127,-561 127,-561 203.75,-561 203.75,-561 127,-561"/>
<polygon fill="none" stroke="#666666" points="112.5,-399 112.5,-607 203.75,-607 203.75,-399 112.5,-399"/>
</a>
</g>
</g>
<!-- Node2 -->
<g id="Node000002" class="node">
<title>Node2</title>
<g id="a_Node000002"><a xlink:href="classanch_1_1crypto_1_1_s_h_a2.html" target="_top" xlink:title="SHA2 abstract class.">
<polygon fill="white" stroke="none" points="94.25,-345 0,-345 0,-201 94.25,-201 94.25,-345"/>
<text xml:space="preserve" text-anchor="start" x="4" y="-331.5" font-family="Helvetica,sans-Serif" font-size="10.00">anch::crypto::SHA2</text>
<text xml:space="preserve" text-anchor="start" x="9.25" y="-319.5" font-family="Helvetica,sans-Serif" font-size="10.00">&lt; O, B, W, R, I &gt;</text>
<text xml:space="preserve" text-anchor="start" x="9.94" y="-303.5" font-family="Helvetica,sans-Serif" font-size="10.00">#</text>
<text xml:space="preserve" text-anchor="start" x="25.12" y="-303.5" font-family="Helvetica,sans-Serif" font-size="10.00">_context</text>
<text xml:space="preserve" text-anchor="start" x="9.56" y="-287.5" font-family="Helvetica,sans-Serif" font-size="10.00">+</text>
<text xml:space="preserve" text-anchor="start" x="25.12" y="-287.5" font-family="Helvetica,sans-Serif" font-size="10.00">SHA2()</text>
<text xml:space="preserve" text-anchor="start" x="9.56" y="-271.5" font-family="Helvetica,sans-Serif" font-size="10.00">+</text>
<text xml:space="preserve" text-anchor="start" x="25.12" y="-271.5" font-family="Helvetica,sans-Serif" font-size="10.00">~SHA2()</text>
<text xml:space="preserve" text-anchor="start" x="9.56" y="-255.5" font-family="Helvetica,sans-Serif" font-size="10.00">+</text>
<text xml:space="preserve" text-anchor="start" x="25.12" y="-255.5" font-family="Helvetica,sans-Serif" font-size="10.00">digest()</text>
<text xml:space="preserve" text-anchor="start" x="9.94" y="-239.5" font-family="Helvetica,sans-Serif" font-size="10.00">#</text>
<text xml:space="preserve" text-anchor="start" x="25.12" y="-239.5" font-family="Helvetica,sans-Serif" font-size="10.00">shiftRight()</text>
<text xml:space="preserve" text-anchor="start" x="9.94" y="-223.5" font-family="Helvetica,sans-Serif" font-size="10.00">#</text>
<text xml:space="preserve" text-anchor="start" x="25.12" y="-223.5" font-family="Helvetica,sans-Serif" font-size="10.00">rotateLeft()</text>
<text xml:space="preserve" text-anchor="start" x="9.94" y="-207.5" font-family="Helvetica,sans-Serif" font-size="10.00">#</text>
<text xml:space="preserve" text-anchor="start" x="25.12" y="-207.5" font-family="Helvetica,sans-Serif" font-size="10.00">rotateRight()</text>
<polygon fill="#666666" stroke="#666666" points="0,-315 0,-315 94.25,-315 94.25,-315 0,-315"/>
<polygon fill="#666666" stroke="#666666" points="0,-299 0,-299 23.12,-299 23.12,-299 0,-299"/>
<polygon fill="#666666" stroke="#666666" points="23.12,-299 23.12,-299 94.25,-299 94.25,-299 23.12,-299"/>
<polygon fill="none" stroke="#666666" points="0,-201 0,-345 94.25,-345 94.25,-201 0,-201"/>
</a>
</g>
</g>
<!-- Node1&#45;&gt;Node2 -->
<g id="edge1_Node000001_Node000002" class="edge">
<title>Node1&#45;&gt;Node2</title>
<g id="a_edge1_Node000001_Node000002"><a xlink:title=" ">
<path fill="none" stroke="#63b8ff" d="M107.65,-398.32C98.85,-380.25 89.89,-361.84 81.65,-344.91"/>
<polygon fill="none" stroke="#63b8ff" points="104.47,-399.79 111.99,-407.24 110.76,-396.72 104.47,-399.79"/>
</a>
</g>
</g>
<!-- Node3 -->
<g id="Node000003" class="node">
<title>Node3</title>
<g id="a_Node000003"><a xlink:href="classanch_1_1crypto_1_1_hash.html" target="_top" xlink:title=" ">
<polygon fill="white" stroke="none" points="203.75,-345 112.5,-345 112.5,-201 203.75,-201 203.75,-345"/>
<text xml:space="preserve" text-anchor="start" x="116.5" y="-331.5" font-family="Helvetica,sans-Serif" font-size="10.00">anch::crypto::Hash</text>
<text xml:space="preserve" text-anchor="start" x="135.62" y="-319.5" font-family="Helvetica,sans-Serif" font-size="10.00">&lt; 16, 64 &gt;</text>
<text xml:space="preserve" text-anchor="start" x="118.12" y="-303.5" font-family="Helvetica,sans-Serif" font-size="10.00">#</text>
<text xml:space="preserve" text-anchor="start" x="129" y="-303.5" font-family="Helvetica,sans-Serif" font-size="10.00">_digest</text>
<text xml:space="preserve" text-anchor="start" x="117.75" y="-287.5" font-family="Helvetica,sans-Serif" font-size="10.00">+</text>
<text xml:space="preserve" text-anchor="start" x="129" y="-287.5" font-family="Helvetica,sans-Serif" font-size="10.00">digest()</text>
<text xml:space="preserve" text-anchor="start" x="117.75" y="-271.5" font-family="Helvetica,sans-Serif" font-size="10.00">+</text>
<text xml:space="preserve" text-anchor="start" x="129" y="-271.5" font-family="Helvetica,sans-Serif" font-size="10.00">getOutputSize()</text>
<text xml:space="preserve" text-anchor="start" x="117.75" y="-255.5" font-family="Helvetica,sans-Serif" font-size="10.00">+</text>
<text xml:space="preserve" text-anchor="start" x="129" y="-255.5" font-family="Helvetica,sans-Serif" font-size="10.00">getBlockSize()</text>
<text xml:space="preserve" text-anchor="start" x="118.12" y="-239.5" font-family="Helvetica,sans-Serif" font-size="10.00">#</text>
<text xml:space="preserve" text-anchor="start" x="129" y="-239.5" font-family="Helvetica,sans-Serif" font-size="10.00">reset()</text>
<text xml:space="preserve" text-anchor="start" x="118.12" y="-223.5" font-family="Helvetica,sans-Serif" font-size="10.00">#</text>
<text xml:space="preserve" text-anchor="start" x="129" y="-223.5" font-family="Helvetica,sans-Serif" font-size="10.00">addData()</text>
<text xml:space="preserve" text-anchor="start" x="118.12" y="-207.5" font-family="Helvetica,sans-Serif" font-size="10.00">#</text>
<text xml:space="preserve" text-anchor="start" x="129" y="-207.5" font-family="Helvetica,sans-Serif" font-size="10.00">finalize()</text>
<polygon fill="#666666" stroke="#666666" points="112.5,-315 112.5,-315 203.75,-315 203.75,-315 112.5,-315"/>
<polygon fill="#666666" stroke="#666666" points="112.5,-299 112.5,-299 127,-299 127,-299 112.5,-299"/>
<polygon fill="#666666" stroke="#666666" points="127,-299 127,-299 203.75,-299 203.75,-299 127,-299"/>
<polygon fill="none" stroke="#666666" points="112.5,-201 112.5,-345 203.75,-345 203.75,-201 112.5,-201"/>
</a>
</g>
</g>
<!-- Node1&#45;&gt;Node3 -->
<g id="edge2_Node000001_Node000003" class="edge">
<title>Node1&#45;&gt;Node3</title>
<g id="a_edge2_Node000001_Node000003"><a xlink:title=" ">
<path fill="none" stroke="orange" d="M158.12,-387.83C158.12,-373.19 158.12,-358.56 158.12,-344.89"/>
<polygon fill="orange" stroke="orange" points="154.63,-387.49 158.13,-397.49 161.63,-387.49 154.63,-387.49"/>
</a>
</g>
<text xml:space="preserve" text-anchor="start" x="161.12" y="-368.5" font-family="Helvetica,sans-Serif" font-size="10.00" fill="grey">&lt; 16, 64 &gt;</text>
</g>
<!-- Node5 -->
<g id="Node000005" class="node">
<title>Node5</title>
<g id="a_Node000005"><a xlink:href="classanch_1_1crypto_1_1_hash.html" target="_top" xlink:title=" ">
<polygon fill="white" stroke="none" points="313.75,-345 222.5,-345 222.5,-201 313.75,-201 313.75,-345"/>
<text xml:space="preserve" text-anchor="start" x="226.5" y="-331.5" font-family="Helvetica,sans-Serif" font-size="10.00">anch::crypto::Hash</text>
<text xml:space="preserve" text-anchor="start" x="245.62" y="-319.5" font-family="Helvetica,sans-Serif" font-size="10.00">&lt; 20, 64 &gt;</text>
<text xml:space="preserve" text-anchor="start" x="228.12" y="-303.5" font-family="Helvetica,sans-Serif" font-size="10.00">#</text>
<text xml:space="preserve" text-anchor="start" x="239" y="-303.5" font-family="Helvetica,sans-Serif" font-size="10.00">_digest</text>
<text xml:space="preserve" text-anchor="start" x="227.75" y="-287.5" font-family="Helvetica,sans-Serif" font-size="10.00">+</text>
<text xml:space="preserve" text-anchor="start" x="239" y="-287.5" font-family="Helvetica,sans-Serif" font-size="10.00">digest()</text>
<text xml:space="preserve" text-anchor="start" x="227.75" y="-271.5" font-family="Helvetica,sans-Serif" font-size="10.00">+</text>
<text xml:space="preserve" text-anchor="start" x="239" y="-271.5" font-family="Helvetica,sans-Serif" font-size="10.00">getOutputSize()</text>
<text xml:space="preserve" text-anchor="start" x="227.75" y="-255.5" font-family="Helvetica,sans-Serif" font-size="10.00">+</text>
<text xml:space="preserve" text-anchor="start" x="239" y="-255.5" font-family="Helvetica,sans-Serif" font-size="10.00">getBlockSize()</text>
<text xml:space="preserve" text-anchor="start" x="228.12" y="-239.5" font-family="Helvetica,sans-Serif" font-size="10.00">#</text>
<text xml:space="preserve" text-anchor="start" x="239" y="-239.5" font-family="Helvetica,sans-Serif" font-size="10.00">reset()</text>
<text xml:space="preserve" text-anchor="start" x="228.12" y="-223.5" font-family="Helvetica,sans-Serif" font-size="10.00">#</text>
<text xml:space="preserve" text-anchor="start" x="239" y="-223.5" font-family="Helvetica,sans-Serif" font-size="10.00">addData()</text>
<text xml:space="preserve" text-anchor="start" x="228.12" y="-207.5" font-family="Helvetica,sans-Serif" font-size="10.00">#</text>
<text xml:space="preserve" text-anchor="start" x="239" y="-207.5" font-family="Helvetica,sans-Serif" font-size="10.00">finalize()</text>
<polygon fill="#666666" stroke="#666666" points="222.5,-315 222.5,-315 313.75,-315 313.75,-315 222.5,-315"/>
<polygon fill="#666666" stroke="#666666" points="222.5,-299 222.5,-299 237,-299 237,-299 222.5,-299"/>
<polygon fill="#666666" stroke="#666666" points="237,-299 237,-299 313.75,-299 313.75,-299 237,-299"/>
<polygon fill="none" stroke="#666666" points="222.5,-201 222.5,-345 313.75,-345 313.75,-201 222.5,-201"/>
</a>
</g>
</g>
<!-- Node1&#45;&gt;Node5 -->
<g id="edge4_Node000001_Node000005" class="edge">
<title>Node1&#45;&gt;Node5</title>
<g id="a_edge4_Node000001_Node000005"><a xlink:title=" ">
<path fill="none" stroke="orange" d="M208.42,-397.74C217.04,-379.89 225.81,-361.71 233.88,-344.98"/>
<polygon fill="orange" stroke="orange" points="205.51,-395.73 204.32,-406.25 211.82,-398.77 205.51,-395.73"/>
</a>
</g>
<text xml:space="preserve" text-anchor="start" x="225.98" y="-368.5" font-family="Helvetica,sans-Serif" font-size="10.00" fill="grey">&lt; 20, 64 &gt;</text>
</g>
<!-- Node4 -->
<g id="Node000004" class="node">
<title>Node4</title>
<g id="a_Node000004"><a xlink:href="classanch_1_1crypto_1_1_m_d5.html" target="_top" xlink:title="MD5 hash algorithm implementation.">
<polygon fill="white" stroke="none" points="202.62,-164 113.62,-164 113.62,0 202.62,0 202.62,-164"/>
<text xml:space="preserve" text-anchor="start" x="117.62" y="-150.5" font-family="Helvetica,sans-Serif" font-size="10.00">anch::crypto::MD5</text>
<text xml:space="preserve" text-anchor="start" x="156.62" y="-134.5" font-family="Helvetica,sans-Serif" font-size="10.00"> </text>
<text xml:space="preserve" text-anchor="start" x="124.69" y="-118.5" font-family="Helvetica,sans-Serif" font-size="10.00">+</text>
<text xml:space="preserve" text-anchor="start" x="141.75" y="-118.5" font-family="Helvetica,sans-Serif" font-size="10.00">MD5()</text>
<text xml:space="preserve" text-anchor="start" x="124.69" y="-102.5" font-family="Helvetica,sans-Serif" font-size="10.00">+</text>
<text xml:space="preserve" text-anchor="start" x="141.75" y="-102.5" font-family="Helvetica,sans-Serif" font-size="10.00">MD5()</text>
<text xml:space="preserve" text-anchor="start" x="124.69" y="-86.5" font-family="Helvetica,sans-Serif" font-size="10.00">+</text>
<text xml:space="preserve" text-anchor="start" x="141.75" y="-86.5" font-family="Helvetica,sans-Serif" font-size="10.00">MD5()</text>
<text xml:space="preserve" text-anchor="start" x="124.69" y="-70.5" font-family="Helvetica,sans-Serif" font-size="10.00">+</text>
<text xml:space="preserve" text-anchor="start" x="141.75" y="-70.5" font-family="Helvetica,sans-Serif" font-size="10.00">~MD5()</text>
<text xml:space="preserve" text-anchor="start" x="124.69" y="-54.5" font-family="Helvetica,sans-Serif" font-size="10.00">+</text>
<text xml:space="preserve" text-anchor="start" x="141.75" y="-54.5" font-family="Helvetica,sans-Serif" font-size="10.00">digest()</text>
<text xml:space="preserve" text-anchor="start" x="125.06" y="-38.5" font-family="Helvetica,sans-Serif" font-size="10.00">#</text>
<text xml:space="preserve" text-anchor="start" x="141.75" y="-38.5" font-family="Helvetica,sans-Serif" font-size="10.00">reset()</text>
<text xml:space="preserve" text-anchor="start" x="125.06" y="-22.5" font-family="Helvetica,sans-Serif" font-size="10.00">#</text>
<text xml:space="preserve" text-anchor="start" x="141.75" y="-22.5" font-family="Helvetica,sans-Serif" font-size="10.00">addData()</text>
<text xml:space="preserve" text-anchor="start" x="125.06" y="-6.5" font-family="Helvetica,sans-Serif" font-size="10.00">#</text>
<text xml:space="preserve" text-anchor="start" x="141.75" y="-6.5" font-family="Helvetica,sans-Serif" font-size="10.00">finalize()</text>
<polygon fill="#666666" stroke="#666666" points="113.62,-146 113.62,-146 202.62,-146 202.62,-146 113.62,-146"/>
<polygon fill="#666666" stroke="#666666" points="113.62,-130 113.62,-130 202.62,-130 202.62,-130 113.62,-130"/>
<polygon fill="none" stroke="#666666" points="113.62,0 113.62,-164 202.62,-164 202.62,0 113.62,0"/>
</a>
</g>
</g>
<!-- Node3&#45;&gt;Node4 -->
<g id="edge3_Node000003_Node000004" class="edge">
<title>Node3&#45;&gt;Node4</title>
<g id="a_edge3_Node000003_Node000004"><a xlink:title=" ">
<path fill="none" stroke="#63b8ff" d="M158.12,-189.85C158.12,-181.22 158.12,-172.46 158.12,-163.84"/>
<polygon fill="none" stroke="#63b8ff" points="154.63,-189.57 158.13,-199.57 161.63,-189.57 154.63,-189.57"/>
</a>
</g>
</g>
<!-- Node6 -->
<g id="Node000006" class="node">
<title>Node6</title>
<g id="a_Node000006"><a xlink:href="classanch_1_1crypto_1_1_s_h_a1.html" target="_top" xlink:title="SHA1 hash algorithm implementation.">
<polygon fill="white" stroke="none" points="315.25,-164 221,-164 221,0 315.25,0 315.25,-164"/>
<text xml:space="preserve" text-anchor="start" x="225" y="-150.5" font-family="Helvetica,sans-Serif" font-size="10.00">anch::crypto::SHA1</text>
<text xml:space="preserve" text-anchor="start" x="266.62" y="-134.5" font-family="Helvetica,sans-Serif" font-size="10.00"> </text>
<text xml:space="preserve" text-anchor="start" x="233.38" y="-118.5" font-family="Helvetica,sans-Serif" font-size="10.00">+</text>
<text xml:space="preserve" text-anchor="start" x="251.75" y="-118.5" font-family="Helvetica,sans-Serif" font-size="10.00">SHA1()</text>
<text xml:space="preserve" text-anchor="start" x="233.38" y="-102.5" font-family="Helvetica,sans-Serif" font-size="10.00">+</text>
<text xml:space="preserve" text-anchor="start" x="251.75" y="-102.5" font-family="Helvetica,sans-Serif" font-size="10.00">SHA1()</text>
<text xml:space="preserve" text-anchor="start" x="233.38" y="-86.5" font-family="Helvetica,sans-Serif" font-size="10.00">+</text>
<text xml:space="preserve" text-anchor="start" x="251.75" y="-86.5" font-family="Helvetica,sans-Serif" font-size="10.00">SHA1()</text>
<text xml:space="preserve" text-anchor="start" x="233.38" y="-70.5" font-family="Helvetica,sans-Serif" font-size="10.00">+</text>
<text xml:space="preserve" text-anchor="start" x="251.75" y="-70.5" font-family="Helvetica,sans-Serif" font-size="10.00">~SHA1()</text>
<text xml:space="preserve" text-anchor="start" x="233.38" y="-54.5" font-family="Helvetica,sans-Serif" font-size="10.00">+</text>
<text xml:space="preserve" text-anchor="start" x="251.75" y="-54.5" font-family="Helvetica,sans-Serif" font-size="10.00">digest()</text>
<text xml:space="preserve" text-anchor="start" x="233.75" y="-38.5" font-family="Helvetica,sans-Serif" font-size="10.00">#</text>
<text xml:space="preserve" text-anchor="start" x="251.75" y="-38.5" font-family="Helvetica,sans-Serif" font-size="10.00">reset()</text>
<text xml:space="preserve" text-anchor="start" x="233.75" y="-22.5" font-family="Helvetica,sans-Serif" font-size="10.00">#</text>
<text xml:space="preserve" text-anchor="start" x="251.75" y="-22.5" font-family="Helvetica,sans-Serif" font-size="10.00">addData()</text>
<text xml:space="preserve" text-anchor="start" x="233.75" y="-6.5" font-family="Helvetica,sans-Serif" font-size="10.00">#</text>
<text xml:space="preserve" text-anchor="start" x="251.75" y="-6.5" font-family="Helvetica,sans-Serif" font-size="10.00">finalize()</text>
<polygon fill="#666666" stroke="#666666" points="221,-146 221,-146 315.25,-146 315.25,-146 221,-146"/>
<polygon fill="#666666" stroke="#666666" points="221,-130 221,-130 315.25,-130 315.25,-130 221,-130"/>
<polygon fill="none" stroke="#666666" points="221,0 221,-164 315.25,-164 315.25,0 221,0"/>
</a>
</g>
</g>
<!-- Node5&#45;&gt;Node6 -->
<g id="edge5_Node000005_Node000006" class="edge">
<title>Node5&#45;&gt;Node6</title>
<g id="a_edge5_Node000005_Node000006"><a xlink:title=" ">
<path fill="none" stroke="#63b8ff" d="M268.12,-189.85C268.12,-181.22 268.12,-172.46 268.12,-163.84"/>
<polygon fill="none" stroke="#63b8ff" points="264.63,-189.57 268.13,-199.57 271.63,-189.57 264.63,-189.57"/>
</a>
</g>
</g>
</g>
</svg>
