<?xml version="1.0" encoding="UTF-8" standalone="no"?>
<!DOCTYPE svg PUBLIC "-//W3C//DTD SVG 1.1//EN"
 "http://www.w3.org/Graphics/SVG/1.1/DTD/svg11.dtd">
<!-- Generated by graphviz version 13.1.2 (0)
 -->
<!-- Title: anch::sql::Connection Pages: 1 -->
<svg width="272pt" height="1218pt"
 viewBox="0.00 0.00 272.00 1218.00" xmlns="http://www.w3.org/2000/svg" xmlns:xlink="http://www.w3.org/1999/xlink">
<g id="graph0" class="graph" transform="scale(1 1) rotate(0) translate(4 1214)">
<title>anch::sql::Connection</title>
<!-- Node1 -->
<g id="Node000001" class="node">
<title>Node1</title>
<g id="a_Node000001"><a xlink:title="SQL connection virtual class.">
<polygon fill="#999999" stroke="none" points="199.62,-356 82.62,-356 82.62,0 199.62,0 199.62,-356"/>
<text xml:space="preserve" text-anchor="start" x="93.5" y="-342.5" font-family="Helvetica,sans-Serif" font-size="10.00">anch::sql::Connection</text>
<text xml:space="preserve" text-anchor="start" x="87" y="-326.5" font-family="Helvetica,sans-Serif" font-size="10.00">#</text>
<text xml:space="preserve" text-anchor="start" x="96.62" y="-326.5" font-family="Helvetica,sans-Serif" font-size="10.00">_valid</text>
<text xml:space="preserve" text-anchor="start" x="87" y="-310.5" font-family="Helvetica,sans-Serif" font-size="10.00">#</text>
<text xml:space="preserve" text-anchor="start" x="96.62" y="-310.5" font-family="Helvetica,sans-Serif" font-size="10.00">_transaction</text>
<text xml:space="preserve" text-anchor="start" x="87" y="-294.5" font-family="Helvetica,sans-Serif" font-size="10.00">#</text>
<text xml:space="preserve" text-anchor="start" x="96.62" y="-294.5" font-family="Helvetica,sans-Serif" font-size="10.00">_errors</text>
<text xml:space="preserve" text-anchor="start" x="86.62" y="-278.5" font-family="Helvetica,sans-Serif" font-size="10.00">+</text>
<text xml:space="preserve" text-anchor="start" x="96.62" y="-278.5" font-family="Helvetica,sans-Serif" font-size="10.00">Connection()</text>
<text xml:space="preserve" text-anchor="start" x="86.62" y="-262.5" font-family="Helvetica,sans-Serif" font-size="10.00">+</text>
<text xml:space="preserve" text-anchor="start" x="96.62" y="-262.5" font-family="Helvetica,sans-Serif" font-size="10.00">Connection()</text>
<text xml:space="preserve" text-anchor="start" x="86.62" y="-246.5" font-family="Helvetica,sans-Serif" font-size="10.00">+</text>
<text xml:space="preserve" text-anchor="start" x="96.62" y="-246.5" font-family="Helvetica,sans-Serif" font-size="10.00">~Connection()</text>
<text xml:space="preserve" text-anchor="start" x="86.62" y="-230.5" font-family="Helvetica,sans-Serif" font-size="10.00">+</text>
<text xml:space="preserve" text-anchor="start" x="96.62" y="-230.5" font-family="Helvetica,sans-Serif" font-size="10.00">startTransaction()</text>
<text xml:space="preserve" text-anchor="start" x="86.62" y="-214.5" font-family="Helvetica,sans-Serif" font-size="10.00">+</text>
<text xml:space="preserve" text-anchor="start" x="96.62" y="-214.5" font-family="Helvetica,sans-Serif" font-size="10.00">begin()</text>
<text xml:space="preserve" text-anchor="start" x="86.62" y="-198.5" font-family="Helvetica,sans-Serif" font-size="10.00">+</text>
<text xml:space="preserve" text-anchor="start" x="96.62" y="-198.5" font-family="Helvetica,sans-Serif" font-size="10.00">commit()</text>
<text xml:space="preserve" text-anchor="start" x="86.62" y="-182.5" font-family="Helvetica,sans-Serif" font-size="10.00">+</text>
<text xml:space="preserve" text-anchor="start" x="96.62" y="-182.5" font-family="Helvetica,sans-Serif" font-size="10.00">rollback()</text>
<text xml:space="preserve" text-anchor="start" x="86.62" y="-166.5" font-family="Helvetica,sans-Serif" font-size="10.00">+</text>
<text xml:space="preserve" text-anchor="start" x="96.62" y="-166.5" font-family="Helvetica,sans-Serif" font-size="10.00">release()</text>
<text xml:space="preserve" text-anchor="start" x="86.62" y="-150.5" font-family="Helvetica,sans-Serif" font-size="10.00">+</text>
<text xml:space="preserve" text-anchor="start" x="96.62" y="-150.5" font-family="Helvetica,sans-Serif" font-size="10.00">prepareStatement()</text>
<text xml:space="preserve" text-anchor="start" x="86.62" y="-134.5" font-family="Helvetica,sans-Serif" font-size="10.00">+</text>
<text xml:space="preserve" text-anchor="start" x="96.62" y="-134.5" font-family="Helvetica,sans-Serif" font-size="10.00">query()</text>
<text xml:space="preserve" text-anchor="start" x="96.62" y="-118.5" font-family="Helvetica,sans-Serif" font-size="10.00">and 9 more...</text>
<text xml:space="preserve" text-anchor="start" x="87" y="-102.5" font-family="Helvetica,sans-Serif" font-size="10.00">#</text>
<text xml:space="preserve" text-anchor="start" x="96.62" y="-102.5" font-family="Helvetica,sans-Serif" font-size="10.00">executeQuery()</text>
<text xml:space="preserve" text-anchor="start" x="87" y="-86.5" font-family="Helvetica,sans-Serif" font-size="10.00">#</text>
<text xml:space="preserve" text-anchor="start" x="96.62" y="-86.5" font-family="Helvetica,sans-Serif" font-size="10.00">executeUpdate()</text>
<text xml:space="preserve" text-anchor="start" x="87" y="-70.5" font-family="Helvetica,sans-Serif" font-size="10.00">#</text>
<text xml:space="preserve" text-anchor="start" x="96.62" y="-70.5" font-family="Helvetica,sans-Serif" font-size="10.00">sendStartTransaction()</text>
<text xml:space="preserve" text-anchor="start" x="87" y="-54.5" font-family="Helvetica,sans-Serif" font-size="10.00">#</text>
<text xml:space="preserve" text-anchor="start" x="96.62" y="-54.5" font-family="Helvetica,sans-Serif" font-size="10.00">sendCommit()</text>
<text xml:space="preserve" text-anchor="start" x="87" y="-38.5" font-family="Helvetica,sans-Serif" font-size="10.00">#</text>
<text xml:space="preserve" text-anchor="start" x="96.62" y="-38.5" font-family="Helvetica,sans-Serif" font-size="10.00">sendRollback()</text>
<text xml:space="preserve" text-anchor="start" x="87" y="-22.5" font-family="Helvetica,sans-Serif" font-size="10.00">#</text>
<text xml:space="preserve" text-anchor="start" x="96.62" y="-22.5" font-family="Helvetica,sans-Serif" font-size="10.00">makePrepared()</text>
<text xml:space="preserve" text-anchor="start" x="87" y="-6.5" font-family="Helvetica,sans-Serif" font-size="10.00">#</text>
<text xml:space="preserve" text-anchor="start" x="96.62" y="-6.5" font-family="Helvetica,sans-Serif" font-size="10.00">setValid()</text>
<polygon fill="#666666" stroke="#666666" points="82.62,-338 82.62,-338 199.62,-338 199.62,-338 82.62,-338"/>
<polygon fill="#666666" stroke="#666666" points="82.62,-290 82.62,-290 94.62,-290 94.62,-290 82.62,-290"/>
<polygon fill="#666666" stroke="#666666" points="94.62,-290 94.62,-290 199.62,-290 199.62,-290 94.62,-290"/>
<polygon fill="none" stroke="#666666" points="82.62,0 82.62,-356 199.62,-356 199.62,0 82.62,0"/>
</a>
</g>
</g>
<!-- Node2 -->
<g id="Node000002" class="node">
<title>Node2</title>
<g id="a_Node000002"><a xlink:title=" ">
<polygon fill="white" stroke="none" points="219.38,-474 62.88,-474 62.88,-410 219.38,-410 219.38,-474"/>
<text xml:space="preserve" text-anchor="start" x="66.88" y="-460.5" font-family="Helvetica,sans-Serif" font-size="10.00">std::map&lt; std::string,</text>
<text xml:space="preserve" text-anchor="start" x="66.88" y="-448.5" font-family="Helvetica,sans-Serif" font-size="10.00"> anch::sql::PreparedStatement * &gt;</text>
<text xml:space="preserve" text-anchor="start" x="139.62" y="-432.5" font-family="Helvetica,sans-Serif" font-size="10.00"> </text>
<text xml:space="preserve" text-anchor="start" x="139.62" y="-416.5" font-family="Helvetica,sans-Serif" font-size="10.00"> </text>
<polygon fill="#666666" stroke="#666666" points="62.88,-444 62.88,-444 219.38,-444 219.38,-444 62.88,-444"/>
<polygon fill="#666666" stroke="#666666" points="62.88,-428 62.88,-428 219.38,-428 219.38,-428 62.88,-428"/>
<polygon fill="none" stroke="#666666" points="62.88,-410 62.88,-474 219.38,-474 219.38,-410 62.88,-410"/>
</a>
</g>
</g>
<!-- Node2&#45;&gt;Node1 -->
<g id="edge1_Node000001_Node000002" class="edge">
<title>Node2&#45;&gt;Node1</title>
<g id="a_edge1_Node000001_Node000002"><a xlink:title=" ">
<path fill="none" stroke="#63b8ff" d="M141.12,-410.17C141.12,-398.54 141.12,-384.29 141.12,-368.63"/>
<polygon fill="none" stroke="#63b8ff" points="141.13,-368.7 137.13,-362.7 141.13,-356.7 145.13,-362.7 141.13,-368.7"/>
</a>
</g>
<text xml:space="preserve" text-anchor="start" x="144.12" y="-379.5" font-family="Helvetica,sans-Serif" font-size="10.00" fill="grey">#_stmts</text>
</g>
<!-- Node3 -->
<g id="Node000003" class="node">
<title>Node3</title>
<g id="a_Node000003"><a xlink:title=" ">
<polygon fill="white" stroke="none" points="205.88,-1092 154.38,-1092 154.38,-1040 205.88,-1040 205.88,-1092"/>
<text xml:space="preserve" text-anchor="start" x="158.38" y="-1078.5" font-family="Helvetica,sans-Serif" font-size="10.00">std::string</text>
<text xml:space="preserve" text-anchor="start" x="178.62" y="-1062.5" font-family="Helvetica,sans-Serif" font-size="10.00"> </text>
<text xml:space="preserve" text-anchor="start" x="178.62" y="-1046.5" font-family="Helvetica,sans-Serif" font-size="10.00"> </text>
<polygon fill="#666666" stroke="#666666" points="154.38,-1074 154.38,-1074 205.88,-1074 205.88,-1074 154.38,-1074"/>
<polygon fill="#666666" stroke="#666666" points="154.38,-1058 154.38,-1058 205.88,-1058 205.88,-1058 154.38,-1058"/>
<polygon fill="none" stroke="#666666" points="154.38,-1040 154.38,-1092 205.88,-1092 205.88,-1040 154.38,-1040"/>
</a>
</g>
</g>
<!-- Node3&#45;&gt;Node2 -->
<g id="edge2_Node000002_Node000003" class="edge">
<title>Node3&#45;&gt;Node2</title>
<g id="a_edge2_Node000002_Node000003"><a xlink:title=" ">
<path fill="none" stroke="#63b8ff" d="M205.54,-1046.68C212.96,-1039.86 220.15,-1031.45 224.12,-1022 229.99,-1008.07 224.21,-1003.11 224.12,-988 223.01,-783.55 275.57,-724.51 219.12,-528 214.23,-510.96 203.4,-495.54 191.31,-482.66"/>
<polygon fill="none" stroke="#63b8ff" points="191.5,-482.85 184.43,-481.45 183,-474.38 190.07,-475.78 191.5,-482.85"/>
</a>
</g>
<text xml:space="preserve" text-anchor="start" x="233.99" y="-867.5" font-family="Helvetica,sans-Serif" font-size="10.00" fill="grey">+keys</text>
</g>
<!-- Node6 -->
<g id="Node000006" class="node">
<title>Node6</title>
<g id="a_Node000006"><a xlink:title=" ">
<polygon fill="white" stroke="none" points="210.5,-970 117.75,-970 117.75,-906 210.5,-906 210.5,-970"/>
<text xml:space="preserve" text-anchor="start" x="121.75" y="-956.5" font-family="Helvetica,sans-Serif" font-size="10.00">std::map&lt; std::size</text>
<text xml:space="preserve" text-anchor="start" x="130.75" y="-944.5" font-family="Helvetica,sans-Serif" font-size="10.00">_t, std::string &gt;</text>
<text xml:space="preserve" text-anchor="start" x="135.19" y="-928.5" font-family="Helvetica,sans-Serif" font-size="10.00">+</text>
<text xml:space="preserve" text-anchor="start" x="158.62" y="-928.5" font-family="Helvetica,sans-Serif" font-size="10.00">keys</text>
<text xml:space="preserve" text-anchor="start" x="162.62" y="-912.5" font-family="Helvetica,sans-Serif" font-size="10.00"> </text>
<polygon fill="#666666" stroke="#666666" points="117.75,-940 117.75,-940 210.5,-940 210.5,-940 117.75,-940"/>
<polygon fill="#666666" stroke="#666666" points="117.75,-924 117.75,-924 156.62,-924 156.62,-924 117.75,-924"/>
<polygon fill="#666666" stroke="#666666" points="156.62,-924 156.62,-924 210.5,-924 210.5,-924 156.62,-924"/>
<polygon fill="none" stroke="#666666" points="117.75,-906 117.75,-970 210.5,-970 210.5,-906 117.75,-906"/>
</a>
</g>
</g>
<!-- Node3&#45;&gt;Node6 -->
<g id="edge6_Node000006_Node000003" class="edge">
<title>Node3&#45;&gt;Node6</title>
<g id="a_edge6_Node000006_Node000003"><a xlink:title=" ">
<path fill="none" stroke="#63b8ff" d="M175.28,-1040.04C174.23,-1034.14 173.19,-1027.86 172.38,-1022 170.59,-1009.23 169.05,-995.3 167.8,-982.56"/>
<polygon fill="none" stroke="#63b8ff" points="167.81,-982.66 163.27,-977.06 166.69,-970.71 171.23,-976.31 167.81,-982.66"/>
</a>
</g>
<text xml:space="preserve" text-anchor="start" x="175.38" y="-1001.5" font-family="Helvetica,sans-Serif" font-size="10.00" fill="grey">+elements</text>
</g>
<!-- Node4 -->
<g id="Node000004" class="node">
<title>Node4</title>
<g id="a_Node000004"><a xlink:title=" ">
<polygon fill="white" stroke="none" points="223.12,-1210 137.12,-1210 137.12,-1146 223.12,-1146 223.12,-1210"/>
<text xml:space="preserve" text-anchor="start" x="141.12" y="-1196.5" font-family="Helvetica,sans-Serif" font-size="10.00">std::basic_string&lt;</text>
<text xml:space="preserve" text-anchor="start" x="163.62" y="-1184.5" font-family="Helvetica,sans-Serif" font-size="10.00"> Char &gt;</text>
<text xml:space="preserve" text-anchor="start" x="178.62" y="-1168.5" font-family="Helvetica,sans-Serif" font-size="10.00"> </text>
<text xml:space="preserve" text-anchor="start" x="178.62" y="-1152.5" font-family="Helvetica,sans-Serif" font-size="10.00"> </text>
<polygon fill="#666666" stroke="#666666" points="137.12,-1180 137.12,-1180 223.12,-1180 223.12,-1180 137.12,-1180"/>
<polygon fill="#666666" stroke="#666666" points="137.12,-1164 137.12,-1164 223.12,-1164 223.12,-1164 137.12,-1164"/>
<polygon fill="none" stroke="#666666" points="137.12,-1146 137.12,-1210 223.12,-1210 223.12,-1146 137.12,-1146"/>
</a>
</g>
</g>
<!-- Node4&#45;&gt;Node3 -->
<g id="edge3_Node000003_Node000004" class="edge">
<title>Node4&#45;&gt;Node3</title>
<g id="a_edge3_Node000003_Node000004"><a xlink:title=" ">
<path fill="none" stroke="#63b8ff" d="M180.12,-1134.77C180.12,-1120.25 180.12,-1104.47 180.12,-1091.79"/>
<polygon fill="none" stroke="#63b8ff" points="176.63,-1134.55 180.13,-1144.55 183.63,-1134.55 176.63,-1134.55"/>
</a>
</g>
</g>
<!-- Node5 -->
<g id="Node000005" class="node">
<title>Node5</title>
<g id="a_Node000005"><a xlink:href="classanch_1_1sql_1_1_prepared_statement.html" target="_top" xlink:title="SQL prepared statement.">
<polygon fill="white" stroke="none" points="210,-836 72.25,-836 72.25,-528 210,-528 210,-836"/>
<text xml:space="preserve" text-anchor="start" x="76.25" y="-822.5" font-family="Helvetica,sans-Serif" font-size="10.00">anch::sql::PreparedStatement</text>
<text xml:space="preserve" text-anchor="start" x="82.56" y="-806.5" font-family="Helvetica,sans-Serif" font-size="10.00">#</text>
<text xml:space="preserve" text-anchor="start" x="98.12" y="-806.5" font-family="Helvetica,sans-Serif" font-size="10.00">_nbPlaceholders</text>
<text xml:space="preserve" text-anchor="start" x="82.19" y="-790.5" font-family="Helvetica,sans-Serif" font-size="10.00">+</text>
<text xml:space="preserve" text-anchor="start" x="98.12" y="-790.5" font-family="Helvetica,sans-Serif" font-size="10.00">PreparedStatement()</text>
<text xml:space="preserve" text-anchor="start" x="82.19" y="-774.5" font-family="Helvetica,sans-Serif" font-size="10.00">+</text>
<text xml:space="preserve" text-anchor="start" x="98.12" y="-774.5" font-family="Helvetica,sans-Serif" font-size="10.00">~PreparedStatement()</text>
<text xml:space="preserve" text-anchor="start" x="82.19" y="-758.5" font-family="Helvetica,sans-Serif" font-size="10.00">+</text>
<text xml:space="preserve" text-anchor="start" x="98.12" y="-758.5" font-family="Helvetica,sans-Serif" font-size="10.00">executeQuery()</text>
<text xml:space="preserve" text-anchor="start" x="82.19" y="-742.5" font-family="Helvetica,sans-Serif" font-size="10.00">+</text>
<text xml:space="preserve" text-anchor="start" x="98.12" y="-742.5" font-family="Helvetica,sans-Serif" font-size="10.00">executeUpdate()</text>
<text xml:space="preserve" text-anchor="start" x="82.19" y="-726.5" font-family="Helvetica,sans-Serif" font-size="10.00">+</text>
<text xml:space="preserve" text-anchor="start" x="98.12" y="-726.5" font-family="Helvetica,sans-Serif" font-size="10.00">set()</text>
<text xml:space="preserve" text-anchor="start" x="82.19" y="-710.5" font-family="Helvetica,sans-Serif" font-size="10.00">+</text>
<text xml:space="preserve" text-anchor="start" x="98.12" y="-710.5" font-family="Helvetica,sans-Serif" font-size="10.00">set()</text>
<text xml:space="preserve" text-anchor="start" x="82.19" y="-694.5" font-family="Helvetica,sans-Serif" font-size="10.00">+</text>
<text xml:space="preserve" text-anchor="start" x="98.12" y="-694.5" font-family="Helvetica,sans-Serif" font-size="10.00">set()</text>
<text xml:space="preserve" text-anchor="start" x="82.19" y="-678.5" font-family="Helvetica,sans-Serif" font-size="10.00">+</text>
<text xml:space="preserve" text-anchor="start" x="98.12" y="-678.5" font-family="Helvetica,sans-Serif" font-size="10.00">set()</text>
<text xml:space="preserve" text-anchor="start" x="82.19" y="-662.5" font-family="Helvetica,sans-Serif" font-size="10.00">+</text>
<text xml:space="preserve" text-anchor="start" x="98.12" y="-662.5" font-family="Helvetica,sans-Serif" font-size="10.00">set()</text>
<text xml:space="preserve" text-anchor="start" x="82.19" y="-646.5" font-family="Helvetica,sans-Serif" font-size="10.00">+</text>
<text xml:space="preserve" text-anchor="start" x="98.12" y="-646.5" font-family="Helvetica,sans-Serif" font-size="10.00">set()</text>
<text xml:space="preserve" text-anchor="start" x="82.19" y="-630.5" font-family="Helvetica,sans-Serif" font-size="10.00">+</text>
<text xml:space="preserve" text-anchor="start" x="98.12" y="-630.5" font-family="Helvetica,sans-Serif" font-size="10.00">set()</text>
<text xml:space="preserve" text-anchor="start" x="82.19" y="-614.5" font-family="Helvetica,sans-Serif" font-size="10.00">+</text>
<text xml:space="preserve" text-anchor="start" x="98.12" y="-614.5" font-family="Helvetica,sans-Serif" font-size="10.00">set()</text>
<text xml:space="preserve" text-anchor="start" x="82.19" y="-598.5" font-family="Helvetica,sans-Serif" font-size="10.00">+</text>
<text xml:space="preserve" text-anchor="start" x="98.12" y="-598.5" font-family="Helvetica,sans-Serif" font-size="10.00">set()</text>
<text xml:space="preserve" text-anchor="start" x="82.19" y="-582.5" font-family="Helvetica,sans-Serif" font-size="10.00">+</text>
<text xml:space="preserve" text-anchor="start" x="98.12" y="-582.5" font-family="Helvetica,sans-Serif" font-size="10.00">set()</text>
<text xml:space="preserve" text-anchor="start" x="82.19" y="-566.5" font-family="Helvetica,sans-Serif" font-size="10.00">+</text>
<text xml:space="preserve" text-anchor="start" x="98.12" y="-566.5" font-family="Helvetica,sans-Serif" font-size="10.00">set()</text>
<text xml:space="preserve" text-anchor="start" x="82.56" y="-550.5" font-family="Helvetica,sans-Serif" font-size="10.00">#</text>
<text xml:space="preserve" text-anchor="start" x="98.12" y="-550.5" font-family="Helvetica,sans-Serif" font-size="10.00">getPlaceholders()</text>
<text xml:space="preserve" text-anchor="start" x="82.56" y="-534.5" font-family="Helvetica,sans-Serif" font-size="10.00">#</text>
<text xml:space="preserve" text-anchor="start" x="98.12" y="-534.5" font-family="Helvetica,sans-Serif" font-size="10.00">checkIndex()</text>
<polygon fill="#666666" stroke="#666666" points="72.25,-818 72.25,-818 210,-818 210,-818 72.25,-818"/>
<polygon fill="#666666" stroke="#666666" points="72.25,-802 72.25,-802 96.12,-802 96.12,-802 72.25,-802"/>
<polygon fill="#666666" stroke="#666666" points="96.12,-802 96.12,-802 210,-802 210,-802 96.12,-802"/>
<polygon fill="none" stroke="#666666" points="72.25,-528 72.25,-836 210,-836 210,-528 72.25,-528"/>
</a>
</g>
</g>
<!-- Node5&#45;&gt;Node2 -->
<g id="edge4_Node000002_Node000005" class="edge">
<title>Node5&#45;&gt;Node2</title>
<g id="a_edge4_Node000002_Node000005"><a xlink:title=" ">
<path fill="none" stroke="#63b8ff" d="M141.12,-528.25C141.12,-513.23 141.12,-498.99 141.12,-486.6"/>
<polygon fill="none" stroke="#63b8ff" points="141.13,-486.83 137.13,-480.83 141.13,-474.83 145.13,-480.83 141.13,-486.83"/>
</a>
</g>
<text xml:space="preserve" text-anchor="start" x="144.12" y="-497.5" font-family="Helvetica,sans-Serif" font-size="10.00" fill="grey">+elements</text>
</g>
<!-- Node6&#45;&gt;Node5 -->
<g id="edge5_Node000005_Node000006" class="edge">
<title>Node6&#45;&gt;Node5</title>
<g id="a_edge5_Node000005_Node000006"><a xlink:title=" ">
<path fill="none" stroke="#63b8ff" d="M161.33,-906.11C159.93,-890.64 158.11,-870.58 156.14,-848.84"/>
<polygon fill="none" stroke="#63b8ff" points="156.13,-848.72 151.61,-843.11 155.05,-836.77 159.57,-842.39 156.13,-848.72"/>
</a>
</g>
<text xml:space="preserve" text-anchor="start" x="162.16" y="-867.5" font-family="Helvetica,sans-Serif" font-size="10.00" fill="grey">#_values</text>
</g>
<!-- Node7 -->
<g id="Node000007" class="node">
<title>Node7</title>
<g id="a_Node000007"><a xlink:title=" ">
<polygon fill="white" stroke="none" points="82.25,-1092 0,-1092 0,-1040 82.25,-1040 82.25,-1092"/>
<text xml:space="preserve" text-anchor="start" x="4" y="-1078.5" font-family="Helvetica,sans-Serif" font-size="10.00">std::map&lt; K, T &gt;</text>
<text xml:space="preserve" text-anchor="start" x="39.62" y="-1062.5" font-family="Helvetica,sans-Serif" font-size="10.00"> </text>
<text xml:space="preserve" text-anchor="start" x="39.62" y="-1046.5" font-family="Helvetica,sans-Serif" font-size="10.00"> </text>
<polygon fill="#666666" stroke="#666666" points="0,-1074 0,-1074 82.25,-1074 82.25,-1074 0,-1074"/>
<polygon fill="#666666" stroke="#666666" points="0,-1058 0,-1058 82.25,-1058 82.25,-1058 0,-1058"/>
<polygon fill="none" stroke="#666666" points="0,-1040 0,-1092 82.25,-1092 82.25,-1040 0,-1040"/>
</a>
</g>
</g>
<!-- Node7&#45;&gt;Node2 -->
<g id="edge10_Node000002_Node000007" class="edge">
<title>Node7&#45;&gt;Node2</title>
<g id="a_edge10_Node000002_Node000007"><a xlink:title=" ">
<path fill="none" stroke="orange" d="M33.42,-1028.94C16.1,-939.1 -18.34,-700.12 63.12,-528 72.81,-507.54 89.14,-488.58 104.36,-473.79"/>
<polygon fill="orange" stroke="orange" points="29.97,-1029.51 35.34,-1038.64 36.83,-1028.15 29.97,-1029.51"/>
</a>
</g>
<text xml:space="preserve" text-anchor="start" x="17.51" y="-875.5" font-family="Helvetica,sans-Serif" font-size="10.00" fill="grey">&lt; std::string, anch</text>
<text xml:space="preserve" text-anchor="start" x="17.51" y="-859.5" font-family="Helvetica,sans-Serif" font-size="10.00" fill="grey">  ::sql::PreparedStatement * &gt;</text>
</g>
<!-- Node7&#45;&gt;Node6 -->
<g id="edge7_Node000006_Node000007" class="edge">
<title>Node7&#45;&gt;Node6</title>
<g id="a_edge7_Node000006_Node000007"><a xlink:title=" ">
<path fill="none" stroke="orange" d="M55.78,-1029.95C62.84,-1015.82 72.32,-1000.04 83.88,-988 93.59,-977.87 105.84,-969.02 117.82,-961.72"/>
<polygon fill="orange" stroke="orange" points="52.62,-1028.45 51.5,-1038.98 58.94,-1031.45 52.62,-1028.45"/>
</a>
</g>
<text xml:space="preserve" text-anchor="start" x="86.88" y="-1009.5" font-family="Helvetica,sans-Serif" font-size="10.00" fill="grey">&lt; std::size_t, std</text>
<text xml:space="preserve" text-anchor="start" x="86.88" y="-993.5" font-family="Helvetica,sans-Serif" font-size="10.00" fill="grey">  ::string &gt;</text>
</g>
<!-- Node8 -->
<g id="Node000008" class="node">
<title>Node8</title>
<g id="a_Node000008"><a xlink:title=" ">
<polygon fill="white" stroke="none" points="43.5,-1204 28.75,-1204 28.75,-1152 43.5,-1152 43.5,-1204"/>
<text xml:space="preserve" text-anchor="start" x="32.75" y="-1190.5" font-family="Helvetica,sans-Serif" font-size="10.00">K</text>
<text xml:space="preserve" text-anchor="start" x="34.62" y="-1174.5" font-family="Helvetica,sans-Serif" font-size="10.00"> </text>
<text xml:space="preserve" text-anchor="start" x="34.62" y="-1158.5" font-family="Helvetica,sans-Serif" font-size="10.00"> </text>
<polygon fill="#bfbfbf" stroke="#bfbfbf" points="28.75,-1186 28.75,-1186 43.5,-1186 43.5,-1186 28.75,-1186"/>
<polygon fill="#bfbfbf" stroke="#bfbfbf" points="28.75,-1170 28.75,-1170 43.5,-1170 43.5,-1170 28.75,-1170"/>
<polygon fill="none" stroke="#bfbfbf" points="28.75,-1152 28.75,-1204 43.5,-1204 43.5,-1152 28.75,-1152"/>
</a>
</g>
</g>
<!-- Node8&#45;&gt;Node7 -->
<g id="edge8_Node000007_Node000008" class="edge">
<title>Node8&#45;&gt;Node7</title>
<g id="a_edge8_Node000007_Node000008"><a xlink:title=" ">
<path fill="none" stroke="#63b8ff" d="M36.04,-1152.17C36.11,-1139.53 36.37,-1123.94 37.12,-1110 37.21,-1108.36 37.32,-1106.68 37.43,-1104.99"/>
<polygon fill="none" stroke="#63b8ff" points="37.44,-1104.85 33.93,-1098.55 38.4,-1092.89 41.91,-1099.19 37.44,-1104.85"/>
</a>
</g>
<text xml:space="preserve" text-anchor="start" x="40.12" y="-1115.5" font-family="Helvetica,sans-Serif" font-size="10.00" fill="grey">+keys</text>
</g>
<!-- Node9 -->
<g id="Node000009" class="node">
<title>Node9</title>
<g id="a_Node000009"><a xlink:title=" ">
<polygon fill="white" stroke="none" points="99.12,-1204 85.12,-1204 85.12,-1152 99.12,-1152 99.12,-1204"/>
<text xml:space="preserve" text-anchor="start" x="89.12" y="-1190.5" font-family="Helvetica,sans-Serif" font-size="10.00">T</text>
<text xml:space="preserve" text-anchor="start" x="90.62" y="-1174.5" font-family="Helvetica,sans-Serif" font-size="10.00"> </text>
<text xml:space="preserve" text-anchor="start" x="90.62" y="-1158.5" font-family="Helvetica,sans-Serif" font-size="10.00"> </text>
<polygon fill="#bfbfbf" stroke="#bfbfbf" points="85.12,-1186 85.12,-1186 99.12,-1186 99.12,-1186 85.12,-1186"/>
<polygon fill="#bfbfbf" stroke="#bfbfbf" points="85.12,-1170 85.12,-1170 99.12,-1170 99.12,-1170 85.12,-1170"/>
<polygon fill="none" stroke="#bfbfbf" points="85.12,-1152 85.12,-1204 99.12,-1204 99.12,-1152 85.12,-1152"/>
</a>
</g>
</g>
<!-- Node9&#45;&gt;Node7 -->
<g id="edge9_Node000007_Node000009" class="edge">
<title>Node9&#45;&gt;Node7</title>
<g id="a_edge9_Node000007_Node000009"><a xlink:title=" ">
<path fill="none" stroke="#63b8ff" d="M85.75,-1152.17C82,-1139.26 76.69,-1123.41 70.12,-1110 68.95,-1107.6 67.66,-1105.18 66.29,-1102.77"/>
<polygon fill="none" stroke="#63b8ff" points="66.28,-1102.75 59.72,-1099.74 59.98,-1092.53 66.54,-1095.54 66.28,-1102.75"/>
</a>
</g>
<text xml:space="preserve" text-anchor="start" x="80.71" y="-1115.5" font-family="Helvetica,sans-Serif" font-size="10.00" fill="grey">+elements</text>
</g>
</g>
</svg>
