<?xml version="1.0" encoding="UTF-8" standalone="no"?>
<!DOCTYPE svg PUBLIC "-//W3C//DTD SVG 1.1//EN"
 "http://www.w3.org/Graphics/SVG/1.1/DTD/svg11.dtd">
<!-- Generated by graphviz version 12.1.2 (0)
 -->
<!-- Title: anch::sql::SqlConnectionFactory Pages: 1 -->
<svg width="201pt" height="289pt"
 viewBox="0.00 0.00 200.75 289.00" xmlns="http://www.w3.org/2000/svg" xmlns:xlink="http://www.w3.org/1999/xlink">
<g id="graph0" class="graph" transform="scale(1 1) rotate(0) translate(4 285)">
<title>anch::sql::SqlConnectionFactory</title>
<!-- Node1 -->
<g id="Node000001" class="node">
<title>Node1</title>
<g id="a_Node000001"><a xlink:title="SQL connection factory.">
<polygon fill="#999999" stroke="none" points="134.5,-80 15.5,-80 15.5,0 134.5,0 134.5,-80"/>
<text text-anchor="start" x="20.25" y="-66.5" font-family="Helvetica,sans-Serif" font-size="10.00">anch::sql::SqlConnection</text>
<text text-anchor="start" x="58.5" y="-54.5" font-family="Helvetica,sans-Serif" font-size="10.00">Factory</text>
<text text-anchor="start" x="73.5" y="-38.5" font-family="Helvetica,sans-Serif" font-size="10.00"> </text>
<text text-anchor="start" x="24" y="-22.5" font-family="Helvetica,sans-Serif" font-size="10.00">+</text>
<text text-anchor="start" x="38.5" y="-22.5" font-family="Helvetica,sans-Serif" font-size="10.00">createConnection()</text>
<text text-anchor="start" x="24" y="-6.5" font-family="Helvetica,sans-Serif" font-size="10.00">+</text>
<text text-anchor="start" x="38.5" y="-6.5" font-family="Helvetica,sans-Serif" font-size="10.00">getPool()</text>
<polygon fill="#666666" stroke="#666666" points="15.5,-50 15.5,-50 134.5,-50 134.5,-50 15.5,-50"/>
<polygon fill="#666666" stroke="#666666" points="15.5,-34 15.5,-34 134.5,-34 134.5,-34 15.5,-34"/>
<polygon fill="none" stroke="#666666" points="15.5,0 15.5,-80 134.5,-80 134.5,0 15.5,0"/>
</a>
</g>
</g>
<!-- Node2 -->
<g id="Node000002" class="node">
<title>Node2</title>
<g id="a_Node000002"><a xlink:href="classanch_1_1_singleton.html" target="_top" xlink:title=" ">
<polygon fill="white" stroke="none" points="150,-181 0,-181 0,-117 150,-117 150,-181"/>
<text text-anchor="start" x="4.88" y="-167.5" font-family="Helvetica,sans-Serif" font-size="10.00">anch::Singleton&lt; SqlConnection</text>
<text text-anchor="start" x="54" y="-155.5" font-family="Helvetica,sans-Serif" font-size="10.00">Factory &gt;</text>
<text text-anchor="start" x="73.5" y="-139.5" font-family="Helvetica,sans-Serif" font-size="10.00"> </text>
<text text-anchor="start" x="22.5" y="-123.5" font-family="Helvetica,sans-Serif" font-size="10.00">+</text>
<text text-anchor="start" x="51" y="-123.5" font-family="Helvetica,sans-Serif" font-size="10.00">getInstance()</text>
<polygon fill="#666666" stroke="#666666" points="0,-151 0,-151 150,-151 150,-151 0,-151"/>
<polygon fill="#666666" stroke="#666666" points="0,-135 0,-135 150,-135 150,-135 0,-135"/>
<polygon fill="none" stroke="#666666" points="0,-117 0,-181 150,-181 150,-117 0,-117"/>
</a>
</g>
</g>
<!-- Node2&#45;&gt;Node1 -->
<g id="edge1_Node000001_Node000002" class="edge">
<title>Node2&#45;&gt;Node1</title>
<g id="a_edge1_Node000001_Node000002"><a xlink:title=" ">
<path fill="none" stroke="#63b8ff" d="M75,-105.75C75,-97.22 75,-88.29 75,-79.88"/>
<polygon fill="none" stroke="#63b8ff" points="71.5,-105.54 75,-115.54 78.5,-105.54 71.5,-105.54"/>
</a>
</g>
</g>
<!-- Node3 -->
<g id="Node000003" class="node">
<title>Node3</title>
<g id="a_Node000003"><a xlink:href="classanch_1_1_singleton.html" target="_top" xlink:title="Meyers&#39; singleton implementation.">
<polygon fill="white" stroke="none" points="125,-281 25,-281 25,-229 125,-229 125,-281"/>
<text text-anchor="start" x="29.62" y="-267.5" font-family="Helvetica,sans-Serif" font-size="10.00">anch::Singleton&lt; T &gt;</text>
<text text-anchor="start" x="73.5" y="-251.5" font-family="Helvetica,sans-Serif" font-size="10.00"> </text>
<text text-anchor="start" x="35" y="-235.5" font-family="Helvetica,sans-Serif" font-size="10.00">+</text>
<text text-anchor="start" x="51" y="-235.5" font-family="Helvetica,sans-Serif" font-size="10.00">getInstance()</text>
<polygon fill="#666666" stroke="#666666" points="25,-263 25,-263 125,-263 125,-263 25,-263"/>
<polygon fill="#666666" stroke="#666666" points="25,-247 25,-247 125,-247 125,-247 25,-247"/>
<polygon fill="none" stroke="#666666" points="25,-229 25,-281 125,-281 125,-229 25,-229"/>
</a>
</g>
</g>
<!-- Node3&#45;&gt;Node2 -->
<g id="edge2_Node000002_Node000003" class="edge">
<title>Node3&#45;&gt;Node2</title>
<g id="a_edge2_Node000002_Node000003"><a xlink:title=" ">
<path fill="none" stroke="orange" d="M75,-217.93C75,-205.78 75,-192.35 75,-180.65"/>
<polygon fill="orange" stroke="orange" points="71.5,-217.58 75,-227.58 78.5,-217.58 71.5,-217.58"/>
</a>
</g>
<text text-anchor="middle" x="133.88" y="-201.5" font-family="Helvetica,sans-Serif" font-size="10.00" fill="grey"> &lt; SqlConnectionFactory &gt;</text>
</g>
</g>
</svg>
