<?xml version="1.0" encoding="UTF-8" standalone="no"?>
<!DOCTYPE svg PUBLIC "-//W3C//DTD SVG 1.1//EN"
 "http://www.w3.org/Graphics/SVG/1.1/DTD/svg11.dtd">
<!-- Generated by graphviz version 12.1.2 (0)
 -->
<!-- Title: anch::date::Date::operator== Pages: 1 -->
<svg width="461pt" height="47pt"
 viewBox="0.00 0.00 461.00 47.00" xmlns="http://www.w3.org/2000/svg" xmlns:xlink="http://www.w3.org/1999/xlink">
<g id="graph0" class="graph" transform="scale(1 1) rotate(0) translate(4 43)">
<title>anch::date::Date::operator==</title>
<!-- Node1 -->
<g id="Node000001" class="node">
<title>Node1</title>
<g id="a_Node000001"><a xlink:title=" ">
<polygon fill="#999999" stroke="#666666" points="142,-39 0,-39 0,-19 142,-19 142,-39"/>
<text text-anchor="middle" x="71" y="-25.5" font-family="Helvetica,sans-Serif" font-size="10.00">anch::date::Date::operator==</text>
</a>
</g>
</g>
<!-- Node2 -->
<g id="Node000002" class="node">
<title>Node2</title>
<g id="a_Node000002"><a xlink:href="classanch_1_1date_1_1_date.html#a67ebc88fe2e013b0127fe727ccd7c656" target="_top" xlink:title=" ">
<polygon fill="white" stroke="#666666" points="453,-39 337.25,-39 337.25,-19 453,-19 453,-39"/>
<text text-anchor="middle" x="395.12" y="-25.5" font-family="Helvetica,sans-Serif" font-size="10.00">anch::date::Date::Date</text>
</a>
</g>
</g>
<!-- Node1&#45;&gt;Node2 -->
<g id="edge1_Node000001_Node000002" class="edge">
<title>Node1&#45;&gt;Node2</title>
<g id="a_edge1_Node000001_Node000002"><a xlink:title=" ">
<path fill="none" stroke="#63b8ff" d="M142.29,-29C196.73,-29 271.72,-29 325.68,-29"/>
<polygon fill="#63b8ff" stroke="#63b8ff" points="325.35,-32.5 335.35,-29 325.35,-25.5 325.35,-32.5"/>
</a>
</g>
</g>
<!-- Node3 -->
<g id="Node000003" class="node">
<title>Node3</title>
<g id="a_Node000003"><a xlink:href="classanch_1_1date_1_1_date.html#a12a4ce40c726862c624cb53edcd57485" target="_top" xlink:title=" ">
<polygon fill="white" stroke="#666666" points="301.25,-20 178,-20 178,0 301.25,0 301.25,-20"/>
<text text-anchor="middle" x="239.62" y="-6.5" font-family="Helvetica,sans-Serif" font-size="10.00">anch::date::Date::equals</text>
</a>
</g>
</g>
<!-- Node1&#45;&gt;Node3 -->
<g id="edge2_Node000001_Node000003" class="edge">
<title>Node1&#45;&gt;Node3</title>
<g id="a_edge2_Node000001_Node000003"><a xlink:title=" ">
<path fill="none" stroke="#63b8ff" d="M142.18,-21C150.16,-20.09 158.31,-19.16 166.31,-18.25"/>
<polygon fill="#63b8ff" stroke="#63b8ff" points="166.46,-21.75 176,-17.14 165.67,-14.8 166.46,-21.75"/>
</a>
</g>
</g>
<!-- Node3&#45;&gt;Node2 -->
<g id="edge3_Node000003_Node000002" class="edge">
<title>Node3&#45;&gt;Node2</title>
<g id="a_edge3_Node000003_Node000002"><a xlink:title=" ">
<path fill="none" stroke="#63b8ff" d="M301.73,-17.56C309.69,-18.55 317.88,-19.56 325.94,-20.56"/>
<polygon fill="#63b8ff" stroke="#63b8ff" points="325.36,-24.01 335.71,-21.77 326.22,-17.07 325.36,-24.01"/>
</a>
</g>
</g>
</g>
</svg>
