<?xml version="1.0" encoding="UTF-8" standalone="no"?>
<!DOCTYPE svg PUBLIC "-//W3C//DTD SVG 1.1//EN"
 "http://www.w3.org/Graphics/SVG/1.1/DTD/svg11.dtd">
<!-- Generated by graphviz version 12.2.1 (0)
 -->
<!-- Title: anch::Singleton&lt; T &gt; Pages: 1 -->
<svg width="925pt" height="437pt"
 viewBox="0.00 0.00 924.75 437.00" xmlns="http://www.w3.org/2000/svg" xmlns:xlink="http://www.w3.org/1999/xlink">
<g id="graph0" class="graph" transform="scale(1 1) rotate(0) translate(4 433)">
<title>anch::Singleton&lt; T &gt;</title>
<!-- Node1 -->
<g id="Node000001" class="node">
<title>Node1</title>
<g id="a_Node000001"><a xlink:title="Meyers&#39; singleton implementation.">
<polygon fill="#999999" stroke="none" points="471,-429 372.25,-429 372.25,-377 471,-377 471,-429"/>
<text text-anchor="start" x="376.25" y="-415.5" font-family="Helvetica,sans-Serif" font-size="10.00">anch::Singleton&lt; T &gt;</text>
<text text-anchor="start" x="420.12" y="-399.5" font-family="Helvetica,sans-Serif" font-size="10.00"> </text>
<text text-anchor="start" x="382.19" y="-383.5" font-family="Helvetica,sans-Serif" font-size="10.00">+</text>
<text text-anchor="start" x="398.12" y="-383.5" font-family="Helvetica,sans-Serif" font-size="10.00">getInstance()</text>
<polygon fill="#666666" stroke="#666666" points="372.25,-411 372.25,-411 471,-411 471,-411 372.25,-411"/>
<polygon fill="#666666" stroke="#666666" points="372.25,-395 372.25,-395 471,-395 471,-395 372.25,-395"/>
<polygon fill="none" stroke="#666666" points="372.25,-377 372.25,-429 471,-429 471,-377 372.25,-377"/>
</a>
</g>
</g>
<!-- Node2 -->
<g id="Node000002" class="node">
<title>Node2</title>
<g id="a_Node000002"><a xlink:href="classanch_1_1_singleton.html" target="_top" xlink:title=" ">
<polygon fill="white" stroke="none" points="115.25,-323 0,-323 0,-271 115.25,-271 115.25,-323"/>
<text text-anchor="start" x="4" y="-309.5" font-family="Helvetica,sans-Serif" font-size="10.00">anch::Singleton&lt; CPU &gt;</text>
<text text-anchor="start" x="56.12" y="-293.5" font-family="Helvetica,sans-Serif" font-size="10.00"> </text>
<text text-anchor="start" x="14.06" y="-277.5" font-family="Helvetica,sans-Serif" font-size="10.00">+</text>
<text text-anchor="start" x="34.12" y="-277.5" font-family="Helvetica,sans-Serif" font-size="10.00">getInstance()</text>
<polygon fill="#666666" stroke="#666666" points="0,-305 0,-305 115.25,-305 115.25,-305 0,-305"/>
<polygon fill="#666666" stroke="#666666" points="0,-289 0,-289 115.25,-289 115.25,-289 0,-289"/>
<polygon fill="none" stroke="#666666" points="0,-271 0,-323 115.25,-323 115.25,-271 0,-271"/>
</a>
</g>
</g>
<!-- Node1&#45;&gt;Node2 -->
<g id="edge1_Node000001_Node000002" class="edge">
<title>Node1&#45;&gt;Node2</title>
<g id="a_edge1_Node000001_Node000002"><a xlink:title=" ">
<path fill="none" stroke="orange" d="M361.3,-391.62C300.19,-380.08 203.53,-359.05 123.62,-329 118.65,-327.13 113.53,-325.04 108.45,-322.85"/>
<polygon fill="orange" stroke="orange" points="360.33,-394.99 370.8,-393.38 361.61,-388.11 360.33,-394.99"/>
</a>
</g>
<text text-anchor="middle" x="233.17" y="-349.5" font-family="Helvetica,sans-Serif" font-size="10.00" fill="grey"> &lt; CPU &gt;</text>
</g>
<!-- Node4 -->
<g id="Node000004" class="node">
<title>Node4</title>
<g id="a_Node000004"><a xlink:href="classanch_1_1_singleton.html" target="_top" xlink:title=" ">
<polygon fill="white" stroke="none" points="260.25,-329 133,-329 133,-265 260.25,-265 260.25,-329"/>
<text text-anchor="start" x="137" y="-315.5" font-family="Helvetica,sans-Serif" font-size="10.00">anch::Singleton&lt; EventBus</text>
<text text-anchor="start" x="180.5" y="-303.5" font-family="Helvetica,sans-Serif" font-size="10.00">&lt; T &gt; &gt;</text>
<text text-anchor="start" x="195.12" y="-287.5" font-family="Helvetica,sans-Serif" font-size="10.00"> </text>
<text text-anchor="start" x="150.06" y="-271.5" font-family="Helvetica,sans-Serif" font-size="10.00">+</text>
<text text-anchor="start" x="173.12" y="-271.5" font-family="Helvetica,sans-Serif" font-size="10.00">getInstance()</text>
<polygon fill="#666666" stroke="#666666" points="133,-299 133,-299 260.25,-299 260.25,-299 133,-299"/>
<polygon fill="#666666" stroke="#666666" points="133,-283 133,-283 260.25,-283 260.25,-283 133,-283"/>
<polygon fill="none" stroke="#666666" points="133,-265 133,-329 260.25,-329 260.25,-265 133,-265"/>
</a>
</g>
</g>
<!-- Node1&#45;&gt;Node4 -->
<g id="edge3_Node000001_Node000004" class="edge">
<title>Node1&#45;&gt;Node4</title>
<g id="a_edge3_Node000001_Node000004"><a xlink:title=" ">
<path fill="none" stroke="orange" d="M361.54,-383.98C340.9,-377.06 317.91,-368.51 297.62,-359 279.26,-350.39 260,-339.31 243.28,-328.97"/>
<polygon fill="orange" stroke="orange" points="360.37,-387.29 370.96,-387.08 362.56,-380.64 360.37,-387.29"/>
</a>
</g>
<text text-anchor="middle" x="341.12" y="-349.5" font-family="Helvetica,sans-Serif" font-size="10.00" fill="grey"> &lt; EventBus&lt; T &gt; &gt;</text>
</g>
<!-- Node6 -->
<g id="Node000006" class="node">
<title>Node6</title>
<g id="a_Node000006"><a xlink:href="classanch_1_1_singleton.html" target="_top" xlink:title=" ">
<polygon fill="white" stroke="none" points="434.5,-323 278.75,-323 278.75,-271 434.5,-271 434.5,-323"/>
<text text-anchor="start" x="282.75" y="-309.5" font-family="Helvetica,sans-Serif" font-size="10.00">anch::Singleton&lt; LoggerFactory &gt;</text>
<text text-anchor="start" x="355.12" y="-293.5" font-family="Helvetica,sans-Serif" font-size="10.00"> </text>
<text text-anchor="start" x="302.94" y="-277.5" font-family="Helvetica,sans-Serif" font-size="10.00">+</text>
<text text-anchor="start" x="333.12" y="-277.5" font-family="Helvetica,sans-Serif" font-size="10.00">getInstance()</text>
<polygon fill="#666666" stroke="#666666" points="278.75,-305 278.75,-305 434.5,-305 434.5,-305 278.75,-305"/>
<polygon fill="#666666" stroke="#666666" points="278.75,-289 278.75,-289 434.5,-289 434.5,-289 278.75,-289"/>
<polygon fill="none" stroke="#666666" points="278.75,-271 278.75,-323 434.5,-323 434.5,-271 278.75,-271"/>
</a>
</g>
</g>
<!-- Node1&#45;&gt;Node6 -->
<g id="edge5_Node000001_Node000006" class="edge">
<title>Node1&#45;&gt;Node6</title>
<g id="a_edge5_Node000001_Node000006"><a xlink:title=" ">
<path fill="none" stroke="orange" d="M399.98,-367.36C390.84,-352.74 380.41,-336.05 372.07,-322.71"/>
<polygon fill="orange" stroke="orange" points="396.99,-369.18 405.25,-375.81 402.92,-365.47 396.99,-369.18"/>
</a>
</g>
<text text-anchor="middle" x="434.64" y="-349.5" font-family="Helvetica,sans-Serif" font-size="10.00" fill="grey"> &lt; LoggerFactory &gt;</text>
</g>
<!-- Node8 -->
<g id="Node000008" class="node">
<title>Node8</title>
<g id="a_Node000008"><a xlink:href="classanch_1_1_singleton.html" target="_top" xlink:title=" ">
<polygon fill="white" stroke="none" points="596.88,-329 452.38,-329 452.38,-265 596.88,-265 596.88,-329"/>
<text text-anchor="start" x="456.38" y="-315.5" font-family="Helvetica,sans-Serif" font-size="10.00">anch::Singleton&lt; GlobalMapper</text>
<text text-anchor="start" x="501.75" y="-303.5" font-family="Helvetica,sans-Serif" font-size="10.00">Registry &gt;</text>
<text text-anchor="start" x="523.12" y="-287.5" font-family="Helvetica,sans-Serif" font-size="10.00"> </text>
<text text-anchor="start" x="473.75" y="-271.5" font-family="Helvetica,sans-Serif" font-size="10.00">+</text>
<text text-anchor="start" x="501.12" y="-271.5" font-family="Helvetica,sans-Serif" font-size="10.00">getInstance()</text>
<polygon fill="#666666" stroke="#666666" points="452.38,-299 452.38,-299 596.88,-299 596.88,-299 452.38,-299"/>
<polygon fill="#666666" stroke="#666666" points="452.38,-283 452.38,-283 596.88,-283 596.88,-283 452.38,-283"/>
<polygon fill="none" stroke="#666666" points="452.38,-265 452.38,-329 596.88,-329 596.88,-265 452.38,-265"/>
</a>
</g>
</g>
<!-- Node1&#45;&gt;Node8 -->
<g id="edge7_Node000001_Node000008" class="edge">
<title>Node1&#45;&gt;Node8</title>
<g id="a_edge7_Node000001_Node000008"><a xlink:title=" ">
<path fill="none" stroke="orange" d="M468.46,-370.04C472.73,-366.49 476.86,-362.79 480.62,-359 489.56,-350.02 498.04,-339.09 505.13,-328.97"/>
<polygon fill="orange" stroke="orange" points="466.43,-367.19 460.77,-376.14 470.78,-372.67 466.43,-367.19"/>
</a>
</g>
<text text-anchor="middle" x="549.17" y="-349.5" font-family="Helvetica,sans-Serif" font-size="10.00" fill="grey"> &lt; GlobalMapperRegistry &gt;</text>
</g>
<!-- Node10 -->
<g id="Node000010" class="node">
<title>Node10</title>
<g id="a_Node000010"><a xlink:href="classanch_1_1_singleton.html" target="_top" xlink:title=" ">
<polygon fill="white" stroke="none" points="750,-329 615.25,-329 615.25,-265 750,-265 750,-329"/>
<text text-anchor="start" x="619.25" y="-315.5" font-family="Helvetica,sans-Serif" font-size="10.00">anch::Singleton&lt; SQLShared</text>
<text text-anchor="start" x="659.75" y="-303.5" font-family="Helvetica,sans-Serif" font-size="10.00">Libraries &gt;</text>
<text text-anchor="start" x="681.12" y="-287.5" font-family="Helvetica,sans-Serif" font-size="10.00"> </text>
<text text-anchor="start" x="634.19" y="-271.5" font-family="Helvetica,sans-Serif" font-size="10.00">+</text>
<text text-anchor="start" x="659.12" y="-271.5" font-family="Helvetica,sans-Serif" font-size="10.00">getInstance()</text>
<polygon fill="#666666" stroke="#666666" points="615.25,-299 615.25,-299 750,-299 750,-299 615.25,-299"/>
<polygon fill="#666666" stroke="#666666" points="615.25,-283 615.25,-283 750,-283 750,-283 615.25,-283"/>
<polygon fill="none" stroke="#666666" points="615.25,-265 615.25,-329 750,-329 750,-265 615.25,-265"/>
</a>
</g>
</g>
<!-- Node1&#45;&gt;Node10 -->
<g id="edge9_Node000001_Node000010" class="edge">
<title>Node1&#45;&gt;Node10</title>
<g id="a_edge9_Node000001_Node000010"><a xlink:title=" ">
<path fill="none" stroke="orange" d="M481.76,-395.98C520.46,-390.31 570.93,-379.48 611.62,-359 626.72,-351.4 641.27,-339.91 653.23,-328.94"/>
<polygon fill="orange" stroke="orange" points="481.59,-392.47 472.17,-397.3 482.55,-399.4 481.59,-392.47"/>
</a>
</g>
<text text-anchor="middle" x="683.08" y="-349.5" font-family="Helvetica,sans-Serif" font-size="10.00" fill="grey"> &lt; SQLSharedLibraries &gt;</text>
</g>
<!-- Node12 -->
<g id="Node000012" class="node">
<title>Node12</title>
<g id="a_Node000012"><a xlink:href="classanch_1_1_singleton.html" target="_top" xlink:title=" ">
<polygon fill="white" stroke="none" points="916.75,-329 768.5,-329 768.5,-265 916.75,-265 916.75,-329"/>
<text text-anchor="start" x="772.5" y="-315.5" font-family="Helvetica,sans-Serif" font-size="10.00">anch::Singleton&lt; SqlConnection</text>
<text text-anchor="start" x="821.62" y="-303.5" font-family="Helvetica,sans-Serif" font-size="10.00">Factory &gt;</text>
<text text-anchor="start" x="841.12" y="-287.5" font-family="Helvetica,sans-Serif" font-size="10.00"> </text>
<text text-anchor="start" x="790.81" y="-271.5" font-family="Helvetica,sans-Serif" font-size="10.00">+</text>
<text text-anchor="start" x="819.12" y="-271.5" font-family="Helvetica,sans-Serif" font-size="10.00">getInstance()</text>
<polygon fill="#666666" stroke="#666666" points="768.5,-299 768.5,-299 916.75,-299 916.75,-299 768.5,-299"/>
<polygon fill="#666666" stroke="#666666" points="768.5,-283 768.5,-283 916.75,-283 916.75,-283 768.5,-283"/>
<polygon fill="none" stroke="#666666" points="768.5,-265 768.5,-329 916.75,-329 916.75,-265 768.5,-265"/>
</a>
</g>
</g>
<!-- Node1&#45;&gt;Node12 -->
<g id="edge11_Node000001_Node000012" class="edge">
<title>Node1&#45;&gt;Node12</title>
<g id="a_edge11_Node000001_Node000012"><a xlink:title=" ">
<path fill="none" stroke="orange" d="M482.2,-401.05C547.65,-398.39 654.16,-389.24 740.62,-359 761.27,-351.78 782.31,-340.08 799.87,-328.85"/>
<polygon fill="orange" stroke="orange" points="482.25,-397.55 472.38,-401.41 482.5,-404.54 482.25,-397.55"/>
</a>
</g>
<text text-anchor="middle" x="826.33" y="-349.5" font-family="Helvetica,sans-Serif" font-size="10.00" fill="grey"> &lt; SqlConnectionFactory &gt;</text>
</g>
<!-- Node3 -->
<g id="Node000003" class="node">
<title>Node3</title>
<g id="a_Node000003"><a xlink:href="classanch_1_1device_1_1_c_p_u.html" target="_top" xlink:title="CPU features detection.">
<polygon fill="white" stroke="none" points="103.25,-204 12,-204 12,-24 103.25,-24 103.25,-204"/>
<text text-anchor="start" x="16" y="-190.5" font-family="Helvetica,sans-Serif" font-size="10.00">anch::device::CPU</text>
<text text-anchor="start" x="56.12" y="-174.5" font-family="Helvetica,sans-Serif" font-size="10.00"> </text>
<text text-anchor="start" x="21.94" y="-158.5" font-family="Helvetica,sans-Serif" font-size="10.00">+</text>
<text text-anchor="start" x="37.88" y="-158.5" font-family="Helvetica,sans-Serif" font-size="10.00">isAES()</text>
<text text-anchor="start" x="21.94" y="-142.5" font-family="Helvetica,sans-Serif" font-size="10.00">+</text>
<text text-anchor="start" x="37.88" y="-142.5" font-family="Helvetica,sans-Serif" font-size="10.00">isMMX()</text>
<text text-anchor="start" x="21.94" y="-126.5" font-family="Helvetica,sans-Serif" font-size="10.00">+</text>
<text text-anchor="start" x="37.88" y="-126.5" font-family="Helvetica,sans-Serif" font-size="10.00">isSSE()</text>
<text text-anchor="start" x="21.94" y="-110.5" font-family="Helvetica,sans-Serif" font-size="10.00">+</text>
<text text-anchor="start" x="37.88" y="-110.5" font-family="Helvetica,sans-Serif" font-size="10.00">isSSE2()</text>
<text text-anchor="start" x="21.94" y="-94.5" font-family="Helvetica,sans-Serif" font-size="10.00">+</text>
<text text-anchor="start" x="37.88" y="-94.5" font-family="Helvetica,sans-Serif" font-size="10.00">isSSE3()</text>
<text text-anchor="start" x="21.94" y="-78.5" font-family="Helvetica,sans-Serif" font-size="10.00">+</text>
<text text-anchor="start" x="37.88" y="-78.5" font-family="Helvetica,sans-Serif" font-size="10.00">isSSSE3()</text>
<text text-anchor="start" x="21.94" y="-62.5" font-family="Helvetica,sans-Serif" font-size="10.00">+</text>
<text text-anchor="start" x="37.88" y="-62.5" font-family="Helvetica,sans-Serif" font-size="10.00">isSSE4()</text>
<text text-anchor="start" x="21.94" y="-46.5" font-family="Helvetica,sans-Serif" font-size="10.00">+</text>
<text text-anchor="start" x="37.88" y="-46.5" font-family="Helvetica,sans-Serif" font-size="10.00">isSSE4_1()</text>
<text text-anchor="start" x="21.94" y="-30.5" font-family="Helvetica,sans-Serif" font-size="10.00">+</text>
<text text-anchor="start" x="37.88" y="-30.5" font-family="Helvetica,sans-Serif" font-size="10.00">isSSE4_2()</text>
<polygon fill="#666666" stroke="#666666" points="12,-186 12,-186 103.25,-186 103.25,-186 12,-186"/>
<polygon fill="#666666" stroke="#666666" points="12,-170 12,-170 103.25,-170 103.25,-170 12,-170"/>
<polygon fill="none" stroke="#666666" points="12,-24 12,-204 103.25,-204 103.25,-24 12,-24"/>
</a>
</g>
</g>
<!-- Node2&#45;&gt;Node3 -->
<g id="edge2_Node000002_Node000003" class="edge">
<title>Node2&#45;&gt;Node3</title>
<g id="a_edge2_Node000002_Node000003"><a xlink:title=" ">
<path fill="none" stroke="#63b8ff" d="M57.62,-260.05C57.62,-243.73 57.62,-223.64 57.62,-203.66"/>
<polygon fill="none" stroke="#63b8ff" points="54.13,-259.7 57.63,-269.7 61.13,-259.7 54.13,-259.7"/>
</a>
</g>
</g>
<!-- Node5 -->
<g id="Node000005" class="node">
<title>Node5</title>
<g id="a_Node000005"><a xlink:href="classanch_1_1events_1_1_event_bus.html" target="_top" xlink:title="A class which manage global events firing and events QoS.">
<polygon fill="white" stroke="none" points="264.75,-228 128.5,-228 128.5,0 264.75,0 264.75,-228"/>
<text text-anchor="start" x="132.5" y="-214.5" font-family="Helvetica,sans-Serif" font-size="10.00">anch::events::EventBus&lt; T &gt;</text>
<text text-anchor="start" x="195.12" y="-198.5" font-family="Helvetica,sans-Serif" font-size="10.00"> </text>
<text text-anchor="start" x="141.06" y="-182.5" font-family="Helvetica,sans-Serif" font-size="10.00">+</text>
<text text-anchor="start" x="159.62" y="-182.5" font-family="Helvetica,sans-Serif" font-size="10.00">addObserver()</text>
<text text-anchor="start" x="141.06" y="-166.5" font-family="Helvetica,sans-Serif" font-size="10.00">+</text>
<text text-anchor="start" x="159.62" y="-166.5" font-family="Helvetica,sans-Serif" font-size="10.00">removeObserver()</text>
<text text-anchor="start" x="141.06" y="-150.5" font-family="Helvetica,sans-Serif" font-size="10.00">+</text>
<text text-anchor="start" x="159.62" y="-150.5" font-family="Helvetica,sans-Serif" font-size="10.00">fireEvent()</text>
<text text-anchor="start" x="141.06" y="-134.5" font-family="Helvetica,sans-Serif" font-size="10.00">+</text>
<text text-anchor="start" x="159.62" y="-134.5" font-family="Helvetica,sans-Serif" font-size="10.00">fireEvent()</text>
<text text-anchor="start" x="141.06" y="-118.5" font-family="Helvetica,sans-Serif" font-size="10.00">+</text>
<text text-anchor="start" x="159.62" y="-118.5" font-family="Helvetica,sans-Serif" font-size="10.00">scheduleDeferred()</text>
<text text-anchor="start" x="141.06" y="-102.5" font-family="Helvetica,sans-Serif" font-size="10.00">+</text>
<text text-anchor="start" x="159.62" y="-102.5" font-family="Helvetica,sans-Serif" font-size="10.00">scheduleDeferred()</text>
<text text-anchor="start" x="141.06" y="-86.5" font-family="Helvetica,sans-Serif" font-size="10.00">+</text>
<text text-anchor="start" x="159.62" y="-86.5" font-family="Helvetica,sans-Serif" font-size="10.00">AddObserver()</text>
<text text-anchor="start" x="141.06" y="-70.5" font-family="Helvetica,sans-Serif" font-size="10.00">+</text>
<text text-anchor="start" x="159.62" y="-70.5" font-family="Helvetica,sans-Serif" font-size="10.00">RemoveObserver()</text>
<text text-anchor="start" x="141.06" y="-54.5" font-family="Helvetica,sans-Serif" font-size="10.00">+</text>
<text text-anchor="start" x="159.62" y="-54.5" font-family="Helvetica,sans-Serif" font-size="10.00">FireEvent()</text>
<text text-anchor="start" x="141.06" y="-38.5" font-family="Helvetica,sans-Serif" font-size="10.00">+</text>
<text text-anchor="start" x="159.62" y="-38.5" font-family="Helvetica,sans-Serif" font-size="10.00">FireEvent()</text>
<text text-anchor="start" x="141.06" y="-22.5" font-family="Helvetica,sans-Serif" font-size="10.00">+</text>
<text text-anchor="start" x="159.62" y="-22.5" font-family="Helvetica,sans-Serif" font-size="10.00">ScheduleDeferred()</text>
<text text-anchor="start" x="141.06" y="-6.5" font-family="Helvetica,sans-Serif" font-size="10.00">+</text>
<text text-anchor="start" x="159.62" y="-6.5" font-family="Helvetica,sans-Serif" font-size="10.00">ScheduleDeferred()</text>
<polygon fill="#666666" stroke="#666666" points="128.5,-210 128.5,-210 264.75,-210 264.75,-210 128.5,-210"/>
<polygon fill="#666666" stroke="#666666" points="128.5,-194 128.5,-194 264.75,-194 264.75,-194 128.5,-194"/>
<polygon fill="none" stroke="#666666" points="128.5,0 128.5,-228 264.75,-228 264.75,0 128.5,0"/>
</a>
</g>
</g>
<!-- Node4&#45;&gt;Node5 -->
<g id="edge4_Node000004_Node000005" class="edge">
<title>Node4&#45;&gt;Node5</title>
<g id="a_edge4_Node000004_Node000005"><a xlink:title=" ">
<path fill="none" stroke="#63b8ff" d="M196.62,-253.95C196.62,-245.8 196.62,-236.92 196.62,-227.71"/>
<polygon fill="none" stroke="#63b8ff" points="193.13,-253.78 196.63,-263.78 200.13,-253.78 193.13,-253.78"/>
</a>
</g>
</g>
<!-- Node7 -->
<g id="Node000007" class="node">
<title>Node7</title>
<g id="a_Node000007"><a xlink:href="classanch_1_1logger_1_1_logger_factory.html" target="_top" xlink:title="Logger factory.">
<polygon fill="white" stroke="none" points="421.38,-140 291.88,-140 291.88,-88 421.38,-88 421.38,-140"/>
<text text-anchor="start" x="295.88" y="-126.5" font-family="Helvetica,sans-Serif" font-size="10.00">anch::logger::LoggerFactory</text>
<text text-anchor="start" x="310.06" y="-110.5" font-family="Helvetica,sans-Serif" font-size="10.00">+</text>
<text text-anchor="start" x="334.25" y="-110.5" font-family="Helvetica,sans-Serif" font-size="10.00">CONF_FILE</text>
<text text-anchor="start" x="310.06" y="-94.5" font-family="Helvetica,sans-Serif" font-size="10.00">+</text>
<text text-anchor="start" x="334.25" y="-94.5" font-family="Helvetica,sans-Serif" font-size="10.00">getLogger()</text>
<polygon fill="#666666" stroke="#666666" points="291.88,-122 291.88,-122 421.38,-122 421.38,-122 291.88,-122"/>
<polygon fill="#666666" stroke="#666666" points="291.88,-106 291.88,-106 332.25,-106 332.25,-106 291.88,-106"/>
<polygon fill="#666666" stroke="#666666" points="332.25,-106 332.25,-106 421.38,-106 421.38,-106 332.25,-106"/>
<polygon fill="none" stroke="#666666" points="291.88,-88 291.88,-140 421.38,-140 421.38,-88 291.88,-88"/>
</a>
</g>
</g>
<!-- Node6&#45;&gt;Node7 -->
<g id="edge6_Node000006_Node000007" class="edge">
<title>Node6&#45;&gt;Node7</title>
<g id="a_edge6_Node000006_Node000007"><a xlink:title=" ">
<path fill="none" stroke="#63b8ff" d="M356.62,-259.88C356.62,-224.28 356.62,-170.83 356.62,-139.78"/>
<polygon fill="none" stroke="#63b8ff" points="353.13,-259.7 356.63,-269.7 360.13,-259.7 353.13,-259.7"/>
</a>
</g>
</g>
<!-- Node9 -->
<g id="Node000009" class="node">
<title>Node9</title>
<g id="a_Node000009"><a xlink:href="classanch_1_1rest_1_1_global_mapper_registry.html" target="_top" xlink:title=" ">
<polygon fill="white" stroke="none" points="583.38,-146 465.88,-146 465.88,-82 583.38,-82 583.38,-146"/>
<text text-anchor="start" x="469.88" y="-132.5" font-family="Helvetica,sans-Serif" font-size="10.00">anch::rest::GlobalMapper</text>
<text text-anchor="start" x="506.25" y="-120.5" font-family="Helvetica,sans-Serif" font-size="10.00">Registry</text>
<text text-anchor="start" x="523.12" y="-104.5" font-family="Helvetica,sans-Serif" font-size="10.00"> </text>
<text text-anchor="start" x="523.12" y="-88.5" font-family="Helvetica,sans-Serif" font-size="10.00"> </text>
<polygon fill="#666666" stroke="#666666" points="465.88,-116 465.88,-116 583.38,-116 583.38,-116 465.88,-116"/>
<polygon fill="#666666" stroke="#666666" points="465.88,-100 465.88,-100 583.38,-100 583.38,-100 465.88,-100"/>
<polygon fill="none" stroke="#666666" points="465.88,-82 465.88,-146 583.38,-146 583.38,-82 465.88,-82"/>
</a>
</g>
</g>
<!-- Node8&#45;&gt;Node9 -->
<g id="edge8_Node000008_Node000009" class="edge">
<title>Node8&#45;&gt;Node9</title>
<g id="a_edge8_Node000008_Node000009"><a xlink:title=" ">
<path fill="none" stroke="#63b8ff" d="M524.62,-254.16C524.62,-221.09 524.62,-175.68 524.62,-145.85"/>
<polygon fill="none" stroke="#63b8ff" points="521.13,-253.78 524.63,-263.78 528.13,-253.78 521.13,-253.78"/>
</a>
</g>
</g>
<!-- Node11 -->
<g id="Node000011" class="node">
<title>Node11</title>
<g id="a_Node000011"><a xlink:href="classanch_1_1sql_1_1_s_q_l_shared_libraries.html" target="_top" xlink:title="SQL shared libraries manager.">
<polygon fill="white" stroke="none" points="753,-180 612.25,-180 612.25,-48 753,-48 753,-180"/>
<text text-anchor="start" x="616.25" y="-166.5" font-family="Helvetica,sans-Serif" font-size="10.00">anch::sql::SQLSharedLibraries</text>
<text text-anchor="start" x="681.12" y="-150.5" font-family="Helvetica,sans-Serif" font-size="10.00"> </text>
<text text-anchor="start" x="619.38" y="-134.5" font-family="Helvetica,sans-Serif" font-size="10.00">+</text>
<text text-anchor="start" x="632.5" y="-134.5" font-family="Helvetica,sans-Serif" font-size="10.00">registerSQLLibrary()</text>
<text text-anchor="start" x="619.38" y="-118.5" font-family="Helvetica,sans-Serif" font-size="10.00">+</text>
<text text-anchor="start" x="632.5" y="-118.5" font-family="Helvetica,sans-Serif" font-size="10.00">makeSharedConnection()</text>
<text text-anchor="start" x="619.38" y="-102.5" font-family="Helvetica,sans-Serif" font-size="10.00">+</text>
<text text-anchor="start" x="632.5" y="-102.5" font-family="Helvetica,sans-Serif" font-size="10.00">makeConnection()</text>
<text text-anchor="start" x="619.38" y="-86.5" font-family="Helvetica,sans-Serif" font-size="10.00">+</text>
<text text-anchor="start" x="632.5" y="-86.5" font-family="Helvetica,sans-Serif" font-size="10.00">registerMySQL()</text>
<text text-anchor="start" x="619.38" y="-70.5" font-family="Helvetica,sans-Serif" font-size="10.00">+</text>
<text text-anchor="start" x="632.5" y="-70.5" font-family="Helvetica,sans-Serif" font-size="10.00">registerPostgreSQL()</text>
<text text-anchor="start" x="619.38" y="-54.5" font-family="Helvetica,sans-Serif" font-size="10.00">+</text>
<text text-anchor="start" x="632.5" y="-54.5" font-family="Helvetica,sans-Serif" font-size="10.00">registerSQLite()</text>
<polygon fill="#666666" stroke="#666666" points="612.25,-162 612.25,-162 753,-162 753,-162 612.25,-162"/>
<polygon fill="#666666" stroke="#666666" points="612.25,-146 612.25,-146 753,-146 753,-146 612.25,-146"/>
<polygon fill="none" stroke="#666666" points="612.25,-48 612.25,-180 753,-180 753,-48 612.25,-48"/>
</a>
</g>
</g>
<!-- Node10&#45;&gt;Node11 -->
<g id="edge10_Node000010_Node000011" class="edge">
<title>Node10&#45;&gt;Node11</title>
<g id="a_edge10_Node000010_Node000011"><a xlink:title=" ">
<path fill="none" stroke="#63b8ff" d="M682.62,-253.98C682.62,-231.92 682.62,-204.4 682.62,-179.69"/>
<polygon fill="none" stroke="#63b8ff" points="679.13,-253.78 682.63,-263.78 686.13,-253.78 679.13,-253.78"/>
</a>
</g>
</g>
<!-- Node13 -->
<g id="Node000013" class="node">
<title>Node13</title>
<g id="a_Node000013"><a xlink:href="classanch_1_1sql_1_1_sql_connection_factory.html" target="_top" xlink:title="SQL connection factory.">
<polygon fill="white" stroke="none" points="901.38,-154 783.88,-154 783.88,-74 901.38,-74 901.38,-154"/>
<text text-anchor="start" x="787.88" y="-140.5" font-family="Helvetica,sans-Serif" font-size="10.00">anch::sql::SqlConnection</text>
<text text-anchor="start" x="826.12" y="-128.5" font-family="Helvetica,sans-Serif" font-size="10.00">Factory</text>
<text text-anchor="start" x="841.12" y="-112.5" font-family="Helvetica,sans-Serif" font-size="10.00"> </text>
<text text-anchor="start" x="792.12" y="-96.5" font-family="Helvetica,sans-Serif" font-size="10.00">+</text>
<text text-anchor="start" x="806.38" y="-96.5" font-family="Helvetica,sans-Serif" font-size="10.00">createConnection()</text>
<text text-anchor="start" x="792.12" y="-80.5" font-family="Helvetica,sans-Serif" font-size="10.00">+</text>
<text text-anchor="start" x="806.38" y="-80.5" font-family="Helvetica,sans-Serif" font-size="10.00">getPool()</text>
<polygon fill="#666666" stroke="#666666" points="783.88,-124 783.88,-124 901.38,-124 901.38,-124 783.88,-124"/>
<polygon fill="#666666" stroke="#666666" points="783.88,-108 783.88,-108 901.38,-108 901.38,-108 783.88,-108"/>
<polygon fill="none" stroke="#666666" points="783.88,-74 783.88,-154 901.38,-154 901.38,-74 783.88,-74"/>
</a>
</g>
</g>
<!-- Node12&#45;&gt;Node13 -->
<g id="edge12_Node000012_Node000013" class="edge">
<title>Node12&#45;&gt;Node13</title>
<g id="a_edge12_Node000012_Node000013"><a xlink:title=" ">
<path fill="none" stroke="#63b8ff" d="M842.62,-253.84C842.62,-223.61 842.62,-183.18 842.62,-153.75"/>
<polygon fill="none" stroke="#63b8ff" points="839.13,-253.78 842.63,-263.78 846.13,-253.78 839.13,-253.78"/>
</a>
</g>
</g>
</g>
</svg>
