<?xml version="1.0" encoding="UTF-8" standalone="no"?>
<!DOCTYPE svg PUBLIC "-//W3C//DTD SVG 1.1//EN"
 "http://www.w3.org/Graphics/SVG/1.1/DTD/svg11.dtd">
<!-- Generated by graphviz version 2.40.1 (20161225.0304)
 -->
<!-- Title: anch::sql::SqlConnectionFactory Pages: 1 -->
<svg width="226pt" height="299pt"
 viewBox="0.00 0.00 225.50 299.00" xmlns="http://www.w3.org/2000/svg" xmlns:xlink="http://www.w3.org/1999/xlink">
<g id="graph0" class="graph" transform="scale(1 1) rotate(0) translate(4 295)">
<title>anch::sql::SqlConnectionFactory</title>
<!-- Node3 -->
<g id="node1" class="node">
<title>Node3</title>
<polygon fill="#bfbfbf" stroke="#000000" points="18.5,-.5 18.5,-79.5 154.5,-79.5 154.5,-.5 18.5,-.5"/>
<text text-anchor="start" x="26.5" y="-67.5" font-family="Helvetica,sans-Serif" font-size="10.00" fill="#000000">anch::sql::SqlConnection</text>
<text text-anchor="middle" x="86.5" y="-56.5" font-family="Helvetica,sans-Serif" font-size="10.00" fill="#000000">Factory</text>
<polyline fill="none" stroke="#000000" points="18.5,-49.5 154.5,-49.5 "/>
<text text-anchor="middle" x="86.5" y="-37.5" font-family="Helvetica,sans-Serif" font-size="10.00" fill="#000000"> </text>
<polyline fill="none" stroke="#000000" points="18.5,-30.5 154.5,-30.5 "/>
<text text-anchor="start" x="26.5" y="-18.5" font-family="Helvetica,sans-Serif" font-size="10.00" fill="#000000">+ createConnection()</text>
<text text-anchor="start" x="26.5" y="-7.5" font-family="Helvetica,sans-Serif" font-size="10.00" fill="#000000">+ getPool()</text>
</g>
<!-- Node4 -->
<g id="node2" class="node">
<title>Node4</title>
<g id="a_node2"><a xlink:href="classanch_1_1_singleton.html" target="_top" xlink:title="{anch::Singleton\&lt; SqlConnection\lFactory \&gt;\n||+ getInstance()\l}">
<polygon fill="none" stroke="#000000" points="0,-117.5 0,-185.5 173,-185.5 173,-117.5 0,-117.5"/>
<text text-anchor="start" x="8" y="-173.5" font-family="Helvetica,sans-Serif" font-size="10.00" fill="#000000">anch::Singleton&lt; SqlConnection</text>
<text text-anchor="middle" x="86.5" y="-162.5" font-family="Helvetica,sans-Serif" font-size="10.00" fill="#000000">Factory &gt;</text>
<polyline fill="none" stroke="#000000" points="0,-155.5 173,-155.5 "/>
<text text-anchor="middle" x="86.5" y="-143.5" font-family="Helvetica,sans-Serif" font-size="10.00" fill="#000000"> </text>
<polyline fill="none" stroke="#000000" points="0,-136.5 173,-136.5 "/>
<text text-anchor="start" x="8" y="-124.5" font-family="Helvetica,sans-Serif" font-size="10.00" fill="#000000">+ getInstance()</text>
</a>
</g>
</g>
<!-- Node4&#45;&gt;Node3 -->
<g id="edge1" class="edge">
<title>Node4&#45;&gt;Node3</title>
<path fill="none" stroke="#191970" d="M86.5,-107.3732C86.5,-98.2436 86.5,-88.6788 86.5,-79.718"/>
<polygon fill="none" stroke="#191970" points="83.0001,-107.4404 86.5,-117.4405 90.0001,-107.4405 83.0001,-107.4404"/>
</g>
<!-- Node5 -->
<g id="node3" class="node">
<title>Node5</title>
<g id="a_node3"><a xlink:href="classanch_1_1_singleton.html" target="_top" xlink:title="Meyers&#39; singleton implemtation. ">
<polygon fill="none" stroke="#000000" points="26.5,-233.5 26.5,-290.5 146.5,-290.5 146.5,-233.5 26.5,-233.5"/>
<text text-anchor="middle" x="86.5" y="-278.5" font-family="Helvetica,sans-Serif" font-size="10.00" fill="#000000">anch::Singleton&lt; T &gt;</text>
<polyline fill="none" stroke="#000000" points="26.5,-271.5 146.5,-271.5 "/>
<text text-anchor="middle" x="86.5" y="-259.5" font-family="Helvetica,sans-Serif" font-size="10.00" fill="#000000"> </text>
<polyline fill="none" stroke="#000000" points="26.5,-252.5 146.5,-252.5 "/>
<text text-anchor="start" x="34.5" y="-240.5" font-family="Helvetica,sans-Serif" font-size="10.00" fill="#000000">+ getInstance()</text>
</a>
</g>
</g>
<!-- Node5&#45;&gt;Node4 -->
<g id="edge2" class="edge">
<title>Node5&#45;&gt;Node4</title>
<path fill="none" stroke="#ffa500" d="M86.5,-222.9162C86.5,-210.7375 86.5,-197.4096 86.5,-185.6001"/>
<polygon fill="#ffa500" stroke="#ffa500" points="83.0001,-223.2559 86.5,-233.2559 90.0001,-223.2559 83.0001,-223.2559"/>
<text text-anchor="middle" x="152" y="-207" font-family="Helvetica,sans-Serif" font-size="10.00" fill="#000000"> &lt; SqlConnectionFactory &gt;</text>
</g>
</g>
</svg>
