<?xml version="1.0" encoding="UTF-8" standalone="no"?>
<!DOCTYPE svg PUBLIC "-//W3C//DTD SVG 1.1//EN"
 "http://www.w3.org/Graphics/SVG/1.1/DTD/svg11.dtd">
<!-- Generated by graphviz version 10.0.1 (0)
 -->
<!-- Title: anch::cutils::CIOStream Pages: 1 -->
<svg width="144pt" height="300pt"
 viewBox="0.00 0.00 144.00 300.00" xmlns="http://www.w3.org/2000/svg" xmlns:xlink="http://www.w3.org/1999/xlink">
<g id="graph0" class="graph" transform="scale(1 1) rotate(0) translate(4 296)">
<title>anch::cutils::CIOStream</title>
<!-- Node1 -->
<g id="Node000001" class="node">
<title>Node1</title>
<g id="a_Node000001"><a xlink:title=" ">
<polygon fill="#999999" stroke="none" points="130,-204 6,-204 6,-104 130,-104 130,-204"/>
<text text-anchor="start" x="11" y="-190.5" font-family="Helvetica,sans-Serif" font-size="10.00">anch::cutils::CIOStream</text>
<text text-anchor="start" x="66.5" y="-174.5" font-family="Helvetica,sans-Serif" font-size="10.00"> </text>
<text text-anchor="start" x="18.88" y="-158.5" font-family="Helvetica,sans-Serif" font-size="10.00">+</text>
<text text-anchor="start" x="40" y="-158.5" font-family="Helvetica,sans-Serif" font-size="10.00">CIOStream()</text>
<text text-anchor="start" x="18.88" y="-142.5" font-family="Helvetica,sans-Serif" font-size="10.00">+</text>
<text text-anchor="start" x="40" y="-142.5" font-family="Helvetica,sans-Serif" font-size="10.00">~CIOStream()</text>
<text text-anchor="start" x="18.88" y="-126.5" font-family="Helvetica,sans-Serif" font-size="10.00">#</text>
<text text-anchor="start" x="40" y="-126.5" font-family="Helvetica,sans-Serif" font-size="10.00">CIOStream()</text>
<text text-anchor="start" x="18.88" y="-110.5" font-family="Helvetica,sans-Serif" font-size="10.00">#</text>
<text text-anchor="start" x="40" y="-110.5" font-family="Helvetica,sans-Serif" font-size="10.00">setBuffer()</text>
<polygon fill="#666666" stroke="#666666" points="6,-186 6,-186 130,-186 130,-186 6,-186"/>
<polygon fill="#666666" stroke="#666666" points="6,-170 6,-170 130,-170 130,-170 6,-170"/>
<polygon fill="none" stroke="#666666" points="6,-104 6,-204 130,-204 130,-104 6,-104"/>
</a>
</g>
</g>
<!-- Node3 -->
<g id="Node000003" class="node">
<title>Node3</title>
<g id="a_Node000003"><a xlink:href="classanch_1_1network_1_1_tcp_stream.html" target="_top" xlink:title=" ">
<polygon fill="white" stroke="none" points="136,-68 0,-68 0,0 136,0 136,-68"/>
<text text-anchor="start" x="5" y="-54.5" font-family="Helvetica,sans-Serif" font-size="10.00">anch::network::TcpStream</text>
<text text-anchor="start" x="66.5" y="-38.5" font-family="Helvetica,sans-Serif" font-size="10.00"> </text>
<text text-anchor="start" x="16.38" y="-22.5" font-family="Helvetica,sans-Serif" font-size="10.00">+</text>
<text text-anchor="start" x="41" y="-22.5" font-family="Helvetica,sans-Serif" font-size="10.00">TcpStream()</text>
<text text-anchor="start" x="16.38" y="-6.5" font-family="Helvetica,sans-Serif" font-size="10.00">+</text>
<text text-anchor="start" x="41" y="-6.5" font-family="Helvetica,sans-Serif" font-size="10.00">~TcpStream()</text>
<polygon fill="#666666" stroke="#666666" points="0,-50 0,-50 136,-50 136,-50 0,-50"/>
<polygon fill="#666666" stroke="#666666" points="0,-34 0,-34 136,-34 136,-34 0,-34"/>
<polygon fill="none" stroke="#666666" points="0,0 0,-68 136,-68 136,0 0,0"/>
</a>
</g>
</g>
<!-- Node1&#45;&gt;Node3 -->
<g id="edge2_Node000001_Node000003" class="edge">
<title>Node1&#45;&gt;Node3</title>
<g id="a_edge2_Node000001_Node000003"><a xlink:title=" ">
<path fill="none" stroke="#63b8ff" d="M68,-92.96C68,-84.28 68,-75.62 68,-67.75"/>
<polygon fill="none" stroke="#63b8ff" points="64.5,-92.81 68,-102.81 71.5,-92.81 64.5,-92.81"/>
</a>
</g>
</g>
<!-- Node2 -->
<g id="Node000002" class="node">
<title>Node2</title>
<g id="a_Node000002"><a xlink:title=" ">
<polygon fill="white" stroke="none" points="105,-292 31,-292 31,-240 105,-240 105,-292"/>
<text text-anchor="start" x="35.75" y="-278.5" font-family="Helvetica,sans-Serif" font-size="10.00">std::iostream</text>
<text text-anchor="start" x="66.5" y="-262.5" font-family="Helvetica,sans-Serif" font-size="10.00"> </text>
<text text-anchor="start" x="66.5" y="-246.5" font-family="Helvetica,sans-Serif" font-size="10.00"> </text>
<polygon fill="#bfbfbf" stroke="#bfbfbf" points="31,-274 31,-274 105,-274 105,-274 31,-274"/>
<polygon fill="#bfbfbf" stroke="#bfbfbf" points="31,-258 31,-258 105,-258 105,-258 31,-258"/>
<polygon fill="none" stroke="#bfbfbf" points="31,-240 31,-292 105,-292 105,-240 31,-240"/>
</a>
</g>
</g>
<!-- Node2&#45;&gt;Node1 -->
<g id="edge1_Node000001_Node000002" class="edge">
<title>Node2&#45;&gt;Node1</title>
<g id="a_edge1_Node000001_Node000002"><a xlink:title=" ">
<path fill="none" stroke="#63b8ff" d="M68,-228.53C68,-220.58 68,-212.05 68,-203.72"/>
<polygon fill="none" stroke="#63b8ff" points="64.5,-228.53 68,-238.53 71.5,-228.53 64.5,-228.53"/>
</a>
</g>
</g>
</g>
</svg>
