<?xml version="1.0" encoding="UTF-8" standalone="no"?>
<!DOCTYPE svg PUBLIC "-//W3C//DTD SVG 1.1//EN"
 "http://www.w3.org/Graphics/SVG/1.1/DTD/svg11.dtd">
<!-- Generated by graphviz version 10.0.1 (0)
 -->
<!-- Title: anch::crypto::SHA224_256&lt; O, I &gt; Pages: 1 -->
<!--zoomable 1228 -->

<svg id="main" version="1.1" xmlns="http://www.w3.org/2000/svg" xmlns:xlink="http://www.w3.org/1999/xlink" xml:space="preserve" onload="init(evt)">
<style type="text/css"><![CDATA[
.node, .edge {opacity: 0.7;}
.node.selected, .edge.selected {opacity: 1;}
.edge:hover path { stroke: red; }
.edge:hover polygon { stroke: red; fill: red; }
]]></style>

<defs>
  <circle id="rim" cx="0" cy="0" r="7"/>
  <circle id="rim2" cx="0" cy="0" r="3.5"/>
  <g id="zoomPlus">
    <use xlink:href="#rim" fill="#404040"><set attributeName="fill" to="#808080" begin="zoomplus.mouseover" end="zoomplus.mouseout"/></use>
    <path d="M-4,0h8M0,-4v8" fill="none" stroke="white" stroke-width="1.5" pointer-events="none"/>
  </g>
  <g id="zoomMin">
    <use xlink:href="#rim" fill="#404040"><set attributeName="fill" to="#808080" begin="zoomminus.mouseover" end="zoomminus.mouseout"/></use>
    <path d="M-4,0h8" fill="none" stroke="white" stroke-width="1.5" pointer-events="none"/>
  </g>
  <g id="arrowUp" transform="translate(30 24)">
    <use xlink:href="#rim"/>
    <path pointer-events="none" fill="none" stroke="white" stroke-width="1.5" d="M0,-3.0v7 M-2.5,-0.5L0,-3.0L2.5,-0.5"/>
  </g>
  <g id="arrowRight" transform="rotate(90) translate(36 -43)">
    <use xlink:href="#rim"/>
    <path pointer-events="none" fill="none" stroke="white" stroke-width="1.5" d="M0,-3.0v7 M-2.5,-0.5L0,-3.0L2.5,-0.5"/>
  </g>
  <g id="arrowDown" transform="rotate(180) translate(-30 -48)">
    <use xlink:href="#rim"/>
    <path pointer-events="none" fill="none" stroke="white" stroke-width="1.5" d="M0,-3.0v7 M-2.5,-0.5L0,-3.0L2.5,-0.5"/>
  </g>
  <g id="arrowLeft" transform="rotate(270) translate(-36 17)">
    <use xlink:href="#rim"/>
    <path pointer-events="none" fill="none" stroke="white" stroke-width="1.5" d="M0,-3.0v7 M-2.5,-0.5L0,-3.0L2.5,-0.5"/>
  </g>
  <g id="resetDef">
    <use xlink:href="#rim2" fill="#404040"><set attributeName="fill" to="#808080" begin="reset.mouseover" end="reset.mouseout"/></use>
  </g>
</defs>
<script type="application/ecmascript">
var viewWidth = 384;
var viewHeight = 1228;
var sectionId = 'dynsection-1';
</script>
<script type="application/ecmascript" xlink:href="svg.min.js"/>
<svg id="graph" class="graph">
<g id="viewport">
<title>anch::crypto::SHA224_256&lt; O, I &gt;</title>
<!-- Node1 -->
<g id="Node000001" class="node">
<title>Node1</title>
<g id="a_Node000001"><a xlink:title="SHA2 224/256 implementation.">
<polygon fill="#999999" stroke="none" points="177,-113 63,-113 63,0 177,0 177,-113"/>
<text text-anchor="start" x="67.88" y="-99.5" font-family="Helvetica,sans-Serif" font-size="10.00">anch::crypto::SHA224</text>
<text text-anchor="start" x="88.88" y="-86.75" font-family="Helvetica,sans-Serif" font-size="10.00">_256&lt; O, I &gt;</text>
<text text-anchor="start" x="118.5" y="-70.5" font-family="Helvetica,sans-Serif" font-size="10.00"> </text>
<text text-anchor="start" x="70.88" y="-54.5" font-family="Helvetica,sans-Serif" font-size="10.00">+</text>
<text text-anchor="start" x="87" y="-54.5" font-family="Helvetica,sans-Serif" font-size="10.00">SHA224_256()</text>
<text text-anchor="start" x="70.88" y="-38.5" font-family="Helvetica,sans-Serif" font-size="10.00">+</text>
<text text-anchor="start" x="87" y="-38.5" font-family="Helvetica,sans-Serif" font-size="10.00">SHA224_256()</text>
<text text-anchor="start" x="70.88" y="-22.5" font-family="Helvetica,sans-Serif" font-size="10.00">+</text>
<text text-anchor="start" x="87" y="-22.5" font-family="Helvetica,sans-Serif" font-size="10.00">SHA224_256()</text>
<text text-anchor="start" x="70.88" y="-6.5" font-family="Helvetica,sans-Serif" font-size="10.00">+</text>
<text text-anchor="start" x="87" y="-6.5" font-family="Helvetica,sans-Serif" font-size="10.00">~SHA224_256()</text>
<polygon fill="#666666" stroke="#666666" points="63,-82 63,-82 177,-82 177,-82 63,-82"/>
<polygon fill="#666666" stroke="#666666" points="63,-66 63,-66 177,-66 177,-66 63,-66"/>
<polygon fill="none" stroke="#666666" points="63,0 63,-113 177,-113 177,0 63,0"/>
</a>
</g>
</g>
<!-- Node2 -->
<g id="Node000002" class="node">
<title>Node2</title>
<g id="a_Node000002"><a xlink:href="classanch_1_1crypto_1_1_s_h_a2.html" target="_top" xlink:title=" ">
<polygon fill="white" stroke="none" points="185,-295 55,-295 55,-150 185,-150 185,-295"/>
<text text-anchor="start" x="59.62" y="-281.5" font-family="Helvetica,sans-Serif" font-size="10.00">anch::crypto::SHA2</text>
<text text-anchor="start" x="59.62" y="-268.75" font-family="Helvetica,sans-Serif" font-size="10.00">&lt; O, 64, uint32_t, 64, I &gt;</text>
<text text-anchor="start" x="118.5" y="-252.5" font-family="Helvetica,sans-Serif" font-size="10.00"> </text>
<text text-anchor="start" x="70.88" y="-236.5" font-family="Helvetica,sans-Serif" font-size="10.00">+</text>
<text text-anchor="start" x="95" y="-236.5" font-family="Helvetica,sans-Serif" font-size="10.00">SHA2()</text>
<text text-anchor="start" x="70.88" y="-220.5" font-family="Helvetica,sans-Serif" font-size="10.00">+</text>
<text text-anchor="start" x="95" y="-220.5" font-family="Helvetica,sans-Serif" font-size="10.00">~SHA2()</text>
<text text-anchor="start" x="70.88" y="-204.5" font-family="Helvetica,sans-Serif" font-size="10.00">+</text>
<text text-anchor="start" x="95" y="-204.5" font-family="Helvetica,sans-Serif" font-size="10.00">digest()</text>
<text text-anchor="start" x="70.88" y="-188.5" font-family="Helvetica,sans-Serif" font-size="10.00">#</text>
<text text-anchor="start" x="95" y="-188.5" font-family="Helvetica,sans-Serif" font-size="10.00">shiftRight()</text>
<text text-anchor="start" x="70.88" y="-172.5" font-family="Helvetica,sans-Serif" font-size="10.00">#</text>
<text text-anchor="start" x="95" y="-172.5" font-family="Helvetica,sans-Serif" font-size="10.00">rotateLeft()</text>
<text text-anchor="start" x="70.88" y="-156.5" font-family="Helvetica,sans-Serif" font-size="10.00">#</text>
<text text-anchor="start" x="95" y="-156.5" font-family="Helvetica,sans-Serif" font-size="10.00">rotateRight()</text>
<polygon fill="#666666" stroke="#666666" points="55,-264 55,-264 185,-264 185,-264 55,-264"/>
<polygon fill="#666666" stroke="#666666" points="55,-248 55,-248 185,-248 185,-248 55,-248"/>
<polygon fill="none" stroke="#666666" points="55,-150 55,-295 185,-295 185,-150 55,-150"/>
</a>
</g>
</g>
<!-- Node2&#45;&gt;Node1 -->
<g id="edge1_Node000001_Node000002" class="edge">
<title>Node2&#45;&gt;Node1</title>
<g id="a_edge1_Node000001_Node000002"><a xlink:title=" ">
<path fill="none" stroke="#63b8ff" d="M120,-138.62C120,-129.92 120,-121.22 120,-112.94"/>
<polygon fill="none" stroke="#63b8ff" points="116.5,-138.53 120,-148.53 123.5,-138.53 116.5,-138.53"/>
</a>
</g>
</g>
<!-- Node3 -->
<g id="Node000003" class="node">
<title>Node3</title>
<g id="a_Node000003"><a xlink:href="classanch_1_1crypto_1_1_hash.html" target="_top" xlink:title="Hash algorithm abstract class.">
<polygon fill="white" stroke="none" points="100,-759.25 0,-759.25 0,-550.25 100,-550.25 100,-759.25"/>
<text text-anchor="start" x="4.62" y="-745.75" font-family="Helvetica,sans-Serif" font-size="10.00">anch::crypto::Hash</text>
<text text-anchor="start" x="28.62" y="-733" font-family="Helvetica,sans-Serif" font-size="10.00">&lt; O, B &gt;</text>
<text text-anchor="start" x="48.5" y="-716.75" font-family="Helvetica,sans-Serif" font-size="10.00"> </text>
<text text-anchor="start" x="4.88" y="-700.75" font-family="Helvetica,sans-Serif" font-size="10.00">+</text>
<text text-anchor="start" x="18" y="-700.75" font-family="Helvetica,sans-Serif" font-size="10.00">digest()</text>
<text text-anchor="start" x="4.88" y="-684.75" font-family="Helvetica,sans-Serif" font-size="10.00">+</text>
<text text-anchor="start" x="18" y="-684.75" font-family="Helvetica,sans-Serif" font-size="10.00">digest()</text>
<text text-anchor="start" x="4.88" y="-668.75" font-family="Helvetica,sans-Serif" font-size="10.00">+</text>
<text text-anchor="start" x="18" y="-668.75" font-family="Helvetica,sans-Serif" font-size="10.00">digest()</text>
<text text-anchor="start" x="4.88" y="-652.75" font-family="Helvetica,sans-Serif" font-size="10.00">+</text>
<text text-anchor="start" x="18" y="-652.75" font-family="Helvetica,sans-Serif" font-size="10.00">digest()</text>
<text text-anchor="start" x="4.88" y="-636.75" font-family="Helvetica,sans-Serif" font-size="10.00">+</text>
<text text-anchor="start" x="18" y="-636.75" font-family="Helvetica,sans-Serif" font-size="10.00">digest()</text>
<text text-anchor="start" x="4.88" y="-620.75" font-family="Helvetica,sans-Serif" font-size="10.00">+</text>
<text text-anchor="start" x="18" y="-620.75" font-family="Helvetica,sans-Serif" font-size="10.00">getOutputSize()</text>
<text text-anchor="start" x="4.88" y="-604.75" font-family="Helvetica,sans-Serif" font-size="10.00">+</text>
<text text-anchor="start" x="18" y="-604.75" font-family="Helvetica,sans-Serif" font-size="10.00">getBlockSize()</text>
<text text-anchor="start" x="4.88" y="-588.75" font-family="Helvetica,sans-Serif" font-size="10.00">#</text>
<text text-anchor="start" x="18" y="-588.75" font-family="Helvetica,sans-Serif" font-size="10.00">reset()</text>
<text text-anchor="start" x="4.88" y="-572.75" font-family="Helvetica,sans-Serif" font-size="10.00">#</text>
<text text-anchor="start" x="18" y="-572.75" font-family="Helvetica,sans-Serif" font-size="10.00">addData()</text>
<text text-anchor="start" x="4.88" y="-556.75" font-family="Helvetica,sans-Serif" font-size="10.00">#</text>
<text text-anchor="start" x="18" y="-556.75" font-family="Helvetica,sans-Serif" font-size="10.00">finalize()</text>
<polygon fill="#666666" stroke="#666666" points="0,-728.25 0,-728.25 100,-728.25 100,-728.25 0,-728.25"/>
<polygon fill="#666666" stroke="#666666" points="0,-712.25 0,-712.25 100,-712.25 100,-712.25 0,-712.25"/>
<polygon fill="none" stroke="#666666" points="0,-550.25 0,-759.25 100,-759.25 100,-550.25 0,-550.25"/>
</a>
</g>
</g>
<!-- Node3&#45;&gt;Node2 -->
<g id="edge2_Node000002_Node000003" class="edge">
<title>Node3&#45;&gt;Node2</title>
<g id="a_edge2_Node000002_Node000003"><a xlink:title=" ">
<path fill="none" stroke="#63b8ff" d="M49.28,-539.21C50.96,-483.52 56.02,-415.94 69,-356.5 73.48,-335.96 80.61,-314.4 88.14,-294.76"/>
<polygon fill="none" stroke="#63b8ff" points="45.78,-538.94 49.02,-549.03 52.78,-539.13 45.78,-538.94"/>
</a>
</g>
</g>
<!-- Node10 -->
<g id="Node000010" class="node">
<title>Node10</title>
<g id="a_Node000010"><a xlink:href="classanch_1_1crypto_1_1_s_h_a2.html" target="_top" xlink:title="SHA2 abstract class.">
<polygon fill="white" stroke="none" points="180,-501.5 78,-501.5 78,-356.5 180,-356.5 180,-501.5"/>
<text text-anchor="start" x="82.88" y="-488" font-family="Helvetica,sans-Serif" font-size="10.00">anch::crypto::SHA2</text>
<text text-anchor="start" x="88.88" y="-475.25" font-family="Helvetica,sans-Serif" font-size="10.00">&lt; O, B, W, R, I &gt;</text>
<text text-anchor="start" x="127.5" y="-459" font-family="Helvetica,sans-Serif" font-size="10.00"> </text>
<text text-anchor="start" x="86.88" y="-443" font-family="Helvetica,sans-Serif" font-size="10.00">+</text>
<text text-anchor="start" x="104" y="-443" font-family="Helvetica,sans-Serif" font-size="10.00">SHA2()</text>
<text text-anchor="start" x="86.88" y="-427" font-family="Helvetica,sans-Serif" font-size="10.00">+</text>
<text text-anchor="start" x="104" y="-427" font-family="Helvetica,sans-Serif" font-size="10.00">~SHA2()</text>
<text text-anchor="start" x="86.88" y="-411" font-family="Helvetica,sans-Serif" font-size="10.00">+</text>
<text text-anchor="start" x="104" y="-411" font-family="Helvetica,sans-Serif" font-size="10.00">digest()</text>
<text text-anchor="start" x="86.88" y="-395" font-family="Helvetica,sans-Serif" font-size="10.00">#</text>
<text text-anchor="start" x="104" y="-395" font-family="Helvetica,sans-Serif" font-size="10.00">shiftRight()</text>
<text text-anchor="start" x="86.88" y="-379" font-family="Helvetica,sans-Serif" font-size="10.00">#</text>
<text text-anchor="start" x="104" y="-379" font-family="Helvetica,sans-Serif" font-size="10.00">rotateLeft()</text>
<text text-anchor="start" x="86.88" y="-363" font-family="Helvetica,sans-Serif" font-size="10.00">#</text>
<text text-anchor="start" x="104" y="-363" font-family="Helvetica,sans-Serif" font-size="10.00">rotateRight()</text>
<polygon fill="#666666" stroke="#666666" points="78,-470.5 78,-470.5 180,-470.5 180,-470.5 78,-470.5"/>
<polygon fill="#666666" stroke="#666666" points="78,-454.5 78,-454.5 180,-454.5 180,-454.5 78,-454.5"/>
<polygon fill="none" stroke="#666666" points="78,-356.5 78,-501.5 180,-501.5 180,-356.5 78,-356.5"/>
</a>
</g>
</g>
<!-- Node3&#45;&gt;Node10 -->
<g id="edge14_Node000010_Node000003" class="edge">
<title>Node3&#45;&gt;Node10</title>
<g id="a_edge14_Node000010_Node000003"><a xlink:title=" ">
<path fill="none" stroke="#63b8ff" d="M90.21,-539.86C94.85,-526.73 99.47,-513.63 103.83,-501.3"/>
<polygon fill="none" stroke="#63b8ff" points="87.03,-538.37 87,-548.96 93.63,-540.7 87.03,-538.37"/>
</a>
</g>
</g>
<!-- Node4 -->
<g id="Node000004" class="node">
<title>Node4</title>
<g id="a_Node000004"><a xlink:title=" ">
<polygon fill="white" stroke="none" points="189,-1018.75 63,-1018.75 63,-966.75 189,-966.75 189,-1018.75"/>
<text text-anchor="start" x="67.88" y="-1005.25" font-family="Helvetica,sans-Serif" font-size="10.00">std::array&lt; uint8_t, O &gt;</text>
<text text-anchor="start" x="81.88" y="-989.25" font-family="Helvetica,sans-Serif" font-size="10.00">+</text>
<text text-anchor="start" x="109" y="-989.25" font-family="Helvetica,sans-Serif" font-size="10.00">elements</text>
<text text-anchor="start" x="124.5" y="-973.25" font-family="Helvetica,sans-Serif" font-size="10.00"> </text>
<polygon fill="#666666" stroke="#666666" points="63,-1000.75 63,-1000.75 189,-1000.75 189,-1000.75 63,-1000.75"/>
<polygon fill="#666666" stroke="#666666" points="63,-984.75 63,-984.75 107,-984.75 107,-984.75 63,-984.75"/>
<polygon fill="#666666" stroke="#666666" points="107,-984.75 107,-984.75 189,-984.75 189,-984.75 107,-984.75"/>
<polygon fill="none" stroke="#666666" points="63,-966.75 63,-1018.75 189,-1018.75 189,-966.75 63,-966.75"/>
</a>
</g>
</g>
<!-- Node4&#45;&gt;Node3 -->
<g id="edge3_Node000003_Node000004" class="edge">
<title>Node4&#45;&gt;Node3</title>
<g id="a_edge3_Node000003_Node000004"><a xlink:title=" ">
<path fill="none" stroke="#63b8ff" d="M94.2,-966.87C80.22,-953.95 65.25,-936.92 57.5,-918 38.93,-872.63 34.65,-819.05 35.92,-772.19"/>
<polygon fill="none" stroke="#63b8ff" points="35.93,-772.06 32.16,-765.91 36.39,-760.07 40.15,-766.21 35.93,-772.06"/>
</a>
</g>
<text text-anchor="middle" x="81.25" y="-859.88" font-family="Helvetica,sans-Serif" font-size="10.00" fill="grey"> #_digest</text>
</g>
<!-- Node7 -->
<g id="Node000007" class="node">
<title>Node7</title>
<g id="a_Node000007"><a xlink:href="structanch_1_1crypto_1_1_s_h_a2_1_1_context.html" target="_top" xlink:title=" ">
<polygon fill="white" stroke="none" points="304,-703.25 144,-703.25 144,-606.25 304,-606.25 304,-703.25"/>
<text text-anchor="start" x="149" y="-689.75" font-family="Helvetica,sans-Serif" font-size="10.00">anch::crypto::SHA2</text>
<text text-anchor="start" x="149" y="-677" font-family="Helvetica,sans-Serif" font-size="10.00">&lt; O, B, W, R, I &gt;::Context&lt; I &gt;</text>
<text text-anchor="start" x="171.38" y="-660.75" font-family="Helvetica,sans-Serif" font-size="10.00">+</text>
<text text-anchor="start" x="207" y="-660.75" font-family="Helvetica,sans-Serif" font-size="10.00">size</text>
<text text-anchor="start" x="171.38" y="-644.75" font-family="Helvetica,sans-Serif" font-size="10.00">+</text>
<text text-anchor="start" x="207" y="-644.75" font-family="Helvetica,sans-Serif" font-size="10.00">buffer</text>
<text text-anchor="start" x="171.38" y="-628.75" font-family="Helvetica,sans-Serif" font-size="10.00">+</text>
<text text-anchor="start" x="207" y="-628.75" font-family="Helvetica,sans-Serif" font-size="10.00">Context()</text>
<text text-anchor="start" x="171.38" y="-612.75" font-family="Helvetica,sans-Serif" font-size="10.00">+</text>
<text text-anchor="start" x="207" y="-612.75" font-family="Helvetica,sans-Serif" font-size="10.00">reset()</text>
<polygon fill="#666666" stroke="#666666" points="144,-672.25 144,-672.25 304,-672.25 304,-672.25 144,-672.25"/>
<polygon fill="#666666" stroke="#666666" points="144,-640.25 144,-640.25 205,-640.25 205,-640.25 144,-640.25"/>
<polygon fill="#666666" stroke="#666666" points="205,-640.25 205,-640.25 304,-640.25 304,-640.25 205,-640.25"/>
<polygon fill="none" stroke="#666666" points="144,-606.25 144,-703.25 304,-703.25 304,-606.25 144,-606.25"/>
</a>
</g>
</g>
<!-- Node4&#45;&gt;Node7 -->
<g id="edge9_Node000007_Node000004" class="edge">
<title>Node4&#45;&gt;Node7</title>
<g id="a_edge9_Node000007_Node000004"><a xlink:title=" ">
<path fill="none" stroke="#63b8ff" d="M123.48,-966.75C120.67,-930.8 118.46,-862.8 134.75,-808 144.65,-774.7 163.28,-741.03 180.98,-713.86"/>
<polygon fill="none" stroke="#63b8ff" points="181.05,-713.74 181.05,-706.53 187.71,-703.76 187.71,-710.97 181.05,-713.74"/>
</a>
</g>
<text text-anchor="middle" x="155.62" y="-859.88" font-family="Helvetica,sans-Serif" font-size="10.00" fill="grey"> +digest</text>
</g>
<!-- Node9 -->
<g id="Node000009" class="node">
<title>Node9</title>
<g id="a_Node000009"><a xlink:href="structanch_1_1crypto_1_1_s_h_a2_1_1_context.html" target="_top" xlink:title=" ">
<polygon fill="white" stroke="none" points="319,-918 185,-918 185,-808 319,-808 319,-918"/>
<text text-anchor="start" x="189.75" y="-904.5" font-family="Helvetica,sans-Serif" font-size="10.00">anch::crypto::SHA2</text>
<text text-anchor="start" x="189.75" y="-891.75" font-family="Helvetica,sans-Serif" font-size="10.00">&lt; O, B, W, R, I &gt;::Context</text>
<text text-anchor="start" x="232.88" y="-879" font-family="Helvetica,sans-Serif" font-size="10.00">&lt; Init &gt;</text>
<text text-anchor="start" x="205.88" y="-862.5" font-family="Helvetica,sans-Serif" font-size="10.00">+</text>
<text text-anchor="start" x="235" y="-862.5" font-family="Helvetica,sans-Serif" font-size="10.00">size</text>
<text text-anchor="start" x="205.88" y="-846.5" font-family="Helvetica,sans-Serif" font-size="10.00">+</text>
<text text-anchor="start" x="235" y="-846.5" font-family="Helvetica,sans-Serif" font-size="10.00">buffer</text>
<text text-anchor="start" x="205.88" y="-830.5" font-family="Helvetica,sans-Serif" font-size="10.00">+</text>
<text text-anchor="start" x="235" y="-830.5" font-family="Helvetica,sans-Serif" font-size="10.00">Context()</text>
<text text-anchor="start" x="205.88" y="-814.5" font-family="Helvetica,sans-Serif" font-size="10.00">+</text>
<text text-anchor="start" x="235" y="-814.5" font-family="Helvetica,sans-Serif" font-size="10.00">reset()</text>
<polygon fill="#666666" stroke="#666666" points="185,-874 185,-874 319,-874 319,-874 185,-874"/>
<polygon fill="#666666" stroke="#666666" points="185,-842 185,-842 233,-842 233,-842 185,-842"/>
<polygon fill="#666666" stroke="#666666" points="233,-842 233,-842 319,-842 319,-842 233,-842"/>
<polygon fill="none" stroke="#666666" points="185,-808 185,-918 319,-918 319,-808 185,-808"/>
</a>
</g>
</g>
<!-- Node4&#45;&gt;Node9 -->
<g id="edge12_Node000009_Node000004" class="edge">
<title>Node4&#45;&gt;Node9</title>
<g id="a_edge12_Node000009_Node000004"><a xlink:title=" ">
<path fill="none" stroke="#63b8ff" d="M150.59,-966.82C161.87,-955.38 175.81,-941.25 189.7,-927.17"/>
<polygon fill="none" stroke="#63b8ff" points="189.73,-927.13 191.1,-920.05 198.16,-918.59 196.79,-925.67 189.73,-927.13"/>
</a>
</g>
<text text-anchor="middle" x="198.62" y="-939.25" font-family="Helvetica,sans-Serif" font-size="10.00" fill="grey"> +digest</text>
</g>
<!-- Node5 -->
<g id="Node000005" class="node">
<title>Node5</title>
<g id="a_Node000005"><a xlink:title=" ">
<polygon fill="white" stroke="none" points="233.5,-1119.5 148.5,-1119.5 148.5,-1067.5 233.5,-1067.5 233.5,-1119.5"/>
<text text-anchor="start" x="153.5" y="-1106" font-family="Helvetica,sans-Serif" font-size="10.00">std::array&lt; T &gt;</text>
<text text-anchor="start" x="189.5" y="-1090" font-family="Helvetica,sans-Serif" font-size="10.00"> </text>
<text text-anchor="start" x="189.5" y="-1074" font-family="Helvetica,sans-Serif" font-size="10.00"> </text>
<polygon fill="#666666" stroke="#666666" points="148.5,-1101.5 148.5,-1101.5 233.5,-1101.5 233.5,-1101.5 148.5,-1101.5"/>
<polygon fill="#666666" stroke="#666666" points="148.5,-1085.5 148.5,-1085.5 233.5,-1085.5 233.5,-1085.5 148.5,-1085.5"/>
<polygon fill="none" stroke="#666666" points="148.5,-1067.5 148.5,-1119.5 233.5,-1119.5 233.5,-1067.5 148.5,-1067.5"/>
</a>
</g>
</g>
<!-- Node5&#45;&gt;Node4 -->
<g id="edge4_Node000004_Node000005" class="edge">
<title>Node5&#45;&gt;Node4</title>
<g id="a_edge4_Node000004_Node000005"><a xlink:title=" ">
<path fill="none" stroke="orange" d="M160.28,-1059.19C157.79,-1056 155.41,-1052.74 153.25,-1049.5 146.86,-1039.91 141.05,-1028.59 136.45,-1018.67"/>
<polygon fill="orange" stroke="orange" points="157.45,-1061.26 166.5,-1066.77 162.86,-1056.82 157.45,-1061.26"/>
</a>
</g>
<text text-anchor="middle" x="190.38" y="-1040" font-family="Helvetica,sans-Serif" font-size="10.00" fill="grey"> &lt; uint8_t, O &gt;</text>
</g>
<!-- Node8 -->
<g id="Node000008" class="node">
<title>Node8</title>
<g id="a_Node000008"><a xlink:title=" ">
<polygon fill="white" stroke="none" points="307,-1018.75 207,-1018.75 207,-966.75 307,-966.75 307,-1018.75"/>
<text text-anchor="start" x="211.62" y="-1005.25" font-family="Helvetica,sans-Serif" font-size="10.00">std::array&lt; W, 8 &gt;</text>
<text text-anchor="start" x="219.38" y="-989.25" font-family="Helvetica,sans-Serif" font-size="10.00">+</text>
<text text-anchor="start" x="240" y="-989.25" font-family="Helvetica,sans-Serif" font-size="10.00">elements</text>
<text text-anchor="start" x="255.5" y="-973.25" font-family="Helvetica,sans-Serif" font-size="10.00"> </text>
<polygon fill="#666666" stroke="#666666" points="207,-1000.75 207,-1000.75 307,-1000.75 307,-1000.75 207,-1000.75"/>
<polygon fill="#666666" stroke="#666666" points="207,-984.75 207,-984.75 238,-984.75 238,-984.75 207,-984.75"/>
<polygon fill="#666666" stroke="#666666" points="238,-984.75 238,-984.75 307,-984.75 307,-984.75 238,-984.75"/>
<polygon fill="none" stroke="#666666" points="207,-966.75 207,-1018.75 307,-1018.75 307,-966.75 207,-966.75"/>
</a>
</g>
</g>
<!-- Node5&#45;&gt;Node8 -->
<g id="edge8_Node000008_Node000005" class="edge">
<title>Node5&#45;&gt;Node8</title>
<g id="a_edge8_Node000008_Node000005"><a xlink:title=" ">
<path fill="none" stroke="orange" d="M219.45,-1058.65C221.74,-1055.61 223.95,-1052.53 226,-1049.5 232.58,-1039.78 239.03,-1028.55 244.32,-1018.73"/>
<polygon fill="orange" stroke="orange" points="216.8,-1056.36 213.42,-1066.41 222.32,-1060.66 216.8,-1056.36"/>
</a>
</g>
<text text-anchor="middle" x="257.62" y="-1040" font-family="Helvetica,sans-Serif" font-size="10.00" fill="grey"> &lt; W, 8 &gt;</text>
</g>
<!-- Node6 -->
<g id="Node000006" class="node">
<title>Node6</title>
<g id="a_Node000006"><a xlink:title=" ">
<polygon fill="white" stroke="none" points="199,-1220.25 183,-1220.25 183,-1168.25 199,-1168.25 199,-1220.25"/>
<text text-anchor="start" x="188" y="-1206.75" font-family="Helvetica,sans-Serif" font-size="10.00">T</text>
<text text-anchor="start" x="189.5" y="-1190.75" font-family="Helvetica,sans-Serif" font-size="10.00"> </text>
<text text-anchor="start" x="189.5" y="-1174.75" font-family="Helvetica,sans-Serif" font-size="10.00"> </text>
<polygon fill="#bfbfbf" stroke="#bfbfbf" points="183,-1202.25 183,-1202.25 199,-1202.25 199,-1202.25 183,-1202.25"/>
<polygon fill="#bfbfbf" stroke="#bfbfbf" points="183,-1186.25 183,-1186.25 199,-1186.25 199,-1186.25 183,-1186.25"/>
<polygon fill="none" stroke="#bfbfbf" points="183,-1168.25 183,-1220.25 199,-1220.25 199,-1168.25 183,-1168.25"/>
</a>
</g>
</g>
<!-- Node6&#45;&gt;Node5 -->
<g id="edge5_Node000005_Node000006" class="edge">
<title>Node6&#45;&gt;Node5</title>
<g id="a_edge5_Node000005_Node000006"><a xlink:title=" ">
<path fill="none" stroke="#63b8ff" d="M191,-1168.33C191,-1157.45 191,-1144.46 191,-1132.43"/>
<polygon fill="none" stroke="#63b8ff" points="191,-1132.31 187,-1126.31 191,-1120.31 195,-1126.31 191,-1132.31"/>
</a>
</g>
<text text-anchor="middle" x="219.5" y="-1140.75" font-family="Helvetica,sans-Serif" font-size="10.00" fill="grey"> +elements</text>
</g>
<!-- Node7&#45;&gt;Node2 -->
<g id="edge6_Node000002_Node000007" class="edge">
<title>Node7&#45;&gt;Node2</title>
<g id="a_edge6_Node000002_Node000007"><a xlink:title=" ">
<path fill="none" stroke="#63b8ff" d="M232.51,-606.42C242.5,-538.31 252.75,-410.14 210,-313 205.69,-303.22 199.79,-293.92 193.04,-285.29"/>
<polygon fill="none" stroke="#63b8ff" points="193.09,-285.35 186.16,-283.33 185.36,-276.16 192.29,-278.18 193.09,-285.35"/>
</a>
</g>
<text text-anchor="middle" x="268.62" y="-425.88" font-family="Helvetica,sans-Serif" font-size="10.00" fill="grey"> #_context</text>
</g>
<!-- Node7&#45;&gt;Node10 -->
<g id="edge15_Node000010_Node000007" class="edge">
<title>Node7&#45;&gt;Node10</title>
<g id="a_edge15_Node000010_Node000007"><a xlink:title=" ">
<path fill="none" stroke="#63b8ff" d="M194.24,-606.29C181.42,-584.36 167.03,-557.61 156.75,-532.25 154.33,-526.28 152.05,-520.02 149.92,-513.68"/>
<polygon fill="none" stroke="#63b8ff" points="149.93,-513.71 144.29,-509.2 146.28,-502.27 151.92,-506.77 149.93,-513.71"/>
</a>
</g>
<text text-anchor="middle" x="183.62" y="-522.75" font-family="Helvetica,sans-Serif" font-size="10.00" fill="grey"> #_context</text>
</g>
<!-- Node8&#45;&gt;Node7 -->
<g id="edge7_Node000007_Node000008" class="edge">
<title>Node8&#45;&gt;Node7</title>
<g id="a_edge7_Node000007_Node000008"><a xlink:title=" ">
<path fill="none" stroke="#63b8ff" d="M290.56,-966.86C304.99,-954.06 320.29,-937.12 328,-918 346.28,-872.66 342.43,-854.71 328,-808 317.36,-773.56 295.96,-739.96 275.32,-713.12"/>
<polygon fill="none" stroke="#63b8ff" points="275.46,-713.3 268.61,-711.07 268.03,-703.89 274.88,-706.12 275.46,-713.3"/>
</a>
</g>
<text text-anchor="middle" x="358" y="-859.88" font-family="Helvetica,sans-Serif" font-size="10.00" fill="grey"> +state</text>
</g>
<!-- Node8&#45;&gt;Node9 -->
<g id="edge11_Node000009_Node000008" class="edge">
<title>Node8&#45;&gt;Node9</title>
<g id="a_edge11_Node000009_Node000008"><a xlink:title=" ">
<path fill="none" stroke="#63b8ff" d="M256.02,-966.82C255.61,-956.36 255.12,-943.65 254.61,-930.79"/>
<polygon fill="none" stroke="#63b8ff" points="254.62,-930.84 250.38,-925 254.15,-918.85 258.38,-924.69 254.62,-930.84"/>
</a>
</g>
<text text-anchor="middle" x="274" y="-939.25" font-family="Helvetica,sans-Serif" font-size="10.00" fill="grey"> +state</text>
</g>
<!-- Node9&#45;&gt;Node7 -->
<g id="edge10_Node000007_Node000009" class="edge">
<title>Node9&#45;&gt;Node7</title>
<g id="a_edge10_Node000007_Node000009"><a xlink:title=" ">
<path fill="none" stroke="orange" d="M243.14,-796.7C239.01,-766.3 234.19,-730.8 230.42,-703.04"/>
<polygon fill="orange" stroke="orange" points="239.66,-797.14 244.48,-806.58 246.6,-796.2 239.66,-797.14"/>
</a>
</g>
<text text-anchor="middle" x="257.25" y="-780.5" font-family="Helvetica,sans-Serif" font-size="10.00" fill="grey"> &lt; I &gt;</text>
</g>
<!-- Node10&#45;&gt;Node2 -->
<g id="edge13_Node000002_Node000010" class="edge">
<title>Node10&#45;&gt;Node2</title>
<g id="a_edge13_Node000002_Node000010"><a xlink:title=" ">
<path fill="none" stroke="orange" d="M121.85,-345.24C121.73,-342.97 121.61,-340.72 121.5,-338.5 120.82,-324.44 120.4,-309.4 120.15,-294.99"/>
<polygon fill="orange" stroke="orange" points="118.36,-345.43 122.48,-355.2 125.35,-345 118.36,-345.43"/>
</a>
</g>
<text text-anchor="start" x="122" y="-329" font-family="Helvetica,sans-Serif" font-size="10.00" fill="grey"> &lt; O, 64, uint32_t,</text>
<text text-anchor="middle" x="166.25" y="-316.25" font-family="Helvetica,sans-Serif" font-size="10.00" fill="grey"> 64, I &gt;</text>
</g>
</g>
</svg>

<g id="navigator" transform="translate(0 0)" fill="#404254">
  <rect fill="#f2f5e9" fill-opacity="0.5" stroke="#606060" stroke-width=".5" x="0" y="0" width="60" height="60"/>
  <use id="zoomplus" xlink:href="#zoomPlus" x="17" y="9" onmousedown="handleZoom(evt,'in')"/>
  <use id="zoomminus" xlink:href="#zoomMin" x="42" y="9" onmousedown="handleZoom(evt,'out')"/>
  <use id="reset" xlink:href="#resetDef" x="30" y="36" onmousedown="handleReset()"/>
   <use id="arrowup" xlink:href="#arrowUp" x="0" y="0" onmousedown="handlePan(0,-1)"/>
  <use id="arrowright" xlink:href="#arrowRight" x="0" y="0" onmousedown="handlePan(1,0)"/>
  <use id="arrowdown" xlink:href="#arrowDown" x="0" y="0" onmousedown="handlePan(0,1)"/>
  <use id="arrowleft" xlink:href="#arrowLeft" x="0" y="0" onmousedown="handlePan(-1,0)"/>
</g>
<svg viewBox="0 0 15 15" width="100%" height="30px" preserveAspectRatio="xMaxYMin meet">
 <g id="arrow_out" transform="scale(0.3 0.3)">
  <a xlink:href="classanch_1_1crypto_1_1_s_h_a224__256__coll__graph_org.svg" target="_base">
   <rect id="button" ry="5" rx="5" y="6" x="6" height="38" width="38"
        fill="#f2f5e9" fill-opacity="0.5" stroke="#606060" stroke-width="1.0"/>
   <path id="arrow"
     d="M 11.500037,31.436501 C 11.940474,20.09759 22.043105,11.32322 32.158766,21.979434 L 37.068811,17.246167 C 37.068811,17.246167 37.088388,32 37.088388,32 L 22.160133,31.978069 C 22.160133,31.978069 26.997745,27.140456 26.997745,27.140456 C 18.528582,18.264221 13.291696,25.230495 11.500037,31.436501 z"
     style="fill:#404040;"/>
  </a>
 </g>
</svg>

<style type='text/css'>
<![CDATA[
[data-mouse-over-selected='false'] { opacity: 0.7; }
[data-mouse-over-selected='true']  { opacity: 1.0; }
]]>
</style>
<script type="application/ecmascript"><![CDATA[
document.addEventListener('DOMContentLoaded', (event) => {
  highlightEdges();
  highlightAdjacentNodes();
});
]]></script>
</svg>
