<?xml version="1.0" encoding="UTF-8" standalone="no"?>
<!DOCTYPE svg PUBLIC "-//W3C//DTD SVG 1.1//EN"
 "http://www.w3.org/Graphics/SVG/1.1/DTD/svg11.dtd">
<!-- Generated by graphviz version 12.1.2 (0)
 -->
<!-- Title: anch::sql::PostgreSQLConnection Pages: 1 -->
<!--zoomable 612 -->

<svg id="main" version="1.1" xmlns="http://www.w3.org/2000/svg" xmlns:xlink="http://www.w3.org/1999/xlink" xml:space="preserve" onload="init(evt)">

<style type="text/css"><![CDATA[
.node, .edge {opacity: 0.7;}
.node.selected, .edge.selected {opacity: 1;}
.edge:hover path { stroke: red; }
.edge:hover polygon { stroke: red; fill: red; }
]]></style>

<defs>
  <circle id="rim" cx="0" cy="0" r="7"/>
  <circle id="rim2" cx="0" cy="0" r="3.5"/>
  <g id="zoomPlus">
    <use xlink:href="#rim" fill="#404040"><set attributeName="fill" to="#808080" begin="zoomplus.mouseover" end="zoomplus.mouseout"/></use>
    <path d="M-4,0h8M0,-4v8" fill="none" stroke="white" stroke-width="1.5" pointer-events="none"/>
  </g>
  <g id="zoomMin">
    <use xlink:href="#rim" fill="#404040"><set attributeName="fill" to="#808080" begin="zoomminus.mouseover" end="zoomminus.mouseout"/></use>
    <path d="M-4,0h8" fill="none" stroke="white" stroke-width="1.5" pointer-events="none"/>
  </g>
  <g id="arrowUp" transform="translate(30 24)">
    <use xlink:href="#rim"/>
    <path pointer-events="none" fill="none" stroke="white" stroke-width="1.5" d="M0,-3.0v7 M-2.5,-0.5L0,-3.0L2.5,-0.5"/>
  </g>
  <g id="arrowRight" transform="rotate(90) translate(36 -43)">
    <use xlink:href="#rim"/>
    <path pointer-events="none" fill="none" stroke="white" stroke-width="1.5" d="M0,-3.0v7 M-2.5,-0.5L0,-3.0L2.5,-0.5"/>
  </g>
  <g id="arrowDown" transform="rotate(180) translate(-30 -48)">
    <use xlink:href="#rim"/>
    <path pointer-events="none" fill="none" stroke="white" stroke-width="1.5" d="M0,-3.0v7 M-2.5,-0.5L0,-3.0L2.5,-0.5"/>
  </g>
  <g id="arrowLeft" transform="rotate(270) translate(-36 17)">
    <use xlink:href="#rim"/>
    <path pointer-events="none" fill="none" stroke="white" stroke-width="1.5" d="M0,-3.0v7 M-2.5,-0.5L0,-3.0L2.5,-0.5"/>
  </g>
  <g id="resetDef">
    <use xlink:href="#rim2" fill="#404040"><set attributeName="fill" to="#808080" begin="reset.mouseover" end="reset.mouseout"/></use>
  </g>
</defs>
<script type="application/ecmascript">
var viewWidth = 166;
var viewHeight = 612;
var sectionId = 'dynsection-0';
</script>
<script type="application/ecmascript" xlink:href="svg.min.js"/>
<svg id="graph" class="graph">
<g id="viewport">
<title>anch::sql::PostgreSQLConnection</title>
<!-- Node1 -->
<g id="Node000001" class="node">
<title>Node1</title>
<g id="a_Node000001"><a xlink:title="PostgreSQL connection.">
<polygon fill="#999999" stroke="none" points="158,-196 0,-196 0,0 158,0 158,-196"/>
<text text-anchor="start" x="4.75" y="-182.5" font-family="Helvetica,sans-Serif" font-size="10.00">anch::sql::PostgreSQLConnection</text>
<text text-anchor="start" x="77.5" y="-166.5" font-family="Helvetica,sans-Serif" font-size="10.00"> </text>
<text text-anchor="start" x="10.5" y="-150.5" font-family="Helvetica,sans-Serif" font-size="10.00">+</text>
<text text-anchor="start" x="27" y="-150.5" font-family="Helvetica,sans-Serif" font-size="10.00">PostgreSQLConnection()</text>
<text text-anchor="start" x="10.5" y="-134.5" font-family="Helvetica,sans-Serif" font-size="10.00">+</text>
<text text-anchor="start" x="27" y="-134.5" font-family="Helvetica,sans-Serif" font-size="10.00">PostgreSQLConnection()</text>
<text text-anchor="start" x="10.5" y="-118.5" font-family="Helvetica,sans-Serif" font-size="10.00">+</text>
<text text-anchor="start" x="27" y="-118.5" font-family="Helvetica,sans-Serif" font-size="10.00">PostgreSQLConnection()</text>
<text text-anchor="start" x="10.5" y="-102.5" font-family="Helvetica,sans-Serif" font-size="10.00">+</text>
<text text-anchor="start" x="27" y="-102.5" font-family="Helvetica,sans-Serif" font-size="10.00">~PostgreSQLConnection()</text>
<text text-anchor="start" x="10.88" y="-86.5" font-family="Helvetica,sans-Serif" font-size="10.00">#</text>
<text text-anchor="start" x="27" y="-86.5" font-family="Helvetica,sans-Serif" font-size="10.00">executeQuery()</text>
<text text-anchor="start" x="10.88" y="-70.5" font-family="Helvetica,sans-Serif" font-size="10.00">#</text>
<text text-anchor="start" x="27" y="-70.5" font-family="Helvetica,sans-Serif" font-size="10.00">executeUpdate()</text>
<text text-anchor="start" x="10.88" y="-54.5" font-family="Helvetica,sans-Serif" font-size="10.00">#</text>
<text text-anchor="start" x="27" y="-54.5" font-family="Helvetica,sans-Serif" font-size="10.00">sendCommit()</text>
<text text-anchor="start" x="10.88" y="-38.5" font-family="Helvetica,sans-Serif" font-size="10.00">#</text>
<text text-anchor="start" x="27" y="-38.5" font-family="Helvetica,sans-Serif" font-size="10.00">sendRollback()</text>
<text text-anchor="start" x="10.88" y="-22.5" font-family="Helvetica,sans-Serif" font-size="10.00">#</text>
<text text-anchor="start" x="27" y="-22.5" font-family="Helvetica,sans-Serif" font-size="10.00">sendStartTransaction()</text>
<text text-anchor="start" x="10.88" y="-6.5" font-family="Helvetica,sans-Serif" font-size="10.00">#</text>
<text text-anchor="start" x="27" y="-6.5" font-family="Helvetica,sans-Serif" font-size="10.00">makePrepared()</text>
<polygon fill="#666666" stroke="#666666" points="0,-178 0,-178 158,-178 158,-178 0,-178"/>
<polygon fill="#666666" stroke="#666666" points="0,-162 0,-162 158,-162 158,-162 0,-162"/>
<polygon fill="none" stroke="#666666" points="0,0 0,-196 158,-196 158,0 0,0"/>
</a>
</g>
</g>
<!-- Node2 -->
<g id="Node000002" class="node">
<title>Node2</title>
<g id="a_Node000002"><a xlink:href="classanch_1_1sql_1_1_connection.html" target="_top" xlink:title="SQL connection virtual class.">
<polygon fill="white" stroke="none" points="137.5,-604 20.5,-604 20.5,-232 137.5,-232 137.5,-604"/>
<text text-anchor="start" x="31.38" y="-590.5" font-family="Helvetica,sans-Serif" font-size="10.00">anch::sql::Connection</text>
<text text-anchor="start" x="24.88" y="-574.5" font-family="Helvetica,sans-Serif" font-size="10.00">#</text>
<text text-anchor="start" x="34.5" y="-574.5" font-family="Helvetica,sans-Serif" font-size="10.00">_valid</text>
<text text-anchor="start" x="24.88" y="-558.5" font-family="Helvetica,sans-Serif" font-size="10.00">#</text>
<text text-anchor="start" x="34.5" y="-558.5" font-family="Helvetica,sans-Serif" font-size="10.00">_transaction</text>
<text text-anchor="start" x="24.88" y="-542.5" font-family="Helvetica,sans-Serif" font-size="10.00">#</text>
<text text-anchor="start" x="34.5" y="-542.5" font-family="Helvetica,sans-Serif" font-size="10.00">_stmts</text>
<text text-anchor="start" x="24.88" y="-526.5" font-family="Helvetica,sans-Serif" font-size="10.00">#</text>
<text text-anchor="start" x="34.5" y="-526.5" font-family="Helvetica,sans-Serif" font-size="10.00">_errors</text>
<text text-anchor="start" x="24.5" y="-510.5" font-family="Helvetica,sans-Serif" font-size="10.00">+</text>
<text text-anchor="start" x="34.5" y="-510.5" font-family="Helvetica,sans-Serif" font-size="10.00">Connection()</text>
<text text-anchor="start" x="24.5" y="-494.5" font-family="Helvetica,sans-Serif" font-size="10.00">+</text>
<text text-anchor="start" x="34.5" y="-494.5" font-family="Helvetica,sans-Serif" font-size="10.00">Connection()</text>
<text text-anchor="start" x="24.5" y="-478.5" font-family="Helvetica,sans-Serif" font-size="10.00">+</text>
<text text-anchor="start" x="34.5" y="-478.5" font-family="Helvetica,sans-Serif" font-size="10.00">~Connection()</text>
<text text-anchor="start" x="24.5" y="-462.5" font-family="Helvetica,sans-Serif" font-size="10.00">+</text>
<text text-anchor="start" x="34.5" y="-462.5" font-family="Helvetica,sans-Serif" font-size="10.00">startTransaction()</text>
<text text-anchor="start" x="24.5" y="-446.5" font-family="Helvetica,sans-Serif" font-size="10.00">+</text>
<text text-anchor="start" x="34.5" y="-446.5" font-family="Helvetica,sans-Serif" font-size="10.00">begin()</text>
<text text-anchor="start" x="24.5" y="-430.5" font-family="Helvetica,sans-Serif" font-size="10.00">+</text>
<text text-anchor="start" x="34.5" y="-430.5" font-family="Helvetica,sans-Serif" font-size="10.00">commit()</text>
<text text-anchor="start" x="24.5" y="-414.5" font-family="Helvetica,sans-Serif" font-size="10.00">+</text>
<text text-anchor="start" x="34.5" y="-414.5" font-family="Helvetica,sans-Serif" font-size="10.00">rollback()</text>
<text text-anchor="start" x="24.5" y="-398.5" font-family="Helvetica,sans-Serif" font-size="10.00">+</text>
<text text-anchor="start" x="34.5" y="-398.5" font-family="Helvetica,sans-Serif" font-size="10.00">release()</text>
<text text-anchor="start" x="24.5" y="-382.5" font-family="Helvetica,sans-Serif" font-size="10.00">+</text>
<text text-anchor="start" x="34.5" y="-382.5" font-family="Helvetica,sans-Serif" font-size="10.00">prepareStatement()</text>
<text text-anchor="start" x="24.5" y="-366.5" font-family="Helvetica,sans-Serif" font-size="10.00">+</text>
<text text-anchor="start" x="34.5" y="-366.5" font-family="Helvetica,sans-Serif" font-size="10.00">query()</text>
<text text-anchor="start" x="34.5" y="-350.5" font-family="Helvetica,sans-Serif" font-size="10.00">and 9 more...</text>
<text text-anchor="start" x="24.88" y="-334.5" font-family="Helvetica,sans-Serif" font-size="10.00">#</text>
<text text-anchor="start" x="34.5" y="-334.5" font-family="Helvetica,sans-Serif" font-size="10.00">executeQuery()</text>
<text text-anchor="start" x="24.88" y="-318.5" font-family="Helvetica,sans-Serif" font-size="10.00">#</text>
<text text-anchor="start" x="34.5" y="-318.5" font-family="Helvetica,sans-Serif" font-size="10.00">executeUpdate()</text>
<text text-anchor="start" x="24.88" y="-302.5" font-family="Helvetica,sans-Serif" font-size="10.00">#</text>
<text text-anchor="start" x="34.5" y="-302.5" font-family="Helvetica,sans-Serif" font-size="10.00">sendStartTransaction()</text>
<text text-anchor="start" x="24.88" y="-286.5" font-family="Helvetica,sans-Serif" font-size="10.00">#</text>
<text text-anchor="start" x="34.5" y="-286.5" font-family="Helvetica,sans-Serif" font-size="10.00">sendCommit()</text>
<text text-anchor="start" x="24.88" y="-270.5" font-family="Helvetica,sans-Serif" font-size="10.00">#</text>
<text text-anchor="start" x="34.5" y="-270.5" font-family="Helvetica,sans-Serif" font-size="10.00">sendRollback()</text>
<text text-anchor="start" x="24.88" y="-254.5" font-family="Helvetica,sans-Serif" font-size="10.00">#</text>
<text text-anchor="start" x="34.5" y="-254.5" font-family="Helvetica,sans-Serif" font-size="10.00">makePrepared()</text>
<text text-anchor="start" x="24.88" y="-238.5" font-family="Helvetica,sans-Serif" font-size="10.00">#</text>
<text text-anchor="start" x="34.5" y="-238.5" font-family="Helvetica,sans-Serif" font-size="10.00">setValid()</text>
<polygon fill="#666666" stroke="#666666" points="20.5,-586 20.5,-586 137.5,-586 137.5,-586 20.5,-586"/>
<polygon fill="#666666" stroke="#666666" points="20.5,-522 20.5,-522 32.5,-522 32.5,-522 20.5,-522"/>
<polygon fill="#666666" stroke="#666666" points="32.5,-522 32.5,-522 137.5,-522 137.5,-522 32.5,-522"/>
<polygon fill="none" stroke="#666666" points="20.5,-232 20.5,-604 137.5,-604 137.5,-232 20.5,-232"/>
</a>
</g>
</g>
<!-- Node2&#45;&gt;Node1 -->
<g id="edge1_Node000001_Node000002" class="edge">
<title>Node2&#45;&gt;Node1</title>
<g id="a_edge1_Node000001_Node000002"><a xlink:title=" ">
<path fill="none" stroke="#63b8ff" d="M79,-220.72C79,-212.19 79,-203.81 79,-195.69"/>
<polygon fill="none" stroke="#63b8ff" points="75.5,-220.5 79,-230.5 82.5,-220.5 75.5,-220.5"/>
</a>
</g>
</g>
</g>
</svg>

<g id="navigator" transform="translate(0 0)" fill="#404254">
  <rect fill="#f2f5e9" fill-opacity="0.5" stroke="#606060" stroke-width=".5" x="0" y="0" width="60" height="60"/>
  <use id="zoomplus" xlink:href="#zoomPlus" x="17" y="9" onmousedown="handleZoom(evt,'in')"/>
  <use id="zoomminus" xlink:href="#zoomMin" x="42" y="9" onmousedown="handleZoom(evt,'out')"/>
  <use id="reset" xlink:href="#resetDef" x="30" y="36" onmousedown="handleReset()"/>
   <use id="arrowup" xlink:href="#arrowUp" x="0" y="0" onmousedown="handlePan(0,-1)"/>
  <use id="arrowright" xlink:href="#arrowRight" x="0" y="0" onmousedown="handlePan(1,0)"/>
  <use id="arrowdown" xlink:href="#arrowDown" x="0" y="0" onmousedown="handlePan(0,1)"/>
  <use id="arrowleft" xlink:href="#arrowLeft" x="0" y="0" onmousedown="handlePan(-1,0)"/>
</g>
<svg viewBox="0 0 15 15" width="100%" height="30px" preserveAspectRatio="xMaxYMin meet">
 <g id="arrow_out" transform="scale(0.3 0.3)">
  <a xlink:href="classanch_1_1sql_1_1_postgre_s_q_l_connection__inherit__graph_org.svg" target="_base">
   <rect id="button" ry="5" rx="5" y="6" x="6" height="38" width="38"
        fill="#f2f5e9" fill-opacity="0.5" stroke="#606060" stroke-width="1.0"/>
   <path id="arrow"
     d="M 11.500037,31.436501 C 11.940474,20.09759 22.043105,11.32322 32.158766,21.979434 L 37.068811,17.246167 C 37.068811,17.246167 37.088388,32 37.088388,32 L 22.160133,31.978069 C 22.160133,31.978069 26.997745,27.140456 26.997745,27.140456 C 18.528582,18.264221 13.291696,25.230495 11.500037,31.436501 z"
     style="fill:#404040;"/>
  </a>
 </g>
</svg>

<style type='text/css'>
<![CDATA[
[data-mouse-over-selected='false'] { opacity: 0.7; }
[data-mouse-over-selected='true']  { opacity: 1.0; }
]]>
</style>
<script type="application/ecmascript"><![CDATA[
document.addEventListener('DOMContentLoaded', (event) => {
  highlightEdges();
  highlightAdjacentNodes();
});
]]></script>
</svg>
