<?xml version="1.0" encoding="UTF-8" standalone="no"?>
<!DOCTYPE svg PUBLIC "-//W3C//DTD SVG 1.1//EN"
 "http://www.w3.org/Graphics/SVG/1.1/DTD/svg11.dtd">
<!-- Generated by graphviz version 12.1.2 (0)
 -->
<!-- Title: anch::crypto::Hash&lt; O, B &gt; Pages: 1 -->
<svg width="329pt" height="673pt"
 viewBox="0.00 0.00 329.00 673.00" xmlns="http://www.w3.org/2000/svg" xmlns:xlink="http://www.w3.org/1999/xlink">
<g id="graph0" class="graph" transform="scale(1 1) rotate(0) translate(4 669)">
<title>anch::crypto::Hash&lt; O, B &gt;</title>
<!-- Node1 -->
<g id="Node000001" class="node">
<title>Node1</title>
<g id="a_Node000001"><a xlink:title="Hash algorithm abstract class.">
<polygon fill="#999999" stroke="none" points="207.5,-665 114.5,-665 114.5,-457 207.5,-457 207.5,-665"/>
<text text-anchor="start" x="119.38" y="-651.5" font-family="Helvetica,sans-Serif" font-size="10.00">anch::crypto::Hash</text>
<text text-anchor="start" x="141.88" y="-639.5" font-family="Helvetica,sans-Serif" font-size="10.00">&lt; O, B &gt;</text>
<text text-anchor="start" x="120.38" y="-623.5" font-family="Helvetica,sans-Serif" font-size="10.00">#</text>
<text text-anchor="start" x="131.5" y="-623.5" font-family="Helvetica,sans-Serif" font-size="10.00">_digest</text>
<text text-anchor="start" x="120" y="-607.5" font-family="Helvetica,sans-Serif" font-size="10.00">+</text>
<text text-anchor="start" x="131.5" y="-607.5" font-family="Helvetica,sans-Serif" font-size="10.00">digest()</text>
<text text-anchor="start" x="120" y="-591.5" font-family="Helvetica,sans-Serif" font-size="10.00">+</text>
<text text-anchor="start" x="131.5" y="-591.5" font-family="Helvetica,sans-Serif" font-size="10.00">digest()</text>
<text text-anchor="start" x="120" y="-575.5" font-family="Helvetica,sans-Serif" font-size="10.00">+</text>
<text text-anchor="start" x="131.5" y="-575.5" font-family="Helvetica,sans-Serif" font-size="10.00">digest()</text>
<text text-anchor="start" x="120" y="-559.5" font-family="Helvetica,sans-Serif" font-size="10.00">+</text>
<text text-anchor="start" x="131.5" y="-559.5" font-family="Helvetica,sans-Serif" font-size="10.00">digest()</text>
<text text-anchor="start" x="120" y="-543.5" font-family="Helvetica,sans-Serif" font-size="10.00">+</text>
<text text-anchor="start" x="131.5" y="-543.5" font-family="Helvetica,sans-Serif" font-size="10.00">digest()</text>
<text text-anchor="start" x="120" y="-527.5" font-family="Helvetica,sans-Serif" font-size="10.00">+</text>
<text text-anchor="start" x="131.5" y="-527.5" font-family="Helvetica,sans-Serif" font-size="10.00">getOutputSize()</text>
<text text-anchor="start" x="120" y="-511.5" font-family="Helvetica,sans-Serif" font-size="10.00">+</text>
<text text-anchor="start" x="131.5" y="-511.5" font-family="Helvetica,sans-Serif" font-size="10.00">getBlockSize()</text>
<text text-anchor="start" x="120.38" y="-495.5" font-family="Helvetica,sans-Serif" font-size="10.00">#</text>
<text text-anchor="start" x="131.5" y="-495.5" font-family="Helvetica,sans-Serif" font-size="10.00">reset()</text>
<text text-anchor="start" x="120.38" y="-479.5" font-family="Helvetica,sans-Serif" font-size="10.00">#</text>
<text text-anchor="start" x="131.5" y="-479.5" font-family="Helvetica,sans-Serif" font-size="10.00">addData()</text>
<text text-anchor="start" x="120.38" y="-463.5" font-family="Helvetica,sans-Serif" font-size="10.00">#</text>
<text text-anchor="start" x="131.5" y="-463.5" font-family="Helvetica,sans-Serif" font-size="10.00">finalize()</text>
<polygon fill="#666666" stroke="#666666" points="114.5,-635 114.5,-635 207.5,-635 207.5,-635 114.5,-635"/>
<polygon fill="#666666" stroke="#666666" points="114.5,-619 114.5,-619 129.5,-619 129.5,-619 114.5,-619"/>
<polygon fill="#666666" stroke="#666666" points="129.5,-619 129.5,-619 207.5,-619 207.5,-619 129.5,-619"/>
<polygon fill="none" stroke="#666666" points="114.5,-457 114.5,-665 207.5,-665 207.5,-457 114.5,-457"/>
</a>
</g>
</g>
<!-- Node2 -->
<g id="Node000002" class="node">
<title>Node2</title>
<g id="a_Node000002"><a xlink:href="classanch_1_1crypto_1_1_s_h_a2.html" target="_top" xlink:title="SHA2 abstract class.">
<polygon fill="white" stroke="none" points="96,-377 0,-377 0,-233 96,-233 96,-377"/>
<text text-anchor="start" x="4.88" y="-363.5" font-family="Helvetica,sans-Serif" font-size="10.00">anch::crypto::SHA2</text>
<text text-anchor="start" x="10.12" y="-351.5" font-family="Helvetica,sans-Serif" font-size="10.00">&lt; O, B, W, R, I &gt;</text>
<text text-anchor="start" x="10.38" y="-335.5" font-family="Helvetica,sans-Serif" font-size="10.00">#</text>
<text text-anchor="start" x="26" y="-335.5" font-family="Helvetica,sans-Serif" font-size="10.00">_context</text>
<text text-anchor="start" x="10" y="-319.5" font-family="Helvetica,sans-Serif" font-size="10.00">+</text>
<text text-anchor="start" x="26" y="-319.5" font-family="Helvetica,sans-Serif" font-size="10.00">SHA2()</text>
<text text-anchor="start" x="10" y="-303.5" font-family="Helvetica,sans-Serif" font-size="10.00">+</text>
<text text-anchor="start" x="26" y="-303.5" font-family="Helvetica,sans-Serif" font-size="10.00">~SHA2()</text>
<text text-anchor="start" x="10" y="-287.5" font-family="Helvetica,sans-Serif" font-size="10.00">+</text>
<text text-anchor="start" x="26" y="-287.5" font-family="Helvetica,sans-Serif" font-size="10.00">digest()</text>
<text text-anchor="start" x="10.38" y="-271.5" font-family="Helvetica,sans-Serif" font-size="10.00">#</text>
<text text-anchor="start" x="26" y="-271.5" font-family="Helvetica,sans-Serif" font-size="10.00">shiftRight()</text>
<text text-anchor="start" x="10.38" y="-255.5" font-family="Helvetica,sans-Serif" font-size="10.00">#</text>
<text text-anchor="start" x="26" y="-255.5" font-family="Helvetica,sans-Serif" font-size="10.00">rotateLeft()</text>
<text text-anchor="start" x="10.38" y="-239.5" font-family="Helvetica,sans-Serif" font-size="10.00">#</text>
<text text-anchor="start" x="26" y="-239.5" font-family="Helvetica,sans-Serif" font-size="10.00">rotateRight()</text>
<polygon fill="#666666" stroke="#666666" points="0,-347 0,-347 96,-347 96,-347 0,-347"/>
<polygon fill="#666666" stroke="#666666" points="0,-331 0,-331 24,-331 24,-331 0,-331"/>
<polygon fill="#666666" stroke="#666666" points="24,-331 24,-331 96,-331 96,-331 24,-331"/>
<polygon fill="none" stroke="#666666" points="0,-233 0,-377 96,-377 96,-233 0,-233"/>
</a>
</g>
</g>
<!-- Node1&#45;&gt;Node2 -->
<g id="edge1_Node000001_Node000002" class="edge">
<title>Node1&#45;&gt;Node2</title>
<g id="a_edge1_Node000001_Node000002"><a xlink:title=" ">
<path fill="none" stroke="#63b8ff" d="M110.54,-446.57C99.97,-422.83 89.13,-398.44 79.49,-376.79"/>
<polygon fill="none" stroke="#63b8ff" points="107.32,-447.96 114.59,-455.67 113.72,-445.11 107.32,-447.96"/>
</a>
</g>
</g>
<!-- Node3 -->
<g id="Node000003" class="node">
<title>Node3</title>
<g id="a_Node000003"><a xlink:href="classanch_1_1crypto_1_1_hash.html" target="_top" xlink:title=" ">
<polygon fill="white" stroke="none" points="207.5,-409 114.5,-409 114.5,-201 207.5,-201 207.5,-409"/>
<text text-anchor="start" x="119.38" y="-395.5" font-family="Helvetica,sans-Serif" font-size="10.00">anch::crypto::Hash</text>
<text text-anchor="start" x="138.5" y="-383.5" font-family="Helvetica,sans-Serif" font-size="10.00">&lt; 16, 64 &gt;</text>
<text text-anchor="start" x="120.38" y="-367.5" font-family="Helvetica,sans-Serif" font-size="10.00">#</text>
<text text-anchor="start" x="131.5" y="-367.5" font-family="Helvetica,sans-Serif" font-size="10.00">_digest</text>
<text text-anchor="start" x="120" y="-351.5" font-family="Helvetica,sans-Serif" font-size="10.00">+</text>
<text text-anchor="start" x="131.5" y="-351.5" font-family="Helvetica,sans-Serif" font-size="10.00">digest()</text>
<text text-anchor="start" x="120" y="-335.5" font-family="Helvetica,sans-Serif" font-size="10.00">+</text>
<text text-anchor="start" x="131.5" y="-335.5" font-family="Helvetica,sans-Serif" font-size="10.00">digest()</text>
<text text-anchor="start" x="120" y="-319.5" font-family="Helvetica,sans-Serif" font-size="10.00">+</text>
<text text-anchor="start" x="131.5" y="-319.5" font-family="Helvetica,sans-Serif" font-size="10.00">digest()</text>
<text text-anchor="start" x="120" y="-303.5" font-family="Helvetica,sans-Serif" font-size="10.00">+</text>
<text text-anchor="start" x="131.5" y="-303.5" font-family="Helvetica,sans-Serif" font-size="10.00">digest()</text>
<text text-anchor="start" x="120" y="-287.5" font-family="Helvetica,sans-Serif" font-size="10.00">+</text>
<text text-anchor="start" x="131.5" y="-287.5" font-family="Helvetica,sans-Serif" font-size="10.00">digest()</text>
<text text-anchor="start" x="120" y="-271.5" font-family="Helvetica,sans-Serif" font-size="10.00">+</text>
<text text-anchor="start" x="131.5" y="-271.5" font-family="Helvetica,sans-Serif" font-size="10.00">getOutputSize()</text>
<text text-anchor="start" x="120" y="-255.5" font-family="Helvetica,sans-Serif" font-size="10.00">+</text>
<text text-anchor="start" x="131.5" y="-255.5" font-family="Helvetica,sans-Serif" font-size="10.00">getBlockSize()</text>
<text text-anchor="start" x="120.38" y="-239.5" font-family="Helvetica,sans-Serif" font-size="10.00">#</text>
<text text-anchor="start" x="131.5" y="-239.5" font-family="Helvetica,sans-Serif" font-size="10.00">reset()</text>
<text text-anchor="start" x="120.38" y="-223.5" font-family="Helvetica,sans-Serif" font-size="10.00">#</text>
<text text-anchor="start" x="131.5" y="-223.5" font-family="Helvetica,sans-Serif" font-size="10.00">addData()</text>
<text text-anchor="start" x="120.38" y="-207.5" font-family="Helvetica,sans-Serif" font-size="10.00">#</text>
<text text-anchor="start" x="131.5" y="-207.5" font-family="Helvetica,sans-Serif" font-size="10.00">finalize()</text>
<polygon fill="#666666" stroke="#666666" points="114.5,-379 114.5,-379 207.5,-379 207.5,-379 114.5,-379"/>
<polygon fill="#666666" stroke="#666666" points="114.5,-363 114.5,-363 129.5,-363 129.5,-363 114.5,-363"/>
<polygon fill="#666666" stroke="#666666" points="129.5,-363 129.5,-363 207.5,-363 207.5,-363 129.5,-363"/>
<polygon fill="none" stroke="#666666" points="114.5,-201 114.5,-409 207.5,-409 207.5,-201 114.5,-201"/>
</a>
</g>
</g>
<!-- Node1&#45;&gt;Node3 -->
<g id="edge2_Node000001_Node000003" class="edge">
<title>Node1&#45;&gt;Node3</title>
<g id="a_edge2_Node000001_Node000003"><a xlink:title=" ">
<path fill="none" stroke="orange" d="M161,-445.77C161,-433.41 161,-420.89 161,-408.68"/>
<polygon fill="orange" stroke="orange" points="157.5,-445.54 161,-455.54 164.5,-445.54 157.5,-445.54"/>
</a>
</g>
<text text-anchor="middle" x="185" y="-429.5" font-family="Helvetica,sans-Serif" font-size="10.00" fill="grey"> &lt; 16, 64 &gt;</text>
</g>
<!-- Node5 -->
<g id="Node000005" class="node">
<title>Node5</title>
<g id="a_Node000005"><a xlink:href="classanch_1_1crypto_1_1_hash.html" target="_top" xlink:title=" ">
<polygon fill="white" stroke="none" points="319.5,-409 226.5,-409 226.5,-201 319.5,-201 319.5,-409"/>
<text text-anchor="start" x="231.38" y="-395.5" font-family="Helvetica,sans-Serif" font-size="10.00">anch::crypto::Hash</text>
<text text-anchor="start" x="250.5" y="-383.5" font-family="Helvetica,sans-Serif" font-size="10.00">&lt; 20, 64 &gt;</text>
<text text-anchor="start" x="232.38" y="-367.5" font-family="Helvetica,sans-Serif" font-size="10.00">#</text>
<text text-anchor="start" x="243.5" y="-367.5" font-family="Helvetica,sans-Serif" font-size="10.00">_digest</text>
<text text-anchor="start" x="232" y="-351.5" font-family="Helvetica,sans-Serif" font-size="10.00">+</text>
<text text-anchor="start" x="243.5" y="-351.5" font-family="Helvetica,sans-Serif" font-size="10.00">digest()</text>
<text text-anchor="start" x="232" y="-335.5" font-family="Helvetica,sans-Serif" font-size="10.00">+</text>
<text text-anchor="start" x="243.5" y="-335.5" font-family="Helvetica,sans-Serif" font-size="10.00">digest()</text>
<text text-anchor="start" x="232" y="-319.5" font-family="Helvetica,sans-Serif" font-size="10.00">+</text>
<text text-anchor="start" x="243.5" y="-319.5" font-family="Helvetica,sans-Serif" font-size="10.00">digest()</text>
<text text-anchor="start" x="232" y="-303.5" font-family="Helvetica,sans-Serif" font-size="10.00">+</text>
<text text-anchor="start" x="243.5" y="-303.5" font-family="Helvetica,sans-Serif" font-size="10.00">digest()</text>
<text text-anchor="start" x="232" y="-287.5" font-family="Helvetica,sans-Serif" font-size="10.00">+</text>
<text text-anchor="start" x="243.5" y="-287.5" font-family="Helvetica,sans-Serif" font-size="10.00">digest()</text>
<text text-anchor="start" x="232" y="-271.5" font-family="Helvetica,sans-Serif" font-size="10.00">+</text>
<text text-anchor="start" x="243.5" y="-271.5" font-family="Helvetica,sans-Serif" font-size="10.00">getOutputSize()</text>
<text text-anchor="start" x="232" y="-255.5" font-family="Helvetica,sans-Serif" font-size="10.00">+</text>
<text text-anchor="start" x="243.5" y="-255.5" font-family="Helvetica,sans-Serif" font-size="10.00">getBlockSize()</text>
<text text-anchor="start" x="232.38" y="-239.5" font-family="Helvetica,sans-Serif" font-size="10.00">#</text>
<text text-anchor="start" x="243.5" y="-239.5" font-family="Helvetica,sans-Serif" font-size="10.00">reset()</text>
<text text-anchor="start" x="232.38" y="-223.5" font-family="Helvetica,sans-Serif" font-size="10.00">#</text>
<text text-anchor="start" x="243.5" y="-223.5" font-family="Helvetica,sans-Serif" font-size="10.00">addData()</text>
<text text-anchor="start" x="232.38" y="-207.5" font-family="Helvetica,sans-Serif" font-size="10.00">#</text>
<text text-anchor="start" x="243.5" y="-207.5" font-family="Helvetica,sans-Serif" font-size="10.00">finalize()</text>
<polygon fill="#666666" stroke="#666666" points="226.5,-379 226.5,-379 319.5,-379 319.5,-379 226.5,-379"/>
<polygon fill="#666666" stroke="#666666" points="226.5,-363 226.5,-363 241.5,-363 241.5,-363 226.5,-363"/>
<polygon fill="#666666" stroke="#666666" points="241.5,-363 241.5,-363 319.5,-363 319.5,-363 241.5,-363"/>
<polygon fill="none" stroke="#666666" points="226.5,-201 226.5,-409 319.5,-409 319.5,-201 226.5,-201"/>
</a>
</g>
</g>
<!-- Node1&#45;&gt;Node5 -->
<g id="edge4_Node000001_Node000005" class="edge">
<title>Node1&#45;&gt;Node5</title>
<g id="a_edge4_Node000001_Node000005"><a xlink:title=" ">
<path fill="none" stroke="orange" d="M211.04,-446.52C216.59,-433.92 222.23,-421.14 227.72,-408.68"/>
<polygon fill="orange" stroke="orange" points="207.84,-445.11 207,-455.67 214.24,-447.93 207.84,-445.11"/>
</a>
</g>
<text text-anchor="middle" x="241" y="-429.5" font-family="Helvetica,sans-Serif" font-size="10.00" fill="grey"> &lt; 20, 64 &gt;</text>
</g>
<!-- Node4 -->
<g id="Node000004" class="node">
<title>Node4</title>
<g id="a_Node000004"><a xlink:href="classanch_1_1crypto_1_1_m_d5.html" target="_top" xlink:title="MD5 hash algorithm implementation.">
<polygon fill="white" stroke="none" points="206.5,-164 115.5,-164 115.5,0 206.5,0 206.5,-164"/>
<text text-anchor="start" x="120.5" y="-150.5" font-family="Helvetica,sans-Serif" font-size="10.00">anch::crypto::MD5</text>
<text text-anchor="start" x="159.5" y="-134.5" font-family="Helvetica,sans-Serif" font-size="10.00"> </text>
<text text-anchor="start" x="127" y="-118.5" font-family="Helvetica,sans-Serif" font-size="10.00">+</text>
<text text-anchor="start" x="144.5" y="-118.5" font-family="Helvetica,sans-Serif" font-size="10.00">MD5()</text>
<text text-anchor="start" x="127" y="-102.5" font-family="Helvetica,sans-Serif" font-size="10.00">+</text>
<text text-anchor="start" x="144.5" y="-102.5" font-family="Helvetica,sans-Serif" font-size="10.00">MD5()</text>
<text text-anchor="start" x="127" y="-86.5" font-family="Helvetica,sans-Serif" font-size="10.00">+</text>
<text text-anchor="start" x="144.5" y="-86.5" font-family="Helvetica,sans-Serif" font-size="10.00">MD5()</text>
<text text-anchor="start" x="127" y="-70.5" font-family="Helvetica,sans-Serif" font-size="10.00">+</text>
<text text-anchor="start" x="144.5" y="-70.5" font-family="Helvetica,sans-Serif" font-size="10.00">~MD5()</text>
<text text-anchor="start" x="127" y="-54.5" font-family="Helvetica,sans-Serif" font-size="10.00">+</text>
<text text-anchor="start" x="144.5" y="-54.5" font-family="Helvetica,sans-Serif" font-size="10.00">digest()</text>
<text text-anchor="start" x="127.38" y="-38.5" font-family="Helvetica,sans-Serif" font-size="10.00">#</text>
<text text-anchor="start" x="144.5" y="-38.5" font-family="Helvetica,sans-Serif" font-size="10.00">reset()</text>
<text text-anchor="start" x="127.38" y="-22.5" font-family="Helvetica,sans-Serif" font-size="10.00">#</text>
<text text-anchor="start" x="144.5" y="-22.5" font-family="Helvetica,sans-Serif" font-size="10.00">addData()</text>
<text text-anchor="start" x="127.38" y="-6.5" font-family="Helvetica,sans-Serif" font-size="10.00">#</text>
<text text-anchor="start" x="144.5" y="-6.5" font-family="Helvetica,sans-Serif" font-size="10.00">finalize()</text>
<polygon fill="#666666" stroke="#666666" points="115.5,-146 115.5,-146 206.5,-146 206.5,-146 115.5,-146"/>
<polygon fill="#666666" stroke="#666666" points="115.5,-130 115.5,-130 206.5,-130 206.5,-130 115.5,-130"/>
<polygon fill="none" stroke="#666666" points="115.5,0 115.5,-164 206.5,-164 206.5,0 115.5,0"/>
</a>
</g>
</g>
<!-- Node3&#45;&gt;Node4 -->
<g id="edge3_Node000003_Node000004" class="edge">
<title>Node3&#45;&gt;Node4</title>
<g id="a_edge3_Node000003_Node000004"><a xlink:title=" ">
<path fill="none" stroke="#63b8ff" d="M161,-189.81C161,-181.09 161,-172.41 161,-163.97"/>
<polygon fill="none" stroke="#63b8ff" points="157.5,-189.75 161,-199.75 164.5,-189.75 157.5,-189.75"/>
</a>
</g>
</g>
<!-- Node6 -->
<g id="Node000006" class="node">
<title>Node6</title>
<g id="a_Node000006"><a xlink:href="classanch_1_1crypto_1_1_s_h_a1.html" target="_top" xlink:title="SHA1 hash algorithm implementation.">
<polygon fill="white" stroke="none" points="321,-164 225,-164 225,0 321,0 321,-164"/>
<text text-anchor="start" x="229.88" y="-150.5" font-family="Helvetica,sans-Serif" font-size="10.00">anch::crypto::SHA1</text>
<text text-anchor="start" x="271.5" y="-134.5" font-family="Helvetica,sans-Serif" font-size="10.00"> </text>
<text text-anchor="start" x="238" y="-118.5" font-family="Helvetica,sans-Serif" font-size="10.00">+</text>
<text text-anchor="start" x="257" y="-118.5" font-family="Helvetica,sans-Serif" font-size="10.00">SHA1()</text>
<text text-anchor="start" x="238" y="-102.5" font-family="Helvetica,sans-Serif" font-size="10.00">+</text>
<text text-anchor="start" x="257" y="-102.5" font-family="Helvetica,sans-Serif" font-size="10.00">SHA1()</text>
<text text-anchor="start" x="238" y="-86.5" font-family="Helvetica,sans-Serif" font-size="10.00">+</text>
<text text-anchor="start" x="257" y="-86.5" font-family="Helvetica,sans-Serif" font-size="10.00">SHA1()</text>
<text text-anchor="start" x="238" y="-70.5" font-family="Helvetica,sans-Serif" font-size="10.00">+</text>
<text text-anchor="start" x="257" y="-70.5" font-family="Helvetica,sans-Serif" font-size="10.00">~SHA1()</text>
<text text-anchor="start" x="238" y="-54.5" font-family="Helvetica,sans-Serif" font-size="10.00">+</text>
<text text-anchor="start" x="257" y="-54.5" font-family="Helvetica,sans-Serif" font-size="10.00">digest()</text>
<text text-anchor="start" x="238.38" y="-38.5" font-family="Helvetica,sans-Serif" font-size="10.00">#</text>
<text text-anchor="start" x="257" y="-38.5" font-family="Helvetica,sans-Serif" font-size="10.00">reset()</text>
<text text-anchor="start" x="238.38" y="-22.5" font-family="Helvetica,sans-Serif" font-size="10.00">#</text>
<text text-anchor="start" x="257" y="-22.5" font-family="Helvetica,sans-Serif" font-size="10.00">addData()</text>
<text text-anchor="start" x="238.38" y="-6.5" font-family="Helvetica,sans-Serif" font-size="10.00">#</text>
<text text-anchor="start" x="257" y="-6.5" font-family="Helvetica,sans-Serif" font-size="10.00">finalize()</text>
<polygon fill="#666666" stroke="#666666" points="225,-146 225,-146 321,-146 321,-146 225,-146"/>
<polygon fill="#666666" stroke="#666666" points="225,-130 225,-130 321,-130 321,-130 225,-130"/>
<polygon fill="none" stroke="#666666" points="225,0 225,-164 321,-164 321,0 225,0"/>
</a>
</g>
</g>
<!-- Node5&#45;&gt;Node6 -->
<g id="edge5_Node000005_Node000006" class="edge">
<title>Node5&#45;&gt;Node6</title>
<g id="a_edge5_Node000005_Node000006"><a xlink:title=" ">
<path fill="none" stroke="#63b8ff" d="M273,-189.81C273,-181.09 273,-172.41 273,-163.97"/>
<polygon fill="none" stroke="#63b8ff" points="269.5,-189.75 273,-199.75 276.5,-189.75 269.5,-189.75"/>
</a>
</g>
</g>
</g>
</svg>
