<?xml version="1.0" encoding="UTF-8" standalone="no"?>
<!DOCTYPE svg PUBLIC "-//W3C//DTD SVG 1.1//EN"
 "http://www.w3.org/Graphics/SVG/1.1/DTD/svg11.dtd">
<!-- Generated by graphviz version 2.40.1 (20161225.0304)
 -->
<!-- Title: anch::sql::PostgreSQLResultSet Pages: 1 -->
<svg width="252pt" height="762pt"
 viewBox="0.00 0.00 252.00 762.00" xmlns="http://www.w3.org/2000/svg" xmlns:xlink="http://www.w3.org/1999/xlink">
<g id="graph0" class="graph" transform="scale(1 1) rotate(0) translate(4 758)">
<title>anch::sql::PostgreSQLResultSet</title>
<!-- Node2 -->
<g id="node1" class="node">
<title>Node2</title>
<polygon fill="#bfbfbf" stroke="#000000" points="18.5,-.5 18.5,-123.5 185.5,-123.5 185.5,-.5 18.5,-.5"/>
<text text-anchor="middle" x="102" y="-111.5" font-family="Helvetica,sans-Serif" font-size="10.00" fill="#000000">anch::sql::PostgreSQLResultSet</text>
<polyline fill="none" stroke="#000000" points="18.5,-104.5 185.5,-104.5 "/>
<text text-anchor="middle" x="102" y="-92.5" font-family="Helvetica,sans-Serif" font-size="10.00" fill="#000000"> </text>
<polyline fill="none" stroke="#000000" points="18.5,-85.5 185.5,-85.5 "/>
<text text-anchor="start" x="26.5" y="-73.5" font-family="Helvetica,sans-Serif" font-size="10.00" fill="#000000">+ PostgreSQLResultSet()</text>
<text text-anchor="start" x="26.5" y="-62.5" font-family="Helvetica,sans-Serif" font-size="10.00" fill="#000000">+ ~PostgreSQLResultSet()</text>
<text text-anchor="start" x="26.5" y="-51.5" font-family="Helvetica,sans-Serif" font-size="10.00" fill="#000000">+ next()</text>
<text text-anchor="start" x="26.5" y="-40.5" font-family="Helvetica,sans-Serif" font-size="10.00" fill="#000000"># getValue()</text>
<text text-anchor="start" x="26.5" y="-29.5" font-family="Helvetica,sans-Serif" font-size="10.00" fill="#000000"># getDateFormatter()</text>
<text text-anchor="start" x="26.5" y="-18.5" font-family="Helvetica,sans-Serif" font-size="10.00" fill="#000000"># getTimeFormatter()</text>
<text text-anchor="start" x="26.5" y="-7.5" font-family="Helvetica,sans-Serif" font-size="10.00" fill="#000000"># getTimestampFormatter()</text>
</g>
<!-- Node3 -->
<g id="node2" class="node">
<title>Node3</title>
<g id="a_node2"><a xlink:href="classanch_1_1sql_1_1_result_set.html" target="_top" xlink:title="SQL result representation. ">
<polygon fill="none" stroke="#000000" points="6.5,-161.5 6.5,-405.5 197.5,-405.5 197.5,-161.5 6.5,-161.5"/>
<text text-anchor="middle" x="102" y="-393.5" font-family="Helvetica,sans-Serif" font-size="10.00" fill="#000000">anch::sql::ResultSet</text>
<polyline fill="none" stroke="#000000" points="6.5,-386.5 197.5,-386.5 "/>
<text text-anchor="middle" x="102" y="-374.5" font-family="Helvetica,sans-Serif" font-size="10.00" fill="#000000"> </text>
<polyline fill="none" stroke="#000000" points="6.5,-367.5 197.5,-367.5 "/>
<text text-anchor="start" x="14.5" y="-355.5" font-family="Helvetica,sans-Serif" font-size="10.00" fill="#000000">+ ResultSet()</text>
<text text-anchor="start" x="14.5" y="-344.5" font-family="Helvetica,sans-Serif" font-size="10.00" fill="#000000">+ ~ResultSet()</text>
<text text-anchor="start" x="14.5" y="-333.5" font-family="Helvetica,sans-Serif" font-size="10.00" fill="#000000">+ get()</text>
<text text-anchor="start" x="14.5" y="-322.5" font-family="Helvetica,sans-Serif" font-size="10.00" fill="#000000">+ get()</text>
<text text-anchor="start" x="14.5" y="-311.5" font-family="Helvetica,sans-Serif" font-size="10.00" fill="#000000">+ get()</text>
<text text-anchor="start" x="14.5" y="-300.5" font-family="Helvetica,sans-Serif" font-size="10.00" fill="#000000">+ get()</text>
<text text-anchor="start" x="14.5" y="-289.5" font-family="Helvetica,sans-Serif" font-size="10.00" fill="#000000">+ next()</text>
<text text-anchor="start" x="14.5" y="-278.5" font-family="Helvetica,sans-Serif" font-size="10.00" fill="#000000">+ get()</text>
<text text-anchor="start" x="14.5" y="-267.5" font-family="Helvetica,sans-Serif" font-size="10.00" fill="#000000">+ get()</text>
<text text-anchor="start" x="14.5" y="-256.5" font-family="Helvetica,sans-Serif" font-size="10.00" fill="#000000">+ get()</text>
<text text-anchor="start" x="14.5" y="-245.5" font-family="Helvetica,sans-Serif" font-size="10.00" fill="#000000">and 9 more...</text>
<text text-anchor="start" x="14.5" y="-234.5" font-family="Helvetica,sans-Serif" font-size="10.00" fill="#000000"># getValue()</text>
<text text-anchor="start" x="14.5" y="-223.5" font-family="Helvetica,sans-Serif" font-size="10.00" fill="#000000"># getDateFormatter()</text>
<text text-anchor="start" x="14.5" y="-212.5" font-family="Helvetica,sans-Serif" font-size="10.00" fill="#000000"># getTimeFormatter()</text>
<text text-anchor="start" x="14.5" y="-201.5" font-family="Helvetica,sans-Serif" font-size="10.00" fill="#000000"># getTimestampFormatter()</text>
<text text-anchor="start" x="14.5" y="-190.5" font-family="Helvetica,sans-Serif" font-size="10.00" fill="#000000"># getDefaultDateFormatter()</text>
<text text-anchor="start" x="14.5" y="-179.5" font-family="Helvetica,sans-Serif" font-size="10.00" fill="#000000"># getDefaultTimeFormatter()</text>
<text text-anchor="start" x="14.5" y="-168.5" font-family="Helvetica,sans-Serif" font-size="10.00" fill="#000000"># getDefaultTimestampFormatter()</text>
</a>
</g>
</g>
<!-- Node3&#45;&gt;Node2 -->
<g id="edge1" class="edge">
<title>Node3&#45;&gt;Node2</title>
<path fill="none" stroke="#191970" d="M102,-151.3824C102,-141.8232 102,-132.4848 102,-123.6668"/>
<polygon fill="none" stroke="#191970" points="98.5001,-151.4115 102,-161.4115 105.5001,-151.4115 98.5001,-151.4115"/>
</g>
<!-- Node4 -->
<g id="node3" class="node">
<title>Node4</title>
<polygon fill="none" stroke="#bfbfbf" points="41,-453.5 41,-521.5 163,-521.5 163,-453.5 41,-453.5"/>
<text text-anchor="start" x="49" y="-509.5" font-family="Helvetica,sans-Serif" font-size="10.00" fill="#000000">std::map&lt; std::string,</text>
<text text-anchor="middle" x="102" y="-498.5" font-family="Helvetica,sans-Serif" font-size="10.00" fill="#000000"> std::size_t &gt;</text>
<polyline fill="none" stroke="#bfbfbf" points="41,-491.5 163,-491.5 "/>
<text text-anchor="start" x="49" y="-479.5" font-family="Helvetica,sans-Serif" font-size="10.00" fill="#000000">+ elements</text>
<polyline fill="none" stroke="#bfbfbf" points="41,-472.5 163,-472.5 "/>
<text text-anchor="middle" x="102" y="-460.5" font-family="Helvetica,sans-Serif" font-size="10.00" fill="#000000"> </text>
</g>
<!-- Node4&#45;&gt;Node3 -->
<g id="edge2" class="edge">
<title>Node4&#45;&gt;Node3</title>
<path fill="none" stroke="#404040" d="M102,-453.355C102,-442.934 102,-430.7837 102,-417.8602"/>
<polygon fill="none" stroke="#404040" points="102.0001,-417.8017 98,-411.8018 102,-405.8017 106,-411.8017 102.0001,-417.8017"/>
<text text-anchor="middle" x="123.5" y="-427" font-family="Helvetica,sans-Serif" font-size="10.00" fill="#000000"> #_fields</text>
</g>
<!-- Node5 -->
<g id="node4" class="node">
<title>Node5</title>
<g id="a_node4"><a xlink:title="STL class. ">
<polygon fill="none" stroke="#bfbfbf" points="19.5,-580.5 19.5,-637.5 84.5,-637.5 84.5,-580.5 19.5,-580.5"/>
<text text-anchor="middle" x="52" y="-625.5" font-family="Helvetica,sans-Serif" font-size="10.00" fill="#000000">std::string</text>
<polyline fill="none" stroke="#bfbfbf" points="19.5,-618.5 84.5,-618.5 "/>
<text text-anchor="middle" x="52" y="-606.5" font-family="Helvetica,sans-Serif" font-size="10.00" fill="#000000"> </text>
<polyline fill="none" stroke="#bfbfbf" points="19.5,-599.5 84.5,-599.5 "/>
<text text-anchor="middle" x="52" y="-587.5" font-family="Helvetica,sans-Serif" font-size="10.00" fill="#000000"> </text>
</a>
</g>
</g>
<!-- Node5&#45;&gt;Node4 -->
<g id="edge3" class="edge">
<title>Node5&#45;&gt;Node4</title>
<path fill="none" stroke="#404040" d="M63.8493,-580.2062C69.6588,-566.0891 76.7928,-548.7535 83.3136,-532.908"/>
<polygon fill="none" stroke="#404040" points="83.3589,-532.7978 81.9432,-525.727 87.9256,-521.7007 89.3413,-528.7715 83.3589,-532.7978"/>
<text text-anchor="middle" x="97.5" y="-548.5" font-family="Helvetica,sans-Serif" font-size="10.00" fill="#000000"> +keys</text>
</g>
<!-- Node6 -->
<g id="node5" class="node">
<title>Node6</title>
<g id="a_node5"><a xlink:title="STL class. ">
<polygon fill="none" stroke="#bfbfbf" points="0,-685.5 0,-753.5 104,-753.5 104,-685.5 0,-685.5"/>
<text text-anchor="start" x="8" y="-741.5" font-family="Helvetica,sans-Serif" font-size="10.00" fill="#000000">std::basic_string&lt;</text>
<text text-anchor="middle" x="52" y="-730.5" font-family="Helvetica,sans-Serif" font-size="10.00" fill="#000000"> char &gt;</text>
<polyline fill="none" stroke="#bfbfbf" points="0,-723.5 104,-723.5 "/>
<text text-anchor="middle" x="52" y="-711.5" font-family="Helvetica,sans-Serif" font-size="10.00" fill="#000000"> </text>
<polyline fill="none" stroke="#bfbfbf" points="0,-704.5 104,-704.5 "/>
<text text-anchor="middle" x="52" y="-692.5" font-family="Helvetica,sans-Serif" font-size="10.00" fill="#000000"> </text>
</a>
</g>
</g>
<!-- Node6&#45;&gt;Node5 -->
<g id="edge4" class="edge">
<title>Node6&#45;&gt;Node5</title>
<path fill="none" stroke="#191970" d="M52,-675.0661C52,-662.4172 52,-648.9812 52,-637.5519"/>
<polygon fill="none" stroke="#191970" points="48.5001,-675.4447 52,-685.4447 55.5001,-675.4447 48.5001,-675.4447"/>
</g>
<!-- Node7 -->
<g id="node6" class="node">
<title>Node7</title>
<g id="a_node6"><a xlink:title="STL class. ">
<polygon fill="none" stroke="#bfbfbf" points="102.5,-580.5 102.5,-637.5 203.5,-637.5 203.5,-580.5 102.5,-580.5"/>
<text text-anchor="middle" x="153" y="-625.5" font-family="Helvetica,sans-Serif" font-size="10.00" fill="#000000">std::map&lt; K, T &gt;</text>
<polyline fill="none" stroke="#bfbfbf" points="102.5,-618.5 203.5,-618.5 "/>
<text text-anchor="middle" x="153" y="-606.5" font-family="Helvetica,sans-Serif" font-size="10.00" fill="#000000"> </text>
<polyline fill="none" stroke="#bfbfbf" points="102.5,-599.5 203.5,-599.5 "/>
<text text-anchor="middle" x="153" y="-587.5" font-family="Helvetica,sans-Serif" font-size="10.00" fill="#000000"> </text>
</a>
</g>
</g>
<!-- Node7&#45;&gt;Node4 -->
<g id="edge5" class="edge">
<title>Node7&#45;&gt;Node4</title>
<path fill="none" stroke="#ffa500" d="M136.951,-570.7657C130.3516,-555.0436 122.7685,-536.9779 116.3559,-521.7007"/>
<polygon fill="#ffa500" stroke="#ffa500" points="133.816,-572.3402 140.9137,-580.2062 140.2705,-569.6309 133.816,-572.3402"/>
<text text-anchor="start" x="133" y="-554" font-family="Helvetica,sans-Serif" font-size="10.00" fill="#000000"> &lt; std::string, std</text>
<text text-anchor="middle" x="175.5" y="-543" font-family="Helvetica,sans-Serif" font-size="10.00" fill="#000000">::size_t &gt;</text>
</g>
<!-- Node8 -->
<g id="node7" class="node">
<title>Node8</title>
<polygon fill="none" stroke="#bfbfbf" points="130.5,-691 130.5,-748 159.5,-748 159.5,-691 130.5,-691"/>
<text text-anchor="middle" x="145" y="-736" font-family="Helvetica,sans-Serif" font-size="10.00" fill="#000000">K</text>
<polyline fill="none" stroke="#bfbfbf" points="130.5,-729 159.5,-729 "/>
<text text-anchor="middle" x="145" y="-717" font-family="Helvetica,sans-Serif" font-size="10.00" fill="#000000"> </text>
<polyline fill="none" stroke="#bfbfbf" points="130.5,-710 159.5,-710 "/>
<text text-anchor="middle" x="145" y="-698" font-family="Helvetica,sans-Serif" font-size="10.00" fill="#000000"> </text>
</g>
<!-- Node8&#45;&gt;Node7 -->
<g id="edge6" class="edge">
<title>Node8&#45;&gt;Node7</title>
<path fill="none" stroke="#404040" d="M144.6503,-690.6952C144.729,-679.8085 145.0721,-667.3185 146,-656 146.1668,-653.965 146.3668,-651.8842 146.592,-649.7855"/>
<polygon fill="none" stroke="#404040" points="146.6065,-649.6697 143.3853,-643.218 148.1018,-637.7632 151.323,-644.2149 146.6065,-649.6697"/>
<text text-anchor="middle" x="163.5" y="-659" font-family="Helvetica,sans-Serif" font-size="10.00" fill="#000000"> +keys</text>
</g>
<!-- Node9 -->
<g id="node8" class="node">
<title>Node9</title>
<polygon fill="none" stroke="#bfbfbf" points="188.5,-691 188.5,-748 217.5,-748 217.5,-691 188.5,-691"/>
<text text-anchor="middle" x="203" y="-736" font-family="Helvetica,sans-Serif" font-size="10.00" fill="#000000">T</text>
<polyline fill="none" stroke="#bfbfbf" points="188.5,-729 217.5,-729 "/>
<text text-anchor="middle" x="203" y="-717" font-family="Helvetica,sans-Serif" font-size="10.00" fill="#000000"> </text>
<polyline fill="none" stroke="#bfbfbf" points="188.5,-710 217.5,-710 "/>
<text text-anchor="middle" x="203" y="-698" font-family="Helvetica,sans-Serif" font-size="10.00" fill="#000000"> </text>
</g>
<!-- Node9&#45;&gt;Node7 -->
<g id="edge7" class="edge">
<title>Node9&#45;&gt;Node7</title>
<path fill="none" stroke="#404040" d="M194.4601,-690.878C190.7964,-679.786 186.167,-667.1076 181,-656 179.8001,-653.4205 178.4976,-650.8012 177.1331,-648.1867"/>
<polygon fill="none" stroke="#404040" points="177.0773,-648.0856 170.6755,-644.7662 171.2773,-637.5803 177.6791,-640.8996 177.0773,-648.0856"/>
<text text-anchor="middle" x="215" y="-659" font-family="Helvetica,sans-Serif" font-size="10.00" fill="#000000"> +elements</text>
</g>
</g>
</svg>
