<?xml version="1.0" encoding="UTF-8" standalone="no"?>
<!DOCTYPE svg PUBLIC "-//W3C//DTD SVG 1.1//EN"
 "http://www.w3.org/Graphics/SVG/1.1/DTD/svg11.dtd">
<!-- Generated by graphviz version 12.0.0 (0)
 -->
<!-- Title: anch::logger::formatter::IFormatter Pages: 1 -->
<svg width="1130pt" height="254pt"
 viewBox="0.00 0.00 1129.50 254.00" xmlns="http://www.w3.org/2000/svg" xmlns:xlink="http://www.w3.org/1999/xlink">
<g id="graph0" class="graph" transform="scale(1 1) rotate(0) translate(4 250)">
<title>anch::logger::formatter::IFormatter</title>
<!-- Node1 -->
<g id="Node000001" class="node">
<title>Node1</title>
<g id="a_Node000001"><a xlink:title=" ">
<polygon fill="#999999" stroke="none" points="627.5,-246 505.5,-246 505.5,-149 627.5,-149 627.5,-246"/>
<text text-anchor="start" x="510.25" y="-232.5" font-family="Helvetica,sans-Serif" font-size="10.00">anch::logger::formatter</text>
<text text-anchor="start" x="538" y="-219.75" font-family="Helvetica,sans-Serif" font-size="10.00">::IFormatter</text>
<text text-anchor="start" x="565" y="-203.5" font-family="Helvetica,sans-Serif" font-size="10.00"> </text>
<text text-anchor="start" x="517.88" y="-187.5" font-family="Helvetica,sans-Serif" font-size="10.00">+</text>
<text text-anchor="start" x="538.5" y="-187.5" font-family="Helvetica,sans-Serif" font-size="10.00">~IFormatter()</text>
<text text-anchor="start" x="517.88" y="-171.5" font-family="Helvetica,sans-Serif" font-size="10.00">+</text>
<text text-anchor="start" x="538.5" y="-171.5" font-family="Helvetica,sans-Serif" font-size="10.00">getType()</text>
<text text-anchor="start" x="517.88" y="-155.5" font-family="Helvetica,sans-Serif" font-size="10.00">+</text>
<text text-anchor="start" x="538.5" y="-155.5" font-family="Helvetica,sans-Serif" font-size="10.00">formatValue()</text>
<polygon fill="#666666" stroke="#666666" points="505.5,-215 505.5,-215 627.5,-215 627.5,-215 505.5,-215"/>
<polygon fill="#666666" stroke="#666666" points="505.5,-199 505.5,-199 627.5,-199 627.5,-199 505.5,-199"/>
<polygon fill="none" stroke="#666666" points="505.5,-149 505.5,-246 627.5,-246 627.5,-149 505.5,-149"/>
</a>
</g>
</g>
<!-- Node2 -->
<g id="Node000002" class="node">
<title>Node2</title>
<g id="a_Node000002"><a xlink:href="classanch_1_1logger_1_1formatter_1_1_anch_date_formatter.html" target="_top" xlink:title=" ">
<polygon fill="white" stroke="none" points="131,-113 0,-113 0,0 131,0 131,-113"/>
<text text-anchor="start" x="9.25" y="-99.5" font-family="Helvetica,sans-Serif" font-size="10.00">anch::logger::formatter</text>
<text text-anchor="start" x="14.88" y="-86.75" font-family="Helvetica,sans-Serif" font-size="10.00">::AnchDateFormatter</text>
<text text-anchor="start" x="64" y="-70.5" font-family="Helvetica,sans-Serif" font-size="10.00"> </text>
<text text-anchor="start" x="3.88" y="-54.5" font-family="Helvetica,sans-Serif" font-size="10.00">+</text>
<text text-anchor="start" x="16" y="-54.5" font-family="Helvetica,sans-Serif" font-size="10.00">AnchDateFormatter()</text>
<text text-anchor="start" x="3.88" y="-38.5" font-family="Helvetica,sans-Serif" font-size="10.00">+</text>
<text text-anchor="start" x="16" y="-38.5" font-family="Helvetica,sans-Serif" font-size="10.00">~AnchDateFormatter()</text>
<text text-anchor="start" x="3.88" y="-22.5" font-family="Helvetica,sans-Serif" font-size="10.00">+</text>
<text text-anchor="start" x="16" y="-22.5" font-family="Helvetica,sans-Serif" font-size="10.00">formatValue()</text>
<text text-anchor="start" x="3.88" y="-6.5" font-family="Helvetica,sans-Serif" font-size="10.00">+</text>
<text text-anchor="start" x="16" y="-6.5" font-family="Helvetica,sans-Serif" font-size="10.00">getType()</text>
<polygon fill="#666666" stroke="#666666" points="0,-82 0,-82 131,-82 131,-82 0,-82"/>
<polygon fill="#666666" stroke="#666666" points="0,-66 0,-66 131,-66 131,-66 0,-66"/>
<polygon fill="none" stroke="#666666" points="0,0 0,-113 131,-113 131,0 0,0"/>
</a>
</g>
</g>
<!-- Node1&#45;&gt;Node2 -->
<g id="edge1_Node000001_Node000002" class="edge">
<title>Node1&#45;&gt;Node2</title>
<g id="a_edge1_Node000001_Node000002"><a xlink:title=" ">
<path fill="none" stroke="#63b8ff" d="M494.44,-192.08C407.32,-184.58 257.81,-164.73 140.5,-113 137.24,-111.56 133.99,-109.96 130.76,-108.24"/>
<polygon fill="none" stroke="#63b8ff" points="494.02,-195.56 504.28,-192.89 494.6,-188.58 494.02,-195.56"/>
</a>
</g>
</g>
<!-- Node3 -->
<g id="Node000003" class="node">
<title>Node3</title>
<g id="a_Node000003"><a xlink:href="classanch_1_1logger_1_1formatter_1_1_category_formatter.html" target="_top" xlink:title=" ">
<polygon fill="white" stroke="none" points="277.5,-113 149.5,-113 149.5,0 277.5,0 277.5,-113"/>
<text text-anchor="start" x="157.25" y="-99.5" font-family="Helvetica,sans-Serif" font-size="10.00">anch::logger::formatter</text>
<text text-anchor="start" x="164.38" y="-86.75" font-family="Helvetica,sans-Serif" font-size="10.00">::CategoryFormatter</text>
<text text-anchor="start" x="212" y="-70.5" font-family="Helvetica,sans-Serif" font-size="10.00"> </text>
<text text-anchor="start" x="153.38" y="-54.5" font-family="Helvetica,sans-Serif" font-size="10.00">+</text>
<text text-anchor="start" x="165.5" y="-54.5" font-family="Helvetica,sans-Serif" font-size="10.00">CategoryFormatter()</text>
<text text-anchor="start" x="153.38" y="-38.5" font-family="Helvetica,sans-Serif" font-size="10.00">+</text>
<text text-anchor="start" x="165.5" y="-38.5" font-family="Helvetica,sans-Serif" font-size="10.00">~CategoryFormatter()</text>
<text text-anchor="start" x="153.38" y="-22.5" font-family="Helvetica,sans-Serif" font-size="10.00">+</text>
<text text-anchor="start" x="165.5" y="-22.5" font-family="Helvetica,sans-Serif" font-size="10.00">formatValue()</text>
<text text-anchor="start" x="153.38" y="-6.5" font-family="Helvetica,sans-Serif" font-size="10.00">+</text>
<text text-anchor="start" x="165.5" y="-6.5" font-family="Helvetica,sans-Serif" font-size="10.00">getType()</text>
<polygon fill="#666666" stroke="#666666" points="149.5,-82 149.5,-82 277.5,-82 277.5,-82 149.5,-82"/>
<polygon fill="#666666" stroke="#666666" points="149.5,-66 149.5,-66 277.5,-66 277.5,-66 149.5,-66"/>
<polygon fill="none" stroke="#666666" points="149.5,0 149.5,-113 277.5,-113 277.5,0 149.5,0"/>
</a>
</g>
</g>
<!-- Node1&#45;&gt;Node3 -->
<g id="edge2_Node000001_Node000003" class="edge">
<title>Node1&#45;&gt;Node3</title>
<g id="a_edge2_Node000001_Node000003"><a xlink:title=" ">
<path fill="none" stroke="#63b8ff" d="M494.74,-182.6C436.52,-169.58 353.42,-146.99 286.5,-113 283.38,-111.41 280.25,-109.69 277.15,-107.87"/>
<polygon fill="none" stroke="#63b8ff" points="493.68,-185.95 504.2,-184.67 495.18,-179.11 493.68,-185.95"/>
</a>
</g>
</g>
<!-- Node4 -->
<g id="Node000004" class="node">
<title>Node4</title>
<g id="a_Node000004"><a xlink:href="classanch_1_1logger_1_1formatter_1_1_const_formatter.html" target="_top" xlink:title=" ">
<polygon fill="white" stroke="none" points="417.5,-113 295.5,-113 295.5,0 417.5,0 417.5,-113"/>
<text text-anchor="start" x="300.25" y="-99.5" font-family="Helvetica,sans-Serif" font-size="10.00">anch::logger::formatter</text>
<text text-anchor="start" x="315.62" y="-86.75" font-family="Helvetica,sans-Serif" font-size="10.00">::ConstFormatter</text>
<text text-anchor="start" x="355" y="-70.5" font-family="Helvetica,sans-Serif" font-size="10.00"> </text>
<text text-anchor="start" x="301.88" y="-54.5" font-family="Helvetica,sans-Serif" font-size="10.00">+</text>
<text text-anchor="start" x="316.5" y="-54.5" font-family="Helvetica,sans-Serif" font-size="10.00">ConstFormatter()</text>
<text text-anchor="start" x="301.88" y="-38.5" font-family="Helvetica,sans-Serif" font-size="10.00">+</text>
<text text-anchor="start" x="316.5" y="-38.5" font-family="Helvetica,sans-Serif" font-size="10.00">~ConstFormatter()</text>
<text text-anchor="start" x="301.88" y="-22.5" font-family="Helvetica,sans-Serif" font-size="10.00">+</text>
<text text-anchor="start" x="316.5" y="-22.5" font-family="Helvetica,sans-Serif" font-size="10.00">formatValue()</text>
<text text-anchor="start" x="301.88" y="-6.5" font-family="Helvetica,sans-Serif" font-size="10.00">+</text>
<text text-anchor="start" x="316.5" y="-6.5" font-family="Helvetica,sans-Serif" font-size="10.00">getType()</text>
<polygon fill="#666666" stroke="#666666" points="295.5,-82 295.5,-82 417.5,-82 417.5,-82 295.5,-82"/>
<polygon fill="#666666" stroke="#666666" points="295.5,-66 295.5,-66 417.5,-66 417.5,-66 295.5,-66"/>
<polygon fill="none" stroke="#666666" points="295.5,0 295.5,-113 417.5,-113 417.5,0 295.5,0"/>
</a>
</g>
</g>
<!-- Node1&#45;&gt;Node4 -->
<g id="edge3_Node000001_Node000004" class="edge">
<title>Node1&#45;&gt;Node4</title>
<g id="a_edge3_Node000001_Node000004"><a xlink:title=" ">
<path fill="none" stroke="#63b8ff" d="M495.94,-156.88C473.36,-143.55 448.51,-128.19 426.5,-113 423.44,-110.89 420.33,-108.68 417.22,-106.42"/>
<polygon fill="none" stroke="#63b8ff" points="494.09,-159.85 504.49,-161.89 497.63,-153.81 494.09,-159.85"/>
</a>
</g>
</g>
<!-- Node5 -->
<g id="Node000005" class="node">
<title>Node5</title>
<g id="a_Node000005"><a xlink:href="classanch_1_1logger_1_1formatter_1_1_date_formatter.html" target="_top" xlink:title=" ">
<polygon fill="white" stroke="none" points="557.5,-113 435.5,-113 435.5,0 557.5,0 557.5,-113"/>
<text text-anchor="start" x="440.25" y="-99.5" font-family="Helvetica,sans-Serif" font-size="10.00">anch::logger::formatter</text>
<text text-anchor="start" x="457.88" y="-86.75" font-family="Helvetica,sans-Serif" font-size="10.00">::DateFormatter</text>
<text text-anchor="start" x="495" y="-70.5" font-family="Helvetica,sans-Serif" font-size="10.00"> </text>
<text text-anchor="start" x="442.88" y="-54.5" font-family="Helvetica,sans-Serif" font-size="10.00">+</text>
<text text-anchor="start" x="458.5" y="-54.5" font-family="Helvetica,sans-Serif" font-size="10.00">DateFormatter()</text>
<text text-anchor="start" x="442.88" y="-38.5" font-family="Helvetica,sans-Serif" font-size="10.00">+</text>
<text text-anchor="start" x="458.5" y="-38.5" font-family="Helvetica,sans-Serif" font-size="10.00">~DateFormatter()</text>
<text text-anchor="start" x="442.88" y="-22.5" font-family="Helvetica,sans-Serif" font-size="10.00">+</text>
<text text-anchor="start" x="458.5" y="-22.5" font-family="Helvetica,sans-Serif" font-size="10.00">formatValue()</text>
<text text-anchor="start" x="442.88" y="-6.5" font-family="Helvetica,sans-Serif" font-size="10.00">+</text>
<text text-anchor="start" x="458.5" y="-6.5" font-family="Helvetica,sans-Serif" font-size="10.00">getType()</text>
<polygon fill="#666666" stroke="#666666" points="435.5,-82 435.5,-82 557.5,-82 557.5,-82 435.5,-82"/>
<polygon fill="#666666" stroke="#666666" points="435.5,-66 435.5,-66 557.5,-66 557.5,-66 435.5,-66"/>
<polygon fill="none" stroke="#666666" points="435.5,0 435.5,-113 557.5,-113 557.5,0 435.5,0"/>
</a>
</g>
</g>
<!-- Node1&#45;&gt;Node5 -->
<g id="edge4_Node000001_Node000005" class="edge">
<title>Node1&#45;&gt;Node5</title>
<g id="a_edge4_Node000001_Node000005"><a xlink:title=" ">
<path fill="none" stroke="#63b8ff" d="M537.57,-139.05C533.21,-130.39 528.72,-121.48 524.39,-112.88"/>
<polygon fill="none" stroke="#63b8ff" points="534.3,-140.34 541.92,-147.7 540.55,-137.2 534.3,-140.34"/>
</a>
</g>
</g>
<!-- Node6 -->
<g id="Node000006" class="node">
<title>Node6</title>
<g id="a_Node000006"><a xlink:href="classanch_1_1logger_1_1formatter_1_1_level_formatter.html" target="_top" xlink:title=" ">
<polygon fill="white" stroke="none" points="697.5,-113 575.5,-113 575.5,0 697.5,0 697.5,-113"/>
<text text-anchor="start" x="580.25" y="-99.5" font-family="Helvetica,sans-Serif" font-size="10.00">anch::logger::formatter</text>
<text text-anchor="start" x="596.38" y="-86.75" font-family="Helvetica,sans-Serif" font-size="10.00">::LevelFormatter</text>
<text text-anchor="start" x="635" y="-70.5" font-family="Helvetica,sans-Serif" font-size="10.00"> </text>
<text text-anchor="start" x="582.38" y="-54.5" font-family="Helvetica,sans-Serif" font-size="10.00">+</text>
<text text-anchor="start" x="597.5" y="-54.5" font-family="Helvetica,sans-Serif" font-size="10.00">LevelFormatter()</text>
<text text-anchor="start" x="582.38" y="-38.5" font-family="Helvetica,sans-Serif" font-size="10.00">+</text>
<text text-anchor="start" x="597.5" y="-38.5" font-family="Helvetica,sans-Serif" font-size="10.00">~LevelFormatter()</text>
<text text-anchor="start" x="582.38" y="-22.5" font-family="Helvetica,sans-Serif" font-size="10.00">+</text>
<text text-anchor="start" x="597.5" y="-22.5" font-family="Helvetica,sans-Serif" font-size="10.00">formatValue()</text>
<text text-anchor="start" x="582.38" y="-6.5" font-family="Helvetica,sans-Serif" font-size="10.00">+</text>
<text text-anchor="start" x="597.5" y="-6.5" font-family="Helvetica,sans-Serif" font-size="10.00">getType()</text>
<polygon fill="#666666" stroke="#666666" points="575.5,-82 575.5,-82 697.5,-82 697.5,-82 575.5,-82"/>
<polygon fill="#666666" stroke="#666666" points="575.5,-66 575.5,-66 697.5,-66 697.5,-66 575.5,-66"/>
<polygon fill="none" stroke="#666666" points="575.5,0 575.5,-113 697.5,-113 697.5,0 575.5,0"/>
</a>
</g>
</g>
<!-- Node1&#45;&gt;Node6 -->
<g id="edge5_Node000001_Node000006" class="edge">
<title>Node1&#45;&gt;Node6</title>
<g id="a_edge5_Node000001_Node000006"><a xlink:title=" ">
<path fill="none" stroke="#63b8ff" d="M595.43,-139.05C599.79,-130.39 604.28,-121.48 608.61,-112.88"/>
<polygon fill="none" stroke="#63b8ff" points="592.45,-137.2 591.08,-147.7 598.7,-140.34 592.45,-137.2"/>
</a>
</g>
</g>
<!-- Node7 -->
<g id="Node000007" class="node">
<title>Node7</title>
<g id="a_Node000007"><a xlink:href="classanch_1_1logger_1_1formatter_1_1_m_d_c_formatter.html" target="_top" xlink:title=" ">
<polygon fill="white" stroke="none" points="837.5,-113 715.5,-113 715.5,0 837.5,0 837.5,-113"/>
<text text-anchor="start" x="720.25" y="-99.5" font-family="Helvetica,sans-Serif" font-size="10.00">anch::logger::formatter</text>
<text text-anchor="start" x="737.88" y="-86.75" font-family="Helvetica,sans-Serif" font-size="10.00">::MDCFormatter</text>
<text text-anchor="start" x="775" y="-70.5" font-family="Helvetica,sans-Serif" font-size="10.00"> </text>
<text text-anchor="start" x="722.88" y="-54.5" font-family="Helvetica,sans-Serif" font-size="10.00">+</text>
<text text-anchor="start" x="738.5" y="-54.5" font-family="Helvetica,sans-Serif" font-size="10.00">MDCFormatter()</text>
<text text-anchor="start" x="722.88" y="-38.5" font-family="Helvetica,sans-Serif" font-size="10.00">+</text>
<text text-anchor="start" x="738.5" y="-38.5" font-family="Helvetica,sans-Serif" font-size="10.00">~MDCFormatter()</text>
<text text-anchor="start" x="722.88" y="-22.5" font-family="Helvetica,sans-Serif" font-size="10.00">+</text>
<text text-anchor="start" x="738.5" y="-22.5" font-family="Helvetica,sans-Serif" font-size="10.00">formatValue()</text>
<text text-anchor="start" x="722.88" y="-6.5" font-family="Helvetica,sans-Serif" font-size="10.00">+</text>
<text text-anchor="start" x="738.5" y="-6.5" font-family="Helvetica,sans-Serif" font-size="10.00">getType()</text>
<polygon fill="#666666" stroke="#666666" points="715.5,-82 715.5,-82 837.5,-82 837.5,-82 715.5,-82"/>
<polygon fill="#666666" stroke="#666666" points="715.5,-66 715.5,-66 837.5,-66 837.5,-66 715.5,-66"/>
<polygon fill="none" stroke="#666666" points="715.5,0 715.5,-113 837.5,-113 837.5,0 715.5,0"/>
</a>
</g>
</g>
<!-- Node1&#45;&gt;Node7 -->
<g id="edge6_Node000001_Node000007" class="edge">
<title>Node1&#45;&gt;Node7</title>
<g id="a_edge6_Node000001_Node000007"><a xlink:title=" ">
<path fill="none" stroke="#63b8ff" d="M637.06,-156.88C659.64,-143.55 684.49,-128.19 706.5,-113 709.56,-110.89 712.67,-108.68 715.78,-106.42"/>
<polygon fill="none" stroke="#63b8ff" points="635.37,-153.81 628.51,-161.89 638.91,-159.85 635.37,-153.81"/>
</a>
</g>
</g>
<!-- Node8 -->
<g id="Node000008" class="node">
<title>Node8</title>
<g id="a_Node000008"><a xlink:href="classanch_1_1logger_1_1formatter_1_1_string_formatter.html" target="_top" xlink:title=" ">
<polygon fill="white" stroke="none" points="977.5,-113 855.5,-113 855.5,0 977.5,0 977.5,-113"/>
<text text-anchor="start" x="860.25" y="-99.5" font-family="Helvetica,sans-Serif" font-size="10.00">anch::logger::formatter</text>
<text text-anchor="start" x="875.25" y="-86.75" font-family="Helvetica,sans-Serif" font-size="10.00">::StringFormatter</text>
<text text-anchor="start" x="915" y="-70.5" font-family="Helvetica,sans-Serif" font-size="10.00"> </text>
<text text-anchor="start" x="861.88" y="-54.5" font-family="Helvetica,sans-Serif" font-size="10.00">+</text>
<text text-anchor="start" x="876.5" y="-54.5" font-family="Helvetica,sans-Serif" font-size="10.00">StringFormatter()</text>
<text text-anchor="start" x="861.88" y="-38.5" font-family="Helvetica,sans-Serif" font-size="10.00">+</text>
<text text-anchor="start" x="876.5" y="-38.5" font-family="Helvetica,sans-Serif" font-size="10.00">~StringFormatter()</text>
<text text-anchor="start" x="861.88" y="-22.5" font-family="Helvetica,sans-Serif" font-size="10.00">+</text>
<text text-anchor="start" x="876.5" y="-22.5" font-family="Helvetica,sans-Serif" font-size="10.00">formatValue()</text>
<text text-anchor="start" x="861.88" y="-6.5" font-family="Helvetica,sans-Serif" font-size="10.00">+</text>
<text text-anchor="start" x="876.5" y="-6.5" font-family="Helvetica,sans-Serif" font-size="10.00">getType()</text>
<polygon fill="#666666" stroke="#666666" points="855.5,-82 855.5,-82 977.5,-82 977.5,-82 855.5,-82"/>
<polygon fill="#666666" stroke="#666666" points="855.5,-66 855.5,-66 977.5,-66 977.5,-66 855.5,-66"/>
<polygon fill="none" stroke="#666666" points="855.5,0 855.5,-113 977.5,-113 977.5,0 855.5,0"/>
</a>
</g>
</g>
<!-- Node1&#45;&gt;Node8 -->
<g id="edge7_Node000001_Node000008" class="edge">
<title>Node1&#45;&gt;Node8</title>
<g id="a_edge7_Node000001_Node000008"><a xlink:title=" ">
<path fill="none" stroke="#63b8ff" d="M638.44,-182.96C696.77,-170.15 779.93,-147.67 846.5,-113 849.53,-111.42 852.55,-109.71 855.55,-107.89"/>
<polygon fill="none" stroke="#63b8ff" points="638.01,-179.47 628.97,-185 639.48,-186.32 638.01,-179.47"/>
</a>
</g>
</g>
<!-- Node9 -->
<g id="Node000009" class="node">
<title>Node9</title>
<g id="a_Node000009"><a xlink:href="classanch_1_1logger_1_1formatter_1_1_thread_id_formatter.html" target="_top" xlink:title=" ">
<polygon fill="white" stroke="none" points="1121.5,-113 995.5,-113 995.5,0 1121.5,0 1121.5,-113"/>
<text text-anchor="start" x="1002.25" y="-99.5" font-family="Helvetica,sans-Serif" font-size="10.00">anch::logger::formatter</text>
<text text-anchor="start" x="1010.12" y="-86.75" font-family="Helvetica,sans-Serif" font-size="10.00">::ThreadIdFormatter</text>
<text text-anchor="start" x="1057" y="-70.5" font-family="Helvetica,sans-Serif" font-size="10.00"> </text>
<text text-anchor="start" x="999.38" y="-54.5" font-family="Helvetica,sans-Serif" font-size="10.00">+</text>
<text text-anchor="start" x="1011.5" y="-54.5" font-family="Helvetica,sans-Serif" font-size="10.00">ThreadIdFormatter()</text>
<text text-anchor="start" x="999.38" y="-38.5" font-family="Helvetica,sans-Serif" font-size="10.00">+</text>
<text text-anchor="start" x="1011.5" y="-38.5" font-family="Helvetica,sans-Serif" font-size="10.00">~ThreadIdFormatter()</text>
<text text-anchor="start" x="999.38" y="-22.5" font-family="Helvetica,sans-Serif" font-size="10.00">+</text>
<text text-anchor="start" x="1011.5" y="-22.5" font-family="Helvetica,sans-Serif" font-size="10.00">formatValue()</text>
<text text-anchor="start" x="999.38" y="-6.5" font-family="Helvetica,sans-Serif" font-size="10.00">+</text>
<text text-anchor="start" x="1011.5" y="-6.5" font-family="Helvetica,sans-Serif" font-size="10.00">getType()</text>
<polygon fill="#666666" stroke="#666666" points="995.5,-82 995.5,-82 1121.5,-82 1121.5,-82 995.5,-82"/>
<polygon fill="#666666" stroke="#666666" points="995.5,-66 995.5,-66 1121.5,-66 1121.5,-66 995.5,-66"/>
<polygon fill="none" stroke="#666666" points="995.5,0 995.5,-113 1121.5,-113 1121.5,0 995.5,0"/>
</a>
</g>
</g>
<!-- Node1&#45;&gt;Node9 -->
<g id="edge8_Node000001_Node000009" class="edge">
<title>Node1&#45;&gt;Node9</title>
<g id="a_edge8_Node000001_Node000009"><a xlink:title=" ">
<path fill="none" stroke="#63b8ff" d="M638.45,-192.21C724.62,-184.86 871.68,-165.17 986.5,-113 989.52,-111.63 992.52,-110.11 995.5,-108.47"/>
<polygon fill="none" stroke="#63b8ff" points="638.41,-188.71 628.73,-193.01 638.98,-195.68 638.41,-188.71"/>
</a>
</g>
</g>
</g>
</svg>
