<?xml version="1.0" encoding="UTF-8" standalone="no"?>
<!DOCTYPE svg PUBLIC "-//W3C//DTD SVG 1.1//EN"
 "http://www.w3.org/Graphics/SVG/1.1/DTD/svg11.dtd">
<!-- Generated by graphviz version 8.0.1 (0)
 -->
<!-- Title: anch::events::Observer&lt; T &gt; Pages: 1 -->
<svg width="306pt" height="215pt"
 viewBox="0.00 0.00 306.00 215.00" xmlns="http://www.w3.org/2000/svg" xmlns:xlink="http://www.w3.org/1999/xlink">
<g id="graph0" class="graph" transform="scale(1 1) rotate(0) translate(4 211)">
<title>anch::events::Observer&lt; T &gt;</title>
<!-- Node1 -->
<g id="node1" class="node">
<title>Node1</title>
<g id="a_node1"><a xlink:title="An observer interface of the observers/observable design pattern.">
<polygon fill="#999999" stroke="#666666" points="75.5,-149.5 75.5,-206.5 233.5,-206.5 233.5,-149.5 75.5,-149.5"/>
<text text-anchor="middle" x="154.5" y="-194.5" font-family="Helvetica,sans-Serif" font-size="10.00">anch::events::Observer&lt; T &gt;</text>
<polyline fill="none" stroke="#666666" points="75.5,-187.5 233.5,-187.5"/>
<text text-anchor="middle" x="154.5" y="-175.5" font-family="Helvetica,sans-Serif" font-size="10.00"> </text>
<polyline fill="none" stroke="#666666" points="75.5,-168.5 233.5,-168.5"/>
<text text-anchor="start" x="83.5" y="-156.5" font-family="Helvetica,sans-Serif" font-size="10.00">+ handle()</text>
</a>
</g>
</g>
<!-- Node2 -->
<g id="node2" class="node">
<title>Node2</title>
<g id="a_node2"><a xlink:href="classanch_1_1events_1_1_event_handler.html" target="_top" xlink:title="An event handler.">
<polygon fill="white" stroke="#666666" points="0,-0.5 0,-101.5 151,-101.5 151,-0.5 0,-0.5"/>
<text text-anchor="start" x="8" y="-89.5" font-family="Helvetica,sans-Serif" font-size="10.00">anch::events::EventHandler</text>
<text text-anchor="middle" x="75.5" y="-78.5" font-family="Helvetica,sans-Serif" font-size="10.00">&lt; T, Derived &gt;</text>
<polyline fill="none" stroke="#666666" points="0,-71.5 151,-71.5"/>
<text text-anchor="middle" x="75.5" y="-59.5" font-family="Helvetica,sans-Serif" font-size="10.00"> </text>
<polyline fill="none" stroke="#666666" points="0,-52.5 151,-52.5"/>
<text text-anchor="start" x="8" y="-40.5" font-family="Helvetica,sans-Serif" font-size="10.00">+ EventHandler()</text>
<text text-anchor="start" x="8" y="-29.5" font-family="Helvetica,sans-Serif" font-size="10.00">+ EventHandler()</text>
<text text-anchor="start" x="8" y="-18.5" font-family="Helvetica,sans-Serif" font-size="10.00">+ ~EventHandler()</text>
<text text-anchor="start" x="8" y="-7.5" font-family="Helvetica,sans-Serif" font-size="10.00">+ handle()</text>
</a>
</g>
</g>
<!-- Node1&#45;&gt;Node2 -->
<g id="edge1" class="edge">
<title>Node1&#45;&gt;Node2</title>
<path fill="none" stroke="#63b8ff" d="M131.46,-140.54C123.7,-128.27 114.92,-114.37 106.64,-101.27"/>
<polygon fill="none" stroke="#63b8ff" points="128.86,-141.98 137.16,-148.57 134.78,-138.25 128.86,-141.98"/>
</g>
<!-- Node3 -->
<g id="node3" class="node">
<title>Node3</title>
<g id="a_node3"><a xlink:href="classanch_1_1events_1_1_observer.html" target="_top" xlink:title=" ">
<polygon fill="white" stroke="#666666" points="169,-17 169,-85 298,-85 298,-17 169,-17"/>
<text text-anchor="start" x="177" y="-73" font-family="Helvetica,sans-Serif" font-size="10.00">anch::events::Observer</text>
<text text-anchor="middle" x="233.5" y="-62" font-family="Helvetica,sans-Serif" font-size="10.00">&lt; SocketEvent &gt;</text>
<polyline fill="none" stroke="#666666" points="169,-55 298,-55"/>
<text text-anchor="middle" x="233.5" y="-43" font-family="Helvetica,sans-Serif" font-size="10.00"> </text>
<polyline fill="none" stroke="#666666" points="169,-36 298,-36"/>
<text text-anchor="start" x="177" y="-24" font-family="Helvetica,sans-Serif" font-size="10.00">+ handle()</text>
</a>
</g>
</g>
<!-- Node1&#45;&gt;Node3 -->
<g id="edge2" class="edge">
<title>Node1&#45;&gt;Node3</title>
<path fill="none" stroke="orange" d="M177.46,-140.67C188.64,-122.97 201.98,-101.87 212.84,-84.69"/>
<polygon fill="orange" stroke="orange" points="174.22,-138.25 171.84,-148.57 180.14,-141.98 174.22,-138.25"/>
<text text-anchor="middle" x="232.5" y="-123" font-family="Helvetica,sans-Serif" font-size="10.00"> &lt; SocketEvent &gt;</text>
</g>
</g>
</svg>
