<?xml version="1.0" encoding="UTF-8" standalone="no"?>
<!DOCTYPE svg PUBLIC "-//W3C//DTD SVG 1.1//EN"
 "http://www.w3.org/Graphics/SVG/1.1/DTD/svg11.dtd">
<!-- Generated by graphviz version 7.0.4 (0)
 -->
<!-- Title: anch::sql::Connection Pages: 1 -->
<svg width="360pt" height="907pt"
 viewBox="0.00 0.00 359.50 907.00" xmlns="http://www.w3.org/2000/svg" xmlns:xlink="http://www.w3.org/1999/xlink">
<g id="graph0" class="graph" transform="scale(1 1) rotate(0) translate(4 903)">
<title>anch::sql::Connection</title>
<!-- Node1 -->
<g id="node1" class="node">
<title>Node1</title>
<g id="a_node1"><a xlink:title="SQL connection virtual class.">
<polygon fill="#999999" stroke="#666666" points="221,-250 84,-250 84,0 221,0 221,-250"/>
<text text-anchor="middle" x="152.5" y="-238" font-family="Helvetica,sans-Serif" font-size="10.00">{anch::sql::Connection</text>
<text text-anchor="start" x="92" y="-227" font-family="Helvetica,sans-Serif" font-size="10.00">|# _valid</text>
<text text-anchor="start" x="92" y="-216" font-family="Helvetica,sans-Serif" font-size="10.00"># _transaction</text>
<text text-anchor="start" x="92" y="-205" font-family="Helvetica,sans-Serif" font-size="10.00">|+ Connection()</text>
<text text-anchor="start" x="92" y="-194" font-family="Helvetica,sans-Serif" font-size="10.00">+ Connection()</text>
<text text-anchor="start" x="92" y="-183" font-family="Helvetica,sans-Serif" font-size="10.00">+ ~Connection()</text>
<text text-anchor="start" x="92" y="-172" font-family="Helvetica,sans-Serif" font-size="10.00">+ startTransaction()</text>
<text text-anchor="start" x="92" y="-161" font-family="Helvetica,sans-Serif" font-size="10.00">+ begin()</text>
<text text-anchor="start" x="92" y="-150" font-family="Helvetica,sans-Serif" font-size="10.00">+ commit()</text>
<text text-anchor="start" x="92" y="-139" font-family="Helvetica,sans-Serif" font-size="10.00">+ rollback()</text>
<text text-anchor="start" x="92" y="-128" font-family="Helvetica,sans-Serif" font-size="10.00">+ prepareStatement()</text>
<text text-anchor="start" x="92" y="-117" font-family="Helvetica,sans-Serif" font-size="10.00">+ query()</text>
<text text-anchor="start" x="92" y="-106" font-family="Helvetica,sans-Serif" font-size="10.00">+ queryMapRow()</text>
<text text-anchor="start" x="92" y="-95" font-family="Helvetica,sans-Serif" font-size="10.00">and 8 more...</text>
<text text-anchor="start" x="92" y="-84" font-family="Helvetica,sans-Serif" font-size="10.00"># executeQuery()</text>
<text text-anchor="start" x="92" y="-73" font-family="Helvetica,sans-Serif" font-size="10.00"># executeUpdate()</text>
<text text-anchor="start" x="92" y="-62" font-family="Helvetica,sans-Serif" font-size="10.00"># sendStartTransaction()</text>
<text text-anchor="start" x="92" y="-51" font-family="Helvetica,sans-Serif" font-size="10.00"># sendCommit()</text>
<text text-anchor="start" x="92" y="-40" font-family="Helvetica,sans-Serif" font-size="10.00"># sendRollback()</text>
<text text-anchor="start" x="92" y="-29" font-family="Helvetica,sans-Serif" font-size="10.00"># makePrepared()</text>
<text text-anchor="start" x="92" y="-18" font-family="Helvetica,sans-Serif" font-size="10.00"># setValid()</text>
<text text-anchor="middle" x="152.5" y="-7" font-family="Helvetica,sans-Serif" font-size="10.00">}</text>
</a>
</g>
</g>
<!-- Node2 -->
<g id="node2" class="node">
<title>Node2</title>
<g id="a_node2"><a xlink:title=" ">
<polygon fill="white" stroke="#666666" points="244,-338 61,-338 61,-297 244,-297 244,-338"/>
<text text-anchor="start" x="69" y="-326" font-family="Helvetica,sans-Serif" font-size="10.00">{std::map&lt; std::string,</text>
<text text-anchor="middle" x="152.5" y="-315" font-family="Helvetica,sans-Serif" font-size="10.00"> anch::sql::PreparedStatement * &gt;</text>
<text text-anchor="middle" x="152.5" y="-304" font-family="Helvetica,sans-Serif" font-size="10.00">||}</text>
</a>
</g>
</g>
<!-- Node2&#45;&gt;Node1 -->
<g id="edge1" class="edge">
<title>Node2&#45;&gt;Node1</title>
<path fill="none" stroke="#404040" d="M152.5,-296.83C152.5,-287.75 152.5,-276.12 152.5,-263.2"/>
<polygon fill="none" stroke="#404040" points="152.5,-263.36 148.5,-257.36 152.5,-251.36 156.5,-257.36 152.5,-263.36"/>
<text text-anchor="middle" x="175" y="-271" font-family="Helvetica,sans-Serif" font-size="10.00"> #_stmts</text>
</g>
<!-- Node3 -->
<g id="node3" class="node">
<title>Node3</title>
<g id="a_node3"><a xlink:title=" ">
<polygon fill="white" stroke="#666666" points="235,-811 164,-811 164,-781 235,-781 235,-811"/>
<text text-anchor="middle" x="199.5" y="-799" font-family="Helvetica,sans-Serif" font-size="10.00">{std::string</text>
<text text-anchor="middle" x="199.5" y="-788" font-family="Helvetica,sans-Serif" font-size="10.00">||}</text>
</a>
</g>
</g>
<!-- Node3&#45;&gt;Node2 -->
<g id="edge2" class="edge">
<title>Node3&#45;&gt;Node2</title>
<path fill="none" stroke="#404040" d="M233.2,-780.62C240.12,-776.04 246.5,-770.23 250.5,-763 260.24,-745.38 401.48,-737.7 245.5,-385 238.2,-368.49 224.35,-355.32 209.53,-345.2"/>
<polygon fill="none" stroke="#404040" points="209.57,-345.23 202.36,-345.42 199.41,-338.85 206.62,-338.65 209.57,-345.23"/>
<text text-anchor="middle" x="334.5" y="-639.5" font-family="Helvetica,sans-Serif" font-size="10.00"> +keys</text>
</g>
<!-- Node6 -->
<g id="node6" class="node">
<title>Node6</title>
<g id="a_node6"><a xlink:title=" ">
<polygon fill="white" stroke="#666666" points="236,-723 119,-723 119,-671 236,-671 236,-723"/>
<text text-anchor="start" x="127" y="-711" font-family="Helvetica,sans-Serif" font-size="10.00">{std::map&lt; std::size</text>
<text text-anchor="middle" x="177.5" y="-700" font-family="Helvetica,sans-Serif" font-size="10.00">_t, std::string &gt;</text>
<text text-anchor="start" x="127" y="-689" font-family="Helvetica,sans-Serif" font-size="10.00">|+ keys</text>
<text text-anchor="middle" x="177.5" y="-678" font-family="Helvetica,sans-Serif" font-size="10.00">|}</text>
</a>
</g>
</g>
<!-- Node3&#45;&gt;Node6 -->
<g id="edge6" class="edge">
<title>Node3&#45;&gt;Node6</title>
<path fill="none" stroke="#404040" d="M196.25,-780.69C193.58,-768.91 189.67,-751.67 186.11,-735.97"/>
<polygon fill="none" stroke="#404040" points="186.09,-735.88 180.86,-730.91 183.44,-724.18 188.67,-729.15 186.09,-735.88"/>
<text text-anchor="middle" x="220.5" y="-749.5" font-family="Helvetica,sans-Serif" font-size="10.00"> +elements</text>
</g>
<!-- Node4 -->
<g id="node4" class="node">
<title>Node4</title>
<g id="a_node4"><a xlink:title=" ">
<polygon fill="white" stroke="#666666" points="254.5,-899 144.5,-899 144.5,-858 254.5,-858 254.5,-899"/>
<text text-anchor="start" x="152.5" y="-887" font-family="Helvetica,sans-Serif" font-size="10.00">{std::basic_string&lt;</text>
<text text-anchor="middle" x="199.5" y="-876" font-family="Helvetica,sans-Serif" font-size="10.00"> Char &gt;</text>
<text text-anchor="middle" x="199.5" y="-865" font-family="Helvetica,sans-Serif" font-size="10.00">||}</text>
</a>
</g>
</g>
<!-- Node4&#45;&gt;Node3 -->
<g id="edge3" class="edge">
<title>Node4&#45;&gt;Node3</title>
<path fill="none" stroke="#63b8ff" d="M199.5,-846.14C199.5,-834.14 199.5,-821.02 199.5,-811.37"/>
<polygon fill="none" stroke="#63b8ff" points="196,-846.09 199.5,-856.09 203,-846.09 196,-846.09"/>
</g>
<!-- Node5 -->
<g id="node5" class="node">
<title>Node5</title>
<g id="a_node5"><a xlink:href="classanch_1_1sql_1_1_prepared_statement.html" target="_top" xlink:title="SQL prepared statement.">
<polygon fill="white" stroke="#666666" points="236,-613 69,-613 69,-385 236,-385 236,-613"/>
<text text-anchor="middle" x="152.5" y="-601" font-family="Helvetica,sans-Serif" font-size="10.00">{anch::sql::PreparedStatement</text>
<text text-anchor="start" x="77" y="-590" font-family="Helvetica,sans-Serif" font-size="10.00">|# _nbPlaceholders</text>
<text text-anchor="start" x="77" y="-579" font-family="Helvetica,sans-Serif" font-size="10.00">|+ PreparedStatement()</text>
<text text-anchor="start" x="77" y="-568" font-family="Helvetica,sans-Serif" font-size="10.00">+ ~PreparedStatement()</text>
<text text-anchor="start" x="77" y="-557" font-family="Helvetica,sans-Serif" font-size="10.00">+ executeQuery()</text>
<text text-anchor="start" x="77" y="-546" font-family="Helvetica,sans-Serif" font-size="10.00">+ executeUpdate()</text>
<text text-anchor="start" x="77" y="-535" font-family="Helvetica,sans-Serif" font-size="10.00">+ set()</text>
<text text-anchor="start" x="77" y="-524" font-family="Helvetica,sans-Serif" font-size="10.00">+ set()</text>
<text text-anchor="start" x="77" y="-513" font-family="Helvetica,sans-Serif" font-size="10.00">+ set()</text>
<text text-anchor="start" x="77" y="-502" font-family="Helvetica,sans-Serif" font-size="10.00">+ set()</text>
<text text-anchor="start" x="77" y="-491" font-family="Helvetica,sans-Serif" font-size="10.00">+ set()</text>
<text text-anchor="start" x="77" y="-480" font-family="Helvetica,sans-Serif" font-size="10.00">+ set()</text>
<text text-anchor="start" x="77" y="-469" font-family="Helvetica,sans-Serif" font-size="10.00">+ set()</text>
<text text-anchor="start" x="77" y="-458" font-family="Helvetica,sans-Serif" font-size="10.00">+ set()</text>
<text text-anchor="start" x="77" y="-447" font-family="Helvetica,sans-Serif" font-size="10.00">+ set()</text>
<text text-anchor="start" x="77" y="-436" font-family="Helvetica,sans-Serif" font-size="10.00">+ set()</text>
<text text-anchor="start" x="77" y="-425" font-family="Helvetica,sans-Serif" font-size="10.00">+ set()</text>
<text text-anchor="start" x="77" y="-414" font-family="Helvetica,sans-Serif" font-size="10.00"># getPlaceholders()</text>
<text text-anchor="start" x="77" y="-403" font-family="Helvetica,sans-Serif" font-size="10.00"># checkIndex()</text>
<text text-anchor="middle" x="152.5" y="-392" font-family="Helvetica,sans-Serif" font-size="10.00">}</text>
</a>
</g>
</g>
<!-- Node5&#45;&gt;Node2 -->
<g id="edge4" class="edge">
<title>Node5&#45;&gt;Node2</title>
<path fill="none" stroke="#404040" d="M152.5,-384.57C152.5,-372.53 152.5,-361.09 152.5,-351.22"/>
<polygon fill="none" stroke="#404040" points="152.5,-351.32 148.5,-345.32 152.5,-339.32 156.5,-345.32 152.5,-351.32"/>
<text text-anchor="middle" x="181.5" y="-359" font-family="Helvetica,sans-Serif" font-size="10.00"> +elements</text>
</g>
<!-- Node6&#45;&gt;Node5 -->
<g id="edge5" class="edge">
<title>Node6&#45;&gt;Node5</title>
<path fill="none" stroke="#404040" d="M174.28,-670.78C172.72,-658.55 170.72,-642.85 168.56,-625.95"/>
<polygon fill="none" stroke="#404040" points="168.6,-626.25 163.88,-620.81 167.09,-614.35 171.81,-619.8 168.6,-626.25"/>
<text text-anchor="middle" x="196" y="-639.5" font-family="Helvetica,sans-Serif" font-size="10.00"> #_values</text>
</g>
<!-- Node7 -->
<g id="node7" class="node">
<title>Node7</title>
<g id="a_node7"><a xlink:title=" ">
<polygon fill="white" stroke="#666666" points="107,-811 0,-811 0,-781 107,-781 107,-811"/>
<text text-anchor="middle" x="53.5" y="-799" font-family="Helvetica,sans-Serif" font-size="10.00">{std::map&lt; K, T &gt;</text>
<text text-anchor="middle" x="53.5" y="-788" font-family="Helvetica,sans-Serif" font-size="10.00">||}</text>
</a>
</g>
</g>
<!-- Node7&#45;&gt;Node2 -->
<g id="edge10" class="edge">
<title>Node7&#45;&gt;Node2</title>
<path fill="none" stroke="orange" d="M45.69,-769.6C26.33,-701.41 -17,-511 59.5,-385 71.55,-365.15 92.01,-349.55 110.68,-338.47"/>
<polygon fill="orange" stroke="orange" points="42.29,-770.45 48.46,-779.07 49.01,-768.48 42.29,-770.45"/>
<text text-anchor="start" x="22.5" y="-645" font-family="Helvetica,sans-Serif" font-size="10.00"> &lt; std::string, anch</text>
<text text-anchor="middle" x="93" y="-634" font-family="Helvetica,sans-Serif" font-size="10.00">::sql::PreparedStatement * &gt;</text>
</g>
<!-- Node7&#45;&gt;Node6 -->
<g id="edge7" class="edge">
<title>Node7&#45;&gt;Node6</title>
<path fill="none" stroke="orange" d="M69.82,-771.65C77.7,-761.43 87.78,-749.8 98.5,-741 106.35,-734.56 115.3,-728.62 124.29,-723.34"/>
<polygon fill="orange" stroke="orange" points="67.03,-769.53 63.88,-779.65 72.65,-773.7 67.03,-769.53"/>
<text text-anchor="start" x="98.5" y="-755" font-family="Helvetica,sans-Serif" font-size="10.00"> &lt; std::size_t, std</text>
<text text-anchor="middle" x="141" y="-744" font-family="Helvetica,sans-Serif" font-size="10.00">::string &gt;</text>
</g>
<!-- Node8 -->
<g id="node8" class="node">
<title>Node8</title>
<g id="a_node8"><a xlink:title=" ">
<polygon fill="white" stroke="#bfbfbf" points="53,-893.5 24,-893.5 24,-863.5 53,-863.5 53,-893.5"/>
<text text-anchor="middle" x="38.5" y="-881.5" font-family="Helvetica,sans-Serif" font-size="10.00">{K</text>
<text text-anchor="middle" x="38.5" y="-870.5" font-family="Helvetica,sans-Serif" font-size="10.00">||}</text>
</a>
</g>
</g>
<!-- Node8&#45;&gt;Node7 -->
<g id="edge8" class="edge">
<title>Node8&#45;&gt;Node7</title>
<path fill="none" stroke="#404040" d="M37.35,-863.32C36.91,-853.56 37,-840.35 39.5,-829 39.92,-827.11 40.44,-825.2 41.05,-823.29"/>
<polygon fill="none" stroke="#404040" points="41.07,-823.24 39.57,-816.19 45.51,-812.09 47.01,-819.14 41.07,-823.24"/>
<text text-anchor="middle" x="56.5" y="-832" font-family="Helvetica,sans-Serif" font-size="10.00"> +keys</text>
</g>
<!-- Node9 -->
<g id="node9" class="node">
<title>Node9</title>
<g id="a_node9"><a xlink:title=" ">
<polygon fill="white" stroke="#bfbfbf" points="110,-893.5 81,-893.5 81,-863.5 110,-863.5 110,-893.5"/>
<text text-anchor="middle" x="95.5" y="-881.5" font-family="Helvetica,sans-Serif" font-size="10.00">{T</text>
<text text-anchor="middle" x="95.5" y="-870.5" font-family="Helvetica,sans-Serif" font-size="10.00">||}</text>
</a>
</g>
</g>
<!-- Node9&#45;&gt;Node7 -->
<g id="edge9" class="edge">
<title>Node9&#45;&gt;Node7</title>
<path fill="none" stroke="#404040" d="M89.63,-863.25C85.45,-853.46 79.53,-840.24 73.5,-829 72.32,-826.79 71.04,-824.53 69.72,-822.28"/>
<polygon fill="none" stroke="#404040" points="69.81,-822.42 63.27,-819.39 63.55,-812.18 70.09,-815.21 69.81,-822.42"/>
<text text-anchor="middle" x="108.5" y="-832" font-family="Helvetica,sans-Serif" font-size="10.00"> +elements</text>
</g>
</g>
</svg>
