<?xml version="1.0" encoding="UTF-8" standalone="no"?>
<!DOCTYPE svg PUBLIC "-//W3C//DTD SVG 1.1//EN"
 "http://www.w3.org/Graphics/SVG/1.1/DTD/svg11.dtd">
<!-- Generated by graphviz version 2.40.1 (20161225.0304)
 -->
<!-- Title: anch::sql::Connection Pages: 1 -->
<svg width="394pt" height="1020pt"
 viewBox="0.00 0.00 394.00 1020.00" xmlns="http://www.w3.org/2000/svg" xmlns:xlink="http://www.w3.org/1999/xlink">
<g id="graph0" class="graph" transform="scale(1 1) rotate(0) translate(4 1016)">
<title>anch::sql::Connection</title>
<!-- Node4 -->
<g id="node1" class="node">
<title>Node4</title>
<polygon fill="#bfbfbf" stroke="#000000" points="74.5,-.5 74.5,-255.5 211.5,-255.5 211.5,-.5 74.5,-.5"/>
<text text-anchor="middle" x="143" y="-243.5" font-family="Helvetica,sans-Serif" font-size="10.00" fill="#000000">anch::sql::Connection</text>
<polyline fill="none" stroke="#000000" points="74.5,-236.5 211.5,-236.5 "/>
<text text-anchor="start" x="82.5" y="-224.5" font-family="Helvetica,sans-Serif" font-size="10.00" fill="#000000"># _valid</text>
<text text-anchor="start" x="82.5" y="-213.5" font-family="Helvetica,sans-Serif" font-size="10.00" fill="#000000"># _transaction</text>
<polyline fill="none" stroke="#000000" points="74.5,-206.5 211.5,-206.5 "/>
<text text-anchor="start" x="82.5" y="-194.5" font-family="Helvetica,sans-Serif" font-size="10.00" fill="#000000">+ Connection()</text>
<text text-anchor="start" x="82.5" y="-183.5" font-family="Helvetica,sans-Serif" font-size="10.00" fill="#000000">+ Connection()</text>
<text text-anchor="start" x="82.5" y="-172.5" font-family="Helvetica,sans-Serif" font-size="10.00" fill="#000000">+ ~Connection()</text>
<text text-anchor="start" x="82.5" y="-161.5" font-family="Helvetica,sans-Serif" font-size="10.00" fill="#000000">+ startTransaction()</text>
<text text-anchor="start" x="82.5" y="-150.5" font-family="Helvetica,sans-Serif" font-size="10.00" fill="#000000">+ begin()</text>
<text text-anchor="start" x="82.5" y="-139.5" font-family="Helvetica,sans-Serif" font-size="10.00" fill="#000000">+ commit()</text>
<text text-anchor="start" x="82.5" y="-128.5" font-family="Helvetica,sans-Serif" font-size="10.00" fill="#000000">+ rollback()</text>
<text text-anchor="start" x="82.5" y="-117.5" font-family="Helvetica,sans-Serif" font-size="10.00" fill="#000000">+ prepareStatement()</text>
<text text-anchor="start" x="82.5" y="-106.5" font-family="Helvetica,sans-Serif" font-size="10.00" fill="#000000">+ query()</text>
<text text-anchor="start" x="82.5" y="-95.5" font-family="Helvetica,sans-Serif" font-size="10.00" fill="#000000">+ queryMapRow()</text>
<text text-anchor="start" x="82.5" y="-84.5" font-family="Helvetica,sans-Serif" font-size="10.00" fill="#000000">and 8 more...</text>
<text text-anchor="start" x="82.5" y="-73.5" font-family="Helvetica,sans-Serif" font-size="10.00" fill="#000000"># executeQuery()</text>
<text text-anchor="start" x="82.5" y="-62.5" font-family="Helvetica,sans-Serif" font-size="10.00" fill="#000000"># executeUpdate()</text>
<text text-anchor="start" x="82.5" y="-51.5" font-family="Helvetica,sans-Serif" font-size="10.00" fill="#000000"># sendStartTransaction()</text>
<text text-anchor="start" x="82.5" y="-40.5" font-family="Helvetica,sans-Serif" font-size="10.00" fill="#000000"># sendCommit()</text>
<text text-anchor="start" x="82.5" y="-29.5" font-family="Helvetica,sans-Serif" font-size="10.00" fill="#000000"># sendRollback()</text>
<text text-anchor="start" x="82.5" y="-18.5" font-family="Helvetica,sans-Serif" font-size="10.00" fill="#000000"># makePrepared()</text>
<text text-anchor="start" x="82.5" y="-7.5" font-family="Helvetica,sans-Serif" font-size="10.00" fill="#000000"># setValid()</text>
</g>
<!-- Node5 -->
<g id="node2" class="node">
<title>Node5</title>
<polygon fill="none" stroke="#bfbfbf" points="53,-303.5 53,-371.5 233,-371.5 233,-303.5 53,-303.5"/>
<text text-anchor="start" x="61" y="-359.5" font-family="Helvetica,sans-Serif" font-size="10.00" fill="#000000">std::map&lt; std::string,</text>
<text text-anchor="middle" x="143" y="-348.5" font-family="Helvetica,sans-Serif" font-size="10.00" fill="#000000"> anch::sql::PreparedStatement *&gt;</text>
<polyline fill="none" stroke="#bfbfbf" points="53,-341.5 233,-341.5 "/>
<text text-anchor="middle" x="143" y="-329.5" font-family="Helvetica,sans-Serif" font-size="10.00" fill="#000000"> </text>
<polyline fill="none" stroke="#bfbfbf" points="53,-322.5 233,-322.5 "/>
<text text-anchor="middle" x="143" y="-310.5" font-family="Helvetica,sans-Serif" font-size="10.00" fill="#000000"> </text>
</g>
<!-- Node5&#45;&gt;Node4 -->
<g id="edge1" class="edge">
<title>Node5&#45;&gt;Node4</title>
<path fill="none" stroke="#404040" d="M143,-303.3739C143,-292.9877 143,-280.8676 143,-267.9382"/>
<polygon fill="none" stroke="#404040" points="143.0001,-267.8633 139,-261.8633 143,-255.8633 147,-261.8632 143.0001,-267.8633"/>
<text text-anchor="middle" x="165.5" y="-277" font-family="Helvetica,sans-Serif" font-size="10.00" fill="#000000"> #_stmts</text>
</g>
<!-- Node6 -->
<g id="node3" class="node">
<title>Node6</title>
<g id="a_node3"><a xlink:href="classanch_1_1sql_1_1_prepared_statement.html" target="_top" xlink:title="SQL prepared statement. ">
<polygon fill="none" stroke="#000000" points="62.5,-419.5 62.5,-652.5 223.5,-652.5 223.5,-419.5 62.5,-419.5"/>
<text text-anchor="middle" x="143" y="-640.5" font-family="Helvetica,sans-Serif" font-size="10.00" fill="#000000">anch::sql::PreparedStatement</text>
<polyline fill="none" stroke="#000000" points="62.5,-633.5 223.5,-633.5 "/>
<text text-anchor="start" x="70.5" y="-621.5" font-family="Helvetica,sans-Serif" font-size="10.00" fill="#000000"># _nbPlaceholders</text>
<polyline fill="none" stroke="#000000" points="62.5,-614.5 223.5,-614.5 "/>
<text text-anchor="start" x="70.5" y="-602.5" font-family="Helvetica,sans-Serif" font-size="10.00" fill="#000000">+ PreparedStatement()</text>
<text text-anchor="start" x="70.5" y="-591.5" font-family="Helvetica,sans-Serif" font-size="10.00" fill="#000000">+ ~PreparedStatement()</text>
<text text-anchor="start" x="70.5" y="-580.5" font-family="Helvetica,sans-Serif" font-size="10.00" fill="#000000">+ executeQuery()</text>
<text text-anchor="start" x="70.5" y="-569.5" font-family="Helvetica,sans-Serif" font-size="10.00" fill="#000000">+ executeUpdate()</text>
<text text-anchor="start" x="70.5" y="-558.5" font-family="Helvetica,sans-Serif" font-size="10.00" fill="#000000">+ set()</text>
<text text-anchor="start" x="70.5" y="-547.5" font-family="Helvetica,sans-Serif" font-size="10.00" fill="#000000">+ set()</text>
<text text-anchor="start" x="70.5" y="-536.5" font-family="Helvetica,sans-Serif" font-size="10.00" fill="#000000">+ set()</text>
<text text-anchor="start" x="70.5" y="-525.5" font-family="Helvetica,sans-Serif" font-size="10.00" fill="#000000">+ set()</text>
<text text-anchor="start" x="70.5" y="-514.5" font-family="Helvetica,sans-Serif" font-size="10.00" fill="#000000">+ set()</text>
<text text-anchor="start" x="70.5" y="-503.5" font-family="Helvetica,sans-Serif" font-size="10.00" fill="#000000">+ set()</text>
<text text-anchor="start" x="70.5" y="-492.5" font-family="Helvetica,sans-Serif" font-size="10.00" fill="#000000">+ set()</text>
<text text-anchor="start" x="70.5" y="-481.5" font-family="Helvetica,sans-Serif" font-size="10.00" fill="#000000">+ set()</text>
<text text-anchor="start" x="70.5" y="-470.5" font-family="Helvetica,sans-Serif" font-size="10.00" fill="#000000">+ set()</text>
<text text-anchor="start" x="70.5" y="-459.5" font-family="Helvetica,sans-Serif" font-size="10.00" fill="#000000">+ set()</text>
<text text-anchor="start" x="70.5" y="-448.5" font-family="Helvetica,sans-Serif" font-size="10.00" fill="#000000">+ set()</text>
<text text-anchor="start" x="70.5" y="-437.5" font-family="Helvetica,sans-Serif" font-size="10.00" fill="#000000"># getPlaceholders()</text>
<text text-anchor="start" x="70.5" y="-426.5" font-family="Helvetica,sans-Serif" font-size="10.00" fill="#000000"># checkIndex()</text>
</a>
</g>
</g>
<!-- Node6&#45;&gt;Node5 -->
<g id="edge2" class="edge">
<title>Node6&#45;&gt;Node5</title>
<path fill="none" stroke="#404040" d="M143,-419.3836C143,-406.8885 143,-394.7725 143,-383.8612"/>
<polygon fill="none" stroke="#404040" points="143.0001,-383.6551 139,-377.6552 143,-371.6551 147,-377.6551 143.0001,-383.6551"/>
<text text-anchor="middle" x="172" y="-393" font-family="Helvetica,sans-Serif" font-size="10.00" fill="#000000"> +elements</text>
</g>
<!-- Node7 -->
<g id="node4" class="node">
<title>Node7</title>
<polygon fill="none" stroke="#bfbfbf" points="87.5,-711.5 87.5,-779.5 198.5,-779.5 198.5,-711.5 87.5,-711.5"/>
<text text-anchor="start" x="95.5" y="-767.5" font-family="Helvetica,sans-Serif" font-size="10.00" fill="#000000">std::map&lt; std::size</text>
<text text-anchor="middle" x="143" y="-756.5" font-family="Helvetica,sans-Serif" font-size="10.00" fill="#000000">_t, std::string &gt;</text>
<polyline fill="none" stroke="#bfbfbf" points="87.5,-749.5 198.5,-749.5 "/>
<text text-anchor="start" x="95.5" y="-737.5" font-family="Helvetica,sans-Serif" font-size="10.00" fill="#000000">+ keys</text>
<polyline fill="none" stroke="#bfbfbf" points="87.5,-730.5 198.5,-730.5 "/>
<text text-anchor="middle" x="143" y="-718.5" font-family="Helvetica,sans-Serif" font-size="10.00" fill="#000000"> </text>
</g>
<!-- Node7&#45;&gt;Node6 -->
<g id="edge3" class="edge">
<title>Node7&#45;&gt;Node6</title>
<path fill="none" stroke="#404040" d="M143,-711.3739C143,-698.1253 143,-682.0553 143,-665.0832"/>
<polygon fill="none" stroke="#404040" points="143.0001,-664.5929 139,-658.5929 143,-652.5929 147,-658.5928 143.0001,-664.5929"/>
<text text-anchor="middle" x="167.5" y="-679.5" font-family="Helvetica,sans-Serif" font-size="10.00" fill="#000000"> #_values</text>
</g>
<!-- Node8 -->
<g id="node5" class="node">
<title>Node8</title>
<g id="a_node5"><a xlink:title="STL class. ">
<polygon fill="none" stroke="#bfbfbf" points="19.5,-838.5 19.5,-895.5 84.5,-895.5 84.5,-838.5 19.5,-838.5"/>
<text text-anchor="middle" x="52" y="-883.5" font-family="Helvetica,sans-Serif" font-size="10.00" fill="#000000">std::string</text>
<polyline fill="none" stroke="#bfbfbf" points="19.5,-876.5 84.5,-876.5 "/>
<text text-anchor="middle" x="52" y="-864.5" font-family="Helvetica,sans-Serif" font-size="10.00" fill="#000000"> </text>
<polyline fill="none" stroke="#bfbfbf" points="19.5,-857.5 84.5,-857.5 "/>
<text text-anchor="middle" x="52" y="-845.5" font-family="Helvetica,sans-Serif" font-size="10.00" fill="#000000"> </text>
</a>
</g>
</g>
<!-- Node8&#45;&gt;Node5 -->
<g id="edge9" class="edge">
<title>Node8&#45;&gt;Node5</title>
<path fill="none" stroke="#404040" d="M44.4521,-838.3581C26.6305,-764.8116 -11.887,-564.8574 53,-419 59.5545,-404.2664 70.2285,-391.0606 81.9746,-379.7852"/>
<polygon fill="none" stroke="#404040" points="82.2021,-379.5802 83.9807,-372.5919 91.1155,-371.5458 89.3369,-378.5341 82.2021,-379.5802"/>
<text text-anchor="middle" x="38.5" y="-679.5" font-family="Helvetica,sans-Serif" font-size="10.00" fill="#000000"> +keys</text>
</g>
<!-- Node8&#45;&gt;Node7 -->
<g id="edge4" class="edge">
<title>Node8&#45;&gt;Node7</title>
<path fill="none" stroke="#404040" d="M62.6987,-838.4041C68.2867,-825.4102 75.873,-810.2428 85,-798 87.4696,-794.6874 90.1713,-791.4206 93.0151,-788.2357"/>
<polygon fill="none" stroke="#404040" points="93.0539,-788.1949 94.2962,-781.0916 101.3309,-779.5062 100.0886,-786.6096 93.0539,-788.1949"/>
<text text-anchor="middle" x="114" y="-806.5" font-family="Helvetica,sans-Serif" font-size="10.00" fill="#000000"> +elements</text>
</g>
<!-- Node9 -->
<g id="node6" class="node">
<title>Node9</title>
<g id="a_node6"><a xlink:title="STL class. ">
<polygon fill="none" stroke="#bfbfbf" points="0,-943.5 0,-1011.5 104,-1011.5 104,-943.5 0,-943.5"/>
<text text-anchor="start" x="8" y="-999.5" font-family="Helvetica,sans-Serif" font-size="10.00" fill="#000000">std::basic_string&lt;</text>
<text text-anchor="middle" x="52" y="-988.5" font-family="Helvetica,sans-Serif" font-size="10.00" fill="#000000"> char &gt;</text>
<polyline fill="none" stroke="#bfbfbf" points="0,-981.5 104,-981.5 "/>
<text text-anchor="middle" x="52" y="-969.5" font-family="Helvetica,sans-Serif" font-size="10.00" fill="#000000"> </text>
<polyline fill="none" stroke="#bfbfbf" points="0,-962.5 104,-962.5 "/>
<text text-anchor="middle" x="52" y="-950.5" font-family="Helvetica,sans-Serif" font-size="10.00" fill="#000000"> </text>
</a>
</g>
</g>
<!-- Node9&#45;&gt;Node8 -->
<g id="edge5" class="edge">
<title>Node9&#45;&gt;Node8</title>
<path fill="none" stroke="#191970" d="M52,-933.0661C52,-920.4172 52,-906.9812 52,-895.5519"/>
<polygon fill="none" stroke="#191970" points="48.5001,-933.4447 52,-943.4447 55.5001,-933.4447 48.5001,-933.4447"/>
</g>
<!-- Node10 -->
<g id="node7" class="node">
<title>Node10</title>
<g id="a_node7"><a xlink:title="STL class. ">
<polygon fill="none" stroke="#bfbfbf" points="143.5,-838.5 143.5,-895.5 244.5,-895.5 244.5,-838.5 143.5,-838.5"/>
<text text-anchor="middle" x="194" y="-883.5" font-family="Helvetica,sans-Serif" font-size="10.00" fill="#000000">std::map&lt; K, T &gt;</text>
<polyline fill="none" stroke="#bfbfbf" points="143.5,-876.5 244.5,-876.5 "/>
<text text-anchor="middle" x="194" y="-864.5" font-family="Helvetica,sans-Serif" font-size="10.00" fill="#000000"> </text>
<polyline fill="none" stroke="#bfbfbf" points="143.5,-857.5 244.5,-857.5 "/>
<text text-anchor="middle" x="194" y="-845.5" font-family="Helvetica,sans-Serif" font-size="10.00" fill="#000000"> </text>
</a>
</g>
</g>
<!-- Node10&#45;&gt;Node5 -->
<g id="edge10" class="edge">
<title>Node10&#45;&gt;Node5</title>
<path fill="none" stroke="#ffa500" d="M232.8248,-830.087C234.8584,-826.8522 236.6255,-823.4793 238,-820 241.5924,-810.9061 238.0645,-807.7776 238,-798 236.8889,-629.5446 297.1278,-574.7758 233,-419 225.3768,-400.4822 211.0175,-384.4847 195.9714,-371.687"/>
<polygon fill="#ffa500" stroke="#ffa500" points="229.9098,-828.1455 226.9059,-838.3056 235.5901,-832.2364 229.9098,-828.1455"/>
<text text-anchor="start" x="248" y="-685" font-family="Helvetica,sans-Serif" font-size="10.00" fill="#000000"> &lt; std::string, anch</text>
<text text-anchor="middle" x="317" y="-674" font-family="Helvetica,sans-Serif" font-size="10.00" fill="#000000">::sql::PreparedStatement *&gt;</text>
</g>
<!-- Node10&#45;&gt;Node7 -->
<g id="edge6" class="edge">
<title>Node10&#45;&gt;Node7</title>
<path fill="none" stroke="#ffa500" d="M158.5011,-829.9818C156.4157,-826.7481 154.543,-823.4059 153,-820 147.3455,-807.5186 144.6471,-792.7428 143.4313,-779.6546"/>
<polygon fill="#ffa500" stroke="#ffa500" points="155.7649,-832.1721 164.4377,-838.2576 161.4528,-828.0919 155.7649,-832.1721"/>
<text text-anchor="start" x="153" y="-812" font-family="Helvetica,sans-Serif" font-size="10.00" fill="#000000"> &lt; std::size_t, std</text>
<text text-anchor="middle" x="195.5" y="-801" font-family="Helvetica,sans-Serif" font-size="10.00" fill="#000000">::string &gt;</text>
</g>
<!-- Node11 -->
<g id="node8" class="node">
<title>Node11</title>
<polygon fill="none" stroke="#bfbfbf" points="150.5,-949 150.5,-1006 179.5,-1006 179.5,-949 150.5,-949"/>
<text text-anchor="middle" x="165" y="-994" font-family="Helvetica,sans-Serif" font-size="10.00" fill="#000000">K</text>
<polyline fill="none" stroke="#bfbfbf" points="150.5,-987 179.5,-987 "/>
<text text-anchor="middle" x="165" y="-975" font-family="Helvetica,sans-Serif" font-size="10.00" fill="#000000"> </text>
<polyline fill="none" stroke="#bfbfbf" points="150.5,-968 179.5,-968 "/>
<text text-anchor="middle" x="165" y="-956" font-family="Helvetica,sans-Serif" font-size="10.00" fill="#000000"> </text>
</g>
<!-- Node11&#45;&gt;Node10 -->
<g id="edge7" class="edge">
<title>Node11&#45;&gt;Node10</title>
<path fill="none" stroke="#404040" d="M162.3345,-948.9089C162.1033,-937.8209 162.8394,-925.1372 166,-914 166.7268,-911.4387 167.6302,-908.8749 168.6628,-906.3397"/>
<polygon fill="none" stroke="#404040" points="168.6717,-906.3209 167.6655,-899.1803 173.8699,-895.5052 174.876,-902.6457 168.6717,-906.3209"/>
<text text-anchor="middle" x="183.5" y="-917" font-family="Helvetica,sans-Serif" font-size="10.00" fill="#000000"> +keys</text>
</g>
<!-- Node12 -->
<g id="node9" class="node">
<title>Node12</title>
<polygon fill="none" stroke="#bfbfbf" points="208.5,-949 208.5,-1006 237.5,-1006 237.5,-949 208.5,-949"/>
<text text-anchor="middle" x="223" y="-994" font-family="Helvetica,sans-Serif" font-size="10.00" fill="#000000">T</text>
<polyline fill="none" stroke="#bfbfbf" points="208.5,-987 237.5,-987 "/>
<text text-anchor="middle" x="223" y="-975" font-family="Helvetica,sans-Serif" font-size="10.00" fill="#000000"> </text>
<polyline fill="none" stroke="#bfbfbf" points="208.5,-968 237.5,-968 "/>
<text text-anchor="middle" x="223" y="-956" font-family="Helvetica,sans-Serif" font-size="10.00" fill="#000000"> </text>
</g>
<!-- Node12&#45;&gt;Node10 -->
<g id="edge8" class="edge">
<title>Node12&#45;&gt;Node10</title>
<path fill="none" stroke="#404040" d="M215.4563,-948.7559C212.1334,-936.0945 208.1717,-920.9992 204.5623,-907.2459"/>
<polygon fill="none" stroke="#404040" points="204.5522,-907.2071 199.1601,-902.4191 201.5059,-895.6002 206.898,-900.3883 204.5522,-907.2071"/>
<text text-anchor="middle" x="238" y="-917" font-family="Helvetica,sans-Serif" font-size="10.00" fill="#000000"> +elements</text>
</g>
</g>
</svg>
