<?xml version="1.0" encoding="UTF-8" standalone="no"?>
<!DOCTYPE svg PUBLIC "-//W3C//DTD SVG 1.1//EN"
 "http://www.w3.org/Graphics/SVG/1.1/DTD/svg11.dtd">
<!-- Generated by graphviz version 12.1.2 (0)
 -->
<!-- Title: anch::ut::DefaultRunner Pages: 1 -->
<svg width="150pt" height="412pt"
 viewBox="0.00 0.00 150.00 412.00" xmlns="http://www.w3.org/2000/svg" xmlns:xlink="http://www.w3.org/1999/xlink">

<svg id="main" version="1.1" xmlns="http://www.w3.org/2000/svg" xmlns:xlink="http://www.w3.org/1999/xlink" xml:space="preserve">

<style type="text/css"><![CDATA[
.node, .edge {opacity: 0.7;}
.node.selected, .edge.selected {opacity: 1;}
.edge:hover path { stroke: red; }
.edge:hover polygon { stroke: red; fill: red; }
]]></style>
<script type="application/ecmascript" xlink:href="svg.min.js"/>
<svg id="graph" class="graph">
<g id="graph0" class="graph" transform="scale(1 1) rotate(0) translate(4 408)">
<title>anch::ut::DefaultRunner</title>
<!-- Node1 -->
<g id="Node000001" class="node">
<title>Node1</title>
<g id="a_Node000001"><a xlink:title="Default unit tests runner.">
<polygon fill="#999999" stroke="none" points="128,-284 14,-284 14,-152 128,-152 128,-284"/>
<text text-anchor="start" x="18.88" y="-270.5" font-family="Helvetica,sans-Serif" font-size="10.00">anch::ut::DefaultRunner</text>
<text text-anchor="start" x="69.5" y="-254.5" font-family="Helvetica,sans-Serif" font-size="10.00"> </text>
<text text-anchor="start" x="24.5" y="-238.5" font-family="Helvetica,sans-Serif" font-size="10.00">+</text>
<text text-anchor="start" x="41" y="-238.5" font-family="Helvetica,sans-Serif" font-size="10.00">DefaultRunner()</text>
<text text-anchor="start" x="24.5" y="-222.5" font-family="Helvetica,sans-Serif" font-size="10.00">+</text>
<text text-anchor="start" x="41" y="-222.5" font-family="Helvetica,sans-Serif" font-size="10.00">DefaultRunner()</text>
<text text-anchor="start" x="24.5" y="-206.5" font-family="Helvetica,sans-Serif" font-size="10.00">+</text>
<text text-anchor="start" x="41" y="-206.5" font-family="Helvetica,sans-Serif" font-size="10.00">DefaultRunner()</text>
<text text-anchor="start" x="24.5" y="-190.5" font-family="Helvetica,sans-Serif" font-size="10.00">+</text>
<text text-anchor="start" x="41" y="-190.5" font-family="Helvetica,sans-Serif" font-size="10.00">startup()</text>
<text text-anchor="start" x="24.5" y="-174.5" font-family="Helvetica,sans-Serif" font-size="10.00">+</text>
<text text-anchor="start" x="41" y="-174.5" font-family="Helvetica,sans-Serif" font-size="10.00">shutdown()</text>
<text text-anchor="start" x="24.5" y="-158.5" font-family="Helvetica,sans-Serif" font-size="10.00">+</text>
<text text-anchor="start" x="41" y="-158.5" font-family="Helvetica,sans-Serif" font-size="10.00">test()</text>
<polygon fill="#666666" stroke="#666666" points="14,-266 14,-266 128,-266 128,-266 14,-266"/>
<polygon fill="#666666" stroke="#666666" points="14,-250 14,-250 128,-250 128,-250 14,-250"/>
<polygon fill="none" stroke="#666666" points="14,-152 14,-284 128,-284 128,-152 14,-152"/>
</a>
</g>
</g>
<!-- Node3 -->
<g id="Node000003" class="node">
<title>Node3</title>
<g id="a_Node000003"><a xlink:href="classanch_1_1ut_1_1_socket_server_runner.html" target="_top" xlink:title="Socket server unit tests runner.">
<polygon fill="white" stroke="none" points="142,-116 0,-116 0,0 142,0 142,-116"/>
<text text-anchor="start" x="5" y="-102.5" font-family="Helvetica,sans-Serif" font-size="10.00">anch::ut::SocketServerRunner</text>
<text text-anchor="start" x="69.5" y="-86.5" font-family="Helvetica,sans-Serif" font-size="10.00"> </text>
<text text-anchor="start" x="9.5" y="-70.5" font-family="Helvetica,sans-Serif" font-size="10.00">+</text>
<text text-anchor="start" x="25" y="-70.5" font-family="Helvetica,sans-Serif" font-size="10.00">SocketServerRunner()</text>
<text text-anchor="start" x="9.5" y="-54.5" font-family="Helvetica,sans-Serif" font-size="10.00">+</text>
<text text-anchor="start" x="25" y="-54.5" font-family="Helvetica,sans-Serif" font-size="10.00">SocketServerRunner()</text>
<text text-anchor="start" x="9.5" y="-38.5" font-family="Helvetica,sans-Serif" font-size="10.00">+</text>
<text text-anchor="start" x="25" y="-38.5" font-family="Helvetica,sans-Serif" font-size="10.00">SocketServerRunner()</text>
<text text-anchor="start" x="9.5" y="-22.5" font-family="Helvetica,sans-Serif" font-size="10.00">+</text>
<text text-anchor="start" x="25" y="-22.5" font-family="Helvetica,sans-Serif" font-size="10.00">~SocketServerRunner()</text>
<text text-anchor="start" x="9.5" y="-6.5" font-family="Helvetica,sans-Serif" font-size="10.00">+</text>
<text text-anchor="start" x="25" y="-6.5" font-family="Helvetica,sans-Serif" font-size="10.00">handle()</text>
<polygon fill="#666666" stroke="#666666" points="0,-98 0,-98 142,-98 142,-98 0,-98"/>
<polygon fill="#666666" stroke="#666666" points="0,-82 0,-82 142,-82 142,-82 0,-82"/>
<polygon fill="none" stroke="#666666" points="0,0 0,-116 142,-116 142,0 0,0"/>
</a>
</g>
</g>
<!-- Node1&#45;&gt;Node3 -->
<g id="edge2_Node000001_Node000003" class="edge">
<title>Node1&#45;&gt;Node3</title>
<g id="a_edge2_Node000001_Node000003"><a xlink:title=" ">
<path fill="none" stroke="#63b8ff" d="M71,-140.84C71,-132.4 71,-123.91 71,-115.77"/>
<polygon fill="none" stroke="#63b8ff" points="67.5,-140.77 71,-150.77 74.5,-140.77 67.5,-140.77"/>
</a>
</g>
</g>
<!-- Node2 -->
<g id="Node000002" class="node">
<title>Node2</title>
<g id="a_Node000002"><a xlink:href="classanch_1_1ut_1_1_runner.html" target="_top" xlink:title="Unit tests runner.">
<polygon fill="white" stroke="none" points="112,-404 30,-404 30,-320 112,-320 112,-404"/>
<text text-anchor="start" x="34.62" y="-390.5" font-family="Helvetica,sans-Serif" font-size="10.00">anch::ut::Runner</text>
<text text-anchor="start" x="69.5" y="-374.5" font-family="Helvetica,sans-Serif" font-size="10.00"> </text>
<text text-anchor="start" x="38" y="-358.5" font-family="Helvetica,sans-Serif" font-size="10.00">+</text>
<text text-anchor="start" x="52" y="-358.5" font-family="Helvetica,sans-Serif" font-size="10.00">startup()</text>
<text text-anchor="start" x="38" y="-342.5" font-family="Helvetica,sans-Serif" font-size="10.00">+</text>
<text text-anchor="start" x="52" y="-342.5" font-family="Helvetica,sans-Serif" font-size="10.00">shutdown()</text>
<text text-anchor="start" x="38" y="-326.5" font-family="Helvetica,sans-Serif" font-size="10.00">+</text>
<text text-anchor="start" x="52" y="-326.5" font-family="Helvetica,sans-Serif" font-size="10.00">test()</text>
<polygon fill="#666666" stroke="#666666" points="30,-386 30,-386 112,-386 112,-386 30,-386"/>
<polygon fill="#666666" stroke="#666666" points="30,-370 30,-370 112,-370 112,-370 30,-370"/>
<polygon fill="none" stroke="#666666" points="30,-320 30,-404 112,-404 112,-320 30,-320"/>
</a>
</g>
</g>
<!-- Node2&#45;&gt;Node1 -->
<g id="edge1_Node000001_Node000002" class="edge">
<title>Node2&#45;&gt;Node1</title>
<g id="a_edge1_Node000001_Node000002"><a xlink:title=" ">
<path fill="none" stroke="#63b8ff" d="M71,-309.02C71,-300.82 71,-292.27 71,-283.82"/>
<polygon fill="none" stroke="#63b8ff" points="67.5,-308.79 71,-318.79 74.5,-308.79 67.5,-308.79"/>
</a>
</g>
</g>
</g>
</svg>
</svg>

<style type='text/css'>
<![CDATA[
[data-mouse-over-selected='false'] { opacity: 0.7; }
[data-mouse-over-selected='true']  { opacity: 1.0; }
]]>
</style>
<script type="application/ecmascript"><![CDATA[
document.addEventListener('DOMContentLoaded', (event) => {
  highlightEdges();
  highlightAdjacentNodes();
});
]]></script>
</svg>
