<?xml version="1.0" encoding="UTF-8" standalone="no"?>
<!DOCTYPE svg PUBLIC "-//W3C//DTD SVG 1.1//EN"
 "http://www.w3.org/Graphics/SVG/1.1/DTD/svg11.dtd">
<!-- Generated by graphviz version 12.1.2 (0)
 -->
<!-- Title: anch::crypto::BlockCipherModeOfOperation&lt; Derived, Cipher &gt; Pages: 1 -->
<!--zoomable 609 -->

<svg id="main" version="1.1" xmlns="http://www.w3.org/2000/svg" xmlns:xlink="http://www.w3.org/1999/xlink" xml:space="preserve" onload="init(evt)">

<style type="text/css"><![CDATA[
.node, .edge {opacity: 0.7;}
.node.selected, .edge.selected {opacity: 1;}
.edge:hover path { stroke: red; }
.edge:hover polygon { stroke: red; fill: red; }
]]></style>

<defs>
  <circle id="rim" cx="0" cy="0" r="7"/>
  <circle id="rim2" cx="0" cy="0" r="3.5"/>
  <g id="zoomPlus">
    <use xlink:href="#rim" fill="#404040"><set attributeName="fill" to="#808080" begin="zoomplus.mouseover" end="zoomplus.mouseout"/></use>
    <path d="M-4,0h8M0,-4v8" fill="none" stroke="white" stroke-width="1.5" pointer-events="none"/>
  </g>
  <g id="zoomMin">
    <use xlink:href="#rim" fill="#404040"><set attributeName="fill" to="#808080" begin="zoomminus.mouseover" end="zoomminus.mouseout"/></use>
    <path d="M-4,0h8" fill="none" stroke="white" stroke-width="1.5" pointer-events="none"/>
  </g>
  <g id="arrowUp" transform="translate(30 24)">
    <use xlink:href="#rim"/>
    <path pointer-events="none" fill="none" stroke="white" stroke-width="1.5" d="M0,-3.0v7 M-2.5,-0.5L0,-3.0L2.5,-0.5"/>
  </g>
  <g id="arrowRight" transform="rotate(90) translate(36 -43)">
    <use xlink:href="#rim"/>
    <path pointer-events="none" fill="none" stroke="white" stroke-width="1.5" d="M0,-3.0v7 M-2.5,-0.5L0,-3.0L2.5,-0.5"/>
  </g>
  <g id="arrowDown" transform="rotate(180) translate(-30 -48)">
    <use xlink:href="#rim"/>
    <path pointer-events="none" fill="none" stroke="white" stroke-width="1.5" d="M0,-3.0v7 M-2.5,-0.5L0,-3.0L2.5,-0.5"/>
  </g>
  <g id="arrowLeft" transform="rotate(270) translate(-36 17)">
    <use xlink:href="#rim"/>
    <path pointer-events="none" fill="none" stroke="white" stroke-width="1.5" d="M0,-3.0v7 M-2.5,-0.5L0,-3.0L2.5,-0.5"/>
  </g>
  <g id="resetDef">
    <use xlink:href="#rim2" fill="#404040"><set attributeName="fill" to="#808080" begin="reset.mouseover" end="reset.mouseout"/></use>
  </g>
</defs>
<script type="application/ecmascript">
var viewWidth = 1052;
var viewHeight = 609;
var sectionId = 'dynsection-0';
</script>
<script type="application/ecmascript" xlink:href="svg.min.js"/>
<svg id="graph" class="graph">
<g id="viewport">
<title>anch::crypto::BlockCipherModeOfOperation&lt; Derived, Cipher &gt;</title>
<!-- Node1 -->
<g id="Node000001" class="node">
<title>Node1</title>
<g id="a_Node000001"><a xlink:title="Block cipher mode of operation interface.">
<polygon fill="#999999" stroke="none" points="594,-601 435,-601 435,-413 594,-413 594,-601"/>
<text text-anchor="start" x="453.38" y="-587.5" font-family="Helvetica,sans-Serif" font-size="10.00">anch::crypto::BlockCipher</text>
<text text-anchor="start" x="453.38" y="-575.5" font-family="Helvetica,sans-Serif" font-size="10.00">ModeOfOperation&lt; Derived,</text>
<text text-anchor="start" x="494.25" y="-563.5" font-family="Helvetica,sans-Serif" font-size="10.00"> Cipher &gt;</text>
<text text-anchor="start" x="513" y="-547.5" font-family="Helvetica,sans-Serif" font-size="10.00"> </text>
<text text-anchor="start" x="439" y="-531.5" font-family="Helvetica,sans-Serif" font-size="10.00">+</text>
<text text-anchor="start" x="449" y="-531.5" font-family="Helvetica,sans-Serif" font-size="10.00">cipher()</text>
<text text-anchor="start" x="439" y="-515.5" font-family="Helvetica,sans-Serif" font-size="10.00">+</text>
<text text-anchor="start" x="449" y="-515.5" font-family="Helvetica,sans-Serif" font-size="10.00">decipher()</text>
<text text-anchor="start" x="439" y="-499.5" font-family="Helvetica,sans-Serif" font-size="10.00">+</text>
<text text-anchor="start" x="449" y="-499.5" font-family="Helvetica,sans-Serif" font-size="10.00">setNbThread()</text>
<text text-anchor="start" x="439.38" y="-483.5" font-family="Helvetica,sans-Serif" font-size="10.00">#</text>
<text text-anchor="start" x="449" y="-483.5" font-family="Helvetica,sans-Serif" font-size="10.00">BlockCipherModeOfOperation()</text>
<text text-anchor="start" x="439.38" y="-467.5" font-family="Helvetica,sans-Serif" font-size="10.00">#</text>
<text text-anchor="start" x="449" y="-467.5" font-family="Helvetica,sans-Serif" font-size="10.00">~BlockCipherModeOfOperation()</text>
<text text-anchor="start" x="439.38" y="-451.5" font-family="Helvetica,sans-Serif" font-size="10.00">#</text>
<text text-anchor="start" x="449" y="-451.5" font-family="Helvetica,sans-Serif" font-size="10.00">cipherBlock()</text>
<text text-anchor="start" x="439.38" y="-435.5" font-family="Helvetica,sans-Serif" font-size="10.00">#</text>
<text text-anchor="start" x="449" y="-435.5" font-family="Helvetica,sans-Serif" font-size="10.00">decipherBlock()</text>
<text text-anchor="start" x="439.38" y="-419.5" font-family="Helvetica,sans-Serif" font-size="10.00">#</text>
<text text-anchor="start" x="449" y="-419.5" font-family="Helvetica,sans-Serif" font-size="10.00">reset()</text>
<polygon fill="#666666" stroke="#666666" points="435,-559 435,-559 594,-559 594,-559 435,-559"/>
<polygon fill="#666666" stroke="#666666" points="435,-543 435,-543 594,-543 594,-543 435,-543"/>
<polygon fill="none" stroke="#666666" points="435,-413 435,-601 594,-601 594,-413 435,-413"/>
</a>
</g>
</g>
<!-- Node2 -->
<g id="Node000002" class="node">
<title>Node2</title>
<g id="a_Node000002"><a xlink:href="classanch_1_1crypto_1_1_block_cipher_mode_of_operation.html" target="_top" xlink:title=" ">
<polygon fill="white" stroke="none" points="159,-353 0,-353 0,-165 159,-165 159,-353"/>
<text text-anchor="start" x="5.62" y="-339.5" font-family="Helvetica,sans-Serif" font-size="10.00">anch::crypto::BlockCipher</text>
<text text-anchor="start" x="5.62" y="-327.5" font-family="Helvetica,sans-Serif" font-size="10.00">ModeOfOperation&lt; CBC&lt; Cipher,</text>
<text text-anchor="start" x="34.12" y="-315.5" font-family="Helvetica,sans-Serif" font-size="10.00"> Padding &gt;, Cipher &gt;</text>
<text text-anchor="start" x="78" y="-299.5" font-family="Helvetica,sans-Serif" font-size="10.00"> </text>
<text text-anchor="start" x="4" y="-283.5" font-family="Helvetica,sans-Serif" font-size="10.00">+</text>
<text text-anchor="start" x="14" y="-283.5" font-family="Helvetica,sans-Serif" font-size="10.00">cipher()</text>
<text text-anchor="start" x="4" y="-267.5" font-family="Helvetica,sans-Serif" font-size="10.00">+</text>
<text text-anchor="start" x="14" y="-267.5" font-family="Helvetica,sans-Serif" font-size="10.00">decipher()</text>
<text text-anchor="start" x="4" y="-251.5" font-family="Helvetica,sans-Serif" font-size="10.00">+</text>
<text text-anchor="start" x="14" y="-251.5" font-family="Helvetica,sans-Serif" font-size="10.00">setNbThread()</text>
<text text-anchor="start" x="4.38" y="-235.5" font-family="Helvetica,sans-Serif" font-size="10.00">#</text>
<text text-anchor="start" x="14" y="-235.5" font-family="Helvetica,sans-Serif" font-size="10.00">BlockCipherModeOfOperation()</text>
<text text-anchor="start" x="4.38" y="-219.5" font-family="Helvetica,sans-Serif" font-size="10.00">#</text>
<text text-anchor="start" x="14" y="-219.5" font-family="Helvetica,sans-Serif" font-size="10.00">~BlockCipherModeOfOperation()</text>
<text text-anchor="start" x="4.38" y="-203.5" font-family="Helvetica,sans-Serif" font-size="10.00">#</text>
<text text-anchor="start" x="14" y="-203.5" font-family="Helvetica,sans-Serif" font-size="10.00">cipherBlock()</text>
<text text-anchor="start" x="4.38" y="-187.5" font-family="Helvetica,sans-Serif" font-size="10.00">#</text>
<text text-anchor="start" x="14" y="-187.5" font-family="Helvetica,sans-Serif" font-size="10.00">decipherBlock()</text>
<text text-anchor="start" x="4.38" y="-171.5" font-family="Helvetica,sans-Serif" font-size="10.00">#</text>
<text text-anchor="start" x="14" y="-171.5" font-family="Helvetica,sans-Serif" font-size="10.00">reset()</text>
<polygon fill="#666666" stroke="#666666" points="0,-311 0,-311 159,-311 159,-311 0,-311"/>
<polygon fill="#666666" stroke="#666666" points="0,-295 0,-295 159,-295 159,-295 0,-295"/>
<polygon fill="none" stroke="#666666" points="0,-165 0,-353 159,-353 159,-165 0,-165"/>
</a>
</g>
</g>
<!-- Node1&#45;&gt;Node2 -->
<g id="edge1_Node000001_Node000002" class="edge">
<title>Node1&#45;&gt;Node2</title>
<g id="a_edge1_Node000001_Node000002"><a xlink:title=" ">
<path fill="none" stroke="orange" d="M423.94,-488.95C355.47,-472.89 261.53,-443.82 191,-395 174.13,-383.32 158.4,-368.42 144.39,-352.8"/>
<polygon fill="orange" stroke="orange" points="423.13,-492.35 433.66,-491.17 424.69,-485.53 423.13,-492.35"/>
</a>
</g>
<text text-anchor="start" x="191" y="-385.5" font-family="Helvetica,sans-Serif" font-size="10.00" fill="grey"> &lt; CBC&lt; Cipher, Padding</text>
<text text-anchor="middle" x="247.25" y="-373.5" font-family="Helvetica,sans-Serif" font-size="10.00" fill="grey"> &gt;, Cipher &gt;</text>
</g>
<!-- Node4 -->
<g id="Node000004" class="node">
<title>Node4</title>
<g id="a_Node000004"><a xlink:href="classanch_1_1crypto_1_1_block_cipher_mode_of_operation.html" target="_top" xlink:title=" ">
<polygon fill="white" stroke="none" points="336,-353 177,-353 177,-165 336,-165 336,-353"/>
<text text-anchor="start" x="184.88" y="-339.5" font-family="Helvetica,sans-Serif" font-size="10.00">anch::crypto::BlockCipher</text>
<text text-anchor="start" x="184.88" y="-327.5" font-family="Helvetica,sans-Serif" font-size="10.00">ModeOfOperation&lt; CFB&lt; Cipher</text>
<text text-anchor="start" x="230.25" y="-315.5" font-family="Helvetica,sans-Serif" font-size="10.00"> &gt;, Cipher &gt;</text>
<text text-anchor="start" x="255" y="-299.5" font-family="Helvetica,sans-Serif" font-size="10.00"> </text>
<text text-anchor="start" x="181" y="-283.5" font-family="Helvetica,sans-Serif" font-size="10.00">+</text>
<text text-anchor="start" x="191" y="-283.5" font-family="Helvetica,sans-Serif" font-size="10.00">cipher()</text>
<text text-anchor="start" x="181" y="-267.5" font-family="Helvetica,sans-Serif" font-size="10.00">+</text>
<text text-anchor="start" x="191" y="-267.5" font-family="Helvetica,sans-Serif" font-size="10.00">decipher()</text>
<text text-anchor="start" x="181" y="-251.5" font-family="Helvetica,sans-Serif" font-size="10.00">+</text>
<text text-anchor="start" x="191" y="-251.5" font-family="Helvetica,sans-Serif" font-size="10.00">setNbThread()</text>
<text text-anchor="start" x="181.38" y="-235.5" font-family="Helvetica,sans-Serif" font-size="10.00">#</text>
<text text-anchor="start" x="191" y="-235.5" font-family="Helvetica,sans-Serif" font-size="10.00">BlockCipherModeOfOperation()</text>
<text text-anchor="start" x="181.38" y="-219.5" font-family="Helvetica,sans-Serif" font-size="10.00">#</text>
<text text-anchor="start" x="191" y="-219.5" font-family="Helvetica,sans-Serif" font-size="10.00">~BlockCipherModeOfOperation()</text>
<text text-anchor="start" x="181.38" y="-203.5" font-family="Helvetica,sans-Serif" font-size="10.00">#</text>
<text text-anchor="start" x="191" y="-203.5" font-family="Helvetica,sans-Serif" font-size="10.00">cipherBlock()</text>
<text text-anchor="start" x="181.38" y="-187.5" font-family="Helvetica,sans-Serif" font-size="10.00">#</text>
<text text-anchor="start" x="191" y="-187.5" font-family="Helvetica,sans-Serif" font-size="10.00">decipherBlock()</text>
<text text-anchor="start" x="181.38" y="-171.5" font-family="Helvetica,sans-Serif" font-size="10.00">#</text>
<text text-anchor="start" x="191" y="-171.5" font-family="Helvetica,sans-Serif" font-size="10.00">reset()</text>
<polygon fill="#666666" stroke="#666666" points="177,-311 177,-311 336,-311 336,-311 177,-311"/>
<polygon fill="#666666" stroke="#666666" points="177,-295 177,-295 336,-295 336,-295 177,-295"/>
<polygon fill="none" stroke="#666666" points="177,-165 177,-353 336,-353 336,-165 177,-165"/>
</a>
</g>
</g>
<!-- Node1&#45;&gt;Node4 -->
<g id="edge3_Node000001_Node000004" class="edge">
<title>Node1&#45;&gt;Node4</title>
<g id="a_edge3_Node000001_Node000004"><a xlink:title=" ">
<path fill="none" stroke="orange" d="M425.15,-467.08C390.81,-448.9 353.19,-424.65 325.25,-395 313.62,-382.65 303.48,-367.96 294.83,-352.88"/>
<polygon fill="orange" stroke="orange" points="423.38,-470.1 433.87,-471.59 426.59,-463.89 423.38,-470.1"/>
</a>
</g>
<text text-anchor="middle" x="386.38" y="-379.5" font-family="Helvetica,sans-Serif" font-size="10.00" fill="grey"> &lt; CFB&lt; Cipher &gt;, Cipher &gt;</text>
</g>
<!-- Node6 -->
<g id="Node000006" class="node">
<title>Node6</title>
<g id="a_Node000006"><a xlink:href="classanch_1_1crypto_1_1_block_cipher_mode_of_operation.html" target="_top" xlink:title=" ">
<polygon fill="white" stroke="none" points="513,-353 354,-353 354,-165 513,-165 513,-353"/>
<text text-anchor="start" x="361.5" y="-339.5" font-family="Helvetica,sans-Serif" font-size="10.00">anch::crypto::BlockCipher</text>
<text text-anchor="start" x="361.5" y="-327.5" font-family="Helvetica,sans-Serif" font-size="10.00">ModeOfOperation&lt; CTR&lt; Cipher</text>
<text text-anchor="start" x="407.25" y="-315.5" font-family="Helvetica,sans-Serif" font-size="10.00"> &gt;, Cipher &gt;</text>
<text text-anchor="start" x="432" y="-299.5" font-family="Helvetica,sans-Serif" font-size="10.00"> </text>
<text text-anchor="start" x="358" y="-283.5" font-family="Helvetica,sans-Serif" font-size="10.00">+</text>
<text text-anchor="start" x="368" y="-283.5" font-family="Helvetica,sans-Serif" font-size="10.00">cipher()</text>
<text text-anchor="start" x="358" y="-267.5" font-family="Helvetica,sans-Serif" font-size="10.00">+</text>
<text text-anchor="start" x="368" y="-267.5" font-family="Helvetica,sans-Serif" font-size="10.00">decipher()</text>
<text text-anchor="start" x="358" y="-251.5" font-family="Helvetica,sans-Serif" font-size="10.00">+</text>
<text text-anchor="start" x="368" y="-251.5" font-family="Helvetica,sans-Serif" font-size="10.00">setNbThread()</text>
<text text-anchor="start" x="358.38" y="-235.5" font-family="Helvetica,sans-Serif" font-size="10.00">#</text>
<text text-anchor="start" x="368" y="-235.5" font-family="Helvetica,sans-Serif" font-size="10.00">BlockCipherModeOfOperation()</text>
<text text-anchor="start" x="358.38" y="-219.5" font-family="Helvetica,sans-Serif" font-size="10.00">#</text>
<text text-anchor="start" x="368" y="-219.5" font-family="Helvetica,sans-Serif" font-size="10.00">~BlockCipherModeOfOperation()</text>
<text text-anchor="start" x="358.38" y="-203.5" font-family="Helvetica,sans-Serif" font-size="10.00">#</text>
<text text-anchor="start" x="368" y="-203.5" font-family="Helvetica,sans-Serif" font-size="10.00">cipherBlock()</text>
<text text-anchor="start" x="358.38" y="-187.5" font-family="Helvetica,sans-Serif" font-size="10.00">#</text>
<text text-anchor="start" x="368" y="-187.5" font-family="Helvetica,sans-Serif" font-size="10.00">decipherBlock()</text>
<text text-anchor="start" x="358.38" y="-171.5" font-family="Helvetica,sans-Serif" font-size="10.00">#</text>
<text text-anchor="start" x="368" y="-171.5" font-family="Helvetica,sans-Serif" font-size="10.00">reset()</text>
<polygon fill="#666666" stroke="#666666" points="354,-311 354,-311 513,-311 513,-311 354,-311"/>
<polygon fill="#666666" stroke="#666666" points="354,-295 354,-295 513,-295 513,-295 354,-295"/>
<polygon fill="none" stroke="#666666" points="354,-165 354,-353 513,-353 513,-165 354,-165"/>
</a>
</g>
</g>
<!-- Node1&#45;&gt;Node6 -->
<g id="edge5_Node000001_Node000006" class="edge">
<title>Node1&#45;&gt;Node6</title>
<g id="a_edge5_Node000001_Node000006"><a xlink:title=" ">
<path fill="none" stroke="orange" d="M460.23,-402.7C459.27,-400.12 458.36,-397.55 457.5,-395 452.98,-381.58 449.26,-367.1 446.22,-352.79"/>
<polygon fill="orange" stroke="orange" points="456.93,-403.86 463.84,-411.89 463.44,-401.31 456.93,-403.86"/>
</a>
</g>
<text text-anchor="middle" x="519" y="-379.5" font-family="Helvetica,sans-Serif" font-size="10.00" fill="grey"> &lt; CTR&lt; Cipher &gt;, Cipher &gt;</text>
</g>
<!-- Node8 -->
<g id="Node000008" class="node">
<title>Node8</title>
<g id="a_Node000008"><a xlink:href="classanch_1_1crypto_1_1_block_cipher_mode_of_operation.html" target="_top" xlink:title=" ">
<polygon fill="white" stroke="none" points="690,-353 531,-353 531,-165 690,-165 690,-353"/>
<text text-anchor="start" x="537" y="-339.5" font-family="Helvetica,sans-Serif" font-size="10.00">anch::crypto::BlockCipher</text>
<text text-anchor="start" x="537" y="-327.5" font-family="Helvetica,sans-Serif" font-size="10.00">ModeOfOperation&lt; ECB&lt; Cipher,</text>
<text text-anchor="start" x="565.12" y="-315.5" font-family="Helvetica,sans-Serif" font-size="10.00"> Padding &gt;, Cipher &gt;</text>
<text text-anchor="start" x="609" y="-299.5" font-family="Helvetica,sans-Serif" font-size="10.00"> </text>
<text text-anchor="start" x="535" y="-283.5" font-family="Helvetica,sans-Serif" font-size="10.00">+</text>
<text text-anchor="start" x="545" y="-283.5" font-family="Helvetica,sans-Serif" font-size="10.00">cipher()</text>
<text text-anchor="start" x="535" y="-267.5" font-family="Helvetica,sans-Serif" font-size="10.00">+</text>
<text text-anchor="start" x="545" y="-267.5" font-family="Helvetica,sans-Serif" font-size="10.00">decipher()</text>
<text text-anchor="start" x="535" y="-251.5" font-family="Helvetica,sans-Serif" font-size="10.00">+</text>
<text text-anchor="start" x="545" y="-251.5" font-family="Helvetica,sans-Serif" font-size="10.00">setNbThread()</text>
<text text-anchor="start" x="535.38" y="-235.5" font-family="Helvetica,sans-Serif" font-size="10.00">#</text>
<text text-anchor="start" x="545" y="-235.5" font-family="Helvetica,sans-Serif" font-size="10.00">BlockCipherModeOfOperation()</text>
<text text-anchor="start" x="535.38" y="-219.5" font-family="Helvetica,sans-Serif" font-size="10.00">#</text>
<text text-anchor="start" x="545" y="-219.5" font-family="Helvetica,sans-Serif" font-size="10.00">~BlockCipherModeOfOperation()</text>
<text text-anchor="start" x="535.38" y="-203.5" font-family="Helvetica,sans-Serif" font-size="10.00">#</text>
<text text-anchor="start" x="545" y="-203.5" font-family="Helvetica,sans-Serif" font-size="10.00">cipherBlock()</text>
<text text-anchor="start" x="535.38" y="-187.5" font-family="Helvetica,sans-Serif" font-size="10.00">#</text>
<text text-anchor="start" x="545" y="-187.5" font-family="Helvetica,sans-Serif" font-size="10.00">decipherBlock()</text>
<text text-anchor="start" x="535.38" y="-171.5" font-family="Helvetica,sans-Serif" font-size="10.00">#</text>
<text text-anchor="start" x="545" y="-171.5" font-family="Helvetica,sans-Serif" font-size="10.00">reset()</text>
<polygon fill="#666666" stroke="#666666" points="531,-311 531,-311 690,-311 690,-311 531,-311"/>
<polygon fill="#666666" stroke="#666666" points="531,-295 531,-295 690,-295 690,-295 531,-295"/>
<polygon fill="none" stroke="#666666" points="531,-165 531,-353 690,-353 690,-165 531,-165"/>
</a>
</g>
</g>
<!-- Node1&#45;&gt;Node8 -->
<g id="edge7_Node000001_Node000008" class="edge">
<title>Node1&#45;&gt;Node8</title>
<g id="a_edge7_Node000001_Node000008"><a xlink:title=" ">
<path fill="none" stroke="orange" d="M577.19,-402.96C578.34,-400.3 579.45,-397.64 580.5,-395 585.81,-381.61 590.28,-367.08 594.01,-352.68"/>
<polygon fill="orange" stroke="orange" points="574.11,-401.28 573.13,-411.83 580.47,-404.19 574.11,-401.28"/>
</a>
</g>
<text text-anchor="start" x="588.01" y="-385.5" font-family="Helvetica,sans-Serif" font-size="10.00" fill="grey"> &lt; ECB&lt; Cipher, Padding</text>
<text text-anchor="middle" x="643.88" y="-373.5" font-family="Helvetica,sans-Serif" font-size="10.00" fill="grey"> &gt;, Cipher &gt;</text>
</g>
<!-- Node10 -->
<g id="Node000010" class="node">
<title>Node10</title>
<g id="a_Node000010"><a xlink:href="classanch_1_1crypto_1_1_block_cipher_mode_of_operation.html" target="_top" xlink:title=" ">
<polygon fill="white" stroke="none" points="867,-353 708,-353 708,-165 867,-165 867,-353"/>
<text text-anchor="start" x="715.88" y="-339.5" font-family="Helvetica,sans-Serif" font-size="10.00">anch::crypto::BlockCipher</text>
<text text-anchor="start" x="715.88" y="-327.5" font-family="Helvetica,sans-Serif" font-size="10.00">ModeOfOperation&lt; OFB&lt; Cipher</text>
<text text-anchor="start" x="761.25" y="-315.5" font-family="Helvetica,sans-Serif" font-size="10.00"> &gt;, Cipher &gt;</text>
<text text-anchor="start" x="786" y="-299.5" font-family="Helvetica,sans-Serif" font-size="10.00"> </text>
<text text-anchor="start" x="712" y="-283.5" font-family="Helvetica,sans-Serif" font-size="10.00">+</text>
<text text-anchor="start" x="722" y="-283.5" font-family="Helvetica,sans-Serif" font-size="10.00">cipher()</text>
<text text-anchor="start" x="712" y="-267.5" font-family="Helvetica,sans-Serif" font-size="10.00">+</text>
<text text-anchor="start" x="722" y="-267.5" font-family="Helvetica,sans-Serif" font-size="10.00">decipher()</text>
<text text-anchor="start" x="712" y="-251.5" font-family="Helvetica,sans-Serif" font-size="10.00">+</text>
<text text-anchor="start" x="722" y="-251.5" font-family="Helvetica,sans-Serif" font-size="10.00">setNbThread()</text>
<text text-anchor="start" x="712.38" y="-235.5" font-family="Helvetica,sans-Serif" font-size="10.00">#</text>
<text text-anchor="start" x="722" y="-235.5" font-family="Helvetica,sans-Serif" font-size="10.00">BlockCipherModeOfOperation()</text>
<text text-anchor="start" x="712.38" y="-219.5" font-family="Helvetica,sans-Serif" font-size="10.00">#</text>
<text text-anchor="start" x="722" y="-219.5" font-family="Helvetica,sans-Serif" font-size="10.00">~BlockCipherModeOfOperation()</text>
<text text-anchor="start" x="712.38" y="-203.5" font-family="Helvetica,sans-Serif" font-size="10.00">#</text>
<text text-anchor="start" x="722" y="-203.5" font-family="Helvetica,sans-Serif" font-size="10.00">cipherBlock()</text>
<text text-anchor="start" x="712.38" y="-187.5" font-family="Helvetica,sans-Serif" font-size="10.00">#</text>
<text text-anchor="start" x="722" y="-187.5" font-family="Helvetica,sans-Serif" font-size="10.00">decipherBlock()</text>
<text text-anchor="start" x="712.38" y="-171.5" font-family="Helvetica,sans-Serif" font-size="10.00">#</text>
<text text-anchor="start" x="722" y="-171.5" font-family="Helvetica,sans-Serif" font-size="10.00">reset()</text>
<polygon fill="#666666" stroke="#666666" points="708,-311 708,-311 867,-311 867,-311 708,-311"/>
<polygon fill="#666666" stroke="#666666" points="708,-295 708,-295 867,-295 867,-295 708,-295"/>
<polygon fill="none" stroke="#666666" points="708,-165 708,-353 867,-353 867,-165 708,-165"/>
</a>
</g>
</g>
<!-- Node1&#45;&gt;Node10 -->
<g id="edge9_Node000001_Node000010" class="edge">
<title>Node1&#45;&gt;Node10</title>
<g id="a_edge9_Node000001_Node000010"><a xlink:title=" ">
<path fill="none" stroke="orange" d="M603.78,-465.11C637.54,-446.83 674.73,-423.04 703.5,-395 716.25,-382.57 727.91,-367.84 738.21,-352.75"/>
<polygon fill="orange" stroke="orange" points="602.42,-461.87 595.23,-469.65 605.7,-468.05 602.42,-461.87"/>
</a>
</g>
<text text-anchor="middle" x="784.82" y="-379.5" font-family="Helvetica,sans-Serif" font-size="10.00" fill="grey"> &lt; OFB&lt; Cipher &gt;, Cipher &gt;</text>
</g>
<!-- Node12 -->
<g id="Node000012" class="node">
<title>Node12</title>
<g id="a_Node000012"><a xlink:href="classanch_1_1crypto_1_1_block_cipher_mode_of_operation.html" target="_top" xlink:title=" ">
<polygon fill="white" stroke="none" points="1044,-353 885,-353 885,-165 1044,-165 1044,-353"/>
<text text-anchor="start" x="901.88" y="-339.5" font-family="Helvetica,sans-Serif" font-size="10.00">anch::crypto::BlockCipher</text>
<text text-anchor="start" x="901.88" y="-327.5" font-family="Helvetica,sans-Serif" font-size="10.00">ModeOfOperation&lt; PCBC&lt;</text>
<text text-anchor="start" x="901.88" y="-315.5" font-family="Helvetica,sans-Serif" font-size="10.00"> Cipher, Padding &gt;, Cipher &gt;</text>
<text text-anchor="start" x="963" y="-299.5" font-family="Helvetica,sans-Serif" font-size="10.00"> </text>
<text text-anchor="start" x="889" y="-283.5" font-family="Helvetica,sans-Serif" font-size="10.00">+</text>
<text text-anchor="start" x="899" y="-283.5" font-family="Helvetica,sans-Serif" font-size="10.00">cipher()</text>
<text text-anchor="start" x="889" y="-267.5" font-family="Helvetica,sans-Serif" font-size="10.00">+</text>
<text text-anchor="start" x="899" y="-267.5" font-family="Helvetica,sans-Serif" font-size="10.00">decipher()</text>
<text text-anchor="start" x="889" y="-251.5" font-family="Helvetica,sans-Serif" font-size="10.00">+</text>
<text text-anchor="start" x="899" y="-251.5" font-family="Helvetica,sans-Serif" font-size="10.00">setNbThread()</text>
<text text-anchor="start" x="889.38" y="-235.5" font-family="Helvetica,sans-Serif" font-size="10.00">#</text>
<text text-anchor="start" x="899" y="-235.5" font-family="Helvetica,sans-Serif" font-size="10.00">BlockCipherModeOfOperation()</text>
<text text-anchor="start" x="889.38" y="-219.5" font-family="Helvetica,sans-Serif" font-size="10.00">#</text>
<text text-anchor="start" x="899" y="-219.5" font-family="Helvetica,sans-Serif" font-size="10.00">~BlockCipherModeOfOperation()</text>
<text text-anchor="start" x="889.38" y="-203.5" font-family="Helvetica,sans-Serif" font-size="10.00">#</text>
<text text-anchor="start" x="899" y="-203.5" font-family="Helvetica,sans-Serif" font-size="10.00">cipherBlock()</text>
<text text-anchor="start" x="889.38" y="-187.5" font-family="Helvetica,sans-Serif" font-size="10.00">#</text>
<text text-anchor="start" x="899" y="-187.5" font-family="Helvetica,sans-Serif" font-size="10.00">decipherBlock()</text>
<text text-anchor="start" x="889.38" y="-171.5" font-family="Helvetica,sans-Serif" font-size="10.00">#</text>
<text text-anchor="start" x="899" y="-171.5" font-family="Helvetica,sans-Serif" font-size="10.00">reset()</text>
<polygon fill="#666666" stroke="#666666" points="885,-311 885,-311 1044,-311 1044,-311 885,-311"/>
<polygon fill="#666666" stroke="#666666" points="885,-295 885,-295 1044,-295 1044,-295 885,-295"/>
<polygon fill="none" stroke="#666666" points="885,-165 885,-353 1044,-353 1044,-165 885,-165"/>
</a>
</g>
</g>
<!-- Node1&#45;&gt;Node12 -->
<g id="edge11_Node000001_Node000012" class="edge">
<title>Node1&#45;&gt;Node12</title>
<g id="a_edge11_Node000001_Node000012"><a xlink:title=" ">
<path fill="none" stroke="orange" d="M604.85,-490.01C675.89,-474.3 774.97,-445.18 849.5,-395 866.74,-383.39 882.88,-368.52 897.31,-352.91"/>
<polygon fill="orange" stroke="orange" points="604.21,-486.57 595.18,-492.1 605.69,-493.41 604.21,-486.57"/>
</a>
</g>
<text text-anchor="start" x="875.94" y="-385.5" font-family="Helvetica,sans-Serif" font-size="10.00" fill="grey"> &lt; PCBC&lt; Cipher, Padding</text>
<text text-anchor="middle" x="935.56" y="-373.5" font-family="Helvetica,sans-Serif" font-size="10.00" fill="grey"> &gt;, Cipher &gt;</text>
</g>
<!-- Node3 -->
<g id="Node000003" class="node">
<title>Node3</title>
<g id="a_Node000003"><a xlink:href="classanch_1_1crypto_1_1_c_b_c.html" target="_top" xlink:title="Cipher&#45;block chaining implementation.">
<polygon fill="white" stroke="none" points="128,-128 31,-128 31,0 128,0 128,-128"/>
<text text-anchor="start" x="35.62" y="-114.5" font-family="Helvetica,sans-Serif" font-size="10.00">anch::crypto::CBC&lt;</text>
<text text-anchor="start" x="38.62" y="-102.5" font-family="Helvetica,sans-Serif" font-size="10.00"> Cipher, Padding &gt;</text>
<text text-anchor="start" x="78" y="-86.5" font-family="Helvetica,sans-Serif" font-size="10.00"> </text>
<text text-anchor="start" x="38" y="-70.5" font-family="Helvetica,sans-Serif" font-size="10.00">+</text>
<text text-anchor="start" x="51" y="-70.5" font-family="Helvetica,sans-Serif" font-size="10.00">CBC()</text>
<text text-anchor="start" x="38" y="-54.5" font-family="Helvetica,sans-Serif" font-size="10.00">+</text>
<text text-anchor="start" x="51" y="-54.5" font-family="Helvetica,sans-Serif" font-size="10.00">~CBC()</text>
<text text-anchor="start" x="38.38" y="-38.5" font-family="Helvetica,sans-Serif" font-size="10.00">#</text>
<text text-anchor="start" x="51" y="-38.5" font-family="Helvetica,sans-Serif" font-size="10.00">cipherBlock()</text>
<text text-anchor="start" x="38.38" y="-22.5" font-family="Helvetica,sans-Serif" font-size="10.00">#</text>
<text text-anchor="start" x="51" y="-22.5" font-family="Helvetica,sans-Serif" font-size="10.00">decipherBlock()</text>
<text text-anchor="start" x="38.38" y="-6.5" font-family="Helvetica,sans-Serif" font-size="10.00">#</text>
<text text-anchor="start" x="51" y="-6.5" font-family="Helvetica,sans-Serif" font-size="10.00">reset()</text>
<polygon fill="#666666" stroke="#666666" points="31,-98 31,-98 128,-98 128,-98 31,-98"/>
<polygon fill="#666666" stroke="#666666" points="31,-82 31,-82 128,-82 128,-82 31,-82"/>
<polygon fill="none" stroke="#666666" points="31,0 31,-128 128,-128 128,0 31,0"/>
</a>
</g>
</g>
<!-- Node2&#45;&gt;Node3 -->
<g id="edge2_Node000002_Node000003" class="edge">
<title>Node2&#45;&gt;Node3</title>
<g id="a_edge2_Node000002_Node000003"><a xlink:title=" ">
<path fill="none" stroke="#63b8ff" d="M79.5,-153.91C79.5,-145.03 79.5,-136.24 79.5,-127.84"/>
<polygon fill="none" stroke="#63b8ff" points="76,-153.66 79.5,-163.66 83,-153.66 76,-153.66"/>
</a>
</g>
</g>
<!-- Node5 -->
<g id="Node000005" class="node">
<title>Node5</title>
<g id="a_Node000005"><a xlink:href="classanch_1_1crypto_1_1_c_f_b.html" target="_top" xlink:title="Cipher feedback implementation.">
<polygon fill="white" stroke="none" points="304.5,-128 208.5,-128 208.5,0 304.5,0 304.5,-128"/>
<text text-anchor="start" x="213.38" y="-114.5" font-family="Helvetica,sans-Serif" font-size="10.00">anch::crypto::CFB&lt;</text>
<text text-anchor="start" x="236.25" y="-102.5" font-family="Helvetica,sans-Serif" font-size="10.00"> Cipher &gt;</text>
<text text-anchor="start" x="255" y="-86.5" font-family="Helvetica,sans-Serif" font-size="10.00"> </text>
<text text-anchor="start" x="215" y="-70.5" font-family="Helvetica,sans-Serif" font-size="10.00">+</text>
<text text-anchor="start" x="227.5" y="-70.5" font-family="Helvetica,sans-Serif" font-size="10.00">CFB()</text>
<text text-anchor="start" x="215" y="-54.5" font-family="Helvetica,sans-Serif" font-size="10.00">+</text>
<text text-anchor="start" x="227.5" y="-54.5" font-family="Helvetica,sans-Serif" font-size="10.00">~CFB()</text>
<text text-anchor="start" x="215.38" y="-38.5" font-family="Helvetica,sans-Serif" font-size="10.00">#</text>
<text text-anchor="start" x="227.5" y="-38.5" font-family="Helvetica,sans-Serif" font-size="10.00">cipherBlock()</text>
<text text-anchor="start" x="215.38" y="-22.5" font-family="Helvetica,sans-Serif" font-size="10.00">#</text>
<text text-anchor="start" x="227.5" y="-22.5" font-family="Helvetica,sans-Serif" font-size="10.00">decipherBlock()</text>
<text text-anchor="start" x="215.38" y="-6.5" font-family="Helvetica,sans-Serif" font-size="10.00">#</text>
<text text-anchor="start" x="227.5" y="-6.5" font-family="Helvetica,sans-Serif" font-size="10.00">reset()</text>
<polygon fill="#666666" stroke="#666666" points="208.5,-98 208.5,-98 304.5,-98 304.5,-98 208.5,-98"/>
<polygon fill="#666666" stroke="#666666" points="208.5,-82 208.5,-82 304.5,-82 304.5,-82 208.5,-82"/>
<polygon fill="none" stroke="#666666" points="208.5,0 208.5,-128 304.5,-128 304.5,0 208.5,0"/>
</a>
</g>
</g>
<!-- Node4&#45;&gt;Node5 -->
<g id="edge4_Node000004_Node000005" class="edge">
<title>Node4&#45;&gt;Node5</title>
<g id="a_edge4_Node000004_Node000005"><a xlink:title=" ">
<path fill="none" stroke="#63b8ff" d="M256.5,-153.91C256.5,-145.03 256.5,-136.24 256.5,-127.84"/>
<polygon fill="none" stroke="#63b8ff" points="253,-153.66 256.5,-163.66 260,-153.66 253,-153.66"/>
</a>
</g>
</g>
<!-- Node7 -->
<g id="Node000007" class="node">
<title>Node7</title>
<g id="a_Node000007"><a xlink:href="classanch_1_1crypto_1_1_c_t_r.html" target="_top" xlink:title="Counter implementation.">
<polygon fill="white" stroke="none" points="482,-128 385,-128 385,0 482,0 482,-128"/>
<text text-anchor="start" x="390" y="-114.5" font-family="Helvetica,sans-Serif" font-size="10.00">anch::crypto::CTR&lt;</text>
<text text-anchor="start" x="413.25" y="-102.5" font-family="Helvetica,sans-Serif" font-size="10.00"> Cipher &gt;</text>
<text text-anchor="start" x="432" y="-86.5" font-family="Helvetica,sans-Serif" font-size="10.00"> </text>
<text text-anchor="start" x="392" y="-70.5" font-family="Helvetica,sans-Serif" font-size="10.00">+</text>
<text text-anchor="start" x="405" y="-70.5" font-family="Helvetica,sans-Serif" font-size="10.00">CTR()</text>
<text text-anchor="start" x="392" y="-54.5" font-family="Helvetica,sans-Serif" font-size="10.00">+</text>
<text text-anchor="start" x="405" y="-54.5" font-family="Helvetica,sans-Serif" font-size="10.00">~CTR()</text>
<text text-anchor="start" x="392.38" y="-38.5" font-family="Helvetica,sans-Serif" font-size="10.00">#</text>
<text text-anchor="start" x="405" y="-38.5" font-family="Helvetica,sans-Serif" font-size="10.00">cipherBlock()</text>
<text text-anchor="start" x="392.38" y="-22.5" font-family="Helvetica,sans-Serif" font-size="10.00">#</text>
<text text-anchor="start" x="405" y="-22.5" font-family="Helvetica,sans-Serif" font-size="10.00">decipherBlock()</text>
<text text-anchor="start" x="392.38" y="-6.5" font-family="Helvetica,sans-Serif" font-size="10.00">#</text>
<text text-anchor="start" x="405" y="-6.5" font-family="Helvetica,sans-Serif" font-size="10.00">reset()</text>
<polygon fill="#666666" stroke="#666666" points="385,-98 385,-98 482,-98 482,-98 385,-98"/>
<polygon fill="#666666" stroke="#666666" points="385,-82 385,-82 482,-82 482,-82 385,-82"/>
<polygon fill="none" stroke="#666666" points="385,0 385,-128 482,-128 482,0 385,0"/>
</a>
</g>
</g>
<!-- Node6&#45;&gt;Node7 -->
<g id="edge6_Node000006_Node000007" class="edge">
<title>Node6&#45;&gt;Node7</title>
<g id="a_edge6_Node000006_Node000007"><a xlink:title=" ">
<path fill="none" stroke="#63b8ff" d="M433.5,-153.91C433.5,-145.03 433.5,-136.24 433.5,-127.84"/>
<polygon fill="none" stroke="#63b8ff" points="430,-153.66 433.5,-163.66 437,-153.66 430,-153.66"/>
</a>
</g>
</g>
<!-- Node9 -->
<g id="Node000009" class="node">
<title>Node9</title>
<g id="a_Node000009"><a xlink:href="classanch_1_1crypto_1_1_e_c_b.html" target="_top" xlink:title="Electronic codebook implementation.">
<polygon fill="white" stroke="none" points="659,-128 562,-128 562,0 659,0 659,-128"/>
<text text-anchor="start" x="567" y="-114.5" font-family="Helvetica,sans-Serif" font-size="10.00">anch::crypto::ECB&lt;</text>
<text text-anchor="start" x="569.62" y="-102.5" font-family="Helvetica,sans-Serif" font-size="10.00"> Cipher, Padding &gt;</text>
<text text-anchor="start" x="609" y="-86.5" font-family="Helvetica,sans-Serif" font-size="10.00"> </text>
<text text-anchor="start" x="569" y="-70.5" font-family="Helvetica,sans-Serif" font-size="10.00">+</text>
<text text-anchor="start" x="582" y="-70.5" font-family="Helvetica,sans-Serif" font-size="10.00">ECB()</text>
<text text-anchor="start" x="569" y="-54.5" font-family="Helvetica,sans-Serif" font-size="10.00">+</text>
<text text-anchor="start" x="582" y="-54.5" font-family="Helvetica,sans-Serif" font-size="10.00">~ECB()</text>
<text text-anchor="start" x="569.38" y="-38.5" font-family="Helvetica,sans-Serif" font-size="10.00">#</text>
<text text-anchor="start" x="582" y="-38.5" font-family="Helvetica,sans-Serif" font-size="10.00">cipherBlock()</text>
<text text-anchor="start" x="569.38" y="-22.5" font-family="Helvetica,sans-Serif" font-size="10.00">#</text>
<text text-anchor="start" x="582" y="-22.5" font-family="Helvetica,sans-Serif" font-size="10.00">decipherBlock()</text>
<text text-anchor="start" x="569.38" y="-6.5" font-family="Helvetica,sans-Serif" font-size="10.00">#</text>
<text text-anchor="start" x="582" y="-6.5" font-family="Helvetica,sans-Serif" font-size="10.00">reset()</text>
<polygon fill="#666666" stroke="#666666" points="562,-98 562,-98 659,-98 659,-98 562,-98"/>
<polygon fill="#666666" stroke="#666666" points="562,-82 562,-82 659,-82 659,-82 562,-82"/>
<polygon fill="none" stroke="#666666" points="562,0 562,-128 659,-128 659,0 562,0"/>
</a>
</g>
</g>
<!-- Node8&#45;&gt;Node9 -->
<g id="edge8_Node000008_Node000009" class="edge">
<title>Node8&#45;&gt;Node9</title>
<g id="a_edge8_Node000008_Node000009"><a xlink:title=" ">
<path fill="none" stroke="#63b8ff" d="M610.5,-153.91C610.5,-145.03 610.5,-136.24 610.5,-127.84"/>
<polygon fill="none" stroke="#63b8ff" points="607,-153.66 610.5,-163.66 614,-153.66 607,-153.66"/>
</a>
</g>
</g>
<!-- Node11 -->
<g id="Node000011" class="node">
<title>Node11</title>
<g id="a_Node000011"><a xlink:href="classanch_1_1crypto_1_1_o_f_b.html" target="_top" xlink:title="Output feedback implementation.">
<polygon fill="white" stroke="none" points="835.5,-128 739.5,-128 739.5,0 835.5,0 835.5,-128"/>
<text text-anchor="start" x="744.38" y="-114.5" font-family="Helvetica,sans-Serif" font-size="10.00">anch::crypto::OFB&lt;</text>
<text text-anchor="start" x="767.25" y="-102.5" font-family="Helvetica,sans-Serif" font-size="10.00"> Cipher &gt;</text>
<text text-anchor="start" x="786" y="-86.5" font-family="Helvetica,sans-Serif" font-size="10.00"> </text>
<text text-anchor="start" x="746" y="-70.5" font-family="Helvetica,sans-Serif" font-size="10.00">+</text>
<text text-anchor="start" x="758.5" y="-70.5" font-family="Helvetica,sans-Serif" font-size="10.00">OFB()</text>
<text text-anchor="start" x="746" y="-54.5" font-family="Helvetica,sans-Serif" font-size="10.00">+</text>
<text text-anchor="start" x="758.5" y="-54.5" font-family="Helvetica,sans-Serif" font-size="10.00">~OFB()</text>
<text text-anchor="start" x="746.38" y="-38.5" font-family="Helvetica,sans-Serif" font-size="10.00">#</text>
<text text-anchor="start" x="758.5" y="-38.5" font-family="Helvetica,sans-Serif" font-size="10.00">cipherBlock()</text>
<text text-anchor="start" x="746.38" y="-22.5" font-family="Helvetica,sans-Serif" font-size="10.00">#</text>
<text text-anchor="start" x="758.5" y="-22.5" font-family="Helvetica,sans-Serif" font-size="10.00">decipherBlock()</text>
<text text-anchor="start" x="746.38" y="-6.5" font-family="Helvetica,sans-Serif" font-size="10.00">#</text>
<text text-anchor="start" x="758.5" y="-6.5" font-family="Helvetica,sans-Serif" font-size="10.00">reset()</text>
<polygon fill="#666666" stroke="#666666" points="739.5,-98 739.5,-98 835.5,-98 835.5,-98 739.5,-98"/>
<polygon fill="#666666" stroke="#666666" points="739.5,-82 739.5,-82 835.5,-82 835.5,-82 739.5,-82"/>
<polygon fill="none" stroke="#666666" points="739.5,0 739.5,-128 835.5,-128 835.5,0 739.5,0"/>
</a>
</g>
</g>
<!-- Node10&#45;&gt;Node11 -->
<g id="edge10_Node000010_Node000011" class="edge">
<title>Node10&#45;&gt;Node11</title>
<g id="a_edge10_Node000010_Node000011"><a xlink:title=" ">
<path fill="none" stroke="#63b8ff" d="M787.5,-153.91C787.5,-145.03 787.5,-136.24 787.5,-127.84"/>
<polygon fill="none" stroke="#63b8ff" points="784,-153.66 787.5,-163.66 791,-153.66 784,-153.66"/>
</a>
</g>
</g>
<!-- Node13 -->
<g id="Node000013" class="node">
<title>Node13</title>
<g id="a_Node000013"><a xlink:href="classanch_1_1crypto_1_1_p_c_b_c.html" target="_top" xlink:title="Propagating cipher&#45;block chaining implementation.">
<polygon fill="white" stroke="none" points="1013.5,-128 915.5,-128 915.5,0 1013.5,0 1013.5,-128"/>
<text text-anchor="start" x="920.25" y="-114.5" font-family="Helvetica,sans-Serif" font-size="10.00">anch::crypto::PCBC</text>
<text text-anchor="start" x="920.62" y="-102.5" font-family="Helvetica,sans-Serif" font-size="10.00">&lt; Cipher, Padding &gt;</text>
<text text-anchor="start" x="963" y="-86.5" font-family="Helvetica,sans-Serif" font-size="10.00"> </text>
<text text-anchor="start" x="922.5" y="-70.5" font-family="Helvetica,sans-Serif" font-size="10.00">+</text>
<text text-anchor="start" x="935.5" y="-70.5" font-family="Helvetica,sans-Serif" font-size="10.00">PCBC()</text>
<text text-anchor="start" x="922.5" y="-54.5" font-family="Helvetica,sans-Serif" font-size="10.00">+</text>
<text text-anchor="start" x="935.5" y="-54.5" font-family="Helvetica,sans-Serif" font-size="10.00">~PCBC()</text>
<text text-anchor="start" x="922.88" y="-38.5" font-family="Helvetica,sans-Serif" font-size="10.00">#</text>
<text text-anchor="start" x="935.5" y="-38.5" font-family="Helvetica,sans-Serif" font-size="10.00">cipherBlock()</text>
<text text-anchor="start" x="922.88" y="-22.5" font-family="Helvetica,sans-Serif" font-size="10.00">#</text>
<text text-anchor="start" x="935.5" y="-22.5" font-family="Helvetica,sans-Serif" font-size="10.00">decipherBlock()</text>
<text text-anchor="start" x="922.88" y="-6.5" font-family="Helvetica,sans-Serif" font-size="10.00">#</text>
<text text-anchor="start" x="935.5" y="-6.5" font-family="Helvetica,sans-Serif" font-size="10.00">reset()</text>
<polygon fill="#666666" stroke="#666666" points="915.5,-98 915.5,-98 1013.5,-98 1013.5,-98 915.5,-98"/>
<polygon fill="#666666" stroke="#666666" points="915.5,-82 915.5,-82 1013.5,-82 1013.5,-82 915.5,-82"/>
<polygon fill="none" stroke="#666666" points="915.5,0 915.5,-128 1013.5,-128 1013.5,0 915.5,0"/>
</a>
</g>
</g>
<!-- Node12&#45;&gt;Node13 -->
<g id="edge12_Node000012_Node000013" class="edge">
<title>Node12&#45;&gt;Node13</title>
<g id="a_edge12_Node000012_Node000013"><a xlink:title=" ">
<path fill="none" stroke="#63b8ff" d="M964.5,-153.91C964.5,-145.03 964.5,-136.24 964.5,-127.84"/>
<polygon fill="none" stroke="#63b8ff" points="961,-153.66 964.5,-163.66 968,-153.66 961,-153.66"/>
</a>
</g>
</g>
</g>
</svg>

<g id="navigator" transform="translate(0 0)" fill="#404254">
  <rect fill="#f2f5e9" fill-opacity="0.5" stroke="#606060" stroke-width=".5" x="0" y="0" width="60" height="60"/>
  <use id="zoomplus" xlink:href="#zoomPlus" x="17" y="9" onmousedown="handleZoom(evt,'in')"/>
  <use id="zoomminus" xlink:href="#zoomMin" x="42" y="9" onmousedown="handleZoom(evt,'out')"/>
  <use id="reset" xlink:href="#resetDef" x="30" y="36" onmousedown="handleReset()"/>
   <use id="arrowup" xlink:href="#arrowUp" x="0" y="0" onmousedown="handlePan(0,-1)"/>
  <use id="arrowright" xlink:href="#arrowRight" x="0" y="0" onmousedown="handlePan(1,0)"/>
  <use id="arrowdown" xlink:href="#arrowDown" x="0" y="0" onmousedown="handlePan(0,1)"/>
  <use id="arrowleft" xlink:href="#arrowLeft" x="0" y="0" onmousedown="handlePan(-1,0)"/>
</g>
<svg viewBox="0 0 15 15" width="100%" height="30px" preserveAspectRatio="xMaxYMin meet">
 <g id="arrow_out" transform="scale(0.3 0.3)">
  <a xlink:href="classanch_1_1crypto_1_1_block_cipher_mode_of_operation__inherit__graph_org.svg" target="_base">
   <rect id="button" ry="5" rx="5" y="6" x="6" height="38" width="38"
        fill="#f2f5e9" fill-opacity="0.5" stroke="#606060" stroke-width="1.0"/>
   <path id="arrow"
     d="M 11.500037,31.436501 C 11.940474,20.09759 22.043105,11.32322 32.158766,21.979434 L 37.068811,17.246167 C 37.068811,17.246167 37.088388,32 37.088388,32 L 22.160133,31.978069 C 22.160133,31.978069 26.997745,27.140456 26.997745,27.140456 C 18.528582,18.264221 13.291696,25.230495 11.500037,31.436501 z"
     style="fill:#404040;"/>
  </a>
 </g>
</svg>

<style type='text/css'>
<![CDATA[
[data-mouse-over-selected='false'] { opacity: 0.7; }
[data-mouse-over-selected='true']  { opacity: 1.0; }
]]>
</style>
<script type="application/ecmascript"><![CDATA[
document.addEventListener('DOMContentLoaded', (event) => {
  highlightEdges();
  highlightAdjacentNodes();
});
]]></script>
</svg>
