<?xml version="1.0" encoding="UTF-8" standalone="no"?>
<!DOCTYPE svg PUBLIC "-//W3C//DTD SVG 1.1//EN"
 "http://www.w3.org/Graphics/SVG/1.1/DTD/svg11.dtd">
<!-- Generated by graphviz version 14.0.5 (0)
 -->
<!-- Title: anch::sql::SqlException Pages: 1 -->
<svg width="120pt" height="196pt"
 viewBox="0.00 0.00 120.00 196.00" xmlns="http://www.w3.org/2000/svg" xmlns:xlink="http://www.w3.org/1999/xlink">
<g id="graph0" class="graph" transform="scale(1 1) rotate(0) translate(4 192)">
<title>anch::sql::SqlException</title>
<!-- Node1 -->
<g id="Node000001" class="node">
<title>Node1</title>
<g id="a_Node000001"><a xlink:title="SQL exception.">
<polygon fill="#999999" stroke="none" points="111.5,-100 0,-100 0,0 111.5,0 111.5,-100"/>
<text xml:space="preserve" text-anchor="start" x="4" y="-86.5" font-family="Helvetica,sans-Serif" font-size="10.00">anch::sql::SqlException</text>
<text xml:space="preserve" text-anchor="start" x="54.25" y="-70.5" font-family="Helvetica,sans-Serif" font-size="10.00"> </text>
<text xml:space="preserve" text-anchor="start" x="9.94" y="-54.5" font-family="Helvetica,sans-Serif" font-size="10.00">+</text>
<text xml:space="preserve" text-anchor="start" x="25.88" y="-54.5" font-family="Helvetica,sans-Serif" font-size="10.00">SqlException()</text>
<text xml:space="preserve" text-anchor="start" x="9.94" y="-38.5" font-family="Helvetica,sans-Serif" font-size="10.00">+</text>
<text xml:space="preserve" text-anchor="start" x="25.88" y="-38.5" font-family="Helvetica,sans-Serif" font-size="10.00">~SqlException()</text>
<text xml:space="preserve" text-anchor="start" x="9.94" y="-22.5" font-family="Helvetica,sans-Serif" font-size="10.00">+</text>
<text xml:space="preserve" text-anchor="start" x="25.88" y="-22.5" font-family="Helvetica,sans-Serif" font-size="10.00">what()</text>
<text xml:space="preserve" text-anchor="start" x="9.94" y="-6.5" font-family="Helvetica,sans-Serif" font-size="10.00">+</text>
<text xml:space="preserve" text-anchor="start" x="25.88" y="-6.5" font-family="Helvetica,sans-Serif" font-size="10.00">isOK()</text>
<polygon fill="#666666" stroke="#666666" points="0,-82 0,-82 111.5,-82 111.5,-82 0,-82"/>
<polygon fill="#666666" stroke="#666666" points="0,-66 0,-66 111.5,-66 111.5,-66 0,-66"/>
<polygon fill="none" stroke="#666666" points="0,0 0,-100 111.5,-100 111.5,0 0,0"/>
</a>
</g>
</g>
<!-- Node2 -->
<g id="Node000002" class="node">
<title>Node2</title>
<g id="a_Node000002"><a xlink:title=" ">
<polygon fill="white" stroke="none" points="90.5,-188 21,-188 21,-136 90.5,-136 90.5,-188"/>
<text xml:space="preserve" text-anchor="start" x="25" y="-174.5" font-family="Helvetica,sans-Serif" font-size="10.00">std::exception</text>
<text xml:space="preserve" text-anchor="start" x="54.25" y="-158.5" font-family="Helvetica,sans-Serif" font-size="10.00"> </text>
<text xml:space="preserve" text-anchor="start" x="54.25" y="-142.5" font-family="Helvetica,sans-Serif" font-size="10.00"> </text>
<polygon fill="#666666" stroke="#666666" points="21,-170 21,-170 90.5,-170 90.5,-170 21,-170"/>
<polygon fill="#666666" stroke="#666666" points="21,-154 21,-154 90.5,-154 90.5,-154 21,-154"/>
<polygon fill="none" stroke="#666666" points="21,-136 21,-188 90.5,-188 90.5,-136 21,-136"/>
</a>
</g>
</g>
<!-- Node2&#45;&gt;Node1 -->
<g id="edge1_Node000001_Node000002" class="edge">
<title>Node2&#45;&gt;Node1</title>
<g id="a_edge1_Node000001_Node000002"><a xlink:title=" ">
<path fill="none" stroke="#63b8ff" d="M55.75,-124.53C55.75,-116.58 55.75,-108.05 55.75,-99.72"/>
<polygon fill="none" stroke="#63b8ff" points="52.25,-124.53 55.75,-134.53 59.25,-124.53 52.25,-124.53"/>
</a>
</g>
</g>
</g>
</svg>
