<?xml version="1.0" encoding="UTF-8" standalone="no"?>
<!DOCTYPE svg PUBLIC "-//W3C//DTD SVG 1.1//EN"
 "http://www.w3.org/Graphics/SVG/1.1/DTD/svg11.dtd">
<!-- Generated by graphviz version 9.0.0 (0)
 -->
<!-- Title: anch::cutils::CIStream Pages: 1 -->
<svg width="129pt" height="441pt"
 viewBox="0.00 0.00 129.00 441.00" xmlns="http://www.w3.org/2000/svg" xmlns:xlink="http://www.w3.org/1999/xlink">

<svg id="main" version="1.1" xmlns="http://www.w3.org/2000/svg" xmlns:xlink="http://www.w3.org/1999/xlink" xml:space="preserve" onload="init(evt)">
<style type="text/css"><![CDATA[
.node, .edge {opacity: 0.7;}
.node.selected, .edge.selected {opacity: 1;}
.edge:hover path { stroke: red; }
.edge:hover polygon { stroke: red; fill: red; }
]]></style>
<script type="application/ecmascript" xlink:href="svg.min.js"/>
<svg id="graph" class="graph">
<g id="graph0" class="graph" transform="scale(1 1) rotate(0) translate(4 437)">
<title>anch::cutils::CIStream</title>
<!-- Node1 -->
<g id="Node000001" class="node">
<title>Node1</title>
<g id="a_Node000001"><a xlink:title=" ">
<polygon fill="#999999" stroke="none" points="118.5,-68 2.5,-68 2.5,0 118.5,0 118.5,-68"/>
<text text-anchor="start" x="7.25" y="-54.5" font-family="Helvetica,sans-Serif" font-size="10.00">anch::cutils::CIStream</text>
<text text-anchor="start" x="59" y="-38.5" font-family="Helvetica,sans-Serif" font-size="10.00"> </text>
<text text-anchor="start" x="15.38" y="-22.5" font-family="Helvetica,sans-Serif" font-size="10.00">+</text>
<text text-anchor="start" x="36.5" y="-22.5" font-family="Helvetica,sans-Serif" font-size="10.00">CIStream()</text>
<text text-anchor="start" x="15.38" y="-6.5" font-family="Helvetica,sans-Serif" font-size="10.00">+</text>
<text text-anchor="start" x="36.5" y="-6.5" font-family="Helvetica,sans-Serif" font-size="10.00">~CIStream()</text>
<polygon fill="#666666" stroke="#666666" points="2.5,-50 2.5,-50 118.5,-50 118.5,-50 2.5,-50"/>
<polygon fill="#666666" stroke="#666666" points="2.5,-34 2.5,-34 118.5,-34 118.5,-34 2.5,-34"/>
<polygon fill="none" stroke="#666666" points="2.5,0 2.5,-68 118.5,-68 118.5,0 2.5,0"/>
</a>
</g>
</g>
<!-- Node2 -->
<g id="Node000002" class="node">
<title>Node2</title>
<g id="a_Node000002"><a xlink:title=" ">
<polygon fill="white" stroke="none" points="94.5,-156 26.5,-156 26.5,-104 94.5,-104 94.5,-156"/>
<text text-anchor="start" x="31.25" y="-142.5" font-family="Helvetica,sans-Serif" font-size="10.00">std::istream</text>
<text text-anchor="start" x="59" y="-126.5" font-family="Helvetica,sans-Serif" font-size="10.00"> </text>
<text text-anchor="start" x="59" y="-110.5" font-family="Helvetica,sans-Serif" font-size="10.00"> </text>
<polygon fill="#666666" stroke="#666666" points="26.5,-138 26.5,-138 94.5,-138 94.5,-138 26.5,-138"/>
<polygon fill="#666666" stroke="#666666" points="26.5,-122 26.5,-122 94.5,-122 94.5,-122 26.5,-122"/>
<polygon fill="none" stroke="#666666" points="26.5,-104 26.5,-156 94.5,-156 94.5,-104 26.5,-104"/>
</a>
</g>
</g>
<!-- Node2&#45;&gt;Node1 -->
<g id="edge1_Node000001_Node000002" class="edge">
<title>Node2&#45;&gt;Node1</title>
<g id="a_edge1_Node000001_Node000002"><a xlink:title=" ">
<path fill="none" stroke="#63b8ff" d="M60.5,-92.97C60.5,-84.65 60.5,-75.84 60.5,-67.67"/>
<polygon fill="none" stroke="#63b8ff" points="57,-92.79 60.5,-102.79 64,-92.79 57,-92.79"/>
</a>
</g>
</g>
<!-- Node3 -->
<g id="Node000003" class="node">
<title>Node3</title>
<g id="a_Node000003"><a xlink:title=" ">
<polygon fill="white" stroke="none" points="110,-257 11,-257 11,-192 110,-192 110,-257"/>
<text text-anchor="start" x="15.88" y="-243.5" font-family="Helvetica,sans-Serif" font-size="10.00">std::basic_istream</text>
<text text-anchor="start" x="38" y="-230.75" font-family="Helvetica,sans-Serif" font-size="10.00">&lt; Char &gt;</text>
<text text-anchor="start" x="59" y="-214.5" font-family="Helvetica,sans-Serif" font-size="10.00"> </text>
<text text-anchor="start" x="59" y="-198.5" font-family="Helvetica,sans-Serif" font-size="10.00"> </text>
<polygon fill="#666666" stroke="#666666" points="11,-226 11,-226 110,-226 110,-226 11,-226"/>
<polygon fill="#666666" stroke="#666666" points="11,-210 11,-210 110,-210 110,-210 11,-210"/>
<polygon fill="none" stroke="#666666" points="11,-192 11,-257 110,-257 110,-192 11,-192"/>
</a>
</g>
</g>
<!-- Node3&#45;&gt;Node2 -->
<g id="edge2_Node000002_Node000003" class="edge">
<title>Node3&#45;&gt;Node2</title>
<g id="a_edge2_Node000002_Node000003"><a xlink:title=" ">
<path fill="none" stroke="#63b8ff" d="M60.5,-180.76C60.5,-172.23 60.5,-163.54 60.5,-155.86"/>
<polygon fill="none" stroke="#63b8ff" points="57,-180.67 60.5,-190.67 64,-180.67 57,-180.67"/>
</a>
</g>
</g>
<!-- Node4 -->
<g id="Node000004" class="node">
<title>Node4</title>
<g id="a_Node000004"><a xlink:title=" ">
<polygon fill="white" stroke="none" points="121,-345 0,-345 0,-293 121,-293 121,-345"/>
<text text-anchor="start" x="5" y="-331.5" font-family="Helvetica,sans-Serif" font-size="10.00">std::basic_ios&lt; Char &gt;</text>
<text text-anchor="start" x="59" y="-315.5" font-family="Helvetica,sans-Serif" font-size="10.00"> </text>
<text text-anchor="start" x="59" y="-299.5" font-family="Helvetica,sans-Serif" font-size="10.00"> </text>
<polygon fill="#666666" stroke="#666666" points="0,-327 0,-327 121,-327 121,-327 0,-327"/>
<polygon fill="#666666" stroke="#666666" points="0,-311 0,-311 121,-311 121,-311 0,-311"/>
<polygon fill="none" stroke="#666666" points="0,-293 0,-345 121,-345 121,-293 0,-293"/>
</a>
</g>
</g>
<!-- Node4&#45;&gt;Node3 -->
<g id="edge3_Node000003_Node000004" class="edge">
<title>Node4&#45;&gt;Node3</title>
<g id="a_edge3_Node000003_Node000004"><a xlink:title=" ">
<path fill="none" stroke="#63b8ff" d="M60.5,-281.98C60.5,-273.73 60.5,-265.03 60.5,-256.99"/>
<polygon fill="none" stroke="#63b8ff" points="57,-281.7 60.5,-291.7 64,-281.7 57,-281.7"/>
</a>
</g>
</g>
<!-- Node5 -->
<g id="Node000005" class="node">
<title>Node5</title>
<g id="a_Node000005"><a xlink:title=" ">
<polygon fill="white" stroke="none" points="97,-433 24,-433 24,-381 97,-381 97,-433"/>
<text text-anchor="start" x="28.62" y="-419.5" font-family="Helvetica,sans-Serif" font-size="10.00">std::ios_base</text>
<text text-anchor="start" x="59" y="-403.5" font-family="Helvetica,sans-Serif" font-size="10.00"> </text>
<text text-anchor="start" x="59" y="-387.5" font-family="Helvetica,sans-Serif" font-size="10.00"> </text>
<polygon fill="#666666" stroke="#666666" points="24,-415 24,-415 97,-415 97,-415 24,-415"/>
<polygon fill="#666666" stroke="#666666" points="24,-399 24,-399 97,-399 97,-399 24,-399"/>
<polygon fill="none" stroke="#666666" points="24,-381 24,-433 97,-433 97,-381 24,-381"/>
</a>
</g>
</g>
<!-- Node5&#45;&gt;Node4 -->
<g id="edge4_Node000004_Node000005" class="edge">
<title>Node5&#45;&gt;Node4</title>
<g id="a_edge4_Node000004_Node000005"><a xlink:title=" ">
<path fill="none" stroke="#63b8ff" d="M60.5,-369.66C60.5,-361.29 60.5,-352.57 60.5,-344.82"/>
<polygon fill="none" stroke="#63b8ff" points="57,-369.61 60.5,-379.61 64,-369.61 57,-369.61"/>
</a>
</g>
</g>
</g>
</svg>
</svg>

<style type='text/css'>
<![CDATA[
[data-mouse-over-selected='false'] { opacity: 0.7; }
[data-mouse-over-selected='true']  { opacity: 1.0; }
]]>
</style>
<script type="application/ecmascript"><![CDATA[
document.addEventListener('DOMContentLoaded', (event) => {
  highlightEdges();
  highlightAdjacentNodes();
});
]]></script>
</svg>
