<?xml version="1.0" encoding="UTF-8" standalone="no"?>
<!DOCTYPE svg PUBLIC "-//W3C//DTD SVG 1.1//EN"
 "http://www.w3.org/Graphics/SVG/1.1/DTD/svg11.dtd">
<!-- Generated by graphviz version 2.44.1 (0)
 -->
<!-- Title: anch::device::CPU Pages: 1 -->
<svg width="142pt" height="354pt"
 viewBox="0.00 0.00 142.00 354.00" xmlns="http://www.w3.org/2000/svg" xmlns:xlink="http://www.w3.org/1999/xlink">
<g id="graph0" class="graph" transform="scale(1 1) rotate(0) translate(4 350)">
<title>anch::device::CPU</title>
<!-- Node1 -->
<g id="node1" class="node">
<title>Node1</title>
<g id="a_node1"><a xlink:title="CPU features detection.">
<polygon fill="#bfbfbf" stroke="black" points="15,-0.5 15,-145.5 119,-145.5 119,-0.5 15,-0.5"/>
<text text-anchor="middle" x="67" y="-133.5" font-family="Helvetica,sans-Serif" font-size="10.00">anch::device::CPU</text>
<polyline fill="none" stroke="black" points="15,-126.5 119,-126.5 "/>
<text text-anchor="middle" x="67" y="-114.5" font-family="Helvetica,sans-Serif" font-size="10.00"> </text>
<polyline fill="none" stroke="black" points="15,-107.5 119,-107.5 "/>
<text text-anchor="start" x="23" y="-95.5" font-family="Helvetica,sans-Serif" font-size="10.00">+ isAES()</text>
<text text-anchor="start" x="23" y="-84.5" font-family="Helvetica,sans-Serif" font-size="10.00">+ isMMX()</text>
<text text-anchor="start" x="23" y="-73.5" font-family="Helvetica,sans-Serif" font-size="10.00">+ isSSE()</text>
<text text-anchor="start" x="23" y="-62.5" font-family="Helvetica,sans-Serif" font-size="10.00">+ isSSE2()</text>
<text text-anchor="start" x="23" y="-51.5" font-family="Helvetica,sans-Serif" font-size="10.00">+ isSSE3()</text>
<text text-anchor="start" x="23" y="-40.5" font-family="Helvetica,sans-Serif" font-size="10.00">+ isSSSE3()</text>
<text text-anchor="start" x="23" y="-29.5" font-family="Helvetica,sans-Serif" font-size="10.00">+ isSSE4()</text>
<text text-anchor="start" x="23" y="-18.5" font-family="Helvetica,sans-Serif" font-size="10.00">+ isSSE4_1()</text>
<text text-anchor="start" x="23" y="-7.5" font-family="Helvetica,sans-Serif" font-size="10.00">+ isSSE4_2()</text>
</a>
</g>
</g>
<!-- Node2 -->
<g id="node2" class="node">
<title>Node2</title>
<g id="a_node2"><a xlink:href="classanch_1_1_singleton.html" target="_top" xlink:title=" ">
<polygon fill="none" stroke="black" points="0,-183.5 0,-240.5 134,-240.5 134,-183.5 0,-183.5"/>
<text text-anchor="middle" x="67" y="-228.5" font-family="Helvetica,sans-Serif" font-size="10.00">anch::Singleton&lt; CPU &gt;</text>
<polyline fill="none" stroke="black" points="0,-221.5 134,-221.5 "/>
<text text-anchor="middle" x="67" y="-209.5" font-family="Helvetica,sans-Serif" font-size="10.00"> </text>
<polyline fill="none" stroke="black" points="0,-202.5 134,-202.5 "/>
<text text-anchor="start" x="8" y="-190.5" font-family="Helvetica,sans-Serif" font-size="10.00">+ getInstance()</text>
</a>
</g>
</g>
<!-- Node2&#45;&gt;Node1 -->
<g id="edge1" class="edge">
<title>Node2&#45;&gt;Node1</title>
<path fill="none" stroke="midnightblue" d="M67,-173.21C67,-164.58 67,-155.14 67,-145.61"/>
<polygon fill="none" stroke="midnightblue" points="63.5,-173.28 67,-183.28 70.5,-173.28 63.5,-173.28"/>
</g>
<!-- Node3 -->
<g id="node3" class="node">
<title>Node3</title>
<g id="a_node3"><a xlink:href="classanch_1_1_singleton.html" target="_top" xlink:title="Meyers&#39; singleton implemtation.">
<polygon fill="none" stroke="black" points="7,-288.5 7,-345.5 127,-345.5 127,-288.5 7,-288.5"/>
<text text-anchor="middle" x="67" y="-333.5" font-family="Helvetica,sans-Serif" font-size="10.00">anch::Singleton&lt; T &gt;</text>
<polyline fill="none" stroke="black" points="7,-326.5 127,-326.5 "/>
<text text-anchor="middle" x="67" y="-314.5" font-family="Helvetica,sans-Serif" font-size="10.00"> </text>
<polyline fill="none" stroke="black" points="7,-307.5 127,-307.5 "/>
<text text-anchor="start" x="15" y="-295.5" font-family="Helvetica,sans-Serif" font-size="10.00">+ getInstance()</text>
</a>
</g>
</g>
<!-- Node3&#45;&gt;Node2 -->
<g id="edge2" class="edge">
<title>Node3&#45;&gt;Node2</title>
<path fill="none" stroke="orange" d="M67,-278.29C67,-265.84 67,-252.23 67,-240.68"/>
<polygon fill="orange" stroke="orange" points="63.5,-278.4 67,-288.4 70.5,-278.4 63.5,-278.4"/>
<text text-anchor="middle" x="90" y="-262" font-family="Helvetica,sans-Serif" font-size="10.00"> &lt; CPU &gt;</text>
</g>
</g>
</svg>
