<?xml version="1.0" encoding="UTF-8" standalone="no"?>
<!DOCTYPE svg PUBLIC "-//W3C//DTD SVG 1.1//EN"
 "http://www.w3.org/Graphics/SVG/1.1/DTD/svg11.dtd">
<!-- Generated by graphviz version 14.0.5 (0)
 -->
<!-- Title: anch::cutils::COStream Pages: 1 -->
<svg width="119pt" height="472pt"
 viewBox="0.00 0.00 119.00 472.00" xmlns="http://www.w3.org/2000/svg" xmlns:xlink="http://www.w3.org/1999/xlink">
<g id="graph0" class="graph" transform="scale(1 1) rotate(0) translate(4 468)">
<title>anch::cutils::COStream</title>
<!-- Node1 -->
<g id="Node000001" class="node">
<title>Node1</title>
<g id="a_Node000001"><a xlink:title=" ">
<polygon fill="#999999" stroke="none" points="110.75,-100 0,-100 0,0 110.75,0 110.75,-100"/>
<text xml:space="preserve" text-anchor="start" x="4" y="-86.5" font-family="Helvetica,sans-Serif" font-size="10.00">anch::cutils::COStream</text>
<text xml:space="preserve" text-anchor="start" x="53.88" y="-70.5" font-family="Helvetica,sans-Serif" font-size="10.00"> </text>
<text xml:space="preserve" text-anchor="start" x="12.56" y="-54.5" font-family="Helvetica,sans-Serif" font-size="10.00">+</text>
<text xml:space="preserve" text-anchor="start" x="31.12" y="-54.5" font-family="Helvetica,sans-Serif" font-size="10.00">COStream()</text>
<text xml:space="preserve" text-anchor="start" x="12.56" y="-38.5" font-family="Helvetica,sans-Serif" font-size="10.00">+</text>
<text xml:space="preserve" text-anchor="start" x="31.12" y="-38.5" font-family="Helvetica,sans-Serif" font-size="10.00">~COStream()</text>
<text xml:space="preserve" text-anchor="start" x="12.94" y="-22.5" font-family="Helvetica,sans-Serif" font-size="10.00">#</text>
<text xml:space="preserve" text-anchor="start" x="31.12" y="-22.5" font-family="Helvetica,sans-Serif" font-size="10.00">COStream()</text>
<text xml:space="preserve" text-anchor="start" x="12.94" y="-6.5" font-family="Helvetica,sans-Serif" font-size="10.00">#</text>
<text xml:space="preserve" text-anchor="start" x="31.12" y="-6.5" font-family="Helvetica,sans-Serif" font-size="10.00">setBuffer()</text>
<polygon fill="#666666" stroke="#666666" points="0,-82 0,-82 110.75,-82 110.75,-82 0,-82"/>
<polygon fill="#666666" stroke="#666666" points="0,-66 0,-66 110.75,-66 110.75,-66 0,-66"/>
<polygon fill="none" stroke="#666666" points="0,0 0,-100 110.75,-100 110.75,0 0,0"/>
</a>
</g>
</g>
<!-- Node2 -->
<g id="Node000002" class="node">
<title>Node2</title>
<g id="a_Node000002"><a xlink:title=" ">
<polygon fill="white" stroke="none" points="86.75,-188 24,-188 24,-136 86.75,-136 86.75,-188"/>
<text xml:space="preserve" text-anchor="start" x="28" y="-174.5" font-family="Helvetica,sans-Serif" font-size="10.00">std::ostream</text>
<text xml:space="preserve" text-anchor="start" x="53.88" y="-158.5" font-family="Helvetica,sans-Serif" font-size="10.00"> </text>
<text xml:space="preserve" text-anchor="start" x="53.88" y="-142.5" font-family="Helvetica,sans-Serif" font-size="10.00"> </text>
<polygon fill="#666666" stroke="#666666" points="24,-170 24,-170 86.75,-170 86.75,-170 24,-170"/>
<polygon fill="#666666" stroke="#666666" points="24,-154 24,-154 86.75,-154 86.75,-154 24,-154"/>
<polygon fill="none" stroke="#666666" points="24,-136 24,-188 86.75,-188 86.75,-136 24,-136"/>
</a>
</g>
</g>
<!-- Node2&#45;&gt;Node1 -->
<g id="edge1_Node000001_Node000002" class="edge">
<title>Node2&#45;&gt;Node1</title>
<g id="a_edge1_Node000001_Node000002"><a xlink:title=" ">
<path fill="none" stroke="#63b8ff" d="M55.38,-124.53C55.38,-116.58 55.38,-108.05 55.38,-99.72"/>
<polygon fill="none" stroke="#63b8ff" points="51.88,-124.53 55.38,-134.53 58.88,-124.53 51.88,-124.53"/>
</a>
</g>
</g>
<!-- Node3 -->
<g id="Node000003" class="node">
<title>Node3</title>
<g id="a_Node000003"><a xlink:title=" ">
<polygon fill="white" stroke="none" points="101,-288 9.75,-288 9.75,-224 101,-224 101,-288"/>
<text xml:space="preserve" text-anchor="start" x="13.75" y="-274.5" font-family="Helvetica,sans-Serif" font-size="10.00">std::basic_ostream</text>
<text xml:space="preserve" text-anchor="start" x="35.88" y="-262.5" font-family="Helvetica,sans-Serif" font-size="10.00">&lt; Char &gt;</text>
<text xml:space="preserve" text-anchor="start" x="53.88" y="-246.5" font-family="Helvetica,sans-Serif" font-size="10.00"> </text>
<text xml:space="preserve" text-anchor="start" x="53.88" y="-230.5" font-family="Helvetica,sans-Serif" font-size="10.00"> </text>
<polygon fill="#666666" stroke="#666666" points="9.75,-258 9.75,-258 101,-258 101,-258 9.75,-258"/>
<polygon fill="#666666" stroke="#666666" points="9.75,-242 9.75,-242 101,-242 101,-242 9.75,-242"/>
<polygon fill="none" stroke="#666666" points="9.75,-224 9.75,-288 101,-288 101,-224 9.75,-224"/>
</a>
</g>
</g>
<!-- Node3&#45;&gt;Node2 -->
<g id="edge2_Node000002_Node000003" class="edge">
<title>Node3&#45;&gt;Node2</title>
<g id="a_edge2_Node000002_Node000003"><a xlink:title=" ">
<path fill="none" stroke="#63b8ff" d="M55.38,-212.72C55.38,-204.21 55.38,-195.53 55.38,-187.86"/>
<polygon fill="none" stroke="#63b8ff" points="51.88,-212.6 55.38,-222.6 58.88,-212.6 51.88,-212.6"/>
</a>
</g>
</g>
<!-- Node4 -->
<g id="Node000004" class="node">
<title>Node4</title>
<g id="a_Node000004"><a xlink:title=" ">
<polygon fill="white" stroke="none" points="109.25,-376 1.5,-376 1.5,-324 109.25,-324 109.25,-376"/>
<text xml:space="preserve" text-anchor="start" x="5.5" y="-362.5" font-family="Helvetica,sans-Serif" font-size="10.00">std::basic_ios&lt; Char &gt;</text>
<text xml:space="preserve" text-anchor="start" x="53.88" y="-346.5" font-family="Helvetica,sans-Serif" font-size="10.00"> </text>
<text xml:space="preserve" text-anchor="start" x="53.88" y="-330.5" font-family="Helvetica,sans-Serif" font-size="10.00"> </text>
<polygon fill="#666666" stroke="#666666" points="1.5,-358 1.5,-358 109.25,-358 109.25,-358 1.5,-358"/>
<polygon fill="#666666" stroke="#666666" points="1.5,-342 1.5,-342 109.25,-342 109.25,-342 1.5,-342"/>
<polygon fill="none" stroke="#666666" points="1.5,-324 1.5,-376 109.25,-376 109.25,-324 1.5,-324"/>
</a>
</g>
</g>
<!-- Node4&#45;&gt;Node3 -->
<g id="edge3_Node000003_Node000004" class="edge">
<title>Node4&#45;&gt;Node3</title>
<g id="a_edge3_Node000003_Node000004"><a xlink:title=" ">
<path fill="none" stroke="#63b8ff" d="M55.38,-313.06C55.38,-304.78 55.38,-296.04 55.38,-287.98"/>
<polygon fill="none" stroke="#63b8ff" points="51.88,-312.83 55.38,-322.83 58.88,-312.83 51.88,-312.83"/>
</a>
</g>
</g>
<!-- Node5 -->
<g id="Node000005" class="node">
<title>Node5</title>
<g id="a_Node000005"><a xlink:title=" ">
<polygon fill="white" stroke="none" points="88.62,-464 22.12,-464 22.12,-412 88.62,-412 88.62,-464"/>
<text xml:space="preserve" text-anchor="start" x="26.12" y="-450.5" font-family="Helvetica,sans-Serif" font-size="10.00">std::ios_base</text>
<text xml:space="preserve" text-anchor="start" x="53.88" y="-434.5" font-family="Helvetica,sans-Serif" font-size="10.00"> </text>
<text xml:space="preserve" text-anchor="start" x="53.88" y="-418.5" font-family="Helvetica,sans-Serif" font-size="10.00"> </text>
<polygon fill="#666666" stroke="#666666" points="22.12,-446 22.12,-446 88.62,-446 88.62,-446 22.12,-446"/>
<polygon fill="#666666" stroke="#666666" points="22.12,-430 22.12,-430 88.62,-430 88.62,-430 22.12,-430"/>
<polygon fill="none" stroke="#666666" points="22.12,-412 22.12,-464 88.62,-464 88.62,-412 22.12,-412"/>
</a>
</g>
</g>
<!-- Node5&#45;&gt;Node4 -->
<g id="edge4_Node000004_Node000005" class="edge">
<title>Node5&#45;&gt;Node4</title>
<g id="a_edge4_Node000004_Node000005"><a xlink:title=" ">
<path fill="none" stroke="#63b8ff" d="M55.38,-400.66C55.38,-392.29 55.38,-383.57 55.38,-375.82"/>
<polygon fill="none" stroke="#63b8ff" points="51.88,-400.61 55.38,-410.61 58.88,-400.61 51.88,-400.61"/>
</a>
</g>
</g>
</g>
</svg>
