<?xml version="1.0" encoding="UTF-8" standalone="no"?>
<!DOCTYPE svg PUBLIC "-//W3C//DTD SVG 1.1//EN"
 "http://www.w3.org/Graphics/SVG/1.1/DTD/svg11.dtd">
<!-- Generated by graphviz version 12.1.2 (0)
 -->
<!-- Title: anch::sql::Timestamp Pages: 1 -->
<svg width="112pt" height="649pt"
 viewBox="0.00 0.00 112.00 649.00" xmlns="http://www.w3.org/2000/svg" xmlns:xlink="http://www.w3.org/1999/xlink">
<g id="graph0" class="graph" transform="scale(1 1) rotate(0) translate(4 645)">
<title>anch::sql::Timestamp</title>
<!-- Node1 -->
<g id="Node000001" class="node">
<title>Node1</title>
<g id="a_Node000001"><a xlink:title="SQL timestamp type.">
<polygon fill="#999999" stroke="none" points="104,-116 0,-116 0,0 104,0 104,-116"/>
<text text-anchor="start" x="4.75" y="-102.5" font-family="Helvetica,sans-Serif" font-size="10.00">anch::sql::Timestamp</text>
<text text-anchor="start" x="50.5" y="-86.5" font-family="Helvetica,sans-Serif" font-size="10.00"> </text>
<text text-anchor="start" x="10.5" y="-70.5" font-family="Helvetica,sans-Serif" font-size="10.00">+</text>
<text text-anchor="start" x="27" y="-70.5" font-family="Helvetica,sans-Serif" font-size="10.00">Timestamp()</text>
<text text-anchor="start" x="10.5" y="-54.5" font-family="Helvetica,sans-Serif" font-size="10.00">+</text>
<text text-anchor="start" x="27" y="-54.5" font-family="Helvetica,sans-Serif" font-size="10.00">Timestamp()</text>
<text text-anchor="start" x="10.5" y="-38.5" font-family="Helvetica,sans-Serif" font-size="10.00">+</text>
<text text-anchor="start" x="27" y="-38.5" font-family="Helvetica,sans-Serif" font-size="10.00">Timestamp()</text>
<text text-anchor="start" x="10.5" y="-22.5" font-family="Helvetica,sans-Serif" font-size="10.00">+</text>
<text text-anchor="start" x="27" y="-22.5" font-family="Helvetica,sans-Serif" font-size="10.00">Timestamp()</text>
<text text-anchor="start" x="10.5" y="-6.5" font-family="Helvetica,sans-Serif" font-size="10.00">+</text>
<text text-anchor="start" x="27" y="-6.5" font-family="Helvetica,sans-Serif" font-size="10.00">~Timestamp()</text>
<polygon fill="#666666" stroke="#666666" points="0,-98 0,-98 104,-98 104,-98 0,-98"/>
<polygon fill="#666666" stroke="#666666" points="0,-82 0,-82 104,-82 104,-82 0,-82"/>
<polygon fill="none" stroke="#666666" points="0,0 0,-116 104,-116 104,0 0,0"/>
</a>
</g>
</g>
<!-- Node2 -->
<g id="Node000002" class="node">
<title>Node2</title>
<g id="a_Node000002"><a xlink:href="classanch_1_1date_1_1_date.html" target="_top" xlink:title=" ">
<polygon fill="white" stroke="none" points="94,-541 10,-541 10,-153 94,-153 94,-541"/>
<text text-anchor="start" x="15.62" y="-527.5" font-family="Helvetica,sans-Serif" font-size="10.00">anch::date::Date</text>
<text text-anchor="start" x="14.38" y="-511.5" font-family="Helvetica,sans-Serif" font-size="10.00">#</text>
<text text-anchor="start" x="24" y="-511.5" font-family="Helvetica,sans-Serif" font-size="10.00">_timestamp</text>
<text text-anchor="start" x="14.38" y="-495.5" font-family="Helvetica,sans-Serif" font-size="10.00">#</text>
<text text-anchor="start" x="24" y="-495.5" font-family="Helvetica,sans-Serif" font-size="10.00">_years</text>
<text text-anchor="start" x="14.38" y="-479.5" font-family="Helvetica,sans-Serif" font-size="10.00">#</text>
<text text-anchor="start" x="24" y="-479.5" font-family="Helvetica,sans-Serif" font-size="10.00">_months</text>
<text text-anchor="start" x="14.38" y="-463.5" font-family="Helvetica,sans-Serif" font-size="10.00">#</text>
<text text-anchor="start" x="24" y="-463.5" font-family="Helvetica,sans-Serif" font-size="10.00">_ydays</text>
<text text-anchor="start" x="14.38" y="-447.5" font-family="Helvetica,sans-Serif" font-size="10.00">#</text>
<text text-anchor="start" x="24" y="-447.5" font-family="Helvetica,sans-Serif" font-size="10.00">_mdays</text>
<text text-anchor="start" x="14.38" y="-431.5" font-family="Helvetica,sans-Serif" font-size="10.00">#</text>
<text text-anchor="start" x="24" y="-431.5" font-family="Helvetica,sans-Serif" font-size="10.00">_wdays</text>
<text text-anchor="start" x="14.38" y="-415.5" font-family="Helvetica,sans-Serif" font-size="10.00">#</text>
<text text-anchor="start" x="24" y="-415.5" font-family="Helvetica,sans-Serif" font-size="10.00">_hours</text>
<text text-anchor="start" x="14.38" y="-399.5" font-family="Helvetica,sans-Serif" font-size="10.00">#</text>
<text text-anchor="start" x="24" y="-399.5" font-family="Helvetica,sans-Serif" font-size="10.00">_minutes</text>
<text text-anchor="start" x="14.38" y="-383.5" font-family="Helvetica,sans-Serif" font-size="10.00">#</text>
<text text-anchor="start" x="24" y="-383.5" font-family="Helvetica,sans-Serif" font-size="10.00">_seconds</text>
<text text-anchor="start" x="14.38" y="-367.5" font-family="Helvetica,sans-Serif" font-size="10.00">#</text>
<text text-anchor="start" x="24" y="-367.5" font-family="Helvetica,sans-Serif" font-size="10.00">_milliseconds</text>
<text text-anchor="start" x="14.38" y="-351.5" font-family="Helvetica,sans-Serif" font-size="10.00">#</text>
<text text-anchor="start" x="24" y="-351.5" font-family="Helvetica,sans-Serif" font-size="10.00">_microseconds</text>
<text text-anchor="start" x="14.38" y="-335.5" font-family="Helvetica,sans-Serif" font-size="10.00">#</text>
<text text-anchor="start" x="24" y="-335.5" font-family="Helvetica,sans-Serif" font-size="10.00">_nanoseconds</text>
<text text-anchor="start" x="14" y="-319.5" font-family="Helvetica,sans-Serif" font-size="10.00">+</text>
<text text-anchor="start" x="24" y="-319.5" font-family="Helvetica,sans-Serif" font-size="10.00">Date()</text>
<text text-anchor="start" x="14" y="-303.5" font-family="Helvetica,sans-Serif" font-size="10.00">+</text>
<text text-anchor="start" x="24" y="-303.5" font-family="Helvetica,sans-Serif" font-size="10.00">Date()</text>
<text text-anchor="start" x="14" y="-287.5" font-family="Helvetica,sans-Serif" font-size="10.00">+</text>
<text text-anchor="start" x="24" y="-287.5" font-family="Helvetica,sans-Serif" font-size="10.00">Date()</text>
<text text-anchor="start" x="14" y="-271.5" font-family="Helvetica,sans-Serif" font-size="10.00">+</text>
<text text-anchor="start" x="24" y="-271.5" font-family="Helvetica,sans-Serif" font-size="10.00">Date()</text>
<text text-anchor="start" x="14" y="-255.5" font-family="Helvetica,sans-Serif" font-size="10.00">+</text>
<text text-anchor="start" x="24" y="-255.5" font-family="Helvetica,sans-Serif" font-size="10.00">~Date()</text>
<text text-anchor="start" x="14" y="-239.5" font-family="Helvetica,sans-Serif" font-size="10.00">+</text>
<text text-anchor="start" x="24" y="-239.5" font-family="Helvetica,sans-Serif" font-size="10.00">after()</text>
<text text-anchor="start" x="14" y="-223.5" font-family="Helvetica,sans-Serif" font-size="10.00">+</text>
<text text-anchor="start" x="24" y="-223.5" font-family="Helvetica,sans-Serif" font-size="10.00">before()</text>
<text text-anchor="start" x="14" y="-207.5" font-family="Helvetica,sans-Serif" font-size="10.00">+</text>
<text text-anchor="start" x="24" y="-207.5" font-family="Helvetica,sans-Serif" font-size="10.00">equals()</text>
<text text-anchor="start" x="14" y="-191.5" font-family="Helvetica,sans-Serif" font-size="10.00">+</text>
<text text-anchor="start" x="24" y="-191.5" font-family="Helvetica,sans-Serif" font-size="10.00">operator&gt;()</text>
<text text-anchor="start" x="14" y="-175.5" font-family="Helvetica,sans-Serif" font-size="10.00">+</text>
<text text-anchor="start" x="24" y="-175.5" font-family="Helvetica,sans-Serif" font-size="10.00">operator&gt;=()</text>
<text text-anchor="start" x="24" y="-159.5" font-family="Helvetica,sans-Serif" font-size="10.00">and 7 more...</text>
<polygon fill="#666666" stroke="#666666" points="10,-523 10,-523 94,-523 94,-523 10,-523"/>
<polygon fill="#666666" stroke="#666666" points="10,-331 10,-331 22,-331 22,-331 10,-331"/>
<polygon fill="#666666" stroke="#666666" points="22,-331 22,-331 94,-331 94,-331 22,-331"/>
<polygon fill="none" stroke="#666666" points="10,-153 10,-541 94,-541 94,-153 10,-153"/>
</a>
</g>
</g>
<!-- Node2&#45;&gt;Node1 -->
<g id="edge1_Node000001_Node000002" class="edge">
<title>Node2&#45;&gt;Node1</title>
<g id="a_edge1_Node000001_Node000002"><a xlink:title=" ">
<path fill="none" stroke="#63b8ff" d="M52,-141.99C52,-132.81 52,-124.03 52,-115.86"/>
<polygon fill="none" stroke="#63b8ff" points="48.5,-141.86 52,-151.86 55.5,-141.86 48.5,-141.86"/>
</a>
</g>
</g>
<!-- Node3 -->
<g id="Node000003" class="node">
<title>Node3</title>
<g id="a_Node000003"><a xlink:title=" ">
<polygon fill="white" stroke="none" points="80,-641 24,-641 24,-589 80,-589 80,-641"/>
<text text-anchor="start" x="28.75" y="-627.5" font-family="Helvetica,sans-Serif" font-size="10.00">std::mutex</text>
<text text-anchor="start" x="50.5" y="-611.5" font-family="Helvetica,sans-Serif" font-size="10.00"> </text>
<text text-anchor="start" x="50.5" y="-595.5" font-family="Helvetica,sans-Serif" font-size="10.00"> </text>
<polygon fill="#666666" stroke="#666666" points="24,-623 24,-623 80,-623 80,-623 24,-623"/>
<polygon fill="#666666" stroke="#666666" points="24,-607 24,-607 80,-607 80,-607 24,-607"/>
<polygon fill="none" stroke="#666666" points="24,-589 24,-641 80,-641 80,-589 24,-589"/>
</a>
</g>
</g>
<!-- Node3&#45;&gt;Node2 -->
<g id="edge2_Node000002_Node000003" class="edge">
<title>Node3&#45;&gt;Node2</title>
<g id="a_edge2_Node000002_Node000003"><a xlink:title=" ">
<path fill="none" stroke="#63b8ff" d="M52,-589.45C52,-579.65 52,-567.43 52,-553.71"/>
<polygon fill="none" stroke="#63b8ff" points="52,-553.62 48,-547.62 52,-541.62 56,-547.62 52,-553.62"/>
</a>
</g>
<text text-anchor="middle" x="72.25" y="-561.5" font-family="Helvetica,sans-Serif" font-size="10.00" fill="grey"> #_mutex</text>
</g>
</g>
</svg>
