<?xml version="1.0" encoding="UTF-8" standalone="no"?>
<!DOCTYPE svg PUBLIC "-//W3C//DTD SVG 1.1//EN"
 "http://www.w3.org/Graphics/SVG/1.1/DTD/svg11.dtd">
<!-- Generated by graphviz version 13.1.2 (0)
 -->
<!-- Title: anch::sql::MySQLResultSet Pages: 1 -->
<svg width="220pt" height="843pt"
 viewBox="0.00 0.00 220.00 843.00" xmlns="http://www.w3.org/2000/svg" xmlns:xlink="http://www.w3.org/1999/xlink">
<g id="graph0" class="graph" transform="scale(1 1) rotate(0) translate(4 839)">
<title>anch::sql::MySQLResultSet</title>
<!-- Node1 -->
<g id="Node000001" class="node">
<title>Node1</title>
<g id="a_Node000001"><a xlink:title="MySQL result set implementation.">
<polygon fill="#999999" stroke="none" points="150.12,-164 19.88,-164 19.88,0 150.12,0 150.12,-164"/>
<text xml:space="preserve" text-anchor="start" x="23.88" y="-150.5" font-family="Helvetica,sans-Serif" font-size="10.00">anch::sql::MySQLResultSet</text>
<text xml:space="preserve" text-anchor="start" x="83.5" y="-134.5" font-family="Helvetica,sans-Serif" font-size="10.00"> </text>
<text xml:space="preserve" text-anchor="start" x="24.38" y="-118.5" font-family="Helvetica,sans-Serif" font-size="10.00">+</text>
<text xml:space="preserve" text-anchor="start" x="34.88" y="-118.5" font-family="Helvetica,sans-Serif" font-size="10.00">MySQLResultSet()</text>
<text xml:space="preserve" text-anchor="start" x="24.38" y="-102.5" font-family="Helvetica,sans-Serif" font-size="10.00">+</text>
<text xml:space="preserve" text-anchor="start" x="34.88" y="-102.5" font-family="Helvetica,sans-Serif" font-size="10.00">~MySQLResultSet()</text>
<text xml:space="preserve" text-anchor="start" x="24.38" y="-86.5" font-family="Helvetica,sans-Serif" font-size="10.00">+</text>
<text xml:space="preserve" text-anchor="start" x="34.88" y="-86.5" font-family="Helvetica,sans-Serif" font-size="10.00">next()</text>
<text xml:space="preserve" text-anchor="start" x="24.75" y="-70.5" font-family="Helvetica,sans-Serif" font-size="10.00">#</text>
<text xml:space="preserve" text-anchor="start" x="34.88" y="-70.5" font-family="Helvetica,sans-Serif" font-size="10.00">getValue()</text>
<text xml:space="preserve" text-anchor="start" x="24.75" y="-54.5" font-family="Helvetica,sans-Serif" font-size="10.00">#</text>
<text xml:space="preserve" text-anchor="start" x="34.88" y="-54.5" font-family="Helvetica,sans-Serif" font-size="10.00">getValue()</text>
<text xml:space="preserve" text-anchor="start" x="24.75" y="-38.5" font-family="Helvetica,sans-Serif" font-size="10.00">#</text>
<text xml:space="preserve" text-anchor="start" x="34.88" y="-38.5" font-family="Helvetica,sans-Serif" font-size="10.00">getDateFormatter()</text>
<text xml:space="preserve" text-anchor="start" x="24.75" y="-22.5" font-family="Helvetica,sans-Serif" font-size="10.00">#</text>
<text xml:space="preserve" text-anchor="start" x="34.88" y="-22.5" font-family="Helvetica,sans-Serif" font-size="10.00">getTimeFormatter()</text>
<text xml:space="preserve" text-anchor="start" x="24.75" y="-6.5" font-family="Helvetica,sans-Serif" font-size="10.00">#</text>
<text xml:space="preserve" text-anchor="start" x="34.88" y="-6.5" font-family="Helvetica,sans-Serif" font-size="10.00">getTimestampFormatter()</text>
<polygon fill="#666666" stroke="#666666" points="19.88,-146 19.88,-146 150.12,-146 150.12,-146 19.88,-146"/>
<polygon fill="#666666" stroke="#666666" points="19.88,-130 19.88,-130 150.12,-130 150.12,-130 19.88,-130"/>
<polygon fill="none" stroke="#666666" points="19.88,0 19.88,-164 150.12,-164 150.12,0 19.88,0"/>
</a>
</g>
</g>
<!-- Node2 -->
<g id="Node000002" class="node">
<title>Node2</title>
<g id="a_Node000002"><a xlink:href="classanch_1_1sql_1_1_result_set.html" target="_top" xlink:title="SQL result representation.">
<polygon fill="white" stroke="none" points="164.88,-477 5.12,-477 5.12,-201 164.88,-201 164.88,-477"/>
<text xml:space="preserve" text-anchor="start" x="40.38" y="-463.5" font-family="Helvetica,sans-Serif" font-size="10.00">anch::sql::ResultSet</text>
<text xml:space="preserve" text-anchor="start" x="83.5" y="-447.5" font-family="Helvetica,sans-Serif" font-size="10.00"> </text>
<text xml:space="preserve" text-anchor="start" x="9.12" y="-431.5" font-family="Helvetica,sans-Serif" font-size="10.00">+</text>
<text xml:space="preserve" text-anchor="start" x="19.12" y="-431.5" font-family="Helvetica,sans-Serif" font-size="10.00">ResultSet()</text>
<text xml:space="preserve" text-anchor="start" x="9.12" y="-415.5" font-family="Helvetica,sans-Serif" font-size="10.00">+</text>
<text xml:space="preserve" text-anchor="start" x="19.12" y="-415.5" font-family="Helvetica,sans-Serif" font-size="10.00">~ResultSet()</text>
<text xml:space="preserve" text-anchor="start" x="9.12" y="-399.5" font-family="Helvetica,sans-Serif" font-size="10.00">+</text>
<text xml:space="preserve" text-anchor="start" x="19.12" y="-399.5" font-family="Helvetica,sans-Serif" font-size="10.00">get()</text>
<text xml:space="preserve" text-anchor="start" x="9.12" y="-383.5" font-family="Helvetica,sans-Serif" font-size="10.00">+</text>
<text xml:space="preserve" text-anchor="start" x="19.12" y="-383.5" font-family="Helvetica,sans-Serif" font-size="10.00">get()</text>
<text xml:space="preserve" text-anchor="start" x="9.12" y="-367.5" font-family="Helvetica,sans-Serif" font-size="10.00">+</text>
<text xml:space="preserve" text-anchor="start" x="19.12" y="-367.5" font-family="Helvetica,sans-Serif" font-size="10.00">get()</text>
<text xml:space="preserve" text-anchor="start" x="9.12" y="-351.5" font-family="Helvetica,sans-Serif" font-size="10.00">+</text>
<text xml:space="preserve" text-anchor="start" x="19.12" y="-351.5" font-family="Helvetica,sans-Serif" font-size="10.00">get()</text>
<text xml:space="preserve" text-anchor="start" x="9.12" y="-335.5" font-family="Helvetica,sans-Serif" font-size="10.00">+</text>
<text xml:space="preserve" text-anchor="start" x="19.12" y="-335.5" font-family="Helvetica,sans-Serif" font-size="10.00">next()</text>
<text xml:space="preserve" text-anchor="start" x="9.5" y="-319.5" font-family="Helvetica,sans-Serif" font-size="10.00">#</text>
<text xml:space="preserve" text-anchor="start" x="19.12" y="-319.5" font-family="Helvetica,sans-Serif" font-size="10.00">getValue()</text>
<text xml:space="preserve" text-anchor="start" x="9.5" y="-303.5" font-family="Helvetica,sans-Serif" font-size="10.00">#</text>
<text xml:space="preserve" text-anchor="start" x="19.12" y="-303.5" font-family="Helvetica,sans-Serif" font-size="10.00">getValue()</text>
<text xml:space="preserve" text-anchor="start" x="9.5" y="-287.5" font-family="Helvetica,sans-Serif" font-size="10.00">#</text>
<text xml:space="preserve" text-anchor="start" x="19.12" y="-287.5" font-family="Helvetica,sans-Serif" font-size="10.00">getDateFormatter()</text>
<text xml:space="preserve" text-anchor="start" x="9.5" y="-271.5" font-family="Helvetica,sans-Serif" font-size="10.00">#</text>
<text xml:space="preserve" text-anchor="start" x="19.12" y="-271.5" font-family="Helvetica,sans-Serif" font-size="10.00">getTimeFormatter()</text>
<text xml:space="preserve" text-anchor="start" x="9.5" y="-255.5" font-family="Helvetica,sans-Serif" font-size="10.00">#</text>
<text xml:space="preserve" text-anchor="start" x="19.12" y="-255.5" font-family="Helvetica,sans-Serif" font-size="10.00">getTimestampFormatter()</text>
<text xml:space="preserve" text-anchor="start" x="9.5" y="-239.5" font-family="Helvetica,sans-Serif" font-size="10.00">#</text>
<text xml:space="preserve" text-anchor="start" x="19.12" y="-239.5" font-family="Helvetica,sans-Serif" font-size="10.00">getDefaultDateFormatter()</text>
<text xml:space="preserve" text-anchor="start" x="9.5" y="-223.5" font-family="Helvetica,sans-Serif" font-size="10.00">#</text>
<text xml:space="preserve" text-anchor="start" x="19.12" y="-223.5" font-family="Helvetica,sans-Serif" font-size="10.00">getDefaultTimeFormatter()</text>
<text xml:space="preserve" text-anchor="start" x="9.5" y="-207.5" font-family="Helvetica,sans-Serif" font-size="10.00">#</text>
<text xml:space="preserve" text-anchor="start" x="19.12" y="-207.5" font-family="Helvetica,sans-Serif" font-size="10.00">getDefaultTimestampFormatter()</text>
<polygon fill="#666666" stroke="#666666" points="5.12,-459 5.12,-459 164.88,-459 164.88,-459 5.12,-459"/>
<polygon fill="#666666" stroke="#666666" points="5.12,-443 5.12,-443 164.88,-443 164.88,-443 5.12,-443"/>
<polygon fill="none" stroke="#666666" points="5.12,-201 5.12,-477 164.88,-477 164.88,-201 5.12,-201"/>
</a>
</g>
</g>
<!-- Node2&#45;&gt;Node1 -->
<g id="edge1_Node000001_Node000002" class="edge">
<title>Node2&#45;&gt;Node1</title>
<g id="a_edge1_Node000001_Node000002"><a xlink:title=" ">
<path fill="none" stroke="#63b8ff" d="M85,-189.85C85,-180.96 85,-172.21 85,-163.78"/>
<polygon fill="none" stroke="#63b8ff" points="81.5,-189.66 85,-199.66 88.5,-189.66 81.5,-189.66"/>
</a>
</g>
</g>
<!-- Node3 -->
<g id="Node000003" class="node">
<title>Node3</title>
<g id="a_Node000003"><a xlink:title=" ">
<polygon fill="white" stroke="none" points="135.88,-595 34.12,-595 34.12,-531 135.88,-531 135.88,-595"/>
<text xml:space="preserve" text-anchor="start" x="38.12" y="-581.5" font-family="Helvetica,sans-Serif" font-size="10.00">std::map&lt; std::string,</text>
<text xml:space="preserve" text-anchor="start" x="56.12" y="-569.5" font-family="Helvetica,sans-Serif" font-size="10.00"> std::size_t &gt;</text>
<text xml:space="preserve" text-anchor="start" x="49.12" y="-553.5" font-family="Helvetica,sans-Serif" font-size="10.00">+</text>
<text xml:space="preserve" text-anchor="start" x="70.12" y="-553.5" font-family="Helvetica,sans-Serif" font-size="10.00">elements</text>
<text xml:space="preserve" text-anchor="start" x="83.5" y="-537.5" font-family="Helvetica,sans-Serif" font-size="10.00"> </text>
<polygon fill="#666666" stroke="#666666" points="34.12,-565 34.12,-565 135.88,-565 135.88,-565 34.12,-565"/>
<polygon fill="#666666" stroke="#666666" points="34.12,-549 34.12,-549 68.12,-549 68.12,-549 34.12,-549"/>
<polygon fill="#666666" stroke="#666666" points="68.12,-549 68.12,-549 135.88,-549 135.88,-549 68.12,-549"/>
<polygon fill="none" stroke="#666666" points="34.12,-531 34.12,-595 135.88,-595 135.88,-531 34.12,-531"/>
</a>
</g>
</g>
<!-- Node3&#45;&gt;Node2 -->
<g id="edge2_Node000002_Node000003" class="edge">
<title>Node3&#45;&gt;Node2</title>
<g id="a_edge2_Node000002_Node000003"><a xlink:title=" ">
<path fill="none" stroke="#63b8ff" d="M85,-531.13C85,-519.38 85,-505.06 85,-489.61"/>
<polygon fill="none" stroke="#63b8ff" points="85,-489.89 81,-483.89 85,-477.89 89,-483.89 85,-489.89"/>
</a>
</g>
<text xml:space="preserve" text-anchor="start" x="88" y="-500.5" font-family="Helvetica,sans-Serif" font-size="10.00" fill="grey">#_fields</text>
</g>
<!-- Node4 -->
<g id="Node000004" class="node">
<title>Node4</title>
<g id="a_Node000004"><a xlink:title=" ">
<polygon fill="white" stroke="none" points="68.75,-717 17.25,-717 17.25,-665 68.75,-665 68.75,-717"/>
<text xml:space="preserve" text-anchor="start" x="21.25" y="-703.5" font-family="Helvetica,sans-Serif" font-size="10.00">std::string</text>
<text xml:space="preserve" text-anchor="start" x="41.5" y="-687.5" font-family="Helvetica,sans-Serif" font-size="10.00"> </text>
<text xml:space="preserve" text-anchor="start" x="41.5" y="-671.5" font-family="Helvetica,sans-Serif" font-size="10.00"> </text>
<polygon fill="#666666" stroke="#666666" points="17.25,-699 17.25,-699 68.75,-699 68.75,-699 17.25,-699"/>
<polygon fill="#666666" stroke="#666666" points="17.25,-683 17.25,-683 68.75,-683 68.75,-683 17.25,-683"/>
<polygon fill="none" stroke="#666666" points="17.25,-665 17.25,-717 68.75,-717 68.75,-665 17.25,-665"/>
</a>
</g>
</g>
<!-- Node4&#45;&gt;Node3 -->
<g id="edge3_Node000003_Node000004" class="edge">
<title>Node4&#45;&gt;Node3</title>
<g id="a_edge3_Node000003_Node000004"><a xlink:title=" ">
<path fill="none" stroke="#63b8ff" d="M49.36,-665.16C53.43,-649.97 59.05,-630.21 65,-613 65.7,-610.97 66.44,-608.9 67.21,-606.82"/>
<polygon fill="none" stroke="#63b8ff" points="67.16,-606.95 65.58,-599.92 71.46,-595.75 73.04,-602.79 67.16,-606.95"/>
</a>
</g>
<text xml:space="preserve" text-anchor="start" x="68" y="-626.5" font-family="Helvetica,sans-Serif" font-size="10.00" fill="grey">+keys</text>
</g>
<!-- Node5 -->
<g id="Node000005" class="node">
<title>Node5</title>
<g id="a_Node000005"><a xlink:title=" ">
<polygon fill="white" stroke="none" points="86,-835 0,-835 0,-771 86,-771 86,-835"/>
<text xml:space="preserve" text-anchor="start" x="4" y="-821.5" font-family="Helvetica,sans-Serif" font-size="10.00">std::basic_string&lt;</text>
<text xml:space="preserve" text-anchor="start" x="26.5" y="-809.5" font-family="Helvetica,sans-Serif" font-size="10.00"> Char &gt;</text>
<text xml:space="preserve" text-anchor="start" x="41.5" y="-793.5" font-family="Helvetica,sans-Serif" font-size="10.00"> </text>
<text xml:space="preserve" text-anchor="start" x="41.5" y="-777.5" font-family="Helvetica,sans-Serif" font-size="10.00"> </text>
<polygon fill="#666666" stroke="#666666" points="0,-805 0,-805 86,-805 86,-805 0,-805"/>
<polygon fill="#666666" stroke="#666666" points="0,-789 0,-789 86,-789 86,-789 0,-789"/>
<polygon fill="none" stroke="#666666" points="0,-771 0,-835 86,-835 86,-771 0,-771"/>
</a>
</g>
</g>
<!-- Node5&#45;&gt;Node4 -->
<g id="edge4_Node000004_Node000005" class="edge">
<title>Node5&#45;&gt;Node4</title>
<g id="a_edge4_Node000004_Node000005"><a xlink:title=" ">
<path fill="none" stroke="#63b8ff" d="M43,-759.77C43,-745.25 43,-729.47 43,-716.79"/>
<polygon fill="none" stroke="#63b8ff" points="39.5,-759.55 43,-769.55 46.5,-759.55 39.5,-759.55"/>
</a>
</g>
</g>
<!-- Node6 -->
<g id="Node000006" class="node">
<title>Node6</title>
<g id="a_Node000006"><a xlink:title=" ">
<polygon fill="white" stroke="none" points="169.12,-717 86.88,-717 86.88,-665 169.12,-665 169.12,-717"/>
<text xml:space="preserve" text-anchor="start" x="90.88" y="-703.5" font-family="Helvetica,sans-Serif" font-size="10.00">std::map&lt; K, T &gt;</text>
<text xml:space="preserve" text-anchor="start" x="126.5" y="-687.5" font-family="Helvetica,sans-Serif" font-size="10.00"> </text>
<text xml:space="preserve" text-anchor="start" x="126.5" y="-671.5" font-family="Helvetica,sans-Serif" font-size="10.00"> </text>
<polygon fill="#666666" stroke="#666666" points="86.88,-699 86.88,-699 169.12,-699 169.12,-699 86.88,-699"/>
<polygon fill="#666666" stroke="#666666" points="86.88,-683 86.88,-683 169.12,-683 169.12,-683 86.88,-683"/>
<polygon fill="none" stroke="#666666" points="86.88,-665 86.88,-717 169.12,-717 169.12,-665 86.88,-665"/>
</a>
</g>
</g>
<!-- Node6&#45;&gt;Node3 -->
<g id="edge5_Node000003_Node000006" class="edge">
<title>Node6&#45;&gt;Node3</title>
<g id="a_edge5_Node000003_Node000006"><a xlink:title=" ">
<path fill="none" stroke="orange" d="M115.81,-654.28C109.39,-635.47 101.6,-612.63 95.45,-594.63"/>
<polygon fill="orange" stroke="orange" points="112.47,-655.34 119.02,-663.67 119.1,-653.08 112.47,-655.34"/>
</a>
</g>
<text xml:space="preserve" text-anchor="start" x="115.86" y="-634.5" font-family="Helvetica,sans-Serif" font-size="10.00" fill="grey">&lt; std::string, std</text>
<text xml:space="preserve" text-anchor="start" x="115.86" y="-618.5" font-family="Helvetica,sans-Serif" font-size="10.00" fill="grey">  ::size_t &gt;</text>
</g>
<!-- Node7 -->
<g id="Node000007" class="node">
<title>Node7</title>
<g id="a_Node000007"><a xlink:title=" ">
<polygon fill="white" stroke="none" points="126.38,-829 111.62,-829 111.62,-777 126.38,-777 126.38,-829"/>
<text xml:space="preserve" text-anchor="start" x="115.62" y="-815.5" font-family="Helvetica,sans-Serif" font-size="10.00">K</text>
<text xml:space="preserve" text-anchor="start" x="117.5" y="-799.5" font-family="Helvetica,sans-Serif" font-size="10.00"> </text>
<text xml:space="preserve" text-anchor="start" x="117.5" y="-783.5" font-family="Helvetica,sans-Serif" font-size="10.00"> </text>
<polygon fill="#bfbfbf" stroke="#bfbfbf" points="111.62,-811 111.62,-811 126.38,-811 126.38,-811 111.62,-811"/>
<polygon fill="#bfbfbf" stroke="#bfbfbf" points="111.62,-795 111.62,-795 126.38,-795 126.38,-795 111.62,-795"/>
<polygon fill="none" stroke="#bfbfbf" points="111.62,-777 111.62,-829 126.38,-829 126.38,-777 111.62,-777"/>
</a>
</g>
</g>
<!-- Node7&#45;&gt;Node6 -->
<g id="edge6_Node000006_Node000007" class="edge">
<title>Node7&#45;&gt;Node6</title>
<g id="a_edge6_Node000006_Node000007"><a xlink:title=" ">
<path fill="none" stroke="#63b8ff" d="M118.37,-777.12C118.31,-764.48 118.61,-748.89 120,-735 120.17,-733.25 120.38,-731.47 120.62,-729.67"/>
<polygon fill="none" stroke="#63b8ff" points="120.62,-729.65 117.6,-723.1 122.49,-717.8 125.51,-724.35 120.62,-729.65"/>
</a>
</g>
<text xml:space="preserve" text-anchor="start" x="123" y="-740.5" font-family="Helvetica,sans-Serif" font-size="10.00" fill="grey">+keys</text>
</g>
<!-- Node8 -->
<g id="Node000008" class="node">
<title>Node8</title>
<g id="a_Node000008"><a xlink:title=" ">
<polygon fill="white" stroke="none" points="182,-829 168,-829 168,-777 182,-777 182,-829"/>
<text xml:space="preserve" text-anchor="start" x="172" y="-815.5" font-family="Helvetica,sans-Serif" font-size="10.00">T</text>
<text xml:space="preserve" text-anchor="start" x="173.5" y="-799.5" font-family="Helvetica,sans-Serif" font-size="10.00"> </text>
<text xml:space="preserve" text-anchor="start" x="173.5" y="-783.5" font-family="Helvetica,sans-Serif" font-size="10.00"> </text>
<polygon fill="#bfbfbf" stroke="#bfbfbf" points="168,-811 168,-811 182,-811 182,-811 168,-811"/>
<polygon fill="#bfbfbf" stroke="#bfbfbf" points="168,-795 168,-795 182,-795 182,-795 168,-795"/>
<polygon fill="none" stroke="#bfbfbf" points="168,-777 168,-829 182,-829 182,-777 168,-777"/>
</a>
</g>
</g>
<!-- Node8&#45;&gt;Node6 -->
<g id="edge7_Node000006_Node000008" class="edge">
<title>Node8&#45;&gt;Node6</title>
<g id="a_edge7_Node000006_Node000008"><a xlink:title=" ">
<path fill="none" stroke="#63b8ff" d="M168.16,-777.03C164.31,-764.22 159.07,-748.51 153,-735 151.97,-732.7 150.84,-730.36 149.66,-728.02"/>
<polygon fill="none" stroke="#63b8ff" points="149.59,-727.89 143.22,-724.52 143.88,-717.34 150.25,-720.71 149.59,-727.89"/>
</a>
</g>
<text xml:space="preserve" text-anchor="start" x="163.22" y="-740.5" font-family="Helvetica,sans-Serif" font-size="10.00" fill="grey">+elements</text>
</g>
</g>
</svg>
