<?xml version="1.0" encoding="UTF-8" standalone="no"?>
<!DOCTYPE svg PUBLIC "-//W3C//DTD SVG 1.1//EN"
 "http://www.w3.org/Graphics/SVG/1.1/DTD/svg11.dtd">
<!-- Generated by graphviz version 14.0.5 (0)
 -->
<!-- Title: anch::network::TcpSocket Pages: 1 -->
<svg width="160pt" height="772pt"
 viewBox="0.00 0.00 160.00 772.00" xmlns="http://www.w3.org/2000/svg" xmlns:xlink="http://www.w3.org/1999/xlink">
<g id="graph0" class="graph" transform="scale(1 1) rotate(0) translate(4 768)">
<title>anch::network::TcpSocket</title>
<!-- Node1 -->
<g id="Node000001" class="node">
<title>Node1</title>
<g id="a_Node000001"><a xlink:title=" ">
<polygon fill="#999999" stroke="none" points="132.5,-116 10.5,-116 10.5,0 132.5,0 132.5,-116"/>
<text xml:space="preserve" text-anchor="start" x="14.5" y="-102.5" font-family="Helvetica,sans-Serif" font-size="10.00">anch::network::TcpSocket</text>
<text xml:space="preserve" text-anchor="start" x="70" y="-86.5" font-family="Helvetica,sans-Serif" font-size="10.00"> </text>
<text xml:space="preserve" text-anchor="start" x="25.88" y="-70.5" font-family="Helvetica,sans-Serif" font-size="10.00">+</text>
<text xml:space="preserve" text-anchor="start" x="47.25" y="-70.5" font-family="Helvetica,sans-Serif" font-size="10.00">TcpSocket()</text>
<text xml:space="preserve" text-anchor="start" x="25.88" y="-54.5" font-family="Helvetica,sans-Serif" font-size="10.00">+</text>
<text xml:space="preserve" text-anchor="start" x="47.25" y="-54.5" font-family="Helvetica,sans-Serif" font-size="10.00">TcpSocket()</text>
<text xml:space="preserve" text-anchor="start" x="25.88" y="-38.5" font-family="Helvetica,sans-Serif" font-size="10.00">+</text>
<text xml:space="preserve" text-anchor="start" x="47.25" y="-38.5" font-family="Helvetica,sans-Serif" font-size="10.00">~TcpSocket()</text>
<text xml:space="preserve" text-anchor="start" x="25.88" y="-22.5" font-family="Helvetica,sans-Serif" font-size="10.00">+</text>
<text xml:space="preserve" text-anchor="start" x="47.25" y="-22.5" font-family="Helvetica,sans-Serif" font-size="10.00">send()</text>
<text xml:space="preserve" text-anchor="start" x="25.88" y="-6.5" font-family="Helvetica,sans-Serif" font-size="10.00">+</text>
<text xml:space="preserve" text-anchor="start" x="47.25" y="-6.5" font-family="Helvetica,sans-Serif" font-size="10.00">receive()</text>
<polygon fill="#666666" stroke="#666666" points="10.5,-98 10.5,-98 132.5,-98 132.5,-98 10.5,-98"/>
<polygon fill="#666666" stroke="#666666" points="10.5,-82 10.5,-82 132.5,-82 132.5,-82 10.5,-82"/>
<polygon fill="none" stroke="#666666" points="10.5,0 10.5,-116 132.5,-116 132.5,0 10.5,0"/>
</a>
</g>
</g>
<!-- Node2 -->
<g id="Node000002" class="node">
<title>Node2</title>
<g id="a_Node000002"><a xlink:href="classanch_1_1network_1_1_socket.html" target="_top" xlink:title=" ">
<polygon fill="white" stroke="none" points="124.62,-413 18.38,-413 18.38,-153 124.62,-153 124.62,-413"/>
<text xml:space="preserve" text-anchor="start" x="22.38" y="-399.5" font-family="Helvetica,sans-Serif" font-size="10.00">anch::network::Socket</text>
<text xml:space="preserve" text-anchor="start" x="29.25" y="-383.5" font-family="Helvetica,sans-Serif" font-size="10.00">#</text>
<text xml:space="preserve" text-anchor="start" x="45.38" y="-383.5" font-family="Helvetica,sans-Serif" font-size="10.00">_sock</text>
<text xml:space="preserve" text-anchor="start" x="29.25" y="-367.5" font-family="Helvetica,sans-Serif" font-size="10.00">#</text>
<text xml:space="preserve" text-anchor="start" x="45.38" y="-367.5" font-family="Helvetica,sans-Serif" font-size="10.00">_backlog</text>
<text xml:space="preserve" text-anchor="start" x="29.25" y="-351.5" font-family="Helvetica,sans-Serif" font-size="10.00">#</text>
<text xml:space="preserve" text-anchor="start" x="45.38" y="-351.5" font-family="Helvetica,sans-Serif" font-size="10.00">_address</text>
<text xml:space="preserve" text-anchor="start" x="28.88" y="-335.5" font-family="Helvetica,sans-Serif" font-size="10.00">+</text>
<text xml:space="preserve" text-anchor="start" x="45.38" y="-335.5" font-family="Helvetica,sans-Serif" font-size="10.00">Socket()</text>
<text xml:space="preserve" text-anchor="start" x="28.88" y="-319.5" font-family="Helvetica,sans-Serif" font-size="10.00">+</text>
<text xml:space="preserve" text-anchor="start" x="45.38" y="-319.5" font-family="Helvetica,sans-Serif" font-size="10.00">~Socket()</text>
<text xml:space="preserve" text-anchor="start" x="28.88" y="-303.5" font-family="Helvetica,sans-Serif" font-size="10.00">+</text>
<text xml:space="preserve" text-anchor="start" x="45.38" y="-303.5" font-family="Helvetica,sans-Serif" font-size="10.00">bind()</text>
<text xml:space="preserve" text-anchor="start" x="28.88" y="-287.5" font-family="Helvetica,sans-Serif" font-size="10.00">+</text>
<text xml:space="preserve" text-anchor="start" x="45.38" y="-287.5" font-family="Helvetica,sans-Serif" font-size="10.00">connect()</text>
<text xml:space="preserve" text-anchor="start" x="28.88" y="-271.5" font-family="Helvetica,sans-Serif" font-size="10.00">+</text>
<text xml:space="preserve" text-anchor="start" x="45.38" y="-271.5" font-family="Helvetica,sans-Serif" font-size="10.00">listen()</text>
<text xml:space="preserve" text-anchor="start" x="28.88" y="-255.5" font-family="Helvetica,sans-Serif" font-size="10.00">+</text>
<text xml:space="preserve" text-anchor="start" x="45.38" y="-255.5" font-family="Helvetica,sans-Serif" font-size="10.00">accept()</text>
<text xml:space="preserve" text-anchor="start" x="28.88" y="-239.5" font-family="Helvetica,sans-Serif" font-size="10.00">+</text>
<text xml:space="preserve" text-anchor="start" x="45.38" y="-239.5" font-family="Helvetica,sans-Serif" font-size="10.00">send()</text>
<text xml:space="preserve" text-anchor="start" x="28.88" y="-223.5" font-family="Helvetica,sans-Serif" font-size="10.00">+</text>
<text xml:space="preserve" text-anchor="start" x="45.38" y="-223.5" font-family="Helvetica,sans-Serif" font-size="10.00">receive()</text>
<text xml:space="preserve" text-anchor="start" x="28.88" y="-207.5" font-family="Helvetica,sans-Serif" font-size="10.00">+</text>
<text xml:space="preserve" text-anchor="start" x="45.38" y="-207.5" font-family="Helvetica,sans-Serif" font-size="10.00">receive()</text>
<text xml:space="preserve" text-anchor="start" x="28.88" y="-191.5" font-family="Helvetica,sans-Serif" font-size="10.00">+</text>
<text xml:space="preserve" text-anchor="start" x="45.38" y="-191.5" font-family="Helvetica,sans-Serif" font-size="10.00">shutdown()</text>
<text xml:space="preserve" text-anchor="start" x="45.38" y="-175.5" font-family="Helvetica,sans-Serif" font-size="10.00">and 11 more...</text>
<text xml:space="preserve" text-anchor="start" x="29.25" y="-159.5" font-family="Helvetica,sans-Serif" font-size="10.00">#</text>
<text xml:space="preserve" text-anchor="start" x="45.38" y="-159.5" font-family="Helvetica,sans-Serif" font-size="10.00">Socket()</text>
<polygon fill="#666666" stroke="#666666" points="18.38,-395 18.38,-395 124.62,-395 124.62,-395 18.38,-395"/>
<polygon fill="#666666" stroke="#666666" points="18.38,-347 18.38,-347 43.38,-347 43.38,-347 18.38,-347"/>
<polygon fill="#666666" stroke="#666666" points="43.38,-347 43.38,-347 124.62,-347 124.62,-347 43.38,-347"/>
<polygon fill="none" stroke="#666666" points="18.38,-153 18.38,-413 124.62,-413 124.62,-153 18.38,-153"/>
</a>
</g>
</g>
<!-- Node2&#45;&gt;Node1 -->
<g id="edge1_Node000001_Node000002" class="edge">
<title>Node2&#45;&gt;Node1</title>
<g id="a_edge1_Node000001_Node000002"><a xlink:title=" ">
<path fill="none" stroke="#63b8ff" d="M71.5,-141.74C71.5,-132.76 71.5,-124.04 71.5,-115.84"/>
<polygon fill="none" stroke="#63b8ff" points="68,-141.74 71.5,-151.74 75,-141.74 68,-141.74"/>
</a>
</g>
</g>
<!-- Node3 -->
<g id="Node000003" class="node">
<title>Node3</title>
<g id="a_Node000003"><a xlink:href="classanch_1_1events_1_1_observable.html" target="_top" xlink:title=" ">
<polygon fill="white" stroke="none" points="131.38,-578 11.63,-578 11.63,-450 131.38,-450 131.38,-578"/>
<text xml:space="preserve" text-anchor="start" x="15.62" y="-564.5" font-family="Helvetica,sans-Serif" font-size="10.00">anch::events::Observable</text>
<text xml:space="preserve" text-anchor="start" x="34.38" y="-552.5" font-family="Helvetica,sans-Serif" font-size="10.00">&lt; SocketEvent &gt;</text>
<text xml:space="preserve" text-anchor="start" x="70" y="-536.5" font-family="Helvetica,sans-Serif" font-size="10.00"> </text>
<text xml:space="preserve" text-anchor="start" x="21.56" y="-520.5" font-family="Helvetica,sans-Serif" font-size="10.00">+</text>
<text xml:space="preserve" text-anchor="start" x="37.5" y="-520.5" font-family="Helvetica,sans-Serif" font-size="10.00">Observable()</text>
<text xml:space="preserve" text-anchor="start" x="21.56" y="-504.5" font-family="Helvetica,sans-Serif" font-size="10.00">+</text>
<text xml:space="preserve" text-anchor="start" x="37.5" y="-504.5" font-family="Helvetica,sans-Serif" font-size="10.00">~Observable()</text>
<text xml:space="preserve" text-anchor="start" x="21.56" y="-488.5" font-family="Helvetica,sans-Serif" font-size="10.00">+</text>
<text xml:space="preserve" text-anchor="start" x="37.5" y="-488.5" font-family="Helvetica,sans-Serif" font-size="10.00">addObserver()</text>
<text xml:space="preserve" text-anchor="start" x="21.56" y="-472.5" font-family="Helvetica,sans-Serif" font-size="10.00">+</text>
<text xml:space="preserve" text-anchor="start" x="37.5" y="-472.5" font-family="Helvetica,sans-Serif" font-size="10.00">removeObserver()</text>
<text xml:space="preserve" text-anchor="start" x="21.56" y="-456.5" font-family="Helvetica,sans-Serif" font-size="10.00">+</text>
<text xml:space="preserve" text-anchor="start" x="37.5" y="-456.5" font-family="Helvetica,sans-Serif" font-size="10.00">notifyObservers()</text>
<polygon fill="#666666" stroke="#666666" points="11.62,-548 11.62,-548 131.38,-548 131.38,-548 11.62,-548"/>
<polygon fill="#666666" stroke="#666666" points="11.62,-532 11.62,-532 131.38,-532 131.38,-532 11.62,-532"/>
<polygon fill="none" stroke="#666666" points="11.62,-450 11.62,-578 131.38,-578 131.38,-450 11.62,-450"/>
</a>
</g>
</g>
<!-- Node3&#45;&gt;Node2 -->
<g id="edge2_Node000002_Node000003" class="edge">
<title>Node3&#45;&gt;Node2</title>
<g id="a_edge2_Node000002_Node000003"><a xlink:title=" ">
<path fill="none" stroke="#63b8ff" d="M71.5,-438.82C71.5,-430.37 71.5,-421.58 71.5,-412.68"/>
<polygon fill="none" stroke="#63b8ff" points="68,-438.61 71.5,-448.61 75,-438.61 68,-438.61"/>
</a>
</g>
</g>
<!-- Node4 -->
<g id="Node000004" class="node">
<title>Node4</title>
<g id="a_Node000004"><a xlink:href="classanch_1_1events_1_1_observable.html" target="_top" xlink:title="An observable implementation of the observers/observable design pattern.">
<polygon fill="white" stroke="none" points="143,-764 0,-764 0,-632 143,-632 143,-764"/>
<text xml:space="preserve" text-anchor="start" x="4" y="-750.5" font-family="Helvetica,sans-Serif" font-size="10.00">anch::events::Observable&lt; T &gt;</text>
<text xml:space="preserve" text-anchor="start" x="70" y="-734.5" font-family="Helvetica,sans-Serif" font-size="10.00"> </text>
<text xml:space="preserve" text-anchor="start" x="15.75" y="-718.5" font-family="Helvetica,sans-Serif" font-size="10.00">+</text>
<text xml:space="preserve" text-anchor="start" x="37.5" y="-718.5" font-family="Helvetica,sans-Serif" font-size="10.00">Observable()</text>
<text xml:space="preserve" text-anchor="start" x="15.75" y="-702.5" font-family="Helvetica,sans-Serif" font-size="10.00">+</text>
<text xml:space="preserve" text-anchor="start" x="37.5" y="-702.5" font-family="Helvetica,sans-Serif" font-size="10.00">~Observable()</text>
<text xml:space="preserve" text-anchor="start" x="15.75" y="-686.5" font-family="Helvetica,sans-Serif" font-size="10.00">+</text>
<text xml:space="preserve" text-anchor="start" x="37.5" y="-686.5" font-family="Helvetica,sans-Serif" font-size="10.00">addObserver()</text>
<text xml:space="preserve" text-anchor="start" x="15.75" y="-670.5" font-family="Helvetica,sans-Serif" font-size="10.00">+</text>
<text xml:space="preserve" text-anchor="start" x="37.5" y="-670.5" font-family="Helvetica,sans-Serif" font-size="10.00">removeObserver()</text>
<text xml:space="preserve" text-anchor="start" x="15.75" y="-654.5" font-family="Helvetica,sans-Serif" font-size="10.00">+</text>
<text xml:space="preserve" text-anchor="start" x="37.5" y="-654.5" font-family="Helvetica,sans-Serif" font-size="10.00">notifyObservers()</text>
<text xml:space="preserve" text-anchor="start" x="15.75" y="-638.5" font-family="Helvetica,sans-Serif" font-size="10.00">+</text>
<text xml:space="preserve" text-anchor="start" x="37.5" y="-638.5" font-family="Helvetica,sans-Serif" font-size="10.00">notifyObservers()</text>
<polygon fill="#666666" stroke="#666666" points="0,-746 0,-746 143,-746 143,-746 0,-746"/>
<polygon fill="#666666" stroke="#666666" points="0,-730 0,-730 143,-730 143,-730 0,-730"/>
<polygon fill="none" stroke="#666666" points="0,-632 0,-764 143,-764 143,-632 0,-632"/>
</a>
</g>
</g>
<!-- Node4&#45;&gt;Node3 -->
<g id="edge3_Node000003_Node000004" class="edge">
<title>Node4&#45;&gt;Node3</title>
<g id="a_edge3_Node000003_Node000004"><a xlink:title=" ">
<path fill="none" stroke="orange" d="M71.5,-620.73C71.5,-606.42 71.5,-591.61 71.5,-577.77"/>
<polygon fill="orange" stroke="orange" points="68,-620.55 71.5,-630.55 75,-620.55 68,-620.55"/>
</a>
</g>
<text xml:space="preserve" text-anchor="start" x="74.5" y="-601.5" font-family="Helvetica,sans-Serif" font-size="10.00" fill="grey">&lt; SocketEvent &gt;</text>
</g>
</g>
</svg>
