<?xml version="1.0" encoding="UTF-8" standalone="no"?>
<!DOCTYPE svg PUBLIC "-//W3C//DTD SVG 1.1//EN"
 "http://www.w3.org/Graphics/SVG/1.1/DTD/svg11.dtd">
<!-- Generated by graphviz version 13.1.0 (0)
 -->
<!-- Title: anch::crypto::BlockCipher&lt; B &gt; Pages: 1 -->
<svg width="345pt" height="589pt"
 viewBox="0.00 0.00 345.00 589.00" xmlns="http://www.w3.org/2000/svg" xmlns:xlink="http://www.w3.org/1999/xlink">
<g id="graph0" class="graph" transform="scale(1 1) rotate(0) translate(4 585)">
<title>anch::crypto::BlockCipher&lt; B &gt;</title>
<!-- Node1 -->
<g id="Node000001" class="node">
<title>Node1</title>
<g id="a_Node000001"><a xlink:title="Block cipher interface.">
<polygon fill="#999999" stroke="none" points="195.12,-581 49.12,-581 49.12,-497 195.12,-497 195.12,-581"/>
<text xml:space="preserve" text-anchor="start" x="53.12" y="-567.5" font-family="Helvetica,sans-Serif" font-size="10.00">anch::crypto::BlockCipher&lt; B &gt;</text>
<text xml:space="preserve" text-anchor="start" x="120.62" y="-551.5" font-family="Helvetica,sans-Serif" font-size="10.00"> </text>
<text xml:space="preserve" text-anchor="start" x="69.19" y="-535.5" font-family="Helvetica,sans-Serif" font-size="10.00">+</text>
<text xml:space="preserve" text-anchor="start" x="95.25" y="-535.5" font-family="Helvetica,sans-Serif" font-size="10.00">cipher()</text>
<text xml:space="preserve" text-anchor="start" x="69.19" y="-519.5" font-family="Helvetica,sans-Serif" font-size="10.00">+</text>
<text xml:space="preserve" text-anchor="start" x="95.25" y="-519.5" font-family="Helvetica,sans-Serif" font-size="10.00">decipher()</text>
<text xml:space="preserve" text-anchor="start" x="69.19" y="-503.5" font-family="Helvetica,sans-Serif" font-size="10.00">+</text>
<text xml:space="preserve" text-anchor="start" x="95.25" y="-503.5" font-family="Helvetica,sans-Serif" font-size="10.00">getBlockSize()</text>
<polygon fill="#666666" stroke="#666666" points="49.12,-563 49.12,-563 195.12,-563 195.12,-563 49.12,-563"/>
<polygon fill="#666666" stroke="#666666" points="49.12,-547 49.12,-547 195.12,-547 195.12,-547 49.12,-547"/>
<polygon fill="none" stroke="#666666" points="49.12,-497 49.12,-581 195.12,-581 195.12,-497 49.12,-497"/>
</a>
</g>
</g>
<!-- Node2 -->
<g id="Node000002" class="node">
<title>Node2</title>
<g id="a_Node000002"><a xlink:href="classanch_1_1crypto_1_1_block_cipher.html" target="_top" xlink:title=" ">
<polygon fill="white" stroke="none" points="182.75,-443 61.5,-443 61.5,-347 182.75,-347 182.75,-443"/>
<text xml:space="preserve" text-anchor="start" x="65.5" y="-429.5" font-family="Helvetica,sans-Serif" font-size="10.00">anch::crypto::BlockCipher</text>
<text xml:space="preserve" text-anchor="start" x="107.88" y="-417.5" font-family="Helvetica,sans-Serif" font-size="10.00">&lt; 16 &gt;</text>
<text xml:space="preserve" text-anchor="start" x="120.62" y="-401.5" font-family="Helvetica,sans-Serif" font-size="10.00"> </text>
<text xml:space="preserve" text-anchor="start" x="75.38" y="-385.5" font-family="Helvetica,sans-Serif" font-size="10.00">+</text>
<text xml:space="preserve" text-anchor="start" x="95.25" y="-385.5" font-family="Helvetica,sans-Serif" font-size="10.00">cipher()</text>
<text xml:space="preserve" text-anchor="start" x="75.38" y="-369.5" font-family="Helvetica,sans-Serif" font-size="10.00">+</text>
<text xml:space="preserve" text-anchor="start" x="95.25" y="-369.5" font-family="Helvetica,sans-Serif" font-size="10.00">decipher()</text>
<text xml:space="preserve" text-anchor="start" x="75.38" y="-353.5" font-family="Helvetica,sans-Serif" font-size="10.00">+</text>
<text xml:space="preserve" text-anchor="start" x="95.25" y="-353.5" font-family="Helvetica,sans-Serif" font-size="10.00">getBlockSize()</text>
<polygon fill="#666666" stroke="#666666" points="61.5,-413 61.5,-413 182.75,-413 182.75,-413 61.5,-413"/>
<polygon fill="#666666" stroke="#666666" points="61.5,-397 61.5,-397 182.75,-397 182.75,-397 61.5,-397"/>
<polygon fill="none" stroke="#666666" points="61.5,-347 61.5,-443 182.75,-443 182.75,-347 61.5,-347"/>
</a>
</g>
</g>
<!-- Node1&#45;&gt;Node2 -->
<g id="edge1_Node000001_Node000002" class="edge">
<title>Node1&#45;&gt;Node2</title>
<g id="a_edge1_Node000001_Node000002"><a xlink:title=" ">
<path fill="none" stroke="orange" d="M122.12,-485.82C122.12,-471.79 122.12,-456.69 122.12,-442.96"/>
<polygon fill="orange" stroke="orange" points="118.63,-485.79 122.13,-495.79 125.63,-485.79 118.63,-485.79"/>
</a>
</g>
<text xml:space="preserve" text-anchor="start" x="125.12" y="-466.5" font-family="Helvetica,sans-Serif" font-size="10.00" fill="grey">&lt; 16 &gt;</text>
</g>
<!-- Node3 -->
<g id="Node000003" class="node">
<title>Node3</title>
<g id="a_Node000003"><a xlink:href="classanch_1_1crypto_1_1_a_e_s.html" target="_top" xlink:title=" ">
<polygon fill="white" stroke="none" points="94.25,-128 0,-128 0,0 94.25,0 94.25,-128"/>
<text xml:space="preserve" text-anchor="start" x="4" y="-114.5" font-family="Helvetica,sans-Serif" font-size="10.00">anch::crypto::AES&lt;</text>
<text xml:space="preserve" text-anchor="start" x="30.25" y="-102.5" font-family="Helvetica,sans-Serif" font-size="10.00"> 4, 10 &gt;</text>
<text xml:space="preserve" text-anchor="start" x="45.62" y="-86.5" font-family="Helvetica,sans-Serif" font-size="10.00"> </text>
<text xml:space="preserve" text-anchor="start" x="12.38" y="-70.5" font-family="Helvetica,sans-Serif" font-size="10.00">+</text>
<text xml:space="preserve" text-anchor="start" x="30.75" y="-70.5" font-family="Helvetica,sans-Serif" font-size="10.00">AES()</text>
<text xml:space="preserve" text-anchor="start" x="12.38" y="-54.5" font-family="Helvetica,sans-Serif" font-size="10.00">+</text>
<text xml:space="preserve" text-anchor="start" x="30.75" y="-54.5" font-family="Helvetica,sans-Serif" font-size="10.00">AES()</text>
<text xml:space="preserve" text-anchor="start" x="12.38" y="-38.5" font-family="Helvetica,sans-Serif" font-size="10.00">+</text>
<text xml:space="preserve" text-anchor="start" x="30.75" y="-38.5" font-family="Helvetica,sans-Serif" font-size="10.00">~AES()</text>
<text xml:space="preserve" text-anchor="start" x="12.38" y="-22.5" font-family="Helvetica,sans-Serif" font-size="10.00">+</text>
<text xml:space="preserve" text-anchor="start" x="30.75" y="-22.5" font-family="Helvetica,sans-Serif" font-size="10.00">cipher()</text>
<text xml:space="preserve" text-anchor="start" x="12.38" y="-6.5" font-family="Helvetica,sans-Serif" font-size="10.00">+</text>
<text xml:space="preserve" text-anchor="start" x="30.75" y="-6.5" font-family="Helvetica,sans-Serif" font-size="10.00">decipher()</text>
<polygon fill="#666666" stroke="#666666" points="0,-98 0,-98 94.25,-98 94.25,-98 0,-98"/>
<polygon fill="#666666" stroke="#666666" points="0,-82 0,-82 94.25,-82 94.25,-82 0,-82"/>
<polygon fill="none" stroke="#666666" points="0,0 0,-128 94.25,-128 94.25,0 0,0"/>
</a>
</g>
</g>
<!-- Node2&#45;&gt;Node3 -->
<g id="edge2_Node000002_Node000003" class="edge">
<title>Node2&#45;&gt;Node3</title>
<g id="a_edge2_Node000002_Node000003"><a xlink:title=" ">
<path fill="none" stroke="#63b8ff" d="M90.51,-336.97C86.52,-328.13 82.88,-318.96 80.12,-310 61.59,-249.81 53.46,-178.12 49.9,-127.89"/>
<polygon fill="none" stroke="#63b8ff" points="87.23,-338.24 94.66,-345.79 93.57,-335.25 87.23,-338.24"/>
</a>
</g>
</g>
<!-- Node4 -->
<g id="Node000004" class="node">
<title>Node4</title>
<g id="a_Node000004"><a xlink:href="classanch_1_1crypto_1_1_a_e_s.html" target="_top" xlink:title=" ">
<polygon fill="white" stroke="none" points="337.25,-128 243,-128 243,0 337.25,0 337.25,-128"/>
<text xml:space="preserve" text-anchor="start" x="247" y="-114.5" font-family="Helvetica,sans-Serif" font-size="10.00">anch::crypto::AES&lt;</text>
<text xml:space="preserve" text-anchor="start" x="273.25" y="-102.5" font-family="Helvetica,sans-Serif" font-size="10.00"> 6, 12 &gt;</text>
<text xml:space="preserve" text-anchor="start" x="288.62" y="-86.5" font-family="Helvetica,sans-Serif" font-size="10.00"> </text>
<text xml:space="preserve" text-anchor="start" x="255.38" y="-70.5" font-family="Helvetica,sans-Serif" font-size="10.00">+</text>
<text xml:space="preserve" text-anchor="start" x="273.75" y="-70.5" font-family="Helvetica,sans-Serif" font-size="10.00">AES()</text>
<text xml:space="preserve" text-anchor="start" x="255.38" y="-54.5" font-family="Helvetica,sans-Serif" font-size="10.00">+</text>
<text xml:space="preserve" text-anchor="start" x="273.75" y="-54.5" font-family="Helvetica,sans-Serif" font-size="10.00">AES()</text>
<text xml:space="preserve" text-anchor="start" x="255.38" y="-38.5" font-family="Helvetica,sans-Serif" font-size="10.00">+</text>
<text xml:space="preserve" text-anchor="start" x="273.75" y="-38.5" font-family="Helvetica,sans-Serif" font-size="10.00">~AES()</text>
<text xml:space="preserve" text-anchor="start" x="255.38" y="-22.5" font-family="Helvetica,sans-Serif" font-size="10.00">+</text>
<text xml:space="preserve" text-anchor="start" x="273.75" y="-22.5" font-family="Helvetica,sans-Serif" font-size="10.00">cipher()</text>
<text xml:space="preserve" text-anchor="start" x="255.38" y="-6.5" font-family="Helvetica,sans-Serif" font-size="10.00">+</text>
<text xml:space="preserve" text-anchor="start" x="273.75" y="-6.5" font-family="Helvetica,sans-Serif" font-size="10.00">decipher()</text>
<polygon fill="#666666" stroke="#666666" points="243,-98 243,-98 337.25,-98 337.25,-98 243,-98"/>
<polygon fill="#666666" stroke="#666666" points="243,-82 243,-82 337.25,-82 337.25,-82 243,-82"/>
<polygon fill="none" stroke="#666666" points="243,0 243,-128 337.25,-128 337.25,0 243,0"/>
</a>
</g>
</g>
<!-- Node2&#45;&gt;Node4 -->
<g id="edge3_Node000002_Node000004" class="edge">
<title>Node2&#45;&gt;Node4</title>
<g id="a_edge3_Node000002_Node000004"><a xlink:title=" ">
<path fill="none" stroke="#63b8ff" d="M190.51,-339.47C199.82,-330.24 208.7,-320.3 216.12,-310 257.44,-252.66 261.02,-232.31 279.12,-164 282.18,-152.47 284.39,-139.96 285.98,-127.84"/>
<polygon fill="none" stroke="#63b8ff" points="188.15,-336.88 183.35,-346.33 192.99,-341.94 188.15,-336.88"/>
</a>
</g>
</g>
<!-- Node5 -->
<g id="Node000005" class="node">
<title>Node5</title>
<g id="a_Node000005"><a xlink:href="classanch_1_1crypto_1_1_a_e_s.html" target="_top" xlink:title=" ">
<polygon fill="white" stroke="none" points="213.25,-128 119,-128 119,0 213.25,0 213.25,-128"/>
<text xml:space="preserve" text-anchor="start" x="123" y="-114.5" font-family="Helvetica,sans-Serif" font-size="10.00">anch::crypto::AES&lt;</text>
<text xml:space="preserve" text-anchor="start" x="149.25" y="-102.5" font-family="Helvetica,sans-Serif" font-size="10.00"> 8, 14 &gt;</text>
<text xml:space="preserve" text-anchor="start" x="164.62" y="-86.5" font-family="Helvetica,sans-Serif" font-size="10.00"> </text>
<text xml:space="preserve" text-anchor="start" x="131.38" y="-70.5" font-family="Helvetica,sans-Serif" font-size="10.00">+</text>
<text xml:space="preserve" text-anchor="start" x="149.75" y="-70.5" font-family="Helvetica,sans-Serif" font-size="10.00">AES()</text>
<text xml:space="preserve" text-anchor="start" x="131.38" y="-54.5" font-family="Helvetica,sans-Serif" font-size="10.00">+</text>
<text xml:space="preserve" text-anchor="start" x="149.75" y="-54.5" font-family="Helvetica,sans-Serif" font-size="10.00">AES()</text>
<text xml:space="preserve" text-anchor="start" x="131.38" y="-38.5" font-family="Helvetica,sans-Serif" font-size="10.00">+</text>
<text xml:space="preserve" text-anchor="start" x="149.75" y="-38.5" font-family="Helvetica,sans-Serif" font-size="10.00">~AES()</text>
<text xml:space="preserve" text-anchor="start" x="131.38" y="-22.5" font-family="Helvetica,sans-Serif" font-size="10.00">+</text>
<text xml:space="preserve" text-anchor="start" x="149.75" y="-22.5" font-family="Helvetica,sans-Serif" font-size="10.00">cipher()</text>
<text xml:space="preserve" text-anchor="start" x="131.38" y="-6.5" font-family="Helvetica,sans-Serif" font-size="10.00">+</text>
<text xml:space="preserve" text-anchor="start" x="149.75" y="-6.5" font-family="Helvetica,sans-Serif" font-size="10.00">decipher()</text>
<polygon fill="#666666" stroke="#666666" points="119,-98 119,-98 213.25,-98 213.25,-98 119,-98"/>
<polygon fill="#666666" stroke="#666666" points="119,-82 119,-82 213.25,-82 213.25,-82 119,-82"/>
<polygon fill="none" stroke="#666666" points="119,0 119,-128 213.25,-128 213.25,0 119,0"/>
</a>
</g>
</g>
<!-- Node2&#45;&gt;Node5 -->
<g id="edge4_Node000002_Node000005" class="edge">
<title>Node2&#45;&gt;Node5</title>
<g id="a_edge4_Node000002_Node000005"><a xlink:title=" ">
<path fill="none" stroke="#63b8ff" d="M101.74,-336.27C86.86,-284.79 72.98,-208.18 96.12,-146 101.25,-132.24 109.87,-119.26 119.35,-107.89"/>
<polygon fill="none" stroke="#63b8ff" points="98.35,-337.16 104.58,-345.73 105.06,-335.15 98.35,-337.16"/>
</a>
</g>
</g>
<!-- Node6 -->
<g id="Node000006" class="node">
<title>Node6</title>
<g id="a_Node000006"><a xlink:href="classanch_1_1crypto_1_1_a_e_s.html" target="_top" xlink:title="AES block cipher algorithm implementation.">
<polygon fill="white" stroke="none" points="207.25,-310 113,-310 113,-182 207.25,-182 207.25,-310"/>
<text xml:space="preserve" text-anchor="start" x="117" y="-296.5" font-family="Helvetica,sans-Serif" font-size="10.00">anch::crypto::AES&lt;</text>
<text xml:space="preserve" text-anchor="start" x="144" y="-284.5" font-family="Helvetica,sans-Serif" font-size="10.00"> K, R &gt;</text>
<text xml:space="preserve" text-anchor="start" x="158.62" y="-268.5" font-family="Helvetica,sans-Serif" font-size="10.00"> </text>
<text xml:space="preserve" text-anchor="start" x="125.38" y="-252.5" font-family="Helvetica,sans-Serif" font-size="10.00">+</text>
<text xml:space="preserve" text-anchor="start" x="143.75" y="-252.5" font-family="Helvetica,sans-Serif" font-size="10.00">AES()</text>
<text xml:space="preserve" text-anchor="start" x="125.38" y="-236.5" font-family="Helvetica,sans-Serif" font-size="10.00">+</text>
<text xml:space="preserve" text-anchor="start" x="143.75" y="-236.5" font-family="Helvetica,sans-Serif" font-size="10.00">AES()</text>
<text xml:space="preserve" text-anchor="start" x="125.38" y="-220.5" font-family="Helvetica,sans-Serif" font-size="10.00">+</text>
<text xml:space="preserve" text-anchor="start" x="143.75" y="-220.5" font-family="Helvetica,sans-Serif" font-size="10.00">~AES()</text>
<text xml:space="preserve" text-anchor="start" x="125.38" y="-204.5" font-family="Helvetica,sans-Serif" font-size="10.00">+</text>
<text xml:space="preserve" text-anchor="start" x="143.75" y="-204.5" font-family="Helvetica,sans-Serif" font-size="10.00">cipher()</text>
<text xml:space="preserve" text-anchor="start" x="125.38" y="-188.5" font-family="Helvetica,sans-Serif" font-size="10.00">+</text>
<text xml:space="preserve" text-anchor="start" x="143.75" y="-188.5" font-family="Helvetica,sans-Serif" font-size="10.00">decipher()</text>
<polygon fill="#666666" stroke="#666666" points="113,-280 113,-280 207.25,-280 207.25,-280 113,-280"/>
<polygon fill="#666666" stroke="#666666" points="113,-264 113,-264 207.25,-264 207.25,-264 113,-264"/>
<polygon fill="none" stroke="#666666" points="113,-182 113,-310 207.25,-310 207.25,-182 113,-182"/>
</a>
</g>
</g>
<!-- Node2&#45;&gt;Node6 -->
<g id="edge5_Node000002_Node000006" class="edge">
<title>Node2&#45;&gt;Node6</title>
<g id="a_edge5_Node000002_Node000006"><a xlink:title=" ">
<path fill="none" stroke="#63b8ff" d="M137.12,-336C139.34,-327.41 141.64,-318.52 143.88,-309.83"/>
<polygon fill="none" stroke="#63b8ff" points="133.75,-335.06 134.63,-345.62 140.52,-336.81 133.75,-335.06"/>
</a>
</g>
</g>
<!-- Node6&#45;&gt;Node3 -->
<g id="edge6_Node000006_Node000003" class="edge">
<title>Node6&#45;&gt;Node3</title>
<g id="a_edge6_Node000006_Node000003"><a xlink:title=" ">
<path fill="none" stroke="orange" d="M114.59,-172.46C105.33,-157.71 95.66,-142.31 86.62,-127.92"/>
<polygon fill="orange" stroke="orange" points="111.52,-174.15 119.8,-180.76 117.45,-170.43 111.52,-174.15"/>
</a>
</g>
<text xml:space="preserve" text-anchor="start" x="110.01" y="-151.5" font-family="Helvetica,sans-Serif" font-size="10.00" fill="grey">&lt; 4, 10 &gt;</text>
</g>
<!-- Node6&#45;&gt;Node4 -->
<g id="edge7_Node000006_Node000004" class="edge">
<title>Node6&#45;&gt;Node4</title>
<g id="a_edge7_Node000006_Node000004"><a xlink:title=" ">
<path fill="none" stroke="orange" d="M212.21,-172.88C222.96,-158 234.19,-142.44 244.68,-127.92"/>
<polygon fill="orange" stroke="orange" points="209.5,-170.66 206.48,-180.82 215.17,-174.76 209.5,-170.66"/>
</a>
</g>
<text xml:space="preserve" text-anchor="start" x="232.02" y="-151.5" font-family="Helvetica,sans-Serif" font-size="10.00" fill="grey">&lt; 6, 12 &gt;</text>
</g>
<!-- Node6&#45;&gt;Node5 -->
<g id="edge8_Node000006_Node000005" class="edge">
<title>Node6&#45;&gt;Node5</title>
<g id="a_edge8_Node000006_Node000005"><a xlink:title=" ">
<path fill="none" stroke="orange" d="M162.6,-170.77C163.07,-156.54 163.57,-141.76 164.03,-127.92"/>
<polygon fill="orange" stroke="orange" points="159.11,-170.42 162.27,-180.53 166.11,-170.65 159.11,-170.42"/>
</a>
</g>
<text xml:space="preserve" text-anchor="start" x="166.3" y="-151.5" font-family="Helvetica,sans-Serif" font-size="10.00" fill="grey">&lt; 8, 14 &gt;</text>
</g>
</g>
</svg>
