<?xml version="1.0" encoding="UTF-8" standalone="no"?>
<!DOCTYPE svg PUBLIC "-//W3C//DTD SVG 1.1//EN"
 "http://www.w3.org/Graphics/SVG/1.1/DTD/svg11.dtd">
<!-- Generated by graphviz version 8.0.1 (0)
 -->
<!-- Title: anch::crypto::BlockCipherModeOfOperation&lt; Derived, Cipher &gt; Pages: 1 -->
<svg width="1226pt" height="530pt"
 viewBox="0.00 0.00 1226.00 530.00" xmlns="http://www.w3.org/2000/svg" xmlns:xlink="http://www.w3.org/1999/xlink">
<g id="graph0" class="graph" transform="scale(1 1) rotate(0) translate(4 526)">
<title>anch::crypto::BlockCipherModeOfOperation&lt; Derived, Cipher &gt;</title>
<!-- Node1 -->
<g id="node1" class="node">
<title>Node1</title>
<g id="a_node1"><a xlink:title="Block cipher mode of operation interface.">
<polygon fill="#999999" stroke="#666666" points="503,-365.5 503,-521.5 691,-521.5 691,-365.5 503,-365.5"/>
<text text-anchor="start" x="511" y="-509.5" font-family="Helvetica,sans-Serif" font-size="10.00">anch::crypto::BlockCipher</text>
<text text-anchor="start" x="511" y="-498.5" font-family="Helvetica,sans-Serif" font-size="10.00">ModeOfOperation&lt; Derived,</text>
<text text-anchor="middle" x="597" y="-487.5" font-family="Helvetica,sans-Serif" font-size="10.00"> Cipher &gt;</text>
<polyline fill="none" stroke="#666666" points="503,-480.5 691,-480.5"/>
<text text-anchor="middle" x="597" y="-468.5" font-family="Helvetica,sans-Serif" font-size="10.00"> </text>
<polyline fill="none" stroke="#666666" points="503,-461.5 691,-461.5"/>
<text text-anchor="start" x="511" y="-449.5" font-family="Helvetica,sans-Serif" font-size="10.00">+ cipher()</text>
<text text-anchor="start" x="511" y="-438.5" font-family="Helvetica,sans-Serif" font-size="10.00">+ decipher()</text>
<text text-anchor="start" x="511" y="-427.5" font-family="Helvetica,sans-Serif" font-size="10.00">+ setNbThread()</text>
<text text-anchor="start" x="511" y="-416.5" font-family="Helvetica,sans-Serif" font-size="10.00"># BlockCipherModeOfOperation()</text>
<text text-anchor="start" x="511" y="-405.5" font-family="Helvetica,sans-Serif" font-size="10.00"># ~BlockCipherModeOfOperation()</text>
<text text-anchor="start" x="511" y="-394.5" font-family="Helvetica,sans-Serif" font-size="10.00"># cipherBlock()</text>
<text text-anchor="start" x="511" y="-383.5" font-family="Helvetica,sans-Serif" font-size="10.00"># decipherBlock()</text>
<text text-anchor="start" x="511" y="-372.5" font-family="Helvetica,sans-Serif" font-size="10.00"># reset()</text>
</a>
</g>
</g>
<!-- Node2 -->
<g id="node2" class="node">
<title>Node2</title>
<g id="a_node2"><a xlink:href="classanch_1_1crypto_1_1_block_cipher_mode_of_operation.html" target="_top" xlink:title=" ">
<polygon fill="white" stroke="#666666" points="0,-150.5 0,-306.5 188,-306.5 188,-150.5 0,-150.5"/>
<text text-anchor="start" x="8" y="-294.5" font-family="Helvetica,sans-Serif" font-size="10.00">anch::crypto::BlockCipher</text>
<text text-anchor="start" x="8" y="-283.5" font-family="Helvetica,sans-Serif" font-size="10.00">ModeOfOperation&lt; CBC&lt; Cipher,</text>
<text text-anchor="middle" x="94" y="-272.5" font-family="Helvetica,sans-Serif" font-size="10.00"> Padding &gt;, Cipher &gt;</text>
<polyline fill="none" stroke="#666666" points="0,-265.5 188,-265.5"/>
<text text-anchor="middle" x="94" y="-253.5" font-family="Helvetica,sans-Serif" font-size="10.00"> </text>
<polyline fill="none" stroke="#666666" points="0,-246.5 188,-246.5"/>
<text text-anchor="start" x="8" y="-234.5" font-family="Helvetica,sans-Serif" font-size="10.00">+ cipher()</text>
<text text-anchor="start" x="8" y="-223.5" font-family="Helvetica,sans-Serif" font-size="10.00">+ decipher()</text>
<text text-anchor="start" x="8" y="-212.5" font-family="Helvetica,sans-Serif" font-size="10.00">+ setNbThread()</text>
<text text-anchor="start" x="8" y="-201.5" font-family="Helvetica,sans-Serif" font-size="10.00"># BlockCipherModeOfOperation()</text>
<text text-anchor="start" x="8" y="-190.5" font-family="Helvetica,sans-Serif" font-size="10.00"># ~BlockCipherModeOfOperation()</text>
<text text-anchor="start" x="8" y="-179.5" font-family="Helvetica,sans-Serif" font-size="10.00"># cipherBlock()</text>
<text text-anchor="start" x="8" y="-168.5" font-family="Helvetica,sans-Serif" font-size="10.00"># decipherBlock()</text>
<text text-anchor="start" x="8" y="-157.5" font-family="Helvetica,sans-Serif" font-size="10.00"># reset()</text>
</a>
</g>
</g>
<!-- Node1&#45;&gt;Node2 -->
<g id="edge1" class="edge">
<title>Node1&#45;&gt;Node2</title>
<path fill="none" stroke="orange" d="M492.85,-425.5C420.64,-411.07 323.7,-386.3 245,-347 222.86,-335.95 200.82,-321.37 180.69,-306.27"/>
<polygon fill="orange" stroke="orange" points="491.83,-429.07 502.32,-427.56 493.18,-422.2 491.83,-429.07"/>
<text text-anchor="start" x="245" y="-339" font-family="Helvetica,sans-Serif" font-size="10.00"> &lt; CBC&lt; Cipher, Padding</text>
<text text-anchor="middle" x="306" y="-328" font-family="Helvetica,sans-Serif" font-size="10.00"> &gt;, Cipher &gt;</text>
</g>
<!-- Node4 -->
<g id="node4" class="node">
<title>Node4</title>
<g id="a_node4"><a xlink:href="classanch_1_1crypto_1_1_block_cipher_mode_of_operation.html" target="_top" xlink:title=" ">
<polygon fill="white" stroke="#666666" points="206,-150.5 206,-306.5 394,-306.5 394,-150.5 206,-150.5"/>
<text text-anchor="start" x="214" y="-294.5" font-family="Helvetica,sans-Serif" font-size="10.00">anch::crypto::BlockCipher</text>
<text text-anchor="start" x="214" y="-283.5" font-family="Helvetica,sans-Serif" font-size="10.00">ModeOfOperation&lt; CFB&lt; Cipher</text>
<text text-anchor="middle" x="300" y="-272.5" font-family="Helvetica,sans-Serif" font-size="10.00"> &gt;, Cipher &gt;</text>
<polyline fill="none" stroke="#666666" points="206,-265.5 394,-265.5"/>
<text text-anchor="middle" x="300" y="-253.5" font-family="Helvetica,sans-Serif" font-size="10.00"> </text>
<polyline fill="none" stroke="#666666" points="206,-246.5 394,-246.5"/>
<text text-anchor="start" x="214" y="-234.5" font-family="Helvetica,sans-Serif" font-size="10.00">+ cipher()</text>
<text text-anchor="start" x="214" y="-223.5" font-family="Helvetica,sans-Serif" font-size="10.00">+ decipher()</text>
<text text-anchor="start" x="214" y="-212.5" font-family="Helvetica,sans-Serif" font-size="10.00">+ setNbThread()</text>
<text text-anchor="start" x="214" y="-201.5" font-family="Helvetica,sans-Serif" font-size="10.00"># BlockCipherModeOfOperation()</text>
<text text-anchor="start" x="214" y="-190.5" font-family="Helvetica,sans-Serif" font-size="10.00"># ~BlockCipherModeOfOperation()</text>
<text text-anchor="start" x="214" y="-179.5" font-family="Helvetica,sans-Serif" font-size="10.00"># cipherBlock()</text>
<text text-anchor="start" x="214" y="-168.5" font-family="Helvetica,sans-Serif" font-size="10.00"># decipherBlock()</text>
<text text-anchor="start" x="214" y="-157.5" font-family="Helvetica,sans-Serif" font-size="10.00"># reset()</text>
</a>
</g>
</g>
<!-- Node1&#45;&gt;Node4 -->
<g id="edge3" class="edge">
<title>Node1&#45;&gt;Node4</title>
<path fill="none" stroke="orange" d="M493.15,-405.44C458.94,-390.38 422.01,-370.84 392,-347 377.39,-335.4 363.73,-321.03 351.62,-306.36"/>
<polygon fill="orange" stroke="orange" points="491.62,-409.02 502.19,-409.77 494.39,-402.6 491.62,-409.02"/>
<text text-anchor="middle" x="460.5" y="-333.5" font-family="Helvetica,sans-Serif" font-size="10.00"> &lt; CFB&lt; Cipher &gt;, Cipher &gt;</text>
</g>
<!-- Node6 -->
<g id="node6" class="node">
<title>Node6</title>
<g id="a_node6"><a xlink:href="classanch_1_1crypto_1_1_block_cipher_mode_of_operation.html" target="_top" xlink:title=" ">
<polygon fill="white" stroke="#666666" points="412,-150.5 412,-306.5 600,-306.5 600,-150.5 412,-150.5"/>
<text text-anchor="start" x="420" y="-294.5" font-family="Helvetica,sans-Serif" font-size="10.00">anch::crypto::BlockCipher</text>
<text text-anchor="start" x="420" y="-283.5" font-family="Helvetica,sans-Serif" font-size="10.00">ModeOfOperation&lt; CTR&lt; Cipher</text>
<text text-anchor="middle" x="506" y="-272.5" font-family="Helvetica,sans-Serif" font-size="10.00"> &gt;, Cipher &gt;</text>
<polyline fill="none" stroke="#666666" points="412,-265.5 600,-265.5"/>
<text text-anchor="middle" x="506" y="-253.5" font-family="Helvetica,sans-Serif" font-size="10.00"> </text>
<polyline fill="none" stroke="#666666" points="412,-246.5 600,-246.5"/>
<text text-anchor="start" x="420" y="-234.5" font-family="Helvetica,sans-Serif" font-size="10.00">+ cipher()</text>
<text text-anchor="start" x="420" y="-223.5" font-family="Helvetica,sans-Serif" font-size="10.00">+ decipher()</text>
<text text-anchor="start" x="420" y="-212.5" font-family="Helvetica,sans-Serif" font-size="10.00">+ setNbThread()</text>
<text text-anchor="start" x="420" y="-201.5" font-family="Helvetica,sans-Serif" font-size="10.00"># BlockCipherModeOfOperation()</text>
<text text-anchor="start" x="420" y="-190.5" font-family="Helvetica,sans-Serif" font-size="10.00"># ~BlockCipherModeOfOperation()</text>
<text text-anchor="start" x="420" y="-179.5" font-family="Helvetica,sans-Serif" font-size="10.00"># cipherBlock()</text>
<text text-anchor="start" x="420" y="-168.5" font-family="Helvetica,sans-Serif" font-size="10.00"># decipherBlock()</text>
<text text-anchor="start" x="420" y="-157.5" font-family="Helvetica,sans-Serif" font-size="10.00"># reset()</text>
</a>
</g>
</g>
<!-- Node1&#45;&gt;Node6 -->
<g id="edge5" class="edge">
<title>Node1&#45;&gt;Node6</title>
<path fill="none" stroke="orange" d="M545.1,-356.02C543.67,-353 542.3,-349.99 541,-347 535.4,-334.12 530.36,-320.07 525.97,-306.31"/>
<polygon fill="orange" stroke="orange" points="542.29,-357.24 549.85,-364.66 548.57,-354.14 542.29,-357.24"/>
<text text-anchor="middle" x="609.5" y="-333.5" font-family="Helvetica,sans-Serif" font-size="10.00"> &lt; CTR&lt; Cipher &gt;, Cipher &gt;</text>
</g>
<!-- Node8 -->
<g id="node8" class="node">
<title>Node8</title>
<g id="a_node8"><a xlink:href="classanch_1_1crypto_1_1_block_cipher_mode_of_operation.html" target="_top" xlink:title=" ">
<polygon fill="white" stroke="#666666" points="618,-150.5 618,-306.5 806,-306.5 806,-150.5 618,-150.5"/>
<text text-anchor="start" x="626" y="-294.5" font-family="Helvetica,sans-Serif" font-size="10.00">anch::crypto::BlockCipher</text>
<text text-anchor="start" x="626" y="-283.5" font-family="Helvetica,sans-Serif" font-size="10.00">ModeOfOperation&lt; ECB&lt; Cipher,</text>
<text text-anchor="middle" x="712" y="-272.5" font-family="Helvetica,sans-Serif" font-size="10.00"> Padding &gt;, Cipher &gt;</text>
<polyline fill="none" stroke="#666666" points="618,-265.5 806,-265.5"/>
<text text-anchor="middle" x="712" y="-253.5" font-family="Helvetica,sans-Serif" font-size="10.00"> </text>
<polyline fill="none" stroke="#666666" points="618,-246.5 806,-246.5"/>
<text text-anchor="start" x="626" y="-234.5" font-family="Helvetica,sans-Serif" font-size="10.00">+ cipher()</text>
<text text-anchor="start" x="626" y="-223.5" font-family="Helvetica,sans-Serif" font-size="10.00">+ decipher()</text>
<text text-anchor="start" x="626" y="-212.5" font-family="Helvetica,sans-Serif" font-size="10.00">+ setNbThread()</text>
<text text-anchor="start" x="626" y="-201.5" font-family="Helvetica,sans-Serif" font-size="10.00"># BlockCipherModeOfOperation()</text>
<text text-anchor="start" x="626" y="-190.5" font-family="Helvetica,sans-Serif" font-size="10.00"># ~BlockCipherModeOfOperation()</text>
<text text-anchor="start" x="626" y="-179.5" font-family="Helvetica,sans-Serif" font-size="10.00"># cipherBlock()</text>
<text text-anchor="start" x="626" y="-168.5" font-family="Helvetica,sans-Serif" font-size="10.00"># decipherBlock()</text>
<text text-anchor="start" x="626" y="-157.5" font-family="Helvetica,sans-Serif" font-size="10.00"># reset()</text>
</a>
</g>
</g>
<!-- Node1&#45;&gt;Node8 -->
<g id="edge7" class="edge">
<title>Node1&#45;&gt;Node8</title>
<path fill="none" stroke="orange" d="M672.4,-356.73C674.38,-353.51 676.25,-350.26 678,-347 684.78,-334.37 690.35,-320.23 694.87,-306.26"/>
<polygon fill="orange" stroke="orange" points="669.07,-354.44 666.59,-364.74 674.95,-358.24 669.07,-354.44"/>
<text text-anchor="start" x="688" y="-339" font-family="Helvetica,sans-Serif" font-size="10.00"> &lt; ECB&lt; Cipher, Padding</text>
<text text-anchor="middle" x="748.5" y="-328" font-family="Helvetica,sans-Serif" font-size="10.00"> &gt;, Cipher &gt;</text>
</g>
<!-- Node10 -->
<g id="node10" class="node">
<title>Node10</title>
<g id="a_node10"><a xlink:href="classanch_1_1crypto_1_1_block_cipher_mode_of_operation.html" target="_top" xlink:title=" ">
<polygon fill="white" stroke="#666666" points="824,-150.5 824,-306.5 1012,-306.5 1012,-150.5 824,-150.5"/>
<text text-anchor="start" x="832" y="-294.5" font-family="Helvetica,sans-Serif" font-size="10.00">anch::crypto::BlockCipher</text>
<text text-anchor="start" x="832" y="-283.5" font-family="Helvetica,sans-Serif" font-size="10.00">ModeOfOperation&lt; OFB&lt; Cipher</text>
<text text-anchor="middle" x="918" y="-272.5" font-family="Helvetica,sans-Serif" font-size="10.00"> &gt;, Cipher &gt;</text>
<polyline fill="none" stroke="#666666" points="824,-265.5 1012,-265.5"/>
<text text-anchor="middle" x="918" y="-253.5" font-family="Helvetica,sans-Serif" font-size="10.00"> </text>
<polyline fill="none" stroke="#666666" points="824,-246.5 1012,-246.5"/>
<text text-anchor="start" x="832" y="-234.5" font-family="Helvetica,sans-Serif" font-size="10.00">+ cipher()</text>
<text text-anchor="start" x="832" y="-223.5" font-family="Helvetica,sans-Serif" font-size="10.00">+ decipher()</text>
<text text-anchor="start" x="832" y="-212.5" font-family="Helvetica,sans-Serif" font-size="10.00">+ setNbThread()</text>
<text text-anchor="start" x="832" y="-201.5" font-family="Helvetica,sans-Serif" font-size="10.00"># BlockCipherModeOfOperation()</text>
<text text-anchor="start" x="832" y="-190.5" font-family="Helvetica,sans-Serif" font-size="10.00"># ~BlockCipherModeOfOperation()</text>
<text text-anchor="start" x="832" y="-179.5" font-family="Helvetica,sans-Serif" font-size="10.00"># cipherBlock()</text>
<text text-anchor="start" x="832" y="-168.5" font-family="Helvetica,sans-Serif" font-size="10.00"># decipherBlock()</text>
<text text-anchor="start" x="832" y="-157.5" font-family="Helvetica,sans-Serif" font-size="10.00"># reset()</text>
</a>
</g>
</g>
<!-- Node1&#45;&gt;Node10 -->
<g id="edge9" class="edge">
<title>Node1&#45;&gt;Node10</title>
<path fill="none" stroke="orange" d="M700.85,-407.06C738.1,-391.72 779.21,-371.58 813,-347 828.93,-335.41 844.2,-321.05 857.93,-306.39"/>
<polygon fill="orange" stroke="orange" points="699.93,-404.07 691.97,-411.06 702.55,-410.56 699.93,-404.07"/>
<text text-anchor="middle" x="906" y="-333.5" font-family="Helvetica,sans-Serif" font-size="10.00"> &lt; OFB&lt; Cipher &gt;, Cipher &gt;</text>
</g>
<!-- Node12 -->
<g id="node12" class="node">
<title>Node12</title>
<g id="a_node12"><a xlink:href="classanch_1_1crypto_1_1_block_cipher_mode_of_operation.html" target="_top" xlink:title=" ">
<polygon fill="white" stroke="#666666" points="1030,-150.5 1030,-306.5 1218,-306.5 1218,-150.5 1030,-150.5"/>
<text text-anchor="start" x="1038" y="-294.5" font-family="Helvetica,sans-Serif" font-size="10.00">anch::crypto::BlockCipher</text>
<text text-anchor="start" x="1038" y="-283.5" font-family="Helvetica,sans-Serif" font-size="10.00">ModeOfOperation&lt; PCBC&lt;</text>
<text text-anchor="middle" x="1124" y="-272.5" font-family="Helvetica,sans-Serif" font-size="10.00"> Cipher, Padding &gt;, Cipher &gt;</text>
<polyline fill="none" stroke="#666666" points="1030,-265.5 1218,-265.5"/>
<text text-anchor="middle" x="1124" y="-253.5" font-family="Helvetica,sans-Serif" font-size="10.00"> </text>
<polyline fill="none" stroke="#666666" points="1030,-246.5 1218,-246.5"/>
<text text-anchor="start" x="1038" y="-234.5" font-family="Helvetica,sans-Serif" font-size="10.00">+ cipher()</text>
<text text-anchor="start" x="1038" y="-223.5" font-family="Helvetica,sans-Serif" font-size="10.00">+ decipher()</text>
<text text-anchor="start" x="1038" y="-212.5" font-family="Helvetica,sans-Serif" font-size="10.00">+ setNbThread()</text>
<text text-anchor="start" x="1038" y="-201.5" font-family="Helvetica,sans-Serif" font-size="10.00"># BlockCipherModeOfOperation()</text>
<text text-anchor="start" x="1038" y="-190.5" font-family="Helvetica,sans-Serif" font-size="10.00"># ~BlockCipherModeOfOperation()</text>
<text text-anchor="start" x="1038" y="-179.5" font-family="Helvetica,sans-Serif" font-size="10.00"># cipherBlock()</text>
<text text-anchor="start" x="1038" y="-168.5" font-family="Helvetica,sans-Serif" font-size="10.00"># decipherBlock()</text>
<text text-anchor="start" x="1038" y="-157.5" font-family="Helvetica,sans-Serif" font-size="10.00"># reset()</text>
</a>
</g>
</g>
<!-- Node1&#45;&gt;Node12 -->
<g id="edge11" class="edge">
<title>Node1&#45;&gt;Node12</title>
<path fill="none" stroke="orange" d="M701.35,-428.98C780.65,-415.78 890.76,-391.05 979,-347 1000.74,-336.15 1022.19,-321.57 1041.65,-306.38"/>
<polygon fill="orange" stroke="orange" points="701.17,-425.62 691.86,-430.69 702.29,-432.53 701.17,-425.62"/>
<text text-anchor="start" x="1015" y="-339" font-family="Helvetica,sans-Serif" font-size="10.00"> &lt; PCBC&lt; Cipher, Padding</text>
<text text-anchor="middle" x="1079" y="-328" font-family="Helvetica,sans-Serif" font-size="10.00"> &gt;, Cipher &gt;</text>
</g>
<!-- Node3 -->
<g id="node3" class="node">
<title>Node3</title>
<g id="a_node3"><a xlink:href="classanch_1_1crypto_1_1_c_b_c.html" target="_top" xlink:title="Cipher&#45;block chaining implementation.">
<polygon fill="white" stroke="#666666" points="38.5,-0.5 38.5,-112.5 149.5,-112.5 149.5,-0.5 38.5,-0.5"/>
<text text-anchor="start" x="46.5" y="-100.5" font-family="Helvetica,sans-Serif" font-size="10.00">anch::crypto::CBC&lt;</text>
<text text-anchor="middle" x="94" y="-89.5" font-family="Helvetica,sans-Serif" font-size="10.00"> Cipher, Padding &gt;</text>
<polyline fill="none" stroke="#666666" points="38.5,-82.5 149.5,-82.5"/>
<text text-anchor="middle" x="94" y="-70.5" font-family="Helvetica,sans-Serif" font-size="10.00"> </text>
<polyline fill="none" stroke="#666666" points="38.5,-63.5 149.5,-63.5"/>
<text text-anchor="start" x="46.5" y="-51.5" font-family="Helvetica,sans-Serif" font-size="10.00">+ CBC()</text>
<text text-anchor="start" x="46.5" y="-40.5" font-family="Helvetica,sans-Serif" font-size="10.00">+ ~CBC()</text>
<text text-anchor="start" x="46.5" y="-29.5" font-family="Helvetica,sans-Serif" font-size="10.00"># cipherBlock()</text>
<text text-anchor="start" x="46.5" y="-18.5" font-family="Helvetica,sans-Serif" font-size="10.00"># decipherBlock()</text>
<text text-anchor="start" x="46.5" y="-7.5" font-family="Helvetica,sans-Serif" font-size="10.00"># reset()</text>
</a>
</g>
</g>
<!-- Node2&#45;&gt;Node3 -->
<g id="edge2" class="edge">
<title>Node2&#45;&gt;Node3</title>
<path fill="none" stroke="#63b8ff" d="M94,-140.22C94,-130.7 94,-121.23 94,-112.27"/>
<polygon fill="none" stroke="#63b8ff" points="90.5,-139.95 94,-149.95 97.5,-139.95 90.5,-139.95"/>
</g>
<!-- Node5 -->
<g id="node5" class="node">
<title>Node5</title>
<g id="a_node5"><a xlink:href="classanch_1_1crypto_1_1_c_f_b.html" target="_top" xlink:title="Cipher feedback implementation.">
<polygon fill="white" stroke="#666666" points="245,-0.5 245,-112.5 355,-112.5 355,-0.5 245,-0.5"/>
<text text-anchor="start" x="253" y="-100.5" font-family="Helvetica,sans-Serif" font-size="10.00">anch::crypto::CFB&lt;</text>
<text text-anchor="middle" x="300" y="-89.5" font-family="Helvetica,sans-Serif" font-size="10.00"> Cipher &gt;</text>
<polyline fill="none" stroke="#666666" points="245,-82.5 355,-82.5"/>
<text text-anchor="middle" x="300" y="-70.5" font-family="Helvetica,sans-Serif" font-size="10.00"> </text>
<polyline fill="none" stroke="#666666" points="245,-63.5 355,-63.5"/>
<text text-anchor="start" x="253" y="-51.5" font-family="Helvetica,sans-Serif" font-size="10.00">+ CFB()</text>
<text text-anchor="start" x="253" y="-40.5" font-family="Helvetica,sans-Serif" font-size="10.00">+ ~CFB()</text>
<text text-anchor="start" x="253" y="-29.5" font-family="Helvetica,sans-Serif" font-size="10.00"># cipherBlock()</text>
<text text-anchor="start" x="253" y="-18.5" font-family="Helvetica,sans-Serif" font-size="10.00"># decipherBlock()</text>
<text text-anchor="start" x="253" y="-7.5" font-family="Helvetica,sans-Serif" font-size="10.00"># reset()</text>
</a>
</g>
</g>
<!-- Node4&#45;&gt;Node5 -->
<g id="edge4" class="edge">
<title>Node4&#45;&gt;Node5</title>
<path fill="none" stroke="#63b8ff" d="M300,-140.22C300,-130.7 300,-121.23 300,-112.27"/>
<polygon fill="none" stroke="#63b8ff" points="296.5,-139.95 300,-149.95 303.5,-139.95 296.5,-139.95"/>
</g>
<!-- Node7 -->
<g id="node7" class="node">
<title>Node7</title>
<g id="a_node7"><a xlink:href="classanch_1_1crypto_1_1_c_t_r.html" target="_top" xlink:title="Counter implementation.">
<polygon fill="white" stroke="#666666" points="451,-0.5 451,-112.5 561,-112.5 561,-0.5 451,-0.5"/>
<text text-anchor="start" x="459" y="-100.5" font-family="Helvetica,sans-Serif" font-size="10.00">anch::crypto::CTR&lt;</text>
<text text-anchor="middle" x="506" y="-89.5" font-family="Helvetica,sans-Serif" font-size="10.00"> Cipher &gt;</text>
<polyline fill="none" stroke="#666666" points="451,-82.5 561,-82.5"/>
<text text-anchor="middle" x="506" y="-70.5" font-family="Helvetica,sans-Serif" font-size="10.00"> </text>
<polyline fill="none" stroke="#666666" points="451,-63.5 561,-63.5"/>
<text text-anchor="start" x="459" y="-51.5" font-family="Helvetica,sans-Serif" font-size="10.00">+ CTR()</text>
<text text-anchor="start" x="459" y="-40.5" font-family="Helvetica,sans-Serif" font-size="10.00">+ ~CTR()</text>
<text text-anchor="start" x="459" y="-29.5" font-family="Helvetica,sans-Serif" font-size="10.00"># cipherBlock()</text>
<text text-anchor="start" x="459" y="-18.5" font-family="Helvetica,sans-Serif" font-size="10.00"># decipherBlock()</text>
<text text-anchor="start" x="459" y="-7.5" font-family="Helvetica,sans-Serif" font-size="10.00"># reset()</text>
</a>
</g>
</g>
<!-- Node6&#45;&gt;Node7 -->
<g id="edge6" class="edge">
<title>Node6&#45;&gt;Node7</title>
<path fill="none" stroke="#63b8ff" d="M506,-140.22C506,-130.7 506,-121.23 506,-112.27"/>
<polygon fill="none" stroke="#63b8ff" points="502.5,-139.95 506,-149.95 509.5,-139.95 502.5,-139.95"/>
</g>
<!-- Node9 -->
<g id="node9" class="node">
<title>Node9</title>
<g id="a_node9"><a xlink:href="classanch_1_1crypto_1_1_e_c_b.html" target="_top" xlink:title="Electronic codebook implementation.">
<polygon fill="white" stroke="#666666" points="657,-0.5 657,-112.5 767,-112.5 767,-0.5 657,-0.5"/>
<text text-anchor="start" x="665" y="-100.5" font-family="Helvetica,sans-Serif" font-size="10.00">anch::crypto::ECB&lt;</text>
<text text-anchor="middle" x="712" y="-89.5" font-family="Helvetica,sans-Serif" font-size="10.00"> Cipher, Padding &gt;</text>
<polyline fill="none" stroke="#666666" points="657,-82.5 767,-82.5"/>
<text text-anchor="middle" x="712" y="-70.5" font-family="Helvetica,sans-Serif" font-size="10.00"> </text>
<polyline fill="none" stroke="#666666" points="657,-63.5 767,-63.5"/>
<text text-anchor="start" x="665" y="-51.5" font-family="Helvetica,sans-Serif" font-size="10.00">+ ECB()</text>
<text text-anchor="start" x="665" y="-40.5" font-family="Helvetica,sans-Serif" font-size="10.00">+ ~ECB()</text>
<text text-anchor="start" x="665" y="-29.5" font-family="Helvetica,sans-Serif" font-size="10.00"># cipherBlock()</text>
<text text-anchor="start" x="665" y="-18.5" font-family="Helvetica,sans-Serif" font-size="10.00"># decipherBlock()</text>
<text text-anchor="start" x="665" y="-7.5" font-family="Helvetica,sans-Serif" font-size="10.00"># reset()</text>
</a>
</g>
</g>
<!-- Node8&#45;&gt;Node9 -->
<g id="edge8" class="edge">
<title>Node8&#45;&gt;Node9</title>
<path fill="none" stroke="#63b8ff" d="M712,-140.22C712,-130.7 712,-121.23 712,-112.27"/>
<polygon fill="none" stroke="#63b8ff" points="708.5,-139.95 712,-149.95 715.5,-139.95 708.5,-139.95"/>
</g>
<!-- Node11 -->
<g id="node11" class="node">
<title>Node11</title>
<g id="a_node11"><a xlink:href="classanch_1_1crypto_1_1_o_f_b.html" target="_top" xlink:title="Output feedback implementation.">
<polygon fill="white" stroke="#666666" points="862.5,-0.5 862.5,-112.5 973.5,-112.5 973.5,-0.5 862.5,-0.5"/>
<text text-anchor="start" x="870.5" y="-100.5" font-family="Helvetica,sans-Serif" font-size="10.00">anch::crypto::OFB&lt;</text>
<text text-anchor="middle" x="918" y="-89.5" font-family="Helvetica,sans-Serif" font-size="10.00"> Cipher &gt;</text>
<polyline fill="none" stroke="#666666" points="862.5,-82.5 973.5,-82.5"/>
<text text-anchor="middle" x="918" y="-70.5" font-family="Helvetica,sans-Serif" font-size="10.00"> </text>
<polyline fill="none" stroke="#666666" points="862.5,-63.5 973.5,-63.5"/>
<text text-anchor="start" x="870.5" y="-51.5" font-family="Helvetica,sans-Serif" font-size="10.00">+ OFB()</text>
<text text-anchor="start" x="870.5" y="-40.5" font-family="Helvetica,sans-Serif" font-size="10.00">+ ~OFB()</text>
<text text-anchor="start" x="870.5" y="-29.5" font-family="Helvetica,sans-Serif" font-size="10.00"># cipherBlock()</text>
<text text-anchor="start" x="870.5" y="-18.5" font-family="Helvetica,sans-Serif" font-size="10.00"># decipherBlock()</text>
<text text-anchor="start" x="870.5" y="-7.5" font-family="Helvetica,sans-Serif" font-size="10.00"># reset()</text>
</a>
</g>
</g>
<!-- Node10&#45;&gt;Node11 -->
<g id="edge10" class="edge">
<title>Node10&#45;&gt;Node11</title>
<path fill="none" stroke="#63b8ff" d="M918,-140.22C918,-130.7 918,-121.23 918,-112.27"/>
<polygon fill="none" stroke="#63b8ff" points="914.5,-139.95 918,-149.95 921.5,-139.95 914.5,-139.95"/>
</g>
<!-- Node13 -->
<g id="node13" class="node">
<title>Node13</title>
<g id="a_node13"><a xlink:href="classanch_1_1crypto_1_1_p_c_b_c.html" target="_top" xlink:title="Propagating cipher&#45;block chaining implementation.">
<polygon fill="white" stroke="#666666" points="1066.5,-0.5 1066.5,-112.5 1181.5,-112.5 1181.5,-0.5 1066.5,-0.5"/>
<text text-anchor="start" x="1074.5" y="-100.5" font-family="Helvetica,sans-Serif" font-size="10.00">anch::crypto::PCBC</text>
<text text-anchor="middle" x="1124" y="-89.5" font-family="Helvetica,sans-Serif" font-size="10.00">&lt; Cipher, Padding &gt;</text>
<polyline fill="none" stroke="#666666" points="1066.5,-82.5 1181.5,-82.5"/>
<text text-anchor="middle" x="1124" y="-70.5" font-family="Helvetica,sans-Serif" font-size="10.00"> </text>
<polyline fill="none" stroke="#666666" points="1066.5,-63.5 1181.5,-63.5"/>
<text text-anchor="start" x="1074.5" y="-51.5" font-family="Helvetica,sans-Serif" font-size="10.00">+ PCBC()</text>
<text text-anchor="start" x="1074.5" y="-40.5" font-family="Helvetica,sans-Serif" font-size="10.00">+ ~PCBC()</text>
<text text-anchor="start" x="1074.5" y="-29.5" font-family="Helvetica,sans-Serif" font-size="10.00"># cipherBlock()</text>
<text text-anchor="start" x="1074.5" y="-18.5" font-family="Helvetica,sans-Serif" font-size="10.00"># decipherBlock()</text>
<text text-anchor="start" x="1074.5" y="-7.5" font-family="Helvetica,sans-Serif" font-size="10.00"># reset()</text>
</a>
</g>
</g>
<!-- Node12&#45;&gt;Node13 -->
<g id="edge12" class="edge">
<title>Node12&#45;&gt;Node13</title>
<path fill="none" stroke="#63b8ff" d="M1124,-140.22C1124,-130.7 1124,-121.23 1124,-112.27"/>
<polygon fill="none" stroke="#63b8ff" points="1120.5,-139.95 1124,-149.95 1127.5,-139.95 1120.5,-139.95"/>
</g>
</g>
</svg>
