<?xml version="1.0" encoding="UTF-8" standalone="no"?>
<!DOCTYPE svg PUBLIC "-//W3C//DTD SVG 1.1//EN"
 "http://www.w3.org/Graphics/SVG/1.1/DTD/svg11.dtd">
<!-- Generated by graphviz version 8.0.1 (0)
 -->
<!-- Title: anch::sql::PostgreSQLPreparedStatement Pages: 1 -->
<svg width="251pt" height="729pt"
 viewBox="0.00 0.00 251.00 729.00" xmlns="http://www.w3.org/2000/svg" xmlns:xlink="http://www.w3.org/1999/xlink">
<g id="graph0" class="graph" transform="scale(1 1) rotate(0) translate(4 725)">
<title>anch::sql::PostgreSQLPreparedStatement</title>
<!-- Node1 -->
<g id="node1" class="node">
<title>Node1</title>
<g id="a_node1"><a xlink:title="PostgreSQL prepared statement implementation.">
<polygon fill="#999999" stroke="#666666" points="5,-0.5 5,-101.5 199,-101.5 199,-0.5 5,-0.5"/>
<text text-anchor="start" x="13" y="-89.5" font-family="Helvetica,sans-Serif" font-size="10.00">anch::sql::PostgreSQLPrepared</text>
<text text-anchor="middle" x="102" y="-78.5" font-family="Helvetica,sans-Serif" font-size="10.00">Statement</text>
<polyline fill="none" stroke="#666666" points="5,-71.5 199,-71.5"/>
<text text-anchor="middle" x="102" y="-59.5" font-family="Helvetica,sans-Serif" font-size="10.00"> </text>
<polyline fill="none" stroke="#666666" points="5,-52.5 199,-52.5"/>
<text text-anchor="start" x="13" y="-40.5" font-family="Helvetica,sans-Serif" font-size="10.00">+ PostgreSQLPreparedStatement()</text>
<text text-anchor="start" x="13" y="-29.5" font-family="Helvetica,sans-Serif" font-size="10.00">+ ~PostgreSQLPreparedStatement()</text>
<text text-anchor="start" x="13" y="-18.5" font-family="Helvetica,sans-Serif" font-size="10.00">+ executeQuery()</text>
<text text-anchor="start" x="13" y="-7.5" font-family="Helvetica,sans-Serif" font-size="10.00">+ executeUpdate()</text>
</a>
</g>
</g>
<!-- Node2 -->
<g id="node2" class="node">
<title>Node2</title>
<g id="a_node2"><a xlink:href="classanch_1_1sql_1_1_prepared_statement.html" target="_top" xlink:title="SQL prepared statement.">
<polygon fill="white" stroke="#666666" points="21.5,-139.5 21.5,-372.5 182.5,-372.5 182.5,-139.5 21.5,-139.5"/>
<text text-anchor="middle" x="102" y="-360.5" font-family="Helvetica,sans-Serif" font-size="10.00">anch::sql::PreparedStatement</text>
<polyline fill="none" stroke="#666666" points="21.5,-353.5 182.5,-353.5"/>
<text text-anchor="start" x="29.5" y="-341.5" font-family="Helvetica,sans-Serif" font-size="10.00"># _nbPlaceholders</text>
<polyline fill="none" stroke="#666666" points="21.5,-334.5 182.5,-334.5"/>
<text text-anchor="start" x="29.5" y="-322.5" font-family="Helvetica,sans-Serif" font-size="10.00">+ PreparedStatement()</text>
<text text-anchor="start" x="29.5" y="-311.5" font-family="Helvetica,sans-Serif" font-size="10.00">+ ~PreparedStatement()</text>
<text text-anchor="start" x="29.5" y="-300.5" font-family="Helvetica,sans-Serif" font-size="10.00">+ executeQuery()</text>
<text text-anchor="start" x="29.5" y="-289.5" font-family="Helvetica,sans-Serif" font-size="10.00">+ executeUpdate()</text>
<text text-anchor="start" x="29.5" y="-278.5" font-family="Helvetica,sans-Serif" font-size="10.00">+ set()</text>
<text text-anchor="start" x="29.5" y="-267.5" font-family="Helvetica,sans-Serif" font-size="10.00">+ set()</text>
<text text-anchor="start" x="29.5" y="-256.5" font-family="Helvetica,sans-Serif" font-size="10.00">+ set()</text>
<text text-anchor="start" x="29.5" y="-245.5" font-family="Helvetica,sans-Serif" font-size="10.00">+ set()</text>
<text text-anchor="start" x="29.5" y="-234.5" font-family="Helvetica,sans-Serif" font-size="10.00">+ set()</text>
<text text-anchor="start" x="29.5" y="-223.5" font-family="Helvetica,sans-Serif" font-size="10.00">+ set()</text>
<text text-anchor="start" x="29.5" y="-212.5" font-family="Helvetica,sans-Serif" font-size="10.00">+ set()</text>
<text text-anchor="start" x="29.5" y="-201.5" font-family="Helvetica,sans-Serif" font-size="10.00">+ set()</text>
<text text-anchor="start" x="29.5" y="-190.5" font-family="Helvetica,sans-Serif" font-size="10.00">+ set()</text>
<text text-anchor="start" x="29.5" y="-179.5" font-family="Helvetica,sans-Serif" font-size="10.00">+ set()</text>
<text text-anchor="start" x="29.5" y="-168.5" font-family="Helvetica,sans-Serif" font-size="10.00">+ set()</text>
<text text-anchor="start" x="29.5" y="-157.5" font-family="Helvetica,sans-Serif" font-size="10.00"># getPlaceholders()</text>
<text text-anchor="start" x="29.5" y="-146.5" font-family="Helvetica,sans-Serif" font-size="10.00"># checkIndex()</text>
</a>
</g>
</g>
<!-- Node2&#45;&gt;Node1 -->
<g id="edge1" class="edge">
<title>Node2&#45;&gt;Node1</title>
<path fill="none" stroke="#63b8ff" d="M102,-128.67C102,-119.13 102,-109.89 102,-101.34"/>
<polygon fill="none" stroke="#63b8ff" points="98.5,-128.56 102,-138.56 105.5,-128.56 98.5,-128.56"/>
</g>
<!-- Node3 -->
<g id="node3" class="node">
<title>Node3</title>
<g id="a_node3"><a xlink:title=" ">
<polygon fill="white" stroke="#666666" points="46.5,-420.5 46.5,-488.5 157.5,-488.5 157.5,-420.5 46.5,-420.5"/>
<text text-anchor="start" x="54.5" y="-476.5" font-family="Helvetica,sans-Serif" font-size="10.00">std::map&lt; std::size</text>
<text text-anchor="middle" x="102" y="-465.5" font-family="Helvetica,sans-Serif" font-size="10.00">_t, std::string &gt;</text>
<polyline fill="none" stroke="#666666" points="46.5,-458.5 157.5,-458.5"/>
<text text-anchor="start" x="54.5" y="-446.5" font-family="Helvetica,sans-Serif" font-size="10.00">+ keys</text>
<polyline fill="none" stroke="#666666" points="46.5,-439.5 157.5,-439.5"/>
<text text-anchor="middle" x="102" y="-427.5" font-family="Helvetica,sans-Serif" font-size="10.00"> </text>
</a>
</g>
</g>
<!-- Node3&#45;&gt;Node2 -->
<g id="edge2" class="edge">
<title>Node3&#45;&gt;Node2</title>
<path fill="none" stroke="#404040" d="M102,-420.61C102,-410.18 102,-397.95 102,-384.95"/>
<polygon fill="none" stroke="#404040" points="102,-385.19 98,-379.19 102,-373.19 106,-379.19 102,-385.19"/>
<text text-anchor="middle" x="126.5" y="-394" font-family="Helvetica,sans-Serif" font-size="10.00"> #_values</text>
</g>
<!-- Node4 -->
<g id="node4" class="node">
<title>Node4</title>
<g id="a_node4"><a xlink:title=" ">
<polygon fill="white" stroke="#666666" points="19.5,-547.5 19.5,-604.5 84.5,-604.5 84.5,-547.5 19.5,-547.5"/>
<text text-anchor="middle" x="52" y="-592.5" font-family="Helvetica,sans-Serif" font-size="10.00">std::string</text>
<polyline fill="none" stroke="#666666" points="19.5,-585.5 84.5,-585.5"/>
<text text-anchor="middle" x="52" y="-573.5" font-family="Helvetica,sans-Serif" font-size="10.00"> </text>
<polyline fill="none" stroke="#666666" points="19.5,-566.5 84.5,-566.5"/>
<text text-anchor="middle" x="52" y="-554.5" font-family="Helvetica,sans-Serif" font-size="10.00"> </text>
</a>
</g>
</g>
<!-- Node4&#45;&gt;Node3 -->
<g id="edge3" class="edge">
<title>Node4&#45;&gt;Node3</title>
<path fill="none" stroke="#404040" d="M56.12,-547.82C58.62,-535.09 62.43,-519.92 68,-507 69.06,-504.54 70.24,-502.07 71.5,-499.62"/>
<polygon fill="none" stroke="#404040" points="71.54,-499.55 71.01,-492.36 77.45,-489.11 77.97,-496.31 71.54,-499.55"/>
<text text-anchor="middle" x="97" y="-515.5" font-family="Helvetica,sans-Serif" font-size="10.00"> +elements</text>
</g>
<!-- Node5 -->
<g id="node5" class="node">
<title>Node5</title>
<g id="a_node5"><a xlink:title=" ">
<polygon fill="white" stroke="#666666" points="0,-652.5 0,-720.5 104,-720.5 104,-652.5 0,-652.5"/>
<text text-anchor="start" x="8" y="-708.5" font-family="Helvetica,sans-Serif" font-size="10.00">std::basic_string&lt;</text>
<text text-anchor="middle" x="52" y="-697.5" font-family="Helvetica,sans-Serif" font-size="10.00"> Char &gt;</text>
<polyline fill="none" stroke="#666666" points="0,-690.5 104,-690.5"/>
<text text-anchor="middle" x="52" y="-678.5" font-family="Helvetica,sans-Serif" font-size="10.00"> </text>
<polyline fill="none" stroke="#666666" points="0,-671.5 104,-671.5"/>
<text text-anchor="middle" x="52" y="-659.5" font-family="Helvetica,sans-Serif" font-size="10.00"> </text>
</a>
</g>
</g>
<!-- Node5&#45;&gt;Node4 -->
<g id="edge4" class="edge">
<title>Node5&#45;&gt;Node4</title>
<path fill="none" stroke="#63b8ff" d="M52,-641.79C52,-629.1 52,-615.62 52,-604.26"/>
<polygon fill="none" stroke="#63b8ff" points="48.5,-641.65 52,-651.65 55.5,-641.65 48.5,-641.65"/>
</g>
<!-- Node6 -->
<g id="node6" class="node">
<title>Node6</title>
<g id="a_node6"><a xlink:title=" ">
<polygon fill="white" stroke="#666666" points="102.5,-547.5 102.5,-604.5 203.5,-604.5 203.5,-547.5 102.5,-547.5"/>
<text text-anchor="middle" x="153" y="-592.5" font-family="Helvetica,sans-Serif" font-size="10.00">std::map&lt; K, T &gt;</text>
<polyline fill="none" stroke="#666666" points="102.5,-585.5 203.5,-585.5"/>
<text text-anchor="middle" x="153" y="-573.5" font-family="Helvetica,sans-Serif" font-size="10.00"> </text>
<polyline fill="none" stroke="#666666" points="102.5,-566.5 203.5,-566.5"/>
<text text-anchor="middle" x="153" y="-554.5" font-family="Helvetica,sans-Serif" font-size="10.00"> </text>
</a>
</g>
</g>
<!-- Node6&#45;&gt;Node3 -->
<g id="edge5" class="edge">
<title>Node6&#45;&gt;Node3</title>
<path fill="none" stroke="orange" d="M138.62,-537.64C134.65,-527.64 130.25,-516.87 126,-507 123.38,-500.93 120.49,-494.51 117.65,-488.34"/>
<polygon fill="orange" stroke="orange" points="135.67,-538.7 142.59,-546.72 142.18,-536.13 135.67,-538.7"/>
<text text-anchor="start" x="135" y="-521" font-family="Helvetica,sans-Serif" font-size="10.00"> &lt; std::size_t, std</text>
<text text-anchor="middle" x="177.5" y="-510" font-family="Helvetica,sans-Serif" font-size="10.00">::string &gt;</text>
</g>
<!-- Node7 -->
<g id="node7" class="node">
<title>Node7</title>
<g id="a_node7"><a xlink:title=" ">
<polygon fill="white" stroke="#bfbfbf" points="130.5,-658 130.5,-715 159.5,-715 159.5,-658 130.5,-658"/>
<text text-anchor="middle" x="145" y="-703" font-family="Helvetica,sans-Serif" font-size="10.00">K</text>
<polyline fill="none" stroke="#bfbfbf" points="130.5,-696 159.5,-696"/>
<text text-anchor="middle" x="145" y="-684" font-family="Helvetica,sans-Serif" font-size="10.00"> </text>
<polyline fill="none" stroke="#bfbfbf" points="130.5,-677 159.5,-677"/>
<text text-anchor="middle" x="145" y="-665" font-family="Helvetica,sans-Serif" font-size="10.00"> </text>
</a>
</g>
</g>
<!-- Node7&#45;&gt;Node6 -->
<g id="edge6" class="edge">
<title>Node7&#45;&gt;Node6</title>
<path fill="none" stroke="#404040" d="M144.64,-658.08C144.7,-647.15 145.04,-634.46 146,-623 146.17,-620.99 146.37,-618.94 146.6,-616.87"/>
<polygon fill="none" stroke="#404040" points="146.58,-616.96 143.39,-610.5 148.13,-605.06 151.32,-611.53 146.58,-616.96"/>
<text text-anchor="middle" x="163" y="-626" font-family="Helvetica,sans-Serif" font-size="10.00"> +keys</text>
</g>
<!-- Node8 -->
<g id="node8" class="node">
<title>Node8</title>
<g id="a_node8"><a xlink:title=" ">
<polygon fill="white" stroke="#bfbfbf" points="187.5,-658 187.5,-715 216.5,-715 216.5,-658 187.5,-658"/>
<text text-anchor="middle" x="202" y="-703" font-family="Helvetica,sans-Serif" font-size="10.00">T</text>
<polyline fill="none" stroke="#bfbfbf" points="187.5,-696 216.5,-696"/>
<text text-anchor="middle" x="202" y="-684" font-family="Helvetica,sans-Serif" font-size="10.00"> </text>
<polyline fill="none" stroke="#bfbfbf" points="187.5,-677 216.5,-677"/>
<text text-anchor="middle" x="202" y="-665" font-family="Helvetica,sans-Serif" font-size="10.00"> </text>
</a>
</g>
</g>
<!-- Node8&#45;&gt;Node6 -->
<g id="edge7" class="edge">
<title>Node8&#45;&gt;Node6</title>
<path fill="none" stroke="#404040" d="M193.69,-658.28C189.96,-647.15 185.23,-634.27 180,-623 178.87,-620.57 177.66,-618.11 176.38,-615.64"/>
<polygon fill="none" stroke="#404040" points="176.35,-615.58 169.96,-612.24 170.59,-605.06 176.98,-608.4 176.35,-615.58"/>
<text text-anchor="middle" x="214" y="-626" font-family="Helvetica,sans-Serif" font-size="10.00"> +elements</text>
</g>
</g>
</svg>
