<?xml version="1.0" encoding="UTF-8" standalone="no"?>
<!DOCTYPE svg PUBLIC "-//W3C//DTD SVG 1.1//EN"
 "http://www.w3.org/Graphics/SVG/1.1/DTD/svg11.dtd">
<!-- Generated by graphviz version 12.1.2 (0)
 -->
<!-- Title: anch::json::MappingError Pages: 1 -->
<svg width="126pt" height="212pt"
 viewBox="0.00 0.00 126.00 212.00" xmlns="http://www.w3.org/2000/svg" xmlns:xlink="http://www.w3.org/1999/xlink">
<g id="graph0" class="graph" transform="scale(1 1) rotate(0) translate(4 208)">
<title>anch::json::MappingError</title>
<!-- Node1 -->
<g id="Node000001" class="node">
<title>Node1</title>
<g id="a_Node000001"><a xlink:title="Mapping error.">
<polygon fill="#999999" stroke="none" points="118,-116 0,-116 0,0 118,0 118,-116"/>
<text text-anchor="start" x="4.62" y="-102.5" font-family="Helvetica,sans-Serif" font-size="10.00">anch::json::MappingError</text>
<text text-anchor="start" x="57.5" y="-86.5" font-family="Helvetica,sans-Serif" font-size="10.00"> </text>
<text text-anchor="start" x="11.5" y="-70.5" font-family="Helvetica,sans-Serif" font-size="10.00">+</text>
<text text-anchor="start" x="29" y="-70.5" font-family="Helvetica,sans-Serif" font-size="10.00">MappingError()</text>
<text text-anchor="start" x="11.5" y="-54.5" font-family="Helvetica,sans-Serif" font-size="10.00">+</text>
<text text-anchor="start" x="29" y="-54.5" font-family="Helvetica,sans-Serif" font-size="10.00">MappingError()</text>
<text text-anchor="start" x="11.5" y="-38.5" font-family="Helvetica,sans-Serif" font-size="10.00">+</text>
<text text-anchor="start" x="29" y="-38.5" font-family="Helvetica,sans-Serif" font-size="10.00">~MappingError()</text>
<text text-anchor="start" x="11.5" y="-22.5" font-family="Helvetica,sans-Serif" font-size="10.00">+</text>
<text text-anchor="start" x="29" y="-22.5" font-family="Helvetica,sans-Serif" font-size="10.00">what()</text>
<text text-anchor="start" x="11.5" y="-6.5" font-family="Helvetica,sans-Serif" font-size="10.00">+</text>
<text text-anchor="start" x="29" y="-6.5" font-family="Helvetica,sans-Serif" font-size="10.00">getErrorCode()</text>
<polygon fill="#666666" stroke="#666666" points="0,-98 0,-98 118,-98 118,-98 0,-98"/>
<polygon fill="#666666" stroke="#666666" points="0,-82 0,-82 118,-82 118,-82 0,-82"/>
<polygon fill="none" stroke="#666666" points="0,0 0,-116 118,-116 118,0 0,0"/>
</a>
</g>
</g>
<!-- Node2 -->
<g id="Node000002" class="node">
<title>Node2</title>
<g id="a_Node000002"><a xlink:title=" ">
<polygon fill="white" stroke="none" points="94.5,-204 23.5,-204 23.5,-152 94.5,-152 94.5,-204"/>
<text text-anchor="start" x="28.25" y="-190.5" font-family="Helvetica,sans-Serif" font-size="10.00">std::exception</text>
<text text-anchor="start" x="57.5" y="-174.5" font-family="Helvetica,sans-Serif" font-size="10.00"> </text>
<text text-anchor="start" x="57.5" y="-158.5" font-family="Helvetica,sans-Serif" font-size="10.00"> </text>
<polygon fill="#666666" stroke="#666666" points="23.5,-186 23.5,-186 94.5,-186 94.5,-186 23.5,-186"/>
<polygon fill="#666666" stroke="#666666" points="23.5,-170 23.5,-170 94.5,-170 94.5,-170 23.5,-170"/>
<polygon fill="none" stroke="#666666" points="23.5,-152 23.5,-204 94.5,-204 94.5,-152 23.5,-152"/>
</a>
</g>
</g>
<!-- Node2&#45;&gt;Node1 -->
<g id="edge1_Node000001_Node000002" class="edge">
<title>Node2&#45;&gt;Node1</title>
<g id="a_edge1_Node000001_Node000002"><a xlink:title=" ">
<path fill="none" stroke="#63b8ff" d="M59,-140.82C59,-132.89 59,-124.31 59,-115.79"/>
<polygon fill="none" stroke="#63b8ff" points="55.5,-140.75 59,-150.75 62.5,-140.75 55.5,-140.75"/>
</a>
</g>
</g>
</g>
</svg>
