<?xml version="1.0" encoding="UTF-8" standalone="no"?>
<!DOCTYPE svg PUBLIC "-//W3C//DTD SVG 1.1//EN"
 "http://www.w3.org/Graphics/SVG/1.1/DTD/svg11.dtd">
<!-- Generated by graphviz version 2.49.3 (0)
 -->
<!-- Title: anch::Singleton&lt; T &gt; Pages: 1 -->
<svg width="875pt" height="365pt"
 viewBox="0.00 0.00 874.50 365.00" xmlns="http://www.w3.org/2000/svg" xmlns:xlink="http://www.w3.org/1999/xlink">
<g id="graph0" class="graph" transform="scale(1 1) rotate(0) translate(4 361)">
<title>anch::Singleton&lt; T &gt;</title>
<!-- Node1 -->
<g id="node1" class="node">
<title>Node1</title>
<g id="a_node1"><a xlink:title="Meyers&#39; singleton implemtation.">
<polygon fill="#bfbfbf" stroke="black" points="351,-299.5 351,-356.5 471,-356.5 471,-299.5 351,-299.5"/>
<text text-anchor="middle" x="411" y="-344.5" font-family="Helvetica,sans-Serif" font-size="10.00">anch::Singleton&lt; T &gt;</text>
<polyline fill="none" stroke="black" points="351,-337.5 471,-337.5 "/>
<text text-anchor="middle" x="411" y="-325.5" font-family="Helvetica,sans-Serif" font-size="10.00"> </text>
<polyline fill="none" stroke="black" points="351,-318.5 471,-318.5 "/>
<text text-anchor="start" x="359" y="-306.5" font-family="Helvetica,sans-Serif" font-size="10.00">+ getInstance()</text>
</a>
</g>
</g>
<!-- Node2 -->
<g id="node2" class="node">
<title>Node2</title>
<g id="a_node2"><a xlink:href="classanch_1_1_singleton.html" target="_top" xlink:title=" ">
<polygon fill="none" stroke="black" points="0,-189 0,-246 134,-246 134,-189 0,-189"/>
<text text-anchor="middle" x="67" y="-234" font-family="Helvetica,sans-Serif" font-size="10.00">anch::Singleton&lt; CPU &gt;</text>
<polyline fill="none" stroke="black" points="0,-227 134,-227 "/>
<text text-anchor="middle" x="67" y="-215" font-family="Helvetica,sans-Serif" font-size="10.00"> </text>
<polyline fill="none" stroke="black" points="0,-208 134,-208 "/>
<text text-anchor="start" x="8" y="-196" font-family="Helvetica,sans-Serif" font-size="10.00">+ getInstance()</text>
</a>
</g>
</g>
<!-- Node1&#45;&gt;Node2 -->
<g id="edge1" class="edge">
<title>Node1&#45;&gt;Node2</title>
<path fill="none" stroke="orange" d="M341.05,-311.78C305.46,-303.55 261.66,-292.7 223,-281 186.8,-270.05 178.1,-266.08 143,-252 138.32,-250.12 133.49,-248.13 128.65,-246.09"/>
<polygon fill="orange" stroke="orange" points="340.33,-315.2 350.86,-314.02 341.9,-308.38 340.33,-315.2"/>
<text text-anchor="middle" x="246" y="-273" font-family="Helvetica,sans-Serif" font-size="10.00"> &lt; CPU &gt;</text>
</g>
<!-- Node4 -->
<g id="node4" class="node">
<title>Node4</title>
<g id="a_node4"><a xlink:href="classanch_1_1_singleton.html" target="_top" xlink:title=" ">
<polygon fill="none" stroke="black" points="152.5,-183.5 152.5,-251.5 301.5,-251.5 301.5,-183.5 152.5,-183.5"/>
<text text-anchor="start" x="160.5" y="-239.5" font-family="Helvetica,sans-Serif" font-size="10.00">anch::Singleton&lt; EventBus</text>
<text text-anchor="middle" x="227" y="-228.5" font-family="Helvetica,sans-Serif" font-size="10.00">&lt; Event &gt; &gt;</text>
<polyline fill="none" stroke="black" points="152.5,-221.5 301.5,-221.5 "/>
<text text-anchor="middle" x="227" y="-209.5" font-family="Helvetica,sans-Serif" font-size="10.00"> </text>
<polyline fill="none" stroke="black" points="152.5,-202.5 301.5,-202.5 "/>
<text text-anchor="start" x="160.5" y="-190.5" font-family="Helvetica,sans-Serif" font-size="10.00">+ getInstance()</text>
</a>
</g>
</g>
<!-- Node1&#45;&gt;Node4 -->
<g id="edge3" class="edge">
<title>Node1&#45;&gt;Node4</title>
<path fill="none" stroke="orange" d="M341.28,-308.15C322.15,-301.25 302.01,-292.3 285,-281 273.04,-273.05 261.82,-262.16 252.49,-251.69"/>
<polygon fill="orange" stroke="orange" points="340.27,-311.5 350.87,-311.46 342.56,-304.89 340.27,-311.5"/>
<text text-anchor="middle" x="346" y="-273" font-family="Helvetica,sans-Serif" font-size="10.00"> &lt; EventBus&lt; Event &gt; &gt;</text>
</g>
<!-- Node6 -->
<g id="node6" class="node">
<title>Node6</title>
<g id="a_node6"><a xlink:href="classanch_1_1_singleton.html" target="_top" xlink:title=" ">
<polygon fill="none" stroke="black" points="320,-189 320,-246 502,-246 502,-189 320,-189"/>
<text text-anchor="middle" x="411" y="-234" font-family="Helvetica,sans-Serif" font-size="10.00">anch::Singleton&lt; LoggerFactory &gt;</text>
<polyline fill="none" stroke="black" points="320,-227 502,-227 "/>
<text text-anchor="middle" x="411" y="-215" font-family="Helvetica,sans-Serif" font-size="10.00"> </text>
<polyline fill="none" stroke="black" points="320,-208 502,-208 "/>
<text text-anchor="start" x="328" y="-196" font-family="Helvetica,sans-Serif" font-size="10.00">+ getInstance()</text>
</a>
</g>
</g>
<!-- Node1&#45;&gt;Node6 -->
<g id="edge5" class="edge">
<title>Node1&#45;&gt;Node6</title>
<path fill="none" stroke="orange" d="M411,-288.94C411,-274.83 411,-259.11 411,-246.11"/>
<polygon fill="orange" stroke="orange" points="407.5,-289.34 411,-299.34 414.5,-289.34 407.5,-289.34"/>
<text text-anchor="middle" x="458" y="-273" font-family="Helvetica,sans-Serif" font-size="10.00"> &lt; LoggerFactory &gt;</text>
</g>
<!-- Node8 -->
<g id="node8" class="node">
<title>Node8</title>
<g id="a_node8"><a xlink:href="classanch_1_1_singleton.html" target="_top" xlink:title=" ">
<polygon fill="none" stroke="black" points="520.5,-183.5 520.5,-251.5 675.5,-251.5 675.5,-183.5 520.5,-183.5"/>
<text text-anchor="start" x="528.5" y="-239.5" font-family="Helvetica,sans-Serif" font-size="10.00">anch::Singleton&lt; SQLShared</text>
<text text-anchor="middle" x="598" y="-228.5" font-family="Helvetica,sans-Serif" font-size="10.00">Libraries &gt;</text>
<polyline fill="none" stroke="black" points="520.5,-221.5 675.5,-221.5 "/>
<text text-anchor="middle" x="598" y="-209.5" font-family="Helvetica,sans-Serif" font-size="10.00"> </text>
<polyline fill="none" stroke="black" points="520.5,-202.5 675.5,-202.5 "/>
<text text-anchor="start" x="528.5" y="-190.5" font-family="Helvetica,sans-Serif" font-size="10.00">+ getInstance()</text>
</a>
</g>
</g>
<!-- Node1&#45;&gt;Node8 -->
<g id="edge7" class="edge">
<title>Node1&#45;&gt;Node8</title>
<path fill="none" stroke="orange" d="M480.47,-296.23C490.19,-291.4 499.94,-286.25 509,-281 524.19,-272.19 540.09,-261.53 554.18,-251.53"/>
<polygon fill="orange" stroke="orange" points="478.63,-293.23 471.18,-300.76 481.71,-299.52 478.63,-293.23"/>
<text text-anchor="middle" x="587.5" y="-273" font-family="Helvetica,sans-Serif" font-size="10.00"> &lt; SQLSharedLibraries &gt;</text>
</g>
<!-- Node10 -->
<g id="node10" class="node">
<title>Node10</title>
<g id="a_node10"><a xlink:href="classanch_1_1_singleton.html" target="_top" xlink:title=" ">
<polygon fill="none" stroke="black" points="693.5,-183.5 693.5,-251.5 866.5,-251.5 866.5,-183.5 693.5,-183.5"/>
<text text-anchor="start" x="701.5" y="-239.5" font-family="Helvetica,sans-Serif" font-size="10.00">anch::Singleton&lt; SqlConnection</text>
<text text-anchor="middle" x="780" y="-228.5" font-family="Helvetica,sans-Serif" font-size="10.00">Factory &gt;</text>
<polyline fill="none" stroke="black" points="693.5,-221.5 866.5,-221.5 "/>
<text text-anchor="middle" x="780" y="-209.5" font-family="Helvetica,sans-Serif" font-size="10.00"> </text>
<polyline fill="none" stroke="black" points="693.5,-202.5 866.5,-202.5 "/>
<text text-anchor="start" x="701.5" y="-190.5" font-family="Helvetica,sans-Serif" font-size="10.00">+ getInstance()</text>
</a>
</g>
</g>
<!-- Node1&#45;&gt;Node10 -->
<g id="edge9" class="edge">
<title>Node1&#45;&gt;Node10</title>
<path fill="none" stroke="orange" d="M481.18,-318.62C529.95,-311.6 595.97,-299.66 652,-281 675.11,-273.3 699.39,-262.28 720.51,-251.62"/>
<polygon fill="orange" stroke="orange" points="480.47,-315.19 471.05,-320.05 481.44,-322.12 480.47,-315.19"/>
<text text-anchor="middle" x="743.5" y="-273" font-family="Helvetica,sans-Serif" font-size="10.00"> &lt; SqlConnectionFactory &gt;</text>
</g>
<!-- Node3 -->
<g id="node3" class="node">
<title>Node3</title>
<g id="a_node3"><a xlink:href="classanch_1_1device_1_1_c_p_u.html" target="_top" xlink:title="CPU features detection.">
<polygon fill="none" stroke="black" points="15,-0.5 15,-145.5 119,-145.5 119,-0.5 15,-0.5"/>
<text text-anchor="middle" x="67" y="-133.5" font-family="Helvetica,sans-Serif" font-size="10.00">anch::device::CPU</text>
<polyline fill="none" stroke="black" points="15,-126.5 119,-126.5 "/>
<text text-anchor="middle" x="67" y="-114.5" font-family="Helvetica,sans-Serif" font-size="10.00"> </text>
<polyline fill="none" stroke="black" points="15,-107.5 119,-107.5 "/>
<text text-anchor="start" x="23" y="-95.5" font-family="Helvetica,sans-Serif" font-size="10.00">+ isAES()</text>
<text text-anchor="start" x="23" y="-84.5" font-family="Helvetica,sans-Serif" font-size="10.00">+ isMMX()</text>
<text text-anchor="start" x="23" y="-73.5" font-family="Helvetica,sans-Serif" font-size="10.00">+ isSSE()</text>
<text text-anchor="start" x="23" y="-62.5" font-family="Helvetica,sans-Serif" font-size="10.00">+ isSSE2()</text>
<text text-anchor="start" x="23" y="-51.5" font-family="Helvetica,sans-Serif" font-size="10.00">+ isSSE3()</text>
<text text-anchor="start" x="23" y="-40.5" font-family="Helvetica,sans-Serif" font-size="10.00">+ isSSSE3()</text>
<text text-anchor="start" x="23" y="-29.5" font-family="Helvetica,sans-Serif" font-size="10.00">+ isSSE4()</text>
<text text-anchor="start" x="23" y="-18.5" font-family="Helvetica,sans-Serif" font-size="10.00">+ isSSE4_1()</text>
<text text-anchor="start" x="23" y="-7.5" font-family="Helvetica,sans-Serif" font-size="10.00">+ isSSE4_2()</text>
</a>
</g>
</g>
<!-- Node2&#45;&gt;Node3 -->
<g id="edge2" class="edge">
<title>Node2&#45;&gt;Node3</title>
<path fill="none" stroke="midnightblue" d="M67,-178.52C67,-168.3 67,-156.91 67,-145.51"/>
<polygon fill="none" stroke="midnightblue" points="63.5,-178.69 67,-188.69 70.5,-178.69 63.5,-178.69"/>
</g>
<!-- Node5 -->
<g id="node5" class="node">
<title>Node5</title>
<g id="a_node5"><a xlink:href="classanch_1_1events_1_1_event_bus.html" target="_top" xlink:title="A class which manage global events firing and events QoS.">
<polygon fill="none" stroke="black" points="161.5,-0.5 161.5,-145.5 292.5,-145.5 292.5,-0.5 161.5,-0.5"/>
<text text-anchor="start" x="169.5" y="-133.5" font-family="Helvetica,sans-Serif" font-size="10.00">anch::events::EventBus</text>
<text text-anchor="middle" x="227" y="-122.5" font-family="Helvetica,sans-Serif" font-size="10.00">&lt; Event &gt;</text>
<polyline fill="none" stroke="black" points="161.5,-115.5 292.5,-115.5 "/>
<text text-anchor="middle" x="227" y="-103.5" font-family="Helvetica,sans-Serif" font-size="10.00"> </text>
<polyline fill="none" stroke="black" points="161.5,-96.5 292.5,-96.5 "/>
<text text-anchor="start" x="169.5" y="-84.5" font-family="Helvetica,sans-Serif" font-size="10.00">+ addObserver()</text>
<text text-anchor="start" x="169.5" y="-73.5" font-family="Helvetica,sans-Serif" font-size="10.00">+ removeObserver()</text>
<text text-anchor="start" x="169.5" y="-62.5" font-family="Helvetica,sans-Serif" font-size="10.00">+ fireEvent()</text>
<text text-anchor="start" x="169.5" y="-51.5" font-family="Helvetica,sans-Serif" font-size="10.00">+ scheduleDeferred()</text>
<text text-anchor="start" x="169.5" y="-40.5" font-family="Helvetica,sans-Serif" font-size="10.00">+ AddObserver()</text>
<text text-anchor="start" x="169.5" y="-29.5" font-family="Helvetica,sans-Serif" font-size="10.00">+ RemoveObserver()</text>
<text text-anchor="start" x="169.5" y="-18.5" font-family="Helvetica,sans-Serif" font-size="10.00">+ FireEvent()</text>
<text text-anchor="start" x="169.5" y="-7.5" font-family="Helvetica,sans-Serif" font-size="10.00">+ ScheduleDeferred()</text>
</a>
</g>
</g>
<!-- Node4&#45;&gt;Node5 -->
<g id="edge4" class="edge">
<title>Node4&#45;&gt;Node5</title>
<path fill="none" stroke="midnightblue" d="M227,-173.19C227,-164.48 227,-155.11 227,-145.72"/>
<polygon fill="none" stroke="midnightblue" points="223.5,-173.45 227,-183.45 230.5,-173.45 223.5,-173.45"/>
</g>
<!-- Node7 -->
<g id="node7" class="node">
<title>Node7</title>
<g id="a_node7"><a xlink:href="classanch_1_1logger_1_1_logger_factory.html" target="_top" xlink:title="Logger factory.">
<polygon fill="none" stroke="black" points="335.5,-44.5 335.5,-101.5 486.5,-101.5 486.5,-44.5 335.5,-44.5"/>
<text text-anchor="middle" x="411" y="-89.5" font-family="Helvetica,sans-Serif" font-size="10.00">anch::logger::LoggerFactory</text>
<polyline fill="none" stroke="black" points="335.5,-82.5 486.5,-82.5 "/>
<text text-anchor="middle" x="411" y="-70.5" font-family="Helvetica,sans-Serif" font-size="10.00"> </text>
<polyline fill="none" stroke="black" points="335.5,-63.5 486.5,-63.5 "/>
<text text-anchor="start" x="343.5" y="-51.5" font-family="Helvetica,sans-Serif" font-size="10.00">+ getLogger()</text>
</a>
</g>
</g>
<!-- Node6&#45;&gt;Node7 -->
<g id="edge6" class="edge">
<title>Node6&#45;&gt;Node7</title>
<path fill="none" stroke="midnightblue" d="M411,-178.45C411,-154.3 411,-123.6 411,-101.74"/>
<polygon fill="none" stroke="midnightblue" points="407.5,-178.69 411,-188.69 414.5,-178.69 407.5,-178.69"/>
</g>
<!-- Node9 -->
<g id="node9" class="node">
<title>Node9</title>
<g id="a_node9"><a xlink:href="classanch_1_1sql_1_1_s_q_l_shared_libraries.html" target="_top" xlink:title="SQL shared libraries manager.">
<polygon fill="none" stroke="black" points="517.5,-17 517.5,-129 678.5,-129 678.5,-17 517.5,-17"/>
<text text-anchor="middle" x="598" y="-117" font-family="Helvetica,sans-Serif" font-size="10.00">anch::sql::SQLSharedLibraries</text>
<polyline fill="none" stroke="black" points="517.5,-110 678.5,-110 "/>
<text text-anchor="middle" x="598" y="-98" font-family="Helvetica,sans-Serif" font-size="10.00"> </text>
<polyline fill="none" stroke="black" points="517.5,-91 678.5,-91 "/>
<text text-anchor="start" x="525.5" y="-79" font-family="Helvetica,sans-Serif" font-size="10.00">+ registerSQLLibrary()</text>
<text text-anchor="start" x="525.5" y="-68" font-family="Helvetica,sans-Serif" font-size="10.00">+ makeSharedConnection()</text>
<text text-anchor="start" x="525.5" y="-57" font-family="Helvetica,sans-Serif" font-size="10.00">+ makeConnection()</text>
<text text-anchor="start" x="525.5" y="-46" font-family="Helvetica,sans-Serif" font-size="10.00">+ registerMySQL()</text>
<text text-anchor="start" x="525.5" y="-35" font-family="Helvetica,sans-Serif" font-size="10.00">+ registerPostgreSQL()</text>
<text text-anchor="start" x="525.5" y="-24" font-family="Helvetica,sans-Serif" font-size="10.00">+ registerSQLite()</text>
</a>
</g>
</g>
<!-- Node8&#45;&gt;Node9 -->
<g id="edge8" class="edge">
<title>Node8&#45;&gt;Node9</title>
<path fill="none" stroke="midnightblue" d="M598,-173.21C598,-159.35 598,-143.8 598,-129.2"/>
<polygon fill="none" stroke="midnightblue" points="594.5,-173.45 598,-183.45 601.5,-173.45 594.5,-173.45"/>
</g>
<!-- Node11 -->
<g id="node11" class="node">
<title>Node11</title>
<g id="a_node11"><a xlink:href="classanch_1_1sql_1_1_sql_connection_factory.html" target="_top" xlink:title="SQL connection factory.">
<polygon fill="none" stroke="black" points="712,-33.5 712,-112.5 848,-112.5 848,-33.5 712,-33.5"/>
<text text-anchor="start" x="720" y="-100.5" font-family="Helvetica,sans-Serif" font-size="10.00">anch::sql::SqlConnection</text>
<text text-anchor="middle" x="780" y="-89.5" font-family="Helvetica,sans-Serif" font-size="10.00">Factory</text>
<polyline fill="none" stroke="black" points="712,-82.5 848,-82.5 "/>
<text text-anchor="middle" x="780" y="-70.5" font-family="Helvetica,sans-Serif" font-size="10.00"> </text>
<polyline fill="none" stroke="black" points="712,-63.5 848,-63.5 "/>
<text text-anchor="start" x="720" y="-51.5" font-family="Helvetica,sans-Serif" font-size="10.00">+ createConnection()</text>
<text text-anchor="start" x="720" y="-40.5" font-family="Helvetica,sans-Serif" font-size="10.00">+ getPool()</text>
</a>
</g>
</g>
<!-- Node10&#45;&gt;Node11 -->
<g id="edge10" class="edge">
<title>Node10&#45;&gt;Node11</title>
<path fill="none" stroke="midnightblue" d="M780,-173.39C780,-154.07 780,-131.45 780,-112.68"/>
<polygon fill="none" stroke="midnightblue" points="776.5,-173.45 780,-183.45 783.5,-173.45 776.5,-173.45"/>
</g>
</g>
</svg>
