<?xml version="1.0" encoding="UTF-8" standalone="no"?>
<!DOCTYPE svg PUBLIC "-//W3C//DTD SVG 1.1//EN"
 "http://www.w3.org/Graphics/SVG/1.1/DTD/svg11.dtd">
<!-- Generated by graphviz version 2.40.1 (20161225.0304)
 -->
<!-- Title: anch::sql::SqlException Pages: 1 -->
<svg width="137pt" height="193pt"
 viewBox="0.00 0.00 137.00 193.00" xmlns="http://www.w3.org/2000/svg" xmlns:xlink="http://www.w3.org/1999/xlink">
<g id="graph0" class="graph" transform="scale(1 1) rotate(0) translate(4 189)">
<title>anch::sql::SqlException</title>
<!-- Node2 -->
<g id="node1" class="node">
<title>Node2</title>
<polygon fill="#bfbfbf" stroke="#000000" points="0,-.5 0,-90.5 129,-90.5 129,-.5 0,-.5"/>
<text text-anchor="middle" x="64.5" y="-78.5" font-family="Helvetica,sans-Serif" font-size="10.00" fill="#000000">anch::sql::SqlException</text>
<polyline fill="none" stroke="#000000" points="0,-71.5 129,-71.5 "/>
<text text-anchor="middle" x="64.5" y="-59.5" font-family="Helvetica,sans-Serif" font-size="10.00" fill="#000000"> </text>
<polyline fill="none" stroke="#000000" points="0,-52.5 129,-52.5 "/>
<text text-anchor="start" x="8" y="-40.5" font-family="Helvetica,sans-Serif" font-size="10.00" fill="#000000">+ SqlException()</text>
<text text-anchor="start" x="8" y="-29.5" font-family="Helvetica,sans-Serif" font-size="10.00" fill="#000000">+ ~SqlException()</text>
<text text-anchor="start" x="8" y="-18.5" font-family="Helvetica,sans-Serif" font-size="10.00" fill="#000000">+ what()</text>
<text text-anchor="start" x="8" y="-7.5" font-family="Helvetica,sans-Serif" font-size="10.00" fill="#000000">+ isOK()</text>
</g>
<!-- Node3 -->
<g id="node2" class="node">
<title>Node3</title>
<g id="a_node2"><a xlink:title="STL class. ">
<polygon fill="none" stroke="#bfbfbf" points="21.5,-127.5 21.5,-184.5 107.5,-184.5 107.5,-127.5 21.5,-127.5"/>
<text text-anchor="middle" x="64.5" y="-172.5" font-family="Helvetica,sans-Serif" font-size="10.00" fill="#000000">std::exception</text>
<polyline fill="none" stroke="#bfbfbf" points="21.5,-165.5 107.5,-165.5 "/>
<text text-anchor="middle" x="64.5" y="-153.5" font-family="Helvetica,sans-Serif" font-size="10.00" fill="#000000"> </text>
<polyline fill="none" stroke="#bfbfbf" points="21.5,-146.5 107.5,-146.5 "/>
<text text-anchor="middle" x="64.5" y="-134.5" font-family="Helvetica,sans-Serif" font-size="10.00" fill="#000000"> </text>
</a>
</g>
</g>
<!-- Node3&#45;&gt;Node2 -->
<g id="edge1" class="edge">
<title>Node3&#45;&gt;Node2</title>
<path fill="none" stroke="#191970" d="M64.5,-117.1977C64.5,-108.667 64.5,-99.5607 64.5,-90.7995"/>
<polygon fill="none" stroke="#191970" points="61.0001,-117.2559 64.5,-127.2559 68.0001,-117.2559 61.0001,-117.2559"/>
</g>
</g>
</svg>
