<?xml version="1.0" encoding="UTF-8" standalone="no"?>
<!DOCTYPE svg PUBLIC "-//W3C//DTD SVG 1.1//EN"
 "http://www.w3.org/Graphics/SVG/1.1/DTD/svg11.dtd">
<!-- Generated by graphviz version 2.40.1 (20161225.0304)
 -->
<!-- Title: anch::sql::MySQLResultSet Pages: 1 -->
<svg width="252pt" height="663pt"
 viewBox="0.00 0.00 252.00 663.00" xmlns="http://www.w3.org/2000/svg" xmlns:xlink="http://www.w3.org/1999/xlink">
<g id="graph0" class="graph" transform="scale(1 1) rotate(0) translate(4 659)">
<title>anch::sql::MySQLResultSet</title>
<!-- Node2 -->
<g id="node1" class="node">
<title>Node2</title>
<polygon fill="#bfbfbf" stroke="#000000" points="29.5,-.5 29.5,-90.5 174.5,-90.5 174.5,-.5 29.5,-.5"/>
<text text-anchor="middle" x="102" y="-78.5" font-family="Helvetica,sans-Serif" font-size="10.00" fill="#000000">anch::sql::MySQLResultSet</text>
<polyline fill="none" stroke="#000000" points="29.5,-71.5 174.5,-71.5 "/>
<text text-anchor="middle" x="102" y="-59.5" font-family="Helvetica,sans-Serif" font-size="10.00" fill="#000000"> </text>
<polyline fill="none" stroke="#000000" points="29.5,-52.5 174.5,-52.5 "/>
<text text-anchor="start" x="37.5" y="-40.5" font-family="Helvetica,sans-Serif" font-size="10.00" fill="#000000">+ MySQLResultSet()</text>
<text text-anchor="start" x="37.5" y="-29.5" font-family="Helvetica,sans-Serif" font-size="10.00" fill="#000000">+ ~MySQLResultSet()</text>
<text text-anchor="start" x="37.5" y="-18.5" font-family="Helvetica,sans-Serif" font-size="10.00" fill="#000000">+ next()</text>
<text text-anchor="start" x="37.5" y="-7.5" font-family="Helvetica,sans-Serif" font-size="10.00" fill="#000000"># getValue()</text>
</g>
<!-- Node3 -->
<g id="node2" class="node">
<title>Node3</title>
<g id="a_node2"><a xlink:href="classanch_1_1sql_1_1_result_set.html" target="_top" xlink:title="SQL result representation. ">
<polygon fill="none" stroke="#000000" points="46,-128.5 46,-306.5 158,-306.5 158,-128.5 46,-128.5"/>
<text text-anchor="middle" x="102" y="-294.5" font-family="Helvetica,sans-Serif" font-size="10.00" fill="#000000">anch::sql::ResultSet</text>
<polyline fill="none" stroke="#000000" points="46,-287.5 158,-287.5 "/>
<text text-anchor="middle" x="102" y="-275.5" font-family="Helvetica,sans-Serif" font-size="10.00" fill="#000000"> </text>
<polyline fill="none" stroke="#000000" points="46,-268.5 158,-268.5 "/>
<text text-anchor="start" x="54" y="-256.5" font-family="Helvetica,sans-Serif" font-size="10.00" fill="#000000">+ ResultSet()</text>
<text text-anchor="start" x="54" y="-245.5" font-family="Helvetica,sans-Serif" font-size="10.00" fill="#000000">+ ~ResultSet()</text>
<text text-anchor="start" x="54" y="-234.5" font-family="Helvetica,sans-Serif" font-size="10.00" fill="#000000">+ get()</text>
<text text-anchor="start" x="54" y="-223.5" font-family="Helvetica,sans-Serif" font-size="10.00" fill="#000000">+ get()</text>
<text text-anchor="start" x="54" y="-212.5" font-family="Helvetica,sans-Serif" font-size="10.00" fill="#000000">+ get()</text>
<text text-anchor="start" x="54" y="-201.5" font-family="Helvetica,sans-Serif" font-size="10.00" fill="#000000">+ get()</text>
<text text-anchor="start" x="54" y="-190.5" font-family="Helvetica,sans-Serif" font-size="10.00" fill="#000000">+ next()</text>
<text text-anchor="start" x="54" y="-179.5" font-family="Helvetica,sans-Serif" font-size="10.00" fill="#000000">+ get()</text>
<text text-anchor="start" x="54" y="-168.5" font-family="Helvetica,sans-Serif" font-size="10.00" fill="#000000">+ get()</text>
<text text-anchor="start" x="54" y="-157.5" font-family="Helvetica,sans-Serif" font-size="10.00" fill="#000000">+ get()</text>
<text text-anchor="start" x="54" y="-146.5" font-family="Helvetica,sans-Serif" font-size="10.00" fill="#000000">and 9 more...</text>
<text text-anchor="start" x="54" y="-135.5" font-family="Helvetica,sans-Serif" font-size="10.00" fill="#000000"># getValue()</text>
</a>
</g>
</g>
<!-- Node3&#45;&gt;Node2 -->
<g id="edge1" class="edge">
<title>Node3&#45;&gt;Node2</title>
<path fill="none" stroke="#191970" d="M102,-118.3729C102,-108.735 102,-99.3225 102,-90.6348"/>
<polygon fill="none" stroke="#191970" points="98.5001,-118.4771 102,-128.4771 105.5001,-118.4772 98.5001,-118.4771"/>
</g>
<!-- Node4 -->
<g id="node3" class="node">
<title>Node4</title>
<polygon fill="none" stroke="#bfbfbf" points="41,-354.5 41,-422.5 163,-422.5 163,-354.5 41,-354.5"/>
<text text-anchor="start" x="49" y="-410.5" font-family="Helvetica,sans-Serif" font-size="10.00" fill="#000000">std::map&lt; std::string,</text>
<text text-anchor="middle" x="102" y="-399.5" font-family="Helvetica,sans-Serif" font-size="10.00" fill="#000000"> std::size_t &gt;</text>
<polyline fill="none" stroke="#bfbfbf" points="41,-392.5 163,-392.5 "/>
<text text-anchor="start" x="49" y="-380.5" font-family="Helvetica,sans-Serif" font-size="10.00" fill="#000000">+ elements</text>
<polyline fill="none" stroke="#bfbfbf" points="41,-373.5 163,-373.5 "/>
<text text-anchor="middle" x="102" y="-361.5" font-family="Helvetica,sans-Serif" font-size="10.00" fill="#000000"> </text>
</g>
<!-- Node4&#45;&gt;Node3 -->
<g id="edge2" class="edge">
<title>Node4&#45;&gt;Node3</title>
<path fill="none" stroke="#404040" d="M102,-354.3066C102,-343.7446 102,-331.5249 102,-318.8225"/>
<polygon fill="none" stroke="#404040" points="102.0001,-318.5343 98,-312.5343 102,-306.5343 106,-312.5343 102.0001,-318.5343"/>
<text text-anchor="middle" x="123.5" y="-328" font-family="Helvetica,sans-Serif" font-size="10.00" fill="#000000"> #_fields</text>
</g>
<!-- Node5 -->
<g id="node4" class="node">
<title>Node5</title>
<g id="a_node4"><a xlink:title="STL class. ">
<polygon fill="none" stroke="#bfbfbf" points="19.5,-481.5 19.5,-538.5 84.5,-538.5 84.5,-481.5 19.5,-481.5"/>
<text text-anchor="middle" x="52" y="-526.5" font-family="Helvetica,sans-Serif" font-size="10.00" fill="#000000">std::string</text>
<polyline fill="none" stroke="#bfbfbf" points="19.5,-519.5 84.5,-519.5 "/>
<text text-anchor="middle" x="52" y="-507.5" font-family="Helvetica,sans-Serif" font-size="10.00" fill="#000000"> </text>
<polyline fill="none" stroke="#bfbfbf" points="19.5,-500.5 84.5,-500.5 "/>
<text text-anchor="middle" x="52" y="-488.5" font-family="Helvetica,sans-Serif" font-size="10.00" fill="#000000"> </text>
</a>
</g>
</g>
<!-- Node5&#45;&gt;Node4 -->
<g id="edge3" class="edge">
<title>Node5&#45;&gt;Node4</title>
<path fill="none" stroke="#404040" d="M63.8493,-481.2062C69.6588,-467.0891 76.7928,-449.7535 83.3136,-433.908"/>
<polygon fill="none" stroke="#404040" points="83.3589,-433.7978 81.9432,-426.727 87.9256,-422.7007 89.3413,-429.7715 83.3589,-433.7978"/>
<text text-anchor="middle" x="97.5" y="-449.5" font-family="Helvetica,sans-Serif" font-size="10.00" fill="#000000"> +keys</text>
</g>
<!-- Node6 -->
<g id="node5" class="node">
<title>Node6</title>
<g id="a_node5"><a xlink:title="STL class. ">
<polygon fill="none" stroke="#bfbfbf" points="0,-586.5 0,-654.5 104,-654.5 104,-586.5 0,-586.5"/>
<text text-anchor="start" x="8" y="-642.5" font-family="Helvetica,sans-Serif" font-size="10.00" fill="#000000">std::basic_string&lt;</text>
<text text-anchor="middle" x="52" y="-631.5" font-family="Helvetica,sans-Serif" font-size="10.00" fill="#000000"> char &gt;</text>
<polyline fill="none" stroke="#bfbfbf" points="0,-624.5 104,-624.5 "/>
<text text-anchor="middle" x="52" y="-612.5" font-family="Helvetica,sans-Serif" font-size="10.00" fill="#000000"> </text>
<polyline fill="none" stroke="#bfbfbf" points="0,-605.5 104,-605.5 "/>
<text text-anchor="middle" x="52" y="-593.5" font-family="Helvetica,sans-Serif" font-size="10.00" fill="#000000"> </text>
</a>
</g>
</g>
<!-- Node6&#45;&gt;Node5 -->
<g id="edge4" class="edge">
<title>Node6&#45;&gt;Node5</title>
<path fill="none" stroke="#191970" d="M52,-576.0661C52,-563.4172 52,-549.9812 52,-538.5519"/>
<polygon fill="none" stroke="#191970" points="48.5001,-576.4447 52,-586.4447 55.5001,-576.4447 48.5001,-576.4447"/>
</g>
<!-- Node7 -->
<g id="node6" class="node">
<title>Node7</title>
<g id="a_node6"><a xlink:title="STL class. ">
<polygon fill="none" stroke="#bfbfbf" points="102.5,-481.5 102.5,-538.5 203.5,-538.5 203.5,-481.5 102.5,-481.5"/>
<text text-anchor="middle" x="153" y="-526.5" font-family="Helvetica,sans-Serif" font-size="10.00" fill="#000000">std::map&lt; K, T &gt;</text>
<polyline fill="none" stroke="#bfbfbf" points="102.5,-519.5 203.5,-519.5 "/>
<text text-anchor="middle" x="153" y="-507.5" font-family="Helvetica,sans-Serif" font-size="10.00" fill="#000000"> </text>
<polyline fill="none" stroke="#bfbfbf" points="102.5,-500.5 203.5,-500.5 "/>
<text text-anchor="middle" x="153" y="-488.5" font-family="Helvetica,sans-Serif" font-size="10.00" fill="#000000"> </text>
</a>
</g>
</g>
<!-- Node7&#45;&gt;Node4 -->
<g id="edge5" class="edge">
<title>Node7&#45;&gt;Node4</title>
<path fill="none" stroke="#ffa500" d="M136.951,-471.7657C130.3516,-456.0436 122.7685,-437.9779 116.3559,-422.7007"/>
<polygon fill="#ffa500" stroke="#ffa500" points="133.816,-473.3402 140.9137,-481.2062 140.2705,-470.6309 133.816,-473.3402"/>
<text text-anchor="start" x="133" y="-455" font-family="Helvetica,sans-Serif" font-size="10.00" fill="#000000"> &lt; std::string, std</text>
<text text-anchor="middle" x="175.5" y="-444" font-family="Helvetica,sans-Serif" font-size="10.00" fill="#000000">::size_t &gt;</text>
</g>
<!-- Node8 -->
<g id="node7" class="node">
<title>Node8</title>
<polygon fill="none" stroke="#bfbfbf" points="130.5,-592 130.5,-649 159.5,-649 159.5,-592 130.5,-592"/>
<text text-anchor="middle" x="145" y="-637" font-family="Helvetica,sans-Serif" font-size="10.00" fill="#000000">K</text>
<polyline fill="none" stroke="#bfbfbf" points="130.5,-630 159.5,-630 "/>
<text text-anchor="middle" x="145" y="-618" font-family="Helvetica,sans-Serif" font-size="10.00" fill="#000000"> </text>
<polyline fill="none" stroke="#bfbfbf" points="130.5,-611 159.5,-611 "/>
<text text-anchor="middle" x="145" y="-599" font-family="Helvetica,sans-Serif" font-size="10.00" fill="#000000"> </text>
</g>
<!-- Node8&#45;&gt;Node7 -->
<g id="edge6" class="edge">
<title>Node8&#45;&gt;Node7</title>
<path fill="none" stroke="#404040" d="M144.6503,-591.6952C144.729,-580.8085 145.0721,-568.3185 146,-557 146.1668,-554.965 146.3668,-552.8842 146.592,-550.7855"/>
<polygon fill="none" stroke="#404040" points="146.6065,-550.6697 143.3853,-544.218 148.1018,-538.7632 151.323,-545.2149 146.6065,-550.6697"/>
<text text-anchor="middle" x="163.5" y="-560" font-family="Helvetica,sans-Serif" font-size="10.00" fill="#000000"> +keys</text>
</g>
<!-- Node9 -->
<g id="node8" class="node">
<title>Node9</title>
<polygon fill="none" stroke="#bfbfbf" points="188.5,-592 188.5,-649 217.5,-649 217.5,-592 188.5,-592"/>
<text text-anchor="middle" x="203" y="-637" font-family="Helvetica,sans-Serif" font-size="10.00" fill="#000000">T</text>
<polyline fill="none" stroke="#bfbfbf" points="188.5,-630 217.5,-630 "/>
<text text-anchor="middle" x="203" y="-618" font-family="Helvetica,sans-Serif" font-size="10.00" fill="#000000"> </text>
<polyline fill="none" stroke="#bfbfbf" points="188.5,-611 217.5,-611 "/>
<text text-anchor="middle" x="203" y="-599" font-family="Helvetica,sans-Serif" font-size="10.00" fill="#000000"> </text>
</g>
<!-- Node9&#45;&gt;Node7 -->
<g id="edge7" class="edge">
<title>Node9&#45;&gt;Node7</title>
<path fill="none" stroke="#404040" d="M194.4601,-591.878C190.7964,-580.786 186.167,-568.1076 181,-557 179.8001,-554.4205 178.4976,-551.8012 177.1331,-549.1867"/>
<polygon fill="none" stroke="#404040" points="177.0773,-549.0856 170.6755,-545.7662 171.2773,-538.5803 177.6791,-541.8996 177.0773,-549.0856"/>
<text text-anchor="middle" x="215" y="-560" font-family="Helvetica,sans-Serif" font-size="10.00" fill="#000000"> +elements</text>
</g>
</g>
</svg>
