<?xml version="1.0" encoding="UTF-8" standalone="no"?>
<!DOCTYPE svg PUBLIC "-//W3C//DTD SVG 1.1//EN"
 "http://www.w3.org/Graphics/SVG/1.1/DTD/svg11.dtd">
<!-- Generated by graphviz version 2.43.20190912.0211 (20190912.0211)
 -->
<!-- Title: anch::events::EventBus&lt; Event &gt; Pages: 1 -->
<svg width="205pt" height="365pt"
 viewBox="0.00 0.00 204.50 365.00" xmlns="http://www.w3.org/2000/svg" xmlns:xlink="http://www.w3.org/1999/xlink">
<g id="graph0" class="graph" transform="scale(1 1) rotate(0) translate(4 361)">
<title>anch::events::EventBus&lt; Event &gt;</title>
<!-- Node1 -->
<g id="node1" class="node">
<title>Node1</title>
<g id="a_node1"><a xlink:title="A class which manage global events firing and events QoS.">
<polygon fill="#bfbfbf" stroke="black" points="9,-0.5 9,-145.5 140,-145.5 140,-0.5 9,-0.5"/>
<text text-anchor="start" x="17" y="-133.5" font-family="Helvetica,sans-Serif" font-size="10.00">anch::events::EventBus</text>
<text text-anchor="middle" x="74.5" y="-122.5" font-family="Helvetica,sans-Serif" font-size="10.00">&lt; Event &gt;</text>
<polyline fill="none" stroke="black" points="9,-115.5 140,-115.5 "/>
<text text-anchor="middle" x="74.5" y="-103.5" font-family="Helvetica,sans-Serif" font-size="10.00"> </text>
<polyline fill="none" stroke="black" points="9,-96.5 140,-96.5 "/>
<text text-anchor="start" x="17" y="-84.5" font-family="Helvetica,sans-Serif" font-size="10.00">+ addObserver()</text>
<text text-anchor="start" x="17" y="-73.5" font-family="Helvetica,sans-Serif" font-size="10.00">+ removeObserver()</text>
<text text-anchor="start" x="17" y="-62.5" font-family="Helvetica,sans-Serif" font-size="10.00">+ fireEvent()</text>
<text text-anchor="start" x="17" y="-51.5" font-family="Helvetica,sans-Serif" font-size="10.00">+ scheduleDeferred()</text>
<text text-anchor="start" x="17" y="-40.5" font-family="Helvetica,sans-Serif" font-size="10.00">+ AddObserver()</text>
<text text-anchor="start" x="17" y="-29.5" font-family="Helvetica,sans-Serif" font-size="10.00">+ RemoveObserver()</text>
<text text-anchor="start" x="17" y="-18.5" font-family="Helvetica,sans-Serif" font-size="10.00">+ FireEvent()</text>
<text text-anchor="start" x="17" y="-7.5" font-family="Helvetica,sans-Serif" font-size="10.00">+ ScheduleDeferred()</text>
</a>
</g>
</g>
<!-- Node2 -->
<g id="node2" class="node">
<title>Node2</title>
<g id="a_node2"><a xlink:href="classanch_1_1_singleton.html" target="_top" xlink:title=" ">
<polygon fill="none" stroke="black" points="0,-183.5 0,-251.5 149,-251.5 149,-183.5 0,-183.5"/>
<text text-anchor="start" x="8" y="-239.5" font-family="Helvetica,sans-Serif" font-size="10.00">anch::Singleton&lt; EventBus</text>
<text text-anchor="middle" x="74.5" y="-228.5" font-family="Helvetica,sans-Serif" font-size="10.00">&lt; Event &gt; &gt;</text>
<polyline fill="none" stroke="black" points="0,-221.5 149,-221.5 "/>
<text text-anchor="middle" x="74.5" y="-209.5" font-family="Helvetica,sans-Serif" font-size="10.00"> </text>
<polyline fill="none" stroke="black" points="0,-202.5 149,-202.5 "/>
<text text-anchor="start" x="8" y="-190.5" font-family="Helvetica,sans-Serif" font-size="10.00">+ getInstance()</text>
</a>
</g>
</g>
<!-- Node2&#45;&gt;Node1 -->
<g id="edge1" class="edge">
<title>Node2&#45;&gt;Node1</title>
<path fill="none" stroke="midnightblue" d="M74.5,-173.19C74.5,-164.48 74.5,-155.11 74.5,-145.72"/>
<polygon fill="none" stroke="midnightblue" points="71,-173.45 74.5,-183.45 78,-173.45 71,-173.45"/>
</g>
<!-- Node3 -->
<g id="node3" class="node">
<title>Node3</title>
<g id="a_node3"><a xlink:href="classanch_1_1_singleton.html" target="_top" xlink:title="Meyers&#39; singleton implemtation.">
<polygon fill="none" stroke="black" points="14.5,-299.5 14.5,-356.5 134.5,-356.5 134.5,-299.5 14.5,-299.5"/>
<text text-anchor="middle" x="74.5" y="-344.5" font-family="Helvetica,sans-Serif" font-size="10.00">anch::Singleton&lt; T &gt;</text>
<polyline fill="none" stroke="black" points="14.5,-337.5 134.5,-337.5 "/>
<text text-anchor="middle" x="74.5" y="-325.5" font-family="Helvetica,sans-Serif" font-size="10.00"> </text>
<polyline fill="none" stroke="black" points="14.5,-318.5 134.5,-318.5 "/>
<text text-anchor="start" x="22.5" y="-306.5" font-family="Helvetica,sans-Serif" font-size="10.00">+ getInstance()</text>
</a>
</g>
</g>
<!-- Node3&#45;&gt;Node2 -->
<g id="edge2" class="edge">
<title>Node3&#45;&gt;Node2</title>
<path fill="none" stroke="orange" d="M74.5,-288.99C74.5,-276.77 74.5,-263.35 74.5,-251.52"/>
<polygon fill="orange" stroke="orange" points="71,-289.34 74.5,-299.34 78,-289.34 71,-289.34"/>
<text text-anchor="middle" x="135.5" y="-273" font-family="Helvetica,sans-Serif" font-size="10.00"> &lt; EventBus&lt; Event &gt; &gt;</text>
</g>
</g>
</svg>
