<?xml version="1.0" encoding="UTF-8" standalone="no"?>
<!DOCTYPE svg PUBLIC "-//W3C//DTD SVG 1.1//EN"
 "http://www.w3.org/Graphics/SVG/1.1/DTD/svg11.dtd">
<!-- Generated by graphviz version 12.2.1 (0)
 -->
<!-- Title: anch::json::ReaderContext Pages: 1 -->
<svg width="133pt" height="484pt"
 viewBox="0.00 0.00 133.00 484.00" xmlns="http://www.w3.org/2000/svg" xmlns:xlink="http://www.w3.org/1999/xlink">
<g id="graph0" class="graph" transform="scale(1 1) rotate(0) translate(4 480)">
<title>anch::json::ReaderContext</title>
<!-- Node1 -->
<g id="Node000001" class="node">
<title>Node1</title>
<g id="a_Node000001"><a xlink:title="JSON mapper context.">
<polygon fill="#999999" stroke="none" points="125,-476 0,-476 0,-184 125,-184 125,-476"/>
<text text-anchor="start" x="4" y="-462.5" font-family="Helvetica,sans-Serif" font-size="10.00">anch::json::ReaderContext</text>
<text text-anchor="start" x="11.25" y="-446.5" font-family="Helvetica,sans-Serif" font-size="10.00">+</text>
<text text-anchor="start" x="28.5" y="-446.5" font-family="Helvetica,sans-Serif" font-size="10.00">input</text>
<text text-anchor="start" x="11.25" y="-430.5" font-family="Helvetica,sans-Serif" font-size="10.00">+</text>
<text text-anchor="start" x="28.5" y="-430.5" font-family="Helvetica,sans-Serif" font-size="10.00">options</text>
<text text-anchor="start" x="11.25" y="-414.5" font-family="Helvetica,sans-Serif" font-size="10.00">+</text>
<text text-anchor="start" x="28.5" y="-414.5" font-family="Helvetica,sans-Serif" font-size="10.00">pbuf</text>
<text text-anchor="start" x="11.25" y="-398.5" font-family="Helvetica,sans-Serif" font-size="10.00">+</text>
<text text-anchor="start" x="28.5" y="-398.5" font-family="Helvetica,sans-Serif" font-size="10.00">offset</text>
<text text-anchor="start" x="11.25" y="-382.5" font-family="Helvetica,sans-Serif" font-size="10.00">+</text>
<text text-anchor="start" x="28.5" y="-382.5" font-family="Helvetica,sans-Serif" font-size="10.00">bufferSize</text>
<text text-anchor="start" x="11.25" y="-366.5" font-family="Helvetica,sans-Serif" font-size="10.00">+</text>
<text text-anchor="start" x="28.5" y="-366.5" font-family="Helvetica,sans-Serif" font-size="10.00">buffer</text>
<text text-anchor="start" x="11.25" y="-350.5" font-family="Helvetica,sans-Serif" font-size="10.00">+</text>
<text text-anchor="start" x="28.5" y="-350.5" font-family="Helvetica,sans-Serif" font-size="10.00">read</text>
<text text-anchor="start" x="11.25" y="-334.5" font-family="Helvetica,sans-Serif" font-size="10.00">+</text>
<text text-anchor="start" x="28.5" y="-334.5" font-family="Helvetica,sans-Serif" font-size="10.00">ReaderContext()</text>
<text text-anchor="start" x="11.25" y="-318.5" font-family="Helvetica,sans-Serif" font-size="10.00">+</text>
<text text-anchor="start" x="28.5" y="-318.5" font-family="Helvetica,sans-Serif" font-size="10.00">ReaderContext()</text>
<text text-anchor="start" x="11.25" y="-302.5" font-family="Helvetica,sans-Serif" font-size="10.00">+</text>
<text text-anchor="start" x="28.5" y="-302.5" font-family="Helvetica,sans-Serif" font-size="10.00">ReaderContext()</text>
<text text-anchor="start" x="11.25" y="-286.5" font-family="Helvetica,sans-Serif" font-size="10.00">+</text>
<text text-anchor="start" x="28.5" y="-286.5" font-family="Helvetica,sans-Serif" font-size="10.00">ReaderContext()</text>
<text text-anchor="start" x="11.25" y="-270.5" font-family="Helvetica,sans-Serif" font-size="10.00">+</text>
<text text-anchor="start" x="28.5" y="-270.5" font-family="Helvetica,sans-Serif" font-size="10.00">~ReaderContext()</text>
<text text-anchor="start" x="11.25" y="-254.5" font-family="Helvetica,sans-Serif" font-size="10.00">+</text>
<text text-anchor="start" x="28.5" y="-254.5" font-family="Helvetica,sans-Serif" font-size="10.00">discard()</text>
<text text-anchor="start" x="11.25" y="-238.5" font-family="Helvetica,sans-Serif" font-size="10.00">+</text>
<text text-anchor="start" x="28.5" y="-238.5" font-family="Helvetica,sans-Serif" font-size="10.00">parseUnknown()</text>
<text text-anchor="start" x="11.25" y="-222.5" font-family="Helvetica,sans-Serif" font-size="10.00">+</text>
<text text-anchor="start" x="28.5" y="-222.5" font-family="Helvetica,sans-Serif" font-size="10.00">next()</text>
<text text-anchor="start" x="11.25" y="-206.5" font-family="Helvetica,sans-Serif" font-size="10.00">+</text>
<text text-anchor="start" x="28.5" y="-206.5" font-family="Helvetica,sans-Serif" font-size="10.00">back()</text>
<text text-anchor="start" x="11.62" y="-190.5" font-family="Helvetica,sans-Serif" font-size="10.00">#</text>
<text text-anchor="start" x="28.5" y="-190.5" font-family="Helvetica,sans-Serif" font-size="10.00">refillBuffer()</text>
<polygon fill="#666666" stroke="#666666" points="0,-458 0,-458 125,-458 125,-458 0,-458"/>
<polygon fill="#666666" stroke="#666666" points="0,-346 0,-346 26.5,-346 26.5,-346 0,-346"/>
<polygon fill="#666666" stroke="#666666" points="26.5,-346 26.5,-346 125,-346 125,-346 26.5,-346"/>
<polygon fill="none" stroke="#666666" points="0,-184 0,-476 125,-476 125,-184 0,-184"/>
</a>
</g>
</g>
<!-- Node2 -->
<g id="Node000002" class="node">
<title>Node2</title>
<g id="a_Node000002"><a xlink:href="classanch_1_1json_1_1_reader.html" target="_top" xlink:title="JSON reader based on events.">
<polygon fill="white" stroke="none" points="107.75,-148 17.25,-148 17.25,0 107.75,0 107.75,-148"/>
<text text-anchor="start" x="21.25" y="-134.5" font-family="Helvetica,sans-Serif" font-size="10.00">anch::json::Reader</text>
<text text-anchor="start" x="61" y="-118.5" font-family="Helvetica,sans-Serif" font-size="10.00"> </text>
<text text-anchor="start" x="27" y="-102.5" font-family="Helvetica,sans-Serif" font-size="10.00">+</text>
<text text-anchor="start" x="42.75" y="-102.5" font-family="Helvetica,sans-Serif" font-size="10.00">Reader()</text>
<text text-anchor="start" x="27" y="-86.5" font-family="Helvetica,sans-Serif" font-size="10.00">+</text>
<text text-anchor="start" x="42.75" y="-86.5" font-family="Helvetica,sans-Serif" font-size="10.00">Reader()</text>
<text text-anchor="start" x="27" y="-70.5" font-family="Helvetica,sans-Serif" font-size="10.00">+</text>
<text text-anchor="start" x="42.75" y="-70.5" font-family="Helvetica,sans-Serif" font-size="10.00">Reader()</text>
<text text-anchor="start" x="27" y="-54.5" font-family="Helvetica,sans-Serif" font-size="10.00">+</text>
<text text-anchor="start" x="42.75" y="-54.5" font-family="Helvetica,sans-Serif" font-size="10.00">Reader()</text>
<text text-anchor="start" x="27" y="-38.5" font-family="Helvetica,sans-Serif" font-size="10.00">+</text>
<text text-anchor="start" x="42.75" y="-38.5" font-family="Helvetica,sans-Serif" font-size="10.00">~Reader()</text>
<text text-anchor="start" x="27" y="-22.5" font-family="Helvetica,sans-Serif" font-size="10.00">+</text>
<text text-anchor="start" x="42.75" y="-22.5" font-family="Helvetica,sans-Serif" font-size="10.00">parse()</text>
<text text-anchor="start" x="27.38" y="-6.5" font-family="Helvetica,sans-Serif" font-size="10.00">#</text>
<text text-anchor="start" x="42.75" y="-6.5" font-family="Helvetica,sans-Serif" font-size="10.00">refillBuffer()</text>
<polygon fill="#666666" stroke="#666666" points="17.25,-130 17.25,-130 107.75,-130 107.75,-130 17.25,-130"/>
<polygon fill="#666666" stroke="#666666" points="17.25,-114 17.25,-114 107.75,-114 107.75,-114 17.25,-114"/>
<polygon fill="none" stroke="#666666" points="17.25,0 17.25,-148 107.75,-148 107.75,0 17.25,0"/>
</a>
</g>
</g>
<!-- Node1&#45;&gt;Node2 -->
<g id="edge1_Node000001_Node000002" class="edge">
<title>Node1&#45;&gt;Node2</title>
<g id="a_edge1_Node000001_Node000002"><a xlink:title=" ">
<path fill="none" stroke="#8b1a1a" d="M62.5,-172.87C62.5,-164.32 62.5,-155.96 62.5,-147.96"/>
<polygon fill="none" stroke="#8b1a1a" points="59,-172.68 62.5,-182.68 66,-172.68 59,-172.68"/>
</a>
</g>
</g>
</g>
</svg>
