<?xml version="1.0" encoding="UTF-8" standalone="no"?>
<!DOCTYPE svg PUBLIC "-//W3C//DTD SVG 1.1//EN"
 "http://www.w3.org/Graphics/SVG/1.1/DTD/svg11.dtd">
<!-- Generated by graphviz version 14.0.4 (0)
 -->
<!-- Title: anch::conf::ConfError::getErrorCode Pages: 1 -->
<svg width="264pt" height="58pt"
 viewBox="0.00 0.00 264.00 58.00" xmlns="http://www.w3.org/2000/svg" xmlns:xlink="http://www.w3.org/1999/xlink">
<g id="graph0" class="graph" transform="scale(1 1) rotate(0) translate(4 54)">
<title>anch::conf::ConfError::getErrorCode</title>
<!-- Node1 -->
<g id="Node000001" class="node">
<title>Node1</title>
<g id="a_Node000001"><a xlink:title=" ">
<polygon fill="#999999" stroke="#666666" points="109.75,-32 0,-32 0,0 109.75,0 109.75,-32"/>
<text xml:space="preserve" text-anchor="start" x="8" y="-18.5" font-family="Helvetica,sans-Serif" font-size="10.00">anch::conf::ConfError</text>
<text xml:space="preserve" text-anchor="middle" x="54.88" y="-6.5" font-family="Helvetica,sans-Serif" font-size="10.00">::getErrorCode</text>
</a>
</g>
</g>
<!-- Node1&#45;&gt;Node1 -->
<g id="edge2_Node000001_Node000001" class="edge">
<title>Node1&#45;&gt;Node1</title>
<g id="a_edge2_Node000001_Node000001"><a xlink:title=" ">
<path fill="none" stroke="#63b8ff" d="M28.85,-32.44C24,-41.58 32.67,-50 54.88,-50 67.02,-50 75.11,-47.48 79.16,-43.71"/>
<polygon fill="#63b8ff" stroke="#63b8ff" points="82.61,-44.35 80.67,-33.94 75.69,-43.29 82.61,-44.35"/>
</a>
</g>
</g>
<!-- Node2 -->
<g id="Node000002" class="node">
<title>Node2</title>
<g id="a_Node000002"><a xlink:href="classanch_1_1conf_1_1_conf_error.html#af171574fb05243cc8f55360a859863b7" target="_top" xlink:title=" ">
<polygon fill="white" stroke="#666666" points="255.5,-32 145.75,-32 145.75,0 255.5,0 255.5,-32"/>
<text xml:space="preserve" text-anchor="start" x="153.75" y="-18.5" font-family="Helvetica,sans-Serif" font-size="10.00">anch::conf::ConfError</text>
<text xml:space="preserve" text-anchor="middle" x="200.62" y="-6.5" font-family="Helvetica,sans-Serif" font-size="10.00">::ConfError</text>
</a>
</g>
</g>
<!-- Node1&#45;&gt;Node2 -->
<g id="edge1_Node000001_Node000002" class="edge">
<title>Node1&#45;&gt;Node2</title>
<g id="a_edge1_Node000001_Node000002"><a xlink:title=" ">
<path fill="none" stroke="#63b8ff" d="M110.22,-16C118.11,-16 126.3,-16 134.38,-16"/>
<polygon fill="#63b8ff" stroke="#63b8ff" points="134.17,-19.5 144.17,-16 134.17,-12.5 134.17,-19.5"/>
</a>
</g>
</g>
</g>
</svg>
