<?xml version="1.0" encoding="UTF-8" standalone="no"?>
<!DOCTYPE svg PUBLIC "-//W3C//DTD SVG 1.1//EN"
 "http://www.w3.org/Graphics/SVG/1.1/DTD/svg11.dtd">
<!-- Generated by graphviz version 12.1.2 (0)
 -->
<!-- Title: anch::network::TcpSocket Pages: 1 -->
<!--zoomable 782 -->

<svg id="main" version="1.1" xmlns="http://www.w3.org/2000/svg" xmlns:xlink="http://www.w3.org/1999/xlink" xml:space="preserve" onload="init(evt)">

<style type="text/css"><![CDATA[
.node, .edge {opacity: 0.7;}
.node.selected, .edge.selected {opacity: 1;}
.edge:hover path { stroke: red; }
.edge:hover polygon { stroke: red; fill: red; }
]]></style>

<defs>
  <circle id="rim" cx="0" cy="0" r="7"/>
  <circle id="rim2" cx="0" cy="0" r="3.5"/>
  <g id="zoomPlus">
    <use xlink:href="#rim" fill="#404040"><set attributeName="fill" to="#808080" begin="zoomplus.mouseover" end="zoomplus.mouseout"/></use>
    <path d="M-4,0h8M0,-4v8" fill="none" stroke="white" stroke-width="1.5" pointer-events="none"/>
  </g>
  <g id="zoomMin">
    <use xlink:href="#rim" fill="#404040"><set attributeName="fill" to="#808080" begin="zoomminus.mouseover" end="zoomminus.mouseout"/></use>
    <path d="M-4,0h8" fill="none" stroke="white" stroke-width="1.5" pointer-events="none"/>
  </g>
  <g id="arrowUp" transform="translate(30 24)">
    <use xlink:href="#rim"/>
    <path pointer-events="none" fill="none" stroke="white" stroke-width="1.5" d="M0,-3.0v7 M-2.5,-0.5L0,-3.0L2.5,-0.5"/>
  </g>
  <g id="arrowRight" transform="rotate(90) translate(36 -43)">
    <use xlink:href="#rim"/>
    <path pointer-events="none" fill="none" stroke="white" stroke-width="1.5" d="M0,-3.0v7 M-2.5,-0.5L0,-3.0L2.5,-0.5"/>
  </g>
  <g id="arrowDown" transform="rotate(180) translate(-30 -48)">
    <use xlink:href="#rim"/>
    <path pointer-events="none" fill="none" stroke="white" stroke-width="1.5" d="M0,-3.0v7 M-2.5,-0.5L0,-3.0L2.5,-0.5"/>
  </g>
  <g id="arrowLeft" transform="rotate(270) translate(-36 17)">
    <use xlink:href="#rim"/>
    <path pointer-events="none" fill="none" stroke="white" stroke-width="1.5" d="M0,-3.0v7 M-2.5,-0.5L0,-3.0L2.5,-0.5"/>
  </g>
  <g id="resetDef">
    <use xlink:href="#rim2" fill="#404040"><set attributeName="fill" to="#808080" begin="reset.mouseover" end="reset.mouseout"/></use>
  </g>
</defs>
<script type="application/ecmascript">
var viewWidth = 158;
var viewHeight = 782;
var sectionId = 'dynsection-0';
</script>
<script type="application/ecmascript" xlink:href="svg.min.js"/>
<svg id="graph" class="graph">
<g id="viewport">
<title>anch::network::TcpSocket</title>
<!-- Node1 -->
<g id="Node000001" class="node">
<title>Node1</title>
<g id="a_Node000001"><a xlink:title=" ">
<polygon fill="#999999" stroke="none" points="134.5,-116 10.5,-116 10.5,0 134.5,0 134.5,-116"/>
<text text-anchor="start" x="15.5" y="-102.5" font-family="Helvetica,sans-Serif" font-size="10.00">anch::network::TcpSocket</text>
<text text-anchor="start" x="71" y="-86.5" font-family="Helvetica,sans-Serif" font-size="10.00"> </text>
<text text-anchor="start" x="26.5" y="-70.5" font-family="Helvetica,sans-Serif" font-size="10.00">+</text>
<text text-anchor="start" x="48.5" y="-70.5" font-family="Helvetica,sans-Serif" font-size="10.00">TcpSocket()</text>
<text text-anchor="start" x="26.5" y="-54.5" font-family="Helvetica,sans-Serif" font-size="10.00">+</text>
<text text-anchor="start" x="48.5" y="-54.5" font-family="Helvetica,sans-Serif" font-size="10.00">TcpSocket()</text>
<text text-anchor="start" x="26.5" y="-38.5" font-family="Helvetica,sans-Serif" font-size="10.00">+</text>
<text text-anchor="start" x="48.5" y="-38.5" font-family="Helvetica,sans-Serif" font-size="10.00">~TcpSocket()</text>
<text text-anchor="start" x="26.5" y="-22.5" font-family="Helvetica,sans-Serif" font-size="10.00">+</text>
<text text-anchor="start" x="48.5" y="-22.5" font-family="Helvetica,sans-Serif" font-size="10.00">send()</text>
<text text-anchor="start" x="26.5" y="-6.5" font-family="Helvetica,sans-Serif" font-size="10.00">+</text>
<text text-anchor="start" x="48.5" y="-6.5" font-family="Helvetica,sans-Serif" font-size="10.00">receive()</text>
<polygon fill="#666666" stroke="#666666" points="10.5,-98 10.5,-98 134.5,-98 134.5,-98 10.5,-98"/>
<polygon fill="#666666" stroke="#666666" points="10.5,-82 10.5,-82 134.5,-82 134.5,-82 10.5,-82"/>
<polygon fill="none" stroke="#666666" points="10.5,0 10.5,-116 134.5,-116 134.5,0 10.5,0"/>
</a>
</g>
</g>
<!-- Node2 -->
<g id="Node000002" class="node">
<title>Node2</title>
<g id="a_Node000002"><a xlink:href="classanch_1_1network_1_1_socket.html" target="_top" xlink:title=" ">
<polygon fill="white" stroke="none" points="126.5,-413 18.5,-413 18.5,-153 126.5,-153 126.5,-413"/>
<text text-anchor="start" x="23.38" y="-399.5" font-family="Helvetica,sans-Serif" font-size="10.00">anch::network::Socket</text>
<text text-anchor="start" x="29.88" y="-383.5" font-family="Helvetica,sans-Serif" font-size="10.00">#</text>
<text text-anchor="start" x="46.5" y="-383.5" font-family="Helvetica,sans-Serif" font-size="10.00">_sock</text>
<text text-anchor="start" x="29.88" y="-367.5" font-family="Helvetica,sans-Serif" font-size="10.00">#</text>
<text text-anchor="start" x="46.5" y="-367.5" font-family="Helvetica,sans-Serif" font-size="10.00">_backlog</text>
<text text-anchor="start" x="29.88" y="-351.5" font-family="Helvetica,sans-Serif" font-size="10.00">#</text>
<text text-anchor="start" x="46.5" y="-351.5" font-family="Helvetica,sans-Serif" font-size="10.00">_address</text>
<text text-anchor="start" x="29.5" y="-335.5" font-family="Helvetica,sans-Serif" font-size="10.00">+</text>
<text text-anchor="start" x="46.5" y="-335.5" font-family="Helvetica,sans-Serif" font-size="10.00">Socket()</text>
<text text-anchor="start" x="29.5" y="-319.5" font-family="Helvetica,sans-Serif" font-size="10.00">+</text>
<text text-anchor="start" x="46.5" y="-319.5" font-family="Helvetica,sans-Serif" font-size="10.00">~Socket()</text>
<text text-anchor="start" x="29.5" y="-303.5" font-family="Helvetica,sans-Serif" font-size="10.00">+</text>
<text text-anchor="start" x="46.5" y="-303.5" font-family="Helvetica,sans-Serif" font-size="10.00">bind()</text>
<text text-anchor="start" x="29.5" y="-287.5" font-family="Helvetica,sans-Serif" font-size="10.00">+</text>
<text text-anchor="start" x="46.5" y="-287.5" font-family="Helvetica,sans-Serif" font-size="10.00">connect()</text>
<text text-anchor="start" x="29.5" y="-271.5" font-family="Helvetica,sans-Serif" font-size="10.00">+</text>
<text text-anchor="start" x="46.5" y="-271.5" font-family="Helvetica,sans-Serif" font-size="10.00">listen()</text>
<text text-anchor="start" x="29.5" y="-255.5" font-family="Helvetica,sans-Serif" font-size="10.00">+</text>
<text text-anchor="start" x="46.5" y="-255.5" font-family="Helvetica,sans-Serif" font-size="10.00">accept()</text>
<text text-anchor="start" x="29.5" y="-239.5" font-family="Helvetica,sans-Serif" font-size="10.00">+</text>
<text text-anchor="start" x="46.5" y="-239.5" font-family="Helvetica,sans-Serif" font-size="10.00">send()</text>
<text text-anchor="start" x="29.5" y="-223.5" font-family="Helvetica,sans-Serif" font-size="10.00">+</text>
<text text-anchor="start" x="46.5" y="-223.5" font-family="Helvetica,sans-Serif" font-size="10.00">receive()</text>
<text text-anchor="start" x="29.5" y="-207.5" font-family="Helvetica,sans-Serif" font-size="10.00">+</text>
<text text-anchor="start" x="46.5" y="-207.5" font-family="Helvetica,sans-Serif" font-size="10.00">receive()</text>
<text text-anchor="start" x="29.5" y="-191.5" font-family="Helvetica,sans-Serif" font-size="10.00">+</text>
<text text-anchor="start" x="46.5" y="-191.5" font-family="Helvetica,sans-Serif" font-size="10.00">shutdown()</text>
<text text-anchor="start" x="46.5" y="-175.5" font-family="Helvetica,sans-Serif" font-size="10.00">and 11 more...</text>
<text text-anchor="start" x="29.88" y="-159.5" font-family="Helvetica,sans-Serif" font-size="10.00">#</text>
<text text-anchor="start" x="46.5" y="-159.5" font-family="Helvetica,sans-Serif" font-size="10.00">Socket()</text>
<polygon fill="#666666" stroke="#666666" points="18.5,-395 18.5,-395 126.5,-395 126.5,-395 18.5,-395"/>
<polygon fill="#666666" stroke="#666666" points="18.5,-347 18.5,-347 44.5,-347 44.5,-347 18.5,-347"/>
<polygon fill="#666666" stroke="#666666" points="44.5,-347 44.5,-347 126.5,-347 126.5,-347 44.5,-347"/>
<polygon fill="none" stroke="#666666" points="18.5,-153 18.5,-413 126.5,-413 126.5,-153 18.5,-153"/>
</a>
</g>
</g>
<!-- Node2&#45;&gt;Node1 -->
<g id="edge1_Node000001_Node000002" class="edge">
<title>Node2&#45;&gt;Node1</title>
<g id="a_edge1_Node000001_Node000002"><a xlink:title=" ">
<path fill="none" stroke="#63b8ff" d="M72.5,-141.74C72.5,-132.76 72.5,-124.04 72.5,-115.84"/>
<polygon fill="none" stroke="#63b8ff" points="69,-141.74 72.5,-151.74 76,-141.74 69,-141.74"/>
</a>
</g>
</g>
<!-- Node3 -->
<g id="Node000003" class="node">
<title>Node3</title>
<g id="a_Node000003"><a xlink:href="classanch_1_1events_1_1_observable.html" target="_top" xlink:title=" ">
<polygon fill="white" stroke="none" points="133,-594 12,-594 12,-450 133,-450 133,-594"/>
<text text-anchor="start" x="16.62" y="-580.5" font-family="Helvetica,sans-Serif" font-size="10.00">anch::events::Observable</text>
<text text-anchor="start" x="35.38" y="-568.5" font-family="Helvetica,sans-Serif" font-size="10.00">&lt; SocketEvent &gt;</text>
<text text-anchor="start" x="71" y="-552.5" font-family="Helvetica,sans-Serif" font-size="10.00"> </text>
<text text-anchor="start" x="22" y="-536.5" font-family="Helvetica,sans-Serif" font-size="10.00">+</text>
<text text-anchor="start" x="38" y="-536.5" font-family="Helvetica,sans-Serif" font-size="10.00">Observable()</text>
<text text-anchor="start" x="22" y="-520.5" font-family="Helvetica,sans-Serif" font-size="10.00">+</text>
<text text-anchor="start" x="38" y="-520.5" font-family="Helvetica,sans-Serif" font-size="10.00">~Observable()</text>
<text text-anchor="start" x="22" y="-504.5" font-family="Helvetica,sans-Serif" font-size="10.00">+</text>
<text text-anchor="start" x="38" y="-504.5" font-family="Helvetica,sans-Serif" font-size="10.00">addObserver()</text>
<text text-anchor="start" x="22" y="-488.5" font-family="Helvetica,sans-Serif" font-size="10.00">+</text>
<text text-anchor="start" x="38" y="-488.5" font-family="Helvetica,sans-Serif" font-size="10.00">removeObserver()</text>
<text text-anchor="start" x="22" y="-472.5" font-family="Helvetica,sans-Serif" font-size="10.00">+</text>
<text text-anchor="start" x="38" y="-472.5" font-family="Helvetica,sans-Serif" font-size="10.00">notifyObservers()</text>
<text text-anchor="start" x="22" y="-456.5" font-family="Helvetica,sans-Serif" font-size="10.00">+</text>
<text text-anchor="start" x="38" y="-456.5" font-family="Helvetica,sans-Serif" font-size="10.00">notifyObservers()</text>
<polygon fill="#666666" stroke="#666666" points="12,-564 12,-564 133,-564 133,-564 12,-564"/>
<polygon fill="#666666" stroke="#666666" points="12,-548 12,-548 133,-548 133,-548 12,-548"/>
<polygon fill="none" stroke="#666666" points="12,-450 12,-594 133,-594 133,-450 12,-450"/>
</a>
</g>
</g>
<!-- Node3&#45;&gt;Node2 -->
<g id="edge2_Node000002_Node000003" class="edge">
<title>Node3&#45;&gt;Node2</title>
<g id="a_edge2_Node000002_Node000003"><a xlink:title=" ">
<path fill="none" stroke="#63b8ff" d="M72.5,-438.88C72.5,-430.44 72.5,-421.71 72.5,-412.92"/>
<polygon fill="none" stroke="#63b8ff" points="69,-438.7 72.5,-448.7 76,-438.7 69,-438.7"/>
</a>
</g>
</g>
<!-- Node4 -->
<g id="Node000004" class="node">
<title>Node4</title>
<g id="a_Node000004"><a xlink:href="classanch_1_1events_1_1_observable.html" target="_top" xlink:title="An observable implementation of the observers/observable design pattern.">
<polygon fill="white" stroke="none" points="145,-774 0,-774 0,-642 145,-642 145,-774"/>
<text text-anchor="start" x="5" y="-760.5" font-family="Helvetica,sans-Serif" font-size="10.00">anch::events::Observable&lt; T &gt;</text>
<text text-anchor="start" x="71" y="-744.5" font-family="Helvetica,sans-Serif" font-size="10.00"> </text>
<text text-anchor="start" x="16" y="-728.5" font-family="Helvetica,sans-Serif" font-size="10.00">+</text>
<text text-anchor="start" x="38" y="-728.5" font-family="Helvetica,sans-Serif" font-size="10.00">Observable()</text>
<text text-anchor="start" x="16" y="-712.5" font-family="Helvetica,sans-Serif" font-size="10.00">+</text>
<text text-anchor="start" x="38" y="-712.5" font-family="Helvetica,sans-Serif" font-size="10.00">~Observable()</text>
<text text-anchor="start" x="16" y="-696.5" font-family="Helvetica,sans-Serif" font-size="10.00">+</text>
<text text-anchor="start" x="38" y="-696.5" font-family="Helvetica,sans-Serif" font-size="10.00">addObserver()</text>
<text text-anchor="start" x="16" y="-680.5" font-family="Helvetica,sans-Serif" font-size="10.00">+</text>
<text text-anchor="start" x="38" y="-680.5" font-family="Helvetica,sans-Serif" font-size="10.00">removeObserver()</text>
<text text-anchor="start" x="16" y="-664.5" font-family="Helvetica,sans-Serif" font-size="10.00">+</text>
<text text-anchor="start" x="38" y="-664.5" font-family="Helvetica,sans-Serif" font-size="10.00">notifyObservers()</text>
<text text-anchor="start" x="16" y="-648.5" font-family="Helvetica,sans-Serif" font-size="10.00">+</text>
<text text-anchor="start" x="38" y="-648.5" font-family="Helvetica,sans-Serif" font-size="10.00">notifyObservers()</text>
<polygon fill="#666666" stroke="#666666" points="0,-756 0,-756 145,-756 145,-756 0,-756"/>
<polygon fill="#666666" stroke="#666666" points="0,-740 0,-740 145,-740 145,-740 0,-740"/>
<polygon fill="none" stroke="#666666" points="0,-642 0,-774 145,-774 145,-642 0,-642"/>
</a>
</g>
</g>
<!-- Node4&#45;&gt;Node3 -->
<g id="edge3_Node000003_Node000004" class="edge">
<title>Node4&#45;&gt;Node3</title>
<g id="a_edge3_Node000003_Node000004"><a xlink:title=" ">
<path fill="none" stroke="orange" d="M72.5,-630.98C72.5,-618.69 72.5,-606.01 72.5,-593.85"/>
<polygon fill="orange" stroke="orange" points="69,-630.61 72.5,-640.61 76,-630.61 69,-630.61"/>
</a>
</g>
<text text-anchor="middle" x="111.12" y="-614.5" font-family="Helvetica,sans-Serif" font-size="10.00" fill="grey"> &lt; SocketEvent &gt;</text>
</g>
</g>
</svg>

<g id="navigator" transform="translate(0 0)" fill="#404254">
  <rect fill="#f2f5e9" fill-opacity="0.5" stroke="#606060" stroke-width=".5" x="0" y="0" width="60" height="60"/>
  <use id="zoomplus" xlink:href="#zoomPlus" x="17" y="9" onmousedown="handleZoom(evt,'in')"/>
  <use id="zoomminus" xlink:href="#zoomMin" x="42" y="9" onmousedown="handleZoom(evt,'out')"/>
  <use id="reset" xlink:href="#resetDef" x="30" y="36" onmousedown="handleReset()"/>
   <use id="arrowup" xlink:href="#arrowUp" x="0" y="0" onmousedown="handlePan(0,-1)"/>
  <use id="arrowright" xlink:href="#arrowRight" x="0" y="0" onmousedown="handlePan(1,0)"/>
  <use id="arrowdown" xlink:href="#arrowDown" x="0" y="0" onmousedown="handlePan(0,1)"/>
  <use id="arrowleft" xlink:href="#arrowLeft" x="0" y="0" onmousedown="handlePan(-1,0)"/>
</g>
<svg viewBox="0 0 15 15" width="100%" height="30px" preserveAspectRatio="xMaxYMin meet">
 <g id="arrow_out" transform="scale(0.3 0.3)">
  <a xlink:href="classanch_1_1network_1_1_tcp_socket__inherit__graph_org.svg" target="_base">
   <rect id="button" ry="5" rx="5" y="6" x="6" height="38" width="38"
        fill="#f2f5e9" fill-opacity="0.5" stroke="#606060" stroke-width="1.0"/>
   <path id="arrow"
     d="M 11.500037,31.436501 C 11.940474,20.09759 22.043105,11.32322 32.158766,21.979434 L 37.068811,17.246167 C 37.068811,17.246167 37.088388,32 37.088388,32 L 22.160133,31.978069 C 22.160133,31.978069 26.997745,27.140456 26.997745,27.140456 C 18.528582,18.264221 13.291696,25.230495 11.500037,31.436501 z"
     style="fill:#404040;"/>
  </a>
 </g>
</svg>

<style type='text/css'>
<![CDATA[
[data-mouse-over-selected='false'] { opacity: 0.7; }
[data-mouse-over-selected='true']  { opacity: 1.0; }
]]>
</style>
<script type="application/ecmascript"><![CDATA[
document.addEventListener('DOMContentLoaded', (event) => {
  highlightEdges();
  highlightAdjacentNodes();
});
]]></script>
</svg>
