<?xml version="1.0" encoding="UTF-8" standalone="no"?>
<!DOCTYPE svg PUBLIC "-//W3C//DTD SVG 1.1//EN"
 "http://www.w3.org/Graphics/SVG/1.1/DTD/svg11.dtd">
<!-- Generated by graphviz version 12.2.1 (0)
 -->
<!-- Title: anch::crypto::SHA1 Pages: 1 -->
<svg width="196pt" height="973pt"
 viewBox="0.00 0.00 195.62 973.00" xmlns="http://www.w3.org/2000/svg" xmlns:xlink="http://www.w3.org/1999/xlink">
<g id="graph0" class="graph" transform="scale(1 1) rotate(0) translate(4 969)">
<title>anch::crypto::SHA1</title>
<!-- Node1 -->
<g id="Node000001" class="node">
<title>Node1</title>
<g id="a_Node000001"><a xlink:title="SHA1 hash algorithm implementation.">
<polygon fill="#999999" stroke="none" points="102.12,-164 7.88,-164 7.88,0 102.12,0 102.12,-164"/>
<text text-anchor="start" x="11.88" y="-150.5" font-family="Helvetica,sans-Serif" font-size="10.00">anch::crypto::SHA1</text>
<text text-anchor="start" x="53.5" y="-134.5" font-family="Helvetica,sans-Serif" font-size="10.00"> </text>
<text text-anchor="start" x="20.25" y="-118.5" font-family="Helvetica,sans-Serif" font-size="10.00">+</text>
<text text-anchor="start" x="38.62" y="-118.5" font-family="Helvetica,sans-Serif" font-size="10.00">SHA1()</text>
<text text-anchor="start" x="20.25" y="-102.5" font-family="Helvetica,sans-Serif" font-size="10.00">+</text>
<text text-anchor="start" x="38.62" y="-102.5" font-family="Helvetica,sans-Serif" font-size="10.00">SHA1()</text>
<text text-anchor="start" x="20.25" y="-86.5" font-family="Helvetica,sans-Serif" font-size="10.00">+</text>
<text text-anchor="start" x="38.62" y="-86.5" font-family="Helvetica,sans-Serif" font-size="10.00">SHA1()</text>
<text text-anchor="start" x="20.25" y="-70.5" font-family="Helvetica,sans-Serif" font-size="10.00">+</text>
<text text-anchor="start" x="38.62" y="-70.5" font-family="Helvetica,sans-Serif" font-size="10.00">~SHA1()</text>
<text text-anchor="start" x="20.25" y="-54.5" font-family="Helvetica,sans-Serif" font-size="10.00">+</text>
<text text-anchor="start" x="38.62" y="-54.5" font-family="Helvetica,sans-Serif" font-size="10.00">digest()</text>
<text text-anchor="start" x="20.62" y="-38.5" font-family="Helvetica,sans-Serif" font-size="10.00">#</text>
<text text-anchor="start" x="38.62" y="-38.5" font-family="Helvetica,sans-Serif" font-size="10.00">reset()</text>
<text text-anchor="start" x="20.62" y="-22.5" font-family="Helvetica,sans-Serif" font-size="10.00">#</text>
<text text-anchor="start" x="38.62" y="-22.5" font-family="Helvetica,sans-Serif" font-size="10.00">addData()</text>
<text text-anchor="start" x="20.62" y="-6.5" font-family="Helvetica,sans-Serif" font-size="10.00">#</text>
<text text-anchor="start" x="38.62" y="-6.5" font-family="Helvetica,sans-Serif" font-size="10.00">finalize()</text>
<polygon fill="#666666" stroke="#666666" points="7.88,-146 7.88,-146 102.12,-146 102.12,-146 7.88,-146"/>
<polygon fill="#666666" stroke="#666666" points="7.88,-130 7.88,-130 102.12,-130 102.12,-130 7.88,-130"/>
<polygon fill="none" stroke="#666666" points="7.88,0 7.88,-164 102.12,-164 102.12,0 7.88,0"/>
</a>
</g>
</g>
<!-- Node2 -->
<g id="Node000002" class="node">
<title>Node2</title>
<g id="a_Node000002"><a xlink:href="classanch_1_1crypto_1_1_hash.html" target="_top" xlink:title=" ">
<polygon fill="white" stroke="none" points="100.62,-409 9.38,-409 9.38,-201 100.62,-201 100.62,-409"/>
<text text-anchor="start" x="13.38" y="-395.5" font-family="Helvetica,sans-Serif" font-size="10.00">anch::crypto::Hash</text>
<text text-anchor="start" x="32.5" y="-383.5" font-family="Helvetica,sans-Serif" font-size="10.00">&lt; 20, 64 &gt;</text>
<text text-anchor="start" x="53.5" y="-367.5" font-family="Helvetica,sans-Serif" font-size="10.00"> </text>
<text text-anchor="start" x="14.62" y="-351.5" font-family="Helvetica,sans-Serif" font-size="10.00">+</text>
<text text-anchor="start" x="25.88" y="-351.5" font-family="Helvetica,sans-Serif" font-size="10.00">digest()</text>
<text text-anchor="start" x="14.62" y="-335.5" font-family="Helvetica,sans-Serif" font-size="10.00">+</text>
<text text-anchor="start" x="25.88" y="-335.5" font-family="Helvetica,sans-Serif" font-size="10.00">digest()</text>
<text text-anchor="start" x="14.62" y="-319.5" font-family="Helvetica,sans-Serif" font-size="10.00">+</text>
<text text-anchor="start" x="25.88" y="-319.5" font-family="Helvetica,sans-Serif" font-size="10.00">digest()</text>
<text text-anchor="start" x="14.62" y="-303.5" font-family="Helvetica,sans-Serif" font-size="10.00">+</text>
<text text-anchor="start" x="25.88" y="-303.5" font-family="Helvetica,sans-Serif" font-size="10.00">digest()</text>
<text text-anchor="start" x="14.62" y="-287.5" font-family="Helvetica,sans-Serif" font-size="10.00">+</text>
<text text-anchor="start" x="25.88" y="-287.5" font-family="Helvetica,sans-Serif" font-size="10.00">digest()</text>
<text text-anchor="start" x="14.62" y="-271.5" font-family="Helvetica,sans-Serif" font-size="10.00">+</text>
<text text-anchor="start" x="25.88" y="-271.5" font-family="Helvetica,sans-Serif" font-size="10.00">getOutputSize()</text>
<text text-anchor="start" x="14.62" y="-255.5" font-family="Helvetica,sans-Serif" font-size="10.00">+</text>
<text text-anchor="start" x="25.88" y="-255.5" font-family="Helvetica,sans-Serif" font-size="10.00">getBlockSize()</text>
<text text-anchor="start" x="15" y="-239.5" font-family="Helvetica,sans-Serif" font-size="10.00">#</text>
<text text-anchor="start" x="25.88" y="-239.5" font-family="Helvetica,sans-Serif" font-size="10.00">reset()</text>
<text text-anchor="start" x="15" y="-223.5" font-family="Helvetica,sans-Serif" font-size="10.00">#</text>
<text text-anchor="start" x="25.88" y="-223.5" font-family="Helvetica,sans-Serif" font-size="10.00">addData()</text>
<text text-anchor="start" x="15" y="-207.5" font-family="Helvetica,sans-Serif" font-size="10.00">#</text>
<text text-anchor="start" x="25.88" y="-207.5" font-family="Helvetica,sans-Serif" font-size="10.00">finalize()</text>
<polygon fill="#666666" stroke="#666666" points="9.38,-379 9.38,-379 100.62,-379 100.62,-379 9.38,-379"/>
<polygon fill="#666666" stroke="#666666" points="9.38,-363 9.38,-363 100.62,-363 100.62,-363 9.38,-363"/>
<polygon fill="none" stroke="#666666" points="9.38,-201 9.38,-409 100.62,-409 100.62,-201 9.38,-201"/>
</a>
</g>
</g>
<!-- Node2&#45;&gt;Node1 -->
<g id="edge1_Node000001_Node000002" class="edge">
<title>Node2&#45;&gt;Node1</title>
<g id="a_edge1_Node000001_Node000002"><a xlink:title=" ">
<path fill="none" stroke="#63b8ff" d="M55,-189.81C55,-181.09 55,-172.41 55,-163.97"/>
<polygon fill="none" stroke="#63b8ff" points="51.5,-189.75 55,-199.75 58.5,-189.75 51.5,-189.75"/>
</a>
</g>
</g>
<!-- Node3 -->
<g id="Node000003" class="node">
<title>Node3</title>
<g id="a_Node000003"><a xlink:title=" ">
<polygon fill="white" stroke="none" points="110,-765 0,-765 0,-713 110,-713 110,-765"/>
<text text-anchor="start" x="4" y="-751.5" font-family="Helvetica,sans-Serif" font-size="10.00">std::array&lt; uint8_t, O &gt;</text>
<text text-anchor="start" x="17.06" y="-735.5" font-family="Helvetica,sans-Serif" font-size="10.00">+</text>
<text text-anchor="start" x="40.12" y="-735.5" font-family="Helvetica,sans-Serif" font-size="10.00">elements</text>
<text text-anchor="start" x="53.5" y="-719.5" font-family="Helvetica,sans-Serif" font-size="10.00"> </text>
<polygon fill="#666666" stroke="#666666" points="0,-747 0,-747 110,-747 110,-747 0,-747"/>
<polygon fill="#666666" stroke="#666666" points="0,-731 0,-731 38.12,-731 38.12,-731 0,-731"/>
<polygon fill="#666666" stroke="#666666" points="38.12,-731 38.12,-731 110,-731 110,-731 38.12,-731"/>
<polygon fill="none" stroke="#666666" points="0,-713 0,-765 110,-765 110,-713 0,-713"/>
</a>
</g>
</g>
<!-- Node3&#45;&gt;Node2 -->
<g id="edge2_Node000002_Node000003" class="edge">
<title>Node3&#45;&gt;Node2</title>
<g id="a_edge2_Node000002_Node000003"><a xlink:title=" ">
<path fill="none" stroke="#63b8ff" d="M51.69,-713.05C49.99,-698.97 48.1,-681.04 47.25,-665 42.95,-583.83 45.04,-492.22 48.13,-421.85"/>
<polygon fill="none" stroke="#63b8ff" points="48.13,-421.86 44.41,-415.68 48.68,-409.87 52.4,-416.05 48.13,-421.86"/>
</a>
</g>
<text text-anchor="middle" x="67.12" y="-557.5" font-family="Helvetica,sans-Serif" font-size="10.00" fill="grey"> #_digest</text>
</g>
<!-- Node6 -->
<g id="Node000006" class="node">
<title>Node6</title>
<g id="a_Node000006"><a xlink:href="classanch_1_1crypto_1_1_hash.html" target="_top" xlink:title="Hash algorithm abstract class.">
<polygon fill="white" stroke="none" points="187.62,-665 96.38,-665 96.38,-457 187.62,-457 187.62,-665"/>
<text text-anchor="start" x="100.38" y="-651.5" font-family="Helvetica,sans-Serif" font-size="10.00">anch::crypto::Hash</text>
<text text-anchor="start" x="122.88" y="-639.5" font-family="Helvetica,sans-Serif" font-size="10.00">&lt; O, B &gt;</text>
<text text-anchor="start" x="140.5" y="-623.5" font-family="Helvetica,sans-Serif" font-size="10.00"> </text>
<text text-anchor="start" x="101.62" y="-607.5" font-family="Helvetica,sans-Serif" font-size="10.00">+</text>
<text text-anchor="start" x="112.88" y="-607.5" font-family="Helvetica,sans-Serif" font-size="10.00">digest()</text>
<text text-anchor="start" x="101.62" y="-591.5" font-family="Helvetica,sans-Serif" font-size="10.00">+</text>
<text text-anchor="start" x="112.88" y="-591.5" font-family="Helvetica,sans-Serif" font-size="10.00">digest()</text>
<text text-anchor="start" x="101.62" y="-575.5" font-family="Helvetica,sans-Serif" font-size="10.00">+</text>
<text text-anchor="start" x="112.88" y="-575.5" font-family="Helvetica,sans-Serif" font-size="10.00">digest()</text>
<text text-anchor="start" x="101.62" y="-559.5" font-family="Helvetica,sans-Serif" font-size="10.00">+</text>
<text text-anchor="start" x="112.88" y="-559.5" font-family="Helvetica,sans-Serif" font-size="10.00">digest()</text>
<text text-anchor="start" x="101.62" y="-543.5" font-family="Helvetica,sans-Serif" font-size="10.00">+</text>
<text text-anchor="start" x="112.88" y="-543.5" font-family="Helvetica,sans-Serif" font-size="10.00">digest()</text>
<text text-anchor="start" x="101.62" y="-527.5" font-family="Helvetica,sans-Serif" font-size="10.00">+</text>
<text text-anchor="start" x="112.88" y="-527.5" font-family="Helvetica,sans-Serif" font-size="10.00">getOutputSize()</text>
<text text-anchor="start" x="101.62" y="-511.5" font-family="Helvetica,sans-Serif" font-size="10.00">+</text>
<text text-anchor="start" x="112.88" y="-511.5" font-family="Helvetica,sans-Serif" font-size="10.00">getBlockSize()</text>
<text text-anchor="start" x="102" y="-495.5" font-family="Helvetica,sans-Serif" font-size="10.00">#</text>
<text text-anchor="start" x="112.88" y="-495.5" font-family="Helvetica,sans-Serif" font-size="10.00">reset()</text>
<text text-anchor="start" x="102" y="-479.5" font-family="Helvetica,sans-Serif" font-size="10.00">#</text>
<text text-anchor="start" x="112.88" y="-479.5" font-family="Helvetica,sans-Serif" font-size="10.00">addData()</text>
<text text-anchor="start" x="102" y="-463.5" font-family="Helvetica,sans-Serif" font-size="10.00">#</text>
<text text-anchor="start" x="112.88" y="-463.5" font-family="Helvetica,sans-Serif" font-size="10.00">finalize()</text>
<polygon fill="#666666" stroke="#666666" points="96.38,-635 96.38,-635 187.62,-635 187.62,-635 96.38,-635"/>
<polygon fill="#666666" stroke="#666666" points="96.38,-619 96.38,-619 187.62,-619 187.62,-619 96.38,-619"/>
<polygon fill="none" stroke="#666666" points="96.38,-457 96.38,-665 187.62,-665 187.62,-457 96.38,-457"/>
</a>
</g>
</g>
<!-- Node3&#45;&gt;Node6 -->
<g id="edge6_Node000006_Node000003" class="edge">
<title>Node3&#45;&gt;Node6</title>
<g id="a_edge6_Node000006_Node000003"><a xlink:title=" ">
<path fill="none" stroke="#63b8ff" d="M67.28,-713.16C73.66,-700.25 81.93,-683.52 90.63,-665.91"/>
<polygon fill="none" stroke="#63b8ff" points="90.69,-665.81 89.76,-658.66 96,-655.05 96.93,-662.2 90.69,-665.81"/>
</a>
</g>
<text text-anchor="middle" x="100.58" y="-685.5" font-family="Helvetica,sans-Serif" font-size="10.00" fill="grey"> #_digest</text>
</g>
<!-- Node4 -->
<g id="Node000004" class="node">
<title>Node4</title>
<g id="a_Node000004"><a xlink:title=" ">
<polygon fill="white" stroke="none" points="91.25,-865 18.75,-865 18.75,-813 91.25,-813 91.25,-865"/>
<text text-anchor="start" x="22.75" y="-851.5" font-family="Helvetica,sans-Serif" font-size="10.00">std::array&lt; T &gt;</text>
<text text-anchor="start" x="53.5" y="-835.5" font-family="Helvetica,sans-Serif" font-size="10.00"> </text>
<text text-anchor="start" x="53.5" y="-819.5" font-family="Helvetica,sans-Serif" font-size="10.00"> </text>
<polygon fill="#666666" stroke="#666666" points="18.75,-847 18.75,-847 91.25,-847 91.25,-847 18.75,-847"/>
<polygon fill="#666666" stroke="#666666" points="18.75,-831 18.75,-831 91.25,-831 91.25,-831 18.75,-831"/>
<polygon fill="none" stroke="#666666" points="18.75,-813 18.75,-865 91.25,-865 91.25,-813 18.75,-813"/>
</a>
</g>
</g>
<!-- Node4&#45;&gt;Node3 -->
<g id="edge3_Node000003_Node000004" class="edge">
<title>Node4&#45;&gt;Node3</title>
<g id="a_edge3_Node000003_Node000004"><a xlink:title=" ">
<path fill="none" stroke="orange" d="M55,-801.74C55,-789.49 55,-776.1 55,-764.94"/>
<polygon fill="orange" stroke="orange" points="51.5,-801.5 55,-811.5 58.5,-801.5 51.5,-801.5"/>
</a>
</g>
<text text-anchor="middle" x="86.88" y="-785.5" font-family="Helvetica,sans-Serif" font-size="10.00" fill="grey"> &lt; uint8_t, O &gt;</text>
</g>
<!-- Node5 -->
<g id="Node000005" class="node">
<title>Node5</title>
<g id="a_Node000005"><a xlink:title=" ">
<polygon fill="white" stroke="none" points="62,-965 48,-965 48,-913 62,-913 62,-965"/>
<text text-anchor="start" x="52" y="-951.5" font-family="Helvetica,sans-Serif" font-size="10.00">T</text>
<text text-anchor="start" x="53.5" y="-935.5" font-family="Helvetica,sans-Serif" font-size="10.00"> </text>
<text text-anchor="start" x="53.5" y="-919.5" font-family="Helvetica,sans-Serif" font-size="10.00"> </text>
<polygon fill="#bfbfbf" stroke="#bfbfbf" points="48,-947 48,-947 62,-947 62,-947 48,-947"/>
<polygon fill="#bfbfbf" stroke="#bfbfbf" points="48,-931 48,-931 62,-931 62,-931 48,-931"/>
<polygon fill="none" stroke="#bfbfbf" points="48,-913 48,-965 62,-965 62,-913 48,-913"/>
</a>
</g>
</g>
<!-- Node5&#45;&gt;Node4 -->
<g id="edge4_Node000004_Node000005" class="edge">
<title>Node5&#45;&gt;Node4</title>
<g id="a_edge4_Node000004_Node000005"><a xlink:title=" ">
<path fill="none" stroke="#63b8ff" d="M55,-913.02C55,-902.3 55,-889.56 55,-877.73"/>
<polygon fill="none" stroke="#63b8ff" points="55,-877.84 51,-871.84 55,-865.84 59,-871.84 55,-877.84"/>
</a>
</g>
<text text-anchor="middle" x="79.38" y="-885.5" font-family="Helvetica,sans-Serif" font-size="10.00" fill="grey"> +elements</text>
</g>
<!-- Node6&#45;&gt;Node2 -->
<g id="edge5_Node000002_Node000006" class="edge">
<title>Node6&#45;&gt;Node2</title>
<g id="a_edge5_Node000002_Node000006"><a xlink:title=" ">
<path fill="none" stroke="orange" d="M103.13,-446.52C98.81,-433.92 94.44,-421.14 90.17,-408.68"/>
<polygon fill="orange" stroke="orange" points="99.7,-447.3 106.25,-455.62 106.32,-445.03 99.7,-447.3"/>
</a>
</g>
<text text-anchor="middle" x="122.5" y="-429.5" font-family="Helvetica,sans-Serif" font-size="10.00" fill="grey"> &lt; 20, 64 &gt;</text>
</g>
</g>
</svg>
