<?xml version="1.0" encoding="UTF-8" standalone="no"?>
<!DOCTYPE svg PUBLIC "-//W3C//DTD SVG 1.1//EN"
 "http://www.w3.org/Graphics/SVG/1.1/DTD/svg11.dtd">
<!-- Generated by graphviz version 14.0.4 (0)
 -->
<!-- Title: anch::crypto::MD5 Pages: 1 -->
<svg width="105pt" height="615pt"
 viewBox="0.00 0.00 105.00 615.00" xmlns="http://www.w3.org/2000/svg" xmlns:xlink="http://www.w3.org/1999/xlink">
<g id="graph0" class="graph" transform="scale(1 1) rotate(0) translate(4 611)">
<title>anch::crypto::MD5</title>
<!-- Node1 -->
<g id="Node000001" class="node">
<title>Node1</title>
<g id="a_Node000001"><a xlink:title="MD5 hash algorithm implementation.">
<polygon fill="#999999" stroke="none" points="90.12,-164 1.12,-164 1.12,0 90.12,0 90.12,-164"/>
<text xml:space="preserve" text-anchor="start" x="5.12" y="-150.5" font-family="Helvetica,sans-Serif" font-size="10.00">anch::crypto::MD5</text>
<text xml:space="preserve" text-anchor="start" x="44.12" y="-134.5" font-family="Helvetica,sans-Serif" font-size="10.00"> </text>
<text xml:space="preserve" text-anchor="start" x="12.19" y="-118.5" font-family="Helvetica,sans-Serif" font-size="10.00">+</text>
<text xml:space="preserve" text-anchor="start" x="29.25" y="-118.5" font-family="Helvetica,sans-Serif" font-size="10.00">MD5()</text>
<text xml:space="preserve" text-anchor="start" x="12.19" y="-102.5" font-family="Helvetica,sans-Serif" font-size="10.00">+</text>
<text xml:space="preserve" text-anchor="start" x="29.25" y="-102.5" font-family="Helvetica,sans-Serif" font-size="10.00">MD5()</text>
<text xml:space="preserve" text-anchor="start" x="12.19" y="-86.5" font-family="Helvetica,sans-Serif" font-size="10.00">+</text>
<text xml:space="preserve" text-anchor="start" x="29.25" y="-86.5" font-family="Helvetica,sans-Serif" font-size="10.00">MD5()</text>
<text xml:space="preserve" text-anchor="start" x="12.19" y="-70.5" font-family="Helvetica,sans-Serif" font-size="10.00">+</text>
<text xml:space="preserve" text-anchor="start" x="29.25" y="-70.5" font-family="Helvetica,sans-Serif" font-size="10.00">~MD5()</text>
<text xml:space="preserve" text-anchor="start" x="12.19" y="-54.5" font-family="Helvetica,sans-Serif" font-size="10.00">+</text>
<text xml:space="preserve" text-anchor="start" x="29.25" y="-54.5" font-family="Helvetica,sans-Serif" font-size="10.00">digest()</text>
<text xml:space="preserve" text-anchor="start" x="12.56" y="-38.5" font-family="Helvetica,sans-Serif" font-size="10.00">#</text>
<text xml:space="preserve" text-anchor="start" x="29.25" y="-38.5" font-family="Helvetica,sans-Serif" font-size="10.00">reset()</text>
<text xml:space="preserve" text-anchor="start" x="12.56" y="-22.5" font-family="Helvetica,sans-Serif" font-size="10.00">#</text>
<text xml:space="preserve" text-anchor="start" x="29.25" y="-22.5" font-family="Helvetica,sans-Serif" font-size="10.00">addData()</text>
<text xml:space="preserve" text-anchor="start" x="12.56" y="-6.5" font-family="Helvetica,sans-Serif" font-size="10.00">#</text>
<text xml:space="preserve" text-anchor="start" x="29.25" y="-6.5" font-family="Helvetica,sans-Serif" font-size="10.00">finalize()</text>
<polygon fill="#666666" stroke="#666666" points="1.12,-146 1.12,-146 90.12,-146 90.12,-146 1.12,-146"/>
<polygon fill="#666666" stroke="#666666" points="1.12,-130 1.12,-130 90.12,-130 90.12,-130 1.12,-130"/>
<polygon fill="none" stroke="#666666" points="1.12,0 1.12,-164 90.12,-164 90.12,0 1.12,0"/>
</a>
</g>
</g>
<!-- Node2 -->
<g id="Node000002" class="node">
<title>Node2</title>
<g id="a_Node000002"><a xlink:href="classanch_1_1crypto_1_1_hash.html" target="_top" xlink:title=" ">
<polygon fill="white" stroke="none" points="91.25,-345 0,-345 0,-201 91.25,-201 91.25,-345"/>
<text xml:space="preserve" text-anchor="start" x="4" y="-331.5" font-family="Helvetica,sans-Serif" font-size="10.00">anch::crypto::Hash</text>
<text xml:space="preserve" text-anchor="start" x="23.12" y="-319.5" font-family="Helvetica,sans-Serif" font-size="10.00">&lt; 16, 64 &gt;</text>
<text xml:space="preserve" text-anchor="start" x="5.62" y="-303.5" font-family="Helvetica,sans-Serif" font-size="10.00">#</text>
<text xml:space="preserve" text-anchor="start" x="16.5" y="-303.5" font-family="Helvetica,sans-Serif" font-size="10.00">_digest</text>
<text xml:space="preserve" text-anchor="start" x="5.25" y="-287.5" font-family="Helvetica,sans-Serif" font-size="10.00">+</text>
<text xml:space="preserve" text-anchor="start" x="16.5" y="-287.5" font-family="Helvetica,sans-Serif" font-size="10.00">digest()</text>
<text xml:space="preserve" text-anchor="start" x="5.25" y="-271.5" font-family="Helvetica,sans-Serif" font-size="10.00">+</text>
<text xml:space="preserve" text-anchor="start" x="16.5" y="-271.5" font-family="Helvetica,sans-Serif" font-size="10.00">getOutputSize()</text>
<text xml:space="preserve" text-anchor="start" x="5.25" y="-255.5" font-family="Helvetica,sans-Serif" font-size="10.00">+</text>
<text xml:space="preserve" text-anchor="start" x="16.5" y="-255.5" font-family="Helvetica,sans-Serif" font-size="10.00">getBlockSize()</text>
<text xml:space="preserve" text-anchor="start" x="5.62" y="-239.5" font-family="Helvetica,sans-Serif" font-size="10.00">#</text>
<text xml:space="preserve" text-anchor="start" x="16.5" y="-239.5" font-family="Helvetica,sans-Serif" font-size="10.00">reset()</text>
<text xml:space="preserve" text-anchor="start" x="5.62" y="-223.5" font-family="Helvetica,sans-Serif" font-size="10.00">#</text>
<text xml:space="preserve" text-anchor="start" x="16.5" y="-223.5" font-family="Helvetica,sans-Serif" font-size="10.00">addData()</text>
<text xml:space="preserve" text-anchor="start" x="5.62" y="-207.5" font-family="Helvetica,sans-Serif" font-size="10.00">#</text>
<text xml:space="preserve" text-anchor="start" x="16.5" y="-207.5" font-family="Helvetica,sans-Serif" font-size="10.00">finalize()</text>
<polygon fill="#666666" stroke="#666666" points="0,-315 0,-315 91.25,-315 91.25,-315 0,-315"/>
<polygon fill="#666666" stroke="#666666" points="0,-299 0,-299 14.5,-299 14.5,-299 0,-299"/>
<polygon fill="#666666" stroke="#666666" points="14.5,-299 14.5,-299 91.25,-299 91.25,-299 14.5,-299"/>
<polygon fill="none" stroke="#666666" points="0,-201 0,-345 91.25,-345 91.25,-201 0,-201"/>
</a>
</g>
</g>
<!-- Node2&#45;&gt;Node1 -->
<g id="edge1_Node000001_Node000002" class="edge">
<title>Node2&#45;&gt;Node1</title>
<g id="a_edge1_Node000001_Node000002"><a xlink:title=" ">
<path fill="none" stroke="#63b8ff" d="M45.62,-189.85C45.62,-181.22 45.62,-172.46 45.62,-163.84"/>
<polygon fill="none" stroke="#63b8ff" points="42.13,-189.57 45.63,-199.57 49.13,-189.57 42.13,-189.57"/>
</a>
</g>
</g>
<!-- Node3 -->
<g id="Node000003" class="node">
<title>Node3</title>
<g id="a_Node000003"><a xlink:href="classanch_1_1crypto_1_1_hash.html" target="_top" xlink:title="Hash algorithm abstract class.">
<polygon fill="white" stroke="none" points="91.25,-607 0,-607 0,-399 91.25,-399 91.25,-607"/>
<text xml:space="preserve" text-anchor="start" x="4" y="-593.5" font-family="Helvetica,sans-Serif" font-size="10.00">anch::crypto::Hash</text>
<text xml:space="preserve" text-anchor="start" x="26.5" y="-581.5" font-family="Helvetica,sans-Serif" font-size="10.00">&lt; O, B &gt;</text>
<text xml:space="preserve" text-anchor="start" x="5.62" y="-565.5" font-family="Helvetica,sans-Serif" font-size="10.00">#</text>
<text xml:space="preserve" text-anchor="start" x="16.5" y="-565.5" font-family="Helvetica,sans-Serif" font-size="10.00">_digest</text>
<text xml:space="preserve" text-anchor="start" x="5.25" y="-549.5" font-family="Helvetica,sans-Serif" font-size="10.00">+</text>
<text xml:space="preserve" text-anchor="start" x="16.5" y="-549.5" font-family="Helvetica,sans-Serif" font-size="10.00">digest()</text>
<text xml:space="preserve" text-anchor="start" x="5.25" y="-533.5" font-family="Helvetica,sans-Serif" font-size="10.00">+</text>
<text xml:space="preserve" text-anchor="start" x="16.5" y="-533.5" font-family="Helvetica,sans-Serif" font-size="10.00">digest()</text>
<text xml:space="preserve" text-anchor="start" x="5.25" y="-517.5" font-family="Helvetica,sans-Serif" font-size="10.00">+</text>
<text xml:space="preserve" text-anchor="start" x="16.5" y="-517.5" font-family="Helvetica,sans-Serif" font-size="10.00">digest()</text>
<text xml:space="preserve" text-anchor="start" x="5.25" y="-501.5" font-family="Helvetica,sans-Serif" font-size="10.00">+</text>
<text xml:space="preserve" text-anchor="start" x="16.5" y="-501.5" font-family="Helvetica,sans-Serif" font-size="10.00">digest()</text>
<text xml:space="preserve" text-anchor="start" x="5.25" y="-485.5" font-family="Helvetica,sans-Serif" font-size="10.00">+</text>
<text xml:space="preserve" text-anchor="start" x="16.5" y="-485.5" font-family="Helvetica,sans-Serif" font-size="10.00">digest()</text>
<text xml:space="preserve" text-anchor="start" x="5.25" y="-469.5" font-family="Helvetica,sans-Serif" font-size="10.00">+</text>
<text xml:space="preserve" text-anchor="start" x="16.5" y="-469.5" font-family="Helvetica,sans-Serif" font-size="10.00">getOutputSize()</text>
<text xml:space="preserve" text-anchor="start" x="5.25" y="-453.5" font-family="Helvetica,sans-Serif" font-size="10.00">+</text>
<text xml:space="preserve" text-anchor="start" x="16.5" y="-453.5" font-family="Helvetica,sans-Serif" font-size="10.00">getBlockSize()</text>
<text xml:space="preserve" text-anchor="start" x="5.62" y="-437.5" font-family="Helvetica,sans-Serif" font-size="10.00">#</text>
<text xml:space="preserve" text-anchor="start" x="16.5" y="-437.5" font-family="Helvetica,sans-Serif" font-size="10.00">reset()</text>
<text xml:space="preserve" text-anchor="start" x="5.62" y="-421.5" font-family="Helvetica,sans-Serif" font-size="10.00">#</text>
<text xml:space="preserve" text-anchor="start" x="16.5" y="-421.5" font-family="Helvetica,sans-Serif" font-size="10.00">addData()</text>
<text xml:space="preserve" text-anchor="start" x="5.62" y="-405.5" font-family="Helvetica,sans-Serif" font-size="10.00">#</text>
<text xml:space="preserve" text-anchor="start" x="16.5" y="-405.5" font-family="Helvetica,sans-Serif" font-size="10.00">finalize()</text>
<polygon fill="#666666" stroke="#666666" points="0,-577 0,-577 91.25,-577 91.25,-577 0,-577"/>
<polygon fill="#666666" stroke="#666666" points="0,-561 0,-561 14.5,-561 14.5,-561 0,-561"/>
<polygon fill="#666666" stroke="#666666" points="14.5,-561 14.5,-561 91.25,-561 91.25,-561 14.5,-561"/>
<polygon fill="none" stroke="#666666" points="0,-399 0,-607 91.25,-607 91.25,-399 0,-399"/>
</a>
</g>
</g>
<!-- Node3&#45;&gt;Node2 -->
<g id="edge2_Node000002_Node000003" class="edge">
<title>Node3&#45;&gt;Node2</title>
<g id="a_edge2_Node000002_Node000003"><a xlink:title=" ">
<path fill="none" stroke="orange" d="M45.62,-387.83C45.62,-373.19 45.62,-358.56 45.62,-344.89"/>
<polygon fill="orange" stroke="orange" points="42.13,-387.49 45.63,-397.49 49.13,-387.49 42.13,-387.49"/>
</a>
</g>
<text xml:space="preserve" text-anchor="start" x="48.62" y="-368.5" font-family="Helvetica,sans-Serif" font-size="10.00" fill="grey">&lt; 16, 64 &gt;</text>
</g>
</g>
</svg>
