<?xml version="1.0" encoding="UTF-8" standalone="no"?>
<!DOCTYPE svg PUBLIC "-//W3C//DTD SVG 1.1//EN"
 "http://www.w3.org/Graphics/SVG/1.1/DTD/svg11.dtd">
<!-- Generated by graphviz version 14.1.3 (0)
 -->
<!-- Title: anch::crypto::CBC&lt; Cipher, Padding &gt; Pages: 1 -->
<svg width="203pt" height="619pt"
 viewBox="0.00 0.00 203.00 619.00" xmlns="http://www.w3.org/2000/svg" xmlns:xlink="http://www.w3.org/1999/xlink">
<g id="graph0" class="graph" transform="scale(1 1) rotate(0) translate(4 615)">
<title>anch::crypto::CBC&lt; Cipher, Padding &gt;</title>
<!-- Node1 -->
<g id="Node000001" class="node">
<title>Node1</title>
<g id="a_Node000001"><a xlink:title="Cipher&#45;block chaining implementation.">
<polygon fill="#999999" stroke="none" points="127.75,-128 32,-128 32,0 127.75,0 127.75,-128"/>
<text xml:space="preserve" text-anchor="start" x="36" y="-114.25" font-family="Helvetica,sans-Serif" font-size="10.00">anch::crypto::CBC&lt;</text>
<text xml:space="preserve" text-anchor="start" x="39" y="-102.25" font-family="Helvetica,sans-Serif" font-size="10.00"> Cipher, Padding &gt;</text>
<text xml:space="preserve" text-anchor="start" x="78.38" y="-86.25" font-family="Helvetica,sans-Serif" font-size="10.00"> </text>
<text xml:space="preserve" text-anchor="start" x="38.56" y="-70.25" font-family="Helvetica,sans-Serif" font-size="10.00">+</text>
<text xml:space="preserve" text-anchor="start" x="51.12" y="-70.25" font-family="Helvetica,sans-Serif" font-size="10.00">CBC()</text>
<text xml:space="preserve" text-anchor="start" x="38.56" y="-54.25" font-family="Helvetica,sans-Serif" font-size="10.00">+</text>
<text xml:space="preserve" text-anchor="start" x="51.12" y="-54.25" font-family="Helvetica,sans-Serif" font-size="10.00">~CBC()</text>
<text xml:space="preserve" text-anchor="start" x="38.94" y="-38.25" font-family="Helvetica,sans-Serif" font-size="10.00">#</text>
<text xml:space="preserve" text-anchor="start" x="51.12" y="-38.25" font-family="Helvetica,sans-Serif" font-size="10.00">cipherBlock()</text>
<text xml:space="preserve" text-anchor="start" x="38.94" y="-22.25" font-family="Helvetica,sans-Serif" font-size="10.00">#</text>
<text xml:space="preserve" text-anchor="start" x="51.12" y="-22.25" font-family="Helvetica,sans-Serif" font-size="10.00">decipherBlock()</text>
<text xml:space="preserve" text-anchor="start" x="38.94" y="-6.25" font-family="Helvetica,sans-Serif" font-size="10.00">#</text>
<text xml:space="preserve" text-anchor="start" x="51.12" y="-6.25" font-family="Helvetica,sans-Serif" font-size="10.00">reset()</text>
<polygon fill="#666666" stroke="#666666" points="32,-98 32,-98 127.75,-98 127.75,-98 32,-98"/>
<polygon fill="#666666" stroke="#666666" points="32,-82 32,-82 127.75,-82 127.75,-82 32,-82"/>
<polygon fill="none" stroke="#666666" points="32,0 32,-128 127.75,-128 127.75,0 32,0"/>
</a>
</g>
</g>
<!-- Node2 -->
<g id="Node000002" class="node">
<title>Node2</title>
<g id="a_Node000002"><a xlink:href="classanch_1_1crypto_1_1_block_cipher_mode_of_operation.html" target="_top" xlink:title=" ">
<polygon fill="white" stroke="none" points="159.75,-353 0,-353 0,-165 159.75,-165 159.75,-353"/>
<text xml:space="preserve" text-anchor="start" x="6" y="-339.25" font-family="Helvetica,sans-Serif" font-size="10.00">anch::crypto::BlockCipher</text>
<text xml:space="preserve" text-anchor="start" x="6" y="-327.25" font-family="Helvetica,sans-Serif" font-size="10.00">ModeOfOperation&lt; CBC&lt; Cipher,</text>
<text xml:space="preserve" text-anchor="start" x="34.5" y="-315.25" font-family="Helvetica,sans-Serif" font-size="10.00"> Padding &gt;, Cipher &gt;</text>
<text xml:space="preserve" text-anchor="start" x="78.38" y="-299.25" font-family="Helvetica,sans-Serif" font-size="10.00"> </text>
<text xml:space="preserve" text-anchor="start" x="4" y="-283.25" font-family="Helvetica,sans-Serif" font-size="10.00">+</text>
<text xml:space="preserve" text-anchor="start" x="14" y="-283.25" font-family="Helvetica,sans-Serif" font-size="10.00">cipher()</text>
<text xml:space="preserve" text-anchor="start" x="4" y="-267.25" font-family="Helvetica,sans-Serif" font-size="10.00">+</text>
<text xml:space="preserve" text-anchor="start" x="14" y="-267.25" font-family="Helvetica,sans-Serif" font-size="10.00">decipher()</text>
<text xml:space="preserve" text-anchor="start" x="4" y="-251.25" font-family="Helvetica,sans-Serif" font-size="10.00">+</text>
<text xml:space="preserve" text-anchor="start" x="14" y="-251.25" font-family="Helvetica,sans-Serif" font-size="10.00">setNbThread()</text>
<text xml:space="preserve" text-anchor="start" x="4.38" y="-235.25" font-family="Helvetica,sans-Serif" font-size="10.00">#</text>
<text xml:space="preserve" text-anchor="start" x="14" y="-235.25" font-family="Helvetica,sans-Serif" font-size="10.00">BlockCipherModeOfOperation()</text>
<text xml:space="preserve" text-anchor="start" x="4.38" y="-219.25" font-family="Helvetica,sans-Serif" font-size="10.00">#</text>
<text xml:space="preserve" text-anchor="start" x="14" y="-219.25" font-family="Helvetica,sans-Serif" font-size="10.00">~BlockCipherModeOfOperation()</text>
<text xml:space="preserve" text-anchor="start" x="4.38" y="-203.25" font-family="Helvetica,sans-Serif" font-size="10.00">#</text>
<text xml:space="preserve" text-anchor="start" x="14" y="-203.25" font-family="Helvetica,sans-Serif" font-size="10.00">cipherBlock()</text>
<text xml:space="preserve" text-anchor="start" x="4.38" y="-187.25" font-family="Helvetica,sans-Serif" font-size="10.00">#</text>
<text xml:space="preserve" text-anchor="start" x="14" y="-187.25" font-family="Helvetica,sans-Serif" font-size="10.00">decipherBlock()</text>
<text xml:space="preserve" text-anchor="start" x="4.38" y="-171.25" font-family="Helvetica,sans-Serif" font-size="10.00">#</text>
<text xml:space="preserve" text-anchor="start" x="14" y="-171.25" font-family="Helvetica,sans-Serif" font-size="10.00">reset()</text>
<polygon fill="#666666" stroke="#666666" points="0,-311 0,-311 159.75,-311 159.75,-311 0,-311"/>
<polygon fill="#666666" stroke="#666666" points="0,-295 0,-295 159.75,-295 159.75,-295 0,-295"/>
<polygon fill="none" stroke="#666666" points="0,-165 0,-353 159.75,-353 159.75,-165 0,-165"/>
</a>
</g>
</g>
<!-- Node2&#45;&gt;Node1 -->
<g id="edge1_Node000001_Node000002" class="edge">
<title>Node2&#45;&gt;Node1</title>
<g id="a_edge1_Node000001_Node000002"><a xlink:title=" ">
<path fill="none" stroke="#63b8ff" d="M79.88,-153.91C79.88,-145.03 79.88,-136.24 79.88,-127.84"/>
<polygon fill="none" stroke="#63b8ff" points="76.38,-153.66 79.88,-163.66 83.38,-153.66 76.38,-153.66"/>
</a>
</g>
</g>
<!-- Node3 -->
<g id="Node000003" class="node">
<title>Node3</title>
<g id="a_Node000003"><a xlink:href="classanch_1_1crypto_1_1_block_cipher_mode_of_operation.html" target="_top" xlink:title="Block cipher mode of operation interface.">
<polygon fill="white" stroke="none" points="159.75,-611 0,-611 0,-423 159.75,-423 159.75,-611"/>
<text xml:space="preserve" text-anchor="start" x="18.75" y="-597.25" font-family="Helvetica,sans-Serif" font-size="10.00">anch::crypto::BlockCipher</text>
<text xml:space="preserve" text-anchor="start" x="18.75" y="-585.25" font-family="Helvetica,sans-Serif" font-size="10.00">ModeOfOperation&lt; Derived,</text>
<text xml:space="preserve" text-anchor="start" x="59.62" y="-573.25" font-family="Helvetica,sans-Serif" font-size="10.00"> Cipher &gt;</text>
<text xml:space="preserve" text-anchor="start" x="78.38" y="-557.25" font-family="Helvetica,sans-Serif" font-size="10.00"> </text>
<text xml:space="preserve" text-anchor="start" x="4" y="-541.25" font-family="Helvetica,sans-Serif" font-size="10.00">+</text>
<text xml:space="preserve" text-anchor="start" x="14" y="-541.25" font-family="Helvetica,sans-Serif" font-size="10.00">cipher()</text>
<text xml:space="preserve" text-anchor="start" x="4" y="-525.25" font-family="Helvetica,sans-Serif" font-size="10.00">+</text>
<text xml:space="preserve" text-anchor="start" x="14" y="-525.25" font-family="Helvetica,sans-Serif" font-size="10.00">decipher()</text>
<text xml:space="preserve" text-anchor="start" x="4" y="-509.25" font-family="Helvetica,sans-Serif" font-size="10.00">+</text>
<text xml:space="preserve" text-anchor="start" x="14" y="-509.25" font-family="Helvetica,sans-Serif" font-size="10.00">setNbThread()</text>
<text xml:space="preserve" text-anchor="start" x="4.38" y="-493.25" font-family="Helvetica,sans-Serif" font-size="10.00">#</text>
<text xml:space="preserve" text-anchor="start" x="14" y="-493.25" font-family="Helvetica,sans-Serif" font-size="10.00">BlockCipherModeOfOperation()</text>
<text xml:space="preserve" text-anchor="start" x="4.38" y="-477.25" font-family="Helvetica,sans-Serif" font-size="10.00">#</text>
<text xml:space="preserve" text-anchor="start" x="14" y="-477.25" font-family="Helvetica,sans-Serif" font-size="10.00">~BlockCipherModeOfOperation()</text>
<text xml:space="preserve" text-anchor="start" x="4.38" y="-461.25" font-family="Helvetica,sans-Serif" font-size="10.00">#</text>
<text xml:space="preserve" text-anchor="start" x="14" y="-461.25" font-family="Helvetica,sans-Serif" font-size="10.00">cipherBlock()</text>
<text xml:space="preserve" text-anchor="start" x="4.38" y="-445.25" font-family="Helvetica,sans-Serif" font-size="10.00">#</text>
<text xml:space="preserve" text-anchor="start" x="14" y="-445.25" font-family="Helvetica,sans-Serif" font-size="10.00">decipherBlock()</text>
<text xml:space="preserve" text-anchor="start" x="4.38" y="-429.25" font-family="Helvetica,sans-Serif" font-size="10.00">#</text>
<text xml:space="preserve" text-anchor="start" x="14" y="-429.25" font-family="Helvetica,sans-Serif" font-size="10.00">reset()</text>
<polygon fill="#666666" stroke="#666666" points="0,-569 0,-569 159.75,-569 159.75,-569 0,-569"/>
<polygon fill="#666666" stroke="#666666" points="0,-553 0,-553 159.75,-553 159.75,-553 0,-553"/>
<polygon fill="none" stroke="#666666" points="0,-423 0,-611 159.75,-611 159.75,-423 0,-423"/>
</a>
</g>
</g>
<!-- Node3&#45;&gt;Node2 -->
<g id="edge2_Node000002_Node000003" class="edge">
<title>Node3&#45;&gt;Node2</title>
<g id="a_edge2_Node000002_Node000003"><a xlink:title=" ">
<path fill="none" stroke="orange" d="M79.88,-411.83C79.88,-392.32 79.88,-372.04 79.88,-352.9"/>
<polygon fill="orange" stroke="orange" points="76.38,-411.7 79.88,-421.7 83.38,-411.7 76.38,-411.7"/>
</a>
</g>
<text xml:space="preserve" text-anchor="start" x="82.88" y="-392.25" font-family="Helvetica,sans-Serif" font-size="10.00" fill="grey">&lt; CBC&lt; Cipher, Padding</text>
<text xml:space="preserve" text-anchor="start" x="82.88" y="-376.25" font-family="Helvetica,sans-Serif" font-size="10.00" fill="grey">   &gt;, Cipher &gt;</text>
</g>
</g>
</svg>
