<?xml version="1.0" encoding="UTF-8" standalone="no"?>
<!DOCTYPE svg PUBLIC "-//W3C//DTD SVG 1.1//EN"
 "http://www.w3.org/Graphics/SVG/1.1/DTD/svg11.dtd">
<!-- Generated by graphviz version 10.0.1 (0)
 -->
<!-- Title: anch::rest::MapperRegistry Pages: 1 -->
<svg width="149pt" height="225pt"
 viewBox="0.00 0.00 149.00 225.00" xmlns="http://www.w3.org/2000/svg" xmlns:xlink="http://www.w3.org/1999/xlink">

<svg id="main" version="1.1" xmlns="http://www.w3.org/2000/svg" xmlns:xlink="http://www.w3.org/1999/xlink" xml:space="preserve" onload="init(evt)">
<style type="text/css"><![CDATA[
.node, .edge {opacity: 0.7;}
.node.selected, .edge.selected {opacity: 1;}
.edge:hover path { stroke: red; }
.edge:hover polygon { stroke: red; fill: red; }
]]></style>
<script type="application/ecmascript" xlink:href="svg.min.js"/>
<svg id="graph" class="graph">
<g id="graph0" class="graph" transform="scale(1 1) rotate(0) translate(4 221)">
<title>anch::rest::MapperRegistry</title>
<!-- Node1 -->
<g id="Node000001" class="node">
<title>Node1</title>
<g id="a_Node000001"><a xlink:title=" ">
<polygon fill="#999999" stroke="none" points="141,-217 0,-217 0,-101 141,-101 141,-217"/>
<text text-anchor="start" x="4.88" y="-203.5" font-family="Helvetica,sans-Serif" font-size="10.00">anch::rest::MapperRegistry</text>
<text text-anchor="start" x="69" y="-187.5" font-family="Helvetica,sans-Serif" font-size="10.00"> </text>
<text text-anchor="start" x="10.88" y="-171.5" font-family="Helvetica,sans-Serif" font-size="10.00">+</text>
<text text-anchor="start" x="30" y="-171.5" font-family="Helvetica,sans-Serif" font-size="10.00">MapperRegistry()</text>
<text text-anchor="start" x="10.88" y="-155.5" font-family="Helvetica,sans-Serif" font-size="10.00">+</text>
<text text-anchor="start" x="30" y="-155.5" font-family="Helvetica,sans-Serif" font-size="10.00">~MapperRegistry()</text>
<text text-anchor="start" x="10.88" y="-139.5" font-family="Helvetica,sans-Serif" font-size="10.00">+</text>
<text text-anchor="start" x="30" y="-139.5" font-family="Helvetica,sans-Serif" font-size="10.00">registerMapper()</text>
<text text-anchor="start" x="10.88" y="-123.5" font-family="Helvetica,sans-Serif" font-size="10.00">+</text>
<text text-anchor="start" x="30" y="-123.5" font-family="Helvetica,sans-Serif" font-size="10.00">serialize()</text>
<text text-anchor="start" x="10.88" y="-107.5" font-family="Helvetica,sans-Serif" font-size="10.00">+</text>
<text text-anchor="start" x="30" y="-107.5" font-family="Helvetica,sans-Serif" font-size="10.00">deserialize()</text>
<polygon fill="#666666" stroke="#666666" points="0,-199 0,-199 141,-199 141,-199 0,-199"/>
<polygon fill="#666666" stroke="#666666" points="0,-183 0,-183 141,-183 141,-183 0,-183"/>
<polygon fill="none" stroke="#666666" points="0,-101 0,-217 141,-217 141,-101 0,-101"/>
</a>
</g>
</g>
<!-- Node2 -->
<g id="Node000002" class="node">
<title>Node2</title>
<g id="a_Node000002"><a xlink:href="classanch_1_1rest_1_1_global_mapper_registry.html" target="_top" xlink:title=" ">
<polygon fill="white" stroke="none" points="136.5,-65 4.5,-65 4.5,0 136.5,0 136.5,-65"/>
<text text-anchor="start" x="9.38" y="-51.5" font-family="Helvetica,sans-Serif" font-size="10.00">anch::rest::GlobalMapper</text>
<text text-anchor="start" x="50.25" y="-38.75" font-family="Helvetica,sans-Serif" font-size="10.00">Registry</text>
<text text-anchor="start" x="69" y="-22.5" font-family="Helvetica,sans-Serif" font-size="10.00"> </text>
<text text-anchor="start" x="69" y="-6.5" font-family="Helvetica,sans-Serif" font-size="10.00"> </text>
<polygon fill="#666666" stroke="#666666" points="4.5,-34 4.5,-34 136.5,-34 136.5,-34 4.5,-34"/>
<polygon fill="#666666" stroke="#666666" points="4.5,-18 4.5,-18 136.5,-18 136.5,-18 4.5,-18"/>
<polygon fill="none" stroke="#666666" points="4.5,0 4.5,-65 136.5,-65 136.5,0 4.5,0"/>
</a>
</g>
</g>
<!-- Node1&#45;&gt;Node2 -->
<g id="edge1_Node000001_Node000002" class="edge">
<title>Node1&#45;&gt;Node2</title>
<g id="a_edge1_Node000001_Node000002"><a xlink:title=" ">
<path fill="none" stroke="#63b8ff" d="M70.5,-89.99C70.5,-81.16 70.5,-72.48 70.5,-64.68"/>
<polygon fill="none" stroke="#63b8ff" points="67,-89.7 70.5,-99.7 74,-89.7 67,-89.7"/>
</a>
</g>
</g>
</g>
</svg>
</svg>

<style type='text/css'>
<![CDATA[
[data-mouse-over-selected='false'] { opacity: 0.7; }
[data-mouse-over-selected='true']  { opacity: 1.0; }
]]>
</style>
<script type="application/ecmascript"><![CDATA[
document.addEventListener('DOMContentLoaded', (event) => {
  highlightEdges();
  highlightAdjacentNodes();
});
]]></script>
</svg>
