<?xml version="1.0" encoding="UTF-8" standalone="no"?>
<!DOCTYPE svg PUBLIC "-//W3C//DTD SVG 1.1//EN"
 "http://www.w3.org/Graphics/SVG/1.1/DTD/svg11.dtd">
<!-- Generated by graphviz version 12.1.2 (0)
 -->
<!-- Title: anch::rest::EndpointParamsFunc&lt; T &gt; Pages: 1 -->
<svg width="150pt" height="225pt"
 viewBox="0.00 0.00 150.00 225.00" xmlns="http://www.w3.org/2000/svg" xmlns:xlink="http://www.w3.org/1999/xlink">

<svg id="main" version="1.1" xmlns="http://www.w3.org/2000/svg" xmlns:xlink="http://www.w3.org/1999/xlink" xml:space="preserve">

<style type="text/css"><![CDATA[
.node, .edge {opacity: 0.7;}
.node.selected, .edge.selected {opacity: 1;}
.edge:hover path { stroke: red; }
.edge:hover polygon { stroke: red; fill: red; }
]]></style>
<script type="application/ecmascript" xlink:href="svg.min.js"/>
<svg id="graph" class="graph">
<g id="graph0" class="graph" transform="scale(1 1) rotate(0) translate(4 221)">
<title>anch::rest::EndpointParamsFunc&lt; T &gt;</title>
<!-- Node1 -->
<g id="Node000001" class="node">
<title>Node1</title>
<g id="a_Node000001"><a xlink:title=" ">
<polygon fill="#999999" stroke="none" points="142,-113 0,-113 0,0 142,0 142,-113"/>
<text text-anchor="start" x="4.62" y="-99.5" font-family="Helvetica,sans-Serif" font-size="10.00">anch::rest::EndpointParams</text>
<text text-anchor="start" x="45.5" y="-86.75" font-family="Helvetica,sans-Serif" font-size="10.00">Func&lt; T &gt;</text>
<text text-anchor="start" x="69.5" y="-70.5" font-family="Helvetica,sans-Serif" font-size="10.00"> </text>
<text text-anchor="start" x="4.88" y="-54.5" font-family="Helvetica,sans-Serif" font-size="10.00">+</text>
<text text-anchor="start" x="18" y="-54.5" font-family="Helvetica,sans-Serif" font-size="10.00">EndpointParamsFunc()</text>
<text text-anchor="start" x="4.88" y="-38.5" font-family="Helvetica,sans-Serif" font-size="10.00">+</text>
<text text-anchor="start" x="18" y="-38.5" font-family="Helvetica,sans-Serif" font-size="10.00">EndpointParamsFunc()</text>
<text text-anchor="start" x="4.88" y="-22.5" font-family="Helvetica,sans-Serif" font-size="10.00">+</text>
<text text-anchor="start" x="18" y="-22.5" font-family="Helvetica,sans-Serif" font-size="10.00">~EndpointParamsFunc()</text>
<text text-anchor="start" x="4.88" y="-6.5" font-family="Helvetica,sans-Serif" font-size="10.00">+</text>
<text text-anchor="start" x="18" y="-6.5" font-family="Helvetica,sans-Serif" font-size="10.00">execute()</text>
<polygon fill="#666666" stroke="#666666" points="0,-82 0,-82 142,-82 142,-82 0,-82"/>
<polygon fill="#666666" stroke="#666666" points="0,-66 0,-66 142,-66 142,-66 0,-66"/>
<polygon fill="none" stroke="#666666" points="0,0 0,-113 142,-113 142,0 0,0"/>
</a>
</g>
</g>
<!-- Node2 -->
<g id="Node000002" class="node">
<title>Node2</title>
<g id="a_Node000002"><a xlink:href="classanch_1_1rest_1_1_endpoint_func.html" target="_top" xlink:title="Endpoint function interface.">
<polygon fill="white" stroke="none" points="135.5,-217 6.5,-217 6.5,-149 135.5,-149 135.5,-217"/>
<text text-anchor="start" x="11.38" y="-203.5" font-family="Helvetica,sans-Serif" font-size="10.00">anch::rest::EndpointFunc</text>
<text text-anchor="start" x="69.5" y="-187.5" font-family="Helvetica,sans-Serif" font-size="10.00"> </text>
<text text-anchor="start" x="17.38" y="-171.5" font-family="Helvetica,sans-Serif" font-size="10.00">+</text>
<text text-anchor="start" x="36.5" y="-171.5" font-family="Helvetica,sans-Serif" font-size="10.00">~EndpointFunc()</text>
<text text-anchor="start" x="17.38" y="-155.5" font-family="Helvetica,sans-Serif" font-size="10.00">+</text>
<text text-anchor="start" x="36.5" y="-155.5" font-family="Helvetica,sans-Serif" font-size="10.00">execute()</text>
<polygon fill="#666666" stroke="#666666" points="6.5,-199 6.5,-199 135.5,-199 135.5,-199 6.5,-199"/>
<polygon fill="#666666" stroke="#666666" points="6.5,-183 6.5,-183 135.5,-183 135.5,-183 6.5,-183"/>
<polygon fill="none" stroke="#666666" points="6.5,-149 6.5,-217 135.5,-217 135.5,-149 6.5,-149"/>
</a>
</g>
</g>
<!-- Node2&#45;&gt;Node1 -->
<g id="edge1_Node000001_Node000002" class="edge">
<title>Node2&#45;&gt;Node1</title>
<g id="a_edge1_Node000001_Node000002"><a xlink:title=" ">
<path fill="none" stroke="#63b8ff" d="M71,-138.04C71,-129.82 71,-121.13 71,-112.62"/>
<polygon fill="none" stroke="#63b8ff" points="67.5,-137.78 71,-147.78 74.5,-137.78 67.5,-137.78"/>
</a>
</g>
</g>
</g>
</svg>
</svg>

<style type='text/css'>
<![CDATA[
[data-mouse-over-selected='false'] { opacity: 0.7; }
[data-mouse-over-selected='true']  { opacity: 1.0; }
]]>
</style>
<script type="application/ecmascript"><![CDATA[
document.addEventListener('DOMContentLoaded', (event) => {
  highlightEdges();
  highlightAdjacentNodes();
});
]]></script>
</svg>
