<?xml version="1.0" encoding="UTF-8" standalone="no"?>
<!DOCTYPE svg PUBLIC "-//W3C//DTD SVG 1.1//EN"
 "http://www.w3.org/Graphics/SVG/1.1/DTD/svg11.dtd">
<!-- Generated by graphviz version 14.0.4 (0)
 -->
<!-- Title: anch::sql::SQLite3Connection Pages: 1 -->
<!--zoomable 1451 -->

<svg id="main" version="1.1" xmlns="http://www.w3.org/2000/svg" xmlns:xlink="http://www.w3.org/1999/xlink" xml:space="preserve" onload="init(evt)">

<style type="text/css"><![CDATA[
.node, .edge {opacity: 0.7;}
.node.selected, .edge.selected {opacity: 1;}
.edge:hover path { stroke: red; }
.edge:hover polygon { stroke: red; fill: red; }
]]></style>

<defs>
  <circle id="rim" cx="0" cy="0" r="7"/>
  <circle id="rim2" cx="0" cy="0" r="3.5"/>
  <g id="zoomPlus">
    <use xlink:href="#rim" fill="#404040"><set attributeName="fill" to="#808080" begin="zoomplus.mouseover" end="zoomplus.mouseout"/></use>
    <path d="M-4,0h8M0,-4v8" fill="none" stroke="white" stroke-width="1.5" pointer-events="none"/>
  </g>
  <g id="zoomMin">
    <use xlink:href="#rim" fill="#404040"><set attributeName="fill" to="#808080" begin="zoomminus.mouseover" end="zoomminus.mouseout"/></use>
    <path d="M-4,0h8" fill="none" stroke="white" stroke-width="1.5" pointer-events="none"/>
  </g>
  <g id="arrowUp" transform="translate(30 24)">
    <use xlink:href="#rim"/>
    <path pointer-events="none" fill="none" stroke="white" stroke-width="1.5" d="M0,-3.0v7 M-2.5,-0.5L0,-3.0L2.5,-0.5"/>
  </g>
  <g id="arrowRight" transform="rotate(90) translate(36 -43)">
    <use xlink:href="#rim"/>
    <path pointer-events="none" fill="none" stroke="white" stroke-width="1.5" d="M0,-3.0v7 M-2.5,-0.5L0,-3.0L2.5,-0.5"/>
  </g>
  <g id="arrowDown" transform="rotate(180) translate(-30 -48)">
    <use xlink:href="#rim"/>
    <path pointer-events="none" fill="none" stroke="white" stroke-width="1.5" d="M0,-3.0v7 M-2.5,-0.5L0,-3.0L2.5,-0.5"/>
  </g>
  <g id="arrowLeft" transform="rotate(270) translate(-36 17)">
    <use xlink:href="#rim"/>
    <path pointer-events="none" fill="none" stroke="white" stroke-width="1.5" d="M0,-3.0v7 M-2.5,-0.5L0,-3.0L2.5,-0.5"/>
  </g>
  <g id="resetDef">
    <use xlink:href="#rim2" fill="#404040"><set attributeName="fill" to="#808080" begin="reset.mouseover" end="reset.mouseout"/></use>
  </g>
</defs>
<script type="application/ecmascript">
var viewWidth = 272;
var viewHeight = 1451;
var sectionId = 'dynsection-1';
</script>
<script type="application/ecmascript" xlink:href="svg.min.js"/>
<svg id="graph" class="graph">
<g id="viewport">
<title>anch::sql::SQLite3Connection</title>
<!-- Node1 -->
<g id="Node000001" class="node">
<title>Node1</title>
<g id="a_Node000001"><a xlink:title="SQLite3 connection.">
<polygon fill="#999999" stroke="none" points="210.38,-196 71.88,-196 71.88,0 210.38,0 210.38,-196"/>
<text xml:space="preserve" text-anchor="start" x="75.88" y="-182.5" font-family="Helvetica,sans-Serif" font-size="10.00">anch::sql::SQLite3Connection</text>
<text xml:space="preserve" text-anchor="start" x="139.62" y="-166.5" font-family="Helvetica,sans-Serif" font-size="10.00"> </text>
<text xml:space="preserve" text-anchor="start" x="81.25" y="-150.5" font-family="Helvetica,sans-Serif" font-size="10.00">+</text>
<text xml:space="preserve" text-anchor="start" x="96.62" y="-150.5" font-family="Helvetica,sans-Serif" font-size="10.00">SQLite3Connection()</text>
<text xml:space="preserve" text-anchor="start" x="81.25" y="-134.5" font-family="Helvetica,sans-Serif" font-size="10.00">+</text>
<text xml:space="preserve" text-anchor="start" x="96.62" y="-134.5" font-family="Helvetica,sans-Serif" font-size="10.00">SQLite3Connection()</text>
<text xml:space="preserve" text-anchor="start" x="81.25" y="-118.5" font-family="Helvetica,sans-Serif" font-size="10.00">+</text>
<text xml:space="preserve" text-anchor="start" x="96.62" y="-118.5" font-family="Helvetica,sans-Serif" font-size="10.00">SQLite3Connection()</text>
<text xml:space="preserve" text-anchor="start" x="81.25" y="-102.5" font-family="Helvetica,sans-Serif" font-size="10.00">+</text>
<text xml:space="preserve" text-anchor="start" x="96.62" y="-102.5" font-family="Helvetica,sans-Serif" font-size="10.00">~SQLite3Connection()</text>
<text xml:space="preserve" text-anchor="start" x="81.62" y="-86.5" font-family="Helvetica,sans-Serif" font-size="10.00">#</text>
<text xml:space="preserve" text-anchor="start" x="96.62" y="-86.5" font-family="Helvetica,sans-Serif" font-size="10.00">executeQuery()</text>
<text xml:space="preserve" text-anchor="start" x="81.62" y="-70.5" font-family="Helvetica,sans-Serif" font-size="10.00">#</text>
<text xml:space="preserve" text-anchor="start" x="96.62" y="-70.5" font-family="Helvetica,sans-Serif" font-size="10.00">executeUpdate()</text>
<text xml:space="preserve" text-anchor="start" x="81.62" y="-54.5" font-family="Helvetica,sans-Serif" font-size="10.00">#</text>
<text xml:space="preserve" text-anchor="start" x="96.62" y="-54.5" font-family="Helvetica,sans-Serif" font-size="10.00">sendCommit()</text>
<text xml:space="preserve" text-anchor="start" x="81.62" y="-38.5" font-family="Helvetica,sans-Serif" font-size="10.00">#</text>
<text xml:space="preserve" text-anchor="start" x="96.62" y="-38.5" font-family="Helvetica,sans-Serif" font-size="10.00">sendRollback()</text>
<text xml:space="preserve" text-anchor="start" x="81.62" y="-22.5" font-family="Helvetica,sans-Serif" font-size="10.00">#</text>
<text xml:space="preserve" text-anchor="start" x="96.62" y="-22.5" font-family="Helvetica,sans-Serif" font-size="10.00">sendStartTransaction()</text>
<text xml:space="preserve" text-anchor="start" x="81.62" y="-6.5" font-family="Helvetica,sans-Serif" font-size="10.00">#</text>
<text xml:space="preserve" text-anchor="start" x="96.62" y="-6.5" font-family="Helvetica,sans-Serif" font-size="10.00">makePrepared()</text>
<polygon fill="#666666" stroke="#666666" points="71.88,-178 71.88,-178 210.38,-178 210.38,-178 71.88,-178"/>
<polygon fill="#666666" stroke="#666666" points="71.88,-162 71.88,-162 210.38,-162 210.38,-162 71.88,-162"/>
<polygon fill="none" stroke="#666666" points="71.88,0 71.88,-196 210.38,-196 210.38,0 71.88,0"/>
</a>
</g>
</g>
<!-- Node2 -->
<g id="Node000002" class="node">
<title>Node2</title>
<g id="a_Node000002"><a xlink:href="classanch_1_1sql_1_1_connection.html" target="_top" xlink:title="SQL connection virtual class.">
<polygon fill="white" stroke="none" points="199.62,-589 82.62,-589 82.62,-233 199.62,-233 199.62,-589"/>
<text xml:space="preserve" text-anchor="start" x="93.5" y="-575.5" font-family="Helvetica,sans-Serif" font-size="10.00">anch::sql::Connection</text>
<text xml:space="preserve" text-anchor="start" x="87" y="-559.5" font-family="Helvetica,sans-Serif" font-size="10.00">#</text>
<text xml:space="preserve" text-anchor="start" x="96.62" y="-559.5" font-family="Helvetica,sans-Serif" font-size="10.00">_valid</text>
<text xml:space="preserve" text-anchor="start" x="87" y="-543.5" font-family="Helvetica,sans-Serif" font-size="10.00">#</text>
<text xml:space="preserve" text-anchor="start" x="96.62" y="-543.5" font-family="Helvetica,sans-Serif" font-size="10.00">_transaction</text>
<text xml:space="preserve" text-anchor="start" x="87" y="-527.5" font-family="Helvetica,sans-Serif" font-size="10.00">#</text>
<text xml:space="preserve" text-anchor="start" x="96.62" y="-527.5" font-family="Helvetica,sans-Serif" font-size="10.00">_errors</text>
<text xml:space="preserve" text-anchor="start" x="86.62" y="-511.5" font-family="Helvetica,sans-Serif" font-size="10.00">+</text>
<text xml:space="preserve" text-anchor="start" x="96.62" y="-511.5" font-family="Helvetica,sans-Serif" font-size="10.00">Connection()</text>
<text xml:space="preserve" text-anchor="start" x="86.62" y="-495.5" font-family="Helvetica,sans-Serif" font-size="10.00">+</text>
<text xml:space="preserve" text-anchor="start" x="96.62" y="-495.5" font-family="Helvetica,sans-Serif" font-size="10.00">Connection()</text>
<text xml:space="preserve" text-anchor="start" x="86.62" y="-479.5" font-family="Helvetica,sans-Serif" font-size="10.00">+</text>
<text xml:space="preserve" text-anchor="start" x="96.62" y="-479.5" font-family="Helvetica,sans-Serif" font-size="10.00">~Connection()</text>
<text xml:space="preserve" text-anchor="start" x="86.62" y="-463.5" font-family="Helvetica,sans-Serif" font-size="10.00">+</text>
<text xml:space="preserve" text-anchor="start" x="96.62" y="-463.5" font-family="Helvetica,sans-Serif" font-size="10.00">startTransaction()</text>
<text xml:space="preserve" text-anchor="start" x="86.62" y="-447.5" font-family="Helvetica,sans-Serif" font-size="10.00">+</text>
<text xml:space="preserve" text-anchor="start" x="96.62" y="-447.5" font-family="Helvetica,sans-Serif" font-size="10.00">begin()</text>
<text xml:space="preserve" text-anchor="start" x="86.62" y="-431.5" font-family="Helvetica,sans-Serif" font-size="10.00">+</text>
<text xml:space="preserve" text-anchor="start" x="96.62" y="-431.5" font-family="Helvetica,sans-Serif" font-size="10.00">commit()</text>
<text xml:space="preserve" text-anchor="start" x="86.62" y="-415.5" font-family="Helvetica,sans-Serif" font-size="10.00">+</text>
<text xml:space="preserve" text-anchor="start" x="96.62" y="-415.5" font-family="Helvetica,sans-Serif" font-size="10.00">rollback()</text>
<text xml:space="preserve" text-anchor="start" x="86.62" y="-399.5" font-family="Helvetica,sans-Serif" font-size="10.00">+</text>
<text xml:space="preserve" text-anchor="start" x="96.62" y="-399.5" font-family="Helvetica,sans-Serif" font-size="10.00">release()</text>
<text xml:space="preserve" text-anchor="start" x="86.62" y="-383.5" font-family="Helvetica,sans-Serif" font-size="10.00">+</text>
<text xml:space="preserve" text-anchor="start" x="96.62" y="-383.5" font-family="Helvetica,sans-Serif" font-size="10.00">prepareStatement()</text>
<text xml:space="preserve" text-anchor="start" x="86.62" y="-367.5" font-family="Helvetica,sans-Serif" font-size="10.00">+</text>
<text xml:space="preserve" text-anchor="start" x="96.62" y="-367.5" font-family="Helvetica,sans-Serif" font-size="10.00">query()</text>
<text xml:space="preserve" text-anchor="start" x="96.62" y="-351.5" font-family="Helvetica,sans-Serif" font-size="10.00">and 9 more...</text>
<text xml:space="preserve" text-anchor="start" x="87" y="-335.5" font-family="Helvetica,sans-Serif" font-size="10.00">#</text>
<text xml:space="preserve" text-anchor="start" x="96.62" y="-335.5" font-family="Helvetica,sans-Serif" font-size="10.00">executeQuery()</text>
<text xml:space="preserve" text-anchor="start" x="87" y="-319.5" font-family="Helvetica,sans-Serif" font-size="10.00">#</text>
<text xml:space="preserve" text-anchor="start" x="96.62" y="-319.5" font-family="Helvetica,sans-Serif" font-size="10.00">executeUpdate()</text>
<text xml:space="preserve" text-anchor="start" x="87" y="-303.5" font-family="Helvetica,sans-Serif" font-size="10.00">#</text>
<text xml:space="preserve" text-anchor="start" x="96.62" y="-303.5" font-family="Helvetica,sans-Serif" font-size="10.00">sendStartTransaction()</text>
<text xml:space="preserve" text-anchor="start" x="87" y="-287.5" font-family="Helvetica,sans-Serif" font-size="10.00">#</text>
<text xml:space="preserve" text-anchor="start" x="96.62" y="-287.5" font-family="Helvetica,sans-Serif" font-size="10.00">sendCommit()</text>
<text xml:space="preserve" text-anchor="start" x="87" y="-271.5" font-family="Helvetica,sans-Serif" font-size="10.00">#</text>
<text xml:space="preserve" text-anchor="start" x="96.62" y="-271.5" font-family="Helvetica,sans-Serif" font-size="10.00">sendRollback()</text>
<text xml:space="preserve" text-anchor="start" x="87" y="-255.5" font-family="Helvetica,sans-Serif" font-size="10.00">#</text>
<text xml:space="preserve" text-anchor="start" x="96.62" y="-255.5" font-family="Helvetica,sans-Serif" font-size="10.00">makePrepared()</text>
<text xml:space="preserve" text-anchor="start" x="87" y="-239.5" font-family="Helvetica,sans-Serif" font-size="10.00">#</text>
<text xml:space="preserve" text-anchor="start" x="96.62" y="-239.5" font-family="Helvetica,sans-Serif" font-size="10.00">setValid()</text>
<polygon fill="#666666" stroke="#666666" points="82.62,-571 82.62,-571 199.62,-571 199.62,-571 82.62,-571"/>
<polygon fill="#666666" stroke="#666666" points="82.62,-523 82.62,-523 94.62,-523 94.62,-523 82.62,-523"/>
<polygon fill="#666666" stroke="#666666" points="94.62,-523 94.62,-523 199.62,-523 199.62,-523 94.62,-523"/>
<polygon fill="none" stroke="#666666" points="82.62,-233 82.62,-589 199.62,-589 199.62,-233 82.62,-233"/>
</a>
</g>
</g>
<!-- Node2&#45;&gt;Node1 -->
<g id="edge1_Node000001_Node000002" class="edge">
<title>Node2&#45;&gt;Node1</title>
<g id="a_edge1_Node000001_Node000002"><a xlink:title=" ">
<path fill="none" stroke="#63b8ff" d="M141.12,-221.88C141.12,-213.04 141.12,-204.35 141.12,-195.93"/>
<polygon fill="none" stroke="#63b8ff" points="137.63,-221.63 141.13,-231.63 144.63,-221.64 137.63,-221.63"/>
</a>
</g>
</g>
<!-- Node3 -->
<g id="Node000003" class="node">
<title>Node3</title>
<g id="a_Node000003"><a xlink:title=" ">
<polygon fill="white" stroke="none" points="219.38,-707 62.88,-707 62.88,-643 219.38,-643 219.38,-707"/>
<text xml:space="preserve" text-anchor="start" x="66.88" y="-693.5" font-family="Helvetica,sans-Serif" font-size="10.00">std::map&lt; std::string,</text>
<text xml:space="preserve" text-anchor="start" x="66.88" y="-681.5" font-family="Helvetica,sans-Serif" font-size="10.00"> anch::sql::PreparedStatement * &gt;</text>
<text xml:space="preserve" text-anchor="start" x="139.62" y="-665.5" font-family="Helvetica,sans-Serif" font-size="10.00"> </text>
<text xml:space="preserve" text-anchor="start" x="139.62" y="-649.5" font-family="Helvetica,sans-Serif" font-size="10.00"> </text>
<polygon fill="#666666" stroke="#666666" points="62.88,-677 62.88,-677 219.38,-677 219.38,-677 62.88,-677"/>
<polygon fill="#666666" stroke="#666666" points="62.88,-661 62.88,-661 219.38,-661 219.38,-661 62.88,-661"/>
<polygon fill="none" stroke="#666666" points="62.88,-643 62.88,-707 219.38,-707 219.38,-643 62.88,-643"/>
</a>
</g>
</g>
<!-- Node3&#45;&gt;Node2 -->
<g id="edge2_Node000002_Node000003" class="edge">
<title>Node3&#45;&gt;Node2</title>
<g id="a_edge2_Node000002_Node000003"><a xlink:title=" ">
<path fill="none" stroke="#63b8ff" d="M141.12,-643.17C141.12,-631.54 141.12,-617.29 141.12,-601.63"/>
<polygon fill="none" stroke="#63b8ff" points="141.13,-601.7 137.13,-595.7 141.13,-589.7 145.13,-595.7 141.13,-601.7"/>
</a>
</g>
<text xml:space="preserve" text-anchor="start" x="144.12" y="-612.5" font-family="Helvetica,sans-Serif" font-size="10.00" fill="grey">#_stmts</text>
</g>
<!-- Node4 -->
<g id="Node000004" class="node">
<title>Node4</title>
<g id="a_Node000004"><a xlink:title=" ">
<polygon fill="white" stroke="none" points="205.88,-1325 154.38,-1325 154.38,-1273 205.88,-1273 205.88,-1325"/>
<text xml:space="preserve" text-anchor="start" x="158.38" y="-1311.5" font-family="Helvetica,sans-Serif" font-size="10.00">std::string</text>
<text xml:space="preserve" text-anchor="start" x="178.62" y="-1295.5" font-family="Helvetica,sans-Serif" font-size="10.00"> </text>
<text xml:space="preserve" text-anchor="start" x="178.62" y="-1279.5" font-family="Helvetica,sans-Serif" font-size="10.00"> </text>
<polygon fill="#666666" stroke="#666666" points="154.38,-1307 154.38,-1307 205.88,-1307 205.88,-1307 154.38,-1307"/>
<polygon fill="#666666" stroke="#666666" points="154.38,-1291 154.38,-1291 205.88,-1291 205.88,-1291 154.38,-1291"/>
<polygon fill="none" stroke="#666666" points="154.38,-1273 154.38,-1325 205.88,-1325 205.88,-1273 154.38,-1273"/>
</a>
</g>
</g>
<!-- Node4&#45;&gt;Node3 -->
<g id="edge3_Node000003_Node000004" class="edge">
<title>Node4&#45;&gt;Node3</title>
<g id="a_edge3_Node000003_Node000004"><a xlink:title=" ">
<path fill="none" stroke="#63b8ff" d="M205.54,-1279.68C212.96,-1272.86 220.15,-1264.45 224.12,-1255 229.99,-1241.07 224.21,-1236.11 224.12,-1221 223.01,-1016.55 275.57,-957.51 219.12,-761 214.23,-743.96 203.4,-728.54 191.31,-715.66"/>
<polygon fill="none" stroke="#63b8ff" points="191.5,-715.85 184.43,-714.45 183,-707.38 190.07,-708.78 191.5,-715.85"/>
</a>
</g>
<text xml:space="preserve" text-anchor="start" x="233.99" y="-1100.5" font-family="Helvetica,sans-Serif" font-size="10.00" fill="grey">+keys</text>
</g>
<!-- Node7 -->
<g id="Node000007" class="node">
<title>Node7</title>
<g id="a_Node000007"><a xlink:title=" ">
<polygon fill="white" stroke="none" points="210.5,-1203 117.75,-1203 117.75,-1139 210.5,-1139 210.5,-1203"/>
<text xml:space="preserve" text-anchor="start" x="121.75" y="-1189.5" font-family="Helvetica,sans-Serif" font-size="10.00">std::map&lt; std::size</text>
<text xml:space="preserve" text-anchor="start" x="130.75" y="-1177.5" font-family="Helvetica,sans-Serif" font-size="10.00">_t, std::string &gt;</text>
<text xml:space="preserve" text-anchor="start" x="135.19" y="-1161.5" font-family="Helvetica,sans-Serif" font-size="10.00">+</text>
<text xml:space="preserve" text-anchor="start" x="158.62" y="-1161.5" font-family="Helvetica,sans-Serif" font-size="10.00">keys</text>
<text xml:space="preserve" text-anchor="start" x="162.62" y="-1145.5" font-family="Helvetica,sans-Serif" font-size="10.00"> </text>
<polygon fill="#666666" stroke="#666666" points="117.75,-1173 117.75,-1173 210.5,-1173 210.5,-1173 117.75,-1173"/>
<polygon fill="#666666" stroke="#666666" points="117.75,-1157 117.75,-1157 156.62,-1157 156.62,-1157 117.75,-1157"/>
<polygon fill="#666666" stroke="#666666" points="156.62,-1157 156.62,-1157 210.5,-1157 210.5,-1157 156.62,-1157"/>
<polygon fill="none" stroke="#666666" points="117.75,-1139 117.75,-1203 210.5,-1203 210.5,-1139 117.75,-1139"/>
</a>
</g>
</g>
<!-- Node4&#45;&gt;Node7 -->
<g id="edge7_Node000007_Node000004" class="edge">
<title>Node4&#45;&gt;Node7</title>
<g id="a_edge7_Node000007_Node000004"><a xlink:title=" ">
<path fill="none" stroke="#63b8ff" d="M175.28,-1273.04C174.23,-1267.14 173.19,-1260.86 172.38,-1255 170.59,-1242.23 169.05,-1228.3 167.8,-1215.56"/>
<polygon fill="none" stroke="#63b8ff" points="167.81,-1215.66 163.27,-1210.06 166.69,-1203.71 171.23,-1209.31 167.81,-1215.66"/>
</a>
</g>
<text xml:space="preserve" text-anchor="start" x="175.38" y="-1234.5" font-family="Helvetica,sans-Serif" font-size="10.00" fill="grey">+elements</text>
</g>
<!-- Node5 -->
<g id="Node000005" class="node">
<title>Node5</title>
<g id="a_Node000005"><a xlink:title=" ">
<polygon fill="white" stroke="none" points="223.12,-1443 137.12,-1443 137.12,-1379 223.12,-1379 223.12,-1443"/>
<text xml:space="preserve" text-anchor="start" x="141.12" y="-1429.5" font-family="Helvetica,sans-Serif" font-size="10.00">std::basic_string&lt;</text>
<text xml:space="preserve" text-anchor="start" x="163.62" y="-1417.5" font-family="Helvetica,sans-Serif" font-size="10.00"> Char &gt;</text>
<text xml:space="preserve" text-anchor="start" x="178.62" y="-1401.5" font-family="Helvetica,sans-Serif" font-size="10.00"> </text>
<text xml:space="preserve" text-anchor="start" x="178.62" y="-1385.5" font-family="Helvetica,sans-Serif" font-size="10.00"> </text>
<polygon fill="#666666" stroke="#666666" points="137.12,-1413 137.12,-1413 223.12,-1413 223.12,-1413 137.12,-1413"/>
<polygon fill="#666666" stroke="#666666" points="137.12,-1397 137.12,-1397 223.12,-1397 223.12,-1397 137.12,-1397"/>
<polygon fill="none" stroke="#666666" points="137.12,-1379 137.12,-1443 223.12,-1443 223.12,-1379 137.12,-1379"/>
</a>
</g>
</g>
<!-- Node5&#45;&gt;Node4 -->
<g id="edge4_Node000004_Node000005" class="edge">
<title>Node5&#45;&gt;Node4</title>
<g id="a_edge4_Node000004_Node000005"><a xlink:title=" ">
<path fill="none" stroke="#63b8ff" d="M180.12,-1367.77C180.12,-1353.25 180.12,-1337.47 180.12,-1324.79"/>
<polygon fill="none" stroke="#63b8ff" points="176.63,-1367.55 180.13,-1377.55 183.63,-1367.55 176.63,-1367.55"/>
</a>
</g>
</g>
<!-- Node6 -->
<g id="Node000006" class="node">
<title>Node6</title>
<g id="a_Node000006"><a xlink:href="classanch_1_1sql_1_1_prepared_statement.html" target="_top" xlink:title="SQL prepared statement.">
<polygon fill="white" stroke="none" points="210,-1069 72.25,-1069 72.25,-761 210,-761 210,-1069"/>
<text xml:space="preserve" text-anchor="start" x="76.25" y="-1055.5" font-family="Helvetica,sans-Serif" font-size="10.00">anch::sql::PreparedStatement</text>
<text xml:space="preserve" text-anchor="start" x="82.56" y="-1039.5" font-family="Helvetica,sans-Serif" font-size="10.00">#</text>
<text xml:space="preserve" text-anchor="start" x="98.12" y="-1039.5" font-family="Helvetica,sans-Serif" font-size="10.00">_nbPlaceholders</text>
<text xml:space="preserve" text-anchor="start" x="82.19" y="-1023.5" font-family="Helvetica,sans-Serif" font-size="10.00">+</text>
<text xml:space="preserve" text-anchor="start" x="98.12" y="-1023.5" font-family="Helvetica,sans-Serif" font-size="10.00">PreparedStatement()</text>
<text xml:space="preserve" text-anchor="start" x="82.19" y="-1007.5" font-family="Helvetica,sans-Serif" font-size="10.00">+</text>
<text xml:space="preserve" text-anchor="start" x="98.12" y="-1007.5" font-family="Helvetica,sans-Serif" font-size="10.00">~PreparedStatement()</text>
<text xml:space="preserve" text-anchor="start" x="82.19" y="-991.5" font-family="Helvetica,sans-Serif" font-size="10.00">+</text>
<text xml:space="preserve" text-anchor="start" x="98.12" y="-991.5" font-family="Helvetica,sans-Serif" font-size="10.00">executeQuery()</text>
<text xml:space="preserve" text-anchor="start" x="82.19" y="-975.5" font-family="Helvetica,sans-Serif" font-size="10.00">+</text>
<text xml:space="preserve" text-anchor="start" x="98.12" y="-975.5" font-family="Helvetica,sans-Serif" font-size="10.00">executeUpdate()</text>
<text xml:space="preserve" text-anchor="start" x="82.19" y="-959.5" font-family="Helvetica,sans-Serif" font-size="10.00">+</text>
<text xml:space="preserve" text-anchor="start" x="98.12" y="-959.5" font-family="Helvetica,sans-Serif" font-size="10.00">set()</text>
<text xml:space="preserve" text-anchor="start" x="82.19" y="-943.5" font-family="Helvetica,sans-Serif" font-size="10.00">+</text>
<text xml:space="preserve" text-anchor="start" x="98.12" y="-943.5" font-family="Helvetica,sans-Serif" font-size="10.00">set()</text>
<text xml:space="preserve" text-anchor="start" x="82.19" y="-927.5" font-family="Helvetica,sans-Serif" font-size="10.00">+</text>
<text xml:space="preserve" text-anchor="start" x="98.12" y="-927.5" font-family="Helvetica,sans-Serif" font-size="10.00">set()</text>
<text xml:space="preserve" text-anchor="start" x="82.19" y="-911.5" font-family="Helvetica,sans-Serif" font-size="10.00">+</text>
<text xml:space="preserve" text-anchor="start" x="98.12" y="-911.5" font-family="Helvetica,sans-Serif" font-size="10.00">set()</text>
<text xml:space="preserve" text-anchor="start" x="82.19" y="-895.5" font-family="Helvetica,sans-Serif" font-size="10.00">+</text>
<text xml:space="preserve" text-anchor="start" x="98.12" y="-895.5" font-family="Helvetica,sans-Serif" font-size="10.00">set()</text>
<text xml:space="preserve" text-anchor="start" x="82.19" y="-879.5" font-family="Helvetica,sans-Serif" font-size="10.00">+</text>
<text xml:space="preserve" text-anchor="start" x="98.12" y="-879.5" font-family="Helvetica,sans-Serif" font-size="10.00">set()</text>
<text xml:space="preserve" text-anchor="start" x="82.19" y="-863.5" font-family="Helvetica,sans-Serif" font-size="10.00">+</text>
<text xml:space="preserve" text-anchor="start" x="98.12" y="-863.5" font-family="Helvetica,sans-Serif" font-size="10.00">set()</text>
<text xml:space="preserve" text-anchor="start" x="82.19" y="-847.5" font-family="Helvetica,sans-Serif" font-size="10.00">+</text>
<text xml:space="preserve" text-anchor="start" x="98.12" y="-847.5" font-family="Helvetica,sans-Serif" font-size="10.00">set()</text>
<text xml:space="preserve" text-anchor="start" x="82.19" y="-831.5" font-family="Helvetica,sans-Serif" font-size="10.00">+</text>
<text xml:space="preserve" text-anchor="start" x="98.12" y="-831.5" font-family="Helvetica,sans-Serif" font-size="10.00">set()</text>
<text xml:space="preserve" text-anchor="start" x="82.19" y="-815.5" font-family="Helvetica,sans-Serif" font-size="10.00">+</text>
<text xml:space="preserve" text-anchor="start" x="98.12" y="-815.5" font-family="Helvetica,sans-Serif" font-size="10.00">set()</text>
<text xml:space="preserve" text-anchor="start" x="82.19" y="-799.5" font-family="Helvetica,sans-Serif" font-size="10.00">+</text>
<text xml:space="preserve" text-anchor="start" x="98.12" y="-799.5" font-family="Helvetica,sans-Serif" font-size="10.00">set()</text>
<text xml:space="preserve" text-anchor="start" x="82.56" y="-783.5" font-family="Helvetica,sans-Serif" font-size="10.00">#</text>
<text xml:space="preserve" text-anchor="start" x="98.12" y="-783.5" font-family="Helvetica,sans-Serif" font-size="10.00">getPlaceholders()</text>
<text xml:space="preserve" text-anchor="start" x="82.56" y="-767.5" font-family="Helvetica,sans-Serif" font-size="10.00">#</text>
<text xml:space="preserve" text-anchor="start" x="98.12" y="-767.5" font-family="Helvetica,sans-Serif" font-size="10.00">checkIndex()</text>
<polygon fill="#666666" stroke="#666666" points="72.25,-1051 72.25,-1051 210,-1051 210,-1051 72.25,-1051"/>
<polygon fill="#666666" stroke="#666666" points="72.25,-1035 72.25,-1035 96.12,-1035 96.12,-1035 72.25,-1035"/>
<polygon fill="#666666" stroke="#666666" points="96.12,-1035 96.12,-1035 210,-1035 210,-1035 96.12,-1035"/>
<polygon fill="none" stroke="#666666" points="72.25,-761 72.25,-1069 210,-1069 210,-761 72.25,-761"/>
</a>
</g>
</g>
<!-- Node6&#45;&gt;Node3 -->
<g id="edge5_Node000003_Node000006" class="edge">
<title>Node6&#45;&gt;Node3</title>
<g id="a_edge5_Node000003_Node000006"><a xlink:title=" ">
<path fill="none" stroke="#63b8ff" d="M141.12,-761.25C141.12,-746.23 141.12,-731.99 141.12,-719.6"/>
<polygon fill="none" stroke="#63b8ff" points="141.13,-719.83 137.13,-713.83 141.13,-707.83 145.13,-713.83 141.13,-719.83"/>
</a>
</g>
<text xml:space="preserve" text-anchor="start" x="144.12" y="-730.5" font-family="Helvetica,sans-Serif" font-size="10.00" fill="grey">+elements</text>
</g>
<!-- Node7&#45;&gt;Node6 -->
<g id="edge6_Node000006_Node000007" class="edge">
<title>Node7&#45;&gt;Node6</title>
<g id="a_edge6_Node000006_Node000007"><a xlink:title=" ">
<path fill="none" stroke="#63b8ff" d="M161.33,-1139.11C159.93,-1123.64 158.11,-1103.58 156.14,-1081.84"/>
<polygon fill="none" stroke="#63b8ff" points="156.13,-1081.72 151.61,-1076.11 155.05,-1069.77 159.57,-1075.39 156.13,-1081.72"/>
</a>
</g>
<text xml:space="preserve" text-anchor="start" x="162.16" y="-1100.5" font-family="Helvetica,sans-Serif" font-size="10.00" fill="grey">#_values</text>
</g>
<!-- Node8 -->
<g id="Node000008" class="node">
<title>Node8</title>
<g id="a_Node000008"><a xlink:title=" ">
<polygon fill="white" stroke="none" points="82.25,-1325 0,-1325 0,-1273 82.25,-1273 82.25,-1325"/>
<text xml:space="preserve" text-anchor="start" x="4" y="-1311.5" font-family="Helvetica,sans-Serif" font-size="10.00">std::map&lt; K, T &gt;</text>
<text xml:space="preserve" text-anchor="start" x="39.62" y="-1295.5" font-family="Helvetica,sans-Serif" font-size="10.00"> </text>
<text xml:space="preserve" text-anchor="start" x="39.62" y="-1279.5" font-family="Helvetica,sans-Serif" font-size="10.00"> </text>
<polygon fill="#666666" stroke="#666666" points="0,-1307 0,-1307 82.25,-1307 82.25,-1307 0,-1307"/>
<polygon fill="#666666" stroke="#666666" points="0,-1291 0,-1291 82.25,-1291 82.25,-1291 0,-1291"/>
<polygon fill="none" stroke="#666666" points="0,-1273 0,-1325 82.25,-1325 82.25,-1273 0,-1273"/>
</a>
</g>
</g>
<!-- Node8&#45;&gt;Node3 -->
<g id="edge11_Node000003_Node000008" class="edge">
<title>Node8&#45;&gt;Node3</title>
<g id="a_edge11_Node000003_Node000008"><a xlink:title=" ">
<path fill="none" stroke="orange" d="M33.42,-1261.94C16.1,-1172.1 -18.34,-933.12 63.12,-761 72.81,-740.54 89.14,-721.58 104.36,-706.79"/>
<polygon fill="orange" stroke="orange" points="29.97,-1262.51 35.34,-1271.64 36.83,-1261.15 29.97,-1262.51"/>
</a>
</g>
<text xml:space="preserve" text-anchor="start" x="17.51" y="-1108.5" font-family="Helvetica,sans-Serif" font-size="10.00" fill="grey">&lt; std::string, anch</text>
<text xml:space="preserve" text-anchor="start" x="17.51" y="-1092.5" font-family="Helvetica,sans-Serif" font-size="10.00" fill="grey">  ::sql::PreparedStatement * &gt;</text>
</g>
<!-- Node8&#45;&gt;Node7 -->
<g id="edge8_Node000007_Node000008" class="edge">
<title>Node8&#45;&gt;Node7</title>
<g id="a_edge8_Node000007_Node000008"><a xlink:title=" ">
<path fill="none" stroke="orange" d="M55.78,-1262.95C62.84,-1248.82 72.32,-1233.04 83.88,-1221 93.59,-1210.87 105.84,-1202.02 117.82,-1194.72"/>
<polygon fill="orange" stroke="orange" points="52.62,-1261.45 51.5,-1271.98 58.94,-1264.45 52.62,-1261.45"/>
</a>
</g>
<text xml:space="preserve" text-anchor="start" x="86.88" y="-1242.5" font-family="Helvetica,sans-Serif" font-size="10.00" fill="grey">&lt; std::size_t, std</text>
<text xml:space="preserve" text-anchor="start" x="86.88" y="-1226.5" font-family="Helvetica,sans-Serif" font-size="10.00" fill="grey">  ::string &gt;</text>
</g>
<!-- Node9 -->
<g id="Node000009" class="node">
<title>Node9</title>
<g id="a_Node000009"><a xlink:title=" ">
<polygon fill="white" stroke="none" points="43.5,-1437 28.75,-1437 28.75,-1385 43.5,-1385 43.5,-1437"/>
<text xml:space="preserve" text-anchor="start" x="32.75" y="-1423.5" font-family="Helvetica,sans-Serif" font-size="10.00">K</text>
<text xml:space="preserve" text-anchor="start" x="34.62" y="-1407.5" font-family="Helvetica,sans-Serif" font-size="10.00"> </text>
<text xml:space="preserve" text-anchor="start" x="34.62" y="-1391.5" font-family="Helvetica,sans-Serif" font-size="10.00"> </text>
<polygon fill="#bfbfbf" stroke="#bfbfbf" points="28.75,-1419 28.75,-1419 43.5,-1419 43.5,-1419 28.75,-1419"/>
<polygon fill="#bfbfbf" stroke="#bfbfbf" points="28.75,-1403 28.75,-1403 43.5,-1403 43.5,-1403 28.75,-1403"/>
<polygon fill="none" stroke="#bfbfbf" points="28.75,-1385 28.75,-1437 43.5,-1437 43.5,-1385 28.75,-1385"/>
</a>
</g>
</g>
<!-- Node9&#45;&gt;Node8 -->
<g id="edge9_Node000008_Node000009" class="edge">
<title>Node9&#45;&gt;Node8</title>
<g id="a_edge9_Node000008_Node000009"><a xlink:title=" ">
<path fill="none" stroke="#63b8ff" d="M36.04,-1385.17C36.11,-1372.53 36.37,-1356.94 37.12,-1343 37.21,-1341.36 37.32,-1339.68 37.43,-1337.99"/>
<polygon fill="none" stroke="#63b8ff" points="37.44,-1337.85 33.93,-1331.55 38.4,-1325.89 41.91,-1332.19 37.44,-1337.85"/>
</a>
</g>
<text xml:space="preserve" text-anchor="start" x="40.12" y="-1348.5" font-family="Helvetica,sans-Serif" font-size="10.00" fill="grey">+keys</text>
</g>
<!-- Node10 -->
<g id="Node000010" class="node">
<title>Node10</title>
<g id="a_Node000010"><a xlink:title=" ">
<polygon fill="white" stroke="none" points="99.12,-1437 85.12,-1437 85.12,-1385 99.12,-1385 99.12,-1437"/>
<text xml:space="preserve" text-anchor="start" x="89.12" y="-1423.5" font-family="Helvetica,sans-Serif" font-size="10.00">T</text>
<text xml:space="preserve" text-anchor="start" x="90.62" y="-1407.5" font-family="Helvetica,sans-Serif" font-size="10.00"> </text>
<text xml:space="preserve" text-anchor="start" x="90.62" y="-1391.5" font-family="Helvetica,sans-Serif" font-size="10.00"> </text>
<polygon fill="#bfbfbf" stroke="#bfbfbf" points="85.12,-1419 85.12,-1419 99.12,-1419 99.12,-1419 85.12,-1419"/>
<polygon fill="#bfbfbf" stroke="#bfbfbf" points="85.12,-1403 85.12,-1403 99.12,-1403 99.12,-1403 85.12,-1403"/>
<polygon fill="none" stroke="#bfbfbf" points="85.12,-1385 85.12,-1437 99.12,-1437 99.12,-1385 85.12,-1385"/>
</a>
</g>
</g>
<!-- Node10&#45;&gt;Node8 -->
<g id="edge10_Node000008_Node000010" class="edge">
<title>Node10&#45;&gt;Node8</title>
<g id="a_edge10_Node000008_Node000010"><a xlink:title=" ">
<path fill="none" stroke="#63b8ff" d="M85.75,-1385.17C82,-1372.26 76.69,-1356.41 70.12,-1343 68.95,-1340.6 67.66,-1338.18 66.29,-1335.77"/>
<polygon fill="none" stroke="#63b8ff" points="66.28,-1335.75 59.72,-1332.74 59.98,-1325.53 66.54,-1328.54 66.28,-1335.75"/>
</a>
</g>
<text xml:space="preserve" text-anchor="start" x="80.71" y="-1348.5" font-family="Helvetica,sans-Serif" font-size="10.00" fill="grey">+elements</text>
</g>
</g>
</svg>

<g id="navigator" transform="translate(0 0)" fill="#404254">
  <rect fill="#f2f5e9" fill-opacity="0.5" stroke="#606060" stroke-width=".5" x="0" y="0" width="60" height="60"/>
  <use id="zoomplus" xlink:href="#zoomPlus" x="17" y="9" onmousedown="handleZoom(evt,'in')"/>
  <use id="zoomminus" xlink:href="#zoomMin" x="42" y="9" onmousedown="handleZoom(evt,'out')"/>
  <use id="reset" xlink:href="#resetDef" x="30" y="36" onmousedown="handleReset()"/>
   <use id="arrowup" xlink:href="#arrowUp" x="0" y="0" onmousedown="handlePan(0,-1)"/>
  <use id="arrowright" xlink:href="#arrowRight" x="0" y="0" onmousedown="handlePan(1,0)"/>
  <use id="arrowdown" xlink:href="#arrowDown" x="0" y="0" onmousedown="handlePan(0,1)"/>
  <use id="arrowleft" xlink:href="#arrowLeft" x="0" y="0" onmousedown="handlePan(-1,0)"/>
</g>
<svg viewBox="0 0 15 15" width="100%" height="30px" preserveAspectRatio="xMaxYMin meet">
 <g id="arrow_out" transform="scale(0.3 0.3)">
  <a xlink:href="classanch_1_1sql_1_1_s_q_lite3_connection__coll__graph_org.svg" target="_base">
   <rect id="button" ry="5" rx="5" y="6" x="6" height="38" width="38"
        fill="#f2f5e9" fill-opacity="0.5" stroke="#606060" stroke-width="1.0"/>
   <path id="arrow"
     d="M 11.500037,31.436501 C 11.940474,20.09759 22.043105,11.32322 32.158766,21.979434 L 37.068811,17.246167 C 37.068811,17.246167 37.088388,32 37.088388,32 L 22.160133,31.978069 C 22.160133,31.978069 26.997745,27.140456 26.997745,27.140456 C 18.528582,18.264221 13.291696,25.230495 11.500037,31.436501 z"
     style="fill:#404040;"/>
  </a>
 </g>
</svg>

<style type='text/css'>
<![CDATA[
[data-mouse-over-selected='false'] { opacity: 0.7; }
[data-mouse-over-selected='true']  { opacity: 1.0; }
]]>
</style>
<script type="application/ecmascript"><![CDATA[
document.addEventListener('DOMContentLoaded', (event) => {
  highlightEdges();
  highlightAdjacentNodes();
});
]]></script>
</svg>
