<?xml version="1.0" encoding="UTF-8" standalone="no"?>
<!DOCTYPE svg PUBLIC "-//W3C//DTD SVG 1.1//EN"
 "http://www.w3.org/Graphics/SVG/1.1/DTD/svg11.dtd">
<!-- Generated by graphviz version 10.0.1 (0)
 -->
<!-- Title: anch::network::Socket Pages: 1 -->
<svg width="175pt" height="631pt"
 viewBox="0.00 0.00 174.50 630.75" xmlns="http://www.w3.org/2000/svg" xmlns:xlink="http://www.w3.org/1999/xlink">
<g id="graph0" class="graph" transform="scale(1 1) rotate(0) translate(4 626.75)">
<title>anch::network::Socket</title>
<!-- Node1 -->
<g id="Node000001" class="node">
<title>Node1</title>
<g id="a_Node000001"><a xlink:title=" ">
<polygon fill="#999999" stroke="none" points="139.5,-260 22.5,-260 22.5,0 139.5,0 139.5,-260"/>
<text text-anchor="start" x="27.38" y="-246.5" font-family="Helvetica,sans-Serif" font-size="10.00">anch::network::Socket</text>
<text text-anchor="start" x="32.88" y="-230.5" font-family="Helvetica,sans-Serif" font-size="10.00">#</text>
<text text-anchor="start" x="51.5" y="-230.5" font-family="Helvetica,sans-Serif" font-size="10.00">_sock</text>
<text text-anchor="start" x="32.88" y="-214.5" font-family="Helvetica,sans-Serif" font-size="10.00">#</text>
<text text-anchor="start" x="51.5" y="-214.5" font-family="Helvetica,sans-Serif" font-size="10.00">_backlog</text>
<text text-anchor="start" x="32.88" y="-198.5" font-family="Helvetica,sans-Serif" font-size="10.00">#</text>
<text text-anchor="start" x="51.5" y="-198.5" font-family="Helvetica,sans-Serif" font-size="10.00">_address</text>
<text text-anchor="start" x="32.88" y="-182.5" font-family="Helvetica,sans-Serif" font-size="10.00">+</text>
<text text-anchor="start" x="51.5" y="-182.5" font-family="Helvetica,sans-Serif" font-size="10.00">Socket()</text>
<text text-anchor="start" x="32.88" y="-166.5" font-family="Helvetica,sans-Serif" font-size="10.00">+</text>
<text text-anchor="start" x="51.5" y="-166.5" font-family="Helvetica,sans-Serif" font-size="10.00">~Socket()</text>
<text text-anchor="start" x="32.88" y="-150.5" font-family="Helvetica,sans-Serif" font-size="10.00">+</text>
<text text-anchor="start" x="51.5" y="-150.5" font-family="Helvetica,sans-Serif" font-size="10.00">bind()</text>
<text text-anchor="start" x="32.88" y="-134.5" font-family="Helvetica,sans-Serif" font-size="10.00">+</text>
<text text-anchor="start" x="51.5" y="-134.5" font-family="Helvetica,sans-Serif" font-size="10.00">connect()</text>
<text text-anchor="start" x="32.88" y="-118.5" font-family="Helvetica,sans-Serif" font-size="10.00">+</text>
<text text-anchor="start" x="51.5" y="-118.5" font-family="Helvetica,sans-Serif" font-size="10.00">listen()</text>
<text text-anchor="start" x="32.88" y="-102.5" font-family="Helvetica,sans-Serif" font-size="10.00">+</text>
<text text-anchor="start" x="51.5" y="-102.5" font-family="Helvetica,sans-Serif" font-size="10.00">accept()</text>
<text text-anchor="start" x="32.88" y="-86.5" font-family="Helvetica,sans-Serif" font-size="10.00">+</text>
<text text-anchor="start" x="51.5" y="-86.5" font-family="Helvetica,sans-Serif" font-size="10.00">send()</text>
<text text-anchor="start" x="32.88" y="-70.5" font-family="Helvetica,sans-Serif" font-size="10.00">+</text>
<text text-anchor="start" x="51.5" y="-70.5" font-family="Helvetica,sans-Serif" font-size="10.00">receive()</text>
<text text-anchor="start" x="32.88" y="-54.5" font-family="Helvetica,sans-Serif" font-size="10.00">+</text>
<text text-anchor="start" x="51.5" y="-54.5" font-family="Helvetica,sans-Serif" font-size="10.00">receive()</text>
<text text-anchor="start" x="32.88" y="-38.5" font-family="Helvetica,sans-Serif" font-size="10.00">+</text>
<text text-anchor="start" x="51.5" y="-38.5" font-family="Helvetica,sans-Serif" font-size="10.00">shutdown()</text>
<text text-anchor="start" x="51.5" y="-22.5" font-family="Helvetica,sans-Serif" font-size="10.00">and 11 more...</text>
<text text-anchor="start" x="32.88" y="-6.5" font-family="Helvetica,sans-Serif" font-size="10.00">#</text>
<text text-anchor="start" x="51.5" y="-6.5" font-family="Helvetica,sans-Serif" font-size="10.00">Socket()</text>
<polygon fill="#666666" stroke="#666666" points="22.5,-242 22.5,-242 139.5,-242 139.5,-242 22.5,-242"/>
<polygon fill="#666666" stroke="#666666" points="22.5,-194 22.5,-194 49.5,-194 49.5,-194 22.5,-194"/>
<polygon fill="#666666" stroke="#666666" points="49.5,-194 49.5,-194 139.5,-194 139.5,-194 49.5,-194"/>
<polygon fill="none" stroke="#666666" points="22.5,0 22.5,-260 139.5,-260 139.5,0 22.5,0"/>
</a>
</g>
</g>
<!-- Node2 -->
<g id="Node000002" class="node">
<title>Node2</title>
<g id="a_Node000002"><a xlink:href="classanch_1_1events_1_1_observable.html" target="_top" xlink:title=" ">
<polygon fill="white" stroke="none" points="147.5,-442 14.5,-442 14.5,-297 147.5,-297 147.5,-442"/>
<text text-anchor="start" x="19.12" y="-428.5" font-family="Helvetica,sans-Serif" font-size="10.00">anch::events::Observable</text>
<text text-anchor="start" x="39.75" y="-415.75" font-family="Helvetica,sans-Serif" font-size="10.00">&lt; SocketEvent &gt;</text>
<text text-anchor="start" x="79.5" y="-399.5" font-family="Helvetica,sans-Serif" font-size="10.00"> </text>
<text text-anchor="start" x="24.38" y="-383.5" font-family="Helvetica,sans-Serif" font-size="10.00">+</text>
<text text-anchor="start" x="42.5" y="-383.5" font-family="Helvetica,sans-Serif" font-size="10.00">Observable()</text>
<text text-anchor="start" x="24.38" y="-367.5" font-family="Helvetica,sans-Serif" font-size="10.00">+</text>
<text text-anchor="start" x="42.5" y="-367.5" font-family="Helvetica,sans-Serif" font-size="10.00">~Observable()</text>
<text text-anchor="start" x="24.38" y="-351.5" font-family="Helvetica,sans-Serif" font-size="10.00">+</text>
<text text-anchor="start" x="42.5" y="-351.5" font-family="Helvetica,sans-Serif" font-size="10.00">addObserver()</text>
<text text-anchor="start" x="24.38" y="-335.5" font-family="Helvetica,sans-Serif" font-size="10.00">+</text>
<text text-anchor="start" x="42.5" y="-335.5" font-family="Helvetica,sans-Serif" font-size="10.00">removeObserver()</text>
<text text-anchor="start" x="24.38" y="-319.5" font-family="Helvetica,sans-Serif" font-size="10.00">+</text>
<text text-anchor="start" x="42.5" y="-319.5" font-family="Helvetica,sans-Serif" font-size="10.00">notifyObservers()</text>
<text text-anchor="start" x="24.38" y="-303.5" font-family="Helvetica,sans-Serif" font-size="10.00">+</text>
<text text-anchor="start" x="42.5" y="-303.5" font-family="Helvetica,sans-Serif" font-size="10.00">notifyObservers()</text>
<polygon fill="#666666" stroke="#666666" points="14.5,-411 14.5,-411 147.5,-411 147.5,-411 14.5,-411"/>
<polygon fill="#666666" stroke="#666666" points="14.5,-395 14.5,-395 147.5,-395 147.5,-395 14.5,-395"/>
<polygon fill="none" stroke="#666666" points="14.5,-297 14.5,-442 147.5,-442 147.5,-297 14.5,-297"/>
</a>
</g>
</g>
<!-- Node2&#45;&gt;Node1 -->
<g id="edge1_Node000001_Node000002" class="edge">
<title>Node2&#45;&gt;Node1</title>
<g id="a_edge1_Node000001_Node000002"><a xlink:title=" ">
<path fill="none" stroke="#63b8ff" d="M81,-285.89C81,-277.43 81,-268.71 81,-259.9"/>
<polygon fill="none" stroke="#63b8ff" points="77.5,-285.73 81,-295.73 84.5,-285.73 77.5,-285.73"/>
</a>
</g>
</g>
<!-- Node3 -->
<g id="Node000003" class="node">
<title>Node3</title>
<g id="a_Node000003"><a xlink:href="classanch_1_1events_1_1_observable.html" target="_top" xlink:title="An observable implementation of the observers/observable design pattern.">
<polygon fill="white" stroke="none" points="162,-622.75 0,-622.75 0,-490.75 162,-490.75 162,-622.75"/>
<text text-anchor="start" x="4.88" y="-609.25" font-family="Helvetica,sans-Serif" font-size="10.00">anch::events::Observable&lt; T &gt;</text>
<text text-anchor="start" x="79.5" y="-593.25" font-family="Helvetica,sans-Serif" font-size="10.00"> </text>
<text text-anchor="start" x="16.88" y="-577.25" font-family="Helvetica,sans-Serif" font-size="10.00">+</text>
<text text-anchor="start" x="42" y="-577.25" font-family="Helvetica,sans-Serif" font-size="10.00">Observable()</text>
<text text-anchor="start" x="16.88" y="-561.25" font-family="Helvetica,sans-Serif" font-size="10.00">+</text>
<text text-anchor="start" x="42" y="-561.25" font-family="Helvetica,sans-Serif" font-size="10.00">~Observable()</text>
<text text-anchor="start" x="16.88" y="-545.25" font-family="Helvetica,sans-Serif" font-size="10.00">+</text>
<text text-anchor="start" x="42" y="-545.25" font-family="Helvetica,sans-Serif" font-size="10.00">addObserver()</text>
<text text-anchor="start" x="16.88" y="-529.25" font-family="Helvetica,sans-Serif" font-size="10.00">+</text>
<text text-anchor="start" x="42" y="-529.25" font-family="Helvetica,sans-Serif" font-size="10.00">removeObserver()</text>
<text text-anchor="start" x="16.88" y="-513.25" font-family="Helvetica,sans-Serif" font-size="10.00">+</text>
<text text-anchor="start" x="42" y="-513.25" font-family="Helvetica,sans-Serif" font-size="10.00">notifyObservers()</text>
<text text-anchor="start" x="16.88" y="-497.25" font-family="Helvetica,sans-Serif" font-size="10.00">+</text>
<text text-anchor="start" x="42" y="-497.25" font-family="Helvetica,sans-Serif" font-size="10.00">notifyObservers()</text>
<polygon fill="#666666" stroke="#666666" points="0,-604.75 0,-604.75 162,-604.75 162,-604.75 0,-604.75"/>
<polygon fill="#666666" stroke="#666666" points="0,-588.75 0,-588.75 162,-588.75 162,-588.75 0,-588.75"/>
<polygon fill="none" stroke="#666666" points="0,-490.75 0,-622.75 162,-622.75 162,-490.75 0,-490.75"/>
</a>
</g>
</g>
<!-- Node3&#45;&gt;Node2 -->
<g id="edge2_Node000002_Node000003" class="edge">
<title>Node3&#45;&gt;Node2</title>
<g id="a_edge2_Node000002_Node000003"><a xlink:title=" ">
<path fill="none" stroke="orange" d="M81,-479.64C81,-467.15 81,-454.25 81,-441.89"/>
<polygon fill="orange" stroke="orange" points="77.5,-479.44 81,-489.44 84.5,-479.45 77.5,-479.44"/>
</a>
</g>
<text text-anchor="middle" x="123.75" y="-463.25" font-family="Helvetica,sans-Serif" font-size="10.00" fill="grey"> &lt; SocketEvent &gt;</text>
</g>
</g>
</svg>
