<?xml version="1.0" encoding="UTF-8" standalone="no"?>
<!DOCTYPE svg PUBLIC "-//W3C//DTD SVG 1.1//EN"
 "http://www.w3.org/Graphics/SVG/1.1/DTD/svg11.dtd">
<!-- Generated by graphviz version 7.1.0 (0)
 -->
<!-- Title: anch::logger::ThreadSafeWriter Pages: 1 -->
<svg width="146pt" height="270pt"
 viewBox="0.00 0.00 146.00 270.00" xmlns="http://www.w3.org/2000/svg" xmlns:xlink="http://www.w3.org/1999/xlink">
<g id="graph0" class="graph" transform="scale(1 1) rotate(0) translate(4 266)">
<title>anch::logger::ThreadSafeWriter</title>
<!-- Node1 -->
<g id="node1" class="node">
<title>Node1</title>
<g id="a_node1"><a xlink:title=" ">
<polygon fill="#999999" stroke="#666666" points="0,-0.5 0,-101.5 138,-101.5 138,-0.5 0,-0.5"/>
<text text-anchor="start" x="8" y="-89.5" font-family="Helvetica,sans-Serif" font-size="10.00">anch::logger::ThreadSafe</text>
<text text-anchor="middle" x="69" y="-78.5" font-family="Helvetica,sans-Serif" font-size="10.00">Writer</text>
<polyline fill="none" stroke="#666666" points="0,-71.5 138,-71.5"/>
<text text-anchor="middle" x="69" y="-59.5" font-family="Helvetica,sans-Serif" font-size="10.00"> </text>
<polyline fill="none" stroke="#666666" points="0,-52.5 138,-52.5"/>
<text text-anchor="start" x="8" y="-40.5" font-family="Helvetica,sans-Serif" font-size="10.00">+ ThreadSafeWriter()</text>
<text text-anchor="start" x="8" y="-29.5" font-family="Helvetica,sans-Serif" font-size="10.00">+ ThreadSafeWriter()</text>
<text text-anchor="start" x="8" y="-18.5" font-family="Helvetica,sans-Serif" font-size="10.00">+ ~ThreadSafeWriter()</text>
<text text-anchor="start" x="8" y="-7.5" font-family="Helvetica,sans-Serif" font-size="10.00">+ write()</text>
</a>
</g>
</g>
<!-- Node2 -->
<g id="node2" class="node">
<title>Node2</title>
<g id="a_node2"><a xlink:href="classanch_1_1logger_1_1_writer.html" target="_top" xlink:title=" ">
<polygon fill="white" stroke="#666666" points="12.5,-138.5 12.5,-261.5 125.5,-261.5 125.5,-138.5 12.5,-138.5"/>
<text text-anchor="middle" x="69" y="-249.5" font-family="Helvetica,sans-Serif" font-size="10.00">anch::logger::Writer</text>
<polyline fill="none" stroke="#666666" points="12.5,-242.5 125.5,-242.5"/>
<text text-anchor="start" x="20.5" y="-230.5" font-family="Helvetica,sans-Serif" font-size="10.00"># _output</text>
<text text-anchor="start" x="20.5" y="-219.5" font-family="Helvetica,sans-Serif" font-size="10.00"># _formatter</text>
<polyline fill="none" stroke="#666666" points="12.5,-212.5 125.5,-212.5"/>
<text text-anchor="start" x="20.5" y="-200.5" font-family="Helvetica,sans-Serif" font-size="10.00">+ Writer()</text>
<text text-anchor="start" x="20.5" y="-189.5" font-family="Helvetica,sans-Serif" font-size="10.00">+ Writer()</text>
<text text-anchor="start" x="20.5" y="-178.5" font-family="Helvetica,sans-Serif" font-size="10.00">+ ~Writer()</text>
<text text-anchor="start" x="20.5" y="-167.5" font-family="Helvetica,sans-Serif" font-size="10.00">+ write()</text>
<text text-anchor="start" x="20.5" y="-156.5" font-family="Helvetica,sans-Serif" font-size="10.00"># rotate()</text>
<text text-anchor="start" x="20.5" y="-145.5" font-family="Helvetica,sans-Serif" font-size="10.00"># rotateFiles()</text>
</a>
</g>
</g>
<!-- Node2&#45;&gt;Node1 -->
<g id="edge1" class="edge">
<title>Node2&#45;&gt;Node1</title>
<path fill="none" stroke="#63b8ff" d="M69,-127.53C69,-118.59 69,-109.61 69,-101.13"/>
<polygon fill="none" stroke="#63b8ff" points="65.5,-127.27 69,-137.27 72.5,-127.27 65.5,-127.27"/>
</g>
</g>
</svg>
