<?xml version="1.0" encoding="UTF-8" standalone="no"?>
<!DOCTYPE svg PUBLIC "-//W3C//DTD SVG 1.1//EN"
 "http://www.w3.org/Graphics/SVG/1.1/DTD/svg11.dtd">
<!-- Generated by graphviz version 14.1.3 (0)
 -->
<!-- Title: anch::conf::Placeholders Pages: 1 -->
<svg width="209pt" height="507pt"
 viewBox="0.00 0.00 209.00 507.00" xmlns="http://www.w3.org/2000/svg" xmlns:xlink="http://www.w3.org/1999/xlink">
<g id="graph0" class="graph" transform="scale(1 1) rotate(0) translate(4 503)">
<title>anch::conf::Placeholders</title>
<!-- Node1 -->
<g id="Node000001" class="node">
<title>Node1</title>
<g id="a_Node000001"><a xlink:title="Register placeholders.">
<polygon fill="#999999" stroke="none" points="129.5,-148 13.5,-148 13.5,0 129.5,0 129.5,-148"/>
<text xml:space="preserve" text-anchor="start" x="17.5" y="-134.25" font-family="Helvetica,sans-Serif" font-size="10.00">anch::conf::Placeholders</text>
<text xml:space="preserve" text-anchor="start" x="70" y="-118.25" font-family="Helvetica,sans-Serif" font-size="10.00"> </text>
<text xml:space="preserve" text-anchor="start" x="24.94" y="-102.25" font-family="Helvetica,sans-Serif" font-size="10.00">+</text>
<text xml:space="preserve" text-anchor="start" x="42.38" y="-102.25" font-family="Helvetica,sans-Serif" font-size="10.00">Placeholders()</text>
<text xml:space="preserve" text-anchor="start" x="24.94" y="-86.25" font-family="Helvetica,sans-Serif" font-size="10.00">+</text>
<text xml:space="preserve" text-anchor="start" x="42.38" y="-86.25" font-family="Helvetica,sans-Serif" font-size="10.00">Placeholders()</text>
<text xml:space="preserve" text-anchor="start" x="24.94" y="-70.25" font-family="Helvetica,sans-Serif" font-size="10.00">+</text>
<text xml:space="preserve" text-anchor="start" x="42.38" y="-70.25" font-family="Helvetica,sans-Serif" font-size="10.00">Placeholders()</text>
<text xml:space="preserve" text-anchor="start" x="24.94" y="-54.25" font-family="Helvetica,sans-Serif" font-size="10.00">+</text>
<text xml:space="preserve" text-anchor="start" x="42.38" y="-54.25" font-family="Helvetica,sans-Serif" font-size="10.00">Placeholders()</text>
<text xml:space="preserve" text-anchor="start" x="24.94" y="-38.25" font-family="Helvetica,sans-Serif" font-size="10.00">+</text>
<text xml:space="preserve" text-anchor="start" x="42.38" y="-38.25" font-family="Helvetica,sans-Serif" font-size="10.00">~Placeholders()</text>
<text xml:space="preserve" text-anchor="start" x="24.94" y="-22.25" font-family="Helvetica,sans-Serif" font-size="10.00">+</text>
<text xml:space="preserve" text-anchor="start" x="42.38" y="-22.25" font-family="Helvetica,sans-Serif" font-size="10.00">collect()</text>
<text xml:space="preserve" text-anchor="start" x="24.94" y="-6.25" font-family="Helvetica,sans-Serif" font-size="10.00">+</text>
<text xml:space="preserve" text-anchor="start" x="42.38" y="-6.25" font-family="Helvetica,sans-Serif" font-size="10.00">resolve()</text>
<polygon fill="#666666" stroke="#666666" points="13.5,-130 13.5,-130 129.5,-130 129.5,-130 13.5,-130"/>
<polygon fill="#666666" stroke="#666666" points="13.5,-114 13.5,-114 129.5,-114 129.5,-114 13.5,-114"/>
<polygon fill="none" stroke="#666666" points="13.5,0 13.5,-148 129.5,-148 129.5,0 13.5,0"/>
</a>
</g>
</g>
<!-- Node2 -->
<g id="Node000002" class="node">
<title>Node2</title>
<g id="a_Node000002"><a xlink:href="classanch_1_1events_1_1_observable.html" target="_top" xlink:title=" ">
<polygon fill="white" stroke="none" points="137.38,-313 5.62,-313 5.62,-185 137.38,-185 137.38,-313"/>
<text xml:space="preserve" text-anchor="start" x="9.62" y="-299.25" font-family="Helvetica,sans-Serif" font-size="10.00">anch::events::Observable</text>
<text xml:space="preserve" text-anchor="start" x="9.62" y="-287.25" font-family="Helvetica,sans-Serif" font-size="10.00">&lt; anch::conf::ResConfEvt &gt;</text>
<text xml:space="preserve" text-anchor="start" x="70" y="-271.25" font-family="Helvetica,sans-Serif" font-size="10.00"> </text>
<text xml:space="preserve" text-anchor="start" x="18.56" y="-255.25" font-family="Helvetica,sans-Serif" font-size="10.00">+</text>
<text xml:space="preserve" text-anchor="start" x="37.5" y="-255.25" font-family="Helvetica,sans-Serif" font-size="10.00">Observable()</text>
<text xml:space="preserve" text-anchor="start" x="18.56" y="-239.25" font-family="Helvetica,sans-Serif" font-size="10.00">+</text>
<text xml:space="preserve" text-anchor="start" x="37.5" y="-239.25" font-family="Helvetica,sans-Serif" font-size="10.00">~Observable()</text>
<text xml:space="preserve" text-anchor="start" x="18.56" y="-223.25" font-family="Helvetica,sans-Serif" font-size="10.00">+</text>
<text xml:space="preserve" text-anchor="start" x="37.5" y="-223.25" font-family="Helvetica,sans-Serif" font-size="10.00">addObserver()</text>
<text xml:space="preserve" text-anchor="start" x="18.56" y="-207.25" font-family="Helvetica,sans-Serif" font-size="10.00">+</text>
<text xml:space="preserve" text-anchor="start" x="37.5" y="-207.25" font-family="Helvetica,sans-Serif" font-size="10.00">removeObserver()</text>
<text xml:space="preserve" text-anchor="start" x="18.56" y="-191.25" font-family="Helvetica,sans-Serif" font-size="10.00">+</text>
<text xml:space="preserve" text-anchor="start" x="37.5" y="-191.25" font-family="Helvetica,sans-Serif" font-size="10.00">notifyObservers()</text>
<polygon fill="#666666" stroke="#666666" points="5.62,-283 5.62,-283 137.38,-283 137.38,-283 5.62,-283"/>
<polygon fill="#666666" stroke="#666666" points="5.62,-267 5.62,-267 137.38,-267 137.38,-267 5.62,-267"/>
<polygon fill="none" stroke="#666666" points="5.62,-185 5.62,-313 137.38,-313 137.38,-185 5.62,-185"/>
</a>
</g>
</g>
<!-- Node2&#45;&gt;Node1 -->
<g id="edge1_Node000001_Node000002" class="edge">
<title>Node2&#45;&gt;Node1</title>
<g id="a_edge1_Node000001_Node000002"><a xlink:title=" ">
<path fill="none" stroke="#8b1a1a" d="M71.5,-173.57C71.5,-165.05 71.5,-156.38 71.5,-147.88"/>
<polygon fill="none" stroke="#8b1a1a" points="68,-173.54 71.5,-183.54 75,-173.54 68,-173.54"/>
</a>
</g>
</g>
<!-- Node3 -->
<g id="Node000003" class="node">
<title>Node3</title>
<g id="a_Node000003"><a xlink:href="classanch_1_1events_1_1_observable.html" target="_top" xlink:title="An observable implementation of the observers/observable design pattern.">
<polygon fill="white" stroke="none" points="143,-499 0,-499 0,-367 143,-367 143,-499"/>
<text xml:space="preserve" text-anchor="start" x="4" y="-485.25" font-family="Helvetica,sans-Serif" font-size="10.00">anch::events::Observable&lt; T &gt;</text>
<text xml:space="preserve" text-anchor="start" x="70" y="-469.25" font-family="Helvetica,sans-Serif" font-size="10.00"> </text>
<text xml:space="preserve" text-anchor="start" x="15.75" y="-453.25" font-family="Helvetica,sans-Serif" font-size="10.00">+</text>
<text xml:space="preserve" text-anchor="start" x="37.5" y="-453.25" font-family="Helvetica,sans-Serif" font-size="10.00">Observable()</text>
<text xml:space="preserve" text-anchor="start" x="15.75" y="-437.25" font-family="Helvetica,sans-Serif" font-size="10.00">+</text>
<text xml:space="preserve" text-anchor="start" x="37.5" y="-437.25" font-family="Helvetica,sans-Serif" font-size="10.00">~Observable()</text>
<text xml:space="preserve" text-anchor="start" x="15.75" y="-421.25" font-family="Helvetica,sans-Serif" font-size="10.00">+</text>
<text xml:space="preserve" text-anchor="start" x="37.5" y="-421.25" font-family="Helvetica,sans-Serif" font-size="10.00">addObserver()</text>
<text xml:space="preserve" text-anchor="start" x="15.75" y="-405.25" font-family="Helvetica,sans-Serif" font-size="10.00">+</text>
<text xml:space="preserve" text-anchor="start" x="37.5" y="-405.25" font-family="Helvetica,sans-Serif" font-size="10.00">removeObserver()</text>
<text xml:space="preserve" text-anchor="start" x="15.75" y="-389.25" font-family="Helvetica,sans-Serif" font-size="10.00">+</text>
<text xml:space="preserve" text-anchor="start" x="37.5" y="-389.25" font-family="Helvetica,sans-Serif" font-size="10.00">notifyObservers()</text>
<text xml:space="preserve" text-anchor="start" x="15.75" y="-373.25" font-family="Helvetica,sans-Serif" font-size="10.00">+</text>
<text xml:space="preserve" text-anchor="start" x="37.5" y="-373.25" font-family="Helvetica,sans-Serif" font-size="10.00">notifyObservers()</text>
<polygon fill="#666666" stroke="#666666" points="0,-481 0,-481 143,-481 143,-481 0,-481"/>
<polygon fill="#666666" stroke="#666666" points="0,-465 0,-465 143,-465 143,-465 0,-465"/>
<polygon fill="none" stroke="#666666" points="0,-367 0,-499 143,-499 143,-367 0,-367"/>
</a>
</g>
</g>
<!-- Node3&#45;&gt;Node2 -->
<g id="edge2_Node000002_Node000003" class="edge">
<title>Node3&#45;&gt;Node2</title>
<g id="a_edge2_Node000002_Node000003"><a xlink:title=" ">
<path fill="none" stroke="orange" d="M71.5,-355.73C71.5,-341.42 71.5,-326.61 71.5,-312.77"/>
<polygon fill="orange" stroke="orange" points="68,-355.55 71.5,-365.55 75,-355.55 68,-355.55"/>
</a>
</g>
<text xml:space="preserve" text-anchor="start" x="74.5" y="-336.25" font-family="Helvetica,sans-Serif" font-size="10.00" fill="grey">&lt; anch::conf::ResConfEvt &gt;</text>
</g>
</g>
</svg>
