<?xml version="1.0" encoding="UTF-8" standalone="no"?>
<!DOCTYPE svg PUBLIC "-//W3C//DTD SVG 1.1//EN"
 "http://www.w3.org/Graphics/SVG/1.1/DTD/svg11.dtd">
<!-- Generated by graphviz version 12.2.1 (0)
 -->
<!-- Title: anch::sql::MySQLPreparedStatement Pages: 1 -->
<svg width="155pt" height="480pt"
 viewBox="0.00 0.00 155.00 480.00" xmlns="http://www.w3.org/2000/svg" xmlns:xlink="http://www.w3.org/1999/xlink">
<g id="graph0" class="graph" transform="scale(1 1) rotate(0) translate(4 476)">
<title>anch::sql::MySQLPreparedStatement</title>
<!-- Node1 -->
<g id="Node000001" class="node">
<title>Node1</title>
<g id="a_Node000001"><a xlink:title="MySQL prepared statement implementation.">
<polygon fill="#999999" stroke="none" points="147,-112 0,-112 0,0 147,0 147,-112"/>
<text text-anchor="start" x="14.62" y="-98.5" font-family="Helvetica,sans-Serif" font-size="10.00">anch::sql::MySQLPrepared</text>
<text text-anchor="start" x="51" y="-86.5" font-family="Helvetica,sans-Serif" font-size="10.00">Statement</text>
<text text-anchor="start" x="72" y="-70.5" font-family="Helvetica,sans-Serif" font-size="10.00"> </text>
<text text-anchor="start" x="4" y="-54.5" font-family="Helvetica,sans-Serif" font-size="10.00">+</text>
<text text-anchor="start" x="14" y="-54.5" font-family="Helvetica,sans-Serif" font-size="10.00">MySQLPreparedStatement()</text>
<text text-anchor="start" x="4" y="-38.5" font-family="Helvetica,sans-Serif" font-size="10.00">+</text>
<text text-anchor="start" x="14" y="-38.5" font-family="Helvetica,sans-Serif" font-size="10.00">~MySQLPreparedStatement()</text>
<text text-anchor="start" x="4" y="-22.5" font-family="Helvetica,sans-Serif" font-size="10.00">+</text>
<text text-anchor="start" x="14" y="-22.5" font-family="Helvetica,sans-Serif" font-size="10.00">executeQuery()</text>
<text text-anchor="start" x="4" y="-6.5" font-family="Helvetica,sans-Serif" font-size="10.00">+</text>
<text text-anchor="start" x="14" y="-6.5" font-family="Helvetica,sans-Serif" font-size="10.00">executeUpdate()</text>
<polygon fill="#666666" stroke="#666666" points="0,-82 0,-82 147,-82 147,-82 0,-82"/>
<polygon fill="#666666" stroke="#666666" points="0,-66 0,-66 147,-66 147,-66 0,-66"/>
<polygon fill="none" stroke="#666666" points="0,0 0,-112 147,-112 147,0 0,0"/>
</a>
</g>
</g>
<!-- Node2 -->
<g id="Node000002" class="node">
<title>Node2</title>
<g id="a_Node000002"><a xlink:href="classanch_1_1sql_1_1_prepared_statement.html" target="_top" xlink:title="SQL prepared statement.">
<polygon fill="white" stroke="none" points="142.38,-472 4.62,-472 4.62,-148 142.38,-148 142.38,-472"/>
<text text-anchor="start" x="8.62" y="-458.5" font-family="Helvetica,sans-Serif" font-size="10.00">anch::sql::PreparedStatement</text>
<text text-anchor="start" x="14.94" y="-442.5" font-family="Helvetica,sans-Serif" font-size="10.00">#</text>
<text text-anchor="start" x="30.5" y="-442.5" font-family="Helvetica,sans-Serif" font-size="10.00">_values</text>
<text text-anchor="start" x="14.94" y="-426.5" font-family="Helvetica,sans-Serif" font-size="10.00">#</text>
<text text-anchor="start" x="30.5" y="-426.5" font-family="Helvetica,sans-Serif" font-size="10.00">_nbPlaceholders</text>
<text text-anchor="start" x="14.56" y="-410.5" font-family="Helvetica,sans-Serif" font-size="10.00">+</text>
<text text-anchor="start" x="30.5" y="-410.5" font-family="Helvetica,sans-Serif" font-size="10.00">PreparedStatement()</text>
<text text-anchor="start" x="14.56" y="-394.5" font-family="Helvetica,sans-Serif" font-size="10.00">+</text>
<text text-anchor="start" x="30.5" y="-394.5" font-family="Helvetica,sans-Serif" font-size="10.00">~PreparedStatement()</text>
<text text-anchor="start" x="14.56" y="-378.5" font-family="Helvetica,sans-Serif" font-size="10.00">+</text>
<text text-anchor="start" x="30.5" y="-378.5" font-family="Helvetica,sans-Serif" font-size="10.00">executeQuery()</text>
<text text-anchor="start" x="14.56" y="-362.5" font-family="Helvetica,sans-Serif" font-size="10.00">+</text>
<text text-anchor="start" x="30.5" y="-362.5" font-family="Helvetica,sans-Serif" font-size="10.00">executeUpdate()</text>
<text text-anchor="start" x="14.56" y="-346.5" font-family="Helvetica,sans-Serif" font-size="10.00">+</text>
<text text-anchor="start" x="30.5" y="-346.5" font-family="Helvetica,sans-Serif" font-size="10.00">set()</text>
<text text-anchor="start" x="14.56" y="-330.5" font-family="Helvetica,sans-Serif" font-size="10.00">+</text>
<text text-anchor="start" x="30.5" y="-330.5" font-family="Helvetica,sans-Serif" font-size="10.00">set()</text>
<text text-anchor="start" x="14.56" y="-314.5" font-family="Helvetica,sans-Serif" font-size="10.00">+</text>
<text text-anchor="start" x="30.5" y="-314.5" font-family="Helvetica,sans-Serif" font-size="10.00">set()</text>
<text text-anchor="start" x="14.56" y="-298.5" font-family="Helvetica,sans-Serif" font-size="10.00">+</text>
<text text-anchor="start" x="30.5" y="-298.5" font-family="Helvetica,sans-Serif" font-size="10.00">set()</text>
<text text-anchor="start" x="14.56" y="-282.5" font-family="Helvetica,sans-Serif" font-size="10.00">+</text>
<text text-anchor="start" x="30.5" y="-282.5" font-family="Helvetica,sans-Serif" font-size="10.00">set()</text>
<text text-anchor="start" x="14.56" y="-266.5" font-family="Helvetica,sans-Serif" font-size="10.00">+</text>
<text text-anchor="start" x="30.5" y="-266.5" font-family="Helvetica,sans-Serif" font-size="10.00">set()</text>
<text text-anchor="start" x="14.56" y="-250.5" font-family="Helvetica,sans-Serif" font-size="10.00">+</text>
<text text-anchor="start" x="30.5" y="-250.5" font-family="Helvetica,sans-Serif" font-size="10.00">set()</text>
<text text-anchor="start" x="14.56" y="-234.5" font-family="Helvetica,sans-Serif" font-size="10.00">+</text>
<text text-anchor="start" x="30.5" y="-234.5" font-family="Helvetica,sans-Serif" font-size="10.00">set()</text>
<text text-anchor="start" x="14.56" y="-218.5" font-family="Helvetica,sans-Serif" font-size="10.00">+</text>
<text text-anchor="start" x="30.5" y="-218.5" font-family="Helvetica,sans-Serif" font-size="10.00">set()</text>
<text text-anchor="start" x="14.56" y="-202.5" font-family="Helvetica,sans-Serif" font-size="10.00">+</text>
<text text-anchor="start" x="30.5" y="-202.5" font-family="Helvetica,sans-Serif" font-size="10.00">set()</text>
<text text-anchor="start" x="14.56" y="-186.5" font-family="Helvetica,sans-Serif" font-size="10.00">+</text>
<text text-anchor="start" x="30.5" y="-186.5" font-family="Helvetica,sans-Serif" font-size="10.00">set()</text>
<text text-anchor="start" x="14.94" y="-170.5" font-family="Helvetica,sans-Serif" font-size="10.00">#</text>
<text text-anchor="start" x="30.5" y="-170.5" font-family="Helvetica,sans-Serif" font-size="10.00">getPlaceholders()</text>
<text text-anchor="start" x="14.94" y="-154.5" font-family="Helvetica,sans-Serif" font-size="10.00">#</text>
<text text-anchor="start" x="30.5" y="-154.5" font-family="Helvetica,sans-Serif" font-size="10.00">checkIndex()</text>
<polygon fill="#666666" stroke="#666666" points="4.62,-454 4.62,-454 142.38,-454 142.38,-454 4.62,-454"/>
<polygon fill="#666666" stroke="#666666" points="4.62,-422 4.62,-422 28.5,-422 28.5,-422 4.62,-422"/>
<polygon fill="#666666" stroke="#666666" points="28.5,-422 28.5,-422 142.38,-422 142.38,-422 28.5,-422"/>
<polygon fill="none" stroke="#666666" points="4.62,-148 4.62,-472 142.38,-472 142.38,-148 4.62,-148"/>
</a>
</g>
</g>
<!-- Node2&#45;&gt;Node1 -->
<g id="edge1_Node000001_Node000002" class="edge">
<title>Node2&#45;&gt;Node1</title>
<g id="a_edge1_Node000001_Node000002"><a xlink:title=" ">
<path fill="none" stroke="#63b8ff" d="M73.5,-137.03C73.5,-128.23 73.5,-119.78 73.5,-111.89"/>
<polygon fill="none" stroke="#63b8ff" points="70,-136.82 73.5,-146.82 77,-136.82 70,-136.82"/>
</a>
</g>
</g>
</g>
</svg>
