<?xml version="1.0" encoding="UTF-8" standalone="no"?>
<!DOCTYPE svg PUBLIC "-//W3C//DTD SVG 1.1//EN"
 "http://www.w3.org/Graphics/SVG/1.1/DTD/svg11.dtd">
<!-- Generated by graphviz version 12.2.1 (0)
 -->
<!-- Title: anch::resource::Section Pages: 1 -->
<svg width="155pt" height="373pt"
 viewBox="0.00 0.00 154.50 373.00" xmlns="http://www.w3.org/2000/svg" xmlns:xlink="http://www.w3.org/1999/xlink">

<svg id="main" version="1.1" xmlns="http://www.w3.org/2000/svg" xmlns:xlink="http://www.w3.org/1999/xlink" xml:space="preserve">

<style type="text/css"><![CDATA[
.node, .edge {opacity: 0.7;}
.node.selected, .edge.selected {opacity: 1;}
.edge:hover path { stroke: red; }
.edge:hover polygon { stroke: red; fill: red; }
]]></style>
<script type="application/ecmascript" xlink:href="svg.min.js"/>
<svg id="graph" class="graph">
<g id="graph0" class="graph" transform="scale(1 1) rotate(0) translate(4 369)">
<title>anch::resource::Section</title>
<!-- Node1 -->
<g id="Node000001" class="node">
<title>Node1</title>
<g id="a_Node000001"><a xlink:title=" ">
<polygon fill="#999999" stroke="none" points="111.5,-164 0,-164 0,0 111.5,0 111.5,-164"/>
<text text-anchor="start" x="4" y="-150.5" font-family="Helvetica,sans-Serif" font-size="10.00">anch::resource::Section</text>
<text text-anchor="start" x="54.25" y="-134.5" font-family="Helvetica,sans-Serif" font-size="10.00"> </text>
<text text-anchor="start" x="9.94" y="-118.5" font-family="Helvetica,sans-Serif" font-size="10.00">+</text>
<text text-anchor="start" x="25.88" y="-118.5" font-family="Helvetica,sans-Serif" font-size="10.00">Section()</text>
<text text-anchor="start" x="9.94" y="-102.5" font-family="Helvetica,sans-Serif" font-size="10.00">+</text>
<text text-anchor="start" x="25.88" y="-102.5" font-family="Helvetica,sans-Serif" font-size="10.00">Section()</text>
<text text-anchor="start" x="9.94" y="-86.5" font-family="Helvetica,sans-Serif" font-size="10.00">+</text>
<text text-anchor="start" x="25.88" y="-86.5" font-family="Helvetica,sans-Serif" font-size="10.00">~Section()</text>
<text text-anchor="start" x="9.94" y="-70.5" font-family="Helvetica,sans-Serif" font-size="10.00">+</text>
<text text-anchor="start" x="25.88" y="-70.5" font-family="Helvetica,sans-Serif" font-size="10.00">getParameters()</text>
<text text-anchor="start" x="9.94" y="-54.5" font-family="Helvetica,sans-Serif" font-size="10.00">+</text>
<text text-anchor="start" x="25.88" y="-54.5" font-family="Helvetica,sans-Serif" font-size="10.00">setParameters()</text>
<text text-anchor="start" x="9.94" y="-38.5" font-family="Helvetica,sans-Serif" font-size="10.00">+</text>
<text text-anchor="start" x="25.88" y="-38.5" font-family="Helvetica,sans-Serif" font-size="10.00">addParameter()</text>
<text text-anchor="start" x="9.94" y="-22.5" font-family="Helvetica,sans-Serif" font-size="10.00">+</text>
<text text-anchor="start" x="25.88" y="-22.5" font-family="Helvetica,sans-Serif" font-size="10.00">getParameter()</text>
<text text-anchor="start" x="9.94" y="-6.5" font-family="Helvetica,sans-Serif" font-size="10.00">+</text>
<text text-anchor="start" x="25.88" y="-6.5" font-family="Helvetica,sans-Serif" font-size="10.00">parameter()</text>
<polygon fill="#666666" stroke="#666666" points="0,-146 0,-146 111.5,-146 111.5,-146 0,-146"/>
<polygon fill="#666666" stroke="#666666" points="0,-130 0,-130 111.5,-130 111.5,-130 0,-130"/>
<polygon fill="none" stroke="#666666" points="0,0 0,-164 111.5,-164 111.5,0 0,0"/>
</a>
</g>
</g>
<!-- Node2 -->
<g id="Node000002" class="node">
<title>Node2</title>
<g id="a_Node000002"><a xlink:title=" ">
<polygon fill="white" stroke="none" points="81.5,-264 30,-264 30,-212 81.5,-212 81.5,-264"/>
<text text-anchor="start" x="34" y="-250.5" font-family="Helvetica,sans-Serif" font-size="10.00">std::string</text>
<text text-anchor="start" x="54.25" y="-234.5" font-family="Helvetica,sans-Serif" font-size="10.00"> </text>
<text text-anchor="start" x="54.25" y="-218.5" font-family="Helvetica,sans-Serif" font-size="10.00"> </text>
<polygon fill="#666666" stroke="#666666" points="30,-246 30,-246 81.5,-246 81.5,-246 30,-246"/>
<polygon fill="#666666" stroke="#666666" points="30,-230 30,-230 81.5,-230 81.5,-230 30,-230"/>
<polygon fill="none" stroke="#666666" points="30,-212 30,-264 81.5,-264 81.5,-212 30,-212"/>
</a>
</g>
</g>
<!-- Node2&#45;&gt;Node1 -->
<g id="edge1_Node000001_Node000002" class="edge">
<title>Node2&#45;&gt;Node1</title>
<g id="a_edge1_Node000001_Node000002"><a xlink:title=" ">
<path fill="none" stroke="#63b8ff" d="M55.75,-212.26C55.75,-202.14 55.75,-189.75 55.75,-176.68"/>
<polygon fill="none" stroke="#63b8ff" points="55.75,-176.9 51.75,-170.9 55.75,-164.9 59.75,-170.9 55.75,-176.9"/>
</a>
</g>
<text text-anchor="middle" x="101.12" y="-184.5" font-family="Helvetica,sans-Serif" font-size="10.00" fill="grey"> +DEFAULT_VALUE</text>
</g>
<!-- Node3 -->
<g id="Node000003" class="node">
<title>Node3</title>
<g id="a_Node000003"><a xlink:title=" ">
<polygon fill="white" stroke="none" points="98.75,-365 12.75,-365 12.75,-301 98.75,-301 98.75,-365"/>
<text text-anchor="start" x="16.75" y="-351.5" font-family="Helvetica,sans-Serif" font-size="10.00">std::basic_string&lt;</text>
<text text-anchor="start" x="39.25" y="-339.5" font-family="Helvetica,sans-Serif" font-size="10.00"> Char &gt;</text>
<text text-anchor="start" x="54.25" y="-323.5" font-family="Helvetica,sans-Serif" font-size="10.00"> </text>
<text text-anchor="start" x="54.25" y="-307.5" font-family="Helvetica,sans-Serif" font-size="10.00"> </text>
<polygon fill="#666666" stroke="#666666" points="12.75,-335 12.75,-335 98.75,-335 98.75,-335 12.75,-335"/>
<polygon fill="#666666" stroke="#666666" points="12.75,-319 12.75,-319 98.75,-319 98.75,-319 12.75,-319"/>
<polygon fill="none" stroke="#666666" points="12.75,-301 12.75,-365 98.75,-365 98.75,-301 12.75,-301"/>
</a>
</g>
</g>
<!-- Node3&#45;&gt;Node2 -->
<g id="edge2_Node000002_Node000003" class="edge">
<title>Node3&#45;&gt;Node2</title>
<g id="a_edge2_Node000002_Node000003"><a xlink:title=" ">
<path fill="none" stroke="#63b8ff" d="M55.75,-289.69C55.75,-280.89 55.75,-271.89 55.75,-263.96"/>
<polygon fill="none" stroke="#63b8ff" points="52.25,-289.52 55.75,-299.52 59.25,-289.52 52.25,-289.52"/>
</a>
</g>
</g>
</g>
</svg>
</svg>

<style type='text/css'>
<![CDATA[
[data-mouse-over-selected='false'] { opacity: 0.7; }
[data-mouse-over-selected='true']  { opacity: 1.0; }
]]>
</style>
<script type="application/ecmascript"><![CDATA[
document.addEventListener('DOMContentLoaded', (event) => {
  highlightEdges();
  highlightAdjacentNodes();
});
]]></script>
</svg>
