<?xml version="1.0" encoding="UTF-8" standalone="no"?>
<!DOCTYPE svg PUBLIC "-//W3C//DTD SVG 1.1//EN"
 "http://www.w3.org/Graphics/SVG/1.1/DTD/svg11.dtd">
<!-- Generated by graphviz version 2.40.1 (20161225.0304)
 -->
<!-- Title: anch::sql::ResultSet Pages: 1 -->
<!--zoomable 601 -->
<svg id="main" version="1.1" xmlns="http://www.w3.org/2000/svg" xmlns:xlink="http://www.w3.org/1999/xlink" xml:space="preserve" onload="init(evt)">
<style type="text/css"><![CDATA[
.edge:hover path { stroke: red; }
.edge:hover polygon { stroke: red; fill: red; }
]]></style>
<script type="text/javascript"><![CDATA[
var edges = document.getElementsByTagName('g');
if (edges && edges.length) {
  for (var i=0;i<edges.length;i++) {
    if (edges[i].id.substr(0,4)=='edge') {
      edges[i].setAttribute('class','edge');
    }
  }
}
]]></script>
        <defs>
                <circle id="rim" cx="0" cy="0" r="7"/>
                <circle id="rim2" cx="0" cy="0" r="3.5"/>
                <g id="zoomPlus">
                        <use xlink:href="#rim" fill="#404040">
                                <set attributeName="fill" to="#808080" begin="zoomplus.mouseover" end="zoomplus.mouseout"/>
                        </use>
                        <path d="M-4,0h8M0,-4v8" fill="none" stroke="white" stroke-width="1.5" pointer-events="none"/>
                </g>
                <g id="zoomMin">
                        <use xlink:href="#rim" fill="#404040">
                                <set attributeName="fill" to="#808080" begin="zoomminus.mouseover" end="zoomminus.mouseout"/>
                        </use>
                        <path d="M-4,0h8" fill="none" stroke="white" stroke-width="1.5" pointer-events="none"/>
                </g>
                <g id="dirArrow">
                        <path fill="none" stroke="white" stroke-width="1.5" d="M0,-3.0v7 M-2.5,-0.5L0,-3.0L2.5,-0.5"/>
                </g>
               <g id="resetDef">
                       <use xlink:href="#rim2" fill="#404040">
                               <set attributeName="fill" to="#808080" begin="reset.mouseover" end="reset.mouseout"/>
                       </use>
               </g>
        </defs>

<script type="text/javascript">
var viewWidth = 252;
var viewHeight = 601;
var sectionId = 'dynsection-1';
</script>
<script xlink:href="svgpan.js"/>
<svg id="graph" class="graph">
<g id="viewport">
<title>anch::sql::ResultSet</title>
<!-- Node5 -->
<g id="node1" class="node">
<title>Node5</title>
<polygon fill="#bfbfbf" stroke="#000000" points="6.5,-.5 6.5,-244.5 197.5,-244.5 197.5,-.5 6.5,-.5"/>
<text text-anchor="middle" x="102" y="-232.5" font-family="Helvetica,sans-Serif" font-size="10.00" fill="#000000">anch::sql::ResultSet</text>
<polyline fill="none" stroke="#000000" points="6.5,-225.5 197.5,-225.5 "/>
<text text-anchor="middle" x="102" y="-213.5" font-family="Helvetica,sans-Serif" font-size="10.00" fill="#000000"> </text>
<polyline fill="none" stroke="#000000" points="6.5,-206.5 197.5,-206.5 "/>
<text text-anchor="start" x="14.5" y="-194.5" font-family="Helvetica,sans-Serif" font-size="10.00" fill="#000000">+ ResultSet()</text>
<text text-anchor="start" x="14.5" y="-183.5" font-family="Helvetica,sans-Serif" font-size="10.00" fill="#000000">+ ~ResultSet()</text>
<text text-anchor="start" x="14.5" y="-172.5" font-family="Helvetica,sans-Serif" font-size="10.00" fill="#000000">+ get()</text>
<text text-anchor="start" x="14.5" y="-161.5" font-family="Helvetica,sans-Serif" font-size="10.00" fill="#000000">+ get()</text>
<text text-anchor="start" x="14.5" y="-150.5" font-family="Helvetica,sans-Serif" font-size="10.00" fill="#000000">+ get()</text>
<text text-anchor="start" x="14.5" y="-139.5" font-family="Helvetica,sans-Serif" font-size="10.00" fill="#000000">+ get()</text>
<text text-anchor="start" x="14.5" y="-128.5" font-family="Helvetica,sans-Serif" font-size="10.00" fill="#000000">+ next()</text>
<text text-anchor="start" x="14.5" y="-117.5" font-family="Helvetica,sans-Serif" font-size="10.00" fill="#000000">+ get()</text>
<text text-anchor="start" x="14.5" y="-106.5" font-family="Helvetica,sans-Serif" font-size="10.00" fill="#000000">+ get()</text>
<text text-anchor="start" x="14.5" y="-95.5" font-family="Helvetica,sans-Serif" font-size="10.00" fill="#000000">+ get()</text>
<text text-anchor="start" x="14.5" y="-84.5" font-family="Helvetica,sans-Serif" font-size="10.00" fill="#000000">and 9 more...</text>
<text text-anchor="start" x="14.5" y="-73.5" font-family="Helvetica,sans-Serif" font-size="10.00" fill="#000000"># getValue()</text>
<text text-anchor="start" x="14.5" y="-62.5" font-family="Helvetica,sans-Serif" font-size="10.00" fill="#000000"># getDateFormatter()</text>
<text text-anchor="start" x="14.5" y="-51.5" font-family="Helvetica,sans-Serif" font-size="10.00" fill="#000000"># getTimeFormatter()</text>
<text text-anchor="start" x="14.5" y="-40.5" font-family="Helvetica,sans-Serif" font-size="10.00" fill="#000000"># getTimestampFormatter()</text>
<text text-anchor="start" x="14.5" y="-29.5" font-family="Helvetica,sans-Serif" font-size="10.00" fill="#000000"># getDefaultDateFormatter()</text>
<text text-anchor="start" x="14.5" y="-18.5" font-family="Helvetica,sans-Serif" font-size="10.00" fill="#000000"># getDefaultTimeFormatter()</text>
<text text-anchor="start" x="14.5" y="-7.5" font-family="Helvetica,sans-Serif" font-size="10.00" fill="#000000"># getDefaultTimestampFormatter()</text>
</g>
<!-- Node6 -->
<g id="node2" class="node">
<title>Node6</title>
<polygon fill="none" stroke="#bfbfbf" points="41,-292.5 41,-360.5 163,-360.5 163,-292.5 41,-292.5"/>
<text text-anchor="start" x="49" y="-348.5" font-family="Helvetica,sans-Serif" font-size="10.00" fill="#000000">std::map&lt; std::string,</text>
<text text-anchor="middle" x="102" y="-337.5" font-family="Helvetica,sans-Serif" font-size="10.00" fill="#000000"> std::size_t &gt;</text>
<polyline fill="none" stroke="#bfbfbf" points="41,-330.5 163,-330.5 "/>
<text text-anchor="start" x="49" y="-318.5" font-family="Helvetica,sans-Serif" font-size="10.00" fill="#000000">+ elements</text>
<polyline fill="none" stroke="#bfbfbf" points="41,-311.5 163,-311.5 "/>
<text text-anchor="middle" x="102" y="-299.5" font-family="Helvetica,sans-Serif" font-size="10.00" fill="#000000"> </text>
</g>
<!-- Node6&#45;&gt;Node5 -->
<g id="edge1" class="edge">
<title>Node6&#45;&gt;Node5</title>
<path fill="none" stroke="#404040" d="M102,-292.355C102,-281.934 102,-269.7837 102,-256.8602"/>
<polygon fill="none" stroke="#404040" points="102.0001,-256.8017 98,-250.8018 102,-244.8017 106,-250.8017 102.0001,-256.8017"/>
<text text-anchor="middle" x="123.5" y="-266" font-family="Helvetica,sans-Serif" font-size="10.00" fill="#000000"> #_fields</text>
</g>
<!-- Node7 -->
<g id="node3" class="node">
<title>Node7</title>
<g id="a_node3"><a xlink:title="STL class. ">
<polygon fill="none" stroke="#bfbfbf" points="19.5,-419.5 19.5,-476.5 84.5,-476.5 84.5,-419.5 19.5,-419.5"/>
<text text-anchor="middle" x="52" y="-464.5" font-family="Helvetica,sans-Serif" font-size="10.00" fill="#000000">std::string</text>
<polyline fill="none" stroke="#bfbfbf" points="19.5,-457.5 84.5,-457.5 "/>
<text text-anchor="middle" x="52" y="-445.5" font-family="Helvetica,sans-Serif" font-size="10.00" fill="#000000"> </text>
<polyline fill="none" stroke="#bfbfbf" points="19.5,-438.5 84.5,-438.5 "/>
<text text-anchor="middle" x="52" y="-426.5" font-family="Helvetica,sans-Serif" font-size="10.00" fill="#000000"> </text>
</a>
</g>
</g>
<!-- Node7&#45;&gt;Node6 -->
<g id="edge2" class="edge">
<title>Node7&#45;&gt;Node6</title>
<path fill="none" stroke="#404040" d="M63.8493,-419.2062C69.6588,-405.0891 76.7928,-387.7535 83.3136,-371.908"/>
<polygon fill="none" stroke="#404040" points="83.3589,-371.7978 81.9432,-364.727 87.9256,-360.7007 89.3413,-367.7715 83.3589,-371.7978"/>
<text text-anchor="middle" x="97.5" y="-387.5" font-family="Helvetica,sans-Serif" font-size="10.00" fill="#000000"> +keys</text>
</g>
<!-- Node8 -->
<g id="node4" class="node">
<title>Node8</title>
<g id="a_node4"><a xlink:title="STL class. ">
<polygon fill="none" stroke="#bfbfbf" points="0,-524.5 0,-592.5 104,-592.5 104,-524.5 0,-524.5"/>
<text text-anchor="start" x="8" y="-580.5" font-family="Helvetica,sans-Serif" font-size="10.00" fill="#000000">std::basic_string&lt;</text>
<text text-anchor="middle" x="52" y="-569.5" font-family="Helvetica,sans-Serif" font-size="10.00" fill="#000000"> char &gt;</text>
<polyline fill="none" stroke="#bfbfbf" points="0,-562.5 104,-562.5 "/>
<text text-anchor="middle" x="52" y="-550.5" font-family="Helvetica,sans-Serif" font-size="10.00" fill="#000000"> </text>
<polyline fill="none" stroke="#bfbfbf" points="0,-543.5 104,-543.5 "/>
<text text-anchor="middle" x="52" y="-531.5" font-family="Helvetica,sans-Serif" font-size="10.00" fill="#000000"> </text>
</a>
</g>
</g>
<!-- Node8&#45;&gt;Node7 -->
<g id="edge3" class="edge">
<title>Node8&#45;&gt;Node7</title>
<path fill="none" stroke="#191970" d="M52,-514.0661C52,-501.4172 52,-487.9812 52,-476.5519"/>
<polygon fill="none" stroke="#191970" points="48.5001,-514.4447 52,-524.4447 55.5001,-514.4447 48.5001,-514.4447"/>
</g>
<!-- Node9 -->
<g id="node5" class="node">
<title>Node9</title>
<g id="a_node5"><a xlink:title="STL class. ">
<polygon fill="none" stroke="#bfbfbf" points="102.5,-419.5 102.5,-476.5 203.5,-476.5 203.5,-419.5 102.5,-419.5"/>
<text text-anchor="middle" x="153" y="-464.5" font-family="Helvetica,sans-Serif" font-size="10.00" fill="#000000">std::map&lt; K, T &gt;</text>
<polyline fill="none" stroke="#bfbfbf" points="102.5,-457.5 203.5,-457.5 "/>
<text text-anchor="middle" x="153" y="-445.5" font-family="Helvetica,sans-Serif" font-size="10.00" fill="#000000"> </text>
<polyline fill="none" stroke="#bfbfbf" points="102.5,-438.5 203.5,-438.5 "/>
<text text-anchor="middle" x="153" y="-426.5" font-family="Helvetica,sans-Serif" font-size="10.00" fill="#000000"> </text>
</a>
</g>
</g>
<!-- Node9&#45;&gt;Node6 -->
<g id="edge4" class="edge">
<title>Node9&#45;&gt;Node6</title>
<path fill="none" stroke="#ffa500" d="M136.951,-409.7657C130.3516,-394.0436 122.7685,-375.9779 116.3559,-360.7007"/>
<polygon fill="#ffa500" stroke="#ffa500" points="133.816,-411.3402 140.9137,-419.2062 140.2705,-408.6309 133.816,-411.3402"/>
<text text-anchor="start" x="133" y="-393" font-family="Helvetica,sans-Serif" font-size="10.00" fill="#000000"> &lt; std::string, std</text>
<text text-anchor="middle" x="175.5" y="-382" font-family="Helvetica,sans-Serif" font-size="10.00" fill="#000000">::size_t &gt;</text>
</g>
<!-- Node10 -->
<g id="node6" class="node">
<title>Node10</title>
<polygon fill="none" stroke="#bfbfbf" points="130.5,-530 130.5,-587 159.5,-587 159.5,-530 130.5,-530"/>
<text text-anchor="middle" x="145" y="-575" font-family="Helvetica,sans-Serif" font-size="10.00" fill="#000000">K</text>
<polyline fill="none" stroke="#bfbfbf" points="130.5,-568 159.5,-568 "/>
<text text-anchor="middle" x="145" y="-556" font-family="Helvetica,sans-Serif" font-size="10.00" fill="#000000"> </text>
<polyline fill="none" stroke="#bfbfbf" points="130.5,-549 159.5,-549 "/>
<text text-anchor="middle" x="145" y="-537" font-family="Helvetica,sans-Serif" font-size="10.00" fill="#000000"> </text>
</g>
<!-- Node10&#45;&gt;Node9 -->
<g id="edge5" class="edge">
<title>Node10&#45;&gt;Node9</title>
<path fill="none" stroke="#404040" d="M144.6503,-529.6952C144.729,-518.8085 145.0721,-506.3185 146,-495 146.1668,-492.965 146.3668,-490.8842 146.592,-488.7855"/>
<polygon fill="none" stroke="#404040" points="146.6065,-488.6697 143.3853,-482.218 148.1018,-476.7632 151.323,-483.2149 146.6065,-488.6697"/>
<text text-anchor="middle" x="163.5" y="-498" font-family="Helvetica,sans-Serif" font-size="10.00" fill="#000000"> +keys</text>
</g>
<!-- Node11 -->
<g id="node7" class="node">
<title>Node11</title>
<polygon fill="none" stroke="#bfbfbf" points="188.5,-530 188.5,-587 217.5,-587 217.5,-530 188.5,-530"/>
<text text-anchor="middle" x="203" y="-575" font-family="Helvetica,sans-Serif" font-size="10.00" fill="#000000">T</text>
<polyline fill="none" stroke="#bfbfbf" points="188.5,-568 217.5,-568 "/>
<text text-anchor="middle" x="203" y="-556" font-family="Helvetica,sans-Serif" font-size="10.00" fill="#000000"> </text>
<polyline fill="none" stroke="#bfbfbf" points="188.5,-549 217.5,-549 "/>
<text text-anchor="middle" x="203" y="-537" font-family="Helvetica,sans-Serif" font-size="10.00" fill="#000000"> </text>
</g>
<!-- Node11&#45;&gt;Node9 -->
<g id="edge6" class="edge">
<title>Node11&#45;&gt;Node9</title>
<path fill="none" stroke="#404040" d="M194.4601,-529.878C190.7964,-518.786 186.167,-506.1076 181,-495 179.8001,-492.4205 178.4976,-489.8012 177.1331,-487.1867"/>
<polygon fill="none" stroke="#404040" points="177.0773,-487.0856 170.6755,-483.7662 171.2773,-476.5803 177.6791,-479.8996 177.0773,-487.0856"/>
<text text-anchor="middle" x="215" y="-498" font-family="Helvetica,sans-Serif" font-size="10.00" fill="#000000"> +elements</text>
</g>
</g>
</svg>
        <g id="navigator" transform="translate(0 0)" fill="#404254">
                <rect fill="#f2f5e9" fill-opacity="0.5" stroke="#606060" stroke-width=".5" x="0" y="0" width="60" height="60"/>
                <use id="zoomplus" xlink:href="#zoomPlus" x="17" y="9" onmousedown="handleZoom(evt,'in')"/>
                <use id="zoomminus" xlink:href="#zoomMin" x="42" y="9" onmousedown="handleZoom(evt,'out')"/>
                <use id="reset" xlink:href="#resetDef" x="30" y="36" onmousedown="handleReset()"/>
                <g id="arrowUp" xlink:href="#dirArrow" transform="translate(30 24)" onmousedown="handlePan(0,-1)">
                  <use xlink:href="#rim" fill="#404040">
                        <set attributeName="fill" to="#808080" begin="arrowUp.mouseover" end="arrowUp.mouseout"/>
                  </use>
                  <path fill="none" stroke="white" stroke-width="1.5" d="M0,-3.0v7 M-2.5,-0.5L0,-3.0L2.5,-0.5"/>
                </g>
                <g id="arrowRight" xlink:href="#dirArrow" transform="rotate(90) translate(36 -43)" onmousedown="handlePan(1,0)">
                  <use xlink:href="#rim" fill="#404040">
                        <set attributeName="fill" to="#808080" begin="arrowRight.mouseover" end="arrowRight.mouseout"/>
                  </use>
                  <path fill="none" stroke="white" stroke-width="1.5" d="M0,-3.0v7 M-2.5,-0.5L0,-3.0L2.5,-0.5"/>
                </g>
                <g id="arrowDown" xlink:href="#dirArrow" transform="rotate(180) translate(-30 -48)" onmousedown="handlePan(0,1)">
                  <use xlink:href="#rim" fill="#404040">
                        <set attributeName="fill" to="#808080" begin="arrowDown.mouseover" end="arrowDown.mouseout"/>
                  </use>
                  <path fill="none" stroke="white" stroke-width="1.5" d="M0,-3.0v7 M-2.5,-0.5L0,-3.0L2.5,-0.5"/>
                </g>
                <g id="arrowLeft" xlink:href="#dirArrow" transform="rotate(270) translate(-36 17)" onmousedown="handlePan(-1,0)">
                  <use xlink:href="#rim" fill="#404040">
                        <set attributeName="fill" to="#808080" begin="arrowLeft.mouseover" end="arrowLeft.mouseout"/>
                  </use>
                  <path fill="none" stroke="white" stroke-width="1.5" d="M0,-3.0v7 M-2.5,-0.5L0,-3.0L2.5,-0.5"/>
                </g>
        </g>
        <svg viewBox="0 0 15 15" width="100%" height="30px" preserveAspectRatio="xMaxYMin meet">
         <g id="arrow_out" transform="scale(0.3 0.3)">
          <a xlink:href="classanch_1_1sql_1_1_result_set__coll__graph_org.svg" target="_base">
           <rect id="button" ry="5" rx="5" y="6" x="6" height="38" width="38"
                fill="#f2f5e9" fill-opacity="0.5" stroke="#606060" stroke-width="1.0"/>
           <path id="arrow"
             d="M 11.500037,31.436501 C 11.940474,20.09759 22.043105,11.32322 32.158766,21.979434 L 37.068811,17.246167 C 37.068811,17.246167 37.088388,32 37.088388,32 L 22.160133,31.978069 C 22.160133,31.978069 26.997745,27.140456 26.997745,27.140456 C 18.528582,18.264221 13.291696,25.230495 11.500037,31.436501 z"
             style="fill:#404040;"/>
          </a>
         </g>
        </svg>
</svg>
