<?xml version="1.0" encoding="UTF-8" standalone="no"?>
<!DOCTYPE svg PUBLIC "-//W3C//DTD SVG 1.1//EN"
 "http://www.w3.org/Graphics/SVG/1.1/DTD/svg11.dtd">
<!-- Generated by graphviz version 12.1.2 (0)
 -->
<!-- Title: anch::cutils::COStream Pages: 1 -->
<svg width="120pt" height="472pt"
 viewBox="0.00 0.00 120.00 472.00" xmlns="http://www.w3.org/2000/svg" xmlns:xlink="http://www.w3.org/1999/xlink">
<g id="graph0" class="graph" transform="scale(1 1) rotate(0) translate(4 468)">
<title>anch::cutils::COStream</title>
<!-- Node1 -->
<g id="Node000001" class="node">
<title>Node1</title>
<g id="a_Node000001"><a xlink:title=" ">
<polygon fill="#999999" stroke="none" points="112,-100 0,-100 0,0 112,0 112,-100"/>
<text text-anchor="start" x="4.62" y="-86.5" font-family="Helvetica,sans-Serif" font-size="10.00">anch::cutils::COStream</text>
<text text-anchor="start" x="54.5" y="-70.5" font-family="Helvetica,sans-Serif" font-size="10.00"> </text>
<text text-anchor="start" x="13" y="-54.5" font-family="Helvetica,sans-Serif" font-size="10.00">+</text>
<text text-anchor="start" x="32" y="-54.5" font-family="Helvetica,sans-Serif" font-size="10.00">COStream()</text>
<text text-anchor="start" x="13" y="-38.5" font-family="Helvetica,sans-Serif" font-size="10.00">+</text>
<text text-anchor="start" x="32" y="-38.5" font-family="Helvetica,sans-Serif" font-size="10.00">~COStream()</text>
<text text-anchor="start" x="13.38" y="-22.5" font-family="Helvetica,sans-Serif" font-size="10.00">#</text>
<text text-anchor="start" x="32" y="-22.5" font-family="Helvetica,sans-Serif" font-size="10.00">COStream()</text>
<text text-anchor="start" x="13.38" y="-6.5" font-family="Helvetica,sans-Serif" font-size="10.00">#</text>
<text text-anchor="start" x="32" y="-6.5" font-family="Helvetica,sans-Serif" font-size="10.00">setBuffer()</text>
<polygon fill="#666666" stroke="#666666" points="0,-82 0,-82 112,-82 112,-82 0,-82"/>
<polygon fill="#666666" stroke="#666666" points="0,-66 0,-66 112,-66 112,-66 0,-66"/>
<polygon fill="none" stroke="#666666" points="0,0 0,-100 112,-100 112,0 0,0"/>
</a>
</g>
</g>
<!-- Node2 -->
<g id="Node000002" class="node">
<title>Node2</title>
<g id="a_Node000002"><a xlink:title=" ">
<polygon fill="white" stroke="none" points="88,-188 24,-188 24,-136 88,-136 88,-188"/>
<text text-anchor="start" x="28.62" y="-174.5" font-family="Helvetica,sans-Serif" font-size="10.00">std::ostream</text>
<text text-anchor="start" x="54.5" y="-158.5" font-family="Helvetica,sans-Serif" font-size="10.00"> </text>
<text text-anchor="start" x="54.5" y="-142.5" font-family="Helvetica,sans-Serif" font-size="10.00"> </text>
<polygon fill="#666666" stroke="#666666" points="24,-170 24,-170 88,-170 88,-170 24,-170"/>
<polygon fill="#666666" stroke="#666666" points="24,-154 24,-154 88,-154 88,-154 24,-154"/>
<polygon fill="none" stroke="#666666" points="24,-136 24,-188 88,-188 88,-136 24,-136"/>
</a>
</g>
</g>
<!-- Node2&#45;&gt;Node1 -->
<g id="edge1_Node000001_Node000002" class="edge">
<title>Node2&#45;&gt;Node1</title>
<g id="a_edge1_Node000001_Node000002"><a xlink:title=" ">
<path fill="none" stroke="#63b8ff" d="M56,-124.53C56,-116.58 56,-108.05 56,-99.72"/>
<polygon fill="none" stroke="#63b8ff" points="52.5,-124.53 56,-134.53 59.5,-124.53 52.5,-124.53"/>
</a>
</g>
</g>
<!-- Node3 -->
<g id="Node000003" class="node">
<title>Node3</title>
<g id="a_Node000003"><a xlink:title=" ">
<polygon fill="white" stroke="none" points="102.5,-288 9.5,-288 9.5,-224 102.5,-224 102.5,-288"/>
<text text-anchor="start" x="14.38" y="-274.5" font-family="Helvetica,sans-Serif" font-size="10.00">std::basic_ostream</text>
<text text-anchor="start" x="36.5" y="-262.5" font-family="Helvetica,sans-Serif" font-size="10.00">&lt; Char &gt;</text>
<text text-anchor="start" x="54.5" y="-246.5" font-family="Helvetica,sans-Serif" font-size="10.00"> </text>
<text text-anchor="start" x="54.5" y="-230.5" font-family="Helvetica,sans-Serif" font-size="10.00"> </text>
<polygon fill="#666666" stroke="#666666" points="9.5,-258 9.5,-258 102.5,-258 102.5,-258 9.5,-258"/>
<polygon fill="#666666" stroke="#666666" points="9.5,-242 9.5,-242 102.5,-242 102.5,-242 9.5,-242"/>
<polygon fill="none" stroke="#666666" points="9.5,-224 9.5,-288 102.5,-288 102.5,-224 9.5,-224"/>
</a>
</g>
</g>
<!-- Node3&#45;&gt;Node2 -->
<g id="edge2_Node000002_Node000003" class="edge">
<title>Node3&#45;&gt;Node2</title>
<g id="a_edge2_Node000002_Node000003"><a xlink:title=" ">
<path fill="none" stroke="#63b8ff" d="M56,-212.72C56,-204.21 56,-195.53 56,-187.86"/>
<polygon fill="none" stroke="#63b8ff" points="52.5,-212.6 56,-222.6 59.5,-212.6 52.5,-212.6"/>
</a>
</g>
</g>
<!-- Node4 -->
<g id="Node000004" class="node">
<title>Node4</title>
<g id="a_Node000004"><a xlink:title=" ">
<polygon fill="white" stroke="none" points="110.5,-376 1.5,-376 1.5,-324 110.5,-324 110.5,-376"/>
<text text-anchor="start" x="6.12" y="-362.5" font-family="Helvetica,sans-Serif" font-size="10.00">std::basic_ios&lt; Char &gt;</text>
<text text-anchor="start" x="54.5" y="-346.5" font-family="Helvetica,sans-Serif" font-size="10.00"> </text>
<text text-anchor="start" x="54.5" y="-330.5" font-family="Helvetica,sans-Serif" font-size="10.00"> </text>
<polygon fill="#666666" stroke="#666666" points="1.5,-358 1.5,-358 110.5,-358 110.5,-358 1.5,-358"/>
<polygon fill="#666666" stroke="#666666" points="1.5,-342 1.5,-342 110.5,-342 110.5,-342 1.5,-342"/>
<polygon fill="none" stroke="#666666" points="1.5,-324 1.5,-376 110.5,-376 110.5,-324 1.5,-324"/>
</a>
</g>
</g>
<!-- Node4&#45;&gt;Node3 -->
<g id="edge3_Node000003_Node000004" class="edge">
<title>Node4&#45;&gt;Node3</title>
<g id="a_edge3_Node000003_Node000004"><a xlink:title=" ">
<path fill="none" stroke="#63b8ff" d="M56,-313.06C56,-304.78 56,-296.04 56,-287.98"/>
<polygon fill="none" stroke="#63b8ff" points="52.5,-312.83 56,-322.83 59.5,-312.83 52.5,-312.83"/>
</a>
</g>
</g>
<!-- Node5 -->
<g id="Node000005" class="node">
<title>Node5</title>
<g id="a_Node000005"><a xlink:title=" ">
<polygon fill="white" stroke="none" points="90,-464 22,-464 22,-412 90,-412 90,-464"/>
<text text-anchor="start" x="26.75" y="-450.5" font-family="Helvetica,sans-Serif" font-size="10.00">std::ios_base</text>
<text text-anchor="start" x="54.5" y="-434.5" font-family="Helvetica,sans-Serif" font-size="10.00"> </text>
<text text-anchor="start" x="54.5" y="-418.5" font-family="Helvetica,sans-Serif" font-size="10.00"> </text>
<polygon fill="#666666" stroke="#666666" points="22,-446 22,-446 90,-446 90,-446 22,-446"/>
<polygon fill="#666666" stroke="#666666" points="22,-430 22,-430 90,-430 90,-430 22,-430"/>
<polygon fill="none" stroke="#666666" points="22,-412 22,-464 90,-464 90,-412 22,-412"/>
</a>
</g>
</g>
<!-- Node5&#45;&gt;Node4 -->
<g id="edge4_Node000004_Node000005" class="edge">
<title>Node5&#45;&gt;Node4</title>
<g id="a_edge4_Node000004_Node000005"><a xlink:title=" ">
<path fill="none" stroke="#63b8ff" d="M56,-400.66C56,-392.29 56,-383.57 56,-375.82"/>
<polygon fill="none" stroke="#63b8ff" points="52.5,-400.61 56,-410.61 59.5,-400.61 52.5,-400.61"/>
</a>
</g>
</g>
</g>
</svg>
