<?xml version="1.0" encoding="UTF-8" standalone="no"?>
<!DOCTYPE svg PUBLIC "-//W3C//DTD SVG 1.1//EN"
 "http://www.w3.org/Graphics/SVG/1.1/DTD/svg11.dtd">
<!-- Generated by graphviz version 8.0.3 (0)
 -->
<!-- Title: anch::logger::formatter::IFormatter Pages: 1 -->
<svg width="1190pt" height="237pt"
 viewBox="0.00 0.00 1189.50 237.00" xmlns="http://www.w3.org/2000/svg" xmlns:xlink="http://www.w3.org/1999/xlink">
<g id="graph0" class="graph" transform="scale(1 1) rotate(0) translate(4 233)">
<title>anch::logger::formatter::IFormatter</title>
<!-- Node1 -->
<g id="node1" class="node">
<title>Node1</title>
<g id="a_node1"><a xlink:title=" ">
<polygon fill="#999999" stroke="#666666" points="532,-138.5 532,-228.5 661,-228.5 661,-138.5 532,-138.5"/>
<text text-anchor="start" x="540" y="-216.5" font-family="Helvetica,sans-Serif" font-size="10.00">anch::logger::formatter</text>
<text text-anchor="middle" x="596.5" y="-205.5" font-family="Helvetica,sans-Serif" font-size="10.00">::IFormatter</text>
<polyline fill="none" stroke="#666666" points="532,-198.5 661,-198.5"/>
<text text-anchor="middle" x="596.5" y="-186.5" font-family="Helvetica,sans-Serif" font-size="10.00"> </text>
<polyline fill="none" stroke="#666666" points="532,-179.5 661,-179.5"/>
<text text-anchor="start" x="540" y="-167.5" font-family="Helvetica,sans-Serif" font-size="10.00">+ ~IFormatter()</text>
<text text-anchor="start" x="540" y="-156.5" font-family="Helvetica,sans-Serif" font-size="10.00">+ getType()</text>
<text text-anchor="start" x="540" y="-145.5" font-family="Helvetica,sans-Serif" font-size="10.00">+ formatValue()</text>
</a>
</g>
</g>
<!-- Node2 -->
<g id="node2" class="node">
<title>Node2</title>
<g id="a_node2"><a xlink:href="classanch_1_1logger_1_1formatter_1_1_anch_date_formatter.html" target="_top" xlink:title=" ">
<polygon fill="white" stroke="#666666" points="0,-0.5 0,-101.5 139,-101.5 139,-0.5 0,-0.5"/>
<text text-anchor="start" x="8" y="-89.5" font-family="Helvetica,sans-Serif" font-size="10.00">anch::logger::formatter</text>
<text text-anchor="middle" x="69.5" y="-78.5" font-family="Helvetica,sans-Serif" font-size="10.00">::AnchDateFormatter</text>
<polyline fill="none" stroke="#666666" points="0,-71.5 139,-71.5"/>
<text text-anchor="middle" x="69.5" y="-59.5" font-family="Helvetica,sans-Serif" font-size="10.00"> </text>
<polyline fill="none" stroke="#666666" points="0,-52.5 139,-52.5"/>
<text text-anchor="start" x="8" y="-40.5" font-family="Helvetica,sans-Serif" font-size="10.00">+ AnchDateFormatter()</text>
<text text-anchor="start" x="8" y="-29.5" font-family="Helvetica,sans-Serif" font-size="10.00">+ ~AnchDateFormatter()</text>
<text text-anchor="start" x="8" y="-18.5" font-family="Helvetica,sans-Serif" font-size="10.00">+ formatValue()</text>
<text text-anchor="start" x="8" y="-7.5" font-family="Helvetica,sans-Serif" font-size="10.00">+ getType()</text>
</a>
</g>
</g>
<!-- Node1&#45;&gt;Node2 -->
<g id="edge1" class="edge">
<title>Node1&#45;&gt;Node2</title>
<path fill="none" stroke="#63b8ff" d="M521.32,-177.85C430.33,-170.24 273.76,-150.73 148.5,-102 145.32,-100.76 142.14,-99.39 138.96,-97.92"/>
<polygon fill="none" stroke="#63b8ff" points="520.83,-181.4 531.08,-178.72 521.4,-174.43 520.83,-181.4"/>
</g>
<!-- Node3 -->
<g id="node3" class="node">
<title>Node3</title>
<g id="a_node3"><a xlink:href="classanch_1_1logger_1_1formatter_1_1_category_formatter.html" target="_top" xlink:title=" ">
<polygon fill="white" stroke="#666666" points="157.5,-0.5 157.5,-101.5 293.5,-101.5 293.5,-0.5 157.5,-0.5"/>
<text text-anchor="start" x="165.5" y="-89.5" font-family="Helvetica,sans-Serif" font-size="10.00">anch::logger::formatter</text>
<text text-anchor="middle" x="225.5" y="-78.5" font-family="Helvetica,sans-Serif" font-size="10.00">::CategoryFormatter</text>
<polyline fill="none" stroke="#666666" points="157.5,-71.5 293.5,-71.5"/>
<text text-anchor="middle" x="225.5" y="-59.5" font-family="Helvetica,sans-Serif" font-size="10.00"> </text>
<polyline fill="none" stroke="#666666" points="157.5,-52.5 293.5,-52.5"/>
<text text-anchor="start" x="165.5" y="-40.5" font-family="Helvetica,sans-Serif" font-size="10.00">+ CategoryFormatter()</text>
<text text-anchor="start" x="165.5" y="-29.5" font-family="Helvetica,sans-Serif" font-size="10.00">+ ~CategoryFormatter()</text>
<text text-anchor="start" x="165.5" y="-18.5" font-family="Helvetica,sans-Serif" font-size="10.00">+ formatValue()</text>
<text text-anchor="start" x="165.5" y="-7.5" font-family="Helvetica,sans-Serif" font-size="10.00">+ getType()</text>
</a>
</g>
</g>
<!-- Node1&#45;&gt;Node3 -->
<g id="edge2" class="edge">
<title>Node1&#45;&gt;Node3</title>
<path fill="none" stroke="#63b8ff" d="M521.38,-168.63C460.63,-155.84 373.79,-133.97 302.5,-102 299.45,-100.63 296.37,-99.15 293.31,-97.58"/>
<polygon fill="none" stroke="#63b8ff" points="520.53,-172.23 531.03,-170.83 521.95,-165.38 520.53,-172.23"/>
</g>
<!-- Node4 -->
<g id="node4" class="node">
<title>Node4</title>
<g id="a_node4"><a xlink:href="classanch_1_1logger_1_1formatter_1_1_const_formatter.html" target="_top" xlink:title=" ">
<polygon fill="white" stroke="#666666" points="312,-0.5 312,-101.5 441,-101.5 441,-0.5 312,-0.5"/>
<text text-anchor="start" x="320" y="-89.5" font-family="Helvetica,sans-Serif" font-size="10.00">anch::logger::formatter</text>
<text text-anchor="middle" x="376.5" y="-78.5" font-family="Helvetica,sans-Serif" font-size="10.00">::ConstFormatter</text>
<polyline fill="none" stroke="#666666" points="312,-71.5 441,-71.5"/>
<text text-anchor="middle" x="376.5" y="-59.5" font-family="Helvetica,sans-Serif" font-size="10.00"> </text>
<polyline fill="none" stroke="#666666" points="312,-52.5 441,-52.5"/>
<text text-anchor="start" x="320" y="-40.5" font-family="Helvetica,sans-Serif" font-size="10.00">+ ConstFormatter()</text>
<text text-anchor="start" x="320" y="-29.5" font-family="Helvetica,sans-Serif" font-size="10.00">+ ~ConstFormatter()</text>
<text text-anchor="start" x="320" y="-18.5" font-family="Helvetica,sans-Serif" font-size="10.00">+ formatValue()</text>
<text text-anchor="start" x="320" y="-7.5" font-family="Helvetica,sans-Serif" font-size="10.00">+ getType()</text>
</a>
</g>
</g>
<!-- Node1&#45;&gt;Node4 -->
<g id="edge3" class="edge">
<title>Node1&#45;&gt;Node4</title>
<path fill="none" stroke="#63b8ff" d="M522.44,-143.8C498.84,-130.98 472.82,-116.32 449.5,-102 446.62,-100.23 443.7,-98.4 440.76,-96.52"/>
<polygon fill="none" stroke="#63b8ff" points="520.57,-147.32 531.04,-148.99 523.9,-141.16 520.57,-147.32"/>
</g>
<!-- Node5 -->
<g id="node5" class="node">
<title>Node5</title>
<g id="a_node5"><a xlink:href="classanch_1_1logger_1_1formatter_1_1_date_formatter.html" target="_top" xlink:title=" ">
<polygon fill="white" stroke="#666666" points="459,-0.5 459,-101.5 588,-101.5 588,-0.5 459,-0.5"/>
<text text-anchor="start" x="467" y="-89.5" font-family="Helvetica,sans-Serif" font-size="10.00">anch::logger::formatter</text>
<text text-anchor="middle" x="523.5" y="-78.5" font-family="Helvetica,sans-Serif" font-size="10.00">::DateFormatter</text>
<polyline fill="none" stroke="#666666" points="459,-71.5 588,-71.5"/>
<text text-anchor="middle" x="523.5" y="-59.5" font-family="Helvetica,sans-Serif" font-size="10.00"> </text>
<polyline fill="none" stroke="#666666" points="459,-52.5 588,-52.5"/>
<text text-anchor="start" x="467" y="-40.5" font-family="Helvetica,sans-Serif" font-size="10.00">+ DateFormatter()</text>
<text text-anchor="start" x="467" y="-29.5" font-family="Helvetica,sans-Serif" font-size="10.00">+ ~DateFormatter()</text>
<text text-anchor="start" x="467" y="-18.5" font-family="Helvetica,sans-Serif" font-size="10.00">+ formatValue()</text>
<text text-anchor="start" x="467" y="-7.5" font-family="Helvetica,sans-Serif" font-size="10.00">+ getType()</text>
</a>
</g>
</g>
<!-- Node1&#45;&gt;Node5 -->
<g id="edge4" class="edge">
<title>Node1&#45;&gt;Node5</title>
<path fill="none" stroke="#63b8ff" d="M566.7,-129.22C561.54,-119.99 556.19,-110.44 551.09,-101.32"/>
<polygon fill="none" stroke="#63b8ff" points="564.05,-130.66 571.99,-137.68 570.16,-127.25 564.05,-130.66"/>
</g>
<!-- Node6 -->
<g id="node6" class="node">
<title>Node6</title>
<g id="a_node6"><a xlink:href="classanch_1_1logger_1_1formatter_1_1_level_formatter.html" target="_top" xlink:title=" ">
<polygon fill="white" stroke="#666666" points="606,-0.5 606,-101.5 735,-101.5 735,-0.5 606,-0.5"/>
<text text-anchor="start" x="614" y="-89.5" font-family="Helvetica,sans-Serif" font-size="10.00">anch::logger::formatter</text>
<text text-anchor="middle" x="670.5" y="-78.5" font-family="Helvetica,sans-Serif" font-size="10.00">::LevelFormatter</text>
<polyline fill="none" stroke="#666666" points="606,-71.5 735,-71.5"/>
<text text-anchor="middle" x="670.5" y="-59.5" font-family="Helvetica,sans-Serif" font-size="10.00"> </text>
<polyline fill="none" stroke="#666666" points="606,-52.5 735,-52.5"/>
<text text-anchor="start" x="614" y="-40.5" font-family="Helvetica,sans-Serif" font-size="10.00">+ LevelFormatter()</text>
<text text-anchor="start" x="614" y="-29.5" font-family="Helvetica,sans-Serif" font-size="10.00">+ ~LevelFormatter()</text>
<text text-anchor="start" x="614" y="-18.5" font-family="Helvetica,sans-Serif" font-size="10.00">+ formatValue()</text>
<text text-anchor="start" x="614" y="-7.5" font-family="Helvetica,sans-Serif" font-size="10.00">+ getType()</text>
</a>
</g>
</g>
<!-- Node1&#45;&gt;Node6 -->
<g id="edge5" class="edge">
<title>Node1&#45;&gt;Node6</title>
<path fill="none" stroke="#63b8ff" d="M626.71,-129.22C631.94,-119.99 637.36,-110.44 642.53,-101.32"/>
<polygon fill="none" stroke="#63b8ff" points="623.23,-127.26 621.35,-137.68 629.32,-130.71 623.23,-127.26"/>
</g>
<!-- Node7 -->
<g id="node7" class="node">
<title>Node7</title>
<g id="a_node7"><a xlink:href="classanch_1_1logger_1_1formatter_1_1_m_d_c_formatter.html" target="_top" xlink:title=" ">
<polygon fill="white" stroke="#666666" points="753,-0.5 753,-101.5 882,-101.5 882,-0.5 753,-0.5"/>
<text text-anchor="start" x="761" y="-89.5" font-family="Helvetica,sans-Serif" font-size="10.00">anch::logger::formatter</text>
<text text-anchor="middle" x="817.5" y="-78.5" font-family="Helvetica,sans-Serif" font-size="10.00">::MDCFormatter</text>
<polyline fill="none" stroke="#666666" points="753,-71.5 882,-71.5"/>
<text text-anchor="middle" x="817.5" y="-59.5" font-family="Helvetica,sans-Serif" font-size="10.00"> </text>
<polyline fill="none" stroke="#666666" points="753,-52.5 882,-52.5"/>
<text text-anchor="start" x="761" y="-40.5" font-family="Helvetica,sans-Serif" font-size="10.00">+ MDCFormatter()</text>
<text text-anchor="start" x="761" y="-29.5" font-family="Helvetica,sans-Serif" font-size="10.00">+ ~MDCFormatter()</text>
<text text-anchor="start" x="761" y="-18.5" font-family="Helvetica,sans-Serif" font-size="10.00">+ formatValue()</text>
<text text-anchor="start" x="761" y="-7.5" font-family="Helvetica,sans-Serif" font-size="10.00">+ getType()</text>
</a>
</g>
</g>
<!-- Node1&#45;&gt;Node7 -->
<g id="edge6" class="edge">
<title>Node1&#45;&gt;Node7</title>
<path fill="none" stroke="#63b8ff" d="M670.1,-144.38C694.12,-131.44 720.72,-116.56 744.5,-102 747.38,-100.24 750.31,-98.4 753.25,-96.53"/>
<polygon fill="none" stroke="#63b8ff" points="668.85,-141.62 661.69,-149.43 672.16,-147.79 668.85,-141.62"/>
</g>
<!-- Node8 -->
<g id="node8" class="node">
<title>Node8</title>
<g id="a_node8"><a xlink:href="classanch_1_1logger_1_1formatter_1_1_string_formatter.html" target="_top" xlink:title=" ">
<polygon fill="white" stroke="#666666" points="900,-0.5 900,-101.5 1029,-101.5 1029,-0.5 900,-0.5"/>
<text text-anchor="start" x="908" y="-89.5" font-family="Helvetica,sans-Serif" font-size="10.00">anch::logger::formatter</text>
<text text-anchor="middle" x="964.5" y="-78.5" font-family="Helvetica,sans-Serif" font-size="10.00">::StringFormatter</text>
<polyline fill="none" stroke="#666666" points="900,-71.5 1029,-71.5"/>
<text text-anchor="middle" x="964.5" y="-59.5" font-family="Helvetica,sans-Serif" font-size="10.00"> </text>
<polyline fill="none" stroke="#666666" points="900,-52.5 1029,-52.5"/>
<text text-anchor="start" x="908" y="-40.5" font-family="Helvetica,sans-Serif" font-size="10.00">+ StringFormatter()</text>
<text text-anchor="start" x="908" y="-29.5" font-family="Helvetica,sans-Serif" font-size="10.00">+ ~StringFormatter()</text>
<text text-anchor="start" x="908" y="-18.5" font-family="Helvetica,sans-Serif" font-size="10.00">+ formatValue()</text>
<text text-anchor="start" x="908" y="-7.5" font-family="Helvetica,sans-Serif" font-size="10.00">+ getType()</text>
</a>
</g>
</g>
<!-- Node1&#45;&gt;Node8 -->
<g id="edge7" class="edge">
<title>Node1&#45;&gt;Node8</title>
<path fill="none" stroke="#63b8ff" d="M671.51,-169.25C732.61,-156.78 820.14,-135.03 891.5,-102 894.43,-100.65 897.37,-99.18 900.29,-97.62"/>
<polygon fill="none" stroke="#63b8ff" points="670.91,-166 661.79,-171.4 672.29,-172.87 670.91,-166"/>
</g>
<!-- Node9 -->
<g id="node9" class="node">
<title>Node9</title>
<g id="a_node9"><a xlink:href="classanch_1_1logger_1_1formatter_1_1_thread_id_formatter.html" target="_top" xlink:title=" ">
<polygon fill="white" stroke="#666666" points="1047.5,-0.5 1047.5,-101.5 1181.5,-101.5 1181.5,-0.5 1047.5,-0.5"/>
<text text-anchor="start" x="1055.5" y="-89.5" font-family="Helvetica,sans-Serif" font-size="10.00">anch::logger::formatter</text>
<text text-anchor="middle" x="1114.5" y="-78.5" font-family="Helvetica,sans-Serif" font-size="10.00">::ThreadIdFormatter</text>
<polyline fill="none" stroke="#666666" points="1047.5,-71.5 1181.5,-71.5"/>
<text text-anchor="middle" x="1114.5" y="-59.5" font-family="Helvetica,sans-Serif" font-size="10.00"> </text>
<polyline fill="none" stroke="#666666" points="1047.5,-52.5 1181.5,-52.5"/>
<text text-anchor="start" x="1055.5" y="-40.5" font-family="Helvetica,sans-Serif" font-size="10.00">+ ThreadIdFormatter()</text>
<text text-anchor="start" x="1055.5" y="-29.5" font-family="Helvetica,sans-Serif" font-size="10.00">+ ~ThreadIdFormatter()</text>
<text text-anchor="start" x="1055.5" y="-18.5" font-family="Helvetica,sans-Serif" font-size="10.00">+ formatValue()</text>
<text text-anchor="start" x="1055.5" y="-7.5" font-family="Helvetica,sans-Serif" font-size="10.00">+ getType()</text>
</a>
</g>
</g>
<!-- Node1&#45;&gt;Node9 -->
<g id="edge8" class="edge">
<title>Node1&#45;&gt;Node9</title>
<path fill="none" stroke="#63b8ff" d="M671.86,-177.97C761.92,-170.5 915.82,-151.15 1038.5,-102 1041.58,-100.77 1044.66,-99.4 1047.73,-97.93"/>
<polygon fill="none" stroke="#63b8ff" points="671.62,-174.56 661.93,-178.84 672.18,-181.53 671.62,-174.56"/>
</g>
</g>
</svg>
