<?xml version="1.0" encoding="UTF-8" standalone="no"?>
<!DOCTYPE svg PUBLIC "-//W3C//DTD SVG 1.1//EN"
 "http://www.w3.org/Graphics/SVG/1.1/DTD/svg11.dtd">
<!-- Generated by graphviz version 8.0.1 (0)
 -->
<!-- Title: anch::crypto::MD5 Pages: 1 -->
<svg width="231pt" height="878pt"
 viewBox="0.00 0.00 231.00 878.00" xmlns="http://www.w3.org/2000/svg" xmlns:xlink="http://www.w3.org/1999/xlink">
<g id="graph0" class="graph" transform="scale(1 1) rotate(0) translate(4 874)">
<title>anch::crypto::MD5</title>
<!-- Node1 -->
<g id="node1" class="node">
<title>Node1</title>
<g id="a_node1"><a xlink:title="MD5 hash algorithm implementation.">
<polygon fill="#999999" stroke="#666666" points="14,-0.5 14,-134.5 119,-134.5 119,-0.5 14,-0.5"/>
<text text-anchor="middle" x="66.5" y="-122.5" font-family="Helvetica,sans-Serif" font-size="10.00">anch::crypto::MD5</text>
<polyline fill="none" stroke="#666666" points="14,-115.5 119,-115.5"/>
<text text-anchor="middle" x="66.5" y="-103.5" font-family="Helvetica,sans-Serif" font-size="10.00"> </text>
<polyline fill="none" stroke="#666666" points="14,-96.5 119,-96.5"/>
<text text-anchor="start" x="22" y="-84.5" font-family="Helvetica,sans-Serif" font-size="10.00">+ MD5()</text>
<text text-anchor="start" x="22" y="-73.5" font-family="Helvetica,sans-Serif" font-size="10.00">+ MD5()</text>
<text text-anchor="start" x="22" y="-62.5" font-family="Helvetica,sans-Serif" font-size="10.00">+ MD5()</text>
<text text-anchor="start" x="22" y="-51.5" font-family="Helvetica,sans-Serif" font-size="10.00">+ ~MD5()</text>
<text text-anchor="start" x="22" y="-40.5" font-family="Helvetica,sans-Serif" font-size="10.00">+ digest()</text>
<text text-anchor="start" x="22" y="-29.5" font-family="Helvetica,sans-Serif" font-size="10.00"># reset()</text>
<text text-anchor="start" x="22" y="-18.5" font-family="Helvetica,sans-Serif" font-size="10.00"># addData()</text>
<text text-anchor="start" x="22" y="-7.5" font-family="Helvetica,sans-Serif" font-size="10.00"># finalize()</text>
</a>
</g>
</g>
<!-- Node2 -->
<g id="node2" class="node">
<title>Node2</title>
<g id="a_node2"><a xlink:href="classanch_1_1crypto_1_1_hash.html" target="_top" xlink:title=" ">
<polygon fill="white" stroke="#666666" points="13,-172.5 13,-339.5 120,-339.5 120,-172.5 13,-172.5"/>
<text text-anchor="start" x="21" y="-327.5" font-family="Helvetica,sans-Serif" font-size="10.00">anch::crypto::Hash</text>
<text text-anchor="middle" x="66.5" y="-316.5" font-family="Helvetica,sans-Serif" font-size="10.00">&lt; 16, 64 &gt;</text>
<polyline fill="none" stroke="#666666" points="13,-309.5 120,-309.5"/>
<text text-anchor="middle" x="66.5" y="-297.5" font-family="Helvetica,sans-Serif" font-size="10.00"> </text>
<polyline fill="none" stroke="#666666" points="13,-290.5 120,-290.5"/>
<text text-anchor="start" x="21" y="-278.5" font-family="Helvetica,sans-Serif" font-size="10.00">+ digest()</text>
<text text-anchor="start" x="21" y="-267.5" font-family="Helvetica,sans-Serif" font-size="10.00">+ digest()</text>
<text text-anchor="start" x="21" y="-256.5" font-family="Helvetica,sans-Serif" font-size="10.00">+ digest()</text>
<text text-anchor="start" x="21" y="-245.5" font-family="Helvetica,sans-Serif" font-size="10.00">+ digest()</text>
<text text-anchor="start" x="21" y="-234.5" font-family="Helvetica,sans-Serif" font-size="10.00">+ digest()</text>
<text text-anchor="start" x="21" y="-223.5" font-family="Helvetica,sans-Serif" font-size="10.00">+ getOutputSize()</text>
<text text-anchor="start" x="21" y="-212.5" font-family="Helvetica,sans-Serif" font-size="10.00">+ getBlockSize()</text>
<text text-anchor="start" x="21" y="-201.5" font-family="Helvetica,sans-Serif" font-size="10.00"># reset()</text>
<text text-anchor="start" x="21" y="-190.5" font-family="Helvetica,sans-Serif" font-size="10.00"># addData()</text>
<text text-anchor="start" x="21" y="-179.5" font-family="Helvetica,sans-Serif" font-size="10.00"># finalize()</text>
</a>
</g>
</g>
<!-- Node2&#45;&gt;Node1 -->
<g id="edge1" class="edge">
<title>Node2&#45;&gt;Node1</title>
<path fill="none" stroke="#63b8ff" d="M66.5,-161.83C66.5,-152.58 66.5,-143.34 66.5,-134.45"/>
<polygon fill="none" stroke="#63b8ff" points="63,-161.66 66.5,-171.66 70,-161.66 63,-161.66"/>
</g>
<!-- Node3 -->
<g id="node3" class="node">
<title>Node3</title>
<g id="a_node3"><a xlink:title=" ">
<polygon fill="white" stroke="#666666" points="0,-602.5 0,-659.5 133,-659.5 133,-602.5 0,-602.5"/>
<text text-anchor="middle" x="66.5" y="-647.5" font-family="Helvetica,sans-Serif" font-size="10.00">std::array&lt; uint8_t, O &gt;</text>
<polyline fill="none" stroke="#666666" points="0,-640.5 133,-640.5"/>
<text text-anchor="start" x="8" y="-628.5" font-family="Helvetica,sans-Serif" font-size="10.00">+ elements</text>
<polyline fill="none" stroke="#666666" points="0,-621.5 133,-621.5"/>
<text text-anchor="middle" x="66.5" y="-609.5" font-family="Helvetica,sans-Serif" font-size="10.00"> </text>
</a>
</g>
</g>
<!-- Node3&#45;&gt;Node2 -->
<g id="edge2" class="edge">
<title>Node3&#45;&gt;Node2</title>
<path fill="none" stroke="#404040" d="M63.78,-602.6C62.51,-588.41 61.13,-570.79 60.5,-555 57.79,-487.22 59.43,-410.72 61.68,-352.2"/>
<polygon fill="none" stroke="#404040" points="61.68,-352.13 57.92,-345.98 62.16,-340.14 65.91,-346.3 61.68,-352.13"/>
<text text-anchor="middle" x="84" y="-468.5" font-family="Helvetica,sans-Serif" font-size="10.00"> #_digest</text>
</g>
<!-- Node6 -->
<g id="node6" class="node">
<title>Node6</title>
<g id="a_node6"><a xlink:href="classanch_1_1crypto_1_1_hash.html" target="_top" xlink:title="Hash algorithm abstract class.">
<polygon fill="white" stroke="#666666" points="116,-387.5 116,-554.5 223,-554.5 223,-387.5 116,-387.5"/>
<text text-anchor="start" x="124" y="-542.5" font-family="Helvetica,sans-Serif" font-size="10.00">anch::crypto::Hash</text>
<text text-anchor="middle" x="169.5" y="-531.5" font-family="Helvetica,sans-Serif" font-size="10.00">&lt; O, B &gt;</text>
<polyline fill="none" stroke="#666666" points="116,-524.5 223,-524.5"/>
<text text-anchor="middle" x="169.5" y="-512.5" font-family="Helvetica,sans-Serif" font-size="10.00"> </text>
<polyline fill="none" stroke="#666666" points="116,-505.5 223,-505.5"/>
<text text-anchor="start" x="124" y="-493.5" font-family="Helvetica,sans-Serif" font-size="10.00">+ digest()</text>
<text text-anchor="start" x="124" y="-482.5" font-family="Helvetica,sans-Serif" font-size="10.00">+ digest()</text>
<text text-anchor="start" x="124" y="-471.5" font-family="Helvetica,sans-Serif" font-size="10.00">+ digest()</text>
<text text-anchor="start" x="124" y="-460.5" font-family="Helvetica,sans-Serif" font-size="10.00">+ digest()</text>
<text text-anchor="start" x="124" y="-449.5" font-family="Helvetica,sans-Serif" font-size="10.00">+ digest()</text>
<text text-anchor="start" x="124" y="-438.5" font-family="Helvetica,sans-Serif" font-size="10.00">+ getOutputSize()</text>
<text text-anchor="start" x="124" y="-427.5" font-family="Helvetica,sans-Serif" font-size="10.00">+ getBlockSize()</text>
<text text-anchor="start" x="124" y="-416.5" font-family="Helvetica,sans-Serif" font-size="10.00"># reset()</text>
<text text-anchor="start" x="124" y="-405.5" font-family="Helvetica,sans-Serif" font-size="10.00"># addData()</text>
<text text-anchor="start" x="124" y="-394.5" font-family="Helvetica,sans-Serif" font-size="10.00"># finalize()</text>
</a>
</g>
</g>
<!-- Node3&#45;&gt;Node6 -->
<g id="edge6" class="edge">
<title>Node3&#45;&gt;Node6</title>
<path fill="none" stroke="#404040" d="M84.21,-602.84C91.36,-591.87 100.06,-578.52 109.15,-564.58"/>
<polygon fill="none" stroke="#404040" points="109.1,-564.65 109.03,-557.44 115.66,-554.59 115.73,-561.8 109.1,-564.65"/>
<text text-anchor="middle" x="126" y="-576" font-family="Helvetica,sans-Serif" font-size="10.00"> #_digest</text>
</g>
<!-- Node4 -->
<g id="node4" class="node">
<title>Node4</title>
<g id="a_node4"><a xlink:title=" ">
<polygon fill="white" stroke="#666666" points="20.5,-707.5 20.5,-764.5 112.5,-764.5 112.5,-707.5 20.5,-707.5"/>
<text text-anchor="middle" x="66.5" y="-752.5" font-family="Helvetica,sans-Serif" font-size="10.00">std::array&lt; T &gt;</text>
<polyline fill="none" stroke="#666666" points="20.5,-745.5 112.5,-745.5"/>
<text text-anchor="middle" x="66.5" y="-733.5" font-family="Helvetica,sans-Serif" font-size="10.00"> </text>
<polyline fill="none" stroke="#666666" points="20.5,-726.5 112.5,-726.5"/>
<text text-anchor="middle" x="66.5" y="-714.5" font-family="Helvetica,sans-Serif" font-size="10.00"> </text>
</a>
</g>
</g>
<!-- Node4&#45;&gt;Node3 -->
<g id="edge3" class="edge">
<title>Node4&#45;&gt;Node3</title>
<path fill="none" stroke="orange" d="M66.5,-696.71C66.5,-684.34 66.5,-670.88 66.5,-659.46"/>
<polygon fill="orange" stroke="orange" points="63,-696.67 66.5,-706.67 70,-696.67 63,-696.67"/>
<text text-anchor="middle" x="103" y="-681" font-family="Helvetica,sans-Serif" font-size="10.00"> &lt; uint8_t, O &gt;</text>
</g>
<!-- Node5 -->
<g id="node5" class="node">
<title>Node5</title>
<g id="a_node5"><a xlink:title=" ">
<polygon fill="white" stroke="#bfbfbf" points="52,-812.5 52,-869.5 81,-869.5 81,-812.5 52,-812.5"/>
<text text-anchor="middle" x="66.5" y="-857.5" font-family="Helvetica,sans-Serif" font-size="10.00">T</text>
<polyline fill="none" stroke="#bfbfbf" points="52,-850.5 81,-850.5"/>
<text text-anchor="middle" x="66.5" y="-838.5" font-family="Helvetica,sans-Serif" font-size="10.00"> </text>
<polyline fill="none" stroke="#bfbfbf" points="52,-831.5 81,-831.5"/>
<text text-anchor="middle" x="66.5" y="-819.5" font-family="Helvetica,sans-Serif" font-size="10.00"> </text>
</a>
</g>
</g>
<!-- Node5&#45;&gt;Node4 -->
<g id="edge4" class="edge">
<title>Node5&#45;&gt;Node4</title>
<path fill="none" stroke="#404040" d="M66.5,-812.67C66.5,-801.84 66.5,-789.17 66.5,-777.33"/>
<polygon fill="none" stroke="#404040" points="66.5,-777.36 62.5,-771.36 66.5,-765.36 70.5,-771.36 66.5,-777.36"/>
<text text-anchor="middle" x="95.5" y="-786" font-family="Helvetica,sans-Serif" font-size="10.00"> +elements</text>
</g>
<!-- Node6&#45;&gt;Node2 -->
<g id="edge5" class="edge">
<title>Node6&#45;&gt;Node2</title>
<path fill="none" stroke="orange" d="M124.98,-377.94C118.8,-365.15 112.48,-352.08 106.39,-339.48"/>
<polygon fill="orange" stroke="orange" points="122.17,-379.17 129.68,-386.65 128.47,-376.12 122.17,-379.17"/>
<text text-anchor="middle" x="145.5" y="-361" font-family="Helvetica,sans-Serif" font-size="10.00"> &lt; 16, 64 &gt;</text>
</g>
</g>
</svg>
