<?xml version="1.0" encoding="UTF-8" standalone="no"?>
<!DOCTYPE svg PUBLIC "-//W3C//DTD SVG 1.1//EN"
 "http://www.w3.org/Graphics/SVG/1.1/DTD/svg11.dtd">
<!-- Generated by graphviz version 7.0.4 (0)
 -->
<!-- Title: anch::date::formatter::ConstantFormatter Pages: 1 -->
<svg width="260pt" height="457pt"
 viewBox="0.00 0.00 259.50 457.00" xmlns="http://www.w3.org/2000/svg" xmlns:xlink="http://www.w3.org/1999/xlink">
<g id="graph0" class="graph" transform="scale(1 1) rotate(0) translate(4 453)">
<title>anch::date::formatter::ConstantFormatter</title>
<!-- Node1 -->
<g id="node1" class="node">
<title>Node1</title>
<g id="a_node1"><a xlink:title=" ">
<polygon fill="#999999" stroke="#666666" points="178,-107 43,-107 43,0 178,0 178,-107"/>
<text text-anchor="start" x="51" y="-95" font-family="Helvetica,sans-Serif" font-size="10.00">{anch::date::formatter</text>
<text text-anchor="middle" x="110.5" y="-84" font-family="Helvetica,sans-Serif" font-size="10.00">::ConstantFormatter</text>
<text text-anchor="start" x="51" y="-73" font-family="Helvetica,sans-Serif" font-size="10.00">||+ ConstantFormatter()</text>
<text text-anchor="start" x="51" y="-62" font-family="Helvetica,sans-Serif" font-size="10.00">+ ~ConstantFormatter()</text>
<text text-anchor="start" x="51" y="-51" font-family="Helvetica,sans-Serif" font-size="10.00">+ format()</text>
<text text-anchor="start" x="51" y="-40" font-family="Helvetica,sans-Serif" font-size="10.00">+ getSize()</text>
<text text-anchor="start" x="51" y="-29" font-family="Helvetica,sans-Serif" font-size="10.00">+ setValue()</text>
<text text-anchor="start" x="51" y="-18" font-family="Helvetica,sans-Serif" font-size="10.00">+ getPattern()</text>
<text text-anchor="middle" x="110.5" y="-7" font-family="Helvetica,sans-Serif" font-size="10.00">}</text>
</a>
</g>
</g>
<!-- Node2 -->
<g id="node2" class="node">
<title>Node2</title>
<g id="a_node2"><a xlink:href="classanch_1_1date_1_1formatter_1_1_i_date_part_formatter.html" target="_top" xlink:title=" ">
<polygon fill="white" stroke="#666666" points="143,-371 0,-371 0,-154 143,-154 143,-371"/>
<text text-anchor="start" x="8" y="-359" font-family="Helvetica,sans-Serif" font-size="10.00">{anch::date::formatter</text>
<text text-anchor="middle" x="71.5" y="-348" font-family="Helvetica,sans-Serif" font-size="10.00">::IDatePartFormatter</text>
<text text-anchor="start" x="8" y="-337" font-family="Helvetica,sans-Serif" font-size="10.00">||+ ~IDatePartFormatter()</text>
<text text-anchor="start" x="8" y="-326" font-family="Helvetica,sans-Serif" font-size="10.00">+ format()</text>
<text text-anchor="start" x="8" y="-315" font-family="Helvetica,sans-Serif" font-size="10.00">+ getSize()</text>
<text text-anchor="start" x="8" y="-304" font-family="Helvetica,sans-Serif" font-size="10.00">+ setValue()</text>
<text text-anchor="start" x="8" y="-293" font-family="Helvetica,sans-Serif" font-size="10.00">+ getPattern()</text>
<text text-anchor="start" x="8" y="-282" font-family="Helvetica,sans-Serif" font-size="10.00"># getYear()</text>
<text text-anchor="start" x="8" y="-271" font-family="Helvetica,sans-Serif" font-size="10.00"># setYear()</text>
<text text-anchor="start" x="8" y="-260" font-family="Helvetica,sans-Serif" font-size="10.00"># getMonth()</text>
<text text-anchor="start" x="8" y="-249" font-family="Helvetica,sans-Serif" font-size="10.00"># setMonth()</text>
<text text-anchor="start" x="8" y="-238" font-family="Helvetica,sans-Serif" font-size="10.00"># getDay()</text>
<text text-anchor="start" x="8" y="-227" font-family="Helvetica,sans-Serif" font-size="10.00"># setDay()</text>
<text text-anchor="start" x="8" y="-216" font-family="Helvetica,sans-Serif" font-size="10.00"># getHour()</text>
<text text-anchor="start" x="8" y="-205" font-family="Helvetica,sans-Serif" font-size="10.00"># setHour()</text>
<text text-anchor="start" x="8" y="-194" font-family="Helvetica,sans-Serif" font-size="10.00"># getMinute()</text>
<text text-anchor="start" x="8" y="-183" font-family="Helvetica,sans-Serif" font-size="10.00"># setMinute()</text>
<text text-anchor="start" x="8" y="-172" font-family="Helvetica,sans-Serif" font-size="10.00">and 8 more...</text>
<text text-anchor="middle" x="71.5" y="-161" font-family="Helvetica,sans-Serif" font-size="10.00">}</text>
</a>
</g>
</g>
<!-- Node2&#45;&gt;Node1 -->
<g id="edge1" class="edge">
<title>Node2&#45;&gt;Node1</title>
<path fill="none" stroke="#63b8ff" d="M93.93,-142.47C96.23,-130.25 98.47,-118.33 100.53,-107.4"/>
<polygon fill="none" stroke="#63b8ff" points="90.49,-141.79 92.08,-152.27 97.37,-143.09 90.49,-141.79"/>
</g>
<!-- Node3 -->
<g id="node3" class="node">
<title>Node3</title>
<g id="a_node3"><a xlink:title=" ">
<polygon fill="white" stroke="#666666" points="232,-277.5 161,-277.5 161,-247.5 232,-247.5 232,-277.5"/>
<text text-anchor="middle" x="196.5" y="-265.5" font-family="Helvetica,sans-Serif" font-size="10.00">{std::string</text>
<text text-anchor="middle" x="196.5" y="-254.5" font-family="Helvetica,sans-Serif" font-size="10.00">||}</text>
</a>
</g>
</g>
<!-- Node3&#45;&gt;Node1 -->
<g id="edge2" class="edge">
<title>Node3&#45;&gt;Node1</title>
<path fill="none" stroke="#404040" d="M190.71,-247.22C182.35,-226.61 166.36,-187.33 152.5,-154 147.83,-142.76 142.82,-130.81 137.95,-119.25"/>
<polygon fill="none" stroke="#404040" points="137.96,-119.27 131.94,-115.3 133.3,-108.21 139.32,-112.19 137.96,-119.27"/>
<text text-anchor="middle" x="175" y="-128" font-family="Helvetica,sans-Serif" font-size="10.00"> +_message</text>
</g>
<!-- Node4 -->
<g id="node4" class="node">
<title>Node4</title>
<g id="a_node4"><a xlink:title=" ">
<polygon fill="white" stroke="#666666" points="251.5,-449 141.5,-449 141.5,-408 251.5,-408 251.5,-449"/>
<text text-anchor="start" x="149.5" y="-437" font-family="Helvetica,sans-Serif" font-size="10.00">{std::basic_string&lt;</text>
<text text-anchor="middle" x="196.5" y="-426" font-family="Helvetica,sans-Serif" font-size="10.00"> Char &gt;</text>
<text text-anchor="middle" x="196.5" y="-415" font-family="Helvetica,sans-Serif" font-size="10.00">||}</text>
</a>
</g>
</g>
<!-- Node4&#45;&gt;Node3 -->
<g id="edge3" class="edge">
<title>Node4&#45;&gt;Node3</title>
<path fill="none" stroke="#63b8ff" d="M196.5,-396.52C196.5,-360.87 196.5,-303.87 196.5,-277.6"/>
<polygon fill="none" stroke="#63b8ff" points="193,-396.2 196.5,-406.2 200,-396.2 193,-396.2"/>
</g>
</g>
</svg>
