<?xml version="1.0" encoding="UTF-8" standalone="no"?>
<!DOCTYPE svg PUBLIC "-//W3C//DTD SVG 1.1//EN"
 "http://www.w3.org/Graphics/SVG/1.1/DTD/svg11.dtd">
<!-- Generated by graphviz version 12.1.2 (0)
 -->
<!-- Title: anch::sql::MySQLPreparedStatementResultSet Pages: 1 -->
<!--zoomable 857 -->

<svg id="main" version="1.1" xmlns="http://www.w3.org/2000/svg" xmlns:xlink="http://www.w3.org/1999/xlink" xml:space="preserve" onload="init(evt)">

<style type="text/css"><![CDATA[
.node, .edge {opacity: 0.7;}
.node.selected, .edge.selected {opacity: 1;}
.edge:hover path { stroke: red; }
.edge:hover polygon { stroke: red; fill: red; }
]]></style>

<defs>
  <circle id="rim" cx="0" cy="0" r="7"/>
  <circle id="rim2" cx="0" cy="0" r="3.5"/>
  <g id="zoomPlus">
    <use xlink:href="#rim" fill="#404040"><set attributeName="fill" to="#808080" begin="zoomplus.mouseover" end="zoomplus.mouseout"/></use>
    <path d="M-4,0h8M0,-4v8" fill="none" stroke="white" stroke-width="1.5" pointer-events="none"/>
  </g>
  <g id="zoomMin">
    <use xlink:href="#rim" fill="#404040"><set attributeName="fill" to="#808080" begin="zoomminus.mouseover" end="zoomminus.mouseout"/></use>
    <path d="M-4,0h8" fill="none" stroke="white" stroke-width="1.5" pointer-events="none"/>
  </g>
  <g id="arrowUp" transform="translate(30 24)">
    <use xlink:href="#rim"/>
    <path pointer-events="none" fill="none" stroke="white" stroke-width="1.5" d="M0,-3.0v7 M-2.5,-0.5L0,-3.0L2.5,-0.5"/>
  </g>
  <g id="arrowRight" transform="rotate(90) translate(36 -43)">
    <use xlink:href="#rim"/>
    <path pointer-events="none" fill="none" stroke="white" stroke-width="1.5" d="M0,-3.0v7 M-2.5,-0.5L0,-3.0L2.5,-0.5"/>
  </g>
  <g id="arrowDown" transform="rotate(180) translate(-30 -48)">
    <use xlink:href="#rim"/>
    <path pointer-events="none" fill="none" stroke="white" stroke-width="1.5" d="M0,-3.0v7 M-2.5,-0.5L0,-3.0L2.5,-0.5"/>
  </g>
  <g id="arrowLeft" transform="rotate(270) translate(-36 17)">
    <use xlink:href="#rim"/>
    <path pointer-events="none" fill="none" stroke="white" stroke-width="1.5" d="M0,-3.0v7 M-2.5,-0.5L0,-3.0L2.5,-0.5"/>
  </g>
  <g id="resetDef">
    <use xlink:href="#rim2" fill="#404040"><set attributeName="fill" to="#808080" begin="reset.mouseover" end="reset.mouseout"/></use>
  </g>
</defs>
<script type="application/ecmascript">
var viewWidth = 214;
var viewHeight = 857;
var sectionId = 'dynsection-1';
</script>
<script type="application/ecmascript" xlink:href="svg.min.js"/>
<svg id="graph" class="graph">
<g id="viewport">
<title>anch::sql::MySQLPreparedStatementResultSet</title>
<!-- Node1 -->
<g id="Node000001" class="node">
<title>Node1</title>
<g id="a_Node000001"><a xlink:title="MySQL result set implementation for prepared statement ... shitty API.">
<polygon fill="#999999" stroke="none" points="171.5,-200 2.5,-200 2.5,0 171.5,0 171.5,-200"/>
<text text-anchor="start" x="28.12" y="-186.5" font-family="Helvetica,sans-Serif" font-size="10.00">anch::sql::MySQLPrepared</text>
<text text-anchor="start" x="42.75" y="-174.5" font-family="Helvetica,sans-Serif" font-size="10.00">StatementResultSet</text>
<text text-anchor="start" x="85.5" y="-158.5" font-family="Helvetica,sans-Serif" font-size="10.00"> </text>
<text text-anchor="start" x="6.5" y="-142.5" font-family="Helvetica,sans-Serif" font-size="10.00">+</text>
<text text-anchor="start" x="16.5" y="-142.5" font-family="Helvetica,sans-Serif" font-size="10.00">MySQLPreparedStatementResult</text>
<text text-anchor="start" x="16.5" y="-130.5" font-family="Helvetica,sans-Serif" font-size="10.00">Set()</text>
<text text-anchor="start" x="6.5" y="-114.5" font-family="Helvetica,sans-Serif" font-size="10.00">+</text>
<text text-anchor="start" x="16.5" y="-114.5" font-family="Helvetica,sans-Serif" font-size="10.00">~MySQLPreparedStatementResult</text>
<text text-anchor="start" x="16.5" y="-102.5" font-family="Helvetica,sans-Serif" font-size="10.00">Set()</text>
<text text-anchor="start" x="6.5" y="-86.5" font-family="Helvetica,sans-Serif" font-size="10.00">+</text>
<text text-anchor="start" x="16.5" y="-86.5" font-family="Helvetica,sans-Serif" font-size="10.00">next()</text>
<text text-anchor="start" x="6.88" y="-70.5" font-family="Helvetica,sans-Serif" font-size="10.00">#</text>
<text text-anchor="start" x="16.5" y="-70.5" font-family="Helvetica,sans-Serif" font-size="10.00">getValue()</text>
<text text-anchor="start" x="6.88" y="-54.5" font-family="Helvetica,sans-Serif" font-size="10.00">#</text>
<text text-anchor="start" x="16.5" y="-54.5" font-family="Helvetica,sans-Serif" font-size="10.00">getValue()</text>
<text text-anchor="start" x="6.88" y="-38.5" font-family="Helvetica,sans-Serif" font-size="10.00">#</text>
<text text-anchor="start" x="16.5" y="-38.5" font-family="Helvetica,sans-Serif" font-size="10.00">getDateFormatter()</text>
<text text-anchor="start" x="6.88" y="-22.5" font-family="Helvetica,sans-Serif" font-size="10.00">#</text>
<text text-anchor="start" x="16.5" y="-22.5" font-family="Helvetica,sans-Serif" font-size="10.00">getTimeFormatter()</text>
<text text-anchor="start" x="6.88" y="-6.5" font-family="Helvetica,sans-Serif" font-size="10.00">#</text>
<text text-anchor="start" x="16.5" y="-6.5" font-family="Helvetica,sans-Serif" font-size="10.00">getTimestampFormatter()</text>
<polygon fill="#666666" stroke="#666666" points="2.5,-170 2.5,-170 171.5,-170 171.5,-170 2.5,-170"/>
<polygon fill="#666666" stroke="#666666" points="2.5,-154 2.5,-154 171.5,-154 171.5,-154 2.5,-154"/>
<polygon fill="none" stroke="#666666" points="2.5,0 2.5,-200 171.5,-200 171.5,0 2.5,0"/>
</a>
</g>
</g>
<!-- Node2 -->
<g id="Node000002" class="node">
<title>Node2</title>
<g id="a_Node000002"><a xlink:href="classanch_1_1sql_1_1_result_set.html" target="_top" xlink:title="SQL result representation.">
<polygon fill="white" stroke="none" points="166.5,-513 7.5,-513 7.5,-237 166.5,-237 166.5,-513"/>
<text text-anchor="start" x="42.38" y="-499.5" font-family="Helvetica,sans-Serif" font-size="10.00">anch::sql::ResultSet</text>
<text text-anchor="start" x="85.5" y="-483.5" font-family="Helvetica,sans-Serif" font-size="10.00"> </text>
<text text-anchor="start" x="11.5" y="-467.5" font-family="Helvetica,sans-Serif" font-size="10.00">+</text>
<text text-anchor="start" x="21.5" y="-467.5" font-family="Helvetica,sans-Serif" font-size="10.00">ResultSet()</text>
<text text-anchor="start" x="11.5" y="-451.5" font-family="Helvetica,sans-Serif" font-size="10.00">+</text>
<text text-anchor="start" x="21.5" y="-451.5" font-family="Helvetica,sans-Serif" font-size="10.00">~ResultSet()</text>
<text text-anchor="start" x="11.5" y="-435.5" font-family="Helvetica,sans-Serif" font-size="10.00">+</text>
<text text-anchor="start" x="21.5" y="-435.5" font-family="Helvetica,sans-Serif" font-size="10.00">get()</text>
<text text-anchor="start" x="11.5" y="-419.5" font-family="Helvetica,sans-Serif" font-size="10.00">+</text>
<text text-anchor="start" x="21.5" y="-419.5" font-family="Helvetica,sans-Serif" font-size="10.00">get()</text>
<text text-anchor="start" x="11.5" y="-403.5" font-family="Helvetica,sans-Serif" font-size="10.00">+</text>
<text text-anchor="start" x="21.5" y="-403.5" font-family="Helvetica,sans-Serif" font-size="10.00">get()</text>
<text text-anchor="start" x="11.5" y="-387.5" font-family="Helvetica,sans-Serif" font-size="10.00">+</text>
<text text-anchor="start" x="21.5" y="-387.5" font-family="Helvetica,sans-Serif" font-size="10.00">get()</text>
<text text-anchor="start" x="11.5" y="-371.5" font-family="Helvetica,sans-Serif" font-size="10.00">+</text>
<text text-anchor="start" x="21.5" y="-371.5" font-family="Helvetica,sans-Serif" font-size="10.00">next()</text>
<text text-anchor="start" x="11.88" y="-355.5" font-family="Helvetica,sans-Serif" font-size="10.00">#</text>
<text text-anchor="start" x="21.5" y="-355.5" font-family="Helvetica,sans-Serif" font-size="10.00">getValue()</text>
<text text-anchor="start" x="11.88" y="-339.5" font-family="Helvetica,sans-Serif" font-size="10.00">#</text>
<text text-anchor="start" x="21.5" y="-339.5" font-family="Helvetica,sans-Serif" font-size="10.00">getValue()</text>
<text text-anchor="start" x="11.88" y="-323.5" font-family="Helvetica,sans-Serif" font-size="10.00">#</text>
<text text-anchor="start" x="21.5" y="-323.5" font-family="Helvetica,sans-Serif" font-size="10.00">getDateFormatter()</text>
<text text-anchor="start" x="11.88" y="-307.5" font-family="Helvetica,sans-Serif" font-size="10.00">#</text>
<text text-anchor="start" x="21.5" y="-307.5" font-family="Helvetica,sans-Serif" font-size="10.00">getTimeFormatter()</text>
<text text-anchor="start" x="11.88" y="-291.5" font-family="Helvetica,sans-Serif" font-size="10.00">#</text>
<text text-anchor="start" x="21.5" y="-291.5" font-family="Helvetica,sans-Serif" font-size="10.00">getTimestampFormatter()</text>
<text text-anchor="start" x="11.88" y="-275.5" font-family="Helvetica,sans-Serif" font-size="10.00">#</text>
<text text-anchor="start" x="21.5" y="-275.5" font-family="Helvetica,sans-Serif" font-size="10.00">getDefaultDateFormatter()</text>
<text text-anchor="start" x="11.88" y="-259.5" font-family="Helvetica,sans-Serif" font-size="10.00">#</text>
<text text-anchor="start" x="21.5" y="-259.5" font-family="Helvetica,sans-Serif" font-size="10.00">getDefaultTimeFormatter()</text>
<text text-anchor="start" x="11.88" y="-243.5" font-family="Helvetica,sans-Serif" font-size="10.00">#</text>
<text text-anchor="start" x="21.5" y="-243.5" font-family="Helvetica,sans-Serif" font-size="10.00">getDefaultTimestampFormatter()</text>
<polygon fill="#666666" stroke="#666666" points="7.5,-495 7.5,-495 166.5,-495 166.5,-495 7.5,-495"/>
<polygon fill="#666666" stroke="#666666" points="7.5,-479 7.5,-479 166.5,-479 166.5,-479 7.5,-479"/>
<polygon fill="none" stroke="#666666" points="7.5,-237 7.5,-513 166.5,-513 166.5,-237 7.5,-237"/>
</a>
</g>
</g>
<!-- Node2&#45;&gt;Node1 -->
<g id="edge1_Node000001_Node000002" class="edge">
<title>Node2&#45;&gt;Node1</title>
<g id="a_edge1_Node000001_Node000002"><a xlink:title=" ">
<path fill="none" stroke="#63b8ff" d="M87,-225.86C87,-217 87,-208.21 87,-199.63"/>
<polygon fill="none" stroke="#63b8ff" points="83.5,-225.59 87,-235.59 90.5,-225.59 83.5,-225.59"/>
</a>
</g>
</g>
<!-- Node3 -->
<g id="Node000003" class="node">
<title>Node3</title>
<g id="a_Node000003"><a xlink:title=" ">
<polygon fill="white" stroke="none" points="138.5,-625 35.5,-625 35.5,-561 138.5,-561 138.5,-625"/>
<text text-anchor="start" x="40.12" y="-611.5" font-family="Helvetica,sans-Serif" font-size="10.00">std::map&lt; std::string,</text>
<text text-anchor="start" x="58.12" y="-599.5" font-family="Helvetica,sans-Serif" font-size="10.00"> std::size_t &gt;</text>
<text text-anchor="start" x="51" y="-583.5" font-family="Helvetica,sans-Serif" font-size="10.00">+</text>
<text text-anchor="start" x="72.5" y="-583.5" font-family="Helvetica,sans-Serif" font-size="10.00">elements</text>
<text text-anchor="start" x="85.5" y="-567.5" font-family="Helvetica,sans-Serif" font-size="10.00"> </text>
<polygon fill="#666666" stroke="#666666" points="35.5,-595 35.5,-595 138.5,-595 138.5,-595 35.5,-595"/>
<polygon fill="#666666" stroke="#666666" points="35.5,-579 35.5,-579 70.5,-579 70.5,-579 35.5,-579"/>
<polygon fill="#666666" stroke="#666666" points="70.5,-579 70.5,-579 138.5,-579 138.5,-579 70.5,-579"/>
<polygon fill="none" stroke="#666666" points="35.5,-561 35.5,-625 138.5,-625 138.5,-561 35.5,-561"/>
</a>
</g>
</g>
<!-- Node3&#45;&gt;Node2 -->
<g id="edge2_Node000002_Node000003" class="edge">
<title>Node3&#45;&gt;Node2</title>
<g id="a_edge2_Node000002_Node000003"><a xlink:title=" ">
<path fill="none" stroke="#63b8ff" d="M87,-561.05C87,-550.8 87,-538.61 87,-525.45"/>
<polygon fill="none" stroke="#63b8ff" points="87,-525.48 83,-519.48 87,-513.48 91,-519.48 87,-525.48"/>
</a>
</g>
<text text-anchor="middle" x="105.38" y="-533.5" font-family="Helvetica,sans-Serif" font-size="10.00" fill="grey"> #_fields</text>
</g>
<!-- Node4 -->
<g id="Node000004" class="node">
<title>Node4</title>
<g id="a_Node000004"><a xlink:title=" ">
<polygon fill="white" stroke="none" points="70.5,-737 17.5,-737 17.5,-685 70.5,-685 70.5,-737"/>
<text text-anchor="start" x="22.25" y="-723.5" font-family="Helvetica,sans-Serif" font-size="10.00">std::string</text>
<text text-anchor="start" x="42.5" y="-707.5" font-family="Helvetica,sans-Serif" font-size="10.00"> </text>
<text text-anchor="start" x="42.5" y="-691.5" font-family="Helvetica,sans-Serif" font-size="10.00"> </text>
<polygon fill="#666666" stroke="#666666" points="17.5,-719 17.5,-719 70.5,-719 70.5,-719 17.5,-719"/>
<polygon fill="#666666" stroke="#666666" points="17.5,-703 17.5,-703 70.5,-703 70.5,-703 17.5,-703"/>
<polygon fill="none" stroke="#666666" points="17.5,-685 17.5,-737 70.5,-737 70.5,-685 17.5,-685"/>
</a>
</g>
</g>
<!-- Node4&#45;&gt;Node3 -->
<g id="edge3_Node000003_Node000004" class="edge">
<title>Node4&#45;&gt;Node3</title>
<g id="a_edge3_Node000003_Node000004"><a xlink:title=" ">
<path fill="none" stroke="#63b8ff" d="M53.22,-685.12C58.46,-671 65.14,-652.96 71.19,-636.66"/>
<polygon fill="none" stroke="#63b8ff" points="71.16,-636.72 69.5,-629.71 75.33,-625.47 77,-632.49 71.16,-636.72"/>
</a>
</g>
<text text-anchor="middle" x="83.07" y="-651.5" font-family="Helvetica,sans-Serif" font-size="10.00" fill="grey"> +keys</text>
</g>
<!-- Node5 -->
<g id="Node000005" class="node">
<title>Node5</title>
<g id="a_Node000005"><a xlink:title=" ">
<polygon fill="white" stroke="none" points="88,-849 0,-849 0,-785 88,-785 88,-849"/>
<text text-anchor="start" x="5" y="-835.5" font-family="Helvetica,sans-Serif" font-size="10.00">std::basic_string&lt;</text>
<text text-anchor="start" x="27.5" y="-823.5" font-family="Helvetica,sans-Serif" font-size="10.00"> Char &gt;</text>
<text text-anchor="start" x="42.5" y="-807.5" font-family="Helvetica,sans-Serif" font-size="10.00"> </text>
<text text-anchor="start" x="42.5" y="-791.5" font-family="Helvetica,sans-Serif" font-size="10.00"> </text>
<polygon fill="#666666" stroke="#666666" points="0,-819 0,-819 88,-819 88,-819 0,-819"/>
<polygon fill="#666666" stroke="#666666" points="0,-803 0,-803 88,-803 88,-803 0,-803"/>
<polygon fill="none" stroke="#666666" points="0,-785 0,-849 88,-849 88,-785 0,-785"/>
</a>
</g>
</g>
<!-- Node5&#45;&gt;Node4 -->
<g id="edge4_Node000004_Node000005" class="edge">
<title>Node5&#45;&gt;Node4</title>
<g id="a_edge4_Node000004_Node000005"><a xlink:title=" ">
<path fill="none" stroke="#63b8ff" d="M44,-773.81C44,-761.21 44,-747.8 44,-736.71"/>
<polygon fill="none" stroke="#63b8ff" points="40.5,-773.56 44,-783.56 47.5,-773.56 40.5,-773.56"/>
</a>
</g>
</g>
<!-- Node6 -->
<g id="Node000006" class="node">
<title>Node6</title>
<g id="a_Node000006"><a xlink:title=" ">
<polygon fill="white" stroke="none" points="173,-737 89,-737 89,-685 173,-685 173,-737"/>
<text text-anchor="start" x="93.88" y="-723.5" font-family="Helvetica,sans-Serif" font-size="10.00">std::map&lt; K, T &gt;</text>
<text text-anchor="start" x="129.5" y="-707.5" font-family="Helvetica,sans-Serif" font-size="10.00"> </text>
<text text-anchor="start" x="129.5" y="-691.5" font-family="Helvetica,sans-Serif" font-size="10.00"> </text>
<polygon fill="#666666" stroke="#666666" points="89,-719 89,-719 173,-719 173,-719 89,-719"/>
<polygon fill="#666666" stroke="#666666" points="89,-703 89,-703 173,-703 173,-703 89,-703"/>
<polygon fill="none" stroke="#666666" points="89,-685 89,-737 173,-737 173,-685 89,-685"/>
</a>
</g>
</g>
<!-- Node6&#45;&gt;Node3 -->
<g id="edge5_Node000003_Node000006" class="edge">
<title>Node6&#45;&gt;Node3</title>
<g id="a_edge5_Node000003_Node000006"><a xlink:title=" ">
<path fill="none" stroke="orange" d="M117.56,-674.58C111.51,-658.62 104.44,-639.97 98.62,-624.63"/>
<polygon fill="orange" stroke="orange" points="114.21,-675.59 121.02,-683.7 120.75,-673.11 114.21,-675.59"/>
</a>
</g>
<text text-anchor="start" x="114.23" y="-657.5" font-family="Helvetica,sans-Serif" font-size="10.00" fill="grey"> &lt; std::string, std</text>
<text text-anchor="middle" x="151.73" y="-645.5" font-family="Helvetica,sans-Serif" font-size="10.00" fill="grey">::size_t &gt;</text>
</g>
<!-- Node7 -->
<g id="Node000007" class="node">
<title>Node7</title>
<g id="a_Node000007"><a xlink:title=" ">
<polygon fill="white" stroke="none" points="130,-843 114,-843 114,-791 130,-791 130,-843"/>
<text text-anchor="start" x="118.62" y="-829.5" font-family="Helvetica,sans-Serif" font-size="10.00">K</text>
<text text-anchor="start" x="120.5" y="-813.5" font-family="Helvetica,sans-Serif" font-size="10.00"> </text>
<text text-anchor="start" x="120.5" y="-797.5" font-family="Helvetica,sans-Serif" font-size="10.00"> </text>
<polygon fill="#bfbfbf" stroke="#bfbfbf" points="114,-825 114,-825 130,-825 130,-825 114,-825"/>
<polygon fill="#bfbfbf" stroke="#bfbfbf" points="114,-809 114,-809 130,-809 130,-809 114,-809"/>
<polygon fill="none" stroke="#bfbfbf" points="114,-791 114,-843 130,-843 130,-791 114,-791"/>
</a>
</g>
</g>
<!-- Node7&#45;&gt;Node6 -->
<g id="edge6_Node000006_Node000007" class="edge">
<title>Node7&#45;&gt;Node6</title>
<g id="a_edge6_Node000006_Node000007"><a xlink:title=" ">
<path fill="none" stroke="#63b8ff" d="M121.47,-791.01C121.47,-779.95 121.81,-766.8 123,-755 123.18,-753.25 123.39,-751.47 123.62,-749.67"/>
<polygon fill="none" stroke="#63b8ff" points="123.62,-749.65 120.61,-743.1 125.49,-737.8 128.51,-744.35 123.62,-749.65"/>
</a>
</g>
<text text-anchor="middle" x="138" y="-757.5" font-family="Helvetica,sans-Serif" font-size="10.00" fill="grey"> +keys</text>
</g>
<!-- Node8 -->
<g id="Node000008" class="node">
<title>Node8</title>
<g id="a_Node000008"><a xlink:title=" ">
<polygon fill="white" stroke="none" points="183,-843 167,-843 167,-791 183,-791 183,-843"/>
<text text-anchor="start" x="172" y="-829.5" font-family="Helvetica,sans-Serif" font-size="10.00">T</text>
<text text-anchor="start" x="173.5" y="-813.5" font-family="Helvetica,sans-Serif" font-size="10.00"> </text>
<text text-anchor="start" x="173.5" y="-797.5" font-family="Helvetica,sans-Serif" font-size="10.00"> </text>
<polygon fill="#bfbfbf" stroke="#bfbfbf" points="167,-825 167,-825 183,-825 183,-825 167,-825"/>
<polygon fill="#bfbfbf" stroke="#bfbfbf" points="167,-809 167,-809 183,-809 183,-809 167,-809"/>
<polygon fill="none" stroke="#bfbfbf" points="167,-791 167,-843 183,-843 183,-791 167,-791"/>
</a>
</g>
</g>
<!-- Node8&#45;&gt;Node6 -->
<g id="edge7_Node000006_Node000008" class="edge">
<title>Node8&#45;&gt;Node6</title>
<g id="a_edge7_Node000006_Node000008"><a xlink:title=" ">
<path fill="none" stroke="#63b8ff" d="M167.02,-791.68C163.12,-780.39 158.15,-766.88 153,-755 152.06,-752.84 151.07,-750.64 150.04,-748.44"/>
<polygon fill="none" stroke="#63b8ff" points="150,-748.35 143.77,-744.71 144.74,-737.56 150.96,-741.2 150,-748.35"/>
</a>
</g>
<text text-anchor="middle" x="182.11" y="-757.5" font-family="Helvetica,sans-Serif" font-size="10.00" fill="grey"> +elements</text>
</g>
</g>
</svg>

<g id="navigator" transform="translate(0 0)" fill="#404254">
  <rect fill="#f2f5e9" fill-opacity="0.5" stroke="#606060" stroke-width=".5" x="0" y="0" width="60" height="60"/>
  <use id="zoomplus" xlink:href="#zoomPlus" x="17" y="9" onmousedown="handleZoom(evt,'in')"/>
  <use id="zoomminus" xlink:href="#zoomMin" x="42" y="9" onmousedown="handleZoom(evt,'out')"/>
  <use id="reset" xlink:href="#resetDef" x="30" y="36" onmousedown="handleReset()"/>
   <use id="arrowup" xlink:href="#arrowUp" x="0" y="0" onmousedown="handlePan(0,-1)"/>
  <use id="arrowright" xlink:href="#arrowRight" x="0" y="0" onmousedown="handlePan(1,0)"/>
  <use id="arrowdown" xlink:href="#arrowDown" x="0" y="0" onmousedown="handlePan(0,1)"/>
  <use id="arrowleft" xlink:href="#arrowLeft" x="0" y="0" onmousedown="handlePan(-1,0)"/>
</g>
<svg viewBox="0 0 15 15" width="100%" height="30px" preserveAspectRatio="xMaxYMin meet">
 <g id="arrow_out" transform="scale(0.3 0.3)">
  <a xlink:href="classanch_1_1sql_1_1_my_s_q_l_prepared_statement_result_set__coll__graph_org.svg" target="_base">
   <rect id="button" ry="5" rx="5" y="6" x="6" height="38" width="38"
        fill="#f2f5e9" fill-opacity="0.5" stroke="#606060" stroke-width="1.0"/>
   <path id="arrow"
     d="M 11.500037,31.436501 C 11.940474,20.09759 22.043105,11.32322 32.158766,21.979434 L 37.068811,17.246167 C 37.068811,17.246167 37.088388,32 37.088388,32 L 22.160133,31.978069 C 22.160133,31.978069 26.997745,27.140456 26.997745,27.140456 C 18.528582,18.264221 13.291696,25.230495 11.500037,31.436501 z"
     style="fill:#404040;"/>
  </a>
 </g>
</svg>

<style type='text/css'>
<![CDATA[
[data-mouse-over-selected='false'] { opacity: 0.7; }
[data-mouse-over-selected='true']  { opacity: 1.0; }
]]>
</style>
<script type="application/ecmascript"><![CDATA[
document.addEventListener('DOMContentLoaded', (event) => {
  highlightEdges();
  highlightAdjacentNodes();
});
]]></script>
</svg>
