<?xml version="1.0" encoding="UTF-8" standalone="no"?>
<!DOCTYPE svg PUBLIC "-//W3C//DTD SVG 1.1//EN"
 "http://www.w3.org/Graphics/SVG/1.1/DTD/svg11.dtd">
<!-- Generated by graphviz version 12.1.1 (0)
 -->
<!-- Title: anch::sql::MySQLPreparedStatement Pages: 1 -->
<svg width="237pt" height="807pt"
 viewBox="0.00 0.00 237.50 807.00" xmlns="http://www.w3.org/2000/svg" xmlns:xlink="http://www.w3.org/1999/xlink">
<g id="graph0" class="graph" transform="scale(1 1) rotate(0) translate(4 803)">
<title>anch::sql::MySQLPreparedStatement</title>
<!-- Node1 -->
<g id="Node000001" class="node">
<title>Node1</title>
<g id="a_Node000001"><a xlink:title="MySQL prepared statement implementation.">
<polygon fill="#999999" stroke="none" points="177.5,-113 13.5,-113 13.5,0 177.5,0 177.5,-113"/>
<text text-anchor="start" x="32.12" y="-99.5" font-family="Helvetica,sans-Serif" font-size="10.00">anch::sql::MySQLPrepared</text>
<text text-anchor="start" x="70" y="-86.75" font-family="Helvetica,sans-Serif" font-size="10.00">Statement</text>
<text text-anchor="start" x="94" y="-70.5" font-family="Helvetica,sans-Serif" font-size="10.00"> </text>
<text text-anchor="start" x="17.38" y="-54.5" font-family="Helvetica,sans-Serif" font-size="10.00">+</text>
<text text-anchor="start" x="29.5" y="-54.5" font-family="Helvetica,sans-Serif" font-size="10.00">MySQLPreparedStatement()</text>
<text text-anchor="start" x="17.38" y="-38.5" font-family="Helvetica,sans-Serif" font-size="10.00">+</text>
<text text-anchor="start" x="29.5" y="-38.5" font-family="Helvetica,sans-Serif" font-size="10.00">~MySQLPreparedStatement()</text>
<text text-anchor="start" x="17.38" y="-22.5" font-family="Helvetica,sans-Serif" font-size="10.00">+</text>
<text text-anchor="start" x="29.5" y="-22.5" font-family="Helvetica,sans-Serif" font-size="10.00">executeQuery()</text>
<text text-anchor="start" x="17.38" y="-6.5" font-family="Helvetica,sans-Serif" font-size="10.00">+</text>
<text text-anchor="start" x="29.5" y="-6.5" font-family="Helvetica,sans-Serif" font-size="10.00">executeUpdate()</text>
<polygon fill="#666666" stroke="#666666" points="13.5,-82 13.5,-82 177.5,-82 177.5,-82 13.5,-82"/>
<polygon fill="#666666" stroke="#666666" points="13.5,-66 13.5,-66 177.5,-66 177.5,-66 13.5,-66"/>
<polygon fill="none" stroke="#666666" points="13.5,0 13.5,-113 177.5,-113 177.5,0 13.5,0"/>
</a>
</g>
</g>
<!-- Node2 -->
<g id="Node000002" class="node">
<title>Node2</title>
<g id="a_Node000002"><a xlink:href="classanch_1_1sql_1_1_prepared_statement.html" target="_top" xlink:title="SQL prepared statement.">
<polygon fill="white" stroke="none" points="172.5,-458 18.5,-458 18.5,-150 172.5,-150 172.5,-458"/>
<text text-anchor="start" x="23.5" y="-444.5" font-family="Helvetica,sans-Serif" font-size="10.00">anch::sql::PreparedStatement</text>
<text text-anchor="start" x="28.38" y="-428.5" font-family="Helvetica,sans-Serif" font-size="10.00">#</text>
<text text-anchor="start" x="46.5" y="-428.5" font-family="Helvetica,sans-Serif" font-size="10.00">_nbPlaceholders</text>
<text text-anchor="start" x="28.38" y="-412.5" font-family="Helvetica,sans-Serif" font-size="10.00">+</text>
<text text-anchor="start" x="46.5" y="-412.5" font-family="Helvetica,sans-Serif" font-size="10.00">PreparedStatement()</text>
<text text-anchor="start" x="28.38" y="-396.5" font-family="Helvetica,sans-Serif" font-size="10.00">+</text>
<text text-anchor="start" x="46.5" y="-396.5" font-family="Helvetica,sans-Serif" font-size="10.00">~PreparedStatement()</text>
<text text-anchor="start" x="28.38" y="-380.5" font-family="Helvetica,sans-Serif" font-size="10.00">+</text>
<text text-anchor="start" x="46.5" y="-380.5" font-family="Helvetica,sans-Serif" font-size="10.00">executeQuery()</text>
<text text-anchor="start" x="28.38" y="-364.5" font-family="Helvetica,sans-Serif" font-size="10.00">+</text>
<text text-anchor="start" x="46.5" y="-364.5" font-family="Helvetica,sans-Serif" font-size="10.00">executeUpdate()</text>
<text text-anchor="start" x="28.38" y="-348.5" font-family="Helvetica,sans-Serif" font-size="10.00">+</text>
<text text-anchor="start" x="46.5" y="-348.5" font-family="Helvetica,sans-Serif" font-size="10.00">set()</text>
<text text-anchor="start" x="28.38" y="-332.5" font-family="Helvetica,sans-Serif" font-size="10.00">+</text>
<text text-anchor="start" x="46.5" y="-332.5" font-family="Helvetica,sans-Serif" font-size="10.00">set()</text>
<text text-anchor="start" x="28.38" y="-316.5" font-family="Helvetica,sans-Serif" font-size="10.00">+</text>
<text text-anchor="start" x="46.5" y="-316.5" font-family="Helvetica,sans-Serif" font-size="10.00">set()</text>
<text text-anchor="start" x="28.38" y="-300.5" font-family="Helvetica,sans-Serif" font-size="10.00">+</text>
<text text-anchor="start" x="46.5" y="-300.5" font-family="Helvetica,sans-Serif" font-size="10.00">set()</text>
<text text-anchor="start" x="28.38" y="-284.5" font-family="Helvetica,sans-Serif" font-size="10.00">+</text>
<text text-anchor="start" x="46.5" y="-284.5" font-family="Helvetica,sans-Serif" font-size="10.00">set()</text>
<text text-anchor="start" x="28.38" y="-268.5" font-family="Helvetica,sans-Serif" font-size="10.00">+</text>
<text text-anchor="start" x="46.5" y="-268.5" font-family="Helvetica,sans-Serif" font-size="10.00">set()</text>
<text text-anchor="start" x="28.38" y="-252.5" font-family="Helvetica,sans-Serif" font-size="10.00">+</text>
<text text-anchor="start" x="46.5" y="-252.5" font-family="Helvetica,sans-Serif" font-size="10.00">set()</text>
<text text-anchor="start" x="28.38" y="-236.5" font-family="Helvetica,sans-Serif" font-size="10.00">+</text>
<text text-anchor="start" x="46.5" y="-236.5" font-family="Helvetica,sans-Serif" font-size="10.00">set()</text>
<text text-anchor="start" x="28.38" y="-220.5" font-family="Helvetica,sans-Serif" font-size="10.00">+</text>
<text text-anchor="start" x="46.5" y="-220.5" font-family="Helvetica,sans-Serif" font-size="10.00">set()</text>
<text text-anchor="start" x="28.38" y="-204.5" font-family="Helvetica,sans-Serif" font-size="10.00">+</text>
<text text-anchor="start" x="46.5" y="-204.5" font-family="Helvetica,sans-Serif" font-size="10.00">set()</text>
<text text-anchor="start" x="28.38" y="-188.5" font-family="Helvetica,sans-Serif" font-size="10.00">+</text>
<text text-anchor="start" x="46.5" y="-188.5" font-family="Helvetica,sans-Serif" font-size="10.00">set()</text>
<text text-anchor="start" x="28.38" y="-172.5" font-family="Helvetica,sans-Serif" font-size="10.00">#</text>
<text text-anchor="start" x="46.5" y="-172.5" font-family="Helvetica,sans-Serif" font-size="10.00">getPlaceholders()</text>
<text text-anchor="start" x="28.38" y="-156.5" font-family="Helvetica,sans-Serif" font-size="10.00">#</text>
<text text-anchor="start" x="46.5" y="-156.5" font-family="Helvetica,sans-Serif" font-size="10.00">checkIndex()</text>
<polygon fill="#666666" stroke="#666666" points="18.5,-440 18.5,-440 172.5,-440 172.5,-440 18.5,-440"/>
<polygon fill="#666666" stroke="#666666" points="18.5,-424 18.5,-424 44.5,-424 44.5,-424 18.5,-424"/>
<polygon fill="#666666" stroke="#666666" points="44.5,-424 44.5,-424 172.5,-424 172.5,-424 44.5,-424"/>
<polygon fill="none" stroke="#666666" points="18.5,-150 18.5,-458 172.5,-458 172.5,-150 18.5,-150"/>
</a>
</g>
</g>
<!-- Node2&#45;&gt;Node1 -->
<g id="edge1_Node000001_Node000002" class="edge">
<title>Node2&#45;&gt;Node1</title>
<g id="a_edge1_Node000001_Node000002"><a xlink:title=" ">
<path fill="none" stroke="#63b8ff" d="M95.5,-139.04C95.5,-129.92 95.5,-121.14 95.5,-112.95"/>
<polygon fill="none" stroke="#63b8ff" points="92,-138.8 95.5,-148.8 99,-138.8 92,-138.8"/>
</a>
</g>
</g>
<!-- Node3 -->
<g id="Node000003" class="node">
<title>Node3</title>
<g id="a_Node000003"><a xlink:title=" ">
<polygon fill="white" stroke="none" points="147.5,-571.75 43.5,-571.75 43.5,-506.75 147.5,-506.75 147.5,-571.75"/>
<text text-anchor="start" x="48.25" y="-558.25" font-family="Helvetica,sans-Serif" font-size="10.00">std::map&lt; std::size</text>
<text text-anchor="start" x="58" y="-545.5" font-family="Helvetica,sans-Serif" font-size="10.00">_t, std::string &gt;</text>
<text text-anchor="start" x="62.88" y="-529.25" font-family="Helvetica,sans-Serif" font-size="10.00">+</text>
<text text-anchor="start" x="90.5" y="-529.25" font-family="Helvetica,sans-Serif" font-size="10.00">keys</text>
<text text-anchor="start" x="94" y="-513.25" font-family="Helvetica,sans-Serif" font-size="10.00"> </text>
<polygon fill="#666666" stroke="#666666" points="43.5,-540.75 43.5,-540.75 147.5,-540.75 147.5,-540.75 43.5,-540.75"/>
<polygon fill="#666666" stroke="#666666" points="43.5,-524.75 43.5,-524.75 88.5,-524.75 88.5,-524.75 43.5,-524.75"/>
<polygon fill="#666666" stroke="#666666" points="88.5,-524.75 88.5,-524.75 147.5,-524.75 147.5,-524.75 88.5,-524.75"/>
<polygon fill="none" stroke="#666666" points="43.5,-506.75 43.5,-571.75 147.5,-571.75 147.5,-506.75 43.5,-506.75"/>
</a>
</g>
</g>
<!-- Node3&#45;&gt;Node2 -->
<g id="edge2_Node000002_Node000003" class="edge">
<title>Node3&#45;&gt;Node2</title>
<g id="a_edge2_Node000002_Node000003"><a xlink:title=" ">
<path fill="none" stroke="#63b8ff" d="M95.5,-506.79C95.5,-496.37 95.5,-483.95 95.5,-470.46"/>
<polygon fill="none" stroke="#63b8ff" points="95.5,-470.71 91.5,-464.71 95.5,-458.71 99.5,-464.71 95.5,-470.71"/>
</a>
</g>
<text text-anchor="middle" x="119.88" y="-479.25" font-family="Helvetica,sans-Serif" font-size="10.00" fill="grey"> #_values</text>
</g>
<!-- Node4 -->
<g id="Node000004" class="node">
<title>Node4</title>
<g id="a_Node000004"><a xlink:title=" ">
<polygon fill="white" stroke="none" points="77.5,-685.25 19.5,-685.25 19.5,-633.25 77.5,-633.25 77.5,-685.25"/>
<text text-anchor="start" x="24.12" y="-671.75" font-family="Helvetica,sans-Serif" font-size="10.00">std::string</text>
<text text-anchor="start" x="47" y="-655.75" font-family="Helvetica,sans-Serif" font-size="10.00"> </text>
<text text-anchor="start" x="47" y="-639.75" font-family="Helvetica,sans-Serif" font-size="10.00"> </text>
<polygon fill="#666666" stroke="#666666" points="19.5,-667.25 19.5,-667.25 77.5,-667.25 77.5,-667.25 19.5,-667.25"/>
<polygon fill="#666666" stroke="#666666" points="19.5,-651.25 19.5,-651.25 77.5,-651.25 77.5,-651.25 19.5,-651.25"/>
<polygon fill="none" stroke="#666666" points="19.5,-633.25 19.5,-685.25 77.5,-685.25 77.5,-633.25 19.5,-633.25"/>
</a>
</g>
</g>
<!-- Node4&#45;&gt;Node3 -->
<g id="edge3_Node000003_Node000004" class="edge">
<title>Node4&#45;&gt;Node3</title>
<g id="a_edge3_Node000003_Node000004"><a xlink:title=" ">
<path fill="none" stroke="#63b8ff" d="M49.68,-633.39C51.01,-620.04 53.77,-603.54 59.5,-589.75 60.46,-587.43 61.56,-585.12 62.75,-582.83"/>
<polygon fill="none" stroke="#63b8ff" points="62.77,-582.79 62.39,-575.59 68.89,-572.47 69.27,-579.67 62.77,-582.79"/>
</a>
</g>
<text text-anchor="middle" x="88" y="-599.38" font-family="Helvetica,sans-Serif" font-size="10.00" fill="grey"> +elements</text>
</g>
<!-- Node5 -->
<g id="Node000005" class="node">
<title>Node5</title>
<g id="a_Node000005"><a xlink:title=" ">
<polygon fill="white" stroke="none" points="97,-799 0,-799 0,-734 97,-734 97,-799"/>
<text text-anchor="start" x="4.62" y="-785.5" font-family="Helvetica,sans-Serif" font-size="10.00">std::basic_string&lt;</text>
<text text-anchor="start" x="30.12" y="-772.75" font-family="Helvetica,sans-Serif" font-size="10.00"> Char &gt;</text>
<text text-anchor="start" x="47" y="-756.5" font-family="Helvetica,sans-Serif" font-size="10.00"> </text>
<text text-anchor="start" x="47" y="-740.5" font-family="Helvetica,sans-Serif" font-size="10.00"> </text>
<polygon fill="#666666" stroke="#666666" points="0,-768 0,-768 97,-768 97,-768 0,-768"/>
<polygon fill="#666666" stroke="#666666" points="0,-752 0,-752 97,-752 97,-752 0,-752"/>
<polygon fill="none" stroke="#666666" points="0,-734 0,-799 97,-799 97,-734 0,-734"/>
</a>
</g>
</g>
<!-- Node5&#45;&gt;Node4 -->
<g id="edge4_Node000004_Node000005" class="edge">
<title>Node5&#45;&gt;Node4</title>
<g id="a_edge4_Node000004_Node000005"><a xlink:title=" ">
<path fill="none" stroke="#63b8ff" d="M48.5,-722.72C48.5,-709.85 48.5,-696.18 48.5,-684.91"/>
<polygon fill="none" stroke="#63b8ff" points="45,-722.69 48.5,-732.69 52,-722.69 45,-722.69"/>
</a>
</g>
</g>
<!-- Node6 -->
<g id="Node000006" class="node">
<title>Node6</title>
<g id="a_Node000006"><a xlink:title=" ">
<polygon fill="white" stroke="none" points="189.5,-685.25 95.5,-685.25 95.5,-633.25 189.5,-633.25 189.5,-685.25"/>
<text text-anchor="start" x="100.5" y="-671.75" font-family="Helvetica,sans-Serif" font-size="10.00">std::map&lt; K, T &gt;</text>
<text text-anchor="start" x="141" y="-655.75" font-family="Helvetica,sans-Serif" font-size="10.00"> </text>
<text text-anchor="start" x="141" y="-639.75" font-family="Helvetica,sans-Serif" font-size="10.00"> </text>
<polygon fill="#666666" stroke="#666666" points="95.5,-667.25 95.5,-667.25 189.5,-667.25 189.5,-667.25 95.5,-667.25"/>
<polygon fill="#666666" stroke="#666666" points="95.5,-651.25 95.5,-651.25 189.5,-651.25 189.5,-651.25 95.5,-651.25"/>
<polygon fill="none" stroke="#666666" points="95.5,-633.25 95.5,-685.25 189.5,-685.25 189.5,-633.25 95.5,-633.25"/>
</a>
</g>
</g>
<!-- Node6&#45;&gt;Node3 -->
<g id="edge5_Node000003_Node000006" class="edge">
<title>Node6&#45;&gt;Node3</title>
<g id="a_edge5_Node000003_Node000006"><a xlink:title=" ">
<path fill="none" stroke="orange" d="M129.34,-622.79C125.3,-612.13 120.79,-600.44 116.5,-589.75 114.13,-583.86 111.54,-577.61 109.01,-571.6"/>
<polygon fill="orange" stroke="orange" points="126.01,-623.89 132.81,-632.01 132.56,-621.42 126.01,-623.89"/>
</a>
</g>
<text text-anchor="start" x="126.04" y="-605.75" font-family="Helvetica,sans-Serif" font-size="10.00" fill="grey"> &lt; std::size_t, std</text>
<text text-anchor="middle" x="168.42" y="-593" font-family="Helvetica,sans-Serif" font-size="10.00" fill="grey">::string &gt;</text>
</g>
<!-- Node7 -->
<g id="Node000007" class="node">
<title>Node7</title>
<g id="a_Node000007"><a xlink:title=" ">
<polygon fill="white" stroke="none" points="140.5,-792.5 124.5,-792.5 124.5,-740.5 140.5,-740.5 140.5,-792.5"/>
<text text-anchor="start" x="129.12" y="-779" font-family="Helvetica,sans-Serif" font-size="10.00">K</text>
<text text-anchor="start" x="131" y="-763" font-family="Helvetica,sans-Serif" font-size="10.00"> </text>
<text text-anchor="start" x="131" y="-747" font-family="Helvetica,sans-Serif" font-size="10.00"> </text>
<polygon fill="#bfbfbf" stroke="#bfbfbf" points="124.5,-774.5 124.5,-774.5 140.5,-774.5 140.5,-774.5 124.5,-774.5"/>
<polygon fill="#bfbfbf" stroke="#bfbfbf" points="124.5,-758.5 124.5,-758.5 140.5,-758.5 140.5,-758.5 124.5,-758.5"/>
<polygon fill="none" stroke="#bfbfbf" points="124.5,-740.5 124.5,-792.5 140.5,-792.5 140.5,-740.5 124.5,-740.5"/>
</a>
</g>
</g>
<!-- Node7&#45;&gt;Node6 -->
<g id="edge6_Node000006_Node000007" class="edge">
<title>Node7&#45;&gt;Node6</title>
<g id="a_edge6_Node000006_Node000007"><a xlink:title=" ">
<path fill="none" stroke="#63b8ff" d="M131.97,-740.59C132,-729.18 132.39,-715.5 133.75,-703.25 133.94,-701.5 134.18,-699.71 134.43,-697.91"/>
<polygon fill="none" stroke="#63b8ff" points="134.44,-697.85 131.52,-691.26 136.49,-686.03 139.41,-692.62 134.44,-697.85"/>
</a>
</g>
<text text-anchor="middle" x="150.62" y="-706.5" font-family="Helvetica,sans-Serif" font-size="10.00" fill="grey"> +keys</text>
</g>
<!-- Node8 -->
<g id="Node000008" class="node">
<title>Node8</title>
<g id="a_Node000008"><a xlink:title=" ">
<polygon fill="white" stroke="none" points="197.5,-792.5 181.5,-792.5 181.5,-740.5 197.5,-740.5 197.5,-792.5"/>
<text text-anchor="start" x="186.5" y="-779" font-family="Helvetica,sans-Serif" font-size="10.00">T</text>
<text text-anchor="start" x="188" y="-763" font-family="Helvetica,sans-Serif" font-size="10.00"> </text>
<text text-anchor="start" x="188" y="-747" font-family="Helvetica,sans-Serif" font-size="10.00"> </text>
<polygon fill="#bfbfbf" stroke="#bfbfbf" points="181.5,-774.5 181.5,-774.5 197.5,-774.5 197.5,-774.5 181.5,-774.5"/>
<polygon fill="#bfbfbf" stroke="#bfbfbf" points="181.5,-758.5 181.5,-758.5 197.5,-758.5 197.5,-758.5 181.5,-758.5"/>
<polygon fill="none" stroke="#bfbfbf" points="181.5,-740.5 181.5,-792.5 197.5,-792.5 197.5,-740.5 181.5,-740.5"/>
</a>
</g>
</g>
<!-- Node8&#45;&gt;Node6 -->
<g id="edge7_Node000006_Node000008" class="edge">
<title>Node8&#45;&gt;Node6</title>
<g id="a_edge7_Node000006_Node000008"><a xlink:title=" ">
<path fill="none" stroke="#63b8ff" d="M181.87,-740.54C178.03,-728.99 173.03,-715.21 167.5,-703.25 166.44,-700.96 165.3,-698.63 164.1,-696.3"/>
<polygon fill="none" stroke="#63b8ff" points="164.03,-696.17 157.64,-692.81 158.28,-685.63 164.67,-688.98 164.03,-696.17"/>
</a>
</g>
<text text-anchor="middle" x="201" y="-706.5" font-family="Helvetica,sans-Serif" font-size="10.00" fill="grey"> +elements</text>
</g>
</g>
</svg>
