<?xml version="1.0" encoding="UTF-8" standalone="no"?>
<!DOCTYPE svg PUBLIC "-//W3C//DTD SVG 1.1//EN"
 "http://www.w3.org/Graphics/SVG/1.1/DTD/svg11.dtd">
<!-- Generated by graphviz version 14.0.4 (0)
 -->
<!-- Title: anch::network::TcpStream Pages: 1 -->
<svg width="374pt" height="910pt"
 viewBox="0.00 0.00 374.00 910.00" xmlns="http://www.w3.org/2000/svg" xmlns:xlink="http://www.w3.org/1999/xlink">
<g id="graph0" class="graph" transform="scale(1 1) rotate(0) translate(4 906)">
<title>anch::network::TcpStream</title>
<!-- Node1 -->
<g id="Node000001" class="node">
<title>Node1</title>
<g id="a_Node000001"><a xlink:title=" ">
<polygon fill="#999999" stroke="none" points="254.25,-84 131.5,-84 131.5,0 254.25,0 254.25,-84"/>
<text xml:space="preserve" text-anchor="start" x="135.5" y="-70.5" font-family="Helvetica,sans-Serif" font-size="10.00">anch::network::TcpStream</text>
<text xml:space="preserve" text-anchor="start" x="191.38" y="-54.5" font-family="Helvetica,sans-Serif" font-size="10.00"> </text>
<text xml:space="preserve" text-anchor="start" x="146.31" y="-38.5" font-family="Helvetica,sans-Serif" font-size="10.00">+</text>
<text xml:space="preserve" text-anchor="start" x="167.12" y="-38.5" font-family="Helvetica,sans-Serif" font-size="10.00">TcpStream()</text>
<text xml:space="preserve" text-anchor="start" x="146.31" y="-22.5" font-family="Helvetica,sans-Serif" font-size="10.00">+</text>
<text xml:space="preserve" text-anchor="start" x="167.12" y="-22.5" font-family="Helvetica,sans-Serif" font-size="10.00">~TcpStream()</text>
<text xml:space="preserve" text-anchor="start" x="146.31" y="-6.5" font-family="Helvetica,sans-Serif" font-size="10.00">+</text>
<text xml:space="preserve" text-anchor="start" x="167.12" y="-6.5" font-family="Helvetica,sans-Serif" font-size="10.00">addObserver()</text>
<polygon fill="#666666" stroke="#666666" points="131.5,-66 131.5,-66 254.25,-66 254.25,-66 131.5,-66"/>
<polygon fill="#666666" stroke="#666666" points="131.5,-50 131.5,-50 254.25,-50 254.25,-50 131.5,-50"/>
<polygon fill="none" stroke="#666666" points="131.5,0 131.5,-84 254.25,-84 254.25,0 131.5,0"/>
</a>
</g>
</g>
<!-- Node2 -->
<g id="Node000002" class="node">
<title>Node2</title>
<g id="a_Node000002"><a xlink:href="classanch_1_1cutils_1_1_c_i_o_stream.html" target="_top" xlink:title=" ">
<polygon fill="white" stroke="none" points="113.75,-246 0,-246 0,-146 113.75,-146 113.75,-246"/>
<text xml:space="preserve" text-anchor="start" x="4" y="-232.5" font-family="Helvetica,sans-Serif" font-size="10.00">anch::cutils::CIOStream</text>
<text xml:space="preserve" text-anchor="start" x="55.38" y="-216.5" font-family="Helvetica,sans-Serif" font-size="10.00"> </text>
<text xml:space="preserve" text-anchor="start" x="12.56" y="-200.5" font-family="Helvetica,sans-Serif" font-size="10.00">+</text>
<text xml:space="preserve" text-anchor="start" x="31.12" y="-200.5" font-family="Helvetica,sans-Serif" font-size="10.00">CIOStream()</text>
<text xml:space="preserve" text-anchor="start" x="12.56" y="-184.5" font-family="Helvetica,sans-Serif" font-size="10.00">+</text>
<text xml:space="preserve" text-anchor="start" x="31.12" y="-184.5" font-family="Helvetica,sans-Serif" font-size="10.00">~CIOStream()</text>
<text xml:space="preserve" text-anchor="start" x="12.94" y="-168.5" font-family="Helvetica,sans-Serif" font-size="10.00">#</text>
<text xml:space="preserve" text-anchor="start" x="31.12" y="-168.5" font-family="Helvetica,sans-Serif" font-size="10.00">CIOStream()</text>
<text xml:space="preserve" text-anchor="start" x="12.94" y="-152.5" font-family="Helvetica,sans-Serif" font-size="10.00">#</text>
<text xml:space="preserve" text-anchor="start" x="31.12" y="-152.5" font-family="Helvetica,sans-Serif" font-size="10.00">setBuffer()</text>
<polygon fill="#666666" stroke="#666666" points="0,-228 0,-228 113.75,-228 113.75,-228 0,-228"/>
<polygon fill="#666666" stroke="#666666" points="0,-212 0,-212 113.75,-212 113.75,-212 0,-212"/>
<polygon fill="none" stroke="#666666" points="0,-146 0,-246 113.75,-246 113.75,-146 0,-146"/>
</a>
</g>
</g>
<!-- Node2&#45;&gt;Node1 -->
<g id="edge1_Node000001_Node000002" class="edge">
<title>Node2&#45;&gt;Node1</title>
<g id="a_edge1_Node000001_Node000002"><a xlink:title=" ">
<path fill="none" stroke="#63b8ff" d="M107.96,-137.91C124.09,-119.88 141.57,-100.34 156.46,-83.7"/>
<polygon fill="none" stroke="#63b8ff" points="105.72,-135.16 101.66,-144.94 110.94,-139.82 105.72,-135.16"/>
</a>
</g>
</g>
<!-- Node3 -->
<g id="Node000003" class="node">
<title>Node3</title>
<g id="a_Node000003"><a xlink:title=" ">
<polygon fill="white" stroke="none" points="89.38,-447 24.38,-447 24.38,-395 89.38,-395 89.38,-447"/>
<text xml:space="preserve" text-anchor="start" x="28.38" y="-433.5" font-family="Helvetica,sans-Serif" font-size="10.00">std::iostream</text>
<text xml:space="preserve" text-anchor="start" x="55.38" y="-417.5" font-family="Helvetica,sans-Serif" font-size="10.00"> </text>
<text xml:space="preserve" text-anchor="start" x="55.38" y="-401.5" font-family="Helvetica,sans-Serif" font-size="10.00"> </text>
<polygon fill="#bfbfbf" stroke="#bfbfbf" points="24.38,-429 24.38,-429 89.38,-429 89.38,-429 24.38,-429"/>
<polygon fill="#bfbfbf" stroke="#bfbfbf" points="24.38,-413 24.38,-413 89.38,-413 89.38,-413 24.38,-413"/>
<polygon fill="none" stroke="#bfbfbf" points="24.38,-395 24.38,-447 89.38,-447 89.38,-395 24.38,-395"/>
</a>
</g>
</g>
<!-- Node3&#45;&gt;Node2 -->
<g id="edge2_Node000002_Node000003" class="edge">
<title>Node3&#45;&gt;Node2</title>
<g id="a_edge2_Node000002_Node000003"><a xlink:title=" ">
<path fill="none" stroke="#63b8ff" d="M56.88,-383.9C56.88,-346.37 56.88,-287.38 56.88,-245.73"/>
<polygon fill="none" stroke="#63b8ff" points="53.38,-383.77 56.88,-393.77 60.38,-383.77 53.38,-383.77"/>
</a>
</g>
</g>
<!-- Node4 -->
<g id="Node000004" class="node">
<title>Node4</title>
<g id="a_Node000004"><a xlink:href="classanch_1_1network_1_1_tcp_socket.html" target="_top" xlink:title=" ">
<polygon fill="white" stroke="none" points="253.88,-254 131.88,-254 131.88,-138 253.88,-138 253.88,-254"/>
<text xml:space="preserve" text-anchor="start" x="135.88" y="-240.5" font-family="Helvetica,sans-Serif" font-size="10.00">anch::network::TcpSocket</text>
<text xml:space="preserve" text-anchor="start" x="191.38" y="-224.5" font-family="Helvetica,sans-Serif" font-size="10.00"> </text>
<text xml:space="preserve" text-anchor="start" x="147.25" y="-208.5" font-family="Helvetica,sans-Serif" font-size="10.00">+</text>
<text xml:space="preserve" text-anchor="start" x="168.62" y="-208.5" font-family="Helvetica,sans-Serif" font-size="10.00">TcpSocket()</text>
<text xml:space="preserve" text-anchor="start" x="147.25" y="-192.5" font-family="Helvetica,sans-Serif" font-size="10.00">+</text>
<text xml:space="preserve" text-anchor="start" x="168.62" y="-192.5" font-family="Helvetica,sans-Serif" font-size="10.00">TcpSocket()</text>
<text xml:space="preserve" text-anchor="start" x="147.25" y="-176.5" font-family="Helvetica,sans-Serif" font-size="10.00">+</text>
<text xml:space="preserve" text-anchor="start" x="168.62" y="-176.5" font-family="Helvetica,sans-Serif" font-size="10.00">~TcpSocket()</text>
<text xml:space="preserve" text-anchor="start" x="147.25" y="-160.5" font-family="Helvetica,sans-Serif" font-size="10.00">+</text>
<text xml:space="preserve" text-anchor="start" x="168.62" y="-160.5" font-family="Helvetica,sans-Serif" font-size="10.00">send()</text>
<text xml:space="preserve" text-anchor="start" x="147.25" y="-144.5" font-family="Helvetica,sans-Serif" font-size="10.00">+</text>
<text xml:space="preserve" text-anchor="start" x="168.62" y="-144.5" font-family="Helvetica,sans-Serif" font-size="10.00">receive()</text>
<polygon fill="#666666" stroke="#666666" points="131.88,-236 131.88,-236 253.88,-236 253.88,-236 131.88,-236"/>
<polygon fill="#666666" stroke="#666666" points="131.88,-220 131.88,-220 253.88,-220 253.88,-220 131.88,-220"/>
<polygon fill="none" stroke="#666666" points="131.88,-138 131.88,-254 253.88,-254 253.88,-138 131.88,-138"/>
</a>
</g>
</g>
<!-- Node4&#45;&gt;Node1 -->
<g id="edge3_Node000001_Node000004" class="edge">
<title>Node4&#45;&gt;Node1</title>
<g id="a_edge3_Node000001_Node000004"><a xlink:title=" ">
<path fill="none" stroke="#63b8ff" d="M192.88,-138.4C192.88,-124.85 192.88,-110.43 192.88,-97"/>
<polygon fill="none" stroke="#63b8ff" points="192.88,-96.88 188.88,-90.88 192.88,-84.88 196.88,-90.88 192.88,-96.88"/>
</a>
</g>
<text xml:space="preserve" text-anchor="start" x="195.88" y="-107.5" font-family="Helvetica,sans-Serif" font-size="10.00" fill="grey">#_socket</text>
</g>
<!-- Node5 -->
<g id="Node000005" class="node">
<title>Node5</title>
<g id="a_Node000005"><a xlink:href="classanch_1_1network_1_1_socket.html" target="_top" xlink:title=" ">
<polygon fill="white" stroke="none" points="246,-551 139.75,-551 139.75,-291 246,-291 246,-551"/>
<text xml:space="preserve" text-anchor="start" x="143.75" y="-537.5" font-family="Helvetica,sans-Serif" font-size="10.00">anch::network::Socket</text>
<text xml:space="preserve" text-anchor="start" x="150.62" y="-521.5" font-family="Helvetica,sans-Serif" font-size="10.00">#</text>
<text xml:space="preserve" text-anchor="start" x="166.75" y="-521.5" font-family="Helvetica,sans-Serif" font-size="10.00">_sock</text>
<text xml:space="preserve" text-anchor="start" x="150.62" y="-505.5" font-family="Helvetica,sans-Serif" font-size="10.00">#</text>
<text xml:space="preserve" text-anchor="start" x="166.75" y="-505.5" font-family="Helvetica,sans-Serif" font-size="10.00">_backlog</text>
<text xml:space="preserve" text-anchor="start" x="150.62" y="-489.5" font-family="Helvetica,sans-Serif" font-size="10.00">#</text>
<text xml:space="preserve" text-anchor="start" x="166.75" y="-489.5" font-family="Helvetica,sans-Serif" font-size="10.00">_address</text>
<text xml:space="preserve" text-anchor="start" x="150.25" y="-473.5" font-family="Helvetica,sans-Serif" font-size="10.00">+</text>
<text xml:space="preserve" text-anchor="start" x="166.75" y="-473.5" font-family="Helvetica,sans-Serif" font-size="10.00">Socket()</text>
<text xml:space="preserve" text-anchor="start" x="150.25" y="-457.5" font-family="Helvetica,sans-Serif" font-size="10.00">+</text>
<text xml:space="preserve" text-anchor="start" x="166.75" y="-457.5" font-family="Helvetica,sans-Serif" font-size="10.00">~Socket()</text>
<text xml:space="preserve" text-anchor="start" x="150.25" y="-441.5" font-family="Helvetica,sans-Serif" font-size="10.00">+</text>
<text xml:space="preserve" text-anchor="start" x="166.75" y="-441.5" font-family="Helvetica,sans-Serif" font-size="10.00">bind()</text>
<text xml:space="preserve" text-anchor="start" x="150.25" y="-425.5" font-family="Helvetica,sans-Serif" font-size="10.00">+</text>
<text xml:space="preserve" text-anchor="start" x="166.75" y="-425.5" font-family="Helvetica,sans-Serif" font-size="10.00">connect()</text>
<text xml:space="preserve" text-anchor="start" x="150.25" y="-409.5" font-family="Helvetica,sans-Serif" font-size="10.00">+</text>
<text xml:space="preserve" text-anchor="start" x="166.75" y="-409.5" font-family="Helvetica,sans-Serif" font-size="10.00">listen()</text>
<text xml:space="preserve" text-anchor="start" x="150.25" y="-393.5" font-family="Helvetica,sans-Serif" font-size="10.00">+</text>
<text xml:space="preserve" text-anchor="start" x="166.75" y="-393.5" font-family="Helvetica,sans-Serif" font-size="10.00">accept()</text>
<text xml:space="preserve" text-anchor="start" x="150.25" y="-377.5" font-family="Helvetica,sans-Serif" font-size="10.00">+</text>
<text xml:space="preserve" text-anchor="start" x="166.75" y="-377.5" font-family="Helvetica,sans-Serif" font-size="10.00">send()</text>
<text xml:space="preserve" text-anchor="start" x="150.25" y="-361.5" font-family="Helvetica,sans-Serif" font-size="10.00">+</text>
<text xml:space="preserve" text-anchor="start" x="166.75" y="-361.5" font-family="Helvetica,sans-Serif" font-size="10.00">receive()</text>
<text xml:space="preserve" text-anchor="start" x="150.25" y="-345.5" font-family="Helvetica,sans-Serif" font-size="10.00">+</text>
<text xml:space="preserve" text-anchor="start" x="166.75" y="-345.5" font-family="Helvetica,sans-Serif" font-size="10.00">receive()</text>
<text xml:space="preserve" text-anchor="start" x="150.25" y="-329.5" font-family="Helvetica,sans-Serif" font-size="10.00">+</text>
<text xml:space="preserve" text-anchor="start" x="166.75" y="-329.5" font-family="Helvetica,sans-Serif" font-size="10.00">shutdown()</text>
<text xml:space="preserve" text-anchor="start" x="166.75" y="-313.5" font-family="Helvetica,sans-Serif" font-size="10.00">and 11 more...</text>
<text xml:space="preserve" text-anchor="start" x="150.62" y="-297.5" font-family="Helvetica,sans-Serif" font-size="10.00">#</text>
<text xml:space="preserve" text-anchor="start" x="166.75" y="-297.5" font-family="Helvetica,sans-Serif" font-size="10.00">Socket()</text>
<polygon fill="#666666" stroke="#666666" points="139.75,-533 139.75,-533 246,-533 246,-533 139.75,-533"/>
<polygon fill="#666666" stroke="#666666" points="139.75,-485 139.75,-485 164.75,-485 164.75,-485 139.75,-485"/>
<polygon fill="#666666" stroke="#666666" points="164.75,-485 164.75,-485 246,-485 246,-485 164.75,-485"/>
<polygon fill="none" stroke="#666666" points="139.75,-291 139.75,-551 246,-551 246,-291 139.75,-291"/>
</a>
</g>
</g>
<!-- Node5&#45;&gt;Node4 -->
<g id="edge4_Node000004_Node000005" class="edge">
<title>Node5&#45;&gt;Node4</title>
<g id="a_edge4_Node000004_Node000005"><a xlink:title=" ">
<path fill="none" stroke="#63b8ff" d="M192.88,-279.74C192.88,-270.76 192.88,-262.04 192.88,-253.84"/>
<polygon fill="none" stroke="#63b8ff" points="189.38,-279.74 192.88,-289.74 196.38,-279.74 189.38,-279.74"/>
</a>
</g>
</g>
<!-- Node6 -->
<g id="Node000006" class="node">
<title>Node6</title>
<g id="a_Node000006"><a xlink:href="classanch_1_1events_1_1_observable.html" target="_top" xlink:title=" ">
<polygon fill="white" stroke="none" points="252.75,-716 133,-716 133,-588 252.75,-588 252.75,-716"/>
<text xml:space="preserve" text-anchor="start" x="137" y="-702.5" font-family="Helvetica,sans-Serif" font-size="10.00">anch::events::Observable</text>
<text xml:space="preserve" text-anchor="start" x="155.75" y="-690.5" font-family="Helvetica,sans-Serif" font-size="10.00">&lt; SocketEvent &gt;</text>
<text xml:space="preserve" text-anchor="start" x="191.38" y="-674.5" font-family="Helvetica,sans-Serif" font-size="10.00"> </text>
<text xml:space="preserve" text-anchor="start" x="142.94" y="-658.5" font-family="Helvetica,sans-Serif" font-size="10.00">+</text>
<text xml:space="preserve" text-anchor="start" x="158.88" y="-658.5" font-family="Helvetica,sans-Serif" font-size="10.00">Observable()</text>
<text xml:space="preserve" text-anchor="start" x="142.94" y="-642.5" font-family="Helvetica,sans-Serif" font-size="10.00">+</text>
<text xml:space="preserve" text-anchor="start" x="158.88" y="-642.5" font-family="Helvetica,sans-Serif" font-size="10.00">~Observable()</text>
<text xml:space="preserve" text-anchor="start" x="142.94" y="-626.5" font-family="Helvetica,sans-Serif" font-size="10.00">+</text>
<text xml:space="preserve" text-anchor="start" x="158.88" y="-626.5" font-family="Helvetica,sans-Serif" font-size="10.00">addObserver()</text>
<text xml:space="preserve" text-anchor="start" x="142.94" y="-610.5" font-family="Helvetica,sans-Serif" font-size="10.00">+</text>
<text xml:space="preserve" text-anchor="start" x="158.88" y="-610.5" font-family="Helvetica,sans-Serif" font-size="10.00">removeObserver()</text>
<text xml:space="preserve" text-anchor="start" x="142.94" y="-594.5" font-family="Helvetica,sans-Serif" font-size="10.00">+</text>
<text xml:space="preserve" text-anchor="start" x="158.88" y="-594.5" font-family="Helvetica,sans-Serif" font-size="10.00">notifyObservers()</text>
<polygon fill="#666666" stroke="#666666" points="133,-686 133,-686 252.75,-686 252.75,-686 133,-686"/>
<polygon fill="#666666" stroke="#666666" points="133,-670 133,-670 252.75,-670 252.75,-670 133,-670"/>
<polygon fill="none" stroke="#666666" points="133,-588 133,-716 252.75,-716 252.75,-588 133,-588"/>
</a>
</g>
</g>
<!-- Node6&#45;&gt;Node5 -->
<g id="edge5_Node000005_Node000006" class="edge">
<title>Node6&#45;&gt;Node5</title>
<g id="a_edge5_Node000005_Node000006"><a xlink:title=" ">
<path fill="none" stroke="#63b8ff" d="M192.88,-576.82C192.88,-568.37 192.88,-559.58 192.88,-550.68"/>
<polygon fill="none" stroke="#63b8ff" points="189.38,-576.61 192.88,-586.61 196.38,-576.61 189.38,-576.61"/>
</a>
</g>
</g>
<!-- Node7 -->
<g id="Node000007" class="node">
<title>Node7</title>
<g id="a_Node000007"><a xlink:href="classanch_1_1events_1_1_observable.html" target="_top" xlink:title="An observable implementation of the observers/observable design pattern.">
<polygon fill="white" stroke="none" points="264.38,-902 121.38,-902 121.38,-770 264.38,-770 264.38,-902"/>
<text xml:space="preserve" text-anchor="start" x="125.38" y="-888.5" font-family="Helvetica,sans-Serif" font-size="10.00">anch::events::Observable&lt; T &gt;</text>
<text xml:space="preserve" text-anchor="start" x="191.38" y="-872.5" font-family="Helvetica,sans-Serif" font-size="10.00"> </text>
<text xml:space="preserve" text-anchor="start" x="137.12" y="-856.5" font-family="Helvetica,sans-Serif" font-size="10.00">+</text>
<text xml:space="preserve" text-anchor="start" x="158.88" y="-856.5" font-family="Helvetica,sans-Serif" font-size="10.00">Observable()</text>
<text xml:space="preserve" text-anchor="start" x="137.12" y="-840.5" font-family="Helvetica,sans-Serif" font-size="10.00">+</text>
<text xml:space="preserve" text-anchor="start" x="158.88" y="-840.5" font-family="Helvetica,sans-Serif" font-size="10.00">~Observable()</text>
<text xml:space="preserve" text-anchor="start" x="137.12" y="-824.5" font-family="Helvetica,sans-Serif" font-size="10.00">+</text>
<text xml:space="preserve" text-anchor="start" x="158.88" y="-824.5" font-family="Helvetica,sans-Serif" font-size="10.00">addObserver()</text>
<text xml:space="preserve" text-anchor="start" x="137.12" y="-808.5" font-family="Helvetica,sans-Serif" font-size="10.00">+</text>
<text xml:space="preserve" text-anchor="start" x="158.88" y="-808.5" font-family="Helvetica,sans-Serif" font-size="10.00">removeObserver()</text>
<text xml:space="preserve" text-anchor="start" x="137.12" y="-792.5" font-family="Helvetica,sans-Serif" font-size="10.00">+</text>
<text xml:space="preserve" text-anchor="start" x="158.88" y="-792.5" font-family="Helvetica,sans-Serif" font-size="10.00">notifyObservers()</text>
<text xml:space="preserve" text-anchor="start" x="137.12" y="-776.5" font-family="Helvetica,sans-Serif" font-size="10.00">+</text>
<text xml:space="preserve" text-anchor="start" x="158.88" y="-776.5" font-family="Helvetica,sans-Serif" font-size="10.00">notifyObservers()</text>
<polygon fill="#666666" stroke="#666666" points="121.38,-884 121.38,-884 264.38,-884 264.38,-884 121.38,-884"/>
<polygon fill="#666666" stroke="#666666" points="121.38,-868 121.38,-868 264.38,-868 264.38,-868 121.38,-868"/>
<polygon fill="none" stroke="#666666" points="121.38,-770 121.38,-902 264.38,-902 264.38,-770 121.38,-770"/>
</a>
</g>
</g>
<!-- Node7&#45;&gt;Node6 -->
<g id="edge6_Node000006_Node000007" class="edge">
<title>Node7&#45;&gt;Node6</title>
<g id="a_edge6_Node000006_Node000007"><a xlink:title=" ">
<path fill="none" stroke="orange" d="M192.88,-758.73C192.88,-744.42 192.88,-729.61 192.88,-715.77"/>
<polygon fill="orange" stroke="orange" points="189.38,-758.55 192.88,-768.55 196.38,-758.55 189.38,-758.55"/>
</a>
</g>
<text xml:space="preserve" text-anchor="start" x="195.88" y="-739.5" font-family="Helvetica,sans-Serif" font-size="10.00" fill="grey">&lt; SocketEvent &gt;</text>
</g>
<!-- Node8 -->
<g id="Node000008" class="node">
<title>Node8</title>
<g id="a_Node000008"><a xlink:href="structanch_1_1cutils_1_1cbuffer.html" target="_top" xlink:title="C buffer.">
<polygon fill="white" stroke="none" points="365.62,-246 272.12,-246 272.12,-146 365.62,-146 365.62,-246"/>
<text xml:space="preserve" text-anchor="start" x="276.12" y="-232.5" font-family="Helvetica,sans-Serif" font-size="10.00">anch::cutils::cbuffer</text>
<text xml:space="preserve" text-anchor="start" x="289.75" y="-216.5" font-family="Helvetica,sans-Serif" font-size="10.00">+</text>
<text xml:space="preserve" text-anchor="start" x="313.38" y="-216.5" font-family="Helvetica,sans-Serif" font-size="10.00">data</text>
<text xml:space="preserve" text-anchor="start" x="289.75" y="-200.5" font-family="Helvetica,sans-Serif" font-size="10.00">+</text>
<text xml:space="preserve" text-anchor="start" x="313.38" y="-200.5" font-family="Helvetica,sans-Serif" font-size="10.00">size</text>
<text xml:space="preserve" text-anchor="start" x="289.75" y="-184.5" font-family="Helvetica,sans-Serif" font-size="10.00">+</text>
<text xml:space="preserve" text-anchor="start" x="313.38" y="-184.5" font-family="Helvetica,sans-Serif" font-size="10.00">read</text>
<text xml:space="preserve" text-anchor="start" x="289.75" y="-168.5" font-family="Helvetica,sans-Serif" font-size="10.00">+</text>
<text xml:space="preserve" text-anchor="start" x="313.38" y="-168.5" font-family="Helvetica,sans-Serif" font-size="10.00">write</text>
<text xml:space="preserve" text-anchor="start" x="317.38" y="-152.5" font-family="Helvetica,sans-Serif" font-size="10.00"> </text>
<polygon fill="#666666" stroke="#666666" points="272.12,-228 272.12,-228 365.62,-228 365.62,-228 272.12,-228"/>
<polygon fill="#666666" stroke="#666666" points="272.12,-164 272.12,-164 311.38,-164 311.38,-164 272.12,-164"/>
<polygon fill="#666666" stroke="#666666" points="311.38,-164 311.38,-164 365.62,-164 365.62,-164 311.38,-164"/>
<polygon fill="none" stroke="#666666" points="272.12,-146 272.12,-246 365.62,-246 365.62,-146 272.12,-146"/>
</a>
</g>
</g>
<!-- Node8&#45;&gt;Node1 -->
<g id="edge7_Node000001_Node000008" class="edge">
<title>Node8&#45;&gt;Node1</title>
<g id="a_edge7_Node000001_Node000008"><a xlink:title=" ">
<path fill="none" stroke="#63b8ff" d="M279.2,-146.12C267.55,-131.85 254.75,-116.26 242.88,-102 240.58,-99.24 238.22,-96.42 235.83,-93.57"/>
<polygon fill="none" stroke="#63b8ff" points="235.97,-93.74 229.05,-91.72 228.25,-84.55 235.17,-86.57 235.97,-93.74"/>
</a>
</g>
<text xml:space="preserve" text-anchor="start" x="260.53" y="-107.5" font-family="Helvetica,sans-Serif" font-size="10.00" fill="grey">#_buffer</text>
</g>
</g>
</svg>
