<?xml version="1.0" encoding="UTF-8" standalone="no"?>
<!DOCTYPE svg PUBLIC "-//W3C//DTD SVG 1.1//EN"
 "http://www.w3.org/Graphics/SVG/1.1/DTD/svg11.dtd">
<!-- Generated by graphviz version 13.1.2 (0)
 -->
<!-- Title: anch::logger::ThreadSafeWriter Pages: 1 -->
<!--zoomable 718 -->

<svg id="main" version="1.1" xmlns="http://www.w3.org/2000/svg" xmlns:xlink="http://www.w3.org/1999/xlink" xml:space="preserve" onload="init(evt)">

<style type="text/css"><![CDATA[
.node, .edge {opacity: 0.7;}
.node.selected, .edge.selected {opacity: 1;}
.edge:hover path { stroke: red; }
.edge:hover polygon { stroke: red; fill: red; }
]]></style>

<defs>
  <circle id="rim" cx="0" cy="0" r="7"/>
  <circle id="rim2" cx="0" cy="0" r="3.5"/>
  <g id="zoomPlus">
    <use xlink:href="#rim" fill="#404040"><set attributeName="fill" to="#808080" begin="zoomplus.mouseover" end="zoomplus.mouseout"/></use>
    <path d="M-4,0h8M0,-4v8" fill="none" stroke="white" stroke-width="1.5" pointer-events="none"/>
  </g>
  <g id="zoomMin">
    <use xlink:href="#rim" fill="#404040"><set attributeName="fill" to="#808080" begin="zoomminus.mouseover" end="zoomminus.mouseout"/></use>
    <path d="M-4,0h8" fill="none" stroke="white" stroke-width="1.5" pointer-events="none"/>
  </g>
  <g id="arrowUp" transform="translate(30 24)">
    <use xlink:href="#rim"/>
    <path pointer-events="none" fill="none" stroke="white" stroke-width="1.5" d="M0,-3.0v7 M-2.5,-0.5L0,-3.0L2.5,-0.5"/>
  </g>
  <g id="arrowRight" transform="rotate(90) translate(36 -43)">
    <use xlink:href="#rim"/>
    <path pointer-events="none" fill="none" stroke="white" stroke-width="1.5" d="M0,-3.0v7 M-2.5,-0.5L0,-3.0L2.5,-0.5"/>
  </g>
  <g id="arrowDown" transform="rotate(180) translate(-30 -48)">
    <use xlink:href="#rim"/>
    <path pointer-events="none" fill="none" stroke="white" stroke-width="1.5" d="M0,-3.0v7 M-2.5,-0.5L0,-3.0L2.5,-0.5"/>
  </g>
  <g id="arrowLeft" transform="rotate(270) translate(-36 17)">
    <use xlink:href="#rim"/>
    <path pointer-events="none" fill="none" stroke="white" stroke-width="1.5" d="M0,-3.0v7 M-2.5,-0.5L0,-3.0L2.5,-0.5"/>
  </g>
  <g id="resetDef">
    <use xlink:href="#rim2" fill="#404040"><set attributeName="fill" to="#808080" begin="reset.mouseover" end="reset.mouseout"/></use>
  </g>
</defs>
<script type="application/ecmascript">
var viewWidth = 223;
var viewHeight = 718;
var sectionId = 'dynsection-1';
</script>
<script type="application/ecmascript" xlink:href="svg.min.js"/>
<svg id="graph" class="graph">
<g id="viewport">
<title>anch::logger::ThreadSafeWriter</title>
<!-- Node1 -->
<g id="Node000001" class="node">
<title>Node1</title>
<g id="a_Node000001"><a xlink:title=" ">
<polygon fill="#999999" stroke="none" points="164.62,-112 47.12,-112 47.12,0 164.62,0 164.62,-112"/>
<text xml:space="preserve" text-anchor="start" x="51.12" y="-98.5" font-family="Helvetica,sans-Serif" font-size="10.00">anch::logger::ThreadSafe</text>
<text xml:space="preserve" text-anchor="start" x="93.12" y="-86.5" font-family="Helvetica,sans-Serif" font-size="10.00">Writer</text>
<text xml:space="preserve" text-anchor="start" x="104.38" y="-70.5" font-family="Helvetica,sans-Serif" font-size="10.00"> </text>
<text xml:space="preserve" text-anchor="start" x="54.06" y="-54.5" font-family="Helvetica,sans-Serif" font-size="10.00">+</text>
<text xml:space="preserve" text-anchor="start" x="67" y="-54.5" font-family="Helvetica,sans-Serif" font-size="10.00">ThreadSafeWriter()</text>
<text xml:space="preserve" text-anchor="start" x="54.06" y="-38.5" font-family="Helvetica,sans-Serif" font-size="10.00">+</text>
<text xml:space="preserve" text-anchor="start" x="67" y="-38.5" font-family="Helvetica,sans-Serif" font-size="10.00">ThreadSafeWriter()</text>
<text xml:space="preserve" text-anchor="start" x="54.06" y="-22.5" font-family="Helvetica,sans-Serif" font-size="10.00">+</text>
<text xml:space="preserve" text-anchor="start" x="67" y="-22.5" font-family="Helvetica,sans-Serif" font-size="10.00">~ThreadSafeWriter()</text>
<text xml:space="preserve" text-anchor="start" x="54.06" y="-6.5" font-family="Helvetica,sans-Serif" font-size="10.00">+</text>
<text xml:space="preserve" text-anchor="start" x="67" y="-6.5" font-family="Helvetica,sans-Serif" font-size="10.00">write()</text>
<polygon fill="#666666" stroke="#666666" points="47.12,-82 47.12,-82 164.62,-82 164.62,-82 47.12,-82"/>
<polygon fill="#666666" stroke="#666666" points="47.12,-66 47.12,-66 164.62,-66 164.62,-66 47.12,-66"/>
<polygon fill="none" stroke="#666666" points="47.12,0 47.12,-112 164.62,-112 164.62,0 47.12,0"/>
</a>
</g>
</g>
<!-- Node2 -->
<g id="Node000002" class="node">
<title>Node2</title>
<g id="a_Node000002"><a xlink:href="classanch_1_1logger_1_1_writer.html" target="_top" xlink:title=" ">
<polygon fill="white" stroke="none" points="152.25,-281 59.5,-281 59.5,-149 152.25,-149 152.25,-281"/>
<text xml:space="preserve" text-anchor="start" x="63.5" y="-267.5" font-family="Helvetica,sans-Serif" font-size="10.00">anch::logger::Writer</text>
<text xml:space="preserve" text-anchor="start" x="104.38" y="-251.5" font-family="Helvetica,sans-Serif" font-size="10.00"> </text>
<text xml:space="preserve" text-anchor="start" x="69.25" y="-235.5" font-family="Helvetica,sans-Serif" font-size="10.00">+</text>
<text xml:space="preserve" text-anchor="start" x="85" y="-235.5" font-family="Helvetica,sans-Serif" font-size="10.00">Writer()</text>
<text xml:space="preserve" text-anchor="start" x="69.25" y="-219.5" font-family="Helvetica,sans-Serif" font-size="10.00">+</text>
<text xml:space="preserve" text-anchor="start" x="85" y="-219.5" font-family="Helvetica,sans-Serif" font-size="10.00">Writer()</text>
<text xml:space="preserve" text-anchor="start" x="69.25" y="-203.5" font-family="Helvetica,sans-Serif" font-size="10.00">+</text>
<text xml:space="preserve" text-anchor="start" x="85" y="-203.5" font-family="Helvetica,sans-Serif" font-size="10.00">~Writer()</text>
<text xml:space="preserve" text-anchor="start" x="69.25" y="-187.5" font-family="Helvetica,sans-Serif" font-size="10.00">+</text>
<text xml:space="preserve" text-anchor="start" x="85" y="-187.5" font-family="Helvetica,sans-Serif" font-size="10.00">write()</text>
<text xml:space="preserve" text-anchor="start" x="69.62" y="-171.5" font-family="Helvetica,sans-Serif" font-size="10.00">#</text>
<text xml:space="preserve" text-anchor="start" x="85" y="-171.5" font-family="Helvetica,sans-Serif" font-size="10.00">rotate()</text>
<text xml:space="preserve" text-anchor="start" x="69.62" y="-155.5" font-family="Helvetica,sans-Serif" font-size="10.00">#</text>
<text xml:space="preserve" text-anchor="start" x="85" y="-155.5" font-family="Helvetica,sans-Serif" font-size="10.00">rotateFiles()</text>
<polygon fill="#666666" stroke="#666666" points="59.5,-263 59.5,-263 152.25,-263 152.25,-263 59.5,-263"/>
<polygon fill="#666666" stroke="#666666" points="59.5,-247 59.5,-247 152.25,-247 152.25,-247 59.5,-247"/>
<polygon fill="none" stroke="#666666" points="59.5,-149 59.5,-281 152.25,-281 152.25,-149 59.5,-149"/>
</a>
</g>
</g>
<!-- Node2&#45;&gt;Node1 -->
<g id="edge1_Node000001_Node000002" class="edge">
<title>Node2&#45;&gt;Node1</title>
<g id="a_edge1_Node000001_Node000002"><a xlink:title=" ">
<path fill="none" stroke="#63b8ff" d="M105.88,-138.01C105.88,-129.1 105.88,-120.15 105.88,-111.61"/>
<polygon fill="none" stroke="#63b8ff" points="102.38,-137.72 105.88,-147.72 109.38,-137.72 102.38,-137.72"/>
</a>
</g>
</g>
<!-- Node3 -->
<g id="Node000003" class="node">
<title>Node3</title>
<g id="a_Node000003"><a xlink:title=" ">
<polygon fill="white" stroke="none" points="85.25,-409 22.5,-409 22.5,-357 85.25,-357 85.25,-409"/>
<text xml:space="preserve" text-anchor="start" x="26.5" y="-395.5" font-family="Helvetica,sans-Serif" font-size="10.00">std::ostream</text>
<text xml:space="preserve" text-anchor="start" x="52.38" y="-379.5" font-family="Helvetica,sans-Serif" font-size="10.00"> </text>
<text xml:space="preserve" text-anchor="start" x="52.38" y="-363.5" font-family="Helvetica,sans-Serif" font-size="10.00"> </text>
<polygon fill="#666666" stroke="#666666" points="22.5,-391 22.5,-391 85.25,-391 85.25,-391 22.5,-391"/>
<polygon fill="#666666" stroke="#666666" points="22.5,-375 22.5,-375 85.25,-375 85.25,-375 22.5,-375"/>
<polygon fill="none" stroke="#666666" points="22.5,-357 22.5,-409 85.25,-409 85.25,-357 22.5,-357"/>
</a>
</g>
</g>
<!-- Node3&#45;&gt;Node2 -->
<g id="edge2_Node000002_Node000003" class="edge">
<title>Node3&#45;&gt;Node2</title>
<g id="a_edge2_Node000002_Node000003"><a xlink:title=" ">
<path fill="none" stroke="#63b8ff" d="M61.66,-357.15C67.02,-340.05 74.44,-316.34 81.68,-293.23"/>
<polygon fill="none" stroke="#63b8ff" points="81.7,-293.18 79.68,-286.26 85.29,-281.73 87.31,-288.65 81.7,-293.18"/>
</a>
</g>
<text xml:space="preserve" text-anchor="start" x="82.88" y="-304.5" font-family="Helvetica,sans-Serif" font-size="10.00" fill="grey">#_output</text>
</g>
<!-- Node4 -->
<g id="Node000004" class="node">
<title>Node4</title>
<g id="a_Node000004"><a xlink:title=" ">
<polygon fill="white" stroke="none" points="99.5,-532 8.25,-532 8.25,-468 99.5,-468 99.5,-532"/>
<text xml:space="preserve" text-anchor="start" x="12.25" y="-518.5" font-family="Helvetica,sans-Serif" font-size="10.00">std::basic_ostream</text>
<text xml:space="preserve" text-anchor="start" x="34.38" y="-506.5" font-family="Helvetica,sans-Serif" font-size="10.00">&lt; Char &gt;</text>
<text xml:space="preserve" text-anchor="start" x="52.38" y="-490.5" font-family="Helvetica,sans-Serif" font-size="10.00"> </text>
<text xml:space="preserve" text-anchor="start" x="52.38" y="-474.5" font-family="Helvetica,sans-Serif" font-size="10.00"> </text>
<polygon fill="#666666" stroke="#666666" points="8.25,-502 8.25,-502 99.5,-502 99.5,-502 8.25,-502"/>
<polygon fill="#666666" stroke="#666666" points="8.25,-486 8.25,-486 99.5,-486 99.5,-486 8.25,-486"/>
<polygon fill="none" stroke="#666666" points="8.25,-468 8.25,-532 99.5,-532 99.5,-468 8.25,-468"/>
</a>
</g>
</g>
<!-- Node4&#45;&gt;Node3 -->
<g id="edge3_Node000003_Node000004" class="edge">
<title>Node4&#45;&gt;Node3</title>
<g id="a_edge3_Node000003_Node000004"><a xlink:title=" ">
<path fill="none" stroke="#63b8ff" d="M53.88,-456.8C53.88,-440.63 53.88,-422.72 53.88,-408.71"/>
<polygon fill="none" stroke="#63b8ff" points="50.38,-456.67 53.88,-466.67 57.38,-456.67 50.38,-456.67"/>
</a>
</g>
</g>
<!-- Node5 -->
<g id="Node000005" class="node">
<title>Node5</title>
<g id="a_Node000005"><a xlink:title=" ">
<polygon fill="white" stroke="none" points="107.75,-621 0,-621 0,-569 107.75,-569 107.75,-621"/>
<text xml:space="preserve" text-anchor="start" x="4" y="-607.5" font-family="Helvetica,sans-Serif" font-size="10.00">std::basic_ios&lt; Char &gt;</text>
<text xml:space="preserve" text-anchor="start" x="52.38" y="-591.5" font-family="Helvetica,sans-Serif" font-size="10.00"> </text>
<text xml:space="preserve" text-anchor="start" x="52.38" y="-575.5" font-family="Helvetica,sans-Serif" font-size="10.00"> </text>
<polygon fill="#666666" stroke="#666666" points="0,-603 0,-603 107.75,-603 107.75,-603 0,-603"/>
<polygon fill="#666666" stroke="#666666" points="0,-587 0,-587 107.75,-587 107.75,-587 0,-587"/>
<polygon fill="none" stroke="#666666" points="0,-569 0,-621 107.75,-621 107.75,-569 0,-569"/>
</a>
</g>
</g>
<!-- Node5&#45;&gt;Node4 -->
<g id="edge4_Node000004_Node000005" class="edge">
<title>Node5&#45;&gt;Node4</title>
<g id="a_edge4_Node000004_Node000005"><a xlink:title=" ">
<path fill="none" stroke="#63b8ff" d="M53.88,-557.85C53.88,-549.3 53.88,-540.27 53.88,-531.98"/>
<polygon fill="none" stroke="#63b8ff" points="50.38,-557.56 53.88,-567.56 57.38,-557.56 50.38,-557.56"/>
</a>
</g>
</g>
<!-- Node6 -->
<g id="Node000006" class="node">
<title>Node6</title>
<g id="a_Node000006"><a xlink:title=" ">
<polygon fill="white" stroke="none" points="87.12,-710 20.62,-710 20.62,-658 87.12,-658 87.12,-710"/>
<text xml:space="preserve" text-anchor="start" x="24.62" y="-696.5" font-family="Helvetica,sans-Serif" font-size="10.00">std::ios_base</text>
<text xml:space="preserve" text-anchor="start" x="52.38" y="-680.5" font-family="Helvetica,sans-Serif" font-size="10.00"> </text>
<text xml:space="preserve" text-anchor="start" x="52.38" y="-664.5" font-family="Helvetica,sans-Serif" font-size="10.00"> </text>
<polygon fill="#666666" stroke="#666666" points="20.62,-692 20.62,-692 87.12,-692 87.12,-692 20.62,-692"/>
<polygon fill="#666666" stroke="#666666" points="20.62,-676 20.62,-676 87.12,-676 87.12,-676 20.62,-676"/>
<polygon fill="none" stroke="#666666" points="20.62,-658 20.62,-710 87.12,-710 87.12,-658 20.62,-658"/>
</a>
</g>
</g>
<!-- Node6&#45;&gt;Node5 -->
<g id="edge5_Node000005_Node000006" class="edge">
<title>Node6&#45;&gt;Node5</title>
<g id="a_edge5_Node000005_Node000006"><a xlink:title=" ">
<path fill="none" stroke="#63b8ff" d="M53.88,-647.05C53.88,-638.21 53.88,-628.94 53.88,-620.76"/>
<polygon fill="none" stroke="#63b8ff" points="50.38,-646.79 53.88,-656.79 57.38,-646.79 50.38,-646.79"/>
</a>
</g>
</g>
<!-- Node7 -->
<g id="Node000007" class="node">
<title>Node7</title>
<g id="a_Node000007"><a xlink:href="classanch_1_1logger_1_1formatter_1_1_message_formatter.html" target="_top" xlink:title=" ">
<polygon fill="white" stroke="none" points="214.75,-431 103,-431 103,-335 214.75,-335 214.75,-431"/>
<text xml:space="preserve" text-anchor="start" x="109.75" y="-417.5" font-family="Helvetica,sans-Serif" font-size="10.00">anch::logger::formatter</text>
<text xml:space="preserve" text-anchor="start" x="115" y="-405.5" font-family="Helvetica,sans-Serif" font-size="10.00">::MessageFormatter</text>
<text xml:space="preserve" text-anchor="start" x="157.38" y="-389.5" font-family="Helvetica,sans-Serif" font-size="10.00"> </text>
<text xml:space="preserve" text-anchor="start" x="107" y="-373.5" font-family="Helvetica,sans-Serif" font-size="10.00">+</text>
<text xml:space="preserve" text-anchor="start" x="117" y="-373.5" font-family="Helvetica,sans-Serif" font-size="10.00">MessageFormatter()</text>
<text xml:space="preserve" text-anchor="start" x="107" y="-357.5" font-family="Helvetica,sans-Serif" font-size="10.00">+</text>
<text xml:space="preserve" text-anchor="start" x="117" y="-357.5" font-family="Helvetica,sans-Serif" font-size="10.00">~MessageFormatter()</text>
<text xml:space="preserve" text-anchor="start" x="107" y="-341.5" font-family="Helvetica,sans-Serif" font-size="10.00">+</text>
<text xml:space="preserve" text-anchor="start" x="117" y="-341.5" font-family="Helvetica,sans-Serif" font-size="10.00">formatMessage()</text>
<polygon fill="#666666" stroke="#666666" points="103,-401 103,-401 214.75,-401 214.75,-401 103,-401"/>
<polygon fill="#666666" stroke="#666666" points="103,-385 103,-385 214.75,-385 214.75,-385 103,-385"/>
<polygon fill="none" stroke="#666666" points="103,-335 103,-431 214.75,-431 214.75,-335 103,-335"/>
</a>
</g>
</g>
<!-- Node7&#45;&gt;Node2 -->
<g id="edge6_Node000002_Node000007" class="edge">
<title>Node7&#45;&gt;Node2</title>
<g id="a_edge6_Node000002_Node000007"><a xlink:title=" ">
<path fill="none" stroke="#63b8ff" d="M143.97,-335.32C139.76,-322.13 135.06,-307.42 130.45,-292.96"/>
<polygon fill="none" stroke="#63b8ff" points="130.52,-293.2 124.89,-288.7 126.87,-281.77 132.51,-286.27 130.52,-293.2"/>
</a>
</g>
<text xml:space="preserve" text-anchor="start" x="140.12" y="-304.5" font-family="Helvetica,sans-Serif" font-size="10.00" fill="grey">#_formatter</text>
</g>
</g>
</svg>

<g id="navigator" transform="translate(0 0)" fill="#404254">
  <rect fill="#f2f5e9" fill-opacity="0.5" stroke="#606060" stroke-width=".5" x="0" y="0" width="60" height="60"/>
  <use id="zoomplus" xlink:href="#zoomPlus" x="17" y="9" onmousedown="handleZoom(evt,'in')"/>
  <use id="zoomminus" xlink:href="#zoomMin" x="42" y="9" onmousedown="handleZoom(evt,'out')"/>
  <use id="reset" xlink:href="#resetDef" x="30" y="36" onmousedown="handleReset()"/>
   <use id="arrowup" xlink:href="#arrowUp" x="0" y="0" onmousedown="handlePan(0,-1)"/>
  <use id="arrowright" xlink:href="#arrowRight" x="0" y="0" onmousedown="handlePan(1,0)"/>
  <use id="arrowdown" xlink:href="#arrowDown" x="0" y="0" onmousedown="handlePan(0,1)"/>
  <use id="arrowleft" xlink:href="#arrowLeft" x="0" y="0" onmousedown="handlePan(-1,0)"/>
</g>
<svg viewBox="0 0 15 15" width="100%" height="30px" preserveAspectRatio="xMaxYMin meet">
 <g id="arrow_out" transform="scale(0.3 0.3)">
  <a xlink:href="classanch_1_1logger_1_1_thread_safe_writer__coll__graph_org.svg" target="_base">
   <rect id="button" ry="5" rx="5" y="6" x="6" height="38" width="38"
        fill="#f2f5e9" fill-opacity="0.5" stroke="#606060" stroke-width="1.0"/>
   <path id="arrow"
     d="M 11.500037,31.436501 C 11.940474,20.09759 22.043105,11.32322 32.158766,21.979434 L 37.068811,17.246167 C 37.068811,17.246167 37.088388,32 37.088388,32 L 22.160133,31.978069 C 22.160133,31.978069 26.997745,27.140456 26.997745,27.140456 C 18.528582,18.264221 13.291696,25.230495 11.500037,31.436501 z"
     style="fill:#404040;"/>
  </a>
 </g>
</svg>

<style type='text/css'>
<![CDATA[
[data-mouse-over-selected='false'] { opacity: 0.7; }
[data-mouse-over-selected='true']  { opacity: 1.0; }
]]>
</style>
<script type="application/ecmascript"><![CDATA[
document.addEventListener('DOMContentLoaded', (event) => {
  highlightEdges();
  highlightAdjacentNodes();
});
]]></script>
</svg>
