<?xml version="1.0" encoding="UTF-8" standalone="no"?>
<!DOCTYPE svg PUBLIC "-//W3C//DTD SVG 1.1//EN"
 "http://www.w3.org/Graphics/SVG/1.1/DTD/svg11.dtd">
<!-- Generated by graphviz version 14.0.4 (0)
 -->
<!-- Title: anch::log::LowPriorityWriter Pages: 1 -->
<svg width="136pt" height="460pt"
 viewBox="0.00 0.00 136.00 460.00" xmlns="http://www.w3.org/2000/svg" xmlns:xlink="http://www.w3.org/1999/xlink">
<g id="graph0" class="graph" transform="scale(1 1) rotate(0) translate(4 456)">
<title>anch::log::LowPriorityWriter</title>
<!-- Node1 -->
<g id="Node000001" class="node">
<title>Node1</title>
<g id="a_Node000001"><a xlink:title=" ">
<polygon fill="#999999" stroke="none" points="128,-100 0,-100 0,0 128,0 128,-100"/>
<text xml:space="preserve" text-anchor="start" x="4" y="-86.5" font-family="Helvetica,sans-Serif" font-size="10.00">anch::log::LowPriorityWriter</text>
<text xml:space="preserve" text-anchor="start" x="62.5" y="-70.5" font-family="Helvetica,sans-Serif" font-size="10.00"> </text>
<text xml:space="preserve" text-anchor="start" x="9.94" y="-54.5" font-family="Helvetica,sans-Serif" font-size="10.00">+</text>
<text xml:space="preserve" text-anchor="start" x="25.88" y="-54.5" font-family="Helvetica,sans-Serif" font-size="10.00">LowPriorityWriter()</text>
<text xml:space="preserve" text-anchor="start" x="9.94" y="-38.5" font-family="Helvetica,sans-Serif" font-size="10.00">+</text>
<text xml:space="preserve" text-anchor="start" x="25.88" y="-38.5" font-family="Helvetica,sans-Serif" font-size="10.00">~LowPriorityWriter()</text>
<text xml:space="preserve" text-anchor="start" x="9.94" y="-22.5" font-family="Helvetica,sans-Serif" font-size="10.00">+</text>
<text xml:space="preserve" text-anchor="start" x="25.88" y="-22.5" font-family="Helvetica,sans-Serif" font-size="10.00">write()</text>
<text xml:space="preserve" text-anchor="start" x="9.94" y="-6.5" font-family="Helvetica,sans-Serif" font-size="10.00">+</text>
<text xml:space="preserve" text-anchor="start" x="25.88" y="-6.5" font-family="Helvetica,sans-Serif" font-size="10.00">startTreatment()</text>
<polygon fill="#666666" stroke="#666666" points="0,-82 0,-82 128,-82 128,-82 0,-82"/>
<polygon fill="#666666" stroke="#666666" points="0,-66 0,-66 128,-66 128,-66 0,-66"/>
<polygon fill="none" stroke="#666666" points="0,0 0,-100 128,-100 128,0 0,0"/>
</a>
</g>
</g>
<!-- Node2 -->
<g id="Node000002" class="node">
<title>Node2</title>
<g id="a_Node000002"><a xlink:href="classanch_1_1log_1_1_file_writer.html" target="_top" xlink:title="Log file writer.">
<polygon fill="white" stroke="none" points="111.5,-316 16.5,-316 16.5,-136 111.5,-136 111.5,-316"/>
<text xml:space="preserve" text-anchor="start" x="20.5" y="-302.5" font-family="Helvetica,sans-Serif" font-size="10.00">anch::log::FileWriter</text>
<text xml:space="preserve" text-anchor="start" x="26.81" y="-286.5" font-family="Helvetica,sans-Serif" font-size="10.00">#</text>
<text xml:space="preserve" text-anchor="start" x="42.38" y="-286.5" font-family="Helvetica,sans-Serif" font-size="10.00">_output</text>
<text xml:space="preserve" text-anchor="start" x="26.81" y="-270.5" font-family="Helvetica,sans-Serif" font-size="10.00">#</text>
<text xml:space="preserve" text-anchor="start" x="42.38" y="-270.5" font-family="Helvetica,sans-Serif" font-size="10.00">_path</text>
<text xml:space="preserve" text-anchor="start" x="26.81" y="-254.5" font-family="Helvetica,sans-Serif" font-size="10.00">#</text>
<text xml:space="preserve" text-anchor="start" x="42.38" y="-254.5" font-family="Helvetica,sans-Serif" font-size="10.00">_maxSize</text>
<text xml:space="preserve" text-anchor="start" x="26.81" y="-238.5" font-family="Helvetica,sans-Serif" font-size="10.00">#</text>
<text xml:space="preserve" text-anchor="start" x="42.38" y="-238.5" font-family="Helvetica,sans-Serif" font-size="10.00">_maxIdx</text>
<text xml:space="preserve" text-anchor="start" x="26.81" y="-222.5" font-family="Helvetica,sans-Serif" font-size="10.00">#</text>
<text xml:space="preserve" text-anchor="start" x="42.38" y="-222.5" font-family="Helvetica,sans-Serif" font-size="10.00">_fileIdx</text>
<text xml:space="preserve" text-anchor="start" x="26.44" y="-206.5" font-family="Helvetica,sans-Serif" font-size="10.00">+</text>
<text xml:space="preserve" text-anchor="start" x="42.38" y="-206.5" font-family="Helvetica,sans-Serif" font-size="10.00">FileWriter()</text>
<text xml:space="preserve" text-anchor="start" x="26.44" y="-190.5" font-family="Helvetica,sans-Serif" font-size="10.00">+</text>
<text xml:space="preserve" text-anchor="start" x="42.38" y="-190.5" font-family="Helvetica,sans-Serif" font-size="10.00">~FileWriter()</text>
<text xml:space="preserve" text-anchor="start" x="26.44" y="-174.5" font-family="Helvetica,sans-Serif" font-size="10.00">+</text>
<text xml:space="preserve" text-anchor="start" x="42.38" y="-174.5" font-family="Helvetica,sans-Serif" font-size="10.00">write()</text>
<text xml:space="preserve" text-anchor="start" x="26.81" y="-158.5" font-family="Helvetica,sans-Serif" font-size="10.00">#</text>
<text xml:space="preserve" text-anchor="start" x="42.38" y="-158.5" font-family="Helvetica,sans-Serif" font-size="10.00">rotate()</text>
<text xml:space="preserve" text-anchor="start" x="26.81" y="-142.5" font-family="Helvetica,sans-Serif" font-size="10.00">#</text>
<text xml:space="preserve" text-anchor="start" x="42.38" y="-142.5" font-family="Helvetica,sans-Serif" font-size="10.00">rotateFiles()</text>
<polygon fill="#666666" stroke="#666666" points="16.5,-298 16.5,-298 111.5,-298 111.5,-298 16.5,-298"/>
<polygon fill="#666666" stroke="#666666" points="16.5,-218 16.5,-218 40.38,-218 40.38,-218 16.5,-218"/>
<polygon fill="#666666" stroke="#666666" points="40.38,-218 40.38,-218 111.5,-218 111.5,-218 40.38,-218"/>
<polygon fill="none" stroke="#666666" points="16.5,-136 16.5,-316 111.5,-316 111.5,-136 16.5,-136"/>
</a>
</g>
</g>
<!-- Node2&#45;&gt;Node1 -->
<g id="edge1_Node000001_Node000002" class="edge">
<title>Node2&#45;&gt;Node1</title>
<g id="a_edge1_Node000001_Node000002"><a xlink:title=" ">
<path fill="none" stroke="#63b8ff" d="M64,-124.77C64,-116.12 64,-107.65 64,-99.71"/>
<polygon fill="none" stroke="#63b8ff" points="60.5,-124.7 64,-134.7 67.5,-124.7 60.5,-124.7"/>
</a>
</g>
</g>
<!-- Node3 -->
<g id="Node000003" class="node">
<title>Node3</title>
<g id="a_Node000003"><a xlink:href="classanch_1_1log_1_1_writer.html" target="_top" xlink:title="Logger writter definition.">
<polygon fill="white" stroke="none" points="103.62,-452 24.38,-452 24.38,-352 103.62,-352 103.62,-452"/>
<text xml:space="preserve" text-anchor="start" x="28.38" y="-438.5" font-family="Helvetica,sans-Serif" font-size="10.00">anch::log::Writer</text>
<text xml:space="preserve" text-anchor="start" x="62.5" y="-422.5" font-family="Helvetica,sans-Serif" font-size="10.00"> </text>
<text xml:space="preserve" text-anchor="start" x="34.31" y="-406.5" font-family="Helvetica,sans-Serif" font-size="10.00">+</text>
<text xml:space="preserve" text-anchor="start" x="50.25" y="-406.5" font-family="Helvetica,sans-Serif" font-size="10.00">Writer()</text>
<text xml:space="preserve" text-anchor="start" x="34.31" y="-390.5" font-family="Helvetica,sans-Serif" font-size="10.00">+</text>
<text xml:space="preserve" text-anchor="start" x="50.25" y="-390.5" font-family="Helvetica,sans-Serif" font-size="10.00">~Writer()</text>
<text xml:space="preserve" text-anchor="start" x="34.31" y="-374.5" font-family="Helvetica,sans-Serif" font-size="10.00">+</text>
<text xml:space="preserve" text-anchor="start" x="50.25" y="-374.5" font-family="Helvetica,sans-Serif" font-size="10.00">write()</text>
<text xml:space="preserve" text-anchor="start" x="34.69" y="-358.5" font-family="Helvetica,sans-Serif" font-size="10.00">#</text>
<text xml:space="preserve" text-anchor="start" x="50.25" y="-358.5" font-family="Helvetica,sans-Serif" font-size="10.00">format()</text>
<polygon fill="#666666" stroke="#666666" points="24.38,-434 24.38,-434 103.62,-434 103.62,-434 24.38,-434"/>
<polygon fill="#666666" stroke="#666666" points="24.38,-418 24.38,-418 103.62,-418 103.62,-418 24.38,-418"/>
<polygon fill="none" stroke="#666666" points="24.38,-352 24.38,-452 103.62,-452 103.62,-352 24.38,-352"/>
</a>
</g>
</g>
<!-- Node3&#45;&gt;Node2 -->
<g id="edge2_Node000002_Node000003" class="edge">
<title>Node3&#45;&gt;Node2</title>
<g id="a_edge2_Node000002_Node000003"><a xlink:title=" ">
<path fill="none" stroke="#63b8ff" d="M64,-340.58C64,-332.54 64,-324.18 64,-315.79"/>
<polygon fill="none" stroke="#63b8ff" points="60.5,-340.55 64,-350.55 67.5,-340.55 60.5,-340.55"/>
</a>
</g>
</g>
</g>
</svg>
