<?xml version="1.0" encoding="UTF-8" standalone="no"?>
<!DOCTYPE svg PUBLIC "-//W3C//DTD SVG 1.1//EN"
 "http://www.w3.org/Graphics/SVG/1.1/DTD/svg11.dtd">
<!-- Generated by graphviz version 12.2.1 (0)
 -->
<!-- Title: anch::sql::SelectBuilderPart Pages: 1 -->
<svg width="138pt" height="560pt"
 viewBox="0.00 0.00 137.50 560.00" xmlns="http://www.w3.org/2000/svg" xmlns:xlink="http://www.w3.org/1999/xlink">
<g id="graph0" class="graph" transform="scale(1 1) rotate(0) translate(4 556)">
<title>anch::sql::SelectBuilderPart</title>
<!-- Node1 -->
<g id="Node000001" class="node">
<title>Node1</title>
<g id="a_Node000001"><a xlink:title="SQL select query part builder.">
<polygon fill="#999999" stroke="none" points="129.5,-260 0,-260 0,0 129.5,0 129.5,-260"/>
<text text-anchor="start" x="4" y="-246.5" font-family="Helvetica,sans-Serif" font-size="10.00">anch::sql::SelectBuilderPart</text>
<text text-anchor="start" x="63.25" y="-230.5" font-family="Helvetica,sans-Serif" font-size="10.00"> </text>
<text text-anchor="start" x="5.44" y="-214.5" font-family="Helvetica,sans-Serif" font-size="10.00">+</text>
<text text-anchor="start" x="16.88" y="-214.5" font-family="Helvetica,sans-Serif" font-size="10.00">groupBy()</text>
<text text-anchor="start" x="5.44" y="-198.5" font-family="Helvetica,sans-Serif" font-size="10.00">+</text>
<text text-anchor="start" x="16.88" y="-198.5" font-family="Helvetica,sans-Serif" font-size="10.00">orderBy()</text>
<text text-anchor="start" x="5.44" y="-182.5" font-family="Helvetica,sans-Serif" font-size="10.00">+</text>
<text text-anchor="start" x="16.88" y="-182.5" font-family="Helvetica,sans-Serif" font-size="10.00">having()</text>
<text text-anchor="start" x="5.44" y="-166.5" font-family="Helvetica,sans-Serif" font-size="10.00">+</text>
<text text-anchor="start" x="16.88" y="-166.5" font-family="Helvetica,sans-Serif" font-size="10.00">unionOnce()</text>
<text text-anchor="start" x="5.44" y="-150.5" font-family="Helvetica,sans-Serif" font-size="10.00">+</text>
<text text-anchor="start" x="16.88" y="-150.5" font-family="Helvetica,sans-Serif" font-size="10.00">unionAll()</text>
<text text-anchor="start" x="5.44" y="-134.5" font-family="Helvetica,sans-Serif" font-size="10.00">+</text>
<text text-anchor="start" x="16.88" y="-134.5" font-family="Helvetica,sans-Serif" font-size="10.00">offset()</text>
<text text-anchor="start" x="5.44" y="-118.5" font-family="Helvetica,sans-Serif" font-size="10.00">+</text>
<text text-anchor="start" x="16.88" y="-118.5" font-family="Helvetica,sans-Serif" font-size="10.00">fetch()</text>
<text text-anchor="start" x="5.44" y="-102.5" font-family="Helvetica,sans-Serif" font-size="10.00">+</text>
<text text-anchor="start" x="16.88" y="-102.5" font-family="Helvetica,sans-Serif" font-size="10.00">windowByRowNumber()</text>
<text text-anchor="start" x="5.44" y="-86.5" font-family="Helvetica,sans-Serif" font-size="10.00">+</text>
<text text-anchor="start" x="16.88" y="-86.5" font-family="Helvetica,sans-Serif" font-size="10.00">windowByRank()</text>
<text text-anchor="start" x="5.44" y="-70.5" font-family="Helvetica,sans-Serif" font-size="10.00">+</text>
<text text-anchor="start" x="16.88" y="-70.5" font-family="Helvetica,sans-Serif" font-size="10.00">done()</text>
<text text-anchor="start" x="5.44" y="-54.5" font-family="Helvetica,sans-Serif" font-size="10.00">+</text>
<text text-anchor="start" x="16.88" y="-54.5" font-family="Helvetica,sans-Serif" font-size="10.00">build()</text>
<text text-anchor="start" x="5.81" y="-38.5" font-family="Helvetica,sans-Serif" font-size="10.00">#</text>
<text text-anchor="start" x="16.88" y="-38.5" font-family="Helvetica,sans-Serif" font-size="10.00">SelectBuilderPart()</text>
<text text-anchor="start" x="5.81" y="-22.5" font-family="Helvetica,sans-Serif" font-size="10.00">#</text>
<text text-anchor="start" x="16.88" y="-22.5" font-family="Helvetica,sans-Serif" font-size="10.00">SelectBuilderPart()</text>
<text text-anchor="start" x="5.81" y="-6.5" font-family="Helvetica,sans-Serif" font-size="10.00">#</text>
<text text-anchor="start" x="16.88" y="-6.5" font-family="Helvetica,sans-Serif" font-size="10.00">~SelectBuilderPart()</text>
<polygon fill="#666666" stroke="#666666" points="0,-242 0,-242 129.5,-242 129.5,-242 0,-242"/>
<polygon fill="#666666" stroke="#666666" points="0,-226 0,-226 129.5,-226 129.5,-226 0,-226"/>
<polygon fill="none" stroke="#666666" points="0,0 0,-260 129.5,-260 129.5,0 0,0"/>
</a>
</g>
</g>
<!-- Node2 -->
<g id="Node000002" class="node">
<title>Node2</title>
<g id="a_Node000002"><a xlink:href="classanch_1_1sql_1_1_select_builder.html" target="_top" xlink:title="Dynamic SQL select request builder.">
<polygon fill="white" stroke="none" points="126.62,-552 2.88,-552 2.88,-308 126.62,-308 126.62,-552"/>
<text text-anchor="start" x="13" y="-538.5" font-family="Helvetica,sans-Serif" font-size="10.00">anch::sql::SelectBuilder</text>
<text text-anchor="start" x="63.25" y="-522.5" font-family="Helvetica,sans-Serif" font-size="10.00"> </text>
<text text-anchor="start" x="6.88" y="-506.5" font-family="Helvetica,sans-Serif" font-size="10.00">+</text>
<text text-anchor="start" x="16.88" y="-506.5" font-family="Helvetica,sans-Serif" font-size="10.00">~SelectBuilder()</text>
<text text-anchor="start" x="6.88" y="-490.5" font-family="Helvetica,sans-Serif" font-size="10.00">+</text>
<text text-anchor="start" x="16.88" y="-490.5" font-family="Helvetica,sans-Serif" font-size="10.00">distinct()</text>
<text text-anchor="start" x="6.88" y="-474.5" font-family="Helvetica,sans-Serif" font-size="10.00">+</text>
<text text-anchor="start" x="16.88" y="-474.5" font-family="Helvetica,sans-Serif" font-size="10.00">field()</text>
<text text-anchor="start" x="6.88" y="-458.5" font-family="Helvetica,sans-Serif" font-size="10.00">+</text>
<text text-anchor="start" x="16.88" y="-458.5" font-family="Helvetica,sans-Serif" font-size="10.00">groupBy()</text>
<text text-anchor="start" x="6.88" y="-442.5" font-family="Helvetica,sans-Serif" font-size="10.00">+</text>
<text text-anchor="start" x="16.88" y="-442.5" font-family="Helvetica,sans-Serif" font-size="10.00">orderBy()</text>
<text text-anchor="start" x="6.88" y="-426.5" font-family="Helvetica,sans-Serif" font-size="10.00">+</text>
<text text-anchor="start" x="16.88" y="-426.5" font-family="Helvetica,sans-Serif" font-size="10.00">having()</text>
<text text-anchor="start" x="6.88" y="-410.5" font-family="Helvetica,sans-Serif" font-size="10.00">+</text>
<text text-anchor="start" x="16.88" y="-410.5" font-family="Helvetica,sans-Serif" font-size="10.00">unionOnce()</text>
<text text-anchor="start" x="6.88" y="-394.5" font-family="Helvetica,sans-Serif" font-size="10.00">+</text>
<text text-anchor="start" x="16.88" y="-394.5" font-family="Helvetica,sans-Serif" font-size="10.00">unionAll()</text>
<text text-anchor="start" x="6.88" y="-378.5" font-family="Helvetica,sans-Serif" font-size="10.00">+</text>
<text text-anchor="start" x="16.88" y="-378.5" font-family="Helvetica,sans-Serif" font-size="10.00">offset()</text>
<text text-anchor="start" x="6.88" y="-362.5" font-family="Helvetica,sans-Serif" font-size="10.00">+</text>
<text text-anchor="start" x="16.88" y="-362.5" font-family="Helvetica,sans-Serif" font-size="10.00">fetch()</text>
<text text-anchor="start" x="6.88" y="-346.5" font-family="Helvetica,sans-Serif" font-size="10.00">+</text>
<text text-anchor="start" x="16.88" y="-346.5" font-family="Helvetica,sans-Serif" font-size="10.00">windowByRowNumber()</text>
<text text-anchor="start" x="6.88" y="-330.5" font-family="Helvetica,sans-Serif" font-size="10.00">+</text>
<text text-anchor="start" x="16.88" y="-330.5" font-family="Helvetica,sans-Serif" font-size="10.00">windowByRank()</text>
<text text-anchor="start" x="6.88" y="-314.5" font-family="Helvetica,sans-Serif" font-size="10.00">+</text>
<text text-anchor="start" x="16.88" y="-314.5" font-family="Helvetica,sans-Serif" font-size="10.00">build()</text>
<polygon fill="#666666" stroke="#666666" points="2.88,-534 2.88,-534 126.62,-534 126.62,-534 2.88,-534"/>
<polygon fill="#666666" stroke="#666666" points="2.88,-518 2.88,-518 126.62,-518 126.62,-518 2.88,-518"/>
<polygon fill="none" stroke="#666666" points="2.88,-308 2.88,-552 126.62,-552 126.62,-308 2.88,-308"/>
</a>
</g>
</g>
<!-- Node2&#45;&gt;Node1 -->
<g id="edge1_Node000001_Node000002" class="edge">
<title>Node2&#45;&gt;Node1</title>
<g id="a_edge1_Node000001_Node000002"><a xlink:title=" ">
<path fill="none" stroke="#63b8ff" d="M64.75,-308.22C64.75,-296.49 64.75,-284.52 64.75,-272.61"/>
<polygon fill="none" stroke="#63b8ff" points="64.75,-272.63 60.75,-266.63 64.75,-260.63 68.75,-266.63 64.75,-272.63"/>
</a>
</g>
<text text-anchor="middle" x="84.62" y="-280.5" font-family="Helvetica,sans-Serif" font-size="10.00" fill="grey"> #_select</text>
</g>
</g>
</svg>
