<?xml version="1.0" encoding="UTF-8" standalone="no"?>
<!DOCTYPE svg PUBLIC "-//W3C//DTD SVG 1.1//EN"
 "http://www.w3.org/Graphics/SVG/1.1/DTD/svg11.dtd">
<!-- Generated by graphviz version 7.0.4 (0)
 -->
<!-- Title: anch::rest::Headers Pages: 1 -->
<svg width="125pt" height="214pt"
 viewBox="0.00 0.00 125.00 214.00" xmlns="http://www.w3.org/2000/svg" xmlns:xlink="http://www.w3.org/1999/xlink">
<g id="graph0" class="graph" transform="scale(1 1) rotate(0) translate(4 210)">
<title>anch::rest::Headers</title>
<!-- Node1 -->
<g id="node1" class="node">
<title>Node1</title>
<g id="a_node1"><a xlink:title="HTTP headers.">
<polygon fill="#999999" stroke="#666666" points="117,-118 0,-118 0,0 117,0 117,-118"/>
<text text-anchor="middle" x="58.5" y="-106" font-family="Helvetica,sans-Serif" font-size="10.00">{anch::rest::Headers</text>
<text text-anchor="start" x="8" y="-95" font-family="Helvetica,sans-Serif" font-size="10.00">||+ get()</text>
<text text-anchor="start" x="8" y="-84" font-family="Helvetica,sans-Serif" font-size="10.00">+ get()</text>
<text text-anchor="start" x="8" y="-73" font-family="Helvetica,sans-Serif" font-size="10.00">+ has()</text>
<text text-anchor="start" x="8" y="-62" font-family="Helvetica,sans-Serif" font-size="10.00">+ add()</text>
<text text-anchor="start" x="8" y="-51" font-family="Helvetica,sans-Serif" font-size="10.00">+ add()</text>
<text text-anchor="start" x="8" y="-40" font-family="Helvetica,sans-Serif" font-size="10.00">+ put()</text>
<text text-anchor="start" x="8" y="-29" font-family="Helvetica,sans-Serif" font-size="10.00">+ put()</text>
<text text-anchor="start" x="8" y="-18" font-family="Helvetica,sans-Serif" font-size="10.00">+ format()</text>
<text text-anchor="middle" x="58.5" y="-7" font-family="Helvetica,sans-Serif" font-size="10.00">}</text>
</a>
</g>
</g>
<!-- Node2 -->
<g id="node2" class="node">
<title>Node2</title>
<g id="a_node2"><a xlink:title=" ">
<polygon fill="white" stroke="#666666" points="112,-206 5,-206 5,-154 112,-154 112,-206"/>
<text text-anchor="middle" x="58.5" y="-194" font-family="Helvetica,sans-Serif" font-size="10.00">{std::map&lt; K, T &gt;</text>
<text text-anchor="start" x="13" y="-183" font-family="Helvetica,sans-Serif" font-size="10.00">|+ keys</text>
<text text-anchor="start" x="13" y="-172" font-family="Helvetica,sans-Serif" font-size="10.00">+ elements</text>
<text text-anchor="middle" x="58.5" y="-161" font-family="Helvetica,sans-Serif" font-size="10.00">|}</text>
</a>
</g>
</g>
<!-- Node2&#45;&gt;Node1 -->
<g id="edge1" class="edge">
<title>Node2&#45;&gt;Node1</title>
<path fill="none" stroke="#8b1a1a" d="M58.5,-142.41C58.5,-134.82 58.5,-126.65 58.5,-118.5"/>
<polygon fill="none" stroke="#8b1a1a" points="55,-142.25 58.5,-152.25 62,-142.25 55,-142.25"/>
</g>
</g>
</svg>
