<?xml version="1.0" encoding="UTF-8" standalone="no"?>
<!DOCTYPE svg PUBLIC "-//W3C//DTD SVG 1.1//EN"
 "http://www.w3.org/Graphics/SVG/1.1/DTD/svg11.dtd">
<!-- Generated by graphviz version 14.0.0 (0)
 -->
<!-- Title: anch::resource::Section Pages: 1 -->
<svg width="158pt" height="379pt"
 viewBox="0.00 0.00 158.00 379.00" xmlns="http://www.w3.org/2000/svg" xmlns:xlink="http://www.w3.org/1999/xlink">

<svg id="main" version="1.1" xmlns="http://www.w3.org/2000/svg" xmlns:xlink="http://www.w3.org/1999/xlink" xml:space="preserve">

<style type="text/css"><![CDATA[
.node, .edge {opacity: 0.7;}
.node.selected, .edge.selected {opacity: 1;}
.edge:hover path { stroke: red; }
.edge:hover polygon { stroke: red; fill: red; }
]]></style>
<script type="application/ecmascript" xlink:href="svg.min.js"/>
<svg id="graph" class="graph">
<g id="graph0" class="graph" transform="scale(1 1) rotate(0) translate(4 375)">
<title>anch::resource::Section</title>
<!-- Node1 -->
<g id="Node000001" class="node">
<title>Node1</title>
<g id="a_Node000001"><a xlink:title=" ">
<polygon fill="#999999" stroke="none" points="111.5,-164 0,-164 0,0 111.5,0 111.5,-164"/>
<text xml:space="preserve" text-anchor="start" x="4" y="-150.5" font-family="Helvetica,sans-Serif" font-size="10.00">anch::resource::Section</text>
<text xml:space="preserve" text-anchor="start" x="54.25" y="-134.5" font-family="Helvetica,sans-Serif" font-size="10.00"> </text>
<text xml:space="preserve" text-anchor="start" x="9.94" y="-118.5" font-family="Helvetica,sans-Serif" font-size="10.00">+</text>
<text xml:space="preserve" text-anchor="start" x="25.88" y="-118.5" font-family="Helvetica,sans-Serif" font-size="10.00">Section()</text>
<text xml:space="preserve" text-anchor="start" x="9.94" y="-102.5" font-family="Helvetica,sans-Serif" font-size="10.00">+</text>
<text xml:space="preserve" text-anchor="start" x="25.88" y="-102.5" font-family="Helvetica,sans-Serif" font-size="10.00">Section()</text>
<text xml:space="preserve" text-anchor="start" x="9.94" y="-86.5" font-family="Helvetica,sans-Serif" font-size="10.00">+</text>
<text xml:space="preserve" text-anchor="start" x="25.88" y="-86.5" font-family="Helvetica,sans-Serif" font-size="10.00">~Section()</text>
<text xml:space="preserve" text-anchor="start" x="9.94" y="-70.5" font-family="Helvetica,sans-Serif" font-size="10.00">+</text>
<text xml:space="preserve" text-anchor="start" x="25.88" y="-70.5" font-family="Helvetica,sans-Serif" font-size="10.00">getParameters()</text>
<text xml:space="preserve" text-anchor="start" x="9.94" y="-54.5" font-family="Helvetica,sans-Serif" font-size="10.00">+</text>
<text xml:space="preserve" text-anchor="start" x="25.88" y="-54.5" font-family="Helvetica,sans-Serif" font-size="10.00">setParameters()</text>
<text xml:space="preserve" text-anchor="start" x="9.94" y="-38.5" font-family="Helvetica,sans-Serif" font-size="10.00">+</text>
<text xml:space="preserve" text-anchor="start" x="25.88" y="-38.5" font-family="Helvetica,sans-Serif" font-size="10.00">addParameter()</text>
<text xml:space="preserve" text-anchor="start" x="9.94" y="-22.5" font-family="Helvetica,sans-Serif" font-size="10.00">+</text>
<text xml:space="preserve" text-anchor="start" x="25.88" y="-22.5" font-family="Helvetica,sans-Serif" font-size="10.00">getParameter()</text>
<text xml:space="preserve" text-anchor="start" x="9.94" y="-6.5" font-family="Helvetica,sans-Serif" font-size="10.00">+</text>
<text xml:space="preserve" text-anchor="start" x="25.88" y="-6.5" font-family="Helvetica,sans-Serif" font-size="10.00">parameter()</text>
<polygon fill="#666666" stroke="#666666" points="0,-146 0,-146 111.5,-146 111.5,-146 0,-146"/>
<polygon fill="#666666" stroke="#666666" points="0,-130 0,-130 111.5,-130 111.5,-130 0,-130"/>
<polygon fill="none" stroke="#666666" points="0,0 0,-164 111.5,-164 111.5,0 0,0"/>
</a>
</g>
</g>
<!-- Node2 -->
<g id="Node000002" class="node">
<title>Node2</title>
<g id="a_Node000002"><a xlink:title=" ">
<polygon fill="white" stroke="none" points="81.5,-270 30,-270 30,-218 81.5,-218 81.5,-270"/>
<text xml:space="preserve" text-anchor="start" x="34" y="-256.5" font-family="Helvetica,sans-Serif" font-size="10.00">std::string</text>
<text xml:space="preserve" text-anchor="start" x="54.25" y="-240.5" font-family="Helvetica,sans-Serif" font-size="10.00"> </text>
<text xml:space="preserve" text-anchor="start" x="54.25" y="-224.5" font-family="Helvetica,sans-Serif" font-size="10.00"> </text>
<polygon fill="#666666" stroke="#666666" points="30,-252 30,-252 81.5,-252 81.5,-252 30,-252"/>
<polygon fill="#666666" stroke="#666666" points="30,-236 30,-236 81.5,-236 81.5,-236 30,-236"/>
<polygon fill="none" stroke="#666666" points="30,-218 30,-270 81.5,-270 81.5,-218 30,-218"/>
</a>
</g>
</g>
<!-- Node2&#45;&gt;Node1 -->
<g id="edge1_Node000001_Node000002" class="edge">
<title>Node2&#45;&gt;Node1</title>
<g id="a_edge1_Node000001_Node000002"><a xlink:title=" ">
<path fill="none" stroke="#63b8ff" d="M55.75,-218C55.75,-206.46 55.75,-191.97 55.75,-176.8"/>
<polygon fill="none" stroke="#63b8ff" points="55.75,-176.84 51.75,-170.84 55.75,-164.84 59.75,-170.84 55.75,-176.84"/>
</a>
</g>
<text xml:space="preserve" text-anchor="start" x="58.75" y="-187.5" font-family="Helvetica,sans-Serif" font-size="10.00" fill="grey">+DEFAULT_VALUE</text>
</g>
<!-- Node3 -->
<g id="Node000003" class="node">
<title>Node3</title>
<g id="a_Node000003"><a xlink:title=" ">
<polygon fill="white" stroke="none" points="98.75,-371 12.75,-371 12.75,-307 98.75,-307 98.75,-371"/>
<text xml:space="preserve" text-anchor="start" x="16.75" y="-357.5" font-family="Helvetica,sans-Serif" font-size="10.00">std::basic_string&lt;</text>
<text xml:space="preserve" text-anchor="start" x="39.25" y="-345.5" font-family="Helvetica,sans-Serif" font-size="10.00"> Char &gt;</text>
<text xml:space="preserve" text-anchor="start" x="54.25" y="-329.5" font-family="Helvetica,sans-Serif" font-size="10.00"> </text>
<text xml:space="preserve" text-anchor="start" x="54.25" y="-313.5" font-family="Helvetica,sans-Serif" font-size="10.00"> </text>
<polygon fill="#666666" stroke="#666666" points="12.75,-341 12.75,-341 98.75,-341 98.75,-341 12.75,-341"/>
<polygon fill="#666666" stroke="#666666" points="12.75,-325 12.75,-325 98.75,-325 98.75,-325 12.75,-325"/>
<polygon fill="none" stroke="#666666" points="12.75,-307 12.75,-371 98.75,-371 98.75,-307 12.75,-307"/>
</a>
</g>
</g>
<!-- Node3&#45;&gt;Node2 -->
<g id="edge2_Node000002_Node000003" class="edge">
<title>Node3&#45;&gt;Node2</title>
<g id="a_edge2_Node000002_Node000003"><a xlink:title=" ">
<path fill="none" stroke="#63b8ff" d="M55.75,-295.69C55.75,-286.89 55.75,-277.89 55.75,-269.96"/>
<polygon fill="none" stroke="#63b8ff" points="52.25,-295.52 55.75,-305.52 59.25,-295.52 52.25,-295.52"/>
</a>
</g>
</g>
</g>
</svg>
</svg>

<style type='text/css'>
<![CDATA[
[data-mouse-over-selected='false'] { opacity: 0.7; }
[data-mouse-over-selected='true']  { opacity: 1.0; }
]]>
</style>
<script type="application/ecmascript"><![CDATA[
document.addEventListener('DOMContentLoaded', (event) => {
  highlightEdges();
  highlightAdjacentNodes();
});
]]></script>
</svg>
