<?xml version="1.0" encoding="UTF-8" standalone="no"?>
<!DOCTYPE svg PUBLIC "-//W3C//DTD SVG 1.1//EN"
 "http://www.w3.org/Graphics/SVG/1.1/DTD/svg11.dtd">
<!-- Generated by graphviz version 12.1.1 (0)
 -->
<!-- Title: anch::Stream&lt; T, C &gt; Pages: 1 -->
<svg width="123pt" height="220pt"
 viewBox="0.00 0.00 123.00 220.00" xmlns="http://www.w3.org/2000/svg" xmlns:xlink="http://www.w3.org/1999/xlink">
<g id="graph0" class="graph" transform="scale(1 1) rotate(0) translate(4 216)">
<title>anch::Stream&lt; T, C &gt;</title>
<!-- Node1 -->
<g id="Node000001" class="node">
<title>Node1</title>
<g id="a_Node000001"><a xlink:title="Java style stream class.">
<polygon fill="#999999" stroke="none" points="115,-212 0,-212 0,0 115,0 115,-212"/>
<text text-anchor="start" x="4.62" y="-198.5" font-family="Helvetica,sans-Serif" font-size="10.00">anch::Stream&lt; T, C &gt;</text>
<text text-anchor="start" x="56" y="-182.5" font-family="Helvetica,sans-Serif" font-size="10.00"> </text>
<text text-anchor="start" x="11.38" y="-166.5" font-family="Helvetica,sans-Serif" font-size="10.00">+</text>
<text text-anchor="start" x="31" y="-166.5" font-family="Helvetica,sans-Serif" font-size="10.00">Stream()</text>
<text text-anchor="start" x="11.38" y="-150.5" font-family="Helvetica,sans-Serif" font-size="10.00">+</text>
<text text-anchor="start" x="31" y="-150.5" font-family="Helvetica,sans-Serif" font-size="10.00">Stream()</text>
<text text-anchor="start" x="11.38" y="-134.5" font-family="Helvetica,sans-Serif" font-size="10.00">+</text>
<text text-anchor="start" x="31" y="-134.5" font-family="Helvetica,sans-Serif" font-size="10.00">Stream()</text>
<text text-anchor="start" x="11.38" y="-118.5" font-family="Helvetica,sans-Serif" font-size="10.00">+</text>
<text text-anchor="start" x="31" y="-118.5" font-family="Helvetica,sans-Serif" font-size="10.00">Stream()</text>
<text text-anchor="start" x="11.38" y="-102.5" font-family="Helvetica,sans-Serif" font-size="10.00">+</text>
<text text-anchor="start" x="31" y="-102.5" font-family="Helvetica,sans-Serif" font-size="10.00">~Stream()</text>
<text text-anchor="start" x="11.38" y="-86.5" font-family="Helvetica,sans-Serif" font-size="10.00">+</text>
<text text-anchor="start" x="31" y="-86.5" font-family="Helvetica,sans-Serif" font-size="10.00">filter()</text>
<text text-anchor="start" x="11.38" y="-70.5" font-family="Helvetica,sans-Serif" font-size="10.00">+</text>
<text text-anchor="start" x="31" y="-70.5" font-family="Helvetica,sans-Serif" font-size="10.00">skip()</text>
<text text-anchor="start" x="11.38" y="-54.5" font-family="Helvetica,sans-Serif" font-size="10.00">+</text>
<text text-anchor="start" x="31" y="-54.5" font-family="Helvetica,sans-Serif" font-size="10.00">limit()</text>
<text text-anchor="start" x="11.38" y="-38.5" font-family="Helvetica,sans-Serif" font-size="10.00">+</text>
<text text-anchor="start" x="31" y="-38.5" font-family="Helvetica,sans-Serif" font-size="10.00">concat()</text>
<text text-anchor="start" x="11.38" y="-22.5" font-family="Helvetica,sans-Serif" font-size="10.00">+</text>
<text text-anchor="start" x="31" y="-22.5" font-family="Helvetica,sans-Serif" font-size="10.00">allMatch()</text>
<text text-anchor="start" x="31" y="-6.5" font-family="Helvetica,sans-Serif" font-size="10.00">and 8 more...</text>
<polygon fill="#666666" stroke="#666666" points="0,-194 0,-194 115,-194 115,-194 0,-194"/>
<polygon fill="#666666" stroke="#666666" points="0,-178 0,-178 115,-178 115,-178 0,-178"/>
<polygon fill="none" stroke="#666666" points="0,0 0,-212 115,-212 115,0 0,0"/>
</a>
</g>
</g>
</g>
</svg>
