<?xml version="1.0" encoding="UTF-8" standalone="no"?>
<!DOCTYPE svg PUBLIC "-//W3C//DTD SVG 1.1//EN"
 "http://www.w3.org/Graphics/SVG/1.1/DTD/svg11.dtd">
<!-- Generated by graphviz version 7.0.4 (0)
 -->
<!-- Title: anch::rest::EndPoint Pages: 1 -->
<svg width="136pt" height="325pt"
 viewBox="0.00 0.00 135.50 325.00" xmlns="http://www.w3.org/2000/svg" xmlns:xlink="http://www.w3.org/1999/xlink">
<g id="graph0" class="graph" transform="scale(1 1) rotate(0) translate(4 321)">
<title>anch::rest::EndPoint</title>
<!-- Node1 -->
<g id="node1" class="node">
<title>Node1</title>
<g id="a_node1"><a xlink:title="Router endpoint.">
<polygon fill="#999999" stroke="#666666" points="119,-129 0,-129 0,0 119,0 119,-129"/>
<text text-anchor="middle" x="59.5" y="-117" font-family="Helvetica,sans-Serif" font-size="10.00">{anch::rest::EndPoint</text>
<text text-anchor="start" x="8" y="-106" font-family="Helvetica,sans-Serif" font-size="10.00">||+ EndPoint()</text>
<text text-anchor="start" x="8" y="-95" font-family="Helvetica,sans-Serif" font-size="10.00">+ EndPoint()</text>
<text text-anchor="start" x="8" y="-84" font-family="Helvetica,sans-Serif" font-size="10.00">+ EndPoint()</text>
<text text-anchor="start" x="8" y="-73" font-family="Helvetica,sans-Serif" font-size="10.00">+ ~EndPoint()</text>
<text text-anchor="start" x="8" y="-62" font-family="Helvetica,sans-Serif" font-size="10.00">+ match()</text>
<text text-anchor="start" x="8" y="-51" font-family="Helvetica,sans-Serif" font-size="10.00">+ build()</text>
<text text-anchor="start" x="8" y="-40" font-family="Helvetica,sans-Serif" font-size="10.00">+ getPathPattern()</text>
<text text-anchor="start" x="8" y="-29" font-family="Helvetica,sans-Serif" font-size="10.00">+ setPathPattern()</text>
<text text-anchor="start" x="8" y="-18" font-family="Helvetica,sans-Serif" font-size="10.00">+ getPathRegex()</text>
<text text-anchor="middle" x="59.5" y="-7" font-family="Helvetica,sans-Serif" font-size="10.00">}</text>
</a>
</g>
</g>
<!-- Node2 -->
<g id="node2" class="node">
<title>Node2</title>
<g id="a_node2"><a xlink:title=" ">
<polygon fill="white" stroke="#666666" points="95,-239 24,-239 24,-209 95,-209 95,-239"/>
<text text-anchor="middle" x="59.5" y="-227" font-family="Helvetica,sans-Serif" font-size="10.00">{std::string</text>
<text text-anchor="middle" x="59.5" y="-216" font-family="Helvetica,sans-Serif" font-size="10.00">||}</text>
</a>
</g>
</g>
<!-- Node2&#45;&gt;Node1 -->
<g id="edge1" class="edge">
<title>Node2&#45;&gt;Node1</title>
<path fill="none" stroke="#404040" d="M59.5,-208.75C59.5,-193.33 59.5,-167.52 59.5,-142.02"/>
<polygon fill="none" stroke="#404040" points="59.5,-142.08 55.5,-136.08 59.5,-130.08 63.5,-136.08 59.5,-142.08"/>
<text text-anchor="middle" x="93.5" y="-183" font-family="Helvetica,sans-Serif" font-size="10.00"> +accept</text>
<text text-anchor="middle" x="93.5" y="-172" font-family="Helvetica,sans-Serif" font-size="10.00">+contentType</text>
<text text-anchor="middle" x="93.5" y="-161" font-family="Helvetica,sans-Serif" font-size="10.00">+pathPattern</text>
<text text-anchor="middle" x="93.5" y="-150" font-family="Helvetica,sans-Serif" font-size="10.00">+verb</text>
</g>
<!-- Node3 -->
<g id="node3" class="node">
<title>Node3</title>
<g id="a_node3"><a xlink:title=" ">
<polygon fill="white" stroke="#666666" points="114.5,-317 4.5,-317 4.5,-276 114.5,-276 114.5,-317"/>
<text text-anchor="start" x="12.5" y="-305" font-family="Helvetica,sans-Serif" font-size="10.00">{std::basic_string&lt;</text>
<text text-anchor="middle" x="59.5" y="-294" font-family="Helvetica,sans-Serif" font-size="10.00"> Char &gt;</text>
<text text-anchor="middle" x="59.5" y="-283" font-family="Helvetica,sans-Serif" font-size="10.00">||}</text>
</a>
</g>
</g>
<!-- Node3&#45;&gt;Node2 -->
<g id="edge2" class="edge">
<title>Node3&#45;&gt;Node2</title>
<path fill="none" stroke="#63b8ff" d="M59.5,-264.39C59.5,-255.68 59.5,-246.62 59.5,-239.39"/>
<polygon fill="none" stroke="#63b8ff" points="56,-264.35 59.5,-274.35 63,-264.35 56,-264.35"/>
</g>
</g>
</svg>
