<?xml version="1.0" encoding="UTF-8" standalone="no"?>
<!DOCTYPE svg PUBLIC "-//W3C//DTD SVG 1.1//EN"
 "http://www.w3.org/Graphics/SVG/1.1/DTD/svg11.dtd">
<!-- Generated by graphviz version 13.1.2 (0)
 -->
<!-- Title: WriterContext Pages: 1 -->
<svg width="116pt" height="653pt"
 viewBox="0.00 0.00 116.00 653.00" xmlns="http://www.w3.org/2000/svg" xmlns:xlink="http://www.w3.org/1999/xlink">
<g id="graph0" class="graph" transform="scale(1 1) rotate(0) translate(4 649)">
<title>WriterContext</title>
<!-- Node1 -->
<g id="Node000001" class="node">
<title>Node1</title>
<g id="a_Node000001"><a xlink:title="JSON writer context.">
<polygon fill="#999999" stroke="none" points="104.88,-260 2.88,-260 2.88,0 104.88,0 104.88,-260"/>
<text xml:space="preserve" text-anchor="start" x="23.88" y="-246.5" font-family="Helvetica,sans-Serif" font-size="10.00">WriterContext</text>
<text xml:space="preserve" text-anchor="start" x="52.38" y="-230.5" font-family="Helvetica,sans-Serif" font-size="10.00"> </text>
<text xml:space="preserve" text-anchor="start" x="6.88" y="-214.5" font-family="Helvetica,sans-Serif" font-size="10.00">+</text>
<text xml:space="preserve" text-anchor="start" x="16.88" y="-214.5" font-family="Helvetica,sans-Serif" font-size="10.00">WriterContext()</text>
<text xml:space="preserve" text-anchor="start" x="6.88" y="-198.5" font-family="Helvetica,sans-Serif" font-size="10.00">+</text>
<text xml:space="preserve" text-anchor="start" x="16.88" y="-198.5" font-family="Helvetica,sans-Serif" font-size="10.00">WriterContext()</text>
<text xml:space="preserve" text-anchor="start" x="6.88" y="-182.5" font-family="Helvetica,sans-Serif" font-size="10.00">+</text>
<text xml:space="preserve" text-anchor="start" x="16.88" y="-182.5" font-family="Helvetica,sans-Serif" font-size="10.00">WriterContext()</text>
<text xml:space="preserve" text-anchor="start" x="6.88" y="-166.5" font-family="Helvetica,sans-Serif" font-size="10.00">+</text>
<text xml:space="preserve" text-anchor="start" x="16.88" y="-166.5" font-family="Helvetica,sans-Serif" font-size="10.00">WriterContext()</text>
<text xml:space="preserve" text-anchor="start" x="6.88" y="-150.5" font-family="Helvetica,sans-Serif" font-size="10.00">+</text>
<text xml:space="preserve" text-anchor="start" x="16.88" y="-150.5" font-family="Helvetica,sans-Serif" font-size="10.00">~WriterContext()</text>
<text xml:space="preserve" text-anchor="start" x="6.88" y="-134.5" font-family="Helvetica,sans-Serif" font-size="10.00">+</text>
<text xml:space="preserve" text-anchor="start" x="16.88" y="-134.5" font-family="Helvetica,sans-Serif" font-size="10.00">writeNull()</text>
<text xml:space="preserve" text-anchor="start" x="6.88" y="-118.5" font-family="Helvetica,sans-Serif" font-size="10.00">+</text>
<text xml:space="preserve" text-anchor="start" x="16.88" y="-118.5" font-family="Helvetica,sans-Serif" font-size="10.00">writeEmptyArray()</text>
<text xml:space="preserve" text-anchor="start" x="6.88" y="-102.5" font-family="Helvetica,sans-Serif" font-size="10.00">+</text>
<text xml:space="preserve" text-anchor="start" x="16.88" y="-102.5" font-family="Helvetica,sans-Serif" font-size="10.00">writeEmptyObject()</text>
<text xml:space="preserve" text-anchor="start" x="6.88" y="-86.5" font-family="Helvetica,sans-Serif" font-size="10.00">+</text>
<text xml:space="preserve" text-anchor="start" x="16.88" y="-86.5" font-family="Helvetica,sans-Serif" font-size="10.00">writeField()</text>
<text xml:space="preserve" text-anchor="start" x="6.88" y="-70.5" font-family="Helvetica,sans-Serif" font-size="10.00">+</text>
<text xml:space="preserve" text-anchor="start" x="16.88" y="-70.5" font-family="Helvetica,sans-Serif" font-size="10.00">beginArray()</text>
<text xml:space="preserve" text-anchor="start" x="6.88" y="-54.5" font-family="Helvetica,sans-Serif" font-size="10.00">+</text>
<text xml:space="preserve" text-anchor="start" x="16.88" y="-54.5" font-family="Helvetica,sans-Serif" font-size="10.00">endArray()</text>
<text xml:space="preserve" text-anchor="start" x="6.88" y="-38.5" font-family="Helvetica,sans-Serif" font-size="10.00">+</text>
<text xml:space="preserve" text-anchor="start" x="16.88" y="-38.5" font-family="Helvetica,sans-Serif" font-size="10.00">beginObject()</text>
<text xml:space="preserve" text-anchor="start" x="6.88" y="-22.5" font-family="Helvetica,sans-Serif" font-size="10.00">+</text>
<text xml:space="preserve" text-anchor="start" x="16.88" y="-22.5" font-family="Helvetica,sans-Serif" font-size="10.00">endObject()</text>
<text xml:space="preserve" text-anchor="start" x="6.88" y="-6.5" font-family="Helvetica,sans-Serif" font-size="10.00">+</text>
<text xml:space="preserve" text-anchor="start" x="16.88" y="-6.5" font-family="Helvetica,sans-Serif" font-size="10.00">next()</text>
<polygon fill="#666666" stroke="#666666" points="2.88,-242 2.88,-242 104.88,-242 104.88,-242 2.88,-242"/>
<polygon fill="#666666" stroke="#666666" points="2.88,-226 2.88,-226 104.88,-226 104.88,-226 2.88,-226"/>
<polygon fill="none" stroke="#666666" points="2.88,0 2.88,-260 104.88,-260 104.88,0 2.88,0"/>
</a>
</g>
</g>
<!-- Node2 -->
<g id="Node000002" class="node">
<title>Node2</title>
<g id="a_Node000002"><a xlink:title=" ">
<polygon fill="white" stroke="none" points="85.25,-366 22.5,-366 22.5,-314 85.25,-314 85.25,-366"/>
<text xml:space="preserve" text-anchor="start" x="26.5" y="-352.5" font-family="Helvetica,sans-Serif" font-size="10.00">std::ostream</text>
<text xml:space="preserve" text-anchor="start" x="52.38" y="-336.5" font-family="Helvetica,sans-Serif" font-size="10.00"> </text>
<text xml:space="preserve" text-anchor="start" x="52.38" y="-320.5" font-family="Helvetica,sans-Serif" font-size="10.00"> </text>
<polygon fill="#666666" stroke="#666666" points="22.5,-348 22.5,-348 85.25,-348 85.25,-348 22.5,-348"/>
<polygon fill="#666666" stroke="#666666" points="22.5,-332 22.5,-332 85.25,-332 85.25,-332 22.5,-332"/>
<polygon fill="none" stroke="#666666" points="22.5,-314 22.5,-366 85.25,-366 85.25,-314 22.5,-314"/>
</a>
</g>
</g>
<!-- Node2&#45;&gt;Node1 -->
<g id="edge1_Node000001_Node000002" class="edge">
<title>Node2&#45;&gt;Node1</title>
<g id="a_edge1_Node000001_Node000002"><a xlink:title=" ">
<path fill="none" stroke="#63b8ff" d="M53.88,-314.32C53.88,-302.94 53.88,-288.45 53.88,-272.61"/>
<polygon fill="none" stroke="#63b8ff" points="53.88,-272.55 49.88,-266.55 53.88,-260.55 57.88,-266.55 53.88,-272.55"/>
</a>
</g>
<text xml:space="preserve" text-anchor="start" x="56.88" y="-283.5" font-family="Helvetica,sans-Serif" font-size="10.00" fill="grey">+output</text>
</g>
<!-- Node3 -->
<g id="Node000003" class="node">
<title>Node3</title>
<g id="a_Node000003"><a xlink:title=" ">
<polygon fill="white" stroke="none" points="99.5,-467 8.25,-467 8.25,-403 99.5,-403 99.5,-467"/>
<text xml:space="preserve" text-anchor="start" x="12.25" y="-453.5" font-family="Helvetica,sans-Serif" font-size="10.00">std::basic_ostream</text>
<text xml:space="preserve" text-anchor="start" x="34.38" y="-441.5" font-family="Helvetica,sans-Serif" font-size="10.00">&lt; Char &gt;</text>
<text xml:space="preserve" text-anchor="start" x="52.38" y="-425.5" font-family="Helvetica,sans-Serif" font-size="10.00"> </text>
<text xml:space="preserve" text-anchor="start" x="52.38" y="-409.5" font-family="Helvetica,sans-Serif" font-size="10.00"> </text>
<polygon fill="#666666" stroke="#666666" points="8.25,-437 8.25,-437 99.5,-437 99.5,-437 8.25,-437"/>
<polygon fill="#666666" stroke="#666666" points="8.25,-421 8.25,-421 99.5,-421 99.5,-421 8.25,-421"/>
<polygon fill="none" stroke="#666666" points="8.25,-403 8.25,-467 99.5,-467 99.5,-403 8.25,-403"/>
</a>
</g>
</g>
<!-- Node3&#45;&gt;Node2 -->
<g id="edge2_Node000002_Node000003" class="edge">
<title>Node3&#45;&gt;Node2</title>
<g id="a_edge2_Node000002_Node000003"><a xlink:title=" ">
<path fill="none" stroke="#63b8ff" d="M53.88,-391.69C53.88,-382.89 53.88,-373.89 53.88,-365.96"/>
<polygon fill="none" stroke="#63b8ff" points="50.38,-391.52 53.88,-401.52 57.38,-391.52 50.38,-391.52"/>
</a>
</g>
</g>
<!-- Node4 -->
<g id="Node000004" class="node">
<title>Node4</title>
<g id="a_Node000004"><a xlink:title=" ">
<polygon fill="white" stroke="none" points="107.75,-556 0,-556 0,-504 107.75,-504 107.75,-556"/>
<text xml:space="preserve" text-anchor="start" x="4" y="-542.5" font-family="Helvetica,sans-Serif" font-size="10.00">std::basic_ios&lt; Char &gt;</text>
<text xml:space="preserve" text-anchor="start" x="52.38" y="-526.5" font-family="Helvetica,sans-Serif" font-size="10.00"> </text>
<text xml:space="preserve" text-anchor="start" x="52.38" y="-510.5" font-family="Helvetica,sans-Serif" font-size="10.00"> </text>
<polygon fill="#666666" stroke="#666666" points="0,-538 0,-538 107.75,-538 107.75,-538 0,-538"/>
<polygon fill="#666666" stroke="#666666" points="0,-522 0,-522 107.75,-522 107.75,-522 0,-522"/>
<polygon fill="none" stroke="#666666" points="0,-504 0,-556 107.75,-556 107.75,-504 0,-504"/>
</a>
</g>
</g>
<!-- Node4&#45;&gt;Node3 -->
<g id="edge3_Node000003_Node000004" class="edge">
<title>Node4&#45;&gt;Node3</title>
<g id="a_edge3_Node000003_Node000004"><a xlink:title=" ">
<path fill="none" stroke="#63b8ff" d="M53.88,-492.85C53.88,-484.3 53.88,-475.27 53.88,-466.98"/>
<polygon fill="none" stroke="#63b8ff" points="50.38,-492.56 53.88,-502.56 57.38,-492.56 50.38,-492.56"/>
</a>
</g>
</g>
<!-- Node5 -->
<g id="Node000005" class="node">
<title>Node5</title>
<g id="a_Node000005"><a xlink:title=" ">
<polygon fill="white" stroke="none" points="87.12,-645 20.62,-645 20.62,-593 87.12,-593 87.12,-645"/>
<text xml:space="preserve" text-anchor="start" x="24.62" y="-631.5" font-family="Helvetica,sans-Serif" font-size="10.00">std::ios_base</text>
<text xml:space="preserve" text-anchor="start" x="52.38" y="-615.5" font-family="Helvetica,sans-Serif" font-size="10.00"> </text>
<text xml:space="preserve" text-anchor="start" x="52.38" y="-599.5" font-family="Helvetica,sans-Serif" font-size="10.00"> </text>
<polygon fill="#666666" stroke="#666666" points="20.62,-627 20.62,-627 87.12,-627 87.12,-627 20.62,-627"/>
<polygon fill="#666666" stroke="#666666" points="20.62,-611 20.62,-611 87.12,-611 87.12,-611 20.62,-611"/>
<polygon fill="none" stroke="#666666" points="20.62,-593 20.62,-645 87.12,-645 87.12,-593 20.62,-593"/>
</a>
</g>
</g>
<!-- Node5&#45;&gt;Node4 -->
<g id="edge4_Node000004_Node000005" class="edge">
<title>Node5&#45;&gt;Node4</title>
<g id="a_edge4_Node000004_Node000005"><a xlink:title=" ">
<path fill="none" stroke="#63b8ff" d="M53.88,-582.05C53.88,-573.21 53.88,-563.94 53.88,-555.76"/>
<polygon fill="none" stroke="#63b8ff" points="50.38,-581.79 53.88,-591.79 57.38,-581.79 50.38,-581.79"/>
</a>
</g>
</g>
</g>
</svg>
