<?xml version="1.0" encoding="UTF-8" standalone="no"?>
<!DOCTYPE svg PUBLIC "-//W3C//DTD SVG 1.1//EN"
 "http://www.w3.org/Graphics/SVG/1.1/DTD/svg11.dtd">
<!-- Generated by graphviz version 12.1.2 (0)
 -->
<!-- Title: anch::logger::Writer Pages: 1 -->
<svg width="288pt" height="321pt"
 viewBox="0.00 0.00 287.50 321.00" xmlns="http://www.w3.org/2000/svg" xmlns:xlink="http://www.w3.org/1999/xlink">

<svg id="main" version="1.1" xmlns="http://www.w3.org/2000/svg" xmlns:xlink="http://www.w3.org/1999/xlink" xml:space="preserve">

<style type="text/css"><![CDATA[
.node, .edge {opacity: 0.7;}
.node.selected, .edge.selected {opacity: 1;}
.edge:hover path { stroke: red; }
.edge:hover polygon { stroke: red; fill: red; }
]]></style>
<script type="application/ecmascript" xlink:href="svg.min.js"/>
<svg id="graph" class="graph">
<g id="graph0" class="graph" transform="scale(1 1) rotate(0) translate(4 317)">
<title>anch::logger::Writer</title>
<!-- Node1 -->
<g id="Node000001" class="node">
<title>Node1</title>
<g id="a_Node000001"><a xlink:title=" ">
<polygon fill="#999999" stroke="none" points="192,-313 86,-313 86,-165 192,-165 192,-313"/>
<text text-anchor="start" x="91" y="-299.5" font-family="Helvetica,sans-Serif" font-size="10.00">anch::logger::Writer</text>
<text text-anchor="start" x="96.38" y="-283.5" font-family="Helvetica,sans-Serif" font-size="10.00">#</text>
<text text-anchor="start" x="115" y="-283.5" font-family="Helvetica,sans-Serif" font-size="10.00">_output</text>
<text text-anchor="start" x="96.38" y="-267.5" font-family="Helvetica,sans-Serif" font-size="10.00">#</text>
<text text-anchor="start" x="115" y="-267.5" font-family="Helvetica,sans-Serif" font-size="10.00">_formatter</text>
<text text-anchor="start" x="96.38" y="-251.5" font-family="Helvetica,sans-Serif" font-size="10.00">+</text>
<text text-anchor="start" x="115" y="-251.5" font-family="Helvetica,sans-Serif" font-size="10.00">Writer()</text>
<text text-anchor="start" x="96.38" y="-235.5" font-family="Helvetica,sans-Serif" font-size="10.00">+</text>
<text text-anchor="start" x="115" y="-235.5" font-family="Helvetica,sans-Serif" font-size="10.00">Writer()</text>
<text text-anchor="start" x="96.38" y="-219.5" font-family="Helvetica,sans-Serif" font-size="10.00">+</text>
<text text-anchor="start" x="115" y="-219.5" font-family="Helvetica,sans-Serif" font-size="10.00">~Writer()</text>
<text text-anchor="start" x="96.38" y="-203.5" font-family="Helvetica,sans-Serif" font-size="10.00">+</text>
<text text-anchor="start" x="115" y="-203.5" font-family="Helvetica,sans-Serif" font-size="10.00">write()</text>
<text text-anchor="start" x="96.38" y="-187.5" font-family="Helvetica,sans-Serif" font-size="10.00">#</text>
<text text-anchor="start" x="115" y="-187.5" font-family="Helvetica,sans-Serif" font-size="10.00">rotate()</text>
<text text-anchor="start" x="96.38" y="-171.5" font-family="Helvetica,sans-Serif" font-size="10.00">#</text>
<text text-anchor="start" x="115" y="-171.5" font-family="Helvetica,sans-Serif" font-size="10.00">rotateFiles()</text>
<polygon fill="#666666" stroke="#666666" points="86,-295 86,-295 192,-295 192,-295 86,-295"/>
<polygon fill="#666666" stroke="#666666" points="86,-263 86,-263 113,-263 113,-263 86,-263"/>
<polygon fill="#666666" stroke="#666666" points="113,-263 113,-263 192,-263 192,-263 113,-263"/>
<polygon fill="none" stroke="#666666" points="86,-165 86,-313 192,-313 192,-165 86,-165"/>
</a>
</g>
</g>
<!-- Node2 -->
<g id="Node000002" class="node">
<title>Node2</title>
<g id="a_Node000002"><a xlink:href="classanch_1_1logger_1_1_low_priority_writer.html" target="_top" xlink:title=" ">
<polygon fill="white" stroke="none" points="130,-129 0,-129 0,0 130,0 130,-129"/>
<text text-anchor="start" x="4.62" y="-115.5" font-family="Helvetica,sans-Serif" font-size="10.00">anch::logger::LowPriority</text>
<text text-anchor="start" x="50" y="-102.75" font-family="Helvetica,sans-Serif" font-size="10.00">Writer</text>
<text text-anchor="start" x="63.5" y="-86.5" font-family="Helvetica,sans-Serif" font-size="10.00"> </text>
<text text-anchor="start" x="6.38" y="-70.5" font-family="Helvetica,sans-Serif" font-size="10.00">+</text>
<text text-anchor="start" x="21" y="-70.5" font-family="Helvetica,sans-Serif" font-size="10.00">LowPriorityWriter()</text>
<text text-anchor="start" x="6.38" y="-54.5" font-family="Helvetica,sans-Serif" font-size="10.00">+</text>
<text text-anchor="start" x="21" y="-54.5" font-family="Helvetica,sans-Serif" font-size="10.00">LowPriorityWriter()</text>
<text text-anchor="start" x="6.38" y="-38.5" font-family="Helvetica,sans-Serif" font-size="10.00">+</text>
<text text-anchor="start" x="21" y="-38.5" font-family="Helvetica,sans-Serif" font-size="10.00">~LowPriorityWriter()</text>
<text text-anchor="start" x="6.38" y="-22.5" font-family="Helvetica,sans-Serif" font-size="10.00">+</text>
<text text-anchor="start" x="21" y="-22.5" font-family="Helvetica,sans-Serif" font-size="10.00">write()</text>
<text text-anchor="start" x="6.38" y="-6.5" font-family="Helvetica,sans-Serif" font-size="10.00">+</text>
<text text-anchor="start" x="21" y="-6.5" font-family="Helvetica,sans-Serif" font-size="10.00">startTreatment()</text>
<polygon fill="#666666" stroke="#666666" points="0,-98 0,-98 130,-98 130,-98 0,-98"/>
<polygon fill="#666666" stroke="#666666" points="0,-82 0,-82 130,-82 130,-82 0,-82"/>
<polygon fill="none" stroke="#666666" points="0,0 0,-129 130,-129 130,0 0,0"/>
</a>
</g>
</g>
<!-- Node1&#45;&gt;Node2 -->
<g id="edge1_Node000001_Node000002" class="edge">
<title>Node1&#45;&gt;Node2</title>
<g id="a_edge1_Node000001_Node000002"><a xlink:title=" ">
<path fill="none" stroke="#63b8ff" d="M103.4,-155.02C99.62,-146.2 95.81,-137.32 92.14,-128.77"/>
<polygon fill="none" stroke="#63b8ff" points="100.08,-156.14 107.24,-163.95 106.51,-153.38 100.08,-156.14"/>
</a>
</g>
</g>
<!-- Node3 -->
<g id="Node000003" class="node">
<title>Node3</title>
<g id="a_Node000003"><a xlink:href="classanch_1_1logger_1_1_thread_safe_writer.html" target="_top" xlink:title=" ">
<polygon fill="white" stroke="none" points="279.5,-121 148.5,-121 148.5,-8 279.5,-8 279.5,-121"/>
<text text-anchor="start" x="153.25" y="-107.5" font-family="Helvetica,sans-Serif" font-size="10.00">anch::logger::ThreadSafe</text>
<text text-anchor="start" x="199" y="-94.75" font-family="Helvetica,sans-Serif" font-size="10.00">Writer</text>
<text text-anchor="start" x="212.5" y="-78.5" font-family="Helvetica,sans-Serif" font-size="10.00"> </text>
<text text-anchor="start" x="154.88" y="-62.5" font-family="Helvetica,sans-Serif" font-size="10.00">+</text>
<text text-anchor="start" x="169.5" y="-62.5" font-family="Helvetica,sans-Serif" font-size="10.00">ThreadSafeWriter()</text>
<text text-anchor="start" x="154.88" y="-46.5" font-family="Helvetica,sans-Serif" font-size="10.00">+</text>
<text text-anchor="start" x="169.5" y="-46.5" font-family="Helvetica,sans-Serif" font-size="10.00">ThreadSafeWriter()</text>
<text text-anchor="start" x="154.88" y="-30.5" font-family="Helvetica,sans-Serif" font-size="10.00">+</text>
<text text-anchor="start" x="169.5" y="-30.5" font-family="Helvetica,sans-Serif" font-size="10.00">~ThreadSafeWriter()</text>
<text text-anchor="start" x="154.88" y="-14.5" font-family="Helvetica,sans-Serif" font-size="10.00">+</text>
<text text-anchor="start" x="169.5" y="-14.5" font-family="Helvetica,sans-Serif" font-size="10.00">write()</text>
<polygon fill="#666666" stroke="#666666" points="148.5,-90 148.5,-90 279.5,-90 279.5,-90 148.5,-90"/>
<polygon fill="#666666" stroke="#666666" points="148.5,-74 148.5,-74 279.5,-74 279.5,-74 148.5,-74"/>
<polygon fill="none" stroke="#666666" points="148.5,-8 148.5,-121 279.5,-121 279.5,-8 148.5,-8"/>
</a>
</g>
</g>
<!-- Node1&#45;&gt;Node3 -->
<g id="edge2_Node000001_Node000003" class="edge">
<title>Node1&#45;&gt;Node3</title>
<g id="a_edge2_Node000001_Node000003"><a xlink:title=" ">
<path fill="none" stroke="#63b8ff" d="M175.18,-154.79C180.2,-143.25 185.25,-131.63 189.97,-120.77"/>
<polygon fill="none" stroke="#63b8ff" points="171.97,-153.39 171.19,-163.96 178.39,-156.18 171.97,-153.39"/>
</a>
</g>
</g>
</g>
</svg>
</svg>

<style type='text/css'>
<![CDATA[
[data-mouse-over-selected='false'] { opacity: 0.7; }
[data-mouse-over-selected='true']  { opacity: 1.0; }
]]>
</style>
<script type="application/ecmascript"><![CDATA[
document.addEventListener('DOMContentLoaded', (event) => {
  highlightEdges();
  highlightAdjacentNodes();
});
]]></script>
</svg>
