<?xml version="1.0" encoding="UTF-8" standalone="no"?>
<!DOCTYPE svg PUBLIC "-//W3C//DTD SVG 1.1//EN"
 "http://www.w3.org/Graphics/SVG/1.1/DTD/svg11.dtd">
<!-- Generated by graphviz version 9.0.0 (0)
 -->
<!-- Title: anch::events::Observer&lt; T &gt; Pages: 1 -->
<svg width="292pt" height="222pt"
 viewBox="0.00 0.00 292.00 221.75" xmlns="http://www.w3.org/2000/svg" xmlns:xlink="http://www.w3.org/1999/xlink">
<g id="graph0" class="graph" transform="scale(1 1) rotate(0) translate(4 217.75)">
<title>anch::events::Observer&lt; T &gt;</title>
<!-- Node1 -->
<g id="Node000001" class="node">
<title>Node1</title>
<g id="a_Node000001"><a xlink:title="An observer interface of the observers/observable design pattern.">
<polygon fill="#999999" stroke="none" points="222.5,-213.75 71.5,-213.75 71.5,-161.75 222.5,-161.75 222.5,-213.75"/>
<text text-anchor="start" x="76.5" y="-200.25" font-family="Helvetica,sans-Serif" font-size="10.00">anch::events::Observer&lt; T &gt;</text>
<text text-anchor="start" x="145.5" y="-184.25" font-family="Helvetica,sans-Serif" font-size="10.00"> </text>
<text text-anchor="start" x="97.88" y="-168.25" font-family="Helvetica,sans-Serif" font-size="10.00">+</text>
<text text-anchor="start" x="132.5" y="-168.25" font-family="Helvetica,sans-Serif" font-size="10.00">handle()</text>
<polygon fill="#666666" stroke="#666666" points="71.5,-195.75 71.5,-195.75 222.5,-195.75 222.5,-195.75 71.5,-195.75"/>
<polygon fill="#666666" stroke="#666666" points="71.5,-179.75 71.5,-179.75 222.5,-179.75 222.5,-179.75 71.5,-179.75"/>
<polygon fill="none" stroke="#666666" points="71.5,-161.75 71.5,-213.75 222.5,-213.75 222.5,-161.75 71.5,-161.75"/>
</a>
</g>
</g>
<!-- Node2 -->
<g id="Node000002" class="node">
<title>Node2</title>
<g id="a_Node000002"><a xlink:href="classanch_1_1events_1_1_event_handler.html" target="_top" xlink:title="An event handler.">
<polygon fill="white" stroke="none" points="144,-113 0,-113 0,0 144,0 144,-113"/>
<text text-anchor="start" x="4.88" y="-99.5" font-family="Helvetica,sans-Serif" font-size="10.00">anch::events::EventHandler</text>
<text text-anchor="start" x="35.62" y="-86.75" font-family="Helvetica,sans-Serif" font-size="10.00">&lt; T, Derived &gt;</text>
<text text-anchor="start" x="70.5" y="-70.5" font-family="Helvetica,sans-Serif" font-size="10.00"> </text>
<text text-anchor="start" x="14.38" y="-54.5" font-family="Helvetica,sans-Serif" font-size="10.00">+</text>
<text text-anchor="start" x="37" y="-54.5" font-family="Helvetica,sans-Serif" font-size="10.00">EventHandler()</text>
<text text-anchor="start" x="14.38" y="-38.5" font-family="Helvetica,sans-Serif" font-size="10.00">+</text>
<text text-anchor="start" x="37" y="-38.5" font-family="Helvetica,sans-Serif" font-size="10.00">EventHandler()</text>
<text text-anchor="start" x="14.38" y="-22.5" font-family="Helvetica,sans-Serif" font-size="10.00">+</text>
<text text-anchor="start" x="37" y="-22.5" font-family="Helvetica,sans-Serif" font-size="10.00">~EventHandler()</text>
<text text-anchor="start" x="14.38" y="-6.5" font-family="Helvetica,sans-Serif" font-size="10.00">+</text>
<text text-anchor="start" x="37" y="-6.5" font-family="Helvetica,sans-Serif" font-size="10.00">handle()</text>
<polygon fill="#666666" stroke="#666666" points="0,-82 0,-82 144,-82 144,-82 0,-82"/>
<polygon fill="#666666" stroke="#666666" points="0,-66 0,-66 144,-66 144,-66 0,-66"/>
<polygon fill="none" stroke="#666666" points="0,0 0,-113 144,-113 144,0 0,0"/>
</a>
</g>
</g>
<!-- Node1&#45;&gt;Node2 -->
<g id="edge1_Node000001_Node000002" class="edge">
<title>Node1&#45;&gt;Node2</title>
<g id="a_edge1_Node000001_Node000002"><a xlink:title=" ">
<path fill="none" stroke="#63b8ff" d="M126.93,-152.16C119.92,-140.08 111.86,-126.2 104.12,-112.85"/>
<polygon fill="none" stroke="#63b8ff" points="123.73,-153.63 131.78,-160.52 129.79,-150.11 123.73,-153.63"/>
</a>
</g>
</g>
<!-- Node3 -->
<g id="Node000003" class="node">
<title>Node3</title>
<g id="a_Node000003"><a xlink:href="classanch_1_1events_1_1_observer.html" target="_top" xlink:title=" ">
<polygon fill="white" stroke="none" points="284,-89 162,-89 162,-24 284,-24 284,-89"/>
<text text-anchor="start" x="166.75" y="-75.5" font-family="Helvetica,sans-Serif" font-size="10.00">anch::events::Observer</text>
<text text-anchor="start" x="181.75" y="-62.75" font-family="Helvetica,sans-Serif" font-size="10.00">&lt; SocketEvent &gt;</text>
<text text-anchor="start" x="221.5" y="-46.5" font-family="Helvetica,sans-Serif" font-size="10.00"> </text>
<text text-anchor="start" x="181.38" y="-30.5" font-family="Helvetica,sans-Serif" font-size="10.00">+</text>
<text text-anchor="start" x="209" y="-30.5" font-family="Helvetica,sans-Serif" font-size="10.00">handle()</text>
<polygon fill="#666666" stroke="#666666" points="162,-58 162,-58 284,-58 284,-58 162,-58"/>
<polygon fill="#666666" stroke="#666666" points="162,-42 162,-42 284,-42 284,-42 162,-42"/>
<polygon fill="none" stroke="#666666" points="162,-24 162,-89 284,-89 284,-24 162,-24"/>
</a>
</g>
</g>
<!-- Node1&#45;&gt;Node3 -->
<g id="edge2_Node000001_Node000003" class="edge">
<title>Node1&#45;&gt;Node3</title>
<g id="a_edge2_Node000001_Node000003"><a xlink:title=" ">
<path fill="none" stroke="orange" d="M167.43,-152.01C179.01,-132.31 193.4,-107.85 204.63,-88.75"/>
<polygon fill="orange" stroke="orange" points="164.47,-150.13 162.42,-160.52 170.51,-153.68 164.47,-150.13"/>
</a>
</g>
<text text-anchor="middle" x="221.75" y="-134.25" font-family="Helvetica,sans-Serif" font-size="10.00" fill="grey"> &lt; SocketEvent &gt;</text>
</g>
</g>
</svg>
