<?xml version="1.0" encoding="UTF-8" standalone="no"?>
<!DOCTYPE svg PUBLIC "-//W3C//DTD SVG 1.1//EN"
 "http://www.w3.org/Graphics/SVG/1.1/DTD/svg11.dtd">
<!-- Generated by graphviz version 12.2.1 (0)
 -->
<!-- Title: anch::ut::Runner Pages: 1 -->
<svg width="290pt" height="428pt"
 viewBox="0.00 0.00 289.50 428.00" xmlns="http://www.w3.org/2000/svg" xmlns:xlink="http://www.w3.org/1999/xlink">
<g id="graph0" class="graph" transform="scale(1 1) rotate(0) translate(4 424)">
<title>anch::ut::Runner</title>
<!-- Node1 -->
<g id="Node000001" class="node">
<title>Node1</title>
<g id="a_Node000001"><a xlink:title="Unit tests runner.">
<polygon fill="#999999" stroke="none" points="181.38,-420 100.62,-420 100.62,-336 181.38,-336 181.38,-420"/>
<text text-anchor="start" x="104.62" y="-406.5" font-family="Helvetica,sans-Serif" font-size="10.00">anch::ut::Runner</text>
<text text-anchor="start" x="139.5" y="-390.5" font-family="Helvetica,sans-Serif" font-size="10.00"> </text>
<text text-anchor="start" x="108.31" y="-374.5" font-family="Helvetica,sans-Serif" font-size="10.00">+</text>
<text text-anchor="start" x="122" y="-374.5" font-family="Helvetica,sans-Serif" font-size="10.00">startup()</text>
<text text-anchor="start" x="108.31" y="-358.5" font-family="Helvetica,sans-Serif" font-size="10.00">+</text>
<text text-anchor="start" x="122" y="-358.5" font-family="Helvetica,sans-Serif" font-size="10.00">shutdown()</text>
<text text-anchor="start" x="108.31" y="-342.5" font-family="Helvetica,sans-Serif" font-size="10.00">+</text>
<text text-anchor="start" x="122" y="-342.5" font-family="Helvetica,sans-Serif" font-size="10.00">test()</text>
<polygon fill="#666666" stroke="#666666" points="100.62,-402 100.62,-402 181.38,-402 181.38,-402 100.62,-402"/>
<polygon fill="#666666" stroke="#666666" points="100.62,-386 100.62,-386 181.38,-386 181.38,-386 100.62,-386"/>
<polygon fill="none" stroke="#666666" points="100.62,-336 100.62,-420 181.38,-420 181.38,-336 100.62,-336"/>
</a>
</g>
</g>
<!-- Node2 -->
<g id="Node000002" class="node">
<title>Node2</title>
<g id="a_Node000002"><a xlink:href="classanch_1_1ut_1_1_default_runner.html" target="_top" xlink:title="Default unit tests runner.">
<polygon fill="white" stroke="none" points="126.12,-292 13.88,-292 13.88,-160 126.12,-160 126.12,-292"/>
<text text-anchor="start" x="17.88" y="-278.5" font-family="Helvetica,sans-Serif" font-size="10.00">anch::ut::DefaultRunner</text>
<text text-anchor="start" x="68.5" y="-262.5" font-family="Helvetica,sans-Serif" font-size="10.00"> </text>
<text text-anchor="start" x="24.19" y="-246.5" font-family="Helvetica,sans-Serif" font-size="10.00">+</text>
<text text-anchor="start" x="40.5" y="-246.5" font-family="Helvetica,sans-Serif" font-size="10.00">DefaultRunner()</text>
<text text-anchor="start" x="24.19" y="-230.5" font-family="Helvetica,sans-Serif" font-size="10.00">+</text>
<text text-anchor="start" x="40.5" y="-230.5" font-family="Helvetica,sans-Serif" font-size="10.00">DefaultRunner()</text>
<text text-anchor="start" x="24.19" y="-214.5" font-family="Helvetica,sans-Serif" font-size="10.00">+</text>
<text text-anchor="start" x="40.5" y="-214.5" font-family="Helvetica,sans-Serif" font-size="10.00">DefaultRunner()</text>
<text text-anchor="start" x="24.19" y="-198.5" font-family="Helvetica,sans-Serif" font-size="10.00">+</text>
<text text-anchor="start" x="40.5" y="-198.5" font-family="Helvetica,sans-Serif" font-size="10.00">startup()</text>
<text text-anchor="start" x="24.19" y="-182.5" font-family="Helvetica,sans-Serif" font-size="10.00">+</text>
<text text-anchor="start" x="40.5" y="-182.5" font-family="Helvetica,sans-Serif" font-size="10.00">shutdown()</text>
<text text-anchor="start" x="24.19" y="-166.5" font-family="Helvetica,sans-Serif" font-size="10.00">+</text>
<text text-anchor="start" x="40.5" y="-166.5" font-family="Helvetica,sans-Serif" font-size="10.00">test()</text>
<polygon fill="#666666" stroke="#666666" points="13.88,-274 13.88,-274 126.12,-274 126.12,-274 13.88,-274"/>
<polygon fill="#666666" stroke="#666666" points="13.88,-258 13.88,-258 126.12,-258 126.12,-258 13.88,-258"/>
<polygon fill="none" stroke="#666666" points="13.88,-160 13.88,-292 126.12,-292 126.12,-160 13.88,-160"/>
</a>
</g>
</g>
<!-- Node1&#45;&gt;Node2 -->
<g id="edge1_Node000001_Node000002" class="edge">
<title>Node1&#45;&gt;Node2</title>
<g id="a_edge1_Node000001_Node000002"><a xlink:title=" ">
<path fill="none" stroke="#63b8ff" d="M116.77,-325.82C111.61,-314.91 106.09,-303.25 100.72,-291.91"/>
<polygon fill="none" stroke="#63b8ff" points="113.51,-327.1 120.95,-334.64 119.84,-324.11 113.51,-327.1"/>
</a>
</g>
</g>
<!-- Node4 -->
<g id="Node000004" class="node">
<title>Node4</title>
<g id="a_Node000004"><a xlink:href="classanch_1_1ut_1_1_socket_client_runner.html" target="_top" xlink:title="Socket client unit tests runner.">
<polygon fill="white" stroke="none" points="281.5,-300 144.5,-300 144.5,-152 281.5,-152 281.5,-300"/>
<text text-anchor="start" x="148.5" y="-286.5" font-family="Helvetica,sans-Serif" font-size="10.00">anch::ut::SocketClientRunner</text>
<text text-anchor="start" x="211.5" y="-270.5" font-family="Helvetica,sans-Serif" font-size="10.00"> </text>
<text text-anchor="start" x="153.31" y="-254.5" font-family="Helvetica,sans-Serif" font-size="10.00">+</text>
<text text-anchor="start" x="168.12" y="-254.5" font-family="Helvetica,sans-Serif" font-size="10.00">SocketClientRunner()</text>
<text text-anchor="start" x="153.31" y="-238.5" font-family="Helvetica,sans-Serif" font-size="10.00">+</text>
<text text-anchor="start" x="168.12" y="-238.5" font-family="Helvetica,sans-Serif" font-size="10.00">SocketClientRunner()</text>
<text text-anchor="start" x="153.31" y="-222.5" font-family="Helvetica,sans-Serif" font-size="10.00">+</text>
<text text-anchor="start" x="168.12" y="-222.5" font-family="Helvetica,sans-Serif" font-size="10.00">SocketClientRunner()</text>
<text text-anchor="start" x="153.31" y="-206.5" font-family="Helvetica,sans-Serif" font-size="10.00">+</text>
<text text-anchor="start" x="168.12" y="-206.5" font-family="Helvetica,sans-Serif" font-size="10.00">~SocketClientRunner()</text>
<text text-anchor="start" x="153.31" y="-190.5" font-family="Helvetica,sans-Serif" font-size="10.00">+</text>
<text text-anchor="start" x="168.12" y="-190.5" font-family="Helvetica,sans-Serif" font-size="10.00">startup()</text>
<text text-anchor="start" x="153.31" y="-174.5" font-family="Helvetica,sans-Serif" font-size="10.00">+</text>
<text text-anchor="start" x="168.12" y="-174.5" font-family="Helvetica,sans-Serif" font-size="10.00">shutdown()</text>
<text text-anchor="start" x="153.31" y="-158.5" font-family="Helvetica,sans-Serif" font-size="10.00">+</text>
<text text-anchor="start" x="168.12" y="-158.5" font-family="Helvetica,sans-Serif" font-size="10.00">test()</text>
<polygon fill="#666666" stroke="#666666" points="144.5,-282 144.5,-282 281.5,-282 281.5,-282 144.5,-282"/>
<polygon fill="#666666" stroke="#666666" points="144.5,-266 144.5,-266 281.5,-266 281.5,-266 144.5,-266"/>
<polygon fill="none" stroke="#666666" points="144.5,-152 144.5,-300 281.5,-300 281.5,-152 144.5,-152"/>
</a>
</g>
</g>
<!-- Node1&#45;&gt;Node4 -->
<g id="edge3_Node000001_Node000004" class="edge">
<title>Node1&#45;&gt;Node4</title>
<g id="a_edge3_Node000001_Node000004"><a xlink:title=" ">
<path fill="none" stroke="#63b8ff" d="M165.6,-325.74C169.6,-317.42 173.8,-308.67 177.98,-299.95"/>
<polygon fill="none" stroke="#63b8ff" points="162.5,-324.12 161.33,-334.65 168.81,-327.15 162.5,-324.12"/>
</a>
</g>
</g>
<!-- Node3 -->
<g id="Node000003" class="node">
<title>Node3</title>
<g id="a_Node000003"><a xlink:href="classanch_1_1ut_1_1_socket_server_runner.html" target="_top" xlink:title="Socket server unit tests runner.">
<polygon fill="white" stroke="none" points="140,-116 0,-116 0,0 140,0 140,-116"/>
<text text-anchor="start" x="4" y="-102.5" font-family="Helvetica,sans-Serif" font-size="10.00">anch::ut::SocketServerRunner</text>
<text text-anchor="start" x="68.5" y="-86.5" font-family="Helvetica,sans-Serif" font-size="10.00"> </text>
<text text-anchor="start" x="8.81" y="-70.5" font-family="Helvetica,sans-Serif" font-size="10.00">+</text>
<text text-anchor="start" x="23.62" y="-70.5" font-family="Helvetica,sans-Serif" font-size="10.00">SocketServerRunner()</text>
<text text-anchor="start" x="8.81" y="-54.5" font-family="Helvetica,sans-Serif" font-size="10.00">+</text>
<text text-anchor="start" x="23.62" y="-54.5" font-family="Helvetica,sans-Serif" font-size="10.00">SocketServerRunner()</text>
<text text-anchor="start" x="8.81" y="-38.5" font-family="Helvetica,sans-Serif" font-size="10.00">+</text>
<text text-anchor="start" x="23.62" y="-38.5" font-family="Helvetica,sans-Serif" font-size="10.00">SocketServerRunner()</text>
<text text-anchor="start" x="8.81" y="-22.5" font-family="Helvetica,sans-Serif" font-size="10.00">+</text>
<text text-anchor="start" x="23.62" y="-22.5" font-family="Helvetica,sans-Serif" font-size="10.00">~SocketServerRunner()</text>
<text text-anchor="start" x="8.81" y="-6.5" font-family="Helvetica,sans-Serif" font-size="10.00">+</text>
<text text-anchor="start" x="23.62" y="-6.5" font-family="Helvetica,sans-Serif" font-size="10.00">handle()</text>
<polygon fill="#666666" stroke="#666666" points="0,-98 0,-98 140,-98 140,-98 0,-98"/>
<polygon fill="#666666" stroke="#666666" points="0,-82 0,-82 140,-82 140,-82 0,-82"/>
<polygon fill="none" stroke="#666666" points="0,0 0,-116 140,-116 140,0 0,0"/>
</a>
</g>
</g>
<!-- Node2&#45;&gt;Node3 -->
<g id="edge2_Node000002_Node000003" class="edge">
<title>Node2&#45;&gt;Node3</title>
<g id="a_edge2_Node000002_Node000003"><a xlink:title=" ">
<path fill="none" stroke="#63b8ff" d="M70,-148.88C70,-137.79 70,-126.54 70,-115.92"/>
<polygon fill="none" stroke="#63b8ff" points="66.5,-148.83 70,-158.83 73.5,-148.83 66.5,-148.83"/>
</a>
</g>
</g>
</g>
</svg>
