<?xml version="1.0" encoding="UTF-8" standalone="no"?>
<!DOCTYPE svg PUBLIC "-//W3C//DTD SVG 1.1//EN"
 "http://www.w3.org/Graphics/SVG/1.1/DTD/svg11.dtd">
<!-- Generated by graphviz version 7.0.4 (0)
 -->
<!-- Title: anch::sql::SqlConnectionFactory Pages: 1 -->
<svg width="229pt" height="248pt"
 viewBox="0.00 0.00 228.50 248.00" xmlns="http://www.w3.org/2000/svg" xmlns:xlink="http://www.w3.org/1999/xlink">
<g id="graph0" class="graph" transform="scale(1 1) rotate(0) translate(4 244)">
<title>anch::sql::SqlConnectionFactory</title>
<!-- Node1 -->
<g id="node1" class="node">
<title>Node1</title>
<g id="a_node1"><a xlink:title="SQL connection factory.">
<polygon fill="#999999" stroke="#666666" points="160.5,-63 18.5,-63 18.5,0 160.5,0 160.5,-63"/>
<text text-anchor="start" x="26.5" y="-51" font-family="Helvetica,sans-Serif" font-size="10.00">{anch::sql::SqlConnection</text>
<text text-anchor="middle" x="89.5" y="-40" font-family="Helvetica,sans-Serif" font-size="10.00">Factory</text>
<text text-anchor="start" x="26.5" y="-29" font-family="Helvetica,sans-Serif" font-size="10.00">||+ createConnection()</text>
<text text-anchor="start" x="26.5" y="-18" font-family="Helvetica,sans-Serif" font-size="10.00">+ getPool()</text>
<text text-anchor="middle" x="89.5" y="-7" font-family="Helvetica,sans-Serif" font-size="10.00">}</text>
</a>
</g>
</g>
<!-- Node2 -->
<g id="node2" class="node">
<title>Node2</title>
<g id="a_node2"><a xlink:href="classanch_1_1_singleton.html" target="_top" xlink:title=" ">
<polygon fill="white" stroke="#666666" points="179,-152 0,-152 0,-100 179,-100 179,-152"/>
<text text-anchor="start" x="8" y="-140" font-family="Helvetica,sans-Serif" font-size="10.00">{anch::Singleton&lt; SqlConnection</text>
<text text-anchor="middle" x="89.5" y="-129" font-family="Helvetica,sans-Serif" font-size="10.00">Factory &gt;</text>
<text text-anchor="start" x="8" y="-118" font-family="Helvetica,sans-Serif" font-size="10.00">||+ getInstance()</text>
<text text-anchor="middle" x="89.5" y="-107" font-family="Helvetica,sans-Serif" font-size="10.00">}</text>
</a>
</g>
</g>
<!-- Node2&#45;&gt;Node1 -->
<g id="edge1" class="edge">
<title>Node2&#45;&gt;Node1</title>
<path fill="none" stroke="#63b8ff" d="M89.5,-88.4C89.5,-80.11 89.5,-71.38 89.5,-63.35"/>
<polygon fill="none" stroke="#63b8ff" points="86,-88.21 89.5,-98.21 93,-88.21 86,-88.21"/>
</g>
<!-- Node3 -->
<g id="node3" class="node">
<title>Node3</title>
<g id="a_node3"><a xlink:href="classanch_1_1_singleton.html" target="_top" xlink:title="Meyers&#39; singleton implemtation.">
<polygon fill="white" stroke="#666666" points="152.5,-240 26.5,-240 26.5,-199 152.5,-199 152.5,-240"/>
<text text-anchor="middle" x="89.5" y="-228" font-family="Helvetica,sans-Serif" font-size="10.00">{anch::Singleton&lt; T &gt;</text>
<text text-anchor="start" x="34.5" y="-217" font-family="Helvetica,sans-Serif" font-size="10.00">||+ getInstance()</text>
<text text-anchor="middle" x="89.5" y="-206" font-family="Helvetica,sans-Serif" font-size="10.00">}</text>
</a>
</g>
</g>
<!-- Node3&#45;&gt;Node2 -->
<g id="edge2" class="edge">
<title>Node3&#45;&gt;Node2</title>
<path fill="none" stroke="orange" d="M89.5,-187.39C89.5,-175.99 89.5,-163.23 89.5,-152.39"/>
<polygon fill="orange" stroke="orange" points="86,-187.13 89.5,-197.13 93,-187.13 86,-187.13"/>
<text text-anchor="middle" x="155" y="-173" font-family="Helvetica,sans-Serif" font-size="10.00"> &lt; SqlConnectionFactory &gt;</text>
</g>
</g>
</svg>
