<?xml version="1.0" encoding="UTF-8" standalone="no"?>
<!DOCTYPE svg PUBLIC "-//W3C//DTD SVG 1.1//EN"
 "http://www.w3.org/Graphics/SVG/1.1/DTD/svg11.dtd">
<!-- Generated by graphviz version 13.1.2 (0)
 -->
<!-- Title: Reader Pages: 1 -->
<!--zoomable 719 -->

<svg id="main" version="1.1" xmlns="http://www.w3.org/2000/svg" xmlns:xlink="http://www.w3.org/1999/xlink" xml:space="preserve" onload="init(evt)">

<style type="text/css"><![CDATA[
.node, .edge {opacity: 0.7;}
.node.selected, .edge.selected {opacity: 1;}
.edge:hover path { stroke: red; }
.edge:hover polygon { stroke: red; fill: red; }
]]></style>

<defs>
  <circle id="rim" cx="0" cy="0" r="7"/>
  <circle id="rim2" cx="0" cy="0" r="3.5"/>
  <g id="zoomPlus">
    <use xlink:href="#rim" fill="#404040"><set attributeName="fill" to="#808080" begin="zoomplus.mouseover" end="zoomplus.mouseout"/></use>
    <path d="M-4,0h8M0,-4v8" fill="none" stroke="white" stroke-width="1.5" pointer-events="none"/>
  </g>
  <g id="zoomMin">
    <use xlink:href="#rim" fill="#404040"><set attributeName="fill" to="#808080" begin="zoomminus.mouseover" end="zoomminus.mouseout"/></use>
    <path d="M-4,0h8" fill="none" stroke="white" stroke-width="1.5" pointer-events="none"/>
  </g>
  <g id="arrowUp" transform="translate(30 24)">
    <use xlink:href="#rim"/>
    <path pointer-events="none" fill="none" stroke="white" stroke-width="1.5" d="M0,-3.0v7 M-2.5,-0.5L0,-3.0L2.5,-0.5"/>
  </g>
  <g id="arrowRight" transform="rotate(90) translate(36 -43)">
    <use xlink:href="#rim"/>
    <path pointer-events="none" fill="none" stroke="white" stroke-width="1.5" d="M0,-3.0v7 M-2.5,-0.5L0,-3.0L2.5,-0.5"/>
  </g>
  <g id="arrowDown" transform="rotate(180) translate(-30 -48)">
    <use xlink:href="#rim"/>
    <path pointer-events="none" fill="none" stroke="white" stroke-width="1.5" d="M0,-3.0v7 M-2.5,-0.5L0,-3.0L2.5,-0.5"/>
  </g>
  <g id="arrowLeft" transform="rotate(270) translate(-36 17)">
    <use xlink:href="#rim"/>
    <path pointer-events="none" fill="none" stroke="white" stroke-width="1.5" d="M0,-3.0v7 M-2.5,-0.5L0,-3.0L2.5,-0.5"/>
  </g>
  <g id="resetDef">
    <use xlink:href="#rim2" fill="#404040"><set attributeName="fill" to="#808080" begin="reset.mouseover" end="reset.mouseout"/></use>
  </g>
</defs>
<script type="application/ecmascript">
var viewWidth = 565;
var viewHeight = 719;
var sectionId = 'dynsection-0';
</script>
<script type="application/ecmascript" xlink:href="svg.min.js"/>
<svg id="graph" class="graph">
<g id="viewport">
<title>Reader</title>
<!-- Node1 -->
<g id="Node000001" class="node">
<title>Node1</title>
<g id="a_Node000001"><a xlink:title="JSON reader based on events.">
<polygon fill="#999999" stroke="none" points="298.5,-196 231,-196 231,0 298.5,0 298.5,-196"/>
<text xml:space="preserve" text-anchor="start" x="249" y="-182.5" font-family="Helvetica,sans-Serif" font-size="10.00">Reader</text>
<text xml:space="preserve" text-anchor="start" x="263.25" y="-166.5" font-family="Helvetica,sans-Serif" font-size="10.00"> </text>
<text xml:space="preserve" text-anchor="start" x="235" y="-150.5" font-family="Helvetica,sans-Serif" font-size="10.00">+</text>
<text xml:space="preserve" text-anchor="start" x="245" y="-150.5" font-family="Helvetica,sans-Serif" font-size="10.00">Reader()</text>
<text xml:space="preserve" text-anchor="start" x="235" y="-134.5" font-family="Helvetica,sans-Serif" font-size="10.00">+</text>
<text xml:space="preserve" text-anchor="start" x="245" y="-134.5" font-family="Helvetica,sans-Serif" font-size="10.00">Reader()</text>
<text xml:space="preserve" text-anchor="start" x="235" y="-118.5" font-family="Helvetica,sans-Serif" font-size="10.00">+</text>
<text xml:space="preserve" text-anchor="start" x="245" y="-118.5" font-family="Helvetica,sans-Serif" font-size="10.00">Reader()</text>
<text xml:space="preserve" text-anchor="start" x="235" y="-102.5" font-family="Helvetica,sans-Serif" font-size="10.00">+</text>
<text xml:space="preserve" text-anchor="start" x="245" y="-102.5" font-family="Helvetica,sans-Serif" font-size="10.00">Reader()</text>
<text xml:space="preserve" text-anchor="start" x="235" y="-86.5" font-family="Helvetica,sans-Serif" font-size="10.00">+</text>
<text xml:space="preserve" text-anchor="start" x="245" y="-86.5" font-family="Helvetica,sans-Serif" font-size="10.00">~Reader()</text>
<text xml:space="preserve" text-anchor="start" x="235" y="-70.5" font-family="Helvetica,sans-Serif" font-size="10.00">+</text>
<text xml:space="preserve" text-anchor="start" x="245" y="-70.5" font-family="Helvetica,sans-Serif" font-size="10.00">parse()</text>
<text xml:space="preserve" text-anchor="start" x="235" y="-54.5" font-family="Helvetica,sans-Serif" font-size="10.00">+</text>
<text xml:space="preserve" text-anchor="start" x="245" y="-54.5" font-family="Helvetica,sans-Serif" font-size="10.00">itemObs()</text>
<text xml:space="preserve" text-anchor="start" x="235" y="-38.5" font-family="Helvetica,sans-Serif" font-size="10.00">+</text>
<text xml:space="preserve" text-anchor="start" x="245" y="-38.5" font-family="Helvetica,sans-Serif" font-size="10.00">sizeObs()</text>
<text xml:space="preserve" text-anchor="start" x="235" y="-22.5" font-family="Helvetica,sans-Serif" font-size="10.00">+</text>
<text xml:space="preserve" text-anchor="start" x="245" y="-22.5" font-family="Helvetica,sans-Serif" font-size="10.00">errorObs()</text>
<text xml:space="preserve" text-anchor="start" x="235.38" y="-6.5" font-family="Helvetica,sans-Serif" font-size="10.00">#</text>
<text xml:space="preserve" text-anchor="start" x="245" y="-6.5" font-family="Helvetica,sans-Serif" font-size="10.00">refillBuffer()</text>
<polygon fill="#666666" stroke="#666666" points="231,-178 231,-178 298.5,-178 298.5,-178 231,-178"/>
<polygon fill="#666666" stroke="#666666" points="231,-162 231,-162 298.5,-162 298.5,-162 231,-162"/>
<polygon fill="none" stroke="#666666" points="231,0 231,-196 298.5,-196 298.5,0 231,0"/>
</a>
</g>
</g>
<!-- Node2 -->
<g id="Node000002" class="node">
<title>Node2</title>
<g id="a_Node000002"><a xlink:href="classanch_1_1events_1_1_observable.html" target="_top" xlink:title=" ">
<polygon fill="white" stroke="none" points="123.5,-443 0,-443 0,-315 123.5,-315 123.5,-443"/>
<text xml:space="preserve" text-anchor="start" x="4" y="-429.5" font-family="Helvetica,sans-Serif" font-size="10.00">anch::events::Observable</text>
<text xml:space="preserve" text-anchor="start" x="4" y="-417.5" font-family="Helvetica,sans-Serif" font-size="10.00">&lt; anch::json::JSONItem &gt;</text>
<text xml:space="preserve" text-anchor="start" x="60.25" y="-401.5" font-family="Helvetica,sans-Serif" font-size="10.00"> </text>
<text xml:space="preserve" text-anchor="start" x="10.88" y="-385.5" font-family="Helvetica,sans-Serif" font-size="10.00">+</text>
<text xml:space="preserve" text-anchor="start" x="27.75" y="-385.5" font-family="Helvetica,sans-Serif" font-size="10.00">Observable()</text>
<text xml:space="preserve" text-anchor="start" x="10.88" y="-369.5" font-family="Helvetica,sans-Serif" font-size="10.00">+</text>
<text xml:space="preserve" text-anchor="start" x="27.75" y="-369.5" font-family="Helvetica,sans-Serif" font-size="10.00">~Observable()</text>
<text xml:space="preserve" text-anchor="start" x="10.88" y="-353.5" font-family="Helvetica,sans-Serif" font-size="10.00">+</text>
<text xml:space="preserve" text-anchor="start" x="27.75" y="-353.5" font-family="Helvetica,sans-Serif" font-size="10.00">addObserver()</text>
<text xml:space="preserve" text-anchor="start" x="10.88" y="-337.5" font-family="Helvetica,sans-Serif" font-size="10.00">+</text>
<text xml:space="preserve" text-anchor="start" x="27.75" y="-337.5" font-family="Helvetica,sans-Serif" font-size="10.00">removeObserver()</text>
<text xml:space="preserve" text-anchor="start" x="10.88" y="-321.5" font-family="Helvetica,sans-Serif" font-size="10.00">+</text>
<text xml:space="preserve" text-anchor="start" x="27.75" y="-321.5" font-family="Helvetica,sans-Serif" font-size="10.00">notifyObservers()</text>
<polygon fill="#666666" stroke="#666666" points="0,-413 0,-413 123.5,-413 123.5,-413 0,-413"/>
<polygon fill="#666666" stroke="#666666" points="0,-397 0,-397 123.5,-397 123.5,-397 0,-397"/>
<polygon fill="none" stroke="#666666" points="0,-315 0,-443 123.5,-443 123.5,-315 0,-315"/>
</a>
</g>
</g>
<!-- Node2&#45;&gt;Node1 -->
<g id="edge1_Node000001_Node000002" class="edge">
<title>Node2&#45;&gt;Node1</title>
<g id="a_edge1_Node000001_Node000002"><a xlink:title=" ">
<path fill="none" stroke="#63b8ff" d="M91.96,-304.8C103.24,-280.97 117.15,-255.01 132.75,-233 161.36,-192.64 202.34,-153.12 231.02,-127.58"/>
<polygon fill="none" stroke="#63b8ff" points="88.8,-303.3 87.76,-313.84 95.15,-306.24 88.8,-303.3"/>
</a>
</g>
</g>
<!-- Node3 -->
<g id="Node000003" class="node">
<title>Node3</title>
<g id="a_Node000003"><a xlink:href="classanch_1_1events_1_1_observable.html" target="_top" xlink:title="An observable implementation of the observers/observable design pattern.">
<polygon fill="white" stroke="none" points="278.25,-711 135.25,-711 135.25,-579 278.25,-579 278.25,-711"/>
<text xml:space="preserve" text-anchor="start" x="139.25" y="-697.5" font-family="Helvetica,sans-Serif" font-size="10.00">anch::events::Observable&lt; T &gt;</text>
<text xml:space="preserve" text-anchor="start" x="205.25" y="-681.5" font-family="Helvetica,sans-Serif" font-size="10.00"> </text>
<text xml:space="preserve" text-anchor="start" x="151" y="-665.5" font-family="Helvetica,sans-Serif" font-size="10.00">+</text>
<text xml:space="preserve" text-anchor="start" x="172.75" y="-665.5" font-family="Helvetica,sans-Serif" font-size="10.00">Observable()</text>
<text xml:space="preserve" text-anchor="start" x="151" y="-649.5" font-family="Helvetica,sans-Serif" font-size="10.00">+</text>
<text xml:space="preserve" text-anchor="start" x="172.75" y="-649.5" font-family="Helvetica,sans-Serif" font-size="10.00">~Observable()</text>
<text xml:space="preserve" text-anchor="start" x="151" y="-633.5" font-family="Helvetica,sans-Serif" font-size="10.00">+</text>
<text xml:space="preserve" text-anchor="start" x="172.75" y="-633.5" font-family="Helvetica,sans-Serif" font-size="10.00">addObserver()</text>
<text xml:space="preserve" text-anchor="start" x="151" y="-617.5" font-family="Helvetica,sans-Serif" font-size="10.00">+</text>
<text xml:space="preserve" text-anchor="start" x="172.75" y="-617.5" font-family="Helvetica,sans-Serif" font-size="10.00">removeObserver()</text>
<text xml:space="preserve" text-anchor="start" x="151" y="-601.5" font-family="Helvetica,sans-Serif" font-size="10.00">+</text>
<text xml:space="preserve" text-anchor="start" x="172.75" y="-601.5" font-family="Helvetica,sans-Serif" font-size="10.00">notifyObservers()</text>
<text xml:space="preserve" text-anchor="start" x="151" y="-585.5" font-family="Helvetica,sans-Serif" font-size="10.00">+</text>
<text xml:space="preserve" text-anchor="start" x="172.75" y="-585.5" font-family="Helvetica,sans-Serif" font-size="10.00">notifyObservers()</text>
<polygon fill="#666666" stroke="#666666" points="135.25,-693 135.25,-693 278.25,-693 278.25,-693 135.25,-693"/>
<polygon fill="#666666" stroke="#666666" points="135.25,-677 135.25,-677 278.25,-677 278.25,-677 135.25,-677"/>
<polygon fill="none" stroke="#666666" points="135.25,-579 135.25,-711 278.25,-711 278.25,-579 135.25,-579"/>
</a>
</g>
</g>
<!-- Node3&#45;&gt;Node2 -->
<g id="edge2_Node000002_Node000003" class="edge">
<title>Node3&#45;&gt;Node2</title>
<g id="a_edge2_Node000002_Node000003"><a xlink:title=" ">
<path fill="none" stroke="orange" d="M125.79,-606.84C107.67,-594.76 90.5,-579.56 79.25,-561 57.97,-525.91 53.79,-479.78 54.83,-442.87"/>
<polygon fill="orange" stroke="orange" points="123.73,-609.67 134.05,-612.06 127.47,-603.76 123.73,-609.67"/>
</a>
</g>
<text xml:space="preserve" text-anchor="start" x="82.25" y="-548.5" font-family="Helvetica,sans-Serif" font-size="10.00" fill="grey">&lt; anch::json::JSONItem &gt;</text>
</g>
<!-- Node4 -->
<g id="Node000004" class="node">
<title>Node4</title>
<g id="a_Node000004"><a xlink:href="classanch_1_1events_1_1_observable.html" target="_top" xlink:title=" ">
<polygon fill="white" stroke="none" points="261.62,-443 141.88,-443 141.88,-315 261.62,-315 261.62,-443"/>
<text xml:space="preserve" text-anchor="start" x="145.88" y="-429.5" font-family="Helvetica,sans-Serif" font-size="10.00">anch::events::Observable</text>
<text xml:space="preserve" text-anchor="start" x="159" y="-417.5" font-family="Helvetica,sans-Serif" font-size="10.00">&lt; std::streamsize &gt;</text>
<text xml:space="preserve" text-anchor="start" x="200.25" y="-401.5" font-family="Helvetica,sans-Serif" font-size="10.00"> </text>
<text xml:space="preserve" text-anchor="start" x="151.81" y="-385.5" font-family="Helvetica,sans-Serif" font-size="10.00">+</text>
<text xml:space="preserve" text-anchor="start" x="167.75" y="-385.5" font-family="Helvetica,sans-Serif" font-size="10.00">Observable()</text>
<text xml:space="preserve" text-anchor="start" x="151.81" y="-369.5" font-family="Helvetica,sans-Serif" font-size="10.00">+</text>
<text xml:space="preserve" text-anchor="start" x="167.75" y="-369.5" font-family="Helvetica,sans-Serif" font-size="10.00">~Observable()</text>
<text xml:space="preserve" text-anchor="start" x="151.81" y="-353.5" font-family="Helvetica,sans-Serif" font-size="10.00">+</text>
<text xml:space="preserve" text-anchor="start" x="167.75" y="-353.5" font-family="Helvetica,sans-Serif" font-size="10.00">addObserver()</text>
<text xml:space="preserve" text-anchor="start" x="151.81" y="-337.5" font-family="Helvetica,sans-Serif" font-size="10.00">+</text>
<text xml:space="preserve" text-anchor="start" x="167.75" y="-337.5" font-family="Helvetica,sans-Serif" font-size="10.00">removeObserver()</text>
<text xml:space="preserve" text-anchor="start" x="151.81" y="-321.5" font-family="Helvetica,sans-Serif" font-size="10.00">+</text>
<text xml:space="preserve" text-anchor="start" x="167.75" y="-321.5" font-family="Helvetica,sans-Serif" font-size="10.00">notifyObservers()</text>
<polygon fill="#666666" stroke="#666666" points="141.88,-413 141.88,-413 261.62,-413 261.62,-413 141.88,-413"/>
<polygon fill="#666666" stroke="#666666" points="141.88,-397 141.88,-397 261.62,-397 261.62,-397 141.88,-397"/>
<polygon fill="none" stroke="#666666" points="141.88,-315 141.88,-443 261.62,-443 261.62,-315 141.88,-315"/>
</a>
</g>
</g>
<!-- Node3&#45;&gt;Node4 -->
<g id="edge4_Node000004_Node000003" class="edge">
<title>Node3&#45;&gt;Node4</title>
<g id="a_edge4_Node000004_Node000003"><a xlink:title=" ">
<path fill="none" stroke="orange" d="M205.3,-567.61C204.55,-528.02 203.65,-480.27 202.94,-442.85"/>
<polygon fill="orange" stroke="orange" points="201.8,-567.64 205.49,-577.57 208.8,-567.5 201.8,-567.64"/>
</a>
</g>
<text xml:space="preserve" text-anchor="start" x="208.13" y="-548.5" font-family="Helvetica,sans-Serif" font-size="10.00" fill="grey">&lt; std::streamsize &gt;</text>
</g>
<!-- Node5 -->
<g id="Node000005" class="node">
<title>Node5</title>
<g id="a_Node000005"><a xlink:href="classanch_1_1events_1_1_observable.html" target="_top" xlink:title=" ">
<polygon fill="white" stroke="none" points="414.12,-443 279.38,-443 279.38,-315 414.12,-315 414.12,-443"/>
<text xml:space="preserve" text-anchor="start" x="283.38" y="-429.5" font-family="Helvetica,sans-Serif" font-size="10.00">anch::events::Observable</text>
<text xml:space="preserve" text-anchor="start" x="283.38" y="-417.5" font-family="Helvetica,sans-Serif" font-size="10.00">&lt; anch::json::MappingError &gt;</text>
<text xml:space="preserve" text-anchor="start" x="345.25" y="-401.5" font-family="Helvetica,sans-Serif" font-size="10.00"> </text>
<text xml:space="preserve" text-anchor="start" x="293.06" y="-385.5" font-family="Helvetica,sans-Serif" font-size="10.00">+</text>
<text xml:space="preserve" text-anchor="start" x="312.75" y="-385.5" font-family="Helvetica,sans-Serif" font-size="10.00">Observable()</text>
<text xml:space="preserve" text-anchor="start" x="293.06" y="-369.5" font-family="Helvetica,sans-Serif" font-size="10.00">+</text>
<text xml:space="preserve" text-anchor="start" x="312.75" y="-369.5" font-family="Helvetica,sans-Serif" font-size="10.00">~Observable()</text>
<text xml:space="preserve" text-anchor="start" x="293.06" y="-353.5" font-family="Helvetica,sans-Serif" font-size="10.00">+</text>
<text xml:space="preserve" text-anchor="start" x="312.75" y="-353.5" font-family="Helvetica,sans-Serif" font-size="10.00">addObserver()</text>
<text xml:space="preserve" text-anchor="start" x="293.06" y="-337.5" font-family="Helvetica,sans-Serif" font-size="10.00">+</text>
<text xml:space="preserve" text-anchor="start" x="312.75" y="-337.5" font-family="Helvetica,sans-Serif" font-size="10.00">removeObserver()</text>
<text xml:space="preserve" text-anchor="start" x="293.06" y="-321.5" font-family="Helvetica,sans-Serif" font-size="10.00">+</text>
<text xml:space="preserve" text-anchor="start" x="312.75" y="-321.5" font-family="Helvetica,sans-Serif" font-size="10.00">notifyObservers()</text>
<polygon fill="#666666" stroke="#666666" points="279.38,-413 279.38,-413 414.12,-413 414.12,-413 279.38,-413"/>
<polygon fill="#666666" stroke="#666666" points="279.38,-397 279.38,-397 414.12,-397 414.12,-397 279.38,-397"/>
<polygon fill="none" stroke="#666666" points="279.38,-315 279.38,-443 414.12,-443 414.12,-315 279.38,-315"/>
</a>
</g>
</g>
<!-- Node3&#45;&gt;Node5 -->
<g id="edge6_Node000005_Node000003" class="edge">
<title>Node3&#45;&gt;Node5</title>
<g id="a_edge6_Node000005_Node000003"><a xlink:title=" ">
<path fill="none" stroke="orange" d="M285.48,-581.65C291.16,-575.09 296.36,-568.19 300.75,-561 322.63,-525.16 334.15,-479.27 340.18,-442.66"/>
<polygon fill="orange" stroke="orange" points="283.25,-578.89 279.08,-588.63 288.41,-583.62 283.25,-578.89"/>
</a>
</g>
<text xml:space="preserve" text-anchor="start" x="313.37" y="-548.5" font-family="Helvetica,sans-Serif" font-size="10.00" fill="grey">&lt; anch::json::MappingError &gt;</text>
</g>
<!-- Node4&#45;&gt;Node1 -->
<g id="edge3_Node000001_Node000004" class="edge">
<title>Node4&#45;&gt;Node1</title>
<g id="a_edge3_Node000001_Node000004"><a xlink:title=" ">
<path fill="none" stroke="#63b8ff" d="M218.45,-304.06C225.93,-270.94 234.85,-231.42 242.85,-195.97"/>
<polygon fill="none" stroke="#63b8ff" points="215.09,-303.04 216.3,-313.56 221.92,-304.58 215.09,-303.04"/>
</a>
</g>
</g>
<!-- Node5&#45;&gt;Node1 -->
<g id="edge5_Node000001_Node000005" class="edge">
<title>Node5&#45;&gt;Node1</title>
<g id="a_edge5_Node000001_Node000005"><a xlink:title=" ">
<path fill="none" stroke="#63b8ff" d="M325.02,-304.06C315.28,-270.94 303.67,-231.42 293.25,-195.97"/>
<polygon fill="none" stroke="#63b8ff" points="321.64,-304.98 327.82,-313.59 328.36,-303.01 321.64,-304.98"/>
</a>
</g>
</g>
<!-- Node6 -->
<g id="Node000006" class="node">
<title>Node6</title>
<g id="a_Node000006"><a xlink:href="classanch_1_1json_1_1_reader_context.html" target="_top" xlink:title="JSON reader context.">
<polygon fill="white" stroke="none" points="557.25,-525 432.25,-525 432.25,-233 557.25,-233 557.25,-525"/>
<text xml:space="preserve" text-anchor="start" x="436.25" y="-511.5" font-family="Helvetica,sans-Serif" font-size="10.00">anch::json::ReaderContext</text>
<text xml:space="preserve" text-anchor="start" x="443.5" y="-495.5" font-family="Helvetica,sans-Serif" font-size="10.00">+</text>
<text xml:space="preserve" text-anchor="start" x="460.75" y="-495.5" font-family="Helvetica,sans-Serif" font-size="10.00">input</text>
<text xml:space="preserve" text-anchor="start" x="443.5" y="-479.5" font-family="Helvetica,sans-Serif" font-size="10.00">+</text>
<text xml:space="preserve" text-anchor="start" x="460.75" y="-479.5" font-family="Helvetica,sans-Serif" font-size="10.00">options</text>
<text xml:space="preserve" text-anchor="start" x="443.5" y="-463.5" font-family="Helvetica,sans-Serif" font-size="10.00">+</text>
<text xml:space="preserve" text-anchor="start" x="460.75" y="-463.5" font-family="Helvetica,sans-Serif" font-size="10.00">pbuf</text>
<text xml:space="preserve" text-anchor="start" x="443.5" y="-447.5" font-family="Helvetica,sans-Serif" font-size="10.00">+</text>
<text xml:space="preserve" text-anchor="start" x="460.75" y="-447.5" font-family="Helvetica,sans-Serif" font-size="10.00">offset</text>
<text xml:space="preserve" text-anchor="start" x="443.5" y="-431.5" font-family="Helvetica,sans-Serif" font-size="10.00">+</text>
<text xml:space="preserve" text-anchor="start" x="460.75" y="-431.5" font-family="Helvetica,sans-Serif" font-size="10.00">bufferSize</text>
<text xml:space="preserve" text-anchor="start" x="443.5" y="-415.5" font-family="Helvetica,sans-Serif" font-size="10.00">+</text>
<text xml:space="preserve" text-anchor="start" x="460.75" y="-415.5" font-family="Helvetica,sans-Serif" font-size="10.00">buffer</text>
<text xml:space="preserve" text-anchor="start" x="443.5" y="-399.5" font-family="Helvetica,sans-Serif" font-size="10.00">+</text>
<text xml:space="preserve" text-anchor="start" x="460.75" y="-399.5" font-family="Helvetica,sans-Serif" font-size="10.00">read</text>
<text xml:space="preserve" text-anchor="start" x="443.5" y="-383.5" font-family="Helvetica,sans-Serif" font-size="10.00">+</text>
<text xml:space="preserve" text-anchor="start" x="460.75" y="-383.5" font-family="Helvetica,sans-Serif" font-size="10.00">ReaderContext()</text>
<text xml:space="preserve" text-anchor="start" x="443.5" y="-367.5" font-family="Helvetica,sans-Serif" font-size="10.00">+</text>
<text xml:space="preserve" text-anchor="start" x="460.75" y="-367.5" font-family="Helvetica,sans-Serif" font-size="10.00">ReaderContext()</text>
<text xml:space="preserve" text-anchor="start" x="443.5" y="-351.5" font-family="Helvetica,sans-Serif" font-size="10.00">+</text>
<text xml:space="preserve" text-anchor="start" x="460.75" y="-351.5" font-family="Helvetica,sans-Serif" font-size="10.00">ReaderContext()</text>
<text xml:space="preserve" text-anchor="start" x="443.5" y="-335.5" font-family="Helvetica,sans-Serif" font-size="10.00">+</text>
<text xml:space="preserve" text-anchor="start" x="460.75" y="-335.5" font-family="Helvetica,sans-Serif" font-size="10.00">ReaderContext()</text>
<text xml:space="preserve" text-anchor="start" x="443.5" y="-319.5" font-family="Helvetica,sans-Serif" font-size="10.00">+</text>
<text xml:space="preserve" text-anchor="start" x="460.75" y="-319.5" font-family="Helvetica,sans-Serif" font-size="10.00">~ReaderContext()</text>
<text xml:space="preserve" text-anchor="start" x="443.5" y="-303.5" font-family="Helvetica,sans-Serif" font-size="10.00">+</text>
<text xml:space="preserve" text-anchor="start" x="460.75" y="-303.5" font-family="Helvetica,sans-Serif" font-size="10.00">discard()</text>
<text xml:space="preserve" text-anchor="start" x="443.5" y="-287.5" font-family="Helvetica,sans-Serif" font-size="10.00">+</text>
<text xml:space="preserve" text-anchor="start" x="460.75" y="-287.5" font-family="Helvetica,sans-Serif" font-size="10.00">parseUnknown()</text>
<text xml:space="preserve" text-anchor="start" x="443.5" y="-271.5" font-family="Helvetica,sans-Serif" font-size="10.00">+</text>
<text xml:space="preserve" text-anchor="start" x="460.75" y="-271.5" font-family="Helvetica,sans-Serif" font-size="10.00">next()</text>
<text xml:space="preserve" text-anchor="start" x="443.5" y="-255.5" font-family="Helvetica,sans-Serif" font-size="10.00">+</text>
<text xml:space="preserve" text-anchor="start" x="460.75" y="-255.5" font-family="Helvetica,sans-Serif" font-size="10.00">back()</text>
<text xml:space="preserve" text-anchor="start" x="443.88" y="-239.5" font-family="Helvetica,sans-Serif" font-size="10.00">#</text>
<text xml:space="preserve" text-anchor="start" x="460.75" y="-239.5" font-family="Helvetica,sans-Serif" font-size="10.00">refillBuffer()</text>
<polygon fill="#666666" stroke="#666666" points="432.25,-507 432.25,-507 557.25,-507 557.25,-507 432.25,-507"/>
<polygon fill="#666666" stroke="#666666" points="432.25,-395 432.25,-395 458.75,-395 458.75,-395 432.25,-395"/>
<polygon fill="#666666" stroke="#666666" points="458.75,-395 458.75,-395 557.25,-395 557.25,-395 458.75,-395"/>
<polygon fill="none" stroke="#666666" points="432.25,-233 432.25,-525 557.25,-525 557.25,-233 432.25,-233"/>
</a>
</g>
</g>
<!-- Node6&#45;&gt;Node1 -->
<g id="edge7_Node000001_Node000006" class="edge">
<title>Node6&#45;&gt;Node1</title>
<g id="a_edge7_Node000001_Node000006"><a xlink:title=" ">
<path fill="none" stroke="#8b1a1a" d="M425.81,-236.99C424.8,-235.65 423.78,-234.31 422.75,-233 386.84,-187.12 333.1,-145.64 298.49,-121.37"/>
<polygon fill="none" stroke="#8b1a1a" points="422.78,-238.78 431.46,-244.86 428.47,-234.7 422.78,-238.78"/>
</a>
</g>
</g>
</g>
</svg>

<g id="navigator" transform="translate(0 0)" fill="#404254">
  <rect fill="#f2f5e9" fill-opacity="0.5" stroke="#606060" stroke-width=".5" x="0" y="0" width="60" height="60"/>
  <use id="zoomplus" xlink:href="#zoomPlus" x="17" y="9" onmousedown="handleZoom(evt,'in')"/>
  <use id="zoomminus" xlink:href="#zoomMin" x="42" y="9" onmousedown="handleZoom(evt,'out')"/>
  <use id="reset" xlink:href="#resetDef" x="30" y="36" onmousedown="handleReset()"/>
   <use id="arrowup" xlink:href="#arrowUp" x="0" y="0" onmousedown="handlePan(0,-1)"/>
  <use id="arrowright" xlink:href="#arrowRight" x="0" y="0" onmousedown="handlePan(1,0)"/>
  <use id="arrowdown" xlink:href="#arrowDown" x="0" y="0" onmousedown="handlePan(0,1)"/>
  <use id="arrowleft" xlink:href="#arrowLeft" x="0" y="0" onmousedown="handlePan(-1,0)"/>
</g>
<svg viewBox="0 0 15 15" width="100%" height="30px" preserveAspectRatio="xMaxYMin meet">
 <g id="arrow_out" transform="scale(0.3 0.3)">
  <a xlink:href="class_reader__inherit__graph_org.svg" target="_base">
   <rect id="button" ry="5" rx="5" y="6" x="6" height="38" width="38"
        fill="#f2f5e9" fill-opacity="0.5" stroke="#606060" stroke-width="1.0"/>
   <path id="arrow"
     d="M 11.500037,31.436501 C 11.940474,20.09759 22.043105,11.32322 32.158766,21.979434 L 37.068811,17.246167 C 37.068811,17.246167 37.088388,32 37.088388,32 L 22.160133,31.978069 C 22.160133,31.978069 26.997745,27.140456 26.997745,27.140456 C 18.528582,18.264221 13.291696,25.230495 11.500037,31.436501 z"
     style="fill:#404040;"/>
  </a>
 </g>
</svg>

<style type='text/css'>
<![CDATA[
[data-mouse-over-selected='false'] { opacity: 0.7; }
[data-mouse-over-selected='true']  { opacity: 1.0; }
]]>
</style>
<script type="application/ecmascript"><![CDATA[
document.addEventListener('DOMContentLoaded', (event) => {
  highlightEdges();
  highlightAdjacentNodes();
});
]]></script>
</svg>
