<?xml version="1.0" encoding="UTF-8" standalone="no"?>
<!DOCTYPE svg PUBLIC "-//W3C//DTD SVG 1.1//EN"
 "http://www.w3.org/Graphics/SVG/1.1/DTD/svg11.dtd">
<!-- Generated by graphviz version 13.1.0 (0)
 -->
<!-- Title: anch::crypto::Hash&lt; O, B &gt; Pages: 1 -->
<svg width="130pt" height="534pt"
 viewBox="0.00 0.00 130.00 534.00" xmlns="http://www.w3.org/2000/svg" xmlns:xlink="http://www.w3.org/1999/xlink">
<g id="graph0" class="graph" transform="scale(1 1) rotate(0) translate(4 530)">
<title>anch::crypto::Hash&lt; O, B &gt;</title>
<!-- Node1 -->
<g id="Node000001" class="node">
<title>Node1</title>
<g id="a_Node000001"><a xlink:title="Hash algorithm abstract class.">
<polygon fill="#999999" stroke="none" points="100.62,-208 9.38,-208 9.38,0 100.62,0 100.62,-208"/>
<text xml:space="preserve" text-anchor="start" x="13.38" y="-194.5" font-family="Helvetica,sans-Serif" font-size="10.00">anch::crypto::Hash</text>
<text xml:space="preserve" text-anchor="start" x="35.88" y="-182.5" font-family="Helvetica,sans-Serif" font-size="10.00">&lt; O, B &gt;</text>
<text xml:space="preserve" text-anchor="start" x="53.5" y="-166.5" font-family="Helvetica,sans-Serif" font-size="10.00"> </text>
<text xml:space="preserve" text-anchor="start" x="14.62" y="-150.5" font-family="Helvetica,sans-Serif" font-size="10.00">+</text>
<text xml:space="preserve" text-anchor="start" x="25.88" y="-150.5" font-family="Helvetica,sans-Serif" font-size="10.00">digest()</text>
<text xml:space="preserve" text-anchor="start" x="14.62" y="-134.5" font-family="Helvetica,sans-Serif" font-size="10.00">+</text>
<text xml:space="preserve" text-anchor="start" x="25.88" y="-134.5" font-family="Helvetica,sans-Serif" font-size="10.00">digest()</text>
<text xml:space="preserve" text-anchor="start" x="14.62" y="-118.5" font-family="Helvetica,sans-Serif" font-size="10.00">+</text>
<text xml:space="preserve" text-anchor="start" x="25.88" y="-118.5" font-family="Helvetica,sans-Serif" font-size="10.00">digest()</text>
<text xml:space="preserve" text-anchor="start" x="14.62" y="-102.5" font-family="Helvetica,sans-Serif" font-size="10.00">+</text>
<text xml:space="preserve" text-anchor="start" x="25.88" y="-102.5" font-family="Helvetica,sans-Serif" font-size="10.00">digest()</text>
<text xml:space="preserve" text-anchor="start" x="14.62" y="-86.5" font-family="Helvetica,sans-Serif" font-size="10.00">+</text>
<text xml:space="preserve" text-anchor="start" x="25.88" y="-86.5" font-family="Helvetica,sans-Serif" font-size="10.00">digest()</text>
<text xml:space="preserve" text-anchor="start" x="14.62" y="-70.5" font-family="Helvetica,sans-Serif" font-size="10.00">+</text>
<text xml:space="preserve" text-anchor="start" x="25.88" y="-70.5" font-family="Helvetica,sans-Serif" font-size="10.00">getOutputSize()</text>
<text xml:space="preserve" text-anchor="start" x="14.62" y="-54.5" font-family="Helvetica,sans-Serif" font-size="10.00">+</text>
<text xml:space="preserve" text-anchor="start" x="25.88" y="-54.5" font-family="Helvetica,sans-Serif" font-size="10.00">getBlockSize()</text>
<text xml:space="preserve" text-anchor="start" x="15" y="-38.5" font-family="Helvetica,sans-Serif" font-size="10.00">#</text>
<text xml:space="preserve" text-anchor="start" x="25.88" y="-38.5" font-family="Helvetica,sans-Serif" font-size="10.00">reset()</text>
<text xml:space="preserve" text-anchor="start" x="15" y="-22.5" font-family="Helvetica,sans-Serif" font-size="10.00">#</text>
<text xml:space="preserve" text-anchor="start" x="25.88" y="-22.5" font-family="Helvetica,sans-Serif" font-size="10.00">addData()</text>
<text xml:space="preserve" text-anchor="start" x="15" y="-6.5" font-family="Helvetica,sans-Serif" font-size="10.00">#</text>
<text xml:space="preserve" text-anchor="start" x="25.88" y="-6.5" font-family="Helvetica,sans-Serif" font-size="10.00">finalize()</text>
<polygon fill="#666666" stroke="#666666" points="9.38,-178 9.38,-178 100.62,-178 100.62,-178 9.38,-178"/>
<polygon fill="#666666" stroke="#666666" points="9.38,-162 9.38,-162 100.62,-162 100.62,-162 9.38,-162"/>
<polygon fill="none" stroke="#666666" points="9.38,0 9.38,-208 100.62,-208 100.62,0 9.38,0"/>
</a>
</g>
</g>
<!-- Node2 -->
<g id="Node000002" class="node">
<title>Node2</title>
<g id="a_Node000002"><a xlink:title=" ">
<polygon fill="white" stroke="none" points="110,-314 0,-314 0,-262 110,-262 110,-314"/>
<text xml:space="preserve" text-anchor="start" x="4" y="-300.5" font-family="Helvetica,sans-Serif" font-size="10.00">std::array&lt; uint8_t, O &gt;</text>
<text xml:space="preserve" text-anchor="start" x="17.06" y="-284.5" font-family="Helvetica,sans-Serif" font-size="10.00">+</text>
<text xml:space="preserve" text-anchor="start" x="40.12" y="-284.5" font-family="Helvetica,sans-Serif" font-size="10.00">elements</text>
<text xml:space="preserve" text-anchor="start" x="53.5" y="-268.5" font-family="Helvetica,sans-Serif" font-size="10.00"> </text>
<polygon fill="#666666" stroke="#666666" points="0,-296 0,-296 110,-296 110,-296 0,-296"/>
<polygon fill="#666666" stroke="#666666" points="0,-280 0,-280 38.12,-280 38.12,-280 0,-280"/>
<polygon fill="#666666" stroke="#666666" points="38.12,-280 38.12,-280 110,-280 110,-280 38.12,-280"/>
<polygon fill="none" stroke="#666666" points="0,-262 0,-314 110,-314 110,-262 0,-262"/>
</a>
</g>
</g>
<!-- Node2&#45;&gt;Node1 -->
<g id="edge1_Node000001_Node000002" class="edge">
<title>Node2&#45;&gt;Node1</title>
<g id="a_edge1_Node000001_Node000002"><a xlink:title=" ">
<path fill="none" stroke="#63b8ff" d="M55,-262.08C55,-250.55 55,-235.96 55,-220.34"/>
<polygon fill="none" stroke="#63b8ff" points="55,-220.53 51,-214.53 55,-208.53 59,-214.53 55,-220.53"/>
</a>
</g>
<text xml:space="preserve" text-anchor="start" x="58" y="-231.5" font-family="Helvetica,sans-Serif" font-size="10.00" fill="grey">#_digest</text>
</g>
<!-- Node3 -->
<g id="Node000003" class="node">
<title>Node3</title>
<g id="a_Node000003"><a xlink:title=" ">
<polygon fill="white" stroke="none" points="91.25,-420 18.75,-420 18.75,-368 91.25,-368 91.25,-420"/>
<text xml:space="preserve" text-anchor="start" x="22.75" y="-406.5" font-family="Helvetica,sans-Serif" font-size="10.00">std::array&lt; T &gt;</text>
<text xml:space="preserve" text-anchor="start" x="53.5" y="-390.5" font-family="Helvetica,sans-Serif" font-size="10.00"> </text>
<text xml:space="preserve" text-anchor="start" x="53.5" y="-374.5" font-family="Helvetica,sans-Serif" font-size="10.00"> </text>
<polygon fill="#666666" stroke="#666666" points="18.75,-402 18.75,-402 91.25,-402 91.25,-402 18.75,-402"/>
<polygon fill="#666666" stroke="#666666" points="18.75,-386 18.75,-386 91.25,-386 91.25,-386 18.75,-386"/>
<polygon fill="none" stroke="#666666" points="18.75,-368 18.75,-420 91.25,-420 91.25,-368 18.75,-368"/>
</a>
</g>
</g>
<!-- Node3&#45;&gt;Node2 -->
<g id="edge2_Node000002_Node000003" class="edge">
<title>Node3&#45;&gt;Node2</title>
<g id="a_edge2_Node000002_Node000003"><a xlink:title=" ">
<path fill="none" stroke="orange" d="M55,-356.67C55,-342.46 55,-326.54 55,-313.71"/>
<polygon fill="orange" stroke="orange" points="51.5,-356.58 55,-366.58 58.5,-356.58 51.5,-356.58"/>
</a>
</g>
<text xml:space="preserve" text-anchor="start" x="58" y="-337.5" font-family="Helvetica,sans-Serif" font-size="10.00" fill="grey">&lt; uint8_t, O &gt;</text>
</g>
<!-- Node4 -->
<g id="Node000004" class="node">
<title>Node4</title>
<g id="a_Node000004"><a xlink:title=" ">
<polygon fill="white" stroke="none" points="62,-526 48,-526 48,-474 62,-474 62,-526"/>
<text xml:space="preserve" text-anchor="start" x="52" y="-512.5" font-family="Helvetica,sans-Serif" font-size="10.00">T</text>
<text xml:space="preserve" text-anchor="start" x="53.5" y="-496.5" font-family="Helvetica,sans-Serif" font-size="10.00"> </text>
<text xml:space="preserve" text-anchor="start" x="53.5" y="-480.5" font-family="Helvetica,sans-Serif" font-size="10.00"> </text>
<polygon fill="#bfbfbf" stroke="#bfbfbf" points="48,-508 48,-508 62,-508 62,-508 48,-508"/>
<polygon fill="#bfbfbf" stroke="#bfbfbf" points="48,-492 48,-492 62,-492 62,-492 48,-492"/>
<polygon fill="none" stroke="#bfbfbf" points="48,-474 48,-526 62,-526 62,-474 48,-474"/>
</a>
</g>
</g>
<!-- Node4&#45;&gt;Node3 -->
<g id="edge3_Node000003_Node000004" class="edge">
<title>Node4&#45;&gt;Node3</title>
<g id="a_edge3_Node000003_Node000004"><a xlink:title=" ">
<path fill="none" stroke="#63b8ff" d="M55,-474.09C55,-461.61 55,-446.25 55,-432.39"/>
<polygon fill="none" stroke="#63b8ff" points="55,-432.61 51,-426.61 55,-420.61 59,-426.61 55,-432.61"/>
</a>
</g>
<text xml:space="preserve" text-anchor="start" x="58" y="-443.5" font-family="Helvetica,sans-Serif" font-size="10.00" fill="grey">+elements</text>
</g>
</g>
</svg>
