<?xml version="1.0" encoding="UTF-8" standalone="no"?>
<!DOCTYPE svg PUBLIC "-//W3C//DTD SVG 1.1//EN"
 "http://www.w3.org/Graphics/SVG/1.1/DTD/svg11.dtd">
<!-- Generated by graphviz version 2.44.1 (0)
 -->
<!-- Title: anch::resource::FakeSection Pages: 1 -->
<svg width="175pt" height="449pt"
 viewBox="0.00 0.00 175.00 449.00" xmlns="http://www.w3.org/2000/svg" xmlns:xlink="http://www.w3.org/1999/xlink">
<g id="graph0" class="graph" transform="scale(1 1) rotate(0) translate(4 445)">
<title>anch::resource::FakeSection</title>
<!-- Node1 -->
<g id="node1" class="node">
<title>Node1</title>
<g id="a_node1"><a xlink:title=" ">
<polygon fill="#bfbfbf" stroke="black" points="0,-0.5 0,-57.5 152,-57.5 152,-0.5 0,-0.5"/>
<text text-anchor="middle" x="76" y="-45.5" font-family="Helvetica,sans-Serif" font-size="10.00">anch::resource::FakeSection</text>
<polyline fill="none" stroke="black" points="0,-38.5 152,-38.5 "/>
<text text-anchor="middle" x="76" y="-26.5" font-family="Helvetica,sans-Serif" font-size="10.00"> </text>
<polyline fill="none" stroke="black" points="0,-19.5 152,-19.5 "/>
<text text-anchor="middle" x="76" y="-7.5" font-family="Helvetica,sans-Serif" font-size="10.00"> </text>
</a>
</g>
</g>
<!-- Node2 -->
<g id="node2" class="node">
<title>Node2</title>
<g id="a_node2"><a xlink:href="classanch_1_1resource_1_1_section.html" target="_top" xlink:title=" ">
<polygon fill="none" stroke="black" points="11,-95.5 11,-229.5 141,-229.5 141,-95.5 11,-95.5"/>
<text text-anchor="middle" x="76" y="-217.5" font-family="Helvetica,sans-Serif" font-size="10.00">anch::resource::Section</text>
<polyline fill="none" stroke="black" points="11,-210.5 141,-210.5 "/>
<text text-anchor="middle" x="76" y="-198.5" font-family="Helvetica,sans-Serif" font-size="10.00"> </text>
<polyline fill="none" stroke="black" points="11,-191.5 141,-191.5 "/>
<text text-anchor="start" x="19" y="-179.5" font-family="Helvetica,sans-Serif" font-size="10.00">+ Section()</text>
<text text-anchor="start" x="19" y="-168.5" font-family="Helvetica,sans-Serif" font-size="10.00">+ Section()</text>
<text text-anchor="start" x="19" y="-157.5" font-family="Helvetica,sans-Serif" font-size="10.00">+ ~Section()</text>
<text text-anchor="start" x="19" y="-146.5" font-family="Helvetica,sans-Serif" font-size="10.00">+ getParameters()</text>
<text text-anchor="start" x="19" y="-135.5" font-family="Helvetica,sans-Serif" font-size="10.00">+ setParameters()</text>
<text text-anchor="start" x="19" y="-124.5" font-family="Helvetica,sans-Serif" font-size="10.00">+ addParameter()</text>
<text text-anchor="start" x="19" y="-113.5" font-family="Helvetica,sans-Serif" font-size="10.00">+ getParameter()</text>
<text text-anchor="start" x="19" y="-102.5" font-family="Helvetica,sans-Serif" font-size="10.00">+ parameter()</text>
</a>
</g>
</g>
<!-- Node2&#45;&gt;Node1 -->
<g id="edge1" class="edge">
<title>Node2&#45;&gt;Node1</title>
<path fill="none" stroke="midnightblue" d="M76,-85.12C76,-75.36 76,-65.92 76,-57.7"/>
<polygon fill="none" stroke="midnightblue" points="72.5,-85.36 76,-95.36 79.5,-85.36 72.5,-85.36"/>
</g>
<!-- Node3 -->
<g id="node3" class="node">
<title>Node3</title>
<g id="a_node3"><a xlink:title="STL class.">
<polygon fill="none" stroke="#bfbfbf" points="43.5,-277.5 43.5,-334.5 108.5,-334.5 108.5,-277.5 43.5,-277.5"/>
<text text-anchor="middle" x="76" y="-322.5" font-family="Helvetica,sans-Serif" font-size="10.00">std::string</text>
<polyline fill="none" stroke="#bfbfbf" points="43.5,-315.5 108.5,-315.5 "/>
<text text-anchor="middle" x="76" y="-303.5" font-family="Helvetica,sans-Serif" font-size="10.00"> </text>
<polyline fill="none" stroke="#bfbfbf" points="43.5,-296.5 108.5,-296.5 "/>
<text text-anchor="middle" x="76" y="-284.5" font-family="Helvetica,sans-Serif" font-size="10.00"> </text>
</a>
</g>
</g>
<!-- Node3&#45;&gt;Node2 -->
<g id="edge2" class="edge">
<title>Node3&#45;&gt;Node2</title>
<path fill="none" stroke="#404040" d="M76,-277.38C76,-267.02 76,-254.66 76,-241.97"/>
<polygon fill="none" stroke="#404040" points="76,-241.75 72,-235.75 76,-229.75 80,-235.75 76,-241.75"/>
<text text-anchor="middle" x="121.5" y="-251" font-family="Helvetica,sans-Serif" font-size="10.00"> +DEFAULT_VALUE</text>
</g>
<!-- Node4 -->
<g id="node4" class="node">
<title>Node4</title>
<g id="a_node4"><a xlink:title="STL class.">
<polygon fill="none" stroke="#bfbfbf" points="24,-372.5 24,-440.5 128,-440.5 128,-372.5 24,-372.5"/>
<text text-anchor="start" x="32" y="-428.5" font-family="Helvetica,sans-Serif" font-size="10.00">std::basic_string&lt;</text>
<text text-anchor="middle" x="76" y="-417.5" font-family="Helvetica,sans-Serif" font-size="10.00"> char &gt;</text>
<polyline fill="none" stroke="#bfbfbf" points="24,-410.5 128,-410.5 "/>
<text text-anchor="middle" x="76" y="-398.5" font-family="Helvetica,sans-Serif" font-size="10.00"> </text>
<polyline fill="none" stroke="#bfbfbf" points="24,-391.5 128,-391.5 "/>
<text text-anchor="middle" x="76" y="-379.5" font-family="Helvetica,sans-Serif" font-size="10.00"> </text>
</a>
</g>
</g>
<!-- Node4&#45;&gt;Node3 -->
<g id="edge3" class="edge">
<title>Node4&#45;&gt;Node3</title>
<path fill="none" stroke="midnightblue" d="M76,-362.38C76,-352.94 76,-343.2 76,-334.57"/>
<polygon fill="none" stroke="midnightblue" points="72.5,-362.43 76,-372.43 79.5,-362.43 72.5,-362.43"/>
</g>
</g>
</svg>
