<?xml version="1.0" encoding="UTF-8" standalone="no"?>
<!DOCTYPE svg PUBLIC "-//W3C//DTD SVG 1.1//EN"
 "http://www.w3.org/Graphics/SVG/1.1/DTD/svg11.dtd">
<!-- Generated by graphviz version 12.1.2 (0)
 -->
<!-- Title: anch::sql::SelectBuilderPart Pages: 1 -->
<!--zoomable 516 -->

<svg id="main" version="1.1" xmlns="http://www.w3.org/2000/svg" xmlns:xlink="http://www.w3.org/1999/xlink" xml:space="preserve" onload="init(evt)">

<style type="text/css"><![CDATA[
.node, .edge {opacity: 0.7;}
.node.selected, .edge.selected {opacity: 1;}
.edge:hover path { stroke: red; }
.edge:hover polygon { stroke: red; fill: red; }
]]></style>

<defs>
  <circle id="rim" cx="0" cy="0" r="7"/>
  <circle id="rim2" cx="0" cy="0" r="3.5"/>
  <g id="zoomPlus">
    <use xlink:href="#rim" fill="#404040"><set attributeName="fill" to="#808080" begin="zoomplus.mouseover" end="zoomplus.mouseout"/></use>
    <path d="M-4,0h8M0,-4v8" fill="none" stroke="white" stroke-width="1.5" pointer-events="none"/>
  </g>
  <g id="zoomMin">
    <use xlink:href="#rim" fill="#404040"><set attributeName="fill" to="#808080" begin="zoomminus.mouseover" end="zoomminus.mouseout"/></use>
    <path d="M-4,0h8" fill="none" stroke="white" stroke-width="1.5" pointer-events="none"/>
  </g>
  <g id="arrowUp" transform="translate(30 24)">
    <use xlink:href="#rim"/>
    <path pointer-events="none" fill="none" stroke="white" stroke-width="1.5" d="M0,-3.0v7 M-2.5,-0.5L0,-3.0L2.5,-0.5"/>
  </g>
  <g id="arrowRight" transform="rotate(90) translate(36 -43)">
    <use xlink:href="#rim"/>
    <path pointer-events="none" fill="none" stroke="white" stroke-width="1.5" d="M0,-3.0v7 M-2.5,-0.5L0,-3.0L2.5,-0.5"/>
  </g>
  <g id="arrowDown" transform="rotate(180) translate(-30 -48)">
    <use xlink:href="#rim"/>
    <path pointer-events="none" fill="none" stroke="white" stroke-width="1.5" d="M0,-3.0v7 M-2.5,-0.5L0,-3.0L2.5,-0.5"/>
  </g>
  <g id="arrowLeft" transform="rotate(270) translate(-36 17)">
    <use xlink:href="#rim"/>
    <path pointer-events="none" fill="none" stroke="white" stroke-width="1.5" d="M0,-3.0v7 M-2.5,-0.5L0,-3.0L2.5,-0.5"/>
  </g>
  <g id="resetDef">
    <use xlink:href="#rim2" fill="#404040"><set attributeName="fill" to="#808080" begin="reset.mouseover" end="reset.mouseout"/></use>
  </g>
</defs>
<script type="application/ecmascript">
var viewWidth = 246;
var viewHeight = 516;
var sectionId = 'dynsection-0';
</script>
<script type="application/ecmascript" xlink:href="svg.min.js"/>
<svg id="graph" class="graph">
<g id="viewport">
<title>anch::sql::SelectBuilderPart</title>
<!-- Node1 -->
<g id="Node000001" class="node">
<title>Node1</title>
<g id="a_Node000001"><a xlink:title="SQL select query part builder.">
<polygon fill="#999999" stroke="none" points="185.5,-508 54.5,-508 54.5,-248 185.5,-248 185.5,-508"/>
<text text-anchor="start" x="59.25" y="-494.5" font-family="Helvetica,sans-Serif" font-size="10.00">anch::sql::SelectBuilderPart</text>
<text text-anchor="start" x="60.88" y="-478.5" font-family="Helvetica,sans-Serif" font-size="10.00">#</text>
<text text-anchor="start" x="72.5" y="-478.5" font-family="Helvetica,sans-Serif" font-size="10.00">_select</text>
<text text-anchor="start" x="60.5" y="-462.5" font-family="Helvetica,sans-Serif" font-size="10.00">+</text>
<text text-anchor="start" x="72.5" y="-462.5" font-family="Helvetica,sans-Serif" font-size="10.00">groupBy()</text>
<text text-anchor="start" x="60.5" y="-446.5" font-family="Helvetica,sans-Serif" font-size="10.00">+</text>
<text text-anchor="start" x="72.5" y="-446.5" font-family="Helvetica,sans-Serif" font-size="10.00">orderBy()</text>
<text text-anchor="start" x="60.5" y="-430.5" font-family="Helvetica,sans-Serif" font-size="10.00">+</text>
<text text-anchor="start" x="72.5" y="-430.5" font-family="Helvetica,sans-Serif" font-size="10.00">having()</text>
<text text-anchor="start" x="60.5" y="-414.5" font-family="Helvetica,sans-Serif" font-size="10.00">+</text>
<text text-anchor="start" x="72.5" y="-414.5" font-family="Helvetica,sans-Serif" font-size="10.00">unionOnce()</text>
<text text-anchor="start" x="60.5" y="-398.5" font-family="Helvetica,sans-Serif" font-size="10.00">+</text>
<text text-anchor="start" x="72.5" y="-398.5" font-family="Helvetica,sans-Serif" font-size="10.00">unionAll()</text>
<text text-anchor="start" x="60.5" y="-382.5" font-family="Helvetica,sans-Serif" font-size="10.00">+</text>
<text text-anchor="start" x="72.5" y="-382.5" font-family="Helvetica,sans-Serif" font-size="10.00">offset()</text>
<text text-anchor="start" x="60.5" y="-366.5" font-family="Helvetica,sans-Serif" font-size="10.00">+</text>
<text text-anchor="start" x="72.5" y="-366.5" font-family="Helvetica,sans-Serif" font-size="10.00">fetch()</text>
<text text-anchor="start" x="60.5" y="-350.5" font-family="Helvetica,sans-Serif" font-size="10.00">+</text>
<text text-anchor="start" x="72.5" y="-350.5" font-family="Helvetica,sans-Serif" font-size="10.00">windowByRowNumber()</text>
<text text-anchor="start" x="60.5" y="-334.5" font-family="Helvetica,sans-Serif" font-size="10.00">+</text>
<text text-anchor="start" x="72.5" y="-334.5" font-family="Helvetica,sans-Serif" font-size="10.00">windowByRank()</text>
<text text-anchor="start" x="60.5" y="-318.5" font-family="Helvetica,sans-Serif" font-size="10.00">+</text>
<text text-anchor="start" x="72.5" y="-318.5" font-family="Helvetica,sans-Serif" font-size="10.00">done()</text>
<text text-anchor="start" x="60.5" y="-302.5" font-family="Helvetica,sans-Serif" font-size="10.00">+</text>
<text text-anchor="start" x="72.5" y="-302.5" font-family="Helvetica,sans-Serif" font-size="10.00">build()</text>
<text text-anchor="start" x="60.88" y="-286.5" font-family="Helvetica,sans-Serif" font-size="10.00">#</text>
<text text-anchor="start" x="72.5" y="-286.5" font-family="Helvetica,sans-Serif" font-size="10.00">SelectBuilderPart()</text>
<text text-anchor="start" x="60.88" y="-270.5" font-family="Helvetica,sans-Serif" font-size="10.00">#</text>
<text text-anchor="start" x="72.5" y="-270.5" font-family="Helvetica,sans-Serif" font-size="10.00">SelectBuilderPart()</text>
<text text-anchor="start" x="60.88" y="-254.5" font-family="Helvetica,sans-Serif" font-size="10.00">#</text>
<text text-anchor="start" x="72.5" y="-254.5" font-family="Helvetica,sans-Serif" font-size="10.00">~SelectBuilderPart()</text>
<polygon fill="#666666" stroke="#666666" points="54.5,-490 54.5,-490 185.5,-490 185.5,-490 54.5,-490"/>
<polygon fill="#666666" stroke="#666666" points="54.5,-474 54.5,-474 70.5,-474 70.5,-474 54.5,-474"/>
<polygon fill="#666666" stroke="#666666" points="70.5,-474 70.5,-474 185.5,-474 185.5,-474 70.5,-474"/>
<polygon fill="none" stroke="#666666" points="54.5,-248 54.5,-508 185.5,-508 185.5,-248 54.5,-248"/>
</a>
</g>
</g>
<!-- Node2 -->
<g id="Node000002" class="node">
<title>Node2</title>
<g id="a_Node000002"><a xlink:href="classanch_1_1sql_1_1_fields_builder.html" target="_top" xlink:title="Field builder.">
<polygon fill="white" stroke="none" points="112,-172 0,-172 0,-40 112,-40 112,-172"/>
<text text-anchor="start" x="5" y="-158.5" font-family="Helvetica,sans-Serif" font-size="10.00">anch::sql::FieldsBuilder</text>
<text text-anchor="start" x="54.5" y="-142.5" font-family="Helvetica,sans-Serif" font-size="10.00"> </text>
<text text-anchor="start" x="10.5" y="-126.5" font-family="Helvetica,sans-Serif" font-size="10.00">+</text>
<text text-anchor="start" x="27" y="-126.5" font-family="Helvetica,sans-Serif" font-size="10.00">~FieldsBuilder()</text>
<text text-anchor="start" x="10.5" y="-110.5" font-family="Helvetica,sans-Serif" font-size="10.00">+</text>
<text text-anchor="start" x="27" y="-110.5" font-family="Helvetica,sans-Serif" font-size="10.00">field()</text>
<text text-anchor="start" x="10.5" y="-94.5" font-family="Helvetica,sans-Serif" font-size="10.00">+</text>
<text text-anchor="start" x="27" y="-94.5" font-family="Helvetica,sans-Serif" font-size="10.00">as()</text>
<text text-anchor="start" x="10.5" y="-78.5" font-family="Helvetica,sans-Serif" font-size="10.00">+</text>
<text text-anchor="start" x="27" y="-78.5" font-family="Helvetica,sans-Serif" font-size="10.00">asc()</text>
<text text-anchor="start" x="10.5" y="-62.5" font-family="Helvetica,sans-Serif" font-size="10.00">+</text>
<text text-anchor="start" x="27" y="-62.5" font-family="Helvetica,sans-Serif" font-size="10.00">desc()</text>
<text text-anchor="start" x="10.5" y="-46.5" font-family="Helvetica,sans-Serif" font-size="10.00">+</text>
<text text-anchor="start" x="27" y="-46.5" font-family="Helvetica,sans-Serif" font-size="10.00">from()</text>
<polygon fill="#666666" stroke="#666666" points="0,-154 0,-154 112,-154 112,-154 0,-154"/>
<polygon fill="#666666" stroke="#666666" points="0,-138 0,-138 112,-138 112,-138 0,-138"/>
<polygon fill="none" stroke="#666666" points="0,-40 0,-172 112,-172 112,-40 0,-40"/>
</a>
</g>
</g>
<!-- Node1&#45;&gt;Node2 -->
<g id="edge1_Node000001_Node000002" class="edge">
<title>Node1&#45;&gt;Node2</title>
<g id="a_edge1_Node000001_Node000002"><a xlink:title=" ">
<path fill="none" stroke="#63b8ff" d="M86.85,-237.14C81.45,-214.37 76.1,-191.79 71.4,-171.98"/>
<polygon fill="none" stroke="#63b8ff" points="83.44,-237.93 89.15,-246.85 90.25,-236.32 83.44,-237.93"/>
</a>
</g>
</g>
<!-- Node3 -->
<g id="Node000003" class="node">
<title>Node3</title>
<g id="a_Node000003"><a xlink:href="classanch_1_1sql_1_1_from_builder.html" target="_top" xlink:title=" ">
<polygon fill="white" stroke="none" points="238,-212 130,-212 130,0 238,0 238,-212"/>
<text text-anchor="start" x="134.88" y="-198.5" font-family="Helvetica,sans-Serif" font-size="10.00">anch::sql::FromBuilder</text>
<text text-anchor="start" x="182.5" y="-182.5" font-family="Helvetica,sans-Serif" font-size="10.00"> </text>
<text text-anchor="start" x="140.5" y="-166.5" font-family="Helvetica,sans-Serif" font-size="10.00">+</text>
<text text-anchor="start" x="157" y="-166.5" font-family="Helvetica,sans-Serif" font-size="10.00">FromBuilder()</text>
<text text-anchor="start" x="140.5" y="-150.5" font-family="Helvetica,sans-Serif" font-size="10.00">+</text>
<text text-anchor="start" x="157" y="-150.5" font-family="Helvetica,sans-Serif" font-size="10.00">FromBuilder()</text>
<text text-anchor="start" x="140.5" y="-134.5" font-family="Helvetica,sans-Serif" font-size="10.00">+</text>
<text text-anchor="start" x="157" y="-134.5" font-family="Helvetica,sans-Serif" font-size="10.00">FromBuilder()</text>
<text text-anchor="start" x="140.5" y="-118.5" font-family="Helvetica,sans-Serif" font-size="10.00">+</text>
<text text-anchor="start" x="157" y="-118.5" font-family="Helvetica,sans-Serif" font-size="10.00">FromBuilder()</text>
<text text-anchor="start" x="140.5" y="-102.5" font-family="Helvetica,sans-Serif" font-size="10.00">+</text>
<text text-anchor="start" x="157" y="-102.5" font-family="Helvetica,sans-Serif" font-size="10.00">FromBuilder()</text>
<text text-anchor="start" x="140.5" y="-86.5" font-family="Helvetica,sans-Serif" font-size="10.00">+</text>
<text text-anchor="start" x="157" y="-86.5" font-family="Helvetica,sans-Serif" font-size="10.00">FromBuilder()</text>
<text text-anchor="start" x="140.5" y="-70.5" font-family="Helvetica,sans-Serif" font-size="10.00">+</text>
<text text-anchor="start" x="157" y="-70.5" font-family="Helvetica,sans-Serif" font-size="10.00">~FromBuilder()</text>
<text text-anchor="start" x="140.5" y="-54.5" font-family="Helvetica,sans-Serif" font-size="10.00">+</text>
<text text-anchor="start" x="157" y="-54.5" font-family="Helvetica,sans-Serif" font-size="10.00">selfJoin()</text>
<text text-anchor="start" x="140.5" y="-38.5" font-family="Helvetica,sans-Serif" font-size="10.00">+</text>
<text text-anchor="start" x="157" y="-38.5" font-family="Helvetica,sans-Serif" font-size="10.00">selfJoin()</text>
<text text-anchor="start" x="140.5" y="-22.5" font-family="Helvetica,sans-Serif" font-size="10.00">+</text>
<text text-anchor="start" x="157" y="-22.5" font-family="Helvetica,sans-Serif" font-size="10.00">selfJoin()</text>
<text text-anchor="start" x="157" y="-6.5" font-family="Helvetica,sans-Serif" font-size="10.00">and 31 more...</text>
<polygon fill="#666666" stroke="#666666" points="130,-194 130,-194 238,-194 238,-194 130,-194"/>
<polygon fill="#666666" stroke="#666666" points="130,-178 130,-178 238,-178 238,-178 130,-178"/>
<polygon fill="none" stroke="#666666" points="130,0 130,-212 238,-212 238,0 130,0"/>
</a>
</g>
</g>
<!-- Node1&#45;&gt;Node3 -->
<g id="edge2_Node000001_Node000003" class="edge">
<title>Node1&#45;&gt;Node3</title>
<g id="a_edge2_Node000001_Node000003"><a xlink:title=" ">
<path fill="none" stroke="#63b8ff" d="M153.15,-237.14C155.17,-228.64 157.18,-220.16 159.15,-211.85"/>
<polygon fill="none" stroke="#63b8ff" points="149.75,-236.32 150.85,-246.85 156.56,-237.93 149.75,-236.32"/>
</a>
</g>
</g>
</g>
</svg>

<g id="navigator" transform="translate(0 0)" fill="#404254">
  <rect fill="#f2f5e9" fill-opacity="0.5" stroke="#606060" stroke-width=".5" x="0" y="0" width="60" height="60"/>
  <use id="zoomplus" xlink:href="#zoomPlus" x="17" y="9" onmousedown="handleZoom(evt,'in')"/>
  <use id="zoomminus" xlink:href="#zoomMin" x="42" y="9" onmousedown="handleZoom(evt,'out')"/>
  <use id="reset" xlink:href="#resetDef" x="30" y="36" onmousedown="handleReset()"/>
   <use id="arrowup" xlink:href="#arrowUp" x="0" y="0" onmousedown="handlePan(0,-1)"/>
  <use id="arrowright" xlink:href="#arrowRight" x="0" y="0" onmousedown="handlePan(1,0)"/>
  <use id="arrowdown" xlink:href="#arrowDown" x="0" y="0" onmousedown="handlePan(0,1)"/>
  <use id="arrowleft" xlink:href="#arrowLeft" x="0" y="0" onmousedown="handlePan(-1,0)"/>
</g>
<svg viewBox="0 0 15 15" width="100%" height="30px" preserveAspectRatio="xMaxYMin meet">
 <g id="arrow_out" transform="scale(0.3 0.3)">
  <a xlink:href="classanch_1_1sql_1_1_select_builder_part__inherit__graph_org.svg" target="_base">
   <rect id="button" ry="5" rx="5" y="6" x="6" height="38" width="38"
        fill="#f2f5e9" fill-opacity="0.5" stroke="#606060" stroke-width="1.0"/>
   <path id="arrow"
     d="M 11.500037,31.436501 C 11.940474,20.09759 22.043105,11.32322 32.158766,21.979434 L 37.068811,17.246167 C 37.068811,17.246167 37.088388,32 37.088388,32 L 22.160133,31.978069 C 22.160133,31.978069 26.997745,27.140456 26.997745,27.140456 C 18.528582,18.264221 13.291696,25.230495 11.500037,31.436501 z"
     style="fill:#404040;"/>
  </a>
 </g>
</svg>

<style type='text/css'>
<![CDATA[
[data-mouse-over-selected='false'] { opacity: 0.7; }
[data-mouse-over-selected='true']  { opacity: 1.0; }
]]>
</style>
<script type="application/ecmascript"><![CDATA[
document.addEventListener('DOMContentLoaded', (event) => {
  highlightEdges();
  highlightAdjacentNodes();
});
]]></script>
</svg>
