<?xml version="1.0" encoding="UTF-8" standalone="no"?>
<!DOCTYPE svg PUBLIC "-//W3C//DTD SVG 1.1//EN"
 "http://www.w3.org/Graphics/SVG/1.1/DTD/svg11.dtd">
<!-- Generated by graphviz version 2.44.1 (0)
 -->
<!-- Title: anch::logger::formatter::IFormatter Pages: 1 -->
<!--zoomable 237 -->
<svg id="main" version="1.1" xmlns="http://www.w3.org/2000/svg" xmlns:xlink="http://www.w3.org/1999/xlink" xml:space="preserve" onload="init(evt)">
<style type="text/css"><![CDATA[
.edge:hover path { stroke: red; }
.edge:hover polygon { stroke: red; fill: red; }
]]></style>
<script type="text/javascript"><![CDATA[
var edges = document.getElementsByTagName('g');
if (edges && edges.length) {
  for (var i=0;i<edges.length;i++) {
    if (edges[i].id.substr(0,4)=='edge') {
      edges[i].setAttribute('class','edge');
    }
  }
}
]]></script>
        <defs>
                <circle id="rim" cx="0" cy="0" r="7"/>
                <circle id="rim2" cx="0" cy="0" r="3.5"/>
                <g id="zoomPlus">
                        <use xlink:href="#rim" fill="#404040">
                                <set attributeName="fill" to="#808080" begin="zoomplus.mouseover" end="zoomplus.mouseout"/>
                        </use>
                        <path d="M-4,0h8M0,-4v8" fill="none" stroke="white" stroke-width="1.5" pointer-events="none"/>
                </g>
                <g id="zoomMin">
                        <use xlink:href="#rim" fill="#404040">
                                <set attributeName="fill" to="#808080" begin="zoomminus.mouseover" end="zoomminus.mouseout"/>
                        </use>
                        <path d="M-4,0h8" fill="none" stroke="white" stroke-width="1.5" pointer-events="none"/>
                </g>
                <g id="dirArrow">
                        <path fill="none" stroke="white" stroke-width="1.5" d="M0,-3.0v7 M-2.5,-0.5L0,-3.0L2.5,-0.5"/>
                </g>
               <g id="resetDef">
                       <use xlink:href="#rim2" fill="#404040">
                               <set attributeName="fill" to="#808080" begin="reset.mouseover" end="reset.mouseout"/>
                       </use>
               </g>
        </defs>

<script type="text/javascript">
var viewWidth = 1043;
var viewHeight = 237;
var sectionId = 'dynsection-0';
</script>
<script xlink:href="svgpan.js"/>
<svg id="graph" class="graph">
<g id="viewport">
<title>anch::logger::formatter::IFormatter</title>
<!-- Node1 -->
<g id="node1" class="node">
<title>Node1</title>
<g id="a_node1"><a xlink:title=" ">
<polygon fill="#bfbfbf" stroke="black" points="459,-138.5 459,-228.5 588,-228.5 588,-138.5 459,-138.5"/>
<text text-anchor="start" x="467" y="-216.5" font-family="Helvetica,sans-Serif" font-size="10.00">anch::logger::formatter</text>
<text text-anchor="middle" x="523.5" y="-205.5" font-family="Helvetica,sans-Serif" font-size="10.00">::IFormatter</text>
<polyline fill="none" stroke="black" points="459,-198.5 588,-198.5 "/>
<text text-anchor="middle" x="523.5" y="-186.5" font-family="Helvetica,sans-Serif" font-size="10.00"> </text>
<polyline fill="none" stroke="black" points="459,-179.5 588,-179.5 "/>
<text text-anchor="start" x="467" y="-167.5" font-family="Helvetica,sans-Serif" font-size="10.00">+ ~IFormatter()</text>
<text text-anchor="start" x="467" y="-156.5" font-family="Helvetica,sans-Serif" font-size="10.00">+ getType()</text>
<text text-anchor="start" x="467" y="-145.5" font-family="Helvetica,sans-Serif" font-size="10.00">+ formatValue()</text>
</a>
</g>
</g>
<!-- Node2 -->
<g id="node2" class="node">
<title>Node2</title>
<g id="a_node2"><a xlink:href="classanch_1_1logger_1_1formatter_1_1_anch_date_formatter.html" target="_top" xlink:title=" ">
<polygon fill="none" stroke="black" points="0,-0.5 0,-101.5 139,-101.5 139,-0.5 0,-0.5"/>
<text text-anchor="start" x="8" y="-89.5" font-family="Helvetica,sans-Serif" font-size="10.00">anch::logger::formatter</text>
<text text-anchor="middle" x="69.5" y="-78.5" font-family="Helvetica,sans-Serif" font-size="10.00">::AnchDateFormatter</text>
<polyline fill="none" stroke="black" points="0,-71.5 139,-71.5 "/>
<text text-anchor="middle" x="69.5" y="-59.5" font-family="Helvetica,sans-Serif" font-size="10.00"> </text>
<polyline fill="none" stroke="black" points="0,-52.5 139,-52.5 "/>
<text text-anchor="start" x="8" y="-40.5" font-family="Helvetica,sans-Serif" font-size="10.00">+ AnchDateFormatter()</text>
<text text-anchor="start" x="8" y="-29.5" font-family="Helvetica,sans-Serif" font-size="10.00">+ ~AnchDateFormatter()</text>
<text text-anchor="start" x="8" y="-18.5" font-family="Helvetica,sans-Serif" font-size="10.00">+ formatValue()</text>
<text text-anchor="start" x="8" y="-7.5" font-family="Helvetica,sans-Serif" font-size="10.00">+ getType()</text>
</a>
</g>
</g>
<!-- Node1&#45;&gt;Node2 -->
<g id="edge1" class="edge">
<title>Node1&#45;&gt;Node2</title>
<path fill="none" stroke="midnightblue" d="M448.62,-174.32C371.24,-164.06 248.05,-142.67 148.5,-102 145.34,-100.71 142.18,-99.3 139.02,-97.79"/>
<polygon fill="none" stroke="midnightblue" points="448.39,-177.82 458.76,-175.63 449.29,-170.87 448.39,-177.82"/>
</g>
<!-- Node3 -->
<g id="node3" class="node">
<title>Node3</title>
<g id="a_node3"><a xlink:href="classanch_1_1logger_1_1formatter_1_1_category_formatter.html" target="_top" xlink:title=" ">
<polygon fill="none" stroke="black" points="157.5,-0.5 157.5,-101.5 293.5,-101.5 293.5,-0.5 157.5,-0.5"/>
<text text-anchor="start" x="165.5" y="-89.5" font-family="Helvetica,sans-Serif" font-size="10.00">anch::logger::formatter</text>
<text text-anchor="middle" x="225.5" y="-78.5" font-family="Helvetica,sans-Serif" font-size="10.00">::CategoryFormatter</text>
<polyline fill="none" stroke="black" points="157.5,-71.5 293.5,-71.5 "/>
<text text-anchor="middle" x="225.5" y="-59.5" font-family="Helvetica,sans-Serif" font-size="10.00"> </text>
<polyline fill="none" stroke="black" points="157.5,-52.5 293.5,-52.5 "/>
<text text-anchor="start" x="165.5" y="-40.5" font-family="Helvetica,sans-Serif" font-size="10.00">+ CategoryFormatter()</text>
<text text-anchor="start" x="165.5" y="-29.5" font-family="Helvetica,sans-Serif" font-size="10.00">+ ~CategoryFormatter()</text>
<text text-anchor="start" x="165.5" y="-18.5" font-family="Helvetica,sans-Serif" font-size="10.00">+ formatValue()</text>
<text text-anchor="start" x="165.5" y="-7.5" font-family="Helvetica,sans-Serif" font-size="10.00">+ getType()</text>
</a>
</g>
</g>
<!-- Node1&#45;&gt;Node3 -->
<g id="edge2" class="edge">
<title>Node1&#45;&gt;Node3</title>
<path fill="none" stroke="midnightblue" d="M448.86,-160C405.18,-145.69 349.55,-125.47 302.5,-102 299.65,-100.58 296.77,-99.07 293.89,-97.5"/>
<polygon fill="none" stroke="midnightblue" points="447.96,-163.39 458.55,-163.14 450.12,-156.73 447.96,-163.39"/>
</g>
<!-- Node4 -->
<g id="node4" class="node">
<title>Node4</title>
<g id="a_node4"><a xlink:href="classanch_1_1logger_1_1formatter_1_1_const_formatter.html" target="_top" xlink:title=" ">
<polygon fill="none" stroke="black" points="312,-0.5 312,-101.5 441,-101.5 441,-0.5 312,-0.5"/>
<text text-anchor="start" x="320" y="-89.5" font-family="Helvetica,sans-Serif" font-size="10.00">anch::logger::formatter</text>
<text text-anchor="middle" x="376.5" y="-78.5" font-family="Helvetica,sans-Serif" font-size="10.00">::ConstFormatter</text>
<polyline fill="none" stroke="black" points="312,-71.5 441,-71.5 "/>
<text text-anchor="middle" x="376.5" y="-59.5" font-family="Helvetica,sans-Serif" font-size="10.00"> </text>
<polyline fill="none" stroke="black" points="312,-52.5 441,-52.5 "/>
<text text-anchor="start" x="320" y="-40.5" font-family="Helvetica,sans-Serif" font-size="10.00">+ ConstFormatter()</text>
<text text-anchor="start" x="320" y="-29.5" font-family="Helvetica,sans-Serif" font-size="10.00">+ ~ConstFormatter()</text>
<text text-anchor="start" x="320" y="-18.5" font-family="Helvetica,sans-Serif" font-size="10.00">+ formatValue()</text>
<text text-anchor="start" x="320" y="-7.5" font-family="Helvetica,sans-Serif" font-size="10.00">+ getType()</text>
</a>
</g>
</g>
<!-- Node1&#45;&gt;Node4 -->
<g id="edge3" class="edge">
<title>Node1&#45;&gt;Node4</title>
<path fill="none" stroke="midnightblue" d="M466.13,-131.57C455,-121.69 443.36,-111.35 432.28,-101.52"/>
<polygon fill="none" stroke="midnightblue" points="463.93,-134.3 473.73,-138.32 468.58,-129.06 463.93,-134.3"/>
</g>
<!-- Node5 -->
<g id="node5" class="node">
<title>Node5</title>
<g id="a_node5"><a xlink:href="classanch_1_1logger_1_1formatter_1_1_date_formatter.html" target="_top" xlink:title=" ">
<polygon fill="none" stroke="black" points="459,-0.5 459,-101.5 588,-101.5 588,-0.5 459,-0.5"/>
<text text-anchor="start" x="467" y="-89.5" font-family="Helvetica,sans-Serif" font-size="10.00">anch::logger::formatter</text>
<text text-anchor="middle" x="523.5" y="-78.5" font-family="Helvetica,sans-Serif" font-size="10.00">::DateFormatter</text>
<polyline fill="none" stroke="black" points="459,-71.5 588,-71.5 "/>
<text text-anchor="middle" x="523.5" y="-59.5" font-family="Helvetica,sans-Serif" font-size="10.00"> </text>
<polyline fill="none" stroke="black" points="459,-52.5 588,-52.5 "/>
<text text-anchor="start" x="467" y="-40.5" font-family="Helvetica,sans-Serif" font-size="10.00">+ DateFormatter()</text>
<text text-anchor="start" x="467" y="-29.5" font-family="Helvetica,sans-Serif" font-size="10.00">+ ~DateFormatter()</text>
<text text-anchor="start" x="467" y="-18.5" font-family="Helvetica,sans-Serif" font-size="10.00">+ formatValue()</text>
<text text-anchor="start" x="467" y="-7.5" font-family="Helvetica,sans-Serif" font-size="10.00">+ getType()</text>
</a>
</g>
</g>
<!-- Node1&#45;&gt;Node5 -->
<g id="edge4" class="edge">
<title>Node1&#45;&gt;Node5</title>
<path fill="none" stroke="midnightblue" d="M523.5,-128.13C523.5,-119.31 523.5,-110.22 523.5,-101.52"/>
<polygon fill="none" stroke="midnightblue" points="520,-128.32 523.5,-138.32 527,-128.32 520,-128.32"/>
</g>
<!-- Node6 -->
<g id="node6" class="node">
<title>Node6</title>
<g id="a_node6"><a xlink:href="classanch_1_1logger_1_1formatter_1_1_level_formatter.html" target="_top" xlink:title=" ">
<polygon fill="none" stroke="black" points="606,-0.5 606,-101.5 735,-101.5 735,-0.5 606,-0.5"/>
<text text-anchor="start" x="614" y="-89.5" font-family="Helvetica,sans-Serif" font-size="10.00">anch::logger::formatter</text>
<text text-anchor="middle" x="670.5" y="-78.5" font-family="Helvetica,sans-Serif" font-size="10.00">::LevelFormatter</text>
<polyline fill="none" stroke="black" points="606,-71.5 735,-71.5 "/>
<text text-anchor="middle" x="670.5" y="-59.5" font-family="Helvetica,sans-Serif" font-size="10.00"> </text>
<polyline fill="none" stroke="black" points="606,-52.5 735,-52.5 "/>
<text text-anchor="start" x="614" y="-40.5" font-family="Helvetica,sans-Serif" font-size="10.00">+ LevelFormatter()</text>
<text text-anchor="start" x="614" y="-29.5" font-family="Helvetica,sans-Serif" font-size="10.00">+ ~LevelFormatter()</text>
<text text-anchor="start" x="614" y="-18.5" font-family="Helvetica,sans-Serif" font-size="10.00">+ formatValue()</text>
<text text-anchor="start" x="614" y="-7.5" font-family="Helvetica,sans-Serif" font-size="10.00">+ getType()</text>
</a>
</g>
</g>
<!-- Node1&#45;&gt;Node6 -->
<g id="edge5" class="edge">
<title>Node1&#45;&gt;Node6</title>
<path fill="none" stroke="midnightblue" d="M580.87,-131.57C592,-121.69 603.64,-111.35 614.72,-101.52"/>
<polygon fill="none" stroke="midnightblue" points="578.42,-129.06 573.27,-138.32 583.07,-134.3 578.42,-129.06"/>
</g>
<!-- Node7 -->
<g id="node7" class="node">
<title>Node7</title>
<g id="a_node7"><a xlink:href="classanch_1_1logger_1_1formatter_1_1_string_formatter.html" target="_top" xlink:title=" ">
<polygon fill="none" stroke="black" points="753,-0.5 753,-101.5 882,-101.5 882,-0.5 753,-0.5"/>
<text text-anchor="start" x="761" y="-89.5" font-family="Helvetica,sans-Serif" font-size="10.00">anch::logger::formatter</text>
<text text-anchor="middle" x="817.5" y="-78.5" font-family="Helvetica,sans-Serif" font-size="10.00">::StringFormatter</text>
<polyline fill="none" stroke="black" points="753,-71.5 882,-71.5 "/>
<text text-anchor="middle" x="817.5" y="-59.5" font-family="Helvetica,sans-Serif" font-size="10.00"> </text>
<polyline fill="none" stroke="black" points="753,-52.5 882,-52.5 "/>
<text text-anchor="start" x="761" y="-40.5" font-family="Helvetica,sans-Serif" font-size="10.00">+ StringFormatter()</text>
<text text-anchor="start" x="761" y="-29.5" font-family="Helvetica,sans-Serif" font-size="10.00">+ ~StringFormatter()</text>
<text text-anchor="start" x="761" y="-18.5" font-family="Helvetica,sans-Serif" font-size="10.00">+ formatValue()</text>
<text text-anchor="start" x="761" y="-7.5" font-family="Helvetica,sans-Serif" font-size="10.00">+ getType()</text>
</a>
</g>
</g>
<!-- Node1&#45;&gt;Node7 -->
<g id="edge6" class="edge">
<title>Node1&#45;&gt;Node7</title>
<path fill="none" stroke="midnightblue" d="M597.89,-160.58C641.71,-146.41 697.57,-126.13 744.5,-102 747.23,-100.6 749.98,-99.1 752.73,-97.55"/>
<polygon fill="none" stroke="midnightblue" points="596.62,-157.31 588.16,-163.69 598.75,-163.98 596.62,-157.31"/>
</g>
<!-- Node8 -->
<g id="node8" class="node">
<title>Node8</title>
<g id="a_node8"><a xlink:href="classanch_1_1logger_1_1formatter_1_1_thread_id_formatter.html" target="_top" xlink:title=" ">
<polygon fill="none" stroke="black" points="900.5,-0.5 900.5,-101.5 1034.5,-101.5 1034.5,-0.5 900.5,-0.5"/>
<text text-anchor="start" x="908.5" y="-89.5" font-family="Helvetica,sans-Serif" font-size="10.00">anch::logger::formatter</text>
<text text-anchor="middle" x="967.5" y="-78.5" font-family="Helvetica,sans-Serif" font-size="10.00">::ThreadIdFormatter</text>
<polyline fill="none" stroke="black" points="900.5,-71.5 1034.5,-71.5 "/>
<text text-anchor="middle" x="967.5" y="-59.5" font-family="Helvetica,sans-Serif" font-size="10.00"> </text>
<polyline fill="none" stroke="black" points="900.5,-52.5 1034.5,-52.5 "/>
<text text-anchor="start" x="908.5" y="-40.5" font-family="Helvetica,sans-Serif" font-size="10.00">+ ThreadIdFormatter()</text>
<text text-anchor="start" x="908.5" y="-29.5" font-family="Helvetica,sans-Serif" font-size="10.00">+ ~ThreadIdFormatter()</text>
<text text-anchor="start" x="908.5" y="-18.5" font-family="Helvetica,sans-Serif" font-size="10.00">+ formatValue()</text>
<text text-anchor="start" x="908.5" y="-7.5" font-family="Helvetica,sans-Serif" font-size="10.00">+ getType()</text>
</a>
</g>
</g>
<!-- Node1&#45;&gt;Node8 -->
<g id="edge7" class="edge">
<title>Node1&#45;&gt;Node8</title>
<path fill="none" stroke="midnightblue" d="M598.14,-174.31C674.25,-164.12 794.59,-142.81 891.5,-102 894.41,-100.77 897.33,-99.43 900.24,-98.01"/>
<polygon fill="none" stroke="midnightblue" points="597.62,-170.85 588.16,-175.62 598.53,-177.79 597.62,-170.85"/>
</g>
</g>
</svg>
        <g id="navigator" transform="translate(0 0)" fill="#404254">
                <rect fill="#f2f5e9" fill-opacity="0.5" stroke="#606060" stroke-width=".5" x="0" y="0" width="60" height="60"/>
                <use id="zoomplus" xlink:href="#zoomPlus" x="17" y="9" onmousedown="handleZoom(evt,'in')"/>
                <use id="zoomminus" xlink:href="#zoomMin" x="42" y="9" onmousedown="handleZoom(evt,'out')"/>
                <use id="reset" xlink:href="#resetDef" x="30" y="36" onmousedown="handleReset()"/>
                <g id="arrowUp" xlink:href="#dirArrow" transform="translate(30 24)" onmousedown="handlePan(0,-1)">
                  <use xlink:href="#rim" fill="#404040">
                        <set attributeName="fill" to="#808080" begin="arrowUp.mouseover" end="arrowUp.mouseout"/>
                  </use>
                  <path fill="none" stroke="white" stroke-width="1.5" d="M0,-3.0v7 M-2.5,-0.5L0,-3.0L2.5,-0.5"/>
                </g>
                <g id="arrowRight" xlink:href="#dirArrow" transform="rotate(90) translate(36 -43)" onmousedown="handlePan(1,0)">
                  <use xlink:href="#rim" fill="#404040">
                        <set attributeName="fill" to="#808080" begin="arrowRight.mouseover" end="arrowRight.mouseout"/>
                  </use>
                  <path fill="none" stroke="white" stroke-width="1.5" d="M0,-3.0v7 M-2.5,-0.5L0,-3.0L2.5,-0.5"/>
                </g>
                <g id="arrowDown" xlink:href="#dirArrow" transform="rotate(180) translate(-30 -48)" onmousedown="handlePan(0,1)">
                  <use xlink:href="#rim" fill="#404040">
                        <set attributeName="fill" to="#808080" begin="arrowDown.mouseover" end="arrowDown.mouseout"/>
                  </use>
                  <path fill="none" stroke="white" stroke-width="1.5" d="M0,-3.0v7 M-2.5,-0.5L0,-3.0L2.5,-0.5"/>
                </g>
                <g id="arrowLeft" xlink:href="#dirArrow" transform="rotate(270) translate(-36 17)" onmousedown="handlePan(-1,0)">
                  <use xlink:href="#rim" fill="#404040">
                        <set attributeName="fill" to="#808080" begin="arrowLeft.mouseover" end="arrowLeft.mouseout"/>
                  </use>
                  <path fill="none" stroke="white" stroke-width="1.5" d="M0,-3.0v7 M-2.5,-0.5L0,-3.0L2.5,-0.5"/>
                </g>
        </g>
        <svg viewBox="0 0 15 15" width="100%" height="30px" preserveAspectRatio="xMaxYMin meet">
         <g id="arrow_out" transform="scale(0.3 0.3)">
          <a xlink:href="classanch_1_1logger_1_1formatter_1_1_i_formatter__inherit__graph_org.svg" target="_base">
           <rect id="button" ry="5" rx="5" y="6" x="6" height="38" width="38"
                fill="#f2f5e9" fill-opacity="0.5" stroke="#606060" stroke-width="1.0"/>
           <path id="arrow"
             d="M 11.500037,31.436501 C 11.940474,20.09759 22.043105,11.32322 32.158766,21.979434 L 37.068811,17.246167 C 37.068811,17.246167 37.088388,32 37.088388,32 L 22.160133,31.978069 C 22.160133,31.978069 26.997745,27.140456 26.997745,27.140456 C 18.528582,18.264221 13.291696,25.230495 11.500037,31.436501 z"
             style="fill:#404040;"/>
          </a>
         </g>
        </svg>
</svg>
