<?xml version="1.0" encoding="UTF-8" standalone="no"?>
<!DOCTYPE svg PUBLIC "-//W3C//DTD SVG 1.1//EN"
 "http://www.w3.org/Graphics/SVG/1.1/DTD/svg11.dtd">
<!-- Generated by graphviz version 14.0.0 (0)
 -->
<!-- Title: anch::network::TcpStreamServer Pages: 1 -->
<svg width="374pt" height="1027pt"
 viewBox="0.00 0.00 374.00 1027.00" xmlns="http://www.w3.org/2000/svg" xmlns:xlink="http://www.w3.org/1999/xlink">
<g id="graph0" class="graph" transform="scale(1 1) rotate(0) translate(4 1023)">
<title>anch::network::TcpStreamServer</title>
<!-- Node1 -->
<g id="Node000001" class="node">
<title>Node1</title>
<g id="a_Node000001"><a xlink:title="TCP stream server.">
<polygon fill="#999999" stroke="none" points="254.25,-80 131.5,-80 131.5,0 254.25,0 254.25,-80"/>
<text xml:space="preserve" text-anchor="start" x="135.5" y="-66.5" font-family="Helvetica,sans-Serif" font-size="10.00">anch::network::TcpStream</text>
<text xml:space="preserve" text-anchor="start" x="178.62" y="-54.5" font-family="Helvetica,sans-Serif" font-size="10.00">Server</text>
<text xml:space="preserve" text-anchor="start" x="191.38" y="-38.5" font-family="Helvetica,sans-Serif" font-size="10.00"> </text>
<text xml:space="preserve" text-anchor="start" x="139.75" y="-22.5" font-family="Helvetica,sans-Serif" font-size="10.00">+</text>
<text xml:space="preserve" text-anchor="start" x="154" y="-22.5" font-family="Helvetica,sans-Serif" font-size="10.00">TcpStreamServer()</text>
<text xml:space="preserve" text-anchor="start" x="139.75" y="-6.5" font-family="Helvetica,sans-Serif" font-size="10.00">+</text>
<text xml:space="preserve" text-anchor="start" x="154" y="-6.5" font-family="Helvetica,sans-Serif" font-size="10.00">~TcpStreamServer()</text>
<polygon fill="#666666" stroke="#666666" points="131.5,-50 131.5,-50 254.25,-50 254.25,-50 131.5,-50"/>
<polygon fill="#666666" stroke="#666666" points="131.5,-34 131.5,-34 254.25,-34 254.25,-34 131.5,-34"/>
<polygon fill="none" stroke="#666666" points="131.5,0 131.5,-80 254.25,-80 254.25,0 131.5,0"/>
</a>
</g>
</g>
<!-- Node2 -->
<g id="Node000002" class="node">
<title>Node2</title>
<g id="a_Node000002"><a xlink:href="classanch_1_1network_1_1_tcp_stream.html" target="_top" xlink:title=" ">
<polygon fill="white" stroke="none" points="254.25,-201 131.5,-201 131.5,-117 254.25,-117 254.25,-201"/>
<text xml:space="preserve" text-anchor="start" x="135.5" y="-187.5" font-family="Helvetica,sans-Serif" font-size="10.00">anch::network::TcpStream</text>
<text xml:space="preserve" text-anchor="start" x="191.38" y="-171.5" font-family="Helvetica,sans-Serif" font-size="10.00"> </text>
<text xml:space="preserve" text-anchor="start" x="146.31" y="-155.5" font-family="Helvetica,sans-Serif" font-size="10.00">+</text>
<text xml:space="preserve" text-anchor="start" x="167.12" y="-155.5" font-family="Helvetica,sans-Serif" font-size="10.00">TcpStream()</text>
<text xml:space="preserve" text-anchor="start" x="146.31" y="-139.5" font-family="Helvetica,sans-Serif" font-size="10.00">+</text>
<text xml:space="preserve" text-anchor="start" x="167.12" y="-139.5" font-family="Helvetica,sans-Serif" font-size="10.00">~TcpStream()</text>
<text xml:space="preserve" text-anchor="start" x="146.31" y="-123.5" font-family="Helvetica,sans-Serif" font-size="10.00">+</text>
<text xml:space="preserve" text-anchor="start" x="167.12" y="-123.5" font-family="Helvetica,sans-Serif" font-size="10.00">addObserver()</text>
<polygon fill="#666666" stroke="#666666" points="131.5,-183 131.5,-183 254.25,-183 254.25,-183 131.5,-183"/>
<polygon fill="#666666" stroke="#666666" points="131.5,-167 131.5,-167 254.25,-167 254.25,-167 131.5,-167"/>
<polygon fill="none" stroke="#666666" points="131.5,-117 131.5,-201 254.25,-201 254.25,-117 131.5,-117"/>
</a>
</g>
</g>
<!-- Node2&#45;&gt;Node1 -->
<g id="edge1_Node000001_Node000002" class="edge">
<title>Node2&#45;&gt;Node1</title>
<g id="a_edge1_Node000001_Node000002"><a xlink:title=" ">
<path fill="none" stroke="#63b8ff" d="M192.88,-105.75C192.88,-97 192.88,-88.07 192.88,-79.74"/>
<polygon fill="none" stroke="#63b8ff" points="189.38,-105.57 192.88,-115.57 196.38,-105.57 189.38,-105.57"/>
</a>
</g>
</g>
<!-- Node3 -->
<g id="Node000003" class="node">
<title>Node3</title>
<g id="a_Node000003"><a xlink:href="classanch_1_1cutils_1_1_c_i_o_stream.html" target="_top" xlink:title=" ">
<polygon fill="white" stroke="none" points="113.75,-363 0,-363 0,-263 113.75,-263 113.75,-363"/>
<text xml:space="preserve" text-anchor="start" x="4" y="-349.5" font-family="Helvetica,sans-Serif" font-size="10.00">anch::cutils::CIOStream</text>
<text xml:space="preserve" text-anchor="start" x="55.38" y="-333.5" font-family="Helvetica,sans-Serif" font-size="10.00"> </text>
<text xml:space="preserve" text-anchor="start" x="12.56" y="-317.5" font-family="Helvetica,sans-Serif" font-size="10.00">+</text>
<text xml:space="preserve" text-anchor="start" x="31.12" y="-317.5" font-family="Helvetica,sans-Serif" font-size="10.00">CIOStream()</text>
<text xml:space="preserve" text-anchor="start" x="12.56" y="-301.5" font-family="Helvetica,sans-Serif" font-size="10.00">+</text>
<text xml:space="preserve" text-anchor="start" x="31.12" y="-301.5" font-family="Helvetica,sans-Serif" font-size="10.00">~CIOStream()</text>
<text xml:space="preserve" text-anchor="start" x="12.94" y="-285.5" font-family="Helvetica,sans-Serif" font-size="10.00">#</text>
<text xml:space="preserve" text-anchor="start" x="31.12" y="-285.5" font-family="Helvetica,sans-Serif" font-size="10.00">CIOStream()</text>
<text xml:space="preserve" text-anchor="start" x="12.94" y="-269.5" font-family="Helvetica,sans-Serif" font-size="10.00">#</text>
<text xml:space="preserve" text-anchor="start" x="31.12" y="-269.5" font-family="Helvetica,sans-Serif" font-size="10.00">setBuffer()</text>
<polygon fill="#666666" stroke="#666666" points="0,-345 0,-345 113.75,-345 113.75,-345 0,-345"/>
<polygon fill="#666666" stroke="#666666" points="0,-329 0,-329 113.75,-329 113.75,-329 0,-329"/>
<polygon fill="none" stroke="#666666" points="0,-263 0,-363 113.75,-363 113.75,-263 0,-263"/>
</a>
</g>
</g>
<!-- Node3&#45;&gt;Node2 -->
<g id="edge2_Node000002_Node000003" class="edge">
<title>Node3&#45;&gt;Node2</title>
<g id="a_edge2_Node000002_Node000003"><a xlink:title=" ">
<path fill="none" stroke="#63b8ff" d="M107.96,-254.91C124.09,-236.88 141.57,-217.34 156.46,-200.7"/>
<polygon fill="none" stroke="#63b8ff" points="105.72,-252.16 101.66,-261.94 110.94,-256.82 105.72,-252.16"/>
</a>
</g>
</g>
<!-- Node4 -->
<g id="Node000004" class="node">
<title>Node4</title>
<g id="a_Node000004"><a xlink:title=" ">
<polygon fill="white" stroke="none" points="89.38,-564 24.38,-564 24.38,-512 89.38,-512 89.38,-564"/>
<text xml:space="preserve" text-anchor="start" x="28.38" y="-550.5" font-family="Helvetica,sans-Serif" font-size="10.00">std::iostream</text>
<text xml:space="preserve" text-anchor="start" x="55.38" y="-534.5" font-family="Helvetica,sans-Serif" font-size="10.00"> </text>
<text xml:space="preserve" text-anchor="start" x="55.38" y="-518.5" font-family="Helvetica,sans-Serif" font-size="10.00"> </text>
<polygon fill="#bfbfbf" stroke="#bfbfbf" points="24.38,-546 24.38,-546 89.38,-546 89.38,-546 24.38,-546"/>
<polygon fill="#bfbfbf" stroke="#bfbfbf" points="24.38,-530 24.38,-530 89.38,-530 89.38,-530 24.38,-530"/>
<polygon fill="none" stroke="#bfbfbf" points="24.38,-512 24.38,-564 89.38,-564 89.38,-512 24.38,-512"/>
</a>
</g>
</g>
<!-- Node4&#45;&gt;Node3 -->
<g id="edge3_Node000003_Node000004" class="edge">
<title>Node4&#45;&gt;Node3</title>
<g id="a_edge3_Node000003_Node000004"><a xlink:title=" ">
<path fill="none" stroke="#63b8ff" d="M56.88,-500.9C56.88,-463.37 56.88,-404.38 56.88,-362.73"/>
<polygon fill="none" stroke="#63b8ff" points="53.38,-500.77 56.88,-510.77 60.38,-500.77 53.38,-500.77"/>
</a>
</g>
</g>
<!-- Node5 -->
<g id="Node000005" class="node">
<title>Node5</title>
<g id="a_Node000005"><a xlink:href="classanch_1_1network_1_1_tcp_socket.html" target="_top" xlink:title=" ">
<polygon fill="white" stroke="none" points="253.88,-371 131.88,-371 131.88,-255 253.88,-255 253.88,-371"/>
<text xml:space="preserve" text-anchor="start" x="135.88" y="-357.5" font-family="Helvetica,sans-Serif" font-size="10.00">anch::network::TcpSocket</text>
<text xml:space="preserve" text-anchor="start" x="191.38" y="-341.5" font-family="Helvetica,sans-Serif" font-size="10.00"> </text>
<text xml:space="preserve" text-anchor="start" x="147.25" y="-325.5" font-family="Helvetica,sans-Serif" font-size="10.00">+</text>
<text xml:space="preserve" text-anchor="start" x="168.62" y="-325.5" font-family="Helvetica,sans-Serif" font-size="10.00">TcpSocket()</text>
<text xml:space="preserve" text-anchor="start" x="147.25" y="-309.5" font-family="Helvetica,sans-Serif" font-size="10.00">+</text>
<text xml:space="preserve" text-anchor="start" x="168.62" y="-309.5" font-family="Helvetica,sans-Serif" font-size="10.00">TcpSocket()</text>
<text xml:space="preserve" text-anchor="start" x="147.25" y="-293.5" font-family="Helvetica,sans-Serif" font-size="10.00">+</text>
<text xml:space="preserve" text-anchor="start" x="168.62" y="-293.5" font-family="Helvetica,sans-Serif" font-size="10.00">~TcpSocket()</text>
<text xml:space="preserve" text-anchor="start" x="147.25" y="-277.5" font-family="Helvetica,sans-Serif" font-size="10.00">+</text>
<text xml:space="preserve" text-anchor="start" x="168.62" y="-277.5" font-family="Helvetica,sans-Serif" font-size="10.00">send()</text>
<text xml:space="preserve" text-anchor="start" x="147.25" y="-261.5" font-family="Helvetica,sans-Serif" font-size="10.00">+</text>
<text xml:space="preserve" text-anchor="start" x="168.62" y="-261.5" font-family="Helvetica,sans-Serif" font-size="10.00">receive()</text>
<polygon fill="#666666" stroke="#666666" points="131.88,-353 131.88,-353 253.88,-353 253.88,-353 131.88,-353"/>
<polygon fill="#666666" stroke="#666666" points="131.88,-337 131.88,-337 253.88,-337 253.88,-337 131.88,-337"/>
<polygon fill="none" stroke="#666666" points="131.88,-255 131.88,-371 253.88,-371 253.88,-255 131.88,-255"/>
</a>
</g>
</g>
<!-- Node5&#45;&gt;Node2 -->
<g id="edge4_Node000002_Node000005" class="edge">
<title>Node5&#45;&gt;Node2</title>
<g id="a_edge4_Node000002_Node000005"><a xlink:title=" ">
<path fill="none" stroke="#63b8ff" d="M192.88,-255.4C192.88,-241.85 192.88,-227.43 192.88,-214"/>
<polygon fill="none" stroke="#63b8ff" points="192.88,-213.88 188.88,-207.88 192.88,-201.88 196.88,-207.88 192.88,-213.88"/>
</a>
</g>
<text xml:space="preserve" text-anchor="start" x="195.88" y="-224.5" font-family="Helvetica,sans-Serif" font-size="10.00" fill="grey">#_socket</text>
</g>
<!-- Node6 -->
<g id="Node000006" class="node">
<title>Node6</title>
<g id="a_Node000006"><a xlink:href="classanch_1_1network_1_1_socket.html" target="_top" xlink:title=" ">
<polygon fill="white" stroke="none" points="246,-668 139.75,-668 139.75,-408 246,-408 246,-668"/>
<text xml:space="preserve" text-anchor="start" x="143.75" y="-654.5" font-family="Helvetica,sans-Serif" font-size="10.00">anch::network::Socket</text>
<text xml:space="preserve" text-anchor="start" x="150.62" y="-638.5" font-family="Helvetica,sans-Serif" font-size="10.00">#</text>
<text xml:space="preserve" text-anchor="start" x="166.75" y="-638.5" font-family="Helvetica,sans-Serif" font-size="10.00">_sock</text>
<text xml:space="preserve" text-anchor="start" x="150.62" y="-622.5" font-family="Helvetica,sans-Serif" font-size="10.00">#</text>
<text xml:space="preserve" text-anchor="start" x="166.75" y="-622.5" font-family="Helvetica,sans-Serif" font-size="10.00">_backlog</text>
<text xml:space="preserve" text-anchor="start" x="150.62" y="-606.5" font-family="Helvetica,sans-Serif" font-size="10.00">#</text>
<text xml:space="preserve" text-anchor="start" x="166.75" y="-606.5" font-family="Helvetica,sans-Serif" font-size="10.00">_address</text>
<text xml:space="preserve" text-anchor="start" x="150.25" y="-590.5" font-family="Helvetica,sans-Serif" font-size="10.00">+</text>
<text xml:space="preserve" text-anchor="start" x="166.75" y="-590.5" font-family="Helvetica,sans-Serif" font-size="10.00">Socket()</text>
<text xml:space="preserve" text-anchor="start" x="150.25" y="-574.5" font-family="Helvetica,sans-Serif" font-size="10.00">+</text>
<text xml:space="preserve" text-anchor="start" x="166.75" y="-574.5" font-family="Helvetica,sans-Serif" font-size="10.00">~Socket()</text>
<text xml:space="preserve" text-anchor="start" x="150.25" y="-558.5" font-family="Helvetica,sans-Serif" font-size="10.00">+</text>
<text xml:space="preserve" text-anchor="start" x="166.75" y="-558.5" font-family="Helvetica,sans-Serif" font-size="10.00">bind()</text>
<text xml:space="preserve" text-anchor="start" x="150.25" y="-542.5" font-family="Helvetica,sans-Serif" font-size="10.00">+</text>
<text xml:space="preserve" text-anchor="start" x="166.75" y="-542.5" font-family="Helvetica,sans-Serif" font-size="10.00">connect()</text>
<text xml:space="preserve" text-anchor="start" x="150.25" y="-526.5" font-family="Helvetica,sans-Serif" font-size="10.00">+</text>
<text xml:space="preserve" text-anchor="start" x="166.75" y="-526.5" font-family="Helvetica,sans-Serif" font-size="10.00">listen()</text>
<text xml:space="preserve" text-anchor="start" x="150.25" y="-510.5" font-family="Helvetica,sans-Serif" font-size="10.00">+</text>
<text xml:space="preserve" text-anchor="start" x="166.75" y="-510.5" font-family="Helvetica,sans-Serif" font-size="10.00">accept()</text>
<text xml:space="preserve" text-anchor="start" x="150.25" y="-494.5" font-family="Helvetica,sans-Serif" font-size="10.00">+</text>
<text xml:space="preserve" text-anchor="start" x="166.75" y="-494.5" font-family="Helvetica,sans-Serif" font-size="10.00">send()</text>
<text xml:space="preserve" text-anchor="start" x="150.25" y="-478.5" font-family="Helvetica,sans-Serif" font-size="10.00">+</text>
<text xml:space="preserve" text-anchor="start" x="166.75" y="-478.5" font-family="Helvetica,sans-Serif" font-size="10.00">receive()</text>
<text xml:space="preserve" text-anchor="start" x="150.25" y="-462.5" font-family="Helvetica,sans-Serif" font-size="10.00">+</text>
<text xml:space="preserve" text-anchor="start" x="166.75" y="-462.5" font-family="Helvetica,sans-Serif" font-size="10.00">receive()</text>
<text xml:space="preserve" text-anchor="start" x="150.25" y="-446.5" font-family="Helvetica,sans-Serif" font-size="10.00">+</text>
<text xml:space="preserve" text-anchor="start" x="166.75" y="-446.5" font-family="Helvetica,sans-Serif" font-size="10.00">shutdown()</text>
<text xml:space="preserve" text-anchor="start" x="166.75" y="-430.5" font-family="Helvetica,sans-Serif" font-size="10.00">and 11 more...</text>
<text xml:space="preserve" text-anchor="start" x="150.62" y="-414.5" font-family="Helvetica,sans-Serif" font-size="10.00">#</text>
<text xml:space="preserve" text-anchor="start" x="166.75" y="-414.5" font-family="Helvetica,sans-Serif" font-size="10.00">Socket()</text>
<polygon fill="#666666" stroke="#666666" points="139.75,-650 139.75,-650 246,-650 246,-650 139.75,-650"/>
<polygon fill="#666666" stroke="#666666" points="139.75,-602 139.75,-602 164.75,-602 164.75,-602 139.75,-602"/>
<polygon fill="#666666" stroke="#666666" points="164.75,-602 164.75,-602 246,-602 246,-602 164.75,-602"/>
<polygon fill="none" stroke="#666666" points="139.75,-408 139.75,-668 246,-668 246,-408 139.75,-408"/>
</a>
</g>
</g>
<!-- Node6&#45;&gt;Node5 -->
<g id="edge5_Node000005_Node000006" class="edge">
<title>Node6&#45;&gt;Node5</title>
<g id="a_edge5_Node000005_Node000006"><a xlink:title=" ">
<path fill="none" stroke="#63b8ff" d="M192.88,-396.74C192.88,-387.76 192.88,-379.04 192.88,-370.84"/>
<polygon fill="none" stroke="#63b8ff" points="189.38,-396.74 192.88,-406.74 196.38,-396.74 189.38,-396.74"/>
</a>
</g>
</g>
<!-- Node7 -->
<g id="Node000007" class="node">
<title>Node7</title>
<g id="a_Node000007"><a xlink:href="classanch_1_1events_1_1_observable.html" target="_top" xlink:title=" ">
<polygon fill="white" stroke="none" points="252.75,-833 133,-833 133,-705 252.75,-705 252.75,-833"/>
<text xml:space="preserve" text-anchor="start" x="137" y="-819.5" font-family="Helvetica,sans-Serif" font-size="10.00">anch::events::Observable</text>
<text xml:space="preserve" text-anchor="start" x="155.75" y="-807.5" font-family="Helvetica,sans-Serif" font-size="10.00">&lt; SocketEvent &gt;</text>
<text xml:space="preserve" text-anchor="start" x="191.38" y="-791.5" font-family="Helvetica,sans-Serif" font-size="10.00"> </text>
<text xml:space="preserve" text-anchor="start" x="142.94" y="-775.5" font-family="Helvetica,sans-Serif" font-size="10.00">+</text>
<text xml:space="preserve" text-anchor="start" x="158.88" y="-775.5" font-family="Helvetica,sans-Serif" font-size="10.00">Observable()</text>
<text xml:space="preserve" text-anchor="start" x="142.94" y="-759.5" font-family="Helvetica,sans-Serif" font-size="10.00">+</text>
<text xml:space="preserve" text-anchor="start" x="158.88" y="-759.5" font-family="Helvetica,sans-Serif" font-size="10.00">~Observable()</text>
<text xml:space="preserve" text-anchor="start" x="142.94" y="-743.5" font-family="Helvetica,sans-Serif" font-size="10.00">+</text>
<text xml:space="preserve" text-anchor="start" x="158.88" y="-743.5" font-family="Helvetica,sans-Serif" font-size="10.00">addObserver()</text>
<text xml:space="preserve" text-anchor="start" x="142.94" y="-727.5" font-family="Helvetica,sans-Serif" font-size="10.00">+</text>
<text xml:space="preserve" text-anchor="start" x="158.88" y="-727.5" font-family="Helvetica,sans-Serif" font-size="10.00">removeObserver()</text>
<text xml:space="preserve" text-anchor="start" x="142.94" y="-711.5" font-family="Helvetica,sans-Serif" font-size="10.00">+</text>
<text xml:space="preserve" text-anchor="start" x="158.88" y="-711.5" font-family="Helvetica,sans-Serif" font-size="10.00">notifyObservers()</text>
<polygon fill="#666666" stroke="#666666" points="133,-803 133,-803 252.75,-803 252.75,-803 133,-803"/>
<polygon fill="#666666" stroke="#666666" points="133,-787 133,-787 252.75,-787 252.75,-787 133,-787"/>
<polygon fill="none" stroke="#666666" points="133,-705 133,-833 252.75,-833 252.75,-705 133,-705"/>
</a>
</g>
</g>
<!-- Node7&#45;&gt;Node6 -->
<g id="edge6_Node000006_Node000007" class="edge">
<title>Node7&#45;&gt;Node6</title>
<g id="a_edge6_Node000006_Node000007"><a xlink:title=" ">
<path fill="none" stroke="#63b8ff" d="M192.88,-693.82C192.88,-685.37 192.88,-676.58 192.88,-667.68"/>
<polygon fill="none" stroke="#63b8ff" points="189.38,-693.61 192.88,-703.61 196.38,-693.61 189.38,-693.61"/>
</a>
</g>
</g>
<!-- Node8 -->
<g id="Node000008" class="node">
<title>Node8</title>
<g id="a_Node000008"><a xlink:href="classanch_1_1events_1_1_observable.html" target="_top" xlink:title="An observable implementation of the observers/observable design pattern.">
<polygon fill="white" stroke="none" points="264.38,-1019 121.38,-1019 121.38,-887 264.38,-887 264.38,-1019"/>
<text xml:space="preserve" text-anchor="start" x="125.38" y="-1005.5" font-family="Helvetica,sans-Serif" font-size="10.00">anch::events::Observable&lt; T &gt;</text>
<text xml:space="preserve" text-anchor="start" x="191.38" y="-989.5" font-family="Helvetica,sans-Serif" font-size="10.00"> </text>
<text xml:space="preserve" text-anchor="start" x="137.12" y="-973.5" font-family="Helvetica,sans-Serif" font-size="10.00">+</text>
<text xml:space="preserve" text-anchor="start" x="158.88" y="-973.5" font-family="Helvetica,sans-Serif" font-size="10.00">Observable()</text>
<text xml:space="preserve" text-anchor="start" x="137.12" y="-957.5" font-family="Helvetica,sans-Serif" font-size="10.00">+</text>
<text xml:space="preserve" text-anchor="start" x="158.88" y="-957.5" font-family="Helvetica,sans-Serif" font-size="10.00">~Observable()</text>
<text xml:space="preserve" text-anchor="start" x="137.12" y="-941.5" font-family="Helvetica,sans-Serif" font-size="10.00">+</text>
<text xml:space="preserve" text-anchor="start" x="158.88" y="-941.5" font-family="Helvetica,sans-Serif" font-size="10.00">addObserver()</text>
<text xml:space="preserve" text-anchor="start" x="137.12" y="-925.5" font-family="Helvetica,sans-Serif" font-size="10.00">+</text>
<text xml:space="preserve" text-anchor="start" x="158.88" y="-925.5" font-family="Helvetica,sans-Serif" font-size="10.00">removeObserver()</text>
<text xml:space="preserve" text-anchor="start" x="137.12" y="-909.5" font-family="Helvetica,sans-Serif" font-size="10.00">+</text>
<text xml:space="preserve" text-anchor="start" x="158.88" y="-909.5" font-family="Helvetica,sans-Serif" font-size="10.00">notifyObservers()</text>
<text xml:space="preserve" text-anchor="start" x="137.12" y="-893.5" font-family="Helvetica,sans-Serif" font-size="10.00">+</text>
<text xml:space="preserve" text-anchor="start" x="158.88" y="-893.5" font-family="Helvetica,sans-Serif" font-size="10.00">notifyObservers()</text>
<polygon fill="#666666" stroke="#666666" points="121.38,-1001 121.38,-1001 264.38,-1001 264.38,-1001 121.38,-1001"/>
<polygon fill="#666666" stroke="#666666" points="121.38,-985 121.38,-985 264.38,-985 264.38,-985 121.38,-985"/>
<polygon fill="none" stroke="#666666" points="121.38,-887 121.38,-1019 264.38,-1019 264.38,-887 121.38,-887"/>
</a>
</g>
</g>
<!-- Node8&#45;&gt;Node7 -->
<g id="edge7_Node000007_Node000008" class="edge">
<title>Node8&#45;&gt;Node7</title>
<g id="a_edge7_Node000007_Node000008"><a xlink:title=" ">
<path fill="none" stroke="orange" d="M192.88,-875.73C192.88,-861.42 192.88,-846.61 192.88,-832.77"/>
<polygon fill="orange" stroke="orange" points="189.38,-875.55 192.88,-885.55 196.38,-875.55 189.38,-875.55"/>
</a>
</g>
<text xml:space="preserve" text-anchor="start" x="195.88" y="-856.5" font-family="Helvetica,sans-Serif" font-size="10.00" fill="grey">&lt; SocketEvent &gt;</text>
</g>
<!-- Node9 -->
<g id="Node000009" class="node">
<title>Node9</title>
<g id="a_Node000009"><a xlink:href="structanch_1_1cutils_1_1cbuffer.html" target="_top" xlink:title="C buffer.">
<polygon fill="white" stroke="none" points="365.62,-363 272.12,-363 272.12,-263 365.62,-263 365.62,-363"/>
<text xml:space="preserve" text-anchor="start" x="276.12" y="-349.5" font-family="Helvetica,sans-Serif" font-size="10.00">anch::cutils::cbuffer</text>
<text xml:space="preserve" text-anchor="start" x="289.75" y="-333.5" font-family="Helvetica,sans-Serif" font-size="10.00">+</text>
<text xml:space="preserve" text-anchor="start" x="313.38" y="-333.5" font-family="Helvetica,sans-Serif" font-size="10.00">data</text>
<text xml:space="preserve" text-anchor="start" x="289.75" y="-317.5" font-family="Helvetica,sans-Serif" font-size="10.00">+</text>
<text xml:space="preserve" text-anchor="start" x="313.38" y="-317.5" font-family="Helvetica,sans-Serif" font-size="10.00">size</text>
<text xml:space="preserve" text-anchor="start" x="289.75" y="-301.5" font-family="Helvetica,sans-Serif" font-size="10.00">+</text>
<text xml:space="preserve" text-anchor="start" x="313.38" y="-301.5" font-family="Helvetica,sans-Serif" font-size="10.00">read</text>
<text xml:space="preserve" text-anchor="start" x="289.75" y="-285.5" font-family="Helvetica,sans-Serif" font-size="10.00">+</text>
<text xml:space="preserve" text-anchor="start" x="313.38" y="-285.5" font-family="Helvetica,sans-Serif" font-size="10.00">write</text>
<text xml:space="preserve" text-anchor="start" x="317.38" y="-269.5" font-family="Helvetica,sans-Serif" font-size="10.00"> </text>
<polygon fill="#666666" stroke="#666666" points="272.12,-345 272.12,-345 365.62,-345 365.62,-345 272.12,-345"/>
<polygon fill="#666666" stroke="#666666" points="272.12,-281 272.12,-281 311.38,-281 311.38,-281 272.12,-281"/>
<polygon fill="#666666" stroke="#666666" points="311.38,-281 311.38,-281 365.62,-281 365.62,-281 311.38,-281"/>
<polygon fill="none" stroke="#666666" points="272.12,-263 272.12,-363 365.62,-363 365.62,-263 272.12,-263"/>
</a>
</g>
</g>
<!-- Node9&#45;&gt;Node2 -->
<g id="edge8_Node000002_Node000009" class="edge">
<title>Node9&#45;&gt;Node2</title>
<g id="a_edge8_Node000002_Node000009"><a xlink:title=" ">
<path fill="none" stroke="#63b8ff" d="M279.2,-263.12C267.55,-248.85 254.75,-233.26 242.88,-219 240.58,-216.24 238.22,-213.42 235.83,-210.57"/>
<polygon fill="none" stroke="#63b8ff" points="235.97,-210.74 229.05,-208.72 228.25,-201.55 235.17,-203.57 235.97,-210.74"/>
</a>
</g>
<text xml:space="preserve" text-anchor="start" x="260.53" y="-224.5" font-family="Helvetica,sans-Serif" font-size="10.00" fill="grey">#_buffer</text>
</g>
</g>
</svg>
