<?xml version="1.0" encoding="UTF-8" standalone="no"?>
<!DOCTYPE svg PUBLIC "-//W3C//DTD SVG 1.1//EN"
 "http://www.w3.org/Graphics/SVG/1.1/DTD/svg11.dtd">
<!-- Generated by graphviz version 12.0.0 (0)
 -->
<!-- Title: anch::ut::AssertException Pages: 1 -->
<svg width="141pt" height="180pt"
 viewBox="0.00 0.00 141.00 180.00" xmlns="http://www.w3.org/2000/svg" xmlns:xlink="http://www.w3.org/1999/xlink">
<g id="graph0" class="graph" transform="scale(1 1) rotate(0) translate(4 176)">
<title>anch::ut::AssertException</title>
<!-- Node1 -->
<g id="Node000001" class="node">
<title>Node1</title>
<g id="a_Node000001"><a xlink:title="Unit test assertion error.">
<polygon fill="#999999" stroke="none" points="133,-84 0,-84 0,0 133,0 133,-84"/>
<text text-anchor="start" x="4.62" y="-70.5" font-family="Helvetica,sans-Serif" font-size="10.00">anch::ut::AssertException</text>
<text text-anchor="start" x="65" y="-54.5" font-family="Helvetica,sans-Serif" font-size="10.00"> </text>
<text text-anchor="start" x="8.38" y="-38.5" font-family="Helvetica,sans-Serif" font-size="10.00">+</text>
<text text-anchor="start" x="25" y="-38.5" font-family="Helvetica,sans-Serif" font-size="10.00">AssertException()</text>
<text text-anchor="start" x="8.38" y="-22.5" font-family="Helvetica,sans-Serif" font-size="10.00">+</text>
<text text-anchor="start" x="25" y="-22.5" font-family="Helvetica,sans-Serif" font-size="10.00">~AssertException()</text>
<text text-anchor="start" x="8.38" y="-6.5" font-family="Helvetica,sans-Serif" font-size="10.00">+</text>
<text text-anchor="start" x="25" y="-6.5" font-family="Helvetica,sans-Serif" font-size="10.00">what()</text>
<polygon fill="#666666" stroke="#666666" points="0,-66 0,-66 133,-66 133,-66 0,-66"/>
<polygon fill="#666666" stroke="#666666" points="0,-50 0,-50 133,-50 133,-50 0,-50"/>
<polygon fill="none" stroke="#666666" points="0,0 0,-84 133,-84 133,0 0,0"/>
</a>
</g>
</g>
<!-- Node2 -->
<g id="Node000002" class="node">
<title>Node2</title>
<g id="a_Node000002"><a xlink:title=" ">
<polygon fill="white" stroke="none" points="106,-172 27,-172 27,-120 106,-120 106,-172"/>
<text text-anchor="start" x="32" y="-158.5" font-family="Helvetica,sans-Serif" font-size="10.00">std::exception</text>
<text text-anchor="start" x="65" y="-142.5" font-family="Helvetica,sans-Serif" font-size="10.00"> </text>
<text text-anchor="start" x="65" y="-126.5" font-family="Helvetica,sans-Serif" font-size="10.00"> </text>
<polygon fill="#666666" stroke="#666666" points="27,-154 27,-154 106,-154 106,-154 27,-154"/>
<polygon fill="#666666" stroke="#666666" points="27,-138 27,-138 106,-138 106,-138 27,-138"/>
<polygon fill="none" stroke="#666666" points="27,-120 27,-172 106,-172 106,-120 27,-120"/>
</a>
</g>
</g>
<!-- Node2&#45;&gt;Node1 -->
<g id="edge1_Node000001_Node000002" class="edge">
<title>Node2&#45;&gt;Node1</title>
<g id="a_edge1_Node000001_Node000002"><a xlink:title=" ">
<path fill="none" stroke="#63b8ff" d="M66.5,-108.77C66.5,-100.75 66.5,-92.19 66.5,-83.99"/>
<polygon fill="none" stroke="#63b8ff" points="63,-108.53 66.5,-118.53 70,-108.53 63,-108.53"/>
</a>
</g>
</g>
</g>
</svg>
