<?xml version="1.0" encoding="UTF-8" standalone="no"?>
<!DOCTYPE svg PUBLIC "-//W3C//DTD SVG 1.1//EN"
 "http://www.w3.org/Graphics/SVG/1.1/DTD/svg11.dtd">
<!-- Generated by graphviz version 2.40.1 (20161225.0304)
 -->
<!-- Title: anch::sql::SQLite3ResultSet Pages: 1 -->
<!--zoomable 784 -->
<svg id="main" version="1.1" xmlns="http://www.w3.org/2000/svg" xmlns:xlink="http://www.w3.org/1999/xlink" xml:space="preserve" onload="init(evt)">
<style type="text/css"><![CDATA[
.edge:hover path { stroke: red; }
.edge:hover polygon { stroke: red; fill: red; }
]]></style>
<script type="text/javascript"><![CDATA[
var edges = document.getElementsByTagName('g');
if (edges && edges.length) {
  for (var i=0;i<edges.length;i++) {
    if (edges[i].id.substr(0,4)=='edge') {
      edges[i].setAttribute('class','edge');
    }
  }
}
]]></script>
        <defs>
                <circle id="rim" cx="0" cy="0" r="7"/>
                <circle id="rim2" cx="0" cy="0" r="3.5"/>
                <g id="zoomPlus">
                        <use xlink:href="#rim" fill="#404040">
                                <set attributeName="fill" to="#808080" begin="zoomplus.mouseover" end="zoomplus.mouseout"/>
                        </use>
                        <path d="M-4,0h8M0,-4v8" fill="none" stroke="white" stroke-width="1.5" pointer-events="none"/>
                </g>
                <g id="zoomMin">
                        <use xlink:href="#rim" fill="#404040">
                                <set attributeName="fill" to="#808080" begin="zoomminus.mouseover" end="zoomminus.mouseout"/>
                        </use>
                        <path d="M-4,0h8" fill="none" stroke="white" stroke-width="1.5" pointer-events="none"/>
                </g>
                <g id="dirArrow">
                        <path fill="none" stroke="white" stroke-width="1.5" d="M0,-3.0v7 M-2.5,-0.5L0,-3.0L2.5,-0.5"/>
                </g>
               <g id="resetDef">
                       <use xlink:href="#rim2" fill="#404040">
                               <set attributeName="fill" to="#808080" begin="reset.mouseover" end="reset.mouseout"/>
                       </use>
               </g>
        </defs>

<script type="text/javascript">
var viewWidth = 252;
var viewHeight = 784;
var sectionId = 'dynsection-1';
</script>
<script xlink:href="svgpan.js"/>
<svg id="graph" class="graph">
<g id="viewport">
<title>anch::sql::SQLite3ResultSet</title>
<!-- Node2 -->
<g id="node1" class="node">
<title>Node2</title>
<polygon fill="#bfbfbf" stroke="#000000" points="24.5,-.5 24.5,-134.5 179.5,-134.5 179.5,-.5 24.5,-.5"/>
<text text-anchor="middle" x="102" y="-122.5" font-family="Helvetica,sans-Serif" font-size="10.00" fill="#000000">anch::sql::SQLite3ResultSet</text>
<polyline fill="none" stroke="#000000" points="24.5,-115.5 179.5,-115.5 "/>
<text text-anchor="middle" x="102" y="-103.5" font-family="Helvetica,sans-Serif" font-size="10.00" fill="#000000"> </text>
<polyline fill="none" stroke="#000000" points="24.5,-96.5 179.5,-96.5 "/>
<text text-anchor="start" x="32.5" y="-84.5" font-family="Helvetica,sans-Serif" font-size="10.00" fill="#000000">+ SQLite3ResultSet()</text>
<text text-anchor="start" x="32.5" y="-73.5" font-family="Helvetica,sans-Serif" font-size="10.00" fill="#000000">+ ~SQLite3ResultSet()</text>
<text text-anchor="start" x="32.5" y="-62.5" font-family="Helvetica,sans-Serif" font-size="10.00" fill="#000000">+ next()</text>
<text text-anchor="start" x="32.5" y="-51.5" font-family="Helvetica,sans-Serif" font-size="10.00" fill="#000000"># getValue()</text>
<text text-anchor="start" x="32.5" y="-40.5" font-family="Helvetica,sans-Serif" font-size="10.00" fill="#000000"># getValue()</text>
<text text-anchor="start" x="32.5" y="-29.5" font-family="Helvetica,sans-Serif" font-size="10.00" fill="#000000"># getDateFormatter()</text>
<text text-anchor="start" x="32.5" y="-18.5" font-family="Helvetica,sans-Serif" font-size="10.00" fill="#000000"># getTimeFormatter()</text>
<text text-anchor="start" x="32.5" y="-7.5" font-family="Helvetica,sans-Serif" font-size="10.00" fill="#000000"># getTimestampFormatter()</text>
</g>
<!-- Node3 -->
<g id="node2" class="node">
<title>Node3</title>
<g id="a_node2"><a xlink:href="classanch_1_1sql_1_1_result_set.html" target="_top" xlink:title="SQL result representation. ">
<polygon fill="none" stroke="#000000" points="6.5,-172.5 6.5,-427.5 197.5,-427.5 197.5,-172.5 6.5,-172.5"/>
<text text-anchor="middle" x="102" y="-415.5" font-family="Helvetica,sans-Serif" font-size="10.00" fill="#000000">anch::sql::ResultSet</text>
<polyline fill="none" stroke="#000000" points="6.5,-408.5 197.5,-408.5 "/>
<text text-anchor="middle" x="102" y="-396.5" font-family="Helvetica,sans-Serif" font-size="10.00" fill="#000000"> </text>
<polyline fill="none" stroke="#000000" points="6.5,-389.5 197.5,-389.5 "/>
<text text-anchor="start" x="14.5" y="-377.5" font-family="Helvetica,sans-Serif" font-size="10.00" fill="#000000">+ ResultSet()</text>
<text text-anchor="start" x="14.5" y="-366.5" font-family="Helvetica,sans-Serif" font-size="10.00" fill="#000000">+ ~ResultSet()</text>
<text text-anchor="start" x="14.5" y="-355.5" font-family="Helvetica,sans-Serif" font-size="10.00" fill="#000000">+ get()</text>
<text text-anchor="start" x="14.5" y="-344.5" font-family="Helvetica,sans-Serif" font-size="10.00" fill="#000000">+ get()</text>
<text text-anchor="start" x="14.5" y="-333.5" font-family="Helvetica,sans-Serif" font-size="10.00" fill="#000000">+ get()</text>
<text text-anchor="start" x="14.5" y="-322.5" font-family="Helvetica,sans-Serif" font-size="10.00" fill="#000000">+ get()</text>
<text text-anchor="start" x="14.5" y="-311.5" font-family="Helvetica,sans-Serif" font-size="10.00" fill="#000000">+ next()</text>
<text text-anchor="start" x="14.5" y="-300.5" font-family="Helvetica,sans-Serif" font-size="10.00" fill="#000000">+ get()</text>
<text text-anchor="start" x="14.5" y="-289.5" font-family="Helvetica,sans-Serif" font-size="10.00" fill="#000000">+ get()</text>
<text text-anchor="start" x="14.5" y="-278.5" font-family="Helvetica,sans-Serif" font-size="10.00" fill="#000000">+ get()</text>
<text text-anchor="start" x="14.5" y="-267.5" font-family="Helvetica,sans-Serif" font-size="10.00" fill="#000000">and 9 more...</text>
<text text-anchor="start" x="14.5" y="-256.5" font-family="Helvetica,sans-Serif" font-size="10.00" fill="#000000"># getValue()</text>
<text text-anchor="start" x="14.5" y="-245.5" font-family="Helvetica,sans-Serif" font-size="10.00" fill="#000000"># getValue()</text>
<text text-anchor="start" x="14.5" y="-234.5" font-family="Helvetica,sans-Serif" font-size="10.00" fill="#000000"># getDateFormatter()</text>
<text text-anchor="start" x="14.5" y="-223.5" font-family="Helvetica,sans-Serif" font-size="10.00" fill="#000000"># getTimeFormatter()</text>
<text text-anchor="start" x="14.5" y="-212.5" font-family="Helvetica,sans-Serif" font-size="10.00" fill="#000000"># getTimestampFormatter()</text>
<text text-anchor="start" x="14.5" y="-201.5" font-family="Helvetica,sans-Serif" font-size="10.00" fill="#000000"># getDefaultDateFormatter()</text>
<text text-anchor="start" x="14.5" y="-190.5" font-family="Helvetica,sans-Serif" font-size="10.00" fill="#000000"># getDefaultTimeFormatter()</text>
<text text-anchor="start" x="14.5" y="-179.5" font-family="Helvetica,sans-Serif" font-size="10.00" fill="#000000"># getDefaultTimestampFormatter()</text>
</a>
</g>
</g>
<!-- Node3&#45;&gt;Node2 -->
<g id="edge1" class="edge">
<title>Node3&#45;&gt;Node2</title>
<path fill="none" stroke="#191970" d="M102,-161.9814C102,-152.6352 102,-143.4837 102,-134.7803"/>
<polygon fill="none" stroke="#191970" points="98.5001,-162.1874 102,-172.1874 105.5001,-162.1875 98.5001,-162.1874"/>
</g>
<!-- Node4 -->
<g id="node3" class="node">
<title>Node4</title>
<polygon fill="none" stroke="#bfbfbf" points="41,-475.5 41,-543.5 163,-543.5 163,-475.5 41,-475.5"/>
<text text-anchor="start" x="49" y="-531.5" font-family="Helvetica,sans-Serif" font-size="10.00" fill="#000000">std::map&lt; std::string,</text>
<text text-anchor="middle" x="102" y="-520.5" font-family="Helvetica,sans-Serif" font-size="10.00" fill="#000000"> std::size_t &gt;</text>
<polyline fill="none" stroke="#bfbfbf" points="41,-513.5 163,-513.5 "/>
<text text-anchor="start" x="49" y="-501.5" font-family="Helvetica,sans-Serif" font-size="10.00" fill="#000000">+ elements</text>
<polyline fill="none" stroke="#bfbfbf" points="41,-494.5 163,-494.5 "/>
<text text-anchor="middle" x="102" y="-482.5" font-family="Helvetica,sans-Serif" font-size="10.00" fill="#000000"> </text>
</g>
<!-- Node4&#45;&gt;Node3 -->
<g id="edge2" class="edge">
<title>Node4&#45;&gt;Node3</title>
<path fill="none" stroke="#404040" d="M102,-475.3739C102,-464.9877 102,-452.8676 102,-439.9382"/>
<polygon fill="none" stroke="#404040" points="102.0001,-439.8633 98,-433.8633 102,-427.8633 106,-433.8632 102.0001,-439.8633"/>
<text text-anchor="middle" x="123.5" y="-449" font-family="Helvetica,sans-Serif" font-size="10.00" fill="#000000"> #_fields</text>
</g>
<!-- Node5 -->
<g id="node4" class="node">
<title>Node5</title>
<g id="a_node4"><a xlink:title="STL class. ">
<polygon fill="none" stroke="#bfbfbf" points="19.5,-602.5 19.5,-659.5 84.5,-659.5 84.5,-602.5 19.5,-602.5"/>
<text text-anchor="middle" x="52" y="-647.5" font-family="Helvetica,sans-Serif" font-size="10.00" fill="#000000">std::string</text>
<polyline fill="none" stroke="#bfbfbf" points="19.5,-640.5 84.5,-640.5 "/>
<text text-anchor="middle" x="52" y="-628.5" font-family="Helvetica,sans-Serif" font-size="10.00" fill="#000000"> </text>
<polyline fill="none" stroke="#bfbfbf" points="19.5,-621.5 84.5,-621.5 "/>
<text text-anchor="middle" x="52" y="-609.5" font-family="Helvetica,sans-Serif" font-size="10.00" fill="#000000"> </text>
</a>
</g>
</g>
<!-- Node5&#45;&gt;Node4 -->
<g id="edge3" class="edge">
<title>Node5&#45;&gt;Node4</title>
<path fill="none" stroke="#404040" d="M63.8493,-602.2062C69.6588,-588.0891 76.7928,-570.7535 83.3136,-554.908"/>
<polygon fill="none" stroke="#404040" points="83.3589,-554.7978 81.9432,-547.727 87.9256,-543.7007 89.3413,-550.7715 83.3589,-554.7978"/>
<text text-anchor="middle" x="97.5" y="-570.5" font-family="Helvetica,sans-Serif" font-size="10.00" fill="#000000"> +keys</text>
</g>
<!-- Node6 -->
<g id="node5" class="node">
<title>Node6</title>
<g id="a_node5"><a xlink:title="STL class. ">
<polygon fill="none" stroke="#bfbfbf" points="0,-707.5 0,-775.5 104,-775.5 104,-707.5 0,-707.5"/>
<text text-anchor="start" x="8" y="-763.5" font-family="Helvetica,sans-Serif" font-size="10.00" fill="#000000">std::basic_string&lt;</text>
<text text-anchor="middle" x="52" y="-752.5" font-family="Helvetica,sans-Serif" font-size="10.00" fill="#000000"> char &gt;</text>
<polyline fill="none" stroke="#bfbfbf" points="0,-745.5 104,-745.5 "/>
<text text-anchor="middle" x="52" y="-733.5" font-family="Helvetica,sans-Serif" font-size="10.00" fill="#000000"> </text>
<polyline fill="none" stroke="#bfbfbf" points="0,-726.5 104,-726.5 "/>
<text text-anchor="middle" x="52" y="-714.5" font-family="Helvetica,sans-Serif" font-size="10.00" fill="#000000"> </text>
</a>
</g>
</g>
<!-- Node6&#45;&gt;Node5 -->
<g id="edge4" class="edge">
<title>Node6&#45;&gt;Node5</title>
<path fill="none" stroke="#191970" d="M52,-697.0661C52,-684.4172 52,-670.9812 52,-659.5519"/>
<polygon fill="none" stroke="#191970" points="48.5001,-697.4447 52,-707.4447 55.5001,-697.4447 48.5001,-697.4447"/>
</g>
<!-- Node7 -->
<g id="node6" class="node">
<title>Node7</title>
<g id="a_node6"><a xlink:title="STL class. ">
<polygon fill="none" stroke="#bfbfbf" points="102.5,-602.5 102.5,-659.5 203.5,-659.5 203.5,-602.5 102.5,-602.5"/>
<text text-anchor="middle" x="153" y="-647.5" font-family="Helvetica,sans-Serif" font-size="10.00" fill="#000000">std::map&lt; K, T &gt;</text>
<polyline fill="none" stroke="#bfbfbf" points="102.5,-640.5 203.5,-640.5 "/>
<text text-anchor="middle" x="153" y="-628.5" font-family="Helvetica,sans-Serif" font-size="10.00" fill="#000000"> </text>
<polyline fill="none" stroke="#bfbfbf" points="102.5,-621.5 203.5,-621.5 "/>
<text text-anchor="middle" x="153" y="-609.5" font-family="Helvetica,sans-Serif" font-size="10.00" fill="#000000"> </text>
</a>
</g>
</g>
<!-- Node7&#45;&gt;Node4 -->
<g id="edge5" class="edge">
<title>Node7&#45;&gt;Node4</title>
<path fill="none" stroke="#ffa500" d="M136.951,-592.7657C130.3516,-577.0436 122.7685,-558.9779 116.3559,-543.7007"/>
<polygon fill="#ffa500" stroke="#ffa500" points="133.816,-594.3402 140.9137,-602.2062 140.2705,-591.6309 133.816,-594.3402"/>
<text text-anchor="start" x="133" y="-576" font-family="Helvetica,sans-Serif" font-size="10.00" fill="#000000"> &lt; std::string, std</text>
<text text-anchor="middle" x="175.5" y="-565" font-family="Helvetica,sans-Serif" font-size="10.00" fill="#000000">::size_t &gt;</text>
</g>
<!-- Node8 -->
<g id="node7" class="node">
<title>Node8</title>
<polygon fill="none" stroke="#bfbfbf" points="130.5,-713 130.5,-770 159.5,-770 159.5,-713 130.5,-713"/>
<text text-anchor="middle" x="145" y="-758" font-family="Helvetica,sans-Serif" font-size="10.00" fill="#000000">K</text>
<polyline fill="none" stroke="#bfbfbf" points="130.5,-751 159.5,-751 "/>
<text text-anchor="middle" x="145" y="-739" font-family="Helvetica,sans-Serif" font-size="10.00" fill="#000000"> </text>
<polyline fill="none" stroke="#bfbfbf" points="130.5,-732 159.5,-732 "/>
<text text-anchor="middle" x="145" y="-720" font-family="Helvetica,sans-Serif" font-size="10.00" fill="#000000"> </text>
</g>
<!-- Node8&#45;&gt;Node7 -->
<g id="edge6" class="edge">
<title>Node8&#45;&gt;Node7</title>
<path fill="none" stroke="#404040" d="M144.6503,-712.6952C144.729,-701.8085 145.0721,-689.3185 146,-678 146.1668,-675.965 146.3668,-673.8842 146.592,-671.7855"/>
<polygon fill="none" stroke="#404040" points="146.6065,-671.6697 143.3853,-665.218 148.1018,-659.7632 151.323,-666.2149 146.6065,-671.6697"/>
<text text-anchor="middle" x="163.5" y="-681" font-family="Helvetica,sans-Serif" font-size="10.00" fill="#000000"> +keys</text>
</g>
<!-- Node9 -->
<g id="node8" class="node">
<title>Node9</title>
<polygon fill="none" stroke="#bfbfbf" points="188.5,-713 188.5,-770 217.5,-770 217.5,-713 188.5,-713"/>
<text text-anchor="middle" x="203" y="-758" font-family="Helvetica,sans-Serif" font-size="10.00" fill="#000000">T</text>
<polyline fill="none" stroke="#bfbfbf" points="188.5,-751 217.5,-751 "/>
<text text-anchor="middle" x="203" y="-739" font-family="Helvetica,sans-Serif" font-size="10.00" fill="#000000"> </text>
<polyline fill="none" stroke="#bfbfbf" points="188.5,-732 217.5,-732 "/>
<text text-anchor="middle" x="203" y="-720" font-family="Helvetica,sans-Serif" font-size="10.00" fill="#000000"> </text>
</g>
<!-- Node9&#45;&gt;Node7 -->
<g id="edge7" class="edge">
<title>Node9&#45;&gt;Node7</title>
<path fill="none" stroke="#404040" d="M194.4601,-712.878C190.7964,-701.786 186.167,-689.1076 181,-678 179.8001,-675.4205 178.4976,-672.8012 177.1331,-670.1867"/>
<polygon fill="none" stroke="#404040" points="177.0773,-670.0856 170.6755,-666.7662 171.2773,-659.5803 177.6791,-662.8996 177.0773,-670.0856"/>
<text text-anchor="middle" x="215" y="-681" font-family="Helvetica,sans-Serif" font-size="10.00" fill="#000000"> +elements</text>
</g>
</g>
</svg>
        <g id="navigator" transform="translate(0 0)" fill="#404254">
                <rect fill="#f2f5e9" fill-opacity="0.5" stroke="#606060" stroke-width=".5" x="0" y="0" width="60" height="60"/>
                <use id="zoomplus" xlink:href="#zoomPlus" x="17" y="9" onmousedown="handleZoom(evt,'in')"/>
                <use id="zoomminus" xlink:href="#zoomMin" x="42" y="9" onmousedown="handleZoom(evt,'out')"/>
                <use id="reset" xlink:href="#resetDef" x="30" y="36" onmousedown="handleReset()"/>
                <g id="arrowUp" xlink:href="#dirArrow" transform="translate(30 24)" onmousedown="handlePan(0,-1)">
                  <use xlink:href="#rim" fill="#404040">
                        <set attributeName="fill" to="#808080" begin="arrowUp.mouseover" end="arrowUp.mouseout"/>
                  </use>
                  <path fill="none" stroke="white" stroke-width="1.5" d="M0,-3.0v7 M-2.5,-0.5L0,-3.0L2.5,-0.5"/>
                </g>
                <g id="arrowRight" xlink:href="#dirArrow" transform="rotate(90) translate(36 -43)" onmousedown="handlePan(1,0)">
                  <use xlink:href="#rim" fill="#404040">
                        <set attributeName="fill" to="#808080" begin="arrowRight.mouseover" end="arrowRight.mouseout"/>
                  </use>
                  <path fill="none" stroke="white" stroke-width="1.5" d="M0,-3.0v7 M-2.5,-0.5L0,-3.0L2.5,-0.5"/>
                </g>
                <g id="arrowDown" xlink:href="#dirArrow" transform="rotate(180) translate(-30 -48)" onmousedown="handlePan(0,1)">
                  <use xlink:href="#rim" fill="#404040">
                        <set attributeName="fill" to="#808080" begin="arrowDown.mouseover" end="arrowDown.mouseout"/>
                  </use>
                  <path fill="none" stroke="white" stroke-width="1.5" d="M0,-3.0v7 M-2.5,-0.5L0,-3.0L2.5,-0.5"/>
                </g>
                <g id="arrowLeft" xlink:href="#dirArrow" transform="rotate(270) translate(-36 17)" onmousedown="handlePan(-1,0)">
                  <use xlink:href="#rim" fill="#404040">
                        <set attributeName="fill" to="#808080" begin="arrowLeft.mouseover" end="arrowLeft.mouseout"/>
                  </use>
                  <path fill="none" stroke="white" stroke-width="1.5" d="M0,-3.0v7 M-2.5,-0.5L0,-3.0L2.5,-0.5"/>
                </g>
        </g>
        <svg viewBox="0 0 15 15" width="100%" height="30px" preserveAspectRatio="xMaxYMin meet">
         <g id="arrow_out" transform="scale(0.3 0.3)">
          <a xlink:href="classanch_1_1sql_1_1_s_q_lite3_result_set__coll__graph_org.svg" target="_base">
           <rect id="button" ry="5" rx="5" y="6" x="6" height="38" width="38"
                fill="#f2f5e9" fill-opacity="0.5" stroke="#606060" stroke-width="1.0"/>
           <path id="arrow"
             d="M 11.500037,31.436501 C 11.940474,20.09759 22.043105,11.32322 32.158766,21.979434 L 37.068811,17.246167 C 37.068811,17.246167 37.088388,32 37.088388,32 L 22.160133,31.978069 C 22.160133,31.978069 26.997745,27.140456 26.997745,27.140456 C 18.528582,18.264221 13.291696,25.230495 11.500037,31.436501 z"
             style="fill:#404040;"/>
          </a>
         </g>
        </svg>
</svg>
