<?xml version="1.0" encoding="UTF-8" standalone="no"?>
<!DOCTYPE svg PUBLIC "-//W3C//DTD SVG 1.1//EN"
 "http://www.w3.org/Graphics/SVG/1.1/DTD/svg11.dtd">
<!-- Generated by graphviz version 13.1.2 (0)
 -->
<!-- Title: anch::sql::ResultSet Pages: 1 -->
<!--zoomable 520 -->

<svg id="main" version="1.1" xmlns="http://www.w3.org/2000/svg" xmlns:xlink="http://www.w3.org/1999/xlink" xml:space="preserve" onload="init(evt)">

<style type="text/css"><![CDATA[
.node, .edge {opacity: 0.7;}
.node.selected, .edge.selected {opacity: 1;}
.edge:hover path { stroke: red; }
.edge:hover polygon { stroke: red; fill: red; }
]]></style>

<defs>
  <circle id="rim" cx="0" cy="0" r="7"/>
  <circle id="rim2" cx="0" cy="0" r="3.5"/>
  <g id="zoomPlus">
    <use xlink:href="#rim" fill="#404040"><set attributeName="fill" to="#808080" begin="zoomplus.mouseover" end="zoomplus.mouseout"/></use>
    <path d="M-4,0h8M0,-4v8" fill="none" stroke="white" stroke-width="1.5" pointer-events="none"/>
  </g>
  <g id="zoomMin">
    <use xlink:href="#rim" fill="#404040"><set attributeName="fill" to="#808080" begin="zoomminus.mouseover" end="zoomminus.mouseout"/></use>
    <path d="M-4,0h8" fill="none" stroke="white" stroke-width="1.5" pointer-events="none"/>
  </g>
  <g id="arrowUp" transform="translate(30 24)">
    <use xlink:href="#rim"/>
    <path pointer-events="none" fill="none" stroke="white" stroke-width="1.5" d="M0,-3.0v7 M-2.5,-0.5L0,-3.0L2.5,-0.5"/>
  </g>
  <g id="arrowRight" transform="rotate(90) translate(36 -43)">
    <use xlink:href="#rim"/>
    <path pointer-events="none" fill="none" stroke="white" stroke-width="1.5" d="M0,-3.0v7 M-2.5,-0.5L0,-3.0L2.5,-0.5"/>
  </g>
  <g id="arrowDown" transform="rotate(180) translate(-30 -48)">
    <use xlink:href="#rim"/>
    <path pointer-events="none" fill="none" stroke="white" stroke-width="1.5" d="M0,-3.0v7 M-2.5,-0.5L0,-3.0L2.5,-0.5"/>
  </g>
  <g id="arrowLeft" transform="rotate(270) translate(-36 17)">
    <use xlink:href="#rim"/>
    <path pointer-events="none" fill="none" stroke="white" stroke-width="1.5" d="M0,-3.0v7 M-2.5,-0.5L0,-3.0L2.5,-0.5"/>
  </g>
  <g id="resetDef">
    <use xlink:href="#rim2" fill="#404040"><set attributeName="fill" to="#808080" begin="reset.mouseover" end="reset.mouseout"/></use>
  </g>
</defs>
<script type="application/ecmascript">
var viewWidth = 645;
var viewHeight = 520;
var sectionId = 'dynsection-0';
</script>
<script type="application/ecmascript" xlink:href="svg.min.js"/>
<svg id="graph" class="graph">
<g id="viewport">
<title>anch::sql::ResultSet</title>
<!-- Node1 -->
<g id="Node000001" class="node">
<title>Node1</title>
<g id="a_Node000001"><a xlink:title="SQL result representation.">
<polygon fill="#999999" stroke="none" points="411.62,-512 251.88,-512 251.88,-236 411.62,-236 411.62,-512"/>
<text xml:space="preserve" text-anchor="start" x="287.12" y="-498.5" font-family="Helvetica,sans-Serif" font-size="10.00">anch::sql::ResultSet</text>
<text xml:space="preserve" text-anchor="start" x="256.25" y="-482.5" font-family="Helvetica,sans-Serif" font-size="10.00">#</text>
<text xml:space="preserve" text-anchor="start" x="265.88" y="-482.5" font-family="Helvetica,sans-Serif" font-size="10.00">_fields</text>
<text xml:space="preserve" text-anchor="start" x="255.88" y="-466.5" font-family="Helvetica,sans-Serif" font-size="10.00">+</text>
<text xml:space="preserve" text-anchor="start" x="265.88" y="-466.5" font-family="Helvetica,sans-Serif" font-size="10.00">ResultSet()</text>
<text xml:space="preserve" text-anchor="start" x="255.88" y="-450.5" font-family="Helvetica,sans-Serif" font-size="10.00">+</text>
<text xml:space="preserve" text-anchor="start" x="265.88" y="-450.5" font-family="Helvetica,sans-Serif" font-size="10.00">~ResultSet()</text>
<text xml:space="preserve" text-anchor="start" x="255.88" y="-434.5" font-family="Helvetica,sans-Serif" font-size="10.00">+</text>
<text xml:space="preserve" text-anchor="start" x="265.88" y="-434.5" font-family="Helvetica,sans-Serif" font-size="10.00">get()</text>
<text xml:space="preserve" text-anchor="start" x="255.88" y="-418.5" font-family="Helvetica,sans-Serif" font-size="10.00">+</text>
<text xml:space="preserve" text-anchor="start" x="265.88" y="-418.5" font-family="Helvetica,sans-Serif" font-size="10.00">get()</text>
<text xml:space="preserve" text-anchor="start" x="255.88" y="-402.5" font-family="Helvetica,sans-Serif" font-size="10.00">+</text>
<text xml:space="preserve" text-anchor="start" x="265.88" y="-402.5" font-family="Helvetica,sans-Serif" font-size="10.00">get()</text>
<text xml:space="preserve" text-anchor="start" x="255.88" y="-386.5" font-family="Helvetica,sans-Serif" font-size="10.00">+</text>
<text xml:space="preserve" text-anchor="start" x="265.88" y="-386.5" font-family="Helvetica,sans-Serif" font-size="10.00">get()</text>
<text xml:space="preserve" text-anchor="start" x="255.88" y="-370.5" font-family="Helvetica,sans-Serif" font-size="10.00">+</text>
<text xml:space="preserve" text-anchor="start" x="265.88" y="-370.5" font-family="Helvetica,sans-Serif" font-size="10.00">next()</text>
<text xml:space="preserve" text-anchor="start" x="256.25" y="-354.5" font-family="Helvetica,sans-Serif" font-size="10.00">#</text>
<text xml:space="preserve" text-anchor="start" x="265.88" y="-354.5" font-family="Helvetica,sans-Serif" font-size="10.00">getValue()</text>
<text xml:space="preserve" text-anchor="start" x="256.25" y="-338.5" font-family="Helvetica,sans-Serif" font-size="10.00">#</text>
<text xml:space="preserve" text-anchor="start" x="265.88" y="-338.5" font-family="Helvetica,sans-Serif" font-size="10.00">getValue()</text>
<text xml:space="preserve" text-anchor="start" x="256.25" y="-322.5" font-family="Helvetica,sans-Serif" font-size="10.00">#</text>
<text xml:space="preserve" text-anchor="start" x="265.88" y="-322.5" font-family="Helvetica,sans-Serif" font-size="10.00">getDateFormatter()</text>
<text xml:space="preserve" text-anchor="start" x="256.25" y="-306.5" font-family="Helvetica,sans-Serif" font-size="10.00">#</text>
<text xml:space="preserve" text-anchor="start" x="265.88" y="-306.5" font-family="Helvetica,sans-Serif" font-size="10.00">getTimeFormatter()</text>
<text xml:space="preserve" text-anchor="start" x="256.25" y="-290.5" font-family="Helvetica,sans-Serif" font-size="10.00">#</text>
<text xml:space="preserve" text-anchor="start" x="265.88" y="-290.5" font-family="Helvetica,sans-Serif" font-size="10.00">getTimestampFormatter()</text>
<text xml:space="preserve" text-anchor="start" x="256.25" y="-274.5" font-family="Helvetica,sans-Serif" font-size="10.00">#</text>
<text xml:space="preserve" text-anchor="start" x="265.88" y="-274.5" font-family="Helvetica,sans-Serif" font-size="10.00">getDefaultDateFormatter()</text>
<text xml:space="preserve" text-anchor="start" x="256.25" y="-258.5" font-family="Helvetica,sans-Serif" font-size="10.00">#</text>
<text xml:space="preserve" text-anchor="start" x="265.88" y="-258.5" font-family="Helvetica,sans-Serif" font-size="10.00">getDefaultTimeFormatter()</text>
<text xml:space="preserve" text-anchor="start" x="256.25" y="-242.5" font-family="Helvetica,sans-Serif" font-size="10.00">#</text>
<text xml:space="preserve" text-anchor="start" x="265.88" y="-242.5" font-family="Helvetica,sans-Serif" font-size="10.00">getDefaultTimestampFormatter()</text>
<polygon fill="#666666" stroke="#666666" points="251.88,-494 251.88,-494 411.62,-494 411.62,-494 251.88,-494"/>
<polygon fill="#666666" stroke="#666666" points="251.88,-478 251.88,-478 263.88,-478 263.88,-478 251.88,-478"/>
<polygon fill="#666666" stroke="#666666" points="263.88,-478 263.88,-478 411.62,-478 411.62,-478 263.88,-478"/>
<polygon fill="none" stroke="#666666" points="251.88,-236 251.88,-512 411.62,-512 411.62,-236 251.88,-236"/>
</a>
</g>
</g>
<!-- Node2 -->
<g id="Node000002" class="node">
<title>Node2</title>
<g id="a_Node000002"><a xlink:href="classanch_1_1sql_1_1_my_s_q_l_prepared_statement_result_set.html" target="_top" xlink:title="MySQL result set implementation for prepared statement ... shitty API.">
<polygon fill="white" stroke="none" points="169.5,-200 0,-200 0,0 169.5,0 169.5,-200"/>
<text xml:space="preserve" text-anchor="start" x="25.88" y="-186.5" font-family="Helvetica,sans-Serif" font-size="10.00">anch::sql::MySQLPrepared</text>
<text xml:space="preserve" text-anchor="start" x="40.5" y="-174.5" font-family="Helvetica,sans-Serif" font-size="10.00">StatementResultSet</text>
<text xml:space="preserve" text-anchor="start" x="83.25" y="-158.5" font-family="Helvetica,sans-Serif" font-size="10.00"> </text>
<text xml:space="preserve" text-anchor="start" x="4" y="-142.5" font-family="Helvetica,sans-Serif" font-size="10.00">+</text>
<text xml:space="preserve" text-anchor="start" x="14" y="-142.5" font-family="Helvetica,sans-Serif" font-size="10.00">MySQLPreparedStatementResult</text>
<text xml:space="preserve" text-anchor="start" x="14" y="-130.5" font-family="Helvetica,sans-Serif" font-size="10.00">Set()</text>
<text xml:space="preserve" text-anchor="start" x="4" y="-114.5" font-family="Helvetica,sans-Serif" font-size="10.00">+</text>
<text xml:space="preserve" text-anchor="start" x="14" y="-114.5" font-family="Helvetica,sans-Serif" font-size="10.00">~MySQLPreparedStatementResult</text>
<text xml:space="preserve" text-anchor="start" x="14" y="-102.5" font-family="Helvetica,sans-Serif" font-size="10.00">Set()</text>
<text xml:space="preserve" text-anchor="start" x="4" y="-86.5" font-family="Helvetica,sans-Serif" font-size="10.00">+</text>
<text xml:space="preserve" text-anchor="start" x="14" y="-86.5" font-family="Helvetica,sans-Serif" font-size="10.00">next()</text>
<text xml:space="preserve" text-anchor="start" x="4.38" y="-70.5" font-family="Helvetica,sans-Serif" font-size="10.00">#</text>
<text xml:space="preserve" text-anchor="start" x="14" y="-70.5" font-family="Helvetica,sans-Serif" font-size="10.00">getValue()</text>
<text xml:space="preserve" text-anchor="start" x="4.38" y="-54.5" font-family="Helvetica,sans-Serif" font-size="10.00">#</text>
<text xml:space="preserve" text-anchor="start" x="14" y="-54.5" font-family="Helvetica,sans-Serif" font-size="10.00">getValue()</text>
<text xml:space="preserve" text-anchor="start" x="4.38" y="-38.5" font-family="Helvetica,sans-Serif" font-size="10.00">#</text>
<text xml:space="preserve" text-anchor="start" x="14" y="-38.5" font-family="Helvetica,sans-Serif" font-size="10.00">getDateFormatter()</text>
<text xml:space="preserve" text-anchor="start" x="4.38" y="-22.5" font-family="Helvetica,sans-Serif" font-size="10.00">#</text>
<text xml:space="preserve" text-anchor="start" x="14" y="-22.5" font-family="Helvetica,sans-Serif" font-size="10.00">getTimeFormatter()</text>
<text xml:space="preserve" text-anchor="start" x="4.38" y="-6.5" font-family="Helvetica,sans-Serif" font-size="10.00">#</text>
<text xml:space="preserve" text-anchor="start" x="14" y="-6.5" font-family="Helvetica,sans-Serif" font-size="10.00">getTimestampFormatter()</text>
<polygon fill="#666666" stroke="#666666" points="0,-170 0,-170 169.5,-170 169.5,-170 0,-170"/>
<polygon fill="#666666" stroke="#666666" points="0,-154 0,-154 169.5,-154 169.5,-154 0,-154"/>
<polygon fill="none" stroke="#666666" points="0,0 0,-200 169.5,-200 169.5,0 0,0"/>
</a>
</g>
</g>
<!-- Node1&#45;&gt;Node2 -->
<g id="edge1_Node000001_Node000002" class="edge">
<title>Node1&#45;&gt;Node2</title>
<g id="a_edge1_Node000001_Node000002"><a xlink:title=" ">
<path fill="none" stroke="#63b8ff" d="M244.41,-276.82C220.05,-250 193.64,-220.91 169.43,-194.26"/>
<polygon fill="none" stroke="#63b8ff" points="241.57,-278.89 250.88,-283.94 246.75,-274.19 241.57,-278.89"/>
</a>
</g>
</g>
<!-- Node3 -->
<g id="Node000003" class="node">
<title>Node3</title>
<g id="a_Node000003"><a xlink:href="classanch_1_1sql_1_1_my_s_q_l_result_set.html" target="_top" xlink:title="MySQL result set implementation.">
<polygon fill="white" stroke="none" points="317.88,-182 187.62,-182 187.62,-18 317.88,-18 317.88,-182"/>
<text xml:space="preserve" text-anchor="start" x="191.62" y="-168.5" font-family="Helvetica,sans-Serif" font-size="10.00">anch::sql::MySQLResultSet</text>
<text xml:space="preserve" text-anchor="start" x="251.25" y="-152.5" font-family="Helvetica,sans-Serif" font-size="10.00"> </text>
<text xml:space="preserve" text-anchor="start" x="192.12" y="-136.5" font-family="Helvetica,sans-Serif" font-size="10.00">+</text>
<text xml:space="preserve" text-anchor="start" x="202.62" y="-136.5" font-family="Helvetica,sans-Serif" font-size="10.00">MySQLResultSet()</text>
<text xml:space="preserve" text-anchor="start" x="192.12" y="-120.5" font-family="Helvetica,sans-Serif" font-size="10.00">+</text>
<text xml:space="preserve" text-anchor="start" x="202.62" y="-120.5" font-family="Helvetica,sans-Serif" font-size="10.00">~MySQLResultSet()</text>
<text xml:space="preserve" text-anchor="start" x="192.12" y="-104.5" font-family="Helvetica,sans-Serif" font-size="10.00">+</text>
<text xml:space="preserve" text-anchor="start" x="202.62" y="-104.5" font-family="Helvetica,sans-Serif" font-size="10.00">next()</text>
<text xml:space="preserve" text-anchor="start" x="192.5" y="-88.5" font-family="Helvetica,sans-Serif" font-size="10.00">#</text>
<text xml:space="preserve" text-anchor="start" x="202.62" y="-88.5" font-family="Helvetica,sans-Serif" font-size="10.00">getValue()</text>
<text xml:space="preserve" text-anchor="start" x="192.5" y="-72.5" font-family="Helvetica,sans-Serif" font-size="10.00">#</text>
<text xml:space="preserve" text-anchor="start" x="202.62" y="-72.5" font-family="Helvetica,sans-Serif" font-size="10.00">getValue()</text>
<text xml:space="preserve" text-anchor="start" x="192.5" y="-56.5" font-family="Helvetica,sans-Serif" font-size="10.00">#</text>
<text xml:space="preserve" text-anchor="start" x="202.62" y="-56.5" font-family="Helvetica,sans-Serif" font-size="10.00">getDateFormatter()</text>
<text xml:space="preserve" text-anchor="start" x="192.5" y="-40.5" font-family="Helvetica,sans-Serif" font-size="10.00">#</text>
<text xml:space="preserve" text-anchor="start" x="202.62" y="-40.5" font-family="Helvetica,sans-Serif" font-size="10.00">getTimeFormatter()</text>
<text xml:space="preserve" text-anchor="start" x="192.5" y="-24.5" font-family="Helvetica,sans-Serif" font-size="10.00">#</text>
<text xml:space="preserve" text-anchor="start" x="202.62" y="-24.5" font-family="Helvetica,sans-Serif" font-size="10.00">getTimestampFormatter()</text>
<polygon fill="#666666" stroke="#666666" points="187.62,-164 187.62,-164 317.88,-164 317.88,-164 187.62,-164"/>
<polygon fill="#666666" stroke="#666666" points="187.62,-148 187.62,-148 317.88,-148 317.88,-148 187.62,-148"/>
<polygon fill="none" stroke="#666666" points="187.62,-18 187.62,-182 317.88,-182 317.88,-18 187.62,-18"/>
</a>
</g>
</g>
<!-- Node1&#45;&gt;Node3 -->
<g id="edge2_Node000001_Node000003" class="edge">
<title>Node1&#45;&gt;Node3</title>
<g id="a_edge2_Node000001_Node000003"><a xlink:title=" ">
<path fill="none" stroke="#63b8ff" d="M288.85,-225.29C284.5,-210.33 280.21,-195.56 276.19,-181.71"/>
<polygon fill="none" stroke="#63b8ff" points="285.45,-226.12 291.6,-234.75 292.17,-224.17 285.45,-226.12"/>
</a>
</g>
</g>
<!-- Node4 -->
<g id="Node000004" class="node">
<title>Node4</title>
<g id="a_Node000004"><a xlink:href="classanch_1_1sql_1_1_postgre_s_q_l_result_set.html" target="_top" xlink:title="PostgreSQL result set implementation.">
<polygon fill="white" stroke="none" points="486,-182 335.5,-182 335.5,-18 486,-18 486,-182"/>
<text xml:space="preserve" text-anchor="start" x="339.5" y="-168.5" font-family="Helvetica,sans-Serif" font-size="10.00">anch::sql::PostgreSQLResultSet</text>
<text xml:space="preserve" text-anchor="start" x="409.25" y="-152.5" font-family="Helvetica,sans-Serif" font-size="10.00"> </text>
<text xml:space="preserve" text-anchor="start" x="345.06" y="-136.5" font-family="Helvetica,sans-Serif" font-size="10.00">+</text>
<text xml:space="preserve" text-anchor="start" x="360.62" y="-136.5" font-family="Helvetica,sans-Serif" font-size="10.00">PostgreSQLResultSet()</text>
<text xml:space="preserve" text-anchor="start" x="345.06" y="-120.5" font-family="Helvetica,sans-Serif" font-size="10.00">+</text>
<text xml:space="preserve" text-anchor="start" x="360.62" y="-120.5" font-family="Helvetica,sans-Serif" font-size="10.00">~PostgreSQLResultSet()</text>
<text xml:space="preserve" text-anchor="start" x="345.06" y="-104.5" font-family="Helvetica,sans-Serif" font-size="10.00">+</text>
<text xml:space="preserve" text-anchor="start" x="360.62" y="-104.5" font-family="Helvetica,sans-Serif" font-size="10.00">next()</text>
<text xml:space="preserve" text-anchor="start" x="345.44" y="-88.5" font-family="Helvetica,sans-Serif" font-size="10.00">#</text>
<text xml:space="preserve" text-anchor="start" x="360.62" y="-88.5" font-family="Helvetica,sans-Serif" font-size="10.00">getValue()</text>
<text xml:space="preserve" text-anchor="start" x="345.44" y="-72.5" font-family="Helvetica,sans-Serif" font-size="10.00">#</text>
<text xml:space="preserve" text-anchor="start" x="360.62" y="-72.5" font-family="Helvetica,sans-Serif" font-size="10.00">getValue()</text>
<text xml:space="preserve" text-anchor="start" x="345.44" y="-56.5" font-family="Helvetica,sans-Serif" font-size="10.00">#</text>
<text xml:space="preserve" text-anchor="start" x="360.62" y="-56.5" font-family="Helvetica,sans-Serif" font-size="10.00">getDateFormatter()</text>
<text xml:space="preserve" text-anchor="start" x="345.44" y="-40.5" font-family="Helvetica,sans-Serif" font-size="10.00">#</text>
<text xml:space="preserve" text-anchor="start" x="360.62" y="-40.5" font-family="Helvetica,sans-Serif" font-size="10.00">getTimeFormatter()</text>
<text xml:space="preserve" text-anchor="start" x="345.44" y="-24.5" font-family="Helvetica,sans-Serif" font-size="10.00">#</text>
<text xml:space="preserve" text-anchor="start" x="360.62" y="-24.5" font-family="Helvetica,sans-Serif" font-size="10.00">getTimestampFormatter()</text>
<polygon fill="#666666" stroke="#666666" points="335.5,-164 335.5,-164 486,-164 486,-164 335.5,-164"/>
<polygon fill="#666666" stroke="#666666" points="335.5,-148 335.5,-148 486,-148 486,-148 335.5,-148"/>
<polygon fill="none" stroke="#666666" points="335.5,-18 335.5,-182 486,-182 486,-18 335.5,-18"/>
</a>
</g>
</g>
<!-- Node1&#45;&gt;Node4 -->
<g id="edge3_Node000001_Node000004" class="edge">
<title>Node1&#45;&gt;Node4</title>
<g id="a_edge3_Node000001_Node000004"><a xlink:title=" ">
<path fill="none" stroke="#63b8ff" d="M374.65,-225.29C379,-210.33 383.29,-195.56 387.31,-181.71"/>
<polygon fill="none" stroke="#63b8ff" points="371.33,-224.17 371.9,-234.75 378.05,-226.12 371.33,-224.17"/>
</a>
</g>
</g>
<!-- Node5 -->
<g id="Node000005" class="node">
<title>Node5</title>
<g id="a_Node000005"><a xlink:href="classanch_1_1sql_1_1_s_q_lite3_result_set.html" target="_top" xlink:title="SQLite3 result set implementation.">
<polygon fill="white" stroke="none" points="637,-182 504.5,-182 504.5,-18 637,-18 637,-182"/>
<text xml:space="preserve" text-anchor="start" x="508.5" y="-168.5" font-family="Helvetica,sans-Serif" font-size="10.00">anch::sql::SQLite3ResultSet</text>
<text xml:space="preserve" text-anchor="start" x="569.25" y="-152.5" font-family="Helvetica,sans-Serif" font-size="10.00"> </text>
<text xml:space="preserve" text-anchor="start" x="509.56" y="-136.5" font-family="Helvetica,sans-Serif" font-size="10.00">+</text>
<text xml:space="preserve" text-anchor="start" x="520.62" y="-136.5" font-family="Helvetica,sans-Serif" font-size="10.00">SQLite3ResultSet()</text>
<text xml:space="preserve" text-anchor="start" x="509.56" y="-120.5" font-family="Helvetica,sans-Serif" font-size="10.00">+</text>
<text xml:space="preserve" text-anchor="start" x="520.62" y="-120.5" font-family="Helvetica,sans-Serif" font-size="10.00">~SQLite3ResultSet()</text>
<text xml:space="preserve" text-anchor="start" x="509.56" y="-104.5" font-family="Helvetica,sans-Serif" font-size="10.00">+</text>
<text xml:space="preserve" text-anchor="start" x="520.62" y="-104.5" font-family="Helvetica,sans-Serif" font-size="10.00">next()</text>
<text xml:space="preserve" text-anchor="start" x="509.94" y="-88.5" font-family="Helvetica,sans-Serif" font-size="10.00">#</text>
<text xml:space="preserve" text-anchor="start" x="520.62" y="-88.5" font-family="Helvetica,sans-Serif" font-size="10.00">getValue()</text>
<text xml:space="preserve" text-anchor="start" x="509.94" y="-72.5" font-family="Helvetica,sans-Serif" font-size="10.00">#</text>
<text xml:space="preserve" text-anchor="start" x="520.62" y="-72.5" font-family="Helvetica,sans-Serif" font-size="10.00">getValue()</text>
<text xml:space="preserve" text-anchor="start" x="509.94" y="-56.5" font-family="Helvetica,sans-Serif" font-size="10.00">#</text>
<text xml:space="preserve" text-anchor="start" x="520.62" y="-56.5" font-family="Helvetica,sans-Serif" font-size="10.00">getDateFormatter()</text>
<text xml:space="preserve" text-anchor="start" x="509.94" y="-40.5" font-family="Helvetica,sans-Serif" font-size="10.00">#</text>
<text xml:space="preserve" text-anchor="start" x="520.62" y="-40.5" font-family="Helvetica,sans-Serif" font-size="10.00">getTimeFormatter()</text>
<text xml:space="preserve" text-anchor="start" x="509.94" y="-24.5" font-family="Helvetica,sans-Serif" font-size="10.00">#</text>
<text xml:space="preserve" text-anchor="start" x="520.62" y="-24.5" font-family="Helvetica,sans-Serif" font-size="10.00">getTimestampFormatter()</text>
<polygon fill="#666666" stroke="#666666" points="504.5,-164 504.5,-164 637,-164 637,-164 504.5,-164"/>
<polygon fill="#666666" stroke="#666666" points="504.5,-148 504.5,-148 637,-148 637,-148 504.5,-148"/>
<polygon fill="none" stroke="#666666" points="504.5,-18 504.5,-182 637,-182 637,-18 504.5,-18"/>
</a>
</g>
</g>
<!-- Node1&#45;&gt;Node5 -->
<g id="edge4_Node000001_Node000005" class="edge">
<title>Node1&#45;&gt;Node5</title>
<g id="a_edge4_Node000001_Node000005"><a xlink:title=" ">
<path fill="none" stroke="#63b8ff" d="M419.11,-283.73C444.1,-257.27 470.99,-227.91 494.75,-200 499.74,-194.14 504.8,-188.01 509.83,-181.78"/>
<polygon fill="none" stroke="#63b8ff" points="416.8,-281.07 412.46,-290.74 421.88,-285.89 416.8,-281.07"/>
</a>
</g>
</g>
</g>
</svg>

<g id="navigator" transform="translate(0 0)" fill="#404254">
  <rect fill="#f2f5e9" fill-opacity="0.5" stroke="#606060" stroke-width=".5" x="0" y="0" width="60" height="60"/>
  <use id="zoomplus" xlink:href="#zoomPlus" x="17" y="9" onmousedown="handleZoom(evt,'in')"/>
  <use id="zoomminus" xlink:href="#zoomMin" x="42" y="9" onmousedown="handleZoom(evt,'out')"/>
  <use id="reset" xlink:href="#resetDef" x="30" y="36" onmousedown="handleReset()"/>
   <use id="arrowup" xlink:href="#arrowUp" x="0" y="0" onmousedown="handlePan(0,-1)"/>
  <use id="arrowright" xlink:href="#arrowRight" x="0" y="0" onmousedown="handlePan(1,0)"/>
  <use id="arrowdown" xlink:href="#arrowDown" x="0" y="0" onmousedown="handlePan(0,1)"/>
  <use id="arrowleft" xlink:href="#arrowLeft" x="0" y="0" onmousedown="handlePan(-1,0)"/>
</g>
<svg viewBox="0 0 15 15" width="100%" height="30px" preserveAspectRatio="xMaxYMin meet">
 <g id="arrow_out" transform="scale(0.3 0.3)">
  <a xlink:href="classanch_1_1sql_1_1_result_set__inherit__graph_org.svg" target="_base">
   <rect id="button" ry="5" rx="5" y="6" x="6" height="38" width="38"
        fill="#f2f5e9" fill-opacity="0.5" stroke="#606060" stroke-width="1.0"/>
   <path id="arrow"
     d="M 11.500037,31.436501 C 11.940474,20.09759 22.043105,11.32322 32.158766,21.979434 L 37.068811,17.246167 C 37.068811,17.246167 37.088388,32 37.088388,32 L 22.160133,31.978069 C 22.160133,31.978069 26.997745,27.140456 26.997745,27.140456 C 18.528582,18.264221 13.291696,25.230495 11.500037,31.436501 z"
     style="fill:#404040;"/>
  </a>
 </g>
</svg>

<style type='text/css'>
<![CDATA[
[data-mouse-over-selected='false'] { opacity: 0.7; }
[data-mouse-over-selected='true']  { opacity: 1.0; }
]]>
</style>
<script type="application/ecmascript"><![CDATA[
document.addEventListener('DOMContentLoaded', (event) => {
  highlightEdges();
  highlightAdjacentNodes();
});
]]></script>
</svg>
