<?xml version="1.0" encoding="UTF-8" standalone="no"?>
<!DOCTYPE svg PUBLIC "-//W3C//DTD SVG 1.1//EN"
 "http://www.w3.org/Graphics/SVG/1.1/DTD/svg11.dtd">
<!-- Generated by graphviz version 2.49.3 (0)
 -->
<!-- Title: anch::crypto::BlockCipherModeOfOperation&lt; Derived, Cipher &gt; Pages: 1 -->
<!--zoomable 530 -->
<svg id="main" version="1.1" xmlns="http://www.w3.org/2000/svg" xmlns:xlink="http://www.w3.org/1999/xlink" xml:space="preserve" onload="init(evt)">
<style type="text/css"><![CDATA[
.edge:hover path { stroke: red; }
.edge:hover polygon { stroke: red; fill: red; }
]]></style>
<script type="text/javascript"><![CDATA[
var edges = document.getElementsByTagName('g');
if (edges && edges.length) {
  for (var i=0;i<edges.length;i++) {
    if (edges[i].id.substr(0,4)=='edge') {
      edges[i].setAttribute('class','edge');
    }
  }
}
]]></script>
        <defs>
                <circle id="rim" cx="0" cy="0" r="7"/>
                <circle id="rim2" cx="0" cy="0" r="3.5"/>
                <g id="zoomPlus">
                        <use xlink:href="#rim" fill="#404040">
                                <set attributeName="fill" to="#808080" begin="zoomplus.mouseover" end="zoomplus.mouseout"/>
                        </use>
                        <path d="M-4,0h8M0,-4v8" fill="none" stroke="white" stroke-width="1.5" pointer-events="none"/>
                </g>
                <g id="zoomMin">
                        <use xlink:href="#rim" fill="#404040">
                                <set attributeName="fill" to="#808080" begin="zoomminus.mouseover" end="zoomminus.mouseout"/>
                        </use>
                        <path d="M-4,0h8" fill="none" stroke="white" stroke-width="1.5" pointer-events="none"/>
                </g>
                <g id="dirArrow">
                        <path fill="none" stroke="white" stroke-width="1.5" d="M0,-3.0v7 M-2.5,-0.5L0,-3.0L2.5,-0.5"/>
                </g>
               <g id="resetDef">
                       <use xlink:href="#rim2" fill="#404040">
                               <set attributeName="fill" to="#808080" begin="reset.mouseover" end="reset.mouseout"/>
                       </use>
               </g>
        </defs>

<script type="text/javascript">
var viewWidth = 1226;
var viewHeight = 530;
var sectionId = 'dynsection-0';
</script>
<script xlink:href="svgpan.js"/>
<svg id="graph" class="graph">
<g id="viewport">
<title>anch::crypto::BlockCipherModeOfOperation&lt; Derived, Cipher &gt;</title>
<!-- Node1 -->
<g id="node1" class="node">
<title>Node1</title>
<g id="a_node1"><a xlink:title="Block cipher mode of operation interface.">
<polygon fill="#bfbfbf" stroke="black" points="503,-365.5 503,-521.5 691,-521.5 691,-365.5 503,-365.5"/>
<text text-anchor="start" x="511" y="-509.5" font-family="Helvetica,sans-Serif" font-size="10.00">anch::crypto::BlockCipher</text>
<text text-anchor="start" x="511" y="-498.5" font-family="Helvetica,sans-Serif" font-size="10.00">ModeOfOperation&lt; Derived,</text>
<text text-anchor="middle" x="597" y="-487.5" font-family="Helvetica,sans-Serif" font-size="10.00"> Cipher &gt;</text>
<polyline fill="none" stroke="black" points="503,-480.5 691,-480.5 "/>
<text text-anchor="middle" x="597" y="-468.5" font-family="Helvetica,sans-Serif" font-size="10.00"> </text>
<polyline fill="none" stroke="black" points="503,-461.5 691,-461.5 "/>
<text text-anchor="start" x="511" y="-449.5" font-family="Helvetica,sans-Serif" font-size="10.00">+ cipher()</text>
<text text-anchor="start" x="511" y="-438.5" font-family="Helvetica,sans-Serif" font-size="10.00">+ decipher()</text>
<text text-anchor="start" x="511" y="-427.5" font-family="Helvetica,sans-Serif" font-size="10.00">+ setNbThread()</text>
<text text-anchor="start" x="511" y="-416.5" font-family="Helvetica,sans-Serif" font-size="10.00"># BlockCipherModeOfOperation()</text>
<text text-anchor="start" x="511" y="-405.5" font-family="Helvetica,sans-Serif" font-size="10.00"># ~BlockCipherModeOfOperation()</text>
<text text-anchor="start" x="511" y="-394.5" font-family="Helvetica,sans-Serif" font-size="10.00"># cipherBlock()</text>
<text text-anchor="start" x="511" y="-383.5" font-family="Helvetica,sans-Serif" font-size="10.00"># decipherBlock()</text>
<text text-anchor="start" x="511" y="-372.5" font-family="Helvetica,sans-Serif" font-size="10.00"># reset()</text>
</a>
</g>
</g>
<!-- Node2 -->
<g id="node2" class="node">
<title>Node2</title>
<g id="a_node2"><a xlink:href="classanch_1_1crypto_1_1_block_cipher_mode_of_operation.html" target="_top" xlink:title=" ">
<polygon fill="none" stroke="black" points="0,-150.5 0,-306.5 188,-306.5 188,-150.5 0,-150.5"/>
<text text-anchor="start" x="8" y="-294.5" font-family="Helvetica,sans-Serif" font-size="10.00">anch::crypto::BlockCipher</text>
<text text-anchor="start" x="8" y="-283.5" font-family="Helvetica,sans-Serif" font-size="10.00">ModeOfOperation&lt; CBC&lt; Cipher,</text>
<text text-anchor="middle" x="94" y="-272.5" font-family="Helvetica,sans-Serif" font-size="10.00"> Padding &gt;, Cipher &gt;</text>
<polyline fill="none" stroke="black" points="0,-265.5 188,-265.5 "/>
<text text-anchor="middle" x="94" y="-253.5" font-family="Helvetica,sans-Serif" font-size="10.00"> </text>
<polyline fill="none" stroke="black" points="0,-246.5 188,-246.5 "/>
<text text-anchor="start" x="8" y="-234.5" font-family="Helvetica,sans-Serif" font-size="10.00">+ cipher()</text>
<text text-anchor="start" x="8" y="-223.5" font-family="Helvetica,sans-Serif" font-size="10.00">+ decipher()</text>
<text text-anchor="start" x="8" y="-212.5" font-family="Helvetica,sans-Serif" font-size="10.00">+ setNbThread()</text>
<text text-anchor="start" x="8" y="-201.5" font-family="Helvetica,sans-Serif" font-size="10.00"># BlockCipherModeOfOperation()</text>
<text text-anchor="start" x="8" y="-190.5" font-family="Helvetica,sans-Serif" font-size="10.00"># ~BlockCipherModeOfOperation()</text>
<text text-anchor="start" x="8" y="-179.5" font-family="Helvetica,sans-Serif" font-size="10.00"># cipherBlock()</text>
<text text-anchor="start" x="8" y="-168.5" font-family="Helvetica,sans-Serif" font-size="10.00"># decipherBlock()</text>
<text text-anchor="start" x="8" y="-157.5" font-family="Helvetica,sans-Serif" font-size="10.00"># reset()</text>
</a>
</g>
</g>
<!-- Node1&#45;&gt;Node2 -->
<g id="edge1" class="edge">
<title>Node1&#45;&gt;Node2</title>
<path fill="none" stroke="orange" d="M492.92,-425.52C420.7,-411.08 323.72,-386.31 245,-347 223.01,-336.02 201.11,-321.57 181.1,-306.57"/>
<polygon fill="orange" stroke="orange" points="492.45,-428.99 502.94,-427.49 493.8,-422.12 492.45,-428.99"/>
<text text-anchor="start" x="245" y="-339" font-family="Helvetica,sans-Serif" font-size="10.00"> &lt; CBC&lt; Cipher, Padding</text>
<text text-anchor="middle" x="306" y="-328" font-family="Helvetica,sans-Serif" font-size="10.00"> &gt;, Cipher &gt;</text>
</g>
<!-- Node4 -->
<g id="node4" class="node">
<title>Node4</title>
<g id="a_node4"><a xlink:href="classanch_1_1crypto_1_1_block_cipher_mode_of_operation.html" target="_top" xlink:title=" ">
<polygon fill="none" stroke="black" points="206,-150.5 206,-306.5 394,-306.5 394,-150.5 206,-150.5"/>
<text text-anchor="start" x="214" y="-294.5" font-family="Helvetica,sans-Serif" font-size="10.00">anch::crypto::BlockCipher</text>
<text text-anchor="start" x="214" y="-283.5" font-family="Helvetica,sans-Serif" font-size="10.00">ModeOfOperation&lt; CFB&lt; Cipher</text>
<text text-anchor="middle" x="300" y="-272.5" font-family="Helvetica,sans-Serif" font-size="10.00"> &gt;, Cipher &gt;</text>
<polyline fill="none" stroke="black" points="206,-265.5 394,-265.5 "/>
<text text-anchor="middle" x="300" y="-253.5" font-family="Helvetica,sans-Serif" font-size="10.00"> </text>
<polyline fill="none" stroke="black" points="206,-246.5 394,-246.5 "/>
<text text-anchor="start" x="214" y="-234.5" font-family="Helvetica,sans-Serif" font-size="10.00">+ cipher()</text>
<text text-anchor="start" x="214" y="-223.5" font-family="Helvetica,sans-Serif" font-size="10.00">+ decipher()</text>
<text text-anchor="start" x="214" y="-212.5" font-family="Helvetica,sans-Serif" font-size="10.00">+ setNbThread()</text>
<text text-anchor="start" x="214" y="-201.5" font-family="Helvetica,sans-Serif" font-size="10.00"># BlockCipherModeOfOperation()</text>
<text text-anchor="start" x="214" y="-190.5" font-family="Helvetica,sans-Serif" font-size="10.00"># ~BlockCipherModeOfOperation()</text>
<text text-anchor="start" x="214" y="-179.5" font-family="Helvetica,sans-Serif" font-size="10.00"># cipherBlock()</text>
<text text-anchor="start" x="214" y="-168.5" font-family="Helvetica,sans-Serif" font-size="10.00"># decipherBlock()</text>
<text text-anchor="start" x="214" y="-157.5" font-family="Helvetica,sans-Serif" font-size="10.00"># reset()</text>
</a>
</g>
</g>
<!-- Node1&#45;&gt;Node4 -->
<g id="edge3" class="edge">
<title>Node1&#45;&gt;Node4</title>
<path fill="none" stroke="orange" d="M493.35,-405.53C459.09,-390.46 422.07,-370.88 392,-347 377.49,-335.48 363.91,-321.23 351.88,-306.67"/>
<polygon fill="orange" stroke="orange" points="492.37,-408.91 502.93,-409.66 495.14,-402.49 492.37,-408.91"/>
<text text-anchor="middle" x="460.5" y="-333.5" font-family="Helvetica,sans-Serif" font-size="10.00"> &lt; CFB&lt; Cipher &gt;, Cipher &gt;</text>
</g>
<!-- Node6 -->
<g id="node6" class="node">
<title>Node6</title>
<g id="a_node6"><a xlink:href="classanch_1_1crypto_1_1_block_cipher_mode_of_operation.html" target="_top" xlink:title=" ">
<polygon fill="none" stroke="black" points="412,-150.5 412,-306.5 600,-306.5 600,-150.5 412,-150.5"/>
<text text-anchor="start" x="420" y="-294.5" font-family="Helvetica,sans-Serif" font-size="10.00">anch::crypto::BlockCipher</text>
<text text-anchor="start" x="420" y="-283.5" font-family="Helvetica,sans-Serif" font-size="10.00">ModeOfOperation&lt; CTR&lt; Cipher</text>
<text text-anchor="middle" x="506" y="-272.5" font-family="Helvetica,sans-Serif" font-size="10.00"> &gt;, Cipher &gt;</text>
<polyline fill="none" stroke="black" points="412,-265.5 600,-265.5 "/>
<text text-anchor="middle" x="506" y="-253.5" font-family="Helvetica,sans-Serif" font-size="10.00"> </text>
<polyline fill="none" stroke="black" points="412,-246.5 600,-246.5 "/>
<text text-anchor="start" x="420" y="-234.5" font-family="Helvetica,sans-Serif" font-size="10.00">+ cipher()</text>
<text text-anchor="start" x="420" y="-223.5" font-family="Helvetica,sans-Serif" font-size="10.00">+ decipher()</text>
<text text-anchor="start" x="420" y="-212.5" font-family="Helvetica,sans-Serif" font-size="10.00">+ setNbThread()</text>
<text text-anchor="start" x="420" y="-201.5" font-family="Helvetica,sans-Serif" font-size="10.00"># BlockCipherModeOfOperation()</text>
<text text-anchor="start" x="420" y="-190.5" font-family="Helvetica,sans-Serif" font-size="10.00"># ~BlockCipherModeOfOperation()</text>
<text text-anchor="start" x="420" y="-179.5" font-family="Helvetica,sans-Serif" font-size="10.00"># cipherBlock()</text>
<text text-anchor="start" x="420" y="-168.5" font-family="Helvetica,sans-Serif" font-size="10.00"># decipherBlock()</text>
<text text-anchor="start" x="420" y="-157.5" font-family="Helvetica,sans-Serif" font-size="10.00"># reset()</text>
</a>
</g>
</g>
<!-- Node1&#45;&gt;Node6 -->
<g id="edge5" class="edge">
<title>Node1&#45;&gt;Node6</title>
<path fill="none" stroke="orange" d="M545.18,-356.18C543.72,-353.11 542.32,-350.04 541,-347 535.44,-334.21 530.44,-320.28 526.07,-306.62"/>
<polygon fill="orange" stroke="orange" points="542.16,-357.97 549.71,-365.39 548.44,-354.88 542.16,-357.97"/>
<text text-anchor="middle" x="609.5" y="-333.5" font-family="Helvetica,sans-Serif" font-size="10.00"> &lt; CTR&lt; Cipher &gt;, Cipher &gt;</text>
</g>
<!-- Node8 -->
<g id="node8" class="node">
<title>Node8</title>
<g id="a_node8"><a xlink:href="classanch_1_1crypto_1_1_block_cipher_mode_of_operation.html" target="_top" xlink:title=" ">
<polygon fill="none" stroke="black" points="618,-150.5 618,-306.5 806,-306.5 806,-150.5 618,-150.5"/>
<text text-anchor="start" x="626" y="-294.5" font-family="Helvetica,sans-Serif" font-size="10.00">anch::crypto::BlockCipher</text>
<text text-anchor="start" x="626" y="-283.5" font-family="Helvetica,sans-Serif" font-size="10.00">ModeOfOperation&lt; ECB&lt; Cipher,</text>
<text text-anchor="middle" x="712" y="-272.5" font-family="Helvetica,sans-Serif" font-size="10.00"> Padding &gt;, Cipher &gt;</text>
<polyline fill="none" stroke="black" points="618,-265.5 806,-265.5 "/>
<text text-anchor="middle" x="712" y="-253.5" font-family="Helvetica,sans-Serif" font-size="10.00"> </text>
<polyline fill="none" stroke="black" points="618,-246.5 806,-246.5 "/>
<text text-anchor="start" x="626" y="-234.5" font-family="Helvetica,sans-Serif" font-size="10.00">+ cipher()</text>
<text text-anchor="start" x="626" y="-223.5" font-family="Helvetica,sans-Serif" font-size="10.00">+ decipher()</text>
<text text-anchor="start" x="626" y="-212.5" font-family="Helvetica,sans-Serif" font-size="10.00">+ setNbThread()</text>
<text text-anchor="start" x="626" y="-201.5" font-family="Helvetica,sans-Serif" font-size="10.00"># BlockCipherModeOfOperation()</text>
<text text-anchor="start" x="626" y="-190.5" font-family="Helvetica,sans-Serif" font-size="10.00"># ~BlockCipherModeOfOperation()</text>
<text text-anchor="start" x="626" y="-179.5" font-family="Helvetica,sans-Serif" font-size="10.00"># cipherBlock()</text>
<text text-anchor="start" x="626" y="-168.5" font-family="Helvetica,sans-Serif" font-size="10.00"># decipherBlock()</text>
<text text-anchor="start" x="626" y="-157.5" font-family="Helvetica,sans-Serif" font-size="10.00"># reset()</text>
</a>
</g>
</g>
<!-- Node1&#45;&gt;Node8 -->
<g id="edge7" class="edge">
<title>Node1&#45;&gt;Node8</title>
<path fill="none" stroke="orange" d="M672.31,-356.87C674.32,-353.6 676.23,-350.31 678,-347 684.73,-334.46 690.26,-320.44 694.77,-306.57"/>
<polygon fill="orange" stroke="orange" points="669.25,-355.16 666.78,-365.46 675.14,-358.96 669.25,-355.16"/>
<text text-anchor="start" x="688" y="-339" font-family="Helvetica,sans-Serif" font-size="10.00"> &lt; ECB&lt; Cipher, Padding</text>
<text text-anchor="middle" x="748.5" y="-328" font-family="Helvetica,sans-Serif" font-size="10.00"> &gt;, Cipher &gt;</text>
</g>
<!-- Node10 -->
<g id="node10" class="node">
<title>Node10</title>
<g id="a_node10"><a xlink:href="classanch_1_1crypto_1_1_block_cipher_mode_of_operation.html" target="_top" xlink:title=" ">
<polygon fill="none" stroke="black" points="824,-150.5 824,-306.5 1012,-306.5 1012,-150.5 824,-150.5"/>
<text text-anchor="start" x="832" y="-294.5" font-family="Helvetica,sans-Serif" font-size="10.00">anch::crypto::BlockCipher</text>
<text text-anchor="start" x="832" y="-283.5" font-family="Helvetica,sans-Serif" font-size="10.00">ModeOfOperation&lt; OFB&lt; Cipher</text>
<text text-anchor="middle" x="918" y="-272.5" font-family="Helvetica,sans-Serif" font-size="10.00"> &gt;, Cipher &gt;</text>
<polyline fill="none" stroke="black" points="824,-265.5 1012,-265.5 "/>
<text text-anchor="middle" x="918" y="-253.5" font-family="Helvetica,sans-Serif" font-size="10.00"> </text>
<polyline fill="none" stroke="black" points="824,-246.5 1012,-246.5 "/>
<text text-anchor="start" x="832" y="-234.5" font-family="Helvetica,sans-Serif" font-size="10.00">+ cipher()</text>
<text text-anchor="start" x="832" y="-223.5" font-family="Helvetica,sans-Serif" font-size="10.00">+ decipher()</text>
<text text-anchor="start" x="832" y="-212.5" font-family="Helvetica,sans-Serif" font-size="10.00">+ setNbThread()</text>
<text text-anchor="start" x="832" y="-201.5" font-family="Helvetica,sans-Serif" font-size="10.00"># BlockCipherModeOfOperation()</text>
<text text-anchor="start" x="832" y="-190.5" font-family="Helvetica,sans-Serif" font-size="10.00"># ~BlockCipherModeOfOperation()</text>
<text text-anchor="start" x="832" y="-179.5" font-family="Helvetica,sans-Serif" font-size="10.00"># cipherBlock()</text>
<text text-anchor="start" x="832" y="-168.5" font-family="Helvetica,sans-Serif" font-size="10.00"># decipherBlock()</text>
<text text-anchor="start" x="832" y="-157.5" font-family="Helvetica,sans-Serif" font-size="10.00"># reset()</text>
</a>
</g>
</g>
<!-- Node1&#45;&gt;Node10 -->
<g id="edge9" class="edge">
<title>Node1&#45;&gt;Node10</title>
<path fill="none" stroke="orange" d="M700.63,-407.15C737.94,-391.8 779.15,-371.63 813,-347 828.82,-335.49 843.99,-321.25 857.65,-306.69"/>
<polygon fill="orange" stroke="orange" points="699.19,-403.96 691.24,-410.95 701.82,-410.45 699.19,-403.96"/>
<text text-anchor="middle" x="906" y="-333.5" font-family="Helvetica,sans-Serif" font-size="10.00"> &lt; OFB&lt; Cipher &gt;, Cipher &gt;</text>
</g>
<!-- Node12 -->
<g id="node12" class="node">
<title>Node12</title>
<g id="a_node12"><a xlink:href="classanch_1_1crypto_1_1_block_cipher_mode_of_operation.html" target="_top" xlink:title=" ">
<polygon fill="none" stroke="black" points="1030,-150.5 1030,-306.5 1218,-306.5 1218,-150.5 1030,-150.5"/>
<text text-anchor="start" x="1038" y="-294.5" font-family="Helvetica,sans-Serif" font-size="10.00">anch::crypto::BlockCipher</text>
<text text-anchor="start" x="1038" y="-283.5" font-family="Helvetica,sans-Serif" font-size="10.00">ModeOfOperation&lt; PCBC&lt;</text>
<text text-anchor="middle" x="1124" y="-272.5" font-family="Helvetica,sans-Serif" font-size="10.00"> Cipher, Padding &gt;, Cipher &gt;</text>
<polyline fill="none" stroke="black" points="1030,-265.5 1218,-265.5 "/>
<text text-anchor="middle" x="1124" y="-253.5" font-family="Helvetica,sans-Serif" font-size="10.00"> </text>
<polyline fill="none" stroke="black" points="1030,-246.5 1218,-246.5 "/>
<text text-anchor="start" x="1038" y="-234.5" font-family="Helvetica,sans-Serif" font-size="10.00">+ cipher()</text>
<text text-anchor="start" x="1038" y="-223.5" font-family="Helvetica,sans-Serif" font-size="10.00">+ decipher()</text>
<text text-anchor="start" x="1038" y="-212.5" font-family="Helvetica,sans-Serif" font-size="10.00">+ setNbThread()</text>
<text text-anchor="start" x="1038" y="-201.5" font-family="Helvetica,sans-Serif" font-size="10.00"># BlockCipherModeOfOperation()</text>
<text text-anchor="start" x="1038" y="-190.5" font-family="Helvetica,sans-Serif" font-size="10.00"># ~BlockCipherModeOfOperation()</text>
<text text-anchor="start" x="1038" y="-179.5" font-family="Helvetica,sans-Serif" font-size="10.00"># cipherBlock()</text>
<text text-anchor="start" x="1038" y="-168.5" font-family="Helvetica,sans-Serif" font-size="10.00"># decipherBlock()</text>
<text text-anchor="start" x="1038" y="-157.5" font-family="Helvetica,sans-Serif" font-size="10.00"># reset()</text>
</a>
</g>
</g>
<!-- Node1&#45;&gt;Node12 -->
<g id="edge11" class="edge">
<title>Node1&#45;&gt;Node12</title>
<path fill="none" stroke="orange" d="M701.26,-428.99C780.57,-415.8 890.72,-391.07 979,-347 1000.6,-336.22 1021.9,-321.76 1041.26,-306.68"/>
<polygon fill="orange" stroke="orange" points="700.56,-425.56 691.26,-430.62 701.69,-432.47 700.56,-425.56"/>
<text text-anchor="start" x="1015" y="-339" font-family="Helvetica,sans-Serif" font-size="10.00"> &lt; PCBC&lt; Cipher, Padding</text>
<text text-anchor="middle" x="1079" y="-328" font-family="Helvetica,sans-Serif" font-size="10.00"> &gt;, Cipher &gt;</text>
</g>
<!-- Node3 -->
<g id="node3" class="node">
<title>Node3</title>
<g id="a_node3"><a xlink:href="classanch_1_1crypto_1_1_c_b_c.html" target="_top" xlink:title="Cipher&#45;block chaining implementation.">
<polygon fill="none" stroke="black" points="38.5,-0.5 38.5,-112.5 149.5,-112.5 149.5,-0.5 38.5,-0.5"/>
<text text-anchor="start" x="46.5" y="-100.5" font-family="Helvetica,sans-Serif" font-size="10.00">anch::crypto::CBC&lt;</text>
<text text-anchor="middle" x="94" y="-89.5" font-family="Helvetica,sans-Serif" font-size="10.00"> Cipher, Padding &gt;</text>
<polyline fill="none" stroke="black" points="38.5,-82.5 149.5,-82.5 "/>
<text text-anchor="middle" x="94" y="-70.5" font-family="Helvetica,sans-Serif" font-size="10.00"> </text>
<polyline fill="none" stroke="black" points="38.5,-63.5 149.5,-63.5 "/>
<text text-anchor="start" x="46.5" y="-51.5" font-family="Helvetica,sans-Serif" font-size="10.00">+ CBC()</text>
<text text-anchor="start" x="46.5" y="-40.5" font-family="Helvetica,sans-Serif" font-size="10.00">+ ~CBC()</text>
<text text-anchor="start" x="46.5" y="-29.5" font-family="Helvetica,sans-Serif" font-size="10.00"># cipherBlock()</text>
<text text-anchor="start" x="46.5" y="-18.5" font-family="Helvetica,sans-Serif" font-size="10.00"># decipherBlock()</text>
<text text-anchor="start" x="46.5" y="-7.5" font-family="Helvetica,sans-Serif" font-size="10.00"># reset()</text>
</a>
</g>
</g>
<!-- Node2&#45;&gt;Node3 -->
<g id="edge2" class="edge">
<title>Node2&#45;&gt;Node3</title>
<path fill="none" stroke="midnightblue" d="M94,-140.35C94,-131.02 94,-121.73 94,-112.93"/>
<polygon fill="none" stroke="midnightblue" points="90.5,-140.46 94,-150.46 97.5,-140.46 90.5,-140.46"/>
</g>
<!-- Node5 -->
<g id="node5" class="node">
<title>Node5</title>
<g id="a_node5"><a xlink:href="classanch_1_1crypto_1_1_c_f_b.html" target="_top" xlink:title="Cipher feedback implementation.">
<polygon fill="none" stroke="black" points="245,-0.5 245,-112.5 355,-112.5 355,-0.5 245,-0.5"/>
<text text-anchor="start" x="253" y="-100.5" font-family="Helvetica,sans-Serif" font-size="10.00">anch::crypto::CFB&lt;</text>
<text text-anchor="middle" x="300" y="-89.5" font-family="Helvetica,sans-Serif" font-size="10.00"> Cipher &gt;</text>
<polyline fill="none" stroke="black" points="245,-82.5 355,-82.5 "/>
<text text-anchor="middle" x="300" y="-70.5" font-family="Helvetica,sans-Serif" font-size="10.00"> </text>
<polyline fill="none" stroke="black" points="245,-63.5 355,-63.5 "/>
<text text-anchor="start" x="253" y="-51.5" font-family="Helvetica,sans-Serif" font-size="10.00">+ CFB()</text>
<text text-anchor="start" x="253" y="-40.5" font-family="Helvetica,sans-Serif" font-size="10.00">+ ~CFB()</text>
<text text-anchor="start" x="253" y="-29.5" font-family="Helvetica,sans-Serif" font-size="10.00"># cipherBlock()</text>
<text text-anchor="start" x="253" y="-18.5" font-family="Helvetica,sans-Serif" font-size="10.00"># decipherBlock()</text>
<text text-anchor="start" x="253" y="-7.5" font-family="Helvetica,sans-Serif" font-size="10.00"># reset()</text>
</a>
</g>
</g>
<!-- Node4&#45;&gt;Node5 -->
<g id="edge4" class="edge">
<title>Node4&#45;&gt;Node5</title>
<path fill="none" stroke="midnightblue" d="M300,-140.35C300,-131.02 300,-121.73 300,-112.93"/>
<polygon fill="none" stroke="midnightblue" points="296.5,-140.46 300,-150.46 303.5,-140.46 296.5,-140.46"/>
</g>
<!-- Node7 -->
<g id="node7" class="node">
<title>Node7</title>
<g id="a_node7"><a xlink:href="classanch_1_1crypto_1_1_c_t_r.html" target="_top" xlink:title="Counter implementation.">
<polygon fill="none" stroke="black" points="451,-0.5 451,-112.5 561,-112.5 561,-0.5 451,-0.5"/>
<text text-anchor="start" x="459" y="-100.5" font-family="Helvetica,sans-Serif" font-size="10.00">anch::crypto::CTR&lt;</text>
<text text-anchor="middle" x="506" y="-89.5" font-family="Helvetica,sans-Serif" font-size="10.00"> Cipher &gt;</text>
<polyline fill="none" stroke="black" points="451,-82.5 561,-82.5 "/>
<text text-anchor="middle" x="506" y="-70.5" font-family="Helvetica,sans-Serif" font-size="10.00"> </text>
<polyline fill="none" stroke="black" points="451,-63.5 561,-63.5 "/>
<text text-anchor="start" x="459" y="-51.5" font-family="Helvetica,sans-Serif" font-size="10.00">+ CTR()</text>
<text text-anchor="start" x="459" y="-40.5" font-family="Helvetica,sans-Serif" font-size="10.00">+ ~CTR()</text>
<text text-anchor="start" x="459" y="-29.5" font-family="Helvetica,sans-Serif" font-size="10.00"># cipherBlock()</text>
<text text-anchor="start" x="459" y="-18.5" font-family="Helvetica,sans-Serif" font-size="10.00"># decipherBlock()</text>
<text text-anchor="start" x="459" y="-7.5" font-family="Helvetica,sans-Serif" font-size="10.00"># reset()</text>
</a>
</g>
</g>
<!-- Node6&#45;&gt;Node7 -->
<g id="edge6" class="edge">
<title>Node6&#45;&gt;Node7</title>
<path fill="none" stroke="midnightblue" d="M506,-140.35C506,-131.02 506,-121.73 506,-112.93"/>
<polygon fill="none" stroke="midnightblue" points="502.5,-140.46 506,-150.46 509.5,-140.46 502.5,-140.46"/>
</g>
<!-- Node9 -->
<g id="node9" class="node">
<title>Node9</title>
<g id="a_node9"><a xlink:href="classanch_1_1crypto_1_1_e_c_b.html" target="_top" xlink:title="Electronic codebook implementation.">
<polygon fill="none" stroke="black" points="657,-0.5 657,-112.5 767,-112.5 767,-0.5 657,-0.5"/>
<text text-anchor="start" x="665" y="-100.5" font-family="Helvetica,sans-Serif" font-size="10.00">anch::crypto::ECB&lt;</text>
<text text-anchor="middle" x="712" y="-89.5" font-family="Helvetica,sans-Serif" font-size="10.00"> Cipher, Padding &gt;</text>
<polyline fill="none" stroke="black" points="657,-82.5 767,-82.5 "/>
<text text-anchor="middle" x="712" y="-70.5" font-family="Helvetica,sans-Serif" font-size="10.00"> </text>
<polyline fill="none" stroke="black" points="657,-63.5 767,-63.5 "/>
<text text-anchor="start" x="665" y="-51.5" font-family="Helvetica,sans-Serif" font-size="10.00">+ ECB()</text>
<text text-anchor="start" x="665" y="-40.5" font-family="Helvetica,sans-Serif" font-size="10.00">+ ~ECB()</text>
<text text-anchor="start" x="665" y="-29.5" font-family="Helvetica,sans-Serif" font-size="10.00"># cipherBlock()</text>
<text text-anchor="start" x="665" y="-18.5" font-family="Helvetica,sans-Serif" font-size="10.00"># decipherBlock()</text>
<text text-anchor="start" x="665" y="-7.5" font-family="Helvetica,sans-Serif" font-size="10.00"># reset()</text>
</a>
</g>
</g>
<!-- Node8&#45;&gt;Node9 -->
<g id="edge8" class="edge">
<title>Node8&#45;&gt;Node9</title>
<path fill="none" stroke="midnightblue" d="M712,-140.35C712,-131.02 712,-121.73 712,-112.93"/>
<polygon fill="none" stroke="midnightblue" points="708.5,-140.46 712,-150.46 715.5,-140.46 708.5,-140.46"/>
</g>
<!-- Node11 -->
<g id="node11" class="node">
<title>Node11</title>
<g id="a_node11"><a xlink:href="classanch_1_1crypto_1_1_o_f_b.html" target="_top" xlink:title="Output feedback implementation.">
<polygon fill="none" stroke="black" points="862.5,-0.5 862.5,-112.5 973.5,-112.5 973.5,-0.5 862.5,-0.5"/>
<text text-anchor="start" x="870.5" y="-100.5" font-family="Helvetica,sans-Serif" font-size="10.00">anch::crypto::OFB&lt;</text>
<text text-anchor="middle" x="918" y="-89.5" font-family="Helvetica,sans-Serif" font-size="10.00"> Cipher &gt;</text>
<polyline fill="none" stroke="black" points="862.5,-82.5 973.5,-82.5 "/>
<text text-anchor="middle" x="918" y="-70.5" font-family="Helvetica,sans-Serif" font-size="10.00"> </text>
<polyline fill="none" stroke="black" points="862.5,-63.5 973.5,-63.5 "/>
<text text-anchor="start" x="870.5" y="-51.5" font-family="Helvetica,sans-Serif" font-size="10.00">+ OFB()</text>
<text text-anchor="start" x="870.5" y="-40.5" font-family="Helvetica,sans-Serif" font-size="10.00">+ ~OFB()</text>
<text text-anchor="start" x="870.5" y="-29.5" font-family="Helvetica,sans-Serif" font-size="10.00"># cipherBlock()</text>
<text text-anchor="start" x="870.5" y="-18.5" font-family="Helvetica,sans-Serif" font-size="10.00"># decipherBlock()</text>
<text text-anchor="start" x="870.5" y="-7.5" font-family="Helvetica,sans-Serif" font-size="10.00"># reset()</text>
</a>
</g>
</g>
<!-- Node10&#45;&gt;Node11 -->
<g id="edge10" class="edge">
<title>Node10&#45;&gt;Node11</title>
<path fill="none" stroke="midnightblue" d="M918,-140.35C918,-131.02 918,-121.73 918,-112.93"/>
<polygon fill="none" stroke="midnightblue" points="914.5,-140.46 918,-150.46 921.5,-140.46 914.5,-140.46"/>
</g>
<!-- Node13 -->
<g id="node13" class="node">
<title>Node13</title>
<g id="a_node13"><a xlink:href="classanch_1_1crypto_1_1_p_c_b_c.html" target="_top" xlink:title="Propagating cipher&#45;block chaining implementation.">
<polygon fill="none" stroke="black" points="1066.5,-0.5 1066.5,-112.5 1181.5,-112.5 1181.5,-0.5 1066.5,-0.5"/>
<text text-anchor="start" x="1074.5" y="-100.5" font-family="Helvetica,sans-Serif" font-size="10.00">anch::crypto::PCBC</text>
<text text-anchor="middle" x="1124" y="-89.5" font-family="Helvetica,sans-Serif" font-size="10.00">&lt; Cipher, Padding &gt;</text>
<polyline fill="none" stroke="black" points="1066.5,-82.5 1181.5,-82.5 "/>
<text text-anchor="middle" x="1124" y="-70.5" font-family="Helvetica,sans-Serif" font-size="10.00"> </text>
<polyline fill="none" stroke="black" points="1066.5,-63.5 1181.5,-63.5 "/>
<text text-anchor="start" x="1074.5" y="-51.5" font-family="Helvetica,sans-Serif" font-size="10.00">+ PCBC()</text>
<text text-anchor="start" x="1074.5" y="-40.5" font-family="Helvetica,sans-Serif" font-size="10.00">+ ~PCBC()</text>
<text text-anchor="start" x="1074.5" y="-29.5" font-family="Helvetica,sans-Serif" font-size="10.00"># cipherBlock()</text>
<text text-anchor="start" x="1074.5" y="-18.5" font-family="Helvetica,sans-Serif" font-size="10.00"># decipherBlock()</text>
<text text-anchor="start" x="1074.5" y="-7.5" font-family="Helvetica,sans-Serif" font-size="10.00"># reset()</text>
</a>
</g>
</g>
<!-- Node12&#45;&gt;Node13 -->
<g id="edge12" class="edge">
<title>Node12&#45;&gt;Node13</title>
<path fill="none" stroke="midnightblue" d="M1124,-140.35C1124,-131.02 1124,-121.73 1124,-112.93"/>
<polygon fill="none" stroke="midnightblue" points="1120.5,-140.46 1124,-150.46 1127.5,-140.46 1120.5,-140.46"/>
</g>
</g>
</svg>
        <g id="navigator" transform="translate(0 0)" fill="#404254">
                <rect fill="#f2f5e9" fill-opacity="0.5" stroke="#606060" stroke-width=".5" x="0" y="0" width="60" height="60"/>
                <use id="zoomplus" xlink:href="#zoomPlus" x="17" y="9" onmousedown="handleZoom(evt,'in')"/>
                <use id="zoomminus" xlink:href="#zoomMin" x="42" y="9" onmousedown="handleZoom(evt,'out')"/>
                <use id="reset" xlink:href="#resetDef" x="30" y="36" onmousedown="handleReset()"/>
                <g id="arrowUp" xlink:href="#dirArrow" transform="translate(30 24)" onmousedown="handlePan(0,-1)">
                  <use xlink:href="#rim" fill="#404040">
                        <set attributeName="fill" to="#808080" begin="arrowUp.mouseover" end="arrowUp.mouseout"/>
                  </use>
                  <path fill="none" stroke="white" stroke-width="1.5" d="M0,-3.0v7 M-2.5,-0.5L0,-3.0L2.5,-0.5"/>
                </g>
                <g id="arrowRight" xlink:href="#dirArrow" transform="rotate(90) translate(36 -43)" onmousedown="handlePan(1,0)">
                  <use xlink:href="#rim" fill="#404040">
                        <set attributeName="fill" to="#808080" begin="arrowRight.mouseover" end="arrowRight.mouseout"/>
                  </use>
                  <path fill="none" stroke="white" stroke-width="1.5" d="M0,-3.0v7 M-2.5,-0.5L0,-3.0L2.5,-0.5"/>
                </g>
                <g id="arrowDown" xlink:href="#dirArrow" transform="rotate(180) translate(-30 -48)" onmousedown="handlePan(0,1)">
                  <use xlink:href="#rim" fill="#404040">
                        <set attributeName="fill" to="#808080" begin="arrowDown.mouseover" end="arrowDown.mouseout"/>
                  </use>
                  <path fill="none" stroke="white" stroke-width="1.5" d="M0,-3.0v7 M-2.5,-0.5L0,-3.0L2.5,-0.5"/>
                </g>
                <g id="arrowLeft" xlink:href="#dirArrow" transform="rotate(270) translate(-36 17)" onmousedown="handlePan(-1,0)">
                  <use xlink:href="#rim" fill="#404040">
                        <set attributeName="fill" to="#808080" begin="arrowLeft.mouseover" end="arrowLeft.mouseout"/>
                  </use>
                  <path fill="none" stroke="white" stroke-width="1.5" d="M0,-3.0v7 M-2.5,-0.5L0,-3.0L2.5,-0.5"/>
                </g>
        </g>
        <svg viewBox="0 0 15 15" width="100%" height="30px" preserveAspectRatio="xMaxYMin meet">
         <g id="arrow_out" transform="scale(0.3 0.3)">
          <a xlink:href="classanch_1_1crypto_1_1_block_cipher_mode_of_operation__inherit__graph_org.svg" target="_base">
           <rect id="button" ry="5" rx="5" y="6" x="6" height="38" width="38"
                fill="#f2f5e9" fill-opacity="0.5" stroke="#606060" stroke-width="1.0"/>
           <path id="arrow"
             d="M 11.500037,31.436501 C 11.940474,20.09759 22.043105,11.32322 32.158766,21.979434 L 37.068811,17.246167 C 37.068811,17.246167 37.088388,32 37.088388,32 L 22.160133,31.978069 C 22.160133,31.978069 26.997745,27.140456 26.997745,27.140456 C 18.528582,18.264221 13.291696,25.230495 11.500037,31.436501 z"
             style="fill:#404040;"/>
          </a>
         </g>
        </svg>
</svg>
