<?xml version="1.0" encoding="UTF-8" standalone="no"?>
<!DOCTYPE svg PUBLIC "-//W3C//DTD SVG 1.1//EN"
 "http://www.w3.org/Graphics/SVG/1.1/DTD/svg11.dtd">
<!-- Generated by graphviz version 7.0.4 (0)
 -->
<!-- Title: anch::logger::LowPriorityWriter Pages: 1 -->
<svg width="271pt" height="570pt"
 viewBox="0.00 0.00 270.50 570.00" xmlns="http://www.w3.org/2000/svg" xmlns:xlink="http://www.w3.org/1999/xlink">
<g id="graph0" class="graph" transform="scale(1 1) rotate(0) translate(4 566)">
<title>anch::logger::LowPriorityWriter</title>
<!-- Node1 -->
<g id="node1" class="node">
<title>Node1</title>
<g id="a_node1"><a xlink:title=" ">
<polygon fill="#999999" stroke="#666666" points="202.5,-96 59.5,-96 59.5,0 202.5,0 202.5,-96"/>
<text text-anchor="start" x="67.5" y="-84" font-family="Helvetica,sans-Serif" font-size="10.00">{anch::logger::LowPriority</text>
<text text-anchor="middle" x="131" y="-73" font-family="Helvetica,sans-Serif" font-size="10.00">Writer</text>
<text text-anchor="start" x="67.5" y="-62" font-family="Helvetica,sans-Serif" font-size="10.00">||+ LowPriorityWriter()</text>
<text text-anchor="start" x="67.5" y="-51" font-family="Helvetica,sans-Serif" font-size="10.00">+ LowPriorityWriter()</text>
<text text-anchor="start" x="67.5" y="-40" font-family="Helvetica,sans-Serif" font-size="10.00">+ ~LowPriorityWriter()</text>
<text text-anchor="start" x="67.5" y="-29" font-family="Helvetica,sans-Serif" font-size="10.00">+ write()</text>
<text text-anchor="start" x="67.5" y="-18" font-family="Helvetica,sans-Serif" font-size="10.00">+ startTreatment()</text>
<text text-anchor="middle" x="131" y="-7" font-family="Helvetica,sans-Serif" font-size="10.00">}</text>
</a>
</g>
</g>
<!-- Node2 -->
<g id="node2" class="node">
<title>Node2</title>
<g id="a_node2"><a xlink:href="classanch_1_1logger_1_1_writer.html" target="_top" xlink:title=" ">
<polygon fill="white" stroke="#666666" points="190.5,-229 71.5,-229 71.5,-133 190.5,-133 190.5,-229"/>
<text text-anchor="middle" x="131" y="-217" font-family="Helvetica,sans-Serif" font-size="10.00">{anch::logger::Writer</text>
<text text-anchor="start" x="79.5" y="-206" font-family="Helvetica,sans-Serif" font-size="10.00">||+ Writer()</text>
<text text-anchor="start" x="79.5" y="-195" font-family="Helvetica,sans-Serif" font-size="10.00">+ Writer()</text>
<text text-anchor="start" x="79.5" y="-184" font-family="Helvetica,sans-Serif" font-size="10.00">+ ~Writer()</text>
<text text-anchor="start" x="79.5" y="-173" font-family="Helvetica,sans-Serif" font-size="10.00">+ write()</text>
<text text-anchor="start" x="79.5" y="-162" font-family="Helvetica,sans-Serif" font-size="10.00"># rotate()</text>
<text text-anchor="start" x="79.5" y="-151" font-family="Helvetica,sans-Serif" font-size="10.00"># rotateFiles()</text>
<text text-anchor="middle" x="131" y="-140" font-family="Helvetica,sans-Serif" font-size="10.00">}</text>
</a>
</g>
</g>
<!-- Node2&#45;&gt;Node1 -->
<g id="edge1" class="edge">
<title>Node2&#45;&gt;Node1</title>
<path fill="none" stroke="#63b8ff" d="M131,-121.37C131,-112.96 131,-104.38 131,-96.22"/>
<polygon fill="none" stroke="#63b8ff" points="127.5,-121.19 131,-131.19 134.5,-121.19 127.5,-121.19"/>
</g>
<!-- Node3 -->
<g id="node3" class="node">
<title>Node3</title>
<g id="a_node3"><a xlink:title=" ">
<polygon fill="white" stroke="#666666" points="109,-328 25,-328 25,-298 109,-298 109,-328"/>
<text text-anchor="middle" x="67" y="-316" font-family="Helvetica,sans-Serif" font-size="10.00">{std::ostream</text>
<text text-anchor="middle" x="67" y="-305" font-family="Helvetica,sans-Serif" font-size="10.00">||}</text>
</a>
</g>
</g>
<!-- Node3&#45;&gt;Node2 -->
<g id="edge2" class="edge">
<title>Node3&#45;&gt;Node2</title>
<path fill="none" stroke="#404040" d="M74.09,-297.59C80.9,-283.76 91.65,-261.92 101.98,-240.94"/>
<polygon fill="none" stroke="#404040" points="101.95,-241 101.01,-233.85 107.25,-230.24 108.19,-237.39 101.95,-241"/>
<text text-anchor="middle" x="123.5" y="-250" font-family="Helvetica,sans-Serif" font-size="10.00"> #_output</text>
</g>
<!-- Node4 -->
<g id="node4" class="node">
<title>Node4</title>
<g id="a_node4"><a xlink:title=" ">
<polygon fill="white" stroke="#666666" points="124.5,-428 9.5,-428 9.5,-387 124.5,-387 124.5,-428"/>
<text text-anchor="start" x="17.5" y="-416" font-family="Helvetica,sans-Serif" font-size="10.00">{std::basic_ostream</text>
<text text-anchor="middle" x="67" y="-405" font-family="Helvetica,sans-Serif" font-size="10.00">&lt; Char &gt;</text>
<text text-anchor="middle" x="67" y="-394" font-family="Helvetica,sans-Serif" font-size="10.00">||}</text>
</a>
</g>
</g>
<!-- Node4&#45;&gt;Node3 -->
<g id="edge3" class="edge">
<title>Node4&#45;&gt;Node3</title>
<path fill="none" stroke="#63b8ff" d="M67,-375.41C67,-359.53 67,-340.97 67,-328.45"/>
<polygon fill="none" stroke="#63b8ff" points="63.5,-375.37 67,-385.37 70.5,-375.37 63.5,-375.37"/>
</g>
<!-- Node5 -->
<g id="node5" class="node">
<title>Node5</title>
<g id="a_node5"><a xlink:title=" ">
<polygon fill="white" stroke="#666666" points="134,-495 0,-495 0,-465 134,-465 134,-495"/>
<text text-anchor="middle" x="67" y="-483" font-family="Helvetica,sans-Serif" font-size="10.00">{std::basic_ios&lt; Char &gt;</text>
<text text-anchor="middle" x="67" y="-472" font-family="Helvetica,sans-Serif" font-size="10.00">||}</text>
</a>
</g>
</g>
<!-- Node5&#45;&gt;Node4 -->
<g id="edge4" class="edge">
<title>Node5&#45;&gt;Node4</title>
<path fill="none" stroke="#63b8ff" d="M67,-453.42C67,-445.16 67,-436.14 67,-428.36"/>
<polygon fill="none" stroke="#63b8ff" points="63.5,-453.22 67,-463.22 70.5,-453.22 63.5,-453.22"/>
</g>
<!-- Node6 -->
<g id="node6" class="node">
<title>Node6</title>
<g id="a_node6"><a xlink:title=" ">
<polygon fill="white" stroke="#666666" points="110,-562 24,-562 24,-532 110,-532 110,-562"/>
<text text-anchor="middle" x="67" y="-550" font-family="Helvetica,sans-Serif" font-size="10.00">{std::ios_base</text>
<text text-anchor="middle" x="67" y="-539" font-family="Helvetica,sans-Serif" font-size="10.00">||}</text>
</a>
</g>
</g>
<!-- Node6&#45;&gt;Node5 -->
<g id="edge5" class="edge">
<title>Node6&#45;&gt;Node5</title>
<path fill="none" stroke="#63b8ff" d="M67,-520.28C67,-511.81 67,-502.7 67,-495.39"/>
<polygon fill="none" stroke="#63b8ff" points="63.5,-520.06 67,-530.06 70.5,-520.06 63.5,-520.06"/>
</g>
<!-- Node7 -->
<g id="node7" class="node">
<title>Node7</title>
<g id="a_node7"><a xlink:href="classanch_1_1logger_1_1formatter_1_1_message_formatter.html" target="_top" xlink:title=" ">
<polygon fill="white" stroke="#666666" points="262.5,-350 127.5,-350 127.5,-276 262.5,-276 262.5,-350"/>
<text text-anchor="start" x="135.5" y="-338" font-family="Helvetica,sans-Serif" font-size="10.00">{anch::logger::formatter</text>
<text text-anchor="middle" x="195" y="-327" font-family="Helvetica,sans-Serif" font-size="10.00">::MessageFormatter</text>
<text text-anchor="start" x="135.5" y="-316" font-family="Helvetica,sans-Serif" font-size="10.00">||+ MessageFormatter()</text>
<text text-anchor="start" x="135.5" y="-305" font-family="Helvetica,sans-Serif" font-size="10.00">+ ~MessageFormatter()</text>
<text text-anchor="start" x="135.5" y="-294" font-family="Helvetica,sans-Serif" font-size="10.00">+ formatMessage()</text>
<text text-anchor="middle" x="195" y="-283" font-family="Helvetica,sans-Serif" font-size="10.00">}</text>
</a>
</g>
</g>
<!-- Node7&#45;&gt;Node2 -->
<g id="edge6" class="edge">
<title>Node7&#45;&gt;Node2</title>
<path fill="none" stroke="#404040" d="M177.17,-275.79C171.79,-264.86 165.74,-252.56 159.83,-240.57"/>
<polygon fill="none" stroke="#404040" points="159.94,-240.78 153.7,-237.17 154.64,-230.02 160.88,-233.63 159.94,-240.78"/>
<text text-anchor="middle" x="198" y="-250" font-family="Helvetica,sans-Serif" font-size="10.00"> #_formatter</text>
</g>
</g>
</svg>
