<?xml version="1.0" encoding="UTF-8" standalone="no"?>
<!DOCTYPE svg PUBLIC "-//W3C//DTD SVG 1.1//EN"
 "http://www.w3.org/Graphics/SVG/1.1/DTD/svg11.dtd">
<!-- Generated by graphviz version 12.0.0 (0)
 -->
<!-- Title: anch::sql::MySQLConnection Pages: 1 -->
<!--zoomable 1405 -->

<svg id="main" version="1.1" xmlns="http://www.w3.org/2000/svg" xmlns:xlink="http://www.w3.org/1999/xlink" xml:space="preserve" onload="init(evt)">
<style type="text/css"><![CDATA[
.node, .edge {opacity: 0.7;}
.node.selected, .edge.selected {opacity: 1;}
.edge:hover path { stroke: red; }
.edge:hover polygon { stroke: red; fill: red; }
]]></style>

<defs>
  <circle id="rim" cx="0" cy="0" r="7"/>
  <circle id="rim2" cx="0" cy="0" r="3.5"/>
  <g id="zoomPlus">
    <use xlink:href="#rim" fill="#404040"><set attributeName="fill" to="#808080" begin="zoomplus.mouseover" end="zoomplus.mouseout"/></use>
    <path d="M-4,0h8M0,-4v8" fill="none" stroke="white" stroke-width="1.5" pointer-events="none"/>
  </g>
  <g id="zoomMin">
    <use xlink:href="#rim" fill="#404040"><set attributeName="fill" to="#808080" begin="zoomminus.mouseover" end="zoomminus.mouseout"/></use>
    <path d="M-4,0h8" fill="none" stroke="white" stroke-width="1.5" pointer-events="none"/>
  </g>
  <g id="arrowUp" transform="translate(30 24)">
    <use xlink:href="#rim"/>
    <path pointer-events="none" fill="none" stroke="white" stroke-width="1.5" d="M0,-3.0v7 M-2.5,-0.5L0,-3.0L2.5,-0.5"/>
  </g>
  <g id="arrowRight" transform="rotate(90) translate(36 -43)">
    <use xlink:href="#rim"/>
    <path pointer-events="none" fill="none" stroke="white" stroke-width="1.5" d="M0,-3.0v7 M-2.5,-0.5L0,-3.0L2.5,-0.5"/>
  </g>
  <g id="arrowDown" transform="rotate(180) translate(-30 -48)">
    <use xlink:href="#rim"/>
    <path pointer-events="none" fill="none" stroke="white" stroke-width="1.5" d="M0,-3.0v7 M-2.5,-0.5L0,-3.0L2.5,-0.5"/>
  </g>
  <g id="arrowLeft" transform="rotate(270) translate(-36 17)">
    <use xlink:href="#rim"/>
    <path pointer-events="none" fill="none" stroke="white" stroke-width="1.5" d="M0,-3.0v7 M-2.5,-0.5L0,-3.0L2.5,-0.5"/>
  </g>
  <g id="resetDef">
    <use xlink:href="#rim2" fill="#404040"><set attributeName="fill" to="#808080" begin="reset.mouseover" end="reset.mouseout"/></use>
  </g>
</defs>
<script type="application/ecmascript">
var viewWidth = 289;
var viewHeight = 1405;
var sectionId = 'dynsection-1';
</script>
<script type="application/ecmascript" xlink:href="svg.min.js"/>
<svg id="graph" class="graph">
<g id="viewport">
<title>anch::sql::MySQLConnection</title>
<!-- Node1 -->
<g id="Node000001" class="node">
<title>Node1</title>
<g id="a_Node000001"><a xlink:title="MySQL connection.">
<polygon fill="#999999" stroke="none" points="223,-180 75,-180 75,0 223,0 223,-180"/>
<text text-anchor="start" x="80" y="-166.5" font-family="Helvetica,sans-Serif" font-size="10.00">anch::sql::MySQLConnection</text>
<text text-anchor="start" x="147.5" y="-150.5" font-family="Helvetica,sans-Serif" font-size="10.00"> </text>
<text text-anchor="start" x="83.38" y="-134.5" font-family="Helvetica,sans-Serif" font-size="10.00">+</text>
<text text-anchor="start" x="100" y="-134.5" font-family="Helvetica,sans-Serif" font-size="10.00">MySQLConnection()</text>
<text text-anchor="start" x="83.38" y="-118.5" font-family="Helvetica,sans-Serif" font-size="10.00">+</text>
<text text-anchor="start" x="100" y="-118.5" font-family="Helvetica,sans-Serif" font-size="10.00">MySQLConnection()</text>
<text text-anchor="start" x="83.38" y="-102.5" font-family="Helvetica,sans-Serif" font-size="10.00">+</text>
<text text-anchor="start" x="100" y="-102.5" font-family="Helvetica,sans-Serif" font-size="10.00">~MySQLConnection()</text>
<text text-anchor="start" x="83.38" y="-86.5" font-family="Helvetica,sans-Serif" font-size="10.00">#</text>
<text text-anchor="start" x="100" y="-86.5" font-family="Helvetica,sans-Serif" font-size="10.00">executeQuery()</text>
<text text-anchor="start" x="83.38" y="-70.5" font-family="Helvetica,sans-Serif" font-size="10.00">#</text>
<text text-anchor="start" x="100" y="-70.5" font-family="Helvetica,sans-Serif" font-size="10.00">executeUpdate()</text>
<text text-anchor="start" x="83.38" y="-54.5" font-family="Helvetica,sans-Serif" font-size="10.00">#</text>
<text text-anchor="start" x="100" y="-54.5" font-family="Helvetica,sans-Serif" font-size="10.00">sendCommit()</text>
<text text-anchor="start" x="83.38" y="-38.5" font-family="Helvetica,sans-Serif" font-size="10.00">#</text>
<text text-anchor="start" x="100" y="-38.5" font-family="Helvetica,sans-Serif" font-size="10.00">sendRollback()</text>
<text text-anchor="start" x="83.38" y="-22.5" font-family="Helvetica,sans-Serif" font-size="10.00">#</text>
<text text-anchor="start" x="100" y="-22.5" font-family="Helvetica,sans-Serif" font-size="10.00">sendStartTransaction()</text>
<text text-anchor="start" x="83.38" y="-6.5" font-family="Helvetica,sans-Serif" font-size="10.00">#</text>
<text text-anchor="start" x="100" y="-6.5" font-family="Helvetica,sans-Serif" font-size="10.00">makePrepared()</text>
<polygon fill="#666666" stroke="#666666" points="75,-162 75,-162 223,-162 223,-162 75,-162"/>
<polygon fill="#666666" stroke="#666666" points="75,-146 75,-146 223,-146 223,-146 75,-146"/>
<polygon fill="none" stroke="#666666" points="75,0 75,-180 223,-180 223,0 75,0"/>
</a>
</g>
</g>
<!-- Node2 -->
<g id="Node000002" class="node">
<title>Node2</title>
<g id="a_Node000002"><a xlink:href="classanch_1_1sql_1_1_connection.html" target="_top" xlink:title="SQL connection virtual class.">
<polygon fill="white" stroke="none" points="213.5,-573 84.5,-573 84.5,-217 213.5,-217 213.5,-573"/>
<text text-anchor="start" x="96.88" y="-559.5" font-family="Helvetica,sans-Serif" font-size="10.00">anch::sql::Connection</text>
<text text-anchor="start" x="88.38" y="-543.5" font-family="Helvetica,sans-Serif" font-size="10.00">#</text>
<text text-anchor="start" x="100.5" y="-543.5" font-family="Helvetica,sans-Serif" font-size="10.00">_valid</text>
<text text-anchor="start" x="88.38" y="-527.5" font-family="Helvetica,sans-Serif" font-size="10.00">#</text>
<text text-anchor="start" x="100.5" y="-527.5" font-family="Helvetica,sans-Serif" font-size="10.00">_transaction</text>
<text text-anchor="start" x="88.38" y="-511.5" font-family="Helvetica,sans-Serif" font-size="10.00">#</text>
<text text-anchor="start" x="100.5" y="-511.5" font-family="Helvetica,sans-Serif" font-size="10.00">_errors</text>
<text text-anchor="start" x="88.38" y="-495.5" font-family="Helvetica,sans-Serif" font-size="10.00">+</text>
<text text-anchor="start" x="100.5" y="-495.5" font-family="Helvetica,sans-Serif" font-size="10.00">Connection()</text>
<text text-anchor="start" x="88.38" y="-479.5" font-family="Helvetica,sans-Serif" font-size="10.00">+</text>
<text text-anchor="start" x="100.5" y="-479.5" font-family="Helvetica,sans-Serif" font-size="10.00">Connection()</text>
<text text-anchor="start" x="88.38" y="-463.5" font-family="Helvetica,sans-Serif" font-size="10.00">+</text>
<text text-anchor="start" x="100.5" y="-463.5" font-family="Helvetica,sans-Serif" font-size="10.00">~Connection()</text>
<text text-anchor="start" x="88.38" y="-447.5" font-family="Helvetica,sans-Serif" font-size="10.00">+</text>
<text text-anchor="start" x="100.5" y="-447.5" font-family="Helvetica,sans-Serif" font-size="10.00">startTransaction()</text>
<text text-anchor="start" x="88.38" y="-431.5" font-family="Helvetica,sans-Serif" font-size="10.00">+</text>
<text text-anchor="start" x="100.5" y="-431.5" font-family="Helvetica,sans-Serif" font-size="10.00">begin()</text>
<text text-anchor="start" x="88.38" y="-415.5" font-family="Helvetica,sans-Serif" font-size="10.00">+</text>
<text text-anchor="start" x="100.5" y="-415.5" font-family="Helvetica,sans-Serif" font-size="10.00">commit()</text>
<text text-anchor="start" x="88.38" y="-399.5" font-family="Helvetica,sans-Serif" font-size="10.00">+</text>
<text text-anchor="start" x="100.5" y="-399.5" font-family="Helvetica,sans-Serif" font-size="10.00">rollback()</text>
<text text-anchor="start" x="88.38" y="-383.5" font-family="Helvetica,sans-Serif" font-size="10.00">+</text>
<text text-anchor="start" x="100.5" y="-383.5" font-family="Helvetica,sans-Serif" font-size="10.00">release()</text>
<text text-anchor="start" x="88.38" y="-367.5" font-family="Helvetica,sans-Serif" font-size="10.00">+</text>
<text text-anchor="start" x="100.5" y="-367.5" font-family="Helvetica,sans-Serif" font-size="10.00">prepareStatement()</text>
<text text-anchor="start" x="88.38" y="-351.5" font-family="Helvetica,sans-Serif" font-size="10.00">+</text>
<text text-anchor="start" x="100.5" y="-351.5" font-family="Helvetica,sans-Serif" font-size="10.00">query()</text>
<text text-anchor="start" x="100.5" y="-335.5" font-family="Helvetica,sans-Serif" font-size="10.00">and 9 more...</text>
<text text-anchor="start" x="88.38" y="-319.5" font-family="Helvetica,sans-Serif" font-size="10.00">#</text>
<text text-anchor="start" x="100.5" y="-319.5" font-family="Helvetica,sans-Serif" font-size="10.00">executeQuery()</text>
<text text-anchor="start" x="88.38" y="-303.5" font-family="Helvetica,sans-Serif" font-size="10.00">#</text>
<text text-anchor="start" x="100.5" y="-303.5" font-family="Helvetica,sans-Serif" font-size="10.00">executeUpdate()</text>
<text text-anchor="start" x="88.38" y="-287.5" font-family="Helvetica,sans-Serif" font-size="10.00">#</text>
<text text-anchor="start" x="100.5" y="-287.5" font-family="Helvetica,sans-Serif" font-size="10.00">sendStartTransaction()</text>
<text text-anchor="start" x="88.38" y="-271.5" font-family="Helvetica,sans-Serif" font-size="10.00">#</text>
<text text-anchor="start" x="100.5" y="-271.5" font-family="Helvetica,sans-Serif" font-size="10.00">sendCommit()</text>
<text text-anchor="start" x="88.38" y="-255.5" font-family="Helvetica,sans-Serif" font-size="10.00">#</text>
<text text-anchor="start" x="100.5" y="-255.5" font-family="Helvetica,sans-Serif" font-size="10.00">sendRollback()</text>
<text text-anchor="start" x="88.38" y="-239.5" font-family="Helvetica,sans-Serif" font-size="10.00">#</text>
<text text-anchor="start" x="100.5" y="-239.5" font-family="Helvetica,sans-Serif" font-size="10.00">makePrepared()</text>
<text text-anchor="start" x="88.38" y="-223.5" font-family="Helvetica,sans-Serif" font-size="10.00">#</text>
<text text-anchor="start" x="100.5" y="-223.5" font-family="Helvetica,sans-Serif" font-size="10.00">setValid()</text>
<polygon fill="#666666" stroke="#666666" points="84.5,-555 84.5,-555 213.5,-555 213.5,-555 84.5,-555"/>
<polygon fill="#666666" stroke="#666666" points="84.5,-507 84.5,-507 98.5,-507 98.5,-507 84.5,-507"/>
<polygon fill="#666666" stroke="#666666" points="98.5,-507 98.5,-507 213.5,-507 213.5,-507 98.5,-507"/>
<polygon fill="none" stroke="#666666" points="84.5,-217 84.5,-573 213.5,-573 213.5,-217 84.5,-217"/>
</a>
</g>
</g>
<!-- Node2&#45;&gt;Node1 -->
<g id="edge1_Node000001_Node000002" class="edge">
<title>Node2&#45;&gt;Node1</title>
<g id="a_edge1_Node000001_Node000002"><a xlink:title=" ">
<path fill="none" stroke="#63b8ff" d="M149,-205.93C149,-197.02 149,-188.29 149,-179.87"/>
<polygon fill="none" stroke="#63b8ff" points="145.5,-205.79 149,-215.79 152.5,-205.79 145.5,-205.79"/>
</a>
</g>
</g>
<!-- Node3 -->
<g id="Node000003" class="node">
<title>Node3</title>
<g id="a_Node000003"><a xlink:title=" ">
<polygon fill="white" stroke="none" points="237,-686.75 61,-686.75 61,-621.75 237,-621.75 237,-686.75"/>
<text text-anchor="start" x="65.75" y="-673.25" font-family="Helvetica,sans-Serif" font-size="10.00">std::map&lt; std::string,</text>
<text text-anchor="start" x="65.75" y="-660.5" font-family="Helvetica,sans-Serif" font-size="10.00"> anch::sql::PreparedStatement * &gt;</text>
<text text-anchor="start" x="147.5" y="-644.25" font-family="Helvetica,sans-Serif" font-size="10.00"> </text>
<text text-anchor="start" x="147.5" y="-628.25" font-family="Helvetica,sans-Serif" font-size="10.00"> </text>
<polygon fill="#666666" stroke="#666666" points="61,-655.75 61,-655.75 237,-655.75 237,-655.75 61,-655.75"/>
<polygon fill="#666666" stroke="#666666" points="61,-639.75 61,-639.75 237,-639.75 237,-639.75 61,-639.75"/>
<polygon fill="none" stroke="#666666" points="61,-621.75 61,-686.75 237,-686.75 237,-621.75 61,-621.75"/>
</a>
</g>
</g>
<!-- Node3&#45;&gt;Node2 -->
<g id="edge2_Node000002_Node000003" class="edge">
<title>Node3&#45;&gt;Node2</title>
<g id="a_edge2_Node000002_Node000003"><a xlink:title=" ">
<path fill="none" stroke="#63b8ff" d="M149,-621.96C149,-611.61 149,-599.23 149,-585.67"/>
<polygon fill="none" stroke="#63b8ff" points="149,-585.81 145,-579.81 149,-573.81 153,-579.81 149,-585.81"/>
</a>
</g>
<text text-anchor="middle" x="171.12" y="-594.25" font-family="Helvetica,sans-Serif" font-size="10.00" fill="grey"> #_stmts</text>
</g>
<!-- Node4 -->
<g id="Node000004" class="node">
<title>Node4</title>
<g id="a_Node000004"><a xlink:title=" ">
<polygon fill="white" stroke="none" points="220,-1283.5 162,-1283.5 162,-1231.5 220,-1231.5 220,-1283.5"/>
<text text-anchor="start" x="166.62" y="-1270" font-family="Helvetica,sans-Serif" font-size="10.00">std::string</text>
<text text-anchor="start" x="189.5" y="-1254" font-family="Helvetica,sans-Serif" font-size="10.00"> </text>
<text text-anchor="start" x="189.5" y="-1238" font-family="Helvetica,sans-Serif" font-size="10.00"> </text>
<polygon fill="#666666" stroke="#666666" points="162,-1265.5 162,-1265.5 220,-1265.5 220,-1265.5 162,-1265.5"/>
<polygon fill="#666666" stroke="#666666" points="162,-1249.5 162,-1249.5 220,-1249.5 220,-1249.5 162,-1249.5"/>
<polygon fill="none" stroke="#666666" points="162,-1231.5 162,-1283.5 220,-1283.5 220,-1231.5 162,-1231.5"/>
</a>
</g>
</g>
<!-- Node4&#45;&gt;Node3 -->
<g id="edge3_Node000003_Node000004" class="edge">
<title>Node4&#45;&gt;Node3</title>
<g id="a_edge3_Node000003_Node000004"><a xlink:title=" ">
<path fill="none" stroke="#63b8ff" d="M219.76,-1238.28C227.84,-1231.56 235.61,-1223.19 240,-1213.5 244.68,-1203.18 240.06,-1199.33 240,-1188 238.89,-986.88 303.37,-924.65 235,-735.5 229.47,-720.19 219.05,-706.64 207.31,-695.23"/>
<polygon fill="none" stroke="#63b8ff" points="207.27,-695.19 200.14,-694.14 198.36,-687.15 205.5,-688.2 207.27,-695.19"/>
</a>
</g>
<text text-anchor="middle" x="263.88" y="-1071.12" font-family="Helvetica,sans-Serif" font-size="10.00" fill="grey"> +keys</text>
</g>
<!-- Node7 -->
<g id="Node000007" class="node">
<title>Node7</title>
<g id="a_Node000007"><a xlink:title=" ">
<polygon fill="white" stroke="none" points="226,-1170 122,-1170 122,-1105 226,-1105 226,-1170"/>
<text text-anchor="start" x="126.75" y="-1156.5" font-family="Helvetica,sans-Serif" font-size="10.00">std::map&lt; std::size</text>
<text text-anchor="start" x="136.5" y="-1143.75" font-family="Helvetica,sans-Serif" font-size="10.00">_t, std::string &gt;</text>
<text text-anchor="start" x="141.38" y="-1127.5" font-family="Helvetica,sans-Serif" font-size="10.00">+</text>
<text text-anchor="start" x="169" y="-1127.5" font-family="Helvetica,sans-Serif" font-size="10.00">keys</text>
<text text-anchor="start" x="172.5" y="-1111.5" font-family="Helvetica,sans-Serif" font-size="10.00"> </text>
<polygon fill="#666666" stroke="#666666" points="122,-1139 122,-1139 226,-1139 226,-1139 122,-1139"/>
<polygon fill="#666666" stroke="#666666" points="122,-1123 122,-1123 167,-1123 167,-1123 122,-1123"/>
<polygon fill="#666666" stroke="#666666" points="167,-1123 167,-1123 226,-1123 226,-1123 167,-1123"/>
<polygon fill="none" stroke="#666666" points="122,-1105 122,-1170 226,-1170 226,-1105 122,-1105"/>
</a>
</g>
</g>
<!-- Node4&#45;&gt;Node7 -->
<g id="edge7_Node000007_Node000004" class="edge">
<title>Node4&#45;&gt;Node7</title>
<g id="a_edge7_Node000007_Node000004"><a xlink:title=" ">
<path fill="none" stroke="#63b8ff" d="M186.07,-1231.53C184.99,-1225.63 183.89,-1219.35 183,-1213.5 181.48,-1203.58 180.07,-1192.9 178.83,-1182.79"/>
<polygon fill="none" stroke="#63b8ff" points="178.83,-1182.76 174.15,-1177.27 177.42,-1170.84 182.1,-1176.33 178.83,-1182.76"/>
</a>
</g>
<text text-anchor="middle" x="211.5" y="-1197.62" font-family="Helvetica,sans-Serif" font-size="10.00" fill="grey"> +elements</text>
</g>
<!-- Node5 -->
<g id="Node000005" class="node">
<title>Node5</title>
<g id="a_Node000005"><a xlink:title=" ">
<polygon fill="white" stroke="none" points="239.5,-1397.25 142.5,-1397.25 142.5,-1332.25 239.5,-1332.25 239.5,-1397.25"/>
<text text-anchor="start" x="147.12" y="-1383.75" font-family="Helvetica,sans-Serif" font-size="10.00">std::basic_string&lt;</text>
<text text-anchor="start" x="172.62" y="-1371" font-family="Helvetica,sans-Serif" font-size="10.00"> Char &gt;</text>
<text text-anchor="start" x="189.5" y="-1354.75" font-family="Helvetica,sans-Serif" font-size="10.00"> </text>
<text text-anchor="start" x="189.5" y="-1338.75" font-family="Helvetica,sans-Serif" font-size="10.00"> </text>
<polygon fill="#666666" stroke="#666666" points="142.5,-1366.25 142.5,-1366.25 239.5,-1366.25 239.5,-1366.25 142.5,-1366.25"/>
<polygon fill="#666666" stroke="#666666" points="142.5,-1350.25 142.5,-1350.25 239.5,-1350.25 239.5,-1350.25 142.5,-1350.25"/>
<polygon fill="none" stroke="#666666" points="142.5,-1332.25 142.5,-1397.25 239.5,-1397.25 239.5,-1332.25 142.5,-1332.25"/>
</a>
</g>
</g>
<!-- Node5&#45;&gt;Node4 -->
<g id="edge4_Node000004_Node000005" class="edge">
<title>Node5&#45;&gt;Node4</title>
<g id="a_edge4_Node000004_Node000005"><a xlink:title=" ">
<path fill="none" stroke="#63b8ff" d="M191,-1320.97C191,-1308.1 191,-1294.43 191,-1283.16"/>
<polygon fill="none" stroke="#63b8ff" points="187.5,-1320.94 191,-1330.94 194.5,-1320.94 187.5,-1320.94"/>
</a>
</g>
</g>
<!-- Node6 -->
<g id="Node000006" class="node">
<title>Node6</title>
<g id="a_Node000006"><a xlink:href="classanch_1_1sql_1_1_prepared_statement.html" target="_top" xlink:title="SQL prepared statement.">
<polygon fill="white" stroke="none" points="226,-1043.5 72,-1043.5 72,-735.5 226,-735.5 226,-1043.5"/>
<text text-anchor="start" x="77" y="-1030" font-family="Helvetica,sans-Serif" font-size="10.00">anch::sql::PreparedStatement</text>
<text text-anchor="start" x="81.88" y="-1014" font-family="Helvetica,sans-Serif" font-size="10.00">#</text>
<text text-anchor="start" x="100" y="-1014" font-family="Helvetica,sans-Serif" font-size="10.00">_nbPlaceholders</text>
<text text-anchor="start" x="81.88" y="-998" font-family="Helvetica,sans-Serif" font-size="10.00">+</text>
<text text-anchor="start" x="100" y="-998" font-family="Helvetica,sans-Serif" font-size="10.00">PreparedStatement()</text>
<text text-anchor="start" x="81.88" y="-982" font-family="Helvetica,sans-Serif" font-size="10.00">+</text>
<text text-anchor="start" x="100" y="-982" font-family="Helvetica,sans-Serif" font-size="10.00">~PreparedStatement()</text>
<text text-anchor="start" x="81.88" y="-966" font-family="Helvetica,sans-Serif" font-size="10.00">+</text>
<text text-anchor="start" x="100" y="-966" font-family="Helvetica,sans-Serif" font-size="10.00">executeQuery()</text>
<text text-anchor="start" x="81.88" y="-950" font-family="Helvetica,sans-Serif" font-size="10.00">+</text>
<text text-anchor="start" x="100" y="-950" font-family="Helvetica,sans-Serif" font-size="10.00">executeUpdate()</text>
<text text-anchor="start" x="81.88" y="-934" font-family="Helvetica,sans-Serif" font-size="10.00">+</text>
<text text-anchor="start" x="100" y="-934" font-family="Helvetica,sans-Serif" font-size="10.00">set()</text>
<text text-anchor="start" x="81.88" y="-918" font-family="Helvetica,sans-Serif" font-size="10.00">+</text>
<text text-anchor="start" x="100" y="-918" font-family="Helvetica,sans-Serif" font-size="10.00">set()</text>
<text text-anchor="start" x="81.88" y="-902" font-family="Helvetica,sans-Serif" font-size="10.00">+</text>
<text text-anchor="start" x="100" y="-902" font-family="Helvetica,sans-Serif" font-size="10.00">set()</text>
<text text-anchor="start" x="81.88" y="-886" font-family="Helvetica,sans-Serif" font-size="10.00">+</text>
<text text-anchor="start" x="100" y="-886" font-family="Helvetica,sans-Serif" font-size="10.00">set()</text>
<text text-anchor="start" x="81.88" y="-870" font-family="Helvetica,sans-Serif" font-size="10.00">+</text>
<text text-anchor="start" x="100" y="-870" font-family="Helvetica,sans-Serif" font-size="10.00">set()</text>
<text text-anchor="start" x="81.88" y="-854" font-family="Helvetica,sans-Serif" font-size="10.00">+</text>
<text text-anchor="start" x="100" y="-854" font-family="Helvetica,sans-Serif" font-size="10.00">set()</text>
<text text-anchor="start" x="81.88" y="-838" font-family="Helvetica,sans-Serif" font-size="10.00">+</text>
<text text-anchor="start" x="100" y="-838" font-family="Helvetica,sans-Serif" font-size="10.00">set()</text>
<text text-anchor="start" x="81.88" y="-822" font-family="Helvetica,sans-Serif" font-size="10.00">+</text>
<text text-anchor="start" x="100" y="-822" font-family="Helvetica,sans-Serif" font-size="10.00">set()</text>
<text text-anchor="start" x="81.88" y="-806" font-family="Helvetica,sans-Serif" font-size="10.00">+</text>
<text text-anchor="start" x="100" y="-806" font-family="Helvetica,sans-Serif" font-size="10.00">set()</text>
<text text-anchor="start" x="81.88" y="-790" font-family="Helvetica,sans-Serif" font-size="10.00">+</text>
<text text-anchor="start" x="100" y="-790" font-family="Helvetica,sans-Serif" font-size="10.00">set()</text>
<text text-anchor="start" x="81.88" y="-774" font-family="Helvetica,sans-Serif" font-size="10.00">+</text>
<text text-anchor="start" x="100" y="-774" font-family="Helvetica,sans-Serif" font-size="10.00">set()</text>
<text text-anchor="start" x="81.88" y="-758" font-family="Helvetica,sans-Serif" font-size="10.00">#</text>
<text text-anchor="start" x="100" y="-758" font-family="Helvetica,sans-Serif" font-size="10.00">getPlaceholders()</text>
<text text-anchor="start" x="81.88" y="-742" font-family="Helvetica,sans-Serif" font-size="10.00">#</text>
<text text-anchor="start" x="100" y="-742" font-family="Helvetica,sans-Serif" font-size="10.00">checkIndex()</text>
<polygon fill="#666666" stroke="#666666" points="72,-1025.5 72,-1025.5 226,-1025.5 226,-1025.5 72,-1025.5"/>
<polygon fill="#666666" stroke="#666666" points="72,-1009.5 72,-1009.5 98,-1009.5 98,-1009.5 72,-1009.5"/>
<polygon fill="#666666" stroke="#666666" points="98,-1009.5 98,-1009.5 226,-1009.5 226,-1009.5 98,-1009.5"/>
<polygon fill="none" stroke="#666666" points="72,-735.5 72,-1043.5 226,-1043.5 226,-735.5 72,-735.5"/>
</a>
</g>
</g>
<!-- Node6&#45;&gt;Node3 -->
<g id="edge5_Node000003_Node000006" class="edge">
<title>Node6&#45;&gt;Node3</title>
<g id="a_edge5_Node000003_Node000006"><a xlink:title=" ">
<path fill="none" stroke="#63b8ff" d="M149,-735.52C149,-722.6 149,-710.34 149,-699.47"/>
<polygon fill="none" stroke="#63b8ff" points="149,-699.4 145,-693.4 149,-687.4 153,-693.4 149,-699.4"/>
</a>
</g>
<text text-anchor="middle" x="177.5" y="-708" font-family="Helvetica,sans-Serif" font-size="10.00" fill="grey"> +elements</text>
</g>
<!-- Node7&#45;&gt;Node6 -->
<g id="edge6_Node000006_Node000007" class="edge">
<title>Node7&#45;&gt;Node6</title>
<g id="a_edge6_Node000006_Node000007"><a xlink:title=" ">
<path fill="none" stroke="#63b8ff" d="M170.81,-1105.09C169.43,-1091.57 167.71,-1074.64 165.84,-1056.25"/>
<polygon fill="none" stroke="#63b8ff" points="165.83,-1056.15 161.25,-1050.58 164.62,-1044.21 169.21,-1049.77 165.83,-1056.15"/>
</a>
</g>
<text text-anchor="middle" x="192.38" y="-1071.12" font-family="Helvetica,sans-Serif" font-size="10.00" fill="grey"> #_values</text>
</g>
<!-- Node8 -->
<g id="Node000008" class="node">
<title>Node8</title>
<g id="a_Node000008"><a xlink:title=" ">
<polygon fill="white" stroke="none" points="94,-1283.5 0,-1283.5 0,-1231.5 94,-1231.5 94,-1283.5"/>
<text text-anchor="start" x="5" y="-1270" font-family="Helvetica,sans-Serif" font-size="10.00">std::map&lt; K, T &gt;</text>
<text text-anchor="start" x="45.5" y="-1254" font-family="Helvetica,sans-Serif" font-size="10.00"> </text>
<text text-anchor="start" x="45.5" y="-1238" font-family="Helvetica,sans-Serif" font-size="10.00"> </text>
<polygon fill="#666666" stroke="#666666" points="0,-1265.5 0,-1265.5 94,-1265.5 94,-1265.5 0,-1265.5"/>
<polygon fill="#666666" stroke="#666666" points="0,-1249.5 0,-1249.5 94,-1249.5 94,-1249.5 0,-1249.5"/>
<polygon fill="none" stroke="#666666" points="0,-1231.5 0,-1283.5 94,-1283.5 94,-1231.5 0,-1231.5"/>
</a>
</g>
</g>
<!-- Node8&#45;&gt;Node3 -->
<g id="edge11_Node000003_Node000008" class="edge">
<title>Node8&#45;&gt;Node3</title>
<g id="a_edge11_Node000003_Node000008"><a xlink:title=" ">
<path fill="none" stroke="orange" d="M38.19,-1220.58C18.53,-1132.21 -20.92,-899.53 63,-735.5 72.67,-716.59 88.68,-699.8 104.28,-686.53"/>
<polygon fill="orange" stroke="orange" points="34.73,-1221.14 40.37,-1230.11 41.55,-1219.58 34.73,-1221.14"/>
</a>
</g>
<text text-anchor="start" x="17" y="-1077.5" font-family="Helvetica,sans-Serif" font-size="10.00" fill="grey"> &lt; std::string, anch</text>
<text text-anchor="middle" x="87.12" y="-1064.75" font-family="Helvetica,sans-Serif" font-size="10.00" fill="grey">::sql::PreparedStatement * &gt;</text>
</g>
<!-- Node8&#45;&gt;Node7 -->
<g id="edge8_Node000007_Node000008" class="edge">
<title>Node8&#45;&gt;Node7</title>
<g id="a_edge8_Node000007_Node000008"><a xlink:title=" ">
<path fill="none" stroke="orange" d="M64.58,-1221.75C71.53,-1210.14 80.26,-1197.7 90.25,-1188 99.58,-1178.94 110.87,-1170.85 122.11,-1163.97"/>
<polygon fill="orange" stroke="orange" points="61.59,-1219.92 59.69,-1230.34 67.68,-1223.38 61.59,-1219.92"/>
</a>
</g>
<text text-anchor="start" x="90" y="-1204" font-family="Helvetica,sans-Serif" font-size="10.00" fill="grey"> &lt; std::size_t, std</text>
<text text-anchor="middle" x="132.38" y="-1191.25" font-family="Helvetica,sans-Serif" font-size="10.00" fill="grey">::string &gt;</text>
</g>
<!-- Node9 -->
<g id="Node000009" class="node">
<title>Node9</title>
<g id="a_Node000009"><a xlink:title=" ">
<polygon fill="white" stroke="none" points="48,-1390.75 32,-1390.75 32,-1338.75 48,-1338.75 48,-1390.75"/>
<text text-anchor="start" x="36.62" y="-1377.25" font-family="Helvetica,sans-Serif" font-size="10.00">K</text>
<text text-anchor="start" x="38.5" y="-1361.25" font-family="Helvetica,sans-Serif" font-size="10.00"> </text>
<text text-anchor="start" x="38.5" y="-1345.25" font-family="Helvetica,sans-Serif" font-size="10.00"> </text>
<polygon fill="#bfbfbf" stroke="#bfbfbf" points="32,-1372.75 32,-1372.75 48,-1372.75 48,-1372.75 32,-1372.75"/>
<polygon fill="#bfbfbf" stroke="#bfbfbf" points="32,-1356.75 32,-1356.75 48,-1356.75 48,-1356.75 32,-1356.75"/>
<polygon fill="none" stroke="#bfbfbf" points="32,-1338.75 32,-1390.75 48,-1390.75 48,-1338.75 32,-1338.75"/>
</a>
</g>
</g>
<!-- Node9&#45;&gt;Node8 -->
<g id="edge9_Node000008_Node000009" class="edge">
<title>Node9&#45;&gt;Node8</title>
<g id="a_edge9_Node000008_Node000009"><a xlink:title=" ">
<path fill="none" stroke="#63b8ff" d="M39.86,-1338.88C39.96,-1327.47 40.31,-1313.79 41.25,-1301.5 41.38,-1299.76 41.54,-1297.98 41.71,-1296.19"/>
<polygon fill="none" stroke="#63b8ff" points="41.7,-1296.28 38.42,-1289.86 43.07,-1284.36 46.36,-1290.77 41.7,-1296.28"/>
</a>
</g>
<text text-anchor="middle" x="58.88" y="-1304.75" font-family="Helvetica,sans-Serif" font-size="10.00" fill="grey"> +keys</text>
</g>
<!-- Node10 -->
<g id="Node000010" class="node">
<title>Node10</title>
<g id="a_Node000010"><a xlink:title=" ">
<polygon fill="white" stroke="none" points="105,-1390.75 89,-1390.75 89,-1338.75 105,-1338.75 105,-1390.75"/>
<text text-anchor="start" x="94" y="-1377.25" font-family="Helvetica,sans-Serif" font-size="10.00">T</text>
<text text-anchor="start" x="95.5" y="-1361.25" font-family="Helvetica,sans-Serif" font-size="10.00"> </text>
<text text-anchor="start" x="95.5" y="-1345.25" font-family="Helvetica,sans-Serif" font-size="10.00"> </text>
<polygon fill="#bfbfbf" stroke="#bfbfbf" points="89,-1372.75 89,-1372.75 105,-1372.75 105,-1372.75 89,-1372.75"/>
<polygon fill="#bfbfbf" stroke="#bfbfbf" points="89,-1356.75 89,-1356.75 105,-1356.75 105,-1356.75 89,-1356.75"/>
<polygon fill="none" stroke="#bfbfbf" points="89,-1338.75 89,-1390.75 105,-1390.75 105,-1338.75 89,-1338.75"/>
</a>
</g>
</g>
<!-- Node10&#45;&gt;Node8 -->
<g id="edge10_Node000008_Node000010" class="edge">
<title>Node10&#45;&gt;Node8</title>
<g id="a_edge10_Node000008_Node000010"><a xlink:title=" ">
<path fill="none" stroke="#63b8ff" d="M89.74,-1338.96C85.95,-1327.32 80.88,-1313.42 75,-1301.5 73.83,-1299.13 72.55,-1296.73 71.21,-1294.34"/>
<polygon fill="none" stroke="#63b8ff" points="71.27,-1294.43 64.75,-1291.35 65.08,-1284.15 71.6,-1287.23 71.27,-1294.43"/>
</a>
</g>
<text text-anchor="middle" x="109.5" y="-1304.75" font-family="Helvetica,sans-Serif" font-size="10.00" fill="grey"> +elements</text>
</g>
</g>
</svg>

<g id="navigator" transform="translate(0 0)" fill="#404254">
  <rect fill="#f2f5e9" fill-opacity="0.5" stroke="#606060" stroke-width=".5" x="0" y="0" width="60" height="60"/>
  <use id="zoomplus" xlink:href="#zoomPlus" x="17" y="9" onmousedown="handleZoom(evt,'in')"/>
  <use id="zoomminus" xlink:href="#zoomMin" x="42" y="9" onmousedown="handleZoom(evt,'out')"/>
  <use id="reset" xlink:href="#resetDef" x="30" y="36" onmousedown="handleReset()"/>
   <use id="arrowup" xlink:href="#arrowUp" x="0" y="0" onmousedown="handlePan(0,-1)"/>
  <use id="arrowright" xlink:href="#arrowRight" x="0" y="0" onmousedown="handlePan(1,0)"/>
  <use id="arrowdown" xlink:href="#arrowDown" x="0" y="0" onmousedown="handlePan(0,1)"/>
  <use id="arrowleft" xlink:href="#arrowLeft" x="0" y="0" onmousedown="handlePan(-1,0)"/>
</g>
<svg viewBox="0 0 15 15" width="100%" height="30px" preserveAspectRatio="xMaxYMin meet">
 <g id="arrow_out" transform="scale(0.3 0.3)">
  <a xlink:href="classanch_1_1sql_1_1_my_s_q_l_connection__coll__graph_org.svg" target="_base">
   <rect id="button" ry="5" rx="5" y="6" x="6" height="38" width="38"
        fill="#f2f5e9" fill-opacity="0.5" stroke="#606060" stroke-width="1.0"/>
   <path id="arrow"
     d="M 11.500037,31.436501 C 11.940474,20.09759 22.043105,11.32322 32.158766,21.979434 L 37.068811,17.246167 C 37.068811,17.246167 37.088388,32 37.088388,32 L 22.160133,31.978069 C 22.160133,31.978069 26.997745,27.140456 26.997745,27.140456 C 18.528582,18.264221 13.291696,25.230495 11.500037,31.436501 z"
     style="fill:#404040;"/>
  </a>
 </g>
</svg>

<style type='text/css'>
<![CDATA[
[data-mouse-over-selected='false'] { opacity: 0.7; }
[data-mouse-over-selected='true']  { opacity: 1.0; }
]]>
</style>
<script type="application/ecmascript"><![CDATA[
document.addEventListener('DOMContentLoaded', (event) => {
  highlightEdges();
  highlightAdjacentNodes();
});
]]></script>
</svg>
