<?xml version="1.0" encoding="UTF-8" standalone="no"?>
<!DOCTYPE svg PUBLIC "-//W3C//DTD SVG 1.1//EN"
 "http://www.w3.org/Graphics/SVG/1.1/DTD/svg11.dtd">
<!-- Generated by graphviz version 13.1.0 (0)
 -->
<!-- Title: anch::sql::MySQLConnection Pages: 1 -->
<svg width="272pt" height="1435pt"
 viewBox="0.00 0.00 272.00 1435.00" xmlns="http://www.w3.org/2000/svg" xmlns:xlink="http://www.w3.org/1999/xlink">
<g id="graph0" class="graph" transform="scale(1 1) rotate(0) translate(4 1431)">
<title>anch::sql::MySQLConnection</title>
<!-- Node1 -->
<g id="Node000001" class="node">
<title>Node1</title>
<g id="a_Node000001"><a xlink:title="MySQL connection.">
<polygon fill="#999999" stroke="none" points="209.25,-180 73,-180 73,0 209.25,0 209.25,-180"/>
<text xml:space="preserve" text-anchor="start" x="77" y="-166.5" font-family="Helvetica,sans-Serif" font-size="10.00">anch::sql::MySQLConnection</text>
<text xml:space="preserve" text-anchor="start" x="139.62" y="-150.5" font-family="Helvetica,sans-Serif" font-size="10.00"> </text>
<text xml:space="preserve" text-anchor="start" x="81.81" y="-134.5" font-family="Helvetica,sans-Serif" font-size="10.00">+</text>
<text xml:space="preserve" text-anchor="start" x="96.62" y="-134.5" font-family="Helvetica,sans-Serif" font-size="10.00">MySQLConnection()</text>
<text xml:space="preserve" text-anchor="start" x="81.81" y="-118.5" font-family="Helvetica,sans-Serif" font-size="10.00">+</text>
<text xml:space="preserve" text-anchor="start" x="96.62" y="-118.5" font-family="Helvetica,sans-Serif" font-size="10.00">MySQLConnection()</text>
<text xml:space="preserve" text-anchor="start" x="81.81" y="-102.5" font-family="Helvetica,sans-Serif" font-size="10.00">+</text>
<text xml:space="preserve" text-anchor="start" x="96.62" y="-102.5" font-family="Helvetica,sans-Serif" font-size="10.00">~MySQLConnection()</text>
<text xml:space="preserve" text-anchor="start" x="82.19" y="-86.5" font-family="Helvetica,sans-Serif" font-size="10.00">#</text>
<text xml:space="preserve" text-anchor="start" x="96.62" y="-86.5" font-family="Helvetica,sans-Serif" font-size="10.00">executeQuery()</text>
<text xml:space="preserve" text-anchor="start" x="82.19" y="-70.5" font-family="Helvetica,sans-Serif" font-size="10.00">#</text>
<text xml:space="preserve" text-anchor="start" x="96.62" y="-70.5" font-family="Helvetica,sans-Serif" font-size="10.00">executeUpdate()</text>
<text xml:space="preserve" text-anchor="start" x="82.19" y="-54.5" font-family="Helvetica,sans-Serif" font-size="10.00">#</text>
<text xml:space="preserve" text-anchor="start" x="96.62" y="-54.5" font-family="Helvetica,sans-Serif" font-size="10.00">sendCommit()</text>
<text xml:space="preserve" text-anchor="start" x="82.19" y="-38.5" font-family="Helvetica,sans-Serif" font-size="10.00">#</text>
<text xml:space="preserve" text-anchor="start" x="96.62" y="-38.5" font-family="Helvetica,sans-Serif" font-size="10.00">sendRollback()</text>
<text xml:space="preserve" text-anchor="start" x="82.19" y="-22.5" font-family="Helvetica,sans-Serif" font-size="10.00">#</text>
<text xml:space="preserve" text-anchor="start" x="96.62" y="-22.5" font-family="Helvetica,sans-Serif" font-size="10.00">sendStartTransaction()</text>
<text xml:space="preserve" text-anchor="start" x="82.19" y="-6.5" font-family="Helvetica,sans-Serif" font-size="10.00">#</text>
<text xml:space="preserve" text-anchor="start" x="96.62" y="-6.5" font-family="Helvetica,sans-Serif" font-size="10.00">makePrepared()</text>
<polygon fill="#666666" stroke="#666666" points="73,-162 73,-162 209.25,-162 209.25,-162 73,-162"/>
<polygon fill="#666666" stroke="#666666" points="73,-146 73,-146 209.25,-146 209.25,-146 73,-146"/>
<polygon fill="none" stroke="#666666" points="73,0 73,-180 209.25,-180 209.25,0 73,0"/>
</a>
</g>
</g>
<!-- Node2 -->
<g id="Node000002" class="node">
<title>Node2</title>
<g id="a_Node000002"><a xlink:href="classanch_1_1sql_1_1_connection.html" target="_top" xlink:title="SQL connection virtual class.">
<polygon fill="white" stroke="none" points="199.62,-573 82.62,-573 82.62,-217 199.62,-217 199.62,-573"/>
<text xml:space="preserve" text-anchor="start" x="93.5" y="-559.5" font-family="Helvetica,sans-Serif" font-size="10.00">anch::sql::Connection</text>
<text xml:space="preserve" text-anchor="start" x="87" y="-543.5" font-family="Helvetica,sans-Serif" font-size="10.00">#</text>
<text xml:space="preserve" text-anchor="start" x="96.62" y="-543.5" font-family="Helvetica,sans-Serif" font-size="10.00">_valid</text>
<text xml:space="preserve" text-anchor="start" x="87" y="-527.5" font-family="Helvetica,sans-Serif" font-size="10.00">#</text>
<text xml:space="preserve" text-anchor="start" x="96.62" y="-527.5" font-family="Helvetica,sans-Serif" font-size="10.00">_transaction</text>
<text xml:space="preserve" text-anchor="start" x="87" y="-511.5" font-family="Helvetica,sans-Serif" font-size="10.00">#</text>
<text xml:space="preserve" text-anchor="start" x="96.62" y="-511.5" font-family="Helvetica,sans-Serif" font-size="10.00">_errors</text>
<text xml:space="preserve" text-anchor="start" x="86.62" y="-495.5" font-family="Helvetica,sans-Serif" font-size="10.00">+</text>
<text xml:space="preserve" text-anchor="start" x="96.62" y="-495.5" font-family="Helvetica,sans-Serif" font-size="10.00">Connection()</text>
<text xml:space="preserve" text-anchor="start" x="86.62" y="-479.5" font-family="Helvetica,sans-Serif" font-size="10.00">+</text>
<text xml:space="preserve" text-anchor="start" x="96.62" y="-479.5" font-family="Helvetica,sans-Serif" font-size="10.00">Connection()</text>
<text xml:space="preserve" text-anchor="start" x="86.62" y="-463.5" font-family="Helvetica,sans-Serif" font-size="10.00">+</text>
<text xml:space="preserve" text-anchor="start" x="96.62" y="-463.5" font-family="Helvetica,sans-Serif" font-size="10.00">~Connection()</text>
<text xml:space="preserve" text-anchor="start" x="86.62" y="-447.5" font-family="Helvetica,sans-Serif" font-size="10.00">+</text>
<text xml:space="preserve" text-anchor="start" x="96.62" y="-447.5" font-family="Helvetica,sans-Serif" font-size="10.00">startTransaction()</text>
<text xml:space="preserve" text-anchor="start" x="86.62" y="-431.5" font-family="Helvetica,sans-Serif" font-size="10.00">+</text>
<text xml:space="preserve" text-anchor="start" x="96.62" y="-431.5" font-family="Helvetica,sans-Serif" font-size="10.00">begin()</text>
<text xml:space="preserve" text-anchor="start" x="86.62" y="-415.5" font-family="Helvetica,sans-Serif" font-size="10.00">+</text>
<text xml:space="preserve" text-anchor="start" x="96.62" y="-415.5" font-family="Helvetica,sans-Serif" font-size="10.00">commit()</text>
<text xml:space="preserve" text-anchor="start" x="86.62" y="-399.5" font-family="Helvetica,sans-Serif" font-size="10.00">+</text>
<text xml:space="preserve" text-anchor="start" x="96.62" y="-399.5" font-family="Helvetica,sans-Serif" font-size="10.00">rollback()</text>
<text xml:space="preserve" text-anchor="start" x="86.62" y="-383.5" font-family="Helvetica,sans-Serif" font-size="10.00">+</text>
<text xml:space="preserve" text-anchor="start" x="96.62" y="-383.5" font-family="Helvetica,sans-Serif" font-size="10.00">release()</text>
<text xml:space="preserve" text-anchor="start" x="86.62" y="-367.5" font-family="Helvetica,sans-Serif" font-size="10.00">+</text>
<text xml:space="preserve" text-anchor="start" x="96.62" y="-367.5" font-family="Helvetica,sans-Serif" font-size="10.00">prepareStatement()</text>
<text xml:space="preserve" text-anchor="start" x="86.62" y="-351.5" font-family="Helvetica,sans-Serif" font-size="10.00">+</text>
<text xml:space="preserve" text-anchor="start" x="96.62" y="-351.5" font-family="Helvetica,sans-Serif" font-size="10.00">query()</text>
<text xml:space="preserve" text-anchor="start" x="96.62" y="-335.5" font-family="Helvetica,sans-Serif" font-size="10.00">and 9 more...</text>
<text xml:space="preserve" text-anchor="start" x="87" y="-319.5" font-family="Helvetica,sans-Serif" font-size="10.00">#</text>
<text xml:space="preserve" text-anchor="start" x="96.62" y="-319.5" font-family="Helvetica,sans-Serif" font-size="10.00">executeQuery()</text>
<text xml:space="preserve" text-anchor="start" x="87" y="-303.5" font-family="Helvetica,sans-Serif" font-size="10.00">#</text>
<text xml:space="preserve" text-anchor="start" x="96.62" y="-303.5" font-family="Helvetica,sans-Serif" font-size="10.00">executeUpdate()</text>
<text xml:space="preserve" text-anchor="start" x="87" y="-287.5" font-family="Helvetica,sans-Serif" font-size="10.00">#</text>
<text xml:space="preserve" text-anchor="start" x="96.62" y="-287.5" font-family="Helvetica,sans-Serif" font-size="10.00">sendStartTransaction()</text>
<text xml:space="preserve" text-anchor="start" x="87" y="-271.5" font-family="Helvetica,sans-Serif" font-size="10.00">#</text>
<text xml:space="preserve" text-anchor="start" x="96.62" y="-271.5" font-family="Helvetica,sans-Serif" font-size="10.00">sendCommit()</text>
<text xml:space="preserve" text-anchor="start" x="87" y="-255.5" font-family="Helvetica,sans-Serif" font-size="10.00">#</text>
<text xml:space="preserve" text-anchor="start" x="96.62" y="-255.5" font-family="Helvetica,sans-Serif" font-size="10.00">sendRollback()</text>
<text xml:space="preserve" text-anchor="start" x="87" y="-239.5" font-family="Helvetica,sans-Serif" font-size="10.00">#</text>
<text xml:space="preserve" text-anchor="start" x="96.62" y="-239.5" font-family="Helvetica,sans-Serif" font-size="10.00">makePrepared()</text>
<text xml:space="preserve" text-anchor="start" x="87" y="-223.5" font-family="Helvetica,sans-Serif" font-size="10.00">#</text>
<text xml:space="preserve" text-anchor="start" x="96.62" y="-223.5" font-family="Helvetica,sans-Serif" font-size="10.00">setValid()</text>
<polygon fill="#666666" stroke="#666666" points="82.62,-555 82.62,-555 199.62,-555 199.62,-555 82.62,-555"/>
<polygon fill="#666666" stroke="#666666" points="82.62,-507 82.62,-507 94.62,-507 94.62,-507 82.62,-507"/>
<polygon fill="#666666" stroke="#666666" points="94.62,-507 94.62,-507 199.62,-507 199.62,-507 94.62,-507"/>
<polygon fill="none" stroke="#666666" points="82.62,-217 82.62,-573 199.62,-573 199.62,-217 82.62,-217"/>
</a>
</g>
</g>
<!-- Node2&#45;&gt;Node1 -->
<g id="edge1_Node000001_Node000002" class="edge">
<title>Node2&#45;&gt;Node1</title>
<g id="a_edge1_Node000001_Node000002"><a xlink:title=" ">
<path fill="none" stroke="#63b8ff" d="M141.12,-205.93C141.12,-197.02 141.12,-188.29 141.12,-179.87"/>
<polygon fill="none" stroke="#63b8ff" points="137.63,-205.79 141.13,-215.79 144.63,-205.79 137.63,-205.79"/>
</a>
</g>
</g>
<!-- Node3 -->
<g id="Node000003" class="node">
<title>Node3</title>
<g id="a_Node000003"><a xlink:title=" ">
<polygon fill="white" stroke="none" points="219.38,-691 62.88,-691 62.88,-627 219.38,-627 219.38,-691"/>
<text xml:space="preserve" text-anchor="start" x="66.88" y="-677.5" font-family="Helvetica,sans-Serif" font-size="10.00">std::map&lt; std::string,</text>
<text xml:space="preserve" text-anchor="start" x="66.88" y="-665.5" font-family="Helvetica,sans-Serif" font-size="10.00"> anch::sql::PreparedStatement * &gt;</text>
<text xml:space="preserve" text-anchor="start" x="139.62" y="-649.5" font-family="Helvetica,sans-Serif" font-size="10.00"> </text>
<text xml:space="preserve" text-anchor="start" x="139.62" y="-633.5" font-family="Helvetica,sans-Serif" font-size="10.00"> </text>
<polygon fill="#666666" stroke="#666666" points="62.88,-661 62.88,-661 219.38,-661 219.38,-661 62.88,-661"/>
<polygon fill="#666666" stroke="#666666" points="62.88,-645 62.88,-645 219.38,-645 219.38,-645 62.88,-645"/>
<polygon fill="none" stroke="#666666" points="62.88,-627 62.88,-691 219.38,-691 219.38,-627 62.88,-627"/>
</a>
</g>
</g>
<!-- Node3&#45;&gt;Node2 -->
<g id="edge2_Node000002_Node000003" class="edge">
<title>Node3&#45;&gt;Node2</title>
<g id="a_edge2_Node000002_Node000003"><a xlink:title=" ">
<path fill="none" stroke="#63b8ff" d="M141.12,-627.17C141.12,-615.54 141.12,-601.29 141.12,-585.63"/>
<polygon fill="none" stroke="#63b8ff" points="141.13,-585.7 137.13,-579.7 141.13,-573.7 145.13,-579.7 141.13,-585.7"/>
</a>
</g>
<text xml:space="preserve" text-anchor="start" x="144.12" y="-596.5" font-family="Helvetica,sans-Serif" font-size="10.00" fill="grey">#_stmts</text>
</g>
<!-- Node4 -->
<g id="Node000004" class="node">
<title>Node4</title>
<g id="a_Node000004"><a xlink:title=" ">
<polygon fill="white" stroke="none" points="205.88,-1309 154.38,-1309 154.38,-1257 205.88,-1257 205.88,-1309"/>
<text xml:space="preserve" text-anchor="start" x="158.38" y="-1295.5" font-family="Helvetica,sans-Serif" font-size="10.00">std::string</text>
<text xml:space="preserve" text-anchor="start" x="178.62" y="-1279.5" font-family="Helvetica,sans-Serif" font-size="10.00"> </text>
<text xml:space="preserve" text-anchor="start" x="178.62" y="-1263.5" font-family="Helvetica,sans-Serif" font-size="10.00"> </text>
<polygon fill="#666666" stroke="#666666" points="154.38,-1291 154.38,-1291 205.88,-1291 205.88,-1291 154.38,-1291"/>
<polygon fill="#666666" stroke="#666666" points="154.38,-1275 154.38,-1275 205.88,-1275 205.88,-1275 154.38,-1275"/>
<polygon fill="none" stroke="#666666" points="154.38,-1257 154.38,-1309 205.88,-1309 205.88,-1257 154.38,-1257"/>
</a>
</g>
</g>
<!-- Node4&#45;&gt;Node3 -->
<g id="edge3_Node000003_Node000004" class="edge">
<title>Node4&#45;&gt;Node3</title>
<g id="a_edge3_Node000003_Node000004"><a xlink:title=" ">
<path fill="none" stroke="#63b8ff" d="M205.54,-1263.68C212.96,-1256.86 220.15,-1248.45 224.12,-1239 229.99,-1225.07 224.21,-1220.11 224.12,-1205 223.01,-1000.55 275.57,-941.51 219.12,-745 214.23,-727.96 203.4,-712.54 191.31,-699.66"/>
<polygon fill="none" stroke="#63b8ff" points="191.5,-699.85 184.43,-698.45 183,-691.38 190.07,-692.78 191.5,-699.85"/>
</a>
</g>
<text xml:space="preserve" text-anchor="start" x="233.99" y="-1084.5" font-family="Helvetica,sans-Serif" font-size="10.00" fill="grey">+keys</text>
</g>
<!-- Node7 -->
<g id="Node000007" class="node">
<title>Node7</title>
<g id="a_Node000007"><a xlink:title=" ">
<polygon fill="white" stroke="none" points="210.5,-1187 117.75,-1187 117.75,-1123 210.5,-1123 210.5,-1187"/>
<text xml:space="preserve" text-anchor="start" x="121.75" y="-1173.5" font-family="Helvetica,sans-Serif" font-size="10.00">std::map&lt; std::size</text>
<text xml:space="preserve" text-anchor="start" x="130.75" y="-1161.5" font-family="Helvetica,sans-Serif" font-size="10.00">_t, std::string &gt;</text>
<text xml:space="preserve" text-anchor="start" x="135.19" y="-1145.5" font-family="Helvetica,sans-Serif" font-size="10.00">+</text>
<text xml:space="preserve" text-anchor="start" x="158.62" y="-1145.5" font-family="Helvetica,sans-Serif" font-size="10.00">keys</text>
<text xml:space="preserve" text-anchor="start" x="162.62" y="-1129.5" font-family="Helvetica,sans-Serif" font-size="10.00"> </text>
<polygon fill="#666666" stroke="#666666" points="117.75,-1157 117.75,-1157 210.5,-1157 210.5,-1157 117.75,-1157"/>
<polygon fill="#666666" stroke="#666666" points="117.75,-1141 117.75,-1141 156.62,-1141 156.62,-1141 117.75,-1141"/>
<polygon fill="#666666" stroke="#666666" points="156.62,-1141 156.62,-1141 210.5,-1141 210.5,-1141 156.62,-1141"/>
<polygon fill="none" stroke="#666666" points="117.75,-1123 117.75,-1187 210.5,-1187 210.5,-1123 117.75,-1123"/>
</a>
</g>
</g>
<!-- Node4&#45;&gt;Node7 -->
<g id="edge7_Node000007_Node000004" class="edge">
<title>Node4&#45;&gt;Node7</title>
<g id="a_edge7_Node000007_Node000004"><a xlink:title=" ">
<path fill="none" stroke="#63b8ff" d="M175.28,-1257.04C174.23,-1251.14 173.19,-1244.86 172.38,-1239 170.59,-1226.23 169.05,-1212.3 167.8,-1199.56"/>
<polygon fill="none" stroke="#63b8ff" points="167.81,-1199.66 163.27,-1194.06 166.69,-1187.71 171.23,-1193.31 167.81,-1199.66"/>
</a>
</g>
<text xml:space="preserve" text-anchor="start" x="175.38" y="-1218.5" font-family="Helvetica,sans-Serif" font-size="10.00" fill="grey">+elements</text>
</g>
<!-- Node5 -->
<g id="Node000005" class="node">
<title>Node5</title>
<g id="a_Node000005"><a xlink:title=" ">
<polygon fill="white" stroke="none" points="223.12,-1427 137.12,-1427 137.12,-1363 223.12,-1363 223.12,-1427"/>
<text xml:space="preserve" text-anchor="start" x="141.12" y="-1413.5" font-family="Helvetica,sans-Serif" font-size="10.00">std::basic_string&lt;</text>
<text xml:space="preserve" text-anchor="start" x="163.62" y="-1401.5" font-family="Helvetica,sans-Serif" font-size="10.00"> Char &gt;</text>
<text xml:space="preserve" text-anchor="start" x="178.62" y="-1385.5" font-family="Helvetica,sans-Serif" font-size="10.00"> </text>
<text xml:space="preserve" text-anchor="start" x="178.62" y="-1369.5" font-family="Helvetica,sans-Serif" font-size="10.00"> </text>
<polygon fill="#666666" stroke="#666666" points="137.12,-1397 137.12,-1397 223.12,-1397 223.12,-1397 137.12,-1397"/>
<polygon fill="#666666" stroke="#666666" points="137.12,-1381 137.12,-1381 223.12,-1381 223.12,-1381 137.12,-1381"/>
<polygon fill="none" stroke="#666666" points="137.12,-1363 137.12,-1427 223.12,-1427 223.12,-1363 137.12,-1363"/>
</a>
</g>
</g>
<!-- Node5&#45;&gt;Node4 -->
<g id="edge4_Node000004_Node000005" class="edge">
<title>Node5&#45;&gt;Node4</title>
<g id="a_edge4_Node000004_Node000005"><a xlink:title=" ">
<path fill="none" stroke="#63b8ff" d="M180.12,-1351.77C180.12,-1337.25 180.12,-1321.47 180.12,-1308.79"/>
<polygon fill="none" stroke="#63b8ff" points="176.63,-1351.55 180.13,-1361.55 183.63,-1351.55 176.63,-1351.55"/>
</a>
</g>
</g>
<!-- Node6 -->
<g id="Node000006" class="node">
<title>Node6</title>
<g id="a_Node000006"><a xlink:href="classanch_1_1sql_1_1_prepared_statement.html" target="_top" xlink:title="SQL prepared statement.">
<polygon fill="white" stroke="none" points="210,-1053 72.25,-1053 72.25,-745 210,-745 210,-1053"/>
<text xml:space="preserve" text-anchor="start" x="76.25" y="-1039.5" font-family="Helvetica,sans-Serif" font-size="10.00">anch::sql::PreparedStatement</text>
<text xml:space="preserve" text-anchor="start" x="82.56" y="-1023.5" font-family="Helvetica,sans-Serif" font-size="10.00">#</text>
<text xml:space="preserve" text-anchor="start" x="98.12" y="-1023.5" font-family="Helvetica,sans-Serif" font-size="10.00">_nbPlaceholders</text>
<text xml:space="preserve" text-anchor="start" x="82.19" y="-1007.5" font-family="Helvetica,sans-Serif" font-size="10.00">+</text>
<text xml:space="preserve" text-anchor="start" x="98.12" y="-1007.5" font-family="Helvetica,sans-Serif" font-size="10.00">PreparedStatement()</text>
<text xml:space="preserve" text-anchor="start" x="82.19" y="-991.5" font-family="Helvetica,sans-Serif" font-size="10.00">+</text>
<text xml:space="preserve" text-anchor="start" x="98.12" y="-991.5" font-family="Helvetica,sans-Serif" font-size="10.00">~PreparedStatement()</text>
<text xml:space="preserve" text-anchor="start" x="82.19" y="-975.5" font-family="Helvetica,sans-Serif" font-size="10.00">+</text>
<text xml:space="preserve" text-anchor="start" x="98.12" y="-975.5" font-family="Helvetica,sans-Serif" font-size="10.00">executeQuery()</text>
<text xml:space="preserve" text-anchor="start" x="82.19" y="-959.5" font-family="Helvetica,sans-Serif" font-size="10.00">+</text>
<text xml:space="preserve" text-anchor="start" x="98.12" y="-959.5" font-family="Helvetica,sans-Serif" font-size="10.00">executeUpdate()</text>
<text xml:space="preserve" text-anchor="start" x="82.19" y="-943.5" font-family="Helvetica,sans-Serif" font-size="10.00">+</text>
<text xml:space="preserve" text-anchor="start" x="98.12" y="-943.5" font-family="Helvetica,sans-Serif" font-size="10.00">set()</text>
<text xml:space="preserve" text-anchor="start" x="82.19" y="-927.5" font-family="Helvetica,sans-Serif" font-size="10.00">+</text>
<text xml:space="preserve" text-anchor="start" x="98.12" y="-927.5" font-family="Helvetica,sans-Serif" font-size="10.00">set()</text>
<text xml:space="preserve" text-anchor="start" x="82.19" y="-911.5" font-family="Helvetica,sans-Serif" font-size="10.00">+</text>
<text xml:space="preserve" text-anchor="start" x="98.12" y="-911.5" font-family="Helvetica,sans-Serif" font-size="10.00">set()</text>
<text xml:space="preserve" text-anchor="start" x="82.19" y="-895.5" font-family="Helvetica,sans-Serif" font-size="10.00">+</text>
<text xml:space="preserve" text-anchor="start" x="98.12" y="-895.5" font-family="Helvetica,sans-Serif" font-size="10.00">set()</text>
<text xml:space="preserve" text-anchor="start" x="82.19" y="-879.5" font-family="Helvetica,sans-Serif" font-size="10.00">+</text>
<text xml:space="preserve" text-anchor="start" x="98.12" y="-879.5" font-family="Helvetica,sans-Serif" font-size="10.00">set()</text>
<text xml:space="preserve" text-anchor="start" x="82.19" y="-863.5" font-family="Helvetica,sans-Serif" font-size="10.00">+</text>
<text xml:space="preserve" text-anchor="start" x="98.12" y="-863.5" font-family="Helvetica,sans-Serif" font-size="10.00">set()</text>
<text xml:space="preserve" text-anchor="start" x="82.19" y="-847.5" font-family="Helvetica,sans-Serif" font-size="10.00">+</text>
<text xml:space="preserve" text-anchor="start" x="98.12" y="-847.5" font-family="Helvetica,sans-Serif" font-size="10.00">set()</text>
<text xml:space="preserve" text-anchor="start" x="82.19" y="-831.5" font-family="Helvetica,sans-Serif" font-size="10.00">+</text>
<text xml:space="preserve" text-anchor="start" x="98.12" y="-831.5" font-family="Helvetica,sans-Serif" font-size="10.00">set()</text>
<text xml:space="preserve" text-anchor="start" x="82.19" y="-815.5" font-family="Helvetica,sans-Serif" font-size="10.00">+</text>
<text xml:space="preserve" text-anchor="start" x="98.12" y="-815.5" font-family="Helvetica,sans-Serif" font-size="10.00">set()</text>
<text xml:space="preserve" text-anchor="start" x="82.19" y="-799.5" font-family="Helvetica,sans-Serif" font-size="10.00">+</text>
<text xml:space="preserve" text-anchor="start" x="98.12" y="-799.5" font-family="Helvetica,sans-Serif" font-size="10.00">set()</text>
<text xml:space="preserve" text-anchor="start" x="82.19" y="-783.5" font-family="Helvetica,sans-Serif" font-size="10.00">+</text>
<text xml:space="preserve" text-anchor="start" x="98.12" y="-783.5" font-family="Helvetica,sans-Serif" font-size="10.00">set()</text>
<text xml:space="preserve" text-anchor="start" x="82.56" y="-767.5" font-family="Helvetica,sans-Serif" font-size="10.00">#</text>
<text xml:space="preserve" text-anchor="start" x="98.12" y="-767.5" font-family="Helvetica,sans-Serif" font-size="10.00">getPlaceholders()</text>
<text xml:space="preserve" text-anchor="start" x="82.56" y="-751.5" font-family="Helvetica,sans-Serif" font-size="10.00">#</text>
<text xml:space="preserve" text-anchor="start" x="98.12" y="-751.5" font-family="Helvetica,sans-Serif" font-size="10.00">checkIndex()</text>
<polygon fill="#666666" stroke="#666666" points="72.25,-1035 72.25,-1035 210,-1035 210,-1035 72.25,-1035"/>
<polygon fill="#666666" stroke="#666666" points="72.25,-1019 72.25,-1019 96.12,-1019 96.12,-1019 72.25,-1019"/>
<polygon fill="#666666" stroke="#666666" points="96.12,-1019 96.12,-1019 210,-1019 210,-1019 96.12,-1019"/>
<polygon fill="none" stroke="#666666" points="72.25,-745 72.25,-1053 210,-1053 210,-745 72.25,-745"/>
</a>
</g>
</g>
<!-- Node6&#45;&gt;Node3 -->
<g id="edge5_Node000003_Node000006" class="edge">
<title>Node6&#45;&gt;Node3</title>
<g id="a_edge5_Node000003_Node000006"><a xlink:title=" ">
<path fill="none" stroke="#63b8ff" d="M141.12,-745.25C141.12,-730.23 141.12,-715.99 141.12,-703.6"/>
<polygon fill="none" stroke="#63b8ff" points="141.13,-703.83 137.13,-697.83 141.13,-691.83 145.13,-697.83 141.13,-703.83"/>
</a>
</g>
<text xml:space="preserve" text-anchor="start" x="144.12" y="-714.5" font-family="Helvetica,sans-Serif" font-size="10.00" fill="grey">+elements</text>
</g>
<!-- Node7&#45;&gt;Node6 -->
<g id="edge6_Node000006_Node000007" class="edge">
<title>Node7&#45;&gt;Node6</title>
<g id="a_edge6_Node000006_Node000007"><a xlink:title=" ">
<path fill="none" stroke="#63b8ff" d="M161.33,-1123.11C159.93,-1107.64 158.11,-1087.58 156.14,-1065.84"/>
<polygon fill="none" stroke="#63b8ff" points="156.13,-1065.72 151.61,-1060.11 155.05,-1053.77 159.57,-1059.39 156.13,-1065.72"/>
</a>
</g>
<text xml:space="preserve" text-anchor="start" x="162.16" y="-1084.5" font-family="Helvetica,sans-Serif" font-size="10.00" fill="grey">#_values</text>
</g>
<!-- Node8 -->
<g id="Node000008" class="node">
<title>Node8</title>
<g id="a_Node000008"><a xlink:title=" ">
<polygon fill="white" stroke="none" points="82.25,-1309 0,-1309 0,-1257 82.25,-1257 82.25,-1309"/>
<text xml:space="preserve" text-anchor="start" x="4" y="-1295.5" font-family="Helvetica,sans-Serif" font-size="10.00">std::map&lt; K, T &gt;</text>
<text xml:space="preserve" text-anchor="start" x="39.62" y="-1279.5" font-family="Helvetica,sans-Serif" font-size="10.00"> </text>
<text xml:space="preserve" text-anchor="start" x="39.62" y="-1263.5" font-family="Helvetica,sans-Serif" font-size="10.00"> </text>
<polygon fill="#666666" stroke="#666666" points="0,-1291 0,-1291 82.25,-1291 82.25,-1291 0,-1291"/>
<polygon fill="#666666" stroke="#666666" points="0,-1275 0,-1275 82.25,-1275 82.25,-1275 0,-1275"/>
<polygon fill="none" stroke="#666666" points="0,-1257 0,-1309 82.25,-1309 82.25,-1257 0,-1257"/>
</a>
</g>
</g>
<!-- Node8&#45;&gt;Node3 -->
<g id="edge11_Node000003_Node000008" class="edge">
<title>Node8&#45;&gt;Node3</title>
<g id="a_edge11_Node000003_Node000008"><a xlink:title=" ">
<path fill="none" stroke="orange" d="M33.42,-1245.94C16.1,-1156.1 -18.34,-917.12 63.12,-745 72.81,-724.54 89.14,-705.58 104.36,-690.79"/>
<polygon fill="orange" stroke="orange" points="29.97,-1246.51 35.34,-1255.64 36.83,-1245.15 29.97,-1246.51"/>
</a>
</g>
<text xml:space="preserve" text-anchor="start" x="17.51" y="-1092.5" font-family="Helvetica,sans-Serif" font-size="10.00" fill="grey">&lt; std::string, anch</text>
<text xml:space="preserve" text-anchor="start" x="17.51" y="-1076.5" font-family="Helvetica,sans-Serif" font-size="10.00" fill="grey">  ::sql::PreparedStatement * &gt;</text>
</g>
<!-- Node8&#45;&gt;Node7 -->
<g id="edge8_Node000007_Node000008" class="edge">
<title>Node8&#45;&gt;Node7</title>
<g id="a_edge8_Node000007_Node000008"><a xlink:title=" ">
<path fill="none" stroke="orange" d="M55.78,-1246.95C62.84,-1232.82 72.32,-1217.04 83.88,-1205 93.59,-1194.87 105.84,-1186.02 117.82,-1178.72"/>
<polygon fill="orange" stroke="orange" points="52.62,-1245.45 51.5,-1255.98 58.94,-1248.45 52.62,-1245.45"/>
</a>
</g>
<text xml:space="preserve" text-anchor="start" x="86.88" y="-1226.5" font-family="Helvetica,sans-Serif" font-size="10.00" fill="grey">&lt; std::size_t, std</text>
<text xml:space="preserve" text-anchor="start" x="86.88" y="-1210.5" font-family="Helvetica,sans-Serif" font-size="10.00" fill="grey">  ::string &gt;</text>
</g>
<!-- Node9 -->
<g id="Node000009" class="node">
<title>Node9</title>
<g id="a_Node000009"><a xlink:title=" ">
<polygon fill="white" stroke="none" points="43.5,-1421 28.75,-1421 28.75,-1369 43.5,-1369 43.5,-1421"/>
<text xml:space="preserve" text-anchor="start" x="32.75" y="-1407.5" font-family="Helvetica,sans-Serif" font-size="10.00">K</text>
<text xml:space="preserve" text-anchor="start" x="34.62" y="-1391.5" font-family="Helvetica,sans-Serif" font-size="10.00"> </text>
<text xml:space="preserve" text-anchor="start" x="34.62" y="-1375.5" font-family="Helvetica,sans-Serif" font-size="10.00"> </text>
<polygon fill="#bfbfbf" stroke="#bfbfbf" points="28.75,-1403 28.75,-1403 43.5,-1403 43.5,-1403 28.75,-1403"/>
<polygon fill="#bfbfbf" stroke="#bfbfbf" points="28.75,-1387 28.75,-1387 43.5,-1387 43.5,-1387 28.75,-1387"/>
<polygon fill="none" stroke="#bfbfbf" points="28.75,-1369 28.75,-1421 43.5,-1421 43.5,-1369 28.75,-1369"/>
</a>
</g>
</g>
<!-- Node9&#45;&gt;Node8 -->
<g id="edge9_Node000008_Node000009" class="edge">
<title>Node9&#45;&gt;Node8</title>
<g id="a_edge9_Node000008_Node000009"><a xlink:title=" ">
<path fill="none" stroke="#63b8ff" d="M36.04,-1369.17C36.11,-1356.53 36.37,-1340.94 37.12,-1327 37.21,-1325.36 37.32,-1323.68 37.43,-1321.99"/>
<polygon fill="none" stroke="#63b8ff" points="37.44,-1321.85 33.93,-1315.55 38.4,-1309.89 41.91,-1316.19 37.44,-1321.85"/>
</a>
</g>
<text xml:space="preserve" text-anchor="start" x="40.12" y="-1332.5" font-family="Helvetica,sans-Serif" font-size="10.00" fill="grey">+keys</text>
</g>
<!-- Node10 -->
<g id="Node000010" class="node">
<title>Node10</title>
<g id="a_Node000010"><a xlink:title=" ">
<polygon fill="white" stroke="none" points="99.12,-1421 85.12,-1421 85.12,-1369 99.12,-1369 99.12,-1421"/>
<text xml:space="preserve" text-anchor="start" x="89.12" y="-1407.5" font-family="Helvetica,sans-Serif" font-size="10.00">T</text>
<text xml:space="preserve" text-anchor="start" x="90.62" y="-1391.5" font-family="Helvetica,sans-Serif" font-size="10.00"> </text>
<text xml:space="preserve" text-anchor="start" x="90.62" y="-1375.5" font-family="Helvetica,sans-Serif" font-size="10.00"> </text>
<polygon fill="#bfbfbf" stroke="#bfbfbf" points="85.12,-1403 85.12,-1403 99.12,-1403 99.12,-1403 85.12,-1403"/>
<polygon fill="#bfbfbf" stroke="#bfbfbf" points="85.12,-1387 85.12,-1387 99.12,-1387 99.12,-1387 85.12,-1387"/>
<polygon fill="none" stroke="#bfbfbf" points="85.12,-1369 85.12,-1421 99.12,-1421 99.12,-1369 85.12,-1369"/>
</a>
</g>
</g>
<!-- Node10&#45;&gt;Node8 -->
<g id="edge10_Node000008_Node000010" class="edge">
<title>Node10&#45;&gt;Node8</title>
<g id="a_edge10_Node000008_Node000010"><a xlink:title=" ">
<path fill="none" stroke="#63b8ff" d="M85.75,-1369.17C82,-1356.26 76.69,-1340.41 70.12,-1327 68.95,-1324.6 67.66,-1322.18 66.29,-1319.77"/>
<polygon fill="none" stroke="#63b8ff" points="66.28,-1319.75 59.72,-1316.74 59.98,-1309.53 66.54,-1312.54 66.28,-1319.75"/>
</a>
</g>
<text xml:space="preserve" text-anchor="start" x="80.71" y="-1332.5" font-family="Helvetica,sans-Serif" font-size="10.00" fill="grey">+elements</text>
</g>
</g>
</svg>
