<?xml version="1.0" encoding="UTF-8" standalone="no"?>
<!DOCTYPE svg PUBLIC "-//W3C//DTD SVG 1.1//EN"
 "http://www.w3.org/Graphics/SVG/1.1/DTD/svg11.dtd">
<!-- Generated by graphviz version 12.2.1 (0)
 -->
<!-- Title: anch::crypto::MD5 Pages: 1 -->
<!--zoomable 673 -->

<svg id="main" version="1.1" xmlns="http://www.w3.org/2000/svg" xmlns:xlink="http://www.w3.org/1999/xlink" xml:space="preserve" onload="init(evt)">

<style type="text/css"><![CDATA[
.node, .edge {opacity: 0.7;}
.node.selected, .edge.selected {opacity: 1;}
.edge:hover path { stroke: red; }
.edge:hover polygon { stroke: red; fill: red; }
]]></style>

<defs>
  <circle id="rim" cx="0" cy="0" r="7"/>
  <circle id="rim2" cx="0" cy="0" r="3.5"/>
  <g id="zoomPlus">
    <use xlink:href="#rim" fill="#404040"><set attributeName="fill" to="#808080" begin="zoomplus.mouseover" end="zoomplus.mouseout"/></use>
    <path d="M-4,0h8M0,-4v8" fill="none" stroke="white" stroke-width="1.5" pointer-events="none"/>
  </g>
  <g id="zoomMin">
    <use xlink:href="#rim" fill="#404040"><set attributeName="fill" to="#808080" begin="zoomminus.mouseover" end="zoomminus.mouseout"/></use>
    <path d="M-4,0h8" fill="none" stroke="white" stroke-width="1.5" pointer-events="none"/>
  </g>
  <g id="arrowUp" transform="translate(30 24)">
    <use xlink:href="#rim"/>
    <path pointer-events="none" fill="none" stroke="white" stroke-width="1.5" d="M0,-3.0v7 M-2.5,-0.5L0,-3.0L2.5,-0.5"/>
  </g>
  <g id="arrowRight" transform="rotate(90) translate(36 -43)">
    <use xlink:href="#rim"/>
    <path pointer-events="none" fill="none" stroke="white" stroke-width="1.5" d="M0,-3.0v7 M-2.5,-0.5L0,-3.0L2.5,-0.5"/>
  </g>
  <g id="arrowDown" transform="rotate(180) translate(-30 -48)">
    <use xlink:href="#rim"/>
    <path pointer-events="none" fill="none" stroke="white" stroke-width="1.5" d="M0,-3.0v7 M-2.5,-0.5L0,-3.0L2.5,-0.5"/>
  </g>
  <g id="arrowLeft" transform="rotate(270) translate(-36 17)">
    <use xlink:href="#rim"/>
    <path pointer-events="none" fill="none" stroke="white" stroke-width="1.5" d="M0,-3.0v7 M-2.5,-0.5L0,-3.0L2.5,-0.5"/>
  </g>
  <g id="resetDef">
    <use xlink:href="#rim2" fill="#404040"><set attributeName="fill" to="#808080" begin="reset.mouseover" end="reset.mouseout"/></use>
  </g>
</defs>
<script type="application/ecmascript">
var viewWidth = 102;
var viewHeight = 673;
var sectionId = 'dynsection-0';
</script>
<script type="application/ecmascript" xlink:href="svg.min.js"/>
<svg id="graph" class="graph">
<g id="viewport">
<title>anch::crypto::MD5</title>
<!-- Node1 -->
<g id="Node000001" class="node">
<title>Node1</title>
<g id="a_Node000001"><a xlink:title="MD5 hash algorithm implementation.">
<polygon fill="#999999" stroke="none" points="90.12,-164 1.12,-164 1.12,0 90.12,0 90.12,-164"/>
<text text-anchor="start" x="5.12" y="-150.5" font-family="Helvetica,sans-Serif" font-size="10.00">anch::crypto::MD5</text>
<text text-anchor="start" x="44.12" y="-134.5" font-family="Helvetica,sans-Serif" font-size="10.00"> </text>
<text text-anchor="start" x="12.19" y="-118.5" font-family="Helvetica,sans-Serif" font-size="10.00">+</text>
<text text-anchor="start" x="29.25" y="-118.5" font-family="Helvetica,sans-Serif" font-size="10.00">MD5()</text>
<text text-anchor="start" x="12.19" y="-102.5" font-family="Helvetica,sans-Serif" font-size="10.00">+</text>
<text text-anchor="start" x="29.25" y="-102.5" font-family="Helvetica,sans-Serif" font-size="10.00">MD5()</text>
<text text-anchor="start" x="12.19" y="-86.5" font-family="Helvetica,sans-Serif" font-size="10.00">+</text>
<text text-anchor="start" x="29.25" y="-86.5" font-family="Helvetica,sans-Serif" font-size="10.00">MD5()</text>
<text text-anchor="start" x="12.19" y="-70.5" font-family="Helvetica,sans-Serif" font-size="10.00">+</text>
<text text-anchor="start" x="29.25" y="-70.5" font-family="Helvetica,sans-Serif" font-size="10.00">~MD5()</text>
<text text-anchor="start" x="12.19" y="-54.5" font-family="Helvetica,sans-Serif" font-size="10.00">+</text>
<text text-anchor="start" x="29.25" y="-54.5" font-family="Helvetica,sans-Serif" font-size="10.00">digest()</text>
<text text-anchor="start" x="12.56" y="-38.5" font-family="Helvetica,sans-Serif" font-size="10.00">#</text>
<text text-anchor="start" x="29.25" y="-38.5" font-family="Helvetica,sans-Serif" font-size="10.00">reset()</text>
<text text-anchor="start" x="12.56" y="-22.5" font-family="Helvetica,sans-Serif" font-size="10.00">#</text>
<text text-anchor="start" x="29.25" y="-22.5" font-family="Helvetica,sans-Serif" font-size="10.00">addData()</text>
<text text-anchor="start" x="12.56" y="-6.5" font-family="Helvetica,sans-Serif" font-size="10.00">#</text>
<text text-anchor="start" x="29.25" y="-6.5" font-family="Helvetica,sans-Serif" font-size="10.00">finalize()</text>
<polygon fill="#666666" stroke="#666666" points="1.12,-146 1.12,-146 90.12,-146 90.12,-146 1.12,-146"/>
<polygon fill="#666666" stroke="#666666" points="1.12,-130 1.12,-130 90.12,-130 90.12,-130 1.12,-130"/>
<polygon fill="none" stroke="#666666" points="1.12,0 1.12,-164 90.12,-164 90.12,0 1.12,0"/>
</a>
</g>
</g>
<!-- Node2 -->
<g id="Node000002" class="node">
<title>Node2</title>
<g id="a_Node000002"><a xlink:href="classanch_1_1crypto_1_1_hash.html" target="_top" xlink:title=" ">
<polygon fill="white" stroke="none" points="91.25,-409 0,-409 0,-201 91.25,-201 91.25,-409"/>
<text text-anchor="start" x="4" y="-395.5" font-family="Helvetica,sans-Serif" font-size="10.00">anch::crypto::Hash</text>
<text text-anchor="start" x="23.12" y="-383.5" font-family="Helvetica,sans-Serif" font-size="10.00">&lt; 16, 64 &gt;</text>
<text text-anchor="start" x="5.62" y="-367.5" font-family="Helvetica,sans-Serif" font-size="10.00">#</text>
<text text-anchor="start" x="16.5" y="-367.5" font-family="Helvetica,sans-Serif" font-size="10.00">_digest</text>
<text text-anchor="start" x="5.25" y="-351.5" font-family="Helvetica,sans-Serif" font-size="10.00">+</text>
<text text-anchor="start" x="16.5" y="-351.5" font-family="Helvetica,sans-Serif" font-size="10.00">digest()</text>
<text text-anchor="start" x="5.25" y="-335.5" font-family="Helvetica,sans-Serif" font-size="10.00">+</text>
<text text-anchor="start" x="16.5" y="-335.5" font-family="Helvetica,sans-Serif" font-size="10.00">digest()</text>
<text text-anchor="start" x="5.25" y="-319.5" font-family="Helvetica,sans-Serif" font-size="10.00">+</text>
<text text-anchor="start" x="16.5" y="-319.5" font-family="Helvetica,sans-Serif" font-size="10.00">digest()</text>
<text text-anchor="start" x="5.25" y="-303.5" font-family="Helvetica,sans-Serif" font-size="10.00">+</text>
<text text-anchor="start" x="16.5" y="-303.5" font-family="Helvetica,sans-Serif" font-size="10.00">digest()</text>
<text text-anchor="start" x="5.25" y="-287.5" font-family="Helvetica,sans-Serif" font-size="10.00">+</text>
<text text-anchor="start" x="16.5" y="-287.5" font-family="Helvetica,sans-Serif" font-size="10.00">digest()</text>
<text text-anchor="start" x="5.25" y="-271.5" font-family="Helvetica,sans-Serif" font-size="10.00">+</text>
<text text-anchor="start" x="16.5" y="-271.5" font-family="Helvetica,sans-Serif" font-size="10.00">getOutputSize()</text>
<text text-anchor="start" x="5.25" y="-255.5" font-family="Helvetica,sans-Serif" font-size="10.00">+</text>
<text text-anchor="start" x="16.5" y="-255.5" font-family="Helvetica,sans-Serif" font-size="10.00">getBlockSize()</text>
<text text-anchor="start" x="5.62" y="-239.5" font-family="Helvetica,sans-Serif" font-size="10.00">#</text>
<text text-anchor="start" x="16.5" y="-239.5" font-family="Helvetica,sans-Serif" font-size="10.00">reset()</text>
<text text-anchor="start" x="5.62" y="-223.5" font-family="Helvetica,sans-Serif" font-size="10.00">#</text>
<text text-anchor="start" x="16.5" y="-223.5" font-family="Helvetica,sans-Serif" font-size="10.00">addData()</text>
<text text-anchor="start" x="5.62" y="-207.5" font-family="Helvetica,sans-Serif" font-size="10.00">#</text>
<text text-anchor="start" x="16.5" y="-207.5" font-family="Helvetica,sans-Serif" font-size="10.00">finalize()</text>
<polygon fill="#666666" stroke="#666666" points="0,-379 0,-379 91.25,-379 91.25,-379 0,-379"/>
<polygon fill="#666666" stroke="#666666" points="0,-363 0,-363 14.5,-363 14.5,-363 0,-363"/>
<polygon fill="#666666" stroke="#666666" points="14.5,-363 14.5,-363 91.25,-363 91.25,-363 14.5,-363"/>
<polygon fill="none" stroke="#666666" points="0,-201 0,-409 91.25,-409 91.25,-201 0,-201"/>
</a>
</g>
</g>
<!-- Node2&#45;&gt;Node1 -->
<g id="edge1_Node000001_Node000002" class="edge">
<title>Node2&#45;&gt;Node1</title>
<g id="a_edge1_Node000001_Node000002"><a xlink:title=" ">
<path fill="none" stroke="#63b8ff" d="M45.62,-189.81C45.62,-181.09 45.62,-172.41 45.62,-163.97"/>
<polygon fill="none" stroke="#63b8ff" points="42.13,-189.75 45.63,-199.75 49.13,-189.75 42.13,-189.75"/>
</a>
</g>
</g>
<!-- Node3 -->
<g id="Node000003" class="node">
<title>Node3</title>
<g id="a_Node000003"><a xlink:href="classanch_1_1crypto_1_1_hash.html" target="_top" xlink:title="Hash algorithm abstract class.">
<polygon fill="white" stroke="none" points="91.25,-665 0,-665 0,-457 91.25,-457 91.25,-665"/>
<text text-anchor="start" x="4" y="-651.5" font-family="Helvetica,sans-Serif" font-size="10.00">anch::crypto::Hash</text>
<text text-anchor="start" x="26.5" y="-639.5" font-family="Helvetica,sans-Serif" font-size="10.00">&lt; O, B &gt;</text>
<text text-anchor="start" x="5.62" y="-623.5" font-family="Helvetica,sans-Serif" font-size="10.00">#</text>
<text text-anchor="start" x="16.5" y="-623.5" font-family="Helvetica,sans-Serif" font-size="10.00">_digest</text>
<text text-anchor="start" x="5.25" y="-607.5" font-family="Helvetica,sans-Serif" font-size="10.00">+</text>
<text text-anchor="start" x="16.5" y="-607.5" font-family="Helvetica,sans-Serif" font-size="10.00">digest()</text>
<text text-anchor="start" x="5.25" y="-591.5" font-family="Helvetica,sans-Serif" font-size="10.00">+</text>
<text text-anchor="start" x="16.5" y="-591.5" font-family="Helvetica,sans-Serif" font-size="10.00">digest()</text>
<text text-anchor="start" x="5.25" y="-575.5" font-family="Helvetica,sans-Serif" font-size="10.00">+</text>
<text text-anchor="start" x="16.5" y="-575.5" font-family="Helvetica,sans-Serif" font-size="10.00">digest()</text>
<text text-anchor="start" x="5.25" y="-559.5" font-family="Helvetica,sans-Serif" font-size="10.00">+</text>
<text text-anchor="start" x="16.5" y="-559.5" font-family="Helvetica,sans-Serif" font-size="10.00">digest()</text>
<text text-anchor="start" x="5.25" y="-543.5" font-family="Helvetica,sans-Serif" font-size="10.00">+</text>
<text text-anchor="start" x="16.5" y="-543.5" font-family="Helvetica,sans-Serif" font-size="10.00">digest()</text>
<text text-anchor="start" x="5.25" y="-527.5" font-family="Helvetica,sans-Serif" font-size="10.00">+</text>
<text text-anchor="start" x="16.5" y="-527.5" font-family="Helvetica,sans-Serif" font-size="10.00">getOutputSize()</text>
<text text-anchor="start" x="5.25" y="-511.5" font-family="Helvetica,sans-Serif" font-size="10.00">+</text>
<text text-anchor="start" x="16.5" y="-511.5" font-family="Helvetica,sans-Serif" font-size="10.00">getBlockSize()</text>
<text text-anchor="start" x="5.62" y="-495.5" font-family="Helvetica,sans-Serif" font-size="10.00">#</text>
<text text-anchor="start" x="16.5" y="-495.5" font-family="Helvetica,sans-Serif" font-size="10.00">reset()</text>
<text text-anchor="start" x="5.62" y="-479.5" font-family="Helvetica,sans-Serif" font-size="10.00">#</text>
<text text-anchor="start" x="16.5" y="-479.5" font-family="Helvetica,sans-Serif" font-size="10.00">addData()</text>
<text text-anchor="start" x="5.62" y="-463.5" font-family="Helvetica,sans-Serif" font-size="10.00">#</text>
<text text-anchor="start" x="16.5" y="-463.5" font-family="Helvetica,sans-Serif" font-size="10.00">finalize()</text>
<polygon fill="#666666" stroke="#666666" points="0,-635 0,-635 91.25,-635 91.25,-635 0,-635"/>
<polygon fill="#666666" stroke="#666666" points="0,-619 0,-619 14.5,-619 14.5,-619 0,-619"/>
<polygon fill="#666666" stroke="#666666" points="14.5,-619 14.5,-619 91.25,-619 91.25,-619 14.5,-619"/>
<polygon fill="none" stroke="#666666" points="0,-457 0,-665 91.25,-665 91.25,-457 0,-457"/>
</a>
</g>
</g>
<!-- Node3&#45;&gt;Node2 -->
<g id="edge2_Node000002_Node000003" class="edge">
<title>Node3&#45;&gt;Node2</title>
<g id="a_edge2_Node000002_Node000003"><a xlink:title=" ">
<path fill="none" stroke="orange" d="M45.62,-445.77C45.62,-433.41 45.62,-420.89 45.62,-408.68"/>
<polygon fill="orange" stroke="orange" points="42.13,-445.54 45.63,-455.54 49.13,-445.54 42.13,-445.54"/>
</a>
</g>
<text text-anchor="middle" x="69.62" y="-429.5" font-family="Helvetica,sans-Serif" font-size="10.00" fill="grey"> &lt; 16, 64 &gt;</text>
</g>
</g>
</svg>

<g id="navigator" transform="translate(0 0)" fill="#404254">
  <rect fill="#f2f5e9" fill-opacity="0.5" stroke="#606060" stroke-width=".5" x="0" y="0" width="60" height="60"/>
  <use id="zoomplus" xlink:href="#zoomPlus" x="17" y="9" onmousedown="handleZoom(evt,'in')"/>
  <use id="zoomminus" xlink:href="#zoomMin" x="42" y="9" onmousedown="handleZoom(evt,'out')"/>
  <use id="reset" xlink:href="#resetDef" x="30" y="36" onmousedown="handleReset()"/>
   <use id="arrowup" xlink:href="#arrowUp" x="0" y="0" onmousedown="handlePan(0,-1)"/>
  <use id="arrowright" xlink:href="#arrowRight" x="0" y="0" onmousedown="handlePan(1,0)"/>
  <use id="arrowdown" xlink:href="#arrowDown" x="0" y="0" onmousedown="handlePan(0,1)"/>
  <use id="arrowleft" xlink:href="#arrowLeft" x="0" y="0" onmousedown="handlePan(-1,0)"/>
</g>
<svg viewBox="0 0 15 15" width="100%" height="30px" preserveAspectRatio="xMaxYMin meet">
 <g id="arrow_out" transform="scale(0.3 0.3)">
  <a xlink:href="classanch_1_1crypto_1_1_m_d5__inherit__graph_org.svg" target="_base">
   <rect id="button" ry="5" rx="5" y="6" x="6" height="38" width="38"
        fill="#f2f5e9" fill-opacity="0.5" stroke="#606060" stroke-width="1.0"/>
   <path id="arrow"
     d="M 11.500037,31.436501 C 11.940474,20.09759 22.043105,11.32322 32.158766,21.979434 L 37.068811,17.246167 C 37.068811,17.246167 37.088388,32 37.088388,32 L 22.160133,31.978069 C 22.160133,31.978069 26.997745,27.140456 26.997745,27.140456 C 18.528582,18.264221 13.291696,25.230495 11.500037,31.436501 z"
     style="fill:#404040;"/>
  </a>
 </g>
</svg>

<style type='text/css'>
<![CDATA[
[data-mouse-over-selected='false'] { opacity: 0.7; }
[data-mouse-over-selected='true']  { opacity: 1.0; }
]]>
</style>
<script type="application/ecmascript"><![CDATA[
document.addEventListener('DOMContentLoaded', (event) => {
  highlightEdges();
  highlightAdjacentNodes();
});
]]></script>
</svg>
