<?xml version="1.0" encoding="UTF-8" standalone="no"?>
<!DOCTYPE svg PUBLIC "-//W3C//DTD SVG 1.1//EN"
 "http://www.w3.org/Graphics/SVG/1.1/DTD/svg11.dtd">
<!-- Generated by graphviz version 2.40.1 (20161225.0304)
 -->
<!-- Title: anch::events::Observer&lt; Event &gt; Pages: 1 -->
<svg width="379pt" height="226pt"
 viewBox="0.00 0.00 378.50 226.00" xmlns="http://www.w3.org/2000/svg" xmlns:xlink="http://www.w3.org/1999/xlink">
<g id="graph0" class="graph" transform="scale(1 1) rotate(0) translate(4 222)">
<title>anch::events::Observer&lt; Event &gt;</title>
<!-- Node0 -->
<g id="node1" class="node">
<title>Node0</title>
<polygon fill="#bfbfbf" stroke="#000000" points="101,-149.5 101,-217.5 230,-217.5 230,-149.5 101,-149.5"/>
<text text-anchor="start" x="109" y="-205.5" font-family="Helvetica,sans-Serif" font-size="10.00" fill="#000000">anch::events::Observer</text>
<text text-anchor="middle" x="165.5" y="-194.5" font-family="Helvetica,sans-Serif" font-size="10.00" fill="#000000">&lt; Event &gt;</text>
<polyline fill="none" stroke="#000000" points="101,-187.5 230,-187.5 "/>
<text text-anchor="middle" x="165.5" y="-175.5" font-family="Helvetica,sans-Serif" font-size="10.00" fill="#000000"> </text>
<polyline fill="none" stroke="#000000" points="101,-168.5 230,-168.5 "/>
<text text-anchor="start" x="109" y="-156.5" font-family="Helvetica,sans-Serif" font-size="10.00" fill="#000000">+ notify()</text>
</g>
<!-- Node1 -->
<g id="node2" class="node">
<title>Node1</title>
<g id="a_node2"><a xlink:href="classanch_1_1events_1_1_event_handler.html" target="_top" xlink:title="An event handler. ">
<polygon fill="none" stroke="#000000" points="0,-.5 0,-101.5 151,-101.5 151,-.5 0,-.5"/>
<text text-anchor="start" x="8" y="-89.5" font-family="Helvetica,sans-Serif" font-size="10.00" fill="#000000">anch::events::EventHandler</text>
<text text-anchor="middle" x="75.5" y="-78.5" font-family="Helvetica,sans-Serif" font-size="10.00" fill="#000000">&lt; Event &gt;</text>
<polyline fill="none" stroke="#000000" points="0,-71.5 151,-71.5 "/>
<text text-anchor="middle" x="75.5" y="-59.5" font-family="Helvetica,sans-Serif" font-size="10.00" fill="#000000"> </text>
<polyline fill="none" stroke="#000000" points="0,-52.5 151,-52.5 "/>
<text text-anchor="start" x="8" y="-40.5" font-family="Helvetica,sans-Serif" font-size="10.00" fill="#000000">+ EventHandler()</text>
<text text-anchor="start" x="8" y="-29.5" font-family="Helvetica,sans-Serif" font-size="10.00" fill="#000000">+ EventHandler()</text>
<text text-anchor="start" x="8" y="-18.5" font-family="Helvetica,sans-Serif" font-size="10.00" fill="#000000">+ ~EventHandler()</text>
<text text-anchor="start" x="8" y="-7.5" font-family="Helvetica,sans-Serif" font-size="10.00" fill="#000000">+ notify()</text>
</a>
</g>
</g>
<!-- Node0&#45;&gt;Node1 -->
<g id="edge1" class="edge">
<title>Node0&#45;&gt;Node1</title>
<path fill="none" stroke="#191970" d="M136.5786,-140.9212C128.0506,-128.3661 118.6355,-114.5051 109.804,-101.5031"/>
<polygon fill="none" stroke="#191970" points="133.8086,-143.0724 142.3228,-149.378 139.5992,-139.1392 133.8086,-143.0724"/>
</g>
<!-- Node2 -->
<g id="node3" class="node">
<title>Node2</title>
<g id="a_node3"><a xlink:href="classanch_1_1events_1_1_observer.html" target="_top" xlink:title="{anch::events::Observer\l\&lt; anch::network::SocketEvent \&gt;\n||+ notify()\l}">
<polygon fill="none" stroke="#000000" points="169,-17 169,-85 344,-85 344,-17 169,-17"/>
<text text-anchor="start" x="177" y="-73" font-family="Helvetica,sans-Serif" font-size="10.00" fill="#000000">anch::events::Observer</text>
<text text-anchor="middle" x="256.5" y="-62" font-family="Helvetica,sans-Serif" font-size="10.00" fill="#000000">&lt; anch::network::SocketEvent &gt;</text>
<polyline fill="none" stroke="#000000" points="169,-55 344,-55 "/>
<text text-anchor="middle" x="256.5" y="-43" font-family="Helvetica,sans-Serif" font-size="10.00" fill="#000000"> </text>
<polyline fill="none" stroke="#000000" points="169,-36 344,-36 "/>
<text text-anchor="start" x="177" y="-24" font-family="Helvetica,sans-Serif" font-size="10.00" fill="#000000">+ notify()</text>
</a>
</g>
</g>
<!-- Node0&#45;&gt;Node2 -->
<g id="edge2" class="edge">
<title>Node0&#45;&gt;Node2</title>
<path fill="none" stroke="#ffa500" d="M194.8528,-140.761C207.248,-122.7131 221.4803,-101.9903 233.1447,-85.0064"/>
<polygon fill="#ffa500" stroke="#ffa500" points="191.711,-139.1533 188.9348,-149.378 197.4812,-143.1163 191.711,-139.1533"/>
<text text-anchor="middle" x="289.5" y="-123" font-family="Helvetica,sans-Serif" font-size="10.00" fill="#000000"> &lt; anch::network::SocketEvent &gt;</text>
</g>
</g>
</svg>
