<?xml version="1.0" encoding="UTF-8" standalone="no"?>
<!DOCTYPE svg PUBLIC "-//W3C//DTD SVG 1.1//EN"
 "http://www.w3.org/Graphics/SVG/1.1/DTD/svg11.dtd">
<!-- Generated by graphviz version 13.1.0 (0)
 -->
<!-- Title: anch::date::InvalidFormatException Pages: 1 -->
<svg width="141pt" height="192pt"
 viewBox="0.00 0.00 141.00 192.00" xmlns="http://www.w3.org/2000/svg" xmlns:xlink="http://www.w3.org/1999/xlink">
<g id="graph0" class="graph" transform="scale(1 1) rotate(0) translate(4 188)">
<title>anch::date::InvalidFormatException</title>
<!-- Node1 -->
<g id="Node000001" class="node">
<title>Node1</title>
<g id="a_Node000001"><a xlink:title="Invalid date format error.">
<polygon fill="#999999" stroke="none" points="132.75,-96 0,-96 0,0 132.75,0 132.75,-96"/>
<text xml:space="preserve" text-anchor="start" x="10.88" y="-82.5" font-family="Helvetica,sans-Serif" font-size="10.00">anch::date::InvalidFormat</text>
<text xml:space="preserve" text-anchor="start" x="44.62" y="-70.5" font-family="Helvetica,sans-Serif" font-size="10.00">Exception</text>
<text xml:space="preserve" text-anchor="start" x="64.88" y="-54.5" font-family="Helvetica,sans-Serif" font-size="10.00"> </text>
<text xml:space="preserve" text-anchor="start" x="4" y="-38.5" font-family="Helvetica,sans-Serif" font-size="10.00">+</text>
<text xml:space="preserve" text-anchor="start" x="14" y="-38.5" font-family="Helvetica,sans-Serif" font-size="10.00">InvalidFormatException()</text>
<text xml:space="preserve" text-anchor="start" x="4" y="-22.5" font-family="Helvetica,sans-Serif" font-size="10.00">+</text>
<text xml:space="preserve" text-anchor="start" x="14" y="-22.5" font-family="Helvetica,sans-Serif" font-size="10.00">~InvalidFormatException()</text>
<text xml:space="preserve" text-anchor="start" x="4" y="-6.5" font-family="Helvetica,sans-Serif" font-size="10.00">+</text>
<text xml:space="preserve" text-anchor="start" x="14" y="-6.5" font-family="Helvetica,sans-Serif" font-size="10.00">what()</text>
<polygon fill="#666666" stroke="#666666" points="0,-66 0,-66 132.75,-66 132.75,-66 0,-66"/>
<polygon fill="#666666" stroke="#666666" points="0,-50 0,-50 132.75,-50 132.75,-50 0,-50"/>
<polygon fill="none" stroke="#666666" points="0,0 0,-96 132.75,-96 132.75,0 0,0"/>
</a>
</g>
</g>
<!-- Node2 -->
<g id="Node000002" class="node">
<title>Node2</title>
<g id="a_Node000002"><a xlink:title=" ">
<polygon fill="white" stroke="none" points="101.12,-184 31.62,-184 31.62,-132 101.12,-132 101.12,-184"/>
<text xml:space="preserve" text-anchor="start" x="35.62" y="-170.5" font-family="Helvetica,sans-Serif" font-size="10.00">std::exception</text>
<text xml:space="preserve" text-anchor="start" x="64.88" y="-154.5" font-family="Helvetica,sans-Serif" font-size="10.00"> </text>
<text xml:space="preserve" text-anchor="start" x="64.88" y="-138.5" font-family="Helvetica,sans-Serif" font-size="10.00"> </text>
<polygon fill="#666666" stroke="#666666" points="31.62,-166 31.62,-166 101.12,-166 101.12,-166 31.62,-166"/>
<polygon fill="#666666" stroke="#666666" points="31.62,-150 31.62,-150 101.12,-150 101.12,-150 31.62,-150"/>
<polygon fill="none" stroke="#666666" points="31.62,-132 31.62,-184 101.12,-184 101.12,-132 31.62,-132"/>
</a>
</g>
</g>
<!-- Node2&#45;&gt;Node1 -->
<g id="edge1_Node000001_Node000002" class="edge">
<title>Node2&#45;&gt;Node1</title>
<g id="a_edge1_Node000001_Node000002"><a xlink:title=" ">
<path fill="none" stroke="#63b8ff" d="M66.38,-120.93C66.38,-112.86 66.38,-104.19 66.38,-95.75"/>
<polygon fill="none" stroke="#63b8ff" points="62.88,-120.71 66.38,-130.71 69.88,-120.71 62.88,-120.71"/>
</a>
</g>
</g>
</g>
</svg>
