<?xml version="1.0" encoding="UTF-8" standalone="no"?>
<!DOCTYPE svg PUBLIC "-//W3C//DTD SVG 1.1//EN"
 "http://www.w3.org/Graphics/SVG/1.1/DTD/svg11.dtd">
<!-- Generated by graphviz version 12.1.2 (0)
 -->
<!-- Title: anch::logger::LoggerFactory::getLogger Pages: 1 -->
<svg width="375pt" height="198pt"
 viewBox="0.00 0.00 374.50 197.50" xmlns="http://www.w3.org/2000/svg" xmlns:xlink="http://www.w3.org/1999/xlink">

<svg id="main" version="1.1" xmlns="http://www.w3.org/2000/svg" xmlns:xlink="http://www.w3.org/1999/xlink" xml:space="preserve">

<style type="text/css"><![CDATA[
.node, .edge {opacity: 0.7;}
.node.selected, .edge.selected {opacity: 1;}
.edge:hover path { stroke: red; }
.edge:hover polygon { stroke: red; fill: red; }
]]></style>
<script type="application/ecmascript" xlink:href="svg.min.js"/>
<svg id="graph" class="graph">
<g id="graph0" class="graph" transform="scale(1 1) rotate(0) translate(4 193.5)">
<title>anch::logger::LoggerFactory::getLogger</title>
<!-- Node1 -->
<g id="Node000001" class="node">
<title>Node1</title>
<g id="a_Node000001"><a xlink:title=" ">
<polygon fill="#999999" stroke="#666666" points="150.25,-111.5 0,-111.5 0,-78 150.25,-78 150.25,-111.5"/>
<text text-anchor="start" x="8" y="-98" font-family="Helvetica,sans-Serif" font-size="10.00">anch::logger::LoggerFactory</text>
<text text-anchor="middle" x="75.12" y="-85.25" font-family="Helvetica,sans-Serif" font-size="10.00">::getLogger</text>
</a>
</g>
</g>
<!-- Node2 -->
<g id="Node000002" class="node">
<title>Node2</title>
<g id="a_Node000002"><a xlink:href="classanch_1_1logger_1_1_logger_configuration.html#a89ed0eb102b0ca1cb77c3cfe9f974d50" target="_top" xlink:title=" ">
<polygon fill="white" stroke="#666666" points="366.5,-189.5 186.25,-189.5 186.25,-156 366.5,-156 366.5,-189.5"/>
<text text-anchor="start" x="194.25" y="-176" font-family="Helvetica,sans-Serif" font-size="10.00">anch::logger::LoggerConfiguration</text>
<text text-anchor="middle" x="276.38" y="-163.25" font-family="Helvetica,sans-Serif" font-size="10.00">::getCategory</text>
</a>
</g>
</g>
<!-- Node1&#45;&gt;Node2 -->
<g id="edge1_Node000001_Node000002" class="edge">
<title>Node1&#45;&gt;Node2</title>
<g id="a_edge1_Node000001_Node000002"><a xlink:title=" ">
<path fill="none" stroke="#63b8ff" d="M108.79,-111.84C130.4,-122.72 159.56,-136.63 186.25,-146.75 191.17,-148.62 196.29,-150.43 201.47,-152.17"/>
<polygon fill="#63b8ff" stroke="#63b8ff" points="200.12,-155.42 210.71,-155.18 202.29,-148.76 200.12,-155.42"/>
</a>
</g>
</g>
<!-- Node3 -->
<g id="Node000003" class="node">
<title>Node3</title>
<g id="a_Node000003"><a xlink:href="classanch_1_1_singleton.html#a9bc6135289c49f0e855ae4e73922e53b" target="_top" xlink:title=" ">
<polygon fill="white" stroke="#666666" points="361.62,-137.5 191.12,-137.5 191.12,-104 361.62,-104 361.62,-137.5"/>
<text text-anchor="start" x="199.12" y="-124" font-family="Helvetica,sans-Serif" font-size="10.00">anch::Singleton&lt; LoggerFactory</text>
<text text-anchor="middle" x="276.38" y="-111.25" font-family="Helvetica,sans-Serif" font-size="10.00"> &gt;::getInstance</text>
</a>
</g>
</g>
<!-- Node1&#45;&gt;Node3 -->
<g id="edge2_Node000001_Node000003" class="edge">
<title>Node1&#45;&gt;Node3</title>
<g id="a_edge2_Node000001_Node000003"><a xlink:title=" ">
<path fill="none" stroke="#63b8ff" d="M150.6,-104.47C160.06,-105.7 169.83,-106.98 179.56,-108.25"/>
<polygon fill="#63b8ff" stroke="#63b8ff" points="179.07,-111.71 189.44,-109.54 179.97,-104.77 179.07,-111.71"/>
</a>
</g>
</g>
<!-- Node4 -->
<g id="Node000004" class="node">
<title>Node4</title>
<g id="a_Node000004"><a xlink:href="classanch_1_1logger_1_1_logger_configuration.html#af106b71c7848f5d89d2e5dc390f1e8ad" target="_top" xlink:title=" ">
<polygon fill="white" stroke="#666666" points="366.5,-85.5 186.25,-85.5 186.25,-52 366.5,-52 366.5,-85.5"/>
<text text-anchor="start" x="194.25" y="-72" font-family="Helvetica,sans-Serif" font-size="10.00">anch::logger::LoggerConfiguration</text>
<text text-anchor="middle" x="276.38" y="-59.25" font-family="Helvetica,sans-Serif" font-size="10.00">::getLevel</text>
</a>
</g>
</g>
<!-- Node1&#45;&gt;Node4 -->
<g id="edge3_Node000001_Node000004" class="edge">
<title>Node1&#45;&gt;Node4</title>
<g id="a_edge3_Node000001_Node000004"><a xlink:title=" ">
<path fill="none" stroke="#63b8ff" d="M150.6,-85.03C158.42,-84.01 166.45,-82.96 174.49,-81.91"/>
<polygon fill="#63b8ff" stroke="#63b8ff" points="174.89,-85.39 184.35,-80.63 173.98,-78.45 174.89,-85.39"/>
</a>
</g>
</g>
<!-- Node5 -->
<g id="Node000005" class="node">
<title>Node5</title>
<g id="a_Node000005"><a xlink:href="classanch_1_1logger_1_1_logger_configuration.html#a608744ee12295f786e6bb030e3eef614" target="_top" xlink:title=" ">
<polygon fill="white" stroke="#666666" points="366.5,-33.5 186.25,-33.5 186.25,0 366.5,0 366.5,-33.5"/>
<text text-anchor="start" x="194.25" y="-20" font-family="Helvetica,sans-Serif" font-size="10.00">anch::logger::LoggerConfiguration</text>
<text text-anchor="middle" x="276.38" y="-7.25" font-family="Helvetica,sans-Serif" font-size="10.00">::getWriters</text>
</a>
</g>
</g>
<!-- Node1&#45;&gt;Node5 -->
<g id="edge4_Node000001_Node000005" class="edge">
<title>Node1&#45;&gt;Node5</title>
<g id="a_edge4_Node000001_Node000005"><a xlink:title=" ">
<path fill="none" stroke="#63b8ff" d="M108.79,-77.66C130.4,-66.78 159.56,-52.87 186.25,-42.75 191.17,-40.88 196.29,-39.07 201.47,-37.33"/>
<polygon fill="#63b8ff" stroke="#63b8ff" points="202.29,-40.74 210.71,-34.32 200.12,-34.08 202.29,-40.74"/>
</a>
</g>
</g>
</g>
</svg>
</svg>

<style type='text/css'>
<![CDATA[
[data-mouse-over-selected='false'] { opacity: 0.7; }
[data-mouse-over-selected='true']  { opacity: 1.0; }
]]>
</style>
<script type="application/ecmascript"><![CDATA[
document.addEventListener('DOMContentLoaded', (event) => {
  highlightEdges();
  highlightAdjacentNodes();
});
]]></script>
</svg>
