<?xml version="1.0" encoding="UTF-8" standalone="no"?>
<!DOCTYPE svg PUBLIC "-//W3C//DTD SVG 1.1//EN"
 "http://www.w3.org/Graphics/SVG/1.1/DTD/svg11.dtd">
<!-- Generated by graphviz version 13.1.2 (0)
 -->
<!-- Title: anch::sql::SqlConnectionFactory Pages: 1 -->
<svg width="203pt" height="295pt"
 viewBox="0.00 0.00 203.00 295.00" xmlns="http://www.w3.org/2000/svg" xmlns:xlink="http://www.w3.org/1999/xlink">

<svg id="main" version="1.1" xmlns="http://www.w3.org/2000/svg" xmlns:xlink="http://www.w3.org/1999/xlink" xml:space="preserve">

<style type="text/css"><![CDATA[
.node, .edge {opacity: 0.7;}
.node.selected, .edge.selected {opacity: 1;}
.edge:hover path { stroke: red; }
.edge:hover polygon { stroke: red; fill: red; }
]]></style>
<script type="application/ecmascript" xlink:href="svg.min.js"/>
<svg id="graph" class="graph">
<g id="graph0" class="graph" transform="scale(1 1) rotate(0) translate(4 291)">
<title>anch::sql::SqlConnectionFactory</title>
<!-- Node1 -->
<g id="Node000001" class="node">
<title>Node1</title>
<g id="a_Node000001"><a xlink:title="SQL connection factory.">
<polygon fill="#999999" stroke="none" points="132.88,-80 15.38,-80 15.38,0 132.88,0 132.88,-80"/>
<text xml:space="preserve" text-anchor="start" x="19.38" y="-66.5" font-family="Helvetica,sans-Serif" font-size="10.00">anch::sql::SqlConnection</text>
<text xml:space="preserve" text-anchor="start" x="57.62" y="-54.5" font-family="Helvetica,sans-Serif" font-size="10.00">Factory</text>
<text xml:space="preserve" text-anchor="start" x="72.62" y="-38.5" font-family="Helvetica,sans-Serif" font-size="10.00"> </text>
<text xml:space="preserve" text-anchor="start" x="23.62" y="-22.5" font-family="Helvetica,sans-Serif" font-size="10.00">+</text>
<text xml:space="preserve" text-anchor="start" x="37.88" y="-22.5" font-family="Helvetica,sans-Serif" font-size="10.00">createConnection()</text>
<text xml:space="preserve" text-anchor="start" x="23.62" y="-6.5" font-family="Helvetica,sans-Serif" font-size="10.00">+</text>
<text xml:space="preserve" text-anchor="start" x="37.88" y="-6.5" font-family="Helvetica,sans-Serif" font-size="10.00">getPool()</text>
<polygon fill="#666666" stroke="#666666" points="15.38,-50 15.38,-50 132.88,-50 132.88,-50 15.38,-50"/>
<polygon fill="#666666" stroke="#666666" points="15.38,-34 15.38,-34 132.88,-34 132.88,-34 15.38,-34"/>
<polygon fill="none" stroke="#666666" points="15.38,0 15.38,-80 132.88,-80 132.88,0 15.38,0"/>
</a>
</g>
</g>
<!-- Node2 -->
<g id="Node000002" class="node">
<title>Node2</title>
<g id="a_Node000002"><a xlink:href="classanch_1_1_singleton.html" target="_top" xlink:title=" ">
<polygon fill="white" stroke="none" points="148.25,-181 0,-181 0,-117 148.25,-117 148.25,-181"/>
<text xml:space="preserve" text-anchor="start" x="4" y="-167.5" font-family="Helvetica,sans-Serif" font-size="10.00">anch::Singleton&lt; SqlConnection</text>
<text xml:space="preserve" text-anchor="start" x="53.12" y="-155.5" font-family="Helvetica,sans-Serif" font-size="10.00">Factory &gt;</text>
<text xml:space="preserve" text-anchor="start" x="72.62" y="-139.5" font-family="Helvetica,sans-Serif" font-size="10.00"> </text>
<text xml:space="preserve" text-anchor="start" x="22.31" y="-123.5" font-family="Helvetica,sans-Serif" font-size="10.00">+</text>
<text xml:space="preserve" text-anchor="start" x="50.62" y="-123.5" font-family="Helvetica,sans-Serif" font-size="10.00">getInstance()</text>
<polygon fill="#666666" stroke="#666666" points="0,-151 0,-151 148.25,-151 148.25,-151 0,-151"/>
<polygon fill="#666666" stroke="#666666" points="0,-135 0,-135 148.25,-135 148.25,-135 0,-135"/>
<polygon fill="none" stroke="#666666" points="0,-117 0,-181 148.25,-181 148.25,-117 0,-117"/>
</a>
</g>
</g>
<!-- Node2&#45;&gt;Node1 -->
<g id="edge1_Node000001_Node000002" class="edge">
<title>Node2&#45;&gt;Node1</title>
<g id="a_edge1_Node000001_Node000002"><a xlink:title=" ">
<path fill="none" stroke="#63b8ff" d="M74.12,-105.75C74.12,-97.22 74.12,-88.29 74.12,-79.88"/>
<polygon fill="none" stroke="#63b8ff" points="70.63,-105.54 74.13,-115.54 77.63,-105.54 70.63,-105.54"/>
</a>
</g>
</g>
<!-- Node3 -->
<g id="Node000003" class="node">
<title>Node3</title>
<g id="a_Node000003"><a xlink:href="classanch_1_1_singleton.html" target="_top" xlink:title="Meyers&#39; singleton implementation.">
<polygon fill="white" stroke="none" points="123.5,-287 24.75,-287 24.75,-235 123.5,-235 123.5,-287"/>
<text xml:space="preserve" text-anchor="start" x="28.75" y="-273.5" font-family="Helvetica,sans-Serif" font-size="10.00">anch::Singleton&lt; T &gt;</text>
<text xml:space="preserve" text-anchor="start" x="72.62" y="-257.5" font-family="Helvetica,sans-Serif" font-size="10.00"> </text>
<text xml:space="preserve" text-anchor="start" x="34.69" y="-241.5" font-family="Helvetica,sans-Serif" font-size="10.00">+</text>
<text xml:space="preserve" text-anchor="start" x="50.62" y="-241.5" font-family="Helvetica,sans-Serif" font-size="10.00">getInstance()</text>
<polygon fill="#666666" stroke="#666666" points="24.75,-269 24.75,-269 123.5,-269 123.5,-269 24.75,-269"/>
<polygon fill="#666666" stroke="#666666" points="24.75,-253 24.75,-253 123.5,-253 123.5,-253 24.75,-253"/>
<polygon fill="none" stroke="#666666" points="24.75,-235 24.75,-287 123.5,-287 123.5,-235 24.75,-235"/>
</a>
</g>
</g>
<!-- Node3&#45;&gt;Node2 -->
<g id="edge2_Node000002_Node000003" class="edge">
<title>Node3&#45;&gt;Node2</title>
<g id="a_edge2_Node000002_Node000003"><a xlink:title=" ">
<path fill="none" stroke="orange" d="M74.12,-223.86C74.12,-209.92 74.12,-194.14 74.12,-180.75"/>
<polygon fill="orange" stroke="orange" points="70.63,-223.53 74.13,-233.53 77.63,-223.53 70.63,-223.53"/>
</a>
</g>
<text xml:space="preserve" text-anchor="start" x="77.12" y="-204.5" font-family="Helvetica,sans-Serif" font-size="10.00" fill="grey">&lt; SqlConnectionFactory &gt;</text>
</g>
</g>
</svg>
</svg>

<style type='text/css'>
<![CDATA[
[data-mouse-over-selected='false'] { opacity: 0.7; }
[data-mouse-over-selected='true']  { opacity: 1.0; }
]]>
</style>
<script type="application/ecmascript"><![CDATA[
document.addEventListener('DOMContentLoaded', (event) => {
  highlightEdges();
  highlightAdjacentNodes();
});
]]></script>
</svg>
