<?xml version="1.0" encoding="UTF-8" standalone="no"?>
<!DOCTYPE svg PUBLIC "-//W3C//DTD SVG 1.1//EN"
 "http://www.w3.org/Graphics/SVG/1.1/DTD/svg11.dtd">
<!-- Generated by graphviz version 12.1.1 (0)
 -->
<!-- Title: anch::logger::Writer Pages: 1 -->
<!--zoomable 566 -->

<svg id="main" version="1.1" xmlns="http://www.w3.org/2000/svg" xmlns:xlink="http://www.w3.org/1999/xlink" xml:space="preserve" onload="init(evt)">

<style type="text/css"><![CDATA[
.node, .edge {opacity: 0.7;}
.node.selected, .edge.selected {opacity: 1;}
.edge:hover path { stroke: red; }
.edge:hover polygon { stroke: red; fill: red; }
]]></style>

<defs>
  <circle id="rim" cx="0" cy="0" r="7"/>
  <circle id="rim2" cx="0" cy="0" r="3.5"/>
  <g id="zoomPlus">
    <use xlink:href="#rim" fill="#404040"><set attributeName="fill" to="#808080" begin="zoomplus.mouseover" end="zoomplus.mouseout"/></use>
    <path d="M-4,0h8M0,-4v8" fill="none" stroke="white" stroke-width="1.5" pointer-events="none"/>
  </g>
  <g id="zoomMin">
    <use xlink:href="#rim" fill="#404040"><set attributeName="fill" to="#808080" begin="zoomminus.mouseover" end="zoomminus.mouseout"/></use>
    <path d="M-4,0h8" fill="none" stroke="white" stroke-width="1.5" pointer-events="none"/>
  </g>
  <g id="arrowUp" transform="translate(30 24)">
    <use xlink:href="#rim"/>
    <path pointer-events="none" fill="none" stroke="white" stroke-width="1.5" d="M0,-3.0v7 M-2.5,-0.5L0,-3.0L2.5,-0.5"/>
  </g>
  <g id="arrowRight" transform="rotate(90) translate(36 -43)">
    <use xlink:href="#rim"/>
    <path pointer-events="none" fill="none" stroke="white" stroke-width="1.5" d="M0,-3.0v7 M-2.5,-0.5L0,-3.0L2.5,-0.5"/>
  </g>
  <g id="arrowDown" transform="rotate(180) translate(-30 -48)">
    <use xlink:href="#rim"/>
    <path pointer-events="none" fill="none" stroke="white" stroke-width="1.5" d="M0,-3.0v7 M-2.5,-0.5L0,-3.0L2.5,-0.5"/>
  </g>
  <g id="arrowLeft" transform="rotate(270) translate(-36 17)">
    <use xlink:href="#rim"/>
    <path pointer-events="none" fill="none" stroke="white" stroke-width="1.5" d="M0,-3.0v7 M-2.5,-0.5L0,-3.0L2.5,-0.5"/>
  </g>
  <g id="resetDef">
    <use xlink:href="#rim2" fill="#404040"><set attributeName="fill" to="#808080" begin="reset.mouseover" end="reset.mouseout"/></use>
  </g>
</defs>
<script type="application/ecmascript">
var viewWidth = 249;
var viewHeight = 566;
var sectionId = 'dynsection-1';
</script>
<script type="application/ecmascript" xlink:href="svg.min.js"/>
<svg id="graph" class="graph">
<g id="viewport">
<title>anch::logger::Writer</title>
<!-- Node1 -->
<g id="Node000001" class="node">
<title>Node1</title>
<g id="a_Node000001"><a xlink:title=" ">
<polygon fill="#999999" stroke="none" points="194.5,-132 88.5,-132 88.5,0 194.5,0 194.5,-132"/>
<text text-anchor="start" x="93.5" y="-118.5" font-family="Helvetica,sans-Serif" font-size="10.00">anch::logger::Writer</text>
<text text-anchor="start" x="140" y="-102.5" font-family="Helvetica,sans-Serif" font-size="10.00"> </text>
<text text-anchor="start" x="98.88" y="-86.5" font-family="Helvetica,sans-Serif" font-size="10.00">+</text>
<text text-anchor="start" x="117.5" y="-86.5" font-family="Helvetica,sans-Serif" font-size="10.00">Writer()</text>
<text text-anchor="start" x="98.88" y="-70.5" font-family="Helvetica,sans-Serif" font-size="10.00">+</text>
<text text-anchor="start" x="117.5" y="-70.5" font-family="Helvetica,sans-Serif" font-size="10.00">Writer()</text>
<text text-anchor="start" x="98.88" y="-54.5" font-family="Helvetica,sans-Serif" font-size="10.00">+</text>
<text text-anchor="start" x="117.5" y="-54.5" font-family="Helvetica,sans-Serif" font-size="10.00">~Writer()</text>
<text text-anchor="start" x="98.88" y="-38.5" font-family="Helvetica,sans-Serif" font-size="10.00">+</text>
<text text-anchor="start" x="117.5" y="-38.5" font-family="Helvetica,sans-Serif" font-size="10.00">write()</text>
<text text-anchor="start" x="98.88" y="-22.5" font-family="Helvetica,sans-Serif" font-size="10.00">#</text>
<text text-anchor="start" x="117.5" y="-22.5" font-family="Helvetica,sans-Serif" font-size="10.00">rotate()</text>
<text text-anchor="start" x="98.88" y="-6.5" font-family="Helvetica,sans-Serif" font-size="10.00">#</text>
<text text-anchor="start" x="117.5" y="-6.5" font-family="Helvetica,sans-Serif" font-size="10.00">rotateFiles()</text>
<polygon fill="#666666" stroke="#666666" points="88.5,-114 88.5,-114 194.5,-114 194.5,-114 88.5,-114"/>
<polygon fill="#666666" stroke="#666666" points="88.5,-98 88.5,-98 194.5,-98 194.5,-98 88.5,-98"/>
<polygon fill="none" stroke="#666666" points="88.5,0 88.5,-132 194.5,-132 194.5,0 88.5,0"/>
</a>
</g>
</g>
<!-- Node2 -->
<g id="Node000002" class="node">
<title>Node2</title>
<g id="a_Node000002"><a xlink:title=" ">
<polygon fill="white" stroke="none" points="96,-255.25 25,-255.25 25,-203.25 96,-203.25 96,-255.25"/>
<text text-anchor="start" x="29.75" y="-241.75" font-family="Helvetica,sans-Serif" font-size="10.00">std::ostream</text>
<text text-anchor="start" x="59" y="-225.75" font-family="Helvetica,sans-Serif" font-size="10.00"> </text>
<text text-anchor="start" x="59" y="-209.75" font-family="Helvetica,sans-Serif" font-size="10.00"> </text>
<polygon fill="#666666" stroke="#666666" points="25,-237.25 25,-237.25 96,-237.25 96,-237.25 25,-237.25"/>
<polygon fill="#666666" stroke="#666666" points="25,-221.25 25,-221.25 96,-221.25 96,-221.25 25,-221.25"/>
<polygon fill="none" stroke="#666666" points="25,-203.25 25,-255.25 96,-255.25 96,-203.25 25,-203.25"/>
</a>
</g>
</g>
<!-- Node2&#45;&gt;Node1 -->
<g id="edge1_Node000001_Node000002" class="edge">
<title>Node2&#45;&gt;Node1</title>
<g id="a_edge1_Node000001_Node000002"><a xlink:title=" ">
<path fill="none" stroke="#63b8ff" d="M72.98,-203.41C81.1,-187.23 92.18,-165.18 103.06,-143.53"/>
<polygon fill="none" stroke="#63b8ff" points="103.09,-143.45 102.21,-136.3 108.48,-132.73 109.36,-139.89 103.09,-143.45"/>
</a>
</g>
<text text-anchor="middle" x="122.57" y="-153.25" font-family="Helvetica,sans-Serif" font-size="10.00" fill="grey"> #_output</text>
</g>
<!-- Node3 -->
<g id="Node000003" class="node">
<title>Node3</title>
<g id="a_Node000003"><a xlink:title=" ">
<polygon fill="white" stroke="none" points="111.5,-379.75 9.5,-379.75 9.5,-314.75 111.5,-314.75 111.5,-379.75"/>
<text text-anchor="start" x="14.38" y="-366.25" font-family="Helvetica,sans-Serif" font-size="10.00">std::basic_ostream</text>
<text text-anchor="start" x="38" y="-353.5" font-family="Helvetica,sans-Serif" font-size="10.00">&lt; Char &gt;</text>
<text text-anchor="start" x="59" y="-337.25" font-family="Helvetica,sans-Serif" font-size="10.00"> </text>
<text text-anchor="start" x="59" y="-321.25" font-family="Helvetica,sans-Serif" font-size="10.00"> </text>
<polygon fill="#666666" stroke="#666666" points="9.5,-348.75 9.5,-348.75 111.5,-348.75 111.5,-348.75 9.5,-348.75"/>
<polygon fill="#666666" stroke="#666666" points="9.5,-332.75 9.5,-332.75 111.5,-332.75 111.5,-332.75 9.5,-332.75"/>
<polygon fill="none" stroke="#666666" points="9.5,-314.75 9.5,-379.75 111.5,-379.75 111.5,-314.75 9.5,-314.75"/>
</a>
</g>
</g>
<!-- Node3&#45;&gt;Node2 -->
<g id="edge2_Node000002_Node000003" class="edge">
<title>Node3&#45;&gt;Node2</title>
<g id="a_edge2_Node000002_Node000003"><a xlink:title=" ">
<path fill="none" stroke="#63b8ff" d="M60.5,-303.39C60.5,-287.11 60.5,-269.11 60.5,-255.05"/>
<polygon fill="none" stroke="#63b8ff" points="57,-303.35 60.5,-313.35 64,-303.35 57,-303.35"/>
</a>
</g>
</g>
<!-- Node4 -->
<g id="Node000004" class="node">
<title>Node4</title>
<g id="a_Node000004"><a xlink:title=" ">
<polygon fill="white" stroke="none" points="121,-468.75 0,-468.75 0,-416.75 121,-416.75 121,-468.75"/>
<text text-anchor="start" x="5" y="-455.25" font-family="Helvetica,sans-Serif" font-size="10.00">std::basic_ios&lt; Char &gt;</text>
<text text-anchor="start" x="59" y="-439.25" font-family="Helvetica,sans-Serif" font-size="10.00"> </text>
<text text-anchor="start" x="59" y="-423.25" font-family="Helvetica,sans-Serif" font-size="10.00"> </text>
<polygon fill="#666666" stroke="#666666" points="0,-450.75 0,-450.75 121,-450.75 121,-450.75 0,-450.75"/>
<polygon fill="#666666" stroke="#666666" points="0,-434.75 0,-434.75 121,-434.75 121,-434.75 0,-434.75"/>
<polygon fill="none" stroke="#666666" points="0,-416.75 0,-468.75 121,-468.75 121,-416.75 0,-416.75"/>
</a>
</g>
</g>
<!-- Node4&#45;&gt;Node3 -->
<g id="edge3_Node000003_Node000004" class="edge">
<title>Node4&#45;&gt;Node3</title>
<g id="a_edge3_Node000003_Node000004"><a xlink:title=" ">
<path fill="none" stroke="#63b8ff" d="M60.5,-405.87C60.5,-397.25 60.5,-388.1 60.5,-379.7"/>
<polygon fill="none" stroke="#63b8ff" points="57,-405.67 60.5,-415.67 64,-405.67 57,-405.67"/>
</a>
</g>
</g>
<!-- Node5 -->
<g id="Node000005" class="node">
<title>Node5</title>
<g id="a_Node000005"><a xlink:title=" ">
<polygon fill="white" stroke="none" points="97,-557.75 24,-557.75 24,-505.75 97,-505.75 97,-557.75"/>
<text text-anchor="start" x="28.62" y="-544.25" font-family="Helvetica,sans-Serif" font-size="10.00">std::ios_base</text>
<text text-anchor="start" x="59" y="-528.25" font-family="Helvetica,sans-Serif" font-size="10.00"> </text>
<text text-anchor="start" x="59" y="-512.25" font-family="Helvetica,sans-Serif" font-size="10.00"> </text>
<polygon fill="#666666" stroke="#666666" points="24,-539.75 24,-539.75 97,-539.75 97,-539.75 24,-539.75"/>
<polygon fill="#666666" stroke="#666666" points="24,-523.75 24,-523.75 97,-523.75 97,-523.75 24,-523.75"/>
<polygon fill="none" stroke="#666666" points="24,-505.75 24,-557.75 97,-557.75 97,-505.75 24,-505.75"/>
</a>
</g>
</g>
<!-- Node5&#45;&gt;Node4 -->
<g id="edge4_Node000004_Node000005" class="edge">
<title>Node5&#45;&gt;Node4</title>
<g id="a_edge4_Node000004_Node000005"><a xlink:title=" ">
<path fill="none" stroke="#63b8ff" d="M60.5,-494.8C60.5,-485.96 60.5,-476.69 60.5,-468.51"/>
<polygon fill="none" stroke="#63b8ff" points="57,-494.54 60.5,-504.54 64,-494.54 57,-494.54"/>
</a>
</g>
</g>
<!-- Node6 -->
<g id="Node000006" class="node">
<title>Node6</title>
<g id="a_Node000006"><a xlink:href="classanch_1_1logger_1_1formatter_1_1_message_formatter.html" target="_top" xlink:title=" ">
<polygon fill="white" stroke="none" points="241,-277.75 114,-277.75 114,-180.75 241,-180.75 241,-277.75"/>
<text text-anchor="start" x="121.25" y="-264.25" font-family="Helvetica,sans-Serif" font-size="10.00">anch::logger::formatter</text>
<text text-anchor="start" x="128.75" y="-251.5" font-family="Helvetica,sans-Serif" font-size="10.00">::MessageFormatter</text>
<text text-anchor="start" x="176" y="-235.25" font-family="Helvetica,sans-Serif" font-size="10.00"> </text>
<text text-anchor="start" x="117.88" y="-219.25" font-family="Helvetica,sans-Serif" font-size="10.00">+</text>
<text text-anchor="start" x="130" y="-219.25" font-family="Helvetica,sans-Serif" font-size="10.00">MessageFormatter()</text>
<text text-anchor="start" x="117.88" y="-203.25" font-family="Helvetica,sans-Serif" font-size="10.00">+</text>
<text text-anchor="start" x="130" y="-203.25" font-family="Helvetica,sans-Serif" font-size="10.00">~MessageFormatter()</text>
<text text-anchor="start" x="117.88" y="-187.25" font-family="Helvetica,sans-Serif" font-size="10.00">+</text>
<text text-anchor="start" x="130" y="-187.25" font-family="Helvetica,sans-Serif" font-size="10.00">formatMessage()</text>
<polygon fill="#666666" stroke="#666666" points="114,-246.75 114,-246.75 241,-246.75 241,-246.75 114,-246.75"/>
<polygon fill="#666666" stroke="#666666" points="114,-230.75 114,-230.75 241,-230.75 241,-230.75 114,-230.75"/>
<polygon fill="none" stroke="#666666" points="114,-180.75 114,-277.75 241,-277.75 241,-180.75 114,-180.75"/>
</a>
</g>
</g>
<!-- Node6&#45;&gt;Node1 -->
<g id="edge5_Node000001_Node000006" class="edge">
<title>Node6&#45;&gt;Node1</title>
<g id="a_edge5_Node000001_Node000006"><a xlink:title=" ">
<path fill="none" stroke="#63b8ff" d="M166.99,-181.18C164.41,-169.6 161.57,-156.91 158.76,-144.32"/>
<polygon fill="none" stroke="#63b8ff" points="158.78,-144.4 153.57,-139.42 156.17,-132.69 161.38,-137.68 158.78,-144.4"/>
</a>
</g>
<text text-anchor="middle" x="194.22" y="-153.25" font-family="Helvetica,sans-Serif" font-size="10.00" fill="grey"> #_formatter</text>
</g>
</g>
</svg>

<g id="navigator" transform="translate(0 0)" fill="#404254">
  <rect fill="#f2f5e9" fill-opacity="0.5" stroke="#606060" stroke-width=".5" x="0" y="0" width="60" height="60"/>
  <use id="zoomplus" xlink:href="#zoomPlus" x="17" y="9" onmousedown="handleZoom(evt,'in')"/>
  <use id="zoomminus" xlink:href="#zoomMin" x="42" y="9" onmousedown="handleZoom(evt,'out')"/>
  <use id="reset" xlink:href="#resetDef" x="30" y="36" onmousedown="handleReset()"/>
   <use id="arrowup" xlink:href="#arrowUp" x="0" y="0" onmousedown="handlePan(0,-1)"/>
  <use id="arrowright" xlink:href="#arrowRight" x="0" y="0" onmousedown="handlePan(1,0)"/>
  <use id="arrowdown" xlink:href="#arrowDown" x="0" y="0" onmousedown="handlePan(0,1)"/>
  <use id="arrowleft" xlink:href="#arrowLeft" x="0" y="0" onmousedown="handlePan(-1,0)"/>
</g>
<svg viewBox="0 0 15 15" width="100%" height="30px" preserveAspectRatio="xMaxYMin meet">
 <g id="arrow_out" transform="scale(0.3 0.3)">
  <a xlink:href="classanch_1_1logger_1_1_writer__coll__graph_org.svg" target="_base">
   <rect id="button" ry="5" rx="5" y="6" x="6" height="38" width="38"
        fill="#f2f5e9" fill-opacity="0.5" stroke="#606060" stroke-width="1.0"/>
   <path id="arrow"
     d="M 11.500037,31.436501 C 11.940474,20.09759 22.043105,11.32322 32.158766,21.979434 L 37.068811,17.246167 C 37.068811,17.246167 37.088388,32 37.088388,32 L 22.160133,31.978069 C 22.160133,31.978069 26.997745,27.140456 26.997745,27.140456 C 18.528582,18.264221 13.291696,25.230495 11.500037,31.436501 z"
     style="fill:#404040;"/>
  </a>
 </g>
</svg>

<style type='text/css'>
<![CDATA[
[data-mouse-over-selected='false'] { opacity: 0.7; }
[data-mouse-over-selected='true']  { opacity: 1.0; }
]]>
</style>
<script type="application/ecmascript"><![CDATA[
document.addEventListener('DOMContentLoaded', (event) => {
  highlightEdges();
  highlightAdjacentNodes();
});
]]></script>
</svg>
