<?xml version="1.0" encoding="UTF-8" standalone="no"?>
<!DOCTYPE svg PUBLIC "-//W3C//DTD SVG 1.1//EN"
 "http://www.w3.org/Graphics/SVG/1.1/DTD/svg11.dtd">
<!-- Generated by graphviz version 12.2.1 (0)
 -->
<!-- Title: anch::network::TcpStreamServer Pages: 1 -->
<svg width="374pt" height="1031pt"
 viewBox="0.00 0.00 373.62 1031.00" xmlns="http://www.w3.org/2000/svg" xmlns:xlink="http://www.w3.org/1999/xlink">
<g id="graph0" class="graph" transform="scale(1 1) rotate(0) translate(4 1027)">
<title>anch::network::TcpStreamServer</title>
<!-- Node1 -->
<g id="Node000001" class="node">
<title>Node1</title>
<g id="a_Node000001"><a xlink:title="TCP stream server.">
<polygon fill="#999999" stroke="none" points="254.25,-80 131.5,-80 131.5,0 254.25,0 254.25,-80"/>
<text text-anchor="start" x="135.5" y="-66.5" font-family="Helvetica,sans-Serif" font-size="10.00">anch::network::TcpStream</text>
<text text-anchor="start" x="178.62" y="-54.5" font-family="Helvetica,sans-Serif" font-size="10.00">Server</text>
<text text-anchor="start" x="191.38" y="-38.5" font-family="Helvetica,sans-Serif" font-size="10.00"> </text>
<text text-anchor="start" x="139.75" y="-22.5" font-family="Helvetica,sans-Serif" font-size="10.00">+</text>
<text text-anchor="start" x="154" y="-22.5" font-family="Helvetica,sans-Serif" font-size="10.00">TcpStreamServer()</text>
<text text-anchor="start" x="139.75" y="-6.5" font-family="Helvetica,sans-Serif" font-size="10.00">+</text>
<text text-anchor="start" x="154" y="-6.5" font-family="Helvetica,sans-Serif" font-size="10.00">~TcpStreamServer()</text>
<polygon fill="#666666" stroke="#666666" points="131.5,-50 131.5,-50 254.25,-50 254.25,-50 131.5,-50"/>
<polygon fill="#666666" stroke="#666666" points="131.5,-34 131.5,-34 254.25,-34 254.25,-34 131.5,-34"/>
<polygon fill="none" stroke="#666666" points="131.5,0 131.5,-80 254.25,-80 254.25,0 131.5,0"/>
</a>
</g>
</g>
<!-- Node2 -->
<g id="Node000002" class="node">
<title>Node2</title>
<g id="a_Node000002"><a xlink:href="classanch_1_1network_1_1_tcp_stream.html" target="_top" xlink:title=" ">
<polygon fill="white" stroke="none" points="254.25,-201 131.5,-201 131.5,-117 254.25,-117 254.25,-201"/>
<text text-anchor="start" x="135.5" y="-187.5" font-family="Helvetica,sans-Serif" font-size="10.00">anch::network::TcpStream</text>
<text text-anchor="start" x="191.38" y="-171.5" font-family="Helvetica,sans-Serif" font-size="10.00"> </text>
<text text-anchor="start" x="146.31" y="-155.5" font-family="Helvetica,sans-Serif" font-size="10.00">+</text>
<text text-anchor="start" x="167.12" y="-155.5" font-family="Helvetica,sans-Serif" font-size="10.00">TcpStream()</text>
<text text-anchor="start" x="146.31" y="-139.5" font-family="Helvetica,sans-Serif" font-size="10.00">+</text>
<text text-anchor="start" x="167.12" y="-139.5" font-family="Helvetica,sans-Serif" font-size="10.00">~TcpStream()</text>
<text text-anchor="start" x="146.31" y="-123.5" font-family="Helvetica,sans-Serif" font-size="10.00">+</text>
<text text-anchor="start" x="167.12" y="-123.5" font-family="Helvetica,sans-Serif" font-size="10.00">addObserver()</text>
<polygon fill="#666666" stroke="#666666" points="131.5,-183 131.5,-183 254.25,-183 254.25,-183 131.5,-183"/>
<polygon fill="#666666" stroke="#666666" points="131.5,-167 131.5,-167 254.25,-167 254.25,-167 131.5,-167"/>
<polygon fill="none" stroke="#666666" points="131.5,-117 131.5,-201 254.25,-201 254.25,-117 131.5,-117"/>
</a>
</g>
</g>
<!-- Node2&#45;&gt;Node1 -->
<g id="edge1_Node000001_Node000002" class="edge">
<title>Node2&#45;&gt;Node1</title>
<g id="a_edge1_Node000001_Node000002"><a xlink:title=" ">
<path fill="none" stroke="#63b8ff" d="M192.88,-105.75C192.88,-97 192.88,-88.07 192.88,-79.74"/>
<polygon fill="none" stroke="#63b8ff" points="189.38,-105.57 192.88,-115.57 196.38,-105.57 189.38,-105.57"/>
</a>
</g>
</g>
<!-- Node3 -->
<g id="Node000003" class="node">
<title>Node3</title>
<g id="a_Node000003"><a xlink:href="classanch_1_1cutils_1_1_c_i_o_stream.html" target="_top" xlink:title=" ">
<polygon fill="white" stroke="none" points="113.75,-357 0,-357 0,-257 113.75,-257 113.75,-357"/>
<text text-anchor="start" x="4" y="-343.5" font-family="Helvetica,sans-Serif" font-size="10.00">anch::cutils::CIOStream</text>
<text text-anchor="start" x="55.38" y="-327.5" font-family="Helvetica,sans-Serif" font-size="10.00"> </text>
<text text-anchor="start" x="12.56" y="-311.5" font-family="Helvetica,sans-Serif" font-size="10.00">+</text>
<text text-anchor="start" x="31.12" y="-311.5" font-family="Helvetica,sans-Serif" font-size="10.00">CIOStream()</text>
<text text-anchor="start" x="12.56" y="-295.5" font-family="Helvetica,sans-Serif" font-size="10.00">+</text>
<text text-anchor="start" x="31.12" y="-295.5" font-family="Helvetica,sans-Serif" font-size="10.00">~CIOStream()</text>
<text text-anchor="start" x="12.94" y="-279.5" font-family="Helvetica,sans-Serif" font-size="10.00">#</text>
<text text-anchor="start" x="31.12" y="-279.5" font-family="Helvetica,sans-Serif" font-size="10.00">CIOStream()</text>
<text text-anchor="start" x="12.94" y="-263.5" font-family="Helvetica,sans-Serif" font-size="10.00">#</text>
<text text-anchor="start" x="31.12" y="-263.5" font-family="Helvetica,sans-Serif" font-size="10.00">setBuffer()</text>
<polygon fill="#666666" stroke="#666666" points="0,-339 0,-339 113.75,-339 113.75,-339 0,-339"/>
<polygon fill="#666666" stroke="#666666" points="0,-323 0,-323 113.75,-323 113.75,-323 0,-323"/>
<polygon fill="none" stroke="#666666" points="0,-257 0,-357 113.75,-357 113.75,-257 0,-257"/>
</a>
</g>
</g>
<!-- Node3&#45;&gt;Node2 -->
<g id="edge2_Node000002_Node000003" class="edge">
<title>Node3&#45;&gt;Node2</title>
<g id="a_edge2_Node000002_Node000003"><a xlink:title=" ">
<path fill="none" stroke="#63b8ff" d="M109.93,-249.05C124.99,-232.88 141.08,-215.6 155.05,-200.61"/>
<polygon fill="none" stroke="#63b8ff" points="107.45,-246.57 103.19,-256.28 112.57,-251.35 107.45,-246.57"/>
</a>
</g>
</g>
<!-- Node4 -->
<g id="Node000004" class="node">
<title>Node4</title>
<g id="a_Node000004"><a xlink:title=" ">
<polygon fill="white" stroke="none" points="89.38,-558 24.38,-558 24.38,-506 89.38,-506 89.38,-558"/>
<text text-anchor="start" x="28.38" y="-544.5" font-family="Helvetica,sans-Serif" font-size="10.00">std::iostream</text>
<text text-anchor="start" x="55.38" y="-528.5" font-family="Helvetica,sans-Serif" font-size="10.00"> </text>
<text text-anchor="start" x="55.38" y="-512.5" font-family="Helvetica,sans-Serif" font-size="10.00"> </text>
<polygon fill="#bfbfbf" stroke="#bfbfbf" points="24.38,-540 24.38,-540 89.38,-540 89.38,-540 24.38,-540"/>
<polygon fill="#bfbfbf" stroke="#bfbfbf" points="24.38,-524 24.38,-524 89.38,-524 89.38,-524 24.38,-524"/>
<polygon fill="none" stroke="#bfbfbf" points="24.38,-506 24.38,-558 89.38,-558 89.38,-506 24.38,-506"/>
</a>
</g>
</g>
<!-- Node4&#45;&gt;Node3 -->
<g id="edge3_Node000003_Node000004" class="edge">
<title>Node4&#45;&gt;Node3</title>
<g id="a_edge3_Node000003_Node000004"><a xlink:title=" ">
<path fill="none" stroke="#63b8ff" d="M56.88,-494.9C56.88,-457.37 56.88,-398.38 56.88,-356.73"/>
<polygon fill="none" stroke="#63b8ff" points="53.38,-494.77 56.88,-504.77 60.38,-494.77 53.38,-494.77"/>
</a>
</g>
</g>
<!-- Node5 -->
<g id="Node000005" class="node">
<title>Node5</title>
<g id="a_Node000005"><a xlink:href="classanch_1_1network_1_1_tcp_socket.html" target="_top" xlink:title=" ">
<polygon fill="white" stroke="none" points="253.88,-365 131.88,-365 131.88,-249 253.88,-249 253.88,-365"/>
<text text-anchor="start" x="135.88" y="-351.5" font-family="Helvetica,sans-Serif" font-size="10.00">anch::network::TcpSocket</text>
<text text-anchor="start" x="191.38" y="-335.5" font-family="Helvetica,sans-Serif" font-size="10.00"> </text>
<text text-anchor="start" x="147.25" y="-319.5" font-family="Helvetica,sans-Serif" font-size="10.00">+</text>
<text text-anchor="start" x="168.62" y="-319.5" font-family="Helvetica,sans-Serif" font-size="10.00">TcpSocket()</text>
<text text-anchor="start" x="147.25" y="-303.5" font-family="Helvetica,sans-Serif" font-size="10.00">+</text>
<text text-anchor="start" x="168.62" y="-303.5" font-family="Helvetica,sans-Serif" font-size="10.00">TcpSocket()</text>
<text text-anchor="start" x="147.25" y="-287.5" font-family="Helvetica,sans-Serif" font-size="10.00">+</text>
<text text-anchor="start" x="168.62" y="-287.5" font-family="Helvetica,sans-Serif" font-size="10.00">~TcpSocket()</text>
<text text-anchor="start" x="147.25" y="-271.5" font-family="Helvetica,sans-Serif" font-size="10.00">+</text>
<text text-anchor="start" x="168.62" y="-271.5" font-family="Helvetica,sans-Serif" font-size="10.00">send()</text>
<text text-anchor="start" x="147.25" y="-255.5" font-family="Helvetica,sans-Serif" font-size="10.00">+</text>
<text text-anchor="start" x="168.62" y="-255.5" font-family="Helvetica,sans-Serif" font-size="10.00">receive()</text>
<polygon fill="#666666" stroke="#666666" points="131.88,-347 131.88,-347 253.88,-347 253.88,-347 131.88,-347"/>
<polygon fill="#666666" stroke="#666666" points="131.88,-331 131.88,-331 253.88,-331 253.88,-331 131.88,-331"/>
<polygon fill="none" stroke="#666666" points="131.88,-249 131.88,-365 253.88,-365 253.88,-249 131.88,-249"/>
</a>
</g>
</g>
<!-- Node5&#45;&gt;Node2 -->
<g id="edge4_Node000002_Node000005" class="edge">
<title>Node5&#45;&gt;Node2</title>
<g id="a_edge4_Node000002_Node000005"><a xlink:title=" ">
<path fill="none" stroke="#63b8ff" d="M192.88,-249.13C192.88,-237.38 192.88,-225.05 192.88,-213.42"/>
<polygon fill="none" stroke="#63b8ff" points="192.88,-213.57 188.88,-207.57 192.88,-201.57 196.88,-207.57 192.88,-213.57"/>
</a>
</g>
<text text-anchor="middle" x="214.25" y="-221.5" font-family="Helvetica,sans-Serif" font-size="10.00" fill="grey"> #_socket</text>
</g>
<!-- Node6 -->
<g id="Node000006" class="node">
<title>Node6</title>
<g id="a_Node000006"><a xlink:href="classanch_1_1network_1_1_socket.html" target="_top" xlink:title=" ">
<polygon fill="white" stroke="none" points="246,-662 139.75,-662 139.75,-402 246,-402 246,-662"/>
<text text-anchor="start" x="143.75" y="-648.5" font-family="Helvetica,sans-Serif" font-size="10.00">anch::network::Socket</text>
<text text-anchor="start" x="150.62" y="-632.5" font-family="Helvetica,sans-Serif" font-size="10.00">#</text>
<text text-anchor="start" x="166.75" y="-632.5" font-family="Helvetica,sans-Serif" font-size="10.00">_sock</text>
<text text-anchor="start" x="150.62" y="-616.5" font-family="Helvetica,sans-Serif" font-size="10.00">#</text>
<text text-anchor="start" x="166.75" y="-616.5" font-family="Helvetica,sans-Serif" font-size="10.00">_backlog</text>
<text text-anchor="start" x="150.62" y="-600.5" font-family="Helvetica,sans-Serif" font-size="10.00">#</text>
<text text-anchor="start" x="166.75" y="-600.5" font-family="Helvetica,sans-Serif" font-size="10.00">_address</text>
<text text-anchor="start" x="150.25" y="-584.5" font-family="Helvetica,sans-Serif" font-size="10.00">+</text>
<text text-anchor="start" x="166.75" y="-584.5" font-family="Helvetica,sans-Serif" font-size="10.00">Socket()</text>
<text text-anchor="start" x="150.25" y="-568.5" font-family="Helvetica,sans-Serif" font-size="10.00">+</text>
<text text-anchor="start" x="166.75" y="-568.5" font-family="Helvetica,sans-Serif" font-size="10.00">~Socket()</text>
<text text-anchor="start" x="150.25" y="-552.5" font-family="Helvetica,sans-Serif" font-size="10.00">+</text>
<text text-anchor="start" x="166.75" y="-552.5" font-family="Helvetica,sans-Serif" font-size="10.00">bind()</text>
<text text-anchor="start" x="150.25" y="-536.5" font-family="Helvetica,sans-Serif" font-size="10.00">+</text>
<text text-anchor="start" x="166.75" y="-536.5" font-family="Helvetica,sans-Serif" font-size="10.00">connect()</text>
<text text-anchor="start" x="150.25" y="-520.5" font-family="Helvetica,sans-Serif" font-size="10.00">+</text>
<text text-anchor="start" x="166.75" y="-520.5" font-family="Helvetica,sans-Serif" font-size="10.00">listen()</text>
<text text-anchor="start" x="150.25" y="-504.5" font-family="Helvetica,sans-Serif" font-size="10.00">+</text>
<text text-anchor="start" x="166.75" y="-504.5" font-family="Helvetica,sans-Serif" font-size="10.00">accept()</text>
<text text-anchor="start" x="150.25" y="-488.5" font-family="Helvetica,sans-Serif" font-size="10.00">+</text>
<text text-anchor="start" x="166.75" y="-488.5" font-family="Helvetica,sans-Serif" font-size="10.00">send()</text>
<text text-anchor="start" x="150.25" y="-472.5" font-family="Helvetica,sans-Serif" font-size="10.00">+</text>
<text text-anchor="start" x="166.75" y="-472.5" font-family="Helvetica,sans-Serif" font-size="10.00">receive()</text>
<text text-anchor="start" x="150.25" y="-456.5" font-family="Helvetica,sans-Serif" font-size="10.00">+</text>
<text text-anchor="start" x="166.75" y="-456.5" font-family="Helvetica,sans-Serif" font-size="10.00">receive()</text>
<text text-anchor="start" x="150.25" y="-440.5" font-family="Helvetica,sans-Serif" font-size="10.00">+</text>
<text text-anchor="start" x="166.75" y="-440.5" font-family="Helvetica,sans-Serif" font-size="10.00">shutdown()</text>
<text text-anchor="start" x="166.75" y="-424.5" font-family="Helvetica,sans-Serif" font-size="10.00">and 11 more...</text>
<text text-anchor="start" x="150.62" y="-408.5" font-family="Helvetica,sans-Serif" font-size="10.00">#</text>
<text text-anchor="start" x="166.75" y="-408.5" font-family="Helvetica,sans-Serif" font-size="10.00">Socket()</text>
<polygon fill="#666666" stroke="#666666" points="139.75,-644 139.75,-644 246,-644 246,-644 139.75,-644"/>
<polygon fill="#666666" stroke="#666666" points="139.75,-596 139.75,-596 164.75,-596 164.75,-596 139.75,-596"/>
<polygon fill="#666666" stroke="#666666" points="164.75,-596 164.75,-596 246,-596 246,-596 164.75,-596"/>
<polygon fill="none" stroke="#666666" points="139.75,-402 139.75,-662 246,-662 246,-402 139.75,-402"/>
</a>
</g>
</g>
<!-- Node6&#45;&gt;Node5 -->
<g id="edge5_Node000005_Node000006" class="edge">
<title>Node6&#45;&gt;Node5</title>
<g id="a_edge5_Node000005_Node000006"><a xlink:title=" ">
<path fill="none" stroke="#63b8ff" d="M192.88,-390.74C192.88,-381.76 192.88,-373.04 192.88,-364.84"/>
<polygon fill="none" stroke="#63b8ff" points="189.38,-390.74 192.88,-400.74 196.38,-390.74 189.38,-390.74"/>
</a>
</g>
</g>
<!-- Node7 -->
<g id="Node000007" class="node">
<title>Node7</title>
<g id="a_Node000007"><a xlink:href="classanch_1_1events_1_1_observable.html" target="_top" xlink:title=" ">
<polygon fill="white" stroke="none" points="252.75,-843 133,-843 133,-699 252.75,-699 252.75,-843"/>
<text text-anchor="start" x="137" y="-829.5" font-family="Helvetica,sans-Serif" font-size="10.00">anch::events::Observable</text>
<text text-anchor="start" x="155.75" y="-817.5" font-family="Helvetica,sans-Serif" font-size="10.00">&lt; SocketEvent &gt;</text>
<text text-anchor="start" x="191.38" y="-801.5" font-family="Helvetica,sans-Serif" font-size="10.00"> </text>
<text text-anchor="start" x="142.94" y="-785.5" font-family="Helvetica,sans-Serif" font-size="10.00">+</text>
<text text-anchor="start" x="158.88" y="-785.5" font-family="Helvetica,sans-Serif" font-size="10.00">Observable()</text>
<text text-anchor="start" x="142.94" y="-769.5" font-family="Helvetica,sans-Serif" font-size="10.00">+</text>
<text text-anchor="start" x="158.88" y="-769.5" font-family="Helvetica,sans-Serif" font-size="10.00">~Observable()</text>
<text text-anchor="start" x="142.94" y="-753.5" font-family="Helvetica,sans-Serif" font-size="10.00">+</text>
<text text-anchor="start" x="158.88" y="-753.5" font-family="Helvetica,sans-Serif" font-size="10.00">addObserver()</text>
<text text-anchor="start" x="142.94" y="-737.5" font-family="Helvetica,sans-Serif" font-size="10.00">+</text>
<text text-anchor="start" x="158.88" y="-737.5" font-family="Helvetica,sans-Serif" font-size="10.00">removeObserver()</text>
<text text-anchor="start" x="142.94" y="-721.5" font-family="Helvetica,sans-Serif" font-size="10.00">+</text>
<text text-anchor="start" x="158.88" y="-721.5" font-family="Helvetica,sans-Serif" font-size="10.00">notifyObservers()</text>
<text text-anchor="start" x="142.94" y="-705.5" font-family="Helvetica,sans-Serif" font-size="10.00">+</text>
<text text-anchor="start" x="158.88" y="-705.5" font-family="Helvetica,sans-Serif" font-size="10.00">notifyObservers()</text>
<polygon fill="#666666" stroke="#666666" points="133,-813 133,-813 252.75,-813 252.75,-813 133,-813"/>
<polygon fill="#666666" stroke="#666666" points="133,-797 133,-797 252.75,-797 252.75,-797 133,-797"/>
<polygon fill="none" stroke="#666666" points="133,-699 133,-843 252.75,-843 252.75,-699 133,-699"/>
</a>
</g>
</g>
<!-- Node7&#45;&gt;Node6 -->
<g id="edge6_Node000006_Node000007" class="edge">
<title>Node7&#45;&gt;Node6</title>
<g id="a_edge6_Node000006_Node000007"><a xlink:title=" ">
<path fill="none" stroke="#63b8ff" d="M192.88,-687.88C192.88,-679.44 192.88,-670.71 192.88,-661.92"/>
<polygon fill="none" stroke="#63b8ff" points="189.38,-687.7 192.88,-697.7 196.38,-687.7 189.38,-687.7"/>
</a>
</g>
</g>
<!-- Node8 -->
<g id="Node000008" class="node">
<title>Node8</title>
<g id="a_Node000008"><a xlink:href="classanch_1_1events_1_1_observable.html" target="_top" xlink:title="An observable implementation of the observers/observable design pattern.">
<polygon fill="white" stroke="none" points="264.38,-1023 121.38,-1023 121.38,-891 264.38,-891 264.38,-1023"/>
<text text-anchor="start" x="125.38" y="-1009.5" font-family="Helvetica,sans-Serif" font-size="10.00">anch::events::Observable&lt; T &gt;</text>
<text text-anchor="start" x="191.38" y="-993.5" font-family="Helvetica,sans-Serif" font-size="10.00"> </text>
<text text-anchor="start" x="137.12" y="-977.5" font-family="Helvetica,sans-Serif" font-size="10.00">+</text>
<text text-anchor="start" x="158.88" y="-977.5" font-family="Helvetica,sans-Serif" font-size="10.00">Observable()</text>
<text text-anchor="start" x="137.12" y="-961.5" font-family="Helvetica,sans-Serif" font-size="10.00">+</text>
<text text-anchor="start" x="158.88" y="-961.5" font-family="Helvetica,sans-Serif" font-size="10.00">~Observable()</text>
<text text-anchor="start" x="137.12" y="-945.5" font-family="Helvetica,sans-Serif" font-size="10.00">+</text>
<text text-anchor="start" x="158.88" y="-945.5" font-family="Helvetica,sans-Serif" font-size="10.00">addObserver()</text>
<text text-anchor="start" x="137.12" y="-929.5" font-family="Helvetica,sans-Serif" font-size="10.00">+</text>
<text text-anchor="start" x="158.88" y="-929.5" font-family="Helvetica,sans-Serif" font-size="10.00">removeObserver()</text>
<text text-anchor="start" x="137.12" y="-913.5" font-family="Helvetica,sans-Serif" font-size="10.00">+</text>
<text text-anchor="start" x="158.88" y="-913.5" font-family="Helvetica,sans-Serif" font-size="10.00">notifyObservers()</text>
<text text-anchor="start" x="137.12" y="-897.5" font-family="Helvetica,sans-Serif" font-size="10.00">+</text>
<text text-anchor="start" x="158.88" y="-897.5" font-family="Helvetica,sans-Serif" font-size="10.00">notifyObservers()</text>
<polygon fill="#666666" stroke="#666666" points="121.38,-1005 121.38,-1005 264.38,-1005 264.38,-1005 121.38,-1005"/>
<polygon fill="#666666" stroke="#666666" points="121.38,-989 121.38,-989 264.38,-989 264.38,-989 121.38,-989"/>
<polygon fill="none" stroke="#666666" points="121.38,-891 121.38,-1023 264.38,-1023 264.38,-891 121.38,-891"/>
</a>
</g>
</g>
<!-- Node8&#45;&gt;Node7 -->
<g id="edge7_Node000007_Node000008" class="edge">
<title>Node8&#45;&gt;Node7</title>
<g id="a_edge7_Node000007_Node000008"><a xlink:title=" ">
<path fill="none" stroke="orange" d="M192.88,-879.98C192.88,-867.69 192.88,-855.01 192.88,-842.85"/>
<polygon fill="orange" stroke="orange" points="189.38,-879.61 192.88,-889.61 196.38,-879.61 189.38,-879.61"/>
</a>
</g>
<text text-anchor="middle" x="231.5" y="-863.5" font-family="Helvetica,sans-Serif" font-size="10.00" fill="grey"> &lt; SocketEvent &gt;</text>
</g>
<!-- Node9 -->
<g id="Node000009" class="node">
<title>Node9</title>
<g id="a_Node000009"><a xlink:href="structanch_1_1cutils_1_1cbuffer.html" target="_top" xlink:title="C buffer.">
<polygon fill="white" stroke="none" points="365.62,-357 272.12,-357 272.12,-257 365.62,-257 365.62,-357"/>
<text text-anchor="start" x="276.12" y="-343.5" font-family="Helvetica,sans-Serif" font-size="10.00">anch::cutils::cbuffer</text>
<text text-anchor="start" x="289.75" y="-327.5" font-family="Helvetica,sans-Serif" font-size="10.00">+</text>
<text text-anchor="start" x="313.38" y="-327.5" font-family="Helvetica,sans-Serif" font-size="10.00">data</text>
<text text-anchor="start" x="289.75" y="-311.5" font-family="Helvetica,sans-Serif" font-size="10.00">+</text>
<text text-anchor="start" x="313.38" y="-311.5" font-family="Helvetica,sans-Serif" font-size="10.00">size</text>
<text text-anchor="start" x="289.75" y="-295.5" font-family="Helvetica,sans-Serif" font-size="10.00">+</text>
<text text-anchor="start" x="313.38" y="-295.5" font-family="Helvetica,sans-Serif" font-size="10.00">read</text>
<text text-anchor="start" x="289.75" y="-279.5" font-family="Helvetica,sans-Serif" font-size="10.00">+</text>
<text text-anchor="start" x="313.38" y="-279.5" font-family="Helvetica,sans-Serif" font-size="10.00">write</text>
<text text-anchor="start" x="317.38" y="-263.5" font-family="Helvetica,sans-Serif" font-size="10.00"> </text>
<polygon fill="#666666" stroke="#666666" points="272.12,-339 272.12,-339 365.62,-339 365.62,-339 272.12,-339"/>
<polygon fill="#666666" stroke="#666666" points="272.12,-275 272.12,-275 311.38,-275 311.38,-275 272.12,-275"/>
<polygon fill="#666666" stroke="#666666" points="311.38,-275 311.38,-275 365.62,-275 365.62,-275 311.38,-275"/>
<polygon fill="none" stroke="#666666" points="272.12,-257 272.12,-357 365.62,-357 365.62,-257 272.12,-257"/>
</a>
</g>
</g>
<!-- Node9&#45;&gt;Node2 -->
<g id="edge8_Node000002_Node000009" class="edge">
<title>Node9&#45;&gt;Node2</title>
<g id="a_edge8_Node000002_Node000009"><a xlink:title=" ">
<path fill="none" stroke="#63b8ff" d="M276.92,-257.38C263.88,-242.28 249.49,-225.6 236.35,-210.37"/>
<polygon fill="none" stroke="#63b8ff" points="236.35,-210.38 229.4,-208.45 228.51,-201.29 235.46,-203.22 236.35,-210.38"/>
</a>
</g>
<text text-anchor="middle" x="270.85" y="-221.5" font-family="Helvetica,sans-Serif" font-size="10.00" fill="grey"> #_buffer</text>
</g>
</g>
</svg>
