<?xml version="1.0" encoding="UTF-8" standalone="no"?>
<!DOCTYPE svg PUBLIC "-//W3C//DTD SVG 1.1//EN"
 "http://www.w3.org/Graphics/SVG/1.1/DTD/svg11.dtd">
<!-- Generated by graphviz version 8.0.1 (0)
 -->
<!-- Title: anch::crypto::SHA384_512&lt; O, I &gt; Pages: 1 -->
<!--zoomable 1143 -->
<svg id="main" version="1.1" xmlns="http://www.w3.org/2000/svg" xmlns:xlink="http://www.w3.org/1999/xlink" xml:space="preserve" onload="init(evt)">
<style type="text/css"><![CDATA[
.edge:hover path { stroke: red; }
.edge:hover polygon { stroke: red; fill: red; }
]]></style>
<script type="text/javascript"><![CDATA[
var edges = document.getElementsByTagName('g');
if (edges && edges.length) {
  for (var i=0;i<edges.length;i++) {
    if (edges[i].id.substr(0,4)=='edge') {
      edges[i].setAttribute('class','edge');
    }
  }
}
]]></script>
        <defs>
                <circle id="rim" cx="0" cy="0" r="7"/>
                <circle id="rim2" cx="0" cy="0" r="3.5"/>
                <g id="zoomPlus">
                        <use xlink:href="#rim" fill="#404040">
                                <set attributeName="fill" to="#808080" begin="zoomplus.mouseover" end="zoomplus.mouseout"/>
                        </use>
                        <path d="M-4,0h8M0,-4v8" fill="none" stroke="white" stroke-width="1.5" pointer-events="none"/>
                </g>
                <g id="zoomMin">
                        <use xlink:href="#rim" fill="#404040">
                                <set attributeName="fill" to="#808080" begin="zoomminus.mouseover" end="zoomminus.mouseout"/>
                        </use>
                        <path d="M-4,0h8" fill="none" stroke="white" stroke-width="1.5" pointer-events="none"/>
                </g>
                <g id="dirArrow">
                        <path fill="none" stroke="white" stroke-width="1.5" d="M0,-3.0v7 M-2.5,-0.5L0,-3.0L2.5,-0.5"/>
                </g>
               <g id="resetDef">
                       <use xlink:href="#rim2" fill="#404040">
                               <set attributeName="fill" to="#808080" begin="reset.mouseover" end="reset.mouseout"/>
                       </use>
               </g>
        </defs>

<script type="text/javascript">
var viewWidth = 399;
var viewHeight = 1143;
var sectionId = 'dynsection-1';
</script>
<script xlink:href="svgpan.js"/>
<svg id="graph" class="graph">
<g id="viewport">
<title>anch::crypto::SHA384_512&lt; O, I &gt;</title>
<!-- Node1 -->
<g id="node1" class="node">
<title>Node1</title>
<g id="a_node1"><a xlink:title="SHA2 384/512 implementation.">
<polygon fill="#999999" stroke="#666666" points="66,-0.5 66,-101.5 187,-101.5 187,-0.5 66,-0.5"/>
<text text-anchor="start" x="74" y="-89.5" font-family="Helvetica,sans-Serif" font-size="10.00">anch::crypto::SHA384</text>
<text text-anchor="middle" x="126.5" y="-78.5" font-family="Helvetica,sans-Serif" font-size="10.00">_512&lt; O, I &gt;</text>
<polyline fill="none" stroke="#666666" points="66,-71.5 187,-71.5"/>
<text text-anchor="middle" x="126.5" y="-59.5" font-family="Helvetica,sans-Serif" font-size="10.00"> </text>
<polyline fill="none" stroke="#666666" points="66,-52.5 187,-52.5"/>
<text text-anchor="start" x="74" y="-40.5" font-family="Helvetica,sans-Serif" font-size="10.00">+ SHA384_512()</text>
<text text-anchor="start" x="74" y="-29.5" font-family="Helvetica,sans-Serif" font-size="10.00">+ SHA384_512()</text>
<text text-anchor="start" x="74" y="-18.5" font-family="Helvetica,sans-Serif" font-size="10.00">+ SHA384_512()</text>
<text text-anchor="start" x="74" y="-7.5" font-family="Helvetica,sans-Serif" font-size="10.00">+ ~SHA384_512()</text>
</a>
</g>
</g>
<!-- Node2 -->
<g id="node2" class="node">
<title>Node2</title>
<g id="a_node2"><a xlink:href="classanch_1_1crypto_1_1_s_h_a2.html" target="_top" xlink:title=" ">
<polygon fill="white" stroke="#666666" points="72,-139.5 72,-273.5 181,-273.5 181,-139.5 72,-139.5"/>
<text text-anchor="start" x="80" y="-261.5" font-family="Helvetica,sans-Serif" font-size="10.00">anch::crypto::SHA2</text>
<text text-anchor="start" x="80" y="-250.5" font-family="Helvetica,sans-Serif" font-size="10.00">&lt; O, 128, uint64_t,</text>
<text text-anchor="middle" x="126.5" y="-239.5" font-family="Helvetica,sans-Serif" font-size="10.00"> 80, I &gt;</text>
<polyline fill="none" stroke="#666666" points="72,-232.5 181,-232.5"/>
<text text-anchor="middle" x="126.5" y="-220.5" font-family="Helvetica,sans-Serif" font-size="10.00"> </text>
<polyline fill="none" stroke="#666666" points="72,-213.5 181,-213.5"/>
<text text-anchor="start" x="80" y="-201.5" font-family="Helvetica,sans-Serif" font-size="10.00">+ SHA2()</text>
<text text-anchor="start" x="80" y="-190.5" font-family="Helvetica,sans-Serif" font-size="10.00">+ ~SHA2()</text>
<text text-anchor="start" x="80" y="-179.5" font-family="Helvetica,sans-Serif" font-size="10.00">+ digest()</text>
<text text-anchor="start" x="80" y="-168.5" font-family="Helvetica,sans-Serif" font-size="10.00"># shiftRight()</text>
<text text-anchor="start" x="80" y="-157.5" font-family="Helvetica,sans-Serif" font-size="10.00"># rotateLeft()</text>
<text text-anchor="start" x="80" y="-146.5" font-family="Helvetica,sans-Serif" font-size="10.00"># rotateRight()</text>
</a>
</g>
</g>
<!-- Node2&#45;&gt;Node1 -->
<g id="edge1" class="edge">
<title>Node2&#45;&gt;Node1</title>
<path fill="none" stroke="#63b8ff" d="M126.5,-128.61C126.5,-119.3 126.5,-110 126.5,-101.24"/>
<polygon fill="none" stroke="#63b8ff" points="123,-128.51 126.5,-138.51 130,-128.51 123,-128.51"/>
</g>
<!-- Node3 -->
<g id="node3" class="node">
<title>Node3</title>
<g id="a_node3"><a xlink:href="classanch_1_1crypto_1_1_hash.html" target="_top" xlink:title="Hash algorithm abstract class.">
<polygon fill="white" stroke="#666666" points="0,-503.5 0,-670.5 107,-670.5 107,-503.5 0,-503.5"/>
<text text-anchor="start" x="8" y="-658.5" font-family="Helvetica,sans-Serif" font-size="10.00">anch::crypto::Hash</text>
<text text-anchor="middle" x="53.5" y="-647.5" font-family="Helvetica,sans-Serif" font-size="10.00">&lt; O, B &gt;</text>
<polyline fill="none" stroke="#666666" points="0,-640.5 107,-640.5"/>
<text text-anchor="middle" x="53.5" y="-628.5" font-family="Helvetica,sans-Serif" font-size="10.00"> </text>
<polyline fill="none" stroke="#666666" points="0,-621.5 107,-621.5"/>
<text text-anchor="start" x="8" y="-609.5" font-family="Helvetica,sans-Serif" font-size="10.00">+ digest()</text>
<text text-anchor="start" x="8" y="-598.5" font-family="Helvetica,sans-Serif" font-size="10.00">+ digest()</text>
<text text-anchor="start" x="8" y="-587.5" font-family="Helvetica,sans-Serif" font-size="10.00">+ digest()</text>
<text text-anchor="start" x="8" y="-576.5" font-family="Helvetica,sans-Serif" font-size="10.00">+ digest()</text>
<text text-anchor="start" x="8" y="-565.5" font-family="Helvetica,sans-Serif" font-size="10.00">+ digest()</text>
<text text-anchor="start" x="8" y="-554.5" font-family="Helvetica,sans-Serif" font-size="10.00">+ getOutputSize()</text>
<text text-anchor="start" x="8" y="-543.5" font-family="Helvetica,sans-Serif" font-size="10.00">+ getBlockSize()</text>
<text text-anchor="start" x="8" y="-532.5" font-family="Helvetica,sans-Serif" font-size="10.00"># reset()</text>
<text text-anchor="start" x="8" y="-521.5" font-family="Helvetica,sans-Serif" font-size="10.00"># addData()</text>
<text text-anchor="start" x="8" y="-510.5" font-family="Helvetica,sans-Serif" font-size="10.00"># finalize()</text>
</a>
</g>
</g>
<!-- Node3&#45;&gt;Node2 -->
<g id="edge2" class="edge">
<title>Node3&#45;&gt;Node2</title>
<path fill="none" stroke="#63b8ff" d="M53.05,-492.88C54.67,-444.31 59.6,-384.29 72.5,-332 77.35,-312.33 85.04,-291.82 93.11,-273.26"/>
<polygon fill="none" stroke="#63b8ff" points="49.53,-492.59 52.74,-502.69 56.53,-492.8 49.53,-492.59"/>
</g>
<!-- Node10 -->
<g id="node10" class="node">
<title>Node10</title>
<g id="a_node10"><a xlink:href="classanch_1_1crypto_1_1_s_h_a2.html" target="_top" xlink:title="SHA2 abstract class.">
<polygon fill="white" stroke="#666666" points="82,-332.5 82,-455.5 191,-455.5 191,-332.5 82,-332.5"/>
<text text-anchor="start" x="90" y="-443.5" font-family="Helvetica,sans-Serif" font-size="10.00">anch::crypto::SHA2</text>
<text text-anchor="middle" x="136.5" y="-432.5" font-family="Helvetica,sans-Serif" font-size="10.00">&lt; O, B, W, R, I &gt;</text>
<polyline fill="none" stroke="#666666" points="82,-425.5 191,-425.5"/>
<text text-anchor="middle" x="136.5" y="-413.5" font-family="Helvetica,sans-Serif" font-size="10.00"> </text>
<polyline fill="none" stroke="#666666" points="82,-406.5 191,-406.5"/>
<text text-anchor="start" x="90" y="-394.5" font-family="Helvetica,sans-Serif" font-size="10.00">+ SHA2()</text>
<text text-anchor="start" x="90" y="-383.5" font-family="Helvetica,sans-Serif" font-size="10.00">+ ~SHA2()</text>
<text text-anchor="start" x="90" y="-372.5" font-family="Helvetica,sans-Serif" font-size="10.00">+ digest()</text>
<text text-anchor="start" x="90" y="-361.5" font-family="Helvetica,sans-Serif" font-size="10.00"># shiftRight()</text>
<text text-anchor="start" x="90" y="-350.5" font-family="Helvetica,sans-Serif" font-size="10.00"># rotateLeft()</text>
<text text-anchor="start" x="90" y="-339.5" font-family="Helvetica,sans-Serif" font-size="10.00"># rotateRight()</text>
</a>
</g>
</g>
<!-- Node3&#45;&gt;Node10 -->
<g id="edge14" class="edge">
<title>Node3&#45;&gt;Node10</title>
<path fill="none" stroke="#63b8ff" d="M93.63,-493.66C99.3,-480.6 105.01,-467.47 110.33,-455.23"/>
<polygon fill="none" stroke="#63b8ff" points="90.08,-492.05 89.3,-502.61 96.5,-494.84 90.08,-492.05"/>
</g>
<!-- Node4 -->
<g id="node4" class="node">
<title>Node4</title>
<g id="a_node4"><a xlink:title=" ">
<polygon fill="white" stroke="#666666" points="64,-867.5 64,-924.5 197,-924.5 197,-867.5 64,-867.5"/>
<text text-anchor="middle" x="130.5" y="-912.5" font-family="Helvetica,sans-Serif" font-size="10.00">std::array&lt; uint8_t, O &gt;</text>
<polyline fill="none" stroke="#666666" points="64,-905.5 197,-905.5"/>
<text text-anchor="start" x="72" y="-893.5" font-family="Helvetica,sans-Serif" font-size="10.00">+ elements</text>
<polyline fill="none" stroke="#666666" points="64,-886.5 197,-886.5"/>
<text text-anchor="middle" x="130.5" y="-874.5" font-family="Helvetica,sans-Serif" font-size="10.00"> </text>
</a>
</g>
</g>
<!-- Node4&#45;&gt;Node3 -->
<g id="edge3" class="edge">
<title>Node4&#45;&gt;Node3</title>
<path fill="none" stroke="#404040" d="M96.34,-867.56C82.91,-854.68 68.95,-838.17 61.5,-820 44,-777.33 40.55,-726.45 42.08,-683.23"/>
<polygon fill="none" stroke="#404040" points="42.08,-683.26 38.37,-677.08 42.65,-671.27 46.36,-677.45 42.08,-683.26"/>
<text text-anchor="middle" x="85" y="-766.5" font-family="Helvetica,sans-Serif" font-size="10.00"> #_digest</text>
</g>
<!-- Node7 -->
<g id="node7" class="node">
<title>Node7</title>
<g id="a_node7"><a xlink:href="structanch_1_1crypto_1_1_s_h_a2_1_1_context.html" target="_top" xlink:title=" ">
<polygon fill="white" stroke="#666666" points="153,-542 153,-632 320,-632 320,-542 153,-542"/>
<text text-anchor="start" x="161" y="-620" font-family="Helvetica,sans-Serif" font-size="10.00">anch::crypto::SHA2</text>
<text text-anchor="middle" x="236.5" y="-609" font-family="Helvetica,sans-Serif" font-size="10.00">&lt; O, B, W, R, I &gt;::Context&lt; I &gt;</text>
<polyline fill="none" stroke="#666666" points="153,-602 320,-602"/>
<text text-anchor="start" x="161" y="-590" font-family="Helvetica,sans-Serif" font-size="10.00">+ size</text>
<text text-anchor="start" x="161" y="-579" font-family="Helvetica,sans-Serif" font-size="10.00">+ buffer</text>
<polyline fill="none" stroke="#666666" points="153,-572 320,-572"/>
<text text-anchor="start" x="161" y="-560" font-family="Helvetica,sans-Serif" font-size="10.00">+ Context()</text>
<text text-anchor="start" x="161" y="-549" font-family="Helvetica,sans-Serif" font-size="10.00">+ reset()</text>
</a>
</g>
</g>
<!-- Node4&#45;&gt;Node7 -->
<g id="edge9" class="edge">
<title>Node4&#45;&gt;Node7</title>
<path fill="none" stroke="#404040" d="M127.09,-867.66C123.71,-832.04 121.35,-768.37 139.5,-718 149.48,-690.32 167.47,-663.57 185.27,-641.62"/>
<polygon fill="none" stroke="#404040" points="185.14,-641.78 185.92,-634.61 192.83,-632.57 192.06,-639.74 185.14,-641.78"/>
<text text-anchor="middle" x="160.5" y="-766.5" font-family="Helvetica,sans-Serif" font-size="10.00"> +digest</text>
</g>
<!-- Node9 -->
<g id="node9" class="node">
<title>Node9</title>
<g id="a_node9"><a xlink:href="structanch_1_1crypto_1_1_s_h_a2_1_1_context.html" target="_top" xlink:title=" ">
<polygon fill="white" stroke="#666666" points="191,-718.5 191,-819.5 332,-819.5 332,-718.5 191,-718.5"/>
<text text-anchor="start" x="199" y="-807.5" font-family="Helvetica,sans-Serif" font-size="10.00">anch::crypto::SHA2</text>
<text text-anchor="start" x="199" y="-796.5" font-family="Helvetica,sans-Serif" font-size="10.00">&lt; O, B, W, R, I &gt;::Context</text>
<text text-anchor="middle" x="261.5" y="-785.5" font-family="Helvetica,sans-Serif" font-size="10.00">&lt; Init &gt;</text>
<polyline fill="none" stroke="#666666" points="191,-778.5 332,-778.5"/>
<text text-anchor="start" x="199" y="-766.5" font-family="Helvetica,sans-Serif" font-size="10.00">+ size</text>
<text text-anchor="start" x="199" y="-755.5" font-family="Helvetica,sans-Serif" font-size="10.00">+ buffer</text>
<polyline fill="none" stroke="#666666" points="191,-748.5 332,-748.5"/>
<text text-anchor="start" x="199" y="-736.5" font-family="Helvetica,sans-Serif" font-size="10.00">+ Context()</text>
<text text-anchor="start" x="199" y="-725.5" font-family="Helvetica,sans-Serif" font-size="10.00">+ reset()</text>
</a>
</g>
</g>
<!-- Node4&#45;&gt;Node9 -->
<g id="edge12" class="edge">
<title>Node4&#45;&gt;Node9</title>
<path fill="none" stroke="#404040" d="M159.25,-867.57C171.42,-855.95 186.09,-841.95 200.48,-828.23"/>
<polygon fill="none" stroke="#404040" points="200.53,-828.18 202.11,-821.14 209.21,-819.9 207.63,-826.93 200.53,-828.18"/>
<text text-anchor="middle" x="209.5" y="-841" font-family="Helvetica,sans-Serif" font-size="10.00"> +digest</text>
</g>
<!-- Node5 -->
<g id="node5" class="node">
<title>Node5</title>
<g id="a_node5"><a xlink:title=" ">
<polygon fill="white" stroke="#666666" points="153.5,-972.5 153.5,-1029.5 245.5,-1029.5 245.5,-972.5 153.5,-972.5"/>
<text text-anchor="middle" x="199.5" y="-1017.5" font-family="Helvetica,sans-Serif" font-size="10.00">std::array&lt; T &gt;</text>
<polyline fill="none" stroke="#666666" points="153.5,-1010.5 245.5,-1010.5"/>
<text text-anchor="middle" x="199.5" y="-998.5" font-family="Helvetica,sans-Serif" font-size="10.00"> </text>
<polyline fill="none" stroke="#666666" points="153.5,-991.5 245.5,-991.5"/>
<text text-anchor="middle" x="199.5" y="-979.5" font-family="Helvetica,sans-Serif" font-size="10.00"> </text>
</a>
</g>
</g>
<!-- Node5&#45;&gt;Node4 -->
<g id="edge4" class="edge">
<title>Node5&#45;&gt;Node4</title>
<path fill="none" stroke="orange" d="M169.92,-964.39C167.34,-960.94 164.82,-957.44 162.5,-954 156.14,-944.6 149.87,-933.84 144.59,-924.23"/>
<polygon fill="orange" stroke="orange" points="167.55,-966.05 176.43,-971.84 173.1,-961.78 167.55,-966.05"/>
<text text-anchor="middle" x="199" y="-946" font-family="Helvetica,sans-Serif" font-size="10.00"> &lt; uint8_t, O &gt;</text>
</g>
<!-- Node8 -->
<g id="node8" class="node">
<title>Node8</title>
<g id="a_node8"><a xlink:title=" ">
<polygon fill="white" stroke="#666666" points="215,-867.5 215,-924.5 322,-924.5 322,-867.5 215,-867.5"/>
<text text-anchor="middle" x="268.5" y="-912.5" font-family="Helvetica,sans-Serif" font-size="10.00">std::array&lt; W, 8 &gt;</text>
<polyline fill="none" stroke="#666666" points="215,-905.5 322,-905.5"/>
<text text-anchor="start" x="223" y="-893.5" font-family="Helvetica,sans-Serif" font-size="10.00">+ elements</text>
<polyline fill="none" stroke="#666666" points="215,-886.5 322,-886.5"/>
<text text-anchor="middle" x="268.5" y="-874.5" font-family="Helvetica,sans-Serif" font-size="10.00"> </text>
</a>
</g>
</g>
<!-- Node5&#45;&gt;Node8 -->
<g id="edge8" class="edge">
<title>Node5&#45;&gt;Node8</title>
<path fill="none" stroke="orange" d="M228.42,-964.02C230.87,-960.68 233.27,-957.3 235.5,-954 241.84,-944.62 248.21,-933.97 253.64,-924.44"/>
<polygon fill="orange" stroke="orange" points="225.07,-961.64 221.84,-971.74 230.66,-965.86 225.07,-961.64"/>
<text text-anchor="middle" x="266.5" y="-946" font-family="Helvetica,sans-Serif" font-size="10.00"> &lt; W, 8 &gt;</text>
</g>
<!-- Node6 -->
<g id="node6" class="node">
<title>Node6</title>
<g id="a_node6"><a xlink:title=" ">
<polygon fill="white" stroke="#bfbfbf" points="185,-1077.5 185,-1134.5 214,-1134.5 214,-1077.5 185,-1077.5"/>
<text text-anchor="middle" x="199.5" y="-1122.5" font-family="Helvetica,sans-Serif" font-size="10.00">T</text>
<polyline fill="none" stroke="#bfbfbf" points="185,-1115.5 214,-1115.5"/>
<text text-anchor="middle" x="199.5" y="-1103.5" font-family="Helvetica,sans-Serif" font-size="10.00"> </text>
<polyline fill="none" stroke="#bfbfbf" points="185,-1096.5 214,-1096.5"/>
<text text-anchor="middle" x="199.5" y="-1084.5" font-family="Helvetica,sans-Serif" font-size="10.00"> </text>
</a>
</g>
</g>
<!-- Node6&#45;&gt;Node5 -->
<g id="edge5" class="edge">
<title>Node6&#45;&gt;Node5</title>
<path fill="none" stroke="#404040" d="M199.5,-1077.67C199.5,-1066.84 199.5,-1054.17 199.5,-1042.33"/>
<polygon fill="none" stroke="#404040" points="199.5,-1042.36 195.5,-1036.36 199.5,-1030.36 203.5,-1036.36 199.5,-1042.36"/>
<text text-anchor="middle" x="228.5" y="-1051" font-family="Helvetica,sans-Serif" font-size="10.00"> +elements</text>
</g>
<!-- Node7&#45;&gt;Node2 -->
<g id="edge6" class="edge">
<title>Node7&#45;&gt;Node2</title>
<path fill="none" stroke="#404040" d="M244.6,-542.07C253.43,-482.23 261.59,-373.28 222.5,-292 214.99,-276.38 203.13,-262.43 190.28,-250.59"/>
<polygon fill="none" stroke="#404040" points="190.53,-250.8 183.38,-249.88 181.47,-242.93 188.63,-243.85 190.53,-250.8"/>
<text text-anchor="middle" x="279.5" y="-391.5" font-family="Helvetica,sans-Serif" font-size="10.00"> #_context</text>
</g>
<!-- Node7&#45;&gt;Node10 -->
<g id="edge15" class="edge">
<title>Node7&#45;&gt;Node10</title>
<path fill="none" stroke="#404040" d="M203.52,-542.22C191.48,-524.98 178.4,-504.63 168.5,-485 165.63,-479.32 162.91,-473.31 160.34,-467.21"/>
<polygon fill="none" stroke="#404040" points="160.42,-467.4 154.47,-463.32 155.95,-456.26 161.9,-460.34 160.42,-467.4"/>
<text text-anchor="middle" x="195.5" y="-477" font-family="Helvetica,sans-Serif" font-size="10.00"> #_context</text>
</g>
<!-- Node8&#45;&gt;Node7 -->
<g id="edge7" class="edge">
<title>Node8&#45;&gt;Node7</title>
<path fill="none" stroke="#404040" d="M305.31,-867.71C319.44,-854.97 333.98,-838.52 341.5,-820 358.56,-778 356.61,-760.74 341.5,-718 331.52,-689.77 312.53,-663.18 293.41,-641.49"/>
<polygon fill="none" stroke="#404040" points="293.34,-641.41 286.34,-639.67 285.25,-632.54 292.25,-634.28 293.34,-641.41"/>
<text text-anchor="middle" x="372" y="-766.5" font-family="Helvetica,sans-Serif" font-size="10.00"> +state</text>
</g>
<!-- Node8&#45;&gt;Node9 -->
<g id="edge11" class="edge">
<title>Node8&#45;&gt;Node9</title>
<path fill="none" stroke="#404040" d="M266.96,-867.57C266.38,-857.06 265.68,-844.6 264.98,-832.15"/>
<polygon fill="none" stroke="#404040" points="264.98,-832.15 260.65,-826.39 264.31,-820.17 268.64,-825.94 264.98,-832.15"/>
<text text-anchor="middle" x="285" y="-841" font-family="Helvetica,sans-Serif" font-size="10.00"> +state</text>
</g>
<!-- Node9&#45;&gt;Node7 -->
<g id="edge10" class="edge">
<title>Node9&#45;&gt;Node7</title>
<path fill="none" stroke="orange" d="M253.17,-708.02C249.71,-683.14 245.78,-654.8 242.6,-631.9"/>
<polygon fill="orange" stroke="orange" points="249.83,-708.39 254.67,-717.81 256.76,-707.43 249.83,-708.39"/>
<text text-anchor="middle" x="267" y="-692" font-family="Helvetica,sans-Serif" font-size="10.00"> &lt; I &gt;</text>
</g>
<!-- Node10&#45;&gt;Node2 -->
<g id="edge13" class="edge">
<title>Node10&#45;&gt;Node2</title>
<path fill="none" stroke="orange" d="M128.04,-321.79C127.84,-319.16 127.66,-316.56 127.5,-314 126.69,-300.9 126.26,-286.87 126.05,-273.44"/>
<polygon fill="orange" stroke="orange" points="124.63,-322.01 128.97,-331.67 131.61,-321.41 124.63,-322.01"/>
<text text-anchor="start" x="127.5" y="-306" font-family="Helvetica,sans-Serif" font-size="10.00"> &lt; O, 128, uint64_t,</text>
<text text-anchor="middle" x="175" y="-295" font-family="Helvetica,sans-Serif" font-size="10.00"> 80, I &gt;</text>
</g>
</g>
</svg>
        <g id="navigator" transform="translate(0 0)" fill="#404254">
                <rect fill="#f2f5e9" fill-opacity="0.5" stroke="#606060" stroke-width=".5" x="0" y="0" width="60" height="60"/>
                <use id="zoomplus" xlink:href="#zoomPlus" x="17" y="9" onmousedown="handleZoom(evt,'in')"/>
                <use id="zoomminus" xlink:href="#zoomMin" x="42" y="9" onmousedown="handleZoom(evt,'out')"/>
                <use id="reset" xlink:href="#resetDef" x="30" y="36" onmousedown="handleReset()"/>
                <g id="arrowUp" xlink:href="#dirArrow" transform="translate(30 24)" onmousedown="handlePan(0,-1)">
                  <use xlink:href="#rim" fill="#404040">
                        <set attributeName="fill" to="#808080" begin="arrowUp.mouseover" end="arrowUp.mouseout"/>
                  </use>
                  <path fill="none" stroke="white" stroke-width="1.5" d="M0,-3.0v7 M-2.5,-0.5L0,-3.0L2.5,-0.5"/>
                </g>
                <g id="arrowRight" xlink:href="#dirArrow" transform="rotate(90) translate(36 -43)" onmousedown="handlePan(1,0)">
                  <use xlink:href="#rim" fill="#404040">
                        <set attributeName="fill" to="#808080" begin="arrowRight.mouseover" end="arrowRight.mouseout"/>
                  </use>
                  <path fill="none" stroke="white" stroke-width="1.5" d="M0,-3.0v7 M-2.5,-0.5L0,-3.0L2.5,-0.5"/>
                </g>
                <g id="arrowDown" xlink:href="#dirArrow" transform="rotate(180) translate(-30 -48)" onmousedown="handlePan(0,1)">
                  <use xlink:href="#rim" fill="#404040">
                        <set attributeName="fill" to="#808080" begin="arrowDown.mouseover" end="arrowDown.mouseout"/>
                  </use>
                  <path fill="none" stroke="white" stroke-width="1.5" d="M0,-3.0v7 M-2.5,-0.5L0,-3.0L2.5,-0.5"/>
                </g>
                <g id="arrowLeft" xlink:href="#dirArrow" transform="rotate(270) translate(-36 17)" onmousedown="handlePan(-1,0)">
                  <use xlink:href="#rim" fill="#404040">
                        <set attributeName="fill" to="#808080" begin="arrowLeft.mouseover" end="arrowLeft.mouseout"/>
                  </use>
                  <path fill="none" stroke="white" stroke-width="1.5" d="M0,-3.0v7 M-2.5,-0.5L0,-3.0L2.5,-0.5"/>
                </g>
        </g>
        <svg viewBox="0 0 15 15" width="100%" height="30px" preserveAspectRatio="xMaxYMin meet">
         <g id="arrow_out" transform="scale(0.3 0.3)">
          <a xlink:href="classanch_1_1crypto_1_1_s_h_a384__512__coll__graph_org.svg" target="_base">
           <rect id="button" ry="5" rx="5" y="6" x="6" height="38" width="38"
                fill="#f2f5e9" fill-opacity="0.5" stroke="#606060" stroke-width="1.0"/>
           <path id="arrow"
             d="M 11.500037,31.436501 C 11.940474,20.09759 22.043105,11.32322 32.158766,21.979434 L 37.068811,17.246167 C 37.068811,17.246167 37.088388,32 37.088388,32 L 22.160133,31.978069 C 22.160133,31.978069 26.997745,27.140456 26.997745,27.140456 C 18.528582,18.264221 13.291696,25.230495 11.500037,31.436501 z"
             style="fill:#404040;"/>
          </a>
         </g>
        </svg>
</svg>
