<?xml version="1.0" encoding="UTF-8" standalone="no"?>
<!DOCTYPE svg PUBLIC "-//W3C//DTD SVG 1.1//EN"
 "http://www.w3.org/Graphics/SVG/1.1/DTD/svg11.dtd">
<!-- Generated by graphviz version 14.0.4 (0)
 -->
<!-- Title: anch::cutils::CIOStream Pages: 1 -->
<svg width="272pt" height="448pt"
 viewBox="0.00 0.00 272.00 448.00" xmlns="http://www.w3.org/2000/svg" xmlns:xlink="http://www.w3.org/1999/xlink">
<g id="graph0" class="graph" transform="scale(1 1) rotate(0) translate(4 444)">
<title>anch::cutils::CIOStream</title>
<!-- Node1 -->
<g id="Node000001" class="node">
<title>Node1</title>
<g id="a_Node000001"><a xlink:title=" ">
<polygon fill="#999999" stroke="none" points="188.25,-352 74.5,-352 74.5,-252 188.25,-252 188.25,-352"/>
<text xml:space="preserve" text-anchor="start" x="78.5" y="-338.5" font-family="Helvetica,sans-Serif" font-size="10.00">anch::cutils::CIOStream</text>
<text xml:space="preserve" text-anchor="start" x="129.88" y="-322.5" font-family="Helvetica,sans-Serif" font-size="10.00"> </text>
<text xml:space="preserve" text-anchor="start" x="87.06" y="-306.5" font-family="Helvetica,sans-Serif" font-size="10.00">+</text>
<text xml:space="preserve" text-anchor="start" x="105.62" y="-306.5" font-family="Helvetica,sans-Serif" font-size="10.00">CIOStream()</text>
<text xml:space="preserve" text-anchor="start" x="87.06" y="-290.5" font-family="Helvetica,sans-Serif" font-size="10.00">+</text>
<text xml:space="preserve" text-anchor="start" x="105.62" y="-290.5" font-family="Helvetica,sans-Serif" font-size="10.00">~CIOStream()</text>
<text xml:space="preserve" text-anchor="start" x="87.44" y="-274.5" font-family="Helvetica,sans-Serif" font-size="10.00">#</text>
<text xml:space="preserve" text-anchor="start" x="105.62" y="-274.5" font-family="Helvetica,sans-Serif" font-size="10.00">CIOStream()</text>
<text xml:space="preserve" text-anchor="start" x="87.44" y="-258.5" font-family="Helvetica,sans-Serif" font-size="10.00">#</text>
<text xml:space="preserve" text-anchor="start" x="105.62" y="-258.5" font-family="Helvetica,sans-Serif" font-size="10.00">setBuffer()</text>
<polygon fill="#666666" stroke="#666666" points="74.5,-334 74.5,-334 188.25,-334 188.25,-334 74.5,-334"/>
<polygon fill="#666666" stroke="#666666" points="74.5,-318 74.5,-318 188.25,-318 188.25,-318 74.5,-318"/>
<polygon fill="none" stroke="#666666" points="74.5,-252 74.5,-352 188.25,-352 188.25,-252 74.5,-252"/>
</a>
</g>
</g>
<!-- Node3 -->
<g id="Node000003" class="node">
<title>Node3</title>
<g id="a_Node000003"><a xlink:href="classanch_1_1network_1_1_tcp_stream.html" target="_top" xlink:title=" ">
<polygon fill="white" stroke="none" points="192.75,-216 70,-216 70,-116 192.75,-116 192.75,-216"/>
<text xml:space="preserve" text-anchor="start" x="74" y="-202.5" font-family="Helvetica,sans-Serif" font-size="10.00">anch::network::TcpStream</text>
<text xml:space="preserve" text-anchor="start" x="85.19" y="-186.5" font-family="Helvetica,sans-Serif" font-size="10.00">#</text>
<text xml:space="preserve" text-anchor="start" x="105.62" y="-186.5" font-family="Helvetica,sans-Serif" font-size="10.00">_socket</text>
<text xml:space="preserve" text-anchor="start" x="85.19" y="-170.5" font-family="Helvetica,sans-Serif" font-size="10.00">#</text>
<text xml:space="preserve" text-anchor="start" x="105.62" y="-170.5" font-family="Helvetica,sans-Serif" font-size="10.00">_buffer</text>
<text xml:space="preserve" text-anchor="start" x="84.81" y="-154.5" font-family="Helvetica,sans-Serif" font-size="10.00">+</text>
<text xml:space="preserve" text-anchor="start" x="105.62" y="-154.5" font-family="Helvetica,sans-Serif" font-size="10.00">TcpStream()</text>
<text xml:space="preserve" text-anchor="start" x="84.81" y="-138.5" font-family="Helvetica,sans-Serif" font-size="10.00">+</text>
<text xml:space="preserve" text-anchor="start" x="105.62" y="-138.5" font-family="Helvetica,sans-Serif" font-size="10.00">~TcpStream()</text>
<text xml:space="preserve" text-anchor="start" x="84.81" y="-122.5" font-family="Helvetica,sans-Serif" font-size="10.00">+</text>
<text xml:space="preserve" text-anchor="start" x="105.62" y="-122.5" font-family="Helvetica,sans-Serif" font-size="10.00">addObserver()</text>
<polygon fill="#666666" stroke="#666666" points="70,-198 70,-198 192.75,-198 192.75,-198 70,-198"/>
<polygon fill="#666666" stroke="#666666" points="70,-166 70,-166 103.62,-166 103.62,-166 70,-166"/>
<polygon fill="#666666" stroke="#666666" points="103.62,-166 103.62,-166 192.75,-166 192.75,-166 103.62,-166"/>
<polygon fill="none" stroke="#666666" points="70,-116 70,-216 192.75,-216 192.75,-116 70,-116"/>
</a>
</g>
</g>
<!-- Node1&#45;&gt;Node3 -->
<g id="edge2_Node000001_Node000003" class="edge">
<title>Node1&#45;&gt;Node3</title>
<g id="a_edge2_Node000001_Node000003"><a xlink:title=" ">
<path fill="none" stroke="#63b8ff" d="M131.38,-240.97C131.38,-232.6 131.38,-224.08 131.38,-215.94"/>
<polygon fill="none" stroke="#63b8ff" points="127.88,-240.73 131.38,-250.73 134.88,-240.73 127.88,-240.73"/>
</a>
</g>
</g>
<!-- Node2 -->
<g id="Node000002" class="node">
<title>Node2</title>
<g id="a_Node000002"><a xlink:title=" ">
<polygon fill="white" stroke="none" points="163.88,-440 98.88,-440 98.88,-388 163.88,-388 163.88,-440"/>
<text xml:space="preserve" text-anchor="start" x="102.88" y="-426.5" font-family="Helvetica,sans-Serif" font-size="10.00">std::iostream</text>
<text xml:space="preserve" text-anchor="start" x="129.88" y="-410.5" font-family="Helvetica,sans-Serif" font-size="10.00"> </text>
<text xml:space="preserve" text-anchor="start" x="129.88" y="-394.5" font-family="Helvetica,sans-Serif" font-size="10.00"> </text>
<polygon fill="#bfbfbf" stroke="#bfbfbf" points="98.88,-422 98.88,-422 163.88,-422 163.88,-422 98.88,-422"/>
<polygon fill="#bfbfbf" stroke="#bfbfbf" points="98.88,-406 98.88,-406 163.88,-406 163.88,-406 98.88,-406"/>
<polygon fill="none" stroke="#bfbfbf" points="98.88,-388 98.88,-440 163.88,-440 163.88,-388 98.88,-388"/>
</a>
</g>
</g>
<!-- Node2&#45;&gt;Node1 -->
<g id="edge1_Node000001_Node000002" class="edge">
<title>Node2&#45;&gt;Node1</title>
<g id="a_edge1_Node000001_Node000002"><a xlink:title=" ">
<path fill="none" stroke="#63b8ff" d="M131.38,-376.53C131.38,-368.58 131.38,-360.05 131.38,-351.72"/>
<polygon fill="none" stroke="#63b8ff" points="127.88,-376.53 131.38,-386.53 134.88,-376.53 127.88,-376.53"/>
</a>
</g>
</g>
<!-- Node4 -->
<g id="Node000004" class="node">
<title>Node4</title>
<g id="a_Node000004"><a xlink:href="classanch_1_1network_1_1_tcp_stream_client.html" target="_top" xlink:title="TCP stream client.">
<polygon fill="white" stroke="none" points="122.75,-80 0,-80 0,0 122.75,0 122.75,-80"/>
<text xml:space="preserve" text-anchor="start" x="4" y="-66.5" font-family="Helvetica,sans-Serif" font-size="10.00">anch::network::TcpStream</text>
<text xml:space="preserve" text-anchor="start" x="48.62" y="-54.5" font-family="Helvetica,sans-Serif" font-size="10.00">Client</text>
<text xml:space="preserve" text-anchor="start" x="59.88" y="-38.5" font-family="Helvetica,sans-Serif" font-size="10.00"> </text>
<text xml:space="preserve" text-anchor="start" x="9" y="-22.5" font-family="Helvetica,sans-Serif" font-size="10.00">+</text>
<text xml:space="preserve" text-anchor="start" x="24" y="-22.5" font-family="Helvetica,sans-Serif" font-size="10.00">TcpStreamClient()</text>
<text xml:space="preserve" text-anchor="start" x="9" y="-6.5" font-family="Helvetica,sans-Serif" font-size="10.00">+</text>
<text xml:space="preserve" text-anchor="start" x="24" y="-6.5" font-family="Helvetica,sans-Serif" font-size="10.00">~TcpStreamClient()</text>
<polygon fill="#666666" stroke="#666666" points="0,-50 0,-50 122.75,-50 122.75,-50 0,-50"/>
<polygon fill="#666666" stroke="#666666" points="0,-34 0,-34 122.75,-34 122.75,-34 0,-34"/>
<polygon fill="none" stroke="#666666" points="0,0 0,-80 122.75,-80 122.75,0 0,0"/>
</a>
</g>
</g>
<!-- Node3&#45;&gt;Node4 -->
<g id="edge3_Node000003_Node000004" class="edge">
<title>Node3&#45;&gt;Node4</title>
<g id="a_edge3_Node000003_Node000004"><a xlink:title=" ">
<path fill="none" stroke="#63b8ff" d="M98.41,-106.61C93.31,-97.57 88.14,-88.42 83.36,-79.94"/>
<polygon fill="none" stroke="#63b8ff" points="95.2,-108.04 103.17,-115.03 101.3,-104.6 95.2,-108.04"/>
</a>
</g>
</g>
<!-- Node5 -->
<g id="Node000005" class="node">
<title>Node5</title>
<g id="a_Node000005"><a xlink:href="classanch_1_1network_1_1_tcp_stream_server.html" target="_top" xlink:title="TCP stream server.">
<polygon fill="white" stroke="none" points="263.75,-80 141,-80 141,0 263.75,0 263.75,-80"/>
<text xml:space="preserve" text-anchor="start" x="145" y="-66.5" font-family="Helvetica,sans-Serif" font-size="10.00">anch::network::TcpStream</text>
<text xml:space="preserve" text-anchor="start" x="188.12" y="-54.5" font-family="Helvetica,sans-Serif" font-size="10.00">Server</text>
<text xml:space="preserve" text-anchor="start" x="200.88" y="-38.5" font-family="Helvetica,sans-Serif" font-size="10.00"> </text>
<text xml:space="preserve" text-anchor="start" x="149.25" y="-22.5" font-family="Helvetica,sans-Serif" font-size="10.00">+</text>
<text xml:space="preserve" text-anchor="start" x="163.5" y="-22.5" font-family="Helvetica,sans-Serif" font-size="10.00">TcpStreamServer()</text>
<text xml:space="preserve" text-anchor="start" x="149.25" y="-6.5" font-family="Helvetica,sans-Serif" font-size="10.00">+</text>
<text xml:space="preserve" text-anchor="start" x="163.5" y="-6.5" font-family="Helvetica,sans-Serif" font-size="10.00">~TcpStreamServer()</text>
<polygon fill="#666666" stroke="#666666" points="141,-50 141,-50 263.75,-50 263.75,-50 141,-50"/>
<polygon fill="#666666" stroke="#666666" points="141,-34 141,-34 263.75,-34 263.75,-34 141,-34"/>
<polygon fill="none" stroke="#666666" points="141,0 141,-80 263.75,-80 263.75,0 141,0"/>
</a>
</g>
</g>
<!-- Node3&#45;&gt;Node5 -->
<g id="edge4_Node000003_Node000005" class="edge">
<title>Node3&#45;&gt;Node5</title>
<g id="a_edge4_Node000003_Node000005"><a xlink:title=" ">
<path fill="none" stroke="#63b8ff" d="M164.81,-106.61C169.99,-97.57 175.22,-88.42 180.08,-79.94"/>
<polygon fill="none" stroke="#63b8ff" points="161.92,-104.62 159.98,-115.03 167.99,-108.1 161.92,-104.62"/>
</a>
</g>
</g>
</g>
</svg>
