<?xml version="1.0" encoding="UTF-8" standalone="no"?>
<!DOCTYPE svg PUBLIC "-//W3C//DTD SVG 1.1//EN"
 "http://www.w3.org/Graphics/SVG/1.1/DTD/svg11.dtd">
<!-- Generated by graphviz version 12.1.2 (0)
 -->
<!-- Title: anch::logger::formatter::IFormatter Pages: 1 -->
<!--zoomable 252 -->

<svg id="main" version="1.1" xmlns="http://www.w3.org/2000/svg" xmlns:xlink="http://www.w3.org/1999/xlink" xml:space="preserve" onload="init(evt)">

<style type="text/css"><![CDATA[
.node, .edge {opacity: 0.7;}
.node.selected, .edge.selected {opacity: 1;}
.edge:hover path { stroke: red; }
.edge:hover polygon { stroke: red; fill: red; }
]]></style>

<defs>
  <circle id="rim" cx="0" cy="0" r="7"/>
  <circle id="rim2" cx="0" cy="0" r="3.5"/>
  <g id="zoomPlus">
    <use xlink:href="#rim" fill="#404040"><set attributeName="fill" to="#808080" begin="zoomplus.mouseover" end="zoomplus.mouseout"/></use>
    <path d="M-4,0h8M0,-4v8" fill="none" stroke="white" stroke-width="1.5" pointer-events="none"/>
  </g>
  <g id="zoomMin">
    <use xlink:href="#rim" fill="#404040"><set attributeName="fill" to="#808080" begin="zoomminus.mouseover" end="zoomminus.mouseout"/></use>
    <path d="M-4,0h8" fill="none" stroke="white" stroke-width="1.5" pointer-events="none"/>
  </g>
  <g id="arrowUp" transform="translate(30 24)">
    <use xlink:href="#rim"/>
    <path pointer-events="none" fill="none" stroke="white" stroke-width="1.5" d="M0,-3.0v7 M-2.5,-0.5L0,-3.0L2.5,-0.5"/>
  </g>
  <g id="arrowRight" transform="rotate(90) translate(36 -43)">
    <use xlink:href="#rim"/>
    <path pointer-events="none" fill="none" stroke="white" stroke-width="1.5" d="M0,-3.0v7 M-2.5,-0.5L0,-3.0L2.5,-0.5"/>
  </g>
  <g id="arrowDown" transform="rotate(180) translate(-30 -48)">
    <use xlink:href="#rim"/>
    <path pointer-events="none" fill="none" stroke="white" stroke-width="1.5" d="M0,-3.0v7 M-2.5,-0.5L0,-3.0L2.5,-0.5"/>
  </g>
  <g id="arrowLeft" transform="rotate(270) translate(-36 17)">
    <use xlink:href="#rim"/>
    <path pointer-events="none" fill="none" stroke="white" stroke-width="1.5" d="M0,-3.0v7 M-2.5,-0.5L0,-3.0L2.5,-0.5"/>
  </g>
  <g id="resetDef">
    <use xlink:href="#rim2" fill="#404040"><set attributeName="fill" to="#808080" begin="reset.mouseover" end="reset.mouseout"/></use>
  </g>
</defs>
<script type="application/ecmascript">
var viewWidth = 1011;
var viewHeight = 252;
var sectionId = 'dynsection-0';
</script>
<script type="application/ecmascript" xlink:href="svg.min.js"/>
<svg id="graph" class="graph">
<g id="viewport">
<title>anch::logger::formatter::IFormatter</title>
<!-- Node1 -->
<g id="Node000001" class="node">
<title>Node1</title>
<g id="a_Node000001"><a xlink:title=" ">
<polygon fill="#999999" stroke="none" points="559.5,-244 451.5,-244 451.5,-148 559.5,-148 559.5,-244"/>
<text text-anchor="start" x="456.38" y="-230.5" font-family="Helvetica,sans-Serif" font-size="10.00">anch::logger::formatter</text>
<text text-anchor="start" x="480" y="-218.5" font-family="Helvetica,sans-Serif" font-size="10.00">::IFormatter</text>
<text text-anchor="start" x="504" y="-202.5" font-family="Helvetica,sans-Serif" font-size="10.00"> </text>
<text text-anchor="start" x="463.5" y="-186.5" font-family="Helvetica,sans-Serif" font-size="10.00">+</text>
<text text-anchor="start" x="481.5" y="-186.5" font-family="Helvetica,sans-Serif" font-size="10.00">~IFormatter()</text>
<text text-anchor="start" x="463.5" y="-170.5" font-family="Helvetica,sans-Serif" font-size="10.00">+</text>
<text text-anchor="start" x="481.5" y="-170.5" font-family="Helvetica,sans-Serif" font-size="10.00">getType()</text>
<text text-anchor="start" x="463.5" y="-154.5" font-family="Helvetica,sans-Serif" font-size="10.00">+</text>
<text text-anchor="start" x="481.5" y="-154.5" font-family="Helvetica,sans-Serif" font-size="10.00">formatValue()</text>
<polygon fill="#666666" stroke="#666666" points="451.5,-214 451.5,-214 559.5,-214 559.5,-214 451.5,-214"/>
<polygon fill="#666666" stroke="#666666" points="451.5,-198 451.5,-198 559.5,-198 559.5,-198 451.5,-198"/>
<polygon fill="none" stroke="#666666" points="451.5,-148 451.5,-244 559.5,-244 559.5,-148 451.5,-148"/>
</a>
</g>
</g>
<!-- Node2 -->
<g id="Node000002" class="node">
<title>Node2</title>
<g id="a_Node000002"><a xlink:href="classanch_1_1logger_1_1formatter_1_1_anch_date_formatter.html" target="_top" xlink:title=" ">
<polygon fill="white" stroke="none" points="115,-112 0,-112 0,0 115,0 115,-112"/>
<text text-anchor="start" x="8.38" y="-98.5" font-family="Helvetica,sans-Serif" font-size="10.00">anch::logger::formatter</text>
<text text-anchor="start" x="11.75" y="-86.5" font-family="Helvetica,sans-Serif" font-size="10.00">::AnchDateFormatter</text>
<text text-anchor="start" x="56" y="-70.5" font-family="Helvetica,sans-Serif" font-size="10.00"> </text>
<text text-anchor="start" x="4" y="-54.5" font-family="Helvetica,sans-Serif" font-size="10.00">+</text>
<text text-anchor="start" x="14" y="-54.5" font-family="Helvetica,sans-Serif" font-size="10.00">AnchDateFormatter()</text>
<text text-anchor="start" x="4" y="-38.5" font-family="Helvetica,sans-Serif" font-size="10.00">+</text>
<text text-anchor="start" x="14" y="-38.5" font-family="Helvetica,sans-Serif" font-size="10.00">~AnchDateFormatter()</text>
<text text-anchor="start" x="4" y="-22.5" font-family="Helvetica,sans-Serif" font-size="10.00">+</text>
<text text-anchor="start" x="14" y="-22.5" font-family="Helvetica,sans-Serif" font-size="10.00">formatValue()</text>
<text text-anchor="start" x="4" y="-6.5" font-family="Helvetica,sans-Serif" font-size="10.00">+</text>
<text text-anchor="start" x="14" y="-6.5" font-family="Helvetica,sans-Serif" font-size="10.00">getType()</text>
<polygon fill="#666666" stroke="#666666" points="0,-82 0,-82 115,-82 115,-82 0,-82"/>
<polygon fill="#666666" stroke="#666666" points="0,-66 0,-66 115,-66 115,-66 0,-66"/>
<polygon fill="none" stroke="#666666" points="0,0 0,-112 115,-112 115,0 0,0"/>
</a>
</g>
</g>
<!-- Node1&#45;&gt;Node2 -->
<g id="edge1_Node000001_Node000002" class="edge">
<title>Node1&#45;&gt;Node2</title>
<g id="a_edge1_Node000001_Node000002"><a xlink:title=" ">
<path fill="none" stroke="#63b8ff" d="M440.42,-190.35C361.82,-182.65 227.25,-162.67 123.5,-112 120.55,-110.56 117.62,-108.96 114.73,-107.24"/>
<polygon fill="none" stroke="#63b8ff" points="439.81,-193.81 450.09,-191.26 440.46,-186.84 439.81,-193.81"/>
</a>
</g>
</g>
<!-- Node3 -->
<g id="Node000003" class="node">
<title>Node3</title>
<g id="a_Node000003"><a xlink:href="classanch_1_1logger_1_1formatter_1_1_category_formatter.html" target="_top" xlink:title=" ">
<polygon fill="white" stroke="none" points="244,-112 133,-112 133,0 244,0 244,-112"/>
<text text-anchor="start" x="139.38" y="-98.5" font-family="Helvetica,sans-Serif" font-size="10.00">anch::logger::formatter</text>
<text text-anchor="start" x="144.62" y="-86.5" font-family="Helvetica,sans-Serif" font-size="10.00">::CategoryFormatter</text>
<text text-anchor="start" x="187" y="-70.5" font-family="Helvetica,sans-Serif" font-size="10.00"> </text>
<text text-anchor="start" x="137" y="-54.5" font-family="Helvetica,sans-Serif" font-size="10.00">+</text>
<text text-anchor="start" x="147" y="-54.5" font-family="Helvetica,sans-Serif" font-size="10.00">CategoryFormatter()</text>
<text text-anchor="start" x="137" y="-38.5" font-family="Helvetica,sans-Serif" font-size="10.00">+</text>
<text text-anchor="start" x="147" y="-38.5" font-family="Helvetica,sans-Serif" font-size="10.00">~CategoryFormatter()</text>
<text text-anchor="start" x="137" y="-22.5" font-family="Helvetica,sans-Serif" font-size="10.00">+</text>
<text text-anchor="start" x="147" y="-22.5" font-family="Helvetica,sans-Serif" font-size="10.00">formatValue()</text>
<text text-anchor="start" x="137" y="-6.5" font-family="Helvetica,sans-Serif" font-size="10.00">+</text>
<text text-anchor="start" x="147" y="-6.5" font-family="Helvetica,sans-Serif" font-size="10.00">getType()</text>
<polygon fill="#666666" stroke="#666666" points="133,-82 133,-82 244,-82 244,-82 133,-82"/>
<polygon fill="#666666" stroke="#666666" points="133,-66 133,-66 244,-66 244,-66 133,-66"/>
<polygon fill="none" stroke="#666666" points="133,0 133,-112 244,-112 244,0 133,0"/>
</a>
</g>
</g>
<!-- Node1&#45;&gt;Node3 -->
<g id="edge2_Node000001_Node000003" class="edge">
<title>Node1&#45;&gt;Node3</title>
<g id="a_edge2_Node000001_Node000003"><a xlink:title=" ">
<path fill="none" stroke="#63b8ff" d="M441.02,-181.04C388.37,-167.97 313.17,-145.39 253.5,-112 250.28,-110.2 247.06,-108.22 243.88,-106.12"/>
<polygon fill="none" stroke="#63b8ff" points="439.89,-184.37 450.43,-183.33 441.55,-177.56 439.89,-184.37"/>
</a>
</g>
</g>
<!-- Node4 -->
<g id="Node000004" class="node">
<title>Node4</title>
<g id="a_Node000004"><a xlink:href="classanch_1_1logger_1_1formatter_1_1_const_formatter.html" target="_top" xlink:title=" ">
<polygon fill="white" stroke="none" points="370.5,-112 262.5,-112 262.5,0 370.5,0 370.5,-112"/>
<text text-anchor="start" x="267.38" y="-98.5" font-family="Helvetica,sans-Serif" font-size="10.00">anch::logger::formatter</text>
<text text-anchor="start" x="279.38" y="-86.5" font-family="Helvetica,sans-Serif" font-size="10.00">::ConstFormatter</text>
<text text-anchor="start" x="315" y="-70.5" font-family="Helvetica,sans-Serif" font-size="10.00"> </text>
<text text-anchor="start" x="269" y="-54.5" font-family="Helvetica,sans-Serif" font-size="10.00">+</text>
<text text-anchor="start" x="281.5" y="-54.5" font-family="Helvetica,sans-Serif" font-size="10.00">ConstFormatter()</text>
<text text-anchor="start" x="269" y="-38.5" font-family="Helvetica,sans-Serif" font-size="10.00">+</text>
<text text-anchor="start" x="281.5" y="-38.5" font-family="Helvetica,sans-Serif" font-size="10.00">~ConstFormatter()</text>
<text text-anchor="start" x="269" y="-22.5" font-family="Helvetica,sans-Serif" font-size="10.00">+</text>
<text text-anchor="start" x="281.5" y="-22.5" font-family="Helvetica,sans-Serif" font-size="10.00">formatValue()</text>
<text text-anchor="start" x="269" y="-6.5" font-family="Helvetica,sans-Serif" font-size="10.00">+</text>
<text text-anchor="start" x="281.5" y="-6.5" font-family="Helvetica,sans-Serif" font-size="10.00">getType()</text>
<polygon fill="#666666" stroke="#666666" points="262.5,-82 262.5,-82 370.5,-82 370.5,-82 262.5,-82"/>
<polygon fill="#666666" stroke="#666666" points="262.5,-66 262.5,-66 370.5,-66 370.5,-66 262.5,-66"/>
<polygon fill="none" stroke="#666666" points="262.5,0 262.5,-112 370.5,-112 370.5,0 262.5,0"/>
</a>
</g>
</g>
<!-- Node1&#45;&gt;Node4 -->
<g id="edge3_Node000001_Node000004" class="edge">
<title>Node1&#45;&gt;Node4</title>
<g id="a_edge3_Node000001_Node000004"><a xlink:title=" ">
<path fill="none" stroke="#63b8ff" d="M442.16,-155.66C421.75,-142.36 399.3,-127.06 379.5,-112 376.5,-109.72 373.45,-107.33 370.41,-104.88"/>
<polygon fill="none" stroke="#63b8ff" points="440.11,-158.51 450.41,-161 443.91,-152.63 440.11,-158.51"/>
</a>
</g>
</g>
<!-- Node5 -->
<g id="Node000005" class="node">
<title>Node5</title>
<g id="a_Node000005"><a xlink:href="classanch_1_1logger_1_1formatter_1_1_date_formatter.html" target="_top" xlink:title=" ">
<polygon fill="white" stroke="none" points="496.5,-112 388.5,-112 388.5,0 496.5,0 496.5,-112"/>
<text text-anchor="start" x="393.38" y="-98.5" font-family="Helvetica,sans-Serif" font-size="10.00">anch::logger::formatter</text>
<text text-anchor="start" x="408" y="-86.5" font-family="Helvetica,sans-Serif" font-size="10.00">::DateFormatter</text>
<text text-anchor="start" x="441" y="-70.5" font-family="Helvetica,sans-Serif" font-size="10.00"> </text>
<text text-anchor="start" x="396" y="-54.5" font-family="Helvetica,sans-Serif" font-size="10.00">+</text>
<text text-anchor="start" x="409.5" y="-54.5" font-family="Helvetica,sans-Serif" font-size="10.00">DateFormatter()</text>
<text text-anchor="start" x="396" y="-38.5" font-family="Helvetica,sans-Serif" font-size="10.00">+</text>
<text text-anchor="start" x="409.5" y="-38.5" font-family="Helvetica,sans-Serif" font-size="10.00">~DateFormatter()</text>
<text text-anchor="start" x="396" y="-22.5" font-family="Helvetica,sans-Serif" font-size="10.00">+</text>
<text text-anchor="start" x="409.5" y="-22.5" font-family="Helvetica,sans-Serif" font-size="10.00">formatValue()</text>
<text text-anchor="start" x="396" y="-6.5" font-family="Helvetica,sans-Serif" font-size="10.00">+</text>
<text text-anchor="start" x="409.5" y="-6.5" font-family="Helvetica,sans-Serif" font-size="10.00">getType()</text>
<polygon fill="#666666" stroke="#666666" points="388.5,-82 388.5,-82 496.5,-82 496.5,-82 388.5,-82"/>
<polygon fill="#666666" stroke="#666666" points="388.5,-66 388.5,-66 496.5,-66 496.5,-66 388.5,-66"/>
<polygon fill="none" stroke="#666666" points="388.5,0 388.5,-112 496.5,-112 496.5,0 388.5,0"/>
</a>
</g>
</g>
<!-- Node1&#45;&gt;Node5 -->
<g id="edge4_Node000001_Node000005" class="edge">
<title>Node1&#45;&gt;Node5</title>
<g id="a_edge4_Node000001_Node000005"><a xlink:title=" ">
<path fill="none" stroke="#63b8ff" d="M479.43,-137.91C475.49,-129.26 471.43,-120.37 467.51,-111.78"/>
<polygon fill="none" stroke="#63b8ff" points="476.21,-139.26 483.54,-146.9 482.57,-136.35 476.21,-139.26"/>
</a>
</g>
</g>
<!-- Node6 -->
<g id="Node000006" class="node">
<title>Node6</title>
<g id="a_Node000006"><a xlink:href="classanch_1_1logger_1_1formatter_1_1_level_formatter.html" target="_top" xlink:title=" ">
<polygon fill="white" stroke="none" points="622.5,-112 514.5,-112 514.5,0 622.5,0 622.5,-112"/>
<text text-anchor="start" x="519.38" y="-98.5" font-family="Helvetica,sans-Serif" font-size="10.00">anch::logger::formatter</text>
<text text-anchor="start" x="532.88" y="-86.5" font-family="Helvetica,sans-Serif" font-size="10.00">::LevelFormatter</text>
<text text-anchor="start" x="567" y="-70.5" font-family="Helvetica,sans-Serif" font-size="10.00"> </text>
<text text-anchor="start" x="521.5" y="-54.5" font-family="Helvetica,sans-Serif" font-size="10.00">+</text>
<text text-anchor="start" x="534.5" y="-54.5" font-family="Helvetica,sans-Serif" font-size="10.00">LevelFormatter()</text>
<text text-anchor="start" x="521.5" y="-38.5" font-family="Helvetica,sans-Serif" font-size="10.00">+</text>
<text text-anchor="start" x="534.5" y="-38.5" font-family="Helvetica,sans-Serif" font-size="10.00">~LevelFormatter()</text>
<text text-anchor="start" x="521.5" y="-22.5" font-family="Helvetica,sans-Serif" font-size="10.00">+</text>
<text text-anchor="start" x="534.5" y="-22.5" font-family="Helvetica,sans-Serif" font-size="10.00">formatValue()</text>
<text text-anchor="start" x="521.5" y="-6.5" font-family="Helvetica,sans-Serif" font-size="10.00">+</text>
<text text-anchor="start" x="534.5" y="-6.5" font-family="Helvetica,sans-Serif" font-size="10.00">getType()</text>
<polygon fill="#666666" stroke="#666666" points="514.5,-82 514.5,-82 622.5,-82 622.5,-82 514.5,-82"/>
<polygon fill="#666666" stroke="#666666" points="514.5,-66 514.5,-66 622.5,-66 622.5,-66 514.5,-66"/>
<polygon fill="none" stroke="#666666" points="514.5,0 514.5,-112 622.5,-112 622.5,0 514.5,0"/>
</a>
</g>
</g>
<!-- Node1&#45;&gt;Node6 -->
<g id="edge5_Node000001_Node000006" class="edge">
<title>Node1&#45;&gt;Node6</title>
<g id="a_edge5_Node000001_Node000006"><a xlink:title=" ">
<path fill="none" stroke="#63b8ff" d="M531.57,-137.91C535.51,-129.26 539.57,-120.37 543.49,-111.78"/>
<polygon fill="none" stroke="#63b8ff" points="528.43,-136.35 527.46,-146.9 534.79,-139.26 528.43,-136.35"/>
</a>
</g>
</g>
<!-- Node7 -->
<g id="Node000007" class="node">
<title>Node7</title>
<g id="a_Node000007"><a xlink:href="classanch_1_1logger_1_1formatter_1_1_m_d_c_formatter.html" target="_top" xlink:title=" ">
<polygon fill="white" stroke="none" points="748.5,-112 640.5,-112 640.5,0 748.5,0 748.5,-112"/>
<text text-anchor="start" x="645.38" y="-98.5" font-family="Helvetica,sans-Serif" font-size="10.00">anch::logger::formatter</text>
<text text-anchor="start" x="658.88" y="-86.5" font-family="Helvetica,sans-Serif" font-size="10.00">::MDCFormatter</text>
<text text-anchor="start" x="693" y="-70.5" font-family="Helvetica,sans-Serif" font-size="10.00"> </text>
<text text-anchor="start" x="647.5" y="-54.5" font-family="Helvetica,sans-Serif" font-size="10.00">+</text>
<text text-anchor="start" x="660.5" y="-54.5" font-family="Helvetica,sans-Serif" font-size="10.00">MDCFormatter()</text>
<text text-anchor="start" x="647.5" y="-38.5" font-family="Helvetica,sans-Serif" font-size="10.00">+</text>
<text text-anchor="start" x="660.5" y="-38.5" font-family="Helvetica,sans-Serif" font-size="10.00">~MDCFormatter()</text>
<text text-anchor="start" x="647.5" y="-22.5" font-family="Helvetica,sans-Serif" font-size="10.00">+</text>
<text text-anchor="start" x="660.5" y="-22.5" font-family="Helvetica,sans-Serif" font-size="10.00">formatValue()</text>
<text text-anchor="start" x="647.5" y="-6.5" font-family="Helvetica,sans-Serif" font-size="10.00">+</text>
<text text-anchor="start" x="660.5" y="-6.5" font-family="Helvetica,sans-Serif" font-size="10.00">getType()</text>
<polygon fill="#666666" stroke="#666666" points="640.5,-82 640.5,-82 748.5,-82 748.5,-82 640.5,-82"/>
<polygon fill="#666666" stroke="#666666" points="640.5,-66 640.5,-66 748.5,-66 748.5,-66 640.5,-66"/>
<polygon fill="none" stroke="#666666" points="640.5,0 640.5,-112 748.5,-112 748.5,0 640.5,0"/>
</a>
</g>
</g>
<!-- Node1&#45;&gt;Node7 -->
<g id="edge6_Node000001_Node000007" class="edge">
<title>Node1&#45;&gt;Node7</title>
<g id="a_edge6_Node000001_Node000007"><a xlink:title=" ">
<path fill="none" stroke="#63b8ff" d="M568.84,-155.66C589.25,-142.36 611.7,-127.06 631.5,-112 634.5,-109.72 637.55,-107.33 640.59,-104.88"/>
<polygon fill="none" stroke="#63b8ff" points="567.09,-152.63 560.59,-161 570.89,-158.51 567.09,-152.63"/>
</a>
</g>
</g>
<!-- Node8 -->
<g id="Node000008" class="node">
<title>Node8</title>
<g id="a_Node000008"><a xlink:href="classanch_1_1logger_1_1formatter_1_1_string_formatter.html" target="_top" xlink:title=" ">
<polygon fill="white" stroke="none" points="874.5,-112 766.5,-112 766.5,0 874.5,0 874.5,-112"/>
<text text-anchor="start" x="771.38" y="-98.5" font-family="Helvetica,sans-Serif" font-size="10.00">anch::logger::formatter</text>
<text text-anchor="start" x="783.75" y="-86.5" font-family="Helvetica,sans-Serif" font-size="10.00">::StringFormatter</text>
<text text-anchor="start" x="819" y="-70.5" font-family="Helvetica,sans-Serif" font-size="10.00"> </text>
<text text-anchor="start" x="773" y="-54.5" font-family="Helvetica,sans-Serif" font-size="10.00">+</text>
<text text-anchor="start" x="785.5" y="-54.5" font-family="Helvetica,sans-Serif" font-size="10.00">StringFormatter()</text>
<text text-anchor="start" x="773" y="-38.5" font-family="Helvetica,sans-Serif" font-size="10.00">+</text>
<text text-anchor="start" x="785.5" y="-38.5" font-family="Helvetica,sans-Serif" font-size="10.00">~StringFormatter()</text>
<text text-anchor="start" x="773" y="-22.5" font-family="Helvetica,sans-Serif" font-size="10.00">+</text>
<text text-anchor="start" x="785.5" y="-22.5" font-family="Helvetica,sans-Serif" font-size="10.00">formatValue()</text>
<text text-anchor="start" x="773" y="-6.5" font-family="Helvetica,sans-Serif" font-size="10.00">+</text>
<text text-anchor="start" x="785.5" y="-6.5" font-family="Helvetica,sans-Serif" font-size="10.00">getType()</text>
<polygon fill="#666666" stroke="#666666" points="766.5,-82 766.5,-82 874.5,-82 874.5,-82 766.5,-82"/>
<polygon fill="#666666" stroke="#666666" points="766.5,-66 766.5,-66 874.5,-66 874.5,-66 766.5,-66"/>
<polygon fill="none" stroke="#666666" points="766.5,0 766.5,-112 874.5,-112 874.5,0 766.5,0"/>
</a>
</g>
</g>
<!-- Node1&#45;&gt;Node8 -->
<g id="edge7_Node000001_Node000008" class="edge">
<title>Node1&#45;&gt;Node8</title>
<g id="a_edge7_Node000001_Node000008"><a xlink:title=" ">
<path fill="none" stroke="#63b8ff" d="M570.11,-181.28C622.85,-168.35 698.09,-145.85 757.5,-112 760.53,-110.27 763.54,-108.39 766.52,-106.39"/>
<polygon fill="none" stroke="#63b8ff" points="569.59,-177.81 560.69,-183.55 571.23,-184.62 569.59,-177.81"/>
</a>
</g>
</g>
<!-- Node9 -->
<g id="Node000009" class="node">
<title>Node9</title>
<g id="a_Node000009"><a xlink:href="classanch_1_1logger_1_1formatter_1_1_thread_id_formatter.html" target="_top" xlink:title=" ">
<polygon fill="white" stroke="none" points="1002.5,-112 892.5,-112 892.5,0 1002.5,0 1002.5,-112"/>
<text text-anchor="start" x="898.38" y="-98.5" font-family="Helvetica,sans-Serif" font-size="10.00">anch::logger::formatter</text>
<text text-anchor="start" x="904.38" y="-86.5" font-family="Helvetica,sans-Serif" font-size="10.00">::ThreadIdFormatter</text>
<text text-anchor="start" x="946" y="-70.5" font-family="Helvetica,sans-Serif" font-size="10.00"> </text>
<text text-anchor="start" x="896.5" y="-54.5" font-family="Helvetica,sans-Serif" font-size="10.00">+</text>
<text text-anchor="start" x="906.5" y="-54.5" font-family="Helvetica,sans-Serif" font-size="10.00">ThreadIdFormatter()</text>
<text text-anchor="start" x="896.5" y="-38.5" font-family="Helvetica,sans-Serif" font-size="10.00">+</text>
<text text-anchor="start" x="906.5" y="-38.5" font-family="Helvetica,sans-Serif" font-size="10.00">~ThreadIdFormatter()</text>
<text text-anchor="start" x="896.5" y="-22.5" font-family="Helvetica,sans-Serif" font-size="10.00">+</text>
<text text-anchor="start" x="906.5" y="-22.5" font-family="Helvetica,sans-Serif" font-size="10.00">formatValue()</text>
<text text-anchor="start" x="896.5" y="-6.5" font-family="Helvetica,sans-Serif" font-size="10.00">+</text>
<text text-anchor="start" x="906.5" y="-6.5" font-family="Helvetica,sans-Serif" font-size="10.00">getType()</text>
<polygon fill="#666666" stroke="#666666" points="892.5,-82 892.5,-82 1002.5,-82 1002.5,-82 892.5,-82"/>
<polygon fill="#666666" stroke="#666666" points="892.5,-66 892.5,-66 1002.5,-66 1002.5,-66 892.5,-66"/>
<polygon fill="none" stroke="#666666" points="892.5,0 892.5,-112 1002.5,-112 1002.5,0 892.5,0"/>
</a>
</g>
</g>
<!-- Node1&#45;&gt;Node9 -->
<g id="edge8_Node000001_Node000009" class="edge">
<title>Node1&#45;&gt;Node9</title>
<g id="a_edge8_Node000001_Node000009"><a xlink:title=" ">
<path fill="none" stroke="#63b8ff" d="M570.36,-190.45C648.31,-182.85 781.37,-162.99 883.5,-112 886.65,-110.43 889.76,-108.67 892.83,-106.77"/>
<polygon fill="none" stroke="#63b8ff" points="570.41,-186.93 560.78,-191.34 571.06,-193.9 570.41,-186.93"/>
</a>
</g>
</g>
</g>
</svg>

<g id="navigator" transform="translate(0 0)" fill="#404254">
  <rect fill="#f2f5e9" fill-opacity="0.5" stroke="#606060" stroke-width=".5" x="0" y="0" width="60" height="60"/>
  <use id="zoomplus" xlink:href="#zoomPlus" x="17" y="9" onmousedown="handleZoom(evt,'in')"/>
  <use id="zoomminus" xlink:href="#zoomMin" x="42" y="9" onmousedown="handleZoom(evt,'out')"/>
  <use id="reset" xlink:href="#resetDef" x="30" y="36" onmousedown="handleReset()"/>
   <use id="arrowup" xlink:href="#arrowUp" x="0" y="0" onmousedown="handlePan(0,-1)"/>
  <use id="arrowright" xlink:href="#arrowRight" x="0" y="0" onmousedown="handlePan(1,0)"/>
  <use id="arrowdown" xlink:href="#arrowDown" x="0" y="0" onmousedown="handlePan(0,1)"/>
  <use id="arrowleft" xlink:href="#arrowLeft" x="0" y="0" onmousedown="handlePan(-1,0)"/>
</g>
<svg viewBox="0 0 15 15" width="100%" height="30px" preserveAspectRatio="xMaxYMin meet">
 <g id="arrow_out" transform="scale(0.3 0.3)">
  <a xlink:href="classanch_1_1logger_1_1formatter_1_1_i_formatter__inherit__graph_org.svg" target="_base">
   <rect id="button" ry="5" rx="5" y="6" x="6" height="38" width="38"
        fill="#f2f5e9" fill-opacity="0.5" stroke="#606060" stroke-width="1.0"/>
   <path id="arrow"
     d="M 11.500037,31.436501 C 11.940474,20.09759 22.043105,11.32322 32.158766,21.979434 L 37.068811,17.246167 C 37.068811,17.246167 37.088388,32 37.088388,32 L 22.160133,31.978069 C 22.160133,31.978069 26.997745,27.140456 26.997745,27.140456 C 18.528582,18.264221 13.291696,25.230495 11.500037,31.436501 z"
     style="fill:#404040;"/>
  </a>
 </g>
</svg>

<style type='text/css'>
<![CDATA[
[data-mouse-over-selected='false'] { opacity: 0.7; }
[data-mouse-over-selected='true']  { opacity: 1.0; }
]]>
</style>
<script type="application/ecmascript"><![CDATA[
document.addEventListener('DOMContentLoaded', (event) => {
  highlightEdges();
  highlightAdjacentNodes();
});
]]></script>
</svg>
