<?xml version="1.0" encoding="UTF-8" standalone="no"?>
<!DOCTYPE svg PUBLIC "-//W3C//DTD SVG 1.1//EN"
 "http://www.w3.org/Graphics/SVG/1.1/DTD/svg11.dtd">
<!-- Generated by graphviz version 12.1.2 (0)
 -->
<!-- Title: anch::sql::Connection Pages: 1 -->
<svg width="513pt" height="612pt"
 viewBox="0.00 0.00 512.50 612.00" xmlns="http://www.w3.org/2000/svg" xmlns:xlink="http://www.w3.org/1999/xlink">
<g id="graph0" class="graph" transform="scale(1 1) rotate(0) translate(4 608)">
<title>anch::sql::Connection</title>
<!-- Node1 -->
<g id="Node000001" class="node">
<title>Node1</title>
<g id="a_Node000001"><a xlink:title="SQL connection virtual class.">
<polygon fill="#999999" stroke="none" points="315.5,-604 186.5,-604 186.5,-232 315.5,-232 315.5,-604"/>
<text text-anchor="start" x="198.88" y="-590.5" font-family="Helvetica,sans-Serif" font-size="10.00">anch::sql::Connection</text>
<text text-anchor="start" x="190.38" y="-574.5" font-family="Helvetica,sans-Serif" font-size="10.00">#</text>
<text text-anchor="start" x="202.5" y="-574.5" font-family="Helvetica,sans-Serif" font-size="10.00">_valid</text>
<text text-anchor="start" x="190.38" y="-558.5" font-family="Helvetica,sans-Serif" font-size="10.00">#</text>
<text text-anchor="start" x="202.5" y="-558.5" font-family="Helvetica,sans-Serif" font-size="10.00">_transaction</text>
<text text-anchor="start" x="190.38" y="-542.5" font-family="Helvetica,sans-Serif" font-size="10.00">#</text>
<text text-anchor="start" x="202.5" y="-542.5" font-family="Helvetica,sans-Serif" font-size="10.00">_stmts</text>
<text text-anchor="start" x="190.38" y="-526.5" font-family="Helvetica,sans-Serif" font-size="10.00">#</text>
<text text-anchor="start" x="202.5" y="-526.5" font-family="Helvetica,sans-Serif" font-size="10.00">_errors</text>
<text text-anchor="start" x="190.38" y="-510.5" font-family="Helvetica,sans-Serif" font-size="10.00">+</text>
<text text-anchor="start" x="202.5" y="-510.5" font-family="Helvetica,sans-Serif" font-size="10.00">Connection()</text>
<text text-anchor="start" x="190.38" y="-494.5" font-family="Helvetica,sans-Serif" font-size="10.00">+</text>
<text text-anchor="start" x="202.5" y="-494.5" font-family="Helvetica,sans-Serif" font-size="10.00">Connection()</text>
<text text-anchor="start" x="190.38" y="-478.5" font-family="Helvetica,sans-Serif" font-size="10.00">+</text>
<text text-anchor="start" x="202.5" y="-478.5" font-family="Helvetica,sans-Serif" font-size="10.00">~Connection()</text>
<text text-anchor="start" x="190.38" y="-462.5" font-family="Helvetica,sans-Serif" font-size="10.00">+</text>
<text text-anchor="start" x="202.5" y="-462.5" font-family="Helvetica,sans-Serif" font-size="10.00">startTransaction()</text>
<text text-anchor="start" x="190.38" y="-446.5" font-family="Helvetica,sans-Serif" font-size="10.00">+</text>
<text text-anchor="start" x="202.5" y="-446.5" font-family="Helvetica,sans-Serif" font-size="10.00">begin()</text>
<text text-anchor="start" x="190.38" y="-430.5" font-family="Helvetica,sans-Serif" font-size="10.00">+</text>
<text text-anchor="start" x="202.5" y="-430.5" font-family="Helvetica,sans-Serif" font-size="10.00">commit()</text>
<text text-anchor="start" x="190.38" y="-414.5" font-family="Helvetica,sans-Serif" font-size="10.00">+</text>
<text text-anchor="start" x="202.5" y="-414.5" font-family="Helvetica,sans-Serif" font-size="10.00">rollback()</text>
<text text-anchor="start" x="190.38" y="-398.5" font-family="Helvetica,sans-Serif" font-size="10.00">+</text>
<text text-anchor="start" x="202.5" y="-398.5" font-family="Helvetica,sans-Serif" font-size="10.00">release()</text>
<text text-anchor="start" x="190.38" y="-382.5" font-family="Helvetica,sans-Serif" font-size="10.00">+</text>
<text text-anchor="start" x="202.5" y="-382.5" font-family="Helvetica,sans-Serif" font-size="10.00">prepareStatement()</text>
<text text-anchor="start" x="190.38" y="-366.5" font-family="Helvetica,sans-Serif" font-size="10.00">+</text>
<text text-anchor="start" x="202.5" y="-366.5" font-family="Helvetica,sans-Serif" font-size="10.00">query()</text>
<text text-anchor="start" x="202.5" y="-350.5" font-family="Helvetica,sans-Serif" font-size="10.00">and 9 more...</text>
<text text-anchor="start" x="190.38" y="-334.5" font-family="Helvetica,sans-Serif" font-size="10.00">#</text>
<text text-anchor="start" x="202.5" y="-334.5" font-family="Helvetica,sans-Serif" font-size="10.00">executeQuery()</text>
<text text-anchor="start" x="190.38" y="-318.5" font-family="Helvetica,sans-Serif" font-size="10.00">#</text>
<text text-anchor="start" x="202.5" y="-318.5" font-family="Helvetica,sans-Serif" font-size="10.00">executeUpdate()</text>
<text text-anchor="start" x="190.38" y="-302.5" font-family="Helvetica,sans-Serif" font-size="10.00">#</text>
<text text-anchor="start" x="202.5" y="-302.5" font-family="Helvetica,sans-Serif" font-size="10.00">sendStartTransaction()</text>
<text text-anchor="start" x="190.38" y="-286.5" font-family="Helvetica,sans-Serif" font-size="10.00">#</text>
<text text-anchor="start" x="202.5" y="-286.5" font-family="Helvetica,sans-Serif" font-size="10.00">sendCommit()</text>
<text text-anchor="start" x="190.38" y="-270.5" font-family="Helvetica,sans-Serif" font-size="10.00">#</text>
<text text-anchor="start" x="202.5" y="-270.5" font-family="Helvetica,sans-Serif" font-size="10.00">sendRollback()</text>
<text text-anchor="start" x="190.38" y="-254.5" font-family="Helvetica,sans-Serif" font-size="10.00">#</text>
<text text-anchor="start" x="202.5" y="-254.5" font-family="Helvetica,sans-Serif" font-size="10.00">makePrepared()</text>
<text text-anchor="start" x="190.38" y="-238.5" font-family="Helvetica,sans-Serif" font-size="10.00">#</text>
<text text-anchor="start" x="202.5" y="-238.5" font-family="Helvetica,sans-Serif" font-size="10.00">setValid()</text>
<polygon fill="#666666" stroke="#666666" points="186.5,-586 186.5,-586 315.5,-586 315.5,-586 186.5,-586"/>
<polygon fill="#666666" stroke="#666666" points="186.5,-522 186.5,-522 200.5,-522 200.5,-522 186.5,-522"/>
<polygon fill="#666666" stroke="#666666" points="200.5,-522 200.5,-522 315.5,-522 315.5,-522 200.5,-522"/>
<polygon fill="none" stroke="#666666" points="186.5,-232 186.5,-604 315.5,-604 315.5,-232 186.5,-232"/>
</a>
</g>
</g>
<!-- Node2 -->
<g id="Node000002" class="node">
<title>Node2</title>
<g id="a_Node000002"><a xlink:href="classanch_1_1sql_1_1_my_s_q_l_connection.html" target="_top" xlink:title="MySQL connection.">
<polygon fill="white" stroke="none" points="148,-188 0,-188 0,-8 148,-8 148,-188"/>
<text text-anchor="start" x="5" y="-174.5" font-family="Helvetica,sans-Serif" font-size="10.00">anch::sql::MySQLConnection</text>
<text text-anchor="start" x="72.5" y="-158.5" font-family="Helvetica,sans-Serif" font-size="10.00"> </text>
<text text-anchor="start" x="8.38" y="-142.5" font-family="Helvetica,sans-Serif" font-size="10.00">+</text>
<text text-anchor="start" x="25" y="-142.5" font-family="Helvetica,sans-Serif" font-size="10.00">MySQLConnection()</text>
<text text-anchor="start" x="8.38" y="-126.5" font-family="Helvetica,sans-Serif" font-size="10.00">+</text>
<text text-anchor="start" x="25" y="-126.5" font-family="Helvetica,sans-Serif" font-size="10.00">MySQLConnection()</text>
<text text-anchor="start" x="8.38" y="-110.5" font-family="Helvetica,sans-Serif" font-size="10.00">+</text>
<text text-anchor="start" x="25" y="-110.5" font-family="Helvetica,sans-Serif" font-size="10.00">~MySQLConnection()</text>
<text text-anchor="start" x="8.38" y="-94.5" font-family="Helvetica,sans-Serif" font-size="10.00">#</text>
<text text-anchor="start" x="25" y="-94.5" font-family="Helvetica,sans-Serif" font-size="10.00">executeQuery()</text>
<text text-anchor="start" x="8.38" y="-78.5" font-family="Helvetica,sans-Serif" font-size="10.00">#</text>
<text text-anchor="start" x="25" y="-78.5" font-family="Helvetica,sans-Serif" font-size="10.00">executeUpdate()</text>
<text text-anchor="start" x="8.38" y="-62.5" font-family="Helvetica,sans-Serif" font-size="10.00">#</text>
<text text-anchor="start" x="25" y="-62.5" font-family="Helvetica,sans-Serif" font-size="10.00">sendCommit()</text>
<text text-anchor="start" x="8.38" y="-46.5" font-family="Helvetica,sans-Serif" font-size="10.00">#</text>
<text text-anchor="start" x="25" y="-46.5" font-family="Helvetica,sans-Serif" font-size="10.00">sendRollback()</text>
<text text-anchor="start" x="8.38" y="-30.5" font-family="Helvetica,sans-Serif" font-size="10.00">#</text>
<text text-anchor="start" x="25" y="-30.5" font-family="Helvetica,sans-Serif" font-size="10.00">sendStartTransaction()</text>
<text text-anchor="start" x="8.38" y="-14.5" font-family="Helvetica,sans-Serif" font-size="10.00">#</text>
<text text-anchor="start" x="25" y="-14.5" font-family="Helvetica,sans-Serif" font-size="10.00">makePrepared()</text>
<polygon fill="#666666" stroke="#666666" points="0,-170 0,-170 148,-170 148,-170 0,-170"/>
<polygon fill="#666666" stroke="#666666" points="0,-154 0,-154 148,-154 148,-154 0,-154"/>
<polygon fill="none" stroke="#666666" points="0,-8 0,-188 148,-188 148,-8 0,-8"/>
</a>
</g>
</g>
<!-- Node1&#45;&gt;Node2 -->
<g id="edge1_Node000001_Node000002" class="edge">
<title>Node1&#45;&gt;Node2</title>
<g id="a_edge1_Node000001_Node000002"><a xlink:title=" ">
<path fill="none" stroke="#63b8ff" d="M181.19,-291.59C161.91,-256.94 141.38,-220.06 123.51,-187.94"/>
<polygon fill="none" stroke="#63b8ff" points="177.94,-292.94 185.86,-299.97 184.06,-289.53 177.94,-292.94"/>
</a>
</g>
</g>
<!-- Node3 -->
<g id="Node000003" class="node">
<title>Node3</title>
<g id="a_Node000003"><a xlink:href="classanch_1_1sql_1_1_postgre_s_q_l_connection.html" target="_top" xlink:title="PostgreSQL connection.">
<polygon fill="white" stroke="none" points="335.5,-196 166.5,-196 166.5,0 335.5,0 335.5,-196"/>
<text text-anchor="start" x="171.12" y="-182.5" font-family="Helvetica,sans-Serif" font-size="10.00">anch::sql::PostgreSQLConnection</text>
<text text-anchor="start" x="249.5" y="-166.5" font-family="Helvetica,sans-Serif" font-size="10.00"> </text>
<text text-anchor="start" x="175.88" y="-150.5" font-family="Helvetica,sans-Serif" font-size="10.00">+</text>
<text text-anchor="start" x="193.5" y="-150.5" font-family="Helvetica,sans-Serif" font-size="10.00">PostgreSQLConnection()</text>
<text text-anchor="start" x="175.88" y="-134.5" font-family="Helvetica,sans-Serif" font-size="10.00">+</text>
<text text-anchor="start" x="193.5" y="-134.5" font-family="Helvetica,sans-Serif" font-size="10.00">PostgreSQLConnection()</text>
<text text-anchor="start" x="175.88" y="-118.5" font-family="Helvetica,sans-Serif" font-size="10.00">+</text>
<text text-anchor="start" x="193.5" y="-118.5" font-family="Helvetica,sans-Serif" font-size="10.00">PostgreSQLConnection()</text>
<text text-anchor="start" x="175.88" y="-102.5" font-family="Helvetica,sans-Serif" font-size="10.00">+</text>
<text text-anchor="start" x="193.5" y="-102.5" font-family="Helvetica,sans-Serif" font-size="10.00">~PostgreSQLConnection()</text>
<text text-anchor="start" x="175.88" y="-86.5" font-family="Helvetica,sans-Serif" font-size="10.00">#</text>
<text text-anchor="start" x="193.5" y="-86.5" font-family="Helvetica,sans-Serif" font-size="10.00">executeQuery()</text>
<text text-anchor="start" x="175.88" y="-70.5" font-family="Helvetica,sans-Serif" font-size="10.00">#</text>
<text text-anchor="start" x="193.5" y="-70.5" font-family="Helvetica,sans-Serif" font-size="10.00">executeUpdate()</text>
<text text-anchor="start" x="175.88" y="-54.5" font-family="Helvetica,sans-Serif" font-size="10.00">#</text>
<text text-anchor="start" x="193.5" y="-54.5" font-family="Helvetica,sans-Serif" font-size="10.00">sendCommit()</text>
<text text-anchor="start" x="175.88" y="-38.5" font-family="Helvetica,sans-Serif" font-size="10.00">#</text>
<text text-anchor="start" x="193.5" y="-38.5" font-family="Helvetica,sans-Serif" font-size="10.00">sendRollback()</text>
<text text-anchor="start" x="175.88" y="-22.5" font-family="Helvetica,sans-Serif" font-size="10.00">#</text>
<text text-anchor="start" x="193.5" y="-22.5" font-family="Helvetica,sans-Serif" font-size="10.00">sendStartTransaction()</text>
<text text-anchor="start" x="175.88" y="-6.5" font-family="Helvetica,sans-Serif" font-size="10.00">#</text>
<text text-anchor="start" x="193.5" y="-6.5" font-family="Helvetica,sans-Serif" font-size="10.00">makePrepared()</text>
<polygon fill="#666666" stroke="#666666" points="166.5,-178 166.5,-178 335.5,-178 335.5,-178 166.5,-178"/>
<polygon fill="#666666" stroke="#666666" points="166.5,-162 166.5,-162 335.5,-162 335.5,-162 166.5,-162"/>
<polygon fill="none" stroke="#666666" points="166.5,0 166.5,-196 335.5,-196 335.5,0 166.5,0"/>
</a>
</g>
</g>
<!-- Node1&#45;&gt;Node3 -->
<g id="edge2_Node000001_Node000003" class="edge">
<title>Node1&#45;&gt;Node3</title>
<g id="a_edge2_Node000001_Node000003"><a xlink:title=" ">
<path fill="none" stroke="#63b8ff" d="M251,-220.72C251,-212.19 251,-203.81 251,-195.69"/>
<polygon fill="none" stroke="#63b8ff" points="247.5,-220.5 251,-230.5 254.5,-220.5 247.5,-220.5"/>
</a>
</g>
</g>
<!-- Node4 -->
<g id="Node000004" class="node">
<title>Node4</title>
<g id="a_Node000004"><a xlink:href="classanch_1_1sql_1_1_s_q_lite3_connection.html" target="_top" xlink:title="SQLite3 connection.">
<polygon fill="white" stroke="none" points="504.5,-196 353.5,-196 353.5,0 504.5,0 504.5,-196"/>
<text text-anchor="start" x="358.12" y="-182.5" font-family="Helvetica,sans-Serif" font-size="10.00">anch::sql::SQLite3Connection</text>
<text text-anchor="start" x="427.5" y="-166.5" font-family="Helvetica,sans-Serif" font-size="10.00"> </text>
<text text-anchor="start" x="362.88" y="-150.5" font-family="Helvetica,sans-Serif" font-size="10.00">+</text>
<text text-anchor="start" x="380.5" y="-150.5" font-family="Helvetica,sans-Serif" font-size="10.00">SQLite3Connection()</text>
<text text-anchor="start" x="362.88" y="-134.5" font-family="Helvetica,sans-Serif" font-size="10.00">+</text>
<text text-anchor="start" x="380.5" y="-134.5" font-family="Helvetica,sans-Serif" font-size="10.00">SQLite3Connection()</text>
<text text-anchor="start" x="362.88" y="-118.5" font-family="Helvetica,sans-Serif" font-size="10.00">+</text>
<text text-anchor="start" x="380.5" y="-118.5" font-family="Helvetica,sans-Serif" font-size="10.00">SQLite3Connection()</text>
<text text-anchor="start" x="362.88" y="-102.5" font-family="Helvetica,sans-Serif" font-size="10.00">+</text>
<text text-anchor="start" x="380.5" y="-102.5" font-family="Helvetica,sans-Serif" font-size="10.00">~SQLite3Connection()</text>
<text text-anchor="start" x="362.88" y="-86.5" font-family="Helvetica,sans-Serif" font-size="10.00">#</text>
<text text-anchor="start" x="380.5" y="-86.5" font-family="Helvetica,sans-Serif" font-size="10.00">executeQuery()</text>
<text text-anchor="start" x="362.88" y="-70.5" font-family="Helvetica,sans-Serif" font-size="10.00">#</text>
<text text-anchor="start" x="380.5" y="-70.5" font-family="Helvetica,sans-Serif" font-size="10.00">executeUpdate()</text>
<text text-anchor="start" x="362.88" y="-54.5" font-family="Helvetica,sans-Serif" font-size="10.00">#</text>
<text text-anchor="start" x="380.5" y="-54.5" font-family="Helvetica,sans-Serif" font-size="10.00">sendCommit()</text>
<text text-anchor="start" x="362.88" y="-38.5" font-family="Helvetica,sans-Serif" font-size="10.00">#</text>
<text text-anchor="start" x="380.5" y="-38.5" font-family="Helvetica,sans-Serif" font-size="10.00">sendRollback()</text>
<text text-anchor="start" x="362.88" y="-22.5" font-family="Helvetica,sans-Serif" font-size="10.00">#</text>
<text text-anchor="start" x="380.5" y="-22.5" font-family="Helvetica,sans-Serif" font-size="10.00">sendStartTransaction()</text>
<text text-anchor="start" x="362.88" y="-6.5" font-family="Helvetica,sans-Serif" font-size="10.00">#</text>
<text text-anchor="start" x="380.5" y="-6.5" font-family="Helvetica,sans-Serif" font-size="10.00">makePrepared()</text>
<polygon fill="#666666" stroke="#666666" points="353.5,-178 353.5,-178 504.5,-178 504.5,-178 353.5,-178"/>
<polygon fill="#666666" stroke="#666666" points="353.5,-162 353.5,-162 504.5,-162 504.5,-162 353.5,-162"/>
<polygon fill="none" stroke="#666666" points="353.5,0 353.5,-196 504.5,-196 504.5,0 353.5,0"/>
</a>
</g>
</g>
<!-- Node1&#45;&gt;Node4 -->
<g id="edge3_Node000001_Node000004" class="edge">
<title>Node1&#45;&gt;Node4</title>
<g id="a_edge3_Node000001_Node000004"><a xlink:title=" ">
<path fill="none" stroke="#63b8ff" d="M320.79,-292.31C338.74,-260.25 357.78,-226.23 374.81,-195.81"/>
<polygon fill="none" stroke="#63b8ff" points="317.83,-290.44 316,-300.87 323.94,-293.86 317.83,-290.44"/>
</a>
</g>
</g>
</g>
</svg>
