<?xml version="1.0" encoding="UTF-8" standalone="no"?>
<!DOCTYPE svg PUBLIC "-//W3C//DTD SVG 1.1//EN"
 "http://www.w3.org/Graphics/SVG/1.1/DTD/svg11.dtd">
<!-- Generated by graphviz version 14.0.4 (0)
 -->
<!-- Title: anch::log::fmt::StringFormatter Pages: 1 -->
<svg width="150pt" height="228pt"
 viewBox="0.00 0.00 150.00 228.00" xmlns="http://www.w3.org/2000/svg" xmlns:xlink="http://www.w3.org/1999/xlink">

<svg id="main" version="1.1" xmlns="http://www.w3.org/2000/svg" xmlns:xlink="http://www.w3.org/1999/xlink" xml:space="preserve">

<style type="text/css"><![CDATA[
.node, .edge {opacity: 0.7;}
.node.selected, .edge.selected {opacity: 1;}
.edge:hover path { stroke: red; }
.edge:hover polygon { stroke: red; fill: red; }
]]></style>
<script type="application/ecmascript" xlink:href="svg.min.js"/>
<svg id="graph" class="graph">
<g id="graph0" class="graph" transform="scale(1 1) rotate(0) translate(4 224)">
<title>anch::log::fmt::StringFormatter</title>
<!-- Node1 -->
<g id="Node000001" class="node">
<title>Node1</title>
<g id="a_Node000001"><a xlink:title=" ">
<polygon fill="#999999" stroke="none" points="141.5,-100 0,-100 0,0 141.5,0 141.5,-100"/>
<text xml:space="preserve" text-anchor="start" x="4" y="-86.5" font-family="Helvetica,sans-Serif" font-size="10.00">anch::log::fmt::StringFormatter</text>
<text xml:space="preserve" text-anchor="start" x="69.25" y="-70.5" font-family="Helvetica,sans-Serif" font-size="10.00"> </text>
<text xml:space="preserve" text-anchor="start" x="15" y="-54.5" font-family="Helvetica,sans-Serif" font-size="10.00">+</text>
<text xml:space="preserve" text-anchor="start" x="36" y="-54.5" font-family="Helvetica,sans-Serif" font-size="10.00">StringFormatter()</text>
<text xml:space="preserve" text-anchor="start" x="15" y="-38.5" font-family="Helvetica,sans-Serif" font-size="10.00">+</text>
<text xml:space="preserve" text-anchor="start" x="36" y="-38.5" font-family="Helvetica,sans-Serif" font-size="10.00">~StringFormatter()</text>
<text xml:space="preserve" text-anchor="start" x="15" y="-22.5" font-family="Helvetica,sans-Serif" font-size="10.00">+</text>
<text xml:space="preserve" text-anchor="start" x="36" y="-22.5" font-family="Helvetica,sans-Serif" font-size="10.00">formatValue()</text>
<text xml:space="preserve" text-anchor="start" x="15" y="-6.5" font-family="Helvetica,sans-Serif" font-size="10.00">+</text>
<text xml:space="preserve" text-anchor="start" x="36" y="-6.5" font-family="Helvetica,sans-Serif" font-size="10.00">getType()</text>
<polygon fill="#666666" stroke="#666666" points="0,-82 0,-82 141.5,-82 141.5,-82 0,-82"/>
<polygon fill="#666666" stroke="#666666" points="0,-66 0,-66 141.5,-66 141.5,-66 0,-66"/>
<polygon fill="none" stroke="#666666" points="0,0 0,-100 141.5,-100 141.5,0 0,0"/>
</a>
</g>
</g>
<!-- Node2 -->
<g id="Node000002" class="node">
<title>Node2</title>
<g id="a_Node000002"><a xlink:href="classanch_1_1log_1_1fmt_1_1_i_formatter.html" target="_top" xlink:title=" ">
<polygon fill="white" stroke="none" points="130.25,-220 11.25,-220 11.25,-136 130.25,-136 130.25,-220"/>
<text xml:space="preserve" text-anchor="start" x="15.25" y="-206.5" font-family="Helvetica,sans-Serif" font-size="10.00">anch::log::fmt::IFormatter</text>
<text xml:space="preserve" text-anchor="start" x="69.25" y="-190.5" font-family="Helvetica,sans-Serif" font-size="10.00"> </text>
<text xml:space="preserve" text-anchor="start" x="26.06" y="-174.5" font-family="Helvetica,sans-Serif" font-size="10.00">+</text>
<text xml:space="preserve" text-anchor="start" x="46.88" y="-174.5" font-family="Helvetica,sans-Serif" font-size="10.00">~IFormatter()</text>
<text xml:space="preserve" text-anchor="start" x="26.06" y="-158.5" font-family="Helvetica,sans-Serif" font-size="10.00">+</text>
<text xml:space="preserve" text-anchor="start" x="46.88" y="-158.5" font-family="Helvetica,sans-Serif" font-size="10.00">getType()</text>
<text xml:space="preserve" text-anchor="start" x="26.06" y="-142.5" font-family="Helvetica,sans-Serif" font-size="10.00">+</text>
<text xml:space="preserve" text-anchor="start" x="46.88" y="-142.5" font-family="Helvetica,sans-Serif" font-size="10.00">formatValue()</text>
<polygon fill="#666666" stroke="#666666" points="11.25,-202 11.25,-202 130.25,-202 130.25,-202 11.25,-202"/>
<polygon fill="#666666" stroke="#666666" points="11.25,-186 11.25,-186 130.25,-186 130.25,-186 11.25,-186"/>
<polygon fill="none" stroke="#666666" points="11.25,-136 11.25,-220 130.25,-220 130.25,-136 11.25,-136"/>
</a>
</g>
</g>
<!-- Node2&#45;&gt;Node1 -->
<g id="edge1_Node000001_Node000002" class="edge">
<title>Node2&#45;&gt;Node1</title>
<g id="a_edge1_Node000001_Node000002"><a xlink:title=" ">
<path fill="none" stroke="#63b8ff" d="M70.75,-124.61C70.75,-116.33 70.75,-107.8 70.75,-99.61"/>
<polygon fill="none" stroke="#63b8ff" points="67.25,-124.58 70.75,-134.58 74.25,-124.58 67.25,-124.58"/>
</a>
</g>
</g>
</g>
</svg>
</svg>

<style type='text/css'>
<![CDATA[
[data-mouse-over-selected='false'] { opacity: 0.7; }
[data-mouse-over-selected='true']  { opacity: 1.0; }
]]>
</style>
<script type="application/ecmascript"><![CDATA[
document.addEventListener('DOMContentLoaded', (event) => {
  highlightEdges();
  highlightAdjacentNodes();
});
]]></script>
</svg>
