<?xml version="1.0" encoding="UTF-8" standalone="no"?>
<!DOCTYPE svg PUBLIC "-//W3C//DTD SVG 1.1//EN"
 "http://www.w3.org/Graphics/SVG/1.1/DTD/svg11.dtd">
<!-- Generated by graphviz version 10.0.1 (0)
 -->
<!-- Title: anch::cutils::COStream Pages: 1 -->
<svg width="129pt" height="473pt"
 viewBox="0.00 0.00 129.00 473.00" xmlns="http://www.w3.org/2000/svg" xmlns:xlink="http://www.w3.org/1999/xlink">
<g id="graph0" class="graph" transform="scale(1 1) rotate(0) translate(4 469)">
<title>anch::cutils::COStream</title>
<!-- Node1 -->
<g id="Node000001" class="node">
<title>Node1</title>
<g id="a_Node000001"><a xlink:title=" ">
<polygon fill="#999999" stroke="none" points="121,-100 0,-100 0,0 121,0 121,-100"/>
<text text-anchor="start" x="5" y="-86.5" font-family="Helvetica,sans-Serif" font-size="10.00">anch::cutils::COStream</text>
<text text-anchor="start" x="59" y="-70.5" font-family="Helvetica,sans-Serif" font-size="10.00"> </text>
<text text-anchor="start" x="12.88" y="-54.5" font-family="Helvetica,sans-Serif" font-size="10.00">+</text>
<text text-anchor="start" x="34" y="-54.5" font-family="Helvetica,sans-Serif" font-size="10.00">COStream()</text>
<text text-anchor="start" x="12.88" y="-38.5" font-family="Helvetica,sans-Serif" font-size="10.00">+</text>
<text text-anchor="start" x="34" y="-38.5" font-family="Helvetica,sans-Serif" font-size="10.00">~COStream()</text>
<text text-anchor="start" x="12.88" y="-22.5" font-family="Helvetica,sans-Serif" font-size="10.00">#</text>
<text text-anchor="start" x="34" y="-22.5" font-family="Helvetica,sans-Serif" font-size="10.00">COStream()</text>
<text text-anchor="start" x="12.88" y="-6.5" font-family="Helvetica,sans-Serif" font-size="10.00">#</text>
<text text-anchor="start" x="34" y="-6.5" font-family="Helvetica,sans-Serif" font-size="10.00">setBuffer()</text>
<polygon fill="#666666" stroke="#666666" points="0,-82 0,-82 121,-82 121,-82 0,-82"/>
<polygon fill="#666666" stroke="#666666" points="0,-66 0,-66 121,-66 121,-66 0,-66"/>
<polygon fill="none" stroke="#666666" points="0,0 0,-100 121,-100 121,0 0,0"/>
</a>
</g>
</g>
<!-- Node2 -->
<g id="Node000002" class="node">
<title>Node2</title>
<g id="a_Node000002"><a xlink:title=" ">
<polygon fill="white" stroke="none" points="96,-188 25,-188 25,-136 96,-136 96,-188"/>
<text text-anchor="start" x="29.75" y="-174.5" font-family="Helvetica,sans-Serif" font-size="10.00">std::ostream</text>
<text text-anchor="start" x="59" y="-158.5" font-family="Helvetica,sans-Serif" font-size="10.00"> </text>
<text text-anchor="start" x="59" y="-142.5" font-family="Helvetica,sans-Serif" font-size="10.00"> </text>
<polygon fill="#666666" stroke="#666666" points="25,-170 25,-170 96,-170 96,-170 25,-170"/>
<polygon fill="#666666" stroke="#666666" points="25,-154 25,-154 96,-154 96,-154 25,-154"/>
<polygon fill="none" stroke="#666666" points="25,-136 25,-188 96,-188 96,-136 25,-136"/>
</a>
</g>
</g>
<!-- Node2&#45;&gt;Node1 -->
<g id="edge1_Node000001_Node000002" class="edge">
<title>Node2&#45;&gt;Node1</title>
<g id="a_edge1_Node000001_Node000002"><a xlink:title=" ">
<path fill="none" stroke="#63b8ff" d="M60.5,-124.53C60.5,-116.58 60.5,-108.05 60.5,-99.72"/>
<polygon fill="none" stroke="#63b8ff" points="57,-124.53 60.5,-134.53 64,-124.53 57,-124.53"/>
</a>
</g>
</g>
<!-- Node3 -->
<g id="Node000003" class="node">
<title>Node3</title>
<g id="a_Node000003"><a xlink:title=" ">
<polygon fill="white" stroke="none" points="111.5,-289 9.5,-289 9.5,-224 111.5,-224 111.5,-289"/>
<text text-anchor="start" x="14.38" y="-275.5" font-family="Helvetica,sans-Serif" font-size="10.00">std::basic_ostream</text>
<text text-anchor="start" x="38" y="-262.75" font-family="Helvetica,sans-Serif" font-size="10.00">&lt; Char &gt;</text>
<text text-anchor="start" x="59" y="-246.5" font-family="Helvetica,sans-Serif" font-size="10.00"> </text>
<text text-anchor="start" x="59" y="-230.5" font-family="Helvetica,sans-Serif" font-size="10.00"> </text>
<polygon fill="#666666" stroke="#666666" points="9.5,-258 9.5,-258 111.5,-258 111.5,-258 9.5,-258"/>
<polygon fill="#666666" stroke="#666666" points="9.5,-242 9.5,-242 111.5,-242 111.5,-242 9.5,-242"/>
<polygon fill="none" stroke="#666666" points="9.5,-224 9.5,-289 111.5,-289 111.5,-224 9.5,-224"/>
</a>
</g>
</g>
<!-- Node3&#45;&gt;Node2 -->
<g id="edge2_Node000002_Node000003" class="edge">
<title>Node3&#45;&gt;Node2</title>
<g id="a_edge2_Node000002_Node000003"><a xlink:title=" ">
<path fill="none" stroke="#63b8ff" d="M60.5,-212.76C60.5,-204.23 60.5,-195.54 60.5,-187.86"/>
<polygon fill="none" stroke="#63b8ff" points="57,-212.67 60.5,-222.67 64,-212.67 57,-212.67"/>
</a>
</g>
</g>
<!-- Node4 -->
<g id="Node000004" class="node">
<title>Node4</title>
<g id="a_Node000004"><a xlink:title=" ">
<polygon fill="white" stroke="none" points="121,-377 0,-377 0,-325 121,-325 121,-377"/>
<text text-anchor="start" x="5" y="-363.5" font-family="Helvetica,sans-Serif" font-size="10.00">std::basic_ios&lt; Char &gt;</text>
<text text-anchor="start" x="59" y="-347.5" font-family="Helvetica,sans-Serif" font-size="10.00"> </text>
<text text-anchor="start" x="59" y="-331.5" font-family="Helvetica,sans-Serif" font-size="10.00"> </text>
<polygon fill="#666666" stroke="#666666" points="0,-359 0,-359 121,-359 121,-359 0,-359"/>
<polygon fill="#666666" stroke="#666666" points="0,-343 0,-343 121,-343 121,-343 0,-343"/>
<polygon fill="none" stroke="#666666" points="0,-325 0,-377 121,-377 121,-325 0,-325"/>
</a>
</g>
</g>
<!-- Node4&#45;&gt;Node3 -->
<g id="edge3_Node000003_Node000004" class="edge">
<title>Node4&#45;&gt;Node3</title>
<g id="a_edge3_Node000003_Node000004"><a xlink:title=" ">
<path fill="none" stroke="#63b8ff" d="M60.5,-313.98C60.5,-305.73 60.5,-297.03 60.5,-288.99"/>
<polygon fill="none" stroke="#63b8ff" points="57,-313.7 60.5,-323.7 64,-313.7 57,-313.7"/>
</a>
</g>
</g>
<!-- Node5 -->
<g id="Node000005" class="node">
<title>Node5</title>
<g id="a_Node000005"><a xlink:title=" ">
<polygon fill="white" stroke="none" points="97,-465 24,-465 24,-413 97,-413 97,-465"/>
<text text-anchor="start" x="28.62" y="-451.5" font-family="Helvetica,sans-Serif" font-size="10.00">std::ios_base</text>
<text text-anchor="start" x="59" y="-435.5" font-family="Helvetica,sans-Serif" font-size="10.00"> </text>
<text text-anchor="start" x="59" y="-419.5" font-family="Helvetica,sans-Serif" font-size="10.00"> </text>
<polygon fill="#666666" stroke="#666666" points="24,-447 24,-447 97,-447 97,-447 24,-447"/>
<polygon fill="#666666" stroke="#666666" points="24,-431 24,-431 97,-431 97,-431 24,-431"/>
<polygon fill="none" stroke="#666666" points="24,-413 24,-465 97,-465 97,-413 24,-413"/>
</a>
</g>
</g>
<!-- Node5&#45;&gt;Node4 -->
<g id="edge4_Node000004_Node000005" class="edge">
<title>Node5&#45;&gt;Node4</title>
<g id="a_edge4_Node000004_Node000005"><a xlink:title=" ">
<path fill="none" stroke="#63b8ff" d="M60.5,-401.66C60.5,-393.29 60.5,-384.57 60.5,-376.82"/>
<polygon fill="none" stroke="#63b8ff" points="57,-401.61 60.5,-411.61 64,-401.61 57,-401.61"/>
</a>
</g>
</g>
</g>
</svg>
