<?xml version="1.0" encoding="UTF-8" standalone="no"?>
<!DOCTYPE svg PUBLIC "-//W3C//DTD SVG 1.1//EN"
 "http://www.w3.org/Graphics/SVG/1.1/DTD/svg11.dtd">
<!-- Generated by graphviz version 7.0.4 (0)
 -->
<!-- Title: anch::rest::Headers Pages: 1 -->
<svg width="141pt" height="270pt"
 viewBox="0.00 0.00 140.50 270.00" xmlns="http://www.w3.org/2000/svg" xmlns:xlink="http://www.w3.org/1999/xlink">
<g id="graph0" class="graph" transform="scale(1 1) rotate(0) translate(4 266)">
<title>anch::rest::Headers</title>
<!-- Node1 -->
<g id="node1" class="node">
<title>Node1</title>
<g id="a_node1"><a xlink:title="HTTP headers.">
<polygon fill="#999999" stroke="#666666" points="117,-118 0,-118 0,0 117,0 117,-118"/>
<text text-anchor="middle" x="58.5" y="-106" font-family="Helvetica,sans-Serif" font-size="10.00">{anch::rest::Headers</text>
<text text-anchor="start" x="8" y="-95" font-family="Helvetica,sans-Serif" font-size="10.00">||+ get()</text>
<text text-anchor="start" x="8" y="-84" font-family="Helvetica,sans-Serif" font-size="10.00">+ get()</text>
<text text-anchor="start" x="8" y="-73" font-family="Helvetica,sans-Serif" font-size="10.00">+ has()</text>
<text text-anchor="start" x="8" y="-62" font-family="Helvetica,sans-Serif" font-size="10.00">+ add()</text>
<text text-anchor="start" x="8" y="-51" font-family="Helvetica,sans-Serif" font-size="10.00">+ add()</text>
<text text-anchor="start" x="8" y="-40" font-family="Helvetica,sans-Serif" font-size="10.00">+ put()</text>
<text text-anchor="start" x="8" y="-29" font-family="Helvetica,sans-Serif" font-size="10.00">+ put()</text>
<text text-anchor="start" x="8" y="-18" font-family="Helvetica,sans-Serif" font-size="10.00">+ format()</text>
<text text-anchor="middle" x="58.5" y="-7" font-family="Helvetica,sans-Serif" font-size="10.00">}</text>
</a>
</g>
</g>
<!-- Node2 -->
<g id="node2" class="node">
<title>Node2</title>
<g id="a_node2"><a xlink:title=" ">
<polygon fill="white" stroke="#666666" points="112,-185 5,-185 5,-155 112,-155 112,-185"/>
<text text-anchor="middle" x="58.5" y="-173" font-family="Helvetica,sans-Serif" font-size="10.00">{std::map&lt; K, T &gt;</text>
<text text-anchor="middle" x="58.5" y="-162" font-family="Helvetica,sans-Serif" font-size="10.00">||}</text>
</a>
</g>
</g>
<!-- Node2&#45;&gt;Node1 -->
<g id="edge1" class="edge">
<title>Node2&#45;&gt;Node1</title>
<path fill="none" stroke="#8b1a1a" d="M58.5,-143.41C58.5,-135.76 58.5,-127.05 58.5,-118.2"/>
<polygon fill="none" stroke="#8b1a1a" points="55,-143.24 58.5,-153.24 62,-143.24 55,-143.24"/>
</g>
<!-- Node3 -->
<g id="node3" class="node">
<title>Node3</title>
<g id="a_node3"><a xlink:title=" ">
<polygon fill="white" stroke="#bfbfbf" points="45,-262 16,-262 16,-232 45,-232 45,-262"/>
<text text-anchor="middle" x="30.5" y="-250" font-family="Helvetica,sans-Serif" font-size="10.00">{K</text>
<text text-anchor="middle" x="30.5" y="-239" font-family="Helvetica,sans-Serif" font-size="10.00">||}</text>
</a>
</g>
</g>
<!-- Node3&#45;&gt;Node2 -->
<g id="edge2" class="edge">
<title>Node3&#45;&gt;Node2</title>
<path fill="none" stroke="#404040" d="M28.49,-231.6C27.86,-223.02 28.06,-212.08 31.5,-203 32.47,-200.45 33.73,-197.96 35.18,-195.57"/>
<polygon fill="none" stroke="#404040" points="35.2,-195.55 35.6,-188.35 42.4,-185.95 42,-193.15 35.2,-195.55"/>
<text text-anchor="middle" x="48.5" y="-206" font-family="Helvetica,sans-Serif" font-size="10.00"> +keys</text>
</g>
<!-- Node4 -->
<g id="node4" class="node">
<title>Node4</title>
<g id="a_node4"><a xlink:title=" ">
<polygon fill="white" stroke="#bfbfbf" points="102,-262 73,-262 73,-232 102,-232 102,-262"/>
<text text-anchor="middle" x="87.5" y="-250" font-family="Helvetica,sans-Serif" font-size="10.00">{T</text>
<text text-anchor="middle" x="87.5" y="-239" font-family="Helvetica,sans-Serif" font-size="10.00">||}</text>
</a>
</g>
</g>
<!-- Node4&#45;&gt;Node2 -->
<g id="edge3" class="edge">
<title>Node4&#45;&gt;Node2</title>
<path fill="none" stroke="#404040" d="M81.91,-231.54C78.18,-221.89 73.16,-208.92 68.73,-197.46"/>
<polygon fill="none" stroke="#404040" points="68.73,-197.45 62.83,-193.3 64.4,-186.26 70.29,-190.41 68.73,-197.45"/>
<text text-anchor="middle" x="103.5" y="-206" font-family="Helvetica,sans-Serif" font-size="10.00"> +elements</text>
</g>
</g>
</svg>
