<?xml version="1.0" encoding="UTF-8" standalone="no"?>
<!DOCTYPE svg PUBLIC "-//W3C//DTD SVG 1.1//EN"
 "http://www.w3.org/Graphics/SVG/1.1/DTD/svg11.dtd">
<!-- Generated by graphviz version 12.2.1 (0)
 -->
<!-- Title: anch::events::Observer&lt; T &gt; Pages: 1 -->
<!--zoomable 373 -->

<svg id="main" version="1.1" xmlns="http://www.w3.org/2000/svg" xmlns:xlink="http://www.w3.org/1999/xlink" xml:space="preserve" onload="init(evt)">

<style type="text/css"><![CDATA[
.node, .edge {opacity: 0.7;}
.node.selected, .edge.selected {opacity: 1;}
.edge:hover path { stroke: red; }
.edge:hover polygon { stroke: red; fill: red; }
]]></style>

<defs>
  <circle id="rim" cx="0" cy="0" r="7"/>
  <circle id="rim2" cx="0" cy="0" r="3.5"/>
  <g id="zoomPlus">
    <use xlink:href="#rim" fill="#404040"><set attributeName="fill" to="#808080" begin="zoomplus.mouseover" end="zoomplus.mouseout"/></use>
    <path d="M-4,0h8M0,-4v8" fill="none" stroke="white" stroke-width="1.5" pointer-events="none"/>
  </g>
  <g id="zoomMin">
    <use xlink:href="#rim" fill="#404040"><set attributeName="fill" to="#808080" begin="zoomminus.mouseover" end="zoomminus.mouseout"/></use>
    <path d="M-4,0h8" fill="none" stroke="white" stroke-width="1.5" pointer-events="none"/>
  </g>
  <g id="arrowUp" transform="translate(30 24)">
    <use xlink:href="#rim"/>
    <path pointer-events="none" fill="none" stroke="white" stroke-width="1.5" d="M0,-3.0v7 M-2.5,-0.5L0,-3.0L2.5,-0.5"/>
  </g>
  <g id="arrowRight" transform="rotate(90) translate(36 -43)">
    <use xlink:href="#rim"/>
    <path pointer-events="none" fill="none" stroke="white" stroke-width="1.5" d="M0,-3.0v7 M-2.5,-0.5L0,-3.0L2.5,-0.5"/>
  </g>
  <g id="arrowDown" transform="rotate(180) translate(-30 -48)">
    <use xlink:href="#rim"/>
    <path pointer-events="none" fill="none" stroke="white" stroke-width="1.5" d="M0,-3.0v7 M-2.5,-0.5L0,-3.0L2.5,-0.5"/>
  </g>
  <g id="arrowLeft" transform="rotate(270) translate(-36 17)">
    <use xlink:href="#rim"/>
    <path pointer-events="none" fill="none" stroke="white" stroke-width="1.5" d="M0,-3.0v7 M-2.5,-0.5L0,-3.0L2.5,-0.5"/>
  </g>
  <g id="resetDef">
    <use xlink:href="#rim2" fill="#404040"><set attributeName="fill" to="#808080" begin="reset.mouseover" end="reset.mouseout"/></use>
  </g>
</defs>
<script type="application/ecmascript">
var viewWidth = 856;
var viewHeight = 373;
var sectionId = 'dynsection-0';
</script>
<script type="application/ecmascript" xlink:href="svg.min.js"/>
<svg id="graph" class="graph">
<g id="viewport">
<title>anch::events::Observer&lt; T &gt;</title>
<!-- Node1 -->
<g id="Node000001" class="node">
<title>Node1</title>
<g id="a_Node000001"><a xlink:title="An observer interface of the observers/observable design pattern.">
<polygon fill="#999999" stroke="none" points="478.38,-365 345.12,-365 345.12,-313 478.38,-313 478.38,-365"/>
<text text-anchor="start" x="349.12" y="-351.5" font-family="Helvetica,sans-Serif" font-size="10.00">anch::events::Observer&lt; T &gt;</text>
<text text-anchor="start" x="410.25" y="-335.5" font-family="Helvetica,sans-Serif" font-size="10.00"> </text>
<text text-anchor="start" x="369.31" y="-319.5" font-family="Helvetica,sans-Serif" font-size="10.00">+</text>
<text text-anchor="start" x="399.5" y="-319.5" font-family="Helvetica,sans-Serif" font-size="10.00">handle()</text>
<polygon fill="#666666" stroke="#666666" points="345.12,-347 345.12,-347 478.38,-347 478.38,-347 345.12,-347"/>
<polygon fill="#666666" stroke="#666666" points="345.12,-331 345.12,-331 478.38,-331 478.38,-331 345.12,-331"/>
<polygon fill="none" stroke="#666666" points="345.12,-313 345.12,-365 478.38,-365 478.38,-313 345.12,-313"/>
</a>
</g>
</g>
<!-- Node2 -->
<g id="Node000002" class="node">
<title>Node2</title>
<g id="a_Node000002"><a xlink:href="classanch_1_1events_1_1_event_handler.html" target="_top" xlink:title="An event handler.">
<polygon fill="white" stroke="none" points="129.5,-265 0,-265 0,-153 129.5,-153 129.5,-265"/>
<text text-anchor="start" x="4" y="-251.5" font-family="Helvetica,sans-Serif" font-size="10.00">anch::events::EventHandler</text>
<text text-anchor="start" x="33.62" y="-239.5" font-family="Helvetica,sans-Serif" font-size="10.00">&lt; T, Derived &gt;</text>
<text text-anchor="start" x="63.25" y="-223.5" font-family="Helvetica,sans-Serif" font-size="10.00"> </text>
<text text-anchor="start" x="14.06" y="-207.5" font-family="Helvetica,sans-Serif" font-size="10.00">+</text>
<text text-anchor="start" x="34.12" y="-207.5" font-family="Helvetica,sans-Serif" font-size="10.00">EventHandler()</text>
<text text-anchor="start" x="14.06" y="-191.5" font-family="Helvetica,sans-Serif" font-size="10.00">+</text>
<text text-anchor="start" x="34.12" y="-191.5" font-family="Helvetica,sans-Serif" font-size="10.00">EventHandler()</text>
<text text-anchor="start" x="14.06" y="-175.5" font-family="Helvetica,sans-Serif" font-size="10.00">+</text>
<text text-anchor="start" x="34.12" y="-175.5" font-family="Helvetica,sans-Serif" font-size="10.00">~EventHandler()</text>
<text text-anchor="start" x="14.06" y="-159.5" font-family="Helvetica,sans-Serif" font-size="10.00">+</text>
<text text-anchor="start" x="34.12" y="-159.5" font-family="Helvetica,sans-Serif" font-size="10.00">handle()</text>
<polygon fill="#666666" stroke="#666666" points="0,-235 0,-235 129.5,-235 129.5,-235 0,-235"/>
<polygon fill="#666666" stroke="#666666" points="0,-219 0,-219 129.5,-219 129.5,-219 0,-219"/>
<polygon fill="none" stroke="#666666" points="0,-153 0,-265 129.5,-265 129.5,-153 0,-153"/>
</a>
</g>
</g>
<!-- Node1&#45;&gt;Node2 -->
<g id="edge1_Node000001_Node000002" class="edge">
<title>Node1&#45;&gt;Node2</title>
<g id="a_edge1_Node000001_Node000002"><a xlink:title=" ">
<path fill="none" stroke="#63b8ff" d="M334.34,-327.21C277.64,-317 200.17,-298.15 138.75,-265 135.65,-263.33 132.54,-261.54 129.44,-259.66"/>
<polygon fill="none" stroke="#63b8ff" points="333.46,-330.61 343.91,-328.88 334.66,-323.71 333.46,-330.61"/>
</a>
</g>
</g>
<!-- Node3 -->
<g id="Node000003" class="node">
<title>Node3</title>
<g id="a_Node000003"><a xlink:href="classanch_1_1events_1_1_observer.html" target="_top" xlink:title=" ">
<polygon fill="white" stroke="none" points="271.5,-241 148,-241 148,-177 271.5,-177 271.5,-241"/>
<text text-anchor="start" x="152" y="-227.5" font-family="Helvetica,sans-Serif" font-size="10.00">anch::events::Observer</text>
<text text-anchor="start" x="152" y="-215.5" font-family="Helvetica,sans-Serif" font-size="10.00">&lt; anch::json::JSONItem &gt;</text>
<text text-anchor="start" x="208.25" y="-199.5" font-family="Helvetica,sans-Serif" font-size="10.00"> </text>
<text text-anchor="start" x="169.75" y="-183.5" font-family="Helvetica,sans-Serif" font-size="10.00">+</text>
<text text-anchor="start" x="197.5" y="-183.5" font-family="Helvetica,sans-Serif" font-size="10.00">handle()</text>
<polygon fill="#666666" stroke="#666666" points="148,-211 148,-211 271.5,-211 271.5,-211 148,-211"/>
<polygon fill="#666666" stroke="#666666" points="148,-195 148,-195 271.5,-195 271.5,-195 148,-195"/>
<polygon fill="none" stroke="#666666" points="148,-177 148,-241 271.5,-241 271.5,-177 148,-177"/>
</a>
</g>
</g>
<!-- Node1&#45;&gt;Node3 -->
<g id="edge2_Node000001_Node000003" class="edge">
<title>Node1&#45;&gt;Node3</title>
<g id="a_edge2_Node000001_Node000003"><a xlink:title=" ">
<path fill="none" stroke="orange" d="M334.17,-327.26C293.03,-320.05 247.99,-309.26 233.25,-295 218.72,-280.95 212.93,-258.79 210.72,-240.62"/>
<polygon fill="orange" stroke="orange" points="333.43,-330.68 343.87,-328.89 334.59,-323.78 333.43,-330.68"/>
</a>
</g>
<text text-anchor="middle" x="292.5" y="-285.5" font-family="Helvetica,sans-Serif" font-size="10.00" fill="grey"> &lt; anch::json::JSONItem &gt;</text>
</g>
<!-- Node4 -->
<g id="Node000004" class="node">
<title>Node4</title>
<g id="a_Node000004"><a xlink:href="classanch_1_1events_1_1_observer.html" target="_top" xlink:title=" ">
<polygon fill="white" stroke="none" points="399.75,-241 289.75,-241 289.75,-177 399.75,-177 399.75,-241"/>
<text text-anchor="start" x="293.75" y="-227.5" font-family="Helvetica,sans-Serif" font-size="10.00">anch::events::Observer</text>
<text text-anchor="start" x="302" y="-215.5" font-family="Helvetica,sans-Serif" font-size="10.00">&lt; std::streamsize &gt;</text>
<text text-anchor="start" x="343.25" y="-199.5" font-family="Helvetica,sans-Serif" font-size="10.00"> </text>
<text text-anchor="start" x="308.12" y="-183.5" font-family="Helvetica,sans-Serif" font-size="10.00">+</text>
<text text-anchor="start" x="332.5" y="-183.5" font-family="Helvetica,sans-Serif" font-size="10.00">handle()</text>
<polygon fill="#666666" stroke="#666666" points="289.75,-211 289.75,-211 399.75,-211 399.75,-211 289.75,-211"/>
<polygon fill="#666666" stroke="#666666" points="289.75,-195 289.75,-195 399.75,-195 399.75,-195 289.75,-195"/>
<polygon fill="none" stroke="#666666" points="289.75,-177 289.75,-241 399.75,-241 399.75,-177 289.75,-177"/>
</a>
</g>
</g>
<!-- Node1&#45;&gt;Node4 -->
<g id="edge3_Node000001_Node000004" class="edge">
<title>Node1&#45;&gt;Node4</title>
<g id="a_edge3_Node000001_Node000004"><a xlink:title=" ">
<path fill="none" stroke="orange" d="M368.26,-304.85C365.64,-301.73 363.26,-298.44 361.25,-295 351.7,-278.64 347.55,-257.8 345.8,-240.84"/>
<polygon fill="orange" stroke="orange" points="365.71,-307.25 375.14,-312.09 370.79,-302.43 365.71,-307.25"/>
</a>
</g>
<text text-anchor="middle" x="405.5" y="-285.5" font-family="Helvetica,sans-Serif" font-size="10.00" fill="grey"> &lt; std::streamsize &gt;</text>
</g>
<!-- Node5 -->
<g id="Node000005" class="node">
<title>Node5</title>
<g id="a_Node000005"><a xlink:href="classanch_1_1events_1_1_observer.html" target="_top" xlink:title=" ">
<polygon fill="white" stroke="none" points="552.12,-241 417.38,-241 417.38,-177 552.12,-177 552.12,-241"/>
<text text-anchor="start" x="421.38" y="-227.5" font-family="Helvetica,sans-Serif" font-size="10.00">anch::events::Observer</text>
<text text-anchor="start" x="421.38" y="-215.5" font-family="Helvetica,sans-Serif" font-size="10.00">&lt; anch::json::MappingError &gt;</text>
<text text-anchor="start" x="483.25" y="-199.5" font-family="Helvetica,sans-Serif" font-size="10.00"> </text>
<text text-anchor="start" x="441.94" y="-183.5" font-family="Helvetica,sans-Serif" font-size="10.00">+</text>
<text text-anchor="start" x="472.5" y="-183.5" font-family="Helvetica,sans-Serif" font-size="10.00">handle()</text>
<polygon fill="#666666" stroke="#666666" points="417.38,-211 417.38,-211 552.12,-211 552.12,-211 417.38,-211"/>
<polygon fill="#666666" stroke="#666666" points="417.38,-195 417.38,-195 552.12,-195 552.12,-195 417.38,-195"/>
<polygon fill="none" stroke="#666666" points="417.38,-177 417.38,-241 552.12,-241 552.12,-177 417.38,-177"/>
</a>
</g>
</g>
<!-- Node1&#45;&gt;Node5 -->
<g id="edge4_Node000001_Node000005" class="edge">
<title>Node1&#45;&gt;Node5</title>
<g id="a_edge4_Node000001_Node000005"><a xlink:title=" ">
<path fill="none" stroke="orange" d="M443.32,-304.3C445.62,-301.25 447.8,-298.13 449.75,-295 460.3,-278.07 468.89,-257.41 474.92,-240.69"/>
<polygon fill="orange" stroke="orange" points="440.66,-302.03 437.1,-312.01 446.1,-306.43 440.66,-302.03"/>
</a>
</g>
<text text-anchor="middle" x="520.85" y="-285.5" font-family="Helvetica,sans-Serif" font-size="10.00" fill="grey"> &lt; anch::json::MappingError &gt;</text>
</g>
<!-- Node6 -->
<g id="Node000006" class="node">
<title>Node6</title>
<g id="a_Node000006"><a xlink:href="classanch_1_1events_1_1_observer.html" target="_top" xlink:title=" ">
<polygon fill="white" stroke="none" points="679.75,-241 569.75,-241 569.75,-177 679.75,-177 679.75,-241"/>
<text text-anchor="start" x="573.75" y="-227.5" font-family="Helvetica,sans-Serif" font-size="10.00">anch::events::Observer</text>
<text text-anchor="start" x="587.62" y="-215.5" font-family="Helvetica,sans-Serif" font-size="10.00">&lt; SocketEvent &gt;</text>
<text text-anchor="start" x="623.25" y="-199.5" font-family="Helvetica,sans-Serif" font-size="10.00"> </text>
<text text-anchor="start" x="588.12" y="-183.5" font-family="Helvetica,sans-Serif" font-size="10.00">+</text>
<text text-anchor="start" x="612.5" y="-183.5" font-family="Helvetica,sans-Serif" font-size="10.00">handle()</text>
<polygon fill="#666666" stroke="#666666" points="569.75,-211 569.75,-211 679.75,-211 679.75,-211 569.75,-211"/>
<polygon fill="#666666" stroke="#666666" points="569.75,-195 569.75,-195 679.75,-195 679.75,-195 569.75,-195"/>
<polygon fill="none" stroke="#666666" points="569.75,-177 569.75,-241 679.75,-241 679.75,-177 569.75,-177"/>
</a>
</g>
</g>
<!-- Node1&#45;&gt;Node6 -->
<g id="edge5_Node000001_Node000006" class="edge">
<title>Node1&#45;&gt;Node6</title>
<g id="a_edge5_Node000001_Node000006"><a xlink:title=" ">
<path fill="none" stroke="orange" d="M489.4,-334.83C523.55,-329.8 562.1,-318.7 589.75,-295 605.74,-281.29 614.55,-259.12 619.33,-240.86"/>
<polygon fill="orange" stroke="orange" points="488.97,-331.36 479.51,-336.12 489.88,-338.3 488.97,-331.36"/>
</a>
</g>
<text text-anchor="middle" x="638.41" y="-285.5" font-family="Helvetica,sans-Serif" font-size="10.00" fill="grey"> &lt; SocketEvent &gt;</text>
</g>
<!-- Node7 -->
<g id="Node000007" class="node">
<title>Node7</title>
<g id="a_Node000007"><a xlink:href="classanch_1_1events_1_1_observer.html" target="_top" xlink:title=" ">
<polygon fill="white" stroke="none" points="847.62,-241 697.88,-241 697.88,-177 847.62,-177 847.62,-241"/>
<text text-anchor="start" x="701.88" y="-227.5" font-family="Helvetica,sans-Serif" font-size="10.00">anch::events::Observer</text>
<text text-anchor="start" x="701.88" y="-215.5" font-family="Helvetica,sans-Serif" font-size="10.00">&lt; anch::network::SocketEvent &gt;</text>
<text text-anchor="start" x="771.25" y="-199.5" font-family="Helvetica,sans-Serif" font-size="10.00"> </text>
<text text-anchor="start" x="726.19" y="-183.5" font-family="Helvetica,sans-Serif" font-size="10.00">+</text>
<text text-anchor="start" x="760.5" y="-183.5" font-family="Helvetica,sans-Serif" font-size="10.00">handle()</text>
<polygon fill="#666666" stroke="#666666" points="697.88,-211 697.88,-211 847.62,-211 847.62,-211 697.88,-211"/>
<polygon fill="#666666" stroke="#666666" points="697.88,-195 697.88,-195 847.62,-195 847.62,-195 697.88,-195"/>
<polygon fill="none" stroke="#666666" points="697.88,-177 697.88,-241 847.62,-241 847.62,-177 697.88,-177"/>
</a>
</g>
</g>
<!-- Node1&#45;&gt;Node7 -->
<g id="edge6_Node000001_Node000007" class="edge">
<title>Node1&#45;&gt;Node7</title>
<g id="a_edge6_Node000001_Node000007"><a xlink:title=" ">
<path fill="none" stroke="orange" d="M489.48,-337.41C545.22,-334.23 620.75,-324.14 680.75,-295 706.96,-282.27 730.94,-259.58 747.84,-240.84"/>
<polygon fill="orange" stroke="orange" points="489.57,-333.9 479.76,-337.89 489.92,-340.89 489.57,-333.9"/>
</a>
</g>
<text text-anchor="middle" x="770.74" y="-285.5" font-family="Helvetica,sans-Serif" font-size="10.00" fill="grey"> &lt; anch::network::SocketEvent &gt;</text>
</g>
<!-- Node8 -->
<g id="Node000008" class="node">
<title>Node8</title>
<g id="a_Node000008"><a xlink:href="classanch_1_1ut_1_1_socket_server_runner.html" target="_top" xlink:title="Socket server unit tests runner.">
<polygon fill="white" stroke="none" points="842.75,-116 702.75,-116 702.75,0 842.75,0 842.75,-116"/>
<text text-anchor="start" x="706.75" y="-102.5" font-family="Helvetica,sans-Serif" font-size="10.00">anch::ut::SocketServerRunner</text>
<text text-anchor="start" x="771.25" y="-86.5" font-family="Helvetica,sans-Serif" font-size="10.00"> </text>
<text text-anchor="start" x="711.56" y="-70.5" font-family="Helvetica,sans-Serif" font-size="10.00">+</text>
<text text-anchor="start" x="726.38" y="-70.5" font-family="Helvetica,sans-Serif" font-size="10.00">SocketServerRunner()</text>
<text text-anchor="start" x="711.56" y="-54.5" font-family="Helvetica,sans-Serif" font-size="10.00">+</text>
<text text-anchor="start" x="726.38" y="-54.5" font-family="Helvetica,sans-Serif" font-size="10.00">SocketServerRunner()</text>
<text text-anchor="start" x="711.56" y="-38.5" font-family="Helvetica,sans-Serif" font-size="10.00">+</text>
<text text-anchor="start" x="726.38" y="-38.5" font-family="Helvetica,sans-Serif" font-size="10.00">SocketServerRunner()</text>
<text text-anchor="start" x="711.56" y="-22.5" font-family="Helvetica,sans-Serif" font-size="10.00">+</text>
<text text-anchor="start" x="726.38" y="-22.5" font-family="Helvetica,sans-Serif" font-size="10.00">~SocketServerRunner()</text>
<text text-anchor="start" x="711.56" y="-6.5" font-family="Helvetica,sans-Serif" font-size="10.00">+</text>
<text text-anchor="start" x="726.38" y="-6.5" font-family="Helvetica,sans-Serif" font-size="10.00">handle()</text>
<polygon fill="#666666" stroke="#666666" points="702.75,-98 702.75,-98 842.75,-98 842.75,-98 702.75,-98"/>
<polygon fill="#666666" stroke="#666666" points="702.75,-82 702.75,-82 842.75,-82 842.75,-82 702.75,-82"/>
<polygon fill="none" stroke="#666666" points="702.75,0 702.75,-116 842.75,-116 842.75,0 702.75,0"/>
</a>
</g>
</g>
<!-- Node7&#45;&gt;Node8 -->
<g id="edge7_Node000007_Node000008" class="edge">
<title>Node7&#45;&gt;Node8</title>
<g id="a_edge7_Node000007_Node000008"><a xlink:title=" ">
<path fill="none" stroke="#8b1a1a" d="M772.75,-165.75C772.75,-150.21 772.75,-132.34 772.75,-115.73"/>
<polygon fill="none" stroke="#8b1a1a" points="769.25,-165.61 772.75,-175.61 776.25,-165.61 769.25,-165.61"/>
</a>
</g>
</g>
</g>
</svg>

<g id="navigator" transform="translate(0 0)" fill="#404254">
  <rect fill="#f2f5e9" fill-opacity="0.5" stroke="#606060" stroke-width=".5" x="0" y="0" width="60" height="60"/>
  <use id="zoomplus" xlink:href="#zoomPlus" x="17" y="9" onmousedown="handleZoom(evt,'in')"/>
  <use id="zoomminus" xlink:href="#zoomMin" x="42" y="9" onmousedown="handleZoom(evt,'out')"/>
  <use id="reset" xlink:href="#resetDef" x="30" y="36" onmousedown="handleReset()"/>
   <use id="arrowup" xlink:href="#arrowUp" x="0" y="0" onmousedown="handlePan(0,-1)"/>
  <use id="arrowright" xlink:href="#arrowRight" x="0" y="0" onmousedown="handlePan(1,0)"/>
  <use id="arrowdown" xlink:href="#arrowDown" x="0" y="0" onmousedown="handlePan(0,1)"/>
  <use id="arrowleft" xlink:href="#arrowLeft" x="0" y="0" onmousedown="handlePan(-1,0)"/>
</g>
<svg viewBox="0 0 15 15" width="100%" height="30px" preserveAspectRatio="xMaxYMin meet">
 <g id="arrow_out" transform="scale(0.3 0.3)">
  <a xlink:href="classanch_1_1events_1_1_observer__inherit__graph_org.svg" target="_base">
   <rect id="button" ry="5" rx="5" y="6" x="6" height="38" width="38"
        fill="#f2f5e9" fill-opacity="0.5" stroke="#606060" stroke-width="1.0"/>
   <path id="arrow"
     d="M 11.500037,31.436501 C 11.940474,20.09759 22.043105,11.32322 32.158766,21.979434 L 37.068811,17.246167 C 37.068811,17.246167 37.088388,32 37.088388,32 L 22.160133,31.978069 C 22.160133,31.978069 26.997745,27.140456 26.997745,27.140456 C 18.528582,18.264221 13.291696,25.230495 11.500037,31.436501 z"
     style="fill:#404040;"/>
  </a>
 </g>
</svg>

<style type='text/css'>
<![CDATA[
[data-mouse-over-selected='false'] { opacity: 0.7; }
[data-mouse-over-selected='true']  { opacity: 1.0; }
]]>
</style>
<script type="application/ecmascript"><![CDATA[
document.addEventListener('DOMContentLoaded', (event) => {
  highlightEdges();
  highlightAdjacentNodes();
});
]]></script>
</svg>
