<?xml version="1.0" encoding="UTF-8" standalone="no"?>
<!DOCTYPE svg PUBLIC "-//W3C//DTD SVG 1.1//EN"
 "http://www.w3.org/Graphics/SVG/1.1/DTD/svg11.dtd">
<!-- Generated by graphviz version 13.1.2 (0)
 -->
<!-- Title: ErrorObserver Pages: 1 -->
<svg width="208pt" height="267pt"
 viewBox="0.00 0.00 208.00 267.00" xmlns="http://www.w3.org/2000/svg" xmlns:xlink="http://www.w3.org/1999/xlink">
<g id="graph0" class="graph" transform="scale(1 1) rotate(0) translate(4 263)">
<title>ErrorObserver</title>
<!-- Node1 -->
<g id="Node000001" class="node">
<title>Node1</title>
<g id="a_Node000001"><a xlink:title=" ">
<polygon fill="#999999" stroke="none" points="101.75,-52 33,-52 33,0 101.75,0 101.75,-52"/>
<text xml:space="preserve" text-anchor="start" x="37" y="-38.5" font-family="Helvetica,sans-Serif" font-size="10.00">ErrorObserver</text>
<text xml:space="preserve" text-anchor="start" x="65.88" y="-22.5" font-family="Helvetica,sans-Serif" font-size="10.00"> </text>
<text xml:space="preserve" text-anchor="start" x="65.88" y="-6.5" font-family="Helvetica,sans-Serif" font-size="10.00"> </text>
<polygon fill="#666666" stroke="#666666" points="33,-34 33,-34 101.75,-34 101.75,-34 33,-34"/>
<polygon fill="#666666" stroke="#666666" points="33,-18 33,-18 101.75,-18 101.75,-18 33,-18"/>
<polygon fill="none" stroke="#666666" points="33,0 33,-52 101.75,-52 101.75,0 33,0"/>
</a>
</g>
</g>
<!-- Node2 -->
<g id="Node000002" class="node">
<title>Node2</title>
<g id="a_Node000002"><a xlink:href="classanch_1_1events_1_1_observer.html" target="_top" xlink:title=" ">
<polygon fill="white" stroke="none" points="134.75,-153 0,-153 0,-89 134.75,-89 134.75,-153"/>
<text xml:space="preserve" text-anchor="start" x="4" y="-139.5" font-family="Helvetica,sans-Serif" font-size="10.00">anch::events::Observer</text>
<text xml:space="preserve" text-anchor="start" x="4" y="-127.5" font-family="Helvetica,sans-Serif" font-size="10.00">&lt; anch::json::MappingError &gt;</text>
<text xml:space="preserve" text-anchor="start" x="65.88" y="-111.5" font-family="Helvetica,sans-Serif" font-size="10.00"> </text>
<text xml:space="preserve" text-anchor="start" x="24.56" y="-95.5" font-family="Helvetica,sans-Serif" font-size="10.00">+</text>
<text xml:space="preserve" text-anchor="start" x="55.12" y="-95.5" font-family="Helvetica,sans-Serif" font-size="10.00">handle()</text>
<polygon fill="#666666" stroke="#666666" points="0,-123 0,-123 134.75,-123 134.75,-123 0,-123"/>
<polygon fill="#666666" stroke="#666666" points="0,-107 0,-107 134.75,-107 134.75,-107 0,-107"/>
<polygon fill="none" stroke="#666666" points="0,-89 0,-153 134.75,-153 134.75,-89 0,-89"/>
</a>
</g>
</g>
<!-- Node2&#45;&gt;Node1 -->
<g id="edge1_Node000001_Node000002" class="edge">
<title>Node2&#45;&gt;Node1</title>
<g id="a_edge1_Node000001_Node000002"><a xlink:title=" ">
<path fill="none" stroke="#63b8ff" d="M67.38,-77.69C67.38,-68.89 67.38,-59.89 67.38,-51.96"/>
<polygon fill="none" stroke="#63b8ff" points="63.88,-77.52 67.38,-87.52 70.88,-77.52 63.88,-77.52"/>
</a>
</g>
</g>
<!-- Node3 -->
<g id="Node000003" class="node">
<title>Node3</title>
<g id="a_Node000003"><a xlink:href="classanch_1_1events_1_1_observer.html" target="_top" xlink:title="An observer interface of the observers/observable design pattern.">
<polygon fill="white" stroke="none" points="134,-259 0.75,-259 0.75,-207 134,-207 134,-259"/>
<text xml:space="preserve" text-anchor="start" x="4.75" y="-245.5" font-family="Helvetica,sans-Serif" font-size="10.00">anch::events::Observer&lt; T &gt;</text>
<text xml:space="preserve" text-anchor="start" x="65.88" y="-229.5" font-family="Helvetica,sans-Serif" font-size="10.00"> </text>
<text xml:space="preserve" text-anchor="start" x="24.94" y="-213.5" font-family="Helvetica,sans-Serif" font-size="10.00">+</text>
<text xml:space="preserve" text-anchor="start" x="55.12" y="-213.5" font-family="Helvetica,sans-Serif" font-size="10.00">handle()</text>
<polygon fill="#666666" stroke="#666666" points="0.75,-241 0.75,-241 134,-241 134,-241 0.75,-241"/>
<polygon fill="#666666" stroke="#666666" points="0.75,-225 0.75,-225 134,-225 134,-225 0.75,-225"/>
<polygon fill="none" stroke="#666666" points="0.75,-207 0.75,-259 134,-259 134,-207 0.75,-207"/>
</a>
</g>
</g>
<!-- Node3&#45;&gt;Node2 -->
<g id="edge2_Node000002_Node000003" class="edge">
<title>Node3&#45;&gt;Node2</title>
<g id="a_edge2_Node000002_Node000003"><a xlink:title=" ">
<path fill="none" stroke="orange" d="M67.38,-195.86C67.38,-181.92 67.38,-166.14 67.38,-152.75"/>
<polygon fill="orange" stroke="orange" points="63.88,-195.53 67.38,-205.53 70.88,-195.53 63.88,-195.53"/>
</a>
</g>
<text xml:space="preserve" text-anchor="start" x="70.38" y="-176.5" font-family="Helvetica,sans-Serif" font-size="10.00" fill="grey">&lt; anch::json::MappingError &gt;</text>
</g>
</g>
</svg>
