<?xml version="1.0" encoding="UTF-8" standalone="no"?>
<!DOCTYPE svg PUBLIC "-//W3C//DTD SVG 1.1//EN"
 "http://www.w3.org/Graphics/SVG/1.1/DTD/svg11.dtd">
<!-- Generated by graphviz version 7.0.4 (0)
 -->
<!-- Title: anch::crypto::SHA224_256&lt; O, I &gt; Pages: 1 -->
<svg width="205pt" height="623pt"
 viewBox="0.00 0.00 204.50 623.00" xmlns="http://www.w3.org/2000/svg" xmlns:xlink="http://www.w3.org/1999/xlink">
<g id="graph0" class="graph" transform="scale(1 1) rotate(0) translate(4 619)">
<title>anch::crypto::SHA224_256&lt; O, I &gt;</title>
<!-- Node1 -->
<g id="node1" class="node">
<title>Node1</title>
<g id="a_node1"><a xlink:title="SHA2 224/256 implementation.">
<polygon fill="#999999" stroke="#666666" points="132,-85 5,-85 5,0 132,0 132,-85"/>
<text text-anchor="start" x="13" y="-73" font-family="Helvetica,sans-Serif" font-size="10.00">{anch::crypto::SHA224</text>
<text text-anchor="middle" x="68.5" y="-62" font-family="Helvetica,sans-Serif" font-size="10.00">_256&lt; O, I &gt;</text>
<text text-anchor="start" x="13" y="-51" font-family="Helvetica,sans-Serif" font-size="10.00">||+ SHA224_256()</text>
<text text-anchor="start" x="13" y="-40" font-family="Helvetica,sans-Serif" font-size="10.00">+ SHA224_256()</text>
<text text-anchor="start" x="13" y="-29" font-family="Helvetica,sans-Serif" font-size="10.00">+ SHA224_256()</text>
<text text-anchor="start" x="13" y="-18" font-family="Helvetica,sans-Serif" font-size="10.00">+ ~SHA224_256()</text>
<text text-anchor="middle" x="68.5" y="-7" font-family="Helvetica,sans-Serif" font-size="10.00">}</text>
</a>
</g>
</g>
<!-- Node2 -->
<g id="node2" class="node">
<title>Node2</title>
<g id="a_node2"><a xlink:href="classanch_1_1crypto_1_1_s_h_a2.html" target="_top" xlink:title=" ">
<polygon fill="white" stroke="#666666" points="137,-240 0,-240 0,-122 137,-122 137,-240"/>
<text text-anchor="start" x="8" y="-228" font-family="Helvetica,sans-Serif" font-size="10.00">{anch::crypto::SHA2</text>
<text text-anchor="middle" x="68.5" y="-217" font-family="Helvetica,sans-Serif" font-size="10.00">&lt; O, 64, uint32_t, 64, I &gt;</text>
<text text-anchor="start" x="8" y="-206" font-family="Helvetica,sans-Serif" font-size="10.00">|# _context</text>
<text text-anchor="start" x="8" y="-195" font-family="Helvetica,sans-Serif" font-size="10.00">|+ SHA2()</text>
<text text-anchor="start" x="8" y="-184" font-family="Helvetica,sans-Serif" font-size="10.00">+ ~SHA2()</text>
<text text-anchor="start" x="8" y="-173" font-family="Helvetica,sans-Serif" font-size="10.00">+ digest()</text>
<text text-anchor="start" x="8" y="-162" font-family="Helvetica,sans-Serif" font-size="10.00"># shiftRight()</text>
<text text-anchor="start" x="8" y="-151" font-family="Helvetica,sans-Serif" font-size="10.00"># rotateLeft()</text>
<text text-anchor="start" x="8" y="-140" font-family="Helvetica,sans-Serif" font-size="10.00"># rotateRight()</text>
<text text-anchor="middle" x="68.5" y="-129" font-family="Helvetica,sans-Serif" font-size="10.00">}</text>
</a>
</g>
</g>
<!-- Node2&#45;&gt;Node1 -->
<g id="edge1" class="edge">
<title>Node2&#45;&gt;Node1</title>
<path fill="none" stroke="#63b8ff" d="M68.5,-110.23C68.5,-101.78 68.5,-93.36 68.5,-85.49"/>
<polygon fill="none" stroke="#63b8ff" points="65,-110.2 68.5,-120.2 72,-110.2 65,-110.2"/>
</g>
<!-- Node3 -->
<g id="node3" class="node">
<title>Node3</title>
<g id="a_node3"><a xlink:href="classanch_1_1crypto_1_1_hash.html" target="_top" xlink:title="Hash algorithm abstract class.">
<polygon fill="white" stroke="#666666" points="121,-615 8,-615 8,-453 121,-453 121,-615"/>
<text text-anchor="start" x="16" y="-603" font-family="Helvetica,sans-Serif" font-size="10.00">{anch::crypto::Hash</text>
<text text-anchor="middle" x="64.5" y="-592" font-family="Helvetica,sans-Serif" font-size="10.00">&lt; O, B &gt;</text>
<text text-anchor="start" x="16" y="-581" font-family="Helvetica,sans-Serif" font-size="10.00">|# _digest</text>
<text text-anchor="start" x="16" y="-570" font-family="Helvetica,sans-Serif" font-size="10.00">|+ digest()</text>
<text text-anchor="start" x="16" y="-559" font-family="Helvetica,sans-Serif" font-size="10.00">+ digest()</text>
<text text-anchor="start" x="16" y="-548" font-family="Helvetica,sans-Serif" font-size="10.00">+ digest()</text>
<text text-anchor="start" x="16" y="-537" font-family="Helvetica,sans-Serif" font-size="10.00">+ digest()</text>
<text text-anchor="start" x="16" y="-526" font-family="Helvetica,sans-Serif" font-size="10.00">+ digest()</text>
<text text-anchor="start" x="16" y="-515" font-family="Helvetica,sans-Serif" font-size="10.00">+ getOutputSize()</text>
<text text-anchor="start" x="16" y="-504" font-family="Helvetica,sans-Serif" font-size="10.00">+ getBlockSize()</text>
<text text-anchor="start" x="16" y="-493" font-family="Helvetica,sans-Serif" font-size="10.00"># reset()</text>
<text text-anchor="start" x="16" y="-482" font-family="Helvetica,sans-Serif" font-size="10.00"># addData()</text>
<text text-anchor="start" x="16" y="-471" font-family="Helvetica,sans-Serif" font-size="10.00"># finalize()</text>
<text text-anchor="middle" x="64.5" y="-460" font-family="Helvetica,sans-Serif" font-size="10.00">}</text>
</a>
</g>
</g>
<!-- Node3&#45;&gt;Node2 -->
<g id="edge2" class="edge">
<title>Node3&#45;&gt;Node2</title>
<path fill="none" stroke="#63b8ff" d="M65.54,-441.68C66.27,-378.11 67.21,-295.24 67.83,-240.4"/>
<polygon fill="none" stroke="#63b8ff" points="62.04,-441.36 65.43,-451.4 69.04,-441.44 62.04,-441.36"/>
</g>
<!-- Node4 -->
<g id="node4" class="node">
<title>Node4</title>
<g id="a_node4"><a xlink:href="classanch_1_1crypto_1_1_s_h_a2.html" target="_top" xlink:title="SHA2 abstract class.">
<polygon fill="white" stroke="#666666" points="196,-416 81,-416 81,-298 196,-298 196,-416"/>
<text text-anchor="start" x="89" y="-404" font-family="Helvetica,sans-Serif" font-size="10.00">{anch::crypto::SHA2</text>
<text text-anchor="middle" x="138.5" y="-393" font-family="Helvetica,sans-Serif" font-size="10.00">&lt; O, B, W, R, I &gt;</text>
<text text-anchor="start" x="89" y="-382" font-family="Helvetica,sans-Serif" font-size="10.00">|# _context</text>
<text text-anchor="start" x="89" y="-371" font-family="Helvetica,sans-Serif" font-size="10.00">|+ SHA2()</text>
<text text-anchor="start" x="89" y="-360" font-family="Helvetica,sans-Serif" font-size="10.00">+ ~SHA2()</text>
<text text-anchor="start" x="89" y="-349" font-family="Helvetica,sans-Serif" font-size="10.00">+ digest()</text>
<text text-anchor="start" x="89" y="-338" font-family="Helvetica,sans-Serif" font-size="10.00"># shiftRight()</text>
<text text-anchor="start" x="89" y="-327" font-family="Helvetica,sans-Serif" font-size="10.00"># rotateLeft()</text>
<text text-anchor="start" x="89" y="-316" font-family="Helvetica,sans-Serif" font-size="10.00"># rotateRight()</text>
<text text-anchor="middle" x="138.5" y="-305" font-family="Helvetica,sans-Serif" font-size="10.00">}</text>
</a>
</g>
</g>
<!-- Node3&#45;&gt;Node4 -->
<g id="edge4" class="edge">
<title>Node3&#45;&gt;Node4</title>
<path fill="none" stroke="#63b8ff" d="M102.84,-442.34C106.56,-433.53 110.27,-424.77 113.8,-416.41"/>
<polygon fill="none" stroke="#63b8ff" points="99.73,-440.7 99.06,-451.28 106.18,-443.43 99.73,-440.7"/>
</g>
<!-- Node4&#45;&gt;Node2 -->
<g id="edge3" class="edge">
<title>Node4&#45;&gt;Node2</title>
<path fill="none" stroke="orange" d="M110.75,-287.01C104.52,-271.53 97.97,-255.26 91.94,-240.27"/>
<polygon fill="orange" stroke="orange" points="107.45,-288.2 114.43,-296.17 113.95,-285.59 107.45,-288.2"/>
<text text-anchor="start" x="107.5" y="-272" font-family="Helvetica,sans-Serif" font-size="10.00"> &lt; O, 64, uint32_t,</text>
<text text-anchor="middle" x="152" y="-261" font-family="Helvetica,sans-Serif" font-size="10.00"> 64, I &gt;</text>
</g>
</g>
</svg>
