<?xml version="1.0" encoding="UTF-8" standalone="no"?>
<!DOCTYPE svg PUBLIC "-//W3C//DTD SVG 1.1//EN"
 "http://www.w3.org/Graphics/SVG/1.1/DTD/svg11.dtd">
<!-- Generated by graphviz version 12.1.2 (0)
 -->
<!-- Title: anch::device::CPU Pages: 1 -->
<svg width="125pt" height="377pt"
 viewBox="0.00 0.00 125.00 377.00" xmlns="http://www.w3.org/2000/svg" xmlns:xlink="http://www.w3.org/1999/xlink">

<svg id="main" version="1.1" xmlns="http://www.w3.org/2000/svg" xmlns:xlink="http://www.w3.org/1999/xlink" xml:space="preserve">

<style type="text/css"><![CDATA[
.node, .edge {opacity: 0.7;}
.node.selected, .edge.selected {opacity: 1;}
.edge:hover path { stroke: red; }
.edge:hover polygon { stroke: red; fill: red; }
]]></style>
<script type="application/ecmascript" xlink:href="svg.min.js"/>
<svg id="graph" class="graph">
<g id="graph0" class="graph" transform="scale(1 1) rotate(0) translate(4 373)">
<title>anch::device::CPU</title>
<!-- Node1 -->
<g id="Node000001" class="node">
<title>Node1</title>
<g id="a_Node000001"><a xlink:title="CPU features detection.">
<polygon fill="#999999" stroke="none" points="105,-180 12,-180 12,0 105,0 105,-180"/>
<text text-anchor="start" x="16.88" y="-166.5" font-family="Helvetica,sans-Serif" font-size="10.00">anch::device::CPU</text>
<text text-anchor="start" x="57" y="-150.5" font-family="Helvetica,sans-Serif" font-size="10.00"> </text>
<text text-anchor="start" x="22.5" y="-134.5" font-family="Helvetica,sans-Serif" font-size="10.00">+</text>
<text text-anchor="start" x="39" y="-134.5" font-family="Helvetica,sans-Serif" font-size="10.00">isAES()</text>
<text text-anchor="start" x="22.5" y="-118.5" font-family="Helvetica,sans-Serif" font-size="10.00">+</text>
<text text-anchor="start" x="39" y="-118.5" font-family="Helvetica,sans-Serif" font-size="10.00">isMMX()</text>
<text text-anchor="start" x="22.5" y="-102.5" font-family="Helvetica,sans-Serif" font-size="10.00">+</text>
<text text-anchor="start" x="39" y="-102.5" font-family="Helvetica,sans-Serif" font-size="10.00">isSSE()</text>
<text text-anchor="start" x="22.5" y="-86.5" font-family="Helvetica,sans-Serif" font-size="10.00">+</text>
<text text-anchor="start" x="39" y="-86.5" font-family="Helvetica,sans-Serif" font-size="10.00">isSSE2()</text>
<text text-anchor="start" x="22.5" y="-70.5" font-family="Helvetica,sans-Serif" font-size="10.00">+</text>
<text text-anchor="start" x="39" y="-70.5" font-family="Helvetica,sans-Serif" font-size="10.00">isSSE3()</text>
<text text-anchor="start" x="22.5" y="-54.5" font-family="Helvetica,sans-Serif" font-size="10.00">+</text>
<text text-anchor="start" x="39" y="-54.5" font-family="Helvetica,sans-Serif" font-size="10.00">isSSSE3()</text>
<text text-anchor="start" x="22.5" y="-38.5" font-family="Helvetica,sans-Serif" font-size="10.00">+</text>
<text text-anchor="start" x="39" y="-38.5" font-family="Helvetica,sans-Serif" font-size="10.00">isSSE4()</text>
<text text-anchor="start" x="22.5" y="-22.5" font-family="Helvetica,sans-Serif" font-size="10.00">+</text>
<text text-anchor="start" x="39" y="-22.5" font-family="Helvetica,sans-Serif" font-size="10.00">isSSE4_1()</text>
<text text-anchor="start" x="22.5" y="-6.5" font-family="Helvetica,sans-Serif" font-size="10.00">+</text>
<text text-anchor="start" x="39" y="-6.5" font-family="Helvetica,sans-Serif" font-size="10.00">isSSE4_2()</text>
<polygon fill="#666666" stroke="#666666" points="12,-162 12,-162 105,-162 105,-162 12,-162"/>
<polygon fill="#666666" stroke="#666666" points="12,-146 12,-146 105,-146 105,-146 12,-146"/>
<polygon fill="none" stroke="#666666" points="12,0 12,-180 105,-180 105,0 12,0"/>
</a>
</g>
</g>
<!-- Node2 -->
<g id="Node000002" class="node">
<title>Node2</title>
<g id="a_Node000002"><a xlink:href="classanch_1_1_singleton.html" target="_top" xlink:title=" ">
<polygon fill="white" stroke="none" points="117,-269 0,-269 0,-217 117,-217 117,-269"/>
<text text-anchor="start" x="4.88" y="-255.5" font-family="Helvetica,sans-Serif" font-size="10.00">anch::Singleton&lt; CPU &gt;</text>
<text text-anchor="start" x="57" y="-239.5" font-family="Helvetica,sans-Serif" font-size="10.00"> </text>
<text text-anchor="start" x="14.5" y="-223.5" font-family="Helvetica,sans-Serif" font-size="10.00">+</text>
<text text-anchor="start" x="35" y="-223.5" font-family="Helvetica,sans-Serif" font-size="10.00">getInstance()</text>
<polygon fill="#666666" stroke="#666666" points="0,-251 0,-251 117,-251 117,-251 0,-251"/>
<polygon fill="#666666" stroke="#666666" points="0,-235 0,-235 117,-235 117,-235 0,-235"/>
<polygon fill="none" stroke="#666666" points="0,-217 0,-269 117,-269 117,-217 0,-217"/>
</a>
</g>
</g>
<!-- Node2&#45;&gt;Node1 -->
<g id="edge1_Node000001_Node000002" class="edge">
<title>Node2&#45;&gt;Node1</title>
<g id="a_edge1_Node000001_Node000002"><a xlink:title=" ">
<path fill="none" stroke="#63b8ff" d="M58.5,-205.67C58.5,-197.71 58.5,-188.95 58.5,-179.92"/>
<polygon fill="none" stroke="#63b8ff" points="55,-205.55 58.5,-215.55 62,-205.55 55,-205.55"/>
</a>
</g>
</g>
<!-- Node3 -->
<g id="Node000003" class="node">
<title>Node3</title>
<g id="a_Node000003"><a xlink:href="classanch_1_1_singleton.html" target="_top" xlink:title="Meyers&#39; singleton implementation.">
<polygon fill="white" stroke="none" points="108.5,-369 8.5,-369 8.5,-317 108.5,-317 108.5,-369"/>
<text text-anchor="start" x="13.12" y="-355.5" font-family="Helvetica,sans-Serif" font-size="10.00">anch::Singleton&lt; T &gt;</text>
<text text-anchor="start" x="57" y="-339.5" font-family="Helvetica,sans-Serif" font-size="10.00"> </text>
<text text-anchor="start" x="18.5" y="-323.5" font-family="Helvetica,sans-Serif" font-size="10.00">+</text>
<text text-anchor="start" x="34.5" y="-323.5" font-family="Helvetica,sans-Serif" font-size="10.00">getInstance()</text>
<polygon fill="#666666" stroke="#666666" points="8.5,-351 8.5,-351 108.5,-351 108.5,-351 8.5,-351"/>
<polygon fill="#666666" stroke="#666666" points="8.5,-335 8.5,-335 108.5,-335 108.5,-335 8.5,-335"/>
<polygon fill="none" stroke="#666666" points="8.5,-317 8.5,-369 108.5,-369 108.5,-317 8.5,-317"/>
</a>
</g>
</g>
<!-- Node3&#45;&gt;Node2 -->
<g id="edge2_Node000002_Node000003" class="edge">
<title>Node3&#45;&gt;Node2</title>
<g id="a_edge2_Node000002_Node000003"><a xlink:title=" ">
<path fill="none" stroke="orange" d="M58.5,-305.74C58.5,-293.49 58.5,-280.1 58.5,-268.94"/>
<polygon fill="orange" stroke="orange" points="55,-305.5 58.5,-315.5 62,-305.5 55,-305.5"/>
</a>
</g>
<text text-anchor="middle" x="79.88" y="-289.5" font-family="Helvetica,sans-Serif" font-size="10.00" fill="grey"> &lt; CPU &gt;</text>
</g>
</g>
</svg>
</svg>

<style type='text/css'>
<![CDATA[
[data-mouse-over-selected='false'] { opacity: 0.7; }
[data-mouse-over-selected='true']  { opacity: 1.0; }
]]>
</style>
<script type="application/ecmascript"><![CDATA[
document.addEventListener('DOMContentLoaded', (event) => {
  highlightEdges();
  highlightAdjacentNodes();
});
]]></script>
</svg>
