<?xml version="1.0" encoding="UTF-8" standalone="no"?>
<!DOCTYPE svg PUBLIC "-//W3C//DTD SVG 1.1//EN"
 "http://www.w3.org/Graphics/SVG/1.1/DTD/svg11.dtd">
<!-- Generated by graphviz version 12.1.2 (0)
 -->
<!-- Title: anch::sql::Date Pages: 1 -->
<svg width="100pt" height="564pt"
 viewBox="0.00 0.00 100.00 564.00" xmlns="http://www.w3.org/2000/svg" xmlns:xlink="http://www.w3.org/1999/xlink">
<g id="graph0" class="graph" transform="scale(1 1) rotate(0) translate(4 560)">
<title>anch::sql::Date</title>
<!-- Node1 -->
<g id="Node000001" class="node">
<title>Node1</title>
<g id="a_Node000001"><a xlink:title="SQL date type.">
<polygon fill="#999999" stroke="none" points="87,-116 5,-116 5,0 87,0 87,-116"/>
<text text-anchor="start" x="9.62" y="-102.5" font-family="Helvetica,sans-Serif" font-size="10.00">anch::sql::Date</text>
<text text-anchor="start" x="44.5" y="-86.5" font-family="Helvetica,sans-Serif" font-size="10.00"> </text>
<text text-anchor="start" x="14.38" y="-70.5" font-family="Helvetica,sans-Serif" font-size="10.00">+</text>
<text text-anchor="start" x="32" y="-70.5" font-family="Helvetica,sans-Serif" font-size="10.00">Date()</text>
<text text-anchor="start" x="14.38" y="-54.5" font-family="Helvetica,sans-Serif" font-size="10.00">+</text>
<text text-anchor="start" x="32" y="-54.5" font-family="Helvetica,sans-Serif" font-size="10.00">Date()</text>
<text text-anchor="start" x="14.38" y="-38.5" font-family="Helvetica,sans-Serif" font-size="10.00">+</text>
<text text-anchor="start" x="32" y="-38.5" font-family="Helvetica,sans-Serif" font-size="10.00">Date()</text>
<text text-anchor="start" x="14.38" y="-22.5" font-family="Helvetica,sans-Serif" font-size="10.00">+</text>
<text text-anchor="start" x="32" y="-22.5" font-family="Helvetica,sans-Serif" font-size="10.00">Date()</text>
<text text-anchor="start" x="14.38" y="-6.5" font-family="Helvetica,sans-Serif" font-size="10.00">+</text>
<text text-anchor="start" x="32" y="-6.5" font-family="Helvetica,sans-Serif" font-size="10.00">~Date()</text>
<polygon fill="#666666" stroke="#666666" points="5,-98 5,-98 87,-98 87,-98 5,-98"/>
<polygon fill="#666666" stroke="#666666" points="5,-82 5,-82 87,-82 87,-82 5,-82"/>
<polygon fill="none" stroke="#666666" points="5,0 5,-116 87,-116 87,0 5,0"/>
</a>
</g>
</g>
<!-- Node2 -->
<g id="Node000002" class="node">
<title>Node2</title>
<g id="a_Node000002"><a xlink:href="classanch_1_1date_1_1_date.html" target="_top" xlink:title=" ">
<polygon fill="white" stroke="none" points="92,-556 0,-556 0,-152 92,-152 92,-556"/>
<text text-anchor="start" x="5.88" y="-542.5" font-family="Helvetica,sans-Serif" font-size="10.00">anch::date::Date</text>
<text text-anchor="start" x="3.88" y="-526.5" font-family="Helvetica,sans-Serif" font-size="10.00">#</text>
<text text-anchor="start" x="16" y="-526.5" font-family="Helvetica,sans-Serif" font-size="10.00">_timestamp</text>
<text text-anchor="start" x="3.88" y="-510.5" font-family="Helvetica,sans-Serif" font-size="10.00">#</text>
<text text-anchor="start" x="16" y="-510.5" font-family="Helvetica,sans-Serif" font-size="10.00">_years</text>
<text text-anchor="start" x="3.88" y="-494.5" font-family="Helvetica,sans-Serif" font-size="10.00">#</text>
<text text-anchor="start" x="16" y="-494.5" font-family="Helvetica,sans-Serif" font-size="10.00">_months</text>
<text text-anchor="start" x="3.88" y="-478.5" font-family="Helvetica,sans-Serif" font-size="10.00">#</text>
<text text-anchor="start" x="16" y="-478.5" font-family="Helvetica,sans-Serif" font-size="10.00">_ydays</text>
<text text-anchor="start" x="3.88" y="-462.5" font-family="Helvetica,sans-Serif" font-size="10.00">#</text>
<text text-anchor="start" x="16" y="-462.5" font-family="Helvetica,sans-Serif" font-size="10.00">_mdays</text>
<text text-anchor="start" x="3.88" y="-446.5" font-family="Helvetica,sans-Serif" font-size="10.00">#</text>
<text text-anchor="start" x="16" y="-446.5" font-family="Helvetica,sans-Serif" font-size="10.00">_wdays</text>
<text text-anchor="start" x="3.88" y="-430.5" font-family="Helvetica,sans-Serif" font-size="10.00">#</text>
<text text-anchor="start" x="16" y="-430.5" font-family="Helvetica,sans-Serif" font-size="10.00">_hours</text>
<text text-anchor="start" x="3.88" y="-414.5" font-family="Helvetica,sans-Serif" font-size="10.00">#</text>
<text text-anchor="start" x="16" y="-414.5" font-family="Helvetica,sans-Serif" font-size="10.00">_minutes</text>
<text text-anchor="start" x="3.88" y="-398.5" font-family="Helvetica,sans-Serif" font-size="10.00">#</text>
<text text-anchor="start" x="16" y="-398.5" font-family="Helvetica,sans-Serif" font-size="10.00">_seconds</text>
<text text-anchor="start" x="3.88" y="-382.5" font-family="Helvetica,sans-Serif" font-size="10.00">#</text>
<text text-anchor="start" x="16" y="-382.5" font-family="Helvetica,sans-Serif" font-size="10.00">_milliseconds</text>
<text text-anchor="start" x="3.88" y="-366.5" font-family="Helvetica,sans-Serif" font-size="10.00">#</text>
<text text-anchor="start" x="16" y="-366.5" font-family="Helvetica,sans-Serif" font-size="10.00">_microseconds</text>
<text text-anchor="start" x="3.88" y="-350.5" font-family="Helvetica,sans-Serif" font-size="10.00">#</text>
<text text-anchor="start" x="16" y="-350.5" font-family="Helvetica,sans-Serif" font-size="10.00">_nanoseconds</text>
<text text-anchor="start" x="3.88" y="-334.5" font-family="Helvetica,sans-Serif" font-size="10.00">#</text>
<text text-anchor="start" x="16" y="-334.5" font-family="Helvetica,sans-Serif" font-size="10.00">_mutex</text>
<text text-anchor="start" x="3.88" y="-318.5" font-family="Helvetica,sans-Serif" font-size="10.00">+</text>
<text text-anchor="start" x="16" y="-318.5" font-family="Helvetica,sans-Serif" font-size="10.00">Date()</text>
<text text-anchor="start" x="3.88" y="-302.5" font-family="Helvetica,sans-Serif" font-size="10.00">+</text>
<text text-anchor="start" x="16" y="-302.5" font-family="Helvetica,sans-Serif" font-size="10.00">Date()</text>
<text text-anchor="start" x="3.88" y="-286.5" font-family="Helvetica,sans-Serif" font-size="10.00">+</text>
<text text-anchor="start" x="16" y="-286.5" font-family="Helvetica,sans-Serif" font-size="10.00">Date()</text>
<text text-anchor="start" x="3.88" y="-270.5" font-family="Helvetica,sans-Serif" font-size="10.00">+</text>
<text text-anchor="start" x="16" y="-270.5" font-family="Helvetica,sans-Serif" font-size="10.00">Date()</text>
<text text-anchor="start" x="3.88" y="-254.5" font-family="Helvetica,sans-Serif" font-size="10.00">+</text>
<text text-anchor="start" x="16" y="-254.5" font-family="Helvetica,sans-Serif" font-size="10.00">~Date()</text>
<text text-anchor="start" x="3.88" y="-238.5" font-family="Helvetica,sans-Serif" font-size="10.00">+</text>
<text text-anchor="start" x="16" y="-238.5" font-family="Helvetica,sans-Serif" font-size="10.00">after()</text>
<text text-anchor="start" x="3.88" y="-222.5" font-family="Helvetica,sans-Serif" font-size="10.00">+</text>
<text text-anchor="start" x="16" y="-222.5" font-family="Helvetica,sans-Serif" font-size="10.00">before()</text>
<text text-anchor="start" x="3.88" y="-206.5" font-family="Helvetica,sans-Serif" font-size="10.00">+</text>
<text text-anchor="start" x="16" y="-206.5" font-family="Helvetica,sans-Serif" font-size="10.00">equals()</text>
<text text-anchor="start" x="3.88" y="-190.5" font-family="Helvetica,sans-Serif" font-size="10.00">+</text>
<text text-anchor="start" x="16" y="-190.5" font-family="Helvetica,sans-Serif" font-size="10.00">operator&gt;()</text>
<text text-anchor="start" x="3.88" y="-174.5" font-family="Helvetica,sans-Serif" font-size="10.00">+</text>
<text text-anchor="start" x="16" y="-174.5" font-family="Helvetica,sans-Serif" font-size="10.00">operator&gt;=()</text>
<text text-anchor="start" x="16" y="-158.5" font-family="Helvetica,sans-Serif" font-size="10.00">and 7 more...</text>
<polygon fill="#666666" stroke="#666666" points="0,-538 0,-538 92,-538 92,-538 0,-538"/>
<polygon fill="#666666" stroke="#666666" points="0,-330 0,-330 14,-330 14,-330 0,-330"/>
<polygon fill="#666666" stroke="#666666" points="14,-330 14,-330 92,-330 92,-330 14,-330"/>
<polygon fill="none" stroke="#666666" points="0,-152 0,-556 92,-556 92,-152 0,-152"/>
</a>
</g>
</g>
<!-- Node2&#45;&gt;Node1 -->
<g id="edge1_Node000001_Node000002" class="edge">
<title>Node2&#45;&gt;Node1</title>
<g id="a_edge1_Node000001_Node000002"><a xlink:title=" ">
<path fill="none" stroke="#63b8ff" d="M46,-140.79C46,-132.07 46,-123.73 46,-115.95"/>
<polygon fill="none" stroke="#63b8ff" points="42.5,-140.51 46,-150.51 49.5,-140.51 42.5,-140.51"/>
</a>
</g>
</g>
</g>
</svg>
