<?xml version="1.0" encoding="UTF-8" standalone="no"?>
<!DOCTYPE svg PUBLIC "-//W3C//DTD SVG 1.1//EN"
 "http://www.w3.org/Graphics/SVG/1.1/DTD/svg11.dtd">
<!-- Generated by graphviz version 13.1.2 (0)
 -->
<!-- Title: anch::json::WriterContext Pages: 1 -->
<!--zoomable 653 -->

<svg id="main" version="1.1" xmlns="http://www.w3.org/2000/svg" xmlns:xlink="http://www.w3.org/1999/xlink" xml:space="preserve" onload="init(evt)">

<style type="text/css"><![CDATA[
.node, .edge {opacity: 0.7;}
.node.selected, .edge.selected {opacity: 1;}
.edge:hover path { stroke: red; }
.edge:hover polygon { stroke: red; fill: red; }
]]></style>

<defs>
  <circle id="rim" cx="0" cy="0" r="7"/>
  <circle id="rim2" cx="0" cy="0" r="3.5"/>
  <g id="zoomPlus">
    <use xlink:href="#rim" fill="#404040"><set attributeName="fill" to="#808080" begin="zoomplus.mouseover" end="zoomplus.mouseout"/></use>
    <path d="M-4,0h8M0,-4v8" fill="none" stroke="white" stroke-width="1.5" pointer-events="none"/>
  </g>
  <g id="zoomMin">
    <use xlink:href="#rim" fill="#404040"><set attributeName="fill" to="#808080" begin="zoomminus.mouseover" end="zoomminus.mouseout"/></use>
    <path d="M-4,0h8" fill="none" stroke="white" stroke-width="1.5" pointer-events="none"/>
  </g>
  <g id="arrowUp" transform="translate(30 24)">
    <use xlink:href="#rim"/>
    <path pointer-events="none" fill="none" stroke="white" stroke-width="1.5" d="M0,-3.0v7 M-2.5,-0.5L0,-3.0L2.5,-0.5"/>
  </g>
  <g id="arrowRight" transform="rotate(90) translate(36 -43)">
    <use xlink:href="#rim"/>
    <path pointer-events="none" fill="none" stroke="white" stroke-width="1.5" d="M0,-3.0v7 M-2.5,-0.5L0,-3.0L2.5,-0.5"/>
  </g>
  <g id="arrowDown" transform="rotate(180) translate(-30 -48)">
    <use xlink:href="#rim"/>
    <path pointer-events="none" fill="none" stroke="white" stroke-width="1.5" d="M0,-3.0v7 M-2.5,-0.5L0,-3.0L2.5,-0.5"/>
  </g>
  <g id="arrowLeft" transform="rotate(270) translate(-36 17)">
    <use xlink:href="#rim"/>
    <path pointer-events="none" fill="none" stroke="white" stroke-width="1.5" d="M0,-3.0v7 M-2.5,-0.5L0,-3.0L2.5,-0.5"/>
  </g>
  <g id="resetDef">
    <use xlink:href="#rim2" fill="#404040"><set attributeName="fill" to="#808080" begin="reset.mouseover" end="reset.mouseout"/></use>
  </g>
</defs>
<script type="application/ecmascript">
var viewWidth = 127;
var viewHeight = 653;
var sectionId = 'dynsection-0';
</script>
<script type="application/ecmascript" xlink:href="svg.min.js"/>
<svg id="graph" class="graph">
<g id="viewport">
<title>anch::json::WriterContext</title>
<!-- Node1 -->
<g id="Node000001" class="node">
<title>Node1</title>
<g id="a_Node000001"><a xlink:title="JSON writer context.">
<polygon fill="#999999" stroke="none" points="119,-260 0,-260 0,0 119,0 119,-260"/>
<text xml:space="preserve" text-anchor="start" x="4" y="-246.5" font-family="Helvetica,sans-Serif" font-size="10.00">anch::json::WriterContext</text>
<text xml:space="preserve" text-anchor="start" x="58" y="-230.5" font-family="Helvetica,sans-Serif" font-size="10.00"> </text>
<text xml:space="preserve" text-anchor="start" x="8.25" y="-214.5" font-family="Helvetica,sans-Serif" font-size="10.00">+</text>
<text xml:space="preserve" text-anchor="start" x="22.5" y="-214.5" font-family="Helvetica,sans-Serif" font-size="10.00">WriterContext()</text>
<text xml:space="preserve" text-anchor="start" x="8.25" y="-198.5" font-family="Helvetica,sans-Serif" font-size="10.00">+</text>
<text xml:space="preserve" text-anchor="start" x="22.5" y="-198.5" font-family="Helvetica,sans-Serif" font-size="10.00">WriterContext()</text>
<text xml:space="preserve" text-anchor="start" x="8.25" y="-182.5" font-family="Helvetica,sans-Serif" font-size="10.00">+</text>
<text xml:space="preserve" text-anchor="start" x="22.5" y="-182.5" font-family="Helvetica,sans-Serif" font-size="10.00">WriterContext()</text>
<text xml:space="preserve" text-anchor="start" x="8.25" y="-166.5" font-family="Helvetica,sans-Serif" font-size="10.00">+</text>
<text xml:space="preserve" text-anchor="start" x="22.5" y="-166.5" font-family="Helvetica,sans-Serif" font-size="10.00">WriterContext()</text>
<text xml:space="preserve" text-anchor="start" x="8.25" y="-150.5" font-family="Helvetica,sans-Serif" font-size="10.00">+</text>
<text xml:space="preserve" text-anchor="start" x="22.5" y="-150.5" font-family="Helvetica,sans-Serif" font-size="10.00">~WriterContext()</text>
<text xml:space="preserve" text-anchor="start" x="8.25" y="-134.5" font-family="Helvetica,sans-Serif" font-size="10.00">+</text>
<text xml:space="preserve" text-anchor="start" x="22.5" y="-134.5" font-family="Helvetica,sans-Serif" font-size="10.00">writeNull()</text>
<text xml:space="preserve" text-anchor="start" x="8.25" y="-118.5" font-family="Helvetica,sans-Serif" font-size="10.00">+</text>
<text xml:space="preserve" text-anchor="start" x="22.5" y="-118.5" font-family="Helvetica,sans-Serif" font-size="10.00">writeEmptyArray()</text>
<text xml:space="preserve" text-anchor="start" x="8.25" y="-102.5" font-family="Helvetica,sans-Serif" font-size="10.00">+</text>
<text xml:space="preserve" text-anchor="start" x="22.5" y="-102.5" font-family="Helvetica,sans-Serif" font-size="10.00">writeEmptyObject()</text>
<text xml:space="preserve" text-anchor="start" x="8.25" y="-86.5" font-family="Helvetica,sans-Serif" font-size="10.00">+</text>
<text xml:space="preserve" text-anchor="start" x="22.5" y="-86.5" font-family="Helvetica,sans-Serif" font-size="10.00">writeField()</text>
<text xml:space="preserve" text-anchor="start" x="8.25" y="-70.5" font-family="Helvetica,sans-Serif" font-size="10.00">+</text>
<text xml:space="preserve" text-anchor="start" x="22.5" y="-70.5" font-family="Helvetica,sans-Serif" font-size="10.00">beginArray()</text>
<text xml:space="preserve" text-anchor="start" x="8.25" y="-54.5" font-family="Helvetica,sans-Serif" font-size="10.00">+</text>
<text xml:space="preserve" text-anchor="start" x="22.5" y="-54.5" font-family="Helvetica,sans-Serif" font-size="10.00">endArray()</text>
<text xml:space="preserve" text-anchor="start" x="8.25" y="-38.5" font-family="Helvetica,sans-Serif" font-size="10.00">+</text>
<text xml:space="preserve" text-anchor="start" x="22.5" y="-38.5" font-family="Helvetica,sans-Serif" font-size="10.00">beginObject()</text>
<text xml:space="preserve" text-anchor="start" x="8.25" y="-22.5" font-family="Helvetica,sans-Serif" font-size="10.00">+</text>
<text xml:space="preserve" text-anchor="start" x="22.5" y="-22.5" font-family="Helvetica,sans-Serif" font-size="10.00">endObject()</text>
<text xml:space="preserve" text-anchor="start" x="8.25" y="-6.5" font-family="Helvetica,sans-Serif" font-size="10.00">+</text>
<text xml:space="preserve" text-anchor="start" x="22.5" y="-6.5" font-family="Helvetica,sans-Serif" font-size="10.00">next()</text>
<polygon fill="#666666" stroke="#666666" points="0,-242 0,-242 119,-242 119,-242 0,-242"/>
<polygon fill="#666666" stroke="#666666" points="0,-226 0,-226 119,-226 119,-226 0,-226"/>
<polygon fill="none" stroke="#666666" points="0,0 0,-260 119,-260 119,0 0,0"/>
</a>
</g>
</g>
<!-- Node2 -->
<g id="Node000002" class="node">
<title>Node2</title>
<g id="a_Node000002"><a xlink:title=" ">
<polygon fill="white" stroke="none" points="90.88,-366 28.12,-366 28.12,-314 90.88,-314 90.88,-366"/>
<text xml:space="preserve" text-anchor="start" x="32.12" y="-352.5" font-family="Helvetica,sans-Serif" font-size="10.00">std::ostream</text>
<text xml:space="preserve" text-anchor="start" x="58" y="-336.5" font-family="Helvetica,sans-Serif" font-size="10.00"> </text>
<text xml:space="preserve" text-anchor="start" x="58" y="-320.5" font-family="Helvetica,sans-Serif" font-size="10.00"> </text>
<polygon fill="#666666" stroke="#666666" points="28.12,-348 28.12,-348 90.88,-348 90.88,-348 28.12,-348"/>
<polygon fill="#666666" stroke="#666666" points="28.12,-332 28.12,-332 90.88,-332 90.88,-332 28.12,-332"/>
<polygon fill="none" stroke="#666666" points="28.12,-314 28.12,-366 90.88,-366 90.88,-314 28.12,-314"/>
</a>
</g>
</g>
<!-- Node2&#45;&gt;Node1 -->
<g id="edge1_Node000001_Node000002" class="edge">
<title>Node2&#45;&gt;Node1</title>
<g id="a_edge1_Node000001_Node000002"><a xlink:title=" ">
<path fill="none" stroke="#63b8ff" d="M59.5,-314.32C59.5,-302.94 59.5,-288.45 59.5,-272.61"/>
<polygon fill="none" stroke="#63b8ff" points="59.5,-272.55 55.5,-266.55 59.5,-260.55 63.5,-266.55 59.5,-272.55"/>
</a>
</g>
<text xml:space="preserve" text-anchor="start" x="62.5" y="-283.5" font-family="Helvetica,sans-Serif" font-size="10.00" fill="grey">+output</text>
</g>
<!-- Node3 -->
<g id="Node000003" class="node">
<title>Node3</title>
<g id="a_Node000003"><a xlink:title=" ">
<polygon fill="white" stroke="none" points="105.12,-467 13.88,-467 13.88,-403 105.12,-403 105.12,-467"/>
<text xml:space="preserve" text-anchor="start" x="17.88" y="-453.5" font-family="Helvetica,sans-Serif" font-size="10.00">std::basic_ostream</text>
<text xml:space="preserve" text-anchor="start" x="40" y="-441.5" font-family="Helvetica,sans-Serif" font-size="10.00">&lt; Char &gt;</text>
<text xml:space="preserve" text-anchor="start" x="58" y="-425.5" font-family="Helvetica,sans-Serif" font-size="10.00"> </text>
<text xml:space="preserve" text-anchor="start" x="58" y="-409.5" font-family="Helvetica,sans-Serif" font-size="10.00"> </text>
<polygon fill="#666666" stroke="#666666" points="13.88,-437 13.88,-437 105.12,-437 105.12,-437 13.88,-437"/>
<polygon fill="#666666" stroke="#666666" points="13.88,-421 13.88,-421 105.12,-421 105.12,-421 13.88,-421"/>
<polygon fill="none" stroke="#666666" points="13.88,-403 13.88,-467 105.12,-467 105.12,-403 13.88,-403"/>
</a>
</g>
</g>
<!-- Node3&#45;&gt;Node2 -->
<g id="edge2_Node000002_Node000003" class="edge">
<title>Node3&#45;&gt;Node2</title>
<g id="a_edge2_Node000002_Node000003"><a xlink:title=" ">
<path fill="none" stroke="#63b8ff" d="M59.5,-391.69C59.5,-382.89 59.5,-373.89 59.5,-365.96"/>
<polygon fill="none" stroke="#63b8ff" points="56,-391.52 59.5,-401.52 63,-391.52 56,-391.52"/>
</a>
</g>
</g>
<!-- Node4 -->
<g id="Node000004" class="node">
<title>Node4</title>
<g id="a_Node000004"><a xlink:title=" ">
<polygon fill="white" stroke="none" points="113.38,-556 5.62,-556 5.62,-504 113.38,-504 113.38,-556"/>
<text xml:space="preserve" text-anchor="start" x="9.62" y="-542.5" font-family="Helvetica,sans-Serif" font-size="10.00">std::basic_ios&lt; Char &gt;</text>
<text xml:space="preserve" text-anchor="start" x="58" y="-526.5" font-family="Helvetica,sans-Serif" font-size="10.00"> </text>
<text xml:space="preserve" text-anchor="start" x="58" y="-510.5" font-family="Helvetica,sans-Serif" font-size="10.00"> </text>
<polygon fill="#666666" stroke="#666666" points="5.62,-538 5.62,-538 113.38,-538 113.38,-538 5.62,-538"/>
<polygon fill="#666666" stroke="#666666" points="5.62,-522 5.62,-522 113.38,-522 113.38,-522 5.62,-522"/>
<polygon fill="none" stroke="#666666" points="5.62,-504 5.62,-556 113.38,-556 113.38,-504 5.62,-504"/>
</a>
</g>
</g>
<!-- Node4&#45;&gt;Node3 -->
<g id="edge3_Node000003_Node000004" class="edge">
<title>Node4&#45;&gt;Node3</title>
<g id="a_edge3_Node000003_Node000004"><a xlink:title=" ">
<path fill="none" stroke="#63b8ff" d="M59.5,-492.85C59.5,-484.3 59.5,-475.27 59.5,-466.98"/>
<polygon fill="none" stroke="#63b8ff" points="56,-492.56 59.5,-502.56 63,-492.56 56,-492.56"/>
</a>
</g>
</g>
<!-- Node5 -->
<g id="Node000005" class="node">
<title>Node5</title>
<g id="a_Node000005"><a xlink:title=" ">
<polygon fill="white" stroke="none" points="92.75,-645 26.25,-645 26.25,-593 92.75,-593 92.75,-645"/>
<text xml:space="preserve" text-anchor="start" x="30.25" y="-631.5" font-family="Helvetica,sans-Serif" font-size="10.00">std::ios_base</text>
<text xml:space="preserve" text-anchor="start" x="58" y="-615.5" font-family="Helvetica,sans-Serif" font-size="10.00"> </text>
<text xml:space="preserve" text-anchor="start" x="58" y="-599.5" font-family="Helvetica,sans-Serif" font-size="10.00"> </text>
<polygon fill="#666666" stroke="#666666" points="26.25,-627 26.25,-627 92.75,-627 92.75,-627 26.25,-627"/>
<polygon fill="#666666" stroke="#666666" points="26.25,-611 26.25,-611 92.75,-611 92.75,-611 26.25,-611"/>
<polygon fill="none" stroke="#666666" points="26.25,-593 26.25,-645 92.75,-645 92.75,-593 26.25,-593"/>
</a>
</g>
</g>
<!-- Node5&#45;&gt;Node4 -->
<g id="edge4_Node000004_Node000005" class="edge">
<title>Node5&#45;&gt;Node4</title>
<g id="a_edge4_Node000004_Node000005"><a xlink:title=" ">
<path fill="none" stroke="#63b8ff" d="M59.5,-582.05C59.5,-573.21 59.5,-563.94 59.5,-555.76"/>
<polygon fill="none" stroke="#63b8ff" points="56,-581.79 59.5,-591.79 63,-581.79 56,-581.79"/>
</a>
</g>
</g>
</g>
</svg>

<g id="navigator" transform="translate(0 0)" fill="#404254">
  <rect fill="#f2f5e9" fill-opacity="0.5" stroke="#606060" stroke-width=".5" x="0" y="0" width="60" height="60"/>
  <use id="zoomplus" xlink:href="#zoomPlus" x="17" y="9" onmousedown="handleZoom(evt,'in')"/>
  <use id="zoomminus" xlink:href="#zoomMin" x="42" y="9" onmousedown="handleZoom(evt,'out')"/>
  <use id="reset" xlink:href="#resetDef" x="30" y="36" onmousedown="handleReset()"/>
   <use id="arrowup" xlink:href="#arrowUp" x="0" y="0" onmousedown="handlePan(0,-1)"/>
  <use id="arrowright" xlink:href="#arrowRight" x="0" y="0" onmousedown="handlePan(1,0)"/>
  <use id="arrowdown" xlink:href="#arrowDown" x="0" y="0" onmousedown="handlePan(0,1)"/>
  <use id="arrowleft" xlink:href="#arrowLeft" x="0" y="0" onmousedown="handlePan(-1,0)"/>
</g>
<svg viewBox="0 0 15 15" width="100%" height="30px" preserveAspectRatio="xMaxYMin meet">
 <g id="arrow_out" transform="scale(0.3 0.3)">
  <a xlink:href="classanch_1_1json_1_1_writer_context__coll__graph_org.svg" target="_base">
   <rect id="button" ry="5" rx="5" y="6" x="6" height="38" width="38"
        fill="#f2f5e9" fill-opacity="0.5" stroke="#606060" stroke-width="1.0"/>
   <path id="arrow"
     d="M 11.500037,31.436501 C 11.940474,20.09759 22.043105,11.32322 32.158766,21.979434 L 37.068811,17.246167 C 37.068811,17.246167 37.088388,32 37.088388,32 L 22.160133,31.978069 C 22.160133,31.978069 26.997745,27.140456 26.997745,27.140456 C 18.528582,18.264221 13.291696,25.230495 11.500037,31.436501 z"
     style="fill:#404040;"/>
  </a>
 </g>
</svg>

<style type='text/css'>
<![CDATA[
[data-mouse-over-selected='false'] { opacity: 0.7; }
[data-mouse-over-selected='true']  { opacity: 1.0; }
]]>
</style>
<script type="application/ecmascript"><![CDATA[
document.addEventListener('DOMContentLoaded', (event) => {
  highlightEdges();
  highlightAdjacentNodes();
});
]]></script>
</svg>
