<?xml version="1.0" encoding="UTF-8" standalone="no"?>
<!DOCTYPE svg PUBLIC "-//W3C//DTD SVG 1.1//EN"
 "http://www.w3.org/Graphics/SVG/1.1/DTD/svg11.dtd">
<!-- Generated by graphviz version 14.0.5 (0)
 -->
<!-- Title: anch::json::ReaderContext Pages: 1 -->
<svg width="346pt" height="761pt"
 viewBox="0.00 0.00 346.00 761.00" xmlns="http://www.w3.org/2000/svg" xmlns:xlink="http://www.w3.org/1999/xlink">
<g id="graph0" class="graph" transform="scale(1 1) rotate(0) translate(4 757)">
<title>anch::json::ReaderContext</title>
<!-- Node1 -->
<g id="Node000001" class="node">
<title>Node1</title>
<g id="a_Node000001"><a xlink:title="JSON reader context.">
<polygon fill="#999999" stroke="none" points="239.38,-244 114.38,-244 114.38,0 239.38,0 239.38,-244"/>
<text xml:space="preserve" text-anchor="start" x="118.38" y="-230.5" font-family="Helvetica,sans-Serif" font-size="10.00">anch::json::ReaderContext</text>
<text xml:space="preserve" text-anchor="start" x="125.62" y="-214.5" font-family="Helvetica,sans-Serif" font-size="10.00">+</text>
<text xml:space="preserve" text-anchor="start" x="142.88" y="-214.5" font-family="Helvetica,sans-Serif" font-size="10.00">offset</text>
<text xml:space="preserve" text-anchor="start" x="125.62" y="-198.5" font-family="Helvetica,sans-Serif" font-size="10.00">+</text>
<text xml:space="preserve" text-anchor="start" x="142.88" y="-198.5" font-family="Helvetica,sans-Serif" font-size="10.00">bufferSize</text>
<text xml:space="preserve" text-anchor="start" x="125.62" y="-182.5" font-family="Helvetica,sans-Serif" font-size="10.00">+</text>
<text xml:space="preserve" text-anchor="start" x="142.88" y="-182.5" font-family="Helvetica,sans-Serif" font-size="10.00">buffer</text>
<text xml:space="preserve" text-anchor="start" x="125.62" y="-166.5" font-family="Helvetica,sans-Serif" font-size="10.00">+</text>
<text xml:space="preserve" text-anchor="start" x="142.88" y="-166.5" font-family="Helvetica,sans-Serif" font-size="10.00">read</text>
<text xml:space="preserve" text-anchor="start" x="125.62" y="-150.5" font-family="Helvetica,sans-Serif" font-size="10.00">+</text>
<text xml:space="preserve" text-anchor="start" x="142.88" y="-150.5" font-family="Helvetica,sans-Serif" font-size="10.00">ReaderContext()</text>
<text xml:space="preserve" text-anchor="start" x="125.62" y="-134.5" font-family="Helvetica,sans-Serif" font-size="10.00">+</text>
<text xml:space="preserve" text-anchor="start" x="142.88" y="-134.5" font-family="Helvetica,sans-Serif" font-size="10.00">ReaderContext()</text>
<text xml:space="preserve" text-anchor="start" x="125.62" y="-118.5" font-family="Helvetica,sans-Serif" font-size="10.00">+</text>
<text xml:space="preserve" text-anchor="start" x="142.88" y="-118.5" font-family="Helvetica,sans-Serif" font-size="10.00">ReaderContext()</text>
<text xml:space="preserve" text-anchor="start" x="125.62" y="-102.5" font-family="Helvetica,sans-Serif" font-size="10.00">+</text>
<text xml:space="preserve" text-anchor="start" x="142.88" y="-102.5" font-family="Helvetica,sans-Serif" font-size="10.00">ReaderContext()</text>
<text xml:space="preserve" text-anchor="start" x="125.62" y="-86.5" font-family="Helvetica,sans-Serif" font-size="10.00">+</text>
<text xml:space="preserve" text-anchor="start" x="142.88" y="-86.5" font-family="Helvetica,sans-Serif" font-size="10.00">~ReaderContext()</text>
<text xml:space="preserve" text-anchor="start" x="125.62" y="-70.5" font-family="Helvetica,sans-Serif" font-size="10.00">+</text>
<text xml:space="preserve" text-anchor="start" x="142.88" y="-70.5" font-family="Helvetica,sans-Serif" font-size="10.00">discard()</text>
<text xml:space="preserve" text-anchor="start" x="125.62" y="-54.5" font-family="Helvetica,sans-Serif" font-size="10.00">+</text>
<text xml:space="preserve" text-anchor="start" x="142.88" y="-54.5" font-family="Helvetica,sans-Serif" font-size="10.00">parseUnknown()</text>
<text xml:space="preserve" text-anchor="start" x="125.62" y="-38.5" font-family="Helvetica,sans-Serif" font-size="10.00">+</text>
<text xml:space="preserve" text-anchor="start" x="142.88" y="-38.5" font-family="Helvetica,sans-Serif" font-size="10.00">next()</text>
<text xml:space="preserve" text-anchor="start" x="125.62" y="-22.5" font-family="Helvetica,sans-Serif" font-size="10.00">+</text>
<text xml:space="preserve" text-anchor="start" x="142.88" y="-22.5" font-family="Helvetica,sans-Serif" font-size="10.00">back()</text>
<text xml:space="preserve" text-anchor="start" x="126" y="-6.5" font-family="Helvetica,sans-Serif" font-size="10.00">#</text>
<text xml:space="preserve" text-anchor="start" x="142.88" y="-6.5" font-family="Helvetica,sans-Serif" font-size="10.00">refillBuffer()</text>
<polygon fill="#666666" stroke="#666666" points="114.38,-226 114.38,-226 239.38,-226 239.38,-226 114.38,-226"/>
<polygon fill="#666666" stroke="#666666" points="114.38,-162 114.38,-162 140.88,-162 140.88,-162 114.38,-162"/>
<polygon fill="#666666" stroke="#666666" points="140.88,-162 140.88,-162 239.38,-162 239.38,-162 140.88,-162"/>
<polygon fill="none" stroke="#666666" points="114.38,0 114.38,-244 239.38,-244 239.38,0 114.38,0"/>
</a>
</g>
</g>
<!-- Node2 -->
<g id="Node000002" class="node">
<title>Node2</title>
<g id="a_Node000002"><a xlink:title=" ">
<polygon fill="white" stroke="none" points="83.75,-412 24,-412 24,-360 83.75,-360 83.75,-412"/>
<text xml:space="preserve" text-anchor="start" x="28" y="-398.5" font-family="Helvetica,sans-Serif" font-size="10.00">std::istream</text>
<text xml:space="preserve" text-anchor="start" x="52.38" y="-382.5" font-family="Helvetica,sans-Serif" font-size="10.00"> </text>
<text xml:space="preserve" text-anchor="start" x="52.38" y="-366.5" font-family="Helvetica,sans-Serif" font-size="10.00"> </text>
<polygon fill="#666666" stroke="#666666" points="24,-394 24,-394 83.75,-394 83.75,-394 24,-394"/>
<polygon fill="#666666" stroke="#666666" points="24,-378 24,-378 83.75,-378 83.75,-378 24,-378"/>
<polygon fill="none" stroke="#666666" points="24,-360 24,-412 83.75,-412 83.75,-360 24,-360"/>
</a>
</g>
</g>
<!-- Node2&#45;&gt;Node1 -->
<g id="edge1_Node000001_Node000002" class="edge">
<title>Node2&#45;&gt;Node1</title>
<g id="a_edge1_Node000001_Node000002"><a xlink:title=" ">
<path fill="none" stroke="#63b8ff" d="M64.8,-360.17C72.52,-342.73 83.19,-318.87 92.88,-298 99.31,-284.13 106.1,-269.68 112.93,-255.29"/>
<polygon fill="none" stroke="#63b8ff" points="112.86,-255.43 111.82,-248.29 118.01,-244.59 119.05,-251.73 112.86,-255.43"/>
</a>
</g>
<text xml:space="preserve" text-anchor="start" x="111.63" y="-267.5" font-family="Helvetica,sans-Serif" font-size="10.00" fill="grey">+input</text>
</g>
<!-- Node3 -->
<g id="Node000003" class="node">
<title>Node3</title>
<g id="a_Node000003"><a xlink:title=" ">
<polygon fill="white" stroke="none" points="98,-575 9.75,-575 9.75,-511 98,-511 98,-575"/>
<text xml:space="preserve" text-anchor="start" x="13.75" y="-561.5" font-family="Helvetica,sans-Serif" font-size="10.00">std::basic_istream</text>
<text xml:space="preserve" text-anchor="start" x="34.38" y="-549.5" font-family="Helvetica,sans-Serif" font-size="10.00">&lt; Char &gt;</text>
<text xml:space="preserve" text-anchor="start" x="52.38" y="-533.5" font-family="Helvetica,sans-Serif" font-size="10.00"> </text>
<text xml:space="preserve" text-anchor="start" x="52.38" y="-517.5" font-family="Helvetica,sans-Serif" font-size="10.00"> </text>
<polygon fill="#666666" stroke="#666666" points="9.75,-545 9.75,-545 98,-545 98,-545 9.75,-545"/>
<polygon fill="#666666" stroke="#666666" points="9.75,-529 9.75,-529 98,-529 98,-529 9.75,-529"/>
<polygon fill="none" stroke="#666666" points="9.75,-511 9.75,-575 98,-575 98,-511 9.75,-511"/>
</a>
</g>
</g>
<!-- Node3&#45;&gt;Node2 -->
<g id="edge2_Node000002_Node000003" class="edge">
<title>Node3&#45;&gt;Node2</title>
<g id="a_edge2_Node000002_Node000003"><a xlink:title=" ">
<path fill="none" stroke="#63b8ff" d="M53.88,-499.86C53.88,-471.65 53.88,-435.5 53.88,-411.82"/>
<polygon fill="none" stroke="#63b8ff" points="50.38,-499.49 53.88,-509.49 57.38,-499.49 50.38,-499.49"/>
</a>
</g>
</g>
<!-- Node4 -->
<g id="Node000004" class="node">
<title>Node4</title>
<g id="a_Node000004"><a xlink:title=" ">
<polygon fill="white" stroke="none" points="107.75,-664 0,-664 0,-612 107.75,-612 107.75,-664"/>
<text xml:space="preserve" text-anchor="start" x="4" y="-650.5" font-family="Helvetica,sans-Serif" font-size="10.00">std::basic_ios&lt; Char &gt;</text>
<text xml:space="preserve" text-anchor="start" x="52.38" y="-634.5" font-family="Helvetica,sans-Serif" font-size="10.00"> </text>
<text xml:space="preserve" text-anchor="start" x="52.38" y="-618.5" font-family="Helvetica,sans-Serif" font-size="10.00"> </text>
<polygon fill="#666666" stroke="#666666" points="0,-646 0,-646 107.75,-646 107.75,-646 0,-646"/>
<polygon fill="#666666" stroke="#666666" points="0,-630 0,-630 107.75,-630 107.75,-630 0,-630"/>
<polygon fill="none" stroke="#666666" points="0,-612 0,-664 107.75,-664 107.75,-612 0,-612"/>
</a>
</g>
</g>
<!-- Node4&#45;&gt;Node3 -->
<g id="edge3_Node000003_Node000004" class="edge">
<title>Node4&#45;&gt;Node3</title>
<g id="a_edge3_Node000003_Node000004"><a xlink:title=" ">
<path fill="none" stroke="#63b8ff" d="M53.88,-600.85C53.88,-592.3 53.88,-583.27 53.88,-574.98"/>
<polygon fill="none" stroke="#63b8ff" points="50.38,-600.56 53.88,-610.56 57.38,-600.56 50.38,-600.56"/>
</a>
</g>
</g>
<!-- Node5 -->
<g id="Node000005" class="node">
<title>Node5</title>
<g id="a_Node000005"><a xlink:title=" ">
<polygon fill="white" stroke="none" points="87.12,-753 20.62,-753 20.62,-701 87.12,-701 87.12,-753"/>
<text xml:space="preserve" text-anchor="start" x="24.62" y="-739.5" font-family="Helvetica,sans-Serif" font-size="10.00">std::ios_base</text>
<text xml:space="preserve" text-anchor="start" x="52.38" y="-723.5" font-family="Helvetica,sans-Serif" font-size="10.00"> </text>
<text xml:space="preserve" text-anchor="start" x="52.38" y="-707.5" font-family="Helvetica,sans-Serif" font-size="10.00"> </text>
<polygon fill="#666666" stroke="#666666" points="20.62,-735 20.62,-735 87.12,-735 87.12,-735 20.62,-735"/>
<polygon fill="#666666" stroke="#666666" points="20.62,-719 20.62,-719 87.12,-719 87.12,-719 20.62,-719"/>
<polygon fill="none" stroke="#666666" points="20.62,-701 20.62,-753 87.12,-753 87.12,-701 20.62,-701"/>
</a>
</g>
</g>
<!-- Node5&#45;&gt;Node4 -->
<g id="edge4_Node000004_Node000005" class="edge">
<title>Node5&#45;&gt;Node4</title>
<g id="a_edge4_Node000004_Node000005"><a xlink:title=" ">
<path fill="none" stroke="#63b8ff" d="M53.88,-690.05C53.88,-681.21 53.88,-671.94 53.88,-663.76"/>
<polygon fill="none" stroke="#63b8ff" points="50.38,-689.79 53.88,-699.79 57.38,-689.79 50.38,-689.79"/>
</a>
</g>
</g>
<!-- Node6 -->
<g id="Node000006" class="node">
<title>Node6</title>
<g id="a_Node000006"><a xlink:href="structanch_1_1json_1_1_mapping_options.html" target="_top" xlink:title="JSON mapping options.">
<polygon fill="white" stroke="none" points="251.5,-474 102.25,-474 102.25,-298 251.5,-298 251.5,-474"/>
<text xml:space="preserve" text-anchor="start" x="116.12" y="-460.5" font-family="Helvetica,sans-Serif" font-size="10.00">anch::json::MappingOptions</text>
<text xml:space="preserve" text-anchor="start" x="106.25" y="-444.5" font-family="Helvetica,sans-Serif" font-size="10.00">+</text>
<text xml:space="preserve" text-anchor="start" x="116.25" y="-444.5" font-family="Helvetica,sans-Serif" font-size="10.00">serialize_empty_col</text>
<text xml:space="preserve" text-anchor="start" x="106.25" y="-428.5" font-family="Helvetica,sans-Serif" font-size="10.00">+</text>
<text xml:space="preserve" text-anchor="start" x="116.25" y="-428.5" font-family="Helvetica,sans-Serif" font-size="10.00">serialize_null</text>
<text xml:space="preserve" text-anchor="start" x="106.25" y="-412.5" font-family="Helvetica,sans-Serif" font-size="10.00">+</text>
<text xml:space="preserve" text-anchor="start" x="116.25" y="-412.5" font-family="Helvetica,sans-Serif" font-size="10.00">prettify_nbs</text>
<text xml:space="preserve" text-anchor="start" x="106.25" y="-396.5" font-family="Helvetica,sans-Serif" font-size="10.00">+</text>
<text xml:space="preserve" text-anchor="start" x="116.25" y="-396.5" font-family="Helvetica,sans-Serif" font-size="10.00">deserialize_ignore</text>
<text xml:space="preserve" text-anchor="start" x="116.25" y="-384.5" font-family="Helvetica,sans-Serif" font-size="10.00">_unknown_field</text>
<text xml:space="preserve" text-anchor="start" x="106.25" y="-368.5" font-family="Helvetica,sans-Serif" font-size="10.00">+</text>
<text xml:space="preserve" text-anchor="start" x="116.25" y="-368.5" font-family="Helvetica,sans-Serif" font-size="10.00">deserialize_max_discard_char</text>
<text xml:space="preserve" text-anchor="start" x="106.25" y="-352.5" font-family="Helvetica,sans-Serif" font-size="10.00">+</text>
<text xml:space="preserve" text-anchor="start" x="116.25" y="-352.5" font-family="Helvetica,sans-Serif" font-size="10.00">deserialize_max_field_char</text>
<text xml:space="preserve" text-anchor="start" x="106.25" y="-336.5" font-family="Helvetica,sans-Serif" font-size="10.00">+</text>
<text xml:space="preserve" text-anchor="start" x="116.25" y="-336.5" font-family="Helvetica,sans-Serif" font-size="10.00">max_payload</text>
<text xml:space="preserve" text-anchor="start" x="106.25" y="-320.5" font-family="Helvetica,sans-Serif" font-size="10.00">+</text>
<text xml:space="preserve" text-anchor="start" x="116.25" y="-320.5" font-family="Helvetica,sans-Serif" font-size="10.00">buffer_size</text>
<text xml:space="preserve" text-anchor="start" x="175.38" y="-304.5" font-family="Helvetica,sans-Serif" font-size="10.00"> </text>
<polygon fill="#666666" stroke="#666666" points="102.25,-456 102.25,-456 251.5,-456 251.5,-456 102.25,-456"/>
<polygon fill="#666666" stroke="#666666" points="102.25,-316 102.25,-316 114.25,-316 114.25,-316 102.25,-316"/>
<polygon fill="#666666" stroke="#666666" points="114.25,-316 114.25,-316 251.5,-316 251.5,-316 114.25,-316"/>
<polygon fill="none" stroke="#666666" points="102.25,-298 102.25,-474 251.5,-474 251.5,-298 102.25,-298"/>
</a>
</g>
</g>
<!-- Node6&#45;&gt;Node1 -->
<g id="edge5_Node000001_Node000006" class="edge">
<title>Node6&#45;&gt;Node1</title>
<g id="a_edge5_Node000001_Node000006"><a xlink:title=" ">
<path fill="none" stroke="#63b8ff" d="M176.88,-298.12C176.88,-284.78 176.88,-270.74 176.88,-256.67"/>
<polygon fill="none" stroke="#63b8ff" points="176.88,-256.65 172.88,-250.65 176.88,-244.65 180.88,-250.65 176.88,-256.65"/>
</a>
</g>
<text xml:space="preserve" text-anchor="start" x="179.88" y="-267.5" font-family="Helvetica,sans-Serif" font-size="10.00" fill="grey">+options</text>
</g>
<!-- Node7 -->
<g id="Node000007" class="node">
<title>Node7</title>
<g id="a_Node000007"><a xlink:title=" ">
<polygon fill="white" stroke="none" points="320.62,-412 269.12,-412 269.12,-360 320.62,-360 320.62,-412"/>
<text xml:space="preserve" text-anchor="start" x="273.12" y="-398.5" font-family="Helvetica,sans-Serif" font-size="10.00">std::string</text>
<text xml:space="preserve" text-anchor="start" x="293.38" y="-382.5" font-family="Helvetica,sans-Serif" font-size="10.00"> </text>
<text xml:space="preserve" text-anchor="start" x="293.38" y="-366.5" font-family="Helvetica,sans-Serif" font-size="10.00"> </text>
<polygon fill="#666666" stroke="#666666" points="269.12,-394 269.12,-394 320.62,-394 320.62,-394 269.12,-394"/>
<polygon fill="#666666" stroke="#666666" points="269.12,-378 269.12,-378 320.62,-378 320.62,-378 269.12,-378"/>
<polygon fill="none" stroke="#666666" points="269.12,-360 269.12,-412 320.62,-412 320.62,-360 269.12,-360"/>
</a>
</g>
</g>
<!-- Node7&#45;&gt;Node1 -->
<g id="edge6_Node000001_Node000007" class="edge">
<title>Node7&#45;&gt;Node1</title>
<g id="a_edge6_Node000001_Node000007"><a xlink:title=" ">
<path fill="none" stroke="#63b8ff" d="M285.69,-360.05C279.11,-342.54 269.86,-318.67 260.88,-298 254.83,-284.1 248.32,-269.68 241.69,-255.36"/>
<polygon fill="none" stroke="#63b8ff" points="241.8,-255.6 235.64,-251.85 236.74,-244.72 242.89,-248.47 241.8,-255.6"/>
</a>
</g>
<text xml:space="preserve" text-anchor="start" x="255.36" y="-267.5" font-family="Helvetica,sans-Serif" font-size="10.00" fill="grey">+pbuf</text>
</g>
<!-- Node8 -->
<g id="Node000008" class="node">
<title>Node8</title>
<g id="a_Node000008"><a xlink:title=" ">
<polygon fill="white" stroke="none" points="337.88,-575 251.88,-575 251.88,-511 337.88,-511 337.88,-575"/>
<text xml:space="preserve" text-anchor="start" x="255.88" y="-561.5" font-family="Helvetica,sans-Serif" font-size="10.00">std::basic_string&lt;</text>
<text xml:space="preserve" text-anchor="start" x="278.38" y="-549.5" font-family="Helvetica,sans-Serif" font-size="10.00"> Char &gt;</text>
<text xml:space="preserve" text-anchor="start" x="293.38" y="-533.5" font-family="Helvetica,sans-Serif" font-size="10.00"> </text>
<text xml:space="preserve" text-anchor="start" x="293.38" y="-517.5" font-family="Helvetica,sans-Serif" font-size="10.00"> </text>
<polygon fill="#666666" stroke="#666666" points="251.88,-545 251.88,-545 337.88,-545 337.88,-545 251.88,-545"/>
<polygon fill="#666666" stroke="#666666" points="251.88,-529 251.88,-529 337.88,-529 337.88,-529 251.88,-529"/>
<polygon fill="none" stroke="#666666" points="251.88,-511 251.88,-575 337.88,-575 337.88,-511 251.88,-511"/>
</a>
</g>
</g>
<!-- Node8&#45;&gt;Node7 -->
<g id="edge7_Node000007_Node000008" class="edge">
<title>Node8&#45;&gt;Node7</title>
<g id="a_edge7_Node000007_Node000008"><a xlink:title=" ">
<path fill="none" stroke="#63b8ff" d="M294.88,-499.86C294.88,-471.65 294.88,-435.5 294.88,-411.82"/>
<polygon fill="none" stroke="#63b8ff" points="291.38,-499.49 294.88,-509.49 298.38,-499.49 291.38,-499.49"/>
</a>
</g>
</g>
</g>
</svg>
