<?xml version="1.0" encoding="UTF-8" standalone="no"?>
<!DOCTYPE svg PUBLIC "-//W3C//DTD SVG 1.1//EN"
 "http://www.w3.org/Graphics/SVG/1.1/DTD/svg11.dtd">
<!-- Generated by graphviz version 7.0.4 (0)
 -->
<!-- Title: anch::crypto::Hash&lt; O, B &gt; Pages: 1 -->
<!--zoomable 688 -->
<svg id="main" version="1.1" xmlns="http://www.w3.org/2000/svg" xmlns:xlink="http://www.w3.org/1999/xlink" xml:space="preserve" onload="init(evt)">
<style type="text/css"><![CDATA[
.edge:hover path { stroke: red; }
.edge:hover polygon { stroke: red; fill: red; }
]]></style>
<script type="text/javascript"><![CDATA[
var edges = document.getElementsByTagName('g');
if (edges && edges.length) {
  for (var i=0;i<edges.length;i++) {
    if (edges[i].id.substr(0,4)=='edge') {
      edges[i].setAttribute('class','edge');
    }
  }
}
]]></script>
        <defs>
                <circle id="rim" cx="0" cy="0" r="7"/>
                <circle id="rim2" cx="0" cy="0" r="3.5"/>
                <g id="zoomPlus">
                        <use xlink:href="#rim" fill="#404040">
                                <set attributeName="fill" to="#808080" begin="zoomplus.mouseover" end="zoomplus.mouseout"/>
                        </use>
                        <path d="M-4,0h8M0,-4v8" fill="none" stroke="white" stroke-width="1.5" pointer-events="none"/>
                </g>
                <g id="zoomMin">
                        <use xlink:href="#rim" fill="#404040">
                                <set attributeName="fill" to="#808080" begin="zoomminus.mouseover" end="zoomminus.mouseout"/>
                        </use>
                        <path d="M-4,0h8" fill="none" stroke="white" stroke-width="1.5" pointer-events="none"/>
                </g>
                <g id="dirArrow">
                        <path fill="none" stroke="white" stroke-width="1.5" d="M0,-3.0v7 M-2.5,-0.5L0,-3.0L2.5,-0.5"/>
                </g>
               <g id="resetDef">
                       <use xlink:href="#rim2" fill="#404040">
                               <set attributeName="fill" to="#808080" begin="reset.mouseover" end="reset.mouseout"/>
                       </use>
               </g>
        </defs>

<script type="text/javascript">
var viewWidth = 589;
var viewHeight = 688;
var sectionId = 'dynsection-0';
</script>
<script xlink:href="svgpan.js"/>
<svg id="graph" class="graph">
<g id="viewport">
<title>anch::crypto::Hash&lt; O, B &gt;</title>
<!-- Node1 -->
<g id="node1" class="node">
<title>Node1</title>
<g id="a_node1"><a xlink:title="Hash algorithm abstract class.">
<polygon fill="#999999" stroke="#666666" points="364,-680 251,-680 251,-518 364,-518 364,-680"/>
<text text-anchor="start" x="259" y="-668" font-family="Helvetica,sans-Serif" font-size="10.00">{anch::crypto::Hash</text>
<text text-anchor="middle" x="307.5" y="-657" font-family="Helvetica,sans-Serif" font-size="10.00">&lt; O, B &gt;</text>
<text text-anchor="start" x="259" y="-646" font-family="Helvetica,sans-Serif" font-size="10.00">|# _digest</text>
<text text-anchor="start" x="259" y="-635" font-family="Helvetica,sans-Serif" font-size="10.00">|+ digest()</text>
<text text-anchor="start" x="259" y="-624" font-family="Helvetica,sans-Serif" font-size="10.00">+ digest()</text>
<text text-anchor="start" x="259" y="-613" font-family="Helvetica,sans-Serif" font-size="10.00">+ digest()</text>
<text text-anchor="start" x="259" y="-602" font-family="Helvetica,sans-Serif" font-size="10.00">+ digest()</text>
<text text-anchor="start" x="259" y="-591" font-family="Helvetica,sans-Serif" font-size="10.00">+ digest()</text>
<text text-anchor="start" x="259" y="-580" font-family="Helvetica,sans-Serif" font-size="10.00">+ getOutputSize()</text>
<text text-anchor="start" x="259" y="-569" font-family="Helvetica,sans-Serif" font-size="10.00">+ getBlockSize()</text>
<text text-anchor="start" x="259" y="-558" font-family="Helvetica,sans-Serif" font-size="10.00"># reset()</text>
<text text-anchor="start" x="259" y="-547" font-family="Helvetica,sans-Serif" font-size="10.00"># addData()</text>
<text text-anchor="start" x="259" y="-536" font-family="Helvetica,sans-Serif" font-size="10.00"># finalize()</text>
<text text-anchor="middle" x="307.5" y="-525" font-family="Helvetica,sans-Serif" font-size="10.00">}</text>
</a>
</g>
</g>
<!-- Node2 -->
<g id="node2" class="node">
<title>Node2</title>
<g id="a_node2"><a xlink:href="classanch_1_1crypto_1_1_s_h_a2.html" target="_top" xlink:title=" ">
<polygon fill="white" stroke="#666666" points="137,-245.5 0,-245.5 0,-127.5 137,-127.5 137,-245.5"/>
<text text-anchor="start" x="8" y="-233.5" font-family="Helvetica,sans-Serif" font-size="10.00">{anch::crypto::SHA2</text>
<text text-anchor="middle" x="68.5" y="-222.5" font-family="Helvetica,sans-Serif" font-size="10.00">&lt; O, 64, uint32_t, 64, I &gt;</text>
<text text-anchor="start" x="8" y="-211.5" font-family="Helvetica,sans-Serif" font-size="10.00">|# _context</text>
<text text-anchor="start" x="8" y="-200.5" font-family="Helvetica,sans-Serif" font-size="10.00">|+ SHA2()</text>
<text text-anchor="start" x="8" y="-189.5" font-family="Helvetica,sans-Serif" font-size="10.00">+ ~SHA2()</text>
<text text-anchor="start" x="8" y="-178.5" font-family="Helvetica,sans-Serif" font-size="10.00">+ digest()</text>
<text text-anchor="start" x="8" y="-167.5" font-family="Helvetica,sans-Serif" font-size="10.00"># shiftRight()</text>
<text text-anchor="start" x="8" y="-156.5" font-family="Helvetica,sans-Serif" font-size="10.00"># rotateLeft()</text>
<text text-anchor="start" x="8" y="-145.5" font-family="Helvetica,sans-Serif" font-size="10.00"># rotateRight()</text>
<text text-anchor="middle" x="68.5" y="-134.5" font-family="Helvetica,sans-Serif" font-size="10.00">}</text>
</a>
</g>
</g>
<!-- Node1&#45;&gt;Node2 -->
<g id="edge1" class="edge">
<title>Node1&#45;&gt;Node2</title>
<path fill="none" stroke="#63b8ff" d="M240.83,-565.65C202.95,-543.95 157.78,-511.85 130.5,-471 84.96,-402.81 72.27,-306.74 69.06,-245.8"/>
<polygon fill="none" stroke="#63b8ff" points="239.03,-568.65 249.47,-570.48 242.44,-562.54 239.03,-568.65"/>
</g>
<!-- Node4 -->
<g id="node4" class="node">
<title>Node4</title>
<g id="a_node4"><a xlink:href="classanch_1_1crypto_1_1_s_h_a2.html" target="_top" xlink:title=" ">
<polygon fill="white" stroke="#666666" points="303,-251 188,-251 188,-122 303,-122 303,-251"/>
<text text-anchor="start" x="196" y="-239" font-family="Helvetica,sans-Serif" font-size="10.00">{anch::crypto::SHA2</text>
<text text-anchor="start" x="196" y="-228" font-family="Helvetica,sans-Serif" font-size="10.00">&lt; O, 128, uint64_t,</text>
<text text-anchor="middle" x="245.5" y="-217" font-family="Helvetica,sans-Serif" font-size="10.00"> 80, I &gt;</text>
<text text-anchor="start" x="196" y="-206" font-family="Helvetica,sans-Serif" font-size="10.00">|# _context</text>
<text text-anchor="start" x="196" y="-195" font-family="Helvetica,sans-Serif" font-size="10.00">|+ SHA2()</text>
<text text-anchor="start" x="196" y="-184" font-family="Helvetica,sans-Serif" font-size="10.00">+ ~SHA2()</text>
<text text-anchor="start" x="196" y="-173" font-family="Helvetica,sans-Serif" font-size="10.00">+ digest()</text>
<text text-anchor="start" x="196" y="-162" font-family="Helvetica,sans-Serif" font-size="10.00"># shiftRight()</text>
<text text-anchor="start" x="196" y="-151" font-family="Helvetica,sans-Serif" font-size="10.00"># rotateLeft()</text>
<text text-anchor="start" x="196" y="-140" font-family="Helvetica,sans-Serif" font-size="10.00"># rotateRight()</text>
<text text-anchor="middle" x="245.5" y="-129" font-family="Helvetica,sans-Serif" font-size="10.00">}</text>
</a>
</g>
</g>
<!-- Node1&#45;&gt;Node4 -->
<g id="edge3" class="edge">
<title>Node1&#45;&gt;Node4</title>
<path fill="none" stroke="#63b8ff" d="M315.35,-506.41C318.3,-439.3 316.48,-346.74 293.5,-269 291.73,-263.02 289.43,-257.01 286.79,-251.13"/>
<polygon fill="none" stroke="#63b8ff" points="311.86,-506.12 314.86,-516.28 318.85,-506.46 311.86,-506.12"/>
</g>
<!-- Node6 -->
<g id="node6" class="node">
<title>Node6</title>
<g id="a_node6"><a xlink:href="classanch_1_1crypto_1_1_s_h_a2.html" target="_top" xlink:title="SHA2 abstract class.">
<polygon fill="white" stroke="#666666" points="255,-449 140,-449 140,-331 255,-331 255,-449"/>
<text text-anchor="start" x="148" y="-437" font-family="Helvetica,sans-Serif" font-size="10.00">{anch::crypto::SHA2</text>
<text text-anchor="middle" x="197.5" y="-426" font-family="Helvetica,sans-Serif" font-size="10.00">&lt; O, B, W, R, I &gt;</text>
<text text-anchor="start" x="148" y="-415" font-family="Helvetica,sans-Serif" font-size="10.00">|# _context</text>
<text text-anchor="start" x="148" y="-404" font-family="Helvetica,sans-Serif" font-size="10.00">|+ SHA2()</text>
<text text-anchor="start" x="148" y="-393" font-family="Helvetica,sans-Serif" font-size="10.00">+ ~SHA2()</text>
<text text-anchor="start" x="148" y="-382" font-family="Helvetica,sans-Serif" font-size="10.00">+ digest()</text>
<text text-anchor="start" x="148" y="-371" font-family="Helvetica,sans-Serif" font-size="10.00"># shiftRight()</text>
<text text-anchor="start" x="148" y="-360" font-family="Helvetica,sans-Serif" font-size="10.00"># rotateLeft()</text>
<text text-anchor="start" x="148" y="-349" font-family="Helvetica,sans-Serif" font-size="10.00"># rotateRight()</text>
<text text-anchor="middle" x="197.5" y="-338" font-family="Helvetica,sans-Serif" font-size="10.00">}</text>
</a>
</g>
</g>
<!-- Node1&#45;&gt;Node6 -->
<g id="edge5" class="edge">
<title>Node1&#45;&gt;Node6</title>
<path fill="none" stroke="#63b8ff" d="M259.53,-507.73C249.04,-487.98 238.2,-467.58 228.57,-449.47"/>
<polygon fill="none" stroke="#63b8ff" points="256.32,-509.15 264.1,-516.34 262.5,-505.86 256.32,-509.15"/>
</g>
<!-- Node7 -->
<g id="node7" class="node">
<title>Node7</title>
<g id="a_node7"><a xlink:href="classanch_1_1crypto_1_1_hash.html" target="_top" xlink:title=" ">
<polygon fill="white" stroke="#666666" points="449,-471 336,-471 336,-309 449,-309 449,-471"/>
<text text-anchor="start" x="344" y="-459" font-family="Helvetica,sans-Serif" font-size="10.00">{anch::crypto::Hash</text>
<text text-anchor="middle" x="392.5" y="-448" font-family="Helvetica,sans-Serif" font-size="10.00">&lt; 16, 64 &gt;</text>
<text text-anchor="start" x="344" y="-437" font-family="Helvetica,sans-Serif" font-size="10.00">|# _digest</text>
<text text-anchor="start" x="344" y="-426" font-family="Helvetica,sans-Serif" font-size="10.00">|+ digest()</text>
<text text-anchor="start" x="344" y="-415" font-family="Helvetica,sans-Serif" font-size="10.00">+ digest()</text>
<text text-anchor="start" x="344" y="-404" font-family="Helvetica,sans-Serif" font-size="10.00">+ digest()</text>
<text text-anchor="start" x="344" y="-393" font-family="Helvetica,sans-Serif" font-size="10.00">+ digest()</text>
<text text-anchor="start" x="344" y="-382" font-family="Helvetica,sans-Serif" font-size="10.00">+ digest()</text>
<text text-anchor="start" x="344" y="-371" font-family="Helvetica,sans-Serif" font-size="10.00">+ getOutputSize()</text>
<text text-anchor="start" x="344" y="-360" font-family="Helvetica,sans-Serif" font-size="10.00">+ getBlockSize()</text>
<text text-anchor="start" x="344" y="-349" font-family="Helvetica,sans-Serif" font-size="10.00"># reset()</text>
<text text-anchor="start" x="344" y="-338" font-family="Helvetica,sans-Serif" font-size="10.00"># addData()</text>
<text text-anchor="start" x="344" y="-327" font-family="Helvetica,sans-Serif" font-size="10.00"># finalize()</text>
<text text-anchor="middle" x="392.5" y="-316" font-family="Helvetica,sans-Serif" font-size="10.00">}</text>
</a>
</g>
</g>
<!-- Node1&#45;&gt;Node7 -->
<g id="edge8" class="edge">
<title>Node1&#45;&gt;Node7</title>
<path fill="none" stroke="orange" d="M344.77,-507.23C349.69,-495.26 354.7,-483.06 359.53,-471.28"/>
<polygon fill="orange" stroke="orange" points="341.62,-505.69 341.06,-516.27 348.1,-508.35 341.62,-505.69"/>
<text text-anchor="middle" x="378.5" y="-492" font-family="Helvetica,sans-Serif" font-size="10.00"> &lt; 16, 64 &gt;</text>
</g>
<!-- Node9 -->
<g id="node9" class="node">
<title>Node9</title>
<g id="a_node9"><a xlink:href="classanch_1_1crypto_1_1_hash.html" target="_top" xlink:title=" ">
<polygon fill="white" stroke="#666666" points="580,-471 467,-471 467,-309 580,-309 580,-471"/>
<text text-anchor="start" x="475" y="-459" font-family="Helvetica,sans-Serif" font-size="10.00">{anch::crypto::Hash</text>
<text text-anchor="middle" x="523.5" y="-448" font-family="Helvetica,sans-Serif" font-size="10.00">&lt; 20, 64 &gt;</text>
<text text-anchor="start" x="475" y="-437" font-family="Helvetica,sans-Serif" font-size="10.00">|# _digest</text>
<text text-anchor="start" x="475" y="-426" font-family="Helvetica,sans-Serif" font-size="10.00">|+ digest()</text>
<text text-anchor="start" x="475" y="-415" font-family="Helvetica,sans-Serif" font-size="10.00">+ digest()</text>
<text text-anchor="start" x="475" y="-404" font-family="Helvetica,sans-Serif" font-size="10.00">+ digest()</text>
<text text-anchor="start" x="475" y="-393" font-family="Helvetica,sans-Serif" font-size="10.00">+ digest()</text>
<text text-anchor="start" x="475" y="-382" font-family="Helvetica,sans-Serif" font-size="10.00">+ digest()</text>
<text text-anchor="start" x="475" y="-371" font-family="Helvetica,sans-Serif" font-size="10.00">+ getOutputSize()</text>
<text text-anchor="start" x="475" y="-360" font-family="Helvetica,sans-Serif" font-size="10.00">+ getBlockSize()</text>
<text text-anchor="start" x="475" y="-349" font-family="Helvetica,sans-Serif" font-size="10.00"># reset()</text>
<text text-anchor="start" x="475" y="-338" font-family="Helvetica,sans-Serif" font-size="10.00"># addData()</text>
<text text-anchor="start" x="475" y="-327" font-family="Helvetica,sans-Serif" font-size="10.00"># finalize()</text>
<text text-anchor="middle" x="523.5" y="-316" font-family="Helvetica,sans-Serif" font-size="10.00">}</text>
</a>
</g>
</g>
<!-- Node1&#45;&gt;Node9 -->
<g id="edge10" class="edge">
<title>Node1&#45;&gt;Node9</title>
<path fill="none" stroke="orange" d="M373.09,-546.76C400.19,-524.51 431.32,-497.51 457.5,-471 460.54,-467.92 463.58,-464.72 466.61,-461.45"/>
<polygon fill="orange" stroke="orange" points="371.16,-543.82 365.62,-552.85 375.58,-549.24 371.16,-543.82"/>
<text text-anchor="middle" x="466.5" y="-492" font-family="Helvetica,sans-Serif" font-size="10.00"> &lt; 20, 64 &gt;</text>
</g>
<!-- Node3 -->
<g id="node3" class="node">
<title>Node3</title>
<g id="a_node3"><a xlink:href="classanch_1_1crypto_1_1_s_h_a224__256.html" target="_top" xlink:title="SHA2 224/256 implementation.">
<polygon fill="white" stroke="#666666" points="132,-85 5,-85 5,0 132,0 132,-85"/>
<text text-anchor="start" x="13" y="-73" font-family="Helvetica,sans-Serif" font-size="10.00">{anch::crypto::SHA224</text>
<text text-anchor="middle" x="68.5" y="-62" font-family="Helvetica,sans-Serif" font-size="10.00">_256&lt; O, I &gt;</text>
<text text-anchor="start" x="13" y="-51" font-family="Helvetica,sans-Serif" font-size="10.00">||+ SHA224_256()</text>
<text text-anchor="start" x="13" y="-40" font-family="Helvetica,sans-Serif" font-size="10.00">+ SHA224_256()</text>
<text text-anchor="start" x="13" y="-29" font-family="Helvetica,sans-Serif" font-size="10.00">+ SHA224_256()</text>
<text text-anchor="start" x="13" y="-18" font-family="Helvetica,sans-Serif" font-size="10.00">+ ~SHA224_256()</text>
<text text-anchor="middle" x="68.5" y="-7" font-family="Helvetica,sans-Serif" font-size="10.00">}</text>
</a>
</g>
</g>
<!-- Node2&#45;&gt;Node3 -->
<g id="edge2" class="edge">
<title>Node2&#45;&gt;Node3</title>
<path fill="none" stroke="#63b8ff" d="M68.5,-116C68.5,-105.5 68.5,-94.95 68.5,-85.28"/>
<polygon fill="none" stroke="#63b8ff" points="65,-115.82 68.5,-125.82 72,-115.82 65,-115.82"/>
</g>
<!-- Node5 -->
<g id="node5" class="node">
<title>Node5</title>
<g id="a_node5"><a xlink:href="classanch_1_1crypto_1_1_s_h_a384__512.html" target="_top" xlink:title="SHA2 384/512 implementation.">
<polygon fill="white" stroke="#666666" points="309,-85 182,-85 182,0 309,0 309,-85"/>
<text text-anchor="start" x="190" y="-73" font-family="Helvetica,sans-Serif" font-size="10.00">{anch::crypto::SHA384</text>
<text text-anchor="middle" x="245.5" y="-62" font-family="Helvetica,sans-Serif" font-size="10.00">_512&lt; O, I &gt;</text>
<text text-anchor="start" x="190" y="-51" font-family="Helvetica,sans-Serif" font-size="10.00">||+ SHA384_512()</text>
<text text-anchor="start" x="190" y="-40" font-family="Helvetica,sans-Serif" font-size="10.00">+ SHA384_512()</text>
<text text-anchor="start" x="190" y="-29" font-family="Helvetica,sans-Serif" font-size="10.00">+ SHA384_512()</text>
<text text-anchor="start" x="190" y="-18" font-family="Helvetica,sans-Serif" font-size="10.00">+ ~SHA384_512()</text>
<text text-anchor="middle" x="245.5" y="-7" font-family="Helvetica,sans-Serif" font-size="10.00">}</text>
</a>
</g>
</g>
<!-- Node4&#45;&gt;Node5 -->
<g id="edge4" class="edge">
<title>Node4&#45;&gt;Node5</title>
<path fill="none" stroke="#63b8ff" d="M245.5,-110.22C245.5,-101.6 245.5,-93.06 245.5,-85.12"/>
<polygon fill="none" stroke="#63b8ff" points="242,-110.05 245.5,-120.05 249,-110.05 242,-110.05"/>
</g>
<!-- Node6&#45;&gt;Node2 -->
<g id="edge6" class="edge">
<title>Node6&#45;&gt;Node2</title>
<path fill="none" stroke="orange" d="M132.06,-329.86C121.14,-317.79 110.72,-304.59 102.5,-291 94.18,-277.24 87.64,-261.21 82.61,-245.93"/>
<polygon fill="orange" stroke="orange" points="129.26,-331.99 138.64,-336.92 134.38,-327.22 129.26,-331.99"/>
<text text-anchor="start" x="102.5" y="-283" font-family="Helvetica,sans-Serif" font-size="10.00"> &lt; O, 64, uint32_t,</text>
<text text-anchor="middle" x="147" y="-272" font-family="Helvetica,sans-Serif" font-size="10.00"> 64, I &gt;</text>
</g>
<!-- Node6&#45;&gt;Node4 -->
<g id="edge7" class="edge">
<title>Node6&#45;&gt;Node4</title>
<path fill="none" stroke="orange" d="M192.07,-319.14C192.42,-302.49 194.17,-284.93 198.5,-269 200.13,-263.01 202.31,-257 204.85,-251.12"/>
<polygon fill="orange" stroke="orange" points="188.57,-318.98 192.05,-328.99 195.57,-319 188.57,-318.98"/>
<text text-anchor="start" x="198.5" y="-283" font-family="Helvetica,sans-Serif" font-size="10.00"> &lt; O, 128, uint64_t,</text>
<text text-anchor="middle" x="246" y="-272" font-family="Helvetica,sans-Serif" font-size="10.00"> 80, I &gt;</text>
</g>
<!-- Node8 -->
<g id="node8" class="node">
<title>Node8</title>
<g id="a_node8"><a xlink:href="classanch_1_1crypto_1_1_m_d5.html" target="_top" xlink:title="MD5 hash algorithm implementation.">
<polygon fill="white" stroke="#666666" points="448,-245.5 337,-245.5 337,-127.5 448,-127.5 448,-245.5"/>
<text text-anchor="middle" x="392.5" y="-233.5" font-family="Helvetica,sans-Serif" font-size="10.00">{anch::crypto::MD5</text>
<text text-anchor="start" x="345" y="-222.5" font-family="Helvetica,sans-Serif" font-size="10.00">||+ MD5()</text>
<text text-anchor="start" x="345" y="-211.5" font-family="Helvetica,sans-Serif" font-size="10.00">+ MD5()</text>
<text text-anchor="start" x="345" y="-200.5" font-family="Helvetica,sans-Serif" font-size="10.00">+ MD5()</text>
<text text-anchor="start" x="345" y="-189.5" font-family="Helvetica,sans-Serif" font-size="10.00">+ ~MD5()</text>
<text text-anchor="start" x="345" y="-178.5" font-family="Helvetica,sans-Serif" font-size="10.00">+ digest()</text>
<text text-anchor="start" x="345" y="-167.5" font-family="Helvetica,sans-Serif" font-size="10.00"># reset()</text>
<text text-anchor="start" x="345" y="-156.5" font-family="Helvetica,sans-Serif" font-size="10.00"># addData()</text>
<text text-anchor="start" x="345" y="-145.5" font-family="Helvetica,sans-Serif" font-size="10.00"># finalize()</text>
<text text-anchor="middle" x="392.5" y="-134.5" font-family="Helvetica,sans-Serif" font-size="10.00">}</text>
</a>
</g>
</g>
<!-- Node7&#45;&gt;Node8 -->
<g id="edge9" class="edge">
<title>Node7&#45;&gt;Node8</title>
<path fill="none" stroke="#63b8ff" d="M392.5,-297.33C392.5,-279.77 392.5,-261.85 392.5,-245.71"/>
<polygon fill="none" stroke="#63b8ff" points="389,-297.27 392.5,-307.27 396,-297.27 389,-297.27"/>
</g>
<!-- Node10 -->
<g id="node10" class="node">
<title>Node10</title>
<g id="a_node10"><a xlink:href="classanch_1_1crypto_1_1_s_h_a1.html" target="_top" xlink:title="SHA1 hash algorithm implementation.">
<polygon fill="white" stroke="#666666" points="581,-245.5 466,-245.5 466,-127.5 581,-127.5 581,-245.5"/>
<text text-anchor="middle" x="523.5" y="-233.5" font-family="Helvetica,sans-Serif" font-size="10.00">{anch::crypto::SHA1</text>
<text text-anchor="start" x="474" y="-222.5" font-family="Helvetica,sans-Serif" font-size="10.00">||+ SHA1()</text>
<text text-anchor="start" x="474" y="-211.5" font-family="Helvetica,sans-Serif" font-size="10.00">+ SHA1()</text>
<text text-anchor="start" x="474" y="-200.5" font-family="Helvetica,sans-Serif" font-size="10.00">+ SHA1()</text>
<text text-anchor="start" x="474" y="-189.5" font-family="Helvetica,sans-Serif" font-size="10.00">+ ~SHA1()</text>
<text text-anchor="start" x="474" y="-178.5" font-family="Helvetica,sans-Serif" font-size="10.00">+ digest()</text>
<text text-anchor="start" x="474" y="-167.5" font-family="Helvetica,sans-Serif" font-size="10.00"># reset()</text>
<text text-anchor="start" x="474" y="-156.5" font-family="Helvetica,sans-Serif" font-size="10.00"># addData()</text>
<text text-anchor="start" x="474" y="-145.5" font-family="Helvetica,sans-Serif" font-size="10.00"># finalize()</text>
<text text-anchor="middle" x="523.5" y="-134.5" font-family="Helvetica,sans-Serif" font-size="10.00">}</text>
</a>
</g>
</g>
<!-- Node9&#45;&gt;Node10 -->
<g id="edge11" class="edge">
<title>Node9&#45;&gt;Node10</title>
<path fill="none" stroke="#63b8ff" d="M523.5,-297.33C523.5,-279.77 523.5,-261.85 523.5,-245.71"/>
<polygon fill="none" stroke="#63b8ff" points="520,-297.27 523.5,-307.27 527,-297.27 520,-297.27"/>
</g>
</g>
</svg>
        <g id="navigator" transform="translate(0 0)" fill="#404254">
                <rect fill="#f2f5e9" fill-opacity="0.5" stroke="#606060" stroke-width=".5" x="0" y="0" width="60" height="60"/>
                <use id="zoomplus" xlink:href="#zoomPlus" x="17" y="9" onmousedown="handleZoom(evt,'in')"/>
                <use id="zoomminus" xlink:href="#zoomMin" x="42" y="9" onmousedown="handleZoom(evt,'out')"/>
                <use id="reset" xlink:href="#resetDef" x="30" y="36" onmousedown="handleReset()"/>
                <g id="arrowUp" xlink:href="#dirArrow" transform="translate(30 24)" onmousedown="handlePan(0,-1)">
                  <use xlink:href="#rim" fill="#404040">
                        <set attributeName="fill" to="#808080" begin="arrowUp.mouseover" end="arrowUp.mouseout"/>
                  </use>
                  <path fill="none" stroke="white" stroke-width="1.5" d="M0,-3.0v7 M-2.5,-0.5L0,-3.0L2.5,-0.5"/>
                </g>
                <g id="arrowRight" xlink:href="#dirArrow" transform="rotate(90) translate(36 -43)" onmousedown="handlePan(1,0)">
                  <use xlink:href="#rim" fill="#404040">
                        <set attributeName="fill" to="#808080" begin="arrowRight.mouseover" end="arrowRight.mouseout"/>
                  </use>
                  <path fill="none" stroke="white" stroke-width="1.5" d="M0,-3.0v7 M-2.5,-0.5L0,-3.0L2.5,-0.5"/>
                </g>
                <g id="arrowDown" xlink:href="#dirArrow" transform="rotate(180) translate(-30 -48)" onmousedown="handlePan(0,1)">
                  <use xlink:href="#rim" fill="#404040">
                        <set attributeName="fill" to="#808080" begin="arrowDown.mouseover" end="arrowDown.mouseout"/>
                  </use>
                  <path fill="none" stroke="white" stroke-width="1.5" d="M0,-3.0v7 M-2.5,-0.5L0,-3.0L2.5,-0.5"/>
                </g>
                <g id="arrowLeft" xlink:href="#dirArrow" transform="rotate(270) translate(-36 17)" onmousedown="handlePan(-1,0)">
                  <use xlink:href="#rim" fill="#404040">
                        <set attributeName="fill" to="#808080" begin="arrowLeft.mouseover" end="arrowLeft.mouseout"/>
                  </use>
                  <path fill="none" stroke="white" stroke-width="1.5" d="M0,-3.0v7 M-2.5,-0.5L0,-3.0L2.5,-0.5"/>
                </g>
        </g>
        <svg viewBox="0 0 15 15" width="100%" height="30px" preserveAspectRatio="xMaxYMin meet">
         <g id="arrow_out" transform="scale(0.3 0.3)">
          <a xlink:href="classanch_1_1crypto_1_1_hash__inherit__graph_org.svg" target="_base">
           <rect id="button" ry="5" rx="5" y="6" x="6" height="38" width="38"
                fill="#f2f5e9" fill-opacity="0.5" stroke="#606060" stroke-width="1.0"/>
           <path id="arrow"
             d="M 11.500037,31.436501 C 11.940474,20.09759 22.043105,11.32322 32.158766,21.979434 L 37.068811,17.246167 C 37.068811,17.246167 37.088388,32 37.088388,32 L 22.160133,31.978069 C 22.160133,31.978069 26.997745,27.140456 26.997745,27.140456 C 18.528582,18.264221 13.291696,25.230495 11.500037,31.436501 z"
             style="fill:#404040;"/>
          </a>
         </g>
        </svg>
</svg>
