<?xml version="1.0" encoding="UTF-8" standalone="no"?>
<!DOCTYPE svg PUBLIC "-//W3C//DTD SVG 1.1//EN"
 "http://www.w3.org/Graphics/SVG/1.1/DTD/svg11.dtd">
<!-- Generated by graphviz version 10.0.1 (0)
 -->
<!-- Title: anch::crypto::SHA1 Pages: 1 -->
<svg width="115pt" height="676pt"
 viewBox="0.00 0.00 114.50 675.75" xmlns="http://www.w3.org/2000/svg" xmlns:xlink="http://www.w3.org/1999/xlink">
<g id="graph0" class="graph" transform="scale(1 1) rotate(0) translate(4 671.75)">
<title>anch::crypto::SHA1</title>
<!-- Node1 -->
<g id="Node000001" class="node">
<title>Node1</title>
<g id="a_Node000001"><a xlink:title="SHA1 hash algorithm implementation.">
<polygon fill="#999999" stroke="none" points="102,-164 0,-164 0,0 102,0 102,-164"/>
<text text-anchor="start" x="4.88" y="-150.5" font-family="Helvetica,sans-Serif" font-size="10.00">anch::crypto::SHA1</text>
<text text-anchor="start" x="49.5" y="-134.5" font-family="Helvetica,sans-Serif" font-size="10.00"> </text>
<text text-anchor="start" x="12.38" y="-118.5" font-family="Helvetica,sans-Serif" font-size="10.00">+</text>
<text text-anchor="start" x="33" y="-118.5" font-family="Helvetica,sans-Serif" font-size="10.00">SHA1()</text>
<text text-anchor="start" x="12.38" y="-102.5" font-family="Helvetica,sans-Serif" font-size="10.00">+</text>
<text text-anchor="start" x="33" y="-102.5" font-family="Helvetica,sans-Serif" font-size="10.00">SHA1()</text>
<text text-anchor="start" x="12.38" y="-86.5" font-family="Helvetica,sans-Serif" font-size="10.00">+</text>
<text text-anchor="start" x="33" y="-86.5" font-family="Helvetica,sans-Serif" font-size="10.00">SHA1()</text>
<text text-anchor="start" x="12.38" y="-70.5" font-family="Helvetica,sans-Serif" font-size="10.00">+</text>
<text text-anchor="start" x="33" y="-70.5" font-family="Helvetica,sans-Serif" font-size="10.00">~SHA1()</text>
<text text-anchor="start" x="12.38" y="-54.5" font-family="Helvetica,sans-Serif" font-size="10.00">+</text>
<text text-anchor="start" x="33" y="-54.5" font-family="Helvetica,sans-Serif" font-size="10.00">digest()</text>
<text text-anchor="start" x="12.38" y="-38.5" font-family="Helvetica,sans-Serif" font-size="10.00">#</text>
<text text-anchor="start" x="33" y="-38.5" font-family="Helvetica,sans-Serif" font-size="10.00">reset()</text>
<text text-anchor="start" x="12.38" y="-22.5" font-family="Helvetica,sans-Serif" font-size="10.00">#</text>
<text text-anchor="start" x="33" y="-22.5" font-family="Helvetica,sans-Serif" font-size="10.00">addData()</text>
<text text-anchor="start" x="12.38" y="-6.5" font-family="Helvetica,sans-Serif" font-size="10.00">#</text>
<text text-anchor="start" x="33" y="-6.5" font-family="Helvetica,sans-Serif" font-size="10.00">finalize()</text>
<polygon fill="#666666" stroke="#666666" points="0,-146 0,-146 102,-146 102,-146 0,-146"/>
<polygon fill="#666666" stroke="#666666" points="0,-130 0,-130 102,-130 102,-130 0,-130"/>
<polygon fill="none" stroke="#666666" points="0,0 0,-164 102,-164 102,0 0,0"/>
</a>
</g>
</g>
<!-- Node2 -->
<g id="Node000002" class="node">
<title>Node2</title>
<g id="a_Node000002"><a xlink:href="classanch_1_1crypto_1_1_hash.html" target="_top" xlink:title=" ">
<polygon fill="white" stroke="none" points="101,-410 1,-410 1,-201 101,-201 101,-410"/>
<text text-anchor="start" x="5.62" y="-396.5" font-family="Helvetica,sans-Serif" font-size="10.00">anch::crypto::Hash</text>
<text text-anchor="start" x="24.75" y="-383.75" font-family="Helvetica,sans-Serif" font-size="10.00">&lt; 20, 64 &gt;</text>
<text text-anchor="start" x="5.88" y="-367.5" font-family="Helvetica,sans-Serif" font-size="10.00">#</text>
<text text-anchor="start" x="19" y="-367.5" font-family="Helvetica,sans-Serif" font-size="10.00">_digest</text>
<text text-anchor="start" x="5.88" y="-351.5" font-family="Helvetica,sans-Serif" font-size="10.00">+</text>
<text text-anchor="start" x="19" y="-351.5" font-family="Helvetica,sans-Serif" font-size="10.00">digest()</text>
<text text-anchor="start" x="5.88" y="-335.5" font-family="Helvetica,sans-Serif" font-size="10.00">+</text>
<text text-anchor="start" x="19" y="-335.5" font-family="Helvetica,sans-Serif" font-size="10.00">digest()</text>
<text text-anchor="start" x="5.88" y="-319.5" font-family="Helvetica,sans-Serif" font-size="10.00">+</text>
<text text-anchor="start" x="19" y="-319.5" font-family="Helvetica,sans-Serif" font-size="10.00">digest()</text>
<text text-anchor="start" x="5.88" y="-303.5" font-family="Helvetica,sans-Serif" font-size="10.00">+</text>
<text text-anchor="start" x="19" y="-303.5" font-family="Helvetica,sans-Serif" font-size="10.00">digest()</text>
<text text-anchor="start" x="5.88" y="-287.5" font-family="Helvetica,sans-Serif" font-size="10.00">+</text>
<text text-anchor="start" x="19" y="-287.5" font-family="Helvetica,sans-Serif" font-size="10.00">digest()</text>
<text text-anchor="start" x="5.88" y="-271.5" font-family="Helvetica,sans-Serif" font-size="10.00">+</text>
<text text-anchor="start" x="19" y="-271.5" font-family="Helvetica,sans-Serif" font-size="10.00">getOutputSize()</text>
<text text-anchor="start" x="5.88" y="-255.5" font-family="Helvetica,sans-Serif" font-size="10.00">+</text>
<text text-anchor="start" x="19" y="-255.5" font-family="Helvetica,sans-Serif" font-size="10.00">getBlockSize()</text>
<text text-anchor="start" x="5.88" y="-239.5" font-family="Helvetica,sans-Serif" font-size="10.00">#</text>
<text text-anchor="start" x="19" y="-239.5" font-family="Helvetica,sans-Serif" font-size="10.00">reset()</text>
<text text-anchor="start" x="5.88" y="-223.5" font-family="Helvetica,sans-Serif" font-size="10.00">#</text>
<text text-anchor="start" x="19" y="-223.5" font-family="Helvetica,sans-Serif" font-size="10.00">addData()</text>
<text text-anchor="start" x="5.88" y="-207.5" font-family="Helvetica,sans-Serif" font-size="10.00">#</text>
<text text-anchor="start" x="19" y="-207.5" font-family="Helvetica,sans-Serif" font-size="10.00">finalize()</text>
<polygon fill="#666666" stroke="#666666" points="1,-379 1,-379 101,-379 101,-379 1,-379"/>
<polygon fill="#666666" stroke="#666666" points="1,-363 1,-363 17,-363 17,-363 1,-363"/>
<polygon fill="#666666" stroke="#666666" points="17,-363 17,-363 101,-363 101,-363 17,-363"/>
<polygon fill="none" stroke="#666666" points="1,-201 1,-410 101,-410 101,-201 1,-201"/>
</a>
</g>
</g>
<!-- Node2&#45;&gt;Node1 -->
<g id="edge1_Node000001_Node000002" class="edge">
<title>Node2&#45;&gt;Node1</title>
<g id="a_edge1_Node000001_Node000002"><a xlink:title=" ">
<path fill="none" stroke="#63b8ff" d="M51,-189.75C51,-181.03 51,-172.35 51,-163.91"/>
<polygon fill="none" stroke="#63b8ff" points="47.5,-189.69 51,-199.69 54.5,-189.69 47.5,-189.69"/>
</a>
</g>
</g>
<!-- Node3 -->
<g id="Node000003" class="node">
<title>Node3</title>
<g id="a_Node000003"><a xlink:href="classanch_1_1crypto_1_1_hash.html" target="_top" xlink:title="Hash algorithm abstract class.">
<polygon fill="white" stroke="none" points="101,-667.75 1,-667.75 1,-458.75 101,-458.75 101,-667.75"/>
<text text-anchor="start" x="5.62" y="-654.25" font-family="Helvetica,sans-Serif" font-size="10.00">anch::crypto::Hash</text>
<text text-anchor="start" x="29.62" y="-641.5" font-family="Helvetica,sans-Serif" font-size="10.00">&lt; O, B &gt;</text>
<text text-anchor="start" x="5.88" y="-625.25" font-family="Helvetica,sans-Serif" font-size="10.00">#</text>
<text text-anchor="start" x="19" y="-625.25" font-family="Helvetica,sans-Serif" font-size="10.00">_digest</text>
<text text-anchor="start" x="5.88" y="-609.25" font-family="Helvetica,sans-Serif" font-size="10.00">+</text>
<text text-anchor="start" x="19" y="-609.25" font-family="Helvetica,sans-Serif" font-size="10.00">digest()</text>
<text text-anchor="start" x="5.88" y="-593.25" font-family="Helvetica,sans-Serif" font-size="10.00">+</text>
<text text-anchor="start" x="19" y="-593.25" font-family="Helvetica,sans-Serif" font-size="10.00">digest()</text>
<text text-anchor="start" x="5.88" y="-577.25" font-family="Helvetica,sans-Serif" font-size="10.00">+</text>
<text text-anchor="start" x="19" y="-577.25" font-family="Helvetica,sans-Serif" font-size="10.00">digest()</text>
<text text-anchor="start" x="5.88" y="-561.25" font-family="Helvetica,sans-Serif" font-size="10.00">+</text>
<text text-anchor="start" x="19" y="-561.25" font-family="Helvetica,sans-Serif" font-size="10.00">digest()</text>
<text text-anchor="start" x="5.88" y="-545.25" font-family="Helvetica,sans-Serif" font-size="10.00">+</text>
<text text-anchor="start" x="19" y="-545.25" font-family="Helvetica,sans-Serif" font-size="10.00">digest()</text>
<text text-anchor="start" x="5.88" y="-529.25" font-family="Helvetica,sans-Serif" font-size="10.00">+</text>
<text text-anchor="start" x="19" y="-529.25" font-family="Helvetica,sans-Serif" font-size="10.00">getOutputSize()</text>
<text text-anchor="start" x="5.88" y="-513.25" font-family="Helvetica,sans-Serif" font-size="10.00">+</text>
<text text-anchor="start" x="19" y="-513.25" font-family="Helvetica,sans-Serif" font-size="10.00">getBlockSize()</text>
<text text-anchor="start" x="5.88" y="-497.25" font-family="Helvetica,sans-Serif" font-size="10.00">#</text>
<text text-anchor="start" x="19" y="-497.25" font-family="Helvetica,sans-Serif" font-size="10.00">reset()</text>
<text text-anchor="start" x="5.88" y="-481.25" font-family="Helvetica,sans-Serif" font-size="10.00">#</text>
<text text-anchor="start" x="19" y="-481.25" font-family="Helvetica,sans-Serif" font-size="10.00">addData()</text>
<text text-anchor="start" x="5.88" y="-465.25" font-family="Helvetica,sans-Serif" font-size="10.00">#</text>
<text text-anchor="start" x="19" y="-465.25" font-family="Helvetica,sans-Serif" font-size="10.00">finalize()</text>
<polygon fill="#666666" stroke="#666666" points="1,-636.75 1,-636.75 101,-636.75 101,-636.75 1,-636.75"/>
<polygon fill="#666666" stroke="#666666" points="1,-620.75 1,-620.75 17,-620.75 17,-620.75 1,-620.75"/>
<polygon fill="#666666" stroke="#666666" points="17,-620.75 17,-620.75 101,-620.75 101,-620.75 17,-620.75"/>
<polygon fill="none" stroke="#666666" points="1,-458.75 1,-667.75 101,-667.75 101,-458.75 1,-458.75"/>
</a>
</g>
</g>
<!-- Node3&#45;&gt;Node2 -->
<g id="edge2_Node000002_Node000003" class="edge">
<title>Node3&#45;&gt;Node2</title>
<g id="a_edge2_Node000002_Node000003"><a xlink:title=" ">
<path fill="none" stroke="orange" d="M51,-447.48C51,-434.91 51,-422.17 51,-409.76"/>
<polygon fill="orange" stroke="orange" points="47.5,-447.45 51,-457.45 54.5,-447.45 47.5,-447.45"/>
</a>
</g>
<text text-anchor="middle" x="78.75" y="-431.25" font-family="Helvetica,sans-Serif" font-size="10.00" fill="grey"> &lt; 20, 64 &gt;</text>
</g>
</g>
</svg>
