<?xml version="1.0" encoding="UTF-8" standalone="no"?>
<!DOCTYPE svg PUBLIC "-//W3C//DTD SVG 1.1//EN"
 "http://www.w3.org/Graphics/SVG/1.1/DTD/svg11.dtd">
<!-- Generated by graphviz version 12.1.2 (0)
 -->
<!-- Title: anch::sql::FromBuilder Pages: 1 -->
<svg width="139pt" height="809pt"
 viewBox="0.00 0.00 139.00 809.00" xmlns="http://www.w3.org/2000/svg" xmlns:xlink="http://www.w3.org/1999/xlink">
<g id="graph0" class="graph" transform="scale(1 1) rotate(0) translate(4 805)">
<title>anch::sql::FromBuilder</title>
<!-- Node1 -->
<g id="Node000001" class="node">
<title>Node1</title>
<g id="a_Node000001"><a xlink:title=" ">
<polygon fill="#999999" stroke="none" points="119.5,-212 11.5,-212 11.5,0 119.5,0 119.5,-212"/>
<text text-anchor="start" x="16.38" y="-198.5" font-family="Helvetica,sans-Serif" font-size="10.00">anch::sql::FromBuilder</text>
<text text-anchor="start" x="64" y="-182.5" font-family="Helvetica,sans-Serif" font-size="10.00"> </text>
<text text-anchor="start" x="22" y="-166.5" font-family="Helvetica,sans-Serif" font-size="10.00">+</text>
<text text-anchor="start" x="38.5" y="-166.5" font-family="Helvetica,sans-Serif" font-size="10.00">FromBuilder()</text>
<text text-anchor="start" x="22" y="-150.5" font-family="Helvetica,sans-Serif" font-size="10.00">+</text>
<text text-anchor="start" x="38.5" y="-150.5" font-family="Helvetica,sans-Serif" font-size="10.00">FromBuilder()</text>
<text text-anchor="start" x="22" y="-134.5" font-family="Helvetica,sans-Serif" font-size="10.00">+</text>
<text text-anchor="start" x="38.5" y="-134.5" font-family="Helvetica,sans-Serif" font-size="10.00">FromBuilder()</text>
<text text-anchor="start" x="22" y="-118.5" font-family="Helvetica,sans-Serif" font-size="10.00">+</text>
<text text-anchor="start" x="38.5" y="-118.5" font-family="Helvetica,sans-Serif" font-size="10.00">FromBuilder()</text>
<text text-anchor="start" x="22" y="-102.5" font-family="Helvetica,sans-Serif" font-size="10.00">+</text>
<text text-anchor="start" x="38.5" y="-102.5" font-family="Helvetica,sans-Serif" font-size="10.00">FromBuilder()</text>
<text text-anchor="start" x="22" y="-86.5" font-family="Helvetica,sans-Serif" font-size="10.00">+</text>
<text text-anchor="start" x="38.5" y="-86.5" font-family="Helvetica,sans-Serif" font-size="10.00">FromBuilder()</text>
<text text-anchor="start" x="22" y="-70.5" font-family="Helvetica,sans-Serif" font-size="10.00">+</text>
<text text-anchor="start" x="38.5" y="-70.5" font-family="Helvetica,sans-Serif" font-size="10.00">~FromBuilder()</text>
<text text-anchor="start" x="22" y="-54.5" font-family="Helvetica,sans-Serif" font-size="10.00">+</text>
<text text-anchor="start" x="38.5" y="-54.5" font-family="Helvetica,sans-Serif" font-size="10.00">selfJoin()</text>
<text text-anchor="start" x="22" y="-38.5" font-family="Helvetica,sans-Serif" font-size="10.00">+</text>
<text text-anchor="start" x="38.5" y="-38.5" font-family="Helvetica,sans-Serif" font-size="10.00">selfJoin()</text>
<text text-anchor="start" x="22" y="-22.5" font-family="Helvetica,sans-Serif" font-size="10.00">+</text>
<text text-anchor="start" x="38.5" y="-22.5" font-family="Helvetica,sans-Serif" font-size="10.00">selfJoin()</text>
<text text-anchor="start" x="38.5" y="-6.5" font-family="Helvetica,sans-Serif" font-size="10.00">and 31 more...</text>
<polygon fill="#666666" stroke="#666666" points="11.5,-194 11.5,-194 119.5,-194 119.5,-194 11.5,-194"/>
<polygon fill="#666666" stroke="#666666" points="11.5,-178 11.5,-178 119.5,-178 119.5,-178 11.5,-178"/>
<polygon fill="none" stroke="#666666" points="11.5,0 11.5,-212 119.5,-212 119.5,0 11.5,0"/>
</a>
</g>
</g>
<!-- Node2 -->
<g id="Node000002" class="node">
<title>Node2</title>
<g id="a_Node000002"><a xlink:href="classanch_1_1sql_1_1_select_builder_part.html" target="_top" xlink:title="SQL select query part builder.">
<polygon fill="white" stroke="none" points="131,-509 0,-509 0,-249 131,-249 131,-509"/>
<text text-anchor="start" x="4.75" y="-495.5" font-family="Helvetica,sans-Serif" font-size="10.00">anch::sql::SelectBuilderPart</text>
<text text-anchor="start" x="64" y="-479.5" font-family="Helvetica,sans-Serif" font-size="10.00"> </text>
<text text-anchor="start" x="6" y="-463.5" font-family="Helvetica,sans-Serif" font-size="10.00">+</text>
<text text-anchor="start" x="18" y="-463.5" font-family="Helvetica,sans-Serif" font-size="10.00">groupBy()</text>
<text text-anchor="start" x="6" y="-447.5" font-family="Helvetica,sans-Serif" font-size="10.00">+</text>
<text text-anchor="start" x="18" y="-447.5" font-family="Helvetica,sans-Serif" font-size="10.00">orderBy()</text>
<text text-anchor="start" x="6" y="-431.5" font-family="Helvetica,sans-Serif" font-size="10.00">+</text>
<text text-anchor="start" x="18" y="-431.5" font-family="Helvetica,sans-Serif" font-size="10.00">having()</text>
<text text-anchor="start" x="6" y="-415.5" font-family="Helvetica,sans-Serif" font-size="10.00">+</text>
<text text-anchor="start" x="18" y="-415.5" font-family="Helvetica,sans-Serif" font-size="10.00">unionOnce()</text>
<text text-anchor="start" x="6" y="-399.5" font-family="Helvetica,sans-Serif" font-size="10.00">+</text>
<text text-anchor="start" x="18" y="-399.5" font-family="Helvetica,sans-Serif" font-size="10.00">unionAll()</text>
<text text-anchor="start" x="6" y="-383.5" font-family="Helvetica,sans-Serif" font-size="10.00">+</text>
<text text-anchor="start" x="18" y="-383.5" font-family="Helvetica,sans-Serif" font-size="10.00">offset()</text>
<text text-anchor="start" x="6" y="-367.5" font-family="Helvetica,sans-Serif" font-size="10.00">+</text>
<text text-anchor="start" x="18" y="-367.5" font-family="Helvetica,sans-Serif" font-size="10.00">fetch()</text>
<text text-anchor="start" x="6" y="-351.5" font-family="Helvetica,sans-Serif" font-size="10.00">+</text>
<text text-anchor="start" x="18" y="-351.5" font-family="Helvetica,sans-Serif" font-size="10.00">windowByRowNumber()</text>
<text text-anchor="start" x="6" y="-335.5" font-family="Helvetica,sans-Serif" font-size="10.00">+</text>
<text text-anchor="start" x="18" y="-335.5" font-family="Helvetica,sans-Serif" font-size="10.00">windowByRank()</text>
<text text-anchor="start" x="6" y="-319.5" font-family="Helvetica,sans-Serif" font-size="10.00">+</text>
<text text-anchor="start" x="18" y="-319.5" font-family="Helvetica,sans-Serif" font-size="10.00">done()</text>
<text text-anchor="start" x="6" y="-303.5" font-family="Helvetica,sans-Serif" font-size="10.00">+</text>
<text text-anchor="start" x="18" y="-303.5" font-family="Helvetica,sans-Serif" font-size="10.00">build()</text>
<text text-anchor="start" x="6.38" y="-287.5" font-family="Helvetica,sans-Serif" font-size="10.00">#</text>
<text text-anchor="start" x="18" y="-287.5" font-family="Helvetica,sans-Serif" font-size="10.00">SelectBuilderPart()</text>
<text text-anchor="start" x="6.38" y="-271.5" font-family="Helvetica,sans-Serif" font-size="10.00">#</text>
<text text-anchor="start" x="18" y="-271.5" font-family="Helvetica,sans-Serif" font-size="10.00">SelectBuilderPart()</text>
<text text-anchor="start" x="6.38" y="-255.5" font-family="Helvetica,sans-Serif" font-size="10.00">#</text>
<text text-anchor="start" x="18" y="-255.5" font-family="Helvetica,sans-Serif" font-size="10.00">~SelectBuilderPart()</text>
<polygon fill="#666666" stroke="#666666" points="0,-491 0,-491 131,-491 131,-491 0,-491"/>
<polygon fill="#666666" stroke="#666666" points="0,-475 0,-475 131,-475 131,-475 0,-475"/>
<polygon fill="none" stroke="#666666" points="0,-249 0,-509 131,-509 131,-249 0,-249"/>
</a>
</g>
</g>
<!-- Node2&#45;&gt;Node1 -->
<g id="edge1_Node000001_Node000002" class="edge">
<title>Node2&#45;&gt;Node1</title>
<g id="a_edge1_Node000001_Node000002"><a xlink:title=" ">
<path fill="none" stroke="#63b8ff" d="M65.5,-237.75C65.5,-229.01 65.5,-220.3 65.5,-211.75"/>
<polygon fill="none" stroke="#63b8ff" points="62,-237.73 65.5,-247.73 69,-237.73 62,-237.73"/>
</a>
</g>
</g>
<!-- Node3 -->
<g id="Node000003" class="node">
<title>Node3</title>
<g id="a_Node000003"><a xlink:href="classanch_1_1sql_1_1_select_builder.html" target="_top" xlink:title="Dynamic SQL select request builder.">
<polygon fill="white" stroke="none" points="127,-801 4,-801 4,-557 127,-557 127,-801"/>
<text text-anchor="start" x="13.75" y="-787.5" font-family="Helvetica,sans-Serif" font-size="10.00">anch::sql::SelectBuilder</text>
<text text-anchor="start" x="64" y="-771.5" font-family="Helvetica,sans-Serif" font-size="10.00"> </text>
<text text-anchor="start" x="8" y="-755.5" font-family="Helvetica,sans-Serif" font-size="10.00">+</text>
<text text-anchor="start" x="18" y="-755.5" font-family="Helvetica,sans-Serif" font-size="10.00">~SelectBuilder()</text>
<text text-anchor="start" x="8" y="-739.5" font-family="Helvetica,sans-Serif" font-size="10.00">+</text>
<text text-anchor="start" x="18" y="-739.5" font-family="Helvetica,sans-Serif" font-size="10.00">distinct()</text>
<text text-anchor="start" x="8" y="-723.5" font-family="Helvetica,sans-Serif" font-size="10.00">+</text>
<text text-anchor="start" x="18" y="-723.5" font-family="Helvetica,sans-Serif" font-size="10.00">field()</text>
<text text-anchor="start" x="8" y="-707.5" font-family="Helvetica,sans-Serif" font-size="10.00">+</text>
<text text-anchor="start" x="18" y="-707.5" font-family="Helvetica,sans-Serif" font-size="10.00">groupBy()</text>
<text text-anchor="start" x="8" y="-691.5" font-family="Helvetica,sans-Serif" font-size="10.00">+</text>
<text text-anchor="start" x="18" y="-691.5" font-family="Helvetica,sans-Serif" font-size="10.00">orderBy()</text>
<text text-anchor="start" x="8" y="-675.5" font-family="Helvetica,sans-Serif" font-size="10.00">+</text>
<text text-anchor="start" x="18" y="-675.5" font-family="Helvetica,sans-Serif" font-size="10.00">having()</text>
<text text-anchor="start" x="8" y="-659.5" font-family="Helvetica,sans-Serif" font-size="10.00">+</text>
<text text-anchor="start" x="18" y="-659.5" font-family="Helvetica,sans-Serif" font-size="10.00">unionOnce()</text>
<text text-anchor="start" x="8" y="-643.5" font-family="Helvetica,sans-Serif" font-size="10.00">+</text>
<text text-anchor="start" x="18" y="-643.5" font-family="Helvetica,sans-Serif" font-size="10.00">unionAll()</text>
<text text-anchor="start" x="8" y="-627.5" font-family="Helvetica,sans-Serif" font-size="10.00">+</text>
<text text-anchor="start" x="18" y="-627.5" font-family="Helvetica,sans-Serif" font-size="10.00">offset()</text>
<text text-anchor="start" x="8" y="-611.5" font-family="Helvetica,sans-Serif" font-size="10.00">+</text>
<text text-anchor="start" x="18" y="-611.5" font-family="Helvetica,sans-Serif" font-size="10.00">fetch()</text>
<text text-anchor="start" x="8" y="-595.5" font-family="Helvetica,sans-Serif" font-size="10.00">+</text>
<text text-anchor="start" x="18" y="-595.5" font-family="Helvetica,sans-Serif" font-size="10.00">windowByRowNumber()</text>
<text text-anchor="start" x="8" y="-579.5" font-family="Helvetica,sans-Serif" font-size="10.00">+</text>
<text text-anchor="start" x="18" y="-579.5" font-family="Helvetica,sans-Serif" font-size="10.00">windowByRank()</text>
<text text-anchor="start" x="8" y="-563.5" font-family="Helvetica,sans-Serif" font-size="10.00">+</text>
<text text-anchor="start" x="18" y="-563.5" font-family="Helvetica,sans-Serif" font-size="10.00">build()</text>
<polygon fill="#666666" stroke="#666666" points="4,-783 4,-783 127,-783 127,-783 4,-783"/>
<polygon fill="#666666" stroke="#666666" points="4,-767 4,-767 127,-767 127,-767 4,-767"/>
<polygon fill="none" stroke="#666666" points="4,-557 4,-801 127,-801 127,-557 4,-557"/>
</a>
</g>
</g>
<!-- Node3&#45;&gt;Node2 -->
<g id="edge2_Node000002_Node000003" class="edge">
<title>Node3&#45;&gt;Node2</title>
<g id="a_edge2_Node000002_Node000003"><a xlink:title=" ">
<path fill="none" stroke="#63b8ff" d="M65.5,-557.22C65.5,-545.49 65.5,-533.52 65.5,-521.61"/>
<polygon fill="none" stroke="#63b8ff" points="65.5,-521.63 61.5,-515.63 65.5,-509.63 69.5,-515.63 65.5,-521.63"/>
</a>
</g>
<text text-anchor="middle" x="85.38" y="-529.5" font-family="Helvetica,sans-Serif" font-size="10.00" fill="grey"> #_select</text>
</g>
</g>
</svg>
