<?xml version="1.0" encoding="UTF-8" standalone="no"?>
<!DOCTYPE svg PUBLIC "-//W3C//DTD SVG 1.1//EN"
 "http://www.w3.org/Graphics/SVG/1.1/DTD/svg11.dtd">
<!-- Generated by graphviz version 12.1.2 (0)
 -->
<!-- Title: anch::resource::Resource Pages: 1 -->
<svg width="130pt" height="140pt"
 viewBox="0.00 0.00 130.00 140.00" xmlns="http://www.w3.org/2000/svg" xmlns:xlink="http://www.w3.org/1999/xlink">
<g id="graph0" class="graph" transform="scale(1 1) rotate(0) translate(4 136)">
<title>anch::resource::Resource</title>
<!-- Node1 -->
<g id="Node000001" class="node">
<title>Node1</title>
<g id="a_Node000001"><a xlink:title=" ">
<polygon fill="#999999" stroke="none" points="122,-132 0,-132 0,0 122,0 122,-132"/>
<text text-anchor="start" x="4.75" y="-118.5" font-family="Helvetica,sans-Serif" font-size="10.00">anch::resource::Resource</text>
<text text-anchor="start" x="59.5" y="-102.5" font-family="Helvetica,sans-Serif" font-size="10.00"> </text>
<text text-anchor="start" x="10.5" y="-86.5" font-family="Helvetica,sans-Serif" font-size="10.00">+</text>
<text text-anchor="start" x="27" y="-86.5" font-family="Helvetica,sans-Serif" font-size="10.00">~Resource()</text>
<text text-anchor="start" x="10.5" y="-70.5" font-family="Helvetica,sans-Serif" font-size="10.00">+</text>
<text text-anchor="start" x="27" y="-70.5" font-family="Helvetica,sans-Serif" font-size="10.00">getParameter()</text>
<text text-anchor="start" x="10.5" y="-54.5" font-family="Helvetica,sans-Serif" font-size="10.00">+</text>
<text text-anchor="start" x="27" y="-54.5" font-family="Helvetica,sans-Serif" font-size="10.00">section()</text>
<text text-anchor="start" x="10.5" y="-38.5" font-family="Helvetica,sans-Serif" font-size="10.00">+</text>
<text text-anchor="start" x="27" y="-38.5" font-family="Helvetica,sans-Serif" font-size="10.00">parameter()</text>
<text text-anchor="start" x="10.5" y="-22.5" font-family="Helvetica,sans-Serif" font-size="10.00">+</text>
<text text-anchor="start" x="27" y="-22.5" font-family="Helvetica,sans-Serif" font-size="10.00">getConfiguration()</text>
<text text-anchor="start" x="10.5" y="-6.5" font-family="Helvetica,sans-Serif" font-size="10.00">+</text>
<text text-anchor="start" x="27" y="-6.5" font-family="Helvetica,sans-Serif" font-size="10.00">getResource()</text>
<polygon fill="#666666" stroke="#666666" points="0,-114 0,-114 122,-114 122,-114 0,-114"/>
<polygon fill="#666666" stroke="#666666" points="0,-98 0,-98 122,-98 122,-98 0,-98"/>
<polygon fill="none" stroke="#666666" points="0,0 0,-132 122,-132 122,0 0,0"/>
</a>
</g>
</g>
</g>
</svg>
