<?xml version="1.0" encoding="UTF-8" standalone="no"?>
<!DOCTYPE svg PUBLIC "-//W3C//DTD SVG 1.1//EN"
 "http://www.w3.org/Graphics/SVG/1.1/DTD/svg11.dtd">
<!-- Generated by graphviz version 2.40.1 (20161225.0304)
 -->
<!-- Title: anch::crypto::Hash&lt; O, B &gt; Pages: 1 -->
<svg width="679pt" height="825pt"
 viewBox="0.00 0.00 678.50 825.00" xmlns="http://www.w3.org/2000/svg" xmlns:xlink="http://www.w3.org/1999/xlink">
<g id="graph0" class="graph" transform="scale(1 1) rotate(0) translate(4 821)">
<title>anch::crypto::Hash&lt; O, B &gt;</title>
<!-- Node0 -->
<g id="node1" class="node">
<title>Node0</title>
<polygon fill="#bfbfbf" stroke="#000000" points="356.5,-649.5 356.5,-816.5 463.5,-816.5 463.5,-649.5 356.5,-649.5"/>
<text text-anchor="start" x="364.5" y="-804.5" font-family="Helvetica,sans-Serif" font-size="10.00" fill="#000000">anch::crypto::Hash</text>
<text text-anchor="middle" x="410" y="-793.5" font-family="Helvetica,sans-Serif" font-size="10.00" fill="#000000">&lt; O, B &gt;</text>
<polyline fill="none" stroke="#000000" points="356.5,-786.5 463.5,-786.5 "/>
<text text-anchor="middle" x="410" y="-774.5" font-family="Helvetica,sans-Serif" font-size="10.00" fill="#000000"> </text>
<polyline fill="none" stroke="#000000" points="356.5,-767.5 463.5,-767.5 "/>
<text text-anchor="start" x="364.5" y="-755.5" font-family="Helvetica,sans-Serif" font-size="10.00" fill="#000000">+ digest()</text>
<text text-anchor="start" x="364.5" y="-744.5" font-family="Helvetica,sans-Serif" font-size="10.00" fill="#000000">+ digest()</text>
<text text-anchor="start" x="364.5" y="-733.5" font-family="Helvetica,sans-Serif" font-size="10.00" fill="#000000">+ digest()</text>
<text text-anchor="start" x="364.5" y="-722.5" font-family="Helvetica,sans-Serif" font-size="10.00" fill="#000000">+ digest()</text>
<text text-anchor="start" x="364.5" y="-711.5" font-family="Helvetica,sans-Serif" font-size="10.00" fill="#000000">+ digest()</text>
<text text-anchor="start" x="364.5" y="-700.5" font-family="Helvetica,sans-Serif" font-size="10.00" fill="#000000">+ getOutputSize()</text>
<text text-anchor="start" x="364.5" y="-689.5" font-family="Helvetica,sans-Serif" font-size="10.00" fill="#000000">+ getBlockSize()</text>
<text text-anchor="start" x="364.5" y="-678.5" font-family="Helvetica,sans-Serif" font-size="10.00" fill="#000000"># reset()</text>
<text text-anchor="start" x="364.5" y="-667.5" font-family="Helvetica,sans-Serif" font-size="10.00" fill="#000000"># addData()</text>
<text text-anchor="start" x="364.5" y="-656.5" font-family="Helvetica,sans-Serif" font-size="10.00" fill="#000000"># finalize()</text>
</g>
<!-- Node1 -->
<g id="node2" class="node">
<title>Node1</title>
<g id="a_node2"><a xlink:href="classanch_1_1crypto_1_1_s_h_a2.html" target="_top" xlink:title="SHA2 abstract class. ">
<polygon fill="none" stroke="#000000" points="200.5,-456.5 200.5,-579.5 309.5,-579.5 309.5,-456.5 200.5,-456.5"/>
<text text-anchor="start" x="208.5" y="-567.5" font-family="Helvetica,sans-Serif" font-size="10.00" fill="#000000">anch::crypto::SHA2</text>
<text text-anchor="middle" x="255" y="-556.5" font-family="Helvetica,sans-Serif" font-size="10.00" fill="#000000">&lt; O, B &gt;</text>
<polyline fill="none" stroke="#000000" points="200.5,-549.5 309.5,-549.5 "/>
<text text-anchor="middle" x="255" y="-537.5" font-family="Helvetica,sans-Serif" font-size="10.00" fill="#000000"> </text>
<polyline fill="none" stroke="#000000" points="200.5,-530.5 309.5,-530.5 "/>
<text text-anchor="start" x="208.5" y="-518.5" font-family="Helvetica,sans-Serif" font-size="10.00" fill="#000000">+ SHA2()</text>
<text text-anchor="start" x="208.5" y="-507.5" font-family="Helvetica,sans-Serif" font-size="10.00" fill="#000000">+ ~SHA2()</text>
<text text-anchor="start" x="208.5" y="-496.5" font-family="Helvetica,sans-Serif" font-size="10.00" fill="#000000">+ digest()</text>
<text text-anchor="start" x="208.5" y="-485.5" font-family="Helvetica,sans-Serif" font-size="10.00" fill="#000000"># shiftRight()</text>
<text text-anchor="start" x="208.5" y="-474.5" font-family="Helvetica,sans-Serif" font-size="10.00" fill="#000000"># rotateLeft()</text>
<text text-anchor="start" x="208.5" y="-463.5" font-family="Helvetica,sans-Serif" font-size="10.00" fill="#000000"># rotateRight()</text>
</a>
</g>
</g>
<!-- Node0&#45;&gt;Node1 -->
<g id="edge1" class="edge">
<title>Node0&#45;&gt;Node1</title>
<path fill="none" stroke="#191970" d="M350.5091,-650.4804C333.5803,-626.9984 315.4378,-601.833 299.5612,-579.8106"/>
<polygon fill="none" stroke="#191970" points="347.7536,-652.6432 356.4408,-658.7081 353.4318,-648.5495 347.7536,-652.6432"/>
</g>
<!-- Node6 -->
<g id="node7" class="node">
<title>Node6</title>
<g id="a_node7"><a xlink:href="classanch_1_1crypto_1_1_s_h_a2.html" target="_top" xlink:title="{SHA2\&lt; O, 128, uint64\l_t, 80, I \&gt;\n||+ SHA2()\l+ ~SHA2()\l+ digest()\l# shiftRight()\l# rotateLeft()\l# rotateRight()\l}">
<polygon fill="none" stroke="#000000" points="355,-292.5 355,-415.5 477,-415.5 477,-292.5 355,-292.5"/>
<text text-anchor="start" x="363" y="-403.5" font-family="Helvetica,sans-Serif" font-size="10.00" fill="#000000">SHA2&lt; O, 128, uint64</text>
<text text-anchor="middle" x="416" y="-392.5" font-family="Helvetica,sans-Serif" font-size="10.00" fill="#000000">_t, 80, I &gt;</text>
<polyline fill="none" stroke="#000000" points="355,-385.5 477,-385.5 "/>
<text text-anchor="middle" x="416" y="-373.5" font-family="Helvetica,sans-Serif" font-size="10.00" fill="#000000"> </text>
<polyline fill="none" stroke="#000000" points="355,-366.5 477,-366.5 "/>
<text text-anchor="start" x="363" y="-354.5" font-family="Helvetica,sans-Serif" font-size="10.00" fill="#000000">+ SHA2()</text>
<text text-anchor="start" x="363" y="-343.5" font-family="Helvetica,sans-Serif" font-size="10.00" fill="#000000">+ ~SHA2()</text>
<text text-anchor="start" x="363" y="-332.5" font-family="Helvetica,sans-Serif" font-size="10.00" fill="#000000">+ digest()</text>
<text text-anchor="start" x="363" y="-321.5" font-family="Helvetica,sans-Serif" font-size="10.00" fill="#000000"># shiftRight()</text>
<text text-anchor="start" x="363" y="-310.5" font-family="Helvetica,sans-Serif" font-size="10.00" fill="#000000"># rotateLeft()</text>
<text text-anchor="start" x="363" y="-299.5" font-family="Helvetica,sans-Serif" font-size="10.00" fill="#000000"># rotateRight()</text>
</a>
</g>
</g>
<!-- Node0&#45;&gt;Node6 -->
<g id="edge6" class="edge">
<title>Node0&#45;&gt;Node6</title>
<path fill="none" stroke="#191970" d="M411.4843,-639.2417C412.5887,-569.4779 414.0649,-476.2336 415.0239,-415.6538"/>
<polygon fill="none" stroke="#191970" points="407.983,-639.3035 411.3242,-649.3577 414.9821,-639.4143 407.983,-639.3035"/>
</g>
<!-- Node7 -->
<g id="node8" class="node">
<title>Node7</title>
<g id="a_node8"><a xlink:href="classanch_1_1crypto_1_1_s_h_a2.html" target="_top" xlink:title="{SHA2\&lt; O, 64, uint32\l_t, 64, I \&gt;\n||+ SHA2()\l+ ~SHA2()\l+ digest()\l# shiftRight()\l# rotateLeft()\l# rotateRight()\l}">
<polygon fill="none" stroke="#000000" points="0,-292.5 0,-415.5 116,-415.5 116,-292.5 0,-292.5"/>
<text text-anchor="start" x="8" y="-403.5" font-family="Helvetica,sans-Serif" font-size="10.00" fill="#000000">SHA2&lt; O, 64, uint32</text>
<text text-anchor="middle" x="58" y="-392.5" font-family="Helvetica,sans-Serif" font-size="10.00" fill="#000000">_t, 64, I &gt;</text>
<polyline fill="none" stroke="#000000" points="0,-385.5 116,-385.5 "/>
<text text-anchor="middle" x="58" y="-373.5" font-family="Helvetica,sans-Serif" font-size="10.00" fill="#000000"> </text>
<polyline fill="none" stroke="#000000" points="0,-366.5 116,-366.5 "/>
<text text-anchor="start" x="8" y="-354.5" font-family="Helvetica,sans-Serif" font-size="10.00" fill="#000000">+ SHA2()</text>
<text text-anchor="start" x="8" y="-343.5" font-family="Helvetica,sans-Serif" font-size="10.00" fill="#000000">+ ~SHA2()</text>
<text text-anchor="start" x="8" y="-332.5" font-family="Helvetica,sans-Serif" font-size="10.00" fill="#000000">+ digest()</text>
<text text-anchor="start" x="8" y="-321.5" font-family="Helvetica,sans-Serif" font-size="10.00" fill="#000000"># shiftRight()</text>
<text text-anchor="start" x="8" y="-310.5" font-family="Helvetica,sans-Serif" font-size="10.00" fill="#000000"># rotateLeft()</text>
<text text-anchor="start" x="8" y="-299.5" font-family="Helvetica,sans-Serif" font-size="10.00" fill="#000000"># rotateRight()</text>
</a>
</g>
</g>
<!-- Node0&#45;&gt;Node7 -->
<g id="edge8" class="edge">
<title>Node0&#45;&gt;Node7</title>
<path fill="none" stroke="#191970" d="M347.0461,-706.6126C299.5791,-684.2528 235.3014,-648.4257 191,-602 139.311,-547.8325 101.8454,-469.6443 80.0974,-415.6061"/>
<polygon fill="none" stroke="#191970" points="345.7598,-709.8741 356.3044,-710.9042 348.7037,-703.5232 345.7598,-709.8741"/>
</g>
<!-- Node8 -->
<g id="node9" class="node">
<title>Node8</title>
<g id="a_node9"><a xlink:href="classanch_1_1crypto_1_1_hash.html" target="_top" xlink:title="{anch::crypto::Hash\l\&lt; 20, 64 \&gt;\n||+ digest()\l+ digest()\l+ digest()\l+ digest()\l+ digest()\l+ getOutputSize()\l+ getBlockSize()\l# reset()\l# addData()\l# finalize()\l}">
<polygon fill="none" stroke="#000000" points="438.5,-434.5 438.5,-601.5 545.5,-601.5 545.5,-434.5 438.5,-434.5"/>
<text text-anchor="start" x="446.5" y="-589.5" font-family="Helvetica,sans-Serif" font-size="10.00" fill="#000000">anch::crypto::Hash</text>
<text text-anchor="middle" x="492" y="-578.5" font-family="Helvetica,sans-Serif" font-size="10.00" fill="#000000">&lt; 20, 64 &gt;</text>
<polyline fill="none" stroke="#000000" points="438.5,-571.5 545.5,-571.5 "/>
<text text-anchor="middle" x="492" y="-559.5" font-family="Helvetica,sans-Serif" font-size="10.00" fill="#000000"> </text>
<polyline fill="none" stroke="#000000" points="438.5,-552.5 545.5,-552.5 "/>
<text text-anchor="start" x="446.5" y="-540.5" font-family="Helvetica,sans-Serif" font-size="10.00" fill="#000000">+ digest()</text>
<text text-anchor="start" x="446.5" y="-529.5" font-family="Helvetica,sans-Serif" font-size="10.00" fill="#000000">+ digest()</text>
<text text-anchor="start" x="446.5" y="-518.5" font-family="Helvetica,sans-Serif" font-size="10.00" fill="#000000">+ digest()</text>
<text text-anchor="start" x="446.5" y="-507.5" font-family="Helvetica,sans-Serif" font-size="10.00" fill="#000000">+ digest()</text>
<text text-anchor="start" x="446.5" y="-496.5" font-family="Helvetica,sans-Serif" font-size="10.00" fill="#000000">+ digest()</text>
<text text-anchor="start" x="446.5" y="-485.5" font-family="Helvetica,sans-Serif" font-size="10.00" fill="#000000">+ getOutputSize()</text>
<text text-anchor="start" x="446.5" y="-474.5" font-family="Helvetica,sans-Serif" font-size="10.00" fill="#000000">+ getBlockSize()</text>
<text text-anchor="start" x="446.5" y="-463.5" font-family="Helvetica,sans-Serif" font-size="10.00" fill="#000000"># reset()</text>
<text text-anchor="start" x="446.5" y="-452.5" font-family="Helvetica,sans-Serif" font-size="10.00" fill="#000000"># addData()</text>
<text text-anchor="start" x="446.5" y="-441.5" font-family="Helvetica,sans-Serif" font-size="10.00" fill="#000000"># finalize()</text>
</a>
</g>
</g>
<!-- Node0&#45;&gt;Node8 -->
<g id="edge10" class="edge">
<title>Node0&#45;&gt;Node8</title>
<path fill="none" stroke="#ffa500" d="M445.6117,-639.6278C450.4475,-626.9486 455.3851,-614.0025 460.149,-601.5117"/>
<polygon fill="#ffa500" stroke="#ffa500" points="442.2315,-638.669 441.9381,-649.2598 448.772,-641.1635 442.2315,-638.669"/>
<text text-anchor="middle" x="479" y="-623" font-family="Helvetica,sans-Serif" font-size="10.00" fill="#000000"> &lt; 20, 64 &gt;</text>
</g>
<!-- Node10 -->
<g id="node11" class="node">
<title>Node10</title>
<g id="a_node11"><a xlink:href="classanch_1_1crypto_1_1_hash.html" target="_top" xlink:title="{anch::crypto::Hash\l\&lt; 16, 64 \&gt;\n||+ digest()\l+ digest()\l+ digest()\l+ digest()\l+ digest()\l+ getOutputSize()\l+ getBlockSize()\l# reset()\l# addData()\l# finalize()\l}">
<polygon fill="none" stroke="#000000" points="563.5,-434.5 563.5,-601.5 670.5,-601.5 670.5,-434.5 563.5,-434.5"/>
<text text-anchor="start" x="571.5" y="-589.5" font-family="Helvetica,sans-Serif" font-size="10.00" fill="#000000">anch::crypto::Hash</text>
<text text-anchor="middle" x="617" y="-578.5" font-family="Helvetica,sans-Serif" font-size="10.00" fill="#000000">&lt; 16, 64 &gt;</text>
<polyline fill="none" stroke="#000000" points="563.5,-571.5 670.5,-571.5 "/>
<text text-anchor="middle" x="617" y="-559.5" font-family="Helvetica,sans-Serif" font-size="10.00" fill="#000000"> </text>
<polyline fill="none" stroke="#000000" points="563.5,-552.5 670.5,-552.5 "/>
<text text-anchor="start" x="571.5" y="-540.5" font-family="Helvetica,sans-Serif" font-size="10.00" fill="#000000">+ digest()</text>
<text text-anchor="start" x="571.5" y="-529.5" font-family="Helvetica,sans-Serif" font-size="10.00" fill="#000000">+ digest()</text>
<text text-anchor="start" x="571.5" y="-518.5" font-family="Helvetica,sans-Serif" font-size="10.00" fill="#000000">+ digest()</text>
<text text-anchor="start" x="571.5" y="-507.5" font-family="Helvetica,sans-Serif" font-size="10.00" fill="#000000">+ digest()</text>
<text text-anchor="start" x="571.5" y="-496.5" font-family="Helvetica,sans-Serif" font-size="10.00" fill="#000000">+ digest()</text>
<text text-anchor="start" x="571.5" y="-485.5" font-family="Helvetica,sans-Serif" font-size="10.00" fill="#000000">+ getOutputSize()</text>
<text text-anchor="start" x="571.5" y="-474.5" font-family="Helvetica,sans-Serif" font-size="10.00" fill="#000000">+ getBlockSize()</text>
<text text-anchor="start" x="571.5" y="-463.5" font-family="Helvetica,sans-Serif" font-size="10.00" fill="#000000"># reset()</text>
<text text-anchor="start" x="571.5" y="-452.5" font-family="Helvetica,sans-Serif" font-size="10.00" fill="#000000"># addData()</text>
<text text-anchor="start" x="571.5" y="-441.5" font-family="Helvetica,sans-Serif" font-size="10.00" fill="#000000"># finalize()</text>
</a>
</g>
</g>
<!-- Node0&#45;&gt;Node10 -->
<g id="edge12" class="edge">
<title>Node0&#45;&gt;Node10</title>
<path fill="none" stroke="#ffa500" d="M471.2895,-681.8314C497.812,-658.5509 528.5419,-629.9897 554,-602 557.0664,-598.6287 560.1347,-595.1147 563.1754,-591.5181"/>
<polygon fill="#ffa500" stroke="#ffa500" points="468.8037,-679.3552 463.5673,-688.5656 473.4045,-684.631 468.8037,-679.3552"/>
<text text-anchor="middle" x="563" y="-623" font-family="Helvetica,sans-Serif" font-size="10.00" fill="#000000"> &lt; 16, 64 &gt;</text>
</g>
<!-- Node2 -->
<g id="node3" class="node">
<title>Node2</title>
<g id="a_node3"><a xlink:href="classanch_1_1crypto_1_1_s_h_a2.html" target="_top" xlink:title="{anch::crypto::SHA2\l\&lt; O, 64, uint32_t, 64, I \&gt;\n||+ SHA2()\l+ ~SHA2()\l+ digest()\l# shiftRight()\l# rotateLeft()\l# rotateRight()\l}">
<polygon fill="none" stroke="#000000" points="78.5,-145 78.5,-268 215.5,-268 215.5,-145 78.5,-145"/>
<text text-anchor="start" x="86.5" y="-256" font-family="Helvetica,sans-Serif" font-size="10.00" fill="#000000">anch::crypto::SHA2</text>
<text text-anchor="middle" x="147" y="-245" font-family="Helvetica,sans-Serif" font-size="10.00" fill="#000000">&lt; O, 64, uint32_t, 64, I &gt;</text>
<polyline fill="none" stroke="#000000" points="78.5,-238 215.5,-238 "/>
<text text-anchor="middle" x="147" y="-226" font-family="Helvetica,sans-Serif" font-size="10.00" fill="#000000"> </text>
<polyline fill="none" stroke="#000000" points="78.5,-219 215.5,-219 "/>
<text text-anchor="start" x="86.5" y="-207" font-family="Helvetica,sans-Serif" font-size="10.00" fill="#000000">+ SHA2()</text>
<text text-anchor="start" x="86.5" y="-196" font-family="Helvetica,sans-Serif" font-size="10.00" fill="#000000">+ ~SHA2()</text>
<text text-anchor="start" x="86.5" y="-185" font-family="Helvetica,sans-Serif" font-size="10.00" fill="#000000">+ digest()</text>
<text text-anchor="start" x="86.5" y="-174" font-family="Helvetica,sans-Serif" font-size="10.00" fill="#000000"># shiftRight()</text>
<text text-anchor="start" x="86.5" y="-163" font-family="Helvetica,sans-Serif" font-size="10.00" fill="#000000"># rotateLeft()</text>
<text text-anchor="start" x="86.5" y="-152" font-family="Helvetica,sans-Serif" font-size="10.00" fill="#000000"># rotateRight()</text>
</a>
</g>
</g>
<!-- Node1&#45;&gt;Node2 -->
<g id="edge2" class="edge">
<title>Node1&#45;&gt;Node2</title>
<path fill="none" stroke="#ffa500" d="M192.6871,-474.2489C174.8534,-458.1818 157.6461,-438.3745 148,-416 127.9126,-369.4068 129.4204,-311.384 134.9527,-268.2235"/>
<polygon fill="#ffa500" stroke="#ffa500" points="190.503,-476.9879 200.3482,-480.9024 195.093,-471.7027 190.503,-476.9879"/>
<text text-anchor="start" x="148" y="-357" font-family="Helvetica,sans-Serif" font-size="10.00" fill="#000000"> &lt; O, 64, uint32_t,</text>
<text text-anchor="middle" x="192.5" y="-346" font-family="Helvetica,sans-Serif" font-size="10.00" fill="#000000"> 64, I &gt;</text>
</g>
<!-- Node4 -->
<g id="node5" class="node">
<title>Node4</title>
<g id="a_node5"><a xlink:href="classanch_1_1crypto_1_1_s_h_a2.html" target="_top" xlink:title="{anch::crypto::SHA2\l\&lt; O, 128, uint64_t,\l 80, I \&gt;\n||+ SHA2()\l+ ~SHA2()\l+ digest()\l# shiftRight()\l# rotateLeft()\l# rotateRight()\l}">
<polygon fill="none" stroke="#000000" points="246.5,-139.5 246.5,-273.5 355.5,-273.5 355.5,-139.5 246.5,-139.5"/>
<text text-anchor="start" x="254.5" y="-261.5" font-family="Helvetica,sans-Serif" font-size="10.00" fill="#000000">anch::crypto::SHA2</text>
<text text-anchor="start" x="254.5" y="-250.5" font-family="Helvetica,sans-Serif" font-size="10.00" fill="#000000">&lt; O, 128, uint64_t,</text>
<text text-anchor="middle" x="301" y="-239.5" font-family="Helvetica,sans-Serif" font-size="10.00" fill="#000000"> 80, I &gt;</text>
<polyline fill="none" stroke="#000000" points="246.5,-232.5 355.5,-232.5 "/>
<text text-anchor="middle" x="301" y="-220.5" font-family="Helvetica,sans-Serif" font-size="10.00" fill="#000000"> </text>
<polyline fill="none" stroke="#000000" points="246.5,-213.5 355.5,-213.5 "/>
<text text-anchor="start" x="254.5" y="-201.5" font-family="Helvetica,sans-Serif" font-size="10.00" fill="#000000">+ SHA2()</text>
<text text-anchor="start" x="254.5" y="-190.5" font-family="Helvetica,sans-Serif" font-size="10.00" fill="#000000">+ ~SHA2()</text>
<text text-anchor="start" x="254.5" y="-179.5" font-family="Helvetica,sans-Serif" font-size="10.00" fill="#000000">+ digest()</text>
<text text-anchor="start" x="254.5" y="-168.5" font-family="Helvetica,sans-Serif" font-size="10.00" fill="#000000"># shiftRight()</text>
<text text-anchor="start" x="254.5" y="-157.5" font-family="Helvetica,sans-Serif" font-size="10.00" fill="#000000"># rotateLeft()</text>
<text text-anchor="start" x="254.5" y="-146.5" font-family="Helvetica,sans-Serif" font-size="10.00" fill="#000000"># rotateRight()</text>
</a>
</g>
</g>
<!-- Node1&#45;&gt;Node4 -->
<g id="edge4" class="edge">
<title>Node1&#45;&gt;Node4</title>
<path fill="none" stroke="#ffa500" d="M243.659,-446.45C238.9629,-401.3599 237.357,-342.3553 251,-292 252.6638,-285.859 254.8911,-279.7071 257.4843,-273.6758"/>
<polygon fill="#ffa500" stroke="#ffa500" points="240.1853,-446.8816 244.7723,-456.432 247.1422,-446.1057 240.1853,-446.8816"/>
<text text-anchor="start" x="251" y="-357" font-family="Helvetica,sans-Serif" font-size="10.00" fill="#000000"> &lt; O, 128, uint64_t,</text>
<text text-anchor="middle" x="298.5" y="-346" font-family="Helvetica,sans-Serif" font-size="10.00" fill="#000000"> 80, I &gt;</text>
</g>
<!-- Node3 -->
<g id="node4" class="node">
<title>Node3</title>
<g id="a_node4"><a xlink:href="classanch_1_1crypto_1_1_s_h_a224__256.html" target="_top" xlink:title="SHA2 224/256 implementation. ">
<polygon fill="none" stroke="#000000" points="20.5,-.5 20.5,-101.5 141.5,-101.5 141.5,-.5 20.5,-.5"/>
<text text-anchor="start" x="28.5" y="-89.5" font-family="Helvetica,sans-Serif" font-size="10.00" fill="#000000">anch::crypto::SHA224</text>
<text text-anchor="middle" x="81" y="-78.5" font-family="Helvetica,sans-Serif" font-size="10.00" fill="#000000">_256&lt; O, I &gt;</text>
<polyline fill="none" stroke="#000000" points="20.5,-71.5 141.5,-71.5 "/>
<text text-anchor="middle" x="81" y="-59.5" font-family="Helvetica,sans-Serif" font-size="10.00" fill="#000000"> </text>
<polyline fill="none" stroke="#000000" points="20.5,-52.5 141.5,-52.5 "/>
<text text-anchor="start" x="28.5" y="-40.5" font-family="Helvetica,sans-Serif" font-size="10.00" fill="#000000">+ SHA224_256()</text>
<text text-anchor="start" x="28.5" y="-29.5" font-family="Helvetica,sans-Serif" font-size="10.00" fill="#000000">+ SHA224_256()</text>
<text text-anchor="start" x="28.5" y="-18.5" font-family="Helvetica,sans-Serif" font-size="10.00" fill="#000000">+ SHA224_256()</text>
<text text-anchor="start" x="28.5" y="-7.5" font-family="Helvetica,sans-Serif" font-size="10.00" fill="#000000">+ ~SHA224_256()</text>
</a>
</g>
</g>
<!-- Node2&#45;&gt;Node3 -->
<g id="edge3" class="edge">
<title>Node2&#45;&gt;Node3</title>
<path fill="none" stroke="#191970" d="M116.7261,-135.1728C111.9327,-123.8792 107.062,-112.4037 102.5224,-101.7081"/>
<polygon fill="none" stroke="#191970" points="113.5965,-136.7578 120.7254,-144.5955 120.0401,-134.0228 113.5965,-136.7578"/>
</g>
<!-- Node5 -->
<g id="node6" class="node">
<title>Node5</title>
<g id="a_node6"><a xlink:href="classanch_1_1crypto_1_1_s_h_a384__512.html" target="_top" xlink:title="SHA2 384/512 implementation. ">
<polygon fill="none" stroke="#000000" points="309.5,-.5 309.5,-101.5 430.5,-101.5 430.5,-.5 309.5,-.5"/>
<text text-anchor="start" x="317.5" y="-89.5" font-family="Helvetica,sans-Serif" font-size="10.00" fill="#000000">anch::crypto::SHA384</text>
<text text-anchor="middle" x="370" y="-78.5" font-family="Helvetica,sans-Serif" font-size="10.00" fill="#000000">_512&lt; O, I &gt;</text>
<polyline fill="none" stroke="#000000" points="309.5,-71.5 430.5,-71.5 "/>
<text text-anchor="middle" x="370" y="-59.5" font-family="Helvetica,sans-Serif" font-size="10.00" fill="#000000"> </text>
<polyline fill="none" stroke="#000000" points="309.5,-52.5 430.5,-52.5 "/>
<text text-anchor="start" x="317.5" y="-40.5" font-family="Helvetica,sans-Serif" font-size="10.00" fill="#000000">+ SHA384_512()</text>
<text text-anchor="start" x="317.5" y="-29.5" font-family="Helvetica,sans-Serif" font-size="10.00" fill="#000000">+ SHA384_512()</text>
<text text-anchor="start" x="317.5" y="-18.5" font-family="Helvetica,sans-Serif" font-size="10.00" fill="#000000">+ SHA384_512()</text>
<text text-anchor="start" x="317.5" y="-7.5" font-family="Helvetica,sans-Serif" font-size="10.00" fill="#000000">+ ~SHA384_512()</text>
</a>
</g>
</g>
<!-- Node4&#45;&gt;Node5 -->
<g id="edge5" class="edge">
<title>Node4&#45;&gt;Node5</title>
<path fill="none" stroke="#191970" d="M334.959,-129.9691C339.2437,-120.3131 343.5395,-110.6319 347.582,-101.5216"/>
<polygon fill="none" stroke="#191970" points="331.7199,-128.6397 330.8631,-139.1998 338.1183,-131.4789 331.7199,-128.6397"/>
</g>
<!-- Node6&#45;&gt;Node5 -->
<g id="edge7" class="edge">
<title>Node6&#45;&gt;Node5</title>
<path fill="none" stroke="#191970" d="M405.0963,-282.1781C396.6536,-226.566 385.1713,-150.9327 377.6748,-101.5535"/>
<polygon fill="none" stroke="#191970" points="401.6744,-282.9569 406.6358,-292.3182 408.5951,-281.9061 401.6744,-282.9569"/>
</g>
<!-- Node7&#45;&gt;Node3 -->
<g id="edge9" class="edge">
<title>Node7&#45;&gt;Node3</title>
<path fill="none" stroke="#191970" d="M60.1583,-282.1752C61.794,-240.3403 64.5436,-186.6136 69,-139 70.1351,-126.8719 71.7124,-113.8488 73.3509,-101.6381"/>
<polygon fill="none" stroke="#191970" points="56.657,-282.1455 59.7761,-292.2708 63.652,-282.4104 56.657,-282.1455"/>
</g>
<!-- Node9 -->
<g id="node10" class="node">
<title>Node9</title>
<g id="a_node10"><a xlink:href="classanch_1_1crypto_1_1_s_h_a1.html" target="_top" xlink:title="SHA1 hash algorithm implementation. ">
<polygon fill="none" stroke="#000000" points="437.5,-139.5 437.5,-273.5 546.5,-273.5 546.5,-139.5 437.5,-139.5"/>
<text text-anchor="middle" x="492" y="-261.5" font-family="Helvetica,sans-Serif" font-size="10.00" fill="#000000">anch::crypto::SHA1</text>
<polyline fill="none" stroke="#000000" points="437.5,-254.5 546.5,-254.5 "/>
<text text-anchor="middle" x="492" y="-242.5" font-family="Helvetica,sans-Serif" font-size="10.00" fill="#000000"> </text>
<polyline fill="none" stroke="#000000" points="437.5,-235.5 546.5,-235.5 "/>
<text text-anchor="start" x="445.5" y="-223.5" font-family="Helvetica,sans-Serif" font-size="10.00" fill="#000000">+ SHA1()</text>
<text text-anchor="start" x="445.5" y="-212.5" font-family="Helvetica,sans-Serif" font-size="10.00" fill="#000000">+ SHA1()</text>
<text text-anchor="start" x="445.5" y="-201.5" font-family="Helvetica,sans-Serif" font-size="10.00" fill="#000000">+ SHA1()</text>
<text text-anchor="start" x="445.5" y="-190.5" font-family="Helvetica,sans-Serif" font-size="10.00" fill="#000000">+ ~SHA1()</text>
<text text-anchor="start" x="445.5" y="-179.5" font-family="Helvetica,sans-Serif" font-size="10.00" fill="#000000">+ digest()</text>
<text text-anchor="start" x="445.5" y="-168.5" font-family="Helvetica,sans-Serif" font-size="10.00" fill="#000000"># reset()</text>
<text text-anchor="start" x="445.5" y="-157.5" font-family="Helvetica,sans-Serif" font-size="10.00" fill="#000000"># addData()</text>
<text text-anchor="start" x="445.5" y="-146.5" font-family="Helvetica,sans-Serif" font-size="10.00" fill="#000000"># finalize()</text>
</a>
</g>
</g>
<!-- Node8&#45;&gt;Node9 -->
<g id="edge11" class="edge">
<title>Node8&#45;&gt;Node9</title>
<path fill="none" stroke="#191970" d="M492,-423.9188C492,-375.4252 492,-317.4194 492,-273.523"/>
<polygon fill="none" stroke="#191970" points="488.5001,-424.1139 492,-434.1139 495.5001,-424.114 488.5001,-424.1139"/>
</g>
<!-- Node11 -->
<g id="node12" class="node">
<title>Node11</title>
<g id="a_node12"><a xlink:href="classanch_1_1crypto_1_1_m_d5.html" target="_top" xlink:title="MD5 hash algorithm implementation. ">
<polygon fill="none" stroke="#000000" points="565,-139.5 565,-273.5 669,-273.5 669,-139.5 565,-139.5"/>
<text text-anchor="middle" x="617" y="-261.5" font-family="Helvetica,sans-Serif" font-size="10.00" fill="#000000">anch::crypto::MD5</text>
<polyline fill="none" stroke="#000000" points="565,-254.5 669,-254.5 "/>
<text text-anchor="middle" x="617" y="-242.5" font-family="Helvetica,sans-Serif" font-size="10.00" fill="#000000"> </text>
<polyline fill="none" stroke="#000000" points="565,-235.5 669,-235.5 "/>
<text text-anchor="start" x="573" y="-223.5" font-family="Helvetica,sans-Serif" font-size="10.00" fill="#000000">+ MD5()</text>
<text text-anchor="start" x="573" y="-212.5" font-family="Helvetica,sans-Serif" font-size="10.00" fill="#000000">+ MD5()</text>
<text text-anchor="start" x="573" y="-201.5" font-family="Helvetica,sans-Serif" font-size="10.00" fill="#000000">+ MD5()</text>
<text text-anchor="start" x="573" y="-190.5" font-family="Helvetica,sans-Serif" font-size="10.00" fill="#000000">+ ~MD5()</text>
<text text-anchor="start" x="573" y="-179.5" font-family="Helvetica,sans-Serif" font-size="10.00" fill="#000000">+ digest()</text>
<text text-anchor="start" x="573" y="-168.5" font-family="Helvetica,sans-Serif" font-size="10.00" fill="#000000"># reset()</text>
<text text-anchor="start" x="573" y="-157.5" font-family="Helvetica,sans-Serif" font-size="10.00" fill="#000000"># addData()</text>
<text text-anchor="start" x="573" y="-146.5" font-family="Helvetica,sans-Serif" font-size="10.00" fill="#000000"># finalize()</text>
</a>
</g>
</g>
<!-- Node10&#45;&gt;Node11 -->
<g id="edge13" class="edge">
<title>Node10&#45;&gt;Node11</title>
<path fill="none" stroke="#191970" d="M617,-423.9188C617,-375.4252 617,-317.4194 617,-273.523"/>
<polygon fill="none" stroke="#191970" points="613.5001,-424.1139 617,-434.1139 620.5001,-424.114 613.5001,-424.1139"/>
</g>
</g>
</svg>
