<?xml version="1.0" encoding="UTF-8" standalone="no"?>
<!DOCTYPE svg PUBLIC "-//W3C//DTD SVG 1.1//EN"
 "http://www.w3.org/Graphics/SVG/1.1/DTD/svg11.dtd">
<!-- Generated by graphviz version 14.0.0 (0)
 -->
<!-- Title: anch::sql::MySQLPreparedStatementResultSet Pages: 1 -->
<!--zoomable 879 -->

<svg id="main" version="1.1" xmlns="http://www.w3.org/2000/svg" xmlns:xlink="http://www.w3.org/1999/xlink" xml:space="preserve" onload="init(evt)">

<style type="text/css"><![CDATA[
.node, .edge {opacity: 0.7;}
.node.selected, .edge.selected {opacity: 1;}
.edge:hover path { stroke: red; }
.edge:hover polygon { stroke: red; fill: red; }
]]></style>

<defs>
  <circle id="rim" cx="0" cy="0" r="7"/>
  <circle id="rim2" cx="0" cy="0" r="3.5"/>
  <g id="zoomPlus">
    <use xlink:href="#rim" fill="#404040"><set attributeName="fill" to="#808080" begin="zoomplus.mouseover" end="zoomplus.mouseout"/></use>
    <path d="M-4,0h8M0,-4v8" fill="none" stroke="white" stroke-width="1.5" pointer-events="none"/>
  </g>
  <g id="zoomMin">
    <use xlink:href="#rim" fill="#404040"><set attributeName="fill" to="#808080" begin="zoomminus.mouseover" end="zoomminus.mouseout"/></use>
    <path d="M-4,0h8" fill="none" stroke="white" stroke-width="1.5" pointer-events="none"/>
  </g>
  <g id="arrowUp" transform="translate(30 24)">
    <use xlink:href="#rim"/>
    <path pointer-events="none" fill="none" stroke="white" stroke-width="1.5" d="M0,-3.0v7 M-2.5,-0.5L0,-3.0L2.5,-0.5"/>
  </g>
  <g id="arrowRight" transform="rotate(90) translate(36 -43)">
    <use xlink:href="#rim"/>
    <path pointer-events="none" fill="none" stroke="white" stroke-width="1.5" d="M0,-3.0v7 M-2.5,-0.5L0,-3.0L2.5,-0.5"/>
  </g>
  <g id="arrowDown" transform="rotate(180) translate(-30 -48)">
    <use xlink:href="#rim"/>
    <path pointer-events="none" fill="none" stroke="white" stroke-width="1.5" d="M0,-3.0v7 M-2.5,-0.5L0,-3.0L2.5,-0.5"/>
  </g>
  <g id="arrowLeft" transform="rotate(270) translate(-36 17)">
    <use xlink:href="#rim"/>
    <path pointer-events="none" fill="none" stroke="white" stroke-width="1.5" d="M0,-3.0v7 M-2.5,-0.5L0,-3.0L2.5,-0.5"/>
  </g>
  <g id="resetDef">
    <use xlink:href="#rim2" fill="#404040"><set attributeName="fill" to="#808080" begin="reset.mouseover" end="reset.mouseout"/></use>
  </g>
</defs>
<script type="application/ecmascript">
var viewWidth = 220;
var viewHeight = 879;
var sectionId = 'dynsection-1';
</script>
<script type="application/ecmascript" xlink:href="svg.min.js"/>
<svg id="graph" class="graph">
<g id="viewport">
<title>anch::sql::MySQLPreparedStatementResultSet</title>
<!-- Node1 -->
<g id="Node000001" class="node">
<title>Node1</title>
<g id="a_Node000001"><a xlink:title="MySQL result set implementation for prepared statement ... shitty API.">
<polygon fill="#999999" stroke="none" points="169.75,-200 0.25,-200 0.25,0 169.75,0 169.75,-200"/>
<text xml:space="preserve" text-anchor="start" x="26.12" y="-186.5" font-family="Helvetica,sans-Serif" font-size="10.00">anch::sql::MySQLPrepared</text>
<text xml:space="preserve" text-anchor="start" x="40.75" y="-174.5" font-family="Helvetica,sans-Serif" font-size="10.00">StatementResultSet</text>
<text xml:space="preserve" text-anchor="start" x="83.5" y="-158.5" font-family="Helvetica,sans-Serif" font-size="10.00"> </text>
<text xml:space="preserve" text-anchor="start" x="4.25" y="-142.5" font-family="Helvetica,sans-Serif" font-size="10.00">+</text>
<text xml:space="preserve" text-anchor="start" x="14.25" y="-142.5" font-family="Helvetica,sans-Serif" font-size="10.00">MySQLPreparedStatementResult</text>
<text xml:space="preserve" text-anchor="start" x="14.25" y="-130.5" font-family="Helvetica,sans-Serif" font-size="10.00">Set()</text>
<text xml:space="preserve" text-anchor="start" x="4.25" y="-114.5" font-family="Helvetica,sans-Serif" font-size="10.00">+</text>
<text xml:space="preserve" text-anchor="start" x="14.25" y="-114.5" font-family="Helvetica,sans-Serif" font-size="10.00">~MySQLPreparedStatementResult</text>
<text xml:space="preserve" text-anchor="start" x="14.25" y="-102.5" font-family="Helvetica,sans-Serif" font-size="10.00">Set()</text>
<text xml:space="preserve" text-anchor="start" x="4.25" y="-86.5" font-family="Helvetica,sans-Serif" font-size="10.00">+</text>
<text xml:space="preserve" text-anchor="start" x="14.25" y="-86.5" font-family="Helvetica,sans-Serif" font-size="10.00">next()</text>
<text xml:space="preserve" text-anchor="start" x="4.62" y="-70.5" font-family="Helvetica,sans-Serif" font-size="10.00">#</text>
<text xml:space="preserve" text-anchor="start" x="14.25" y="-70.5" font-family="Helvetica,sans-Serif" font-size="10.00">getValue()</text>
<text xml:space="preserve" text-anchor="start" x="4.62" y="-54.5" font-family="Helvetica,sans-Serif" font-size="10.00">#</text>
<text xml:space="preserve" text-anchor="start" x="14.25" y="-54.5" font-family="Helvetica,sans-Serif" font-size="10.00">getValue()</text>
<text xml:space="preserve" text-anchor="start" x="4.62" y="-38.5" font-family="Helvetica,sans-Serif" font-size="10.00">#</text>
<text xml:space="preserve" text-anchor="start" x="14.25" y="-38.5" font-family="Helvetica,sans-Serif" font-size="10.00">getDateFormatter()</text>
<text xml:space="preserve" text-anchor="start" x="4.62" y="-22.5" font-family="Helvetica,sans-Serif" font-size="10.00">#</text>
<text xml:space="preserve" text-anchor="start" x="14.25" y="-22.5" font-family="Helvetica,sans-Serif" font-size="10.00">getTimeFormatter()</text>
<text xml:space="preserve" text-anchor="start" x="4.62" y="-6.5" font-family="Helvetica,sans-Serif" font-size="10.00">#</text>
<text xml:space="preserve" text-anchor="start" x="14.25" y="-6.5" font-family="Helvetica,sans-Serif" font-size="10.00">getTimestampFormatter()</text>
<polygon fill="#666666" stroke="#666666" points="0.25,-170 0.25,-170 169.75,-170 169.75,-170 0.25,-170"/>
<polygon fill="#666666" stroke="#666666" points="0.25,-154 0.25,-154 169.75,-154 169.75,-154 0.25,-154"/>
<polygon fill="none" stroke="#666666" points="0.25,0 0.25,-200 169.75,-200 169.75,0 0.25,0"/>
</a>
</g>
</g>
<!-- Node2 -->
<g id="Node000002" class="node">
<title>Node2</title>
<g id="a_Node000002"><a xlink:href="classanch_1_1sql_1_1_result_set.html" target="_top" xlink:title="SQL result representation.">
<polygon fill="white" stroke="none" points="164.88,-513 5.12,-513 5.12,-237 164.88,-237 164.88,-513"/>
<text xml:space="preserve" text-anchor="start" x="40.38" y="-499.5" font-family="Helvetica,sans-Serif" font-size="10.00">anch::sql::ResultSet</text>
<text xml:space="preserve" text-anchor="start" x="83.5" y="-483.5" font-family="Helvetica,sans-Serif" font-size="10.00"> </text>
<text xml:space="preserve" text-anchor="start" x="9.12" y="-467.5" font-family="Helvetica,sans-Serif" font-size="10.00">+</text>
<text xml:space="preserve" text-anchor="start" x="19.12" y="-467.5" font-family="Helvetica,sans-Serif" font-size="10.00">ResultSet()</text>
<text xml:space="preserve" text-anchor="start" x="9.12" y="-451.5" font-family="Helvetica,sans-Serif" font-size="10.00">+</text>
<text xml:space="preserve" text-anchor="start" x="19.12" y="-451.5" font-family="Helvetica,sans-Serif" font-size="10.00">~ResultSet()</text>
<text xml:space="preserve" text-anchor="start" x="9.12" y="-435.5" font-family="Helvetica,sans-Serif" font-size="10.00">+</text>
<text xml:space="preserve" text-anchor="start" x="19.12" y="-435.5" font-family="Helvetica,sans-Serif" font-size="10.00">get()</text>
<text xml:space="preserve" text-anchor="start" x="9.12" y="-419.5" font-family="Helvetica,sans-Serif" font-size="10.00">+</text>
<text xml:space="preserve" text-anchor="start" x="19.12" y="-419.5" font-family="Helvetica,sans-Serif" font-size="10.00">get()</text>
<text xml:space="preserve" text-anchor="start" x="9.12" y="-403.5" font-family="Helvetica,sans-Serif" font-size="10.00">+</text>
<text xml:space="preserve" text-anchor="start" x="19.12" y="-403.5" font-family="Helvetica,sans-Serif" font-size="10.00">get()</text>
<text xml:space="preserve" text-anchor="start" x="9.12" y="-387.5" font-family="Helvetica,sans-Serif" font-size="10.00">+</text>
<text xml:space="preserve" text-anchor="start" x="19.12" y="-387.5" font-family="Helvetica,sans-Serif" font-size="10.00">get()</text>
<text xml:space="preserve" text-anchor="start" x="9.12" y="-371.5" font-family="Helvetica,sans-Serif" font-size="10.00">+</text>
<text xml:space="preserve" text-anchor="start" x="19.12" y="-371.5" font-family="Helvetica,sans-Serif" font-size="10.00">next()</text>
<text xml:space="preserve" text-anchor="start" x="9.5" y="-355.5" font-family="Helvetica,sans-Serif" font-size="10.00">#</text>
<text xml:space="preserve" text-anchor="start" x="19.12" y="-355.5" font-family="Helvetica,sans-Serif" font-size="10.00">getValue()</text>
<text xml:space="preserve" text-anchor="start" x="9.5" y="-339.5" font-family="Helvetica,sans-Serif" font-size="10.00">#</text>
<text xml:space="preserve" text-anchor="start" x="19.12" y="-339.5" font-family="Helvetica,sans-Serif" font-size="10.00">getValue()</text>
<text xml:space="preserve" text-anchor="start" x="9.5" y="-323.5" font-family="Helvetica,sans-Serif" font-size="10.00">#</text>
<text xml:space="preserve" text-anchor="start" x="19.12" y="-323.5" font-family="Helvetica,sans-Serif" font-size="10.00">getDateFormatter()</text>
<text xml:space="preserve" text-anchor="start" x="9.5" y="-307.5" font-family="Helvetica,sans-Serif" font-size="10.00">#</text>
<text xml:space="preserve" text-anchor="start" x="19.12" y="-307.5" font-family="Helvetica,sans-Serif" font-size="10.00">getTimeFormatter()</text>
<text xml:space="preserve" text-anchor="start" x="9.5" y="-291.5" font-family="Helvetica,sans-Serif" font-size="10.00">#</text>
<text xml:space="preserve" text-anchor="start" x="19.12" y="-291.5" font-family="Helvetica,sans-Serif" font-size="10.00">getTimestampFormatter()</text>
<text xml:space="preserve" text-anchor="start" x="9.5" y="-275.5" font-family="Helvetica,sans-Serif" font-size="10.00">#</text>
<text xml:space="preserve" text-anchor="start" x="19.12" y="-275.5" font-family="Helvetica,sans-Serif" font-size="10.00">getDefaultDateFormatter()</text>
<text xml:space="preserve" text-anchor="start" x="9.5" y="-259.5" font-family="Helvetica,sans-Serif" font-size="10.00">#</text>
<text xml:space="preserve" text-anchor="start" x="19.12" y="-259.5" font-family="Helvetica,sans-Serif" font-size="10.00">getDefaultTimeFormatter()</text>
<text xml:space="preserve" text-anchor="start" x="9.5" y="-243.5" font-family="Helvetica,sans-Serif" font-size="10.00">#</text>
<text xml:space="preserve" text-anchor="start" x="19.12" y="-243.5" font-family="Helvetica,sans-Serif" font-size="10.00">getDefaultTimestampFormatter()</text>
<polygon fill="#666666" stroke="#666666" points="5.12,-495 5.12,-495 164.88,-495 164.88,-495 5.12,-495"/>
<polygon fill="#666666" stroke="#666666" points="5.12,-479 5.12,-479 164.88,-479 164.88,-479 5.12,-479"/>
<polygon fill="none" stroke="#666666" points="5.12,-237 5.12,-513 164.88,-513 164.88,-237 5.12,-237"/>
</a>
</g>
</g>
<!-- Node2&#45;&gt;Node1 -->
<g id="edge1_Node000001_Node000002" class="edge">
<title>Node2&#45;&gt;Node1</title>
<g id="a_edge1_Node000001_Node000002"><a xlink:title=" ">
<path fill="none" stroke="#63b8ff" d="M85,-225.86C85,-217 85,-208.21 85,-199.63"/>
<polygon fill="none" stroke="#63b8ff" points="81.5,-225.59 85,-235.59 88.5,-225.59 81.5,-225.59"/>
</a>
</g>
</g>
<!-- Node3 -->
<g id="Node000003" class="node">
<title>Node3</title>
<g id="a_Node000003"><a xlink:title=" ">
<polygon fill="white" stroke="none" points="135.88,-631 34.12,-631 34.12,-567 135.88,-567 135.88,-631"/>
<text xml:space="preserve" text-anchor="start" x="38.12" y="-617.5" font-family="Helvetica,sans-Serif" font-size="10.00">std::map&lt; std::string,</text>
<text xml:space="preserve" text-anchor="start" x="56.12" y="-605.5" font-family="Helvetica,sans-Serif" font-size="10.00"> std::size_t &gt;</text>
<text xml:space="preserve" text-anchor="start" x="49.12" y="-589.5" font-family="Helvetica,sans-Serif" font-size="10.00">+</text>
<text xml:space="preserve" text-anchor="start" x="70.12" y="-589.5" font-family="Helvetica,sans-Serif" font-size="10.00">elements</text>
<text xml:space="preserve" text-anchor="start" x="83.5" y="-573.5" font-family="Helvetica,sans-Serif" font-size="10.00"> </text>
<polygon fill="#666666" stroke="#666666" points="34.12,-601 34.12,-601 135.88,-601 135.88,-601 34.12,-601"/>
<polygon fill="#666666" stroke="#666666" points="34.12,-585 34.12,-585 68.12,-585 68.12,-585 34.12,-585"/>
<polygon fill="#666666" stroke="#666666" points="68.12,-585 68.12,-585 135.88,-585 135.88,-585 68.12,-585"/>
<polygon fill="none" stroke="#666666" points="34.12,-567 34.12,-631 135.88,-631 135.88,-567 34.12,-567"/>
</a>
</g>
</g>
<!-- Node3&#45;&gt;Node2 -->
<g id="edge2_Node000002_Node000003" class="edge">
<title>Node3&#45;&gt;Node2</title>
<g id="a_edge2_Node000002_Node000003"><a xlink:title=" ">
<path fill="none" stroke="#63b8ff" d="M85,-567.13C85,-555.38 85,-541.06 85,-525.61"/>
<polygon fill="none" stroke="#63b8ff" points="85,-525.89 81,-519.89 85,-513.89 89,-519.89 85,-525.89"/>
</a>
</g>
<text xml:space="preserve" text-anchor="start" x="88" y="-536.5" font-family="Helvetica,sans-Serif" font-size="10.00" fill="grey">#_fields</text>
</g>
<!-- Node4 -->
<g id="Node000004" class="node">
<title>Node4</title>
<g id="a_Node000004"><a xlink:title=" ">
<polygon fill="white" stroke="none" points="68.75,-753 17.25,-753 17.25,-701 68.75,-701 68.75,-753"/>
<text xml:space="preserve" text-anchor="start" x="21.25" y="-739.5" font-family="Helvetica,sans-Serif" font-size="10.00">std::string</text>
<text xml:space="preserve" text-anchor="start" x="41.5" y="-723.5" font-family="Helvetica,sans-Serif" font-size="10.00"> </text>
<text xml:space="preserve" text-anchor="start" x="41.5" y="-707.5" font-family="Helvetica,sans-Serif" font-size="10.00"> </text>
<polygon fill="#666666" stroke="#666666" points="17.25,-735 17.25,-735 68.75,-735 68.75,-735 17.25,-735"/>
<polygon fill="#666666" stroke="#666666" points="17.25,-719 17.25,-719 68.75,-719 68.75,-719 17.25,-719"/>
<polygon fill="none" stroke="#666666" points="17.25,-701 17.25,-753 68.75,-753 68.75,-701 17.25,-701"/>
</a>
</g>
</g>
<!-- Node4&#45;&gt;Node3 -->
<g id="edge3_Node000003_Node000004" class="edge">
<title>Node4&#45;&gt;Node3</title>
<g id="a_edge3_Node000003_Node000004"><a xlink:title=" ">
<path fill="none" stroke="#63b8ff" d="M49.36,-701.16C53.43,-685.97 59.05,-666.21 65,-649 65.7,-646.97 66.44,-644.9 67.21,-642.82"/>
<polygon fill="none" stroke="#63b8ff" points="67.16,-642.95 65.58,-635.92 71.46,-631.75 73.04,-638.79 67.16,-642.95"/>
</a>
</g>
<text xml:space="preserve" text-anchor="start" x="68" y="-662.5" font-family="Helvetica,sans-Serif" font-size="10.00" fill="grey">+keys</text>
</g>
<!-- Node5 -->
<g id="Node000005" class="node">
<title>Node5</title>
<g id="a_Node000005"><a xlink:title=" ">
<polygon fill="white" stroke="none" points="86,-871 0,-871 0,-807 86,-807 86,-871"/>
<text xml:space="preserve" text-anchor="start" x="4" y="-857.5" font-family="Helvetica,sans-Serif" font-size="10.00">std::basic_string&lt;</text>
<text xml:space="preserve" text-anchor="start" x="26.5" y="-845.5" font-family="Helvetica,sans-Serif" font-size="10.00"> Char &gt;</text>
<text xml:space="preserve" text-anchor="start" x="41.5" y="-829.5" font-family="Helvetica,sans-Serif" font-size="10.00"> </text>
<text xml:space="preserve" text-anchor="start" x="41.5" y="-813.5" font-family="Helvetica,sans-Serif" font-size="10.00"> </text>
<polygon fill="#666666" stroke="#666666" points="0,-841 0,-841 86,-841 86,-841 0,-841"/>
<polygon fill="#666666" stroke="#666666" points="0,-825 0,-825 86,-825 86,-825 0,-825"/>
<polygon fill="none" stroke="#666666" points="0,-807 0,-871 86,-871 86,-807 0,-807"/>
</a>
</g>
</g>
<!-- Node5&#45;&gt;Node4 -->
<g id="edge4_Node000004_Node000005" class="edge">
<title>Node5&#45;&gt;Node4</title>
<g id="a_edge4_Node000004_Node000005"><a xlink:title=" ">
<path fill="none" stroke="#63b8ff" d="M43,-795.77C43,-781.25 43,-765.47 43,-752.79"/>
<polygon fill="none" stroke="#63b8ff" points="39.5,-795.55 43,-805.55 46.5,-795.55 39.5,-795.55"/>
</a>
</g>
</g>
<!-- Node6 -->
<g id="Node000006" class="node">
<title>Node6</title>
<g id="a_Node000006"><a xlink:title=" ">
<polygon fill="white" stroke="none" points="169.12,-753 86.88,-753 86.88,-701 169.12,-701 169.12,-753"/>
<text xml:space="preserve" text-anchor="start" x="90.88" y="-739.5" font-family="Helvetica,sans-Serif" font-size="10.00">std::map&lt; K, T &gt;</text>
<text xml:space="preserve" text-anchor="start" x="126.5" y="-723.5" font-family="Helvetica,sans-Serif" font-size="10.00"> </text>
<text xml:space="preserve" text-anchor="start" x="126.5" y="-707.5" font-family="Helvetica,sans-Serif" font-size="10.00"> </text>
<polygon fill="#666666" stroke="#666666" points="86.88,-735 86.88,-735 169.12,-735 169.12,-735 86.88,-735"/>
<polygon fill="#666666" stroke="#666666" points="86.88,-719 86.88,-719 169.12,-719 169.12,-719 86.88,-719"/>
<polygon fill="none" stroke="#666666" points="86.88,-701 86.88,-753 169.12,-753 169.12,-701 86.88,-701"/>
</a>
</g>
</g>
<!-- Node6&#45;&gt;Node3 -->
<g id="edge5_Node000003_Node000006" class="edge">
<title>Node6&#45;&gt;Node3</title>
<g id="a_edge5_Node000003_Node000006"><a xlink:title=" ">
<path fill="none" stroke="orange" d="M115.81,-690.28C109.39,-671.47 101.6,-648.63 95.45,-630.63"/>
<polygon fill="orange" stroke="orange" points="112.47,-691.34 119.02,-699.67 119.1,-689.08 112.47,-691.34"/>
</a>
</g>
<text xml:space="preserve" text-anchor="start" x="115.86" y="-670.5" font-family="Helvetica,sans-Serif" font-size="10.00" fill="grey">&lt; std::string, std</text>
<text xml:space="preserve" text-anchor="start" x="115.86" y="-654.5" font-family="Helvetica,sans-Serif" font-size="10.00" fill="grey">  ::size_t &gt;</text>
</g>
<!-- Node7 -->
<g id="Node000007" class="node">
<title>Node7</title>
<g id="a_Node000007"><a xlink:title=" ">
<polygon fill="white" stroke="none" points="126.38,-865 111.62,-865 111.62,-813 126.38,-813 126.38,-865"/>
<text xml:space="preserve" text-anchor="start" x="115.62" y="-851.5" font-family="Helvetica,sans-Serif" font-size="10.00">K</text>
<text xml:space="preserve" text-anchor="start" x="117.5" y="-835.5" font-family="Helvetica,sans-Serif" font-size="10.00"> </text>
<text xml:space="preserve" text-anchor="start" x="117.5" y="-819.5" font-family="Helvetica,sans-Serif" font-size="10.00"> </text>
<polygon fill="#bfbfbf" stroke="#bfbfbf" points="111.62,-847 111.62,-847 126.38,-847 126.38,-847 111.62,-847"/>
<polygon fill="#bfbfbf" stroke="#bfbfbf" points="111.62,-831 111.62,-831 126.38,-831 126.38,-831 111.62,-831"/>
<polygon fill="none" stroke="#bfbfbf" points="111.62,-813 111.62,-865 126.38,-865 126.38,-813 111.62,-813"/>
</a>
</g>
</g>
<!-- Node7&#45;&gt;Node6 -->
<g id="edge6_Node000006_Node000007" class="edge">
<title>Node7&#45;&gt;Node6</title>
<g id="a_edge6_Node000006_Node000007"><a xlink:title=" ">
<path fill="none" stroke="#63b8ff" d="M118.37,-813.12C118.31,-800.48 118.61,-784.89 120,-771 120.17,-769.25 120.38,-767.47 120.62,-765.67"/>
<polygon fill="none" stroke="#63b8ff" points="120.62,-765.65 117.6,-759.1 122.49,-753.8 125.51,-760.35 120.62,-765.65"/>
</a>
</g>
<text xml:space="preserve" text-anchor="start" x="123" y="-776.5" font-family="Helvetica,sans-Serif" font-size="10.00" fill="grey">+keys</text>
</g>
<!-- Node8 -->
<g id="Node000008" class="node">
<title>Node8</title>
<g id="a_Node000008"><a xlink:title=" ">
<polygon fill="white" stroke="none" points="182,-865 168,-865 168,-813 182,-813 182,-865"/>
<text xml:space="preserve" text-anchor="start" x="172" y="-851.5" font-family="Helvetica,sans-Serif" font-size="10.00">T</text>
<text xml:space="preserve" text-anchor="start" x="173.5" y="-835.5" font-family="Helvetica,sans-Serif" font-size="10.00"> </text>
<text xml:space="preserve" text-anchor="start" x="173.5" y="-819.5" font-family="Helvetica,sans-Serif" font-size="10.00"> </text>
<polygon fill="#bfbfbf" stroke="#bfbfbf" points="168,-847 168,-847 182,-847 182,-847 168,-847"/>
<polygon fill="#bfbfbf" stroke="#bfbfbf" points="168,-831 168,-831 182,-831 182,-831 168,-831"/>
<polygon fill="none" stroke="#bfbfbf" points="168,-813 168,-865 182,-865 182,-813 168,-813"/>
</a>
</g>
</g>
<!-- Node8&#45;&gt;Node6 -->
<g id="edge7_Node000006_Node000008" class="edge">
<title>Node8&#45;&gt;Node6</title>
<g id="a_edge7_Node000006_Node000008"><a xlink:title=" ">
<path fill="none" stroke="#63b8ff" d="M168.16,-813.03C164.31,-800.22 159.07,-784.51 153,-771 151.97,-768.7 150.84,-766.36 149.66,-764.02"/>
<polygon fill="none" stroke="#63b8ff" points="149.59,-763.89 143.22,-760.52 143.88,-753.34 150.25,-756.71 149.59,-763.89"/>
</a>
</g>
<text xml:space="preserve" text-anchor="start" x="163.22" y="-776.5" font-family="Helvetica,sans-Serif" font-size="10.00" fill="grey">+elements</text>
</g>
</g>
</svg>

<g id="navigator" transform="translate(0 0)" fill="#404254">
  <rect fill="#f2f5e9" fill-opacity="0.5" stroke="#606060" stroke-width=".5" x="0" y="0" width="60" height="60"/>
  <use id="zoomplus" xlink:href="#zoomPlus" x="17" y="9" onmousedown="handleZoom(evt,'in')"/>
  <use id="zoomminus" xlink:href="#zoomMin" x="42" y="9" onmousedown="handleZoom(evt,'out')"/>
  <use id="reset" xlink:href="#resetDef" x="30" y="36" onmousedown="handleReset()"/>
   <use id="arrowup" xlink:href="#arrowUp" x="0" y="0" onmousedown="handlePan(0,-1)"/>
  <use id="arrowright" xlink:href="#arrowRight" x="0" y="0" onmousedown="handlePan(1,0)"/>
  <use id="arrowdown" xlink:href="#arrowDown" x="0" y="0" onmousedown="handlePan(0,1)"/>
  <use id="arrowleft" xlink:href="#arrowLeft" x="0" y="0" onmousedown="handlePan(-1,0)"/>
</g>
<svg viewBox="0 0 15 15" width="100%" height="30px" preserveAspectRatio="xMaxYMin meet">
 <g id="arrow_out" transform="scale(0.3 0.3)">
  <a xlink:href="classanch_1_1sql_1_1_my_s_q_l_prepared_statement_result_set__coll__graph_org.svg" target="_base">
   <rect id="button" ry="5" rx="5" y="6" x="6" height="38" width="38"
        fill="#f2f5e9" fill-opacity="0.5" stroke="#606060" stroke-width="1.0"/>
   <path id="arrow"
     d="M 11.500037,31.436501 C 11.940474,20.09759 22.043105,11.32322 32.158766,21.979434 L 37.068811,17.246167 C 37.068811,17.246167 37.088388,32 37.088388,32 L 22.160133,31.978069 C 22.160133,31.978069 26.997745,27.140456 26.997745,27.140456 C 18.528582,18.264221 13.291696,25.230495 11.500037,31.436501 z"
     style="fill:#404040;"/>
  </a>
 </g>
</svg>

<style type='text/css'>
<![CDATA[
[data-mouse-over-selected='false'] { opacity: 0.7; }
[data-mouse-over-selected='true']  { opacity: 1.0; }
]]>
</style>
<script type="application/ecmascript"><![CDATA[
document.addEventListener('DOMContentLoaded', (event) => {
  highlightEdges();
  highlightAdjacentNodes();
});
]]></script>
</svg>
