<?xml version="1.0" encoding="UTF-8" standalone="no"?>
<!DOCTYPE svg PUBLIC "-//W3C//DTD SVG 1.1//EN"
 "http://www.w3.org/Graphics/SVG/1.1/DTD/svg11.dtd">
<!-- Generated by graphviz version 2.40.1 (20161225.0304)
 -->
<!-- Title: anch::sql::MySQLPreparedStatementResultSet Pages: 1 -->
<!--zoomable 773 -->
<svg id="main" version="1.1" xmlns="http://www.w3.org/2000/svg" xmlns:xlink="http://www.w3.org/1999/xlink" xml:space="preserve" onload="init(evt)">
<style type="text/css"><![CDATA[
.edge:hover path { stroke: red; }
.edge:hover polygon { stroke: red; fill: red; }
]]></style>
<script type="text/javascript"><![CDATA[
var edges = document.getElementsByTagName('g');
if (edges && edges.length) {
  for (var i=0;i<edges.length;i++) {
    if (edges[i].id.substr(0,4)=='edge') {
      edges[i].setAttribute('class','edge');
    }
  }
}
]]></script>
        <defs>
                <circle id="rim" cx="0" cy="0" r="7"/>
                <circle id="rim2" cx="0" cy="0" r="3.5"/>
                <g id="zoomPlus">
                        <use xlink:href="#rim" fill="#404040">
                                <set attributeName="fill" to="#808080" begin="zoomplus.mouseover" end="zoomplus.mouseout"/>
                        </use>
                        <path d="M-4,0h8M0,-4v8" fill="none" stroke="white" stroke-width="1.5" pointer-events="none"/>
                </g>
                <g id="zoomMin">
                        <use xlink:href="#rim" fill="#404040">
                                <set attributeName="fill" to="#808080" begin="zoomminus.mouseover" end="zoomminus.mouseout"/>
                        </use>
                        <path d="M-4,0h8" fill="none" stroke="white" stroke-width="1.5" pointer-events="none"/>
                </g>
                <g id="dirArrow">
                        <path fill="none" stroke="white" stroke-width="1.5" d="M0,-3.0v7 M-2.5,-0.5L0,-3.0L2.5,-0.5"/>
                </g>
               <g id="resetDef">
                       <use xlink:href="#rim2" fill="#404040">
                               <set attributeName="fill" to="#808080" begin="reset.mouseover" end="reset.mouseout"/>
                       </use>
               </g>
        </defs>

<script type="text/javascript">
var viewWidth = 259;
var viewHeight = 773;
var sectionId = 'dynsection-1';
</script>
<script xlink:href="svgpan.js"/>
<svg id="graph" class="graph">
<g id="viewport">
<title>anch::sql::MySQLPreparedStatementResultSet</title>
<!-- Node2 -->
<g id="node1" class="node">
<title>Node2</title>
<polygon fill="#bfbfbf" stroke="#000000" points="0,-.5 0,-134.5 217,-134.5 217,-.5 0,-.5"/>
<text text-anchor="start" x="8" y="-122.5" font-family="Helvetica,sans-Serif" font-size="10.00" fill="#000000">anch::sql::MySQLPrepared</text>
<text text-anchor="middle" x="108.5" y="-111.5" font-family="Helvetica,sans-Serif" font-size="10.00" fill="#000000">StatementResultSet</text>
<polyline fill="none" stroke="#000000" points="0,-104.5 217,-104.5 "/>
<text text-anchor="middle" x="108.5" y="-92.5" font-family="Helvetica,sans-Serif" font-size="10.00" fill="#000000"> </text>
<polyline fill="none" stroke="#000000" points="0,-85.5 217,-85.5 "/>
<text text-anchor="start" x="8" y="-73.5" font-family="Helvetica,sans-Serif" font-size="10.00" fill="#000000">+ MySQLPreparedStatementResultSet()</text>
<text text-anchor="start" x="8" y="-62.5" font-family="Helvetica,sans-Serif" font-size="10.00" fill="#000000">+ ~MySQLPreparedStatementResultSet()</text>
<text text-anchor="start" x="8" y="-51.5" font-family="Helvetica,sans-Serif" font-size="10.00" fill="#000000">+ next()</text>
<text text-anchor="start" x="8" y="-40.5" font-family="Helvetica,sans-Serif" font-size="10.00" fill="#000000"># getValue()</text>
<text text-anchor="start" x="8" y="-29.5" font-family="Helvetica,sans-Serif" font-size="10.00" fill="#000000"># getDateFormatter()</text>
<text text-anchor="start" x="8" y="-18.5" font-family="Helvetica,sans-Serif" font-size="10.00" fill="#000000"># getTimeFormatter()</text>
<text text-anchor="start" x="8" y="-7.5" font-family="Helvetica,sans-Serif" font-size="10.00" fill="#000000"># getTimestampFormatter()</text>
</g>
<!-- Node3 -->
<g id="node2" class="node">
<title>Node3</title>
<g id="a_node2"><a xlink:href="classanch_1_1sql_1_1_result_set.html" target="_top" xlink:title="SQL result representation. ">
<polygon fill="none" stroke="#000000" points="13,-172.5 13,-416.5 204,-416.5 204,-172.5 13,-172.5"/>
<text text-anchor="middle" x="108.5" y="-404.5" font-family="Helvetica,sans-Serif" font-size="10.00" fill="#000000">anch::sql::ResultSet</text>
<polyline fill="none" stroke="#000000" points="13,-397.5 204,-397.5 "/>
<text text-anchor="middle" x="108.5" y="-385.5" font-family="Helvetica,sans-Serif" font-size="10.00" fill="#000000"> </text>
<polyline fill="none" stroke="#000000" points="13,-378.5 204,-378.5 "/>
<text text-anchor="start" x="21" y="-366.5" font-family="Helvetica,sans-Serif" font-size="10.00" fill="#000000">+ ResultSet()</text>
<text text-anchor="start" x="21" y="-355.5" font-family="Helvetica,sans-Serif" font-size="10.00" fill="#000000">+ ~ResultSet()</text>
<text text-anchor="start" x="21" y="-344.5" font-family="Helvetica,sans-Serif" font-size="10.00" fill="#000000">+ get()</text>
<text text-anchor="start" x="21" y="-333.5" font-family="Helvetica,sans-Serif" font-size="10.00" fill="#000000">+ get()</text>
<text text-anchor="start" x="21" y="-322.5" font-family="Helvetica,sans-Serif" font-size="10.00" fill="#000000">+ get()</text>
<text text-anchor="start" x="21" y="-311.5" font-family="Helvetica,sans-Serif" font-size="10.00" fill="#000000">+ get()</text>
<text text-anchor="start" x="21" y="-300.5" font-family="Helvetica,sans-Serif" font-size="10.00" fill="#000000">+ next()</text>
<text text-anchor="start" x="21" y="-289.5" font-family="Helvetica,sans-Serif" font-size="10.00" fill="#000000">+ get()</text>
<text text-anchor="start" x="21" y="-278.5" font-family="Helvetica,sans-Serif" font-size="10.00" fill="#000000">+ get()</text>
<text text-anchor="start" x="21" y="-267.5" font-family="Helvetica,sans-Serif" font-size="10.00" fill="#000000">+ get()</text>
<text text-anchor="start" x="21" y="-256.5" font-family="Helvetica,sans-Serif" font-size="10.00" fill="#000000">and 9 more...</text>
<text text-anchor="start" x="21" y="-245.5" font-family="Helvetica,sans-Serif" font-size="10.00" fill="#000000"># getValue()</text>
<text text-anchor="start" x="21" y="-234.5" font-family="Helvetica,sans-Serif" font-size="10.00" fill="#000000"># getDateFormatter()</text>
<text text-anchor="start" x="21" y="-223.5" font-family="Helvetica,sans-Serif" font-size="10.00" fill="#000000"># getTimeFormatter()</text>
<text text-anchor="start" x="21" y="-212.5" font-family="Helvetica,sans-Serif" font-size="10.00" fill="#000000"># getTimestampFormatter()</text>
<text text-anchor="start" x="21" y="-201.5" font-family="Helvetica,sans-Serif" font-size="10.00" fill="#000000"># getDefaultDateFormatter()</text>
<text text-anchor="start" x="21" y="-190.5" font-family="Helvetica,sans-Serif" font-size="10.00" fill="#000000"># getDefaultTimeFormatter()</text>
<text text-anchor="start" x="21" y="-179.5" font-family="Helvetica,sans-Serif" font-size="10.00" fill="#000000"># getDefaultTimestampFormatter()</text>
</a>
</g>
</g>
<!-- Node3&#45;&gt;Node2 -->
<g id="edge1" class="edge">
<title>Node3&#45;&gt;Node2</title>
<path fill="none" stroke="#191970" d="M108.5,-162.1205C108.5,-152.7348 108.5,-143.5263 108.5,-134.7616"/>
<polygon fill="none" stroke="#191970" points="105.0001,-162.3619 108.5,-172.3619 112.0001,-162.362 105.0001,-162.3619"/>
</g>
<!-- Node4 -->
<g id="node3" class="node">
<title>Node4</title>
<polygon fill="none" stroke="#bfbfbf" points="47.5,-464.5 47.5,-532.5 169.5,-532.5 169.5,-464.5 47.5,-464.5"/>
<text text-anchor="start" x="55.5" y="-520.5" font-family="Helvetica,sans-Serif" font-size="10.00" fill="#000000">std::map&lt; std::string,</text>
<text text-anchor="middle" x="108.5" y="-509.5" font-family="Helvetica,sans-Serif" font-size="10.00" fill="#000000"> std::size_t &gt;</text>
<polyline fill="none" stroke="#bfbfbf" points="47.5,-502.5 169.5,-502.5 "/>
<text text-anchor="start" x="55.5" y="-490.5" font-family="Helvetica,sans-Serif" font-size="10.00" fill="#000000">+ elements</text>
<polyline fill="none" stroke="#bfbfbf" points="47.5,-483.5 169.5,-483.5 "/>
<text text-anchor="middle" x="108.5" y="-471.5" font-family="Helvetica,sans-Serif" font-size="10.00" fill="#000000"> </text>
</g>
<!-- Node4&#45;&gt;Node3 -->
<g id="edge2" class="edge">
<title>Node4&#45;&gt;Node3</title>
<path fill="none" stroke="#404040" d="M108.5,-464.355C108.5,-453.934 108.5,-441.7837 108.5,-428.8602"/>
<polygon fill="none" stroke="#404040" points="108.5001,-428.8017 104.5,-422.8018 108.5,-416.8017 112.5,-422.8017 108.5001,-428.8017"/>
<text text-anchor="middle" x="130" y="-438" font-family="Helvetica,sans-Serif" font-size="10.00" fill="#000000"> #_fields</text>
</g>
<!-- Node5 -->
<g id="node4" class="node">
<title>Node5</title>
<g id="a_node4"><a xlink:title="STL class. ">
<polygon fill="none" stroke="#bfbfbf" points="26,-591.5 26,-648.5 91,-648.5 91,-591.5 26,-591.5"/>
<text text-anchor="middle" x="58.5" y="-636.5" font-family="Helvetica,sans-Serif" font-size="10.00" fill="#000000">std::string</text>
<polyline fill="none" stroke="#bfbfbf" points="26,-629.5 91,-629.5 "/>
<text text-anchor="middle" x="58.5" y="-617.5" font-family="Helvetica,sans-Serif" font-size="10.00" fill="#000000"> </text>
<polyline fill="none" stroke="#bfbfbf" points="26,-610.5 91,-610.5 "/>
<text text-anchor="middle" x="58.5" y="-598.5" font-family="Helvetica,sans-Serif" font-size="10.00" fill="#000000"> </text>
</a>
</g>
</g>
<!-- Node5&#45;&gt;Node4 -->
<g id="edge3" class="edge">
<title>Node5&#45;&gt;Node4</title>
<path fill="none" stroke="#404040" d="M70.3493,-591.2062C76.1588,-577.0891 83.2928,-559.7535 89.8136,-543.908"/>
<polygon fill="none" stroke="#404040" points="89.8589,-543.7978 88.4432,-536.727 94.4256,-532.7007 95.8413,-539.7715 89.8589,-543.7978"/>
<text text-anchor="middle" x="104" y="-559.5" font-family="Helvetica,sans-Serif" font-size="10.00" fill="#000000"> +keys</text>
</g>
<!-- Node6 -->
<g id="node5" class="node">
<title>Node6</title>
<g id="a_node5"><a xlink:title="STL class. ">
<polygon fill="none" stroke="#bfbfbf" points="6.5,-696.5 6.5,-764.5 110.5,-764.5 110.5,-696.5 6.5,-696.5"/>
<text text-anchor="start" x="14.5" y="-752.5" font-family="Helvetica,sans-Serif" font-size="10.00" fill="#000000">std::basic_string&lt;</text>
<text text-anchor="middle" x="58.5" y="-741.5" font-family="Helvetica,sans-Serif" font-size="10.00" fill="#000000"> char &gt;</text>
<polyline fill="none" stroke="#bfbfbf" points="6.5,-734.5 110.5,-734.5 "/>
<text text-anchor="middle" x="58.5" y="-722.5" font-family="Helvetica,sans-Serif" font-size="10.00" fill="#000000"> </text>
<polyline fill="none" stroke="#bfbfbf" points="6.5,-715.5 110.5,-715.5 "/>
<text text-anchor="middle" x="58.5" y="-703.5" font-family="Helvetica,sans-Serif" font-size="10.00" fill="#000000"> </text>
</a>
</g>
</g>
<!-- Node6&#45;&gt;Node5 -->
<g id="edge4" class="edge">
<title>Node6&#45;&gt;Node5</title>
<path fill="none" stroke="#191970" d="M58.5,-686.0661C58.5,-673.4172 58.5,-659.9812 58.5,-648.5519"/>
<polygon fill="none" stroke="#191970" points="55.0001,-686.4447 58.5,-696.4447 62.0001,-686.4447 55.0001,-686.4447"/>
</g>
<!-- Node7 -->
<g id="node6" class="node">
<title>Node7</title>
<g id="a_node6"><a xlink:title="STL class. ">
<polygon fill="none" stroke="#bfbfbf" points="109,-591.5 109,-648.5 210,-648.5 210,-591.5 109,-591.5"/>
<text text-anchor="middle" x="159.5" y="-636.5" font-family="Helvetica,sans-Serif" font-size="10.00" fill="#000000">std::map&lt; K, T &gt;</text>
<polyline fill="none" stroke="#bfbfbf" points="109,-629.5 210,-629.5 "/>
<text text-anchor="middle" x="159.5" y="-617.5" font-family="Helvetica,sans-Serif" font-size="10.00" fill="#000000"> </text>
<polyline fill="none" stroke="#bfbfbf" points="109,-610.5 210,-610.5 "/>
<text text-anchor="middle" x="159.5" y="-598.5" font-family="Helvetica,sans-Serif" font-size="10.00" fill="#000000"> </text>
</a>
</g>
</g>
<!-- Node7&#45;&gt;Node4 -->
<g id="edge5" class="edge">
<title>Node7&#45;&gt;Node4</title>
<path fill="none" stroke="#ffa500" d="M143.451,-581.7657C136.8516,-566.0436 129.2685,-547.9779 122.8559,-532.7007"/>
<polygon fill="#ffa500" stroke="#ffa500" points="140.316,-583.3402 147.4137,-591.2062 146.7705,-580.6309 140.316,-583.3402"/>
<text text-anchor="start" x="139.5" y="-565" font-family="Helvetica,sans-Serif" font-size="10.00" fill="#000000"> &lt; std::string, std</text>
<text text-anchor="middle" x="182" y="-554" font-family="Helvetica,sans-Serif" font-size="10.00" fill="#000000">::size_t &gt;</text>
</g>
<!-- Node8 -->
<g id="node7" class="node">
<title>Node8</title>
<polygon fill="none" stroke="#bfbfbf" points="137,-702 137,-759 166,-759 166,-702 137,-702"/>
<text text-anchor="middle" x="151.5" y="-747" font-family="Helvetica,sans-Serif" font-size="10.00" fill="#000000">K</text>
<polyline fill="none" stroke="#bfbfbf" points="137,-740 166,-740 "/>
<text text-anchor="middle" x="151.5" y="-728" font-family="Helvetica,sans-Serif" font-size="10.00" fill="#000000"> </text>
<polyline fill="none" stroke="#bfbfbf" points="137,-721 166,-721 "/>
<text text-anchor="middle" x="151.5" y="-709" font-family="Helvetica,sans-Serif" font-size="10.00" fill="#000000"> </text>
</g>
<!-- Node8&#45;&gt;Node7 -->
<g id="edge6" class="edge">
<title>Node8&#45;&gt;Node7</title>
<path fill="none" stroke="#404040" d="M151.1503,-701.6952C151.229,-690.8085 151.5721,-678.3185 152.5,-667 152.6668,-664.965 152.8668,-662.8842 153.092,-660.7855"/>
<polygon fill="none" stroke="#404040" points="153.1065,-660.6697 149.8853,-654.218 154.6018,-648.7632 157.823,-655.2149 153.1065,-660.6697"/>
<text text-anchor="middle" x="170" y="-670" font-family="Helvetica,sans-Serif" font-size="10.00" fill="#000000"> +keys</text>
</g>
<!-- Node9 -->
<g id="node8" class="node">
<title>Node9</title>
<polygon fill="none" stroke="#bfbfbf" points="195,-702 195,-759 224,-759 224,-702 195,-702"/>
<text text-anchor="middle" x="209.5" y="-747" font-family="Helvetica,sans-Serif" font-size="10.00" fill="#000000">T</text>
<polyline fill="none" stroke="#bfbfbf" points="195,-740 224,-740 "/>
<text text-anchor="middle" x="209.5" y="-728" font-family="Helvetica,sans-Serif" font-size="10.00" fill="#000000"> </text>
<polyline fill="none" stroke="#bfbfbf" points="195,-721 224,-721 "/>
<text text-anchor="middle" x="209.5" y="-709" font-family="Helvetica,sans-Serif" font-size="10.00" fill="#000000"> </text>
</g>
<!-- Node9&#45;&gt;Node7 -->
<g id="edge7" class="edge">
<title>Node9&#45;&gt;Node7</title>
<path fill="none" stroke="#404040" d="M200.9601,-701.878C197.2964,-690.786 192.667,-678.1076 187.5,-667 186.3001,-664.4205 184.9976,-661.8012 183.6331,-659.1867"/>
<polygon fill="none" stroke="#404040" points="183.5773,-659.0856 177.1755,-655.7662 177.7773,-648.5803 184.1791,-651.8996 183.5773,-659.0856"/>
<text text-anchor="middle" x="221.5" y="-670" font-family="Helvetica,sans-Serif" font-size="10.00" fill="#000000"> +elements</text>
</g>
</g>
</svg>
        <g id="navigator" transform="translate(0 0)" fill="#404254">
                <rect fill="#f2f5e9" fill-opacity="0.5" stroke="#606060" stroke-width=".5" x="0" y="0" width="60" height="60"/>
                <use id="zoomplus" xlink:href="#zoomPlus" x="17" y="9" onmousedown="handleZoom(evt,'in')"/>
                <use id="zoomminus" xlink:href="#zoomMin" x="42" y="9" onmousedown="handleZoom(evt,'out')"/>
                <use id="reset" xlink:href="#resetDef" x="30" y="36" onmousedown="handleReset()"/>
                <g id="arrowUp" xlink:href="#dirArrow" transform="translate(30 24)" onmousedown="handlePan(0,-1)">
                  <use xlink:href="#rim" fill="#404040">
                        <set attributeName="fill" to="#808080" begin="arrowUp.mouseover" end="arrowUp.mouseout"/>
                  </use>
                  <path fill="none" stroke="white" stroke-width="1.5" d="M0,-3.0v7 M-2.5,-0.5L0,-3.0L2.5,-0.5"/>
                </g>
                <g id="arrowRight" xlink:href="#dirArrow" transform="rotate(90) translate(36 -43)" onmousedown="handlePan(1,0)">
                  <use xlink:href="#rim" fill="#404040">
                        <set attributeName="fill" to="#808080" begin="arrowRight.mouseover" end="arrowRight.mouseout"/>
                  </use>
                  <path fill="none" stroke="white" stroke-width="1.5" d="M0,-3.0v7 M-2.5,-0.5L0,-3.0L2.5,-0.5"/>
                </g>
                <g id="arrowDown" xlink:href="#dirArrow" transform="rotate(180) translate(-30 -48)" onmousedown="handlePan(0,1)">
                  <use xlink:href="#rim" fill="#404040">
                        <set attributeName="fill" to="#808080" begin="arrowDown.mouseover" end="arrowDown.mouseout"/>
                  </use>
                  <path fill="none" stroke="white" stroke-width="1.5" d="M0,-3.0v7 M-2.5,-0.5L0,-3.0L2.5,-0.5"/>
                </g>
                <g id="arrowLeft" xlink:href="#dirArrow" transform="rotate(270) translate(-36 17)" onmousedown="handlePan(-1,0)">
                  <use xlink:href="#rim" fill="#404040">
                        <set attributeName="fill" to="#808080" begin="arrowLeft.mouseover" end="arrowLeft.mouseout"/>
                  </use>
                  <path fill="none" stroke="white" stroke-width="1.5" d="M0,-3.0v7 M-2.5,-0.5L0,-3.0L2.5,-0.5"/>
                </g>
        </g>
        <svg viewBox="0 0 15 15" width="100%" height="30px" preserveAspectRatio="xMaxYMin meet">
         <g id="arrow_out" transform="scale(0.3 0.3)">
          <a xlink:href="classanch_1_1sql_1_1_my_s_q_l_prepared_statement_result_set__coll__graph_org.svg" target="_base">
           <rect id="button" ry="5" rx="5" y="6" x="6" height="38" width="38"
                fill="#f2f5e9" fill-opacity="0.5" stroke="#606060" stroke-width="1.0"/>
           <path id="arrow"
             d="M 11.500037,31.436501 C 11.940474,20.09759 22.043105,11.32322 32.158766,21.979434 L 37.068811,17.246167 C 37.068811,17.246167 37.088388,32 37.088388,32 L 22.160133,31.978069 C 22.160133,31.978069 26.997745,27.140456 26.997745,27.140456 C 18.528582,18.264221 13.291696,25.230495 11.500037,31.436501 z"
             style="fill:#404040;"/>
          </a>
         </g>
        </svg>
</svg>
