<?xml version="1.0" encoding="UTF-8" standalone="no"?>
<!DOCTYPE svg PUBLIC "-//W3C//DTD SVG 1.1//EN"
 "http://www.w3.org/Graphics/SVG/1.1/DTD/svg11.dtd">
<!-- Generated by graphviz version 12.2.1 (0)
 -->
<!-- Title: anch::crypto::AES&lt; K, R &gt; Pages: 1 -->
<svg width="326pt" height="657pt"
 viewBox="0.00 0.00 326.25 657.00" xmlns="http://www.w3.org/2000/svg" xmlns:xlink="http://www.w3.org/1999/xlink">
<g id="graph0" class="graph" transform="scale(1 1) rotate(0) translate(4 653)">
<title>anch::crypto::AES&lt; K, R &gt;</title>
<!-- Node1 -->
<g id="Node000001" class="node">
<title>Node1</title>
<g id="a_Node000001"><a xlink:title="AES block cipher algorithm implementation.">
<polygon fill="#999999" stroke="none" points="206.25,-384 112,-384 112,-256 206.25,-256 206.25,-384"/>
<text text-anchor="start" x="116" y="-370.5" font-family="Helvetica,sans-Serif" font-size="10.00">anch::crypto::AES&lt;</text>
<text text-anchor="start" x="143" y="-358.5" font-family="Helvetica,sans-Serif" font-size="10.00"> K, R &gt;</text>
<text text-anchor="start" x="157.62" y="-342.5" font-family="Helvetica,sans-Serif" font-size="10.00"> </text>
<text text-anchor="start" x="124.38" y="-326.5" font-family="Helvetica,sans-Serif" font-size="10.00">+</text>
<text text-anchor="start" x="142.75" y="-326.5" font-family="Helvetica,sans-Serif" font-size="10.00">AES()</text>
<text text-anchor="start" x="124.38" y="-310.5" font-family="Helvetica,sans-Serif" font-size="10.00">+</text>
<text text-anchor="start" x="142.75" y="-310.5" font-family="Helvetica,sans-Serif" font-size="10.00">AES()</text>
<text text-anchor="start" x="124.38" y="-294.5" font-family="Helvetica,sans-Serif" font-size="10.00">+</text>
<text text-anchor="start" x="142.75" y="-294.5" font-family="Helvetica,sans-Serif" font-size="10.00">~AES()</text>
<text text-anchor="start" x="124.38" y="-278.5" font-family="Helvetica,sans-Serif" font-size="10.00">+</text>
<text text-anchor="start" x="142.75" y="-278.5" font-family="Helvetica,sans-Serif" font-size="10.00">cipher()</text>
<text text-anchor="start" x="124.38" y="-262.5" font-family="Helvetica,sans-Serif" font-size="10.00">+</text>
<text text-anchor="start" x="142.75" y="-262.5" font-family="Helvetica,sans-Serif" font-size="10.00">decipher()</text>
<polygon fill="#666666" stroke="#666666" points="112,-354 112,-354 206.25,-354 206.25,-354 112,-354"/>
<polygon fill="#666666" stroke="#666666" points="112,-338 112,-338 206.25,-338 206.25,-338 112,-338"/>
<polygon fill="none" stroke="#666666" points="112,-256 112,-384 206.25,-384 206.25,-256 112,-256"/>
</a>
</g>
</g>
<!-- Node4 -->
<g id="Node000004" class="node">
<title>Node4</title>
<g id="a_Node000004"><a xlink:href="classanch_1_1crypto_1_1_a_e_s.html" target="_top" xlink:title=" ">
<polygon fill="white" stroke="none" points="94.25,-208 0,-208 0,0 94.25,0 94.25,-208"/>
<text text-anchor="start" x="4" y="-194.5" font-family="Helvetica,sans-Serif" font-size="10.00">anch::crypto::AES&lt;</text>
<text text-anchor="start" x="30.25" y="-182.5" font-family="Helvetica,sans-Serif" font-size="10.00"> 4, 10 &gt;</text>
<text text-anchor="start" x="45.62" y="-166.5" font-family="Helvetica,sans-Serif" font-size="10.00"> </text>
<text text-anchor="start" x="12.38" y="-150.5" font-family="Helvetica,sans-Serif" font-size="10.00">+</text>
<text text-anchor="start" x="30.75" y="-150.5" font-family="Helvetica,sans-Serif" font-size="10.00">AES()</text>
<text text-anchor="start" x="12.38" y="-134.5" font-family="Helvetica,sans-Serif" font-size="10.00">+</text>
<text text-anchor="start" x="30.75" y="-134.5" font-family="Helvetica,sans-Serif" font-size="10.00">AES()</text>
<text text-anchor="start" x="12.38" y="-118.5" font-family="Helvetica,sans-Serif" font-size="10.00">+</text>
<text text-anchor="start" x="30.75" y="-118.5" font-family="Helvetica,sans-Serif" font-size="10.00">~AES()</text>
<text text-anchor="start" x="12.38" y="-102.5" font-family="Helvetica,sans-Serif" font-size="10.00">+</text>
<text text-anchor="start" x="30.75" y="-102.5" font-family="Helvetica,sans-Serif" font-size="10.00">cipher()</text>
<text text-anchor="start" x="12.38" y="-86.5" font-family="Helvetica,sans-Serif" font-size="10.00">+</text>
<text text-anchor="start" x="30.75" y="-86.5" font-family="Helvetica,sans-Serif" font-size="10.00">decipher()</text>
<text text-anchor="start" x="12.38" y="-70.5" font-family="Helvetica,sans-Serif" font-size="10.00">+</text>
<text text-anchor="start" x="30.75" y="-70.5" font-family="Helvetica,sans-Serif" font-size="10.00">AES()</text>
<text text-anchor="start" x="12.38" y="-54.5" font-family="Helvetica,sans-Serif" font-size="10.00">+</text>
<text text-anchor="start" x="30.75" y="-54.5" font-family="Helvetica,sans-Serif" font-size="10.00">AES()</text>
<text text-anchor="start" x="12.38" y="-38.5" font-family="Helvetica,sans-Serif" font-size="10.00">+</text>
<text text-anchor="start" x="30.75" y="-38.5" font-family="Helvetica,sans-Serif" font-size="10.00">~AES()</text>
<text text-anchor="start" x="12.38" y="-22.5" font-family="Helvetica,sans-Serif" font-size="10.00">+</text>
<text text-anchor="start" x="30.75" y="-22.5" font-family="Helvetica,sans-Serif" font-size="10.00">cipher()</text>
<text text-anchor="start" x="12.38" y="-6.5" font-family="Helvetica,sans-Serif" font-size="10.00">+</text>
<text text-anchor="start" x="30.75" y="-6.5" font-family="Helvetica,sans-Serif" font-size="10.00">decipher()</text>
<polygon fill="#666666" stroke="#666666" points="0,-178 0,-178 94.25,-178 94.25,-178 0,-178"/>
<polygon fill="#666666" stroke="#666666" points="0,-162 0,-162 94.25,-162 94.25,-162 0,-162"/>
<polygon fill="none" stroke="#666666" points="0,0 0,-208 94.25,-208 94.25,0 0,0"/>
</a>
</g>
</g>
<!-- Node1&#45;&gt;Node4 -->
<g id="edge3_Node000001_Node000004" class="edge">
<title>Node1&#45;&gt;Node4</title>
<g id="a_edge3_Node000001_Node000004"><a xlink:title=" ">
<path fill="none" stroke="orange" d="M117.01,-246.57C115.43,-243.69 113.88,-240.82 112.38,-238 106.33,-226.65 100.15,-214.66 94.13,-202.72"/>
<polygon fill="orange" stroke="orange" points="113.83,-248.06 121.73,-255.12 119.95,-244.67 113.83,-248.06"/>
</a>
</g>
<text text-anchor="middle" x="133.75" y="-228.5" font-family="Helvetica,sans-Serif" font-size="10.00" fill="grey"> &lt; 4, 10 &gt;</text>
</g>
<!-- Node5 -->
<g id="Node000005" class="node">
<title>Node5</title>
<g id="a_Node000005"><a xlink:href="classanch_1_1crypto_1_1_a_e_s.html" target="_top" xlink:title=" ">
<polygon fill="white" stroke="none" points="206.25,-208 112,-208 112,0 206.25,0 206.25,-208"/>
<text text-anchor="start" x="116" y="-194.5" font-family="Helvetica,sans-Serif" font-size="10.00">anch::crypto::AES&lt;</text>
<text text-anchor="start" x="142.25" y="-182.5" font-family="Helvetica,sans-Serif" font-size="10.00"> 6, 12 &gt;</text>
<text text-anchor="start" x="157.62" y="-166.5" font-family="Helvetica,sans-Serif" font-size="10.00"> </text>
<text text-anchor="start" x="124.38" y="-150.5" font-family="Helvetica,sans-Serif" font-size="10.00">+</text>
<text text-anchor="start" x="142.75" y="-150.5" font-family="Helvetica,sans-Serif" font-size="10.00">AES()</text>
<text text-anchor="start" x="124.38" y="-134.5" font-family="Helvetica,sans-Serif" font-size="10.00">+</text>
<text text-anchor="start" x="142.75" y="-134.5" font-family="Helvetica,sans-Serif" font-size="10.00">AES()</text>
<text text-anchor="start" x="124.38" y="-118.5" font-family="Helvetica,sans-Serif" font-size="10.00">+</text>
<text text-anchor="start" x="142.75" y="-118.5" font-family="Helvetica,sans-Serif" font-size="10.00">~AES()</text>
<text text-anchor="start" x="124.38" y="-102.5" font-family="Helvetica,sans-Serif" font-size="10.00">+</text>
<text text-anchor="start" x="142.75" y="-102.5" font-family="Helvetica,sans-Serif" font-size="10.00">cipher()</text>
<text text-anchor="start" x="124.38" y="-86.5" font-family="Helvetica,sans-Serif" font-size="10.00">+</text>
<text text-anchor="start" x="142.75" y="-86.5" font-family="Helvetica,sans-Serif" font-size="10.00">decipher()</text>
<text text-anchor="start" x="124.38" y="-70.5" font-family="Helvetica,sans-Serif" font-size="10.00">+</text>
<text text-anchor="start" x="142.75" y="-70.5" font-family="Helvetica,sans-Serif" font-size="10.00">AES()</text>
<text text-anchor="start" x="124.38" y="-54.5" font-family="Helvetica,sans-Serif" font-size="10.00">+</text>
<text text-anchor="start" x="142.75" y="-54.5" font-family="Helvetica,sans-Serif" font-size="10.00">AES()</text>
<text text-anchor="start" x="124.38" y="-38.5" font-family="Helvetica,sans-Serif" font-size="10.00">+</text>
<text text-anchor="start" x="142.75" y="-38.5" font-family="Helvetica,sans-Serif" font-size="10.00">~AES()</text>
<text text-anchor="start" x="124.38" y="-22.5" font-family="Helvetica,sans-Serif" font-size="10.00">+</text>
<text text-anchor="start" x="142.75" y="-22.5" font-family="Helvetica,sans-Serif" font-size="10.00">cipher()</text>
<text text-anchor="start" x="124.38" y="-6.5" font-family="Helvetica,sans-Serif" font-size="10.00">+</text>
<text text-anchor="start" x="142.75" y="-6.5" font-family="Helvetica,sans-Serif" font-size="10.00">decipher()</text>
<polygon fill="#666666" stroke="#666666" points="112,-178 112,-178 206.25,-178 206.25,-178 112,-178"/>
<polygon fill="#666666" stroke="#666666" points="112,-162 112,-162 206.25,-162 206.25,-162 112,-162"/>
<polygon fill="none" stroke="#666666" points="112,0 112,-208 206.25,-208 206.25,0 112,0"/>
</a>
</g>
</g>
<!-- Node1&#45;&gt;Node5 -->
<g id="edge4_Node000001_Node000005" class="edge">
<title>Node1&#45;&gt;Node5</title>
<g id="a_edge4_Node000001_Node000005"><a xlink:title=" ">
<path fill="none" stroke="orange" d="M159.12,-244.99C159.12,-233.03 159.12,-220.47 159.12,-207.98"/>
<polygon fill="orange" stroke="orange" points="155.63,-244.73 159.13,-254.73 162.63,-244.73 155.63,-244.73"/>
</a>
</g>
<text text-anchor="middle" x="180.5" y="-228.5" font-family="Helvetica,sans-Serif" font-size="10.00" fill="grey"> &lt; 6, 12 &gt;</text>
</g>
<!-- Node6 -->
<g id="Node000006" class="node">
<title>Node6</title>
<g id="a_Node000006"><a xlink:href="classanch_1_1crypto_1_1_a_e_s.html" target="_top" xlink:title=" ">
<polygon fill="white" stroke="none" points="318.25,-208 224,-208 224,0 318.25,0 318.25,-208"/>
<text text-anchor="start" x="228" y="-194.5" font-family="Helvetica,sans-Serif" font-size="10.00">anch::crypto::AES&lt;</text>
<text text-anchor="start" x="254.25" y="-182.5" font-family="Helvetica,sans-Serif" font-size="10.00"> 8, 14 &gt;</text>
<text text-anchor="start" x="269.62" y="-166.5" font-family="Helvetica,sans-Serif" font-size="10.00"> </text>
<text text-anchor="start" x="236.38" y="-150.5" font-family="Helvetica,sans-Serif" font-size="10.00">+</text>
<text text-anchor="start" x="254.75" y="-150.5" font-family="Helvetica,sans-Serif" font-size="10.00">AES()</text>
<text text-anchor="start" x="236.38" y="-134.5" font-family="Helvetica,sans-Serif" font-size="10.00">+</text>
<text text-anchor="start" x="254.75" y="-134.5" font-family="Helvetica,sans-Serif" font-size="10.00">AES()</text>
<text text-anchor="start" x="236.38" y="-118.5" font-family="Helvetica,sans-Serif" font-size="10.00">+</text>
<text text-anchor="start" x="254.75" y="-118.5" font-family="Helvetica,sans-Serif" font-size="10.00">~AES()</text>
<text text-anchor="start" x="236.38" y="-102.5" font-family="Helvetica,sans-Serif" font-size="10.00">+</text>
<text text-anchor="start" x="254.75" y="-102.5" font-family="Helvetica,sans-Serif" font-size="10.00">cipher()</text>
<text text-anchor="start" x="236.38" y="-86.5" font-family="Helvetica,sans-Serif" font-size="10.00">+</text>
<text text-anchor="start" x="254.75" y="-86.5" font-family="Helvetica,sans-Serif" font-size="10.00">decipher()</text>
<text text-anchor="start" x="236.38" y="-70.5" font-family="Helvetica,sans-Serif" font-size="10.00">+</text>
<text text-anchor="start" x="254.75" y="-70.5" font-family="Helvetica,sans-Serif" font-size="10.00">AES()</text>
<text text-anchor="start" x="236.38" y="-54.5" font-family="Helvetica,sans-Serif" font-size="10.00">+</text>
<text text-anchor="start" x="254.75" y="-54.5" font-family="Helvetica,sans-Serif" font-size="10.00">AES()</text>
<text text-anchor="start" x="236.38" y="-38.5" font-family="Helvetica,sans-Serif" font-size="10.00">+</text>
<text text-anchor="start" x="254.75" y="-38.5" font-family="Helvetica,sans-Serif" font-size="10.00">~AES()</text>
<text text-anchor="start" x="236.38" y="-22.5" font-family="Helvetica,sans-Serif" font-size="10.00">+</text>
<text text-anchor="start" x="254.75" y="-22.5" font-family="Helvetica,sans-Serif" font-size="10.00">cipher()</text>
<text text-anchor="start" x="236.38" y="-6.5" font-family="Helvetica,sans-Serif" font-size="10.00">+</text>
<text text-anchor="start" x="254.75" y="-6.5" font-family="Helvetica,sans-Serif" font-size="10.00">decipher()</text>
<polygon fill="#666666" stroke="#666666" points="224,-178 224,-178 318.25,-178 318.25,-178 224,-178"/>
<polygon fill="#666666" stroke="#666666" points="224,-162 224,-162 318.25,-162 318.25,-162 224,-162"/>
<polygon fill="none" stroke="#666666" points="224,0 224,-208 318.25,-208 318.25,0 224,0"/>
</a>
</g>
</g>
<!-- Node1&#45;&gt;Node6 -->
<g id="edge5_Node000001_Node000006" class="edge">
<title>Node1&#45;&gt;Node6</title>
<g id="a_edge5_Node000001_Node000006"><a xlink:title=" ">
<path fill="none" stroke="orange" d="M201.75,-246.09C203.24,-243.37 204.7,-240.66 206.12,-238 212.11,-226.78 218.22,-214.92 224.17,-203.1"/>
<polygon fill="orange" stroke="orange" points="198.77,-244.24 196.99,-254.69 204.9,-247.64 198.77,-244.24"/>
</a>
</g>
<text text-anchor="middle" x="233.1" y="-228.5" font-family="Helvetica,sans-Serif" font-size="10.00" fill="grey"> &lt; 8, 14 &gt;</text>
</g>
<!-- Node2 -->
<g id="Node000002" class="node">
<title>Node2</title>
<g id="a_Node000002"><a xlink:href="classanch_1_1crypto_1_1_block_cipher.html" target="_top" xlink:title=" ">
<polygon fill="white" stroke="none" points="219.75,-517 98.5,-517 98.5,-421 219.75,-421 219.75,-517"/>
<text text-anchor="start" x="102.5" y="-503.5" font-family="Helvetica,sans-Serif" font-size="10.00">anch::crypto::BlockCipher</text>
<text text-anchor="start" x="144.88" y="-491.5" font-family="Helvetica,sans-Serif" font-size="10.00">&lt; 16 &gt;</text>
<text text-anchor="start" x="157.62" y="-475.5" font-family="Helvetica,sans-Serif" font-size="10.00"> </text>
<text text-anchor="start" x="112.38" y="-459.5" font-family="Helvetica,sans-Serif" font-size="10.00">+</text>
<text text-anchor="start" x="132.25" y="-459.5" font-family="Helvetica,sans-Serif" font-size="10.00">cipher()</text>
<text text-anchor="start" x="112.38" y="-443.5" font-family="Helvetica,sans-Serif" font-size="10.00">+</text>
<text text-anchor="start" x="132.25" y="-443.5" font-family="Helvetica,sans-Serif" font-size="10.00">decipher()</text>
<text text-anchor="start" x="112.38" y="-427.5" font-family="Helvetica,sans-Serif" font-size="10.00">+</text>
<text text-anchor="start" x="132.25" y="-427.5" font-family="Helvetica,sans-Serif" font-size="10.00">getBlockSize()</text>
<polygon fill="#666666" stroke="#666666" points="98.5,-487 98.5,-487 219.75,-487 219.75,-487 98.5,-487"/>
<polygon fill="#666666" stroke="#666666" points="98.5,-471 98.5,-471 219.75,-471 219.75,-471 98.5,-471"/>
<polygon fill="none" stroke="#666666" points="98.5,-421 98.5,-517 219.75,-517 219.75,-421 98.5,-421"/>
</a>
</g>
</g>
<!-- Node2&#45;&gt;Node1 -->
<g id="edge1_Node000001_Node000002" class="edge">
<title>Node2&#45;&gt;Node1</title>
<g id="a_edge1_Node000001_Node000002"><a xlink:title=" ">
<path fill="none" stroke="#63b8ff" d="M159.12,-409.71C159.12,-401.21 159.12,-392.42 159.12,-383.83"/>
<polygon fill="none" stroke="#63b8ff" points="155.63,-409.57 159.13,-419.57 162.63,-409.57 155.63,-409.57"/>
</a>
</g>
</g>
<!-- Node3 -->
<g id="Node000003" class="node">
<title>Node3</title>
<g id="a_Node000003"><a xlink:href="classanch_1_1crypto_1_1_block_cipher.html" target="_top" xlink:title="Block cipher interface.">
<polygon fill="white" stroke="none" points="232.12,-649 86.12,-649 86.12,-565 232.12,-565 232.12,-649"/>
<text text-anchor="start" x="90.12" y="-635.5" font-family="Helvetica,sans-Serif" font-size="10.00">anch::crypto::BlockCipher&lt; B &gt;</text>
<text text-anchor="start" x="157.62" y="-619.5" font-family="Helvetica,sans-Serif" font-size="10.00"> </text>
<text text-anchor="start" x="106.19" y="-603.5" font-family="Helvetica,sans-Serif" font-size="10.00">+</text>
<text text-anchor="start" x="132.25" y="-603.5" font-family="Helvetica,sans-Serif" font-size="10.00">cipher()</text>
<text text-anchor="start" x="106.19" y="-587.5" font-family="Helvetica,sans-Serif" font-size="10.00">+</text>
<text text-anchor="start" x="132.25" y="-587.5" font-family="Helvetica,sans-Serif" font-size="10.00">decipher()</text>
<text text-anchor="start" x="106.19" y="-571.5" font-family="Helvetica,sans-Serif" font-size="10.00">+</text>
<text text-anchor="start" x="132.25" y="-571.5" font-family="Helvetica,sans-Serif" font-size="10.00">getBlockSize()</text>
<polygon fill="#666666" stroke="#666666" points="86.12,-631 86.12,-631 232.12,-631 232.12,-631 86.12,-631"/>
<polygon fill="#666666" stroke="#666666" points="86.12,-615 86.12,-615 232.12,-615 232.12,-615 86.12,-615"/>
<polygon fill="none" stroke="#666666" points="86.12,-565 86.12,-649 232.12,-649 232.12,-565 86.12,-565"/>
</a>
</g>
</g>
<!-- Node3&#45;&gt;Node2 -->
<g id="edge2_Node000002_Node000003" class="edge">
<title>Node3&#45;&gt;Node2</title>
<g id="a_edge2_Node000002_Node000003"><a xlink:title=" ">
<path fill="none" stroke="orange" d="M159.12,-553.84C159.12,-541.71 159.12,-528.87 159.12,-516.98"/>
<polygon fill="orange" stroke="orange" points="155.63,-553.68 159.13,-563.68 162.63,-553.68 155.63,-553.68"/>
</a>
</g>
<text text-anchor="middle" x="174.88" y="-537.5" font-family="Helvetica,sans-Serif" font-size="10.00" fill="grey"> &lt; 16 &gt;</text>
</g>
</g>
</svg>
