<?xml version="1.0" encoding="UTF-8" standalone="no"?>
<!DOCTYPE svg PUBLIC "-//W3C//DTD SVG 1.1//EN"
 "http://www.w3.org/Graphics/SVG/1.1/DTD/svg11.dtd">
<!-- Generated by graphviz version 2.40.1 (20161225.0304)
 -->
<!-- Title: anch::events::EventBus&lt; Event &gt; Pages: 1 -->
<svg width="205pt" height="365pt"
 viewBox="0.00 0.00 204.50 365.00" xmlns="http://www.w3.org/2000/svg" xmlns:xlink="http://www.w3.org/1999/xlink">
<g id="graph0" class="graph" transform="scale(1 1) rotate(0) translate(4 361)">
<title>anch::events::EventBus&lt; Event &gt;</title>
<!-- Node3 -->
<g id="node1" class="node">
<title>Node3</title>
<polygon fill="#bfbfbf" stroke="#000000" points="9,-.5 9,-145.5 140,-145.5 140,-.5 9,-.5"/>
<text text-anchor="start" x="17" y="-133.5" font-family="Helvetica,sans-Serif" font-size="10.00" fill="#000000">anch::events::EventBus</text>
<text text-anchor="middle" x="74.5" y="-122.5" font-family="Helvetica,sans-Serif" font-size="10.00" fill="#000000">&lt; Event &gt;</text>
<polyline fill="none" stroke="#000000" points="9,-115.5 140,-115.5 "/>
<text text-anchor="middle" x="74.5" y="-103.5" font-family="Helvetica,sans-Serif" font-size="10.00" fill="#000000"> </text>
<polyline fill="none" stroke="#000000" points="9,-96.5 140,-96.5 "/>
<text text-anchor="start" x="17" y="-84.5" font-family="Helvetica,sans-Serif" font-size="10.00" fill="#000000">+ addObserver()</text>
<text text-anchor="start" x="17" y="-73.5" font-family="Helvetica,sans-Serif" font-size="10.00" fill="#000000">+ removeObserver()</text>
<text text-anchor="start" x="17" y="-62.5" font-family="Helvetica,sans-Serif" font-size="10.00" fill="#000000">+ fireEvent()</text>
<text text-anchor="start" x="17" y="-51.5" font-family="Helvetica,sans-Serif" font-size="10.00" fill="#000000">+ scheduleDeferred()</text>
<text text-anchor="start" x="17" y="-40.5" font-family="Helvetica,sans-Serif" font-size="10.00" fill="#000000">+ AddObserver()</text>
<text text-anchor="start" x="17" y="-29.5" font-family="Helvetica,sans-Serif" font-size="10.00" fill="#000000">+ RemoveObserver()</text>
<text text-anchor="start" x="17" y="-18.5" font-family="Helvetica,sans-Serif" font-size="10.00" fill="#000000">+ FireEvent()</text>
<text text-anchor="start" x="17" y="-7.5" font-family="Helvetica,sans-Serif" font-size="10.00" fill="#000000">+ ScheduleDeferred()</text>
</g>
<!-- Node4 -->
<g id="node2" class="node">
<title>Node4</title>
<g id="a_node2"><a xlink:href="classanch_1_1_singleton.html" target="_top" xlink:title="{anch::Singleton\&lt; EventBus\l\&lt; Event \&gt; \&gt;\n||+ getInstance()\l}">
<polygon fill="none" stroke="#000000" points="0,-183.5 0,-251.5 149,-251.5 149,-183.5 0,-183.5"/>
<text text-anchor="start" x="8" y="-239.5" font-family="Helvetica,sans-Serif" font-size="10.00" fill="#000000">anch::Singleton&lt; EventBus</text>
<text text-anchor="middle" x="74.5" y="-228.5" font-family="Helvetica,sans-Serif" font-size="10.00" fill="#000000">&lt; Event &gt; &gt;</text>
<polyline fill="none" stroke="#000000" points="0,-221.5 149,-221.5 "/>
<text text-anchor="middle" x="74.5" y="-209.5" font-family="Helvetica,sans-Serif" font-size="10.00" fill="#000000"> </text>
<polyline fill="none" stroke="#000000" points="0,-202.5 149,-202.5 "/>
<text text-anchor="start" x="8" y="-190.5" font-family="Helvetica,sans-Serif" font-size="10.00" fill="#000000">+ getInstance()</text>
</a>
</g>
</g>
<!-- Node4&#45;&gt;Node3 -->
<g id="edge1" class="edge">
<title>Node4&#45;&gt;Node3</title>
<path fill="none" stroke="#191970" d="M74.5,-173.0159C74.5,-164.3303 74.5,-155.0133 74.5,-145.6866"/>
<polygon fill="none" stroke="#191970" points="71.0001,-173.2555 74.5,-183.2555 78.0001,-173.2556 71.0001,-173.2555"/>
</g>
<!-- Node5 -->
<g id="node3" class="node">
<title>Node5</title>
<g id="a_node3"><a xlink:href="classanch_1_1_singleton.html" target="_top" xlink:title="Meyers&#39; singleton implemtation. ">
<polygon fill="none" stroke="#000000" points="14.5,-299.5 14.5,-356.5 134.5,-356.5 134.5,-299.5 14.5,-299.5"/>
<text text-anchor="middle" x="74.5" y="-344.5" font-family="Helvetica,sans-Serif" font-size="10.00" fill="#000000">anch::Singleton&lt; T &gt;</text>
<polyline fill="none" stroke="#000000" points="14.5,-337.5 134.5,-337.5 "/>
<text text-anchor="middle" x="74.5" y="-325.5" font-family="Helvetica,sans-Serif" font-size="10.00" fill="#000000"> </text>
<polyline fill="none" stroke="#000000" points="14.5,-318.5 134.5,-318.5 "/>
<text text-anchor="start" x="22.5" y="-306.5" font-family="Helvetica,sans-Serif" font-size="10.00" fill="#000000">+ getInstance()</text>
</a>
</g>
</g>
<!-- Node5&#45;&gt;Node4 -->
<g id="edge2" class="edge">
<title>Node5&#45;&gt;Node4</title>
<path fill="none" stroke="#ffa500" d="M74.5,-288.9162C74.5,-276.7375 74.5,-263.4096 74.5,-251.6001"/>
<polygon fill="#ffa500" stroke="#ffa500" points="71.0001,-289.2559 74.5,-299.2559 78.0001,-289.2559 71.0001,-289.2559"/>
<text text-anchor="middle" x="135.5" y="-273" font-family="Helvetica,sans-Serif" font-size="10.00" fill="#000000"> &lt; EventBus&lt; Event &gt; &gt;</text>
</g>
</g>
</svg>
