<?xml version="1.0" encoding="UTF-8" standalone="no"?>
<!DOCTYPE svg PUBLIC "-//W3C//DTD SVG 1.1//EN"
 "http://www.w3.org/Graphics/SVG/1.1/DTD/svg11.dtd">
<!-- Generated by graphviz version 7.0.4 (0)
 -->
<!-- Title: anch::sql::MySQLConnection Pages: 1 -->
<svg width="360pt" height="1084pt"
 viewBox="0.00 0.00 359.50 1084.00" xmlns="http://www.w3.org/2000/svg" xmlns:xlink="http://www.w3.org/1999/xlink">
<g id="graph0" class="graph" transform="scale(1 1) rotate(0) translate(4 1080)">
<title>anch::sql::MySQLConnection</title>
<!-- Node1 -->
<g id="node1" class="node">
<title>Node1</title>
<g id="a_node1"><a xlink:title="MySQL connection.">
<polygon fill="#999999" stroke="#666666" points="233,-140 72,-140 72,0 233,0 233,-140"/>
<text text-anchor="middle" x="152.5" y="-128" font-family="Helvetica,sans-Serif" font-size="10.00">{anch::sql::MySQLConnection</text>
<text text-anchor="start" x="80" y="-117" font-family="Helvetica,sans-Serif" font-size="10.00">||+ MySQLConnection()</text>
<text text-anchor="start" x="80" y="-106" font-family="Helvetica,sans-Serif" font-size="10.00">+ MySQLConnection()</text>
<text text-anchor="start" x="80" y="-95" font-family="Helvetica,sans-Serif" font-size="10.00">+ MySQLConnection()</text>
<text text-anchor="start" x="80" y="-84" font-family="Helvetica,sans-Serif" font-size="10.00">+ ~MySQLConnection()</text>
<text text-anchor="start" x="80" y="-73" font-family="Helvetica,sans-Serif" font-size="10.00"># executeQuery()</text>
<text text-anchor="start" x="80" y="-62" font-family="Helvetica,sans-Serif" font-size="10.00"># executeUpdate()</text>
<text text-anchor="start" x="80" y="-51" font-family="Helvetica,sans-Serif" font-size="10.00"># sendCommit()</text>
<text text-anchor="start" x="80" y="-40" font-family="Helvetica,sans-Serif" font-size="10.00"># sendRollback()</text>
<text text-anchor="start" x="80" y="-29" font-family="Helvetica,sans-Serif" font-size="10.00"># sendStartTransaction()</text>
<text text-anchor="start" x="80" y="-18" font-family="Helvetica,sans-Serif" font-size="10.00"># makePrepared()</text>
<text text-anchor="middle" x="152.5" y="-7" font-family="Helvetica,sans-Serif" font-size="10.00">}</text>
</a>
</g>
</g>
<!-- Node2 -->
<g id="node2" class="node">
<title>Node2</title>
<g id="a_node2"><a xlink:href="classanch_1_1sql_1_1_connection.html" target="_top" xlink:title="SQL connection virtual class.">
<polygon fill="white" stroke="#666666" points="221,-427 84,-427 84,-177 221,-177 221,-427"/>
<text text-anchor="middle" x="152.5" y="-415" font-family="Helvetica,sans-Serif" font-size="10.00">{anch::sql::Connection</text>
<text text-anchor="start" x="92" y="-404" font-family="Helvetica,sans-Serif" font-size="10.00">|# _valid</text>
<text text-anchor="start" x="92" y="-393" font-family="Helvetica,sans-Serif" font-size="10.00"># _transaction</text>
<text text-anchor="start" x="92" y="-382" font-family="Helvetica,sans-Serif" font-size="10.00">|+ Connection()</text>
<text text-anchor="start" x="92" y="-371" font-family="Helvetica,sans-Serif" font-size="10.00">+ Connection()</text>
<text text-anchor="start" x="92" y="-360" font-family="Helvetica,sans-Serif" font-size="10.00">+ ~Connection()</text>
<text text-anchor="start" x="92" y="-349" font-family="Helvetica,sans-Serif" font-size="10.00">+ startTransaction()</text>
<text text-anchor="start" x="92" y="-338" font-family="Helvetica,sans-Serif" font-size="10.00">+ begin()</text>
<text text-anchor="start" x="92" y="-327" font-family="Helvetica,sans-Serif" font-size="10.00">+ commit()</text>
<text text-anchor="start" x="92" y="-316" font-family="Helvetica,sans-Serif" font-size="10.00">+ rollback()</text>
<text text-anchor="start" x="92" y="-305" font-family="Helvetica,sans-Serif" font-size="10.00">+ prepareStatement()</text>
<text text-anchor="start" x="92" y="-294" font-family="Helvetica,sans-Serif" font-size="10.00">+ query()</text>
<text text-anchor="start" x="92" y="-283" font-family="Helvetica,sans-Serif" font-size="10.00">+ queryMapRow()</text>
<text text-anchor="start" x="92" y="-272" font-family="Helvetica,sans-Serif" font-size="10.00">and 8 more...</text>
<text text-anchor="start" x="92" y="-261" font-family="Helvetica,sans-Serif" font-size="10.00"># executeQuery()</text>
<text text-anchor="start" x="92" y="-250" font-family="Helvetica,sans-Serif" font-size="10.00"># executeUpdate()</text>
<text text-anchor="start" x="92" y="-239" font-family="Helvetica,sans-Serif" font-size="10.00"># sendStartTransaction()</text>
<text text-anchor="start" x="92" y="-228" font-family="Helvetica,sans-Serif" font-size="10.00"># sendCommit()</text>
<text text-anchor="start" x="92" y="-217" font-family="Helvetica,sans-Serif" font-size="10.00"># sendRollback()</text>
<text text-anchor="start" x="92" y="-206" font-family="Helvetica,sans-Serif" font-size="10.00"># makePrepared()</text>
<text text-anchor="start" x="92" y="-195" font-family="Helvetica,sans-Serif" font-size="10.00"># setValid()</text>
<text text-anchor="middle" x="152.5" y="-184" font-family="Helvetica,sans-Serif" font-size="10.00">}</text>
</a>
</g>
</g>
<!-- Node2&#45;&gt;Node1 -->
<g id="edge1" class="edge">
<title>Node2&#45;&gt;Node1</title>
<path fill="none" stroke="#63b8ff" d="M152.5,-165.31C152.5,-156.8 152.5,-148.45 152.5,-140.44"/>
<polygon fill="none" stroke="#63b8ff" points="149,-165.06 152.5,-175.06 156,-165.06 149,-165.06"/>
</g>
<!-- Node3 -->
<g id="node3" class="node">
<title>Node3</title>
<g id="a_node3"><a xlink:title=" ">
<polygon fill="white" stroke="#666666" points="244,-515 61,-515 61,-474 244,-474 244,-515"/>
<text text-anchor="start" x="69" y="-503" font-family="Helvetica,sans-Serif" font-size="10.00">{std::map&lt; std::string,</text>
<text text-anchor="middle" x="152.5" y="-492" font-family="Helvetica,sans-Serif" font-size="10.00"> anch::sql::PreparedStatement * &gt;</text>
<text text-anchor="middle" x="152.5" y="-481" font-family="Helvetica,sans-Serif" font-size="10.00">||}</text>
</a>
</g>
</g>
<!-- Node3&#45;&gt;Node2 -->
<g id="edge2" class="edge">
<title>Node3&#45;&gt;Node2</title>
<path fill="none" stroke="#404040" d="M152.5,-473.83C152.5,-464.75 152.5,-453.12 152.5,-440.2"/>
<polygon fill="none" stroke="#404040" points="152.5,-440.36 148.5,-434.36 152.5,-428.36 156.5,-434.36 152.5,-440.36"/>
<text text-anchor="middle" x="175" y="-448" font-family="Helvetica,sans-Serif" font-size="10.00"> #_stmts</text>
</g>
<!-- Node4 -->
<g id="node4" class="node">
<title>Node4</title>
<g id="a_node4"><a xlink:title=" ">
<polygon fill="white" stroke="#666666" points="235,-988 164,-988 164,-958 235,-958 235,-988"/>
<text text-anchor="middle" x="199.5" y="-976" font-family="Helvetica,sans-Serif" font-size="10.00">{std::string</text>
<text text-anchor="middle" x="199.5" y="-965" font-family="Helvetica,sans-Serif" font-size="10.00">||}</text>
</a>
</g>
</g>
<!-- Node4&#45;&gt;Node3 -->
<g id="edge3" class="edge">
<title>Node4&#45;&gt;Node3</title>
<path fill="none" stroke="#404040" d="M233.2,-957.62C240.12,-953.04 246.5,-947.23 250.5,-940 260.24,-922.38 401.48,-914.7 245.5,-562 238.2,-545.49 224.35,-532.32 209.53,-522.2"/>
<polygon fill="none" stroke="#404040" points="209.57,-522.23 202.36,-522.42 199.41,-515.85 206.62,-515.65 209.57,-522.23"/>
<text text-anchor="middle" x="334.5" y="-816.5" font-family="Helvetica,sans-Serif" font-size="10.00"> +keys</text>
</g>
<!-- Node7 -->
<g id="node7" class="node">
<title>Node7</title>
<g id="a_node7"><a xlink:title=" ">
<polygon fill="white" stroke="#666666" points="236,-900 119,-900 119,-848 236,-848 236,-900"/>
<text text-anchor="start" x="127" y="-888" font-family="Helvetica,sans-Serif" font-size="10.00">{std::map&lt; std::size</text>
<text text-anchor="middle" x="177.5" y="-877" font-family="Helvetica,sans-Serif" font-size="10.00">_t, std::string &gt;</text>
<text text-anchor="start" x="127" y="-866" font-family="Helvetica,sans-Serif" font-size="10.00">|+ keys</text>
<text text-anchor="middle" x="177.5" y="-855" font-family="Helvetica,sans-Serif" font-size="10.00">|}</text>
</a>
</g>
</g>
<!-- Node4&#45;&gt;Node7 -->
<g id="edge7" class="edge">
<title>Node4&#45;&gt;Node7</title>
<path fill="none" stroke="#404040" d="M196.25,-957.69C193.58,-945.91 189.67,-928.67 186.11,-912.97"/>
<polygon fill="none" stroke="#404040" points="186.09,-912.88 180.86,-907.91 183.44,-901.18 188.67,-906.15 186.09,-912.88"/>
<text text-anchor="middle" x="220.5" y="-926.5" font-family="Helvetica,sans-Serif" font-size="10.00"> +elements</text>
</g>
<!-- Node5 -->
<g id="node5" class="node">
<title>Node5</title>
<g id="a_node5"><a xlink:title=" ">
<polygon fill="white" stroke="#666666" points="254.5,-1076 144.5,-1076 144.5,-1035 254.5,-1035 254.5,-1076"/>
<text text-anchor="start" x="152.5" y="-1064" font-family="Helvetica,sans-Serif" font-size="10.00">{std::basic_string&lt;</text>
<text text-anchor="middle" x="199.5" y="-1053" font-family="Helvetica,sans-Serif" font-size="10.00"> Char &gt;</text>
<text text-anchor="middle" x="199.5" y="-1042" font-family="Helvetica,sans-Serif" font-size="10.00">||}</text>
</a>
</g>
</g>
<!-- Node5&#45;&gt;Node4 -->
<g id="edge4" class="edge">
<title>Node5&#45;&gt;Node4</title>
<path fill="none" stroke="#63b8ff" d="M199.5,-1023.14C199.5,-1011.14 199.5,-998.02 199.5,-988.37"/>
<polygon fill="none" stroke="#63b8ff" points="196,-1023.09 199.5,-1033.09 203,-1023.09 196,-1023.09"/>
</g>
<!-- Node6 -->
<g id="node6" class="node">
<title>Node6</title>
<g id="a_node6"><a xlink:href="classanch_1_1sql_1_1_prepared_statement.html" target="_top" xlink:title="SQL prepared statement.">
<polygon fill="white" stroke="#666666" points="236,-790 69,-790 69,-562 236,-562 236,-790"/>
<text text-anchor="middle" x="152.5" y="-778" font-family="Helvetica,sans-Serif" font-size="10.00">{anch::sql::PreparedStatement</text>
<text text-anchor="start" x="77" y="-767" font-family="Helvetica,sans-Serif" font-size="10.00">|# _nbPlaceholders</text>
<text text-anchor="start" x="77" y="-756" font-family="Helvetica,sans-Serif" font-size="10.00">|+ PreparedStatement()</text>
<text text-anchor="start" x="77" y="-745" font-family="Helvetica,sans-Serif" font-size="10.00">+ ~PreparedStatement()</text>
<text text-anchor="start" x="77" y="-734" font-family="Helvetica,sans-Serif" font-size="10.00">+ executeQuery()</text>
<text text-anchor="start" x="77" y="-723" font-family="Helvetica,sans-Serif" font-size="10.00">+ executeUpdate()</text>
<text text-anchor="start" x="77" y="-712" font-family="Helvetica,sans-Serif" font-size="10.00">+ set()</text>
<text text-anchor="start" x="77" y="-701" font-family="Helvetica,sans-Serif" font-size="10.00">+ set()</text>
<text text-anchor="start" x="77" y="-690" font-family="Helvetica,sans-Serif" font-size="10.00">+ set()</text>
<text text-anchor="start" x="77" y="-679" font-family="Helvetica,sans-Serif" font-size="10.00">+ set()</text>
<text text-anchor="start" x="77" y="-668" font-family="Helvetica,sans-Serif" font-size="10.00">+ set()</text>
<text text-anchor="start" x="77" y="-657" font-family="Helvetica,sans-Serif" font-size="10.00">+ set()</text>
<text text-anchor="start" x="77" y="-646" font-family="Helvetica,sans-Serif" font-size="10.00">+ set()</text>
<text text-anchor="start" x="77" y="-635" font-family="Helvetica,sans-Serif" font-size="10.00">+ set()</text>
<text text-anchor="start" x="77" y="-624" font-family="Helvetica,sans-Serif" font-size="10.00">+ set()</text>
<text text-anchor="start" x="77" y="-613" font-family="Helvetica,sans-Serif" font-size="10.00">+ set()</text>
<text text-anchor="start" x="77" y="-602" font-family="Helvetica,sans-Serif" font-size="10.00">+ set()</text>
<text text-anchor="start" x="77" y="-591" font-family="Helvetica,sans-Serif" font-size="10.00"># getPlaceholders()</text>
<text text-anchor="start" x="77" y="-580" font-family="Helvetica,sans-Serif" font-size="10.00"># checkIndex()</text>
<text text-anchor="middle" x="152.5" y="-569" font-family="Helvetica,sans-Serif" font-size="10.00">}</text>
</a>
</g>
</g>
<!-- Node6&#45;&gt;Node3 -->
<g id="edge5" class="edge">
<title>Node6&#45;&gt;Node3</title>
<path fill="none" stroke="#404040" d="M152.5,-561.57C152.5,-549.53 152.5,-538.09 152.5,-528.22"/>
<polygon fill="none" stroke="#404040" points="152.5,-528.32 148.5,-522.32 152.5,-516.32 156.5,-522.32 152.5,-528.32"/>
<text text-anchor="middle" x="181.5" y="-536" font-family="Helvetica,sans-Serif" font-size="10.00"> +elements</text>
</g>
<!-- Node7&#45;&gt;Node6 -->
<g id="edge6" class="edge">
<title>Node7&#45;&gt;Node6</title>
<path fill="none" stroke="#404040" d="M174.28,-847.78C172.72,-835.55 170.72,-819.85 168.56,-802.95"/>
<polygon fill="none" stroke="#404040" points="168.6,-803.25 163.88,-797.81 167.09,-791.35 171.81,-796.8 168.6,-803.25"/>
<text text-anchor="middle" x="196" y="-816.5" font-family="Helvetica,sans-Serif" font-size="10.00"> #_values</text>
</g>
<!-- Node8 -->
<g id="node8" class="node">
<title>Node8</title>
<g id="a_node8"><a xlink:title=" ">
<polygon fill="white" stroke="#666666" points="107,-988 0,-988 0,-958 107,-958 107,-988"/>
<text text-anchor="middle" x="53.5" y="-976" font-family="Helvetica,sans-Serif" font-size="10.00">{std::map&lt; K, T &gt;</text>
<text text-anchor="middle" x="53.5" y="-965" font-family="Helvetica,sans-Serif" font-size="10.00">||}</text>
</a>
</g>
</g>
<!-- Node8&#45;&gt;Node3 -->
<g id="edge11" class="edge">
<title>Node8&#45;&gt;Node3</title>
<path fill="none" stroke="orange" d="M45.69,-946.6C26.33,-878.41 -17,-688 59.5,-562 71.55,-542.15 92.01,-526.55 110.68,-515.47"/>
<polygon fill="orange" stroke="orange" points="42.29,-947.45 48.46,-956.07 49.01,-945.48 42.29,-947.45"/>
<text text-anchor="start" x="22.5" y="-822" font-family="Helvetica,sans-Serif" font-size="10.00"> &lt; std::string, anch</text>
<text text-anchor="middle" x="93" y="-811" font-family="Helvetica,sans-Serif" font-size="10.00">::sql::PreparedStatement * &gt;</text>
</g>
<!-- Node8&#45;&gt;Node7 -->
<g id="edge8" class="edge">
<title>Node8&#45;&gt;Node7</title>
<path fill="none" stroke="orange" d="M69.82,-948.65C77.7,-938.43 87.78,-926.8 98.5,-918 106.35,-911.56 115.3,-905.62 124.29,-900.34"/>
<polygon fill="orange" stroke="orange" points="67.03,-946.53 63.88,-956.65 72.65,-950.7 67.03,-946.53"/>
<text text-anchor="start" x="98.5" y="-932" font-family="Helvetica,sans-Serif" font-size="10.00"> &lt; std::size_t, std</text>
<text text-anchor="middle" x="141" y="-921" font-family="Helvetica,sans-Serif" font-size="10.00">::string &gt;</text>
</g>
<!-- Node9 -->
<g id="node9" class="node">
<title>Node9</title>
<g id="a_node9"><a xlink:title=" ">
<polygon fill="white" stroke="#bfbfbf" points="53,-1070.5 24,-1070.5 24,-1040.5 53,-1040.5 53,-1070.5"/>
<text text-anchor="middle" x="38.5" y="-1058.5" font-family="Helvetica,sans-Serif" font-size="10.00">{K</text>
<text text-anchor="middle" x="38.5" y="-1047.5" font-family="Helvetica,sans-Serif" font-size="10.00">||}</text>
</a>
</g>
</g>
<!-- Node9&#45;&gt;Node8 -->
<g id="edge9" class="edge">
<title>Node9&#45;&gt;Node8</title>
<path fill="none" stroke="#404040" d="M37.35,-1040.32C36.91,-1030.56 37,-1017.35 39.5,-1006 39.92,-1004.11 40.44,-1002.2 41.05,-1000.29"/>
<polygon fill="none" stroke="#404040" points="41.07,-1000.24 39.57,-993.19 45.51,-989.09 47.01,-996.14 41.07,-1000.24"/>
<text text-anchor="middle" x="56.5" y="-1009" font-family="Helvetica,sans-Serif" font-size="10.00"> +keys</text>
</g>
<!-- Node10 -->
<g id="node10" class="node">
<title>Node10</title>
<g id="a_node10"><a xlink:title=" ">
<polygon fill="white" stroke="#bfbfbf" points="110,-1070.5 81,-1070.5 81,-1040.5 110,-1040.5 110,-1070.5"/>
<text text-anchor="middle" x="95.5" y="-1058.5" font-family="Helvetica,sans-Serif" font-size="10.00">{T</text>
<text text-anchor="middle" x="95.5" y="-1047.5" font-family="Helvetica,sans-Serif" font-size="10.00">||}</text>
</a>
</g>
</g>
<!-- Node10&#45;&gt;Node8 -->
<g id="edge10" class="edge">
<title>Node10&#45;&gt;Node8</title>
<path fill="none" stroke="#404040" d="M89.63,-1040.25C85.45,-1030.46 79.53,-1017.24 73.5,-1006 72.32,-1003.79 71.04,-1001.53 69.72,-999.28"/>
<polygon fill="none" stroke="#404040" points="69.81,-999.42 63.27,-996.39 63.55,-989.18 70.09,-992.21 69.81,-999.42"/>
<text text-anchor="middle" x="108.5" y="-1009" font-family="Helvetica,sans-Serif" font-size="10.00"> +elements</text>
</g>
</g>
</svg>
