<?xml version="1.0" encoding="UTF-8" standalone="no"?>
<!DOCTYPE svg PUBLIC "-//W3C//DTD SVG 1.1//EN"
 "http://www.w3.org/Graphics/SVG/1.1/DTD/svg11.dtd">
<!-- Generated by graphviz version 2.43.20190912.0211 (20190912.0211)
 -->
<!-- Title: MySQLInitializer Pages: 1 -->
<svg width="211pt" height="266pt"
 viewBox="0.00 0.00 211.00 266.00" xmlns="http://www.w3.org/2000/svg" xmlns:xlink="http://www.w3.org/1999/xlink">
<g id="graph0" class="graph" transform="scale(1 1) rotate(0) translate(4 262)">
<title>MySQLInitializer</title>
<!-- Node1 -->
<g id="node1" class="node">
<title>Node1</title>
<g id="a_node1"><a xlink:title="MySQL (un)initializer.">
<polygon fill="#bfbfbf" stroke="black" points="49,-0.5 49,-57.5 145,-57.5 145,-0.5 49,-0.5"/>
<text text-anchor="middle" x="97" y="-45.5" font-family="Helvetica,sans-Serif" font-size="10.00">MySQLInitializer</text>
<polyline fill="none" stroke="black" points="49,-38.5 145,-38.5 "/>
<text text-anchor="middle" x="97" y="-26.5" font-family="Helvetica,sans-Serif" font-size="10.00"> </text>
<polyline fill="none" stroke="black" points="49,-19.5 145,-19.5 "/>
<text text-anchor="middle" x="97" y="-7.5" font-family="Helvetica,sans-Serif" font-size="10.00"> </text>
</a>
</g>
</g>
<!-- Node2 -->
<g id="node2" class="node">
<title>Node2</title>
<g id="a_node2"><a xlink:href="classanch_1_1_singleton.html" target="_top" xlink:title=" ">
<polygon fill="none" stroke="black" points="0,-95.5 0,-152.5 194,-152.5 194,-95.5 0,-95.5"/>
<text text-anchor="middle" x="97" y="-140.5" font-family="Helvetica,sans-Serif" font-size="10.00">anch::Singleton&lt; MySQLInitializer &gt;</text>
<polyline fill="none" stroke="black" points="0,-133.5 194,-133.5 "/>
<text text-anchor="middle" x="97" y="-121.5" font-family="Helvetica,sans-Serif" font-size="10.00"> </text>
<polyline fill="none" stroke="black" points="0,-114.5 194,-114.5 "/>
<text text-anchor="start" x="8" y="-102.5" font-family="Helvetica,sans-Serif" font-size="10.00">+ getInstance()</text>
</a>
</g>
</g>
<!-- Node2&#45;&gt;Node1 -->
<g id="edge1" class="edge">
<title>Node2&#45;&gt;Node1</title>
<path fill="none" stroke="midnightblue" d="M97,-85.24C97,-76.03 97,-66.35 97,-57.71"/>
<polygon fill="none" stroke="midnightblue" points="93.5,-85.35 97,-95.35 100.5,-85.35 93.5,-85.35"/>
</g>
<!-- Node3 -->
<g id="node3" class="node">
<title>Node3</title>
<g id="a_node3"><a xlink:href="classanch_1_1_singleton.html" target="_top" xlink:title="Meyers&#39; singleton implemtation.">
<polygon fill="none" stroke="black" points="37,-200.5 37,-257.5 157,-257.5 157,-200.5 37,-200.5"/>
<text text-anchor="middle" x="97" y="-245.5" font-family="Helvetica,sans-Serif" font-size="10.00">anch::Singleton&lt; T &gt;</text>
<polyline fill="none" stroke="black" points="37,-238.5 157,-238.5 "/>
<text text-anchor="middle" x="97" y="-226.5" font-family="Helvetica,sans-Serif" font-size="10.00"> </text>
<polyline fill="none" stroke="black" points="37,-219.5 157,-219.5 "/>
<text text-anchor="start" x="45" y="-207.5" font-family="Helvetica,sans-Serif" font-size="10.00">+ getInstance()</text>
</a>
</g>
</g>
<!-- Node3&#45;&gt;Node2 -->
<g id="edge2" class="edge">
<title>Node3&#45;&gt;Node2</title>
<path fill="none" stroke="orange" d="M97,-190.29C97,-177.84 97,-164.23 97,-152.68"/>
<polygon fill="orange" stroke="orange" points="93.5,-190.4 97,-200.4 100.5,-190.4 93.5,-190.4"/>
<text text-anchor="middle" x="150" y="-174" font-family="Helvetica,sans-Serif" font-size="10.00"> &lt; MySQLInitializer &gt;</text>
</g>
</g>
</svg>
