<?xml version="1.0" encoding="UTF-8" standalone="no"?>
<!DOCTYPE svg PUBLIC "-//W3C//DTD SVG 1.1//EN"
 "http://www.w3.org/Graphics/SVG/1.1/DTD/svg11.dtd">
<!-- Generated by graphviz version 13.1.0 (0)
 -->
<!-- Title: anch::date::formatter::IDatePartFormatter Pages: 1 -->
<svg width="1342pt" height="508pt"
 viewBox="0.00 0.00 1342.00 508.00" xmlns="http://www.w3.org/2000/svg" xmlns:xlink="http://www.w3.org/1999/xlink">
<g id="graph0" class="graph" transform="scale(1 1) rotate(0) translate(4 504)">
<title>anch::date::formatter::IDatePartFormatter</title>
<!-- Node1 -->
<g id="Node000001" class="node">
<title>Node1</title>
<g id="a_Node000001"><a xlink:title=" ">
<polygon fill="#999999" stroke="none" points="726.88,-500 612.88,-500 612.88,-196 726.88,-196 726.88,-500"/>
<text xml:space="preserve" text-anchor="start" x="624.5" y="-486.5" font-family="Helvetica,sans-Serif" font-size="10.00">anch::date::formatter</text>
<text xml:space="preserve" text-anchor="start" x="624.88" y="-474.5" font-family="Helvetica,sans-Serif" font-size="10.00">::IDatePartFormatter</text>
<text xml:space="preserve" text-anchor="start" x="668.38" y="-458.5" font-family="Helvetica,sans-Serif" font-size="10.00"> </text>
<text xml:space="preserve" text-anchor="start" x="616.88" y="-442.5" font-family="Helvetica,sans-Serif" font-size="10.00">+</text>
<text xml:space="preserve" text-anchor="start" x="626.88" y="-442.5" font-family="Helvetica,sans-Serif" font-size="10.00">~IDatePartFormatter()</text>
<text xml:space="preserve" text-anchor="start" x="616.88" y="-426.5" font-family="Helvetica,sans-Serif" font-size="10.00">+</text>
<text xml:space="preserve" text-anchor="start" x="626.88" y="-426.5" font-family="Helvetica,sans-Serif" font-size="10.00">format()</text>
<text xml:space="preserve" text-anchor="start" x="616.88" y="-410.5" font-family="Helvetica,sans-Serif" font-size="10.00">+</text>
<text xml:space="preserve" text-anchor="start" x="626.88" y="-410.5" font-family="Helvetica,sans-Serif" font-size="10.00">getSize()</text>
<text xml:space="preserve" text-anchor="start" x="616.88" y="-394.5" font-family="Helvetica,sans-Serif" font-size="10.00">+</text>
<text xml:space="preserve" text-anchor="start" x="626.88" y="-394.5" font-family="Helvetica,sans-Serif" font-size="10.00">setValue()</text>
<text xml:space="preserve" text-anchor="start" x="616.88" y="-378.5" font-family="Helvetica,sans-Serif" font-size="10.00">+</text>
<text xml:space="preserve" text-anchor="start" x="626.88" y="-378.5" font-family="Helvetica,sans-Serif" font-size="10.00">getPattern()</text>
<text xml:space="preserve" text-anchor="start" x="617.25" y="-362.5" font-family="Helvetica,sans-Serif" font-size="10.00">#</text>
<text xml:space="preserve" text-anchor="start" x="626.88" y="-362.5" font-family="Helvetica,sans-Serif" font-size="10.00">getYear()</text>
<text xml:space="preserve" text-anchor="start" x="617.25" y="-346.5" font-family="Helvetica,sans-Serif" font-size="10.00">#</text>
<text xml:space="preserve" text-anchor="start" x="626.88" y="-346.5" font-family="Helvetica,sans-Serif" font-size="10.00">setYear()</text>
<text xml:space="preserve" text-anchor="start" x="617.25" y="-330.5" font-family="Helvetica,sans-Serif" font-size="10.00">#</text>
<text xml:space="preserve" text-anchor="start" x="626.88" y="-330.5" font-family="Helvetica,sans-Serif" font-size="10.00">getMonth()</text>
<text xml:space="preserve" text-anchor="start" x="617.25" y="-314.5" font-family="Helvetica,sans-Serif" font-size="10.00">#</text>
<text xml:space="preserve" text-anchor="start" x="626.88" y="-314.5" font-family="Helvetica,sans-Serif" font-size="10.00">setMonth()</text>
<text xml:space="preserve" text-anchor="start" x="617.25" y="-298.5" font-family="Helvetica,sans-Serif" font-size="10.00">#</text>
<text xml:space="preserve" text-anchor="start" x="626.88" y="-298.5" font-family="Helvetica,sans-Serif" font-size="10.00">getDay()</text>
<text xml:space="preserve" text-anchor="start" x="617.25" y="-282.5" font-family="Helvetica,sans-Serif" font-size="10.00">#</text>
<text xml:space="preserve" text-anchor="start" x="626.88" y="-282.5" font-family="Helvetica,sans-Serif" font-size="10.00">setDay()</text>
<text xml:space="preserve" text-anchor="start" x="617.25" y="-266.5" font-family="Helvetica,sans-Serif" font-size="10.00">#</text>
<text xml:space="preserve" text-anchor="start" x="626.88" y="-266.5" font-family="Helvetica,sans-Serif" font-size="10.00">getHour()</text>
<text xml:space="preserve" text-anchor="start" x="617.25" y="-250.5" font-family="Helvetica,sans-Serif" font-size="10.00">#</text>
<text xml:space="preserve" text-anchor="start" x="626.88" y="-250.5" font-family="Helvetica,sans-Serif" font-size="10.00">setHour()</text>
<text xml:space="preserve" text-anchor="start" x="617.25" y="-234.5" font-family="Helvetica,sans-Serif" font-size="10.00">#</text>
<text xml:space="preserve" text-anchor="start" x="626.88" y="-234.5" font-family="Helvetica,sans-Serif" font-size="10.00">getMinute()</text>
<text xml:space="preserve" text-anchor="start" x="617.25" y="-218.5" font-family="Helvetica,sans-Serif" font-size="10.00">#</text>
<text xml:space="preserve" text-anchor="start" x="626.88" y="-218.5" font-family="Helvetica,sans-Serif" font-size="10.00">setMinute()</text>
<text xml:space="preserve" text-anchor="start" x="626.88" y="-202.5" font-family="Helvetica,sans-Serif" font-size="10.00">and 8 more...</text>
<polygon fill="#666666" stroke="#666666" points="612.88,-470 612.88,-470 726.88,-470 726.88,-470 612.88,-470"/>
<polygon fill="#666666" stroke="#666666" points="612.88,-454 612.88,-454 726.88,-454 726.88,-454 612.88,-454"/>
<polygon fill="none" stroke="#666666" points="612.88,-196 612.88,-500 726.88,-500 726.88,-196 612.88,-196"/>
</a>
</g>
</g>
<!-- Node2 -->
<g id="Node000002" class="node">
<title>Node2</title>
<g id="a_Node000002"><a xlink:href="classanch_1_1date_1_1formatter_1_1_constant_formatter.html" target="_top" xlink:title=" ">
<polygon fill="white" stroke="none" points="111.75,-152 0,-152 0,-8 111.75,-8 111.75,-152"/>
<text xml:space="preserve" text-anchor="start" x="10.5" y="-138.5" font-family="Helvetica,sans-Serif" font-size="10.00">anch::date::formatter</text>
<text xml:space="preserve" text-anchor="start" x="12" y="-126.5" font-family="Helvetica,sans-Serif" font-size="10.00">::ConstantFormatter</text>
<text xml:space="preserve" text-anchor="start" x="4" y="-110.5" font-family="Helvetica,sans-Serif" font-size="10.00">+</text>
<text xml:space="preserve" text-anchor="start" x="14" y="-110.5" font-family="Helvetica,sans-Serif" font-size="10.00">_message</text>
<text xml:space="preserve" text-anchor="start" x="4" y="-94.5" font-family="Helvetica,sans-Serif" font-size="10.00">+</text>
<text xml:space="preserve" text-anchor="start" x="14" y="-94.5" font-family="Helvetica,sans-Serif" font-size="10.00">ConstantFormatter()</text>
<text xml:space="preserve" text-anchor="start" x="4" y="-78.5" font-family="Helvetica,sans-Serif" font-size="10.00">+</text>
<text xml:space="preserve" text-anchor="start" x="14" y="-78.5" font-family="Helvetica,sans-Serif" font-size="10.00">~ConstantFormatter()</text>
<text xml:space="preserve" text-anchor="start" x="4" y="-62.5" font-family="Helvetica,sans-Serif" font-size="10.00">+</text>
<text xml:space="preserve" text-anchor="start" x="14" y="-62.5" font-family="Helvetica,sans-Serif" font-size="10.00">format()</text>
<text xml:space="preserve" text-anchor="start" x="4" y="-46.5" font-family="Helvetica,sans-Serif" font-size="10.00">+</text>
<text xml:space="preserve" text-anchor="start" x="14" y="-46.5" font-family="Helvetica,sans-Serif" font-size="10.00">getSize()</text>
<text xml:space="preserve" text-anchor="start" x="4" y="-30.5" font-family="Helvetica,sans-Serif" font-size="10.00">+</text>
<text xml:space="preserve" text-anchor="start" x="14" y="-30.5" font-family="Helvetica,sans-Serif" font-size="10.00">setValue()</text>
<text xml:space="preserve" text-anchor="start" x="4" y="-14.5" font-family="Helvetica,sans-Serif" font-size="10.00">+</text>
<text xml:space="preserve" text-anchor="start" x="14" y="-14.5" font-family="Helvetica,sans-Serif" font-size="10.00">getPattern()</text>
<polygon fill="#666666" stroke="#666666" points="0,-122 0,-122 111.75,-122 111.75,-122 0,-122"/>
<polygon fill="#666666" stroke="#666666" points="0,-106 0,-106 12,-106 12,-106 0,-106"/>
<polygon fill="#666666" stroke="#666666" points="12,-106 12,-106 111.75,-106 111.75,-106 12,-106"/>
<polygon fill="none" stroke="#666666" points="0,-8 0,-152 111.75,-152 111.75,-8 0,-8"/>
</a>
</g>
</g>
<!-- Node1&#45;&gt;Node2 -->
<g id="edge1_Node000001_Node000002" class="edge">
<title>Node1&#45;&gt;Node2</title>
<g id="a_edge1_Node000001_Node000002"><a xlink:title=" ">
<path fill="none" stroke="#63b8ff" d="M601.88,-336.27C492.44,-316.43 274.02,-265.97 120.88,-160 117.22,-157.47 113.67,-154.69 110.22,-151.72"/>
<polygon fill="none" stroke="#63b8ff" points="601.13,-339.69 611.59,-338 602.36,-332.8 601.13,-339.69"/>
</a>
</g>
</g>
<!-- Node3 -->
<g id="Node000003" class="node">
<title>Node3</title>
<g id="a_Node000003"><a xlink:href="classanch_1_1date_1_1formatter_1_1_day_formatter.html" target="_top" xlink:title=" ">
<polygon fill="white" stroke="none" points="228.25,-160 129.5,-160 129.5,0 228.25,0 228.25,-160"/>
<text xml:space="preserve" text-anchor="start" x="133.5" y="-146.5" font-family="Helvetica,sans-Serif" font-size="10.00">anch::date::formatter</text>
<text xml:space="preserve" text-anchor="start" x="145.88" y="-134.5" font-family="Helvetica,sans-Serif" font-size="10.00">::DayFormatter</text>
<text xml:space="preserve" text-anchor="start" x="135.69" y="-118.5" font-family="Helvetica,sans-Serif" font-size="10.00">+</text>
<text xml:space="preserve" text-anchor="start" x="147.88" y="-118.5" font-family="Helvetica,sans-Serif" font-size="10.00">PATTERN</text>
<text xml:space="preserve" text-anchor="start" x="135.69" y="-102.5" font-family="Helvetica,sans-Serif" font-size="10.00">+</text>
<text xml:space="preserve" text-anchor="start" x="147.88" y="-102.5" font-family="Helvetica,sans-Serif" font-size="10.00">DayFormatter()</text>
<text xml:space="preserve" text-anchor="start" x="135.69" y="-86.5" font-family="Helvetica,sans-Serif" font-size="10.00">+</text>
<text xml:space="preserve" text-anchor="start" x="147.88" y="-86.5" font-family="Helvetica,sans-Serif" font-size="10.00">~DayFormatter()</text>
<text xml:space="preserve" text-anchor="start" x="135.69" y="-70.5" font-family="Helvetica,sans-Serif" font-size="10.00">+</text>
<text xml:space="preserve" text-anchor="start" x="147.88" y="-70.5" font-family="Helvetica,sans-Serif" font-size="10.00">format()</text>
<text xml:space="preserve" text-anchor="start" x="135.69" y="-54.5" font-family="Helvetica,sans-Serif" font-size="10.00">+</text>
<text xml:space="preserve" text-anchor="start" x="147.88" y="-54.5" font-family="Helvetica,sans-Serif" font-size="10.00">getSize()</text>
<text xml:space="preserve" text-anchor="start" x="135.69" y="-38.5" font-family="Helvetica,sans-Serif" font-size="10.00">+</text>
<text xml:space="preserve" text-anchor="start" x="147.88" y="-38.5" font-family="Helvetica,sans-Serif" font-size="10.00">setValue()</text>
<text xml:space="preserve" text-anchor="start" x="135.69" y="-22.5" font-family="Helvetica,sans-Serif" font-size="10.00">+</text>
<text xml:space="preserve" text-anchor="start" x="147.88" y="-22.5" font-family="Helvetica,sans-Serif" font-size="10.00">getPattern()</text>
<text xml:space="preserve" text-anchor="start" x="135.69" y="-6.5" font-family="Helvetica,sans-Serif" font-size="10.00">+</text>
<text xml:space="preserve" text-anchor="start" x="147.88" y="-6.5" font-family="Helvetica,sans-Serif" font-size="10.00">getInstance()</text>
<polygon fill="#666666" stroke="#666666" points="129.5,-130 129.5,-130 228.25,-130 228.25,-130 129.5,-130"/>
<polygon fill="#666666" stroke="#666666" points="129.5,-114 129.5,-114 145.88,-114 145.88,-114 129.5,-114"/>
<polygon fill="#666666" stroke="#666666" points="145.88,-114 145.88,-114 228.25,-114 228.25,-114 145.88,-114"/>
<polygon fill="none" stroke="#666666" points="129.5,0 129.5,-160 228.25,-160 228.25,0 129.5,0"/>
</a>
</g>
</g>
<!-- Node1&#45;&gt;Node3 -->
<g id="edge2_Node000001_Node000003" class="edge">
<title>Node1&#45;&gt;Node3</title>
<g id="a_edge2_Node000001_Node000003"><a xlink:title=" ">
<path fill="none" stroke="#63b8ff" d="M601.97,-329.79C511.39,-304.3 349.4,-249.62 236.88,-160 233.81,-157.56 230.83,-154.92 227.95,-152.14"/>
<polygon fill="none" stroke="#63b8ff" points="600.89,-333.12 611.46,-332.42 602.76,-326.38 600.89,-333.12"/>
</a>
</g>
</g>
<!-- Node4 -->
<g id="Node000004" class="node">
<title>Node4</title>
<g id="a_Node000004"><a xlink:href="classanch_1_1date_1_1formatter_1_1_hour12_formatter.html" target="_top" xlink:title=" ">
<polygon fill="white" stroke="none" points="349.62,-160 246.12,-160 246.12,0 349.62,0 349.62,-160"/>
<text xml:space="preserve" text-anchor="start" x="252.5" y="-146.5" font-family="Helvetica,sans-Serif" font-size="10.00">anch::date::formatter</text>
<text xml:space="preserve" text-anchor="start" x="258.12" y="-134.5" font-family="Helvetica,sans-Serif" font-size="10.00">::Hour12Formatter</text>
<text xml:space="preserve" text-anchor="start" x="250.12" y="-118.5" font-family="Helvetica,sans-Serif" font-size="10.00">+</text>
<text xml:space="preserve" text-anchor="start" x="260.12" y="-118.5" font-family="Helvetica,sans-Serif" font-size="10.00">PATTERN</text>
<text xml:space="preserve" text-anchor="start" x="250.12" y="-102.5" font-family="Helvetica,sans-Serif" font-size="10.00">+</text>
<text xml:space="preserve" text-anchor="start" x="260.12" y="-102.5" font-family="Helvetica,sans-Serif" font-size="10.00">Hour12Formatter()</text>
<text xml:space="preserve" text-anchor="start" x="250.12" y="-86.5" font-family="Helvetica,sans-Serif" font-size="10.00">+</text>
<text xml:space="preserve" text-anchor="start" x="260.12" y="-86.5" font-family="Helvetica,sans-Serif" font-size="10.00">~Hour12Formatter()</text>
<text xml:space="preserve" text-anchor="start" x="250.12" y="-70.5" font-family="Helvetica,sans-Serif" font-size="10.00">+</text>
<text xml:space="preserve" text-anchor="start" x="260.12" y="-70.5" font-family="Helvetica,sans-Serif" font-size="10.00">format()</text>
<text xml:space="preserve" text-anchor="start" x="250.12" y="-54.5" font-family="Helvetica,sans-Serif" font-size="10.00">+</text>
<text xml:space="preserve" text-anchor="start" x="260.12" y="-54.5" font-family="Helvetica,sans-Serif" font-size="10.00">getSize()</text>
<text xml:space="preserve" text-anchor="start" x="250.12" y="-38.5" font-family="Helvetica,sans-Serif" font-size="10.00">+</text>
<text xml:space="preserve" text-anchor="start" x="260.12" y="-38.5" font-family="Helvetica,sans-Serif" font-size="10.00">setValue()</text>
<text xml:space="preserve" text-anchor="start" x="250.12" y="-22.5" font-family="Helvetica,sans-Serif" font-size="10.00">+</text>
<text xml:space="preserve" text-anchor="start" x="260.12" y="-22.5" font-family="Helvetica,sans-Serif" font-size="10.00">getPattern()</text>
<text xml:space="preserve" text-anchor="start" x="250.12" y="-6.5" font-family="Helvetica,sans-Serif" font-size="10.00">+</text>
<text xml:space="preserve" text-anchor="start" x="260.12" y="-6.5" font-family="Helvetica,sans-Serif" font-size="10.00">getInstance()</text>
<polygon fill="#666666" stroke="#666666" points="246.12,-130 246.12,-130 349.62,-130 349.62,-130 246.12,-130"/>
<polygon fill="#666666" stroke="#666666" points="246.12,-114 246.12,-114 258.12,-114 258.12,-114 246.12,-114"/>
<polygon fill="#666666" stroke="#666666" points="258.12,-114 258.12,-114 349.62,-114 349.62,-114 258.12,-114"/>
<polygon fill="none" stroke="#666666" points="246.12,0 246.12,-160 349.62,-160 349.62,0 246.12,0"/>
</a>
</g>
</g>
<!-- Node1&#45;&gt;Node4 -->
<g id="edge3_Node000001_Node000004" class="edge">
<title>Node1&#45;&gt;Node4</title>
<g id="a_edge3_Node000001_Node000004"><a xlink:title=" ">
<path fill="none" stroke="#63b8ff" d="M602.99,-315.98C536.57,-283.17 434.08,-226.94 358.88,-160 355.64,-157.12 352.45,-154.05 349.34,-150.85"/>
<polygon fill="none" stroke="#63b8ff" points="601.04,-318.93 611.56,-320.18 604.12,-312.64 601.04,-318.93"/>
</a>
</g>
</g>
<!-- Node5 -->
<g id="Node000005" class="node">
<title>Node5</title>
<g id="a_Node000005"><a xlink:href="classanch_1_1date_1_1formatter_1_1_hour24_formatter.html" target="_top" xlink:title=" ">
<polygon fill="white" stroke="none" points="471.62,-160 368.12,-160 368.12,0 471.62,0 471.62,-160"/>
<text xml:space="preserve" text-anchor="start" x="374.5" y="-146.5" font-family="Helvetica,sans-Serif" font-size="10.00">anch::date::formatter</text>
<text xml:space="preserve" text-anchor="start" x="380.12" y="-134.5" font-family="Helvetica,sans-Serif" font-size="10.00">::Hour24Formatter</text>
<text xml:space="preserve" text-anchor="start" x="372.12" y="-118.5" font-family="Helvetica,sans-Serif" font-size="10.00">+</text>
<text xml:space="preserve" text-anchor="start" x="382.12" y="-118.5" font-family="Helvetica,sans-Serif" font-size="10.00">PATTERN</text>
<text xml:space="preserve" text-anchor="start" x="372.12" y="-102.5" font-family="Helvetica,sans-Serif" font-size="10.00">+</text>
<text xml:space="preserve" text-anchor="start" x="382.12" y="-102.5" font-family="Helvetica,sans-Serif" font-size="10.00">Hour24Formatter()</text>
<text xml:space="preserve" text-anchor="start" x="372.12" y="-86.5" font-family="Helvetica,sans-Serif" font-size="10.00">+</text>
<text xml:space="preserve" text-anchor="start" x="382.12" y="-86.5" font-family="Helvetica,sans-Serif" font-size="10.00">~Hour24Formatter()</text>
<text xml:space="preserve" text-anchor="start" x="372.12" y="-70.5" font-family="Helvetica,sans-Serif" font-size="10.00">+</text>
<text xml:space="preserve" text-anchor="start" x="382.12" y="-70.5" font-family="Helvetica,sans-Serif" font-size="10.00">format()</text>
<text xml:space="preserve" text-anchor="start" x="372.12" y="-54.5" font-family="Helvetica,sans-Serif" font-size="10.00">+</text>
<text xml:space="preserve" text-anchor="start" x="382.12" y="-54.5" font-family="Helvetica,sans-Serif" font-size="10.00">getSize()</text>
<text xml:space="preserve" text-anchor="start" x="372.12" y="-38.5" font-family="Helvetica,sans-Serif" font-size="10.00">+</text>
<text xml:space="preserve" text-anchor="start" x="382.12" y="-38.5" font-family="Helvetica,sans-Serif" font-size="10.00">setValue()</text>
<text xml:space="preserve" text-anchor="start" x="372.12" y="-22.5" font-family="Helvetica,sans-Serif" font-size="10.00">+</text>
<text xml:space="preserve" text-anchor="start" x="382.12" y="-22.5" font-family="Helvetica,sans-Serif" font-size="10.00">getPattern()</text>
<text xml:space="preserve" text-anchor="start" x="372.12" y="-6.5" font-family="Helvetica,sans-Serif" font-size="10.00">+</text>
<text xml:space="preserve" text-anchor="start" x="382.12" y="-6.5" font-family="Helvetica,sans-Serif" font-size="10.00">getInstance()</text>
<polygon fill="#666666" stroke="#666666" points="368.12,-130 368.12,-130 471.62,-130 471.62,-130 368.12,-130"/>
<polygon fill="#666666" stroke="#666666" points="368.12,-114 368.12,-114 380.12,-114 380.12,-114 368.12,-114"/>
<polygon fill="#666666" stroke="#666666" points="380.12,-114 380.12,-114 471.62,-114 471.62,-114 380.12,-114"/>
<polygon fill="none" stroke="#666666" points="368.12,0 368.12,-160 471.62,-160 471.62,0 368.12,0"/>
</a>
</g>
</g>
<!-- Node1&#45;&gt;Node5 -->
<g id="edge4_Node000001_Node000005" class="edge">
<title>Node1&#45;&gt;Node5</title>
<g id="a_edge4_Node000001_Node000005"><a xlink:title=" ">
<path fill="none" stroke="#63b8ff" d="M604.58,-286.55C567.14,-250.89 519.97,-204.2 480.88,-160 477.78,-156.5 474.65,-152.85 471.54,-149.14"/>
<polygon fill="none" stroke="#63b8ff" points="602.14,-289.06 611.81,-293.41 606.96,-283.99 602.14,-289.06"/>
</a>
</g>
</g>
<!-- Node6 -->
<g id="Node000006" class="node">
<title>Node6</title>
<g id="a_Node000006"><a xlink:href="classanch_1_1date_1_1formatter_1_1_marker_formatter.html" target="_top" xlink:title=" ">
<polygon fill="white" stroke="none" points="591.88,-160 489.88,-160 489.88,0 591.88,0 591.88,-160"/>
<text xml:space="preserve" text-anchor="start" x="495.5" y="-146.5" font-family="Helvetica,sans-Serif" font-size="10.00">anch::date::formatter</text>
<text xml:space="preserve" text-anchor="start" x="501.88" y="-134.5" font-family="Helvetica,sans-Serif" font-size="10.00">::MarkerFormatter</text>
<text xml:space="preserve" text-anchor="start" x="493.88" y="-118.5" font-family="Helvetica,sans-Serif" font-size="10.00">+</text>
<text xml:space="preserve" text-anchor="start" x="503.88" y="-118.5" font-family="Helvetica,sans-Serif" font-size="10.00">PATTERN</text>
<text xml:space="preserve" text-anchor="start" x="493.88" y="-102.5" font-family="Helvetica,sans-Serif" font-size="10.00">+</text>
<text xml:space="preserve" text-anchor="start" x="503.88" y="-102.5" font-family="Helvetica,sans-Serif" font-size="10.00">MarkerFormatter()</text>
<text xml:space="preserve" text-anchor="start" x="493.88" y="-86.5" font-family="Helvetica,sans-Serif" font-size="10.00">+</text>
<text xml:space="preserve" text-anchor="start" x="503.88" y="-86.5" font-family="Helvetica,sans-Serif" font-size="10.00">~MarkerFormatter()</text>
<text xml:space="preserve" text-anchor="start" x="493.88" y="-70.5" font-family="Helvetica,sans-Serif" font-size="10.00">+</text>
<text xml:space="preserve" text-anchor="start" x="503.88" y="-70.5" font-family="Helvetica,sans-Serif" font-size="10.00">format()</text>
<text xml:space="preserve" text-anchor="start" x="493.88" y="-54.5" font-family="Helvetica,sans-Serif" font-size="10.00">+</text>
<text xml:space="preserve" text-anchor="start" x="503.88" y="-54.5" font-family="Helvetica,sans-Serif" font-size="10.00">getSize()</text>
<text xml:space="preserve" text-anchor="start" x="493.88" y="-38.5" font-family="Helvetica,sans-Serif" font-size="10.00">+</text>
<text xml:space="preserve" text-anchor="start" x="503.88" y="-38.5" font-family="Helvetica,sans-Serif" font-size="10.00">setValue()</text>
<text xml:space="preserve" text-anchor="start" x="493.88" y="-22.5" font-family="Helvetica,sans-Serif" font-size="10.00">+</text>
<text xml:space="preserve" text-anchor="start" x="503.88" y="-22.5" font-family="Helvetica,sans-Serif" font-size="10.00">getPattern()</text>
<text xml:space="preserve" text-anchor="start" x="493.88" y="-6.5" font-family="Helvetica,sans-Serif" font-size="10.00">+</text>
<text xml:space="preserve" text-anchor="start" x="503.88" y="-6.5" font-family="Helvetica,sans-Serif" font-size="10.00">getInstance()</text>
<polygon fill="#666666" stroke="#666666" points="489.88,-130 489.88,-130 591.88,-130 591.88,-130 489.88,-130"/>
<polygon fill="#666666" stroke="#666666" points="489.88,-114 489.88,-114 501.88,-114 501.88,-114 489.88,-114"/>
<polygon fill="#666666" stroke="#666666" points="501.88,-114 501.88,-114 591.88,-114 591.88,-114 501.88,-114"/>
<polygon fill="none" stroke="#666666" points="489.88,0 489.88,-160 591.88,-160 591.88,0 489.88,0"/>
</a>
</g>
</g>
<!-- Node1&#45;&gt;Node6 -->
<g id="edge5_Node000001_Node000006" class="edge">
<title>Node1&#45;&gt;Node6</title>
<g id="a_edge5_Node000001_Node000006"><a xlink:title=" ">
<path fill="none" stroke="#63b8ff" d="M607.93,-219.26C598.06,-198.91 588.11,-178.4 579.01,-159.63"/>
<polygon fill="none" stroke="#63b8ff" points="604.74,-220.72 612.26,-228.19 611.04,-217.67 604.74,-220.72"/>
</a>
</g>
</g>
<!-- Node7 -->
<g id="Node000007" class="node">
<title>Node7</title>
<g id="a_Node000007"><a xlink:href="classanch_1_1date_1_1formatter_1_1_millisecond_formatter.html" target="_top" xlink:title=" ">
<polygon fill="white" stroke="none" points="730.25,-160 609.5,-160 609.5,0 730.25,0 730.25,-160"/>
<text xml:space="preserve" text-anchor="start" x="621.5" y="-146.5" font-family="Helvetica,sans-Serif" font-size="10.00">anch::date::formatter</text>
<text xml:space="preserve" text-anchor="start" x="621.5" y="-134.5" font-family="Helvetica,sans-Serif" font-size="10.00">::MillisecondFormatter</text>
<text xml:space="preserve" text-anchor="start" x="613.5" y="-118.5" font-family="Helvetica,sans-Serif" font-size="10.00">+</text>
<text xml:space="preserve" text-anchor="start" x="623.5" y="-118.5" font-family="Helvetica,sans-Serif" font-size="10.00">PATTERN</text>
<text xml:space="preserve" text-anchor="start" x="613.5" y="-102.5" font-family="Helvetica,sans-Serif" font-size="10.00">+</text>
<text xml:space="preserve" text-anchor="start" x="623.5" y="-102.5" font-family="Helvetica,sans-Serif" font-size="10.00">MillisecondFormatter()</text>
<text xml:space="preserve" text-anchor="start" x="613.5" y="-86.5" font-family="Helvetica,sans-Serif" font-size="10.00">+</text>
<text xml:space="preserve" text-anchor="start" x="623.5" y="-86.5" font-family="Helvetica,sans-Serif" font-size="10.00">~MillisecondFormatter()</text>
<text xml:space="preserve" text-anchor="start" x="613.5" y="-70.5" font-family="Helvetica,sans-Serif" font-size="10.00">+</text>
<text xml:space="preserve" text-anchor="start" x="623.5" y="-70.5" font-family="Helvetica,sans-Serif" font-size="10.00">format()</text>
<text xml:space="preserve" text-anchor="start" x="613.5" y="-54.5" font-family="Helvetica,sans-Serif" font-size="10.00">+</text>
<text xml:space="preserve" text-anchor="start" x="623.5" y="-54.5" font-family="Helvetica,sans-Serif" font-size="10.00">getSize()</text>
<text xml:space="preserve" text-anchor="start" x="613.5" y="-38.5" font-family="Helvetica,sans-Serif" font-size="10.00">+</text>
<text xml:space="preserve" text-anchor="start" x="623.5" y="-38.5" font-family="Helvetica,sans-Serif" font-size="10.00">setValue()</text>
<text xml:space="preserve" text-anchor="start" x="613.5" y="-22.5" font-family="Helvetica,sans-Serif" font-size="10.00">+</text>
<text xml:space="preserve" text-anchor="start" x="623.5" y="-22.5" font-family="Helvetica,sans-Serif" font-size="10.00">getPattern()</text>
<text xml:space="preserve" text-anchor="start" x="613.5" y="-6.5" font-family="Helvetica,sans-Serif" font-size="10.00">+</text>
<text xml:space="preserve" text-anchor="start" x="623.5" y="-6.5" font-family="Helvetica,sans-Serif" font-size="10.00">getInstance()</text>
<polygon fill="#666666" stroke="#666666" points="609.5,-130 609.5,-130 730.25,-130 730.25,-130 609.5,-130"/>
<polygon fill="#666666" stroke="#666666" points="609.5,-114 609.5,-114 621.5,-114 621.5,-114 609.5,-114"/>
<polygon fill="#666666" stroke="#666666" points="621.5,-114 621.5,-114 730.25,-114 730.25,-114 621.5,-114"/>
<polygon fill="none" stroke="#666666" points="609.5,0 609.5,-160 730.25,-160 730.25,0 609.5,0"/>
</a>
</g>
</g>
<!-- Node1&#45;&gt;Node7 -->
<g id="edge6_Node000001_Node000007" class="edge">
<title>Node1&#45;&gt;Node7</title>
<g id="a_edge6_Node000001_Node000007"><a xlink:title=" ">
<path fill="none" stroke="#63b8ff" d="M669.88,-184.83C669.88,-176.31 669.88,-167.96 669.88,-159.92"/>
<polygon fill="none" stroke="#63b8ff" points="666.38,-184.61 669.88,-194.61 673.38,-184.61 666.38,-184.61"/>
</a>
</g>
</g>
<!-- Node8 -->
<g id="Node000008" class="node">
<title>Node8</title>
<g id="a_Node000008"><a xlink:href="classanch_1_1date_1_1formatter_1_1_minute_formatter.html" target="_top" xlink:title=" ">
<polygon fill="white" stroke="none" points="849.5,-160 748.25,-160 748.25,0 849.5,0 849.5,-160"/>
<text xml:space="preserve" text-anchor="start" x="753.5" y="-146.5" font-family="Helvetica,sans-Serif" font-size="10.00">anch::date::formatter</text>
<text xml:space="preserve" text-anchor="start" x="760.25" y="-134.5" font-family="Helvetica,sans-Serif" font-size="10.00">::MinuteFormatter</text>
<text xml:space="preserve" text-anchor="start" x="752.25" y="-118.5" font-family="Helvetica,sans-Serif" font-size="10.00">+</text>
<text xml:space="preserve" text-anchor="start" x="762.25" y="-118.5" font-family="Helvetica,sans-Serif" font-size="10.00">PATTERN</text>
<text xml:space="preserve" text-anchor="start" x="752.25" y="-102.5" font-family="Helvetica,sans-Serif" font-size="10.00">+</text>
<text xml:space="preserve" text-anchor="start" x="762.25" y="-102.5" font-family="Helvetica,sans-Serif" font-size="10.00">MinuteFormatter()</text>
<text xml:space="preserve" text-anchor="start" x="752.25" y="-86.5" font-family="Helvetica,sans-Serif" font-size="10.00">+</text>
<text xml:space="preserve" text-anchor="start" x="762.25" y="-86.5" font-family="Helvetica,sans-Serif" font-size="10.00">~MinuteFormatter()</text>
<text xml:space="preserve" text-anchor="start" x="752.25" y="-70.5" font-family="Helvetica,sans-Serif" font-size="10.00">+</text>
<text xml:space="preserve" text-anchor="start" x="762.25" y="-70.5" font-family="Helvetica,sans-Serif" font-size="10.00">format()</text>
<text xml:space="preserve" text-anchor="start" x="752.25" y="-54.5" font-family="Helvetica,sans-Serif" font-size="10.00">+</text>
<text xml:space="preserve" text-anchor="start" x="762.25" y="-54.5" font-family="Helvetica,sans-Serif" font-size="10.00">getSize()</text>
<text xml:space="preserve" text-anchor="start" x="752.25" y="-38.5" font-family="Helvetica,sans-Serif" font-size="10.00">+</text>
<text xml:space="preserve" text-anchor="start" x="762.25" y="-38.5" font-family="Helvetica,sans-Serif" font-size="10.00">setValue()</text>
<text xml:space="preserve" text-anchor="start" x="752.25" y="-22.5" font-family="Helvetica,sans-Serif" font-size="10.00">+</text>
<text xml:space="preserve" text-anchor="start" x="762.25" y="-22.5" font-family="Helvetica,sans-Serif" font-size="10.00">getPattern()</text>
<text xml:space="preserve" text-anchor="start" x="752.25" y="-6.5" font-family="Helvetica,sans-Serif" font-size="10.00">+</text>
<text xml:space="preserve" text-anchor="start" x="762.25" y="-6.5" font-family="Helvetica,sans-Serif" font-size="10.00">getInstance()</text>
<polygon fill="#666666" stroke="#666666" points="748.25,-130 748.25,-130 849.5,-130 849.5,-130 748.25,-130"/>
<polygon fill="#666666" stroke="#666666" points="748.25,-114 748.25,-114 760.25,-114 760.25,-114 748.25,-114"/>
<polygon fill="#666666" stroke="#666666" points="760.25,-114 760.25,-114 849.5,-114 849.5,-114 760.25,-114"/>
<polygon fill="none" stroke="#666666" points="748.25,0 748.25,-160 849.5,-160 849.5,0 748.25,0"/>
</a>
</g>
</g>
<!-- Node1&#45;&gt;Node8 -->
<g id="edge7_Node000001_Node000008" class="edge">
<title>Node1&#45;&gt;Node8</title>
<g id="a_edge7_Node000001_Node000008"><a xlink:title=" ">
<path fill="none" stroke="#63b8ff" d="M731.82,-219.26C741.69,-198.91 751.64,-178.4 760.74,-159.63"/>
<polygon fill="none" stroke="#63b8ff" points="728.71,-217.67 727.49,-228.19 735.01,-220.72 728.71,-217.67"/>
</a>
</g>
</g>
<!-- Node9 -->
<g id="Node000009" class="node">
<title>Node9</title>
<g id="a_Node000009"><a xlink:href="classanch_1_1date_1_1formatter_1_1_month_formatter.html" target="_top" xlink:title=" ">
<polygon fill="white" stroke="none" points="966.38,-160 867.38,-160 867.38,0 966.38,0 966.38,-160"/>
<text xml:space="preserve" text-anchor="start" x="871.5" y="-146.5" font-family="Helvetica,sans-Serif" font-size="10.00">anch::date::formatter</text>
<text xml:space="preserve" text-anchor="start" x="879.38" y="-134.5" font-family="Helvetica,sans-Serif" font-size="10.00">::MonthFormatter</text>
<text xml:space="preserve" text-anchor="start" x="871.38" y="-118.5" font-family="Helvetica,sans-Serif" font-size="10.00">+</text>
<text xml:space="preserve" text-anchor="start" x="881.38" y="-118.5" font-family="Helvetica,sans-Serif" font-size="10.00">PATTERN</text>
<text xml:space="preserve" text-anchor="start" x="871.38" y="-102.5" font-family="Helvetica,sans-Serif" font-size="10.00">+</text>
<text xml:space="preserve" text-anchor="start" x="881.38" y="-102.5" font-family="Helvetica,sans-Serif" font-size="10.00">MonthFormatter()</text>
<text xml:space="preserve" text-anchor="start" x="871.38" y="-86.5" font-family="Helvetica,sans-Serif" font-size="10.00">+</text>
<text xml:space="preserve" text-anchor="start" x="881.38" y="-86.5" font-family="Helvetica,sans-Serif" font-size="10.00">~MonthFormatter()</text>
<text xml:space="preserve" text-anchor="start" x="871.38" y="-70.5" font-family="Helvetica,sans-Serif" font-size="10.00">+</text>
<text xml:space="preserve" text-anchor="start" x="881.38" y="-70.5" font-family="Helvetica,sans-Serif" font-size="10.00">format()</text>
<text xml:space="preserve" text-anchor="start" x="871.38" y="-54.5" font-family="Helvetica,sans-Serif" font-size="10.00">+</text>
<text xml:space="preserve" text-anchor="start" x="881.38" y="-54.5" font-family="Helvetica,sans-Serif" font-size="10.00">getSize()</text>
<text xml:space="preserve" text-anchor="start" x="871.38" y="-38.5" font-family="Helvetica,sans-Serif" font-size="10.00">+</text>
<text xml:space="preserve" text-anchor="start" x="881.38" y="-38.5" font-family="Helvetica,sans-Serif" font-size="10.00">setValue()</text>
<text xml:space="preserve" text-anchor="start" x="871.38" y="-22.5" font-family="Helvetica,sans-Serif" font-size="10.00">+</text>
<text xml:space="preserve" text-anchor="start" x="881.38" y="-22.5" font-family="Helvetica,sans-Serif" font-size="10.00">getPattern()</text>
<text xml:space="preserve" text-anchor="start" x="871.38" y="-6.5" font-family="Helvetica,sans-Serif" font-size="10.00">+</text>
<text xml:space="preserve" text-anchor="start" x="881.38" y="-6.5" font-family="Helvetica,sans-Serif" font-size="10.00">getInstance()</text>
<polygon fill="#666666" stroke="#666666" points="867.38,-130 867.38,-130 966.38,-130 966.38,-130 867.38,-130"/>
<polygon fill="#666666" stroke="#666666" points="867.38,-114 867.38,-114 879.38,-114 879.38,-114 867.38,-114"/>
<polygon fill="#666666" stroke="#666666" points="879.38,-114 879.38,-114 966.38,-114 966.38,-114 879.38,-114"/>
<polygon fill="none" stroke="#666666" points="867.38,0 867.38,-160 966.38,-160 966.38,0 867.38,0"/>
</a>
</g>
</g>
<!-- Node1&#45;&gt;Node9 -->
<g id="edge8_Node000001_Node000009" class="edge">
<title>Node1&#45;&gt;Node9</title>
<g id="a_edge8_Node000001_Node000009"><a xlink:title=" ">
<path fill="none" stroke="#63b8ff" d="M735.16,-287.29C772.8,-251.7 820.18,-204.83 858.88,-160 861.77,-156.65 864.67,-153.17 867.55,-149.61"/>
<polygon fill="none" stroke="#63b8ff" points="732.78,-284.73 727.9,-294.13 737.58,-289.83 732.78,-284.73"/>
</a>
</g>
</g>
<!-- Node10 -->
<g id="Node000010" class="node">
<title>Node10</title>
<g id="a_Node000010"><a xlink:href="classanch_1_1date_1_1formatter_1_1_second_formatter.html" target="_top" xlink:title=" ">
<polygon fill="white" stroke="none" points="1089.38,-160 984.38,-160 984.38,0 1089.38,0 1089.38,-160"/>
<text xml:space="preserve" text-anchor="start" x="991.5" y="-146.5" font-family="Helvetica,sans-Serif" font-size="10.00">anch::date::formatter</text>
<text xml:space="preserve" text-anchor="start" x="996.38" y="-134.5" font-family="Helvetica,sans-Serif" font-size="10.00">::SecondFormatter</text>
<text xml:space="preserve" text-anchor="start" x="988.38" y="-118.5" font-family="Helvetica,sans-Serif" font-size="10.00">+</text>
<text xml:space="preserve" text-anchor="start" x="998.38" y="-118.5" font-family="Helvetica,sans-Serif" font-size="10.00">PATTERN</text>
<text xml:space="preserve" text-anchor="start" x="988.38" y="-102.5" font-family="Helvetica,sans-Serif" font-size="10.00">+</text>
<text xml:space="preserve" text-anchor="start" x="998.38" y="-102.5" font-family="Helvetica,sans-Serif" font-size="10.00">SecondFormatter()</text>
<text xml:space="preserve" text-anchor="start" x="988.38" y="-86.5" font-family="Helvetica,sans-Serif" font-size="10.00">+</text>
<text xml:space="preserve" text-anchor="start" x="998.38" y="-86.5" font-family="Helvetica,sans-Serif" font-size="10.00">~SecondFormatter()</text>
<text xml:space="preserve" text-anchor="start" x="988.38" y="-70.5" font-family="Helvetica,sans-Serif" font-size="10.00">+</text>
<text xml:space="preserve" text-anchor="start" x="998.38" y="-70.5" font-family="Helvetica,sans-Serif" font-size="10.00">format()</text>
<text xml:space="preserve" text-anchor="start" x="988.38" y="-54.5" font-family="Helvetica,sans-Serif" font-size="10.00">+</text>
<text xml:space="preserve" text-anchor="start" x="998.38" y="-54.5" font-family="Helvetica,sans-Serif" font-size="10.00">getSize()</text>
<text xml:space="preserve" text-anchor="start" x="988.38" y="-38.5" font-family="Helvetica,sans-Serif" font-size="10.00">+</text>
<text xml:space="preserve" text-anchor="start" x="998.38" y="-38.5" font-family="Helvetica,sans-Serif" font-size="10.00">setValue()</text>
<text xml:space="preserve" text-anchor="start" x="988.38" y="-22.5" font-family="Helvetica,sans-Serif" font-size="10.00">+</text>
<text xml:space="preserve" text-anchor="start" x="998.38" y="-22.5" font-family="Helvetica,sans-Serif" font-size="10.00">getPattern()</text>
<text xml:space="preserve" text-anchor="start" x="988.38" y="-6.5" font-family="Helvetica,sans-Serif" font-size="10.00">+</text>
<text xml:space="preserve" text-anchor="start" x="998.38" y="-6.5" font-family="Helvetica,sans-Serif" font-size="10.00">getInstance()</text>
<polygon fill="#666666" stroke="#666666" points="984.38,-130 984.38,-130 1089.38,-130 1089.38,-130 984.38,-130"/>
<polygon fill="#666666" stroke="#666666" points="984.38,-114 984.38,-114 996.38,-114 996.38,-114 984.38,-114"/>
<polygon fill="#666666" stroke="#666666" points="996.38,-114 996.38,-114 1089.38,-114 1089.38,-114 996.38,-114"/>
<polygon fill="none" stroke="#666666" points="984.38,0 984.38,-160 1089.38,-160 1089.38,0 984.38,0"/>
</a>
</g>
</g>
<!-- Node1&#45;&gt;Node10 -->
<g id="edge9_Node000001_Node000010" class="edge">
<title>Node1&#45;&gt;Node10</title>
<g id="a_edge9_Node000001_Node000010"><a xlink:title=" ">
<path fill="none" stroke="#63b8ff" d="M736.93,-315.11C802.28,-282.04 902.28,-225.98 975.88,-160 978.84,-157.34 981.77,-154.52 984.64,-151.59"/>
<polygon fill="none" stroke="#63b8ff" points="735.47,-311.93 728.1,-319.54 738.61,-318.19 735.47,-311.93"/>
</a>
</g>
</g>
<!-- Node11 -->
<g id="Node000011" class="node">
<title>Node11</title>
<g id="a_Node000011"><a xlink:href="classanch_1_1date_1_1formatter_1_1_year2_d_formatter.html" target="_top" xlink:title=" ">
<polygon fill="white" stroke="none" points="1212,-160 1107.75,-160 1107.75,0 1212,0 1212,-160"/>
<text xml:space="preserve" text-anchor="start" x="1114.5" y="-146.5" font-family="Helvetica,sans-Serif" font-size="10.00">anch::date::formatter</text>
<text xml:space="preserve" text-anchor="start" x="1119.75" y="-134.5" font-family="Helvetica,sans-Serif" font-size="10.00">::Year2DFormatter</text>
<text xml:space="preserve" text-anchor="start" x="1111.75" y="-118.5" font-family="Helvetica,sans-Serif" font-size="10.00">+</text>
<text xml:space="preserve" text-anchor="start" x="1121.75" y="-118.5" font-family="Helvetica,sans-Serif" font-size="10.00">PATTERN</text>
<text xml:space="preserve" text-anchor="start" x="1111.75" y="-102.5" font-family="Helvetica,sans-Serif" font-size="10.00">+</text>
<text xml:space="preserve" text-anchor="start" x="1121.75" y="-102.5" font-family="Helvetica,sans-Serif" font-size="10.00">Year2DFormatter()</text>
<text xml:space="preserve" text-anchor="start" x="1111.75" y="-86.5" font-family="Helvetica,sans-Serif" font-size="10.00">+</text>
<text xml:space="preserve" text-anchor="start" x="1121.75" y="-86.5" font-family="Helvetica,sans-Serif" font-size="10.00">~Year2DFormatter()</text>
<text xml:space="preserve" text-anchor="start" x="1111.75" y="-70.5" font-family="Helvetica,sans-Serif" font-size="10.00">+</text>
<text xml:space="preserve" text-anchor="start" x="1121.75" y="-70.5" font-family="Helvetica,sans-Serif" font-size="10.00">format()</text>
<text xml:space="preserve" text-anchor="start" x="1111.75" y="-54.5" font-family="Helvetica,sans-Serif" font-size="10.00">+</text>
<text xml:space="preserve" text-anchor="start" x="1121.75" y="-54.5" font-family="Helvetica,sans-Serif" font-size="10.00">getSize()</text>
<text xml:space="preserve" text-anchor="start" x="1111.75" y="-38.5" font-family="Helvetica,sans-Serif" font-size="10.00">+</text>
<text xml:space="preserve" text-anchor="start" x="1121.75" y="-38.5" font-family="Helvetica,sans-Serif" font-size="10.00">setValue()</text>
<text xml:space="preserve" text-anchor="start" x="1111.75" y="-22.5" font-family="Helvetica,sans-Serif" font-size="10.00">+</text>
<text xml:space="preserve" text-anchor="start" x="1121.75" y="-22.5" font-family="Helvetica,sans-Serif" font-size="10.00">getPattern()</text>
<text xml:space="preserve" text-anchor="start" x="1111.75" y="-6.5" font-family="Helvetica,sans-Serif" font-size="10.00">+</text>
<text xml:space="preserve" text-anchor="start" x="1121.75" y="-6.5" font-family="Helvetica,sans-Serif" font-size="10.00">getInstance()</text>
<polygon fill="#666666" stroke="#666666" points="1107.75,-130 1107.75,-130 1212,-130 1212,-130 1107.75,-130"/>
<polygon fill="#666666" stroke="#666666" points="1107.75,-114 1107.75,-114 1119.75,-114 1119.75,-114 1107.75,-114"/>
<polygon fill="#666666" stroke="#666666" points="1119.75,-114 1119.75,-114 1212,-114 1212,-114 1119.75,-114"/>
<polygon fill="none" stroke="#666666" points="1107.75,0 1107.75,-160 1212,-160 1212,0 1107.75,0"/>
</a>
</g>
</g>
<!-- Node1&#45;&gt;Node11 -->
<g id="edge10_Node000001_Node000011" class="edge">
<title>Node1&#45;&gt;Node11</title>
<g id="a_edge10_Node000001_Node000011"><a xlink:title=" ">
<path fill="none" stroke="#63b8ff" d="M737.57,-329.03C827.09,-302.83 986.62,-247.51 1098.88,-160 1102.02,-157.55 1105.09,-154.9 1108.07,-152.11"/>
<polygon fill="none" stroke="#63b8ff" points="736.83,-325.6 728.19,-331.73 738.77,-332.32 736.83,-325.6"/>
</a>
</g>
</g>
<!-- Node12 -->
<g id="Node000012" class="node">
<title>Node12</title>
<g id="a_Node000012"><a xlink:href="classanch_1_1date_1_1formatter_1_1_year4_d_formatter.html" target="_top" xlink:title=" ">
<polygon fill="white" stroke="none" points="1334,-160 1229.75,-160 1229.75,0 1334,0 1334,-160"/>
<text xml:space="preserve" text-anchor="start" x="1236.5" y="-146.5" font-family="Helvetica,sans-Serif" font-size="10.00">anch::date::formatter</text>
<text xml:space="preserve" text-anchor="start" x="1241.75" y="-134.5" font-family="Helvetica,sans-Serif" font-size="10.00">::Year4DFormatter</text>
<text xml:space="preserve" text-anchor="start" x="1233.75" y="-118.5" font-family="Helvetica,sans-Serif" font-size="10.00">+</text>
<text xml:space="preserve" text-anchor="start" x="1243.75" y="-118.5" font-family="Helvetica,sans-Serif" font-size="10.00">PATTERN</text>
<text xml:space="preserve" text-anchor="start" x="1233.75" y="-102.5" font-family="Helvetica,sans-Serif" font-size="10.00">+</text>
<text xml:space="preserve" text-anchor="start" x="1243.75" y="-102.5" font-family="Helvetica,sans-Serif" font-size="10.00">Year4DFormatter()</text>
<text xml:space="preserve" text-anchor="start" x="1233.75" y="-86.5" font-family="Helvetica,sans-Serif" font-size="10.00">+</text>
<text xml:space="preserve" text-anchor="start" x="1243.75" y="-86.5" font-family="Helvetica,sans-Serif" font-size="10.00">~Year4DFormatter()</text>
<text xml:space="preserve" text-anchor="start" x="1233.75" y="-70.5" font-family="Helvetica,sans-Serif" font-size="10.00">+</text>
<text xml:space="preserve" text-anchor="start" x="1243.75" y="-70.5" font-family="Helvetica,sans-Serif" font-size="10.00">format()</text>
<text xml:space="preserve" text-anchor="start" x="1233.75" y="-54.5" font-family="Helvetica,sans-Serif" font-size="10.00">+</text>
<text xml:space="preserve" text-anchor="start" x="1243.75" y="-54.5" font-family="Helvetica,sans-Serif" font-size="10.00">getSize()</text>
<text xml:space="preserve" text-anchor="start" x="1233.75" y="-38.5" font-family="Helvetica,sans-Serif" font-size="10.00">+</text>
<text xml:space="preserve" text-anchor="start" x="1243.75" y="-38.5" font-family="Helvetica,sans-Serif" font-size="10.00">setValue()</text>
<text xml:space="preserve" text-anchor="start" x="1233.75" y="-22.5" font-family="Helvetica,sans-Serif" font-size="10.00">+</text>
<text xml:space="preserve" text-anchor="start" x="1243.75" y="-22.5" font-family="Helvetica,sans-Serif" font-size="10.00">getPattern()</text>
<text xml:space="preserve" text-anchor="start" x="1233.75" y="-6.5" font-family="Helvetica,sans-Serif" font-size="10.00">+</text>
<text xml:space="preserve" text-anchor="start" x="1243.75" y="-6.5" font-family="Helvetica,sans-Serif" font-size="10.00">getInstance()</text>
<polygon fill="#666666" stroke="#666666" points="1229.75,-130 1229.75,-130 1334,-130 1334,-130 1229.75,-130"/>
<polygon fill="#666666" stroke="#666666" points="1229.75,-114 1229.75,-114 1241.75,-114 1241.75,-114 1229.75,-114"/>
<polygon fill="#666666" stroke="#666666" points="1241.75,-114 1241.75,-114 1334,-114 1334,-114 1241.75,-114"/>
<polygon fill="none" stroke="#666666" points="1229.75,0 1229.75,-160 1334,-160 1334,0 1229.75,0"/>
</a>
</g>
</g>
<!-- Node1&#45;&gt;Node12 -->
<g id="edge11_Node000001_Node000012" class="edge">
<title>Node1&#45;&gt;Node12</title>
<g id="a_edge11_Node000001_Node000012"><a xlink:title=" ">
<path fill="none" stroke="#63b8ff" d="M738.07,-336.95C848.3,-318.01 1068.64,-268.74 1220.88,-160 1223.98,-157.78 1227,-155.37 1229.92,-152.8"/>
<polygon fill="none" stroke="#63b8ff" points="737.56,-333.49 728.28,-338.6 738.72,-340.39 737.56,-333.49"/>
</a>
</g>
</g>
</g>
</svg>
