<?xml version="1.0" encoding="UTF-8" standalone="no"?>
<!DOCTYPE svg PUBLIC "-//W3C//DTD SVG 1.1//EN"
 "http://www.w3.org/Graphics/SVG/1.1/DTD/svg11.dtd">
<!-- Generated by graphviz version 12.0.0 (0)
 -->
<!-- Title: anch::cutils::CIOStream Pages: 1 -->
<svg width="132pt" height="196pt"
 viewBox="0.00 0.00 132.00 196.00" xmlns="http://www.w3.org/2000/svg" xmlns:xlink="http://www.w3.org/1999/xlink">
<g id="graph0" class="graph" transform="scale(1 1) rotate(0) translate(4 192)">
<title>anch::cutils::CIOStream</title>
<!-- Node1 -->
<g id="Node000001" class="node">
<title>Node1</title>
<g id="a_Node000001"><a xlink:title=" ">
<polygon fill="#999999" stroke="none" points="124,-100 0,-100 0,0 124,0 124,-100"/>
<text text-anchor="start" x="5" y="-86.5" font-family="Helvetica,sans-Serif" font-size="10.00">anch::cutils::CIOStream</text>
<text text-anchor="start" x="60.5" y="-70.5" font-family="Helvetica,sans-Serif" font-size="10.00"> </text>
<text text-anchor="start" x="12.88" y="-54.5" font-family="Helvetica,sans-Serif" font-size="10.00">+</text>
<text text-anchor="start" x="34" y="-54.5" font-family="Helvetica,sans-Serif" font-size="10.00">CIOStream()</text>
<text text-anchor="start" x="12.88" y="-38.5" font-family="Helvetica,sans-Serif" font-size="10.00">+</text>
<text text-anchor="start" x="34" y="-38.5" font-family="Helvetica,sans-Serif" font-size="10.00">~CIOStream()</text>
<text text-anchor="start" x="12.88" y="-22.5" font-family="Helvetica,sans-Serif" font-size="10.00">#</text>
<text text-anchor="start" x="34" y="-22.5" font-family="Helvetica,sans-Serif" font-size="10.00">CIOStream()</text>
<text text-anchor="start" x="12.88" y="-6.5" font-family="Helvetica,sans-Serif" font-size="10.00">#</text>
<text text-anchor="start" x="34" y="-6.5" font-family="Helvetica,sans-Serif" font-size="10.00">setBuffer()</text>
<polygon fill="#666666" stroke="#666666" points="0,-82 0,-82 124,-82 124,-82 0,-82"/>
<polygon fill="#666666" stroke="#666666" points="0,-66 0,-66 124,-66 124,-66 0,-66"/>
<polygon fill="none" stroke="#666666" points="0,0 0,-100 124,-100 124,0 0,0"/>
</a>
</g>
</g>
<!-- Node2 -->
<g id="Node000002" class="node">
<title>Node2</title>
<g id="a_Node000002"><a xlink:title=" ">
<polygon fill="white" stroke="none" points="99,-188 25,-188 25,-136 99,-136 99,-188"/>
<text text-anchor="start" x="29.75" y="-174.5" font-family="Helvetica,sans-Serif" font-size="10.00">std::iostream</text>
<text text-anchor="start" x="60.5" y="-158.5" font-family="Helvetica,sans-Serif" font-size="10.00"> </text>
<text text-anchor="start" x="60.5" y="-142.5" font-family="Helvetica,sans-Serif" font-size="10.00"> </text>
<polygon fill="#bfbfbf" stroke="#bfbfbf" points="25,-170 25,-170 99,-170 99,-170 25,-170"/>
<polygon fill="#bfbfbf" stroke="#bfbfbf" points="25,-154 25,-154 99,-154 99,-154 25,-154"/>
<polygon fill="none" stroke="#bfbfbf" points="25,-136 25,-188 99,-188 99,-136 25,-136"/>
</a>
</g>
</g>
<!-- Node2&#45;&gt;Node1 -->
<g id="edge1_Node000001_Node000002" class="edge">
<title>Node2&#45;&gt;Node1</title>
<g id="a_edge1_Node000001_Node000002"><a xlink:title=" ">
<path fill="none" stroke="#63b8ff" d="M62,-124.53C62,-116.58 62,-108.05 62,-99.72"/>
<polygon fill="none" stroke="#63b8ff" points="58.5,-124.53 62,-134.53 65.5,-124.53 58.5,-124.53"/>
</a>
</g>
</g>
</g>
</svg>
