<?xml version="1.0" encoding="UTF-8" standalone="no"?>
<!DOCTYPE svg PUBLIC "-//W3C//DTD SVG 1.1//EN"
 "http://www.w3.org/Graphics/SVG/1.1/DTD/svg11.dtd">
<!-- Generated by graphviz version 8.0.1 (0)
 -->
<!-- Title: anch::Singleton&lt; T &gt; Pages: 1 -->
<!--zoomable 398 -->
<svg id="main" version="1.1" xmlns="http://www.w3.org/2000/svg" xmlns:xlink="http://www.w3.org/1999/xlink" xml:space="preserve" onload="init(evt)">
<style type="text/css"><![CDATA[
.edge:hover path { stroke: red; }
.edge:hover polygon { stroke: red; fill: red; }
]]></style>
<script type="text/javascript"><![CDATA[
var edges = document.getElementsByTagName('g');
if (edges && edges.length) {
  for (var i=0;i<edges.length;i++) {
    if (edges[i].id.substr(0,4)=='edge') {
      edges[i].setAttribute('class','edge');
    }
  }
}
]]></script>
        <defs>
                <circle id="rim" cx="0" cy="0" r="7"/>
                <circle id="rim2" cx="0" cy="0" r="3.5"/>
                <g id="zoomPlus">
                        <use xlink:href="#rim" fill="#404040">
                                <set attributeName="fill" to="#808080" begin="zoomplus.mouseover" end="zoomplus.mouseout"/>
                        </use>
                        <path d="M-4,0h8M0,-4v8" fill="none" stroke="white" stroke-width="1.5" pointer-events="none"/>
                </g>
                <g id="zoomMin">
                        <use xlink:href="#rim" fill="#404040">
                                <set attributeName="fill" to="#808080" begin="zoomminus.mouseover" end="zoomminus.mouseout"/>
                        </use>
                        <path d="M-4,0h8" fill="none" stroke="white" stroke-width="1.5" pointer-events="none"/>
                </g>
                <g id="dirArrow">
                        <path fill="none" stroke="white" stroke-width="1.5" d="M0,-3.0v7 M-2.5,-0.5L0,-3.0L2.5,-0.5"/>
                </g>
               <g id="resetDef">
                       <use xlink:href="#rim2" fill="#404040">
                               <set attributeName="fill" to="#808080" begin="reset.mouseover" end="reset.mouseout"/>
                       </use>
               </g>
        </defs>

<script type="text/javascript">
var viewWidth = 1064;
var viewHeight = 398;
var sectionId = 'dynsection-0';
</script>
<script xlink:href="svgpan.js"/>
<svg id="graph" class="graph">
<g id="viewport">
<title>anch::Singleton&lt; T &gt;</title>
<!-- Node1 -->
<g id="node1" class="node">
<title>Node1</title>
<g id="a_node1"><a xlink:title="Meyers&#39; singleton implemtation.">
<polygon fill="#999999" stroke="#666666" points="424,-332.5 424,-389.5 544,-389.5 544,-332.5 424,-332.5"/>
<text text-anchor="middle" x="484" y="-377.5" font-family="Helvetica,sans-Serif" font-size="10.00">anch::Singleton&lt; T &gt;</text>
<polyline fill="none" stroke="#666666" points="424,-370.5 544,-370.5"/>
<text text-anchor="middle" x="484" y="-358.5" font-family="Helvetica,sans-Serif" font-size="10.00"> </text>
<polyline fill="none" stroke="#666666" points="424,-351.5 544,-351.5"/>
<text text-anchor="start" x="432" y="-339.5" font-family="Helvetica,sans-Serif" font-size="10.00">+ getInstance()</text>
</a>
</g>
</g>
<!-- Node2 -->
<g id="node2" class="node">
<title>Node2</title>
<g id="a_node2"><a xlink:href="classanch_1_1_singleton.html" target="_top" xlink:title=" ">
<polygon fill="white" stroke="#666666" points="0,-222 0,-279 134,-279 134,-222 0,-222"/>
<text text-anchor="middle" x="67" y="-267" font-family="Helvetica,sans-Serif" font-size="10.00">anch::Singleton&lt; CPU &gt;</text>
<polyline fill="none" stroke="#666666" points="0,-260 134,-260"/>
<text text-anchor="middle" x="67" y="-248" font-family="Helvetica,sans-Serif" font-size="10.00"> </text>
<polyline fill="none" stroke="#666666" points="0,-241 134,-241"/>
<text text-anchor="start" x="8" y="-229" font-family="Helvetica,sans-Serif" font-size="10.00">+ getInstance()</text>
</a>
</g>
</g>
<!-- Node1&#45;&gt;Node2 -->
<g id="edge1" class="edge">
<title>Node1&#45;&gt;Node2</title>
<path fill="none" stroke="orange" d="M413.76,-348.89C344.01,-336.86 234.57,-315.24 143,-285 137.52,-283.19 131.9,-281.13 126.32,-278.94"/>
<polygon fill="orange" stroke="orange" points="412.73,-352.44 423.18,-350.67 413.91,-345.54 412.73,-352.44"/>
<text text-anchor="middle" x="268" y="-306" font-family="Helvetica,sans-Serif" font-size="10.00"> &lt; CPU &gt;</text>
</g>
<!-- Node4 -->
<g id="node4" class="node">
<title>Node4</title>
<g id="a_node4"><a xlink:href="classanch_1_1_singleton.html" target="_top" xlink:title=" ">
<polygon fill="white" stroke="#666666" points="152.5,-216.5 152.5,-284.5 301.5,-284.5 301.5,-216.5 152.5,-216.5"/>
<text text-anchor="start" x="160.5" y="-272.5" font-family="Helvetica,sans-Serif" font-size="10.00">anch::Singleton&lt; EventBus</text>
<text text-anchor="middle" x="227" y="-261.5" font-family="Helvetica,sans-Serif" font-size="10.00">&lt; T &gt; &gt;</text>
<polyline fill="none" stroke="#666666" points="152.5,-254.5 301.5,-254.5"/>
<text text-anchor="middle" x="227" y="-242.5" font-family="Helvetica,sans-Serif" font-size="10.00"> </text>
<polyline fill="none" stroke="#666666" points="152.5,-235.5 301.5,-235.5"/>
<text text-anchor="start" x="160.5" y="-223.5" font-family="Helvetica,sans-Serif" font-size="10.00">+ getInstance()</text>
</a>
</g>
</g>
<!-- Node1&#45;&gt;Node4 -->
<g id="edge3" class="edge">
<title>Node1&#45;&gt;Node4</title>
<path fill="none" stroke="orange" d="M414.02,-339.63C391.37,-332.35 366.34,-323.55 344,-314 323.88,-305.4 302.59,-294.57 283.75,-284.36"/>
<polygon fill="orange" stroke="orange" points="412.65,-343.18 423.24,-342.87 414.76,-336.51 412.65,-343.18"/>
<text text-anchor="middle" x="394" y="-306" font-family="Helvetica,sans-Serif" font-size="10.00"> &lt; EventBus&lt; T &gt; &gt;</text>
</g>
<!-- Node6 -->
<g id="node6" class="node">
<title>Node6</title>
<g id="a_node6"><a xlink:href="classanch_1_1_singleton.html" target="_top" xlink:title=" ">
<polygon fill="white" stroke="#666666" points="320,-222 320,-279 502,-279 502,-222 320,-222"/>
<text text-anchor="middle" x="411" y="-267" font-family="Helvetica,sans-Serif" font-size="10.00">anch::Singleton&lt; LoggerFactory &gt;</text>
<polyline fill="none" stroke="#666666" points="320,-260 502,-260"/>
<text text-anchor="middle" x="411" y="-248" font-family="Helvetica,sans-Serif" font-size="10.00"> </text>
<polyline fill="none" stroke="#666666" points="320,-241 502,-241"/>
<text text-anchor="start" x="328" y="-229" font-family="Helvetica,sans-Serif" font-size="10.00">+ getInstance()</text>
</a>
</g>
</g>
<!-- Node1&#45;&gt;Node6 -->
<g id="edge5" class="edge">
<title>Node1&#45;&gt;Node6</title>
<path fill="none" stroke="orange" d="M459.64,-323.79C449.78,-309.13 438.58,-292.49 429.42,-278.87"/>
<polygon fill="orange" stroke="orange" points="457.09,-325.28 465.58,-331.62 462.9,-321.37 457.09,-325.28"/>
<text text-anchor="middle" x="499" y="-306" font-family="Helvetica,sans-Serif" font-size="10.00"> &lt; LoggerFactory &gt;</text>
</g>
<!-- Node8 -->
<g id="node8" class="node">
<title>Node8</title>
<g id="a_node8"><a xlink:href="classanch_1_1_singleton.html" target="_top" xlink:title=" ">
<polygon fill="white" stroke="#666666" points="520.5,-216.5 520.5,-284.5 691.5,-284.5 691.5,-216.5 520.5,-216.5"/>
<text text-anchor="start" x="528.5" y="-272.5" font-family="Helvetica,sans-Serif" font-size="10.00">anch::Singleton&lt; GlobalMapper</text>
<text text-anchor="middle" x="606" y="-261.5" font-family="Helvetica,sans-Serif" font-size="10.00">Registry &gt;</text>
<polyline fill="none" stroke="#666666" points="520.5,-254.5 691.5,-254.5"/>
<text text-anchor="middle" x="606" y="-242.5" font-family="Helvetica,sans-Serif" font-size="10.00"> </text>
<polyline fill="none" stroke="#666666" points="520.5,-235.5 691.5,-235.5"/>
<text text-anchor="start" x="528.5" y="-223.5" font-family="Helvetica,sans-Serif" font-size="10.00">+ getInstance()</text>
</a>
</g>
</g>
<!-- Node1&#45;&gt;Node8 -->
<g id="edge7" class="edge">
<title>Node1&#45;&gt;Node8</title>
<path fill="none" stroke="orange" d="M535.06,-326.21C540.24,-322.26 545.31,-318.15 550,-314 560.15,-305.02 570.31,-294.32 579.14,-284.33"/>
<polygon fill="orange" stroke="orange" points="533.25,-323.93 527.3,-332.7 537.42,-329.56 533.25,-323.93"/>
<text text-anchor="middle" x="628.5" y="-306" font-family="Helvetica,sans-Serif" font-size="10.00"> &lt; GlobalMapperRegistry &gt;</text>
</g>
<!-- Node10 -->
<g id="node10" class="node">
<title>Node10</title>
<g id="a_node10"><a xlink:href="classanch_1_1_singleton.html" target="_top" xlink:title=" ">
<polygon fill="white" stroke="#666666" points="709.5,-216.5 709.5,-284.5 864.5,-284.5 864.5,-216.5 709.5,-216.5"/>
<text text-anchor="start" x="717.5" y="-272.5" font-family="Helvetica,sans-Serif" font-size="10.00">anch::Singleton&lt; SQLShared</text>
<text text-anchor="middle" x="787" y="-261.5" font-family="Helvetica,sans-Serif" font-size="10.00">Libraries &gt;</text>
<polyline fill="none" stroke="#666666" points="709.5,-254.5 864.5,-254.5"/>
<text text-anchor="middle" x="787" y="-242.5" font-family="Helvetica,sans-Serif" font-size="10.00"> </text>
<polyline fill="none" stroke="#666666" points="709.5,-235.5 864.5,-235.5"/>
<text text-anchor="start" x="717.5" y="-223.5" font-family="Helvetica,sans-Serif" font-size="10.00">+ getInstance()</text>
</a>
</g>
</g>
<!-- Node1&#45;&gt;Node10 -->
<g id="edge9" class="edge">
<title>Node1&#45;&gt;Node10</title>
<path fill="none" stroke="orange" d="M554.53,-352.46C597.88,-346.03 653.77,-334.44 700,-314 717.01,-306.48 734,-295.3 748.4,-284.46"/>
<polygon fill="orange" stroke="orange" points="554.2,-349.11 544.79,-353.99 555.19,-356.04 554.2,-349.11"/>
<text text-anchor="middle" x="781.5" y="-306" font-family="Helvetica,sans-Serif" font-size="10.00"> &lt; SQLSharedLibraries &gt;</text>
</g>
<!-- Node12 -->
<g id="node12" class="node">
<title>Node12</title>
<g id="a_node12"><a xlink:href="classanch_1_1_singleton.html" target="_top" xlink:title=" ">
<polygon fill="white" stroke="#666666" points="882.5,-216.5 882.5,-284.5 1055.5,-284.5 1055.5,-216.5 882.5,-216.5"/>
<text text-anchor="start" x="890.5" y="-272.5" font-family="Helvetica,sans-Serif" font-size="10.00">anch::Singleton&lt; SqlConnection</text>
<text text-anchor="middle" x="969" y="-261.5" font-family="Helvetica,sans-Serif" font-size="10.00">Factory &gt;</text>
<polyline fill="none" stroke="#666666" points="882.5,-254.5 1055.5,-254.5"/>
<text text-anchor="middle" x="969" y="-242.5" font-family="Helvetica,sans-Serif" font-size="10.00"> </text>
<polyline fill="none" stroke="#666666" points="882.5,-235.5 1055.5,-235.5"/>
<text text-anchor="start" x="890.5" y="-223.5" font-family="Helvetica,sans-Serif" font-size="10.00">+ getInstance()</text>
</a>
</g>
</g>
<!-- Node1&#45;&gt;Node12 -->
<g id="edge11" class="edge">
<title>Node1&#45;&gt;Node12</title>
<path fill="none" stroke="orange" d="M554.53,-358.17C628.6,-354.6 747.74,-344.21 846,-314 869.35,-306.82 893.62,-295.44 914.37,-284.35"/>
<polygon fill="orange" stroke="orange" points="554.77,-354.7 544.94,-358.64 555.08,-361.69 554.77,-354.7"/>
<text text-anchor="middle" x="940.5" y="-306" font-family="Helvetica,sans-Serif" font-size="10.00"> &lt; SqlConnectionFactory &gt;</text>
</g>
<!-- Node3 -->
<g id="node3" class="node">
<title>Node3</title>
<g id="a_node3"><a xlink:href="classanch_1_1device_1_1_c_p_u.html" target="_top" xlink:title="CPU features detection.">
<polygon fill="white" stroke="#666666" points="15,-17 15,-162 119,-162 119,-17 15,-17"/>
<text text-anchor="middle" x="67" y="-150" font-family="Helvetica,sans-Serif" font-size="10.00">anch::device::CPU</text>
<polyline fill="none" stroke="#666666" points="15,-143 119,-143"/>
<text text-anchor="middle" x="67" y="-131" font-family="Helvetica,sans-Serif" font-size="10.00"> </text>
<polyline fill="none" stroke="#666666" points="15,-124 119,-124"/>
<text text-anchor="start" x="23" y="-112" font-family="Helvetica,sans-Serif" font-size="10.00">+ isAES()</text>
<text text-anchor="start" x="23" y="-101" font-family="Helvetica,sans-Serif" font-size="10.00">+ isMMX()</text>
<text text-anchor="start" x="23" y="-90" font-family="Helvetica,sans-Serif" font-size="10.00">+ isSSE()</text>
<text text-anchor="start" x="23" y="-79" font-family="Helvetica,sans-Serif" font-size="10.00">+ isSSE2()</text>
<text text-anchor="start" x="23" y="-68" font-family="Helvetica,sans-Serif" font-size="10.00">+ isSSE3()</text>
<text text-anchor="start" x="23" y="-57" font-family="Helvetica,sans-Serif" font-size="10.00">+ isSSSE3()</text>
<text text-anchor="start" x="23" y="-46" font-family="Helvetica,sans-Serif" font-size="10.00">+ isSSE4()</text>
<text text-anchor="start" x="23" y="-35" font-family="Helvetica,sans-Serif" font-size="10.00">+ isSSE4_1()</text>
<text text-anchor="start" x="23" y="-24" font-family="Helvetica,sans-Serif" font-size="10.00">+ isSSE4_2()</text>
</a>
</g>
</g>
<!-- Node2&#45;&gt;Node3 -->
<g id="edge2" class="edge">
<title>Node2&#45;&gt;Node3</title>
<path fill="none" stroke="#63b8ff" d="M67,-211.37C67,-196.49 67,-178.94 67,-161.89"/>
<polygon fill="none" stroke="#63b8ff" points="63.5,-211.17 67,-221.17 70.5,-211.17 63.5,-211.17"/>
</g>
<!-- Node5 -->
<g id="node5" class="node">
<title>Node5</title>
<g id="a_node5"><a xlink:href="classanch_1_1events_1_1_event_bus.html" target="_top" xlink:title="A class which manage global events firing and events QoS.">
<polygon fill="white" stroke="#666666" points="147.5,-0.5 147.5,-178.5 306.5,-178.5 306.5,-0.5 147.5,-0.5"/>
<text text-anchor="middle" x="227" y="-166.5" font-family="Helvetica,sans-Serif" font-size="10.00">anch::events::EventBus&lt; T &gt;</text>
<polyline fill="none" stroke="#666666" points="147.5,-159.5 306.5,-159.5"/>
<text text-anchor="middle" x="227" y="-147.5" font-family="Helvetica,sans-Serif" font-size="10.00"> </text>
<polyline fill="none" stroke="#666666" points="147.5,-140.5 306.5,-140.5"/>
<text text-anchor="start" x="155.5" y="-128.5" font-family="Helvetica,sans-Serif" font-size="10.00">+ addObserver()</text>
<text text-anchor="start" x="155.5" y="-117.5" font-family="Helvetica,sans-Serif" font-size="10.00">+ removeObserver()</text>
<text text-anchor="start" x="155.5" y="-106.5" font-family="Helvetica,sans-Serif" font-size="10.00">+ fireEvent()</text>
<text text-anchor="start" x="155.5" y="-95.5" font-family="Helvetica,sans-Serif" font-size="10.00">+ fireEvent()</text>
<text text-anchor="start" x="155.5" y="-84.5" font-family="Helvetica,sans-Serif" font-size="10.00">+ scheduleDeferred()</text>
<text text-anchor="start" x="155.5" y="-73.5" font-family="Helvetica,sans-Serif" font-size="10.00">+ scheduleDeferred()</text>
<text text-anchor="start" x="155.5" y="-62.5" font-family="Helvetica,sans-Serif" font-size="10.00">+ AddObserver()</text>
<text text-anchor="start" x="155.5" y="-51.5" font-family="Helvetica,sans-Serif" font-size="10.00">+ RemoveObserver()</text>
<text text-anchor="start" x="155.5" y="-40.5" font-family="Helvetica,sans-Serif" font-size="10.00">+ FireEvent()</text>
<text text-anchor="start" x="155.5" y="-29.5" font-family="Helvetica,sans-Serif" font-size="10.00">+ FireEvent()</text>
<text text-anchor="start" x="155.5" y="-18.5" font-family="Helvetica,sans-Serif" font-size="10.00">+ ScheduleDeferred()</text>
<text text-anchor="start" x="155.5" y="-7.5" font-family="Helvetica,sans-Serif" font-size="10.00">+ ScheduleDeferred()</text>
</a>
</g>
</g>
<!-- Node4&#45;&gt;Node5 -->
<g id="edge4" class="edge">
<title>Node4&#45;&gt;Node5</title>
<path fill="none" stroke="#63b8ff" d="M227,-205.66C227,-197.03 227,-187.69 227,-178.2"/>
<polygon fill="none" stroke="#63b8ff" points="223.5,-205.56 227,-215.56 230.5,-205.56 223.5,-205.56"/>
</g>
<!-- Node7 -->
<g id="node7" class="node">
<title>Node7</title>
<g id="a_node7"><a xlink:href="classanch_1_1logger_1_1_logger_factory.html" target="_top" xlink:title="Logger factory.">
<polygon fill="white" stroke="#666666" points="335.5,-61 335.5,-118 486.5,-118 486.5,-61 335.5,-61"/>
<text text-anchor="middle" x="411" y="-106" font-family="Helvetica,sans-Serif" font-size="10.00">anch::logger::LoggerFactory</text>
<polyline fill="none" stroke="#666666" points="335.5,-99 486.5,-99"/>
<text text-anchor="middle" x="411" y="-87" font-family="Helvetica,sans-Serif" font-size="10.00"> </text>
<polyline fill="none" stroke="#666666" points="335.5,-80 486.5,-80"/>
<text text-anchor="start" x="343.5" y="-68" font-family="Helvetica,sans-Serif" font-size="10.00">+ getLogger()</text>
</a>
</g>
</g>
<!-- Node6&#45;&gt;Node7 -->
<g id="edge6" class="edge">
<title>Node6&#45;&gt;Node7</title>
<path fill="none" stroke="#63b8ff" d="M411,-211.26C411,-182.4 411,-143.5 411,-117.74"/>
<polygon fill="none" stroke="#63b8ff" points="407.5,-211.17 411,-221.17 414.5,-211.17 407.5,-211.17"/>
</g>
<!-- Node9 -->
<g id="node9" class="node">
<title>Node9</title>
<g id="a_node9"><a xlink:href="classanch_1_1rest_1_1_global_mapper_registry.html" target="_top" xlink:title=" ">
<polygon fill="white" stroke="#666666" points="536.5,-55.5 536.5,-123.5 675.5,-123.5 675.5,-55.5 536.5,-55.5"/>
<text text-anchor="start" x="544.5" y="-111.5" font-family="Helvetica,sans-Serif" font-size="10.00">anch::rest::GlobalMapper</text>
<text text-anchor="middle" x="606" y="-100.5" font-family="Helvetica,sans-Serif" font-size="10.00">Registry</text>
<polyline fill="none" stroke="#666666" points="536.5,-93.5 675.5,-93.5"/>
<text text-anchor="middle" x="606" y="-81.5" font-family="Helvetica,sans-Serif" font-size="10.00"> </text>
<polyline fill="none" stroke="#666666" points="536.5,-74.5 675.5,-74.5"/>
<text text-anchor="middle" x="606" y="-62.5" font-family="Helvetica,sans-Serif" font-size="10.00"> </text>
</a>
</g>
</g>
<!-- Node8&#45;&gt;Node9 -->
<g id="edge8" class="edge">
<title>Node8&#45;&gt;Node9</title>
<path fill="none" stroke="#63b8ff" d="M606,-205.84C606,-179.8 606,-147.27 606,-123.4"/>
<polygon fill="none" stroke="#63b8ff" points="602.5,-205.56 606,-215.56 609.5,-205.56 602.5,-205.56"/>
</g>
<!-- Node11 -->
<g id="node11" class="node">
<title>Node11</title>
<g id="a_node11"><a xlink:href="classanch_1_1sql_1_1_s_q_l_shared_libraries.html" target="_top" xlink:title="SQL shared libraries manager.">
<polygon fill="white" stroke="#666666" points="706.5,-33.5 706.5,-145.5 867.5,-145.5 867.5,-33.5 706.5,-33.5"/>
<text text-anchor="middle" x="787" y="-133.5" font-family="Helvetica,sans-Serif" font-size="10.00">anch::sql::SQLSharedLibraries</text>
<polyline fill="none" stroke="#666666" points="706.5,-126.5 867.5,-126.5"/>
<text text-anchor="middle" x="787" y="-114.5" font-family="Helvetica,sans-Serif" font-size="10.00"> </text>
<polyline fill="none" stroke="#666666" points="706.5,-107.5 867.5,-107.5"/>
<text text-anchor="start" x="714.5" y="-95.5" font-family="Helvetica,sans-Serif" font-size="10.00">+ registerSQLLibrary()</text>
<text text-anchor="start" x="714.5" y="-84.5" font-family="Helvetica,sans-Serif" font-size="10.00">+ makeSharedConnection()</text>
<text text-anchor="start" x="714.5" y="-73.5" font-family="Helvetica,sans-Serif" font-size="10.00">+ makeConnection()</text>
<text text-anchor="start" x="714.5" y="-62.5" font-family="Helvetica,sans-Serif" font-size="10.00">+ registerMySQL()</text>
<text text-anchor="start" x="714.5" y="-51.5" font-family="Helvetica,sans-Serif" font-size="10.00">+ registerPostgreSQL()</text>
<text text-anchor="start" x="714.5" y="-40.5" font-family="Helvetica,sans-Serif" font-size="10.00">+ registerSQLite()</text>
</a>
</g>
</g>
<!-- Node10&#45;&gt;Node11 -->
<g id="edge10" class="edge">
<title>Node10&#45;&gt;Node11</title>
<path fill="none" stroke="#63b8ff" d="M787,-205.7C787,-187.03 787,-165.04 787,-145.31"/>
<polygon fill="none" stroke="#63b8ff" points="783.5,-205.56 787,-215.56 790.5,-205.56 783.5,-205.56"/>
</g>
<!-- Node13 -->
<g id="node13" class="node">
<title>Node13</title>
<g id="a_node13"><a xlink:href="classanch_1_1sql_1_1_sql_connection_factory.html" target="_top" xlink:title="SQL connection factory.">
<polygon fill="white" stroke="#666666" points="901,-50 901,-129 1037,-129 1037,-50 901,-50"/>
<text text-anchor="start" x="909" y="-117" font-family="Helvetica,sans-Serif" font-size="10.00">anch::sql::SqlConnection</text>
<text text-anchor="middle" x="969" y="-106" font-family="Helvetica,sans-Serif" font-size="10.00">Factory</text>
<polyline fill="none" stroke="#666666" points="901,-99 1037,-99"/>
<text text-anchor="middle" x="969" y="-87" font-family="Helvetica,sans-Serif" font-size="10.00"> </text>
<polyline fill="none" stroke="#666666" points="901,-80 1037,-80"/>
<text text-anchor="start" x="909" y="-68" font-family="Helvetica,sans-Serif" font-size="10.00">+ createConnection()</text>
<text text-anchor="start" x="909" y="-57" font-family="Helvetica,sans-Serif" font-size="10.00">+ getPool()</text>
</a>
</g>
</g>
<!-- Node12&#45;&gt;Node13 -->
<g id="edge12" class="edge">
<title>Node12&#45;&gt;Node13</title>
<path fill="none" stroke="#63b8ff" d="M969,-205.56C969,-181.46 969,-151.86 969,-128.72"/>
<polygon fill="none" stroke="#63b8ff" points="965.5,-205.56 969,-215.56 972.5,-205.56 965.5,-205.56"/>
</g>
</g>
</svg>
        <g id="navigator" transform="translate(0 0)" fill="#404254">
                <rect fill="#f2f5e9" fill-opacity="0.5" stroke="#606060" stroke-width=".5" x="0" y="0" width="60" height="60"/>
                <use id="zoomplus" xlink:href="#zoomPlus" x="17" y="9" onmousedown="handleZoom(evt,'in')"/>
                <use id="zoomminus" xlink:href="#zoomMin" x="42" y="9" onmousedown="handleZoom(evt,'out')"/>
                <use id="reset" xlink:href="#resetDef" x="30" y="36" onmousedown="handleReset()"/>
                <g id="arrowUp" xlink:href="#dirArrow" transform="translate(30 24)" onmousedown="handlePan(0,-1)">
                  <use xlink:href="#rim" fill="#404040">
                        <set attributeName="fill" to="#808080" begin="arrowUp.mouseover" end="arrowUp.mouseout"/>
                  </use>
                  <path fill="none" stroke="white" stroke-width="1.5" d="M0,-3.0v7 M-2.5,-0.5L0,-3.0L2.5,-0.5"/>
                </g>
                <g id="arrowRight" xlink:href="#dirArrow" transform="rotate(90) translate(36 -43)" onmousedown="handlePan(1,0)">
                  <use xlink:href="#rim" fill="#404040">
                        <set attributeName="fill" to="#808080" begin="arrowRight.mouseover" end="arrowRight.mouseout"/>
                  </use>
                  <path fill="none" stroke="white" stroke-width="1.5" d="M0,-3.0v7 M-2.5,-0.5L0,-3.0L2.5,-0.5"/>
                </g>
                <g id="arrowDown" xlink:href="#dirArrow" transform="rotate(180) translate(-30 -48)" onmousedown="handlePan(0,1)">
                  <use xlink:href="#rim" fill="#404040">
                        <set attributeName="fill" to="#808080" begin="arrowDown.mouseover" end="arrowDown.mouseout"/>
                  </use>
                  <path fill="none" stroke="white" stroke-width="1.5" d="M0,-3.0v7 M-2.5,-0.5L0,-3.0L2.5,-0.5"/>
                </g>
                <g id="arrowLeft" xlink:href="#dirArrow" transform="rotate(270) translate(-36 17)" onmousedown="handlePan(-1,0)">
                  <use xlink:href="#rim" fill="#404040">
                        <set attributeName="fill" to="#808080" begin="arrowLeft.mouseover" end="arrowLeft.mouseout"/>
                  </use>
                  <path fill="none" stroke="white" stroke-width="1.5" d="M0,-3.0v7 M-2.5,-0.5L0,-3.0L2.5,-0.5"/>
                </g>
        </g>
        <svg viewBox="0 0 15 15" width="100%" height="30px" preserveAspectRatio="xMaxYMin meet">
         <g id="arrow_out" transform="scale(0.3 0.3)">
          <a xlink:href="classanch_1_1_singleton__inherit__graph_org.svg" target="_base">
           <rect id="button" ry="5" rx="5" y="6" x="6" height="38" width="38"
                fill="#f2f5e9" fill-opacity="0.5" stroke="#606060" stroke-width="1.0"/>
           <path id="arrow"
             d="M 11.500037,31.436501 C 11.940474,20.09759 22.043105,11.32322 32.158766,21.979434 L 37.068811,17.246167 C 37.068811,17.246167 37.088388,32 37.088388,32 L 22.160133,31.978069 C 22.160133,31.978069 26.997745,27.140456 26.997745,27.140456 C 18.528582,18.264221 13.291696,25.230495 11.500037,31.436501 z"
             style="fill:#404040;"/>
          </a>
         </g>
        </svg>
</svg>
