<?xml version="1.0" encoding="UTF-8" standalone="no"?>
<!DOCTYPE svg PUBLIC "-//W3C//DTD SVG 1.1//EN"
 "http://www.w3.org/Graphics/SVG/1.1/DTD/svg11.dtd">
<!-- Generated by graphviz version 12.1.2 (0)
 -->
<!-- Title: anch::sql::MySQLPreparedStatementResultSet Pages: 1 -->
<svg width="177pt" height="520pt"
 viewBox="0.00 0.00 177.00 520.00" xmlns="http://www.w3.org/2000/svg" xmlns:xlink="http://www.w3.org/1999/xlink">
<g id="graph0" class="graph" transform="scale(1 1) rotate(0) translate(4 516)">
<title>anch::sql::MySQLPreparedStatementResultSet</title>
<!-- Node1 -->
<g id="Node000001" class="node">
<title>Node1</title>
<g id="a_Node000001"><a xlink:title="MySQL result set implementation for prepared statement ... shitty API.">
<polygon fill="#999999" stroke="none" points="169,-200 0,-200 0,0 169,0 169,-200"/>
<text text-anchor="start" x="25.62" y="-186.5" font-family="Helvetica,sans-Serif" font-size="10.00">anch::sql::MySQLPrepared</text>
<text text-anchor="start" x="40.25" y="-174.5" font-family="Helvetica,sans-Serif" font-size="10.00">StatementResultSet</text>
<text text-anchor="start" x="83" y="-158.5" font-family="Helvetica,sans-Serif" font-size="10.00"> </text>
<text text-anchor="start" x="4" y="-142.5" font-family="Helvetica,sans-Serif" font-size="10.00">+</text>
<text text-anchor="start" x="14" y="-142.5" font-family="Helvetica,sans-Serif" font-size="10.00">MySQLPreparedStatementResult</text>
<text text-anchor="start" x="14" y="-130.5" font-family="Helvetica,sans-Serif" font-size="10.00">Set()</text>
<text text-anchor="start" x="4" y="-114.5" font-family="Helvetica,sans-Serif" font-size="10.00">+</text>
<text text-anchor="start" x="14" y="-114.5" font-family="Helvetica,sans-Serif" font-size="10.00">~MySQLPreparedStatementResult</text>
<text text-anchor="start" x="14" y="-102.5" font-family="Helvetica,sans-Serif" font-size="10.00">Set()</text>
<text text-anchor="start" x="4" y="-86.5" font-family="Helvetica,sans-Serif" font-size="10.00">+</text>
<text text-anchor="start" x="14" y="-86.5" font-family="Helvetica,sans-Serif" font-size="10.00">next()</text>
<text text-anchor="start" x="4.38" y="-70.5" font-family="Helvetica,sans-Serif" font-size="10.00">#</text>
<text text-anchor="start" x="14" y="-70.5" font-family="Helvetica,sans-Serif" font-size="10.00">getValue()</text>
<text text-anchor="start" x="4.38" y="-54.5" font-family="Helvetica,sans-Serif" font-size="10.00">#</text>
<text text-anchor="start" x="14" y="-54.5" font-family="Helvetica,sans-Serif" font-size="10.00">getValue()</text>
<text text-anchor="start" x="4.38" y="-38.5" font-family="Helvetica,sans-Serif" font-size="10.00">#</text>
<text text-anchor="start" x="14" y="-38.5" font-family="Helvetica,sans-Serif" font-size="10.00">getDateFormatter()</text>
<text text-anchor="start" x="4.38" y="-22.5" font-family="Helvetica,sans-Serif" font-size="10.00">#</text>
<text text-anchor="start" x="14" y="-22.5" font-family="Helvetica,sans-Serif" font-size="10.00">getTimeFormatter()</text>
<text text-anchor="start" x="4.38" y="-6.5" font-family="Helvetica,sans-Serif" font-size="10.00">#</text>
<text text-anchor="start" x="14" y="-6.5" font-family="Helvetica,sans-Serif" font-size="10.00">getTimestampFormatter()</text>
<polygon fill="#666666" stroke="#666666" points="0,-170 0,-170 169,-170 169,-170 0,-170"/>
<polygon fill="#666666" stroke="#666666" points="0,-154 0,-154 169,-154 169,-154 0,-154"/>
<polygon fill="none" stroke="#666666" points="0,0 0,-200 169,-200 169,0 0,0"/>
</a>
</g>
</g>
<!-- Node2 -->
<g id="Node000002" class="node">
<title>Node2</title>
<g id="a_Node000002"><a xlink:href="classanch_1_1sql_1_1_result_set.html" target="_top" xlink:title="SQL result representation.">
<polygon fill="white" stroke="none" points="164,-512 5,-512 5,-236 164,-236 164,-512"/>
<text text-anchor="start" x="39.88" y="-498.5" font-family="Helvetica,sans-Serif" font-size="10.00">anch::sql::ResultSet</text>
<text text-anchor="start" x="9.38" y="-482.5" font-family="Helvetica,sans-Serif" font-size="10.00">#</text>
<text text-anchor="start" x="19" y="-482.5" font-family="Helvetica,sans-Serif" font-size="10.00">_fields</text>
<text text-anchor="start" x="9" y="-466.5" font-family="Helvetica,sans-Serif" font-size="10.00">+</text>
<text text-anchor="start" x="19" y="-466.5" font-family="Helvetica,sans-Serif" font-size="10.00">ResultSet()</text>
<text text-anchor="start" x="9" y="-450.5" font-family="Helvetica,sans-Serif" font-size="10.00">+</text>
<text text-anchor="start" x="19" y="-450.5" font-family="Helvetica,sans-Serif" font-size="10.00">~ResultSet()</text>
<text text-anchor="start" x="9" y="-434.5" font-family="Helvetica,sans-Serif" font-size="10.00">+</text>
<text text-anchor="start" x="19" y="-434.5" font-family="Helvetica,sans-Serif" font-size="10.00">get()</text>
<text text-anchor="start" x="9" y="-418.5" font-family="Helvetica,sans-Serif" font-size="10.00">+</text>
<text text-anchor="start" x="19" y="-418.5" font-family="Helvetica,sans-Serif" font-size="10.00">get()</text>
<text text-anchor="start" x="9" y="-402.5" font-family="Helvetica,sans-Serif" font-size="10.00">+</text>
<text text-anchor="start" x="19" y="-402.5" font-family="Helvetica,sans-Serif" font-size="10.00">get()</text>
<text text-anchor="start" x="9" y="-386.5" font-family="Helvetica,sans-Serif" font-size="10.00">+</text>
<text text-anchor="start" x="19" y="-386.5" font-family="Helvetica,sans-Serif" font-size="10.00">get()</text>
<text text-anchor="start" x="9" y="-370.5" font-family="Helvetica,sans-Serif" font-size="10.00">+</text>
<text text-anchor="start" x="19" y="-370.5" font-family="Helvetica,sans-Serif" font-size="10.00">next()</text>
<text text-anchor="start" x="9.38" y="-354.5" font-family="Helvetica,sans-Serif" font-size="10.00">#</text>
<text text-anchor="start" x="19" y="-354.5" font-family="Helvetica,sans-Serif" font-size="10.00">getValue()</text>
<text text-anchor="start" x="9.38" y="-338.5" font-family="Helvetica,sans-Serif" font-size="10.00">#</text>
<text text-anchor="start" x="19" y="-338.5" font-family="Helvetica,sans-Serif" font-size="10.00">getValue()</text>
<text text-anchor="start" x="9.38" y="-322.5" font-family="Helvetica,sans-Serif" font-size="10.00">#</text>
<text text-anchor="start" x="19" y="-322.5" font-family="Helvetica,sans-Serif" font-size="10.00">getDateFormatter()</text>
<text text-anchor="start" x="9.38" y="-306.5" font-family="Helvetica,sans-Serif" font-size="10.00">#</text>
<text text-anchor="start" x="19" y="-306.5" font-family="Helvetica,sans-Serif" font-size="10.00">getTimeFormatter()</text>
<text text-anchor="start" x="9.38" y="-290.5" font-family="Helvetica,sans-Serif" font-size="10.00">#</text>
<text text-anchor="start" x="19" y="-290.5" font-family="Helvetica,sans-Serif" font-size="10.00">getTimestampFormatter()</text>
<text text-anchor="start" x="9.38" y="-274.5" font-family="Helvetica,sans-Serif" font-size="10.00">#</text>
<text text-anchor="start" x="19" y="-274.5" font-family="Helvetica,sans-Serif" font-size="10.00">getDefaultDateFormatter()</text>
<text text-anchor="start" x="9.38" y="-258.5" font-family="Helvetica,sans-Serif" font-size="10.00">#</text>
<text text-anchor="start" x="19" y="-258.5" font-family="Helvetica,sans-Serif" font-size="10.00">getDefaultTimeFormatter()</text>
<text text-anchor="start" x="9.38" y="-242.5" font-family="Helvetica,sans-Serif" font-size="10.00">#</text>
<text text-anchor="start" x="19" y="-242.5" font-family="Helvetica,sans-Serif" font-size="10.00">getDefaultTimestampFormatter()</text>
<polygon fill="#666666" stroke="#666666" points="5,-494 5,-494 164,-494 164,-494 5,-494"/>
<polygon fill="#666666" stroke="#666666" points="5,-478 5,-478 17,-478 17,-478 5,-478"/>
<polygon fill="#666666" stroke="#666666" points="17,-478 17,-478 164,-478 164,-478 17,-478"/>
<polygon fill="none" stroke="#666666" points="5,-236 5,-512 164,-512 164,-236 5,-236"/>
</a>
</g>
</g>
<!-- Node2&#45;&gt;Node1 -->
<g id="edge1_Node000001_Node000002" class="edge">
<title>Node2&#45;&gt;Node1</title>
<g id="a_edge1_Node000001_Node000002"><a xlink:title=" ">
<path fill="none" stroke="#63b8ff" d="M84.5,-224.97C84.5,-216.45 84.5,-207.98 84.5,-199.72"/>
<polygon fill="none" stroke="#63b8ff" points="81,-224.69 84.5,-234.69 88,-224.69 81,-224.69"/>
</a>
</g>
</g>
</g>
</svg>
