<?xml version="1.0" encoding="UTF-8" standalone="no"?>
<!DOCTYPE svg PUBLIC "-//W3C//DTD SVG 1.1//EN"
 "http://www.w3.org/Graphics/SVG/1.1/DTD/svg11.dtd">
<!-- Generated by graphviz version 2.49.3 (0)
 -->
<!-- Title: anch::network::Socket Pages: 1 -->
<svg width="310pt" height="724pt"
 viewBox="0.00 0.00 309.50 724.00" xmlns="http://www.w3.org/2000/svg" xmlns:xlink="http://www.w3.org/1999/xlink">
<g id="graph0" class="graph" transform="scale(1 1) rotate(0) translate(4 720)">
<title>anch::network::Socket</title>
<!-- Node1 -->
<g id="node1" class="node">
<title>Node1</title>
<g id="a_node1"><a xlink:title=" ">
<polygon fill="#bfbfbf" stroke="black" points="88,-205.5 88,-405.5 212,-405.5 212,-205.5 88,-205.5"/>
<text text-anchor="middle" x="150" y="-393.5" font-family="Helvetica,sans-Serif" font-size="10.00">anch::network::Socket</text>
<polyline fill="none" stroke="black" points="88,-386.5 212,-386.5 "/>
<text text-anchor="start" x="96" y="-374.5" font-family="Helvetica,sans-Serif" font-size="10.00"># _sock</text>
<text text-anchor="start" x="96" y="-363.5" font-family="Helvetica,sans-Serif" font-size="10.00"># _backlog</text>
<text text-anchor="start" x="96" y="-352.5" font-family="Helvetica,sans-Serif" font-size="10.00"># _address</text>
<polyline fill="none" stroke="black" points="88,-345.5 212,-345.5 "/>
<text text-anchor="start" x="96" y="-333.5" font-family="Helvetica,sans-Serif" font-size="10.00">+ Socket()</text>
<text text-anchor="start" x="96" y="-322.5" font-family="Helvetica,sans-Serif" font-size="10.00">+ ~Socket()</text>
<text text-anchor="start" x="96" y="-311.5" font-family="Helvetica,sans-Serif" font-size="10.00">+ bind()</text>
<text text-anchor="start" x="96" y="-300.5" font-family="Helvetica,sans-Serif" font-size="10.00">+ connect()</text>
<text text-anchor="start" x="96" y="-289.5" font-family="Helvetica,sans-Serif" font-size="10.00">+ listen()</text>
<text text-anchor="start" x="96" y="-278.5" font-family="Helvetica,sans-Serif" font-size="10.00">+ accept()</text>
<text text-anchor="start" x="96" y="-267.5" font-family="Helvetica,sans-Serif" font-size="10.00">+ send()</text>
<text text-anchor="start" x="96" y="-256.5" font-family="Helvetica,sans-Serif" font-size="10.00">+ receive()</text>
<text text-anchor="start" x="96" y="-245.5" font-family="Helvetica,sans-Serif" font-size="10.00">+ receive()</text>
<text text-anchor="start" x="96" y="-234.5" font-family="Helvetica,sans-Serif" font-size="10.00">+ shutdown()</text>
<text text-anchor="start" x="96" y="-223.5" font-family="Helvetica,sans-Serif" font-size="10.00">and 11 more...</text>
<text text-anchor="start" x="96" y="-212.5" font-family="Helvetica,sans-Serif" font-size="10.00"># Socket()</text>
</a>
</g>
</g>
<!-- Node4 -->
<g id="node4" class="node">
<title>Node4</title>
<g id="a_node4"><a xlink:href="classanch_1_1network_1_1_tcp_socket.html" target="_top" xlink:title=" ">
<polygon fill="none" stroke="black" points="0,-22.5 0,-145.5 140,-145.5 140,-22.5 0,-22.5"/>
<text text-anchor="middle" x="70" y="-133.5" font-family="Helvetica,sans-Serif" font-size="10.00">anch::network::TcpSocket</text>
<polyline fill="none" stroke="black" points="0,-126.5 140,-126.5 "/>
<text text-anchor="middle" x="70" y="-114.5" font-family="Helvetica,sans-Serif" font-size="10.00"> </text>
<polyline fill="none" stroke="black" points="0,-107.5 140,-107.5 "/>
<text text-anchor="start" x="8" y="-95.5" font-family="Helvetica,sans-Serif" font-size="10.00">+ TcpSocket()</text>
<text text-anchor="start" x="8" y="-84.5" font-family="Helvetica,sans-Serif" font-size="10.00">+ TcpSocket()</text>
<text text-anchor="start" x="8" y="-73.5" font-family="Helvetica,sans-Serif" font-size="10.00">+ ~TcpSocket()</text>
<text text-anchor="start" x="8" y="-62.5" font-family="Helvetica,sans-Serif" font-size="10.00">+ send()</text>
<text text-anchor="start" x="8" y="-51.5" font-family="Helvetica,sans-Serif" font-size="10.00">+ receive()</text>
<text text-anchor="start" x="8" y="-40.5" font-family="Helvetica,sans-Serif" font-size="10.00">+ getDomain()</text>
<text text-anchor="start" x="8" y="-29.5" font-family="Helvetica,sans-Serif" font-size="10.00">+ getType()</text>
</a>
</g>
</g>
<!-- Node1&#45;&gt;Node4 -->
<g id="edge3" class="edge">
<title>Node1&#45;&gt;Node4</title>
<path fill="none" stroke="midnightblue" d="M110.38,-195.79C104.1,-178.56 97.81,-161.29 92.12,-145.7"/>
<polygon fill="none" stroke="midnightblue" points="107.15,-197.15 113.86,-205.35 113.73,-194.75 107.15,-197.15"/>
</g>
<!-- Node5 -->
<g id="node5" class="node">
<title>Node5</title>
<g id="a_node5"><a xlink:href="classanch_1_1network_1_1_udp_socket.html" target="_top" xlink:title=" ">
<polygon fill="none" stroke="black" points="158.5,-0.5 158.5,-167.5 301.5,-167.5 301.5,-0.5 158.5,-0.5"/>
<text text-anchor="middle" x="230" y="-155.5" font-family="Helvetica,sans-Serif" font-size="10.00">anch::network::UdpSocket</text>
<polyline fill="none" stroke="black" points="158.5,-148.5 301.5,-148.5 "/>
<text text-anchor="middle" x="230" y="-136.5" font-family="Helvetica,sans-Serif" font-size="10.00"> </text>
<polyline fill="none" stroke="black" points="158.5,-129.5 301.5,-129.5 "/>
<text text-anchor="start" x="166.5" y="-117.5" font-family="Helvetica,sans-Serif" font-size="10.00">+ UdpSocket()</text>
<text text-anchor="start" x="166.5" y="-106.5" font-family="Helvetica,sans-Serif" font-size="10.00">+ UdpSocket()</text>
<text text-anchor="start" x="166.5" y="-95.5" font-family="Helvetica,sans-Serif" font-size="10.00">+ ~UdpSocket()</text>
<text text-anchor="start" x="166.5" y="-84.5" font-family="Helvetica,sans-Serif" font-size="10.00">+ listen()</text>
<text text-anchor="start" x="166.5" y="-73.5" font-family="Helvetica,sans-Serif" font-size="10.00">+ connect()</text>
<text text-anchor="start" x="166.5" y="-62.5" font-family="Helvetica,sans-Serif" font-size="10.00">+ accept()</text>
<text text-anchor="start" x="166.5" y="-51.5" font-family="Helvetica,sans-Serif" font-size="10.00">+ send()</text>
<text text-anchor="start" x="166.5" y="-40.5" font-family="Helvetica,sans-Serif" font-size="10.00">+ send()</text>
<text text-anchor="start" x="166.5" y="-29.5" font-family="Helvetica,sans-Serif" font-size="10.00">+ receive()</text>
<text text-anchor="start" x="166.5" y="-18.5" font-family="Helvetica,sans-Serif" font-size="10.00">+ getDomain()</text>
<text text-anchor="start" x="166.5" y="-7.5" font-family="Helvetica,sans-Serif" font-size="10.00">+ getType()</text>
</a>
</g>
</g>
<!-- Node1&#45;&gt;Node5 -->
<g id="edge4" class="edge">
<title>Node1&#45;&gt;Node5</title>
<path fill="none" stroke="midnightblue" d="M189.59,-195.86C193.06,-186.37 196.52,-176.86 199.89,-167.62"/>
<polygon fill="none" stroke="midnightblue" points="186.27,-194.75 186.14,-205.35 192.85,-197.15 186.27,-194.75"/>
</g>
<!-- Node2 -->
<g id="node2" class="node">
<title>Node2</title>
<g id="a_node2"><a xlink:href="classanch_1_1events_1_1_observable.html" target="_top" xlink:title=" ">
<polygon fill="none" stroke="black" points="80,-443.5 80,-555.5 220,-555.5 220,-443.5 80,-443.5"/>
<text text-anchor="start" x="88" y="-543.5" font-family="Helvetica,sans-Serif" font-size="10.00">anch::events::Observable</text>
<text text-anchor="middle" x="150" y="-532.5" font-family="Helvetica,sans-Serif" font-size="10.00">&lt; SocketEvent &gt;</text>
<polyline fill="none" stroke="black" points="80,-525.5 220,-525.5 "/>
<text text-anchor="middle" x="150" y="-513.5" font-family="Helvetica,sans-Serif" font-size="10.00"> </text>
<polyline fill="none" stroke="black" points="80,-506.5 220,-506.5 "/>
<text text-anchor="start" x="88" y="-494.5" font-family="Helvetica,sans-Serif" font-size="10.00">+ Observable()</text>
<text text-anchor="start" x="88" y="-483.5" font-family="Helvetica,sans-Serif" font-size="10.00">+ ~Observable()</text>
<text text-anchor="start" x="88" y="-472.5" font-family="Helvetica,sans-Serif" font-size="10.00">+ addObserver()</text>
<text text-anchor="start" x="88" y="-461.5" font-family="Helvetica,sans-Serif" font-size="10.00">+ removeObserver()</text>
<text text-anchor="start" x="88" y="-450.5" font-family="Helvetica,sans-Serif" font-size="10.00">+ notifyObservers()</text>
</a>
</g>
</g>
<!-- Node2&#45;&gt;Node1 -->
<g id="edge1" class="edge">
<title>Node2&#45;&gt;Node1</title>
<path fill="none" stroke="midnightblue" d="M150,-433.25C150,-424.37 150,-415.09 150,-405.78"/>
<polygon fill="none" stroke="midnightblue" points="146.5,-433.48 150,-443.48 153.5,-433.48 146.5,-433.48"/>
</g>
<!-- Node3 -->
<g id="node3" class="node">
<title>Node3</title>
<g id="a_node3"><a xlink:href="classanch_1_1events_1_1_observable.html" target="_top" xlink:title="An observable implementation of the observers/observable design pattern.">
<polygon fill="none" stroke="black" points="80,-603.5 80,-715.5 220,-715.5 220,-603.5 80,-603.5"/>
<text text-anchor="start" x="88" y="-703.5" font-family="Helvetica,sans-Serif" font-size="10.00">anch::events::Observable</text>
<text text-anchor="middle" x="150" y="-692.5" font-family="Helvetica,sans-Serif" font-size="10.00">&lt; Event &gt;</text>
<polyline fill="none" stroke="black" points="80,-685.5 220,-685.5 "/>
<text text-anchor="middle" x="150" y="-673.5" font-family="Helvetica,sans-Serif" font-size="10.00"> </text>
<polyline fill="none" stroke="black" points="80,-666.5 220,-666.5 "/>
<text text-anchor="start" x="88" y="-654.5" font-family="Helvetica,sans-Serif" font-size="10.00">+ Observable()</text>
<text text-anchor="start" x="88" y="-643.5" font-family="Helvetica,sans-Serif" font-size="10.00">+ ~Observable()</text>
<text text-anchor="start" x="88" y="-632.5" font-family="Helvetica,sans-Serif" font-size="10.00">+ addObserver()</text>
<text text-anchor="start" x="88" y="-621.5" font-family="Helvetica,sans-Serif" font-size="10.00">+ removeObserver()</text>
<text text-anchor="start" x="88" y="-610.5" font-family="Helvetica,sans-Serif" font-size="10.00">+ notifyObservers()</text>
</a>
</g>
</g>
<!-- Node3&#45;&gt;Node2 -->
<g id="edge2" class="edge">
<title>Node3&#45;&gt;Node2</title>
<path fill="none" stroke="orange" d="M150,-592.97C150,-580.59 150,-567.76 150,-555.73"/>
<polygon fill="orange" stroke="orange" points="146.5,-593.24 150,-603.24 153.5,-593.24 146.5,-593.24"/>
<text text-anchor="middle" x="193" y="-577" font-family="Helvetica,sans-Serif" font-size="10.00"> &lt; SocketEvent &gt;</text>
</g>
</g>
</svg>
