<?xml version="1.0" encoding="UTF-8" standalone="no"?>
<!DOCTYPE svg PUBLIC "-//W3C//DTD SVG 1.1//EN"
 "http://www.w3.org/Graphics/SVG/1.1/DTD/svg11.dtd">
<!-- Generated by graphviz version 12.1.2 (0)
 -->
<!-- Title: anch::sql::FieldsBuilder Pages: 1 -->
<!--zoomable 730 -->

<svg id="main" version="1.1" xmlns="http://www.w3.org/2000/svg" xmlns:xlink="http://www.w3.org/1999/xlink" xml:space="preserve" onload="init(evt)">

<style type="text/css"><![CDATA[
.node, .edge {opacity: 0.7;}
.node.selected, .edge.selected {opacity: 1;}
.edge:hover path { stroke: red; }
.edge:hover polygon { stroke: red; fill: red; }
]]></style>

<defs>
  <circle id="rim" cx="0" cy="0" r="7"/>
  <circle id="rim2" cx="0" cy="0" r="3.5"/>
  <g id="zoomPlus">
    <use xlink:href="#rim" fill="#404040"><set attributeName="fill" to="#808080" begin="zoomplus.mouseover" end="zoomplus.mouseout"/></use>
    <path d="M-4,0h8M0,-4v8" fill="none" stroke="white" stroke-width="1.5" pointer-events="none"/>
  </g>
  <g id="zoomMin">
    <use xlink:href="#rim" fill="#404040"><set attributeName="fill" to="#808080" begin="zoomminus.mouseover" end="zoomminus.mouseout"/></use>
    <path d="M-4,0h8" fill="none" stroke="white" stroke-width="1.5" pointer-events="none"/>
  </g>
  <g id="arrowUp" transform="translate(30 24)">
    <use xlink:href="#rim"/>
    <path pointer-events="none" fill="none" stroke="white" stroke-width="1.5" d="M0,-3.0v7 M-2.5,-0.5L0,-3.0L2.5,-0.5"/>
  </g>
  <g id="arrowRight" transform="rotate(90) translate(36 -43)">
    <use xlink:href="#rim"/>
    <path pointer-events="none" fill="none" stroke="white" stroke-width="1.5" d="M0,-3.0v7 M-2.5,-0.5L0,-3.0L2.5,-0.5"/>
  </g>
  <g id="arrowDown" transform="rotate(180) translate(-30 -48)">
    <use xlink:href="#rim"/>
    <path pointer-events="none" fill="none" stroke="white" stroke-width="1.5" d="M0,-3.0v7 M-2.5,-0.5L0,-3.0L2.5,-0.5"/>
  </g>
  <g id="arrowLeft" transform="rotate(270) translate(-36 17)">
    <use xlink:href="#rim"/>
    <path pointer-events="none" fill="none" stroke="white" stroke-width="1.5" d="M0,-3.0v7 M-2.5,-0.5L0,-3.0L2.5,-0.5"/>
  </g>
  <g id="resetDef">
    <use xlink:href="#rim2" fill="#404040"><set attributeName="fill" to="#808080" begin="reset.mouseover" end="reset.mouseout"/></use>
  </g>
</defs>
<script type="application/ecmascript">
var viewWidth = 150;
var viewHeight = 730;
var sectionId = 'dynsection-1';
</script>
<script type="application/ecmascript" xlink:href="svg.min.js"/>
<svg id="graph" class="graph">
<g id="viewport">
<title>anch::sql::FieldsBuilder</title>
<!-- Node1 -->
<g id="Node000001" class="node">
<title>Node1</title>
<g id="a_Node000001"><a xlink:title="Field builder.">
<polygon fill="#999999" stroke="none" points="132,-132 10,-132 10,0 132,0 132,-132"/>
<text text-anchor="start" x="14.75" y="-118.5" font-family="Helvetica,sans-Serif" font-size="10.00">anch::sql::FieldsBuilder</text>
<text text-anchor="start" x="69.5" y="-102.5" font-family="Helvetica,sans-Serif" font-size="10.00"> </text>
<text text-anchor="start" x="19.88" y="-86.5" font-family="Helvetica,sans-Serif" font-size="10.00">+</text>
<text text-anchor="start" x="38" y="-86.5" font-family="Helvetica,sans-Serif" font-size="10.00">~FieldsBuilder()</text>
<text text-anchor="start" x="19.88" y="-70.5" font-family="Helvetica,sans-Serif" font-size="10.00">+</text>
<text text-anchor="start" x="38" y="-70.5" font-family="Helvetica,sans-Serif" font-size="10.00">field()</text>
<text text-anchor="start" x="19.88" y="-54.5" font-family="Helvetica,sans-Serif" font-size="10.00">+</text>
<text text-anchor="start" x="38" y="-54.5" font-family="Helvetica,sans-Serif" font-size="10.00">as()</text>
<text text-anchor="start" x="19.88" y="-38.5" font-family="Helvetica,sans-Serif" font-size="10.00">+</text>
<text text-anchor="start" x="38" y="-38.5" font-family="Helvetica,sans-Serif" font-size="10.00">asc()</text>
<text text-anchor="start" x="19.88" y="-22.5" font-family="Helvetica,sans-Serif" font-size="10.00">+</text>
<text text-anchor="start" x="38" y="-22.5" font-family="Helvetica,sans-Serif" font-size="10.00">desc()</text>
<text text-anchor="start" x="19.88" y="-6.5" font-family="Helvetica,sans-Serif" font-size="10.00">+</text>
<text text-anchor="start" x="38" y="-6.5" font-family="Helvetica,sans-Serif" font-size="10.00">from()</text>
<polygon fill="#666666" stroke="#666666" points="10,-114 10,-114 132,-114 132,-114 10,-114"/>
<polygon fill="#666666" stroke="#666666" points="10,-98 10,-98 132,-98 132,-98 10,-98"/>
<polygon fill="none" stroke="#666666" points="10,0 10,-132 132,-132 132,0 10,0"/>
</a>
</g>
</g>
<!-- Node2 -->
<g id="Node000002" class="node">
<title>Node2</title>
<g id="a_Node000002"><a xlink:href="classanch_1_1sql_1_1_select_builder_part.html" target="_top" xlink:title="SQL select query part builder.">
<polygon fill="white" stroke="none" points="142,-429 0,-429 0,-169 142,-169 142,-429"/>
<text text-anchor="start" x="4.62" y="-415.5" font-family="Helvetica,sans-Serif" font-size="10.00">anch::sql::SelectBuilderPart</text>
<text text-anchor="start" x="69.5" y="-399.5" font-family="Helvetica,sans-Serif" font-size="10.00"> </text>
<text text-anchor="start" x="4.88" y="-383.5" font-family="Helvetica,sans-Serif" font-size="10.00">+</text>
<text text-anchor="start" x="18" y="-383.5" font-family="Helvetica,sans-Serif" font-size="10.00">groupBy()</text>
<text text-anchor="start" x="4.88" y="-367.5" font-family="Helvetica,sans-Serif" font-size="10.00">+</text>
<text text-anchor="start" x="18" y="-367.5" font-family="Helvetica,sans-Serif" font-size="10.00">orderBy()</text>
<text text-anchor="start" x="4.88" y="-351.5" font-family="Helvetica,sans-Serif" font-size="10.00">+</text>
<text text-anchor="start" x="18" y="-351.5" font-family="Helvetica,sans-Serif" font-size="10.00">having()</text>
<text text-anchor="start" x="4.88" y="-335.5" font-family="Helvetica,sans-Serif" font-size="10.00">+</text>
<text text-anchor="start" x="18" y="-335.5" font-family="Helvetica,sans-Serif" font-size="10.00">unionOnce()</text>
<text text-anchor="start" x="4.88" y="-319.5" font-family="Helvetica,sans-Serif" font-size="10.00">+</text>
<text text-anchor="start" x="18" y="-319.5" font-family="Helvetica,sans-Serif" font-size="10.00">unionAll()</text>
<text text-anchor="start" x="4.88" y="-303.5" font-family="Helvetica,sans-Serif" font-size="10.00">+</text>
<text text-anchor="start" x="18" y="-303.5" font-family="Helvetica,sans-Serif" font-size="10.00">offset()</text>
<text text-anchor="start" x="4.88" y="-287.5" font-family="Helvetica,sans-Serif" font-size="10.00">+</text>
<text text-anchor="start" x="18" y="-287.5" font-family="Helvetica,sans-Serif" font-size="10.00">fetch()</text>
<text text-anchor="start" x="4.88" y="-271.5" font-family="Helvetica,sans-Serif" font-size="10.00">+</text>
<text text-anchor="start" x="18" y="-271.5" font-family="Helvetica,sans-Serif" font-size="10.00">windowByRowNumber()</text>
<text text-anchor="start" x="4.88" y="-255.5" font-family="Helvetica,sans-Serif" font-size="10.00">+</text>
<text text-anchor="start" x="18" y="-255.5" font-family="Helvetica,sans-Serif" font-size="10.00">windowByRank()</text>
<text text-anchor="start" x="4.88" y="-239.5" font-family="Helvetica,sans-Serif" font-size="10.00">+</text>
<text text-anchor="start" x="18" y="-239.5" font-family="Helvetica,sans-Serif" font-size="10.00">done()</text>
<text text-anchor="start" x="4.88" y="-223.5" font-family="Helvetica,sans-Serif" font-size="10.00">+</text>
<text text-anchor="start" x="18" y="-223.5" font-family="Helvetica,sans-Serif" font-size="10.00">build()</text>
<text text-anchor="start" x="4.88" y="-207.5" font-family="Helvetica,sans-Serif" font-size="10.00">#</text>
<text text-anchor="start" x="18" y="-207.5" font-family="Helvetica,sans-Serif" font-size="10.00">SelectBuilderPart()</text>
<text text-anchor="start" x="4.88" y="-191.5" font-family="Helvetica,sans-Serif" font-size="10.00">#</text>
<text text-anchor="start" x="18" y="-191.5" font-family="Helvetica,sans-Serif" font-size="10.00">SelectBuilderPart()</text>
<text text-anchor="start" x="4.88" y="-175.5" font-family="Helvetica,sans-Serif" font-size="10.00">#</text>
<text text-anchor="start" x="18" y="-175.5" font-family="Helvetica,sans-Serif" font-size="10.00">~SelectBuilderPart()</text>
<polygon fill="#666666" stroke="#666666" points="0,-411 0,-411 142,-411 142,-411 0,-411"/>
<polygon fill="#666666" stroke="#666666" points="0,-395 0,-395 142,-395 142,-395 0,-395"/>
<polygon fill="none" stroke="#666666" points="0,-169 0,-429 142,-429 142,-169 0,-169"/>
</a>
</g>
</g>
<!-- Node2&#45;&gt;Node1 -->
<g id="edge1_Node000001_Node000002" class="edge">
<title>Node2&#45;&gt;Node1</title>
<g id="a_edge1_Node000001_Node000002"><a xlink:title=" ">
<path fill="none" stroke="#63b8ff" d="M71,-157.87C71,-148.9 71,-140.14 71,-131.81"/>
<polygon fill="none" stroke="#63b8ff" points="67.5,-157.82 71,-167.82 74.5,-157.82 67.5,-157.82"/>
</a>
</g>
</g>
<!-- Node3 -->
<g id="Node000003" class="node">
<title>Node3</title>
<g id="a_Node000003"><a xlink:href="classanch_1_1sql_1_1_select_builder.html" target="_top" xlink:title="Dynamic SQL select request builder.">
<polygon fill="white" stroke="none" points="139.5,-721.75 2.5,-721.75 2.5,-477.75 139.5,-477.75 139.5,-721.75"/>
<text text-anchor="start" x="14" y="-708.25" font-family="Helvetica,sans-Serif" font-size="10.00">anch::sql::SelectBuilder</text>
<text text-anchor="start" x="69.5" y="-692.25" font-family="Helvetica,sans-Serif" font-size="10.00"> </text>
<text text-anchor="start" x="6.38" y="-676.25" font-family="Helvetica,sans-Serif" font-size="10.00">+</text>
<text text-anchor="start" x="18.5" y="-676.25" font-family="Helvetica,sans-Serif" font-size="10.00">~SelectBuilder()</text>
<text text-anchor="start" x="6.38" y="-660.25" font-family="Helvetica,sans-Serif" font-size="10.00">+</text>
<text text-anchor="start" x="18.5" y="-660.25" font-family="Helvetica,sans-Serif" font-size="10.00">distinct()</text>
<text text-anchor="start" x="6.38" y="-644.25" font-family="Helvetica,sans-Serif" font-size="10.00">+</text>
<text text-anchor="start" x="18.5" y="-644.25" font-family="Helvetica,sans-Serif" font-size="10.00">field()</text>
<text text-anchor="start" x="6.38" y="-628.25" font-family="Helvetica,sans-Serif" font-size="10.00">+</text>
<text text-anchor="start" x="18.5" y="-628.25" font-family="Helvetica,sans-Serif" font-size="10.00">groupBy()</text>
<text text-anchor="start" x="6.38" y="-612.25" font-family="Helvetica,sans-Serif" font-size="10.00">+</text>
<text text-anchor="start" x="18.5" y="-612.25" font-family="Helvetica,sans-Serif" font-size="10.00">orderBy()</text>
<text text-anchor="start" x="6.38" y="-596.25" font-family="Helvetica,sans-Serif" font-size="10.00">+</text>
<text text-anchor="start" x="18.5" y="-596.25" font-family="Helvetica,sans-Serif" font-size="10.00">having()</text>
<text text-anchor="start" x="6.38" y="-580.25" font-family="Helvetica,sans-Serif" font-size="10.00">+</text>
<text text-anchor="start" x="18.5" y="-580.25" font-family="Helvetica,sans-Serif" font-size="10.00">unionOnce()</text>
<text text-anchor="start" x="6.38" y="-564.25" font-family="Helvetica,sans-Serif" font-size="10.00">+</text>
<text text-anchor="start" x="18.5" y="-564.25" font-family="Helvetica,sans-Serif" font-size="10.00">unionAll()</text>
<text text-anchor="start" x="6.38" y="-548.25" font-family="Helvetica,sans-Serif" font-size="10.00">+</text>
<text text-anchor="start" x="18.5" y="-548.25" font-family="Helvetica,sans-Serif" font-size="10.00">offset()</text>
<text text-anchor="start" x="6.38" y="-532.25" font-family="Helvetica,sans-Serif" font-size="10.00">+</text>
<text text-anchor="start" x="18.5" y="-532.25" font-family="Helvetica,sans-Serif" font-size="10.00">fetch()</text>
<text text-anchor="start" x="6.38" y="-516.25" font-family="Helvetica,sans-Serif" font-size="10.00">+</text>
<text text-anchor="start" x="18.5" y="-516.25" font-family="Helvetica,sans-Serif" font-size="10.00">windowByRowNumber()</text>
<text text-anchor="start" x="6.38" y="-500.25" font-family="Helvetica,sans-Serif" font-size="10.00">+</text>
<text text-anchor="start" x="18.5" y="-500.25" font-family="Helvetica,sans-Serif" font-size="10.00">windowByRank()</text>
<text text-anchor="start" x="6.38" y="-484.25" font-family="Helvetica,sans-Serif" font-size="10.00">+</text>
<text text-anchor="start" x="18.5" y="-484.25" font-family="Helvetica,sans-Serif" font-size="10.00">build()</text>
<polygon fill="#666666" stroke="#666666" points="2.5,-703.75 2.5,-703.75 139.5,-703.75 139.5,-703.75 2.5,-703.75"/>
<polygon fill="#666666" stroke="#666666" points="2.5,-687.75 2.5,-687.75 139.5,-687.75 139.5,-687.75 2.5,-687.75"/>
<polygon fill="none" stroke="#666666" points="2.5,-477.75 2.5,-721.75 139.5,-721.75 139.5,-477.75 2.5,-477.75"/>
</a>
</g>
</g>
<!-- Node3&#45;&gt;Node2 -->
<g id="edge2_Node000002_Node000003" class="edge">
<title>Node3&#45;&gt;Node2</title>
<g id="a_edge2_Node000002_Node000003"><a xlink:title=" ">
<path fill="none" stroke="#63b8ff" d="M71,-478.1C71,-466.08 71,-453.8 71,-441.59"/>
<polygon fill="none" stroke="#63b8ff" points="71,-441.81 67,-435.81 71,-429.81 75,-435.81 71,-441.81"/>
</a>
</g>
<text text-anchor="middle" x="93.88" y="-450.25" font-family="Helvetica,sans-Serif" font-size="10.00" fill="grey"> #_select</text>
</g>
</g>
</svg>

<g id="navigator" transform="translate(0 0)" fill="#404254">
  <rect fill="#f2f5e9" fill-opacity="0.5" stroke="#606060" stroke-width=".5" x="0" y="0" width="60" height="60"/>
  <use id="zoomplus" xlink:href="#zoomPlus" x="17" y="9" onmousedown="handleZoom(evt,'in')"/>
  <use id="zoomminus" xlink:href="#zoomMin" x="42" y="9" onmousedown="handleZoom(evt,'out')"/>
  <use id="reset" xlink:href="#resetDef" x="30" y="36" onmousedown="handleReset()"/>
   <use id="arrowup" xlink:href="#arrowUp" x="0" y="0" onmousedown="handlePan(0,-1)"/>
  <use id="arrowright" xlink:href="#arrowRight" x="0" y="0" onmousedown="handlePan(1,0)"/>
  <use id="arrowdown" xlink:href="#arrowDown" x="0" y="0" onmousedown="handlePan(0,1)"/>
  <use id="arrowleft" xlink:href="#arrowLeft" x="0" y="0" onmousedown="handlePan(-1,0)"/>
</g>
<svg viewBox="0 0 15 15" width="100%" height="30px" preserveAspectRatio="xMaxYMin meet">
 <g id="arrow_out" transform="scale(0.3 0.3)">
  <a xlink:href="classanch_1_1sql_1_1_fields_builder__coll__graph_org.svg" target="_base">
   <rect id="button" ry="5" rx="5" y="6" x="6" height="38" width="38"
        fill="#f2f5e9" fill-opacity="0.5" stroke="#606060" stroke-width="1.0"/>
   <path id="arrow"
     d="M 11.500037,31.436501 C 11.940474,20.09759 22.043105,11.32322 32.158766,21.979434 L 37.068811,17.246167 C 37.068811,17.246167 37.088388,32 37.088388,32 L 22.160133,31.978069 C 22.160133,31.978069 26.997745,27.140456 26.997745,27.140456 C 18.528582,18.264221 13.291696,25.230495 11.500037,31.436501 z"
     style="fill:#404040;"/>
  </a>
 </g>
</svg>

<style type='text/css'>
<![CDATA[
[data-mouse-over-selected='false'] { opacity: 0.7; }
[data-mouse-over-selected='true']  { opacity: 1.0; }
]]>
</style>
<script type="application/ecmascript"><![CDATA[
document.addEventListener('DOMContentLoaded', (event) => {
  highlightEdges();
  highlightAdjacentNodes();
});
]]></script>
</svg>
