<?xml version="1.0" encoding="UTF-8" standalone="no"?>
<!DOCTYPE svg PUBLIC "-//W3C//DTD SVG 1.1//EN"
 "http://www.w3.org/Graphics/SVG/1.1/DTD/svg11.dtd">
<!-- Generated by graphviz version 8.0.3 (0)
 -->
<!-- Title: anch::network::UdpSocket Pages: 1 -->
<svg width="179pt" height="735pt"
 viewBox="0.00 0.00 178.50 735.00" xmlns="http://www.w3.org/2000/svg" xmlns:xlink="http://www.w3.org/1999/xlink">
<g id="graph0" class="graph" transform="scale(1 1) rotate(0) translate(4 731)">
<title>anch::network::UdpSocket</title>
<!-- Node1 -->
<g id="node1" class="node">
<title>Node1</title>
<g id="a_node1"><a xlink:title=" ">
<polygon fill="#999999" stroke="#666666" points="13,-0.5 13,-167.5 156,-167.5 156,-0.5 13,-0.5"/>
<text text-anchor="middle" x="84.5" y="-155.5" font-family="Helvetica,sans-Serif" font-size="10.00">anch::network::UdpSocket</text>
<polyline fill="none" stroke="#666666" points="13,-148.5 156,-148.5"/>
<text text-anchor="middle" x="84.5" y="-136.5" font-family="Helvetica,sans-Serif" font-size="10.00"> </text>
<polyline fill="none" stroke="#666666" points="13,-129.5 156,-129.5"/>
<text text-anchor="start" x="21" y="-117.5" font-family="Helvetica,sans-Serif" font-size="10.00">+ UdpSocket()</text>
<text text-anchor="start" x="21" y="-106.5" font-family="Helvetica,sans-Serif" font-size="10.00">+ UdpSocket()</text>
<text text-anchor="start" x="21" y="-95.5" font-family="Helvetica,sans-Serif" font-size="10.00">+ ~UdpSocket()</text>
<text text-anchor="start" x="21" y="-84.5" font-family="Helvetica,sans-Serif" font-size="10.00">+ listen()</text>
<text text-anchor="start" x="21" y="-73.5" font-family="Helvetica,sans-Serif" font-size="10.00">+ connect()</text>
<text text-anchor="start" x="21" y="-62.5" font-family="Helvetica,sans-Serif" font-size="10.00">+ accept()</text>
<text text-anchor="start" x="21" y="-51.5" font-family="Helvetica,sans-Serif" font-size="10.00">+ send()</text>
<text text-anchor="start" x="21" y="-40.5" font-family="Helvetica,sans-Serif" font-size="10.00">+ send()</text>
<text text-anchor="start" x="21" y="-29.5" font-family="Helvetica,sans-Serif" font-size="10.00">+ receive()</text>
<text text-anchor="start" x="21" y="-18.5" font-family="Helvetica,sans-Serif" font-size="10.00">+ getDomain()</text>
<text text-anchor="start" x="21" y="-7.5" font-family="Helvetica,sans-Serif" font-size="10.00">+ getType()</text>
</a>
</g>
</g>
<!-- Node2 -->
<g id="node2" class="node">
<title>Node2</title>
<g id="a_node2"><a xlink:href="classanch_1_1network_1_1_socket.html" target="_top" xlink:title=" ">
<polygon fill="white" stroke="#666666" points="22.5,-205.5 22.5,-405.5 146.5,-405.5 146.5,-205.5 22.5,-205.5"/>
<text text-anchor="middle" x="84.5" y="-393.5" font-family="Helvetica,sans-Serif" font-size="10.00">anch::network::Socket</text>
<polyline fill="none" stroke="#666666" points="22.5,-386.5 146.5,-386.5"/>
<text text-anchor="start" x="30.5" y="-374.5" font-family="Helvetica,sans-Serif" font-size="10.00"># _sock</text>
<text text-anchor="start" x="30.5" y="-363.5" font-family="Helvetica,sans-Serif" font-size="10.00"># _backlog</text>
<text text-anchor="start" x="30.5" y="-352.5" font-family="Helvetica,sans-Serif" font-size="10.00"># _address</text>
<polyline fill="none" stroke="#666666" points="22.5,-345.5 146.5,-345.5"/>
<text text-anchor="start" x="30.5" y="-333.5" font-family="Helvetica,sans-Serif" font-size="10.00">+ Socket()</text>
<text text-anchor="start" x="30.5" y="-322.5" font-family="Helvetica,sans-Serif" font-size="10.00">+ ~Socket()</text>
<text text-anchor="start" x="30.5" y="-311.5" font-family="Helvetica,sans-Serif" font-size="10.00">+ bind()</text>
<text text-anchor="start" x="30.5" y="-300.5" font-family="Helvetica,sans-Serif" font-size="10.00">+ connect()</text>
<text text-anchor="start" x="30.5" y="-289.5" font-family="Helvetica,sans-Serif" font-size="10.00">+ listen()</text>
<text text-anchor="start" x="30.5" y="-278.5" font-family="Helvetica,sans-Serif" font-size="10.00">+ accept()</text>
<text text-anchor="start" x="30.5" y="-267.5" font-family="Helvetica,sans-Serif" font-size="10.00">+ send()</text>
<text text-anchor="start" x="30.5" y="-256.5" font-family="Helvetica,sans-Serif" font-size="10.00">+ receive()</text>
<text text-anchor="start" x="30.5" y="-245.5" font-family="Helvetica,sans-Serif" font-size="10.00">+ receive()</text>
<text text-anchor="start" x="30.5" y="-234.5" font-family="Helvetica,sans-Serif" font-size="10.00">+ shutdown()</text>
<text text-anchor="start" x="30.5" y="-223.5" font-family="Helvetica,sans-Serif" font-size="10.00">and 11 more...</text>
<text text-anchor="start" x="30.5" y="-212.5" font-family="Helvetica,sans-Serif" font-size="10.00"># Socket()</text>
</a>
</g>
</g>
<!-- Node2&#45;&gt;Node1 -->
<g id="edge1" class="edge">
<title>Node2&#45;&gt;Node1</title>
<path fill="none" stroke="#63b8ff" d="M84.5,-194.78C84.5,-185.5 84.5,-176.22 84.5,-167.2"/>
<polygon fill="none" stroke="#63b8ff" points="81,-194.67 84.5,-204.67 88,-194.67 81,-194.67"/>
</g>
<!-- Node3 -->
<g id="node3" class="node">
<title>Node3</title>
<g id="a_node3"><a xlink:href="classanch_1_1events_1_1_observable.html" target="_top" xlink:title=" ">
<polygon fill="white" stroke="#666666" points="14.5,-443.5 14.5,-566.5 154.5,-566.5 154.5,-443.5 14.5,-443.5"/>
<text text-anchor="start" x="22.5" y="-554.5" font-family="Helvetica,sans-Serif" font-size="10.00">anch::events::Observable</text>
<text text-anchor="middle" x="84.5" y="-543.5" font-family="Helvetica,sans-Serif" font-size="10.00">&lt; SocketEvent &gt;</text>
<polyline fill="none" stroke="#666666" points="14.5,-536.5 154.5,-536.5"/>
<text text-anchor="middle" x="84.5" y="-524.5" font-family="Helvetica,sans-Serif" font-size="10.00"> </text>
<polyline fill="none" stroke="#666666" points="14.5,-517.5 154.5,-517.5"/>
<text text-anchor="start" x="22.5" y="-505.5" font-family="Helvetica,sans-Serif" font-size="10.00">+ Observable()</text>
<text text-anchor="start" x="22.5" y="-494.5" font-family="Helvetica,sans-Serif" font-size="10.00">+ ~Observable()</text>
<text text-anchor="start" x="22.5" y="-483.5" font-family="Helvetica,sans-Serif" font-size="10.00">+ addObserver()</text>
<text text-anchor="start" x="22.5" y="-472.5" font-family="Helvetica,sans-Serif" font-size="10.00">+ removeObserver()</text>
<text text-anchor="start" x="22.5" y="-461.5" font-family="Helvetica,sans-Serif" font-size="10.00">+ notifyObservers()</text>
<text text-anchor="start" x="22.5" y="-450.5" font-family="Helvetica,sans-Serif" font-size="10.00">+ notifyObservers()</text>
</a>
</g>
</g>
<!-- Node3&#45;&gt;Node2 -->
<g id="edge2" class="edge">
<title>Node3&#45;&gt;Node2</title>
<path fill="none" stroke="#63b8ff" d="M84.5,-432.94C84.5,-423.98 84.5,-414.7 84.5,-405.42"/>
<polygon fill="none" stroke="#63b8ff" points="81,-432.67 84.5,-442.67 88,-432.67 81,-432.67"/>
</g>
<!-- Node4 -->
<g id="node4" class="node">
<title>Node4</title>
<g id="a_node4"><a xlink:href="classanch_1_1events_1_1_observable.html" target="_top" xlink:title="An observable implementation of the observers/observable design pattern.">
<polygon fill="white" stroke="#666666" points="0,-614.5 0,-726.5 169,-726.5 169,-614.5 0,-614.5"/>
<text text-anchor="middle" x="84.5" y="-714.5" font-family="Helvetica,sans-Serif" font-size="10.00">anch::events::Observable&lt; T &gt;</text>
<polyline fill="none" stroke="#666666" points="0,-707.5 169,-707.5"/>
<text text-anchor="middle" x="84.5" y="-695.5" font-family="Helvetica,sans-Serif" font-size="10.00"> </text>
<polyline fill="none" stroke="#666666" points="0,-688.5 169,-688.5"/>
<text text-anchor="start" x="8" y="-676.5" font-family="Helvetica,sans-Serif" font-size="10.00">+ Observable()</text>
<text text-anchor="start" x="8" y="-665.5" font-family="Helvetica,sans-Serif" font-size="10.00">+ ~Observable()</text>
<text text-anchor="start" x="8" y="-654.5" font-family="Helvetica,sans-Serif" font-size="10.00">+ addObserver()</text>
<text text-anchor="start" x="8" y="-643.5" font-family="Helvetica,sans-Serif" font-size="10.00">+ removeObserver()</text>
<text text-anchor="start" x="8" y="-632.5" font-family="Helvetica,sans-Serif" font-size="10.00">+ notifyObservers()</text>
<text text-anchor="start" x="8" y="-621.5" font-family="Helvetica,sans-Serif" font-size="10.00">+ notifyObservers()</text>
</a>
</g>
</g>
<!-- Node4&#45;&gt;Node3 -->
<g id="edge3" class="edge">
<title>Node4&#45;&gt;Node3</title>
<path fill="none" stroke="orange" d="M84.5,-603.88C84.5,-591.49 84.5,-578.59 84.5,-566.37"/>
<polygon fill="orange" stroke="orange" points="81,-603.6 84.5,-613.6 88,-603.6 81,-603.6"/>
<text text-anchor="middle" x="127.5" y="-588" font-family="Helvetica,sans-Serif" font-size="10.00"> &lt; SocketEvent &gt;</text>
</g>
</g>
</svg>
