<?xml version="1.0" encoding="UTF-8" standalone="no"?>
<!DOCTYPE svg PUBLIC "-//W3C//DTD SVG 1.1//EN"
 "http://www.w3.org/Graphics/SVG/1.1/DTD/svg11.dtd">
<!-- Generated by graphviz version 12.1.2 (0)
 -->
<!-- Title: anch::device::CPU Pages: 1 -->
<svg width="135pt" height="378pt"
 viewBox="0.00 0.00 135.00 377.75" xmlns="http://www.w3.org/2000/svg" xmlns:xlink="http://www.w3.org/1999/xlink">
<g id="graph0" class="graph" transform="scale(1 1) rotate(0) translate(4 373.75)">
<title>anch::device::CPU</title>
<!-- Node1 -->
<g id="Node000001" class="node">
<title>Node1</title>
<g id="a_Node000001"><a xlink:title="CPU features detection.">
<polygon fill="#999999" stroke="none" points="112,-180 15,-180 15,0 112,0 112,-180"/>
<text text-anchor="start" x="19.62" y="-166.5" font-family="Helvetica,sans-Serif" font-size="10.00">anch::device::CPU</text>
<text text-anchor="start" x="62" y="-150.5" font-family="Helvetica,sans-Serif" font-size="10.00"> </text>
<text text-anchor="start" x="25.38" y="-134.5" font-family="Helvetica,sans-Serif" font-size="10.00">+</text>
<text text-anchor="start" x="44" y="-134.5" font-family="Helvetica,sans-Serif" font-size="10.00">isAES()</text>
<text text-anchor="start" x="25.38" y="-118.5" font-family="Helvetica,sans-Serif" font-size="10.00">+</text>
<text text-anchor="start" x="44" y="-118.5" font-family="Helvetica,sans-Serif" font-size="10.00">isMMX()</text>
<text text-anchor="start" x="25.38" y="-102.5" font-family="Helvetica,sans-Serif" font-size="10.00">+</text>
<text text-anchor="start" x="44" y="-102.5" font-family="Helvetica,sans-Serif" font-size="10.00">isSSE()</text>
<text text-anchor="start" x="25.38" y="-86.5" font-family="Helvetica,sans-Serif" font-size="10.00">+</text>
<text text-anchor="start" x="44" y="-86.5" font-family="Helvetica,sans-Serif" font-size="10.00">isSSE2()</text>
<text text-anchor="start" x="25.38" y="-70.5" font-family="Helvetica,sans-Serif" font-size="10.00">+</text>
<text text-anchor="start" x="44" y="-70.5" font-family="Helvetica,sans-Serif" font-size="10.00">isSSE3()</text>
<text text-anchor="start" x="25.38" y="-54.5" font-family="Helvetica,sans-Serif" font-size="10.00">+</text>
<text text-anchor="start" x="44" y="-54.5" font-family="Helvetica,sans-Serif" font-size="10.00">isSSSE3()</text>
<text text-anchor="start" x="25.38" y="-38.5" font-family="Helvetica,sans-Serif" font-size="10.00">+</text>
<text text-anchor="start" x="44" y="-38.5" font-family="Helvetica,sans-Serif" font-size="10.00">isSSE4()</text>
<text text-anchor="start" x="25.38" y="-22.5" font-family="Helvetica,sans-Serif" font-size="10.00">+</text>
<text text-anchor="start" x="44" y="-22.5" font-family="Helvetica,sans-Serif" font-size="10.00">isSSE4_1()</text>
<text text-anchor="start" x="25.38" y="-6.5" font-family="Helvetica,sans-Serif" font-size="10.00">+</text>
<text text-anchor="start" x="44" y="-6.5" font-family="Helvetica,sans-Serif" font-size="10.00">isSSE4_2()</text>
<polygon fill="#666666" stroke="#666666" points="15,-162 15,-162 112,-162 112,-162 15,-162"/>
<polygon fill="#666666" stroke="#666666" points="15,-146 15,-146 112,-146 112,-146 15,-146"/>
<polygon fill="none" stroke="#666666" points="15,0 15,-180 112,-180 112,0 15,0"/>
</a>
</g>
</g>
<!-- Node2 -->
<g id="Node000002" class="node">
<title>Node2</title>
<g id="a_Node000002"><a xlink:href="classanch_1_1_singleton.html" target="_top" xlink:title=" ">
<polygon fill="white" stroke="none" points="127,-269 0,-269 0,-217 127,-217 127,-269"/>
<text text-anchor="start" x="4.62" y="-255.5" font-family="Helvetica,sans-Serif" font-size="10.00">anch::Singleton&lt; CPU &gt;</text>
<text text-anchor="start" x="62" y="-239.5" font-family="Helvetica,sans-Serif" font-size="10.00"> </text>
<text text-anchor="start" x="14.38" y="-223.5" font-family="Helvetica,sans-Serif" font-size="10.00">+</text>
<text text-anchor="start" x="37" y="-223.5" font-family="Helvetica,sans-Serif" font-size="10.00">getInstance()</text>
<polygon fill="#666666" stroke="#666666" points="0,-251 0,-251 127,-251 127,-251 0,-251"/>
<polygon fill="#666666" stroke="#666666" points="0,-235 0,-235 127,-235 127,-235 0,-235"/>
<polygon fill="none" stroke="#666666" points="0,-217 0,-269 127,-269 127,-217 0,-217"/>
</a>
</g>
</g>
<!-- Node2&#45;&gt;Node1 -->
<g id="edge1_Node000001_Node000002" class="edge">
<title>Node2&#45;&gt;Node1</title>
<g id="a_edge1_Node000001_Node000002"><a xlink:title=" ">
<path fill="none" stroke="#63b8ff" d="M63.5,-205.67C63.5,-197.71 63.5,-188.95 63.5,-179.92"/>
<polygon fill="none" stroke="#63b8ff" points="60,-205.55 63.5,-215.55 67,-205.55 60,-205.55"/>
</a>
</g>
</g>
<!-- Node3 -->
<g id="Node000003" class="node">
<title>Node3</title>
<g id="a_Node000003"><a xlink:href="classanch_1_1_singleton.html" target="_top" xlink:title="Meyers&#39; singleton implementation.">
<polygon fill="white" stroke="none" points="120,-369.75 7,-369.75 7,-317.75 120,-317.75 120,-369.75"/>
<text text-anchor="start" x="11.75" y="-356.25" font-family="Helvetica,sans-Serif" font-size="10.00">anch::Singleton&lt; T &gt;</text>
<text text-anchor="start" x="62" y="-340.25" font-family="Helvetica,sans-Serif" font-size="10.00"> </text>
<text text-anchor="start" x="17.88" y="-324.25" font-family="Helvetica,sans-Serif" font-size="10.00">+</text>
<text text-anchor="start" x="37" y="-324.25" font-family="Helvetica,sans-Serif" font-size="10.00">getInstance()</text>
<polygon fill="#666666" stroke="#666666" points="7,-351.75 7,-351.75 120,-351.75 120,-351.75 7,-351.75"/>
<polygon fill="#666666" stroke="#666666" points="7,-335.75 7,-335.75 120,-335.75 120,-335.75 7,-335.75"/>
<polygon fill="none" stroke="#666666" points="7,-317.75 7,-369.75 120,-369.75 120,-317.75 7,-317.75"/>
</a>
</g>
</g>
<!-- Node3&#45;&gt;Node2 -->
<g id="edge2_Node000002_Node000003" class="edge">
<title>Node3&#45;&gt;Node2</title>
<g id="a_edge2_Node000002_Node000003"><a xlink:title=" ">
<path fill="none" stroke="orange" d="M63.5,-306.36C63.5,-293.9 63.5,-280.25 63.5,-268.91"/>
<polygon fill="orange" stroke="orange" points="60,-306.32 63.5,-316.32 67,-306.32 60,-306.32"/>
</a>
</g>
<text text-anchor="middle" x="86.38" y="-290.25" font-family="Helvetica,sans-Serif" font-size="10.00" fill="grey"> &lt; CPU &gt;</text>
</g>
</g>
</svg>
