<?xml version="1.0" encoding="UTF-8" standalone="no"?>
<!DOCTYPE svg PUBLIC "-//W3C//DTD SVG 1.1//EN"
 "http://www.w3.org/Graphics/SVG/1.1/DTD/svg11.dtd">
<!-- Generated by graphviz version 7.0.6 (0)
 -->
<!-- Title: anch::date::formatter::IDatePartFormatter Pages: 1 -->
<svg width="1595pt" height="413pt"
 viewBox="0.00 0.00 1595.00 413.00" xmlns="http://www.w3.org/2000/svg" xmlns:xlink="http://www.w3.org/1999/xlink">
<g id="graph0" class="graph" transform="scale(1 1) rotate(0) translate(4 409)">
<title>anch::date::formatter::IDatePartFormatter</title>
<!-- Node1 -->
<g id="node1" class="node">
<title>Node1</title>
<g id="a_node1"><a xlink:title=" ">
<polygon fill="#999999" stroke="#666666" points="730,-171.5 730,-404.5 867,-404.5 867,-171.5 730,-171.5"/>
<text text-anchor="start" x="738" y="-392.5" font-family="Helvetica,sans-Serif" font-size="10.00">anch::date::formatter</text>
<text text-anchor="middle" x="798.5" y="-381.5" font-family="Helvetica,sans-Serif" font-size="10.00">::IDatePartFormatter</text>
<polyline fill="none" stroke="#666666" points="730,-374.5 867,-374.5"/>
<text text-anchor="middle" x="798.5" y="-362.5" font-family="Helvetica,sans-Serif" font-size="10.00"> </text>
<polyline fill="none" stroke="#666666" points="730,-355.5 867,-355.5"/>
<text text-anchor="start" x="738" y="-343.5" font-family="Helvetica,sans-Serif" font-size="10.00">+ ~IDatePartFormatter()</text>
<text text-anchor="start" x="738" y="-332.5" font-family="Helvetica,sans-Serif" font-size="10.00">+ format()</text>
<text text-anchor="start" x="738" y="-321.5" font-family="Helvetica,sans-Serif" font-size="10.00">+ getSize()</text>
<text text-anchor="start" x="738" y="-310.5" font-family="Helvetica,sans-Serif" font-size="10.00">+ setValue()</text>
<text text-anchor="start" x="738" y="-299.5" font-family="Helvetica,sans-Serif" font-size="10.00">+ getPattern()</text>
<text text-anchor="start" x="738" y="-288.5" font-family="Helvetica,sans-Serif" font-size="10.00"># getYear()</text>
<text text-anchor="start" x="738" y="-277.5" font-family="Helvetica,sans-Serif" font-size="10.00"># setYear()</text>
<text text-anchor="start" x="738" y="-266.5" font-family="Helvetica,sans-Serif" font-size="10.00"># getMonth()</text>
<text text-anchor="start" x="738" y="-255.5" font-family="Helvetica,sans-Serif" font-size="10.00"># setMonth()</text>
<text text-anchor="start" x="738" y="-244.5" font-family="Helvetica,sans-Serif" font-size="10.00"># getDay()</text>
<text text-anchor="start" x="738" y="-233.5" font-family="Helvetica,sans-Serif" font-size="10.00"># setDay()</text>
<text text-anchor="start" x="738" y="-222.5" font-family="Helvetica,sans-Serif" font-size="10.00"># getHour()</text>
<text text-anchor="start" x="738" y="-211.5" font-family="Helvetica,sans-Serif" font-size="10.00"># setHour()</text>
<text text-anchor="start" x="738" y="-200.5" font-family="Helvetica,sans-Serif" font-size="10.00"># getMinute()</text>
<text text-anchor="start" x="738" y="-189.5" font-family="Helvetica,sans-Serif" font-size="10.00"># setMinute()</text>
<text text-anchor="start" x="738" y="-178.5" font-family="Helvetica,sans-Serif" font-size="10.00">and 8 more...</text>
</a>
</g>
</g>
<!-- Node2 -->
<g id="node2" class="node">
<title>Node2</title>
<g id="a_node2"><a xlink:href="classanch_1_1date_1_1formatter_1_1_constant_formatter.html" target="_top" xlink:title=" ">
<polygon fill="white" stroke="#666666" points="0,-6 0,-129 135,-129 135,-6 0,-6"/>
<text text-anchor="start" x="8" y="-117" font-family="Helvetica,sans-Serif" font-size="10.00">anch::date::formatter</text>
<text text-anchor="middle" x="67.5" y="-106" font-family="Helvetica,sans-Serif" font-size="10.00">::ConstantFormatter</text>
<polyline fill="none" stroke="#666666" points="0,-99 135,-99"/>
<text text-anchor="start" x="8" y="-87" font-family="Helvetica,sans-Serif" font-size="10.00">+ _message</text>
<polyline fill="none" stroke="#666666" points="0,-80 135,-80"/>
<text text-anchor="start" x="8" y="-68" font-family="Helvetica,sans-Serif" font-size="10.00">+ ConstantFormatter()</text>
<text text-anchor="start" x="8" y="-57" font-family="Helvetica,sans-Serif" font-size="10.00">+ ~ConstantFormatter()</text>
<text text-anchor="start" x="8" y="-46" font-family="Helvetica,sans-Serif" font-size="10.00">+ format()</text>
<text text-anchor="start" x="8" y="-35" font-family="Helvetica,sans-Serif" font-size="10.00">+ getSize()</text>
<text text-anchor="start" x="8" y="-24" font-family="Helvetica,sans-Serif" font-size="10.00">+ setValue()</text>
<text text-anchor="start" x="8" y="-13" font-family="Helvetica,sans-Serif" font-size="10.00">+ getPattern()</text>
</a>
</g>
</g>
<!-- Node1&#45;&gt;Node2 -->
<g id="edge1" class="edge">
<title>Node1&#45;&gt;Node2</title>
<path fill="none" stroke="#63b8ff" d="M719.18,-280.9C591.77,-268.47 336.4,-232.56 144.5,-135 140.88,-133.16 137.29,-131.11 133.75,-128.91"/>
<polygon fill="none" stroke="#63b8ff" points="718.57,-284.36 728.85,-281.82 719.23,-277.39 718.57,-284.36"/>
</g>
<!-- Node3 -->
<g id="node3" class="node">
<title>Node3</title>
<g id="a_node3"><a xlink:href="classanch_1_1date_1_1formatter_1_1_day_formatter.html" target="_top" xlink:title=" ">
<polygon fill="white" stroke="#666666" points="153.5,-0.5 153.5,-134.5 273.5,-134.5 273.5,-0.5 153.5,-0.5"/>
<text text-anchor="start" x="161.5" y="-122.5" font-family="Helvetica,sans-Serif" font-size="10.00">anch::date::formatter</text>
<text text-anchor="middle" x="213.5" y="-111.5" font-family="Helvetica,sans-Serif" font-size="10.00">::DayFormatter</text>
<polyline fill="none" stroke="#666666" points="153.5,-104.5 273.5,-104.5"/>
<text text-anchor="start" x="161.5" y="-92.5" font-family="Helvetica,sans-Serif" font-size="10.00">+ PATTERN</text>
<polyline fill="none" stroke="#666666" points="153.5,-85.5 273.5,-85.5"/>
<text text-anchor="start" x="161.5" y="-73.5" font-family="Helvetica,sans-Serif" font-size="10.00">+ DayFormatter()</text>
<text text-anchor="start" x="161.5" y="-62.5" font-family="Helvetica,sans-Serif" font-size="10.00">+ ~DayFormatter()</text>
<text text-anchor="start" x="161.5" y="-51.5" font-family="Helvetica,sans-Serif" font-size="10.00">+ format()</text>
<text text-anchor="start" x="161.5" y="-40.5" font-family="Helvetica,sans-Serif" font-size="10.00">+ getSize()</text>
<text text-anchor="start" x="161.5" y="-29.5" font-family="Helvetica,sans-Serif" font-size="10.00">+ setValue()</text>
<text text-anchor="start" x="161.5" y="-18.5" font-family="Helvetica,sans-Serif" font-size="10.00">+ getPattern()</text>
<text text-anchor="start" x="161.5" y="-7.5" font-family="Helvetica,sans-Serif" font-size="10.00">+ getInstance()</text>
</a>
</g>
</g>
<!-- Node1&#45;&gt;Node3 -->
<g id="edge2" class="edge">
<title>Node1&#45;&gt;Node3</title>
<path fill="none" stroke="#63b8ff" d="M718.86,-275.69C613.29,-258.07 423.88,-217.21 282.5,-135 279.34,-133.16 276.21,-131.15 273.13,-129"/>
<polygon fill="none" stroke="#63b8ff" points="718.14,-279.12 728.57,-277.28 719.27,-272.21 718.14,-279.12"/>
</g>
<!-- Node4 -->
<g id="node4" class="node">
<title>Node4</title>
<g id="a_node4"><a xlink:href="classanch_1_1date_1_1formatter_1_1_hour12_formatter.html" target="_top" xlink:title=" ">
<polygon fill="white" stroke="#666666" points="292,-0.5 292,-134.5 419,-134.5 419,-0.5 292,-0.5"/>
<text text-anchor="start" x="300" y="-122.5" font-family="Helvetica,sans-Serif" font-size="10.00">anch::date::formatter</text>
<text text-anchor="middle" x="355.5" y="-111.5" font-family="Helvetica,sans-Serif" font-size="10.00">::Hour12Formatter</text>
<polyline fill="none" stroke="#666666" points="292,-104.5 419,-104.5"/>
<text text-anchor="start" x="300" y="-92.5" font-family="Helvetica,sans-Serif" font-size="10.00">+ PATTERN</text>
<polyline fill="none" stroke="#666666" points="292,-85.5 419,-85.5"/>
<text text-anchor="start" x="300" y="-73.5" font-family="Helvetica,sans-Serif" font-size="10.00">+ Hour12Formatter()</text>
<text text-anchor="start" x="300" y="-62.5" font-family="Helvetica,sans-Serif" font-size="10.00">+ ~Hour12Formatter()</text>
<text text-anchor="start" x="300" y="-51.5" font-family="Helvetica,sans-Serif" font-size="10.00">+ format()</text>
<text text-anchor="start" x="300" y="-40.5" font-family="Helvetica,sans-Serif" font-size="10.00">+ getSize()</text>
<text text-anchor="start" x="300" y="-29.5" font-family="Helvetica,sans-Serif" font-size="10.00">+ setValue()</text>
<text text-anchor="start" x="300" y="-18.5" font-family="Helvetica,sans-Serif" font-size="10.00">+ getPattern()</text>
<text text-anchor="start" x="300" y="-7.5" font-family="Helvetica,sans-Serif" font-size="10.00">+ getInstance()</text>
</a>
</g>
</g>
<!-- Node1&#45;&gt;Node4 -->
<g id="edge3" class="edge">
<title>Node1&#45;&gt;Node4</title>
<path fill="none" stroke="#63b8ff" d="M719.3,-263.69C641.38,-238.71 520.85,-194.48 427.5,-135 424.63,-133.17 421.77,-131.22 418.93,-129.18"/>
<polygon fill="none" stroke="#63b8ff" points="717.98,-266.94 728.57,-266.63 720.09,-260.27 717.98,-266.94"/>
</g>
<!-- Node5 -->
<g id="node5" class="node">
<title>Node5</title>
<g id="a_node5"><a xlink:href="classanch_1_1date_1_1formatter_1_1_hour24_formatter.html" target="_top" xlink:title=" ">
<polygon fill="white" stroke="#666666" points="437,-0.5 437,-134.5 564,-134.5 564,-0.5 437,-0.5"/>
<text text-anchor="start" x="445" y="-122.5" font-family="Helvetica,sans-Serif" font-size="10.00">anch::date::formatter</text>
<text text-anchor="middle" x="500.5" y="-111.5" font-family="Helvetica,sans-Serif" font-size="10.00">::Hour24Formatter</text>
<polyline fill="none" stroke="#666666" points="437,-104.5 564,-104.5"/>
<text text-anchor="start" x="445" y="-92.5" font-family="Helvetica,sans-Serif" font-size="10.00">+ PATTERN</text>
<polyline fill="none" stroke="#666666" points="437,-85.5 564,-85.5"/>
<text text-anchor="start" x="445" y="-73.5" font-family="Helvetica,sans-Serif" font-size="10.00">+ Hour24Formatter()</text>
<text text-anchor="start" x="445" y="-62.5" font-family="Helvetica,sans-Serif" font-size="10.00">+ ~Hour24Formatter()</text>
<text text-anchor="start" x="445" y="-51.5" font-family="Helvetica,sans-Serif" font-size="10.00">+ format()</text>
<text text-anchor="start" x="445" y="-40.5" font-family="Helvetica,sans-Serif" font-size="10.00">+ getSize()</text>
<text text-anchor="start" x="445" y="-29.5" font-family="Helvetica,sans-Serif" font-size="10.00">+ setValue()</text>
<text text-anchor="start" x="445" y="-18.5" font-family="Helvetica,sans-Serif" font-size="10.00">+ getPattern()</text>
<text text-anchor="start" x="445" y="-7.5" font-family="Helvetica,sans-Serif" font-size="10.00">+ getInstance()</text>
</a>
</g>
</g>
<!-- Node1&#45;&gt;Node5 -->
<g id="edge4" class="edge">
<title>Node1&#45;&gt;Node5</title>
<path fill="none" stroke="#63b8ff" d="M720.49,-238.75C675.95,-210.18 619.76,-172.36 572.5,-135 569.56,-132.68 566.6,-130.27 563.63,-127.79"/>
<polygon fill="none" stroke="#63b8ff" points="718.5,-241.63 728.82,-244.07 722.27,-235.74 718.5,-241.63"/>
</g>
<!-- Node6 -->
<g id="node6" class="node">
<title>Node6</title>
<g id="a_node6"><a xlink:href="classanch_1_1date_1_1formatter_1_1_marker_formatter.html" target="_top" xlink:title=" ">
<polygon fill="white" stroke="#666666" points="582,-0.5 582,-134.5 707,-134.5 707,-0.5 582,-0.5"/>
<text text-anchor="start" x="590" y="-122.5" font-family="Helvetica,sans-Serif" font-size="10.00">anch::date::formatter</text>
<text text-anchor="middle" x="644.5" y="-111.5" font-family="Helvetica,sans-Serif" font-size="10.00">::MarkerFormatter</text>
<polyline fill="none" stroke="#666666" points="582,-104.5 707,-104.5"/>
<text text-anchor="start" x="590" y="-92.5" font-family="Helvetica,sans-Serif" font-size="10.00">+ PATTERN</text>
<polyline fill="none" stroke="#666666" points="582,-85.5 707,-85.5"/>
<text text-anchor="start" x="590" y="-73.5" font-family="Helvetica,sans-Serif" font-size="10.00">+ MarkerFormatter()</text>
<text text-anchor="start" x="590" y="-62.5" font-family="Helvetica,sans-Serif" font-size="10.00">+ ~MarkerFormatter()</text>
<text text-anchor="start" x="590" y="-51.5" font-family="Helvetica,sans-Serif" font-size="10.00">+ format()</text>
<text text-anchor="start" x="590" y="-40.5" font-family="Helvetica,sans-Serif" font-size="10.00">+ getSize()</text>
<text text-anchor="start" x="590" y="-29.5" font-family="Helvetica,sans-Serif" font-size="10.00">+ setValue()</text>
<text text-anchor="start" x="590" y="-18.5" font-family="Helvetica,sans-Serif" font-size="10.00">+ getPattern()</text>
<text text-anchor="start" x="590" y="-7.5" font-family="Helvetica,sans-Serif" font-size="10.00">+ getInstance()</text>
</a>
</g>
</g>
<!-- Node1&#45;&gt;Node6 -->
<g id="edge5" class="edge">
<title>Node1&#45;&gt;Node6</title>
<path fill="none" stroke="#63b8ff" d="M723.51,-180.6C712.37,-164.8 701.18,-148.92 690.86,-134.28"/>
<polygon fill="none" stroke="#63b8ff" points="720.56,-182.5 729.18,-188.65 726.28,-178.46 720.56,-182.5"/>
</g>
<!-- Node7 -->
<g id="node7" class="node">
<title>Node7</title>
<g id="a_node7"><a xlink:href="classanch_1_1date_1_1formatter_1_1_millisecond_formatter.html" target="_top" xlink:title=" ">
<polygon fill="white" stroke="#666666" points="725,-0.5 725,-134.5 872,-134.5 872,-0.5 725,-0.5"/>
<text text-anchor="start" x="733" y="-122.5" font-family="Helvetica,sans-Serif" font-size="10.00">anch::date::formatter</text>
<text text-anchor="middle" x="798.5" y="-111.5" font-family="Helvetica,sans-Serif" font-size="10.00">::MillisecondFormatter</text>
<polyline fill="none" stroke="#666666" points="725,-104.5 872,-104.5"/>
<text text-anchor="start" x="733" y="-92.5" font-family="Helvetica,sans-Serif" font-size="10.00">+ PATTERN</text>
<polyline fill="none" stroke="#666666" points="725,-85.5 872,-85.5"/>
<text text-anchor="start" x="733" y="-73.5" font-family="Helvetica,sans-Serif" font-size="10.00">+ MillisecondFormatter()</text>
<text text-anchor="start" x="733" y="-62.5" font-family="Helvetica,sans-Serif" font-size="10.00">+ ~MillisecondFormatter()</text>
<text text-anchor="start" x="733" y="-51.5" font-family="Helvetica,sans-Serif" font-size="10.00">+ format()</text>
<text text-anchor="start" x="733" y="-40.5" font-family="Helvetica,sans-Serif" font-size="10.00">+ getSize()</text>
<text text-anchor="start" x="733" y="-29.5" font-family="Helvetica,sans-Serif" font-size="10.00">+ setValue()</text>
<text text-anchor="start" x="733" y="-18.5" font-family="Helvetica,sans-Serif" font-size="10.00">+ getPattern()</text>
<text text-anchor="start" x="733" y="-7.5" font-family="Helvetica,sans-Serif" font-size="10.00">+ getInstance()</text>
</a>
</g>
</g>
<!-- Node1&#45;&gt;Node7 -->
<g id="edge6" class="edge">
<title>Node1&#45;&gt;Node7</title>
<path fill="none" stroke="#63b8ff" d="M798.5,-160.3C798.5,-151.37 798.5,-142.61 798.5,-134.25"/>
<polygon fill="none" stroke="#63b8ff" points="795,-160.16 798.5,-170.16 802,-160.16 795,-160.16"/>
</g>
<!-- Node8 -->
<g id="node8" class="node">
<title>Node8</title>
<g id="a_node8"><a xlink:href="classanch_1_1date_1_1formatter_1_1_minute_formatter.html" target="_top" xlink:title=" ">
<polygon fill="white" stroke="#666666" points="890,-0.5 890,-134.5 1015,-134.5 1015,-0.5 890,-0.5"/>
<text text-anchor="start" x="898" y="-122.5" font-family="Helvetica,sans-Serif" font-size="10.00">anch::date::formatter</text>
<text text-anchor="middle" x="952.5" y="-111.5" font-family="Helvetica,sans-Serif" font-size="10.00">::MinuteFormatter</text>
<polyline fill="none" stroke="#666666" points="890,-104.5 1015,-104.5"/>
<text text-anchor="start" x="898" y="-92.5" font-family="Helvetica,sans-Serif" font-size="10.00">+ PATTERN</text>
<polyline fill="none" stroke="#666666" points="890,-85.5 1015,-85.5"/>
<text text-anchor="start" x="898" y="-73.5" font-family="Helvetica,sans-Serif" font-size="10.00">+ MinuteFormatter()</text>
<text text-anchor="start" x="898" y="-62.5" font-family="Helvetica,sans-Serif" font-size="10.00">+ ~MinuteFormatter()</text>
<text text-anchor="start" x="898" y="-51.5" font-family="Helvetica,sans-Serif" font-size="10.00">+ format()</text>
<text text-anchor="start" x="898" y="-40.5" font-family="Helvetica,sans-Serif" font-size="10.00">+ getSize()</text>
<text text-anchor="start" x="898" y="-29.5" font-family="Helvetica,sans-Serif" font-size="10.00">+ setValue()</text>
<text text-anchor="start" x="898" y="-18.5" font-family="Helvetica,sans-Serif" font-size="10.00">+ getPattern()</text>
<text text-anchor="start" x="898" y="-7.5" font-family="Helvetica,sans-Serif" font-size="10.00">+ getInstance()</text>
</a>
</g>
</g>
<!-- Node1&#45;&gt;Node8 -->
<g id="edge7" class="edge">
<title>Node1&#45;&gt;Node8</title>
<path fill="none" stroke="#63b8ff" d="M873.49,-180.6C884.63,-164.8 895.82,-148.92 906.14,-134.28"/>
<polygon fill="none" stroke="#63b8ff" points="870.72,-178.46 867.82,-188.65 876.44,-182.5 870.72,-178.46"/>
</g>
<!-- Node9 -->
<g id="node9" class="node">
<title>Node9</title>
<g id="a_node9"><a xlink:href="classanch_1_1date_1_1formatter_1_1_month_formatter.html" target="_top" xlink:title=" ">
<polygon fill="white" stroke="#666666" points="1033.5,-0.5 1033.5,-134.5 1155.5,-134.5 1155.5,-0.5 1033.5,-0.5"/>
<text text-anchor="start" x="1041.5" y="-122.5" font-family="Helvetica,sans-Serif" font-size="10.00">anch::date::formatter</text>
<text text-anchor="middle" x="1094.5" y="-111.5" font-family="Helvetica,sans-Serif" font-size="10.00">::MonthFormatter</text>
<polyline fill="none" stroke="#666666" points="1033.5,-104.5 1155.5,-104.5"/>
<text text-anchor="start" x="1041.5" y="-92.5" font-family="Helvetica,sans-Serif" font-size="10.00">+ PATTERN</text>
<polyline fill="none" stroke="#666666" points="1033.5,-85.5 1155.5,-85.5"/>
<text text-anchor="start" x="1041.5" y="-73.5" font-family="Helvetica,sans-Serif" font-size="10.00">+ MonthFormatter()</text>
<text text-anchor="start" x="1041.5" y="-62.5" font-family="Helvetica,sans-Serif" font-size="10.00">+ ~MonthFormatter()</text>
<text text-anchor="start" x="1041.5" y="-51.5" font-family="Helvetica,sans-Serif" font-size="10.00">+ format()</text>
<text text-anchor="start" x="1041.5" y="-40.5" font-family="Helvetica,sans-Serif" font-size="10.00">+ getSize()</text>
<text text-anchor="start" x="1041.5" y="-29.5" font-family="Helvetica,sans-Serif" font-size="10.00">+ setValue()</text>
<text text-anchor="start" x="1041.5" y="-18.5" font-family="Helvetica,sans-Serif" font-size="10.00">+ getPattern()</text>
<text text-anchor="start" x="1041.5" y="-7.5" font-family="Helvetica,sans-Serif" font-size="10.00">+ getInstance()</text>
</a>
</g>
</g>
<!-- Node1&#45;&gt;Node9 -->
<g id="edge8" class="edge">
<title>Node1&#45;&gt;Node9</title>
<path fill="none" stroke="#63b8ff" d="M876.47,-239.15C921.11,-210.65 977.42,-172.76 1024.5,-135 1027.51,-132.59 1030.54,-130.07 1033.57,-127.49"/>
<polygon fill="none" stroke="#63b8ff" points="874.68,-236.14 868.12,-244.46 878.44,-242.05 874.68,-236.14"/>
</g>
<!-- Node10 -->
<g id="node10" class="node">
<title>Node10</title>
<g id="a_node10"><a xlink:href="classanch_1_1date_1_1formatter_1_1_second_formatter.html" target="_top" xlink:title=" ">
<polygon fill="white" stroke="#666666" points="1174,-0.5 1174,-134.5 1301,-134.5 1301,-0.5 1174,-0.5"/>
<text text-anchor="start" x="1182" y="-122.5" font-family="Helvetica,sans-Serif" font-size="10.00">anch::date::formatter</text>
<text text-anchor="middle" x="1237.5" y="-111.5" font-family="Helvetica,sans-Serif" font-size="10.00">::SecondFormatter</text>
<polyline fill="none" stroke="#666666" points="1174,-104.5 1301,-104.5"/>
<text text-anchor="start" x="1182" y="-92.5" font-family="Helvetica,sans-Serif" font-size="10.00">+ PATTERN</text>
<polyline fill="none" stroke="#666666" points="1174,-85.5 1301,-85.5"/>
<text text-anchor="start" x="1182" y="-73.5" font-family="Helvetica,sans-Serif" font-size="10.00">+ SecondFormatter()</text>
<text text-anchor="start" x="1182" y="-62.5" font-family="Helvetica,sans-Serif" font-size="10.00">+ ~SecondFormatter()</text>
<text text-anchor="start" x="1182" y="-51.5" font-family="Helvetica,sans-Serif" font-size="10.00">+ format()</text>
<text text-anchor="start" x="1182" y="-40.5" font-family="Helvetica,sans-Serif" font-size="10.00">+ getSize()</text>
<text text-anchor="start" x="1182" y="-29.5" font-family="Helvetica,sans-Serif" font-size="10.00">+ setValue()</text>
<text text-anchor="start" x="1182" y="-18.5" font-family="Helvetica,sans-Serif" font-size="10.00">+ getPattern()</text>
<text text-anchor="start" x="1182" y="-7.5" font-family="Helvetica,sans-Serif" font-size="10.00">+ getInstance()</text>
</a>
</g>
</g>
<!-- Node1&#45;&gt;Node10 -->
<g id="edge9" class="edge">
<title>Node1&#45;&gt;Node10</title>
<path fill="none" stroke="#63b8ff" d="M877.22,-263.13C954.03,-237.85 1072.44,-193.52 1164.5,-135 1167.68,-132.98 1170.86,-130.81 1174,-128.54"/>
<polygon fill="none" stroke="#63b8ff" points="876.52,-259.67 868.1,-266.1 878.69,-266.33 876.52,-259.67"/>
</g>
<!-- Node11 -->
<g id="node11" class="node">
<title>Node11</title>
<g id="a_node11"><a xlink:href="classanch_1_1date_1_1formatter_1_1_year2_d_formatter.html" target="_top" xlink:title=" ">
<polygon fill="white" stroke="#666666" points="1319,-0.5 1319,-134.5 1444,-134.5 1444,-0.5 1319,-0.5"/>
<text text-anchor="start" x="1327" y="-122.5" font-family="Helvetica,sans-Serif" font-size="10.00">anch::date::formatter</text>
<text text-anchor="middle" x="1381.5" y="-111.5" font-family="Helvetica,sans-Serif" font-size="10.00">::Year2DFormatter</text>
<polyline fill="none" stroke="#666666" points="1319,-104.5 1444,-104.5"/>
<text text-anchor="start" x="1327" y="-92.5" font-family="Helvetica,sans-Serif" font-size="10.00">+ PATTERN</text>
<polyline fill="none" stroke="#666666" points="1319,-85.5 1444,-85.5"/>
<text text-anchor="start" x="1327" y="-73.5" font-family="Helvetica,sans-Serif" font-size="10.00">+ Year2DFormatter()</text>
<text text-anchor="start" x="1327" y="-62.5" font-family="Helvetica,sans-Serif" font-size="10.00">+ ~Year2DFormatter()</text>
<text text-anchor="start" x="1327" y="-51.5" font-family="Helvetica,sans-Serif" font-size="10.00">+ format()</text>
<text text-anchor="start" x="1327" y="-40.5" font-family="Helvetica,sans-Serif" font-size="10.00">+ getSize()</text>
<text text-anchor="start" x="1327" y="-29.5" font-family="Helvetica,sans-Serif" font-size="10.00">+ setValue()</text>
<text text-anchor="start" x="1327" y="-18.5" font-family="Helvetica,sans-Serif" font-size="10.00">+ getPattern()</text>
<text text-anchor="start" x="1327" y="-7.5" font-family="Helvetica,sans-Serif" font-size="10.00">+ getInstance()</text>
</a>
</g>
</g>
<!-- Node1&#45;&gt;Node11 -->
<g id="edge10" class="edge">
<title>Node1&#45;&gt;Node11</title>
<path fill="none" stroke="#63b8ff" d="M877.78,-275.18C982.43,-257.05 1169.83,-215.66 1310.5,-135 1313.43,-133.32 1316.34,-131.5 1319.2,-129.56"/>
<polygon fill="none" stroke="#63b8ff" points="877.44,-271.69 868.17,-276.82 878.61,-278.59 877.44,-271.69"/>
</g>
<!-- Node12 -->
<g id="node12" class="node">
<title>Node12</title>
<g id="a_node12"><a xlink:href="classanch_1_1date_1_1formatter_1_1_year4_d_formatter.html" target="_top" xlink:title=" ">
<polygon fill="white" stroke="#666666" points="1462,-0.5 1462,-134.5 1587,-134.5 1587,-0.5 1462,-0.5"/>
<text text-anchor="start" x="1470" y="-122.5" font-family="Helvetica,sans-Serif" font-size="10.00">anch::date::formatter</text>
<text text-anchor="middle" x="1524.5" y="-111.5" font-family="Helvetica,sans-Serif" font-size="10.00">::Year4DFormatter</text>
<polyline fill="none" stroke="#666666" points="1462,-104.5 1587,-104.5"/>
<text text-anchor="start" x="1470" y="-92.5" font-family="Helvetica,sans-Serif" font-size="10.00">+ PATTERN</text>
<polyline fill="none" stroke="#666666" points="1462,-85.5 1587,-85.5"/>
<text text-anchor="start" x="1470" y="-73.5" font-family="Helvetica,sans-Serif" font-size="10.00">+ Year4DFormatter()</text>
<text text-anchor="start" x="1470" y="-62.5" font-family="Helvetica,sans-Serif" font-size="10.00">+ ~Year4DFormatter()</text>
<text text-anchor="start" x="1470" y="-51.5" font-family="Helvetica,sans-Serif" font-size="10.00">+ format()</text>
<text text-anchor="start" x="1470" y="-40.5" font-family="Helvetica,sans-Serif" font-size="10.00">+ getSize()</text>
<text text-anchor="start" x="1470" y="-29.5" font-family="Helvetica,sans-Serif" font-size="10.00">+ setValue()</text>
<text text-anchor="start" x="1470" y="-18.5" font-family="Helvetica,sans-Serif" font-size="10.00">+ getPattern()</text>
<text text-anchor="start" x="1470" y="-7.5" font-family="Helvetica,sans-Serif" font-size="10.00">+ getInstance()</text>
</a>
</g>
</g>
<!-- Node1&#45;&gt;Node12 -->
<g id="edge11" class="edge">
<title>Node1&#45;&gt;Node12</title>
<path fill="none" stroke="#63b8ff" d="M877.91,-281.86C1005.99,-270.76 1263.07,-236.66 1453.5,-135 1456.48,-133.41 1459.43,-131.66 1462.33,-129.79"/>
<polygon fill="none" stroke="#63b8ff" points="877.85,-278.36 868.17,-282.68 878.43,-285.33 877.85,-278.36"/>
</g>
</g>
</svg>
