<?xml version="1.0" encoding="UTF-8" standalone="no"?>
<!DOCTYPE svg PUBLIC "-//W3C//DTD SVG 1.1//EN"
 "http://www.w3.org/Graphics/SVG/1.1/DTD/svg11.dtd">
<!-- Generated by graphviz version 12.1.2 (0)
 -->
<!-- Title: anch::sql::PreparedStatement Pages: 1 -->
<svg width="507pt" height="480pt"
 viewBox="0.00 0.00 507.00 480.00" xmlns="http://www.w3.org/2000/svg" xmlns:xlink="http://www.w3.org/1999/xlink">
<g id="graph0" class="graph" transform="scale(1 1) rotate(0) translate(4 476)">
<title>anch::sql::PreparedStatement</title>
<!-- Node1 -->
<g id="Node000001" class="node">
<title>Node1</title>
<g id="a_Node000001"><a xlink:title="SQL prepared statement.">
<polygon fill="#999999" stroke="none" points="318,-472 179,-472 179,-148 318,-148 318,-472"/>
<text text-anchor="start" x="183.62" y="-458.5" font-family="Helvetica,sans-Serif" font-size="10.00">anch::sql::PreparedStatement</text>
<text text-anchor="start" x="189.38" y="-442.5" font-family="Helvetica,sans-Serif" font-size="10.00">#</text>
<text text-anchor="start" x="205" y="-442.5" font-family="Helvetica,sans-Serif" font-size="10.00">_values</text>
<text text-anchor="start" x="189.38" y="-426.5" font-family="Helvetica,sans-Serif" font-size="10.00">#</text>
<text text-anchor="start" x="205" y="-426.5" font-family="Helvetica,sans-Serif" font-size="10.00">_nbPlaceholders</text>
<text text-anchor="start" x="189" y="-410.5" font-family="Helvetica,sans-Serif" font-size="10.00">+</text>
<text text-anchor="start" x="205" y="-410.5" font-family="Helvetica,sans-Serif" font-size="10.00">PreparedStatement()</text>
<text text-anchor="start" x="189" y="-394.5" font-family="Helvetica,sans-Serif" font-size="10.00">+</text>
<text text-anchor="start" x="205" y="-394.5" font-family="Helvetica,sans-Serif" font-size="10.00">~PreparedStatement()</text>
<text text-anchor="start" x="189" y="-378.5" font-family="Helvetica,sans-Serif" font-size="10.00">+</text>
<text text-anchor="start" x="205" y="-378.5" font-family="Helvetica,sans-Serif" font-size="10.00">executeQuery()</text>
<text text-anchor="start" x="189" y="-362.5" font-family="Helvetica,sans-Serif" font-size="10.00">+</text>
<text text-anchor="start" x="205" y="-362.5" font-family="Helvetica,sans-Serif" font-size="10.00">executeUpdate()</text>
<text text-anchor="start" x="189" y="-346.5" font-family="Helvetica,sans-Serif" font-size="10.00">+</text>
<text text-anchor="start" x="205" y="-346.5" font-family="Helvetica,sans-Serif" font-size="10.00">set()</text>
<text text-anchor="start" x="189" y="-330.5" font-family="Helvetica,sans-Serif" font-size="10.00">+</text>
<text text-anchor="start" x="205" y="-330.5" font-family="Helvetica,sans-Serif" font-size="10.00">set()</text>
<text text-anchor="start" x="189" y="-314.5" font-family="Helvetica,sans-Serif" font-size="10.00">+</text>
<text text-anchor="start" x="205" y="-314.5" font-family="Helvetica,sans-Serif" font-size="10.00">set()</text>
<text text-anchor="start" x="189" y="-298.5" font-family="Helvetica,sans-Serif" font-size="10.00">+</text>
<text text-anchor="start" x="205" y="-298.5" font-family="Helvetica,sans-Serif" font-size="10.00">set()</text>
<text text-anchor="start" x="189" y="-282.5" font-family="Helvetica,sans-Serif" font-size="10.00">+</text>
<text text-anchor="start" x="205" y="-282.5" font-family="Helvetica,sans-Serif" font-size="10.00">set()</text>
<text text-anchor="start" x="189" y="-266.5" font-family="Helvetica,sans-Serif" font-size="10.00">+</text>
<text text-anchor="start" x="205" y="-266.5" font-family="Helvetica,sans-Serif" font-size="10.00">set()</text>
<text text-anchor="start" x="189" y="-250.5" font-family="Helvetica,sans-Serif" font-size="10.00">+</text>
<text text-anchor="start" x="205" y="-250.5" font-family="Helvetica,sans-Serif" font-size="10.00">set()</text>
<text text-anchor="start" x="189" y="-234.5" font-family="Helvetica,sans-Serif" font-size="10.00">+</text>
<text text-anchor="start" x="205" y="-234.5" font-family="Helvetica,sans-Serif" font-size="10.00">set()</text>
<text text-anchor="start" x="189" y="-218.5" font-family="Helvetica,sans-Serif" font-size="10.00">+</text>
<text text-anchor="start" x="205" y="-218.5" font-family="Helvetica,sans-Serif" font-size="10.00">set()</text>
<text text-anchor="start" x="189" y="-202.5" font-family="Helvetica,sans-Serif" font-size="10.00">+</text>
<text text-anchor="start" x="205" y="-202.5" font-family="Helvetica,sans-Serif" font-size="10.00">set()</text>
<text text-anchor="start" x="189" y="-186.5" font-family="Helvetica,sans-Serif" font-size="10.00">+</text>
<text text-anchor="start" x="205" y="-186.5" font-family="Helvetica,sans-Serif" font-size="10.00">set()</text>
<text text-anchor="start" x="189.38" y="-170.5" font-family="Helvetica,sans-Serif" font-size="10.00">#</text>
<text text-anchor="start" x="205" y="-170.5" font-family="Helvetica,sans-Serif" font-size="10.00">getPlaceholders()</text>
<text text-anchor="start" x="189.38" y="-154.5" font-family="Helvetica,sans-Serif" font-size="10.00">#</text>
<text text-anchor="start" x="205" y="-154.5" font-family="Helvetica,sans-Serif" font-size="10.00">checkIndex()</text>
<polygon fill="#666666" stroke="#666666" points="179,-454 179,-454 318,-454 318,-454 179,-454"/>
<polygon fill="#666666" stroke="#666666" points="179,-422 179,-422 203,-422 203,-422 179,-422"/>
<polygon fill="#666666" stroke="#666666" points="203,-422 203,-422 318,-422 318,-422 203,-422"/>
<polygon fill="none" stroke="#666666" points="179,-148 179,-472 318,-472 318,-148 179,-148"/>
</a>
</g>
</g>
<!-- Node2 -->
<g id="Node000002" class="node">
<title>Node2</title>
<g id="a_Node000002"><a xlink:href="classanch_1_1sql_1_1_my_s_q_l_prepared_statement.html" target="_top" xlink:title="MySQL prepared statement implementation.">
<polygon fill="white" stroke="none" points="147,-112 0,-112 0,0 147,0 147,-112"/>
<text text-anchor="start" x="14.62" y="-98.5" font-family="Helvetica,sans-Serif" font-size="10.00">anch::sql::MySQLPrepared</text>
<text text-anchor="start" x="51" y="-86.5" font-family="Helvetica,sans-Serif" font-size="10.00">Statement</text>
<text text-anchor="start" x="72" y="-70.5" font-family="Helvetica,sans-Serif" font-size="10.00"> </text>
<text text-anchor="start" x="4" y="-54.5" font-family="Helvetica,sans-Serif" font-size="10.00">+</text>
<text text-anchor="start" x="14" y="-54.5" font-family="Helvetica,sans-Serif" font-size="10.00">MySQLPreparedStatement()</text>
<text text-anchor="start" x="4" y="-38.5" font-family="Helvetica,sans-Serif" font-size="10.00">+</text>
<text text-anchor="start" x="14" y="-38.5" font-family="Helvetica,sans-Serif" font-size="10.00">~MySQLPreparedStatement()</text>
<text text-anchor="start" x="4" y="-22.5" font-family="Helvetica,sans-Serif" font-size="10.00">+</text>
<text text-anchor="start" x="14" y="-22.5" font-family="Helvetica,sans-Serif" font-size="10.00">executeQuery()</text>
<text text-anchor="start" x="4" y="-6.5" font-family="Helvetica,sans-Serif" font-size="10.00">+</text>
<text text-anchor="start" x="14" y="-6.5" font-family="Helvetica,sans-Serif" font-size="10.00">executeUpdate()</text>
<polygon fill="#666666" stroke="#666666" points="0,-82 0,-82 147,-82 147,-82 0,-82"/>
<polygon fill="#666666" stroke="#666666" points="0,-66 0,-66 147,-66 147,-66 0,-66"/>
<polygon fill="none" stroke="#666666" points="0,0 0,-112 147,-112 147,0 0,0"/>
</a>
</g>
</g>
<!-- Node1&#45;&gt;Node2 -->
<g id="edge1_Node000001_Node000002" class="edge">
<title>Node1&#45;&gt;Node2</title>
<g id="a_edge1_Node000001_Node000002"><a xlink:title=" ">
<path fill="none" stroke="#63b8ff" d="M172.58,-199.67C151.49,-169.31 129.49,-137.63 111.6,-111.86"/>
<polygon fill="none" stroke="#63b8ff" points="169.64,-201.58 178.22,-207.8 175.39,-197.59 169.64,-201.58"/>
</a>
</g>
</g>
<!-- Node3 -->
<g id="Node000003" class="node">
<title>Node3</title>
<g id="a_Node000003"><a xlink:href="classanch_1_1sql_1_1_postgre_s_q_l_prepared_statement.html" target="_top" xlink:title="PostgreSQL prepared statement implementation.">
<polygon fill="white" stroke="none" points="332,-112 165,-112 165,0 332,0 332,-112"/>
<text text-anchor="start" x="179.5" y="-98.5" font-family="Helvetica,sans-Serif" font-size="10.00">anch::sql::PostgreSQLPrepared</text>
<text text-anchor="start" x="226" y="-86.5" font-family="Helvetica,sans-Serif" font-size="10.00">Statement</text>
<text text-anchor="start" x="247" y="-70.5" font-family="Helvetica,sans-Serif" font-size="10.00"> </text>
<text text-anchor="start" x="169" y="-54.5" font-family="Helvetica,sans-Serif" font-size="10.00">+</text>
<text text-anchor="start" x="179" y="-54.5" font-family="Helvetica,sans-Serif" font-size="10.00">PostgreSQLPreparedStatement()</text>
<text text-anchor="start" x="169" y="-38.5" font-family="Helvetica,sans-Serif" font-size="10.00">+</text>
<text text-anchor="start" x="179" y="-38.5" font-family="Helvetica,sans-Serif" font-size="10.00">~PostgreSQLPreparedStatement()</text>
<text text-anchor="start" x="169" y="-22.5" font-family="Helvetica,sans-Serif" font-size="10.00">+</text>
<text text-anchor="start" x="179" y="-22.5" font-family="Helvetica,sans-Serif" font-size="10.00">executeQuery()</text>
<text text-anchor="start" x="169" y="-6.5" font-family="Helvetica,sans-Serif" font-size="10.00">+</text>
<text text-anchor="start" x="179" y="-6.5" font-family="Helvetica,sans-Serif" font-size="10.00">executeUpdate()</text>
<polygon fill="#666666" stroke="#666666" points="165,-82 165,-82 332,-82 332,-82 165,-82"/>
<polygon fill="#666666" stroke="#666666" points="165,-66 165,-66 332,-66 332,-66 165,-66"/>
<polygon fill="none" stroke="#666666" points="165,0 165,-112 332,-112 332,0 165,0"/>
</a>
</g>
</g>
<!-- Node1&#45;&gt;Node3 -->
<g id="edge2_Node000001_Node000003" class="edge">
<title>Node1&#45;&gt;Node3</title>
<g id="a_edge2_Node000001_Node000003"><a xlink:title=" ">
<path fill="none" stroke="#63b8ff" d="M248.5,-137.03C248.5,-128.23 248.5,-119.78 248.5,-111.89"/>
<polygon fill="none" stroke="#63b8ff" points="245,-136.82 248.5,-146.82 252,-136.82 245,-136.82"/>
</a>
</g>
</g>
<!-- Node4 -->
<g id="Node000004" class="node">
<title>Node4</title>
<g id="a_Node000004"><a xlink:href="classanch_1_1sql_1_1_s_q_lite3_prepared_statement.html" target="_top" xlink:title="SQLite3 prepared statement implementation.">
<polygon fill="white" stroke="none" points="499,-112 350,-112 350,0 499,0 499,-112"/>
<text text-anchor="start" x="364.5" y="-98.5" font-family="Helvetica,sans-Serif" font-size="10.00">anch::sql::SQLite3Prepared</text>
<text text-anchor="start" x="402" y="-86.5" font-family="Helvetica,sans-Serif" font-size="10.00">Statement</text>
<text text-anchor="start" x="423" y="-70.5" font-family="Helvetica,sans-Serif" font-size="10.00"> </text>
<text text-anchor="start" x="354" y="-54.5" font-family="Helvetica,sans-Serif" font-size="10.00">+</text>
<text text-anchor="start" x="364" y="-54.5" font-family="Helvetica,sans-Serif" font-size="10.00">SQLite3PreparedStatement()</text>
<text text-anchor="start" x="354" y="-38.5" font-family="Helvetica,sans-Serif" font-size="10.00">+</text>
<text text-anchor="start" x="364" y="-38.5" font-family="Helvetica,sans-Serif" font-size="10.00">~SQLite3PreparedStatement()</text>
<text text-anchor="start" x="354" y="-22.5" font-family="Helvetica,sans-Serif" font-size="10.00">+</text>
<text text-anchor="start" x="364" y="-22.5" font-family="Helvetica,sans-Serif" font-size="10.00">executeQuery()</text>
<text text-anchor="start" x="354" y="-6.5" font-family="Helvetica,sans-Serif" font-size="10.00">+</text>
<text text-anchor="start" x="364" y="-6.5" font-family="Helvetica,sans-Serif" font-size="10.00">executeUpdate()</text>
<polygon fill="#666666" stroke="#666666" points="350,-82 350,-82 499,-82 499,-82 350,-82"/>
<polygon fill="#666666" stroke="#666666" points="350,-66 350,-66 499,-66 499,-66 350,-66"/>
<polygon fill="none" stroke="#666666" points="350,0 350,-112 499,-112 499,0 350,0"/>
</a>
</g>
</g>
<!-- Node1&#45;&gt;Node4 -->
<g id="edge3_Node000001_Node000004" class="edge">
<title>Node1&#45;&gt;Node4</title>
<g id="a_edge3_Node000001_Node000004"><a xlink:title=" ">
<path fill="none" stroke="#63b8ff" d="M324.4,-200.33C345.75,-169.76 368.07,-137.8 386.2,-111.83"/>
<polygon fill="none" stroke="#63b8ff" points="321.53,-198.32 318.67,-208.52 327.27,-202.33 321.53,-198.32"/>
</a>
</g>
</g>
</g>
</svg>
