<?xml version="1.0" encoding="UTF-8" standalone="no"?>
<!DOCTYPE svg PUBLIC "-//W3C//DTD SVG 1.1//EN"
 "http://www.w3.org/Graphics/SVG/1.1/DTD/svg11.dtd">
<!-- Generated by graphviz version 12.1.2 (0)
 -->
<!-- Title: anch::sql::MySQLConnection Pages: 1 -->
<svg width="146pt" height="596pt"
 viewBox="0.00 0.00 146.00 596.00" xmlns="http://www.w3.org/2000/svg" xmlns:xlink="http://www.w3.org/1999/xlink">
<g id="graph0" class="graph" transform="scale(1 1) rotate(0) translate(4 592)">
<title>anch::sql::MySQLConnection</title>
<!-- Node1 -->
<g id="Node000001" class="node">
<title>Node1</title>
<g id="a_Node000001"><a xlink:title="MySQL connection.">
<polygon fill="#999999" stroke="none" points="138,-180 0,-180 0,0 138,0 138,-180"/>
<text text-anchor="start" x="4.88" y="-166.5" font-family="Helvetica,sans-Serif" font-size="10.00">anch::sql::MySQLConnection</text>
<text text-anchor="start" x="67.5" y="-150.5" font-family="Helvetica,sans-Serif" font-size="10.00"> </text>
<text text-anchor="start" x="9" y="-134.5" font-family="Helvetica,sans-Serif" font-size="10.00">+</text>
<text text-anchor="start" x="24" y="-134.5" font-family="Helvetica,sans-Serif" font-size="10.00">MySQLConnection()</text>
<text text-anchor="start" x="9" y="-118.5" font-family="Helvetica,sans-Serif" font-size="10.00">+</text>
<text text-anchor="start" x="24" y="-118.5" font-family="Helvetica,sans-Serif" font-size="10.00">MySQLConnection()</text>
<text text-anchor="start" x="9" y="-102.5" font-family="Helvetica,sans-Serif" font-size="10.00">+</text>
<text text-anchor="start" x="24" y="-102.5" font-family="Helvetica,sans-Serif" font-size="10.00">~MySQLConnection()</text>
<text text-anchor="start" x="9.38" y="-86.5" font-family="Helvetica,sans-Serif" font-size="10.00">#</text>
<text text-anchor="start" x="24" y="-86.5" font-family="Helvetica,sans-Serif" font-size="10.00">executeQuery()</text>
<text text-anchor="start" x="9.38" y="-70.5" font-family="Helvetica,sans-Serif" font-size="10.00">#</text>
<text text-anchor="start" x="24" y="-70.5" font-family="Helvetica,sans-Serif" font-size="10.00">executeUpdate()</text>
<text text-anchor="start" x="9.38" y="-54.5" font-family="Helvetica,sans-Serif" font-size="10.00">#</text>
<text text-anchor="start" x="24" y="-54.5" font-family="Helvetica,sans-Serif" font-size="10.00">sendCommit()</text>
<text text-anchor="start" x="9.38" y="-38.5" font-family="Helvetica,sans-Serif" font-size="10.00">#</text>
<text text-anchor="start" x="24" y="-38.5" font-family="Helvetica,sans-Serif" font-size="10.00">sendRollback()</text>
<text text-anchor="start" x="9.38" y="-22.5" font-family="Helvetica,sans-Serif" font-size="10.00">#</text>
<text text-anchor="start" x="24" y="-22.5" font-family="Helvetica,sans-Serif" font-size="10.00">sendStartTransaction()</text>
<text text-anchor="start" x="9.38" y="-6.5" font-family="Helvetica,sans-Serif" font-size="10.00">#</text>
<text text-anchor="start" x="24" y="-6.5" font-family="Helvetica,sans-Serif" font-size="10.00">makePrepared()</text>
<polygon fill="#666666" stroke="#666666" points="0,-162 0,-162 138,-162 138,-162 0,-162"/>
<polygon fill="#666666" stroke="#666666" points="0,-146 0,-146 138,-146 138,-146 0,-146"/>
<polygon fill="none" stroke="#666666" points="0,0 0,-180 138,-180 138,0 0,0"/>
</a>
</g>
</g>
<!-- Node2 -->
<g id="Node000002" class="node">
<title>Node2</title>
<g id="a_Node000002"><a xlink:href="classanch_1_1sql_1_1_connection.html" target="_top" xlink:title="SQL connection virtual class.">
<polygon fill="white" stroke="none" points="127.5,-588 10.5,-588 10.5,-216 127.5,-216 127.5,-588"/>
<text text-anchor="start" x="21.38" y="-574.5" font-family="Helvetica,sans-Serif" font-size="10.00">anch::sql::Connection</text>
<text text-anchor="start" x="14.88" y="-558.5" font-family="Helvetica,sans-Serif" font-size="10.00">#</text>
<text text-anchor="start" x="24.5" y="-558.5" font-family="Helvetica,sans-Serif" font-size="10.00">_valid</text>
<text text-anchor="start" x="14.88" y="-542.5" font-family="Helvetica,sans-Serif" font-size="10.00">#</text>
<text text-anchor="start" x="24.5" y="-542.5" font-family="Helvetica,sans-Serif" font-size="10.00">_transaction</text>
<text text-anchor="start" x="14.88" y="-526.5" font-family="Helvetica,sans-Serif" font-size="10.00">#</text>
<text text-anchor="start" x="24.5" y="-526.5" font-family="Helvetica,sans-Serif" font-size="10.00">_stmts</text>
<text text-anchor="start" x="14.88" y="-510.5" font-family="Helvetica,sans-Serif" font-size="10.00">#</text>
<text text-anchor="start" x="24.5" y="-510.5" font-family="Helvetica,sans-Serif" font-size="10.00">_errors</text>
<text text-anchor="start" x="14.5" y="-494.5" font-family="Helvetica,sans-Serif" font-size="10.00">+</text>
<text text-anchor="start" x="24.5" y="-494.5" font-family="Helvetica,sans-Serif" font-size="10.00">Connection()</text>
<text text-anchor="start" x="14.5" y="-478.5" font-family="Helvetica,sans-Serif" font-size="10.00">+</text>
<text text-anchor="start" x="24.5" y="-478.5" font-family="Helvetica,sans-Serif" font-size="10.00">Connection()</text>
<text text-anchor="start" x="14.5" y="-462.5" font-family="Helvetica,sans-Serif" font-size="10.00">+</text>
<text text-anchor="start" x="24.5" y="-462.5" font-family="Helvetica,sans-Serif" font-size="10.00">~Connection()</text>
<text text-anchor="start" x="14.5" y="-446.5" font-family="Helvetica,sans-Serif" font-size="10.00">+</text>
<text text-anchor="start" x="24.5" y="-446.5" font-family="Helvetica,sans-Serif" font-size="10.00">startTransaction()</text>
<text text-anchor="start" x="14.5" y="-430.5" font-family="Helvetica,sans-Serif" font-size="10.00">+</text>
<text text-anchor="start" x="24.5" y="-430.5" font-family="Helvetica,sans-Serif" font-size="10.00">begin()</text>
<text text-anchor="start" x="14.5" y="-414.5" font-family="Helvetica,sans-Serif" font-size="10.00">+</text>
<text text-anchor="start" x="24.5" y="-414.5" font-family="Helvetica,sans-Serif" font-size="10.00">commit()</text>
<text text-anchor="start" x="14.5" y="-398.5" font-family="Helvetica,sans-Serif" font-size="10.00">+</text>
<text text-anchor="start" x="24.5" y="-398.5" font-family="Helvetica,sans-Serif" font-size="10.00">rollback()</text>
<text text-anchor="start" x="14.5" y="-382.5" font-family="Helvetica,sans-Serif" font-size="10.00">+</text>
<text text-anchor="start" x="24.5" y="-382.5" font-family="Helvetica,sans-Serif" font-size="10.00">release()</text>
<text text-anchor="start" x="14.5" y="-366.5" font-family="Helvetica,sans-Serif" font-size="10.00">+</text>
<text text-anchor="start" x="24.5" y="-366.5" font-family="Helvetica,sans-Serif" font-size="10.00">prepareStatement()</text>
<text text-anchor="start" x="14.5" y="-350.5" font-family="Helvetica,sans-Serif" font-size="10.00">+</text>
<text text-anchor="start" x="24.5" y="-350.5" font-family="Helvetica,sans-Serif" font-size="10.00">query()</text>
<text text-anchor="start" x="24.5" y="-334.5" font-family="Helvetica,sans-Serif" font-size="10.00">and 9 more...</text>
<text text-anchor="start" x="14.88" y="-318.5" font-family="Helvetica,sans-Serif" font-size="10.00">#</text>
<text text-anchor="start" x="24.5" y="-318.5" font-family="Helvetica,sans-Serif" font-size="10.00">executeQuery()</text>
<text text-anchor="start" x="14.88" y="-302.5" font-family="Helvetica,sans-Serif" font-size="10.00">#</text>
<text text-anchor="start" x="24.5" y="-302.5" font-family="Helvetica,sans-Serif" font-size="10.00">executeUpdate()</text>
<text text-anchor="start" x="14.88" y="-286.5" font-family="Helvetica,sans-Serif" font-size="10.00">#</text>
<text text-anchor="start" x="24.5" y="-286.5" font-family="Helvetica,sans-Serif" font-size="10.00">sendStartTransaction()</text>
<text text-anchor="start" x="14.88" y="-270.5" font-family="Helvetica,sans-Serif" font-size="10.00">#</text>
<text text-anchor="start" x="24.5" y="-270.5" font-family="Helvetica,sans-Serif" font-size="10.00">sendCommit()</text>
<text text-anchor="start" x="14.88" y="-254.5" font-family="Helvetica,sans-Serif" font-size="10.00">#</text>
<text text-anchor="start" x="24.5" y="-254.5" font-family="Helvetica,sans-Serif" font-size="10.00">sendRollback()</text>
<text text-anchor="start" x="14.88" y="-238.5" font-family="Helvetica,sans-Serif" font-size="10.00">#</text>
<text text-anchor="start" x="24.5" y="-238.5" font-family="Helvetica,sans-Serif" font-size="10.00">makePrepared()</text>
<text text-anchor="start" x="14.88" y="-222.5" font-family="Helvetica,sans-Serif" font-size="10.00">#</text>
<text text-anchor="start" x="24.5" y="-222.5" font-family="Helvetica,sans-Serif" font-size="10.00">setValid()</text>
<polygon fill="#666666" stroke="#666666" points="10.5,-570 10.5,-570 127.5,-570 127.5,-570 10.5,-570"/>
<polygon fill="#666666" stroke="#666666" points="10.5,-506 10.5,-506 22.5,-506 22.5,-506 10.5,-506"/>
<polygon fill="#666666" stroke="#666666" points="22.5,-506 22.5,-506 127.5,-506 127.5,-506 22.5,-506"/>
<polygon fill="none" stroke="#666666" points="10.5,-216 10.5,-588 127.5,-588 127.5,-216 10.5,-216"/>
</a>
</g>
</g>
<!-- Node2&#45;&gt;Node1 -->
<g id="edge1_Node000001_Node000002" class="edge">
<title>Node2&#45;&gt;Node1</title>
<g id="a_edge1_Node000001_Node000002"><a xlink:title=" ">
<path fill="none" stroke="#63b8ff" d="M69,-204.9C69,-196.38 69,-188.04 69,-179.99"/>
<polygon fill="none" stroke="#63b8ff" points="65.5,-204.68 69,-214.68 72.5,-204.68 65.5,-204.68"/>
</a>
</g>
</g>
</g>
</svg>
