<?xml version="1.0" encoding="UTF-8" standalone="no"?>
<!DOCTYPE svg PUBLIC "-//W3C//DTD SVG 1.1//EN"
 "http://www.w3.org/Graphics/SVG/1.1/DTD/svg11.dtd">
<!-- Generated by graphviz version 12.1.2 (0)
 -->
<!-- Title: anch::sql::MySQLConnection Pages: 1 -->
<svg width="262pt" height="1397pt"
 viewBox="0.00 0.00 262.04 1397.00" xmlns="http://www.w3.org/2000/svg" xmlns:xlink="http://www.w3.org/1999/xlink">
<g id="graph0" class="graph" transform="scale(1 1) rotate(0) translate(4 1393)">
<title>anch::sql::MySQLConnection</title>
<!-- Node1 -->
<g id="Node000001" class="node">
<title>Node1</title>
<g id="a_Node000001"><a xlink:title="MySQL connection.">
<polygon fill="#999999" stroke="none" points="201,-180 63,-180 63,0 201,0 201,-180"/>
<text text-anchor="start" x="67.88" y="-166.5" font-family="Helvetica,sans-Serif" font-size="10.00">anch::sql::MySQLConnection</text>
<text text-anchor="start" x="130.5" y="-150.5" font-family="Helvetica,sans-Serif" font-size="10.00"> </text>
<text text-anchor="start" x="72" y="-134.5" font-family="Helvetica,sans-Serif" font-size="10.00">+</text>
<text text-anchor="start" x="87" y="-134.5" font-family="Helvetica,sans-Serif" font-size="10.00">MySQLConnection()</text>
<text text-anchor="start" x="72" y="-118.5" font-family="Helvetica,sans-Serif" font-size="10.00">+</text>
<text text-anchor="start" x="87" y="-118.5" font-family="Helvetica,sans-Serif" font-size="10.00">MySQLConnection()</text>
<text text-anchor="start" x="72" y="-102.5" font-family="Helvetica,sans-Serif" font-size="10.00">+</text>
<text text-anchor="start" x="87" y="-102.5" font-family="Helvetica,sans-Serif" font-size="10.00">~MySQLConnection()</text>
<text text-anchor="start" x="72.38" y="-86.5" font-family="Helvetica,sans-Serif" font-size="10.00">#</text>
<text text-anchor="start" x="87" y="-86.5" font-family="Helvetica,sans-Serif" font-size="10.00">executeQuery()</text>
<text text-anchor="start" x="72.38" y="-70.5" font-family="Helvetica,sans-Serif" font-size="10.00">#</text>
<text text-anchor="start" x="87" y="-70.5" font-family="Helvetica,sans-Serif" font-size="10.00">executeUpdate()</text>
<text text-anchor="start" x="72.38" y="-54.5" font-family="Helvetica,sans-Serif" font-size="10.00">#</text>
<text text-anchor="start" x="87" y="-54.5" font-family="Helvetica,sans-Serif" font-size="10.00">sendCommit()</text>
<text text-anchor="start" x="72.38" y="-38.5" font-family="Helvetica,sans-Serif" font-size="10.00">#</text>
<text text-anchor="start" x="87" y="-38.5" font-family="Helvetica,sans-Serif" font-size="10.00">sendRollback()</text>
<text text-anchor="start" x="72.38" y="-22.5" font-family="Helvetica,sans-Serif" font-size="10.00">#</text>
<text text-anchor="start" x="87" y="-22.5" font-family="Helvetica,sans-Serif" font-size="10.00">sendStartTransaction()</text>
<text text-anchor="start" x="72.38" y="-6.5" font-family="Helvetica,sans-Serif" font-size="10.00">#</text>
<text text-anchor="start" x="87" y="-6.5" font-family="Helvetica,sans-Serif" font-size="10.00">makePrepared()</text>
<polygon fill="#666666" stroke="#666666" points="63,-162 63,-162 201,-162 201,-162 63,-162"/>
<polygon fill="#666666" stroke="#666666" points="63,-146 63,-146 201,-146 201,-146 63,-146"/>
<polygon fill="none" stroke="#666666" points="63,0 63,-180 201,-180 201,0 63,0"/>
</a>
</g>
</g>
<!-- Node2 -->
<g id="Node000002" class="node">
<title>Node2</title>
<g id="a_Node000002"><a xlink:href="classanch_1_1sql_1_1_connection.html" target="_top" xlink:title="SQL connection virtual class.">
<polygon fill="white" stroke="none" points="190.5,-573 73.5,-573 73.5,-217 190.5,-217 190.5,-573"/>
<text text-anchor="start" x="84.38" y="-559.5" font-family="Helvetica,sans-Serif" font-size="10.00">anch::sql::Connection</text>
<text text-anchor="start" x="77.88" y="-543.5" font-family="Helvetica,sans-Serif" font-size="10.00">#</text>
<text text-anchor="start" x="87.5" y="-543.5" font-family="Helvetica,sans-Serif" font-size="10.00">_valid</text>
<text text-anchor="start" x="77.88" y="-527.5" font-family="Helvetica,sans-Serif" font-size="10.00">#</text>
<text text-anchor="start" x="87.5" y="-527.5" font-family="Helvetica,sans-Serif" font-size="10.00">_transaction</text>
<text text-anchor="start" x="77.88" y="-511.5" font-family="Helvetica,sans-Serif" font-size="10.00">#</text>
<text text-anchor="start" x="87.5" y="-511.5" font-family="Helvetica,sans-Serif" font-size="10.00">_errors</text>
<text text-anchor="start" x="77.5" y="-495.5" font-family="Helvetica,sans-Serif" font-size="10.00">+</text>
<text text-anchor="start" x="87.5" y="-495.5" font-family="Helvetica,sans-Serif" font-size="10.00">Connection()</text>
<text text-anchor="start" x="77.5" y="-479.5" font-family="Helvetica,sans-Serif" font-size="10.00">+</text>
<text text-anchor="start" x="87.5" y="-479.5" font-family="Helvetica,sans-Serif" font-size="10.00">Connection()</text>
<text text-anchor="start" x="77.5" y="-463.5" font-family="Helvetica,sans-Serif" font-size="10.00">+</text>
<text text-anchor="start" x="87.5" y="-463.5" font-family="Helvetica,sans-Serif" font-size="10.00">~Connection()</text>
<text text-anchor="start" x="77.5" y="-447.5" font-family="Helvetica,sans-Serif" font-size="10.00">+</text>
<text text-anchor="start" x="87.5" y="-447.5" font-family="Helvetica,sans-Serif" font-size="10.00">startTransaction()</text>
<text text-anchor="start" x="77.5" y="-431.5" font-family="Helvetica,sans-Serif" font-size="10.00">+</text>
<text text-anchor="start" x="87.5" y="-431.5" font-family="Helvetica,sans-Serif" font-size="10.00">begin()</text>
<text text-anchor="start" x="77.5" y="-415.5" font-family="Helvetica,sans-Serif" font-size="10.00">+</text>
<text text-anchor="start" x="87.5" y="-415.5" font-family="Helvetica,sans-Serif" font-size="10.00">commit()</text>
<text text-anchor="start" x="77.5" y="-399.5" font-family="Helvetica,sans-Serif" font-size="10.00">+</text>
<text text-anchor="start" x="87.5" y="-399.5" font-family="Helvetica,sans-Serif" font-size="10.00">rollback()</text>
<text text-anchor="start" x="77.5" y="-383.5" font-family="Helvetica,sans-Serif" font-size="10.00">+</text>
<text text-anchor="start" x="87.5" y="-383.5" font-family="Helvetica,sans-Serif" font-size="10.00">release()</text>
<text text-anchor="start" x="77.5" y="-367.5" font-family="Helvetica,sans-Serif" font-size="10.00">+</text>
<text text-anchor="start" x="87.5" y="-367.5" font-family="Helvetica,sans-Serif" font-size="10.00">prepareStatement()</text>
<text text-anchor="start" x="77.5" y="-351.5" font-family="Helvetica,sans-Serif" font-size="10.00">+</text>
<text text-anchor="start" x="87.5" y="-351.5" font-family="Helvetica,sans-Serif" font-size="10.00">query()</text>
<text text-anchor="start" x="87.5" y="-335.5" font-family="Helvetica,sans-Serif" font-size="10.00">and 9 more...</text>
<text text-anchor="start" x="77.88" y="-319.5" font-family="Helvetica,sans-Serif" font-size="10.00">#</text>
<text text-anchor="start" x="87.5" y="-319.5" font-family="Helvetica,sans-Serif" font-size="10.00">executeQuery()</text>
<text text-anchor="start" x="77.88" y="-303.5" font-family="Helvetica,sans-Serif" font-size="10.00">#</text>
<text text-anchor="start" x="87.5" y="-303.5" font-family="Helvetica,sans-Serif" font-size="10.00">executeUpdate()</text>
<text text-anchor="start" x="77.88" y="-287.5" font-family="Helvetica,sans-Serif" font-size="10.00">#</text>
<text text-anchor="start" x="87.5" y="-287.5" font-family="Helvetica,sans-Serif" font-size="10.00">sendStartTransaction()</text>
<text text-anchor="start" x="77.88" y="-271.5" font-family="Helvetica,sans-Serif" font-size="10.00">#</text>
<text text-anchor="start" x="87.5" y="-271.5" font-family="Helvetica,sans-Serif" font-size="10.00">sendCommit()</text>
<text text-anchor="start" x="77.88" y="-255.5" font-family="Helvetica,sans-Serif" font-size="10.00">#</text>
<text text-anchor="start" x="87.5" y="-255.5" font-family="Helvetica,sans-Serif" font-size="10.00">sendRollback()</text>
<text text-anchor="start" x="77.88" y="-239.5" font-family="Helvetica,sans-Serif" font-size="10.00">#</text>
<text text-anchor="start" x="87.5" y="-239.5" font-family="Helvetica,sans-Serif" font-size="10.00">makePrepared()</text>
<text text-anchor="start" x="77.88" y="-223.5" font-family="Helvetica,sans-Serif" font-size="10.00">#</text>
<text text-anchor="start" x="87.5" y="-223.5" font-family="Helvetica,sans-Serif" font-size="10.00">setValid()</text>
<polygon fill="#666666" stroke="#666666" points="73.5,-555 73.5,-555 190.5,-555 190.5,-555 73.5,-555"/>
<polygon fill="#666666" stroke="#666666" points="73.5,-507 73.5,-507 85.5,-507 85.5,-507 73.5,-507"/>
<polygon fill="#666666" stroke="#666666" points="85.5,-507 85.5,-507 190.5,-507 190.5,-507 85.5,-507"/>
<polygon fill="none" stroke="#666666" points="73.5,-217 73.5,-573 190.5,-573 190.5,-217 73.5,-217"/>
</a>
</g>
</g>
<!-- Node2&#45;&gt;Node1 -->
<g id="edge1_Node000001_Node000002" class="edge">
<title>Node2&#45;&gt;Node1</title>
<g id="a_edge1_Node000001_Node000002"><a xlink:title=" ">
<path fill="none" stroke="#63b8ff" d="M132,-205.93C132,-197.02 132,-188.29 132,-179.87"/>
<polygon fill="none" stroke="#63b8ff" points="128.5,-205.79 132,-215.79 135.5,-205.79 128.5,-205.79"/>
</a>
</g>
</g>
<!-- Node3 -->
<g id="Node000003" class="node">
<title>Node3</title>
<g id="a_Node000003"><a xlink:title=" ">
<polygon fill="white" stroke="none" points="211,-685 53,-685 53,-621 211,-621 211,-685"/>
<text text-anchor="start" x="57.75" y="-671.5" font-family="Helvetica,sans-Serif" font-size="10.00">std::map&lt; std::string,</text>
<text text-anchor="start" x="57.75" y="-659.5" font-family="Helvetica,sans-Serif" font-size="10.00"> anch::sql::PreparedStatement * &gt;</text>
<text text-anchor="start" x="130.5" y="-643.5" font-family="Helvetica,sans-Serif" font-size="10.00"> </text>
<text text-anchor="start" x="130.5" y="-627.5" font-family="Helvetica,sans-Serif" font-size="10.00"> </text>
<polygon fill="#666666" stroke="#666666" points="53,-655 53,-655 211,-655 211,-655 53,-655"/>
<polygon fill="#666666" stroke="#666666" points="53,-639 53,-639 211,-639 211,-639 53,-639"/>
<polygon fill="none" stroke="#666666" points="53,-621 53,-685 211,-685 211,-621 53,-621"/>
</a>
</g>
</g>
<!-- Node3&#45;&gt;Node2 -->
<g id="edge2_Node000002_Node000003" class="edge">
<title>Node3&#45;&gt;Node2</title>
<g id="a_edge2_Node000002_Node000003"><a xlink:title=" ">
<path fill="none" stroke="#63b8ff" d="M132,-621.12C132,-611.04 132,-599.02 132,-585.84"/>
<polygon fill="none" stroke="#63b8ff" points="132,-585.78 128,-579.78 132,-573.78 136,-579.78 132,-585.78"/>
</a>
</g>
<text text-anchor="middle" x="151.12" y="-593.5" font-family="Helvetica,sans-Serif" font-size="10.00" fill="grey"> #_stmts</text>
</g>
<!-- Node4 -->
<g id="Node000004" class="node">
<title>Node4</title>
<g id="a_Node000004"><a xlink:title=" ">
<polygon fill="white" stroke="none" points="199.5,-1277 146.5,-1277 146.5,-1225 199.5,-1225 199.5,-1277"/>
<text text-anchor="start" x="151.25" y="-1263.5" font-family="Helvetica,sans-Serif" font-size="10.00">std::string</text>
<text text-anchor="start" x="171.5" y="-1247.5" font-family="Helvetica,sans-Serif" font-size="10.00"> </text>
<text text-anchor="start" x="171.5" y="-1231.5" font-family="Helvetica,sans-Serif" font-size="10.00"> </text>
<polygon fill="#666666" stroke="#666666" points="146.5,-1259 146.5,-1259 199.5,-1259 199.5,-1259 146.5,-1259"/>
<polygon fill="#666666" stroke="#666666" points="146.5,-1243 146.5,-1243 199.5,-1243 199.5,-1243 146.5,-1243"/>
<polygon fill="none" stroke="#666666" points="146.5,-1225 146.5,-1277 199.5,-1277 199.5,-1225 146.5,-1225"/>
</a>
</g>
</g>
<!-- Node4&#45;&gt;Node3 -->
<g id="edge3_Node000003_Node000004" class="edge">
<title>Node4&#45;&gt;Node3</title>
<g id="a_edge3_Node000003_Node000004"><a xlink:title=" ">
<path fill="none" stroke="#63b8ff" d="M199.21,-1230.28C205.97,-1223.7 212.36,-1215.78 216,-1207 220.08,-1197.15 216.06,-1193.67 216,-1183 214.89,-982.99 281.95,-920.01 211,-733 205.46,-718.41 195.6,-705.18 184.68,-693.91"/>
<polygon fill="none" stroke="#63b8ff" points="184.63,-693.86 177.53,-692.58 175.98,-685.53 183.08,-686.81 184.63,-693.86"/>
</a>
</g>
<text text-anchor="middle" x="239.04" y="-1067.5" font-family="Helvetica,sans-Serif" font-size="10.00" fill="grey"> +keys</text>
</g>
<!-- Node7 -->
<g id="Node000007" class="node">
<title>Node7</title>
<g id="a_Node000007"><a xlink:title=" ">
<polygon fill="white" stroke="none" points="202,-1165 108,-1165 108,-1101 202,-1101 202,-1165"/>
<text text-anchor="start" x="112.62" y="-1151.5" font-family="Helvetica,sans-Serif" font-size="10.00">std::map&lt; std::size</text>
<text text-anchor="start" x="121.62" y="-1139.5" font-family="Helvetica,sans-Serif" font-size="10.00">_t, std::string &gt;</text>
<text text-anchor="start" x="125.5" y="-1123.5" font-family="Helvetica,sans-Serif" font-size="10.00">+</text>
<text text-anchor="start" x="149" y="-1123.5" font-family="Helvetica,sans-Serif" font-size="10.00">keys</text>
<text text-anchor="start" x="153.5" y="-1107.5" font-family="Helvetica,sans-Serif" font-size="10.00"> </text>
<polygon fill="#666666" stroke="#666666" points="108,-1135 108,-1135 202,-1135 202,-1135 108,-1135"/>
<polygon fill="#666666" stroke="#666666" points="108,-1119 108,-1119 147,-1119 147,-1119 108,-1119"/>
<polygon fill="#666666" stroke="#666666" points="147,-1119 147,-1119 202,-1119 202,-1119 147,-1119"/>
<polygon fill="none" stroke="#666666" points="108,-1101 108,-1165 202,-1165 202,-1101 108,-1101"/>
</a>
</g>
</g>
<!-- Node4&#45;&gt;Node7 -->
<g id="edge7_Node000007_Node000004" class="edge">
<title>Node4&#45;&gt;Node7</title>
<g id="a_edge7_Node000007_Node000004"><a xlink:title=" ">
<path fill="none" stroke="#63b8ff" d="M169.14,-1225.12C166.97,-1211.14 164.2,-1193.31 161.69,-1177.14"/>
<polygon fill="none" stroke="#63b8ff" points="161.73,-1177.37 156.86,-1172.06 159.89,-1165.52 164.76,-1170.83 161.73,-1177.37"/>
</a>
</g>
<text text-anchor="middle" x="190.52" y="-1191.5" font-family="Helvetica,sans-Serif" font-size="10.00" fill="grey"> +elements</text>
</g>
<!-- Node5 -->
<g id="Node000005" class="node">
<title>Node5</title>
<g id="a_Node000005"><a xlink:title=" ">
<polygon fill="white" stroke="none" points="217,-1389 129,-1389 129,-1325 217,-1325 217,-1389"/>
<text text-anchor="start" x="134" y="-1375.5" font-family="Helvetica,sans-Serif" font-size="10.00">std::basic_string&lt;</text>
<text text-anchor="start" x="156.5" y="-1363.5" font-family="Helvetica,sans-Serif" font-size="10.00"> Char &gt;</text>
<text text-anchor="start" x="171.5" y="-1347.5" font-family="Helvetica,sans-Serif" font-size="10.00"> </text>
<text text-anchor="start" x="171.5" y="-1331.5" font-family="Helvetica,sans-Serif" font-size="10.00"> </text>
<polygon fill="#666666" stroke="#666666" points="129,-1359 129,-1359 217,-1359 217,-1359 129,-1359"/>
<polygon fill="#666666" stroke="#666666" points="129,-1343 129,-1343 217,-1343 217,-1343 129,-1343"/>
<polygon fill="none" stroke="#666666" points="129,-1325 129,-1389 217,-1389 217,-1325 129,-1325"/>
</a>
</g>
</g>
<!-- Node5&#45;&gt;Node4 -->
<g id="edge4_Node000004_Node000005" class="edge">
<title>Node5&#45;&gt;Node4</title>
<g id="a_edge4_Node000004_Node000005"><a xlink:title=" ">
<path fill="none" stroke="#63b8ff" d="M173,-1313.81C173,-1301.21 173,-1287.8 173,-1276.71"/>
<polygon fill="none" stroke="#63b8ff" points="169.5,-1313.56 173,-1323.56 176.5,-1313.56 169.5,-1313.56"/>
</a>
</g>
</g>
<!-- Node6 -->
<g id="Node000006" class="node">
<title>Node6</title>
<g id="a_Node000006"><a xlink:href="classanch_1_1sql_1_1_prepared_statement.html" target="_top" xlink:title="SQL prepared statement.">
<polygon fill="white" stroke="none" points="201.5,-1041 62.5,-1041 62.5,-733 201.5,-733 201.5,-1041"/>
<text text-anchor="start" x="67.12" y="-1027.5" font-family="Helvetica,sans-Serif" font-size="10.00">anch::sql::PreparedStatement</text>
<text text-anchor="start" x="72.88" y="-1011.5" font-family="Helvetica,sans-Serif" font-size="10.00">#</text>
<text text-anchor="start" x="88.5" y="-1011.5" font-family="Helvetica,sans-Serif" font-size="10.00">_nbPlaceholders</text>
<text text-anchor="start" x="72.5" y="-995.5" font-family="Helvetica,sans-Serif" font-size="10.00">+</text>
<text text-anchor="start" x="88.5" y="-995.5" font-family="Helvetica,sans-Serif" font-size="10.00">PreparedStatement()</text>
<text text-anchor="start" x="72.5" y="-979.5" font-family="Helvetica,sans-Serif" font-size="10.00">+</text>
<text text-anchor="start" x="88.5" y="-979.5" font-family="Helvetica,sans-Serif" font-size="10.00">~PreparedStatement()</text>
<text text-anchor="start" x="72.5" y="-963.5" font-family="Helvetica,sans-Serif" font-size="10.00">+</text>
<text text-anchor="start" x="88.5" y="-963.5" font-family="Helvetica,sans-Serif" font-size="10.00">executeQuery()</text>
<text text-anchor="start" x="72.5" y="-947.5" font-family="Helvetica,sans-Serif" font-size="10.00">+</text>
<text text-anchor="start" x="88.5" y="-947.5" font-family="Helvetica,sans-Serif" font-size="10.00">executeUpdate()</text>
<text text-anchor="start" x="72.5" y="-931.5" font-family="Helvetica,sans-Serif" font-size="10.00">+</text>
<text text-anchor="start" x="88.5" y="-931.5" font-family="Helvetica,sans-Serif" font-size="10.00">set()</text>
<text text-anchor="start" x="72.5" y="-915.5" font-family="Helvetica,sans-Serif" font-size="10.00">+</text>
<text text-anchor="start" x="88.5" y="-915.5" font-family="Helvetica,sans-Serif" font-size="10.00">set()</text>
<text text-anchor="start" x="72.5" y="-899.5" font-family="Helvetica,sans-Serif" font-size="10.00">+</text>
<text text-anchor="start" x="88.5" y="-899.5" font-family="Helvetica,sans-Serif" font-size="10.00">set()</text>
<text text-anchor="start" x="72.5" y="-883.5" font-family="Helvetica,sans-Serif" font-size="10.00">+</text>
<text text-anchor="start" x="88.5" y="-883.5" font-family="Helvetica,sans-Serif" font-size="10.00">set()</text>
<text text-anchor="start" x="72.5" y="-867.5" font-family="Helvetica,sans-Serif" font-size="10.00">+</text>
<text text-anchor="start" x="88.5" y="-867.5" font-family="Helvetica,sans-Serif" font-size="10.00">set()</text>
<text text-anchor="start" x="72.5" y="-851.5" font-family="Helvetica,sans-Serif" font-size="10.00">+</text>
<text text-anchor="start" x="88.5" y="-851.5" font-family="Helvetica,sans-Serif" font-size="10.00">set()</text>
<text text-anchor="start" x="72.5" y="-835.5" font-family="Helvetica,sans-Serif" font-size="10.00">+</text>
<text text-anchor="start" x="88.5" y="-835.5" font-family="Helvetica,sans-Serif" font-size="10.00">set()</text>
<text text-anchor="start" x="72.5" y="-819.5" font-family="Helvetica,sans-Serif" font-size="10.00">+</text>
<text text-anchor="start" x="88.5" y="-819.5" font-family="Helvetica,sans-Serif" font-size="10.00">set()</text>
<text text-anchor="start" x="72.5" y="-803.5" font-family="Helvetica,sans-Serif" font-size="10.00">+</text>
<text text-anchor="start" x="88.5" y="-803.5" font-family="Helvetica,sans-Serif" font-size="10.00">set()</text>
<text text-anchor="start" x="72.5" y="-787.5" font-family="Helvetica,sans-Serif" font-size="10.00">+</text>
<text text-anchor="start" x="88.5" y="-787.5" font-family="Helvetica,sans-Serif" font-size="10.00">set()</text>
<text text-anchor="start" x="72.5" y="-771.5" font-family="Helvetica,sans-Serif" font-size="10.00">+</text>
<text text-anchor="start" x="88.5" y="-771.5" font-family="Helvetica,sans-Serif" font-size="10.00">set()</text>
<text text-anchor="start" x="72.88" y="-755.5" font-family="Helvetica,sans-Serif" font-size="10.00">#</text>
<text text-anchor="start" x="88.5" y="-755.5" font-family="Helvetica,sans-Serif" font-size="10.00">getPlaceholders()</text>
<text text-anchor="start" x="72.88" y="-739.5" font-family="Helvetica,sans-Serif" font-size="10.00">#</text>
<text text-anchor="start" x="88.5" y="-739.5" font-family="Helvetica,sans-Serif" font-size="10.00">checkIndex()</text>
<polygon fill="#666666" stroke="#666666" points="62.5,-1023 62.5,-1023 201.5,-1023 201.5,-1023 62.5,-1023"/>
<polygon fill="#666666" stroke="#666666" points="62.5,-1007 62.5,-1007 86.5,-1007 86.5,-1007 62.5,-1007"/>
<polygon fill="#666666" stroke="#666666" points="86.5,-1007 86.5,-1007 201.5,-1007 201.5,-1007 86.5,-1007"/>
<polygon fill="none" stroke="#666666" points="62.5,-733 62.5,-1041 201.5,-1041 201.5,-733 62.5,-733"/>
</a>
</g>
</g>
<!-- Node6&#45;&gt;Node3 -->
<g id="edge5_Node000003_Node000006" class="edge">
<title>Node6&#45;&gt;Node3</title>
<g id="a_edge5_Node000003_Node000006"><a xlink:title=" ">
<path fill="none" stroke="#63b8ff" d="M132,-733.19C132,-720.43 132,-708.32 132,-697.6"/>
<polygon fill="none" stroke="#63b8ff" points="132,-697.7 128,-691.7 132,-685.7 136,-691.7 132,-697.7"/>
</a>
</g>
<text text-anchor="middle" x="156.38" y="-705.5" font-family="Helvetica,sans-Serif" font-size="10.00" fill="grey"> +elements</text>
</g>
<!-- Node7&#45;&gt;Node6 -->
<g id="edge6_Node000006_Node000007" class="edge">
<title>Node7&#45;&gt;Node6</title>
<g id="a_edge6_Node000006_Node000007"><a xlink:title=" ">
<path fill="none" stroke="#63b8ff" d="M152.09,-1101.1C150.85,-1087.98 149.31,-1071.6 147.63,-1053.78"/>
<polygon fill="none" stroke="#63b8ff" points="147.62,-1053.76 143.08,-1048.16 146.5,-1041.81 151.04,-1047.41 147.62,-1053.76"/>
</a>
</g>
<text text-anchor="middle" x="171.03" y="-1067.5" font-family="Helvetica,sans-Serif" font-size="10.00" fill="grey"> #_values</text>
</g>
<!-- Node8 -->
<g id="Node000008" class="node">
<title>Node8</title>
<g id="a_Node000008"><a xlink:title=" ">
<polygon fill="white" stroke="none" points="84,-1277 0,-1277 0,-1225 84,-1225 84,-1277"/>
<text text-anchor="start" x="4.88" y="-1263.5" font-family="Helvetica,sans-Serif" font-size="10.00">std::map&lt; K, T &gt;</text>
<text text-anchor="start" x="40.5" y="-1247.5" font-family="Helvetica,sans-Serif" font-size="10.00"> </text>
<text text-anchor="start" x="40.5" y="-1231.5" font-family="Helvetica,sans-Serif" font-size="10.00"> </text>
<polygon fill="#666666" stroke="#666666" points="0,-1259 0,-1259 84,-1259 84,-1259 0,-1259"/>
<polygon fill="#666666" stroke="#666666" points="0,-1243 0,-1243 84,-1243 84,-1243 0,-1243"/>
<polygon fill="none" stroke="#666666" points="0,-1225 0,-1277 84,-1277 84,-1225 0,-1225"/>
</a>
</g>
</g>
<!-- Node8&#45;&gt;Node3 -->
<g id="edge11_Node000003_Node000008" class="edge">
<title>Node8&#45;&gt;Node3</title>
<g id="a_edge11_Node000003_Node000008"><a xlink:title=" ">
<path fill="none" stroke="orange" d="M33.2,-1214.07C13.74,-1126.6 -25.33,-897.72 53,-733 61.75,-714.61 76.61,-698.01 91.1,-684.83"/>
<polygon fill="orange" stroke="orange" points="29.77,-1214.77 35.41,-1223.74 36.6,-1213.21 29.77,-1214.77"/>
</a>
</g>
<text text-anchor="start" x="11.41" y="-1073.5" font-family="Helvetica,sans-Serif" font-size="10.00" fill="grey"> &lt; std::string, anch</text>
<text text-anchor="middle" x="73.66" y="-1061.5" font-family="Helvetica,sans-Serif" font-size="10.00" fill="grey">::sql::PreparedStatement * &gt;</text>
</g>
<!-- Node8&#45;&gt;Node7 -->
<g id="edge8_Node000007_Node000008" class="edge">
<title>Node8&#45;&gt;Node7</title>
<g id="a_edge8_Node000007_Node000008"><a xlink:title=" ">
<path fill="none" stroke="orange" d="M58.62,-1215.41C64.92,-1204.32 72.78,-1192.47 81.75,-1183 89.54,-1174.78 98.94,-1167.22 108.38,-1160.62"/>
<polygon fill="orange" stroke="orange" points="55.67,-1213.49 53.99,-1223.95 61.83,-1216.82 55.67,-1213.49"/>
</a>
</g>
<text text-anchor="start" x="81.75" y="-1197.5" font-family="Helvetica,sans-Serif" font-size="10.00" fill="grey"> &lt; std::size_t, std</text>
<text text-anchor="middle" x="120.38" y="-1185.5" font-family="Helvetica,sans-Serif" font-size="10.00" fill="grey">::string &gt;</text>
</g>
<!-- Node9 -->
<g id="Node000009" class="node">
<title>Node9</title>
<g id="a_Node000009"><a xlink:title=" ">
<polygon fill="white" stroke="none" points="41,-1383 25,-1383 25,-1331 41,-1331 41,-1383"/>
<text text-anchor="start" x="29.62" y="-1369.5" font-family="Helvetica,sans-Serif" font-size="10.00">K</text>
<text text-anchor="start" x="31.5" y="-1353.5" font-family="Helvetica,sans-Serif" font-size="10.00"> </text>
<text text-anchor="start" x="31.5" y="-1337.5" font-family="Helvetica,sans-Serif" font-size="10.00"> </text>
<polygon fill="#bfbfbf" stroke="#bfbfbf" points="25,-1365 25,-1365 41,-1365 41,-1365 25,-1365"/>
<polygon fill="#bfbfbf" stroke="#bfbfbf" points="25,-1349 25,-1349 41,-1349 41,-1349 25,-1349"/>
<polygon fill="none" stroke="#bfbfbf" points="25,-1331 25,-1383 41,-1383 41,-1331 25,-1331"/>
</a>
</g>
</g>
<!-- Node9&#45;&gt;Node8 -->
<g id="edge9_Node000008_Node000009" class="edge">
<title>Node9&#45;&gt;Node8</title>
<g id="a_edge9_Node000008_Node000009"><a xlink:title=" ">
<path fill="none" stroke="#63b8ff" d="M32.47,-1331.01C32.47,-1319.95 32.81,-1306.8 34,-1295 34.18,-1293.25 34.39,-1291.47 34.62,-1289.67"/>
<polygon fill="none" stroke="#63b8ff" points="34.62,-1289.65 31.61,-1283.1 36.49,-1277.8 39.51,-1284.35 34.62,-1289.65"/>
</a>
</g>
<text text-anchor="middle" x="49" y="-1297.5" font-family="Helvetica,sans-Serif" font-size="10.00" fill="grey"> +keys</text>
</g>
<!-- Node10 -->
<g id="Node000010" class="node">
<title>Node10</title>
<g id="a_Node000010"><a xlink:title=" ">
<polygon fill="white" stroke="none" points="94,-1383 78,-1383 78,-1331 94,-1331 94,-1383"/>
<text text-anchor="start" x="83" y="-1369.5" font-family="Helvetica,sans-Serif" font-size="10.00">T</text>
<text text-anchor="start" x="84.5" y="-1353.5" font-family="Helvetica,sans-Serif" font-size="10.00"> </text>
<text text-anchor="start" x="84.5" y="-1337.5" font-family="Helvetica,sans-Serif" font-size="10.00"> </text>
<polygon fill="#bfbfbf" stroke="#bfbfbf" points="78,-1365 78,-1365 94,-1365 94,-1365 78,-1365"/>
<polygon fill="#bfbfbf" stroke="#bfbfbf" points="78,-1349 78,-1349 94,-1349 94,-1349 78,-1349"/>
<polygon fill="none" stroke="#bfbfbf" points="78,-1331 78,-1383 94,-1383 94,-1331 78,-1331"/>
</a>
</g>
</g>
<!-- Node10&#45;&gt;Node8 -->
<g id="edge10_Node000008_Node000010" class="edge">
<title>Node10&#45;&gt;Node8</title>
<g id="a_edge10_Node000008_Node000010"><a xlink:title=" ">
<path fill="none" stroke="#63b8ff" d="M78.02,-1331.68C74.12,-1320.39 69.15,-1306.88 64,-1295 63.06,-1292.84 62.07,-1290.64 61.04,-1288.44"/>
<polygon fill="none" stroke="#63b8ff" points="61,-1288.35 54.77,-1284.71 55.74,-1277.56 61.96,-1281.2 61,-1288.35"/>
</a>
</g>
<text text-anchor="middle" x="93.11" y="-1297.5" font-family="Helvetica,sans-Serif" font-size="10.00" fill="grey"> +elements</text>
</g>
</g>
</svg>
