<?xml version="1.0" encoding="UTF-8" standalone="no"?>
<!DOCTYPE svg PUBLIC "-//W3C//DTD SVG 1.1//EN"
 "http://www.w3.org/Graphics/SVG/1.1/DTD/svg11.dtd">
<!-- Generated by graphviz version 12.2.1 (0)
 -->
<!-- Title: anch::device::CPU Pages: 1 -->
<svg width="123pt" height="377pt"
 viewBox="0.00 0.00 123.25 377.00" xmlns="http://www.w3.org/2000/svg" xmlns:xlink="http://www.w3.org/1999/xlink">
<g id="graph0" class="graph" transform="scale(1 1) rotate(0) translate(4 373)">
<title>anch::device::CPU</title>
<!-- Node1 -->
<g id="Node000001" class="node">
<title>Node1</title>
<g id="a_Node000001"><a xlink:title="CPU features detection.">
<polygon fill="#999999" stroke="none" points="103.25,-180 12,-180 12,0 103.25,0 103.25,-180"/>
<text text-anchor="start" x="16" y="-166.5" font-family="Helvetica,sans-Serif" font-size="10.00">anch::device::CPU</text>
<text text-anchor="start" x="56.12" y="-150.5" font-family="Helvetica,sans-Serif" font-size="10.00"> </text>
<text text-anchor="start" x="21.94" y="-134.5" font-family="Helvetica,sans-Serif" font-size="10.00">+</text>
<text text-anchor="start" x="37.88" y="-134.5" font-family="Helvetica,sans-Serif" font-size="10.00">isAES()</text>
<text text-anchor="start" x="21.94" y="-118.5" font-family="Helvetica,sans-Serif" font-size="10.00">+</text>
<text text-anchor="start" x="37.88" y="-118.5" font-family="Helvetica,sans-Serif" font-size="10.00">isMMX()</text>
<text text-anchor="start" x="21.94" y="-102.5" font-family="Helvetica,sans-Serif" font-size="10.00">+</text>
<text text-anchor="start" x="37.88" y="-102.5" font-family="Helvetica,sans-Serif" font-size="10.00">isSSE()</text>
<text text-anchor="start" x="21.94" y="-86.5" font-family="Helvetica,sans-Serif" font-size="10.00">+</text>
<text text-anchor="start" x="37.88" y="-86.5" font-family="Helvetica,sans-Serif" font-size="10.00">isSSE2()</text>
<text text-anchor="start" x="21.94" y="-70.5" font-family="Helvetica,sans-Serif" font-size="10.00">+</text>
<text text-anchor="start" x="37.88" y="-70.5" font-family="Helvetica,sans-Serif" font-size="10.00">isSSE3()</text>
<text text-anchor="start" x="21.94" y="-54.5" font-family="Helvetica,sans-Serif" font-size="10.00">+</text>
<text text-anchor="start" x="37.88" y="-54.5" font-family="Helvetica,sans-Serif" font-size="10.00">isSSSE3()</text>
<text text-anchor="start" x="21.94" y="-38.5" font-family="Helvetica,sans-Serif" font-size="10.00">+</text>
<text text-anchor="start" x="37.88" y="-38.5" font-family="Helvetica,sans-Serif" font-size="10.00">isSSE4()</text>
<text text-anchor="start" x="21.94" y="-22.5" font-family="Helvetica,sans-Serif" font-size="10.00">+</text>
<text text-anchor="start" x="37.88" y="-22.5" font-family="Helvetica,sans-Serif" font-size="10.00">isSSE4_1()</text>
<text text-anchor="start" x="21.94" y="-6.5" font-family="Helvetica,sans-Serif" font-size="10.00">+</text>
<text text-anchor="start" x="37.88" y="-6.5" font-family="Helvetica,sans-Serif" font-size="10.00">isSSE4_2()</text>
<polygon fill="#666666" stroke="#666666" points="12,-162 12,-162 103.25,-162 103.25,-162 12,-162"/>
<polygon fill="#666666" stroke="#666666" points="12,-146 12,-146 103.25,-146 103.25,-146 12,-146"/>
<polygon fill="none" stroke="#666666" points="12,0 12,-180 103.25,-180 103.25,0 12,0"/>
</a>
</g>
</g>
<!-- Node2 -->
<g id="Node000002" class="node">
<title>Node2</title>
<g id="a_Node000002"><a xlink:href="classanch_1_1_singleton.html" target="_top" xlink:title=" ">
<polygon fill="white" stroke="none" points="115.25,-269 0,-269 0,-217 115.25,-217 115.25,-269"/>
<text text-anchor="start" x="4" y="-255.5" font-family="Helvetica,sans-Serif" font-size="10.00">anch::Singleton&lt; CPU &gt;</text>
<text text-anchor="start" x="56.12" y="-239.5" font-family="Helvetica,sans-Serif" font-size="10.00"> </text>
<text text-anchor="start" x="14.06" y="-223.5" font-family="Helvetica,sans-Serif" font-size="10.00">+</text>
<text text-anchor="start" x="34.12" y="-223.5" font-family="Helvetica,sans-Serif" font-size="10.00">getInstance()</text>
<polygon fill="#666666" stroke="#666666" points="0,-251 0,-251 115.25,-251 115.25,-251 0,-251"/>
<polygon fill="#666666" stroke="#666666" points="0,-235 0,-235 115.25,-235 115.25,-235 0,-235"/>
<polygon fill="none" stroke="#666666" points="0,-217 0,-269 115.25,-269 115.25,-217 0,-217"/>
</a>
</g>
</g>
<!-- Node2&#45;&gt;Node1 -->
<g id="edge1_Node000001_Node000002" class="edge">
<title>Node2&#45;&gt;Node1</title>
<g id="a_edge1_Node000001_Node000002"><a xlink:title=" ">
<path fill="none" stroke="#63b8ff" d="M57.62,-205.67C57.62,-197.71 57.62,-188.95 57.62,-179.92"/>
<polygon fill="none" stroke="#63b8ff" points="54.13,-205.55 57.63,-215.55 61.13,-205.55 54.13,-205.55"/>
</a>
</g>
</g>
<!-- Node3 -->
<g id="Node000003" class="node">
<title>Node3</title>
<g id="a_Node000003"><a xlink:href="classanch_1_1_singleton.html" target="_top" xlink:title="Meyers&#39; singleton implementation.">
<polygon fill="white" stroke="none" points="107,-369 8.25,-369 8.25,-317 107,-317 107,-369"/>
<text text-anchor="start" x="12.25" y="-355.5" font-family="Helvetica,sans-Serif" font-size="10.00">anch::Singleton&lt; T &gt;</text>
<text text-anchor="start" x="56.12" y="-339.5" font-family="Helvetica,sans-Serif" font-size="10.00"> </text>
<text text-anchor="start" x="18.19" y="-323.5" font-family="Helvetica,sans-Serif" font-size="10.00">+</text>
<text text-anchor="start" x="34.12" y="-323.5" font-family="Helvetica,sans-Serif" font-size="10.00">getInstance()</text>
<polygon fill="#666666" stroke="#666666" points="8.25,-351 8.25,-351 107,-351 107,-351 8.25,-351"/>
<polygon fill="#666666" stroke="#666666" points="8.25,-335 8.25,-335 107,-335 107,-335 8.25,-335"/>
<polygon fill="none" stroke="#666666" points="8.25,-317 8.25,-369 107,-369 107,-317 8.25,-317"/>
</a>
</g>
</g>
<!-- Node3&#45;&gt;Node2 -->
<g id="edge2_Node000002_Node000003" class="edge">
<title>Node3&#45;&gt;Node2</title>
<g id="a_edge2_Node000002_Node000003"><a xlink:title=" ">
<path fill="none" stroke="orange" d="M57.62,-305.74C57.62,-293.49 57.62,-280.1 57.62,-268.94"/>
<polygon fill="orange" stroke="orange" points="54.13,-305.5 57.63,-315.5 61.13,-305.5 54.13,-305.5"/>
</a>
</g>
<text text-anchor="middle" x="79" y="-289.5" font-family="Helvetica,sans-Serif" font-size="10.00" fill="grey"> &lt; CPU &gt;</text>
</g>
</g>
</svg>
