<?xml version="1.0" encoding="UTF-8" standalone="no"?>
<!DOCTYPE svg PUBLIC "-//W3C//DTD SVG 1.1//EN"
 "http://www.w3.org/Graphics/SVG/1.1/DTD/svg11.dtd">
<!-- Generated by graphviz version 13.1.0 (0)
 -->
<!-- Title: anch::logger::formatter::MessageFormatter Pages: 1 -->
<svg width="120pt" height="104pt"
 viewBox="0.00 0.00 120.00 104.00" xmlns="http://www.w3.org/2000/svg" xmlns:xlink="http://www.w3.org/1999/xlink">
<g id="graph0" class="graph" transform="scale(1 1) rotate(0) translate(4 100)">
<title>anch::logger::formatter::MessageFormatter</title>
<!-- Node1 -->
<g id="Node000001" class="node">
<title>Node1</title>
<g id="a_Node000001"><a xlink:title=" ">
<polygon fill="#999999" stroke="none" points="111.75,-96 0,-96 0,0 111.75,0 111.75,-96"/>
<text xml:space="preserve" text-anchor="start" x="6.75" y="-82.5" font-family="Helvetica,sans-Serif" font-size="10.00">anch::logger::formatter</text>
<text xml:space="preserve" text-anchor="start" x="12" y="-70.5" font-family="Helvetica,sans-Serif" font-size="10.00">::MessageFormatter</text>
<text xml:space="preserve" text-anchor="start" x="54.38" y="-54.5" font-family="Helvetica,sans-Serif" font-size="10.00"> </text>
<text xml:space="preserve" text-anchor="start" x="4" y="-38.5" font-family="Helvetica,sans-Serif" font-size="10.00">+</text>
<text xml:space="preserve" text-anchor="start" x="14" y="-38.5" font-family="Helvetica,sans-Serif" font-size="10.00">MessageFormatter()</text>
<text xml:space="preserve" text-anchor="start" x="4" y="-22.5" font-family="Helvetica,sans-Serif" font-size="10.00">+</text>
<text xml:space="preserve" text-anchor="start" x="14" y="-22.5" font-family="Helvetica,sans-Serif" font-size="10.00">~MessageFormatter()</text>
<text xml:space="preserve" text-anchor="start" x="4" y="-6.5" font-family="Helvetica,sans-Serif" font-size="10.00">+</text>
<text xml:space="preserve" text-anchor="start" x="14" y="-6.5" font-family="Helvetica,sans-Serif" font-size="10.00">formatMessage()</text>
<polygon fill="#666666" stroke="#666666" points="0,-66 0,-66 111.75,-66 111.75,-66 0,-66"/>
<polygon fill="#666666" stroke="#666666" points="0,-50 0,-50 111.75,-50 111.75,-50 0,-50"/>
<polygon fill="none" stroke="#666666" points="0,0 0,-96 111.75,-96 111.75,0 0,0"/>
</a>
</g>
</g>
</g>
</svg>
