<?xml version="1.0" encoding="UTF-8" standalone="no"?>
<!DOCTYPE svg PUBLIC "-//W3C//DTD SVG 1.1//EN"
 "http://www.w3.org/Graphics/SVG/1.1/DTD/svg11.dtd">
<!-- Generated by graphviz version 12.0.0 (0)
 -->
<!-- Title: anch::rest::GlobalMapperRegistry Pages: 1 -->
<svg width="384pt" height="327pt"
 viewBox="0.00 0.00 383.75 326.75" xmlns="http://www.w3.org/2000/svg" xmlns:xlink="http://www.w3.org/1999/xlink">
<g id="graph0" class="graph" transform="scale(1 1) rotate(0) translate(4 322.75)">
<title>anch::rest::GlobalMapperRegistry</title>
<!-- Node1 -->
<g id="Node000001" class="node">
<title>Node1</title>
<g id="a_Node000001"><a xlink:title=" ">
<polygon fill="#999999" stroke="none" points="148.5,-65 16.5,-65 16.5,0 148.5,0 148.5,-65"/>
<text text-anchor="start" x="21.38" y="-51.5" font-family="Helvetica,sans-Serif" font-size="10.00">anch::rest::GlobalMapper</text>
<text text-anchor="start" x="62.25" y="-38.75" font-family="Helvetica,sans-Serif" font-size="10.00">Registry</text>
<text text-anchor="start" x="81" y="-22.5" font-family="Helvetica,sans-Serif" font-size="10.00"> </text>
<text text-anchor="start" x="81" y="-6.5" font-family="Helvetica,sans-Serif" font-size="10.00"> </text>
<polygon fill="#666666" stroke="#666666" points="16.5,-34 16.5,-34 148.5,-34 148.5,-34 16.5,-34"/>
<polygon fill="#666666" stroke="#666666" points="16.5,-18 16.5,-18 148.5,-18 148.5,-18 16.5,-18"/>
<polygon fill="none" stroke="#666666" points="16.5,0 16.5,-65 148.5,-65 148.5,0 16.5,0"/>
</a>
</g>
</g>
<!-- Node2 -->
<g id="Node000002" class="node">
<title>Node2</title>
<g id="a_Node000002"><a xlink:href="classanch_1_1rest_1_1_mapper_registry.html" target="_top" xlink:title=" ">
<polygon fill="white" stroke="none" points="141,-218 0,-218 0,-102 141,-102 141,-218"/>
<text text-anchor="start" x="4.88" y="-204.5" font-family="Helvetica,sans-Serif" font-size="10.00">anch::rest::MapperRegistry</text>
<text text-anchor="start" x="69" y="-188.5" font-family="Helvetica,sans-Serif" font-size="10.00"> </text>
<text text-anchor="start" x="10.88" y="-172.5" font-family="Helvetica,sans-Serif" font-size="10.00">+</text>
<text text-anchor="start" x="30" y="-172.5" font-family="Helvetica,sans-Serif" font-size="10.00">MapperRegistry()</text>
<text text-anchor="start" x="10.88" y="-156.5" font-family="Helvetica,sans-Serif" font-size="10.00">+</text>
<text text-anchor="start" x="30" y="-156.5" font-family="Helvetica,sans-Serif" font-size="10.00">~MapperRegistry()</text>
<text text-anchor="start" x="10.88" y="-140.5" font-family="Helvetica,sans-Serif" font-size="10.00">+</text>
<text text-anchor="start" x="30" y="-140.5" font-family="Helvetica,sans-Serif" font-size="10.00">registerMapper()</text>
<text text-anchor="start" x="10.88" y="-124.5" font-family="Helvetica,sans-Serif" font-size="10.00">+</text>
<text text-anchor="start" x="30" y="-124.5" font-family="Helvetica,sans-Serif" font-size="10.00">serialize()</text>
<text text-anchor="start" x="10.88" y="-108.5" font-family="Helvetica,sans-Serif" font-size="10.00">+</text>
<text text-anchor="start" x="30" y="-108.5" font-family="Helvetica,sans-Serif" font-size="10.00">deserialize()</text>
<polygon fill="#666666" stroke="#666666" points="0,-200 0,-200 141,-200 141,-200 0,-200"/>
<polygon fill="#666666" stroke="#666666" points="0,-184 0,-184 141,-184 141,-184 0,-184"/>
<polygon fill="none" stroke="#666666" points="0,-102 0,-218 141,-218 141,-102 0,-102"/>
</a>
</g>
</g>
<!-- Node2&#45;&gt;Node1 -->
<g id="edge1_Node000001_Node000002" class="edge">
<title>Node2&#45;&gt;Node1</title>
<g id="a_edge1_Node000001_Node000002"><a xlink:title=" ">
<path fill="none" stroke="#63b8ff" d="M77.01,-90.96C77.88,-81.82 78.74,-72.84 79.51,-64.78"/>
<polygon fill="none" stroke="#63b8ff" points="73.55,-90.33 76.08,-100.62 80.52,-91 73.55,-90.33"/>
</a>
</g>
</g>
<!-- Node3 -->
<g id="Node000003" class="node">
<title>Node3</title>
<g id="a_Node000003"><a xlink:href="classanch_1_1_singleton.html" target="_top" xlink:title=" ">
<polygon fill="white" stroke="none" points="323.5,-192.5 159.5,-192.5 159.5,-127.5 323.5,-127.5 323.5,-192.5"/>
<text text-anchor="start" x="164.25" y="-179" font-family="Helvetica,sans-Serif" font-size="10.00">anch::Singleton&lt; GlobalMapper</text>
<text text-anchor="start" x="215.62" y="-166.25" font-family="Helvetica,sans-Serif" font-size="10.00">Registry &gt;</text>
<text text-anchor="start" x="240" y="-150" font-family="Helvetica,sans-Serif" font-size="10.00"> </text>
<text text-anchor="start" x="183.38" y="-134" font-family="Helvetica,sans-Serif" font-size="10.00">+</text>
<text text-anchor="start" x="215.5" y="-134" font-family="Helvetica,sans-Serif" font-size="10.00">getInstance()</text>
<polygon fill="#666666" stroke="#666666" points="159.5,-161.5 159.5,-161.5 323.5,-161.5 323.5,-161.5 159.5,-161.5"/>
<polygon fill="#666666" stroke="#666666" points="159.5,-145.5 159.5,-145.5 323.5,-145.5 323.5,-145.5 159.5,-145.5"/>
<polygon fill="none" stroke="#666666" points="159.5,-127.5 159.5,-192.5 323.5,-192.5 323.5,-127.5 159.5,-127.5"/>
</a>
</g>
</g>
<!-- Node3&#45;&gt;Node1 -->
<g id="edge2_Node000001_Node000003" class="edge">
<title>Node3&#45;&gt;Node1</title>
<g id="a_edge2_Node000001_Node000003"><a xlink:title=" ">
<path fill="none" stroke="#63b8ff" d="M193,-120.72C170.34,-102.83 143.7,-81.81 122.26,-64.88"/>
<polygon fill="none" stroke="#63b8ff" points="190.58,-123.27 200.6,-126.72 194.92,-117.77 190.58,-123.27"/>
</a>
</g>
</g>
<!-- Node4 -->
<g id="Node000004" class="node">
<title>Node4</title>
<g id="a_Node000004"><a xlink:href="classanch_1_1_singleton.html" target="_top" xlink:title="Meyers&#39; singleton implemtation.">
<polygon fill="white" stroke="none" points="298,-318.75 185,-318.75 185,-266.75 298,-266.75 298,-318.75"/>
<text text-anchor="start" x="189.75" y="-305.25" font-family="Helvetica,sans-Serif" font-size="10.00">anch::Singleton&lt; T &gt;</text>
<text text-anchor="start" x="240" y="-289.25" font-family="Helvetica,sans-Serif" font-size="10.00"> </text>
<text text-anchor="start" x="195.88" y="-273.25" font-family="Helvetica,sans-Serif" font-size="10.00">+</text>
<text text-anchor="start" x="215" y="-273.25" font-family="Helvetica,sans-Serif" font-size="10.00">getInstance()</text>
<polygon fill="#666666" stroke="#666666" points="185,-300.75 185,-300.75 298,-300.75 298,-300.75 185,-300.75"/>
<polygon fill="#666666" stroke="#666666" points="185,-284.75 185,-284.75 298,-284.75 298,-284.75 185,-284.75"/>
<polygon fill="none" stroke="#666666" points="185,-266.75 185,-318.75 298,-318.75 298,-266.75 185,-266.75"/>
</a>
</g>
</g>
<!-- Node4&#45;&gt;Node3 -->
<g id="edge3_Node000003_Node000004" class="edge">
<title>Node4&#45;&gt;Node3</title>
<g id="a_edge3_Node000003_Node000004"><a xlink:title=" ">
<path fill="none" stroke="orange" d="M241.5,-255.46C241.5,-235.61 241.5,-211.28 241.5,-192.28"/>
<polygon fill="orange" stroke="orange" points="238,-255.34 241.5,-265.34 245,-255.34 238,-255.34"/>
</a>
</g>
<text text-anchor="middle" x="308.62" y="-239.25" font-family="Helvetica,sans-Serif" font-size="10.00" fill="grey"> &lt; GlobalMapperRegistry &gt;</text>
</g>
</g>
</svg>
