<?xml version="1.0" encoding="UTF-8" standalone="no"?>
<!DOCTYPE svg PUBLIC "-//W3C//DTD SVG 1.1//EN"
 "http://www.w3.org/Graphics/SVG/1.1/DTD/svg11.dtd">
<!-- Generated by graphviz version 8.0.1 (0)
 -->
<!-- Title: anch::rest::EndPoint Pages: 1 -->
<svg width="133pt" height="398pt"
 viewBox="0.00 0.00 132.50 398.00" xmlns="http://www.w3.org/2000/svg" xmlns:xlink="http://www.w3.org/1999/xlink">
<g id="graph0" class="graph" transform="scale(1 1) rotate(0) translate(4 394)">
<title>anch::rest::EndPoint</title>
<!-- Node1 -->
<g id="node1" class="node">
<title>Node1</title>
<g id="a_node1"><a xlink:title="Router endpoint.">
<polygon fill="#999999" stroke="#666666" points="0,-0.5 0,-145.5 113,-145.5 113,-0.5 0,-0.5"/>
<text text-anchor="middle" x="56.5" y="-133.5" font-family="Helvetica,sans-Serif" font-size="10.00">anch::rest::EndPoint</text>
<polyline fill="none" stroke="#666666" points="0,-126.5 113,-126.5"/>
<text text-anchor="middle" x="56.5" y="-114.5" font-family="Helvetica,sans-Serif" font-size="10.00"> </text>
<polyline fill="none" stroke="#666666" points="0,-107.5 113,-107.5"/>
<text text-anchor="start" x="8" y="-95.5" font-family="Helvetica,sans-Serif" font-size="10.00">+ EndPoint()</text>
<text text-anchor="start" x="8" y="-84.5" font-family="Helvetica,sans-Serif" font-size="10.00">+ EndPoint()</text>
<text text-anchor="start" x="8" y="-73.5" font-family="Helvetica,sans-Serif" font-size="10.00">+ EndPoint()</text>
<text text-anchor="start" x="8" y="-62.5" font-family="Helvetica,sans-Serif" font-size="10.00">+ ~EndPoint()</text>
<text text-anchor="start" x="8" y="-51.5" font-family="Helvetica,sans-Serif" font-size="10.00">+ match()</text>
<text text-anchor="start" x="8" y="-40.5" font-family="Helvetica,sans-Serif" font-size="10.00">+ build()</text>
<text text-anchor="start" x="8" y="-29.5" font-family="Helvetica,sans-Serif" font-size="10.00">+ getPathPattern()</text>
<text text-anchor="start" x="8" y="-18.5" font-family="Helvetica,sans-Serif" font-size="10.00">+ setPathPattern()</text>
<text text-anchor="start" x="8" y="-7.5" font-family="Helvetica,sans-Serif" font-size="10.00">+ getPathRegex()</text>
</a>
</g>
</g>
<!-- Node2 -->
<g id="node2" class="node">
<title>Node2</title>
<g id="a_node2"><a xlink:title=" ">
<polygon fill="white" stroke="#666666" points="24,-226.5 24,-283.5 89,-283.5 89,-226.5 24,-226.5"/>
<text text-anchor="middle" x="56.5" y="-271.5" font-family="Helvetica,sans-Serif" font-size="10.00">std::string</text>
<polyline fill="none" stroke="#666666" points="24,-264.5 89,-264.5"/>
<text text-anchor="middle" x="56.5" y="-252.5" font-family="Helvetica,sans-Serif" font-size="10.00"> </text>
<polyline fill="none" stroke="#666666" points="24,-245.5 89,-245.5"/>
<text text-anchor="middle" x="56.5" y="-233.5" font-family="Helvetica,sans-Serif" font-size="10.00"> </text>
</a>
</g>
</g>
<!-- Node2&#45;&gt;Node1 -->
<g id="edge1" class="edge">
<title>Node2&#45;&gt;Node1</title>
<path fill="none" stroke="#404040" d="M56.5,-226.66C56.5,-208.24 56.5,-182.86 56.5,-158.08"/>
<polygon fill="none" stroke="#404040" points="56.5,-158.11 52.5,-152.11 56.5,-146.11 60.5,-152.11 56.5,-158.11"/>
<text text-anchor="middle" x="90.5" y="-200" font-family="Helvetica,sans-Serif" font-size="10.00"> +accept</text>
<text text-anchor="middle" x="90.5" y="-189" font-family="Helvetica,sans-Serif" font-size="10.00">+contentType</text>
<text text-anchor="middle" x="90.5" y="-178" font-family="Helvetica,sans-Serif" font-size="10.00">+pathPattern</text>
<text text-anchor="middle" x="90.5" y="-167" font-family="Helvetica,sans-Serif" font-size="10.00">+verb</text>
</g>
<!-- Node3 -->
<g id="node3" class="node">
<title>Node3</title>
<g id="a_node3"><a xlink:title=" ">
<polygon fill="white" stroke="#666666" points="4.5,-321.5 4.5,-389.5 108.5,-389.5 108.5,-321.5 4.5,-321.5"/>
<text text-anchor="start" x="12.5" y="-377.5" font-family="Helvetica,sans-Serif" font-size="10.00">std::basic_string&lt;</text>
<text text-anchor="middle" x="56.5" y="-366.5" font-family="Helvetica,sans-Serif" font-size="10.00"> Char &gt;</text>
<polyline fill="none" stroke="#666666" points="4.5,-359.5 108.5,-359.5"/>
<text text-anchor="middle" x="56.5" y="-347.5" font-family="Helvetica,sans-Serif" font-size="10.00"> </text>
<polyline fill="none" stroke="#666666" points="4.5,-340.5 108.5,-340.5"/>
<text text-anchor="middle" x="56.5" y="-328.5" font-family="Helvetica,sans-Serif" font-size="10.00"> </text>
</a>
</g>
</g>
<!-- Node3&#45;&gt;Node2 -->
<g id="edge2" class="edge">
<title>Node3&#45;&gt;Node2</title>
<path fill="none" stroke="#63b8ff" d="M56.5,-310.93C56.5,-301.57 56.5,-291.93 56.5,-283.4"/>
<polygon fill="none" stroke="#63b8ff" points="53,-310.7 56.5,-320.7 60,-310.7 53,-310.7"/>
</g>
</g>
</svg>
