<?xml version="1.0" encoding="UTF-8" standalone="no"?>
<!DOCTYPE svg PUBLIC "-//W3C//DTD SVG 1.1//EN"
 "http://www.w3.org/Graphics/SVG/1.1/DTD/svg11.dtd">
<!-- Generated by graphviz version 2.40.1 (20161225.0304)
 -->
<!-- Title: anch::sql::PreparedStatement Pages: 1 -->
<svg width="252pt" height="546pt"
 viewBox="0.00 0.00 252.00 546.00" xmlns="http://www.w3.org/2000/svg" xmlns:xlink="http://www.w3.org/1999/xlink">
<g id="graph0" class="graph" transform="scale(1 1) rotate(0) translate(4 542)">
<title>anch::sql::PreparedStatement</title>
<!-- Node4 -->
<g id="node1" class="node">
<title>Node4</title>
<polygon fill="#bfbfbf" stroke="#000000" points="21.5,-.5 21.5,-189.5 182.5,-189.5 182.5,-.5 21.5,-.5"/>
<text text-anchor="middle" x="102" y="-177.5" font-family="Helvetica,sans-Serif" font-size="10.00" fill="#000000">anch::sql::PreparedStatement</text>
<polyline fill="none" stroke="#000000" points="21.5,-170.5 182.5,-170.5 "/>
<text text-anchor="start" x="29.5" y="-158.5" font-family="Helvetica,sans-Serif" font-size="10.00" fill="#000000"># _nbPlaceholders</text>
<polyline fill="none" stroke="#000000" points="21.5,-151.5 182.5,-151.5 "/>
<text text-anchor="start" x="29.5" y="-139.5" font-family="Helvetica,sans-Serif" font-size="10.00" fill="#000000">+ PreparedStatement()</text>
<text text-anchor="start" x="29.5" y="-128.5" font-family="Helvetica,sans-Serif" font-size="10.00" fill="#000000">+ ~PreparedStatement()</text>
<text text-anchor="start" x="29.5" y="-117.5" font-family="Helvetica,sans-Serif" font-size="10.00" fill="#000000">+ executeQuery()</text>
<text text-anchor="start" x="29.5" y="-106.5" font-family="Helvetica,sans-Serif" font-size="10.00" fill="#000000">+ executeUpdate()</text>
<text text-anchor="start" x="29.5" y="-95.5" font-family="Helvetica,sans-Serif" font-size="10.00" fill="#000000">+ set()</text>
<text text-anchor="start" x="29.5" y="-84.5" font-family="Helvetica,sans-Serif" font-size="10.00" fill="#000000">+ set()</text>
<text text-anchor="start" x="29.5" y="-73.5" font-family="Helvetica,sans-Serif" font-size="10.00" fill="#000000">+ set()</text>
<text text-anchor="start" x="29.5" y="-62.5" font-family="Helvetica,sans-Serif" font-size="10.00" fill="#000000">+ set()</text>
<text text-anchor="start" x="29.5" y="-51.5" font-family="Helvetica,sans-Serif" font-size="10.00" fill="#000000">+ set()</text>
<text text-anchor="start" x="29.5" y="-40.5" font-family="Helvetica,sans-Serif" font-size="10.00" fill="#000000">+ set()</text>
<text text-anchor="start" x="29.5" y="-29.5" font-family="Helvetica,sans-Serif" font-size="10.00" fill="#000000">+ set()</text>
<text text-anchor="start" x="29.5" y="-18.5" font-family="Helvetica,sans-Serif" font-size="10.00" fill="#000000"># getPlaceholders()</text>
<text text-anchor="start" x="29.5" y="-7.5" font-family="Helvetica,sans-Serif" font-size="10.00" fill="#000000"># checkIndex()</text>
</g>
<!-- Node5 -->
<g id="node2" class="node">
<title>Node5</title>
<polygon fill="none" stroke="#bfbfbf" points="46.5,-237.5 46.5,-305.5 157.5,-305.5 157.5,-237.5 46.5,-237.5"/>
<text text-anchor="start" x="54.5" y="-293.5" font-family="Helvetica,sans-Serif" font-size="10.00" fill="#000000">std::map&lt; std::size</text>
<text text-anchor="middle" x="102" y="-282.5" font-family="Helvetica,sans-Serif" font-size="10.00" fill="#000000">_t, std::string &gt;</text>
<polyline fill="none" stroke="#bfbfbf" points="46.5,-275.5 157.5,-275.5 "/>
<text text-anchor="start" x="54.5" y="-263.5" font-family="Helvetica,sans-Serif" font-size="10.00" fill="#000000">+ keys</text>
<polyline fill="none" stroke="#bfbfbf" points="46.5,-256.5 157.5,-256.5 "/>
<text text-anchor="middle" x="102" y="-244.5" font-family="Helvetica,sans-Serif" font-size="10.00" fill="#000000"> </text>
</g>
<!-- Node5&#45;&gt;Node4 -->
<g id="edge1" class="edge">
<title>Node5&#45;&gt;Node4</title>
<path fill="none" stroke="#404040" d="M102,-237.469C102,-226.9931 102,-214.8528 102,-202.1653"/>
<polygon fill="none" stroke="#404040" points="102.0001,-201.8697 98,-195.8697 102,-189.8697 106,-195.8696 102.0001,-201.8697"/>
<text text-anchor="middle" x="126.5" y="-211" font-family="Helvetica,sans-Serif" font-size="10.00" fill="#000000"> #_values</text>
</g>
<!-- Node6 -->
<g id="node3" class="node">
<title>Node6</title>
<g id="a_node3"><a xlink:title="STL class. ">
<polygon fill="none" stroke="#bfbfbf" points="19.5,-364.5 19.5,-421.5 84.5,-421.5 84.5,-364.5 19.5,-364.5"/>
<text text-anchor="middle" x="52" y="-409.5" font-family="Helvetica,sans-Serif" font-size="10.00" fill="#000000">std::string</text>
<polyline fill="none" stroke="#bfbfbf" points="19.5,-402.5 84.5,-402.5 "/>
<text text-anchor="middle" x="52" y="-390.5" font-family="Helvetica,sans-Serif" font-size="10.00" fill="#000000"> </text>
<polyline fill="none" stroke="#bfbfbf" points="19.5,-383.5 84.5,-383.5 "/>
<text text-anchor="middle" x="52" y="-371.5" font-family="Helvetica,sans-Serif" font-size="10.00" fill="#000000"> </text>
</a>
</g>
</g>
<!-- Node6&#45;&gt;Node5 -->
<g id="edge2" class="edge">
<title>Node6&#45;&gt;Node5</title>
<path fill="none" stroke="#404040" d="M56.3192,-364.4375C58.819,-351.7347 62.5724,-336.7918 68,-324 69.1094,-321.3853 70.3471,-318.7569 71.6752,-316.1448"/>
<polygon fill="none" stroke="#404040" points="71.7192,-316.0653 71.1368,-308.8778 77.5474,-305.5757 78.1299,-312.7632 71.7192,-316.0653"/>
<text text-anchor="middle" x="97" y="-332.5" font-family="Helvetica,sans-Serif" font-size="10.00" fill="#000000"> +elements</text>
</g>
<!-- Node7 -->
<g id="node4" class="node">
<title>Node7</title>
<g id="a_node4"><a xlink:title="STL class. ">
<polygon fill="none" stroke="#bfbfbf" points="0,-469.5 0,-537.5 104,-537.5 104,-469.5 0,-469.5"/>
<text text-anchor="start" x="8" y="-525.5" font-family="Helvetica,sans-Serif" font-size="10.00" fill="#000000">std::basic_string&lt;</text>
<text text-anchor="middle" x="52" y="-514.5" font-family="Helvetica,sans-Serif" font-size="10.00" fill="#000000"> char &gt;</text>
<polyline fill="none" stroke="#bfbfbf" points="0,-507.5 104,-507.5 "/>
<text text-anchor="middle" x="52" y="-495.5" font-family="Helvetica,sans-Serif" font-size="10.00" fill="#000000"> </text>
<polyline fill="none" stroke="#bfbfbf" points="0,-488.5 104,-488.5 "/>
<text text-anchor="middle" x="52" y="-476.5" font-family="Helvetica,sans-Serif" font-size="10.00" fill="#000000"> </text>
</a>
</g>
</g>
<!-- Node7&#45;&gt;Node6 -->
<g id="edge3" class="edge">
<title>Node7&#45;&gt;Node6</title>
<path fill="none" stroke="#191970" d="M52,-459.0661C52,-446.4172 52,-432.9812 52,-421.5519"/>
<polygon fill="none" stroke="#191970" points="48.5001,-459.4447 52,-469.4447 55.5001,-459.4447 48.5001,-459.4447"/>
</g>
<!-- Node8 -->
<g id="node5" class="node">
<title>Node8</title>
<g id="a_node5"><a xlink:title="STL class. ">
<polygon fill="none" stroke="#bfbfbf" points="102.5,-364.5 102.5,-421.5 203.5,-421.5 203.5,-364.5 102.5,-364.5"/>
<text text-anchor="middle" x="153" y="-409.5" font-family="Helvetica,sans-Serif" font-size="10.00" fill="#000000">std::map&lt; K, T &gt;</text>
<polyline fill="none" stroke="#bfbfbf" points="102.5,-402.5 203.5,-402.5 "/>
<text text-anchor="middle" x="153" y="-390.5" font-family="Helvetica,sans-Serif" font-size="10.00" fill="#000000"> </text>
<polyline fill="none" stroke="#bfbfbf" points="102.5,-383.5 203.5,-383.5 "/>
<text text-anchor="middle" x="153" y="-371.5" font-family="Helvetica,sans-Serif" font-size="10.00" fill="#000000"> </text>
</a>
</g>
</g>
<!-- Node8&#45;&gt;Node5 -->
<g id="edge4" class="edge">
<title>Node8&#45;&gt;Node5</title>
<path fill="none" stroke="#ffa500" d="M138.5401,-354.9269C134.5852,-344.8279 130.2225,-333.9626 126,-324 123.458,-318.0023 120.6596,-311.6657 117.8989,-305.549"/>
<polygon fill="#ffa500" stroke="#ffa500" points="135.3055,-356.2662 142.1891,-364.3203 141.8305,-353.7315 135.3055,-356.2662"/>
<text text-anchor="start" x="135" y="-338" font-family="Helvetica,sans-Serif" font-size="10.00" fill="#000000"> &lt; std::size_t, std</text>
<text text-anchor="middle" x="177.5" y="-327" font-family="Helvetica,sans-Serif" font-size="10.00" fill="#000000">::string &gt;</text>
</g>
<!-- Node9 -->
<g id="node6" class="node">
<title>Node9</title>
<polygon fill="none" stroke="#bfbfbf" points="130.5,-475 130.5,-532 159.5,-532 159.5,-475 130.5,-475"/>
<text text-anchor="middle" x="145" y="-520" font-family="Helvetica,sans-Serif" font-size="10.00" fill="#000000">K</text>
<polyline fill="none" stroke="#bfbfbf" points="130.5,-513 159.5,-513 "/>
<text text-anchor="middle" x="145" y="-501" font-family="Helvetica,sans-Serif" font-size="10.00" fill="#000000"> </text>
<polyline fill="none" stroke="#bfbfbf" points="130.5,-494 159.5,-494 "/>
<text text-anchor="middle" x="145" y="-482" font-family="Helvetica,sans-Serif" font-size="10.00" fill="#000000"> </text>
</g>
<!-- Node9&#45;&gt;Node8 -->
<g id="edge5" class="edge">
<title>Node9&#45;&gt;Node8</title>
<path fill="none" stroke="#404040" d="M144.6503,-474.6952C144.729,-463.8085 145.0721,-451.3185 146,-440 146.1668,-437.965 146.3668,-435.8842 146.592,-433.7855"/>
<polygon fill="none" stroke="#404040" points="146.6065,-433.6697 143.3853,-427.218 148.1018,-421.7632 151.323,-428.2149 146.6065,-433.6697"/>
<text text-anchor="middle" x="163.5" y="-443" font-family="Helvetica,sans-Serif" font-size="10.00" fill="#000000"> +keys</text>
</g>
<!-- Node10 -->
<g id="node7" class="node">
<title>Node10</title>
<polygon fill="none" stroke="#bfbfbf" points="188.5,-475 188.5,-532 217.5,-532 217.5,-475 188.5,-475"/>
<text text-anchor="middle" x="203" y="-520" font-family="Helvetica,sans-Serif" font-size="10.00" fill="#000000">T</text>
<polyline fill="none" stroke="#bfbfbf" points="188.5,-513 217.5,-513 "/>
<text text-anchor="middle" x="203" y="-501" font-family="Helvetica,sans-Serif" font-size="10.00" fill="#000000"> </text>
<polyline fill="none" stroke="#bfbfbf" points="188.5,-494 217.5,-494 "/>
<text text-anchor="middle" x="203" y="-482" font-family="Helvetica,sans-Serif" font-size="10.00" fill="#000000"> </text>
</g>
<!-- Node10&#45;&gt;Node8 -->
<g id="edge6" class="edge">
<title>Node10&#45;&gt;Node8</title>
<path fill="none" stroke="#404040" d="M194.4601,-474.878C190.7964,-463.786 186.167,-451.1076 181,-440 179.8001,-437.4205 178.4976,-434.8012 177.1331,-432.1867"/>
<polygon fill="none" stroke="#404040" points="177.0773,-432.0856 170.6755,-428.7662 171.2773,-421.5803 177.6791,-424.8996 177.0773,-432.0856"/>
<text text-anchor="middle" x="215" y="-443" font-family="Helvetica,sans-Serif" font-size="10.00" fill="#000000"> +elements</text>
</g>
</g>
</svg>
