<?xml version="1.0" encoding="UTF-8" standalone="no"?>
<!DOCTYPE svg PUBLIC "-//W3C//DTD SVG 1.1//EN"
 "http://www.w3.org/Graphics/SVG/1.1/DTD/svg11.dtd">
<!-- Generated by graphviz version 7.0.4 (0)
 -->
<!-- Title: anch::sql::SQLSharedLibraries Pages: 1 -->
<svg width="213pt" height="281pt"
 viewBox="0.00 0.00 212.50 281.00" xmlns="http://www.w3.org/2000/svg" xmlns:xlink="http://www.w3.org/1999/xlink">
<g id="graph0" class="graph" transform="scale(1 1) rotate(0) translate(4 277)">
<title>anch::sql::SQLSharedLibraries</title>
<!-- Node1 -->
<g id="node1" class="node">
<title>Node1</title>
<g id="a_node1"><a xlink:title="SQL shared libraries manager.">
<polygon fill="#999999" stroke="#666666" points="167,-96 0,-96 0,0 167,0 167,-96"/>
<text text-anchor="middle" x="83.5" y="-84" font-family="Helvetica,sans-Serif" font-size="10.00">{anch::sql::SQLSharedLibraries</text>
<text text-anchor="start" x="8" y="-73" font-family="Helvetica,sans-Serif" font-size="10.00">||+ registerSQLLibrary()</text>
<text text-anchor="start" x="8" y="-62" font-family="Helvetica,sans-Serif" font-size="10.00">+ makeSharedConnection()</text>
<text text-anchor="start" x="8" y="-51" font-family="Helvetica,sans-Serif" font-size="10.00">+ makeConnection()</text>
<text text-anchor="start" x="8" y="-40" font-family="Helvetica,sans-Serif" font-size="10.00">+ registerMySQL()</text>
<text text-anchor="start" x="8" y="-29" font-family="Helvetica,sans-Serif" font-size="10.00">+ registerPostgreSQL()</text>
<text text-anchor="start" x="8" y="-18" font-family="Helvetica,sans-Serif" font-size="10.00">+ registerSQLite()</text>
<text text-anchor="middle" x="83.5" y="-7" font-family="Helvetica,sans-Serif" font-size="10.00">}</text>
</a>
</g>
</g>
<!-- Node2 -->
<g id="node2" class="node">
<title>Node2</title>
<g id="a_node2"><a xlink:href="classanch_1_1_singleton.html" target="_top" xlink:title=" ">
<polygon fill="white" stroke="#666666" points="164,-185 3,-185 3,-133 164,-133 164,-185"/>
<text text-anchor="start" x="11" y="-173" font-family="Helvetica,sans-Serif" font-size="10.00">{anch::Singleton&lt; SQLShared</text>
<text text-anchor="middle" x="83.5" y="-162" font-family="Helvetica,sans-Serif" font-size="10.00">Libraries &gt;</text>
<text text-anchor="start" x="11" y="-151" font-family="Helvetica,sans-Serif" font-size="10.00">||+ getInstance()</text>
<text text-anchor="middle" x="83.5" y="-140" font-family="Helvetica,sans-Serif" font-size="10.00">}</text>
</a>
</g>
</g>
<!-- Node2&#45;&gt;Node1 -->
<g id="edge1" class="edge">
<title>Node2&#45;&gt;Node1</title>
<path fill="none" stroke="#63b8ff" d="M83.5,-121.46C83.5,-113.43 83.5,-104.81 83.5,-96.41"/>
<polygon fill="none" stroke="#63b8ff" points="80,-121.21 83.5,-131.21 87,-121.21 80,-121.21"/>
</g>
<!-- Node3 -->
<g id="node3" class="node">
<title>Node3</title>
<g id="a_node3"><a xlink:href="classanch_1_1_singleton.html" target="_top" xlink:title="Meyers&#39; singleton implemtation.">
<polygon fill="white" stroke="#666666" points="146.5,-273 20.5,-273 20.5,-232 146.5,-232 146.5,-273"/>
<text text-anchor="middle" x="83.5" y="-261" font-family="Helvetica,sans-Serif" font-size="10.00">{anch::Singleton&lt; T &gt;</text>
<text text-anchor="start" x="28.5" y="-250" font-family="Helvetica,sans-Serif" font-size="10.00">||+ getInstance()</text>
<text text-anchor="middle" x="83.5" y="-239" font-family="Helvetica,sans-Serif" font-size="10.00">}</text>
</a>
</g>
</g>
<!-- Node3&#45;&gt;Node2 -->
<g id="edge2" class="edge">
<title>Node3&#45;&gt;Node2</title>
<path fill="none" stroke="orange" d="M83.5,-220.39C83.5,-208.99 83.5,-196.23 83.5,-185.39"/>
<polygon fill="orange" stroke="orange" points="80,-220.13 83.5,-230.13 87,-220.13 80,-220.13"/>
<text text-anchor="middle" x="144" y="-206" font-family="Helvetica,sans-Serif" font-size="10.00"> &lt; SQLSharedLibraries &gt;</text>
</g>
</g>
</svg>
