<?xml version="1.0" encoding="UTF-8" standalone="no"?>
<!DOCTYPE svg PUBLIC "-//W3C//DTD SVG 1.1//EN"
 "http://www.w3.org/Graphics/SVG/1.1/DTD/svg11.dtd">
<!-- Generated by graphviz version 12.0.0 (0)
 -->
<!-- Title: anch::logger::LowPriorityWriter Pages: 1 -->
<svg width="249pt" height="732pt"
 viewBox="0.00 0.00 249.00 731.75" xmlns="http://www.w3.org/2000/svg" xmlns:xlink="http://www.w3.org/1999/xlink">
<g id="graph0" class="graph" transform="scale(1 1) rotate(0) translate(4 727.75)">
<title>anch::logger::LowPriorityWriter</title>
<!-- Node1 -->
<g id="Node000001" class="node">
<title>Node1</title>
<g id="a_Node000001"><a xlink:title=" ">
<polygon fill="#999999" stroke="none" points="206.5,-129 76.5,-129 76.5,0 206.5,0 206.5,-129"/>
<text text-anchor="start" x="81.12" y="-115.5" font-family="Helvetica,sans-Serif" font-size="10.00">anch::logger::LowPriority</text>
<text text-anchor="start" x="126.5" y="-102.75" font-family="Helvetica,sans-Serif" font-size="10.00">Writer</text>
<text text-anchor="start" x="140" y="-86.5" font-family="Helvetica,sans-Serif" font-size="10.00"> </text>
<text text-anchor="start" x="82.88" y="-70.5" font-family="Helvetica,sans-Serif" font-size="10.00">+</text>
<text text-anchor="start" x="97.5" y="-70.5" font-family="Helvetica,sans-Serif" font-size="10.00">LowPriorityWriter()</text>
<text text-anchor="start" x="82.88" y="-54.5" font-family="Helvetica,sans-Serif" font-size="10.00">+</text>
<text text-anchor="start" x="97.5" y="-54.5" font-family="Helvetica,sans-Serif" font-size="10.00">LowPriorityWriter()</text>
<text text-anchor="start" x="82.88" y="-38.5" font-family="Helvetica,sans-Serif" font-size="10.00">+</text>
<text text-anchor="start" x="97.5" y="-38.5" font-family="Helvetica,sans-Serif" font-size="10.00">~LowPriorityWriter()</text>
<text text-anchor="start" x="82.88" y="-22.5" font-family="Helvetica,sans-Serif" font-size="10.00">+</text>
<text text-anchor="start" x="97.5" y="-22.5" font-family="Helvetica,sans-Serif" font-size="10.00">write()</text>
<text text-anchor="start" x="82.88" y="-6.5" font-family="Helvetica,sans-Serif" font-size="10.00">+</text>
<text text-anchor="start" x="97.5" y="-6.5" font-family="Helvetica,sans-Serif" font-size="10.00">startTreatment()</text>
<polygon fill="#666666" stroke="#666666" points="76.5,-98 76.5,-98 206.5,-98 206.5,-98 76.5,-98"/>
<polygon fill="#666666" stroke="#666666" points="76.5,-82 76.5,-82 206.5,-82 206.5,-82 76.5,-82"/>
<polygon fill="none" stroke="#666666" points="76.5,0 76.5,-129 206.5,-129 206.5,0 76.5,0"/>
</a>
</g>
</g>
<!-- Node2 -->
<g id="Node000002" class="node">
<title>Node2</title>
<g id="a_Node000002"><a xlink:href="classanch_1_1logger_1_1_writer.html" target="_top" xlink:title=" ">
<polygon fill="white" stroke="none" points="194.5,-298 88.5,-298 88.5,-166 194.5,-166 194.5,-298"/>
<text text-anchor="start" x="93.5" y="-284.5" font-family="Helvetica,sans-Serif" font-size="10.00">anch::logger::Writer</text>
<text text-anchor="start" x="140" y="-268.5" font-family="Helvetica,sans-Serif" font-size="10.00"> </text>
<text text-anchor="start" x="98.88" y="-252.5" font-family="Helvetica,sans-Serif" font-size="10.00">+</text>
<text text-anchor="start" x="117.5" y="-252.5" font-family="Helvetica,sans-Serif" font-size="10.00">Writer()</text>
<text text-anchor="start" x="98.88" y="-236.5" font-family="Helvetica,sans-Serif" font-size="10.00">+</text>
<text text-anchor="start" x="117.5" y="-236.5" font-family="Helvetica,sans-Serif" font-size="10.00">Writer()</text>
<text text-anchor="start" x="98.88" y="-220.5" font-family="Helvetica,sans-Serif" font-size="10.00">+</text>
<text text-anchor="start" x="117.5" y="-220.5" font-family="Helvetica,sans-Serif" font-size="10.00">~Writer()</text>
<text text-anchor="start" x="98.88" y="-204.5" font-family="Helvetica,sans-Serif" font-size="10.00">+</text>
<text text-anchor="start" x="117.5" y="-204.5" font-family="Helvetica,sans-Serif" font-size="10.00">write()</text>
<text text-anchor="start" x="98.88" y="-188.5" font-family="Helvetica,sans-Serif" font-size="10.00">#</text>
<text text-anchor="start" x="117.5" y="-188.5" font-family="Helvetica,sans-Serif" font-size="10.00">rotate()</text>
<text text-anchor="start" x="98.88" y="-172.5" font-family="Helvetica,sans-Serif" font-size="10.00">#</text>
<text text-anchor="start" x="117.5" y="-172.5" font-family="Helvetica,sans-Serif" font-size="10.00">rotateFiles()</text>
<polygon fill="#666666" stroke="#666666" points="88.5,-280 88.5,-280 194.5,-280 194.5,-280 88.5,-280"/>
<polygon fill="#666666" stroke="#666666" points="88.5,-264 88.5,-264 194.5,-264 194.5,-264 88.5,-264"/>
<polygon fill="none" stroke="#666666" points="88.5,-166 88.5,-298 194.5,-298 194.5,-166 88.5,-166"/>
</a>
</g>
</g>
<!-- Node2&#45;&gt;Node1 -->
<g id="edge1_Node000001_Node000002" class="edge">
<title>Node2&#45;&gt;Node1</title>
<g id="a_edge1_Node000001_Node000002"><a xlink:title=" ">
<path fill="none" stroke="#63b8ff" d="M141.5,-154.77C141.5,-146.11 141.5,-137.36 141.5,-128.89"/>
<polygon fill="none" stroke="#63b8ff" points="138,-154.55 141.5,-164.55 145,-154.55 138,-154.55"/>
</a>
</g>
</g>
<!-- Node3 -->
<g id="Node000003" class="node">
<title>Node3</title>
<g id="a_Node000003"><a xlink:title=" ">
<polygon fill="white" stroke="none" points="96,-421.25 25,-421.25 25,-369.25 96,-369.25 96,-421.25"/>
<text text-anchor="start" x="29.75" y="-407.75" font-family="Helvetica,sans-Serif" font-size="10.00">std::ostream</text>
<text text-anchor="start" x="59" y="-391.75" font-family="Helvetica,sans-Serif" font-size="10.00"> </text>
<text text-anchor="start" x="59" y="-375.75" font-family="Helvetica,sans-Serif" font-size="10.00"> </text>
<polygon fill="#666666" stroke="#666666" points="25,-403.25 25,-403.25 96,-403.25 96,-403.25 25,-403.25"/>
<polygon fill="#666666" stroke="#666666" points="25,-387.25 25,-387.25 96,-387.25 96,-387.25 25,-387.25"/>
<polygon fill="none" stroke="#666666" points="25,-369.25 25,-421.25 96,-421.25 96,-369.25 25,-369.25"/>
</a>
</g>
</g>
<!-- Node3&#45;&gt;Node2 -->
<g id="edge2_Node000002_Node000003" class="edge">
<title>Node3&#45;&gt;Node2</title>
<g id="a_edge2_Node000002_Node000003"><a xlink:title=" ">
<path fill="none" stroke="#63b8ff" d="M72.98,-369.41C81.1,-353.23 92.18,-331.18 103.06,-309.53"/>
<polygon fill="none" stroke="#63b8ff" points="103.09,-309.45 102.21,-302.3 108.48,-298.73 109.36,-305.89 103.09,-309.45"/>
</a>
</g>
<text text-anchor="middle" x="123.5" y="-319.25" font-family="Helvetica,sans-Serif" font-size="10.00" fill="grey"> #_output</text>
</g>
<!-- Node4 -->
<g id="Node000004" class="node">
<title>Node4</title>
<g id="a_Node000004"><a xlink:title=" ">
<polygon fill="white" stroke="none" points="111.5,-545.75 9.5,-545.75 9.5,-480.75 111.5,-480.75 111.5,-545.75"/>
<text text-anchor="start" x="14.38" y="-532.25" font-family="Helvetica,sans-Serif" font-size="10.00">std::basic_ostream</text>
<text text-anchor="start" x="38" y="-519.5" font-family="Helvetica,sans-Serif" font-size="10.00">&lt; Char &gt;</text>
<text text-anchor="start" x="59" y="-503.25" font-family="Helvetica,sans-Serif" font-size="10.00"> </text>
<text text-anchor="start" x="59" y="-487.25" font-family="Helvetica,sans-Serif" font-size="10.00"> </text>
<polygon fill="#666666" stroke="#666666" points="9.5,-514.75 9.5,-514.75 111.5,-514.75 111.5,-514.75 9.5,-514.75"/>
<polygon fill="#666666" stroke="#666666" points="9.5,-498.75 9.5,-498.75 111.5,-498.75 111.5,-498.75 9.5,-498.75"/>
<polygon fill="none" stroke="#666666" points="9.5,-480.75 9.5,-545.75 111.5,-545.75 111.5,-480.75 9.5,-480.75"/>
</a>
</g>
</g>
<!-- Node4&#45;&gt;Node3 -->
<g id="edge3_Node000003_Node000004" class="edge">
<title>Node4&#45;&gt;Node3</title>
<g id="a_edge3_Node000003_Node000004"><a xlink:title=" ">
<path fill="none" stroke="#63b8ff" d="M60.5,-469.39C60.5,-453.11 60.5,-435.11 60.5,-421.05"/>
<polygon fill="none" stroke="#63b8ff" points="57,-469.35 60.5,-479.35 64,-469.35 57,-469.35"/>
</a>
</g>
</g>
<!-- Node5 -->
<g id="Node000005" class="node">
<title>Node5</title>
<g id="a_Node000005"><a xlink:title=" ">
<polygon fill="white" stroke="none" points="121,-634.75 0,-634.75 0,-582.75 121,-582.75 121,-634.75"/>
<text text-anchor="start" x="5" y="-621.25" font-family="Helvetica,sans-Serif" font-size="10.00">std::basic_ios&lt; Char &gt;</text>
<text text-anchor="start" x="59" y="-605.25" font-family="Helvetica,sans-Serif" font-size="10.00"> </text>
<text text-anchor="start" x="59" y="-589.25" font-family="Helvetica,sans-Serif" font-size="10.00"> </text>
<polygon fill="#666666" stroke="#666666" points="0,-616.75 0,-616.75 121,-616.75 121,-616.75 0,-616.75"/>
<polygon fill="#666666" stroke="#666666" points="0,-600.75 0,-600.75 121,-600.75 121,-600.75 0,-600.75"/>
<polygon fill="none" stroke="#666666" points="0,-582.75 0,-634.75 121,-634.75 121,-582.75 0,-582.75"/>
</a>
</g>
</g>
<!-- Node5&#45;&gt;Node4 -->
<g id="edge4_Node000004_Node000005" class="edge">
<title>Node5&#45;&gt;Node4</title>
<g id="a_edge4_Node000004_Node000005"><a xlink:title=" ">
<path fill="none" stroke="#63b8ff" d="M60.5,-571.87C60.5,-563.25 60.5,-554.1 60.5,-545.7"/>
<polygon fill="none" stroke="#63b8ff" points="57,-571.67 60.5,-581.67 64,-571.67 57,-571.67"/>
</a>
</g>
</g>
<!-- Node6 -->
<g id="Node000006" class="node">
<title>Node6</title>
<g id="a_Node000006"><a xlink:title=" ">
<polygon fill="white" stroke="none" points="97,-723.75 24,-723.75 24,-671.75 97,-671.75 97,-723.75"/>
<text text-anchor="start" x="28.62" y="-710.25" font-family="Helvetica,sans-Serif" font-size="10.00">std::ios_base</text>
<text text-anchor="start" x="59" y="-694.25" font-family="Helvetica,sans-Serif" font-size="10.00"> </text>
<text text-anchor="start" x="59" y="-678.25" font-family="Helvetica,sans-Serif" font-size="10.00"> </text>
<polygon fill="#666666" stroke="#666666" points="24,-705.75 24,-705.75 97,-705.75 97,-705.75 24,-705.75"/>
<polygon fill="#666666" stroke="#666666" points="24,-689.75 24,-689.75 97,-689.75 97,-689.75 24,-689.75"/>
<polygon fill="none" stroke="#666666" points="24,-671.75 24,-723.75 97,-723.75 97,-671.75 24,-671.75"/>
</a>
</g>
</g>
<!-- Node6&#45;&gt;Node5 -->
<g id="edge5_Node000005_Node000006" class="edge">
<title>Node6&#45;&gt;Node5</title>
<g id="a_edge5_Node000005_Node000006"><a xlink:title=" ">
<path fill="none" stroke="#63b8ff" d="M60.5,-660.8C60.5,-651.96 60.5,-642.69 60.5,-634.51"/>
<polygon fill="none" stroke="#63b8ff" points="57,-660.54 60.5,-670.54 64,-660.54 57,-660.54"/>
</a>
</g>
</g>
<!-- Node7 -->
<g id="Node000007" class="node">
<title>Node7</title>
<g id="a_Node000007"><a xlink:href="classanch_1_1logger_1_1formatter_1_1_message_formatter.html" target="_top" xlink:title=" ">
<polygon fill="white" stroke="none" points="241,-443.75 114,-443.75 114,-346.75 241,-346.75 241,-443.75"/>
<text text-anchor="start" x="121.25" y="-430.25" font-family="Helvetica,sans-Serif" font-size="10.00">anch::logger::formatter</text>
<text text-anchor="start" x="128.75" y="-417.5" font-family="Helvetica,sans-Serif" font-size="10.00">::MessageFormatter</text>
<text text-anchor="start" x="176" y="-401.25" font-family="Helvetica,sans-Serif" font-size="10.00"> </text>
<text text-anchor="start" x="117.88" y="-385.25" font-family="Helvetica,sans-Serif" font-size="10.00">+</text>
<text text-anchor="start" x="130" y="-385.25" font-family="Helvetica,sans-Serif" font-size="10.00">MessageFormatter()</text>
<text text-anchor="start" x="117.88" y="-369.25" font-family="Helvetica,sans-Serif" font-size="10.00">+</text>
<text text-anchor="start" x="130" y="-369.25" font-family="Helvetica,sans-Serif" font-size="10.00">~MessageFormatter()</text>
<text text-anchor="start" x="117.88" y="-353.25" font-family="Helvetica,sans-Serif" font-size="10.00">+</text>
<text text-anchor="start" x="130" y="-353.25" font-family="Helvetica,sans-Serif" font-size="10.00">formatMessage()</text>
<polygon fill="#666666" stroke="#666666" points="114,-412.75 114,-412.75 241,-412.75 241,-412.75 114,-412.75"/>
<polygon fill="#666666" stroke="#666666" points="114,-396.75 114,-396.75 241,-396.75 241,-396.75 114,-396.75"/>
<polygon fill="none" stroke="#666666" points="114,-346.75 114,-443.75 241,-443.75 241,-346.75 114,-346.75"/>
</a>
</g>
</g>
<!-- Node7&#45;&gt;Node2 -->
<g id="edge6_Node000002_Node000007" class="edge">
<title>Node7&#45;&gt;Node2</title>
<g id="a_edge6_Node000002_Node000007"><a xlink:title=" ">
<path fill="none" stroke="#63b8ff" d="M166.99,-347.18C164.41,-335.6 161.57,-322.91 158.76,-310.32"/>
<polygon fill="none" stroke="#63b8ff" points="158.78,-310.4 153.57,-305.42 156.17,-298.69 161.38,-303.68 158.78,-310.4"/>
</a>
</g>
<text text-anchor="middle" x="194" y="-319.25" font-family="Helvetica,sans-Serif" font-size="10.00" fill="grey"> #_formatter</text>
</g>
</g>
</svg>
