<?xml version="1.0" encoding="UTF-8" standalone="no"?>
<!DOCTYPE svg PUBLIC "-//W3C//DTD SVG 1.1//EN"
 "http://www.w3.org/Graphics/SVG/1.1/DTD/svg11.dtd">
<!-- Generated by graphviz version 14.1.3 (0)
 -->
<!-- Title: anch::conf::Resolvers Pages: 1 -->
<svg width="146pt" height="351pt"
 viewBox="0.00 0.00 146.00 351.00" xmlns="http://www.w3.org/2000/svg" xmlns:xlink="http://www.w3.org/1999/xlink">
<g id="graph0" class="graph" transform="scale(1 1) rotate(0) translate(4 347)">
<title>anch::conf::Resolvers</title>
<!-- Node1 -->
<g id="Node000001" class="node">
<title>Node1</title>
<g id="a_Node000001"><a xlink:title="Value resolvers&#39; registry.">
<polygon fill="#999999" stroke="none" points="120.88,-148 16.88,-148 16.88,0 120.88,0 120.88,-148"/>
<text xml:space="preserve" text-anchor="start" x="20.88" y="-134.25" font-family="Helvetica,sans-Serif" font-size="10.00">anch::conf::Resolvers</text>
<text xml:space="preserve" text-anchor="start" x="23.06" y="-118.25" font-family="Helvetica,sans-Serif" font-size="10.00">+</text>
<text xml:space="preserve" text-anchor="start" x="35.25" y="-118.25" font-family="Helvetica,sans-Serif" font-size="10.00">ENV</text>
<text xml:space="preserve" text-anchor="start" x="23.06" y="-102.25" font-family="Helvetica,sans-Serif" font-size="10.00">+</text>
<text xml:space="preserve" text-anchor="start" x="35.25" y="-102.25" font-family="Helvetica,sans-Serif" font-size="10.00">CONF</text>
<text xml:space="preserve" text-anchor="start" x="23.06" y="-86.25" font-family="Helvetica,sans-Serif" font-size="10.00">+</text>
<text xml:space="preserve" text-anchor="start" x="35.25" y="-86.25" font-family="Helvetica,sans-Serif" font-size="10.00">ARG</text>
<text xml:space="preserve" text-anchor="start" x="23.06" y="-70.25" font-family="Helvetica,sans-Serif" font-size="10.00">+</text>
<text xml:space="preserve" text-anchor="start" x="35.25" y="-70.25" font-family="Helvetica,sans-Serif" font-size="10.00">Resolvers()</text>
<text xml:space="preserve" text-anchor="start" x="23.06" y="-54.25" font-family="Helvetica,sans-Serif" font-size="10.00">+</text>
<text xml:space="preserve" text-anchor="start" x="35.25" y="-54.25" font-family="Helvetica,sans-Serif" font-size="10.00">Resolvers()</text>
<text xml:space="preserve" text-anchor="start" x="23.06" y="-38.25" font-family="Helvetica,sans-Serif" font-size="10.00">+</text>
<text xml:space="preserve" text-anchor="start" x="35.25" y="-38.25" font-family="Helvetica,sans-Serif" font-size="10.00">registerResolver()</text>
<text xml:space="preserve" text-anchor="start" x="23.06" y="-22.25" font-family="Helvetica,sans-Serif" font-size="10.00">+</text>
<text xml:space="preserve" text-anchor="start" x="35.25" y="-22.25" font-family="Helvetica,sans-Serif" font-size="10.00">getResolver()</text>
<text xml:space="preserve" text-anchor="start" x="23.06" y="-6.25" font-family="Helvetica,sans-Serif" font-size="10.00">+</text>
<text xml:space="preserve" text-anchor="start" x="35.25" y="-6.25" font-family="Helvetica,sans-Serif" font-size="10.00">hasResolver()</text>
<polygon fill="#666666" stroke="#666666" points="16.88,-130 16.88,-130 120.88,-130 120.88,-130 16.88,-130"/>
<polygon fill="#666666" stroke="#666666" points="16.88,-82 16.88,-82 33.25,-82 33.25,-82 16.88,-82"/>
<polygon fill="#666666" stroke="#666666" points="33.25,-82 33.25,-82 120.88,-82 120.88,-82 33.25,-82"/>
<polygon fill="none" stroke="#666666" points="16.88,0 16.88,-148 120.88,-148 120.88,0 16.88,0"/>
</a>
</g>
</g>
<!-- Node2 -->
<g id="Node000002" class="node">
<title>Node2</title>
<g id="a_Node000002"><a xlink:href="classanch_1_1_singleton.html" target="_top" xlink:title=" ">
<polygon fill="white" stroke="none" points="137.75,-237 0,-237 0,-185 137.75,-185 137.75,-237"/>
<text xml:space="preserve" text-anchor="start" x="4" y="-223.25" font-family="Helvetica,sans-Serif" font-size="10.00">anch::Singleton&lt; Resolvers &gt;</text>
<text xml:space="preserve" text-anchor="start" x="67.38" y="-207.25" font-family="Helvetica,sans-Serif" font-size="10.00"> </text>
<text xml:space="preserve" text-anchor="start" x="19.69" y="-191.25" font-family="Helvetica,sans-Serif" font-size="10.00">+</text>
<text xml:space="preserve" text-anchor="start" x="45.38" y="-191.25" font-family="Helvetica,sans-Serif" font-size="10.00">getInstance()</text>
<polygon fill="#666666" stroke="#666666" points="0,-219 0,-219 137.75,-219 137.75,-219 0,-219"/>
<polygon fill="#666666" stroke="#666666" points="0,-203 0,-203 137.75,-203 137.75,-203 0,-203"/>
<polygon fill="none" stroke="#666666" points="0,-185 0,-237 137.75,-237 137.75,-185 0,-185"/>
</a>
</g>
</g>
<!-- Node2&#45;&gt;Node1 -->
<g id="edge1_Node000001_Node000002" class="edge">
<title>Node2&#45;&gt;Node1</title>
<g id="a_edge1_Node000001_Node000002"><a xlink:title=" ">
<path fill="none" stroke="#63b8ff" d="M68.88,-173.96C68.88,-165.82 68.88,-156.9 68.88,-147.86"/>
<polygon fill="none" stroke="#63b8ff" points="65.38,-173.73 68.88,-183.73 72.38,-173.73 65.38,-173.73"/>
</a>
</g>
</g>
<!-- Node3 -->
<g id="Node000003" class="node">
<title>Node3</title>
<g id="a_Node000003"><a xlink:href="classanch_1_1_singleton.html" target="_top" xlink:title="Meyers&#39; singleton implementation.">
<polygon fill="white" stroke="none" points="118.25,-343 19.5,-343 19.5,-291 118.25,-291 118.25,-343"/>
<text xml:space="preserve" text-anchor="start" x="23.5" y="-329.25" font-family="Helvetica,sans-Serif" font-size="10.00">anch::Singleton&lt; T &gt;</text>
<text xml:space="preserve" text-anchor="start" x="67.38" y="-313.25" font-family="Helvetica,sans-Serif" font-size="10.00"> </text>
<text xml:space="preserve" text-anchor="start" x="29.44" y="-297.25" font-family="Helvetica,sans-Serif" font-size="10.00">+</text>
<text xml:space="preserve" text-anchor="start" x="45.38" y="-297.25" font-family="Helvetica,sans-Serif" font-size="10.00">getInstance()</text>
<polygon fill="#666666" stroke="#666666" points="19.5,-325 19.5,-325 118.25,-325 118.25,-325 19.5,-325"/>
<polygon fill="#666666" stroke="#666666" points="19.5,-309 19.5,-309 118.25,-309 118.25,-309 19.5,-309"/>
<polygon fill="none" stroke="#666666" points="19.5,-291 19.5,-343 118.25,-343 118.25,-291 19.5,-291"/>
</a>
</g>
</g>
<!-- Node3&#45;&gt;Node2 -->
<g id="edge2_Node000002_Node000003" class="edge">
<title>Node3&#45;&gt;Node2</title>
<g id="a_edge2_Node000002_Node000003"><a xlink:title=" ">
<path fill="none" stroke="orange" d="M68.88,-279.67C68.88,-265.46 68.88,-249.54 68.88,-236.71"/>
<polygon fill="orange" stroke="orange" points="65.38,-279.58 68.88,-289.58 72.38,-279.58 65.38,-279.58"/>
</a>
</g>
<text xml:space="preserve" text-anchor="start" x="71.88" y="-260.25" font-family="Helvetica,sans-Serif" font-size="10.00" fill="grey">&lt; Resolvers &gt;</text>
</g>
</g>
</svg>
