<?xml version="1.0" encoding="UTF-8" standalone="no"?>
<!DOCTYPE svg PUBLIC "-//W3C//DTD SVG 1.1//EN"
 "http://www.w3.org/Graphics/SVG/1.1/DTD/svg11.dtd">
<!-- Generated by graphviz version 14.0.4 (0)
 -->
<!-- Title: anch::json::ObjectMapper&lt; T &gt; Pages: 1 -->
<!--zoomable 583 -->

<svg id="main" version="1.1" xmlns="http://www.w3.org/2000/svg" xmlns:xlink="http://www.w3.org/1999/xlink" xml:space="preserve" onload="init(evt)">

<style type="text/css"><![CDATA[
.node, .edge {opacity: 0.7;}
.node.selected, .edge.selected {opacity: 1;}
.edge:hover path { stroke: red; }
.edge:hover polygon { stroke: red; fill: red; }
]]></style>

<defs>
  <circle id="rim" cx="0" cy="0" r="7"/>
  <circle id="rim2" cx="0" cy="0" r="3.5"/>
  <g id="zoomPlus">
    <use xlink:href="#rim" fill="#404040"><set attributeName="fill" to="#808080" begin="zoomplus.mouseover" end="zoomplus.mouseout"/></use>
    <path d="M-4,0h8M0,-4v8" fill="none" stroke="white" stroke-width="1.5" pointer-events="none"/>
  </g>
  <g id="zoomMin">
    <use xlink:href="#rim" fill="#404040"><set attributeName="fill" to="#808080" begin="zoomminus.mouseover" end="zoomminus.mouseout"/></use>
    <path d="M-4,0h8" fill="none" stroke="white" stroke-width="1.5" pointer-events="none"/>
  </g>
  <g id="arrowUp" transform="translate(30 24)">
    <use xlink:href="#rim"/>
    <path pointer-events="none" fill="none" stroke="white" stroke-width="1.5" d="M0,-3.0v7 M-2.5,-0.5L0,-3.0L2.5,-0.5"/>
  </g>
  <g id="arrowRight" transform="rotate(90) translate(36 -43)">
    <use xlink:href="#rim"/>
    <path pointer-events="none" fill="none" stroke="white" stroke-width="1.5" d="M0,-3.0v7 M-2.5,-0.5L0,-3.0L2.5,-0.5"/>
  </g>
  <g id="arrowDown" transform="rotate(180) translate(-30 -48)">
    <use xlink:href="#rim"/>
    <path pointer-events="none" fill="none" stroke="white" stroke-width="1.5" d="M0,-3.0v7 M-2.5,-0.5L0,-3.0L2.5,-0.5"/>
  </g>
  <g id="arrowLeft" transform="rotate(270) translate(-36 17)">
    <use xlink:href="#rim"/>
    <path pointer-events="none" fill="none" stroke="white" stroke-width="1.5" d="M0,-3.0v7 M-2.5,-0.5L0,-3.0L2.5,-0.5"/>
  </g>
  <g id="resetDef">
    <use xlink:href="#rim2" fill="#404040"><set attributeName="fill" to="#808080" begin="reset.mouseover" end="reset.mouseout"/></use>
  </g>
</defs>
<script type="application/ecmascript">
var viewWidth = 179;
var viewHeight = 583;
var sectionId = 'dynsection-1';
</script>
<script type="application/ecmascript" xlink:href="svg.min.js"/>
<svg id="graph" class="graph">
<g id="viewport">
<title>anch::json::ObjectMapper&lt; T &gt;</title>
<!-- Node1 -->
<g id="Node000001" class="node">
<title>Node1</title>
<g id="a_Node000001"><a xlink:title="JSON complex object mapper.">
<polygon fill="#999999" stroke="none" points="143,-100 0,-100 0,0 143,0 143,-100"/>
<text xml:space="preserve" text-anchor="start" x="4" y="-86.5" font-family="Helvetica,sans-Serif" font-size="10.00">anch::json::ObjectMapper&lt; T &gt;</text>
<text xml:space="preserve" text-anchor="start" x="70" y="-70.5" font-family="Helvetica,sans-Serif" font-size="10.00"> </text>
<text xml:space="preserve" text-anchor="start" x="16.12" y="-54.5" font-family="Helvetica,sans-Serif" font-size="10.00">+</text>
<text xml:space="preserve" text-anchor="start" x="38.25" y="-54.5" font-family="Helvetica,sans-Serif" font-size="10.00">ObjectMapper()</text>
<text xml:space="preserve" text-anchor="start" x="16.12" y="-38.5" font-family="Helvetica,sans-Serif" font-size="10.00">+</text>
<text xml:space="preserve" text-anchor="start" x="38.25" y="-38.5" font-family="Helvetica,sans-Serif" font-size="10.00">ObjectMapper()</text>
<text xml:space="preserve" text-anchor="start" x="16.12" y="-22.5" font-family="Helvetica,sans-Serif" font-size="10.00">+</text>
<text xml:space="preserve" text-anchor="start" x="38.25" y="-22.5" font-family="Helvetica,sans-Serif" font-size="10.00">serializeValue()</text>
<text xml:space="preserve" text-anchor="start" x="16.12" y="-6.5" font-family="Helvetica,sans-Serif" font-size="10.00">+</text>
<text xml:space="preserve" text-anchor="start" x="38.25" y="-6.5" font-family="Helvetica,sans-Serif" font-size="10.00">deserializeValue()</text>
<polygon fill="#666666" stroke="#666666" points="0,-82 0,-82 143,-82 143,-82 0,-82"/>
<polygon fill="#666666" stroke="#666666" points="0,-66 0,-66 143,-66 143,-66 0,-66"/>
<polygon fill="none" stroke="#666666" points="0,0 0,-100 143,-100 143,0 0,0"/>
</a>
</g>
</g>
<!-- Node2 -->
<g id="Node000002" class="node">
<title>Node2</title>
<g id="a_Node000002"><a xlink:href="classanch_1_1json_1_1_generic_mapper.html" target="_top" xlink:title=" ">
<polygon fill="white" stroke="none" points="134,-249 9,-249 9,-137 134,-137 134,-249"/>
<text xml:space="preserve" text-anchor="start" x="13" y="-235.5" font-family="Helvetica,sans-Serif" font-size="10.00">anch::json::GenericMapper</text>
<text xml:space="preserve" text-anchor="start" x="14.88" y="-223.5" font-family="Helvetica,sans-Serif" font-size="10.00">&lt; ObjectMapper&lt; T &gt;, T &gt;</text>
<text xml:space="preserve" text-anchor="start" x="70" y="-207.5" font-family="Helvetica,sans-Serif" font-size="10.00"> </text>
<text xml:space="preserve" text-anchor="start" x="20.25" y="-191.5" font-family="Helvetica,sans-Serif" font-size="10.00">+</text>
<text xml:space="preserve" text-anchor="start" x="37.5" y="-191.5" font-family="Helvetica,sans-Serif" font-size="10.00">serialize()</text>
<text xml:space="preserve" text-anchor="start" x="20.25" y="-175.5" font-family="Helvetica,sans-Serif" font-size="10.00">+</text>
<text xml:space="preserve" text-anchor="start" x="37.5" y="-175.5" font-family="Helvetica,sans-Serif" font-size="10.00">deserialize()</text>
<text xml:space="preserve" text-anchor="start" x="20.62" y="-159.5" font-family="Helvetica,sans-Serif" font-size="10.00">#</text>
<text xml:space="preserve" text-anchor="start" x="37.5" y="-159.5" font-family="Helvetica,sans-Serif" font-size="10.00">GenericMapper()</text>
<text xml:space="preserve" text-anchor="start" x="20.62" y="-143.5" font-family="Helvetica,sans-Serif" font-size="10.00">#</text>
<text xml:space="preserve" text-anchor="start" x="37.5" y="-143.5" font-family="Helvetica,sans-Serif" font-size="10.00">~GenericMapper()</text>
<polygon fill="#666666" stroke="#666666" points="9,-219 9,-219 134,-219 134,-219 9,-219"/>
<polygon fill="#666666" stroke="#666666" points="9,-203 9,-203 134,-203 134,-203 9,-203"/>
<polygon fill="none" stroke="#666666" points="9,-137 9,-249 134,-249 134,-137 9,-137"/>
</a>
</g>
</g>
<!-- Node2&#45;&gt;Node1 -->
<g id="edge1_Node000001_Node000002" class="edge">
<title>Node2&#45;&gt;Node1</title>
<g id="a_edge1_Node000001_Node000002"><a xlink:title=" ">
<path fill="none" stroke="#63b8ff" d="M71.5,-125.63C71.5,-116.85 71.5,-107.98 71.5,-99.57"/>
<polygon fill="none" stroke="#63b8ff" points="68,-125.57 71.5,-135.57 75,-125.57 68,-125.57"/>
</a>
</g>
</g>
<!-- Node3 -->
<g id="Node000003" class="node">
<title>Node3</title>
<g id="a_Node000003"><a xlink:href="classanch_1_1json_1_1_generic_mapper.html" target="_top" xlink:title="Generic mapper.">
<polygon fill="white" stroke="none" points="134,-575 9,-575 9,-319 134,-319 134,-575"/>
<text xml:space="preserve" text-anchor="start" x="13" y="-561.5" font-family="Helvetica,sans-Serif" font-size="10.00">anch::json::GenericMapper</text>
<text xml:space="preserve" text-anchor="start" x="52.75" y="-549.5" font-family="Helvetica,sans-Serif" font-size="10.00">&lt; M, T &gt;</text>
<text xml:space="preserve" text-anchor="start" x="70" y="-533.5" font-family="Helvetica,sans-Serif" font-size="10.00"> </text>
<text xml:space="preserve" text-anchor="start" x="20.25" y="-517.5" font-family="Helvetica,sans-Serif" font-size="10.00">+</text>
<text xml:space="preserve" text-anchor="start" x="37.5" y="-517.5" font-family="Helvetica,sans-Serif" font-size="10.00">GenericMapper()</text>
<text xml:space="preserve" text-anchor="start" x="20.25" y="-501.5" font-family="Helvetica,sans-Serif" font-size="10.00">+</text>
<text xml:space="preserve" text-anchor="start" x="37.5" y="-501.5" font-family="Helvetica,sans-Serif" font-size="10.00">GenericMapper()</text>
<text xml:space="preserve" text-anchor="start" x="20.25" y="-485.5" font-family="Helvetica,sans-Serif" font-size="10.00">+</text>
<text xml:space="preserve" text-anchor="start" x="37.5" y="-485.5" font-family="Helvetica,sans-Serif" font-size="10.00">serialize()</text>
<text xml:space="preserve" text-anchor="start" x="20.25" y="-469.5" font-family="Helvetica,sans-Serif" font-size="10.00">+</text>
<text xml:space="preserve" text-anchor="start" x="37.5" y="-469.5" font-family="Helvetica,sans-Serif" font-size="10.00">serialize()</text>
<text xml:space="preserve" text-anchor="start" x="20.25" y="-453.5" font-family="Helvetica,sans-Serif" font-size="10.00">+</text>
<text xml:space="preserve" text-anchor="start" x="37.5" y="-453.5" font-family="Helvetica,sans-Serif" font-size="10.00">serialize()</text>
<text xml:space="preserve" text-anchor="start" x="20.25" y="-437.5" font-family="Helvetica,sans-Serif" font-size="10.00">+</text>
<text xml:space="preserve" text-anchor="start" x="37.5" y="-437.5" font-family="Helvetica,sans-Serif" font-size="10.00">serialize()</text>
<text xml:space="preserve" text-anchor="start" x="20.25" y="-421.5" font-family="Helvetica,sans-Serif" font-size="10.00">+</text>
<text xml:space="preserve" text-anchor="start" x="37.5" y="-421.5" font-family="Helvetica,sans-Serif" font-size="10.00">serialize()</text>
<text xml:space="preserve" text-anchor="start" x="20.25" y="-405.5" font-family="Helvetica,sans-Serif" font-size="10.00">+</text>
<text xml:space="preserve" text-anchor="start" x="37.5" y="-405.5" font-family="Helvetica,sans-Serif" font-size="10.00">serialize()</text>
<text xml:space="preserve" text-anchor="start" x="20.25" y="-389.5" font-family="Helvetica,sans-Serif" font-size="10.00">+</text>
<text xml:space="preserve" text-anchor="start" x="37.5" y="-389.5" font-family="Helvetica,sans-Serif" font-size="10.00">serialize()</text>
<text xml:space="preserve" text-anchor="start" x="20.25" y="-373.5" font-family="Helvetica,sans-Serif" font-size="10.00">+</text>
<text xml:space="preserve" text-anchor="start" x="37.5" y="-373.5" font-family="Helvetica,sans-Serif" font-size="10.00">serialize()</text>
<text xml:space="preserve" text-anchor="start" x="37.5" y="-357.5" font-family="Helvetica,sans-Serif" font-size="10.00">and 17 more...</text>
<text xml:space="preserve" text-anchor="start" x="20.62" y="-341.5" font-family="Helvetica,sans-Serif" font-size="10.00">#</text>
<text xml:space="preserve" text-anchor="start" x="37.5" y="-341.5" font-family="Helvetica,sans-Serif" font-size="10.00">GenericMapper()</text>
<text xml:space="preserve" text-anchor="start" x="20.62" y="-325.5" font-family="Helvetica,sans-Serif" font-size="10.00">#</text>
<text xml:space="preserve" text-anchor="start" x="37.5" y="-325.5" font-family="Helvetica,sans-Serif" font-size="10.00">~GenericMapper()</text>
<polygon fill="#666666" stroke="#666666" points="9,-545 9,-545 134,-545 134,-545 9,-545"/>
<polygon fill="#666666" stroke="#666666" points="9,-529 9,-529 134,-529 134,-529 9,-529"/>
<polygon fill="none" stroke="#666666" points="9,-319 9,-575 134,-575 134,-319 9,-319"/>
</a>
</g>
</g>
<!-- Node3&#45;&gt;Node2 -->
<g id="edge2_Node000002_Node000003" class="edge">
<title>Node3&#45;&gt;Node2</title>
<g id="a_edge2_Node000002_Node000003"><a xlink:title=" ">
<path fill="none" stroke="orange" d="M71.5,-307.96C71.5,-287.06 71.5,-266.61 71.5,-248.93"/>
<polygon fill="orange" stroke="orange" points="68,-307.75 71.5,-317.75 75,-307.75 68,-307.75"/>
</a>
</g>
<text xml:space="preserve" text-anchor="start" x="74.5" y="-288.5" font-family="Helvetica,sans-Serif" font-size="10.00" fill="grey">&lt; ObjectMapper&lt; T &gt;</text>
<text xml:space="preserve" text-anchor="start" x="74.5" y="-272.5" font-family="Helvetica,sans-Serif" font-size="10.00" fill="grey">  , T &gt;</text>
</g>
</g>
</svg>

<g id="navigator" transform="translate(0 0)" fill="#404254">
  <rect fill="#f2f5e9" fill-opacity="0.5" stroke="#606060" stroke-width=".5" x="0" y="0" width="60" height="60"/>
  <use id="zoomplus" xlink:href="#zoomPlus" x="17" y="9" onmousedown="handleZoom(evt,'in')"/>
  <use id="zoomminus" xlink:href="#zoomMin" x="42" y="9" onmousedown="handleZoom(evt,'out')"/>
  <use id="reset" xlink:href="#resetDef" x="30" y="36" onmousedown="handleReset()"/>
   <use id="arrowup" xlink:href="#arrowUp" x="0" y="0" onmousedown="handlePan(0,-1)"/>
  <use id="arrowright" xlink:href="#arrowRight" x="0" y="0" onmousedown="handlePan(1,0)"/>
  <use id="arrowdown" xlink:href="#arrowDown" x="0" y="0" onmousedown="handlePan(0,1)"/>
  <use id="arrowleft" xlink:href="#arrowLeft" x="0" y="0" onmousedown="handlePan(-1,0)"/>
</g>
<svg viewBox="0 0 15 15" width="100%" height="30px" preserveAspectRatio="xMaxYMin meet">
 <g id="arrow_out" transform="scale(0.3 0.3)">
  <a xlink:href="classanch_1_1json_1_1_object_mapper__coll__graph_org.svg" target="_base">
   <rect id="button" ry="5" rx="5" y="6" x="6" height="38" width="38"
        fill="#f2f5e9" fill-opacity="0.5" stroke="#606060" stroke-width="1.0"/>
   <path id="arrow"
     d="M 11.500037,31.436501 C 11.940474,20.09759 22.043105,11.32322 32.158766,21.979434 L 37.068811,17.246167 C 37.068811,17.246167 37.088388,32 37.088388,32 L 22.160133,31.978069 C 22.160133,31.978069 26.997745,27.140456 26.997745,27.140456 C 18.528582,18.264221 13.291696,25.230495 11.500037,31.436501 z"
     style="fill:#404040;"/>
  </a>
 </g>
</svg>

<style type='text/css'>
<![CDATA[
[data-mouse-over-selected='false'] { opacity: 0.7; }
[data-mouse-over-selected='true']  { opacity: 1.0; }
]]>
</style>
<script type="application/ecmascript"><![CDATA[
document.addEventListener('DOMContentLoaded', (event) => {
  highlightEdges();
  highlightAdjacentNodes();
});
]]></script>
</svg>
