<?xml version="1.0" encoding="UTF-8" standalone="no"?>
<!DOCTYPE svg PUBLIC "-//W3C//DTD SVG 1.1//EN"
 "http://www.w3.org/Graphics/SVG/1.1/DTD/svg11.dtd">
<!-- Generated by graphviz version 12.1.1 (0)
 -->
<!-- Title: anch::network::SocketEvent Pages: 1 -->
<svg width="153pt" height="124pt"
 viewBox="0.00 0.00 153.00 124.00" xmlns="http://www.w3.org/2000/svg" xmlns:xlink="http://www.w3.org/1999/xlink">
<g id="graph0" class="graph" transform="scale(1 1) rotate(0) translate(4 120)">
<title>anch::network::SocketEvent</title>
<!-- Node1 -->
<g id="Node000001" class="node">
<title>Node1</title>
<g id="a_Node000001"><a xlink:title=" ">
<polygon fill="#999999" stroke="none" points="145,-116 0,-116 0,0 145,0 145,-116"/>
<text text-anchor="start" x="5" y="-102.5" font-family="Helvetica,sans-Serif" font-size="10.00">anch::network::SocketEvent</text>
<text text-anchor="start" x="71" y="-86.5" font-family="Helvetica,sans-Serif" font-size="10.00"> </text>
<text text-anchor="start" x="16.38" y="-70.5" font-family="Helvetica,sans-Serif" font-size="10.00">+</text>
<text text-anchor="start" x="41" y="-70.5" font-family="Helvetica,sans-Serif" font-size="10.00">SocketEvent()</text>
<text text-anchor="start" x="16.38" y="-54.5" font-family="Helvetica,sans-Serif" font-size="10.00">+</text>
<text text-anchor="start" x="41" y="-54.5" font-family="Helvetica,sans-Serif" font-size="10.00">SocketEvent()</text>
<text text-anchor="start" x="16.38" y="-38.5" font-family="Helvetica,sans-Serif" font-size="10.00">+</text>
<text text-anchor="start" x="41" y="-38.5" font-family="Helvetica,sans-Serif" font-size="10.00">~SocketEvent()</text>
<text text-anchor="start" x="16.38" y="-22.5" font-family="Helvetica,sans-Serif" font-size="10.00">+</text>
<text text-anchor="start" x="41" y="-22.5" font-family="Helvetica,sans-Serif" font-size="10.00">getMessage()</text>
<text text-anchor="start" x="16.38" y="-6.5" font-family="Helvetica,sans-Serif" font-size="10.00">+</text>
<text text-anchor="start" x="41" y="-6.5" font-family="Helvetica,sans-Serif" font-size="10.00">getAddress()</text>
<polygon fill="#666666" stroke="#666666" points="0,-98 0,-98 145,-98 145,-98 0,-98"/>
<polygon fill="#666666" stroke="#666666" points="0,-82 0,-82 145,-82 145,-82 0,-82"/>
<polygon fill="none" stroke="#666666" points="0,0 0,-116 145,-116 145,0 0,0"/>
</a>
</g>
</g>
</g>
</svg>
