<?xml version="1.0" encoding="UTF-8" standalone="no"?>
<!DOCTYPE svg PUBLIC "-//W3C//DTD SVG 1.1//EN"
 "http://www.w3.org/Graphics/SVG/1.1/DTD/svg11.dtd">
<!-- Generated by graphviz version 7.0.4 (0)
 -->
<!-- Title: anch::sql::PostgreSQLConnection Pages: 1 -->
<svg width="360pt" height="1095pt"
 viewBox="0.00 0.00 359.50 1095.00" xmlns="http://www.w3.org/2000/svg" xmlns:xlink="http://www.w3.org/1999/xlink">
<g id="graph0" class="graph" transform="scale(1 1) rotate(0) translate(4 1091)">
<title>anch::sql::PostgreSQLConnection</title>
<!-- Node1 -->
<g id="node1" class="node">
<title>Node1</title>
<g id="a_node1"><a xlink:title="PostgreSQL connection.">
<polygon fill="#999999" stroke="#666666" points="243.5,-151 61.5,-151 61.5,0 243.5,0 243.5,-151"/>
<text text-anchor="middle" x="152.5" y="-139" font-family="Helvetica,sans-Serif" font-size="10.00">{anch::sql::PostgreSQLConnection</text>
<text text-anchor="start" x="69.5" y="-128" font-family="Helvetica,sans-Serif" font-size="10.00">||+ PostgreSQLConnection()</text>
<text text-anchor="start" x="69.5" y="-117" font-family="Helvetica,sans-Serif" font-size="10.00">+ PostgreSQLConnection()</text>
<text text-anchor="start" x="69.5" y="-106" font-family="Helvetica,sans-Serif" font-size="10.00">+ PostgreSQLConnection()</text>
<text text-anchor="start" x="69.5" y="-95" font-family="Helvetica,sans-Serif" font-size="10.00">+ PostgreSQLConnection()</text>
<text text-anchor="start" x="69.5" y="-84" font-family="Helvetica,sans-Serif" font-size="10.00">+ ~PostgreSQLConnection()</text>
<text text-anchor="start" x="69.5" y="-73" font-family="Helvetica,sans-Serif" font-size="10.00"># executeQuery()</text>
<text text-anchor="start" x="69.5" y="-62" font-family="Helvetica,sans-Serif" font-size="10.00"># executeUpdate()</text>
<text text-anchor="start" x="69.5" y="-51" font-family="Helvetica,sans-Serif" font-size="10.00"># sendCommit()</text>
<text text-anchor="start" x="69.5" y="-40" font-family="Helvetica,sans-Serif" font-size="10.00"># sendRollback()</text>
<text text-anchor="start" x="69.5" y="-29" font-family="Helvetica,sans-Serif" font-size="10.00"># sendStartTransaction()</text>
<text text-anchor="start" x="69.5" y="-18" font-family="Helvetica,sans-Serif" font-size="10.00"># makePrepared()</text>
<text text-anchor="middle" x="152.5" y="-7" font-family="Helvetica,sans-Serif" font-size="10.00">}</text>
</a>
</g>
</g>
<!-- Node2 -->
<g id="node2" class="node">
<title>Node2</title>
<g id="a_node2"><a xlink:href="classanch_1_1sql_1_1_connection.html" target="_top" xlink:title="SQL connection virtual class.">
<polygon fill="white" stroke="#666666" points="221,-438 84,-438 84,-188 221,-188 221,-438"/>
<text text-anchor="middle" x="152.5" y="-426" font-family="Helvetica,sans-Serif" font-size="10.00">{anch::sql::Connection</text>
<text text-anchor="start" x="92" y="-415" font-family="Helvetica,sans-Serif" font-size="10.00">|# _valid</text>
<text text-anchor="start" x="92" y="-404" font-family="Helvetica,sans-Serif" font-size="10.00"># _transaction</text>
<text text-anchor="start" x="92" y="-393" font-family="Helvetica,sans-Serif" font-size="10.00">|+ Connection()</text>
<text text-anchor="start" x="92" y="-382" font-family="Helvetica,sans-Serif" font-size="10.00">+ Connection()</text>
<text text-anchor="start" x="92" y="-371" font-family="Helvetica,sans-Serif" font-size="10.00">+ ~Connection()</text>
<text text-anchor="start" x="92" y="-360" font-family="Helvetica,sans-Serif" font-size="10.00">+ startTransaction()</text>
<text text-anchor="start" x="92" y="-349" font-family="Helvetica,sans-Serif" font-size="10.00">+ begin()</text>
<text text-anchor="start" x="92" y="-338" font-family="Helvetica,sans-Serif" font-size="10.00">+ commit()</text>
<text text-anchor="start" x="92" y="-327" font-family="Helvetica,sans-Serif" font-size="10.00">+ rollback()</text>
<text text-anchor="start" x="92" y="-316" font-family="Helvetica,sans-Serif" font-size="10.00">+ prepareStatement()</text>
<text text-anchor="start" x="92" y="-305" font-family="Helvetica,sans-Serif" font-size="10.00">+ query()</text>
<text text-anchor="start" x="92" y="-294" font-family="Helvetica,sans-Serif" font-size="10.00">+ queryMapRow()</text>
<text text-anchor="start" x="92" y="-283" font-family="Helvetica,sans-Serif" font-size="10.00">and 8 more...</text>
<text text-anchor="start" x="92" y="-272" font-family="Helvetica,sans-Serif" font-size="10.00"># executeQuery()</text>
<text text-anchor="start" x="92" y="-261" font-family="Helvetica,sans-Serif" font-size="10.00"># executeUpdate()</text>
<text text-anchor="start" x="92" y="-250" font-family="Helvetica,sans-Serif" font-size="10.00"># sendStartTransaction()</text>
<text text-anchor="start" x="92" y="-239" font-family="Helvetica,sans-Serif" font-size="10.00"># sendCommit()</text>
<text text-anchor="start" x="92" y="-228" font-family="Helvetica,sans-Serif" font-size="10.00"># sendRollback()</text>
<text text-anchor="start" x="92" y="-217" font-family="Helvetica,sans-Serif" font-size="10.00"># makePrepared()</text>
<text text-anchor="start" x="92" y="-206" font-family="Helvetica,sans-Serif" font-size="10.00"># setValid()</text>
<text text-anchor="middle" x="152.5" y="-195" font-family="Helvetica,sans-Serif" font-size="10.00">}</text>
</a>
</g>
</g>
<!-- Node2&#45;&gt;Node1 -->
<g id="edge1" class="edge">
<title>Node2&#45;&gt;Node1</title>
<path fill="none" stroke="#63b8ff" d="M152.5,-176.42C152.5,-167.89 152.5,-159.48 152.5,-151.39"/>
<polygon fill="none" stroke="#63b8ff" points="149,-176.18 152.5,-186.19 156,-176.19 149,-176.18"/>
</g>
<!-- Node3 -->
<g id="node3" class="node">
<title>Node3</title>
<g id="a_node3"><a xlink:title=" ">
<polygon fill="white" stroke="#666666" points="244,-526 61,-526 61,-485 244,-485 244,-526"/>
<text text-anchor="start" x="69" y="-514" font-family="Helvetica,sans-Serif" font-size="10.00">{std::map&lt; std::string,</text>
<text text-anchor="middle" x="152.5" y="-503" font-family="Helvetica,sans-Serif" font-size="10.00"> anch::sql::PreparedStatement * &gt;</text>
<text text-anchor="middle" x="152.5" y="-492" font-family="Helvetica,sans-Serif" font-size="10.00">||}</text>
</a>
</g>
</g>
<!-- Node3&#45;&gt;Node2 -->
<g id="edge2" class="edge">
<title>Node3&#45;&gt;Node2</title>
<path fill="none" stroke="#404040" d="M152.5,-484.83C152.5,-475.75 152.5,-464.12 152.5,-451.2"/>
<polygon fill="none" stroke="#404040" points="152.5,-451.36 148.5,-445.36 152.5,-439.36 156.5,-445.36 152.5,-451.36"/>
<text text-anchor="middle" x="175" y="-459" font-family="Helvetica,sans-Serif" font-size="10.00"> #_stmts</text>
</g>
<!-- Node4 -->
<g id="node4" class="node">
<title>Node4</title>
<g id="a_node4"><a xlink:title=" ">
<polygon fill="white" stroke="#666666" points="235,-999 164,-999 164,-969 235,-969 235,-999"/>
<text text-anchor="middle" x="199.5" y="-987" font-family="Helvetica,sans-Serif" font-size="10.00">{std::string</text>
<text text-anchor="middle" x="199.5" y="-976" font-family="Helvetica,sans-Serif" font-size="10.00">||}</text>
</a>
</g>
</g>
<!-- Node4&#45;&gt;Node3 -->
<g id="edge3" class="edge">
<title>Node4&#45;&gt;Node3</title>
<path fill="none" stroke="#404040" d="M233.2,-968.62C240.12,-964.04 246.5,-958.23 250.5,-951 260.24,-933.38 401.48,-925.7 245.5,-573 238.2,-556.49 224.35,-543.32 209.53,-533.2"/>
<polygon fill="none" stroke="#404040" points="209.57,-533.23 202.36,-533.42 199.41,-526.85 206.62,-526.65 209.57,-533.23"/>
<text text-anchor="middle" x="334.5" y="-827.5" font-family="Helvetica,sans-Serif" font-size="10.00"> +keys</text>
</g>
<!-- Node7 -->
<g id="node7" class="node">
<title>Node7</title>
<g id="a_node7"><a xlink:title=" ">
<polygon fill="white" stroke="#666666" points="236,-911 119,-911 119,-859 236,-859 236,-911"/>
<text text-anchor="start" x="127" y="-899" font-family="Helvetica,sans-Serif" font-size="10.00">{std::map&lt; std::size</text>
<text text-anchor="middle" x="177.5" y="-888" font-family="Helvetica,sans-Serif" font-size="10.00">_t, std::string &gt;</text>
<text text-anchor="start" x="127" y="-877" font-family="Helvetica,sans-Serif" font-size="10.00">|+ keys</text>
<text text-anchor="middle" x="177.5" y="-866" font-family="Helvetica,sans-Serif" font-size="10.00">|}</text>
</a>
</g>
</g>
<!-- Node4&#45;&gt;Node7 -->
<g id="edge7" class="edge">
<title>Node4&#45;&gt;Node7</title>
<path fill="none" stroke="#404040" d="M196.25,-968.69C193.58,-956.91 189.67,-939.67 186.11,-923.97"/>
<polygon fill="none" stroke="#404040" points="186.09,-923.88 180.86,-918.91 183.44,-912.18 188.67,-917.15 186.09,-923.88"/>
<text text-anchor="middle" x="220.5" y="-937.5" font-family="Helvetica,sans-Serif" font-size="10.00"> +elements</text>
</g>
<!-- Node5 -->
<g id="node5" class="node">
<title>Node5</title>
<g id="a_node5"><a xlink:title=" ">
<polygon fill="white" stroke="#666666" points="254.5,-1087 144.5,-1087 144.5,-1046 254.5,-1046 254.5,-1087"/>
<text text-anchor="start" x="152.5" y="-1075" font-family="Helvetica,sans-Serif" font-size="10.00">{std::basic_string&lt;</text>
<text text-anchor="middle" x="199.5" y="-1064" font-family="Helvetica,sans-Serif" font-size="10.00"> Char &gt;</text>
<text text-anchor="middle" x="199.5" y="-1053" font-family="Helvetica,sans-Serif" font-size="10.00">||}</text>
</a>
</g>
</g>
<!-- Node5&#45;&gt;Node4 -->
<g id="edge4" class="edge">
<title>Node5&#45;&gt;Node4</title>
<path fill="none" stroke="#63b8ff" d="M199.5,-1034.14C199.5,-1022.14 199.5,-1009.02 199.5,-999.37"/>
<polygon fill="none" stroke="#63b8ff" points="196,-1034.09 199.5,-1044.09 203,-1034.09 196,-1034.09"/>
</g>
<!-- Node6 -->
<g id="node6" class="node">
<title>Node6</title>
<g id="a_node6"><a xlink:href="classanch_1_1sql_1_1_prepared_statement.html" target="_top" xlink:title="SQL prepared statement.">
<polygon fill="white" stroke="#666666" points="236,-801 69,-801 69,-573 236,-573 236,-801"/>
<text text-anchor="middle" x="152.5" y="-789" font-family="Helvetica,sans-Serif" font-size="10.00">{anch::sql::PreparedStatement</text>
<text text-anchor="start" x="77" y="-778" font-family="Helvetica,sans-Serif" font-size="10.00">|# _nbPlaceholders</text>
<text text-anchor="start" x="77" y="-767" font-family="Helvetica,sans-Serif" font-size="10.00">|+ PreparedStatement()</text>
<text text-anchor="start" x="77" y="-756" font-family="Helvetica,sans-Serif" font-size="10.00">+ ~PreparedStatement()</text>
<text text-anchor="start" x="77" y="-745" font-family="Helvetica,sans-Serif" font-size="10.00">+ executeQuery()</text>
<text text-anchor="start" x="77" y="-734" font-family="Helvetica,sans-Serif" font-size="10.00">+ executeUpdate()</text>
<text text-anchor="start" x="77" y="-723" font-family="Helvetica,sans-Serif" font-size="10.00">+ set()</text>
<text text-anchor="start" x="77" y="-712" font-family="Helvetica,sans-Serif" font-size="10.00">+ set()</text>
<text text-anchor="start" x="77" y="-701" font-family="Helvetica,sans-Serif" font-size="10.00">+ set()</text>
<text text-anchor="start" x="77" y="-690" font-family="Helvetica,sans-Serif" font-size="10.00">+ set()</text>
<text text-anchor="start" x="77" y="-679" font-family="Helvetica,sans-Serif" font-size="10.00">+ set()</text>
<text text-anchor="start" x="77" y="-668" font-family="Helvetica,sans-Serif" font-size="10.00">+ set()</text>
<text text-anchor="start" x="77" y="-657" font-family="Helvetica,sans-Serif" font-size="10.00">+ set()</text>
<text text-anchor="start" x="77" y="-646" font-family="Helvetica,sans-Serif" font-size="10.00">+ set()</text>
<text text-anchor="start" x="77" y="-635" font-family="Helvetica,sans-Serif" font-size="10.00">+ set()</text>
<text text-anchor="start" x="77" y="-624" font-family="Helvetica,sans-Serif" font-size="10.00">+ set()</text>
<text text-anchor="start" x="77" y="-613" font-family="Helvetica,sans-Serif" font-size="10.00">+ set()</text>
<text text-anchor="start" x="77" y="-602" font-family="Helvetica,sans-Serif" font-size="10.00"># getPlaceholders()</text>
<text text-anchor="start" x="77" y="-591" font-family="Helvetica,sans-Serif" font-size="10.00"># checkIndex()</text>
<text text-anchor="middle" x="152.5" y="-580" font-family="Helvetica,sans-Serif" font-size="10.00">}</text>
</a>
</g>
</g>
<!-- Node6&#45;&gt;Node3 -->
<g id="edge5" class="edge">
<title>Node6&#45;&gt;Node3</title>
<path fill="none" stroke="#404040" d="M152.5,-572.57C152.5,-560.53 152.5,-549.09 152.5,-539.22"/>
<polygon fill="none" stroke="#404040" points="152.5,-539.32 148.5,-533.32 152.5,-527.32 156.5,-533.32 152.5,-539.32"/>
<text text-anchor="middle" x="181.5" y="-547" font-family="Helvetica,sans-Serif" font-size="10.00"> +elements</text>
</g>
<!-- Node7&#45;&gt;Node6 -->
<g id="edge6" class="edge">
<title>Node7&#45;&gt;Node6</title>
<path fill="none" stroke="#404040" d="M174.28,-858.78C172.72,-846.55 170.72,-830.85 168.56,-813.95"/>
<polygon fill="none" stroke="#404040" points="168.6,-814.25 163.88,-808.81 167.09,-802.35 171.81,-807.8 168.6,-814.25"/>
<text text-anchor="middle" x="196" y="-827.5" font-family="Helvetica,sans-Serif" font-size="10.00"> #_values</text>
</g>
<!-- Node8 -->
<g id="node8" class="node">
<title>Node8</title>
<g id="a_node8"><a xlink:title=" ">
<polygon fill="white" stroke="#666666" points="107,-999 0,-999 0,-969 107,-969 107,-999"/>
<text text-anchor="middle" x="53.5" y="-987" font-family="Helvetica,sans-Serif" font-size="10.00">{std::map&lt; K, T &gt;</text>
<text text-anchor="middle" x="53.5" y="-976" font-family="Helvetica,sans-Serif" font-size="10.00">||}</text>
</a>
</g>
</g>
<!-- Node8&#45;&gt;Node3 -->
<g id="edge11" class="edge">
<title>Node8&#45;&gt;Node3</title>
<path fill="none" stroke="orange" d="M45.69,-957.6C26.33,-889.41 -17,-699 59.5,-573 71.55,-553.15 92.01,-537.55 110.68,-526.47"/>
<polygon fill="orange" stroke="orange" points="42.29,-958.45 48.46,-967.07 49.01,-956.48 42.29,-958.45"/>
<text text-anchor="start" x="22.5" y="-833" font-family="Helvetica,sans-Serif" font-size="10.00"> &lt; std::string, anch</text>
<text text-anchor="middle" x="93" y="-822" font-family="Helvetica,sans-Serif" font-size="10.00">::sql::PreparedStatement * &gt;</text>
</g>
<!-- Node8&#45;&gt;Node7 -->
<g id="edge8" class="edge">
<title>Node8&#45;&gt;Node7</title>
<path fill="none" stroke="orange" d="M69.82,-959.65C77.7,-949.43 87.78,-937.8 98.5,-929 106.35,-922.56 115.3,-916.62 124.29,-911.34"/>
<polygon fill="orange" stroke="orange" points="67.03,-957.53 63.88,-967.65 72.65,-961.7 67.03,-957.53"/>
<text text-anchor="start" x="98.5" y="-943" font-family="Helvetica,sans-Serif" font-size="10.00"> &lt; std::size_t, std</text>
<text text-anchor="middle" x="141" y="-932" font-family="Helvetica,sans-Serif" font-size="10.00">::string &gt;</text>
</g>
<!-- Node9 -->
<g id="node9" class="node">
<title>Node9</title>
<g id="a_node9"><a xlink:title=" ">
<polygon fill="white" stroke="#bfbfbf" points="53,-1081.5 24,-1081.5 24,-1051.5 53,-1051.5 53,-1081.5"/>
<text text-anchor="middle" x="38.5" y="-1069.5" font-family="Helvetica,sans-Serif" font-size="10.00">{K</text>
<text text-anchor="middle" x="38.5" y="-1058.5" font-family="Helvetica,sans-Serif" font-size="10.00">||}</text>
</a>
</g>
</g>
<!-- Node9&#45;&gt;Node8 -->
<g id="edge9" class="edge">
<title>Node9&#45;&gt;Node8</title>
<path fill="none" stroke="#404040" d="M37.35,-1051.32C36.91,-1041.56 37,-1028.35 39.5,-1017 39.92,-1015.11 40.44,-1013.2 41.05,-1011.29"/>
<polygon fill="none" stroke="#404040" points="41.07,-1011.24 39.57,-1004.19 45.51,-1000.09 47.01,-1007.14 41.07,-1011.24"/>
<text text-anchor="middle" x="56.5" y="-1020" font-family="Helvetica,sans-Serif" font-size="10.00"> +keys</text>
</g>
<!-- Node10 -->
<g id="node10" class="node">
<title>Node10</title>
<g id="a_node10"><a xlink:title=" ">
<polygon fill="white" stroke="#bfbfbf" points="110,-1081.5 81,-1081.5 81,-1051.5 110,-1051.5 110,-1081.5"/>
<text text-anchor="middle" x="95.5" y="-1069.5" font-family="Helvetica,sans-Serif" font-size="10.00">{T</text>
<text text-anchor="middle" x="95.5" y="-1058.5" font-family="Helvetica,sans-Serif" font-size="10.00">||}</text>
</a>
</g>
</g>
<!-- Node10&#45;&gt;Node8 -->
<g id="edge10" class="edge">
<title>Node10&#45;&gt;Node8</title>
<path fill="none" stroke="#404040" d="M89.63,-1051.25C85.45,-1041.46 79.53,-1028.24 73.5,-1017 72.32,-1014.79 71.04,-1012.53 69.72,-1010.28"/>
<polygon fill="none" stroke="#404040" points="69.81,-1010.42 63.27,-1007.39 63.55,-1000.18 70.09,-1003.21 69.81,-1010.42"/>
<text text-anchor="middle" x="108.5" y="-1020" font-family="Helvetica,sans-Serif" font-size="10.00"> +elements</text>
</g>
</g>
</svg>
