<?xml version="1.0" encoding="UTF-8" standalone="no"?>
<!DOCTYPE svg PUBLIC "-//W3C//DTD SVG 1.1//EN"
 "http://www.w3.org/Graphics/SVG/1.1/DTD/svg11.dtd">
<!-- Generated by graphviz version 2.40.1 (20161225.0304)
 -->
<!-- Title: anch::sql::MySQLPreparedStatementResultSet Pages: 1 -->
<svg width="259pt" height="795pt"
 viewBox="0.00 0.00 258.50 795.00" xmlns="http://www.w3.org/2000/svg" xmlns:xlink="http://www.w3.org/1999/xlink">
<g id="graph0" class="graph" transform="scale(1 1) rotate(0) translate(4 791)">
<title>anch::sql::MySQLPreparedStatementResultSet</title>
<!-- Node2 -->
<g id="node1" class="node">
<title>Node2</title>
<polygon fill="#bfbfbf" stroke="#000000" points="0,-.5 0,-145.5 217,-145.5 217,-.5 0,-.5"/>
<text text-anchor="start" x="8" y="-133.5" font-family="Helvetica,sans-Serif" font-size="10.00" fill="#000000">anch::sql::MySQLPrepared</text>
<text text-anchor="middle" x="108.5" y="-122.5" font-family="Helvetica,sans-Serif" font-size="10.00" fill="#000000">StatementResultSet</text>
<polyline fill="none" stroke="#000000" points="0,-115.5 217,-115.5 "/>
<text text-anchor="middle" x="108.5" y="-103.5" font-family="Helvetica,sans-Serif" font-size="10.00" fill="#000000"> </text>
<polyline fill="none" stroke="#000000" points="0,-96.5 217,-96.5 "/>
<text text-anchor="start" x="8" y="-84.5" font-family="Helvetica,sans-Serif" font-size="10.00" fill="#000000">+ MySQLPreparedStatementResultSet()</text>
<text text-anchor="start" x="8" y="-73.5" font-family="Helvetica,sans-Serif" font-size="10.00" fill="#000000">+ ~MySQLPreparedStatementResultSet()</text>
<text text-anchor="start" x="8" y="-62.5" font-family="Helvetica,sans-Serif" font-size="10.00" fill="#000000">+ next()</text>
<text text-anchor="start" x="8" y="-51.5" font-family="Helvetica,sans-Serif" font-size="10.00" fill="#000000"># getValue()</text>
<text text-anchor="start" x="8" y="-40.5" font-family="Helvetica,sans-Serif" font-size="10.00" fill="#000000"># getValue()</text>
<text text-anchor="start" x="8" y="-29.5" font-family="Helvetica,sans-Serif" font-size="10.00" fill="#000000"># getDateFormatter()</text>
<text text-anchor="start" x="8" y="-18.5" font-family="Helvetica,sans-Serif" font-size="10.00" fill="#000000"># getTimeFormatter()</text>
<text text-anchor="start" x="8" y="-7.5" font-family="Helvetica,sans-Serif" font-size="10.00" fill="#000000"># getTimestampFormatter()</text>
</g>
<!-- Node3 -->
<g id="node2" class="node">
<title>Node3</title>
<g id="a_node2"><a xlink:href="classanch_1_1sql_1_1_result_set.html" target="_top" xlink:title="SQL result representation. ">
<polygon fill="none" stroke="#000000" points="13,-183.5 13,-438.5 204,-438.5 204,-183.5 13,-183.5"/>
<text text-anchor="middle" x="108.5" y="-426.5" font-family="Helvetica,sans-Serif" font-size="10.00" fill="#000000">anch::sql::ResultSet</text>
<polyline fill="none" stroke="#000000" points="13,-419.5 204,-419.5 "/>
<text text-anchor="middle" x="108.5" y="-407.5" font-family="Helvetica,sans-Serif" font-size="10.00" fill="#000000"> </text>
<polyline fill="none" stroke="#000000" points="13,-400.5 204,-400.5 "/>
<text text-anchor="start" x="21" y="-388.5" font-family="Helvetica,sans-Serif" font-size="10.00" fill="#000000">+ ResultSet()</text>
<text text-anchor="start" x="21" y="-377.5" font-family="Helvetica,sans-Serif" font-size="10.00" fill="#000000">+ ~ResultSet()</text>
<text text-anchor="start" x="21" y="-366.5" font-family="Helvetica,sans-Serif" font-size="10.00" fill="#000000">+ get()</text>
<text text-anchor="start" x="21" y="-355.5" font-family="Helvetica,sans-Serif" font-size="10.00" fill="#000000">+ get()</text>
<text text-anchor="start" x="21" y="-344.5" font-family="Helvetica,sans-Serif" font-size="10.00" fill="#000000">+ get()</text>
<text text-anchor="start" x="21" y="-333.5" font-family="Helvetica,sans-Serif" font-size="10.00" fill="#000000">+ get()</text>
<text text-anchor="start" x="21" y="-322.5" font-family="Helvetica,sans-Serif" font-size="10.00" fill="#000000">+ next()</text>
<text text-anchor="start" x="21" y="-311.5" font-family="Helvetica,sans-Serif" font-size="10.00" fill="#000000">+ get()</text>
<text text-anchor="start" x="21" y="-300.5" font-family="Helvetica,sans-Serif" font-size="10.00" fill="#000000">+ get()</text>
<text text-anchor="start" x="21" y="-289.5" font-family="Helvetica,sans-Serif" font-size="10.00" fill="#000000">+ get()</text>
<text text-anchor="start" x="21" y="-278.5" font-family="Helvetica,sans-Serif" font-size="10.00" fill="#000000">and 9 more...</text>
<text text-anchor="start" x="21" y="-267.5" font-family="Helvetica,sans-Serif" font-size="10.00" fill="#000000"># getValue()</text>
<text text-anchor="start" x="21" y="-256.5" font-family="Helvetica,sans-Serif" font-size="10.00" fill="#000000"># getValue()</text>
<text text-anchor="start" x="21" y="-245.5" font-family="Helvetica,sans-Serif" font-size="10.00" fill="#000000"># getDateFormatter()</text>
<text text-anchor="start" x="21" y="-234.5" font-family="Helvetica,sans-Serif" font-size="10.00" fill="#000000"># getTimeFormatter()</text>
<text text-anchor="start" x="21" y="-223.5" font-family="Helvetica,sans-Serif" font-size="10.00" fill="#000000"># getTimestampFormatter()</text>
<text text-anchor="start" x="21" y="-212.5" font-family="Helvetica,sans-Serif" font-size="10.00" fill="#000000"># getDefaultDateFormatter()</text>
<text text-anchor="start" x="21" y="-201.5" font-family="Helvetica,sans-Serif" font-size="10.00" fill="#000000"># getDefaultTimeFormatter()</text>
<text text-anchor="start" x="21" y="-190.5" font-family="Helvetica,sans-Serif" font-size="10.00" fill="#000000"># getDefaultTimestampFormatter()</text>
</a>
</g>
</g>
<!-- Node3&#45;&gt;Node2 -->
<g id="edge1" class="edge">
<title>Node3&#45;&gt;Node2</title>
<path fill="none" stroke="#191970" d="M108.5,-173.0504C108.5,-163.6607 108.5,-154.4326 108.5,-145.608"/>
<polygon fill="none" stroke="#191970" points="105.0001,-173.2911 108.5,-183.2911 112.0001,-173.2911 105.0001,-173.2911"/>
</g>
<!-- Node4 -->
<g id="node3" class="node">
<title>Node4</title>
<polygon fill="none" stroke="#bfbfbf" points="47.5,-486.5 47.5,-554.5 169.5,-554.5 169.5,-486.5 47.5,-486.5"/>
<text text-anchor="start" x="55.5" y="-542.5" font-family="Helvetica,sans-Serif" font-size="10.00" fill="#000000">std::map&lt; std::string,</text>
<text text-anchor="middle" x="108.5" y="-531.5" font-family="Helvetica,sans-Serif" font-size="10.00" fill="#000000"> std::size_t &gt;</text>
<polyline fill="none" stroke="#bfbfbf" points="47.5,-524.5 169.5,-524.5 "/>
<text text-anchor="start" x="55.5" y="-512.5" font-family="Helvetica,sans-Serif" font-size="10.00" fill="#000000">+ elements</text>
<polyline fill="none" stroke="#bfbfbf" points="47.5,-505.5 169.5,-505.5 "/>
<text text-anchor="middle" x="108.5" y="-493.5" font-family="Helvetica,sans-Serif" font-size="10.00" fill="#000000"> </text>
</g>
<!-- Node4&#45;&gt;Node3 -->
<g id="edge2" class="edge">
<title>Node4&#45;&gt;Node3</title>
<path fill="none" stroke="#404040" d="M108.5,-486.3739C108.5,-475.9877 108.5,-463.8676 108.5,-450.9382"/>
<polygon fill="none" stroke="#404040" points="108.5001,-450.8633 104.5,-444.8633 108.5,-438.8633 112.5,-444.8632 108.5001,-450.8633"/>
<text text-anchor="middle" x="130" y="-460" font-family="Helvetica,sans-Serif" font-size="10.00" fill="#000000"> #_fields</text>
</g>
<!-- Node5 -->
<g id="node4" class="node">
<title>Node5</title>
<g id="a_node4"><a xlink:title="STL class. ">
<polygon fill="none" stroke="#bfbfbf" points="26,-613.5 26,-670.5 91,-670.5 91,-613.5 26,-613.5"/>
<text text-anchor="middle" x="58.5" y="-658.5" font-family="Helvetica,sans-Serif" font-size="10.00" fill="#000000">std::string</text>
<polyline fill="none" stroke="#bfbfbf" points="26,-651.5 91,-651.5 "/>
<text text-anchor="middle" x="58.5" y="-639.5" font-family="Helvetica,sans-Serif" font-size="10.00" fill="#000000"> </text>
<polyline fill="none" stroke="#bfbfbf" points="26,-632.5 91,-632.5 "/>
<text text-anchor="middle" x="58.5" y="-620.5" font-family="Helvetica,sans-Serif" font-size="10.00" fill="#000000"> </text>
</a>
</g>
</g>
<!-- Node5&#45;&gt;Node4 -->
<g id="edge3" class="edge">
<title>Node5&#45;&gt;Node4</title>
<path fill="none" stroke="#404040" d="M70.3493,-613.2062C76.1588,-599.0891 83.2928,-581.7535 89.8136,-565.908"/>
<polygon fill="none" stroke="#404040" points="89.8589,-565.7978 88.4432,-558.727 94.4256,-554.7007 95.8413,-561.7715 89.8589,-565.7978"/>
<text text-anchor="middle" x="104" y="-581.5" font-family="Helvetica,sans-Serif" font-size="10.00" fill="#000000"> +keys</text>
</g>
<!-- Node6 -->
<g id="node5" class="node">
<title>Node6</title>
<g id="a_node5"><a xlink:title="STL class. ">
<polygon fill="none" stroke="#bfbfbf" points="6.5,-718.5 6.5,-786.5 110.5,-786.5 110.5,-718.5 6.5,-718.5"/>
<text text-anchor="start" x="14.5" y="-774.5" font-family="Helvetica,sans-Serif" font-size="10.00" fill="#000000">std::basic_string&lt;</text>
<text text-anchor="middle" x="58.5" y="-763.5" font-family="Helvetica,sans-Serif" font-size="10.00" fill="#000000"> char &gt;</text>
<polyline fill="none" stroke="#bfbfbf" points="6.5,-756.5 110.5,-756.5 "/>
<text text-anchor="middle" x="58.5" y="-744.5" font-family="Helvetica,sans-Serif" font-size="10.00" fill="#000000"> </text>
<polyline fill="none" stroke="#bfbfbf" points="6.5,-737.5 110.5,-737.5 "/>
<text text-anchor="middle" x="58.5" y="-725.5" font-family="Helvetica,sans-Serif" font-size="10.00" fill="#000000"> </text>
</a>
</g>
</g>
<!-- Node6&#45;&gt;Node5 -->
<g id="edge4" class="edge">
<title>Node6&#45;&gt;Node5</title>
<path fill="none" stroke="#191970" d="M58.5,-708.0661C58.5,-695.4172 58.5,-681.9812 58.5,-670.5519"/>
<polygon fill="none" stroke="#191970" points="55.0001,-708.4447 58.5,-718.4447 62.0001,-708.4447 55.0001,-708.4447"/>
</g>
<!-- Node7 -->
<g id="node6" class="node">
<title>Node7</title>
<g id="a_node6"><a xlink:title="STL class. ">
<polygon fill="none" stroke="#bfbfbf" points="109,-613.5 109,-670.5 210,-670.5 210,-613.5 109,-613.5"/>
<text text-anchor="middle" x="159.5" y="-658.5" font-family="Helvetica,sans-Serif" font-size="10.00" fill="#000000">std::map&lt; K, T &gt;</text>
<polyline fill="none" stroke="#bfbfbf" points="109,-651.5 210,-651.5 "/>
<text text-anchor="middle" x="159.5" y="-639.5" font-family="Helvetica,sans-Serif" font-size="10.00" fill="#000000"> </text>
<polyline fill="none" stroke="#bfbfbf" points="109,-632.5 210,-632.5 "/>
<text text-anchor="middle" x="159.5" y="-620.5" font-family="Helvetica,sans-Serif" font-size="10.00" fill="#000000"> </text>
</a>
</g>
</g>
<!-- Node7&#45;&gt;Node4 -->
<g id="edge5" class="edge">
<title>Node7&#45;&gt;Node4</title>
<path fill="none" stroke="#ffa500" d="M143.451,-603.7657C136.8516,-588.0436 129.2685,-569.9779 122.8559,-554.7007"/>
<polygon fill="#ffa500" stroke="#ffa500" points="140.316,-605.3402 147.4137,-613.2062 146.7705,-602.6309 140.316,-605.3402"/>
<text text-anchor="start" x="139.5" y="-587" font-family="Helvetica,sans-Serif" font-size="10.00" fill="#000000"> &lt; std::string, std</text>
<text text-anchor="middle" x="182" y="-576" font-family="Helvetica,sans-Serif" font-size="10.00" fill="#000000">::size_t &gt;</text>
</g>
<!-- Node8 -->
<g id="node7" class="node">
<title>Node8</title>
<polygon fill="none" stroke="#bfbfbf" points="137,-724 137,-781 166,-781 166,-724 137,-724"/>
<text text-anchor="middle" x="151.5" y="-769" font-family="Helvetica,sans-Serif" font-size="10.00" fill="#000000">K</text>
<polyline fill="none" stroke="#bfbfbf" points="137,-762 166,-762 "/>
<text text-anchor="middle" x="151.5" y="-750" font-family="Helvetica,sans-Serif" font-size="10.00" fill="#000000"> </text>
<polyline fill="none" stroke="#bfbfbf" points="137,-743 166,-743 "/>
<text text-anchor="middle" x="151.5" y="-731" font-family="Helvetica,sans-Serif" font-size="10.00" fill="#000000"> </text>
</g>
<!-- Node8&#45;&gt;Node7 -->
<g id="edge6" class="edge">
<title>Node8&#45;&gt;Node7</title>
<path fill="none" stroke="#404040" d="M151.1503,-723.6952C151.229,-712.8085 151.5721,-700.3185 152.5,-689 152.6668,-686.965 152.8668,-684.8842 153.092,-682.7855"/>
<polygon fill="none" stroke="#404040" points="153.1065,-682.6697 149.8853,-676.218 154.6018,-670.7632 157.823,-677.2149 153.1065,-682.6697"/>
<text text-anchor="middle" x="170" y="-692" font-family="Helvetica,sans-Serif" font-size="10.00" fill="#000000"> +keys</text>
</g>
<!-- Node9 -->
<g id="node8" class="node">
<title>Node9</title>
<polygon fill="none" stroke="#bfbfbf" points="195,-724 195,-781 224,-781 224,-724 195,-724"/>
<text text-anchor="middle" x="209.5" y="-769" font-family="Helvetica,sans-Serif" font-size="10.00" fill="#000000">T</text>
<polyline fill="none" stroke="#bfbfbf" points="195,-762 224,-762 "/>
<text text-anchor="middle" x="209.5" y="-750" font-family="Helvetica,sans-Serif" font-size="10.00" fill="#000000"> </text>
<polyline fill="none" stroke="#bfbfbf" points="195,-743 224,-743 "/>
<text text-anchor="middle" x="209.5" y="-731" font-family="Helvetica,sans-Serif" font-size="10.00" fill="#000000"> </text>
</g>
<!-- Node9&#45;&gt;Node7 -->
<g id="edge7" class="edge">
<title>Node9&#45;&gt;Node7</title>
<path fill="none" stroke="#404040" d="M200.9601,-723.878C197.2964,-712.786 192.667,-700.1076 187.5,-689 186.3001,-686.4205 184.9976,-683.8012 183.6331,-681.1867"/>
<polygon fill="none" stroke="#404040" points="183.5773,-681.0856 177.1755,-677.7662 177.7773,-670.5803 184.1791,-673.8996 183.5773,-681.0856"/>
<text text-anchor="middle" x="221.5" y="-692" font-family="Helvetica,sans-Serif" font-size="10.00" fill="#000000"> +elements</text>
</g>
</g>
</svg>
