<?xml version="1.0" encoding="UTF-8" standalone="no"?>
<!DOCTYPE svg PUBLIC "-//W3C//DTD SVG 1.1//EN"
 "http://www.w3.org/Graphics/SVG/1.1/DTD/svg11.dtd">
<!-- Generated by graphviz version 12.1.2 (0)
 -->
<!-- Title: Graphical Class Hierarchy Pages: 1 -->
<svg width="320pt" height="104pt"
 viewBox="0.00 0.00 319.75 104.00" xmlns="http://www.w3.org/2000/svg" xmlns:xlink="http://www.w3.org/1999/xlink">
<g id="graph0" class="graph" transform="scale(1 1) rotate(0) translate(4 100)">
<title>Graphical Class Hierarchy</title>
<!-- Node0 -->
<g id="Node000000" class="node">
<title>Node0</title>
<g id="a_Node000000"><a xlink:href="classanch_1_1sql_1_1_connection.html" target="_top" xlink:title="SQL connection virtual class.">
<polygon fill="white" stroke="#666666" points="111.25,-58 0,-58 0,-38 111.25,-38 111.25,-58"/>
<text text-anchor="middle" x="55.62" y="-44.5" font-family="Helvetica,sans-Serif" font-size="10.00">anch::sql::Connection</text>
</a>
</g>
</g>
<!-- Node1 -->
<g id="Node000001" class="node">
<title>Node1</title>
<g id="a_Node000001"><a xlink:href="classanch_1_1sql_1_1_my_s_q_l_connection.html" target="_top" xlink:title="MySQL connection.">
<polygon fill="white" stroke="#666666" points="301.62,-96 157.38,-96 157.38,-76 301.62,-76 301.62,-96"/>
<text text-anchor="middle" x="229.5" y="-82.5" font-family="Helvetica,sans-Serif" font-size="10.00">anch::sql::MySQLConnection</text>
</a>
</g>
</g>
<!-- Node0&#45;&gt;Node1 -->
<g id="edge57_Node000000_Node000001" class="edge">
<title>Node0&#45;&gt;Node1</title>
<g id="a_edge57_Node000000_Node000001"><a xlink:title=" ">
<path fill="none" stroke="#63b8ff" d="M115.06,-60.92C136.62,-65.69 160.78,-71.03 181.23,-75.55"/>
<polygon fill="#63b8ff" stroke="#63b8ff" points="116.04,-57.55 105.52,-58.81 114.53,-64.39 116.04,-57.55"/>
</a>
</g>
</g>
<!-- Node2 -->
<g id="Node000002" class="node">
<title>Node2</title>
<g id="a_Node000002"><a xlink:href="classanch_1_1sql_1_1_postgre_s_q_l_connection.html" target="_top" xlink:title="PostgreSQL connection.">
<polygon fill="white" stroke="#666666" points="311.75,-58 147.25,-58 147.25,-38 311.75,-38 311.75,-58"/>
<text text-anchor="middle" x="229.5" y="-44.5" font-family="Helvetica,sans-Serif" font-size="10.00">anch::sql::PostgreSQLConnection</text>
</a>
</g>
</g>
<!-- Node0&#45;&gt;Node2 -->
<g id="edge58_Node000000_Node000002" class="edge">
<title>Node0&#45;&gt;Node2</title>
<g id="a_edge58_Node000000_Node000002"><a xlink:title=" ">
<path fill="none" stroke="#63b8ff" d="M122.84,-48C130.72,-48 138.85,-48 146.92,-48"/>
<polygon fill="#63b8ff" stroke="#63b8ff" points="122.99,-44.5 112.99,-48 122.99,-51.5 122.99,-44.5"/>
</a>
</g>
</g>
<!-- Node3 -->
<g id="Node000003" class="node">
<title>Node3</title>
<g id="a_Node000003"><a xlink:href="classanch_1_1sql_1_1_s_q_lite3_connection.html" target="_top" xlink:title="SQLite3 connection.">
<polygon fill="white" stroke="#666666" points="302.75,-20 156.25,-20 156.25,0 302.75,0 302.75,-20"/>
<text text-anchor="middle" x="229.5" y="-6.5" font-family="Helvetica,sans-Serif" font-size="10.00">anch::sql::SQLite3Connection</text>
</a>
</g>
</g>
<!-- Node0&#45;&gt;Node3 -->
<g id="edge59_Node000000_Node000003" class="edge">
<title>Node0&#45;&gt;Node3</title>
<g id="a_edge59_Node000000_Node000003"><a xlink:title=" ">
<path fill="none" stroke="#63b8ff" d="M115.06,-35.08C136.62,-30.31 160.78,-24.97 181.23,-20.45"/>
<polygon fill="#63b8ff" stroke="#63b8ff" points="114.53,-31.61 105.52,-37.19 116.04,-38.45 114.53,-31.61"/>
</a>
</g>
</g>
</g>
</svg>
