<?xml version="1.0" encoding="UTF-8" standalone="no"?>
<!DOCTYPE svg PUBLIC "-//W3C//DTD SVG 1.1//EN"
 "http://www.w3.org/Graphics/SVG/1.1/DTD/svg11.dtd">
<!-- Generated by graphviz version 10.0.1 (0)
 -->
<!-- Title: Graphical Class Hierarchy Pages: 1 -->
<svg width="508pt" height="119pt"
 viewBox="0.00 0.00 508.25 119.12" xmlns="http://www.w3.org/2000/svg" xmlns:xlink="http://www.w3.org/1999/xlink">
<g id="graph0" class="graph" transform="scale(1 1) rotate(0) translate(4 115.12)">
<title>Graphical Class Hierarchy</title>
<!-- Node0 -->
<g id="Node000000" class="node">
<title>Node0</title>
<g id="a_Node000000"><a xlink:href="classanch_1_1events_1_1_observer.html" target="_top" xlink:title=" ">
<polygon fill="white" stroke="#666666" points="305,-111.12 131.5,-111.12 131.5,-77.62 305,-77.62 305,-111.12"/>
<text text-anchor="start" x="139.5" y="-97.62" font-family="Helvetica,sans-Serif" font-size="10.00">anch::events::Observer</text>
<text text-anchor="middle" x="218.25" y="-84.88" font-family="Helvetica,sans-Serif" font-size="10.00">&lt; anch::network::SocketEvent &gt;</text>
</a>
</g>
</g>
<!-- Node1 -->
<g id="Node000001" class="node">
<title>Node1</title>
<g id="a_Node000001"><a xlink:href="classanch_1_1ut_1_1_socket_server_runner.html" target="_top" xlink:title="Socket server unit tests runner.">
<polygon fill="white" stroke="#666666" points="500.25,-81.75 341,-81.75 341,-61 500.25,-61 500.25,-81.75"/>
<text text-anchor="middle" x="420.62" y="-68.25" font-family="Helvetica,sans-Serif" font-size="10.00">anch::ut::SocketServerRunner</text>
</a>
</g>
</g>
<!-- Node0&#45;&gt;Node1 -->
<g id="edge32_Node000000_Node000001" class="edge">
<title>Node0&#45;&gt;Node1</title>
<g id="a_edge32_Node000000_Node000001"><a xlink:title=" ">
<path fill="none" stroke="#8b1a1a" d="M316.66,-83.19C324.66,-82.28 332.68,-81.35 340.52,-80.45"/>
<polygon fill="#8b1a1a" stroke="#8b1a1a" points="316.43,-79.7 306.89,-84.31 317.23,-86.65 316.43,-79.7"/>
</a>
</g>
</g>
<!-- Node3 -->
<g id="Node000003" class="node">
<title>Node3</title>
<g id="a_Node000003"><a xlink:href="classanch_1_1ut_1_1_runner.html" target="_top" xlink:title="Unit tests runner.">
<polygon fill="white" stroke="#666666" points="95.5,-39.75 0,-39.75 0,-19 95.5,-19 95.5,-39.75"/>
<text text-anchor="middle" x="47.75" y="-26.25" font-family="Helvetica,sans-Serif" font-size="10.00">anch::ut::Runner</text>
</a>
</g>
</g>
<!-- Node2 -->
<g id="Node000002" class="node">
<title>Node2</title>
<g id="a_Node000002"><a xlink:href="classanch_1_1ut_1_1_default_runner.html" target="_top" xlink:title="Default unit tests runner.">
<polygon fill="white" stroke="#666666" points="284,-59.75 152.5,-59.75 152.5,-39 284,-39 284,-59.75"/>
<text text-anchor="middle" x="218.25" y="-46.25" font-family="Helvetica,sans-Serif" font-size="10.00">anch::ut::DefaultRunner</text>
</a>
</g>
</g>
<!-- Node3&#45;&gt;Node2 -->
<g id="edge33_Node000003_Node000002" class="edge">
<title>Node3&#45;&gt;Node2</title>
<g id="a_edge33_Node000003_Node000002"><a xlink:title=" ">
<path fill="none" stroke="#63b8ff" d="M107.1,-36.3C121.69,-38.03 137.42,-39.9 152.31,-41.67"/>
<polygon fill="#63b8ff" stroke="#63b8ff" points="107.53,-32.83 97.19,-35.12 106.71,-39.78 107.53,-32.83"/>
</a>
</g>
</g>
<!-- Node4 -->
<g id="Node000004" class="node">
<title>Node4</title>
<g id="a_Node000004"><a xlink:href="classanch_1_1ut_1_1_socket_client_runner.html" target="_top" xlink:title="Socket client unit tests runner.">
<polygon fill="white" stroke="#666666" points="296.38,-20.75 140.12,-20.75 140.12,0 296.38,0 296.38,-20.75"/>
<text text-anchor="middle" x="218.25" y="-7.25" font-family="Helvetica,sans-Serif" font-size="10.00">anch::ut::SocketClientRunner</text>
</a>
</g>
</g>
<!-- Node3&#45;&gt;Node4 -->
<g id="edge35_Node000003_Node000004" class="edge">
<title>Node3&#45;&gt;Node4</title>
<g id="a_edge35_Node000003_Node000004"><a xlink:title=" ">
<path fill="none" stroke="#63b8ff" d="M106.94,-22.81C117.57,-21.61 128.81,-20.35 139.89,-19.1"/>
<polygon fill="#63b8ff" stroke="#63b8ff" points="106.74,-19.31 97.19,-23.91 107.52,-26.27 106.74,-19.31"/>
</a>
</g>
</g>
<!-- Node2&#45;&gt;Node1 -->
<g id="edge34_Node000002_Node000001" class="edge">
<title>Node2&#45;&gt;Node1</title>
<g id="a_edge34_Node000002_Node000001"><a xlink:title=" ">
<path fill="none" stroke="#63b8ff" d="M295.43,-57.74C310.19,-59.36 325.7,-61.06 340.55,-62.69"/>
<polygon fill="#63b8ff" stroke="#63b8ff" points="296.13,-54.3 285.81,-56.68 295.37,-61.25 296.13,-54.3"/>
</a>
</g>
</g>
</g>
</svg>
