<?xml version="1.0" encoding="UTF-8" standalone="no"?>
<!DOCTYPE svg PUBLIC "-//W3C//DTD SVG 1.1//EN"
 "http://www.w3.org/Graphics/SVG/1.1/DTD/svg11.dtd">
<!-- Generated by graphviz version 7.1.0 (0)
 -->
<!-- Title: Graphical Class Hierarchy Pages: 1 -->
<svg width="263pt" height="101pt"
 viewBox="0.00 0.00 263.00 101.00" xmlns="http://www.w3.org/2000/svg" xmlns:xlink="http://www.w3.org/1999/xlink">
<g id="graph0" class="graph" transform="scale(1 1) rotate(0) translate(4 97)">
<title>Graphical Class Hierarchy</title>
<!-- Node0 -->
<g id="node1" class="node">
<title>Node0</title>
<g id="a_node1"><a xlink:href="classanch_1_1date_1_1_date.html" target="_top" xlink:title=" ">
<polygon fill="white" stroke="#666666" points="97,-56 0,-56 0,-37 97,-37 97,-56"/>
<text text-anchor="middle" x="48.5" y="-44" font-family="Helvetica,sans-Serif" font-size="10.00">anch::date::Date</text>
</a>
</g>
</g>
<!-- Node1 -->
<g id="node2" class="node">
<title>Node1</title>
<g id="a_node2"><a xlink:href="classanch_1_1sql_1_1_date.html" target="_top" xlink:title="SQL date type.">
<polygon fill="white" stroke="#666666" points="238.5,-93 149.5,-93 149.5,-74 238.5,-74 238.5,-93"/>
<text text-anchor="middle" x="194" y="-81" font-family="Helvetica,sans-Serif" font-size="10.00">anch::sql::Date</text>
</a>
</g>
</g>
<!-- Node0&#45;&gt;Node1 -->
<g id="edge1" class="edge">
<title>Node0&#45;&gt;Node1</title>
<path fill="none" stroke="#63b8ff" d="M98.94,-59.25C117.1,-63.93 137.37,-69.16 154.44,-73.56"/>
<polygon fill="#63b8ff" stroke="#63b8ff" points="99.98,-55.9 89.42,-56.79 98.23,-62.68 99.98,-55.9"/>
</g>
<!-- Node2 -->
<g id="node3" class="node">
<title>Node2</title>
<g id="a_node3"><a xlink:href="classanch_1_1sql_1_1_time.html" target="_top" xlink:title="SQL time type.">
<polygon fill="white" stroke="#666666" points="239.5,-56 148.5,-56 148.5,-37 239.5,-37 239.5,-56"/>
<text text-anchor="middle" x="194" y="-44" font-family="Helvetica,sans-Serif" font-size="10.00">anch::sql::Time</text>
</a>
</g>
</g>
<!-- Node0&#45;&gt;Node2 -->
<g id="edge2" class="edge">
<title>Node0&#45;&gt;Node2</title>
<path fill="none" stroke="#63b8ff" d="M108.72,-46.5C121.97,-46.5 135.8,-46.5 148.34,-46.5"/>
<polygon fill="#63b8ff" stroke="#63b8ff" points="108.8,-43 98.8,-46.5 108.8,-50 108.8,-43"/>
</g>
<!-- Node3 -->
<g id="node4" class="node">
<title>Node3</title>
<g id="a_node4"><a xlink:href="classanch_1_1sql_1_1_timestamp.html" target="_top" xlink:title="SQL timestamp type.">
<polygon fill="white" stroke="#666666" points="255,-19 133,-19 133,0 255,0 255,-19"/>
<text text-anchor="middle" x="194" y="-7" font-family="Helvetica,sans-Serif" font-size="10.00">anch::sql::Timestamp</text>
</a>
</g>
</g>
<!-- Node0&#45;&gt;Node3 -->
<g id="edge3" class="edge">
<title>Node0&#45;&gt;Node3</title>
<path fill="none" stroke="#63b8ff" d="M98.94,-33.75C117.1,-29.07 137.37,-23.84 154.44,-19.44"/>
<polygon fill="#63b8ff" stroke="#63b8ff" points="98.23,-30.32 89.42,-36.21 99.98,-37.1 98.23,-30.32"/>
</g>
</g>
</svg>
