<?xml version="1.0" encoding="UTF-8" standalone="no"?>
<!DOCTYPE svg PUBLIC "-//W3C//DTD SVG 1.1//EN"
 "http://www.w3.org/Graphics/SVG/1.1/DTD/svg11.dtd">
<!-- Generated by graphviz version 12.1.1 (0)
 -->
<!-- Title: Graphical Class Hierarchy Pages: 1 -->
<svg width="348pt" height="80pt"
 viewBox="0.00 0.00 348.25 80.12" xmlns="http://www.w3.org/2000/svg" xmlns:xlink="http://www.w3.org/1999/xlink">
<g id="graph0" class="graph" transform="scale(1 1) rotate(0) translate(4 76.12)">
<title>Graphical Class Hierarchy</title>
<!-- Node0 -->
<g id="Node000000" class="node">
<title>Node0</title>
<g id="a_Node000000"><a xlink:href="classanch_1_1rest_1_1_endpoint_func.html" target="_top" xlink:title="Endpoint function interface.">
<polygon fill="white" stroke="#666666" points="135.25,-42.75 0,-42.75 0,-22 135.25,-22 135.25,-42.75"/>
<text text-anchor="middle" x="67.62" y="-29.25" font-family="Helvetica,sans-Serif" font-size="10.00">anch::rest::EndpointFunc</text>
</a>
</g>
</g>
<!-- Node1 -->
<g id="Node000001" class="node">
<title>Node1</title>
<g id="a_Node000001"><a xlink:href="classanch_1_1rest_1_1_endpoint_params_func.html" target="_top" xlink:title=" ">
<polygon fill="white" stroke="#666666" points="330.12,-72.12 181.38,-72.12 181.38,-38.62 330.12,-38.62 330.12,-72.12"/>
<text text-anchor="start" x="189.38" y="-58.62" font-family="Helvetica,sans-Serif" font-size="10.00">anch::rest::EndpointParams</text>
<text text-anchor="middle" x="255.75" y="-45.88" font-family="Helvetica,sans-Serif" font-size="10.00">Func&lt; T &gt;</text>
</a>
</g>
</g>
<!-- Node0&#45;&gt;Node1 -->
<g id="edge45_Node000000_Node000001" class="edge">
<title>Node0&#45;&gt;Node1</title>
<g id="a_edge45_Node000000_Node000001"><a xlink:title=" ">
<path fill="none" stroke="#63b8ff" d="M146.81,-42.04C158.19,-43.44 169.88,-44.89 181.16,-46.28"/>
<polygon fill="#63b8ff" stroke="#63b8ff" points="147.41,-38.58 137.06,-40.83 146.55,-45.53 147.41,-38.58"/>
</a>
</g>
</g>
<!-- Node2 -->
<g id="Node000002" class="node">
<title>Node2</title>
<g id="a_Node000002"><a xlink:href="classanch_1_1rest_1_1_endpoint_simple_func.html" target="_top" xlink:title=" ">
<polygon fill="white" stroke="#666666" points="340.25,-20.75 171.25,-20.75 171.25,0 340.25,0 340.25,-20.75"/>
<text text-anchor="middle" x="255.75" y="-7.25" font-family="Helvetica,sans-Serif" font-size="10.00">anch::rest::EndpointSimpleFunc</text>
</a>
</g>
</g>
<!-- Node0&#45;&gt;Node2 -->
<g id="edge46_Node000000_Node000002" class="edge">
<title>Node0&#45;&gt;Node2</title>
<g id="a_edge46_Node000000_Node000002"><a xlink:title=" ">
<path fill="none" stroke="#63b8ff" d="M146.73,-23.14C154.71,-22.2 162.85,-21.24 170.9,-20.29"/>
<polygon fill="#63b8ff" stroke="#63b8ff" points="146.58,-19.64 137.06,-24.29 147.4,-26.59 146.58,-19.64"/>
</a>
</g>
</g>
</g>
</svg>
