<?xml version="1.0" encoding="UTF-8" standalone="no"?>
<!DOCTYPE svg PUBLIC "-//W3C//DTD SVG 1.1//EN"
 "http://www.w3.org/Graphics/SVG/1.1/DTD/svg11.dtd">
<!-- Generated by graphviz version 14.0.0 (0)
 -->
<!-- Title: Graphical Class Hierarchy Pages: 1 -->
<svg width="273pt" height="390pt"
 viewBox="0.00 0.00 273.00 390.00" xmlns="http://www.w3.org/2000/svg" xmlns:xlink="http://www.w3.org/1999/xlink">
<g id="graph0" class="graph" transform="scale(1 1) rotate(0) translate(4 386)">
<title>Graphical Class Hierarchy</title>
<!-- Node0 -->
<g id="Node000000" class="node">
<title>Node0</title>
<g id="a_Node000000"><a xlink:href="classanch_1_1logger_1_1formatter_1_1_i_formatter.html" target="_top" xlink:title=" ">
<polygon fill="white" stroke="#666666" points="114.25,-207 0,-207 0,-175 114.25,-175 114.25,-207"/>
<text xml:space="preserve" text-anchor="start" x="8" y="-193.5" font-family="Helvetica,sans-Serif" font-size="10.00">anch::logger::formatter</text>
<text xml:space="preserve" text-anchor="middle" x="57.12" y="-181.5" font-family="Helvetica,sans-Serif" font-size="10.00">::IFormatter</text>
</a>
</g>
</g>
<!-- Node1 -->
<g id="Node000001" class="node">
<title>Node1</title>
<g id="a_Node000001"><a xlink:href="classanch_1_1logger_1_1formatter_1_1_anch_date_formatter.html" target="_top" xlink:title=" ">
<polygon fill="white" stroke="#666666" points="264.5,-382 150.25,-382 150.25,-350 264.5,-350 264.5,-382"/>
<text xml:space="preserve" text-anchor="start" x="158.25" y="-368.5" font-family="Helvetica,sans-Serif" font-size="10.00">anch::logger::formatter</text>
<text xml:space="preserve" text-anchor="middle" x="207.38" y="-356.5" font-family="Helvetica,sans-Serif" font-size="10.00">::AnchDateFormatter</text>
</a>
</g>
</g>
<!-- Node0&#45;&gt;Node1 -->
<g id="edge45_Node000000_Node000001" class="edge">
<title>Node0&#45;&gt;Node1</title>
<g id="a_edge45_Node000000_Node000001"><a xlink:title=" ">
<path fill="none" stroke="#63b8ff" d="M68.66,-217.81C82.8,-250.72 110.77,-306.41 150.25,-341 153.94,-344.23 158.12,-347.11 162.49,-349.66"/>
<polygon fill="#63b8ff" stroke="#63b8ff" points="71.9,-216.47 64.83,-208.58 65.44,-219.16 71.9,-216.47"/>
</a>
</g>
</g>
<!-- Node2 -->
<g id="Node000002" class="node">
<title>Node2</title>
<g id="a_Node000002"><a xlink:href="classanch_1_1logger_1_1formatter_1_1_category_formatter.html" target="_top" xlink:title=" ">
<polygon fill="white" stroke="#666666" points="264.5,-332 150.25,-332 150.25,-300 264.5,-300 264.5,-332"/>
<text xml:space="preserve" text-anchor="start" x="158.25" y="-318.5" font-family="Helvetica,sans-Serif" font-size="10.00">anch::logger::formatter</text>
<text xml:space="preserve" text-anchor="middle" x="207.38" y="-306.5" font-family="Helvetica,sans-Serif" font-size="10.00">::CategoryFormatter</text>
</a>
</g>
</g>
<!-- Node0&#45;&gt;Node2 -->
<g id="edge46_Node000000_Node000002" class="edge">
<title>Node0&#45;&gt;Node2</title>
<g id="a_edge46_Node000000_Node000002"><a xlink:title=" ">
<path fill="none" stroke="#63b8ff" d="M76.8,-216.55C93.93,-238.56 121.02,-270.01 150.25,-291 154.58,-294.11 159.36,-296.96 164.25,-299.53"/>
<polygon fill="#63b8ff" stroke="#63b8ff" points="79.64,-214.5 70.8,-208.67 74.07,-218.74 79.64,-214.5"/>
</a>
</g>
</g>
<!-- Node3 -->
<g id="Node000003" class="node">
<title>Node3</title>
<g id="a_Node000003"><a xlink:href="classanch_1_1logger_1_1formatter_1_1_const_formatter.html" target="_top" xlink:title=" ">
<polygon fill="white" stroke="#666666" points="264.5,-282 150.25,-282 150.25,-250 264.5,-250 264.5,-282"/>
<text xml:space="preserve" text-anchor="start" x="158.25" y="-268.5" font-family="Helvetica,sans-Serif" font-size="10.00">anch::logger::formatter</text>
<text xml:space="preserve" text-anchor="middle" x="207.38" y="-256.5" font-family="Helvetica,sans-Serif" font-size="10.00">::ConstFormatter</text>
</a>
</g>
</g>
<!-- Node0&#45;&gt;Node3 -->
<g id="edge47_Node000000_Node000003" class="edge">
<title>Node0&#45;&gt;Node3</title>
<g id="a_edge47_Node000000_Node000003"><a xlink:title=" ">
<path fill="none" stroke="#63b8ff" d="M96.63,-212.77C113.01,-221.8 132.41,-232.2 150.25,-241 156.09,-243.88 162.33,-246.8 168.45,-249.59"/>
<polygon fill="#63b8ff" stroke="#63b8ff" points="98.63,-209.88 88.19,-208.08 95.23,-216 98.63,-209.88"/>
</a>
</g>
</g>
<!-- Node4 -->
<g id="Node000004" class="node">
<title>Node4</title>
<g id="a_Node000004"><a xlink:href="classanch_1_1logger_1_1formatter_1_1_date_formatter.html" target="_top" xlink:title=" ">
<polygon fill="white" stroke="#666666" points="264.5,-232 150.25,-232 150.25,-200 264.5,-200 264.5,-232"/>
<text xml:space="preserve" text-anchor="start" x="158.25" y="-218.5" font-family="Helvetica,sans-Serif" font-size="10.00">anch::logger::formatter</text>
<text xml:space="preserve" text-anchor="middle" x="207.38" y="-206.5" font-family="Helvetica,sans-Serif" font-size="10.00">::DateFormatter</text>
</a>
</g>
</g>
<!-- Node0&#45;&gt;Node4 -->
<g id="edge48_Node000000_Node000004" class="edge">
<title>Node0&#45;&gt;Node4</title>
<g id="a_edge48_Node000000_Node000004"><a xlink:title=" ">
<path fill="none" stroke="#63b8ff" d="M125.91,-202.43C133.99,-203.79 142.17,-205.17 150.06,-206.5"/>
<polygon fill="#63b8ff" stroke="#63b8ff" points="126.53,-198.99 116.09,-200.77 125.37,-205.89 126.53,-198.99"/>
</a>
</g>
</g>
<!-- Node5 -->
<g id="Node000005" class="node">
<title>Node5</title>
<g id="a_Node000005"><a xlink:href="classanch_1_1logger_1_1formatter_1_1_level_formatter.html" target="_top" xlink:title=" ">
<polygon fill="white" stroke="#666666" points="264.5,-182 150.25,-182 150.25,-150 264.5,-150 264.5,-182"/>
<text xml:space="preserve" text-anchor="start" x="158.25" y="-168.5" font-family="Helvetica,sans-Serif" font-size="10.00">anch::logger::formatter</text>
<text xml:space="preserve" text-anchor="middle" x="207.38" y="-156.5" font-family="Helvetica,sans-Serif" font-size="10.00">::LevelFormatter</text>
</a>
</g>
</g>
<!-- Node0&#45;&gt;Node5 -->
<g id="edge49_Node000000_Node000005" class="edge">
<title>Node0&#45;&gt;Node5</title>
<g id="a_edge49_Node000000_Node000005"><a xlink:title=" ">
<path fill="none" stroke="#63b8ff" d="M125.91,-179.57C133.99,-178.21 142.17,-176.83 150.06,-175.5"/>
<polygon fill="#63b8ff" stroke="#63b8ff" points="125.37,-176.11 116.09,-181.23 126.53,-183.01 125.37,-176.11"/>
</a>
</g>
</g>
<!-- Node6 -->
<g id="Node000006" class="node">
<title>Node6</title>
<g id="a_Node000006"><a xlink:href="classanch_1_1logger_1_1formatter_1_1_m_d_c_formatter.html" target="_top" xlink:title=" ">
<polygon fill="white" stroke="#666666" points="264.5,-132 150.25,-132 150.25,-100 264.5,-100 264.5,-132"/>
<text xml:space="preserve" text-anchor="start" x="158.25" y="-118.5" font-family="Helvetica,sans-Serif" font-size="10.00">anch::logger::formatter</text>
<text xml:space="preserve" text-anchor="middle" x="207.38" y="-106.5" font-family="Helvetica,sans-Serif" font-size="10.00">::MDCFormatter</text>
</a>
</g>
</g>
<!-- Node0&#45;&gt;Node6 -->
<g id="edge50_Node000000_Node000006" class="edge">
<title>Node0&#45;&gt;Node6</title>
<g id="a_edge50_Node000000_Node000006"><a xlink:title=" ">
<path fill="none" stroke="#63b8ff" d="M96.63,-169.23C113.01,-160.2 132.41,-149.8 150.25,-141 156.09,-138.12 162.33,-135.2 168.45,-132.41"/>
<polygon fill="#63b8ff" stroke="#63b8ff" points="95.23,-166 88.19,-173.92 98.63,-172.12 95.23,-166"/>
</a>
</g>
</g>
<!-- Node7 -->
<g id="Node000007" class="node">
<title>Node7</title>
<g id="a_Node000007"><a xlink:href="classanch_1_1logger_1_1formatter_1_1_string_formatter.html" target="_top" xlink:title=" ">
<polygon fill="white" stroke="#666666" points="264.5,-82 150.25,-82 150.25,-50 264.5,-50 264.5,-82"/>
<text xml:space="preserve" text-anchor="start" x="158.25" y="-68.5" font-family="Helvetica,sans-Serif" font-size="10.00">anch::logger::formatter</text>
<text xml:space="preserve" text-anchor="middle" x="207.38" y="-56.5" font-family="Helvetica,sans-Serif" font-size="10.00">::StringFormatter</text>
</a>
</g>
</g>
<!-- Node0&#45;&gt;Node7 -->
<g id="edge51_Node000000_Node000007" class="edge">
<title>Node0&#45;&gt;Node7</title>
<g id="a_edge51_Node000000_Node000007"><a xlink:title=" ">
<path fill="none" stroke="#63b8ff" d="M76.8,-165.45C93.93,-143.44 121.02,-111.99 150.25,-91 154.58,-87.89 159.36,-85.04 164.25,-82.47"/>
<polygon fill="#63b8ff" stroke="#63b8ff" points="74.07,-163.26 70.8,-173.33 79.64,-167.5 74.07,-163.26"/>
</a>
</g>
</g>
<!-- Node8 -->
<g id="Node000008" class="node">
<title>Node8</title>
<g id="a_Node000008"><a xlink:href="classanch_1_1logger_1_1formatter_1_1_thread_id_formatter.html" target="_top" xlink:title=" ">
<polygon fill="white" stroke="#666666" points="264.5,-32 150.25,-32 150.25,0 264.5,0 264.5,-32"/>
<text xml:space="preserve" text-anchor="start" x="158.25" y="-18.5" font-family="Helvetica,sans-Serif" font-size="10.00">anch::logger::formatter</text>
<text xml:space="preserve" text-anchor="middle" x="207.38" y="-6.5" font-family="Helvetica,sans-Serif" font-size="10.00">::ThreadIdFormatter</text>
</a>
</g>
</g>
<!-- Node0&#45;&gt;Node8 -->
<g id="edge52_Node000000_Node000008" class="edge">
<title>Node0&#45;&gt;Node8</title>
<g id="a_edge52_Node000000_Node000008"><a xlink:title=" ">
<path fill="none" stroke="#63b8ff" d="M68.66,-164.19C82.8,-131.28 110.77,-75.59 150.25,-41 153.94,-37.77 158.12,-34.89 162.49,-32.34"/>
<polygon fill="#63b8ff" stroke="#63b8ff" points="65.44,-162.84 64.83,-173.42 71.9,-165.53 65.44,-162.84"/>
</a>
</g>
</g>
</g>
</svg>
