<?xml version="1.0" encoding="UTF-8" standalone="no"?>
<!DOCTYPE svg PUBLIC "-//W3C//DTD SVG 1.1//EN"
 "http://www.w3.org/Graphics/SVG/1.1/DTD/svg11.dtd">
<!-- Generated by graphviz version 12.1.2 (0)
 -->
<!-- Title: Graphical Class Hierarchy Pages: 1 -->
<svg width="308pt" height="154pt"
 viewBox="0.00 0.00 307.75 154.00" xmlns="http://www.w3.org/2000/svg" xmlns:xlink="http://www.w3.org/1999/xlink">
<g id="graph0" class="graph" transform="scale(1 1) rotate(0) translate(4 150)">
<title>Graphical Class Hierarchy</title>
<!-- Node0 -->
<g id="Node000000" class="node">
<title>Node0</title>
<g id="a_Node000000"><a xlink:href="classanch_1_1sql_1_1_result_set.html" target="_top" xlink:title="SQL result representation.">
<polygon fill="white" stroke="#666666" points="105.25,-77 0,-77 0,-57 105.25,-57 105.25,-77"/>
<text text-anchor="middle" x="52.62" y="-63.5" font-family="Helvetica,sans-Serif" font-size="10.00">anch::sql::ResultSet</text>
</a>
</g>
</g>
<!-- Node1 -->
<g id="Node000001" class="node">
<title>Node1</title>
<g id="a_Node000001"><a xlink:href="classanch_1_1sql_1_1_my_s_q_l_prepared_statement_result_set.html" target="_top" xlink:title="MySQL result set implementation for prepared statement ... shitty API.">
<polygon fill="white" stroke="#666666" points="287.38,-146 153.62,-146 153.62,-114 287.38,-114 287.38,-146"/>
<text text-anchor="start" x="161.62" y="-132.5" font-family="Helvetica,sans-Serif" font-size="10.00">anch::sql::MySQLPrepared</text>
<text text-anchor="middle" x="220.5" y="-120.5" font-family="Helvetica,sans-Serif" font-size="10.00">StatementResultSet</text>
</a>
</g>
</g>
<!-- Node0&#45;&gt;Node1 -->
<g id="edge63_Node000000_Node000001" class="edge">
<title>Node0&#45;&gt;Node1</title>
<g id="a_edge63_Node000000_Node000001"><a xlink:title=" ">
<path fill="none" stroke="#63b8ff" d="M86.2,-82.05C102.56,-89.37 122.79,-98.07 141.25,-105 149.13,-107.96 157.53,-110.88 165.8,-113.63"/>
<polygon fill="#63b8ff" stroke="#63b8ff" points="88,-79.02 77.44,-78.09 85.12,-85.4 88,-79.02"/>
</a>
</g>
</g>
<!-- Node2 -->
<g id="Node000002" class="node">
<title>Node2</title>
<g id="a_Node000002"><a xlink:href="classanch_1_1sql_1_1_my_s_q_l_result_set.html" target="_top" xlink:title="MySQL result set implementation.">
<polygon fill="white" stroke="#666666" points="289.62,-96 151.38,-96 151.38,-76 289.62,-76 289.62,-96"/>
<text text-anchor="middle" x="220.5" y="-82.5" font-family="Helvetica,sans-Serif" font-size="10.00">anch::sql::MySQLResultSet</text>
</a>
</g>
</g>
<!-- Node0&#45;&gt;Node2 -->
<g id="edge64_Node000000_Node000002" class="edge">
<title>Node0&#45;&gt;Node2</title>
<g id="a_edge64_Node000000_Node000002"><a xlink:title=" ">
<path fill="none" stroke="#63b8ff" d="M117,-74.26C128.1,-75.53 139.69,-76.86 150.92,-78.14"/>
<polygon fill="#63b8ff" stroke="#63b8ff" points="117.49,-70.79 107.16,-73.13 116.69,-77.75 117.49,-70.79"/>
</a>
</g>
</g>
<!-- Node3 -->
<g id="Node000003" class="node">
<title>Node3</title>
<g id="a_Node000003"><a xlink:href="classanch_1_1sql_1_1_postgre_s_q_l_result_set.html" target="_top" xlink:title="PostgreSQL result set implementation.">
<polygon fill="white" stroke="#666666" points="299.75,-58 141.25,-58 141.25,-38 299.75,-38 299.75,-58"/>
<text text-anchor="middle" x="220.5" y="-44.5" font-family="Helvetica,sans-Serif" font-size="10.00">anch::sql::PostgreSQLResultSet</text>
</a>
</g>
</g>
<!-- Node0&#45;&gt;Node3 -->
<g id="edge65_Node000000_Node000003" class="edge">
<title>Node0&#45;&gt;Node3</title>
<g id="a_edge65_Node000000_Node000003"><a xlink:title=" ">
<path fill="none" stroke="#63b8ff" d="M116.94,-59.75C124.79,-58.85 132.88,-57.92 140.92,-57"/>
<polygon fill="#63b8ff" stroke="#63b8ff" points="116.69,-56.25 107.16,-60.87 117.49,-63.21 116.69,-56.25"/>
</a>
</g>
</g>
<!-- Node4 -->
<g id="Node000004" class="node">
<title>Node4</title>
<g id="a_Node000004"><a xlink:href="classanch_1_1sql_1_1_s_q_lite3_result_set.html" target="_top" xlink:title="SQLite3 result set implementation.">
<polygon fill="white" stroke="#666666" points="290.75,-20 150.25,-20 150.25,0 290.75,0 290.75,-20"/>
<text text-anchor="middle" x="220.5" y="-6.5" font-family="Helvetica,sans-Serif" font-size="10.00">anch::sql::SQLite3ResultSet</text>
</a>
</g>
</g>
<!-- Node0&#45;&gt;Node4 -->
<g id="edge66_Node000000_Node000004" class="edge">
<title>Node0&#45;&gt;Node4</title>
<g id="a_edge66_Node000000_Node000004"><a xlink:title=" ">
<path fill="none" stroke="#63b8ff" d="M84.99,-51.84C101.47,-44.28 122.16,-35.4 141.25,-29 150.66,-25.84 160.87,-22.98 170.71,-20.48"/>
<polygon fill="#63b8ff" stroke="#63b8ff" points="83.78,-48.54 76.2,-55.94 86.74,-54.89 83.78,-48.54"/>
</a>
</g>
</g>
</g>
</svg>
