<?xml version="1.0" encoding="UTF-8" standalone="no"?>
<!DOCTYPE svg PUBLIC "-//W3C//DTD SVG 1.1//EN"
 "http://www.w3.org/Graphics/SVG/1.1/DTD/svg11.dtd">
<!-- Generated by graphviz version 2.40.1 (20161225.0304)
 -->
<!-- Title: Graphical Class Hierarchy Pages: 1 -->
<svg width="524pt" height="66pt"
 viewBox="0.00 0.00 524.00 66.00" xmlns="http://www.w3.org/2000/svg" xmlns:xlink="http://www.w3.org/1999/xlink">
<g id="graph0" class="graph" transform="scale(1 1) rotate(0) translate(4 62)">
<title>Graphical Class Hierarchy</title>
<!-- Node0 -->
<g id="node1" class="node">
<title>Node0</title>
<g id="a_node1"><a xlink:href="classanch_1_1events_1_1_observable.html" target="_top" xlink:title="anch::events::Observable\l\&lt; anch::network::SocketEvent \&gt;">
<polygon fill="none" stroke="#000000" points="0,-14 0,-44 175,-44 175,-14 0,-14"/>
<text text-anchor="start" x="8" y="-32" font-family="Helvetica,sans-Serif" font-size="10.00" fill="#000000">anch::events::Observable</text>
<text text-anchor="middle" x="87.5" y="-21" font-family="Helvetica,sans-Serif" font-size="10.00" fill="#000000">&lt; anch::network::SocketEvent &gt;</text>
</a>
</g>
</g>
<!-- Node1 -->
<g id="node2" class="node">
<title>Node1</title>
<g id="a_node2"><a xlink:href="classanch_1_1network_1_1_socket.html" target="_top" xlink:title="anch::network::Socket">
<polygon fill="none" stroke="#000000" points="211,-19.5 211,-38.5 336,-38.5 336,-19.5 211,-19.5"/>
<text text-anchor="middle" x="273.5" y="-26.5" font-family="Helvetica,sans-Serif" font-size="10.00" fill="#000000">anch::network::Socket</text>
</a>
</g>
</g>
<!-- Node0&#45;&gt;Node1 -->
<g id="edge1" class="edge">
<title>Node0&#45;&gt;Node1</title>
<path fill="none" stroke="#191970" d="M185.2407,-29C193.9125,-29 202.5292,-29 210.7882,-29"/>
<polygon fill="#191970" stroke="#191970" points="185.0536,-25.5001 175.0536,-29 185.0535,-32.5001 185.0536,-25.5001"/>
</g>
<!-- Node2 -->
<g id="node3" class="node">
<title>Node2</title>
<g id="a_node3"><a xlink:href="classanch_1_1network_1_1_tcp_socket.html" target="_top" xlink:title="anch::network::TcpSocket">
<polygon fill="none" stroke="#000000" points="374,-38.5 374,-57.5 514,-57.5 514,-38.5 374,-38.5"/>
<text text-anchor="middle" x="444" y="-45.5" font-family="Helvetica,sans-Serif" font-size="10.00" fill="#000000">anch::network::TcpSocket</text>
</a>
</g>
</g>
<!-- Node1&#45;&gt;Node2 -->
<g id="edge2" class="edge">
<title>Node1&#45;&gt;Node2</title>
<path fill="none" stroke="#191970" d="M346.2058,-37.1021C355.3217,-38.118 364.6332,-39.1556 373.711,-40.1672"/>
<polygon fill="#191970" stroke="#191970" points="346.3459,-33.5961 336.0198,-35.967 345.5706,-40.5531 346.3459,-33.5961"/>
</g>
<!-- Node3 -->
<g id="node4" class="node">
<title>Node3</title>
<g id="a_node4"><a xlink:href="classanch_1_1network_1_1_udp_socket.html" target="_top" xlink:title="anch::network::UdpSocket">
<polygon fill="none" stroke="#000000" points="372,-.5 372,-19.5 516,-19.5 516,-.5 372,-.5"/>
<text text-anchor="middle" x="444" y="-7.5" font-family="Helvetica,sans-Serif" font-size="10.00" fill="#000000">anch::network::UdpSocket</text>
</a>
</g>
</g>
<!-- Node1&#45;&gt;Node3 -->
<g id="edge3" class="edge">
<title>Node1&#45;&gt;Node3</title>
<path fill="none" stroke="#191970" d="M346.0076,-20.92C354.6033,-19.9621 363.3758,-18.9845 371.9649,-18.0274"/>
<polygon fill="#191970" stroke="#191970" points="345.5706,-17.4469 336.0198,-22.033 346.3459,-24.4039 345.5706,-17.4469"/>
</g>
</g>
</svg>
