<?xml version="1.0" encoding="UTF-8" standalone="no"?>
<!DOCTYPE svg PUBLIC "-//W3C//DTD SVG 1.1//EN"
 "http://www.w3.org/Graphics/SVG/1.1/DTD/svg11.dtd">
<!-- Generated by graphviz version 7.0.6 (0)
 -->
<!-- Title: Graphical Class Hierarchy Pages: 1 -->
<svg width="296pt" height="395pt"
 viewBox="0.00 0.00 296.00 395.00" xmlns="http://www.w3.org/2000/svg" xmlns:xlink="http://www.w3.org/1999/xlink">
<g id="graph0" class="graph" transform="scale(1 1) rotate(0) translate(4 391)">
<title>Graphical Class Hierarchy</title>
<!-- Node0 -->
<g id="node1" class="node">
<title>Node0</title>
<g id="a_node1"><a xlink:title=" ">
<polygon fill="#e0e0e0" stroke="#999999" points="86,-197 0,-197 0,-178 86,-178 86,-197"/>
<text text-anchor="middle" x="43" y="-185" font-family="Helvetica,sans-Serif" font-size="10.00">std::exception</text>
</a>
</g>
</g>
<!-- Node1 -->
<g id="node2" class="node">
<title>Node1</title>
<g id="a_node2"><a xlink:href="classanch_1_1_timeout_exception.html" target="_top" xlink:title="Timeout exception.">
<polygon fill="white" stroke="#666666" points="272,-387 138,-387 138,-368 272,-368 272,-387"/>
<text text-anchor="middle" x="205" y="-375" font-family="Helvetica,sans-Serif" font-size="10.00">anch::TimeoutException</text>
</a>
</g>
</g>
<!-- Node0&#45;&gt;Node1 -->
<g id="edge1" class="edge">
<title>Node0&#45;&gt;Node1</title>
<path fill="none" stroke="#8b1a1a" d="M47.45,-208.63C54.55,-245.07 74.32,-319.52 122,-358.5 126.75,-362.38 132.15,-365.51 137.86,-368.01"/>
<polygon fill="#8b1a1a" stroke="#8b1a1a" points="50.92,-208.17 45.71,-198.94 44.03,-209.41 50.92,-208.17"/>
</g>
<!-- Node2 -->
<g id="node3" class="node">
<title>Node2</title>
<g id="a_node3"><a xlink:href="classanch_1_1crypto_1_1_invalid_block_exception.html" target="_top" xlink:title="Exception on receiving an invalid block.">
<polygon fill="white" stroke="#666666" points="276.5,-349.5 133.5,-349.5 133.5,-319.5 276.5,-319.5 276.5,-349.5"/>
<text text-anchor="start" x="141.5" y="-337.5" font-family="Helvetica,sans-Serif" font-size="10.00">anch::crypto::InvalidBlock</text>
<text text-anchor="middle" x="205" y="-326.5" font-family="Helvetica,sans-Serif" font-size="10.00">Exception</text>
</a>
</g>
</g>
<!-- Node0&#45;&gt;Node2 -->
<g id="edge2" class="edge">
<title>Node0&#45;&gt;Node2</title>
<path fill="none" stroke="#63b8ff" d="M51.52,-207.8C62.69,-235.18 86.27,-283.61 122,-310.5 126.39,-313.8 131.22,-316.65 136.27,-319.11"/>
<polygon fill="#63b8ff" stroke="#63b8ff" points="54.81,-206.62 47.92,-198.57 48.29,-209.16 54.81,-206.62"/>
</g>
<!-- Node3 -->
<g id="node4" class="node">
<title>Node3</title>
<g id="a_node4"><a xlink:href="classanch_1_1date_1_1_invalid_format_exception.html" target="_top" xlink:title="Invalid date format error.">
<polygon fill="white" stroke="#666666" points="275.5,-301.5 134.5,-301.5 134.5,-271.5 275.5,-271.5 275.5,-301.5"/>
<text text-anchor="start" x="142.5" y="-289.5" font-family="Helvetica,sans-Serif" font-size="10.00">anch::date::InvalidFormat</text>
<text text-anchor="middle" x="205" y="-278.5" font-family="Helvetica,sans-Serif" font-size="10.00">Exception</text>
</a>
</g>
</g>
<!-- Node0&#45;&gt;Node3 -->
<g id="edge3" class="edge">
<title>Node0&#45;&gt;Node3</title>
<path fill="none" stroke="#63b8ff" d="M58.54,-205.86C72.95,-222.87 96.49,-247.72 122,-262.5 127.65,-265.77 133.77,-268.63 140.05,-271.12"/>
<polygon fill="#63b8ff" stroke="#63b8ff" points="61.54,-204 52.49,-198.5 56.13,-208.44 61.54,-204"/>
</g>
<!-- Node4 -->
<g id="node5" class="node">
<title>Node4</title>
<g id="a_node5"><a xlink:href="classanch_1_1device_1_1_device_exception.html" target="_top" xlink:title=" ">
<polygon fill="white" stroke="#666666" points="288,-253 122,-253 122,-234 288,-234 288,-253"/>
<text text-anchor="middle" x="205" y="-241" font-family="Helvetica,sans-Serif" font-size="10.00">anch::device::DeviceException</text>
</a>
</g>
</g>
<!-- Node0&#45;&gt;Node4 -->
<g id="edge4" class="edge">
<title>Node0&#45;&gt;Node4</title>
<path fill="none" stroke="#63b8ff" d="M71.36,-202.81C86.02,-210.5 104.6,-219.45 122,-225.5 130.95,-228.61 140.64,-231.3 150.12,-233.59"/>
<polygon fill="#63b8ff" stroke="#63b8ff" points="73.25,-199.86 62.79,-198.21 69.94,-206.02 73.25,-199.86"/>
</g>
<!-- Node5 -->
<g id="node6" class="node">
<title>Node5</title>
<g id="a_node6"><a xlink:href="classanch_1_1json_1_1_mapping_error.html" target="_top" xlink:title="Mapping error.">
<polygon fill="white" stroke="#666666" points="273.5,-216 136.5,-216 136.5,-197 273.5,-197 273.5,-216"/>
<text text-anchor="middle" x="205" y="-204" font-family="Helvetica,sans-Serif" font-size="10.00">anch::json::MappingError</text>
</a>
</g>
</g>
<!-- Node0&#45;&gt;Node5 -->
<g id="edge5" class="edge">
<title>Node0&#45;&gt;Node5</title>
<path fill="none" stroke="#63b8ff" d="M97.55,-193.86C109.96,-195.33 123.33,-196.92 136.26,-198.46"/>
<polygon fill="#63b8ff" stroke="#63b8ff" points="98.3,-190.42 87.96,-192.72 97.48,-197.38 98.3,-190.42"/>
</g>
<!-- Node6 -->
<g id="node7" class="node">
<title>Node6</title>
<g id="a_node7"><a xlink:href="classanch_1_1network_1_1_i_o_exception.html" target="_top" xlink:title=" ">
<polygon fill="white" stroke="#666666" points="280,-179 130,-179 130,-160 280,-160 280,-179"/>
<text text-anchor="middle" x="205" y="-167" font-family="Helvetica,sans-Serif" font-size="10.00">anch::network::IOException</text>
</a>
</g>
</g>
<!-- Node0&#45;&gt;Node6 -->
<g id="edge6" class="edge">
<title>Node0&#45;&gt;Node6</title>
<path fill="none" stroke="#63b8ff" d="M97.75,-181.45C108.04,-180.3 118.98,-179.06 129.78,-177.85"/>
<polygon fill="#63b8ff" stroke="#63b8ff" points="97.51,-177.96 87.96,-182.55 98.29,-184.91 97.51,-177.96"/>
</g>
<!-- Node7 -->
<g id="node8" class="node">
<title>Node7</title>
<g id="a_node8"><a xlink:href="classanch_1_1resource_1_1file_1_1_resource_file_exception.html" target="_top" xlink:title=" ">
<polygon fill="white" stroke="#666666" points="271.5,-141.5 138.5,-141.5 138.5,-111.5 271.5,-111.5 271.5,-141.5"/>
<text text-anchor="start" x="146.5" y="-129.5" font-family="Helvetica,sans-Serif" font-size="10.00">anch::resource::file</text>
<text text-anchor="middle" x="205" y="-118.5" font-family="Helvetica,sans-Serif" font-size="10.00">::ResourceFileException</text>
</a>
</g>
</g>
<!-- Node0&#45;&gt;Node7 -->
<g id="edge7" class="edge">
<title>Node0&#45;&gt;Node7</title>
<path fill="none" stroke="#63b8ff" d="M73.84,-172.57C88.2,-165.68 105.79,-157.68 122,-151.5 130.9,-148.11 140.48,-144.85 149.83,-141.87"/>
<polygon fill="#63b8ff" stroke="#63b8ff" points="72.38,-169.38 64.92,-176.91 75.44,-175.68 72.38,-169.38"/>
</g>
<!-- Node8 -->
<g id="node9" class="node">
<title>Node8</title>
<g id="a_node9"><a xlink:href="classanch_1_1rest_1_1_mapper_exception.html" target="_top" xlink:title=" ">
<polygon fill="white" stroke="#666666" points="282.5,-93 127.5,-93 127.5,-74 282.5,-74 282.5,-93"/>
<text text-anchor="middle" x="205" y="-81" font-family="Helvetica,sans-Serif" font-size="10.00">anch::rest::MapperException</text>
</a>
</g>
</g>
<!-- Node0&#45;&gt;Node8 -->
<g id="edge8" class="edge">
<title>Node0&#45;&gt;Node8</title>
<path fill="none" stroke="#63b8ff" d="M56.51,-168.11C70.21,-148.51 93.99,-118.84 122,-102.5 128.31,-98.82 135.29,-95.85 142.42,-93.46"/>
<polygon fill="#63b8ff" stroke="#63b8ff" points="53.67,-166.07 50.99,-176.32 59.48,-169.98 53.67,-166.07"/>
</g>
<!-- Node9 -->
<g id="node10" class="node">
<title>Node9</title>
<g id="a_node10"><a xlink:href="classanch_1_1rest_1_1_router_exception.html" target="_top" xlink:title="REST router exception class.">
<polygon fill="white" stroke="#666666" points="280.5,-56 129.5,-56 129.5,-37 280.5,-37 280.5,-56"/>
<text text-anchor="middle" x="205" y="-44" font-family="Helvetica,sans-Serif" font-size="10.00">anch::rest::RouterException</text>
</a>
</g>
</g>
<!-- Node0&#45;&gt;Node9 -->
<g id="edge9" class="edge">
<title>Node0&#45;&gt;Node9</title>
<path fill="none" stroke="#63b8ff" d="M51.35,-167.07C62.32,-139.57 85.69,-91.14 122,-65.5 127.25,-61.79 133.12,-58.8 139.24,-56.38"/>
<polygon fill="#63b8ff" stroke="#63b8ff" points="48.1,-165.76 47.82,-176.35 54.65,-168.24 48.1,-165.76"/>
</g>
<!-- Node10 -->
<g id="node11" class="node">
<title>Node10</title>
<g id="a_node11"><a xlink:href="classanch_1_1sql_1_1_sql_exception.html" target="_top" xlink:title="SQL exception.">
<polygon fill="white" stroke="#666666" points="269.5,-19 140.5,-19 140.5,0 269.5,0 269.5,-19"/>
<text text-anchor="middle" x="205" y="-7" font-family="Helvetica,sans-Serif" font-size="10.00">anch::sql::SqlException</text>
</a>
</g>
</g>
<!-- Node0&#45;&gt;Node10 -->
<g id="edge10" class="edge">
<title>Node0&#45;&gt;Node10</title>
<path fill="none" stroke="#63b8ff" d="M48.13,-166.88C56.1,-132.64 76.97,-64.26 122,-28.5 127.38,-24.23 133.55,-20.88 140.03,-18.27"/>
<polygon fill="#63b8ff" stroke="#63b8ff" points="44.77,-165.84 46.07,-176.35 51.61,-167.32 44.77,-165.84"/>
</g>
</g>
</svg>
