<?xml version="1.0" encoding="UTF-8" standalone="no"?>
<!DOCTYPE svg PUBLIC "-//W3C//DTD SVG 1.1//EN"
 "http://www.w3.org/Graphics/SVG/1.1/DTD/svg11.dtd">
<!-- Generated by graphviz version 2.49.3 (0)
 -->
<!-- Title: Graphical Class Hierarchy Pages: 1 -->
<svg width="487pt" height="66pt"
 viewBox="0.00 0.00 487.00 66.00" xmlns="http://www.w3.org/2000/svg" xmlns:xlink="http://www.w3.org/1999/xlink">
<g id="graph0" class="graph" transform="scale(1 1) rotate(0) translate(4 62)">
<title>Graphical Class Hierarchy</title>
<!-- Node0 -->
<g id="node1" class="node">
<title>Node0</title>
<g id="a_node1"><a xlink:href="classanch_1_1events_1_1_observable.html" target="_top" xlink:title=" ">
<polygon fill="none" stroke="black" points="0,-14 0,-44 140,-44 140,-14 0,-14"/>
<text text-anchor="start" x="8" y="-32" font-family="Helvetica,sans-Serif" font-size="10.00">anch::events::Observable</text>
<text text-anchor="middle" x="70" y="-21" font-family="Helvetica,sans-Serif" font-size="10.00">&lt; SocketEvent &gt;</text>
</a>
</g>
</g>
<!-- Node1 -->
<g id="node2" class="node">
<title>Node1</title>
<g id="a_node2"><a xlink:href="classanch_1_1network_1_1_socket.html" target="_top" xlink:title=" ">
<polygon fill="none" stroke="black" points="176,-19.5 176,-38.5 300,-38.5 300,-19.5 176,-19.5"/>
<text text-anchor="middle" x="238" y="-26.5" font-family="Helvetica,sans-Serif" font-size="10.00">anch::network::Socket</text>
</a>
</g>
</g>
<!-- Node0&#45;&gt;Node1 -->
<g id="edge1" class="edge">
<title>Node0&#45;&gt;Node1</title>
<path fill="none" stroke="midnightblue" d="M150.68,-29C159.11,-29 167.59,-29 175.76,-29"/>
<polygon fill="midnightblue" stroke="midnightblue" points="150.44,-25.5 140.44,-29 150.44,-32.5 150.44,-25.5"/>
</g>
<!-- Node2 -->
<g id="node3" class="node">
<title>Node2</title>
<g id="a_node3"><a xlink:href="classanch_1_1network_1_1_tcp_socket.html" target="_top" xlink:title=" ">
<polygon fill="none" stroke="black" points="337.5,-38.5 337.5,-57.5 477.5,-57.5 477.5,-38.5 337.5,-38.5"/>
<text text-anchor="middle" x="407.5" y="-45.5" font-family="Helvetica,sans-Serif" font-size="10.00">anch::network::TcpSocket</text>
</a>
</g>
</g>
<!-- Node1&#45;&gt;Node2 -->
<g id="edge2" class="edge">
<title>Node1&#45;&gt;Node2</title>
<path fill="none" stroke="midnightblue" d="M310.43,-37.1C319.38,-38.12 328.53,-39.16 337.45,-40.17"/>
<polygon fill="midnightblue" stroke="midnightblue" points="310.75,-33.62 300.42,-35.97 309.96,-40.57 310.75,-33.62"/>
</g>
<!-- Node3 -->
<g id="node4" class="node">
<title>Node3</title>
<g id="a_node4"><a xlink:href="classanch_1_1network_1_1_udp_socket.html" target="_top" xlink:title=" ">
<polygon fill="none" stroke="black" points="336,-0.5 336,-19.5 479,-19.5 479,-0.5 336,-0.5"/>
<text text-anchor="middle" x="407.5" y="-7.5" font-family="Helvetica,sans-Serif" font-size="10.00">anch::network::UdpSocket</text>
</a>
</g>
</g>
<!-- Node1&#45;&gt;Node3 -->
<g id="edge3" class="edge">
<title>Node1&#45;&gt;Node3</title>
<path fill="none" stroke="midnightblue" d="M310.51,-20.89C318.86,-19.94 327.39,-18.97 335.73,-18.03"/>
<polygon fill="midnightblue" stroke="midnightblue" points="309.96,-17.43 300.42,-22.03 310.75,-24.38 309.96,-17.43"/>
</g>
</g>
</svg>
