<?xml version="1.0" encoding="UTF-8" standalone="no"?>
<!DOCTYPE svg PUBLIC "-//W3C//DTD SVG 1.1//EN"
 "http://www.w3.org/Graphics/SVG/1.1/DTD/svg11.dtd">
<!-- Generated by graphviz version 2.44.1 (0)
 -->
<!-- Title: Graphical Class Hierarchy Pages: 1 -->
<svg width="445pt" height="149pt"
 viewBox="0.00 0.00 445.00 149.00" xmlns="http://www.w3.org/2000/svg" xmlns:xlink="http://www.w3.org/1999/xlink">
<g id="graph0" class="graph" transform="scale(1 1) rotate(0) translate(4 145)">
<title>Graphical Class Hierarchy</title>
<!-- Node0 -->
<g id="node1" class="node">
<title>Node0</title>
<g id="a_node1"><a xlink:href="classanch_1_1crypto_1_1_hash.html" target="_top" xlink:title="Hash algorithm abstract class.">
<polygon fill="none" stroke="black" points="0,-55.5 0,-85.5 107,-85.5 107,-55.5 0,-55.5"/>
<text text-anchor="start" x="8" y="-73.5" font-family="Helvetica,sans-Serif" font-size="10.00">anch::crypto::Hash</text>
<text text-anchor="middle" x="53.5" y="-62.5" font-family="Helvetica,sans-Serif" font-size="10.00">&lt; O, B &gt;</text>
</a>
</g>
</g>
<!-- Node1 -->
<g id="node2" class="node">
<title>Node1</title>
<g id="a_node2"><a xlink:href="classanch_1_1crypto_1_1_s_h_a2.html" target="_top" xlink:title="SHA2 abstract class.">
<polygon fill="none" stroke="black" points="157,-110.5 157,-140.5 266,-140.5 266,-110.5 157,-110.5"/>
<text text-anchor="start" x="165" y="-128.5" font-family="Helvetica,sans-Serif" font-size="10.00">anch::crypto::SHA2</text>
<text text-anchor="middle" x="211.5" y="-117.5" font-family="Helvetica,sans-Serif" font-size="10.00">&lt; O, B, W, R, I &gt;</text>
</a>
</g>
</g>
<!-- Node0&#45;&gt;Node1 -->
<g id="edge1" class="edge">
<title>Node0&#45;&gt;Node1</title>
<path fill="none" stroke="midnightblue" d="M106.67,-88.89C126.58,-95.91 149.01,-103.82 167.92,-110.49"/>
<polygon fill="midnightblue" stroke="midnightblue" points="107.72,-85.55 97.13,-85.53 105.39,-92.15 107.72,-85.55"/>
</g>
<!-- Node2 -->
<g id="node3" class="node">
<title>Node2</title>
<g id="a_node3"><a xlink:href="classanch_1_1crypto_1_1_s_h_a2.html" target="_top" xlink:title=" ">
<polygon fill="none" stroke="black" points="157,-50 157,-91 266,-91 266,-50 157,-50"/>
<text text-anchor="start" x="165" y="-79" font-family="Helvetica,sans-Serif" font-size="10.00">anch::crypto::SHA2</text>
<text text-anchor="start" x="165" y="-68" font-family="Helvetica,sans-Serif" font-size="10.00">&lt; O, 128, uint64_t,</text>
<text text-anchor="middle" x="211.5" y="-57" font-family="Helvetica,sans-Serif" font-size="10.00"> 80, I &gt;</text>
</a>
</g>
</g>
<!-- Node0&#45;&gt;Node2 -->
<g id="edge2" class="edge">
<title>Node0&#45;&gt;Node2</title>
<path fill="none" stroke="midnightblue" d="M117.62,-70.5C130.66,-70.5 144.28,-70.5 156.94,-70.5"/>
<polygon fill="midnightblue" stroke="midnightblue" points="117.31,-67 107.31,-70.5 117.31,-74 117.31,-67"/>
</g>
<!-- Node4 -->
<g id="node5" class="node">
<title>Node4</title>
<g id="a_node5"><a xlink:href="classanch_1_1crypto_1_1_s_h_a2.html" target="_top" xlink:title=" ">
<polygon fill="none" stroke="black" points="143,-0.5 143,-30.5 280,-30.5 280,-0.5 143,-0.5"/>
<text text-anchor="start" x="151" y="-18.5" font-family="Helvetica,sans-Serif" font-size="10.00">anch::crypto::SHA2</text>
<text text-anchor="middle" x="211.5" y="-7.5" font-family="Helvetica,sans-Serif" font-size="10.00">&lt; O, 64, uint32_t, 64, I &gt;</text>
</a>
</g>
</g>
<!-- Node0&#45;&gt;Node4 -->
<g id="edge4" class="edge">
<title>Node0&#45;&gt;Node4</title>
<path fill="none" stroke="midnightblue" d="M106.67,-52.11C126.58,-45.09 149.01,-37.18 167.92,-30.51"/>
<polygon fill="midnightblue" stroke="midnightblue" points="105.39,-48.85 97.13,-55.47 107.72,-55.45 105.39,-48.85"/>
</g>
<!-- Node3 -->
<g id="node4" class="node">
<title>Node3</title>
<g id="a_node4"><a xlink:href="classanch_1_1crypto_1_1_s_h_a384__512.html" target="_top" xlink:title="SHA2 384/512 implementation.">
<polygon fill="none" stroke="black" points="316,-55.5 316,-85.5 437,-85.5 437,-55.5 316,-55.5"/>
<text text-anchor="start" x="324" y="-73.5" font-family="Helvetica,sans-Serif" font-size="10.00">anch::crypto::SHA384</text>
<text text-anchor="middle" x="376.5" y="-62.5" font-family="Helvetica,sans-Serif" font-size="10.00">_512&lt; O, I &gt;</text>
</a>
</g>
</g>
<!-- Node2&#45;&gt;Node3 -->
<g id="edge3" class="edge">
<title>Node2&#45;&gt;Node3</title>
<path fill="none" stroke="midnightblue" d="M276.54,-70.5C289.48,-70.5 303.04,-70.5 315.83,-70.5"/>
<polygon fill="midnightblue" stroke="midnightblue" points="276.32,-67 266.32,-70.5 276.32,-74 276.32,-67"/>
</g>
<!-- Node5 -->
<g id="node6" class="node">
<title>Node5</title>
<g id="a_node6"><a xlink:href="classanch_1_1crypto_1_1_s_h_a224__256.html" target="_top" xlink:title="SHA2 224/256 implementation.">
<polygon fill="none" stroke="black" points="316,-0.5 316,-30.5 437,-30.5 437,-0.5 316,-0.5"/>
<text text-anchor="start" x="324" y="-18.5" font-family="Helvetica,sans-Serif" font-size="10.00">anch::crypto::SHA224</text>
<text text-anchor="middle" x="376.5" y="-7.5" font-family="Helvetica,sans-Serif" font-size="10.00">_256&lt; O, I &gt;</text>
</a>
</g>
</g>
<!-- Node4&#45;&gt;Node5 -->
<g id="edge5" class="edge">
<title>Node4&#45;&gt;Node5</title>
<path fill="none" stroke="midnightblue" d="M290.25,-15.5C298.83,-15.5 307.48,-15.5 315.8,-15.5"/>
<polygon fill="midnightblue" stroke="midnightblue" points="290.21,-12 280.21,-15.5 290.21,-19 290.21,-12"/>
</g>
</g>
</svg>
