<?xml version="1.0" encoding="UTF-8" standalone="no"?>
<!DOCTYPE svg PUBLIC "-//W3C//DTD SVG 1.1//EN"
 "http://www.w3.org/Graphics/SVG/1.1/DTD/svg11.dtd">
<!-- Generated by graphviz version 8.0.1 (0)
 -->
<!-- Title: Graphical Class Hierarchy Pages: 1 -->
<svg width="296pt" height="432pt"
 viewBox="0.00 0.00 296.00 432.00" xmlns="http://www.w3.org/2000/svg" xmlns:xlink="http://www.w3.org/1999/xlink">
<g id="graph0" class="graph" transform="scale(1 1) rotate(0) translate(4 428)">
<title>Graphical Class Hierarchy</title>
<!-- Node0 -->
<g id="node1" class="node">
<title>Node0</title>
<g id="a_node1"><a xlink:title=" ">
<polygon fill="#e0e0e0" stroke="#999999" points="86,-216 0,-216 0,-197 86,-197 86,-216"/>
<text text-anchor="middle" x="43" y="-204" font-family="Helvetica,sans-Serif" font-size="10.00">std::exception</text>
</a>
</g>
</g>
<!-- Node1 -->
<g id="node2" class="node">
<title>Node1</title>
<g id="a_node2"><a xlink:href="classanch_1_1_timeout_exception.html" target="_top" xlink:title="Timeout exception.">
<polygon fill="white" stroke="#666666" points="272,-424 138,-424 138,-405 272,-405 272,-424"/>
<text text-anchor="middle" x="205" y="-412" font-family="Helvetica,sans-Serif" font-size="10.00">anch::TimeoutException</text>
</a>
</g>
</g>
<!-- Node0&#45;&gt;Node1 -->
<g id="edge1" class="edge">
<title>Node0&#45;&gt;Node1</title>
<path fill="none" stroke="#8b1a1a" d="M46.31,-226.84C51.86,-265.81 69.62,-351.06 122,-395.5 126.68,-399.47 132.03,-402.65 137.71,-405.19"/>
<polygon fill="#8b1a1a" stroke="#8b1a1a" points="49.68,-226.6 44.93,-217.12 42.74,-227.49 49.68,-226.6"/>
</g>
<!-- Node2 -->
<g id="node3" class="node">
<title>Node2</title>
<g id="a_node3"><a xlink:href="classanch_1_1crypto_1_1_invalid_block_exception.html" target="_top" xlink:title="Exception on receiving an invalid block.">
<polygon fill="white" stroke="#666666" points="276.5,-386.5 133.5,-386.5 133.5,-356.5 276.5,-356.5 276.5,-386.5"/>
<text text-anchor="start" x="141.5" y="-374.5" font-family="Helvetica,sans-Serif" font-size="10.00">anch::crypto::InvalidBlock</text>
<text text-anchor="middle" x="205" y="-363.5" font-family="Helvetica,sans-Serif" font-size="10.00">Exception</text>
</a>
</g>
</g>
<!-- Node0&#45;&gt;Node2 -->
<g id="edge2" class="edge">
<title>Node0&#45;&gt;Node2</title>
<path fill="none" stroke="#63b8ff" d="M49.71,-226.72C59.43,-257.42 82.11,-315.56 122,-347.5 126.17,-350.84 130.79,-353.71 135.64,-356.18"/>
<polygon fill="#63b8ff" stroke="#63b8ff" points="52.85,-225.98 46.62,-217.41 46.14,-228 52.85,-225.98"/>
</g>
<!-- Node3 -->
<g id="node4" class="node">
<title>Node3</title>
<g id="a_node4"><a xlink:href="classanch_1_1date_1_1_invalid_format_exception.html" target="_top" xlink:title="Invalid date format error.">
<polygon fill="white" stroke="#666666" points="275.5,-338.5 134.5,-338.5 134.5,-308.5 275.5,-308.5 275.5,-338.5"/>
<text text-anchor="start" x="142.5" y="-326.5" font-family="Helvetica,sans-Serif" font-size="10.00">anch::date::InvalidFormat</text>
<text text-anchor="middle" x="205" y="-315.5" font-family="Helvetica,sans-Serif" font-size="10.00">Exception</text>
</a>
</g>
</g>
<!-- Node0&#45;&gt;Node3 -->
<g id="edge3" class="edge">
<title>Node0&#45;&gt;Node3</title>
<path fill="none" stroke="#63b8ff" d="M55.11,-225.53C68.41,-246.65 92.59,-280.28 122,-299.5 126.97,-302.75 132.38,-305.56 137.99,-308.01"/>
<polygon fill="#63b8ff" stroke="#63b8ff" points="57.68,-224.01 49.49,-217.29 51.7,-227.65 57.68,-224.01"/>
</g>
<!-- Node4 -->
<g id="node5" class="node">
<title>Node4</title>
<g id="a_node5"><a xlink:href="classanch_1_1device_1_1_device_exception.html" target="_top" xlink:title=" ">
<polygon fill="white" stroke="#666666" points="288,-290 122,-290 122,-271 288,-271 288,-290"/>
<text text-anchor="middle" x="205" y="-278" font-family="Helvetica,sans-Serif" font-size="10.00">anch::device::DeviceException</text>
</a>
</g>
</g>
<!-- Node0&#45;&gt;Node4 -->
<g id="edge4" class="edge">
<title>Node0&#45;&gt;Node4</title>
<path fill="none" stroke="#63b8ff" d="M62.68,-223.29C77.69,-235.89 99.85,-252.63 122,-262.5 129.19,-265.7 136.99,-268.36 144.83,-270.55"/>
<polygon fill="#63b8ff" stroke="#63b8ff" points="65.59,-220.3 55.73,-216.42 61.01,-225.6 65.59,-220.3"/>
</g>
<!-- Node5 -->
<g id="node6" class="node">
<title>Node5</title>
<g id="a_node6"><a xlink:href="classanch_1_1json_1_1_mapping_error.html" target="_top" xlink:title="Mapping error.">
<polygon fill="white" stroke="#666666" points="273.5,-253 136.5,-253 136.5,-234 273.5,-234 273.5,-253"/>
<text text-anchor="middle" x="205" y="-241" font-family="Helvetica,sans-Serif" font-size="10.00">anch::json::MappingError</text>
</a>
</g>
</g>
<!-- Node0&#45;&gt;Node5 -->
<g id="edge5" class="edge">
<title>Node0&#45;&gt;Node5</title>
<path fill="none" stroke="#63b8ff" d="M94.56,-218.99C103.68,-221.2 113.12,-223.44 122,-225.5 133.64,-228.2 146.24,-231.01 157.99,-233.59"/>
<polygon fill="#63b8ff" stroke="#63b8ff" points="95.58,-215.4 85.04,-216.44 93.93,-222.2 95.58,-215.4"/>
</g>
<!-- Node6 -->
<g id="node7" class="node">
<title>Node6</title>
<g id="a_node7"><a xlink:href="classanch_1_1network_1_1_i_o_exception.html" target="_top" xlink:title=" ">
<polygon fill="white" stroke="#666666" points="280,-216 130,-216 130,-197 280,-197 280,-216"/>
<text text-anchor="middle" x="205" y="-204" font-family="Helvetica,sans-Serif" font-size="10.00">anch::network::IOException</text>
</a>
</g>
</g>
<!-- Node0&#45;&gt;Node6 -->
<g id="edge6" class="edge">
<title>Node0&#45;&gt;Node6</title>
<path fill="none" stroke="#63b8ff" d="M97.42,-206.5C107.81,-206.5 118.87,-206.5 129.78,-206.5"/>
<polygon fill="#63b8ff" stroke="#63b8ff" points="97.46,-203 87.46,-206.5 97.46,-210 97.46,-203"/>
</g>
<!-- Node7 -->
<g id="node8" class="node">
<title>Node7</title>
<g id="a_node8"><a xlink:href="classanch_1_1resource_1_1file_1_1_resource_file_exception.html" target="_top" xlink:title=" ">
<polygon fill="white" stroke="#666666" points="271.5,-178.5 138.5,-178.5 138.5,-148.5 271.5,-148.5 271.5,-178.5"/>
<text text-anchor="start" x="146.5" y="-166.5" font-family="Helvetica,sans-Serif" font-size="10.00">anch::resource::file</text>
<text text-anchor="middle" x="205" y="-155.5" font-family="Helvetica,sans-Serif" font-size="10.00">::ResourceFileException</text>
</a>
</g>
</g>
<!-- Node0&#45;&gt;Node7 -->
<g id="edge7" class="edge">
<title>Node0&#45;&gt;Node7</title>
<path fill="none" stroke="#63b8ff" d="M91.49,-193.74C108.73,-189.1 128.39,-183.82 146.41,-178.98"/>
<polygon fill="#63b8ff" stroke="#63b8ff" points="90.86,-190.55 82.11,-196.53 92.68,-197.31 90.86,-190.55"/>
</g>
<!-- Node8 -->
<g id="node9" class="node">
<title>Node8</title>
<g id="a_node9"><a xlink:href="classanch_1_1rest_1_1_mapper_exception.html" target="_top" xlink:title=" ">
<polygon fill="white" stroke="#666666" points="282.5,-130 127.5,-130 127.5,-111 282.5,-111 282.5,-130"/>
<text text-anchor="middle" x="205" y="-118" font-family="Helvetica,sans-Serif" font-size="10.00">anch::rest::MapperException</text>
</a>
</g>
</g>
<!-- Node0&#45;&gt;Node8 -->
<g id="edge8" class="edge">
<title>Node0&#45;&gt;Node8</title>
<path fill="none" stroke="#63b8ff" d="M59.72,-188.85C74.36,-173.52 97.54,-151.88 122,-139.5 129.3,-135.8 137.33,-132.81 145.42,-130.4"/>
<polygon fill="#63b8ff" stroke="#63b8ff" points="57.75,-185.91 53.52,-195.62 62.88,-190.67 57.75,-185.91"/>
</g>
<!-- Node9 -->
<g id="node10" class="node">
<title>Node9</title>
<g id="a_node10"><a xlink:href="classanch_1_1rest_1_1_router_exception.html" target="_top" xlink:title="REST router exception class.">
<polygon fill="white" stroke="#666666" points="280.5,-93 129.5,-93 129.5,-74 280.5,-74 280.5,-93"/>
<text text-anchor="middle" x="205" y="-81" font-family="Helvetica,sans-Serif" font-size="10.00">anch::rest::RouterException</text>
</a>
</g>
</g>
<!-- Node0&#45;&gt;Node9 -->
<g id="edge9" class="edge">
<title>Node0&#45;&gt;Node9</title>
<path fill="none" stroke="#63b8ff" d="M53.24,-186.98C65.53,-163.22 89.53,-123.66 122,-102.5 127.63,-98.83 133.89,-95.87 140.36,-93.47"/>
<polygon fill="#63b8ff" stroke="#63b8ff" points="49.75,-185.15 48.43,-195.66 56.01,-188.26 49.75,-185.15"/>
</g>
<!-- Node10 -->
<g id="node11" class="node">
<title>Node10</title>
<g id="a_node11"><a xlink:href="classanch_1_1sql_1_1_sql_exception.html" target="_top" xlink:title="SQL exception.">
<polygon fill="white" stroke="#666666" points="269.5,-56 140.5,-56 140.5,-37 269.5,-37 269.5,-56"/>
<text text-anchor="middle" x="205" y="-44" font-family="Helvetica,sans-Serif" font-size="10.00">anch::sql::SqlException</text>
</a>
</g>
</g>
<!-- Node0&#45;&gt;Node10 -->
<g id="edge10" class="edge">
<title>Node0&#45;&gt;Node10</title>
<path fill="none" stroke="#63b8ff" d="M49.36,-186.45C58.7,-155.5 81.02,-96.44 122,-65.5 127.48,-61.36 133.71,-58.1 140.24,-55.54"/>
<polygon fill="#63b8ff" stroke="#63b8ff" points="45.78,-185.24 46.4,-195.81 52.51,-187.16 45.78,-185.24"/>
</g>
<!-- Node11 -->
<g id="node12" class="node">
<title>Node11</title>
<g id="a_node12"><a xlink:href="classanch_1_1ut_1_1_assert_exception.html" target="_top" xlink:title="Unit test assertion error.">
<polygon fill="white" stroke="#666666" points="275,-19 135,-19 135,0 275,0 275,-19"/>
<text text-anchor="middle" x="205" y="-7" font-family="Helvetica,sans-Serif" font-size="10.00">anch::ut::AssertException</text>
</a>
</g>
</g>
<!-- Node0&#45;&gt;Node11 -->
<g id="edge11" class="edge">
<title>Node0&#45;&gt;Node11</title>
<path fill="none" stroke="#63b8ff" d="M46.91,-186.04C53.34,-148.73 72.33,-69.72 122,-28.5 126.39,-24.86 131.34,-21.89 136.58,-19.47"/>
<polygon fill="#63b8ff" stroke="#63b8ff" points="43.35,-185.16 45.24,-195.58 50.26,-186.25 43.35,-185.16"/>
</g>
</g>
</svg>
