<?xml version="1.0" encoding="UTF-8" standalone="no"?>
<!DOCTYPE svg PUBLIC "-//W3C//DTD SVG 1.1//EN"
 "http://www.w3.org/Graphics/SVG/1.1/DTD/svg11.dtd">
<!-- Generated by graphviz version 7.1.0 (0)
 -->
<!-- Title: Graphical Class Hierarchy Pages: 1 -->
<svg width="302pt" height="374pt"
 viewBox="0.00 0.00 302.00 374.00" xmlns="http://www.w3.org/2000/svg" xmlns:xlink="http://www.w3.org/1999/xlink">
<g id="graph0" class="graph" transform="scale(1 1) rotate(0) translate(4 370)">
<title>Graphical Class Hierarchy</title>
<!-- Node0 -->
<g id="node1" class="node">
<title>Node0</title>
<g id="a_node1"><a xlink:href="classanch_1_1logger_1_1formatter_1_1_i_formatter.html" target="_top" xlink:title=" ">
<polygon fill="white" stroke="#666666" points="129,-198 0,-198 0,-168 129,-168 129,-198"/>
<text text-anchor="start" x="8" y="-186" font-family="Helvetica,sans-Serif" font-size="10.00">anch::logger::formatter</text>
<text text-anchor="middle" x="64.5" y="-175" font-family="Helvetica,sans-Serif" font-size="10.00">::IFormatter</text>
</a>
</g>
</g>
<!-- Node1 -->
<g id="node2" class="node">
<title>Node1</title>
<g id="a_node2"><a xlink:href="classanch_1_1logger_1_1formatter_1_1_anch_date_formatter.html" target="_top" xlink:title=" ">
<polygon fill="white" stroke="#666666" points="294,-366 165,-366 165,-336 294,-336 294,-366"/>
<text text-anchor="start" x="173" y="-354" font-family="Helvetica,sans-Serif" font-size="10.00">anch::logger::formatter</text>
<text text-anchor="middle" x="229.5" y="-343" font-family="Helvetica,sans-Serif" font-size="10.00">::AnchDateFormatter</text>
</a>
</g>
</g>
<!-- Node0&#45;&gt;Node1 -->
<g id="edge1" class="edge">
<title>Node0&#45;&gt;Node1</title>
<path fill="none" stroke="#63b8ff" d="M77.13,-208.58C92.84,-240.46 123.68,-294.68 165,-327 169.18,-330.27 173.85,-333.13 178.71,-335.62"/>
<polygon fill="#63b8ff" stroke="#63b8ff" points="80.35,-207.18 72.87,-199.67 74.03,-210.2 80.35,-207.18"/>
</g>
<!-- Node2 -->
<g id="node3" class="node">
<title>Node2</title>
<g id="a_node3"><a xlink:href="classanch_1_1logger_1_1formatter_1_1_category_formatter.html" target="_top" xlink:title=" ">
<polygon fill="white" stroke="#666666" points="294,-318 165,-318 165,-288 294,-288 294,-318"/>
<text text-anchor="start" x="173" y="-306" font-family="Helvetica,sans-Serif" font-size="10.00">anch::logger::formatter</text>
<text text-anchor="middle" x="229.5" y="-295" font-family="Helvetica,sans-Serif" font-size="10.00">::CategoryFormatter</text>
</a>
</g>
</g>
<!-- Node0&#45;&gt;Node2 -->
<g id="edge2" class="edge">
<title>Node0&#45;&gt;Node2</title>
<path fill="none" stroke="#63b8ff" d="M85.11,-206.8C103.77,-228.15 133.59,-259.11 165,-279 169.98,-282.15 175.43,-284.99 180.99,-287.51"/>
<polygon fill="#63b8ff" stroke="#63b8ff" points="87.97,-204.76 78.81,-199.44 82.66,-209.31 87.97,-204.76"/>
</g>
<!-- Node3 -->
<g id="node4" class="node">
<title>Node3</title>
<g id="a_node4"><a xlink:href="classanch_1_1logger_1_1formatter_1_1_const_formatter.html" target="_top" xlink:title=" ">
<polygon fill="white" stroke="#666666" points="294,-270 165,-270 165,-240 294,-240 294,-270"/>
<text text-anchor="start" x="173" y="-258" font-family="Helvetica,sans-Serif" font-size="10.00">anch::logger::formatter</text>
<text text-anchor="middle" x="229.5" y="-247" font-family="Helvetica,sans-Serif" font-size="10.00">::ConstFormatter</text>
</a>
</g>
</g>
<!-- Node0&#45;&gt;Node3 -->
<g id="edge3" class="edge">
<title>Node0&#45;&gt;Node3</title>
<path fill="none" stroke="#63b8ff" d="M105.78,-203.43C123.74,-212.28 145.26,-222.53 165,-231 171.71,-233.88 178.9,-236.78 185.94,-239.51"/>
<polygon fill="#63b8ff" stroke="#63b8ff" points="107.53,-200.39 97.02,-199.08 104.42,-206.66 107.53,-200.39"/>
</g>
<!-- Node4 -->
<g id="node5" class="node">
<title>Node4</title>
<g id="a_node5"><a xlink:href="classanch_1_1logger_1_1formatter_1_1_date_formatter.html" target="_top" xlink:title=" ">
<polygon fill="white" stroke="#666666" points="294,-222 165,-222 165,-192 294,-192 294,-222"/>
<text text-anchor="start" x="173" y="-210" font-family="Helvetica,sans-Serif" font-size="10.00">anch::logger::formatter</text>
<text text-anchor="middle" x="229.5" y="-199" font-family="Helvetica,sans-Serif" font-size="10.00">::DateFormatter</text>
</a>
</g>
</g>
<!-- Node0&#45;&gt;Node4 -->
<g id="edge4" class="edge">
<title>Node0&#45;&gt;Node4</title>
<path fill="none" stroke="#63b8ff" d="M140.72,-194.07C148.74,-195.26 156.85,-196.45 164.73,-197.61"/>
<polygon fill="#63b8ff" stroke="#63b8ff" points="141.35,-190.63 130.95,-192.64 140.33,-197.56 141.35,-190.63"/>
</g>
<!-- Node5 -->
<g id="node6" class="node">
<title>Node5</title>
<g id="a_node6"><a xlink:href="classanch_1_1logger_1_1formatter_1_1_level_formatter.html" target="_top" xlink:title=" ">
<polygon fill="white" stroke="#666666" points="294,-174 165,-174 165,-144 294,-144 294,-174"/>
<text text-anchor="start" x="173" y="-162" font-family="Helvetica,sans-Serif" font-size="10.00">anch::logger::formatter</text>
<text text-anchor="middle" x="229.5" y="-151" font-family="Helvetica,sans-Serif" font-size="10.00">::LevelFormatter</text>
</a>
</g>
</g>
<!-- Node0&#45;&gt;Node5 -->
<g id="edge5" class="edge">
<title>Node0&#45;&gt;Node5</title>
<path fill="none" stroke="#63b8ff" d="M140.72,-171.93C148.74,-170.74 156.85,-169.55 164.73,-168.39"/>
<polygon fill="#63b8ff" stroke="#63b8ff" points="140.33,-168.44 130.95,-173.36 141.35,-175.37 140.33,-168.44"/>
</g>
<!-- Node6 -->
<g id="node7" class="node">
<title>Node6</title>
<g id="a_node7"><a xlink:href="classanch_1_1logger_1_1formatter_1_1_m_d_c_formatter.html" target="_top" xlink:title=" ">
<polygon fill="white" stroke="#666666" points="294,-126 165,-126 165,-96 294,-96 294,-126"/>
<text text-anchor="start" x="173" y="-114" font-family="Helvetica,sans-Serif" font-size="10.00">anch::logger::formatter</text>
<text text-anchor="middle" x="229.5" y="-103" font-family="Helvetica,sans-Serif" font-size="10.00">::MDCFormatter</text>
</a>
</g>
</g>
<!-- Node0&#45;&gt;Node6 -->
<g id="edge6" class="edge">
<title>Node0&#45;&gt;Node6</title>
<path fill="none" stroke="#63b8ff" d="M105.78,-162.57C123.74,-153.72 145.26,-143.47 165,-135 171.71,-132.12 178.9,-129.22 185.94,-126.49"/>
<polygon fill="#63b8ff" stroke="#63b8ff" points="104.42,-159.34 97.02,-166.92 107.53,-165.61 104.42,-159.34"/>
</g>
<!-- Node7 -->
<g id="node8" class="node">
<title>Node7</title>
<g id="a_node8"><a xlink:href="classanch_1_1logger_1_1formatter_1_1_string_formatter.html" target="_top" xlink:title=" ">
<polygon fill="white" stroke="#666666" points="294,-78 165,-78 165,-48 294,-48 294,-78"/>
<text text-anchor="start" x="173" y="-66" font-family="Helvetica,sans-Serif" font-size="10.00">anch::logger::formatter</text>
<text text-anchor="middle" x="229.5" y="-55" font-family="Helvetica,sans-Serif" font-size="10.00">::StringFormatter</text>
</a>
</g>
</g>
<!-- Node0&#45;&gt;Node7 -->
<g id="edge7" class="edge">
<title>Node0&#45;&gt;Node7</title>
<path fill="none" stroke="#63b8ff" d="M85.11,-159.2C103.77,-137.85 133.59,-106.89 165,-87 169.98,-83.85 175.43,-81.01 180.99,-78.49"/>
<polygon fill="#63b8ff" stroke="#63b8ff" points="82.66,-156.69 78.81,-166.56 87.97,-161.24 82.66,-156.69"/>
</g>
<!-- Node8 -->
<g id="node9" class="node">
<title>Node8</title>
<g id="a_node9"><a xlink:href="classanch_1_1logger_1_1formatter_1_1_thread_id_formatter.html" target="_top" xlink:title=" ">
<polygon fill="white" stroke="#666666" points="294,-30 165,-30 165,0 294,0 294,-30"/>
<text text-anchor="start" x="173" y="-18" font-family="Helvetica,sans-Serif" font-size="10.00">anch::logger::formatter</text>
<text text-anchor="middle" x="229.5" y="-7" font-family="Helvetica,sans-Serif" font-size="10.00">::ThreadIdFormatter</text>
</a>
</g>
</g>
<!-- Node0&#45;&gt;Node8 -->
<g id="edge8" class="edge">
<title>Node0&#45;&gt;Node8</title>
<path fill="none" stroke="#63b8ff" d="M77.13,-157.42C92.84,-125.54 123.68,-71.32 165,-39 169.18,-35.73 173.85,-32.87 178.71,-30.38"/>
<polygon fill="#63b8ff" stroke="#63b8ff" points="74.03,-155.8 72.87,-166.33 80.35,-158.82 74.03,-155.8"/>
</g>
</g>
</svg>
