<?xml version="1.0" encoding="UTF-8" standalone="no"?>
<!DOCTYPE svg PUBLIC "-//W3C//DTD SVG 1.1//EN"
 "http://www.w3.org/Graphics/SVG/1.1/DTD/svg11.dtd">
<!-- Generated by graphviz version 2.40.1 (20161225.0304)
 -->
<!-- Title: Graphical Class Hierarchy Pages: 1 -->
<svg width="370pt" height="88pt"
 viewBox="0.00 0.00 370.00 88.00" xmlns="http://www.w3.org/2000/svg" xmlns:xlink="http://www.w3.org/1999/xlink">
<g id="graph0" class="graph" transform="scale(1 1) rotate(0) translate(4 84)">
<title>Graphical Class Hierarchy</title>
<!-- Node0 -->
<g id="node1" class="node">
<title>Node0</title>
<g id="a_node1"><a xlink:href="classanch_1_1sql_1_1_prepared_statement.html" target="_top" xlink:title="SQL prepared statement. ">
<polygon fill="none" stroke="#000000" points="0,-30 0,-49 161,-49 161,-30 0,-30"/>
<text text-anchor="middle" x="80.5" y="-37" font-family="Helvetica,sans-Serif" font-size="10.00" fill="#000000">anch::sql::PreparedStatement</text>
</a>
</g>
</g>
<!-- Node1 -->
<g id="node2" class="node">
<title>Node1</title>
<g id="a_node2"><a xlink:href="classanch_1_1sql_1_1_postgre_s_q_l_prepared_statement.html" target="_top" xlink:title="PostgreSQL prepared statement implementation. ">
<polygon fill="none" stroke="#000000" points="197,-49.5 197,-79.5 362,-79.5 362,-49.5 197,-49.5"/>
<text text-anchor="start" x="205" y="-67.5" font-family="Helvetica,sans-Serif" font-size="10.00" fill="#000000">anch::sql::PostgreSQLPrepared</text>
<text text-anchor="middle" x="279.5" y="-56.5" font-family="Helvetica,sans-Serif" font-size="10.00" fill="#000000">Statement</text>
</a>
</g>
</g>
<!-- Node0&#45;&gt;Node1 -->
<g id="edge1" class="edge">
<title>Node0&#45;&gt;Node1</title>
<path fill="none" stroke="#191970" d="M166.3652,-50.2871C176.5096,-51.5615 186.8467,-52.8601 196.9439,-54.1286"/>
<polygon fill="#191970" stroke="#191970" points="166.6594,-46.7966 156.3011,-49.0227 165.7868,-53.742 166.6594,-46.7966"/>
</g>
<!-- Node2 -->
<g id="node3" class="node">
<title>Node2</title>
<g id="a_node3"><a xlink:href="classanch_1_1sql_1_1_s_q_lite3_prepared_statement.html" target="_top" xlink:title="SQLite3 prepared statement implementation. ">
<polygon fill="none" stroke="#000000" points="206,-.5 206,-30.5 353,-30.5 353,-.5 206,-.5"/>
<text text-anchor="start" x="214" y="-18.5" font-family="Helvetica,sans-Serif" font-size="10.00" fill="#000000">anch::sql::SQLite3Prepared</text>
<text text-anchor="middle" x="279.5" y="-7.5" font-family="Helvetica,sans-Serif" font-size="10.00" fill="#000000">Statement</text>
</a>
</g>
</g>
<!-- Node0&#45;&gt;Node2 -->
<g id="edge2" class="edge">
<title>Node0&#45;&gt;Node2</title>
<path fill="none" stroke="#191970" d="M169.5582,-28.7593C181.6863,-27.2966 194.0237,-25.8087 205.8388,-24.3838"/>
<polygon fill="#191970" stroke="#191970" points="168.9448,-25.3078 159.4359,-29.9801 169.7831,-32.2575 168.9448,-25.3078"/>
</g>
</g>
</svg>
