<?xml version="1.0" encoding="UTF-8" standalone="no"?>
<!DOCTYPE svg PUBLIC "-//W3C//DTD SVG 1.1//EN"
 "http://www.w3.org/Graphics/SVG/1.1/DTD/svg11.dtd">
<!-- Generated by graphviz version 14.0.4 (0)
 -->
<!-- Title: Graphical Class Hierarchy Pages: 1 -->
<svg width="285pt" height="216pt"
 viewBox="0.00 0.00 285.00 216.00" xmlns="http://www.w3.org/2000/svg" xmlns:xlink="http://www.w3.org/1999/xlink">
<g id="graph0" class="graph" transform="scale(1 1) rotate(0) translate(4 212)">
<title>Graphical Class Hierarchy</title>
<!-- Node0 -->
<g id="Node000000" class="node">
<title>Node0</title>
<g id="a_Node000000"><a xlink:href="classanch_1_1events_1_1_observable.html" target="_top" xlink:title=" ">
<polygon fill="white" stroke="#666666" points="137.12,-208 5.62,-208 5.62,-176 137.12,-176 137.12,-208"/>
<text xml:space="preserve" text-anchor="start" x="13.62" y="-194.5" font-family="Helvetica,sans-Serif" font-size="10.00">anch::events::Observable</text>
<text xml:space="preserve" text-anchor="middle" x="71.38" y="-182.5" font-family="Helvetica,sans-Serif" font-size="10.00">&lt; anch::json::JSONItem &gt;</text>
</a>
</g>
</g>
<!-- Node1 -->
<g id="Node000001" class="node">
<title>Node1</title>
<g id="a_Node000001"><a xlink:href="classanch_1_1json_1_1_reader.html" target="_top" xlink:title="JSON reader based on events.">
<polygon fill="white" stroke="#666666" points="277.25,-102 178.75,-102 178.75,-82 277.25,-82 277.25,-102"/>
<text xml:space="preserve" text-anchor="middle" x="228" y="-88.5" font-family="Helvetica,sans-Serif" font-size="10.00">anch::json::Reader</text>
</a>
</g>
</g>
<!-- Node0&#45;&gt;Node1 -->
<g id="edge28_Node000000_Node000001" class="edge">
<title>Node0&#45;&gt;Node1</title>
<g id="a_edge28_Node000000_Node000001"><a xlink:title=" ">
<path fill="none" stroke="#63b8ff" d="M136.02,-170.71C138.32,-169.52 140.57,-168.29 142.75,-167 173.59,-148.75 203.39,-118.27 217.88,-102.37"/>
<polygon fill="#63b8ff" stroke="#63b8ff" points="134.58,-167.52 127.02,-174.94 137.56,-173.85 134.58,-167.52"/>
</a>
</g>
</g>
<!-- Node2 -->
<g id="Node000002" class="node">
<title>Node2</title>
<g id="a_Node000002"><a xlink:href="classanch_1_1events_1_1_observable.html" target="_top" xlink:title=" ">
<polygon fill="white" stroke="#666666" points="142.75,-158 0,-158 0,-126 142.75,-126 142.75,-158"/>
<text xml:space="preserve" text-anchor="start" x="8" y="-144.5" font-family="Helvetica,sans-Serif" font-size="10.00">anch::events::Observable</text>
<text xml:space="preserve" text-anchor="middle" x="71.38" y="-132.5" font-family="Helvetica,sans-Serif" font-size="10.00">&lt; anch::json::MappingError &gt;</text>
</a>
</g>
</g>
<!-- Node2&#45;&gt;Node1 -->
<g id="edge29_Node000002_Node000001" class="edge">
<title>Node2&#45;&gt;Node1</title>
<g id="a_edge29_Node000002_Node000001"><a xlink:title=" ">
<path fill="none" stroke="#63b8ff" d="M133.73,-122.16C154.59,-115.41 177.08,-108.14 194.74,-102.43"/>
<polygon fill="#63b8ff" stroke="#63b8ff" points="132.88,-118.76 124.45,-125.16 135.04,-125.42 132.88,-118.76"/>
</a>
</g>
</g>
<!-- Node3 -->
<g id="Node000003" class="node">
<title>Node3</title>
<g id="a_Node000003"><a xlink:href="classanch_1_1events_1_1_observable.html" target="_top" xlink:title=" ">
<polygon fill="white" stroke="#666666" points="135.25,-108 7.5,-108 7.5,-76 135.25,-76 135.25,-108"/>
<text xml:space="preserve" text-anchor="start" x="15.5" y="-94.5" font-family="Helvetica,sans-Serif" font-size="10.00">anch::events::Observable</text>
<text xml:space="preserve" text-anchor="middle" x="71.38" y="-82.5" font-family="Helvetica,sans-Serif" font-size="10.00">&lt; std::streamsize &gt;</text>
</a>
</g>
</g>
<!-- Node3&#45;&gt;Node1 -->
<g id="edge30_Node000003_Node000001" class="edge">
<title>Node3&#45;&gt;Node1</title>
<g id="a_edge30_Node000003_Node000001"><a xlink:title=" ">
<path fill="none" stroke="#63b8ff" d="M146.91,-92C157.7,-92 168.58,-92 178.68,-92"/>
<polygon fill="#63b8ff" stroke="#63b8ff" points="147.23,-88.5 137.23,-92 147.23,-95.5 147.23,-88.5"/>
</a>
</g>
</g>
<!-- Node4 -->
<g id="Node000004" class="node">
<title>Node4</title>
<g id="a_Node000004"><a xlink:href="classanch_1_1json_1_1_reader_context.html" target="_top" xlink:title="JSON reader context.">
<polygon fill="white" stroke="#666666" points="137.88,-58 4.88,-58 4.88,-38 137.88,-38 137.88,-58"/>
<text xml:space="preserve" text-anchor="middle" x="71.38" y="-44.5" font-family="Helvetica,sans-Serif" font-size="10.00">anch::json::ReaderContext</text>
</a>
</g>
</g>
<!-- Node4&#45;&gt;Node1 -->
<g id="edge31_Node000004_Node000001" class="edge">
<title>Node4&#45;&gt;Node1</title>
<g id="a_edge31_Node000004_Node000001"><a xlink:title=" ">
<path fill="none" stroke="#8b1a1a" d="M122.95,-61.49C129.62,-63.32 136.35,-65.19 142.75,-67 159.19,-71.66 177.37,-77.03 192.62,-81.59"/>
<polygon fill="#8b1a1a" stroke="#8b1a1a" points="123.91,-58.13 113.34,-58.88 122.07,-64.88 123.91,-58.13"/>
</a>
</g>
</g>
<!-- Node5 -->
<g id="Node000005" class="node">
<title>Node5</title>
<g id="a_Node000005"><a xlink:href="class_reader_context.html" target="_top" xlink:title="JSON reader context.">
<polygon fill="white" stroke="#666666" points="112.38,-20 30.38,-20 30.38,0 112.38,0 112.38,-20"/>
<text xml:space="preserve" text-anchor="middle" x="71.38" y="-6.5" font-family="Helvetica,sans-Serif" font-size="10.00">ReaderContext</text>
</a>
</g>
</g>
<!-- Node5&#45;&gt;Node1 -->
<g id="edge32_Node000005_Node000001" class="edge">
<title>Node5&#45;&gt;Node1</title>
<g id="a_edge32_Node000005_Node000001"><a xlink:title=" ">
<path fill="none" stroke="#8b1a1a" d="M123.75,-21.42C130.28,-23.58 136.77,-26.09 142.75,-29 171.65,-43.07 200.64,-67.57 215.93,-81.51"/>
<polygon fill="#8b1a1a" stroke="#8b1a1a" points="124.82,-18.08 114.23,-18.54 122.79,-24.78 124.82,-18.08"/>
</a>
</g>
</g>
</g>
</svg>
