<?xml version="1.0" encoding="UTF-8" standalone="no"?>
<!DOCTYPE svg PUBLIC "-//W3C//DTD SVG 1.1//EN"
 "http://www.w3.org/Graphics/SVG/1.1/DTD/svg11.dtd">
<!-- Generated by graphviz version 2.44.1 (0)
 -->
<!-- Title: Graphical Class Hierarchy Pages: 1 -->
<svg width="296pt" height="367pt"
 viewBox="0.00 0.00 296.00 366.50" xmlns="http://www.w3.org/2000/svg" xmlns:xlink="http://www.w3.org/1999/xlink">
<g id="graph0" class="graph" transform="scale(1 1) rotate(0) translate(4 362.5)">
<title>Graphical Class Hierarchy</title>
<!-- Node96 -->
<g id="node1" class="node">
<title>Node96</title>
<g id="a_node1"><a xlink:title="STL class.">
<polygon fill="none" stroke="#bfbfbf" points="0,-164.5 0,-183.5 86,-183.5 86,-164.5 0,-164.5"/>
<text text-anchor="middle" x="43" y="-171.5" font-family="Helvetica,sans-Serif" font-size="10.00">std::exception</text>
</a>
</g>
</g>
<!-- Node0 -->
<g id="node2" class="node">
<title>Node0</title>
<g id="a_node2"><a xlink:href="classanch_1_1crypto_1_1_invalid_block_exception.html" target="_top" xlink:title="Exception on receiving an invalid block.">
<polygon fill="none" stroke="black" points="133.5,-328 133.5,-358 276.5,-358 276.5,-328 133.5,-328"/>
<text text-anchor="start" x="141.5" y="-346" font-family="Helvetica,sans-Serif" font-size="10.00">anch::crypto::InvalidBlock</text>
<text text-anchor="middle" x="205" y="-335" font-family="Helvetica,sans-Serif" font-size="10.00">Exception</text>
</a>
</g>
</g>
<!-- Node96&#45;&gt;Node0 -->
<g id="edge1" class="edge">
<title>Node96&#45;&gt;Node0</title>
<path fill="none" stroke="midnightblue" d="M49.16,-193.51C58.44,-224.7 80.88,-285.68 122,-319 126.26,-322.46 131.01,-325.41 136.01,-327.95"/>
<polygon fill="midnightblue" stroke="midnightblue" points="52.51,-192.48 46.43,-183.81 45.78,-194.38 52.51,-192.48"/>
</g>
<!-- Node98 -->
<g id="node3" class="node">
<title>Node98</title>
<g id="a_node3"><a xlink:href="classanch_1_1date_1_1_invalid_format_exception.html" target="_top" xlink:title="Invalid date format error.">
<polygon fill="none" stroke="black" points="134.5,-279 134.5,-309 275.5,-309 275.5,-279 134.5,-279"/>
<text text-anchor="start" x="142.5" y="-297" font-family="Helvetica,sans-Serif" font-size="10.00">anch::date::InvalidFormat</text>
<text text-anchor="middle" x="205" y="-286" font-family="Helvetica,sans-Serif" font-size="10.00">Exception</text>
</a>
</g>
</g>
<!-- Node96&#45;&gt;Node98 -->
<g id="edge2" class="edge">
<title>Node96&#45;&gt;Node98</title>
<path fill="none" stroke="midnightblue" d="M54.49,-192.47C67.6,-213.93 92.01,-248.93 122,-269 127.81,-272.89 134.26,-276.19 140.9,-279"/>
<polygon fill="midnightblue" stroke="midnightblue" points="57.39,-190.49 49.28,-183.67 51.37,-194.06 57.39,-190.49"/>
</g>
<!-- Node99 -->
<g id="node4" class="node">
<title>Node99</title>
<g id="a_node4"><a xlink:href="classanch_1_1device_1_1_device_exception.html" target="_top" xlink:title=" ">
<polygon fill="none" stroke="black" points="122,-240.5 122,-259.5 288,-259.5 288,-240.5 122,-240.5"/>
<text text-anchor="middle" x="205" y="-247.5" font-family="Helvetica,sans-Serif" font-size="10.00">anch::device::DeviceException</text>
</a>
</g>
</g>
<!-- Node96&#45;&gt;Node99 -->
<g id="edge3" class="edge">
<title>Node96&#45;&gt;Node99</title>
<path fill="none" stroke="midnightblue" d="M62.15,-190.59C77.15,-203.44 99.56,-220.73 122,-231 130.37,-234.83 139.59,-237.93 148.73,-240.42"/>
<polygon fill="midnightblue" stroke="midnightblue" points="64.05,-187.59 54.23,-183.62 59.43,-192.85 64.05,-187.59"/>
</g>
<!-- Node100 -->
<g id="node5" class="node">
<title>Node100</title>
<g id="a_node5"><a xlink:href="classanch_1_1file_1_1_file_exception.html" target="_top" xlink:title=" ">
<polygon fill="none" stroke="black" points="139,-202.5 139,-221.5 271,-221.5 271,-202.5 139,-202.5"/>
<text text-anchor="middle" x="205" y="-209.5" font-family="Helvetica,sans-Serif" font-size="10.00">anch::file::FileException</text>
</a>
</g>
</g>
<!-- Node96&#45;&gt;Node100 -->
<g id="edge4" class="edge">
<title>Node96&#45;&gt;Node100</title>
<path fill="none" stroke="midnightblue" d="M92.76,-185.97C102.44,-188.32 112.54,-190.75 122,-193 135.08,-196.11 149.35,-199.44 162.26,-202.42"/>
<polygon fill="midnightblue" stroke="midnightblue" points="93.4,-182.52 82.86,-183.56 91.75,-189.32 93.4,-182.52"/>
</g>
<!-- Node101 -->
<g id="node6" class="node">
<title>Node101</title>
<g id="a_node6"><a xlink:href="classanch_1_1json_1_1_mapping_error.html" target="_top" xlink:title="Mapping error.">
<polygon fill="none" stroke="black" points="136.5,-164.5 136.5,-183.5 273.5,-183.5 273.5,-164.5 136.5,-164.5"/>
<text text-anchor="middle" x="205" y="-171.5" font-family="Helvetica,sans-Serif" font-size="10.00">anch::json::MappingError</text>
</a>
</g>
</g>
<!-- Node96&#45;&gt;Node101 -->
<g id="edge5" class="edge">
<title>Node96&#45;&gt;Node101</title>
<path fill="none" stroke="midnightblue" d="M96.06,-174C108.88,-174 122.81,-174 136.25,-174"/>
<polygon fill="midnightblue" stroke="midnightblue" points="96.04,-170.5 86.04,-174 96.04,-177.5 96.04,-170.5"/>
</g>
<!-- Node102 -->
<g id="node7" class="node">
<title>Node102</title>
<g id="a_node7"><a xlink:href="classanch_1_1network_1_1_i_o_exception.html" target="_top" xlink:title=" ">
<polygon fill="none" stroke="black" points="130,-126.5 130,-145.5 280,-145.5 280,-126.5 130,-126.5"/>
<text text-anchor="middle" x="205" y="-133.5" font-family="Helvetica,sans-Serif" font-size="10.00">anch::network::IOException</text>
</a>
</g>
</g>
<!-- Node96&#45;&gt;Node102 -->
<g id="edge6" class="edge">
<title>Node96&#45;&gt;Node102</title>
<path fill="none" stroke="midnightblue" d="M92.76,-162.03C102.44,-159.68 112.54,-157.25 122,-155 135.08,-151.89 149.35,-148.56 162.26,-145.58"/>
<polygon fill="midnightblue" stroke="midnightblue" points="91.75,-158.68 82.86,-164.44 93.4,-165.48 91.75,-158.68"/>
</g>
<!-- Node103 -->
<g id="node8" class="node">
<title>Node103</title>
<g id="a_node8"><a xlink:href="classanch_1_1resource_1_1file_1_1_resource_file_exception.html" target="_top" xlink:title=" ">
<polygon fill="none" stroke="black" points="138.5,-77 138.5,-107 271.5,-107 271.5,-77 138.5,-77"/>
<text text-anchor="start" x="146.5" y="-95" font-family="Helvetica,sans-Serif" font-size="10.00">anch::resource::file</text>
<text text-anchor="middle" x="205" y="-84" font-family="Helvetica,sans-Serif" font-size="10.00">::ResourceFileException</text>
</a>
</g>
</g>
<!-- Node96&#45;&gt;Node103 -->
<g id="edge7" class="edge">
<title>Node96&#45;&gt;Node103</title>
<path fill="none" stroke="midnightblue" d="M62.61,-157.61C77.72,-145.02 100.05,-127.97 122,-117 129.46,-113.27 137.57,-109.98 145.71,-107.11"/>
<polygon fill="midnightblue" stroke="midnightblue" points="59.94,-155.28 54.6,-164.43 64.48,-160.61 59.94,-155.28"/>
</g>
<!-- Node104 -->
<g id="node9" class="node">
<title>Node104</title>
<g id="a_node9"><a xlink:href="classanch_1_1sql_1_1_sql_exception.html" target="_top" xlink:title="SQL exception.">
<polygon fill="none" stroke="black" points="140.5,-38.5 140.5,-57.5 269.5,-57.5 269.5,-38.5 140.5,-38.5"/>
<text text-anchor="middle" x="205" y="-45.5" font-family="Helvetica,sans-Serif" font-size="10.00">anch::sql::SqlException</text>
</a>
</g>
</g>
<!-- Node96&#45;&gt;Node104 -->
<g id="edge8" class="edge">
<title>Node96&#45;&gt;Node104</title>
<path fill="none" stroke="midnightblue" d="M52.67,-155.18C64.74,-131.15 88.89,-90.06 122,-68 128.58,-63.61 136.04,-60.19 143.71,-57.51"/>
<polygon fill="midnightblue" stroke="midnightblue" points="49.45,-153.8 48.25,-164.33 55.75,-156.84 49.45,-153.8"/>
</g>
<!-- Node105 -->
<g id="node10" class="node">
<title>Node105</title>
<g id="a_node10"><a xlink:href="classanch_1_1_timeout_exception.html" target="_top" xlink:title="Timeout exception.">
<polygon fill="none" stroke="black" points="138,-0.5 138,-19.5 272,-19.5 272,-0.5 138,-0.5"/>
<text text-anchor="middle" x="205" y="-7.5" font-family="Helvetica,sans-Serif" font-size="10.00">anch::TimeoutException</text>
</a>
</g>
</g>
<!-- Node96&#45;&gt;Node105 -->
<g id="edge9" class="edge">
<title>Node96&#45;&gt;Node105</title>
<path fill="none" stroke="#8b1a1a" d="M48.82,-154.68C57.71,-123.24 79.74,-61.29 122,-29 126.99,-25.18 132.62,-22.12 138.53,-19.65"/>
<polygon fill="#8b1a1a" stroke="#8b1a1a" points="45.42,-153.86 46.22,-164.43 52.18,-155.67 45.42,-153.86"/>
</g>
</g>
</svg>
