<?xml version="1.0" encoding="UTF-8" standalone="no"?>
<!DOCTYPE svg PUBLIC "-//W3C//DTD SVG 1.1//EN"
 "http://www.w3.org/Graphics/SVG/1.1/DTD/svg11.dtd">
<!-- Generated by graphviz version 12.1.2 (0)
 -->
<!-- Title: Graphical Class Hierarchy Pages: 1 -->
<svg width="294pt" height="456pt"
 viewBox="0.00 0.00 294.25 455.75" xmlns="http://www.w3.org/2000/svg" xmlns:xlink="http://www.w3.org/1999/xlink">
<g id="graph0" class="graph" transform="scale(1 1) rotate(0) translate(4 451.75)">
<title>Graphical Class Hierarchy</title>
<!-- Node0 -->
<g id="Node000000" class="node">
<title>Node0</title>
<g id="a_Node000000"><a xlink:title=" ">
<polygon fill="#e0e0e0" stroke="#999999" points="85,-227.75 0,-227.75 0,-207 85,-207 85,-227.75"/>
<text text-anchor="middle" x="42.5" y="-214.25" font-family="Helvetica,sans-Serif" font-size="10.00">std::exception</text>
</a>
</g>
</g>
<!-- Node1 -->
<g id="Node000001" class="node">
<title>Node1</title>
<g id="a_Node000001"><a xlink:href="classanch_1_1_timeout_exception.html" target="_top" xlink:title="Timeout exception.">
<polygon fill="white" stroke="#666666" points="270.5,-447.75 136.75,-447.75 136.75,-427 270.5,-427 270.5,-447.75"/>
<text text-anchor="middle" x="203.62" y="-434.25" font-family="Helvetica,sans-Serif" font-size="10.00">anch::TimeoutException</text>
</a>
</g>
</g>
<!-- Node0&#45;&gt;Node1 -->
<g id="edge66_Node000000_Node000001" class="edge">
<title>Node0&#45;&gt;Node1</title>
<g id="a_edge66_Node000000_Node000001"><a xlink:title=" ">
<path fill="none" stroke="#8b1a1a" d="M45.37,-239.28C50.14,-280.79 66.52,-371 121,-418.38 125.61,-422.38 130.91,-425.59 136.54,-428.15"/>
<polygon fill="#8b1a1a" stroke="#8b1a1a" points="48.88,-239.16 44.39,-229.56 41.91,-239.87 48.88,-239.16"/>
</a>
</g>
</g>
<!-- Node2 -->
<g id="Node000002" class="node">
<title>Node2</title>
<g id="a_Node000002"><a xlink:href="classanch_1_1crypto_1_1_invalid_block_exception.html" target="_top" xlink:title="Exception on receiving an invalid block.">
<polygon fill="white" stroke="#666666" points="274.62,-409.12 132.62,-409.12 132.62,-375.62 274.62,-375.62 274.62,-409.12"/>
<text text-anchor="start" x="140.62" y="-395.62" font-family="Helvetica,sans-Serif" font-size="10.00">anch::crypto::InvalidBlock</text>
<text text-anchor="middle" x="203.62" y="-382.88" font-family="Helvetica,sans-Serif" font-size="10.00">Exception</text>
</a>
</g>
</g>
<!-- Node0&#45;&gt;Node2 -->
<g id="edge67_Node000000_Node000002" class="edge">
<title>Node0&#45;&gt;Node2</title>
<g id="a_edge67_Node000000_Node000002"><a xlink:title=" ">
<path fill="none" stroke="#63b8ff" d="M49.04,-239.08C58.41,-271.46 80.45,-332.24 121,-366.38 124.98,-369.73 129.4,-372.65 134.06,-375.2"/>
<polygon fill="#63b8ff" stroke="#63b8ff" points="52.47,-238.36 46.46,-229.64 45.72,-240.2 52.47,-238.36"/>
</a>
</g>
</g>
<!-- Node3 -->
<g id="Node000003" class="node">
<title>Node3</title>
<g id="a_Node000003"><a xlink:href="classanch_1_1date_1_1_invalid_format_exception.html" target="_top" xlink:title="Invalid date format error.">
<polygon fill="white" stroke="#666666" points="273.88,-357.12 133.38,-357.12 133.38,-323.62 273.88,-323.62 273.88,-357.12"/>
<text text-anchor="start" x="141.38" y="-343.62" font-family="Helvetica,sans-Serif" font-size="10.00">anch::date::InvalidFormat</text>
<text text-anchor="middle" x="203.62" y="-330.88" font-family="Helvetica,sans-Serif" font-size="10.00">Exception</text>
</a>
</g>
</g>
<!-- Node0&#45;&gt;Node3 -->
<g id="edge68_Node000000_Node000003" class="edge">
<title>Node0&#45;&gt;Node3</title>
<g id="a_edge68_Node000000_Node000003"><a xlink:title=" ">
<path fill="none" stroke="#63b8ff" d="M54.99,-238.09C68.19,-260.06 91.83,-294.31 121,-314.38 125.9,-317.75 131.26,-320.7 136.82,-323.28"/>
<polygon fill="#63b8ff" stroke="#63b8ff" points="58.02,-236.34 49.98,-229.44 51.96,-239.85 58.02,-236.34"/>
</a>
</g>
</g>
<!-- Node4 -->
<g id="Node000004" class="node">
<title>Node4</title>
<g id="a_Node000004"><a xlink:href="classanch_1_1device_1_1_device_exception.html" target="_top" xlink:title=" ">
<polygon fill="white" stroke="#666666" points="286.25,-305.75 121,-305.75 121,-285 286.25,-285 286.25,-305.75"/>
<text text-anchor="middle" x="203.62" y="-292.25" font-family="Helvetica,sans-Serif" font-size="10.00">anch::device::DeviceException</text>
</a>
</g>
</g>
<!-- Node0&#45;&gt;Node4 -->
<g id="edge69_Node000000_Node000004" class="edge">
<title>Node0&#45;&gt;Node4</title>
<g id="a_edge69_Node000000_Node000004"><a xlink:title=" ">
<path fill="none" stroke="#63b8ff" d="M62.94,-235.45C77.81,-248.35 99.36,-265.15 121,-275.38 128.78,-279.05 137.31,-282.1 145.84,-284.61"/>
<polygon fill="#63b8ff" stroke="#63b8ff" points="65.54,-233.07 55.74,-229.03 60.88,-238.3 65.54,-233.07"/>
</a>
</g>
</g>
<!-- Node5 -->
<g id="Node000005" class="node">
<title>Node5</title>
<g id="a_Node000005"><a xlink:href="classanch_1_1json_1_1_mapping_error.html" target="_top" xlink:title="Mapping error.">
<polygon fill="white" stroke="#666666" points="272,-266.75 135.25,-266.75 135.25,-246 272,-246 272,-266.75"/>
<text text-anchor="middle" x="203.62" y="-253.25" font-family="Helvetica,sans-Serif" font-size="10.00">anch::json::MappingError</text>
</a>
</g>
</g>
<!-- Node0&#45;&gt;Node5 -->
<g id="edge70_Node000000_Node000005" class="edge">
<title>Node0&#45;&gt;Node5</title>
<g id="a_edge70_Node000000_Node000005"><a xlink:title=" ">
<path fill="none" stroke="#63b8ff" d="M96.46,-230.36C116.52,-235.27 139.13,-240.81 158.31,-245.51"/>
<polygon fill="#63b8ff" stroke="#63b8ff" points="97.32,-226.96 86.78,-227.98 95.66,-233.76 97.32,-226.96"/>
</a>
</g>
</g>
<!-- Node6 -->
<g id="Node000006" class="node">
<title>Node6</title>
<g id="a_Node000006"><a xlink:href="classanch_1_1network_1_1_i_o_exception.html" target="_top" xlink:title=" ">
<polygon fill="white" stroke="#666666" points="278.38,-227.75 128.88,-227.75 128.88,-207 278.38,-207 278.38,-227.75"/>
<text text-anchor="middle" x="203.62" y="-214.25" font-family="Helvetica,sans-Serif" font-size="10.00">anch::network::IOException</text>
</a>
</g>
</g>
<!-- Node0&#45;&gt;Node6 -->
<g id="edge71_Node000000_Node000006" class="edge">
<title>Node0&#45;&gt;Node6</title>
<g id="a_edge71_Node000000_Node000006"><a xlink:title=" ">
<path fill="none" stroke="#63b8ff" d="M96.55,-217.38C106.8,-217.38 117.7,-217.38 128.48,-217.38"/>
<polygon fill="#63b8ff" stroke="#63b8ff" points="96.82,-213.88 86.82,-217.38 96.82,-220.88 96.82,-213.88"/>
</a>
</g>
</g>
<!-- Node7 -->
<g id="Node000007" class="node">
<title>Node7</title>
<g id="a_Node000007"><a xlink:href="classanch_1_1resource_1_1file_1_1_resource_file_exception.html" target="_top" xlink:title=" ">
<polygon fill="white" stroke="#666666" points="269.75,-189.12 137.5,-189.12 137.5,-155.62 269.75,-155.62 269.75,-189.12"/>
<text text-anchor="start" x="145.5" y="-175.62" font-family="Helvetica,sans-Serif" font-size="10.00">anch::resource::file</text>
<text text-anchor="middle" x="203.62" y="-162.88" font-family="Helvetica,sans-Serif" font-size="10.00">::ResourceFileException</text>
</a>
</g>
</g>
<!-- Node0&#45;&gt;Node7 -->
<g id="edge72_Node000000_Node000007" class="edge">
<title>Node0&#45;&gt;Node7</title>
<g id="a_edge72_Node000000_Node000007"><a xlink:title=" ">
<path fill="none" stroke="#63b8ff" d="M92.58,-203.49C108.15,-199.09 125.55,-194.17 141.83,-189.57"/>
<polygon fill="#63b8ff" stroke="#63b8ff" points="91.74,-200.1 83.07,-206.18 93.65,-206.83 91.74,-200.1"/>
</a>
</g>
</g>
<!-- Node8 -->
<g id="Node000008" class="node">
<title>Node8</title>
<g id="a_Node000008"><a xlink:href="classanch_1_1rest_1_1_mapper_exception.html" target="_top" xlink:title=" ">
<polygon fill="white" stroke="#666666" points="281,-137.75 126.25,-137.75 126.25,-117 281,-117 281,-137.75"/>
<text text-anchor="middle" x="203.62" y="-124.25" font-family="Helvetica,sans-Serif" font-size="10.00">anch::rest::MapperException</text>
</a>
</g>
</g>
<!-- Node0&#45;&gt;Node8 -->
<g id="edge73_Node000000_Node000008" class="edge">
<title>Node0&#45;&gt;Node8</title>
<g id="a_edge73_Node000000_Node000008"><a xlink:title=" ">
<path fill="none" stroke="#63b8ff" d="M59.53,-197.92C73.95,-181.71 96.58,-159.25 121,-146.38 127.18,-143.12 133.91,-140.41 140.77,-138.17"/>
<polygon fill="#63b8ff" stroke="#63b8ff" points="56.89,-195.62 53.02,-205.48 62.2,-200.19 56.89,-195.62"/>
</a>
</g>
</g>
<!-- Node9 -->
<g id="Node000009" class="node">
<title>Node9</title>
<g id="a_Node000009"><a xlink:href="classanch_1_1rest_1_1_router_exception.html" target="_top" xlink:title="REST router exception class.">
<polygon fill="white" stroke="#666666" points="278.75,-98.75 128.5,-98.75 128.5,-78 278.75,-78 278.75,-98.75"/>
<text text-anchor="middle" x="203.62" y="-85.25" font-family="Helvetica,sans-Serif" font-size="10.00">anch::rest::RouterException</text>
</a>
</g>
</g>
<!-- Node0&#45;&gt;Node9 -->
<g id="edge74_Node000000_Node000009" class="edge">
<title>Node0&#45;&gt;Node9</title>
<g id="a_edge74_Node000000_Node000009"><a xlink:title=" ">
<path fill="none" stroke="#63b8ff" d="M52.63,-196.61C64.65,-171.74 88.18,-130.66 121,-108.38 126.43,-104.69 132.48,-101.68 138.75,-99.22"/>
<polygon fill="#63b8ff" stroke="#63b8ff" points="49.59,-194.85 48.56,-205.4 55.94,-197.79 49.59,-194.85"/>
</a>
</g>
</g>
<!-- Node10 -->
<g id="Node000010" class="node">
<title>Node10</title>
<g id="a_Node000010"><a xlink:href="classanch_1_1sql_1_1_sql_exception.html" target="_top" xlink:title="SQL exception.">
<polygon fill="white" stroke="#666666" points="267.88,-59.75 139.38,-59.75 139.38,-39 267.88,-39 267.88,-59.75"/>
<text text-anchor="middle" x="203.62" y="-46.25" font-family="Helvetica,sans-Serif" font-size="10.00">anch::sql::SqlException</text>
</a>
</g>
</g>
<!-- Node0&#45;&gt;Node10 -->
<g id="edge75_Node000000_Node000010" class="edge">
<title>Node0&#45;&gt;Node10</title>
<g id="a_edge75_Node000000_Node000010"><a xlink:title=" ">
<path fill="none" stroke="#63b8ff" d="M48.67,-195.94C57.64,-163.44 79.29,-102.04 121,-69.38 126.4,-65.15 132.57,-61.8 139.04,-59.15"/>
<polygon fill="#63b8ff" stroke="#63b8ff" points="45.34,-194.84 46.21,-205.39 52.11,-196.59 45.34,-194.84"/>
</a>
</g>
</g>
<!-- Node11 -->
<g id="Node000011" class="node">
<title>Node11</title>
<g id="a_Node000011"><a xlink:href="classanch_1_1ut_1_1_assert_exception.html" target="_top" xlink:title="Unit test assertion error.">
<polygon fill="white" stroke="#666666" points="273.5,-20.75 133.75,-20.75 133.75,0 273.5,0 273.5,-20.75"/>
<text text-anchor="middle" x="203.62" y="-7.25" font-family="Helvetica,sans-Serif" font-size="10.00">anch::ut::AssertException</text>
</a>
</g>
</g>
<!-- Node0&#45;&gt;Node11 -->
<g id="edge76_Node000000_Node000011" class="edge">
<title>Node0&#45;&gt;Node11</title>
<g id="a_edge76_Node000000_Node000011"><a xlink:title=" ">
<path fill="none" stroke="#63b8ff" d="M46.19,-195.15C52.18,-155.79 70.33,-73.85 121,-30.38 125.32,-26.67 130.22,-23.63 135.41,-21.14"/>
<polygon fill="#63b8ff" stroke="#63b8ff" points="42.73,-194.66 44.83,-205.05 49.66,-195.62 42.73,-194.66"/>
</a>
</g>
</g>
</g>
</svg>
