<?xml version="1.0" encoding="UTF-8" standalone="no"?>
<!DOCTYPE svg PUBLIC "-//W3C//DTD SVG 1.1//EN"
 "http://www.w3.org/Graphics/SVG/1.1/DTD/svg11.dtd">
<!-- Generated by graphviz version 8.0.3 (0)
 -->
<!-- Title: Graphical Class Hierarchy Pages: 1 -->
<svg width="263pt" height="101pt"
 viewBox="0.00 0.00 263.00 101.00" xmlns="http://www.w3.org/2000/svg" xmlns:xlink="http://www.w3.org/1999/xlink">
<g id="graph0" class="graph" transform="scale(1 1) rotate(0) translate(4 97)">
<title>Graphical Class Hierarchy</title>
<!-- Node0 -->
<g id="node1" class="node">
<title>Node0</title>
<g id="a_node1"><a xlink:href="classanch_1_1date_1_1_date.html" target="_top" xlink:title=" ">
<polygon fill="white" stroke="#666666" points="97,-56 0,-56 0,-37 97,-37 97,-56"/>
<text text-anchor="middle" x="48.5" y="-44" font-family="Helvetica,sans-Serif" font-size="10.00">anch::date::Date</text>
</a>
</g>
</g>
<!-- Node1 -->
<g id="node2" class="node">
<title>Node1</title>
<g id="a_node2"><a xlink:href="classanch_1_1sql_1_1_date.html" target="_top" xlink:title="SQL date type.">
<polygon fill="white" stroke="#666666" points="238.5,-93 149.5,-93 149.5,-74 238.5,-74 238.5,-93"/>
<text text-anchor="middle" x="194" y="-81" font-family="Helvetica,sans-Serif" font-size="10.00">anch::sql::Date</text>
</a>
</g>
</g>
<!-- Node0&#45;&gt;Node1 -->
<g id="edge1" class="edge">
<title>Node0&#45;&gt;Node1</title>
<path fill="none" stroke="#63b8ff" d="M98.43,-59.12C116.72,-63.83 137.21,-69.12 154.44,-73.56"/>
<polygon fill="#63b8ff" stroke="#63b8ff" points="99.51,-55.52 88.96,-56.42 97.76,-62.3 99.51,-55.52"/>
</g>
<!-- Node2 -->
<g id="node3" class="node">
<title>Node2</title>
<g id="a_node3"><a xlink:href="classanch_1_1sql_1_1_time.html" target="_top" xlink:title="SQL time type.">
<polygon fill="white" stroke="#666666" points="239.5,-56 148.5,-56 148.5,-37 239.5,-37 239.5,-56"/>
<text text-anchor="middle" x="194" y="-44" font-family="Helvetica,sans-Serif" font-size="10.00">anch::sql::Time</text>
</a>
</g>
</g>
<!-- Node0&#45;&gt;Node2 -->
<g id="edge2" class="edge">
<title>Node0&#45;&gt;Node2</title>
<path fill="none" stroke="#63b8ff" d="M107.92,-46.5C121.41,-46.5 135.55,-46.5 148.34,-46.5"/>
<polygon fill="#63b8ff" stroke="#63b8ff" points="108.28,-43 98.28,-46.5 108.28,-50 108.28,-43"/>
</g>
<!-- Node3 -->
<g id="node4" class="node">
<title>Node3</title>
<g id="a_node4"><a xlink:href="classanch_1_1sql_1_1_timestamp.html" target="_top" xlink:title="SQL timestamp type.">
<polygon fill="white" stroke="#666666" points="255,-19 133,-19 133,0 255,0 255,-19"/>
<text text-anchor="middle" x="194" y="-7" font-family="Helvetica,sans-Serif" font-size="10.00">anch::sql::Timestamp</text>
</a>
</g>
</g>
<!-- Node0&#45;&gt;Node3 -->
<g id="edge3" class="edge">
<title>Node0&#45;&gt;Node3</title>
<path fill="none" stroke="#63b8ff" d="M98.43,-33.88C116.72,-29.17 137.21,-23.88 154.44,-19.44"/>
<polygon fill="#63b8ff" stroke="#63b8ff" points="97.76,-30.7 88.96,-36.58 99.51,-37.48 97.76,-30.7"/>
</g>
</g>
</svg>
