<?xml version="1.0" encoding="UTF-8" standalone="no"?>
<!DOCTYPE svg PUBLIC "-//W3C//DTD SVG 1.1//EN"
 "http://www.w3.org/Graphics/SVG/1.1/DTD/svg11.dtd">
<!-- Generated by graphviz version 12.2.1 (0)
 -->
<!-- Title: Graphical Class Hierarchy Pages: 1 -->
<svg width="454pt" height="66pt"
 viewBox="0.00 0.00 454.25 66.00" xmlns="http://www.w3.org/2000/svg" xmlns:xlink="http://www.w3.org/1999/xlink">
<g id="graph0" class="graph" transform="scale(1 1) rotate(0) translate(4 62)">
<title>Graphical Class Hierarchy</title>
<!-- Node0 -->
<g id="Node000000" class="node">
<title>Node0</title>
<g id="a_Node000000"><a xlink:href="classanch_1_1events_1_1_observable.html" target="_top" xlink:title=" ">
<polygon fill="white" stroke="#666666" points="127.75,-45 0,-45 0,-13 127.75,-13 127.75,-45"/>
<text text-anchor="start" x="8" y="-31.5" font-family="Helvetica,sans-Serif" font-size="10.00">anch::events::Observable</text>
<text text-anchor="middle" x="63.88" y="-19.5" font-family="Helvetica,sans-Serif" font-size="10.00">&lt; SocketEvent &gt;</text>
</a>
</g>
</g>
<!-- Node1 -->
<g id="Node000001" class="node">
<title>Node1</title>
<g id="a_Node000001"><a xlink:href="classanch_1_1network_1_1_socket.html" target="_top" xlink:title=" ">
<polygon fill="white" stroke="#666666" points="278,-39 163.75,-39 163.75,-19 278,-19 278,-39"/>
<text text-anchor="middle" x="220.88" y="-25.5" font-family="Helvetica,sans-Serif" font-size="10.00">anch::network::Socket</text>
</a>
</g>
</g>
<!-- Node0&#45;&gt;Node1 -->
<g id="edge32_Node000000_Node000001" class="edge">
<title>Node0&#45;&gt;Node1</title>
<g id="a_edge32_Node000000_Node000001"><a xlink:title=" ">
<path fill="none" stroke="#63b8ff" d="M139.3,-29C147.4,-29 155.54,-29 163.37,-29"/>
<polygon fill="#63b8ff" stroke="#63b8ff" points="139.43,-25.5 129.43,-29 139.43,-32.5 139.43,-25.5"/>
</a>
</g>
</g>
<!-- Node2 -->
<g id="Node000002" class="node">
<title>Node2</title>
<g id="a_Node000002"><a xlink:href="classanch_1_1network_1_1_tcp_socket.html" target="_top" xlink:title=" ">
<polygon fill="white" stroke="#666666" points="445.12,-58 315.12,-58 315.12,-38 445.12,-38 445.12,-58"/>
<text text-anchor="middle" x="380.12" y="-44.5" font-family="Helvetica,sans-Serif" font-size="10.00">anch::network::TcpSocket</text>
</a>
</g>
</g>
<!-- Node1&#45;&gt;Node2 -->
<g id="edge33_Node000001_Node000002" class="edge">
<title>Node1&#45;&gt;Node2</title>
<g id="a_edge33_Node000001_Node000002"><a xlink:title=" ">
<path fill="none" stroke="#63b8ff" d="M289.45,-37.16C297.8,-38.17 306.33,-39.2 314.63,-40.21"/>
<polygon fill="#63b8ff" stroke="#63b8ff" points="290.05,-33.71 279.7,-35.99 289.21,-40.66 290.05,-33.71"/>
</a>
</g>
</g>
<!-- Node3 -->
<g id="Node000003" class="node">
<title>Node3</title>
<g id="a_Node000003"><a xlink:href="classanch_1_1network_1_1_udp_socket.html" target="_top" xlink:title=" ">
<polygon fill="white" stroke="#666666" points="446.25,-20 314,-20 314,0 446.25,0 446.25,-20"/>
<text text-anchor="middle" x="380.12" y="-6.5" font-family="Helvetica,sans-Serif" font-size="10.00">anch::network::UdpSocket</text>
</a>
</g>
</g>
<!-- Node1&#45;&gt;Node3 -->
<g id="edge34_Node000001_Node000003" class="edge">
<title>Node1&#45;&gt;Node3</title>
<g id="a_edge34_Node000001_Node000003"><a xlink:title=" ">
<path fill="none" stroke="#63b8ff" d="M289.39,-20.84C297.4,-19.87 305.57,-18.89 313.55,-17.92"/>
<polygon fill="#63b8ff" stroke="#63b8ff" points="289.21,-17.34 279.7,-22.01 290.05,-24.29 289.21,-17.34"/>
</a>
</g>
</g>
</g>
</svg>
