<?xml version="1.0" encoding="UTF-8" standalone="no"?>
<!DOCTYPE svg PUBLIC "-//W3C//DTD SVG 1.1//EN"
 "http://www.w3.org/Graphics/SVG/1.1/DTD/svg11.dtd">
<!-- Generated by graphviz version 7.0.4 (0)
 -->
<!-- Title: Graphical Class Hierarchy Pages: 1 -->
<svg width="341pt" height="101pt"
 viewBox="0.00 0.00 341.00 101.00" xmlns="http://www.w3.org/2000/svg" xmlns:xlink="http://www.w3.org/1999/xlink">
<g id="graph0" class="graph" transform="scale(1 1) rotate(0) translate(4 97)">
<title>Graphical Class Hierarchy</title>
<!-- Node0 -->
<g id="node1" class="node">
<title>Node0</title>
<g id="a_node1"><a xlink:href="classanch_1_1sql_1_1_connection.html" target="_top" xlink:title="SQL connection virtual class.">
<polygon fill="white" stroke="#666666" points="121,-56 0,-56 0,-37 121,-37 121,-56"/>
<text text-anchor="middle" x="60.5" y="-44" font-family="Helvetica,sans-Serif" font-size="10.00">anch::sql::Connection</text>
</a>
</g>
</g>
<!-- Node1 -->
<g id="node2" class="node">
<title>Node1</title>
<g id="a_node2"><a xlink:href="classanch_1_1sql_1_1_my_s_q_l_connection.html" target="_top" xlink:title="MySQL connection.">
<polygon fill="white" stroke="#666666" points="322.5,-93 167.5,-93 167.5,-74 322.5,-74 322.5,-93"/>
<text text-anchor="middle" x="245" y="-81" font-family="Helvetica,sans-Serif" font-size="10.00">anch::sql::MySQLConnection</text>
</a>
</g>
</g>
<!-- Node0&#45;&gt;Node1 -->
<g id="edge1" class="edge">
<title>Node0&#45;&gt;Node1</title>
<path fill="none" stroke="#63b8ff" d="M121.45,-58.65C145.27,-63.48 172.34,-68.97 194.96,-73.56"/>
<polygon fill="#63b8ff" stroke="#63b8ff" points="122.39,-55.27 111.89,-56.72 121,-62.13 122.39,-55.27"/>
</g>
<!-- Node2 -->
<g id="node3" class="node">
<title>Node2</title>
<g id="a_node3"><a xlink:href="classanch_1_1sql_1_1_postgre_s_q_l_connection.html" target="_top" xlink:title="PostgreSQL connection.">
<polygon fill="white" stroke="#666666" points="333,-56 157,-56 157,-37 333,-37 333,-56"/>
<text text-anchor="middle" x="245" y="-44" font-family="Helvetica,sans-Serif" font-size="10.00">anch::sql::PostgreSQLConnection</text>
</a>
</g>
</g>
<!-- Node0&#45;&gt;Node2 -->
<g id="edge2" class="edge">
<title>Node0&#45;&gt;Node2</title>
<path fill="none" stroke="#63b8ff" d="M132.62,-46.5C140.5,-46.5 148.59,-46.5 156.64,-46.5"/>
<polygon fill="#63b8ff" stroke="#63b8ff" points="132.77,-43 122.77,-46.5 132.77,-50 132.77,-43"/>
</g>
<!-- Node3 -->
<g id="node4" class="node">
<title>Node3</title>
<g id="a_node4"><a xlink:href="classanch_1_1sql_1_1_s_q_lite3_connection.html" target="_top" xlink:title="SQLite3 connection.">
<polygon fill="white" stroke="#666666" points="324,-19 166,-19 166,0 324,0 324,-19"/>
<text text-anchor="middle" x="245" y="-7" font-family="Helvetica,sans-Serif" font-size="10.00">anch::sql::SQLite3Connection</text>
</a>
</g>
</g>
<!-- Node0&#45;&gt;Node3 -->
<g id="edge3" class="edge">
<title>Node0&#45;&gt;Node3</title>
<path fill="none" stroke="#63b8ff" d="M121.45,-34.35C145.27,-29.52 172.34,-24.03 194.96,-19.44"/>
<polygon fill="#63b8ff" stroke="#63b8ff" points="121,-30.87 111.89,-36.28 122.39,-37.73 121,-30.87"/>
</g>
</g>
</svg>
