<?xml version="1.0" encoding="UTF-8" standalone="no"?>
<!DOCTYPE svg PUBLIC "-//W3C//DTD SVG 1.1//EN"
 "http://www.w3.org/Graphics/SVG/1.1/DTD/svg11.dtd">
<!-- Generated by graphviz version 12.1.2 (0)
 -->
<!-- Title: anch::rest::CommonHeaders Pages: 1 -->
<svg width="218pt" height="577pt"
 viewBox="0.00 0.00 217.75 577.00" xmlns="http://www.w3.org/2000/svg" xmlns:xlink="http://www.w3.org/1999/xlink">
<g id="graph0" class="graph" transform="scale(1 1) rotate(0) translate(4 573)">
<title>anch::rest::CommonHeaders</title>
<!-- Node1 -->
<g id="Node000001" class="node">
<title>Node1</title>
<g id="a_Node000001"><a xlink:title="Common HTTP headers.">
<polygon fill="#999999" stroke="none" points="136,-212 0,-212 0,0 136,0 136,-212"/>
<text text-anchor="start" x="5" y="-198.5" font-family="Helvetica,sans-Serif" font-size="10.00">anch::rest::CommonHeaders</text>
<text text-anchor="start" x="5" y="-182.5" font-family="Helvetica,sans-Serif" font-size="10.00">+</text>
<text text-anchor="start" x="16" y="-182.5" font-family="Helvetica,sans-Serif" font-size="10.00">CACHE_CONTROL</text>
<text text-anchor="start" x="5" y="-166.5" font-family="Helvetica,sans-Serif" font-size="10.00">+</text>
<text text-anchor="start" x="16" y="-166.5" font-family="Helvetica,sans-Serif" font-size="10.00">CONNECTION</text>
<text text-anchor="start" x="5" y="-150.5" font-family="Helvetica,sans-Serif" font-size="10.00">+</text>
<text text-anchor="start" x="16" y="-150.5" font-family="Helvetica,sans-Serif" font-size="10.00">CONTENT_ENCODING</text>
<text text-anchor="start" x="5" y="-134.5" font-family="Helvetica,sans-Serif" font-size="10.00">+</text>
<text text-anchor="start" x="16" y="-134.5" font-family="Helvetica,sans-Serif" font-size="10.00">CONTENT_LENGTH</text>
<text text-anchor="start" x="5" y="-118.5" font-family="Helvetica,sans-Serif" font-size="10.00">+</text>
<text text-anchor="start" x="16" y="-118.5" font-family="Helvetica,sans-Serif" font-size="10.00">CONTENT_MD5</text>
<text text-anchor="start" x="5" y="-102.5" font-family="Helvetica,sans-Serif" font-size="10.00">+</text>
<text text-anchor="start" x="16" y="-102.5" font-family="Helvetica,sans-Serif" font-size="10.00">CONTENT_TYPE</text>
<text text-anchor="start" x="5" y="-86.5" font-family="Helvetica,sans-Serif" font-size="10.00">+</text>
<text text-anchor="start" x="16" y="-86.5" font-family="Helvetica,sans-Serif" font-size="10.00">DATE</text>
<text text-anchor="start" x="5" y="-70.5" font-family="Helvetica,sans-Serif" font-size="10.00">+</text>
<text text-anchor="start" x="16" y="-70.5" font-family="Helvetica,sans-Serif" font-size="10.00">PRAGMA</text>
<text text-anchor="start" x="5" y="-54.5" font-family="Helvetica,sans-Serif" font-size="10.00">+</text>
<text text-anchor="start" x="16" y="-54.5" font-family="Helvetica,sans-Serif" font-size="10.00">TRAILER</text>
<text text-anchor="start" x="5" y="-38.5" font-family="Helvetica,sans-Serif" font-size="10.00">+</text>
<text text-anchor="start" x="16" y="-38.5" font-family="Helvetica,sans-Serif" font-size="10.00">TRANSFER_ENCODING</text>
<text text-anchor="start" x="16" y="-22.5" font-family="Helvetica,sans-Serif" font-size="10.00">and 87 more...</text>
<text text-anchor="start" x="66.5" y="-6.5" font-family="Helvetica,sans-Serif" font-size="10.00"> </text>
<polygon fill="#666666" stroke="#666666" points="0,-194 0,-194 136,-194 136,-194 0,-194"/>
<polygon fill="#666666" stroke="#666666" points="0,-18 0,-18 14,-18 14,-18 0,-18"/>
<polygon fill="#666666" stroke="#666666" points="14,-18 14,-18 136,-18 136,-18 14,-18"/>
<polygon fill="none" stroke="#666666" points="0,0 0,-212 136,-212 136,0 0,0"/>
</a>
</g>
</g>
<!-- Node2 -->
<g id="Node000002" class="node">
<title>Node2</title>
<g id="a_Node000002"><a xlink:title=" ">
<polygon fill="white" stroke="none" points="94.5,-468 41.5,-468 41.5,-416 94.5,-416 94.5,-468"/>
<text text-anchor="start" x="46.25" y="-454.5" font-family="Helvetica,sans-Serif" font-size="10.00">std::string</text>
<text text-anchor="start" x="66.5" y="-438.5" font-family="Helvetica,sans-Serif" font-size="10.00"> </text>
<text text-anchor="start" x="66.5" y="-422.5" font-family="Helvetica,sans-Serif" font-size="10.00"> </text>
<polygon fill="#666666" stroke="#666666" points="41.5,-450 41.5,-450 94.5,-450 94.5,-450 41.5,-450"/>
<polygon fill="#666666" stroke="#666666" points="41.5,-434 41.5,-434 94.5,-434 94.5,-434 41.5,-434"/>
<polygon fill="none" stroke="#666666" points="41.5,-416 41.5,-468 94.5,-468 94.5,-416 41.5,-416"/>
</a>
</g>
</g>
<!-- Node2&#45;&gt;Node1 -->
<g id="edge1_Node000001_Node000002" class="edge">
<title>Node2&#45;&gt;Node1</title>
<g id="a_edge1_Node000001_Node000002"><a xlink:title=" ">
<path fill="none" stroke="#63b8ff" d="M68,-416.17C68,-375.96 68,-294.11 68,-224.72"/>
<polygon fill="none" stroke="#63b8ff" points="68,-224.83 64,-218.83 68,-212.83 72,-218.83 68,-224.83"/>
</a>
</g>
<text text-anchor="middle" x="138.88" y="-388.5" font-family="Helvetica,sans-Serif" font-size="10.00" fill="grey"> +ACCEPT</text>
<text text-anchor="middle" x="138.88" y="-376.5" font-family="Helvetica,sans-Serif" font-size="10.00" fill="grey">+ACCEPT_CH</text>
<text text-anchor="middle" x="138.88" y="-364.5" font-family="Helvetica,sans-Serif" font-size="10.00" fill="grey">+ACCEPT_CHARSET</text>
<text text-anchor="middle" x="138.88" y="-352.5" font-family="Helvetica,sans-Serif" font-size="10.00" fill="grey">+ACCEPT_DATETIME</text>
<text text-anchor="middle" x="138.88" y="-340.5" font-family="Helvetica,sans-Serif" font-size="10.00" fill="grey">+ACCEPT_LANGUAGE</text>
<text text-anchor="middle" x="138.88" y="-328.5" font-family="Helvetica,sans-Serif" font-size="10.00" fill="grey">+ACCEPT_PATCH</text>
<text text-anchor="middle" x="138.88" y="-316.5" font-family="Helvetica,sans-Serif" font-size="10.00" fill="grey">+ACCEPT_RANGES</text>
<text text-anchor="start" x="68" y="-304.5" font-family="Helvetica,sans-Serif" font-size="10.00" fill="grey">+ACCESS_CONTROL_ALLOW</text>
<text text-anchor="middle" x="138.88" y="-292.5" font-family="Helvetica,sans-Serif" font-size="10.00" fill="grey">_CREDENTIALS</text>
<text text-anchor="start" x="68" y="-280.5" font-family="Helvetica,sans-Serif" font-size="10.00" fill="grey">+ACCESS_CONTROL_ALLOW</text>
<text text-anchor="middle" x="138.88" y="-268.5" font-family="Helvetica,sans-Serif" font-size="10.00" fill="grey">_HEADERS</text>
<text text-anchor="start" x="68" y="-256.5" font-family="Helvetica,sans-Serif" font-size="10.00" fill="grey">+ACCESS_CONTROL_ALLOW</text>
<text text-anchor="middle" x="138.88" y="-244.5" font-family="Helvetica,sans-Serif" font-size="10.00" fill="grey">_METHODS</text>
<text text-anchor="middle" x="138.88" y="-232.5" font-family="Helvetica,sans-Serif" font-size="10.00" fill="grey">...</text>
</g>
<!-- Node3 -->
<g id="Node000003" class="node">
<title>Node3</title>
<g id="a_Node000003"><a xlink:title=" ">
<polygon fill="white" stroke="none" points="112,-569 24,-569 24,-505 112,-505 112,-569"/>
<text text-anchor="start" x="29" y="-555.5" font-family="Helvetica,sans-Serif" font-size="10.00">std::basic_string&lt;</text>
<text text-anchor="start" x="51.5" y="-543.5" font-family="Helvetica,sans-Serif" font-size="10.00"> Char &gt;</text>
<text text-anchor="start" x="66.5" y="-527.5" font-family="Helvetica,sans-Serif" font-size="10.00"> </text>
<text text-anchor="start" x="66.5" y="-511.5" font-family="Helvetica,sans-Serif" font-size="10.00"> </text>
<polygon fill="#666666" stroke="#666666" points="24,-539 24,-539 112,-539 112,-539 24,-539"/>
<polygon fill="#666666" stroke="#666666" points="24,-523 24,-523 112,-523 112,-523 24,-523"/>
<polygon fill="none" stroke="#666666" points="24,-505 24,-569 112,-569 112,-505 24,-505"/>
</a>
</g>
</g>
<!-- Node3&#45;&gt;Node2 -->
<g id="edge2_Node000002_Node000003" class="edge">
<title>Node3&#45;&gt;Node2</title>
<g id="a_edge2_Node000002_Node000003"><a xlink:title=" ">
<path fill="none" stroke="#63b8ff" d="M68,-493.69C68,-484.89 68,-475.89 68,-467.96"/>
<polygon fill="none" stroke="#63b8ff" points="64.5,-493.52 68,-503.52 71.5,-493.52 64.5,-493.52"/>
</a>
</g>
</g>
</g>
</svg>
