<?xml version="1.0" encoding="UTF-8" standalone="no"?>
<!DOCTYPE svg PUBLIC "-//W3C//DTD SVG 1.1//EN"
 "http://www.w3.org/Graphics/SVG/1.1/DTD/svg11.dtd">
<!-- Generated by graphviz version 12.2.1 (0)
 -->
<!-- Title: anch::rest::CommonHeaders Pages: 1 -->
<!--zoomable 577 -->

<svg id="main" version="1.1" xmlns="http://www.w3.org/2000/svg" xmlns:xlink="http://www.w3.org/1999/xlink" xml:space="preserve" onload="init(evt)">

<style type="text/css"><![CDATA[
.node, .edge {opacity: 0.7;}
.node.selected, .edge.selected {opacity: 1;}
.edge:hover path { stroke: red; }
.edge:hover polygon { stroke: red; fill: red; }
]]></style>

<defs>
  <circle id="rim" cx="0" cy="0" r="7"/>
  <circle id="rim2" cx="0" cy="0" r="3.5"/>
  <g id="zoomPlus">
    <use xlink:href="#rim" fill="#404040"><set attributeName="fill" to="#808080" begin="zoomplus.mouseover" end="zoomplus.mouseout"/></use>
    <path d="M-4,0h8M0,-4v8" fill="none" stroke="white" stroke-width="1.5" pointer-events="none"/>
  </g>
  <g id="zoomMin">
    <use xlink:href="#rim" fill="#404040"><set attributeName="fill" to="#808080" begin="zoomminus.mouseover" end="zoomminus.mouseout"/></use>
    <path d="M-4,0h8" fill="none" stroke="white" stroke-width="1.5" pointer-events="none"/>
  </g>
  <g id="arrowUp" transform="translate(30 24)">
    <use xlink:href="#rim"/>
    <path pointer-events="none" fill="none" stroke="white" stroke-width="1.5" d="M0,-3.0v7 M-2.5,-0.5L0,-3.0L2.5,-0.5"/>
  </g>
  <g id="arrowRight" transform="rotate(90) translate(36 -43)">
    <use xlink:href="#rim"/>
    <path pointer-events="none" fill="none" stroke="white" stroke-width="1.5" d="M0,-3.0v7 M-2.5,-0.5L0,-3.0L2.5,-0.5"/>
  </g>
  <g id="arrowDown" transform="rotate(180) translate(-30 -48)">
    <use xlink:href="#rim"/>
    <path pointer-events="none" fill="none" stroke="white" stroke-width="1.5" d="M0,-3.0v7 M-2.5,-0.5L0,-3.0L2.5,-0.5"/>
  </g>
  <g id="arrowLeft" transform="rotate(270) translate(-36 17)">
    <use xlink:href="#rim"/>
    <path pointer-events="none" fill="none" stroke="white" stroke-width="1.5" d="M0,-3.0v7 M-2.5,-0.5L0,-3.0L2.5,-0.5"/>
  </g>
  <g id="resetDef">
    <use xlink:href="#rim2" fill="#404040"><set attributeName="fill" to="#808080" begin="reset.mouseover" end="reset.mouseout"/></use>
  </g>
</defs>
<script type="application/ecmascript">
var viewWidth = 217;
var viewHeight = 577;
var sectionId = 'dynsection-0';
</script>
<script type="application/ecmascript" xlink:href="svg.min.js"/>
<svg id="graph" class="graph">
<g id="viewport">
<title>anch::rest::CommonHeaders</title>
<!-- Node1 -->
<g id="Node000001" class="node">
<title>Node1</title>
<g id="a_Node000001"><a xlink:title="Common HTTP headers.">
<polygon fill="#999999" stroke="none" points="134,-212 0,-212 0,0 134,0 134,-212"/>
<text text-anchor="start" x="4" y="-198.5" font-family="Helvetica,sans-Serif" font-size="10.00">anch::rest::CommonHeaders</text>
<text text-anchor="start" x="4.31" y="-182.5" font-family="Helvetica,sans-Serif" font-size="10.00">+</text>
<text text-anchor="start" x="14.62" y="-182.5" font-family="Helvetica,sans-Serif" font-size="10.00">CACHE_CONTROL</text>
<text text-anchor="start" x="4.31" y="-166.5" font-family="Helvetica,sans-Serif" font-size="10.00">+</text>
<text text-anchor="start" x="14.62" y="-166.5" font-family="Helvetica,sans-Serif" font-size="10.00">CONNECTION</text>
<text text-anchor="start" x="4.31" y="-150.5" font-family="Helvetica,sans-Serif" font-size="10.00">+</text>
<text text-anchor="start" x="14.62" y="-150.5" font-family="Helvetica,sans-Serif" font-size="10.00">CONTENT_ENCODING</text>
<text text-anchor="start" x="4.31" y="-134.5" font-family="Helvetica,sans-Serif" font-size="10.00">+</text>
<text text-anchor="start" x="14.62" y="-134.5" font-family="Helvetica,sans-Serif" font-size="10.00">CONTENT_LENGTH</text>
<text text-anchor="start" x="4.31" y="-118.5" font-family="Helvetica,sans-Serif" font-size="10.00">+</text>
<text text-anchor="start" x="14.62" y="-118.5" font-family="Helvetica,sans-Serif" font-size="10.00">CONTENT_MD5</text>
<text text-anchor="start" x="4.31" y="-102.5" font-family="Helvetica,sans-Serif" font-size="10.00">+</text>
<text text-anchor="start" x="14.62" y="-102.5" font-family="Helvetica,sans-Serif" font-size="10.00">CONTENT_TYPE</text>
<text text-anchor="start" x="4.31" y="-86.5" font-family="Helvetica,sans-Serif" font-size="10.00">+</text>
<text text-anchor="start" x="14.62" y="-86.5" font-family="Helvetica,sans-Serif" font-size="10.00">DATE</text>
<text text-anchor="start" x="4.31" y="-70.5" font-family="Helvetica,sans-Serif" font-size="10.00">+</text>
<text text-anchor="start" x="14.62" y="-70.5" font-family="Helvetica,sans-Serif" font-size="10.00">PRAGMA</text>
<text text-anchor="start" x="4.31" y="-54.5" font-family="Helvetica,sans-Serif" font-size="10.00">+</text>
<text text-anchor="start" x="14.62" y="-54.5" font-family="Helvetica,sans-Serif" font-size="10.00">TRAILER</text>
<text text-anchor="start" x="4.31" y="-38.5" font-family="Helvetica,sans-Serif" font-size="10.00">+</text>
<text text-anchor="start" x="14.62" y="-38.5" font-family="Helvetica,sans-Serif" font-size="10.00">TRANSFER_ENCODING</text>
<text text-anchor="start" x="14.62" y="-22.5" font-family="Helvetica,sans-Serif" font-size="10.00">and 87 more...</text>
<text text-anchor="start" x="65.5" y="-6.5" font-family="Helvetica,sans-Serif" font-size="10.00"> </text>
<polygon fill="#666666" stroke="#666666" points="0,-194 0,-194 134,-194 134,-194 0,-194"/>
<polygon fill="#666666" stroke="#666666" points="0,-18 0,-18 12.62,-18 12.62,-18 0,-18"/>
<polygon fill="#666666" stroke="#666666" points="12.62,-18 12.62,-18 134,-18 134,-18 12.62,-18"/>
<polygon fill="none" stroke="#666666" points="0,0 0,-212 134,-212 134,0 0,0"/>
</a>
</g>
</g>
<!-- Node2 -->
<g id="Node000002" class="node">
<title>Node2</title>
<g id="a_Node000002"><a xlink:title=" ">
<polygon fill="white" stroke="none" points="92.75,-468 41.25,-468 41.25,-416 92.75,-416 92.75,-468"/>
<text text-anchor="start" x="45.25" y="-454.5" font-family="Helvetica,sans-Serif" font-size="10.00">std::string</text>
<text text-anchor="start" x="65.5" y="-438.5" font-family="Helvetica,sans-Serif" font-size="10.00"> </text>
<text text-anchor="start" x="65.5" y="-422.5" font-family="Helvetica,sans-Serif" font-size="10.00"> </text>
<polygon fill="#666666" stroke="#666666" points="41.25,-450 41.25,-450 92.75,-450 92.75,-450 41.25,-450"/>
<polygon fill="#666666" stroke="#666666" points="41.25,-434 41.25,-434 92.75,-434 92.75,-434 41.25,-434"/>
<polygon fill="none" stroke="#666666" points="41.25,-416 41.25,-468 92.75,-468 92.75,-416 41.25,-416"/>
</a>
</g>
</g>
<!-- Node2&#45;&gt;Node1 -->
<g id="edge1_Node000001_Node000002" class="edge">
<title>Node2&#45;&gt;Node1</title>
<g id="a_edge1_Node000001_Node000002"><a xlink:title=" ">
<path fill="none" stroke="#63b8ff" d="M67,-416.17C67,-375.96 67,-294.11 67,-224.72"/>
<polygon fill="none" stroke="#63b8ff" points="67,-224.83 63,-218.83 67,-212.83 71,-218.83 67,-224.83"/>
</a>
</g>
<text text-anchor="middle" x="137.88" y="-388.5" font-family="Helvetica,sans-Serif" font-size="10.00" fill="grey"> +ACCEPT</text>
<text text-anchor="middle" x="137.88" y="-376.5" font-family="Helvetica,sans-Serif" font-size="10.00" fill="grey">+ACCEPT_CH</text>
<text text-anchor="middle" x="137.88" y="-364.5" font-family="Helvetica,sans-Serif" font-size="10.00" fill="grey">+ACCEPT_CHARSET</text>
<text text-anchor="middle" x="137.88" y="-352.5" font-family="Helvetica,sans-Serif" font-size="10.00" fill="grey">+ACCEPT_DATETIME</text>
<text text-anchor="middle" x="137.88" y="-340.5" font-family="Helvetica,sans-Serif" font-size="10.00" fill="grey">+ACCEPT_LANGUAGE</text>
<text text-anchor="middle" x="137.88" y="-328.5" font-family="Helvetica,sans-Serif" font-size="10.00" fill="grey">+ACCEPT_PATCH</text>
<text text-anchor="middle" x="137.88" y="-316.5" font-family="Helvetica,sans-Serif" font-size="10.00" fill="grey">+ACCEPT_RANGES</text>
<text text-anchor="start" x="67" y="-304.5" font-family="Helvetica,sans-Serif" font-size="10.00" fill="grey">+ACCESS_CONTROL_ALLOW</text>
<text text-anchor="middle" x="137.88" y="-292.5" font-family="Helvetica,sans-Serif" font-size="10.00" fill="grey">_CREDENTIALS</text>
<text text-anchor="start" x="67" y="-280.5" font-family="Helvetica,sans-Serif" font-size="10.00" fill="grey">+ACCESS_CONTROL_ALLOW</text>
<text text-anchor="middle" x="137.88" y="-268.5" font-family="Helvetica,sans-Serif" font-size="10.00" fill="grey">_HEADERS</text>
<text text-anchor="start" x="67" y="-256.5" font-family="Helvetica,sans-Serif" font-size="10.00" fill="grey">+ACCESS_CONTROL_ALLOW</text>
<text text-anchor="middle" x="137.88" y="-244.5" font-family="Helvetica,sans-Serif" font-size="10.00" fill="grey">_METHODS</text>
<text text-anchor="middle" x="137.88" y="-232.5" font-family="Helvetica,sans-Serif" font-size="10.00" fill="grey">...</text>
</g>
<!-- Node3 -->
<g id="Node000003" class="node">
<title>Node3</title>
<g id="a_Node000003"><a xlink:title=" ">
<polygon fill="white" stroke="none" points="110,-569 24,-569 24,-505 110,-505 110,-569"/>
<text text-anchor="start" x="28" y="-555.5" font-family="Helvetica,sans-Serif" font-size="10.00">std::basic_string&lt;</text>
<text text-anchor="start" x="50.5" y="-543.5" font-family="Helvetica,sans-Serif" font-size="10.00"> Char &gt;</text>
<text text-anchor="start" x="65.5" y="-527.5" font-family="Helvetica,sans-Serif" font-size="10.00"> </text>
<text text-anchor="start" x="65.5" y="-511.5" font-family="Helvetica,sans-Serif" font-size="10.00"> </text>
<polygon fill="#666666" stroke="#666666" points="24,-539 24,-539 110,-539 110,-539 24,-539"/>
<polygon fill="#666666" stroke="#666666" points="24,-523 24,-523 110,-523 110,-523 24,-523"/>
<polygon fill="none" stroke="#666666" points="24,-505 24,-569 110,-569 110,-505 24,-505"/>
</a>
</g>
</g>
<!-- Node3&#45;&gt;Node2 -->
<g id="edge2_Node000002_Node000003" class="edge">
<title>Node3&#45;&gt;Node2</title>
<g id="a_edge2_Node000002_Node000003"><a xlink:title=" ">
<path fill="none" stroke="#63b8ff" d="M67,-493.69C67,-484.89 67,-475.89 67,-467.96"/>
<polygon fill="none" stroke="#63b8ff" points="63.5,-493.52 67,-503.52 70.5,-493.52 63.5,-493.52"/>
</a>
</g>
</g>
</g>
</svg>

<g id="navigator" transform="translate(0 0)" fill="#404254">
  <rect fill="#f2f5e9" fill-opacity="0.5" stroke="#606060" stroke-width=".5" x="0" y="0" width="60" height="60"/>
  <use id="zoomplus" xlink:href="#zoomPlus" x="17" y="9" onmousedown="handleZoom(evt,'in')"/>
  <use id="zoomminus" xlink:href="#zoomMin" x="42" y="9" onmousedown="handleZoom(evt,'out')"/>
  <use id="reset" xlink:href="#resetDef" x="30" y="36" onmousedown="handleReset()"/>
   <use id="arrowup" xlink:href="#arrowUp" x="0" y="0" onmousedown="handlePan(0,-1)"/>
  <use id="arrowright" xlink:href="#arrowRight" x="0" y="0" onmousedown="handlePan(1,0)"/>
  <use id="arrowdown" xlink:href="#arrowDown" x="0" y="0" onmousedown="handlePan(0,1)"/>
  <use id="arrowleft" xlink:href="#arrowLeft" x="0" y="0" onmousedown="handlePan(-1,0)"/>
</g>
<svg viewBox="0 0 15 15" width="100%" height="30px" preserveAspectRatio="xMaxYMin meet">
 <g id="arrow_out" transform="scale(0.3 0.3)">
  <a xlink:href="structanch_1_1rest_1_1_common_headers__coll__graph_org.svg" target="_base">
   <rect id="button" ry="5" rx="5" y="6" x="6" height="38" width="38"
        fill="#f2f5e9" fill-opacity="0.5" stroke="#606060" stroke-width="1.0"/>
   <path id="arrow"
     d="M 11.500037,31.436501 C 11.940474,20.09759 22.043105,11.32322 32.158766,21.979434 L 37.068811,17.246167 C 37.068811,17.246167 37.088388,32 37.088388,32 L 22.160133,31.978069 C 22.160133,31.978069 26.997745,27.140456 26.997745,27.140456 C 18.528582,18.264221 13.291696,25.230495 11.500037,31.436501 z"
     style="fill:#404040;"/>
  </a>
 </g>
</svg>

<style type='text/css'>
<![CDATA[
[data-mouse-over-selected='false'] { opacity: 0.7; }
[data-mouse-over-selected='true']  { opacity: 1.0; }
]]>
</style>
<script type="application/ecmascript"><![CDATA[
document.addEventListener('DOMContentLoaded', (event) => {
  highlightEdges();
  highlightAdjacentNodes();
});
]]></script>
</svg>
