<?xml version="1.0" encoding="UTF-8" standalone="no"?>
<!DOCTYPE svg PUBLIC "-//W3C//DTD SVG 1.1//EN"
 "http://www.w3.org/Graphics/SVG/1.1/DTD/svg11.dtd">
<!-- Generated by graphviz version 12.2.1 (0)
 -->
<!-- Title: anch::rest::MediaType Pages: 1 -->
<svg width="255pt" height="509pt"
 viewBox="0.00 0.00 255.12 509.00" xmlns="http://www.w3.org/2000/svg" xmlns:xlink="http://www.w3.org/1999/xlink">
<g id="graph0" class="graph" transform="scale(1 1) rotate(0) translate(4 505)">
<title>anch::rest::MediaType</title>
<!-- Node1 -->
<g id="Node000001" class="node">
<title>Node1</title>
<g id="a_Node000001"><a xlink:title="Media type.">
<polygon fill="#999999" stroke="none" points="195.75,-180 0,-180 0,0 195.75,0 195.75,-180"/>
<text text-anchor="start" x="49.5" y="-166.5" font-family="Helvetica,sans-Serif" font-size="10.00">anch::rest::MediaType</text>
<text text-anchor="start" x="4" y="-150.5" font-family="Helvetica,sans-Serif" font-size="10.00">+</text>
<text text-anchor="start" x="14" y="-150.5" font-family="Helvetica,sans-Serif" font-size="10.00">NONE</text>
<text text-anchor="start" x="4" y="-134.5" font-family="Helvetica,sans-Serif" font-size="10.00">+</text>
<text text-anchor="start" x="14" y="-134.5" font-family="Helvetica,sans-Serif" font-size="10.00">APP_X_PROTOBUF</text>
<text text-anchor="start" x="4" y="-118.5" font-family="Helvetica,sans-Serif" font-size="10.00">+</text>
<text text-anchor="start" x="14" y="-118.5" font-family="Helvetica,sans-Serif" font-size="10.00">APP_X_WWW_FORM_URLENCODED</text>
<text text-anchor="start" x="4" y="-102.5" font-family="Helvetica,sans-Serif" font-size="10.00">+</text>
<text text-anchor="start" x="14" y="-102.5" font-family="Helvetica,sans-Serif" font-size="10.00">MULTIPART_FORM_DATA</text>
<text text-anchor="start" x="4" y="-86.5" font-family="Helvetica,sans-Serif" font-size="10.00">+</text>
<text text-anchor="start" x="14" y="-86.5" font-family="Helvetica,sans-Serif" font-size="10.00">TXT_CSS</text>
<text text-anchor="start" x="4" y="-70.5" font-family="Helvetica,sans-Serif" font-size="10.00">+</text>
<text text-anchor="start" x="14" y="-70.5" font-family="Helvetica,sans-Serif" font-size="10.00">TXT_CSV</text>
<text text-anchor="start" x="4" y="-54.5" font-family="Helvetica,sans-Serif" font-size="10.00">+</text>
<text text-anchor="start" x="14" y="-54.5" font-family="Helvetica,sans-Serif" font-size="10.00">TXT_HTML</text>
<text text-anchor="start" x="4" y="-38.5" font-family="Helvetica,sans-Serif" font-size="10.00">+</text>
<text text-anchor="start" x="14" y="-38.5" font-family="Helvetica,sans-Serif" font-size="10.00">TXT_PLAIN</text>
<text text-anchor="start" x="4" y="-22.5" font-family="Helvetica,sans-Serif" font-size="10.00">+</text>
<text text-anchor="start" x="14" y="-22.5" font-family="Helvetica,sans-Serif" font-size="10.00">TXT_XML</text>
<text text-anchor="start" x="96.38" y="-6.5" font-family="Helvetica,sans-Serif" font-size="10.00"> </text>
<polygon fill="#666666" stroke="#666666" points="0,-162 0,-162 195.75,-162 195.75,-162 0,-162"/>
<polygon fill="#666666" stroke="#666666" points="0,-18 0,-18 12,-18 12,-18 0,-18"/>
<polygon fill="#666666" stroke="#666666" points="12,-18 12,-18 195.75,-18 195.75,-18 12,-18"/>
<polygon fill="none" stroke="#666666" points="0,0 0,-180 195.75,-180 195.75,0 0,0"/>
</a>
</g>
</g>
<!-- Node2 -->
<g id="Node000002" class="node">
<title>Node2</title>
<g id="a_Node000002"><a xlink:title=" ">
<polygon fill="white" stroke="none" points="123.62,-400 72.12,-400 72.12,-348 123.62,-348 123.62,-400"/>
<text text-anchor="start" x="76.12" y="-386.5" font-family="Helvetica,sans-Serif" font-size="10.00">std::string</text>
<text text-anchor="start" x="96.38" y="-370.5" font-family="Helvetica,sans-Serif" font-size="10.00"> </text>
<text text-anchor="start" x="96.38" y="-354.5" font-family="Helvetica,sans-Serif" font-size="10.00"> </text>
<polygon fill="#666666" stroke="#666666" points="72.12,-382 72.12,-382 123.62,-382 123.62,-382 72.12,-382"/>
<polygon fill="#666666" stroke="#666666" points="72.12,-366 72.12,-366 123.62,-366 123.62,-366 72.12,-366"/>
<polygon fill="none" stroke="#666666" points="72.12,-348 72.12,-400 123.62,-400 123.62,-348 72.12,-348"/>
</a>
</g>
</g>
<!-- Node2&#45;&gt;Node1 -->
<g id="edge1_Node000001_Node000002" class="edge">
<title>Node2&#45;&gt;Node1</title>
<g id="a_edge1_Node000001_Node000002"><a xlink:title=" ">
<path fill="none" stroke="#63b8ff" d="M97.88,-348.47C97.88,-313.91 97.88,-248.83 97.88,-192.76"/>
<polygon fill="none" stroke="#63b8ff" points="97.88,-192.74 93.88,-186.74 97.88,-180.74 101.88,-186.74 97.88,-192.74"/>
</a>
</g>
<text text-anchor="middle" x="172.5" y="-320.5" font-family="Helvetica,sans-Serif" font-size="10.00" fill="grey"> +ALL</text>
<text text-anchor="middle" x="172.5" y="-308.5" font-family="Helvetica,sans-Serif" font-size="10.00" fill="grey">+APP_GRAPHQL</text>
<text text-anchor="middle" x="172.5" y="-296.5" font-family="Helvetica,sans-Serif" font-size="10.00" fill="grey">+APP_JAVASCRIPT</text>
<text text-anchor="middle" x="172.5" y="-284.5" font-family="Helvetica,sans-Serif" font-size="10.00" fill="grey">+APP_JSON</text>
<text text-anchor="middle" x="172.5" y="-272.5" font-family="Helvetica,sans-Serif" font-size="10.00" fill="grey">+APP_OCTET_STREAM</text>
<text text-anchor="middle" x="172.5" y="-260.5" font-family="Helvetica,sans-Serif" font-size="10.00" fill="grey">+APP_VND_PROTOBUF</text>
<text text-anchor="middle" x="172.5" y="-248.5" font-family="Helvetica,sans-Serif" font-size="10.00" fill="grey">+APP_VND_THRIFT_BINARY</text>
<text text-anchor="middle" x="172.5" y="-236.5" font-family="Helvetica,sans-Serif" font-size="10.00" fill="grey">+APP_VND_THRIFT_COMPACT</text>
<text text-anchor="middle" x="172.5" y="-224.5" font-family="Helvetica,sans-Serif" font-size="10.00" fill="grey">+APP_VND_THRIFT_JSON</text>
<text text-anchor="middle" x="172.5" y="-212.5" font-family="Helvetica,sans-Serif" font-size="10.00" fill="grey">+APP_XML</text>
<text text-anchor="middle" x="172.5" y="-200.5" font-family="Helvetica,sans-Serif" font-size="10.00" fill="grey">...</text>
</g>
<!-- Node3 -->
<g id="Node000003" class="node">
<title>Node3</title>
<g id="a_Node000003"><a xlink:title=" ">
<polygon fill="white" stroke="none" points="140.88,-501 54.88,-501 54.88,-437 140.88,-437 140.88,-501"/>
<text text-anchor="start" x="58.88" y="-487.5" font-family="Helvetica,sans-Serif" font-size="10.00">std::basic_string&lt;</text>
<text text-anchor="start" x="81.38" y="-475.5" font-family="Helvetica,sans-Serif" font-size="10.00"> Char &gt;</text>
<text text-anchor="start" x="96.38" y="-459.5" font-family="Helvetica,sans-Serif" font-size="10.00"> </text>
<text text-anchor="start" x="96.38" y="-443.5" font-family="Helvetica,sans-Serif" font-size="10.00"> </text>
<polygon fill="#666666" stroke="#666666" points="54.88,-471 54.88,-471 140.88,-471 140.88,-471 54.88,-471"/>
<polygon fill="#666666" stroke="#666666" points="54.88,-455 54.88,-455 140.88,-455 140.88,-455 54.88,-455"/>
<polygon fill="none" stroke="#666666" points="54.88,-437 54.88,-501 140.88,-501 140.88,-437 54.88,-437"/>
</a>
</g>
</g>
<!-- Node3&#45;&gt;Node2 -->
<g id="edge2_Node000002_Node000003" class="edge">
<title>Node3&#45;&gt;Node2</title>
<g id="a_edge2_Node000002_Node000003"><a xlink:title=" ">
<path fill="none" stroke="#63b8ff" d="M97.88,-425.69C97.88,-416.89 97.88,-407.89 97.88,-399.96"/>
<polygon fill="none" stroke="#63b8ff" points="94.38,-425.52 97.88,-435.52 101.38,-425.52 94.38,-425.52"/>
</a>
</g>
</g>
</g>
</svg>
