<?xml version="1.0" encoding="UTF-8" standalone="no"?>
<!DOCTYPE svg PUBLIC "-//W3C//DTD SVG 1.1//EN"
 "http://www.w3.org/Graphics/SVG/1.1/DTD/svg11.dtd">
<!-- Generated by graphviz version 12.0.0 (0)
 -->
<!-- Title: anch::rest::CommonHeaders Pages: 1 -->
<svg width="221pt" height="589pt"
 viewBox="0.00 0.00 220.75 588.50" xmlns="http://www.w3.org/2000/svg" xmlns:xlink="http://www.w3.org/1999/xlink">
<g id="graph0" class="graph" transform="scale(1 1) rotate(0) translate(4 584.5)">
<title>anch::rest::CommonHeaders</title>
<!-- Node1 -->
<g id="Node000001" class="node">
<title>Node1</title>
<g id="a_Node000001"><a xlink:title="Common HTTP headers.">
<polygon fill="#999999" stroke="none" points="148,-212 0,-212 0,0 148,0 148,-212"/>
<text text-anchor="start" x="4.62" y="-198.5" font-family="Helvetica,sans-Serif" font-size="10.00">anch::rest::CommonHeaders</text>
<text text-anchor="start" x="8.38" y="-182.5" font-family="Helvetica,sans-Serif" font-size="10.00">+</text>
<text text-anchor="start" x="25" y="-182.5" font-family="Helvetica,sans-Serif" font-size="10.00">CACHE_CONTROL</text>
<text text-anchor="start" x="8.38" y="-166.5" font-family="Helvetica,sans-Serif" font-size="10.00">+</text>
<text text-anchor="start" x="25" y="-166.5" font-family="Helvetica,sans-Serif" font-size="10.00">CONNECTION</text>
<text text-anchor="start" x="8.38" y="-150.5" font-family="Helvetica,sans-Serif" font-size="10.00">+</text>
<text text-anchor="start" x="25" y="-150.5" font-family="Helvetica,sans-Serif" font-size="10.00">CONTENT_ENCODING</text>
<text text-anchor="start" x="8.38" y="-134.5" font-family="Helvetica,sans-Serif" font-size="10.00">+</text>
<text text-anchor="start" x="25" y="-134.5" font-family="Helvetica,sans-Serif" font-size="10.00">CONTENT_LENGTH</text>
<text text-anchor="start" x="8.38" y="-118.5" font-family="Helvetica,sans-Serif" font-size="10.00">+</text>
<text text-anchor="start" x="25" y="-118.5" font-family="Helvetica,sans-Serif" font-size="10.00">CONTENT_MD5</text>
<text text-anchor="start" x="8.38" y="-102.5" font-family="Helvetica,sans-Serif" font-size="10.00">+</text>
<text text-anchor="start" x="25" y="-102.5" font-family="Helvetica,sans-Serif" font-size="10.00">CONTENT_TYPE</text>
<text text-anchor="start" x="8.38" y="-86.5" font-family="Helvetica,sans-Serif" font-size="10.00">+</text>
<text text-anchor="start" x="25" y="-86.5" font-family="Helvetica,sans-Serif" font-size="10.00">DATE</text>
<text text-anchor="start" x="8.38" y="-70.5" font-family="Helvetica,sans-Serif" font-size="10.00">+</text>
<text text-anchor="start" x="25" y="-70.5" font-family="Helvetica,sans-Serif" font-size="10.00">PRAGMA</text>
<text text-anchor="start" x="8.38" y="-54.5" font-family="Helvetica,sans-Serif" font-size="10.00">+</text>
<text text-anchor="start" x="25" y="-54.5" font-family="Helvetica,sans-Serif" font-size="10.00">TRAILER</text>
<text text-anchor="start" x="8.38" y="-38.5" font-family="Helvetica,sans-Serif" font-size="10.00">+</text>
<text text-anchor="start" x="25" y="-38.5" font-family="Helvetica,sans-Serif" font-size="10.00">TRANSFER_ENCODING</text>
<text text-anchor="start" x="25" y="-22.5" font-family="Helvetica,sans-Serif" font-size="10.00">and 87 more...</text>
<text text-anchor="start" x="72.5" y="-6.5" font-family="Helvetica,sans-Serif" font-size="10.00"> </text>
<polygon fill="#666666" stroke="#666666" points="0,-194 0,-194 148,-194 148,-194 0,-194"/>
<polygon fill="#666666" stroke="#666666" points="0,-18 0,-18 23,-18 23,-18 0,-18"/>
<polygon fill="#666666" stroke="#666666" points="23,-18 23,-18 148,-18 148,-18 23,-18"/>
<polygon fill="none" stroke="#666666" points="0,0 0,-212 148,-212 148,0 0,0"/>
</a>
</g>
</g>
<!-- Node2 -->
<g id="Node000002" class="node">
<title>Node2</title>
<g id="a_Node000002"><a xlink:title=" ">
<polygon fill="white" stroke="none" points="103,-478.5 45,-478.5 45,-426.5 103,-426.5 103,-478.5"/>
<text text-anchor="start" x="49.62" y="-465" font-family="Helvetica,sans-Serif" font-size="10.00">std::string</text>
<text text-anchor="start" x="72.5" y="-449" font-family="Helvetica,sans-Serif" font-size="10.00"> </text>
<text text-anchor="start" x="72.5" y="-433" font-family="Helvetica,sans-Serif" font-size="10.00"> </text>
<polygon fill="#666666" stroke="#666666" points="45,-460.5 45,-460.5 103,-460.5 103,-460.5 45,-460.5"/>
<polygon fill="#666666" stroke="#666666" points="45,-444.5 45,-444.5 103,-444.5 103,-444.5 45,-444.5"/>
<polygon fill="none" stroke="#666666" points="45,-426.5 45,-478.5 103,-478.5 103,-426.5 45,-426.5"/>
</a>
</g>
</g>
<!-- Node2&#45;&gt;Node1 -->
<g id="edge1_Node000001_Node000002" class="edge">
<title>Node2&#45;&gt;Node1</title>
<g id="a_edge1_Node000001_Node000002"><a xlink:title=" ">
<path fill="none" stroke="#63b8ff" d="M74,-426.72C74,-384.88 74,-297.65 74,-224.86"/>
<polygon fill="none" stroke="#63b8ff" points="74,-224.82 70,-218.82 74,-212.82 78,-218.82 74,-224.82"/>
</a>
</g>
<text text-anchor="middle" x="143.38" y="-399" font-family="Helvetica,sans-Serif" font-size="10.00" fill="grey"> +ACCEPT</text>
<text text-anchor="middle" x="143.38" y="-386.25" font-family="Helvetica,sans-Serif" font-size="10.00" fill="grey">+ACCEPT_CH</text>
<text text-anchor="middle" x="143.38" y="-373.5" font-family="Helvetica,sans-Serif" font-size="10.00" fill="grey">+ACCEPT_CHARSET</text>
<text text-anchor="middle" x="143.38" y="-360.75" font-family="Helvetica,sans-Serif" font-size="10.00" fill="grey">+ACCEPT_DATETIME</text>
<text text-anchor="middle" x="143.38" y="-348" font-family="Helvetica,sans-Serif" font-size="10.00" fill="grey">+ACCEPT_LANGUAGE</text>
<text text-anchor="middle" x="143.38" y="-335.25" font-family="Helvetica,sans-Serif" font-size="10.00" fill="grey">+ACCEPT_PATCH</text>
<text text-anchor="middle" x="143.38" y="-322.5" font-family="Helvetica,sans-Serif" font-size="10.00" fill="grey">+ACCEPT_RANGES</text>
<text text-anchor="start" x="74" y="-309.75" font-family="Helvetica,sans-Serif" font-size="10.00" fill="grey">+ACCESS_CONTROL_ALLOW</text>
<text text-anchor="middle" x="143.38" y="-297" font-family="Helvetica,sans-Serif" font-size="10.00" fill="grey">_CREDENTIALS</text>
<text text-anchor="start" x="74" y="-284.25" font-family="Helvetica,sans-Serif" font-size="10.00" fill="grey">+ACCESS_CONTROL_ALLOW</text>
<text text-anchor="middle" x="143.38" y="-271.5" font-family="Helvetica,sans-Serif" font-size="10.00" fill="grey">_HEADERS</text>
<text text-anchor="start" x="74" y="-258.75" font-family="Helvetica,sans-Serif" font-size="10.00" fill="grey">+ACCESS_CONTROL_ALLOW</text>
<text text-anchor="middle" x="143.38" y="-246" font-family="Helvetica,sans-Serif" font-size="10.00" fill="grey">_METHODS</text>
<text text-anchor="middle" x="143.38" y="-233.25" font-family="Helvetica,sans-Serif" font-size="10.00" fill="grey">...</text>
</g>
<!-- Node3 -->
<g id="Node000003" class="node">
<title>Node3</title>
<g id="a_Node000003"><a xlink:title=" ">
<polygon fill="white" stroke="none" points="122.5,-580.5 25.5,-580.5 25.5,-515.5 122.5,-515.5 122.5,-580.5"/>
<text text-anchor="start" x="30.12" y="-567" font-family="Helvetica,sans-Serif" font-size="10.00">std::basic_string&lt;</text>
<text text-anchor="start" x="55.62" y="-554.25" font-family="Helvetica,sans-Serif" font-size="10.00"> Char &gt;</text>
<text text-anchor="start" x="72.5" y="-538" font-family="Helvetica,sans-Serif" font-size="10.00"> </text>
<text text-anchor="start" x="72.5" y="-522" font-family="Helvetica,sans-Serif" font-size="10.00"> </text>
<polygon fill="#666666" stroke="#666666" points="25.5,-549.5 25.5,-549.5 122.5,-549.5 122.5,-549.5 25.5,-549.5"/>
<polygon fill="#666666" stroke="#666666" points="25.5,-533.5 25.5,-533.5 122.5,-533.5 122.5,-533.5 25.5,-533.5"/>
<polygon fill="none" stroke="#666666" points="25.5,-515.5 25.5,-580.5 122.5,-580.5 122.5,-515.5 25.5,-515.5"/>
</a>
</g>
</g>
<!-- Node3&#45;&gt;Node2 -->
<g id="edge2_Node000002_Node000003" class="edge">
<title>Node3&#45;&gt;Node2</title>
<g id="a_edge2_Node000002_Node000003"><a xlink:title=" ">
<path fill="none" stroke="#63b8ff" d="M74,-504.23C74,-495.41 74,-486.39 74,-478.46"/>
<polygon fill="none" stroke="#63b8ff" points="70.5,-504.09 74,-514.09 77.5,-504.09 70.5,-504.09"/>
</a>
</g>
</g>
</g>
</svg>
