<?xml version="1.0" encoding="UTF-8" standalone="no"?>
<!DOCTYPE svg PUBLIC "-//W3C//DTD SVG 1.1//EN"
 "http://www.w3.org/Graphics/SVG/1.1/DTD/svg11.dtd">
<!-- Generated by graphviz version 7.0.4 (0)
 -->
<!-- Title: anch::crypto::AesniKey&lt; S &gt; Pages: 1 -->
<svg width="170pt" height="170pt"
 viewBox="0.00 0.00 170.00 170.00" xmlns="http://www.w3.org/2000/svg" xmlns:xlink="http://www.w3.org/1999/xlink">
<g id="graph0" class="graph" transform="scale(1 1) rotate(0) translate(4 166)">
<title>anch::crypto::AesniKey&lt; S &gt;</title>
<!-- Node1 -->
<g id="node1" class="node">
<title>Node1</title>
<g id="a_node1"><a xlink:title=" ">
<polygon fill="#999999" stroke="#666666" points="162,-162 0,-162 0,-110 162,-110 162,-162"/>
<text text-anchor="middle" x="81" y="-150" font-family="Helvetica,sans-Serif" font-size="10.00">{anch::crypto::AesniKey&lt; S &gt;</text>
<text text-anchor="start" x="8" y="-139" font-family="Helvetica,sans-Serif" font-size="10.00">|+ cipherKey</text>
<text text-anchor="start" x="8" y="-128" font-family="Helvetica,sans-Serif" font-size="10.00">+ decipherKey</text>
<text text-anchor="middle" x="81" y="-117" font-family="Helvetica,sans-Serif" font-size="10.00">|}</text>
</a>
</g>
</g>
<!-- Node2 -->
<g id="node2" class="node">
<title>Node2</title>
<g id="a_node2"><a xlink:href="structanch_1_1crypto_1_1_aesni_key.html" target="_top" xlink:title=" ">
<polygon fill="white" stroke="#bfbfbf" points="148,-63 14,-63 14,0 148,0 148,-63"/>
<text text-anchor="start" x="22" y="-51" font-family="Helvetica,sans-Serif" font-size="10.00">{anch::crypto::AesniKey</text>
<text text-anchor="middle" x="81" y="-40" font-family="Helvetica,sans-Serif" font-size="10.00">&lt; R+1 &gt;</text>
<text text-anchor="start" x="22" y="-29" font-family="Helvetica,sans-Serif" font-size="10.00">|+ cipherKey</text>
<text text-anchor="start" x="22" y="-18" font-family="Helvetica,sans-Serif" font-size="10.00">+ decipherKey</text>
<text text-anchor="middle" x="81" y="-7" font-family="Helvetica,sans-Serif" font-size="10.00">|}</text>
</a>
</g>
</g>
<!-- Node1&#45;&gt;Node2 -->
<g id="edge1" class="edge">
<title>Node1&#45;&gt;Node2</title>
<path fill="none" stroke="orange" d="M81,-98.25C81,-86.83 81,-74.37 81,-63.4"/>
<polygon fill="orange" stroke="orange" points="77.5,-98.15 81,-108.15 84.5,-98.15 77.5,-98.15"/>
<text text-anchor="middle" x="104.5" y="-84" font-family="Helvetica,sans-Serif" font-size="10.00"> &lt; R+1 &gt;</text>
</g>
</g>
</svg>
