<?xml version="1.0" encoding="UTF-8" standalone="no"?>
<!DOCTYPE svg PUBLIC "-//W3C//DTD SVG 1.1//EN"
 "http://www.w3.org/Graphics/SVG/1.1/DTD/svg11.dtd">
<!-- Generated by graphviz version 14.0.5 (0)
 -->
<!-- Title: anch::events::Event&lt; T &gt; Pages: 1 -->
<svg width="269pt" height="418pt"
 viewBox="0.00 0.00 269.00 418.00" xmlns="http://www.w3.org/2000/svg" xmlns:xlink="http://www.w3.org/1999/xlink">

<svg id="main" version="1.1" xmlns="http://www.w3.org/2000/svg" xmlns:xlink="http://www.w3.org/1999/xlink" xml:space="preserve">

<style type="text/css"><![CDATA[
.node, .edge {opacity: 0.7;}
.node.selected, .edge.selected {opacity: 1;}
.edge:hover path { stroke: red; }
.edge:hover polygon { stroke: red; fill: red; }
]]></style>
<script type="application/ecmascript" xlink:href="svg.min.js"/>
<svg id="graph" class="graph">
<g id="graph0" class="graph" transform="scale(1 1) rotate(0) translate(4 414)">
<title>anch::events::Event&lt; T &gt;</title>
<!-- Node1 -->
<g id="Node000001" class="node">
<title>Node1</title>
<g id="a_Node000001"><a xlink:title="Event representation.">
<polygon fill="#999999" stroke="none" points="242.5,-52 123.5,-52 123.5,0 242.5,0 242.5,-52"/>
<text xml:space="preserve" text-anchor="start" x="127.5" y="-38.5" font-family="Helvetica,sans-Serif" font-size="10.00">anch::events::Event&lt; T &gt;</text>
<text xml:space="preserve" text-anchor="start" x="181.5" y="-22.5" font-family="Helvetica,sans-Serif" font-size="10.00"> </text>
<text xml:space="preserve" text-anchor="start" x="181.5" y="-6.5" font-family="Helvetica,sans-Serif" font-size="10.00"> </text>
<polygon fill="#666666" stroke="#666666" points="123.5,-34 123.5,-34 242.5,-34 242.5,-34 123.5,-34"/>
<polygon fill="#666666" stroke="#666666" points="123.5,-18 123.5,-18 242.5,-18 242.5,-18 123.5,-18"/>
<polygon fill="none" stroke="#666666" points="123.5,0 123.5,-52 242.5,-52 242.5,0 123.5,0"/>
</a>
</g>
</g>
<!-- Node2 -->
<g id="Node000002" class="node">
<title>Node2</title>
<g id="a_Node000002"><a xlink:title=" ">
<polygon fill="white" stroke="none" points="182.88,-170 81.12,-170 81.12,-106 182.88,-106 182.88,-170"/>
<text xml:space="preserve" text-anchor="start" x="85.12" y="-156.5" font-family="Helvetica,sans-Serif" font-size="10.00">std::map&lt; std::string,</text>
<text xml:space="preserve" text-anchor="start" x="104.25" y="-144.5" font-family="Helvetica,sans-Serif" font-size="10.00"> std::string &gt;</text>
<text xml:space="preserve" text-anchor="start" x="130.5" y="-128.5" font-family="Helvetica,sans-Serif" font-size="10.00"> </text>
<text xml:space="preserve" text-anchor="start" x="130.5" y="-112.5" font-family="Helvetica,sans-Serif" font-size="10.00"> </text>
<polygon fill="#666666" stroke="#666666" points="81.12,-140 81.12,-140 182.88,-140 182.88,-140 81.12,-140"/>
<polygon fill="#666666" stroke="#666666" points="81.12,-124 81.12,-124 182.88,-124 182.88,-124 81.12,-124"/>
<polygon fill="none" stroke="#666666" points="81.12,-106 81.12,-170 182.88,-170 182.88,-106 81.12,-106"/>
</a>
</g>
</g>
<!-- Node2&#45;&gt;Node1 -->
<g id="edge1_Node000001_Node000002" class="edge">
<title>Node2&#45;&gt;Node1</title>
<g id="a_edge1_Node000001_Node000002"><a xlink:title=" ">
<path fill="none" stroke="#63b8ff" d="M146.34,-106.07C152.49,-92.8 159.73,-77.2 166.13,-63.38"/>
<polygon fill="none" stroke="#63b8ff" points="166.08,-63.5 164.97,-56.37 171.13,-52.61 172.23,-59.74 166.08,-63.5"/>
</a>
</g>
<text xml:space="preserve" text-anchor="start" x="165.07" y="-75.5" font-family="Helvetica,sans-Serif" font-size="10.00" fill="grey">+headers</text>
</g>
<!-- Node3 -->
<g id="Node000003" class="node">
<title>Node3</title>
<g id="a_Node000003"><a xlink:title=" ">
<polygon fill="white" stroke="none" points="70.75,-292 19.25,-292 19.25,-240 70.75,-240 70.75,-292"/>
<text xml:space="preserve" text-anchor="start" x="23.25" y="-278.5" font-family="Helvetica,sans-Serif" font-size="10.00">std::string</text>
<text xml:space="preserve" text-anchor="start" x="43.5" y="-262.5" font-family="Helvetica,sans-Serif" font-size="10.00"> </text>
<text xml:space="preserve" text-anchor="start" x="43.5" y="-246.5" font-family="Helvetica,sans-Serif" font-size="10.00"> </text>
<polygon fill="#666666" stroke="#666666" points="19.25,-274 19.25,-274 70.75,-274 70.75,-274 19.25,-274"/>
<polygon fill="#666666" stroke="#666666" points="19.25,-258 19.25,-258 70.75,-258 70.75,-258 19.25,-258"/>
<polygon fill="none" stroke="#666666" points="19.25,-240 19.25,-292 70.75,-292 70.75,-240 19.25,-240"/>
</a>
</g>
</g>
<!-- Node3&#45;&gt;Node2 -->
<g id="edge2_Node000002_Node000003" class="edge">
<title>Node3&#45;&gt;Node2</title>
<g id="a_edge2_Node000002_Node000003"><a xlink:title=" ">
<path fill="none" stroke="#63b8ff" d="M51.79,-240.3C56.9,-224.42 64.97,-203.88 76.25,-188 78.38,-185 80.74,-182.05 83.23,-179.19"/>
<polygon fill="none" stroke="#63b8ff" points="83.26,-179.16 84.5,-172.06 91.54,-170.48 90.29,-177.58 83.26,-179.16"/>
</a>
</g>
<text xml:space="preserve" text-anchor="start" x="79.25" y="-209.5" font-family="Helvetica,sans-Serif" font-size="10.00" fill="grey">+elements</text>
<text xml:space="preserve" text-anchor="start" x="79.25" y="-193.5" font-family="Helvetica,sans-Serif" font-size="10.00" fill="grey">+keys</text>
</g>
<!-- Node4 -->
<g id="Node000004" class="node">
<title>Node4</title>
<g id="a_Node000004"><a xlink:title=" ">
<polygon fill="white" stroke="none" points="86,-410 0,-410 0,-346 86,-346 86,-410"/>
<text xml:space="preserve" text-anchor="start" x="4" y="-396.5" font-family="Helvetica,sans-Serif" font-size="10.00">std::basic_string&lt;</text>
<text xml:space="preserve" text-anchor="start" x="26.5" y="-384.5" font-family="Helvetica,sans-Serif" font-size="10.00"> Char &gt;</text>
<text xml:space="preserve" text-anchor="start" x="41.5" y="-368.5" font-family="Helvetica,sans-Serif" font-size="10.00"> </text>
<text xml:space="preserve" text-anchor="start" x="41.5" y="-352.5" font-family="Helvetica,sans-Serif" font-size="10.00"> </text>
<polygon fill="#666666" stroke="#666666" points="0,-380 0,-380 86,-380 86,-380 0,-380"/>
<polygon fill="#666666" stroke="#666666" points="0,-364 0,-364 86,-364 86,-364 0,-364"/>
<polygon fill="none" stroke="#666666" points="0,-346 0,-410 86,-410 86,-346 0,-346"/>
</a>
</g>
</g>
<!-- Node4&#45;&gt;Node3 -->
<g id="edge3_Node000003_Node000004" class="edge">
<title>Node4&#45;&gt;Node3</title>
<g id="a_edge3_Node000003_Node000004"><a xlink:title=" ">
<path fill="none" stroke="#63b8ff" d="M43.77,-334.77C44.03,-320.25 44.32,-304.47 44.55,-291.79"/>
<polygon fill="none" stroke="#63b8ff" points="40.27,-334.49 43.59,-344.55 47.27,-334.62 40.27,-334.49"/>
</a>
</g>
</g>
<!-- Node5 -->
<g id="Node000005" class="node">
<title>Node5</title>
<g id="a_Node000005"><a xlink:title=" ">
<polygon fill="white" stroke="none" points="173.12,-292 90.88,-292 90.88,-240 173.12,-240 173.12,-292"/>
<text xml:space="preserve" text-anchor="start" x="94.88" y="-278.5" font-family="Helvetica,sans-Serif" font-size="10.00">std::map&lt; K, T &gt;</text>
<text xml:space="preserve" text-anchor="start" x="130.5" y="-262.5" font-family="Helvetica,sans-Serif" font-size="10.00"> </text>
<text xml:space="preserve" text-anchor="start" x="130.5" y="-246.5" font-family="Helvetica,sans-Serif" font-size="10.00"> </text>
<polygon fill="#666666" stroke="#666666" points="90.88,-274 90.88,-274 173.12,-274 173.12,-274 90.88,-274"/>
<polygon fill="#666666" stroke="#666666" points="90.88,-258 90.88,-258 173.12,-258 173.12,-258 90.88,-258"/>
<polygon fill="none" stroke="#666666" points="90.88,-240 90.88,-292 173.12,-292 173.12,-240 90.88,-240"/>
</a>
</g>
</g>
<!-- Node5&#45;&gt;Node2 -->
<g id="edge4_Node000002_Node000005" class="edge">
<title>Node5&#45;&gt;Node2</title>
<g id="a_edge4_Node000002_Node000005"><a xlink:title=" ">
<path fill="none" stroke="orange" d="M132,-228.75C132,-210.04 132,-187.46 132,-169.63"/>
<polygon fill="orange" stroke="orange" points="128.5,-228.59 132,-238.59 135.5,-228.59 128.5,-228.59"/>
</a>
</g>
<text xml:space="preserve" text-anchor="start" x="135" y="-209.5" font-family="Helvetica,sans-Serif" font-size="10.00" fill="grey">&lt; std::string, std</text>
<text xml:space="preserve" text-anchor="start" x="135" y="-193.5" font-family="Helvetica,sans-Serif" font-size="10.00" fill="grey">  ::string &gt;</text>
</g>
<!-- Node6 -->
<g id="Node000006" class="node">
<title>Node6</title>
<g id="a_Node000006"><a xlink:title=" ">
<polygon fill="white" stroke="none" points="118.38,-404 103.62,-404 103.62,-352 118.38,-352 118.38,-404"/>
<text xml:space="preserve" text-anchor="start" x="107.62" y="-390.5" font-family="Helvetica,sans-Serif" font-size="10.00">K</text>
<text xml:space="preserve" text-anchor="start" x="109.5" y="-374.5" font-family="Helvetica,sans-Serif" font-size="10.00"> </text>
<text xml:space="preserve" text-anchor="start" x="109.5" y="-358.5" font-family="Helvetica,sans-Serif" font-size="10.00"> </text>
<polygon fill="#bfbfbf" stroke="#bfbfbf" points="103.62,-386 103.62,-386 118.38,-386 118.38,-386 103.62,-386"/>
<polygon fill="#bfbfbf" stroke="#bfbfbf" points="103.62,-370 103.62,-370 118.38,-370 118.38,-370 103.62,-370"/>
<polygon fill="none" stroke="#bfbfbf" points="103.62,-352 103.62,-404 118.38,-404 118.38,-352 103.62,-352"/>
</a>
</g>
</g>
<!-- Node6&#45;&gt;Node5 -->
<g id="edge5_Node000005_Node000006" class="edge">
<title>Node6&#45;&gt;Node5</title>
<g id="a_edge5_Node000005_Node000006"><a xlink:title=" ">
<path fill="none" stroke="#63b8ff" d="M108.92,-352.2C108.46,-339.44 108.86,-323.72 112,-310 112.46,-308 113.02,-305.98 113.65,-303.96"/>
<polygon fill="none" stroke="#63b8ff" points="113.69,-303.88 112.1,-296.84 117.99,-292.68 119.57,-299.71 113.69,-303.88"/>
</a>
</g>
<text xml:space="preserve" text-anchor="start" x="115" y="-315.5" font-family="Helvetica,sans-Serif" font-size="10.00" fill="grey">+keys</text>
</g>
<!-- Node7 -->
<g id="Node000007" class="node">
<title>Node7</title>
<g id="a_Node000007"><a xlink:title=" ">
<polygon fill="white" stroke="none" points="207,-404 193,-404 193,-352 207,-352 207,-404"/>
<text xml:space="preserve" text-anchor="start" x="197" y="-390.5" font-family="Helvetica,sans-Serif" font-size="10.00">T</text>
<text xml:space="preserve" text-anchor="start" x="198.5" y="-374.5" font-family="Helvetica,sans-Serif" font-size="10.00"> </text>
<text xml:space="preserve" text-anchor="start" x="198.5" y="-358.5" font-family="Helvetica,sans-Serif" font-size="10.00"> </text>
<polygon fill="#bfbfbf" stroke="#bfbfbf" points="193,-386 193,-386 207,-386 207,-386 193,-386"/>
<polygon fill="#bfbfbf" stroke="#bfbfbf" points="193,-370 193,-370 207,-370 207,-370 193,-370"/>
<polygon fill="none" stroke="#bfbfbf" points="193,-352 193,-404 207,-404 207,-352 193,-352"/>
</a>
</g>
</g>
<!-- Node7&#45;&gt;Node1 -->
<g id="edge7_Node000001_Node000007" class="edge">
<title>Node7&#45;&gt;Node1</title>
<g id="a_edge7_Node000001_Node000007"><a xlink:title=" ">
<path fill="none" stroke="#63b8ff" d="M206.87,-364.12C211.61,-354.48 217.49,-340.8 220,-328 221.54,-320.15 220.12,-318 220,-310 218.44,-203.3 246.48,-171.32 213,-70 212.21,-67.6 211.23,-65.22 210.13,-62.87"/>
<polygon fill="none" stroke="#63b8ff" points="210.1,-62.82 203.66,-59.58 204.17,-52.38 210.61,-55.63 210.1,-62.82"/>
</a>
</g>
<text xml:space="preserve" text-anchor="start" x="231.35" y="-201.5" font-family="Helvetica,sans-Serif" font-size="10.00" fill="grey">+body</text>
</g>
<!-- Node7&#45;&gt;Node5 -->
<g id="edge6_Node000005_Node000007" class="edge">
<title>Node7&#45;&gt;Node5</title>
<g id="a_edge6_Node000005_Node000007"><a xlink:title=" ">
<path fill="none" stroke="#63b8ff" d="M193.07,-366.56C186.56,-356.69 176.59,-341.43 168.25,-328 163.2,-319.87 157.88,-311.06 152.91,-302.72"/>
<polygon fill="none" stroke="#63b8ff" points="153,-302.87 146.5,-299.74 146.88,-292.54 153.38,-295.66 153,-302.87"/>
</a>
</g>
<text xml:space="preserve" text-anchor="start" x="171.25" y="-315.5" font-family="Helvetica,sans-Serif" font-size="10.00" fill="grey">+elements</text>
</g>
</g>
</svg>
</svg>

<style type='text/css'>
<![CDATA[
[data-mouse-over-selected='false'] { opacity: 0.7; }
[data-mouse-over-selected='true']  { opacity: 1.0; }
]]>
</style>
<script type="application/ecmascript"><![CDATA[
document.addEventListener('DOMContentLoaded', (event) => {
  highlightEdges();
  highlightAdjacentNodes();
});
]]></script>
</svg>
