<?xml version="1.0" encoding="UTF-8" standalone="no"?>
<!DOCTYPE svg PUBLIC "-//W3C//DTD SVG 1.1//EN"
 "http://www.w3.org/Graphics/SVG/1.1/DTD/svg11.dtd">
<!-- Generated by graphviz version 2.40.1 (20161225.0304)
 -->
<!-- Title: anch::sql::SQLSharedLibrary Pages: 1 -->
<!--zoomable 1136 -->
<svg id="main" version="1.1" xmlns="http://www.w3.org/2000/svg" xmlns:xlink="http://www.w3.org/1999/xlink" xml:space="preserve" onload="init(evt)">
<style type="text/css"><![CDATA[
.edge:hover path { stroke: red; }
.edge:hover polygon { stroke: red; fill: red; }
]]></style>
<script type="text/javascript"><![CDATA[
var edges = document.getElementsByTagName('g');
if (edges && edges.length) {
  for (var i=0;i<edges.length;i++) {
    if (edges[i].id.substr(0,4)=='edge') {
      edges[i].setAttribute('class','edge');
    }
  }
}
]]></script>
        <defs>
                <circle id="rim" cx="0" cy="0" r="7"/>
                <circle id="rim2" cx="0" cy="0" r="3.5"/>
                <g id="zoomPlus">
                        <use xlink:href="#rim" fill="#404040">
                                <set attributeName="fill" to="#808080" begin="zoomplus.mouseover" end="zoomplus.mouseout"/>
                        </use>
                        <path d="M-4,0h8M0,-4v8" fill="none" stroke="white" stroke-width="1.5" pointer-events="none"/>
                </g>
                <g id="zoomMin">
                        <use xlink:href="#rim" fill="#404040">
                                <set attributeName="fill" to="#808080" begin="zoomminus.mouseover" end="zoomminus.mouseout"/>
                        </use>
                        <path d="M-4,0h8" fill="none" stroke="white" stroke-width="1.5" pointer-events="none"/>
                </g>
                <g id="dirArrow">
                        <path fill="none" stroke="white" stroke-width="1.5" d="M0,-3.0v7 M-2.5,-0.5L0,-3.0L2.5,-0.5"/>
                </g>
               <g id="resetDef">
                       <use xlink:href="#rim2" fill="#404040">
                               <set attributeName="fill" to="#808080" begin="reset.mouseover" end="reset.mouseout"/>
                       </use>
               </g>
        </defs>

<script type="text/javascript">
var viewWidth = 474;
var viewHeight = 1136;
var sectionId = 'dynsection-0';
</script>
<script xlink:href="svgpan.js"/>
<svg id="graph" class="graph">
<g id="viewport">
<title>anch::sql::SQLSharedLibrary</title>
<!-- Node1 -->
<g id="node1" class="node">
<title>Node1</title>
<polygon fill="#bfbfbf" stroke="#000000" points="0,-.5 0,-68.5 152,-68.5 152,-.5 0,-.5"/>
<text text-anchor="middle" x="76" y="-56.5" font-family="Helvetica,sans-Serif" font-size="10.00" fill="#000000">anch::sql::SQLSharedLibrary</text>
<polyline fill="none" stroke="#000000" points="0,-49.5 152,-49.5 "/>
<text text-anchor="start" x="8" y="-37.5" font-family="Helvetica,sans-Serif" font-size="10.00" fill="#000000">+ _layer</text>
<text text-anchor="start" x="8" y="-26.5" font-family="Helvetica,sans-Serif" font-size="10.00" fill="#000000">+ make_shared_connection</text>
<polyline fill="none" stroke="#000000" points="0,-19.5 152,-19.5 "/>
<text text-anchor="middle" x="76" y="-7.5" font-family="Helvetica,sans-Serif" font-size="10.00" fill="#000000"> </text>
</g>
<!-- Node2 -->
<g id="node2" class="node">
<title>Node2</title>
<g id="a_node2"><a xlink:href="classanch_1_1sql_1_1_connection.html" target="_top" xlink:title="SQL connection virtual class. ">
<polygon fill="none" stroke="#000000" points="120.5,-116.5 120.5,-371.5 257.5,-371.5 257.5,-116.5 120.5,-116.5"/>
<text text-anchor="middle" x="189" y="-359.5" font-family="Helvetica,sans-Serif" font-size="10.00" fill="#000000">anch::sql::Connection</text>
<polyline fill="none" stroke="#000000" points="120.5,-352.5 257.5,-352.5 "/>
<text text-anchor="start" x="128.5" y="-340.5" font-family="Helvetica,sans-Serif" font-size="10.00" fill="#000000"># _valid</text>
<text text-anchor="start" x="128.5" y="-329.5" font-family="Helvetica,sans-Serif" font-size="10.00" fill="#000000"># _transaction</text>
<polyline fill="none" stroke="#000000" points="120.5,-322.5 257.5,-322.5 "/>
<text text-anchor="start" x="128.5" y="-310.5" font-family="Helvetica,sans-Serif" font-size="10.00" fill="#000000">+ Connection()</text>
<text text-anchor="start" x="128.5" y="-299.5" font-family="Helvetica,sans-Serif" font-size="10.00" fill="#000000">+ Connection()</text>
<text text-anchor="start" x="128.5" y="-288.5" font-family="Helvetica,sans-Serif" font-size="10.00" fill="#000000">+ ~Connection()</text>
<text text-anchor="start" x="128.5" y="-277.5" font-family="Helvetica,sans-Serif" font-size="10.00" fill="#000000">+ startTransaction()</text>
<text text-anchor="start" x="128.5" y="-266.5" font-family="Helvetica,sans-Serif" font-size="10.00" fill="#000000">+ begin()</text>
<text text-anchor="start" x="128.5" y="-255.5" font-family="Helvetica,sans-Serif" font-size="10.00" fill="#000000">+ commit()</text>
<text text-anchor="start" x="128.5" y="-244.5" font-family="Helvetica,sans-Serif" font-size="10.00" fill="#000000">+ rollback()</text>
<text text-anchor="start" x="128.5" y="-233.5" font-family="Helvetica,sans-Serif" font-size="10.00" fill="#000000">+ prepareStatement()</text>
<text text-anchor="start" x="128.5" y="-222.5" font-family="Helvetica,sans-Serif" font-size="10.00" fill="#000000">+ query()</text>
<text text-anchor="start" x="128.5" y="-211.5" font-family="Helvetica,sans-Serif" font-size="10.00" fill="#000000">+ queryMapRow()</text>
<text text-anchor="start" x="128.5" y="-200.5" font-family="Helvetica,sans-Serif" font-size="10.00" fill="#000000">and 8 more...</text>
<text text-anchor="start" x="128.5" y="-189.5" font-family="Helvetica,sans-Serif" font-size="10.00" fill="#000000"># executeQuery()</text>
<text text-anchor="start" x="128.5" y="-178.5" font-family="Helvetica,sans-Serif" font-size="10.00" fill="#000000"># executeUpdate()</text>
<text text-anchor="start" x="128.5" y="-167.5" font-family="Helvetica,sans-Serif" font-size="10.00" fill="#000000"># sendStartTransaction()</text>
<text text-anchor="start" x="128.5" y="-156.5" font-family="Helvetica,sans-Serif" font-size="10.00" fill="#000000"># sendCommit()</text>
<text text-anchor="start" x="128.5" y="-145.5" font-family="Helvetica,sans-Serif" font-size="10.00" fill="#000000"># sendRollback()</text>
<text text-anchor="start" x="128.5" y="-134.5" font-family="Helvetica,sans-Serif" font-size="10.00" fill="#000000"># makePrepared()</text>
<text text-anchor="start" x="128.5" y="-123.5" font-family="Helvetica,sans-Serif" font-size="10.00" fill="#000000"># setValid()</text>
</a>
</g>
</g>
<!-- Node2&#45;&gt;Node1 -->
<g id="edge1" class="edge">
<title>Node2&#45;&gt;Node1</title>
<path fill="none" stroke="#404040" d="M120.4984,-116.9992C113.3377,-103.7235 106.4467,-90.9477 100.3147,-79.579"/>
<polygon fill="none" stroke="#404040" points="100.1505,-79.2744 93.7815,-75.8926 94.4537,-68.7128 100.8226,-72.0947 100.1505,-79.2744"/>
<text text-anchor="middle" x="131.5" y="-90" font-family="Helvetica,sans-Serif" font-size="10.00" fill="#000000"> +create</text>
</g>
<!-- Node3 -->
<g id="node3" class="node">
<title>Node3</title>
<polygon fill="none" stroke="#bfbfbf" points="111,-419.5 111,-487.5 291,-487.5 291,-419.5 111,-419.5"/>
<text text-anchor="start" x="119" y="-475.5" font-family="Helvetica,sans-Serif" font-size="10.00" fill="#000000">std::map&lt; std::string,</text>
<text text-anchor="middle" x="201" y="-464.5" font-family="Helvetica,sans-Serif" font-size="10.00" fill="#000000"> anch::sql::PreparedStatement *&gt;</text>
<polyline fill="none" stroke="#bfbfbf" points="111,-457.5 291,-457.5 "/>
<text text-anchor="middle" x="201" y="-445.5" font-family="Helvetica,sans-Serif" font-size="10.00" fill="#000000"> </text>
<polyline fill="none" stroke="#bfbfbf" points="111,-438.5 291,-438.5 "/>
<text text-anchor="middle" x="201" y="-426.5" font-family="Helvetica,sans-Serif" font-size="10.00" fill="#000000"> </text>
</g>
<!-- Node3&#45;&gt;Node2 -->
<g id="edge2" class="edge">
<title>Node3&#45;&gt;Node2</title>
<path fill="none" stroke="#404040" d="M199.0453,-419.3739C198.4504,-408.9877 197.7561,-396.8676 197.0156,-383.9382"/>
<polygon fill="none" stroke="#404040" points="197.0102,-383.8436 192.6736,-378.0822 196.3239,-371.8633 200.6605,-377.6247 197.0102,-383.8436"/>
<text text-anchor="middle" x="220.5" y="-393" font-family="Helvetica,sans-Serif" font-size="10.00" fill="#000000"> #_stmts</text>
</g>
<!-- Node4 -->
<g id="node4" class="node">
<title>Node4</title>
<g id="a_node4"><a xlink:href="classanch_1_1sql_1_1_prepared_statement.html" target="_top" xlink:title="SQL prepared statement. ">
<polygon fill="none" stroke="#000000" points="140.5,-535.5 140.5,-768.5 301.5,-768.5 301.5,-535.5 140.5,-535.5"/>
<text text-anchor="middle" x="221" y="-756.5" font-family="Helvetica,sans-Serif" font-size="10.00" fill="#000000">anch::sql::PreparedStatement</text>
<polyline fill="none" stroke="#000000" points="140.5,-749.5 301.5,-749.5 "/>
<text text-anchor="start" x="148.5" y="-737.5" font-family="Helvetica,sans-Serif" font-size="10.00" fill="#000000"># _nbPlaceholders</text>
<polyline fill="none" stroke="#000000" points="140.5,-730.5 301.5,-730.5 "/>
<text text-anchor="start" x="148.5" y="-718.5" font-family="Helvetica,sans-Serif" font-size="10.00" fill="#000000">+ PreparedStatement()</text>
<text text-anchor="start" x="148.5" y="-707.5" font-family="Helvetica,sans-Serif" font-size="10.00" fill="#000000">+ ~PreparedStatement()</text>
<text text-anchor="start" x="148.5" y="-696.5" font-family="Helvetica,sans-Serif" font-size="10.00" fill="#000000">+ executeQuery()</text>
<text text-anchor="start" x="148.5" y="-685.5" font-family="Helvetica,sans-Serif" font-size="10.00" fill="#000000">+ executeUpdate()</text>
<text text-anchor="start" x="148.5" y="-674.5" font-family="Helvetica,sans-Serif" font-size="10.00" fill="#000000">+ set()</text>
<text text-anchor="start" x="148.5" y="-663.5" font-family="Helvetica,sans-Serif" font-size="10.00" fill="#000000">+ set()</text>
<text text-anchor="start" x="148.5" y="-652.5" font-family="Helvetica,sans-Serif" font-size="10.00" fill="#000000">+ set()</text>
<text text-anchor="start" x="148.5" y="-641.5" font-family="Helvetica,sans-Serif" font-size="10.00" fill="#000000">+ set()</text>
<text text-anchor="start" x="148.5" y="-630.5" font-family="Helvetica,sans-Serif" font-size="10.00" fill="#000000">+ set()</text>
<text text-anchor="start" x="148.5" y="-619.5" font-family="Helvetica,sans-Serif" font-size="10.00" fill="#000000">+ set()</text>
<text text-anchor="start" x="148.5" y="-608.5" font-family="Helvetica,sans-Serif" font-size="10.00" fill="#000000">+ set()</text>
<text text-anchor="start" x="148.5" y="-597.5" font-family="Helvetica,sans-Serif" font-size="10.00" fill="#000000">+ set()</text>
<text text-anchor="start" x="148.5" y="-586.5" font-family="Helvetica,sans-Serif" font-size="10.00" fill="#000000">+ set()</text>
<text text-anchor="start" x="148.5" y="-575.5" font-family="Helvetica,sans-Serif" font-size="10.00" fill="#000000">+ set()</text>
<text text-anchor="start" x="148.5" y="-564.5" font-family="Helvetica,sans-Serif" font-size="10.00" fill="#000000">+ set()</text>
<text text-anchor="start" x="148.5" y="-553.5" font-family="Helvetica,sans-Serif" font-size="10.00" fill="#000000"># getPlaceholders()</text>
<text text-anchor="start" x="148.5" y="-542.5" font-family="Helvetica,sans-Serif" font-size="10.00" fill="#000000"># checkIndex()</text>
</a>
</g>
</g>
<!-- Node4&#45;&gt;Node3 -->
<g id="edge3" class="edge">
<title>Node4&#45;&gt;Node3</title>
<path fill="none" stroke="#404040" d="M209.2502,-535.3836C207.9913,-522.8885 206.7705,-510.7725 205.6711,-499.8612"/>
<polygon fill="none" stroke="#404040" points="205.6444,-499.5947 201.063,-494.0259 204.4413,-487.6551 209.0227,-493.2239 205.6444,-499.5947"/>
<text text-anchor="middle" x="236" y="-509" font-family="Helvetica,sans-Serif" font-size="10.00" fill="#000000"> +elements</text>
</g>
<!-- Node5 -->
<g id="node5" class="node">
<title>Node5</title>
<polygon fill="none" stroke="#bfbfbf" points="165.5,-827.5 165.5,-895.5 276.5,-895.5 276.5,-827.5 165.5,-827.5"/>
<text text-anchor="start" x="173.5" y="-883.5" font-family="Helvetica,sans-Serif" font-size="10.00" fill="#000000">std::map&lt; std::size</text>
<text text-anchor="middle" x="221" y="-872.5" font-family="Helvetica,sans-Serif" font-size="10.00" fill="#000000">_t, std::string &gt;</text>
<polyline fill="none" stroke="#bfbfbf" points="165.5,-865.5 276.5,-865.5 "/>
<text text-anchor="start" x="173.5" y="-853.5" font-family="Helvetica,sans-Serif" font-size="10.00" fill="#000000">+ keys</text>
<polyline fill="none" stroke="#bfbfbf" points="165.5,-846.5 276.5,-846.5 "/>
<text text-anchor="middle" x="221" y="-834.5" font-family="Helvetica,sans-Serif" font-size="10.00" fill="#000000"> </text>
</g>
<!-- Node5&#45;&gt;Node4 -->
<g id="edge4" class="edge">
<title>Node5&#45;&gt;Node4</title>
<path fill="none" stroke="#404040" d="M221,-827.3739C221,-814.1253 221,-798.0553 221,-781.0832"/>
<polygon fill="none" stroke="#404040" points="221.0001,-780.5929 217,-774.5929 221,-768.5929 225,-774.5928 221.0001,-780.5929"/>
<text text-anchor="middle" x="245.5" y="-795.5" font-family="Helvetica,sans-Serif" font-size="10.00" fill="#000000"> #_values</text>
</g>
<!-- Node6 -->
<g id="node6" class="node">
<title>Node6</title>
<g id="a_node6"><a xlink:title="STL class. ">
<polygon fill="none" stroke="#bfbfbf" points="79.5,-954.5 79.5,-1011.5 144.5,-1011.5 144.5,-954.5 79.5,-954.5"/>
<text text-anchor="middle" x="112" y="-999.5" font-family="Helvetica,sans-Serif" font-size="10.00" fill="#000000">std::string</text>
<polyline fill="none" stroke="#bfbfbf" points="79.5,-992.5 144.5,-992.5 "/>
<text text-anchor="middle" x="112" y="-980.5" font-family="Helvetica,sans-Serif" font-size="10.00" fill="#000000"> </text>
<polyline fill="none" stroke="#bfbfbf" points="79.5,-973.5 144.5,-973.5 "/>
<text text-anchor="middle" x="112" y="-961.5" font-family="Helvetica,sans-Serif" font-size="10.00" fill="#000000"> </text>
</a>
</g>
</g>
<!-- Node6&#45;&gt;Node1 -->
<g id="edge12" class="edge">
<title>Node6&#45;&gt;Node1</title>
<path fill="none" stroke="#404040" d="M91.7465,-954.0208C77.1458,-930.2836 60,-895.2283 60,-861.5 60,-861.5 60,-861.5 60,-244 60,-187.6808 65.8197,-123.092 70.4394,-80.6936"/>
<polygon fill="none" stroke="#404040" points="70.4638,-80.4747 67.1547,-74.0676 71.7962,-68.5489 75.1053,-74.9559 70.4638,-80.4747"/>
<text text-anchor="middle" x="78.5" y="-509" font-family="Helvetica,sans-Serif" font-size="10.00" fill="#000000"> +layer</text>
</g>
<!-- Node6&#45;&gt;Node3 -->
<g id="edge10" class="edge">
<title>Node6&#45;&gt;Node3</title>
<path fill="none" stroke="#404040" d="M106.9843,-954.4172C95.4667,-881.4237 72.3973,-683.4385 131,-535 136.4045,-521.3107 145.1276,-508.3174 154.6102,-496.8916"/>
<polygon fill="none" stroke="#404040" points="154.7797,-496.6985 155.7332,-489.5507 162.698,-487.6817 161.7444,-494.8295 154.7797,-496.6985"/>
<text text-anchor="middle" x="111.5" y="-795.5" font-family="Helvetica,sans-Serif" font-size="10.00" fill="#000000"> +keys</text>
</g>
<!-- Node6&#45;&gt;Node5 -->
<g id="edge5" class="edge">
<title>Node6&#45;&gt;Node5</title>
<path fill="none" stroke="#404040" d="M131.1462,-954.4817C140.2419,-941.6479 151.602,-926.5882 163,-914 165.9542,-910.7373 169.0899,-907.4594 172.3137,-904.2224"/>
<polygon fill="none" stroke="#404040" points="172.3854,-904.1527 173.8991,-897.1023 180.9894,-895.7878 179.4757,-902.8383 172.3854,-904.1527"/>
<text text-anchor="middle" x="192" y="-922.5" font-family="Helvetica,sans-Serif" font-size="10.00" fill="#000000"> +elements</text>
</g>
<!-- Node7 -->
<g id="node7" class="node">
<title>Node7</title>
<g id="a_node7"><a xlink:title="STL class. ">
<polygon fill="none" stroke="#bfbfbf" points="60,-1059.5 60,-1127.5 164,-1127.5 164,-1059.5 60,-1059.5"/>
<text text-anchor="start" x="68" y="-1115.5" font-family="Helvetica,sans-Serif" font-size="10.00" fill="#000000">std::basic_string&lt;</text>
<text text-anchor="middle" x="112" y="-1104.5" font-family="Helvetica,sans-Serif" font-size="10.00" fill="#000000"> char &gt;</text>
<polyline fill="none" stroke="#bfbfbf" points="60,-1097.5 164,-1097.5 "/>
<text text-anchor="middle" x="112" y="-1085.5" font-family="Helvetica,sans-Serif" font-size="10.00" fill="#000000"> </text>
<polyline fill="none" stroke="#bfbfbf" points="60,-1078.5 164,-1078.5 "/>
<text text-anchor="middle" x="112" y="-1066.5" font-family="Helvetica,sans-Serif" font-size="10.00" fill="#000000"> </text>
</a>
</g>
</g>
<!-- Node7&#45;&gt;Node6 -->
<g id="edge6" class="edge">
<title>Node7&#45;&gt;Node6</title>
<path fill="none" stroke="#191970" d="M112,-1049.0661C112,-1036.4172 112,-1022.9812 112,-1011.5519"/>
<polygon fill="none" stroke="#191970" points="108.5001,-1049.4447 112,-1059.4447 115.5001,-1049.4447 108.5001,-1049.4447"/>
</g>
<!-- Node8 -->
<g id="node8" class="node">
<title>Node8</title>
<g id="a_node8"><a xlink:title="STL class. ">
<polygon fill="none" stroke="#bfbfbf" points="212.5,-954.5 212.5,-1011.5 313.5,-1011.5 313.5,-954.5 212.5,-954.5"/>
<text text-anchor="middle" x="263" y="-999.5" font-family="Helvetica,sans-Serif" font-size="10.00" fill="#000000">std::map&lt; K, T &gt;</text>
<polyline fill="none" stroke="#bfbfbf" points="212.5,-992.5 313.5,-992.5 "/>
<text text-anchor="middle" x="263" y="-980.5" font-family="Helvetica,sans-Serif" font-size="10.00" fill="#000000"> </text>
<polyline fill="none" stroke="#bfbfbf" points="212.5,-973.5 313.5,-973.5 "/>
<text text-anchor="middle" x="263" y="-961.5" font-family="Helvetica,sans-Serif" font-size="10.00" fill="#000000"> </text>
</a>
</g>
</g>
<!-- Node8&#45;&gt;Node3 -->
<g id="edge11" class="edge">
<title>Node8&#45;&gt;Node3</title>
<path fill="none" stroke="#ffa500" d="M309.8367,-946.5103C312.2431,-943.1892 314.3447,-939.6802 316,-936 320.0108,-927.0827 316.0645,-923.7776 316,-914 314.8889,-745.5446 387.7678,-684.9505 311,-535 301.1978,-515.8534 284.579,-500.0588 267.1882,-487.6389"/>
<polygon fill="#ffa500" stroke="#ffa500" points="307.0057,-944.4408 303.3079,-954.3694 312.3901,-948.9139 307.0057,-944.4408"/>
<text text-anchor="start" x="328" y="-801" font-family="Helvetica,sans-Serif" font-size="10.00" fill="#000000"> &lt; std::string, anch</text>
<text text-anchor="middle" x="397" y="-790" font-family="Helvetica,sans-Serif" font-size="10.00" fill="#000000">::sql::PreparedStatement *&gt;</text>
</g>
<!-- Node8&#45;&gt;Node5 -->
<g id="edge7" class="edge">
<title>Node8&#45;&gt;Node5</title>
<path fill="none" stroke="#ffa500" d="M235.4014,-945.6263C233.7361,-942.4611 232.2374,-939.2324 231,-936 226.1479,-923.3249 223.5878,-908.6529 222.2581,-895.6984"/>
<polygon fill="#ffa500" stroke="#ffa500" points="232.4073,-947.4403 240.4566,-954.3294 238.4603,-943.9244 232.4073,-947.4403"/>
<text text-anchor="start" x="231" y="-928" font-family="Helvetica,sans-Serif" font-size="10.00" fill="#000000"> &lt; std::size_t, std</text>
<text text-anchor="middle" x="273.5" y="-917" font-family="Helvetica,sans-Serif" font-size="10.00" fill="#000000">::string &gt;</text>
</g>
<!-- Node9 -->
<g id="node9" class="node">
<title>Node9</title>
<polygon fill="none" stroke="#bfbfbf" points="219.5,-1065 219.5,-1122 248.5,-1122 248.5,-1065 219.5,-1065"/>
<text text-anchor="middle" x="234" y="-1110" font-family="Helvetica,sans-Serif" font-size="10.00" fill="#000000">K</text>
<polyline fill="none" stroke="#bfbfbf" points="219.5,-1103 248.5,-1103 "/>
<text text-anchor="middle" x="234" y="-1091" font-family="Helvetica,sans-Serif" font-size="10.00" fill="#000000"> </text>
<polyline fill="none" stroke="#bfbfbf" points="219.5,-1084 248.5,-1084 "/>
<text text-anchor="middle" x="234" y="-1072" font-family="Helvetica,sans-Serif" font-size="10.00" fill="#000000"> </text>
</g>
<!-- Node9&#45;&gt;Node8 -->
<g id="edge8" class="edge">
<title>Node9&#45;&gt;Node8</title>
<path fill="none" stroke="#404040" d="M231.3345,-1064.9089C231.1033,-1053.8209 231.8394,-1041.1372 235,-1030 235.7268,-1027.4387 236.6302,-1024.8749 237.6628,-1022.3397"/>
<polygon fill="none" stroke="#404040" points="237.6717,-1022.3209 236.6655,-1015.1803 242.8699,-1011.5052 243.876,-1018.6457 237.6717,-1022.3209"/>
<text text-anchor="middle" x="252.5" y="-1033" font-family="Helvetica,sans-Serif" font-size="10.00" fill="#000000"> +keys</text>
</g>
<!-- Node10 -->
<g id="node10" class="node">
<title>Node10</title>
<polygon fill="none" stroke="#bfbfbf" points="277.5,-1065 277.5,-1122 306.5,-1122 306.5,-1065 277.5,-1065"/>
<text text-anchor="middle" x="292" y="-1110" font-family="Helvetica,sans-Serif" font-size="10.00" fill="#000000">T</text>
<polyline fill="none" stroke="#bfbfbf" points="277.5,-1103 306.5,-1103 "/>
<text text-anchor="middle" x="292" y="-1091" font-family="Helvetica,sans-Serif" font-size="10.00" fill="#000000"> </text>
<polyline fill="none" stroke="#bfbfbf" points="277.5,-1084 306.5,-1084 "/>
<text text-anchor="middle" x="292" y="-1072" font-family="Helvetica,sans-Serif" font-size="10.00" fill="#000000"> </text>
</g>
<!-- Node10&#45;&gt;Node8 -->
<g id="edge9" class="edge">
<title>Node10&#45;&gt;Node8</title>
<path fill="none" stroke="#404040" d="M284.4563,-1064.7559C281.1334,-1052.0945 277.1717,-1036.9992 273.5623,-1023.2459"/>
<polygon fill="none" stroke="#404040" points="273.5522,-1023.2071 268.1601,-1018.4191 270.5059,-1011.6002 275.898,-1016.3883 273.5522,-1023.2071"/>
<text text-anchor="middle" x="307" y="-1033" font-family="Helvetica,sans-Serif" font-size="10.00" fill="#000000"> +elements</text>
</g>
</g>
</svg>
        <g id="navigator" transform="translate(0 0)" fill="#404254">
                <rect fill="#f2f5e9" fill-opacity="0.5" stroke="#606060" stroke-width=".5" x="0" y="0" width="60" height="60"/>
                <use id="zoomplus" xlink:href="#zoomPlus" x="17" y="9" onmousedown="handleZoom(evt,'in')"/>
                <use id="zoomminus" xlink:href="#zoomMin" x="42" y="9" onmousedown="handleZoom(evt,'out')"/>
                <use id="reset" xlink:href="#resetDef" x="30" y="36" onmousedown="handleReset()"/>
                <g id="arrowUp" xlink:href="#dirArrow" transform="translate(30 24)" onmousedown="handlePan(0,-1)">
                  <use xlink:href="#rim" fill="#404040">
                        <set attributeName="fill" to="#808080" begin="arrowUp.mouseover" end="arrowUp.mouseout"/>
                  </use>
                  <path fill="none" stroke="white" stroke-width="1.5" d="M0,-3.0v7 M-2.5,-0.5L0,-3.0L2.5,-0.5"/>
                </g>
                <g id="arrowRight" xlink:href="#dirArrow" transform="rotate(90) translate(36 -43)" onmousedown="handlePan(1,0)">
                  <use xlink:href="#rim" fill="#404040">
                        <set attributeName="fill" to="#808080" begin="arrowRight.mouseover" end="arrowRight.mouseout"/>
                  </use>
                  <path fill="none" stroke="white" stroke-width="1.5" d="M0,-3.0v7 M-2.5,-0.5L0,-3.0L2.5,-0.5"/>
                </g>
                <g id="arrowDown" xlink:href="#dirArrow" transform="rotate(180) translate(-30 -48)" onmousedown="handlePan(0,1)">
                  <use xlink:href="#rim" fill="#404040">
                        <set attributeName="fill" to="#808080" begin="arrowDown.mouseover" end="arrowDown.mouseout"/>
                  </use>
                  <path fill="none" stroke="white" stroke-width="1.5" d="M0,-3.0v7 M-2.5,-0.5L0,-3.0L2.5,-0.5"/>
                </g>
                <g id="arrowLeft" xlink:href="#dirArrow" transform="rotate(270) translate(-36 17)" onmousedown="handlePan(-1,0)">
                  <use xlink:href="#rim" fill="#404040">
                        <set attributeName="fill" to="#808080" begin="arrowLeft.mouseover" end="arrowLeft.mouseout"/>
                  </use>
                  <path fill="none" stroke="white" stroke-width="1.5" d="M0,-3.0v7 M-2.5,-0.5L0,-3.0L2.5,-0.5"/>
                </g>
        </g>
        <svg viewBox="0 0 15 15" width="100%" height="30px" preserveAspectRatio="xMaxYMin meet">
         <g id="arrow_out" transform="scale(0.3 0.3)">
          <a xlink:href="structanch_1_1sql_1_1_s_q_l_shared_library__coll__graph_org.svg" target="_base">
           <rect id="button" ry="5" rx="5" y="6" x="6" height="38" width="38"
                fill="#f2f5e9" fill-opacity="0.5" stroke="#606060" stroke-width="1.0"/>
           <path id="arrow"
             d="M 11.500037,31.436501 C 11.940474,20.09759 22.043105,11.32322 32.158766,21.979434 L 37.068811,17.246167 C 37.068811,17.246167 37.088388,32 37.088388,32 L 22.160133,31.978069 C 22.160133,31.978069 26.997745,27.140456 26.997745,27.140456 C 18.528582,18.264221 13.291696,25.230495 11.500037,31.436501 z"
             style="fill:#404040;"/>
          </a>
         </g>
        </svg>
</svg>
