<?xml version="1.0" encoding="UTF-8" standalone="no"?>
<!DOCTYPE svg PUBLIC "-//W3C//DTD SVG 1.1//EN"
 "http://www.w3.org/Graphics/SVG/1.1/DTD/svg11.dtd">
<!-- Generated by graphviz version 12.1.2 (0)
 -->
<!-- Title: anch::rest::ClientConfg Pages: 1 -->
<svg width="129pt" height="92pt"
 viewBox="0.00 0.00 129.00 92.00" xmlns="http://www.w3.org/2000/svg" xmlns:xlink="http://www.w3.org/1999/xlink">
<g id="graph0" class="graph" transform="scale(1 1) rotate(0) translate(4 88)">
<title>anch::rest::ClientConfg</title>
<!-- Node1 -->
<g id="Node000001" class="node">
<title>Node1</title>
<g id="a_Node000001"><a xlink:title=" ">
<polygon fill="#999999" stroke="none" points="121,-84 0,-84 0,0 121,0 121,-84"/>
<text text-anchor="start" x="5" y="-70.5" font-family="Helvetica,sans-Serif" font-size="10.00">anch::rest::ClientConfg</text>
<text text-anchor="start" x="5.88" y="-54.5" font-family="Helvetica,sans-Serif" font-size="10.00">+</text>
<text text-anchor="start" x="20" y="-54.5" font-family="Helvetica,sans-Serif" font-size="10.00">connectionTimeout</text>
<text text-anchor="start" x="5.88" y="-38.5" font-family="Helvetica,sans-Serif" font-size="10.00">+</text>
<text text-anchor="start" x="20" y="-38.5" font-family="Helvetica,sans-Serif" font-size="10.00">socketTimeout</text>
<text text-anchor="start" x="5.88" y="-22.5" font-family="Helvetica,sans-Serif" font-size="10.00">+</text>
<text text-anchor="start" x="20" y="-22.5" font-family="Helvetica,sans-Serif" font-size="10.00">proxy</text>
<text text-anchor="start" x="59" y="-6.5" font-family="Helvetica,sans-Serif" font-size="10.00"> </text>
<polygon fill="#666666" stroke="#666666" points="0,-66 0,-66 121,-66 121,-66 0,-66"/>
<polygon fill="#666666" stroke="#666666" points="0,-18 0,-18 18,-18 18,-18 0,-18"/>
<polygon fill="#666666" stroke="#666666" points="18,-18 18,-18 121,-18 121,-18 18,-18"/>
<polygon fill="none" stroke="#666666" points="0,0 0,-84 121,-84 121,0 0,0"/>
</a>
</g>
</g>
</g>
</svg>
