<?xml version="1.0" encoding="UTF-8" standalone="no"?>
<!DOCTYPE svg PUBLIC "-//W3C//DTD SVG 1.1//EN"
 "http://www.w3.org/Graphics/SVG/1.1/DTD/svg11.dtd">
<!-- Generated by graphviz version 10.0.1 (0)
 -->
<!-- Title: anch::crypto::SHA1::Context Pages: 1 -->
<svg width="350pt" height="404pt"
 viewBox="0.00 0.00 350.00 404.25" xmlns="http://www.w3.org/2000/svg" xmlns:xlink="http://www.w3.org/1999/xlink">

<svg id="main" version="1.1" xmlns="http://www.w3.org/2000/svg" xmlns:xlink="http://www.w3.org/1999/xlink" xml:space="preserve" onload="init(evt)">
<style type="text/css"><![CDATA[
.node, .edge {opacity: 0.7;}
.node.selected, .edge.selected {opacity: 1;}
.edge:hover path { stroke: red; }
.edge:hover polygon { stroke: red; fill: red; }
]]></style>
<script type="application/ecmascript" xlink:href="svg.min.js"/>
<svg id="graph" class="graph">
<g id="graph0" class="graph" transform="scale(1 1) rotate(0) translate(4 400.25)">
<title>anch::crypto::SHA1::Context</title>
<!-- Node1 -->
<g id="Node000001" class="node">
<title>Node1</title>
<g id="a_Node000001"><a xlink:title=" ">
<polygon fill="#999999" stroke="none" points="219,-81 117,-81 117,0 219,0 219,-81"/>
<text text-anchor="start" x="121.88" y="-67.5" font-family="Helvetica,sans-Serif" font-size="10.00">anch::crypto::SHA1</text>
<text text-anchor="start" x="145.88" y="-54.75" font-family="Helvetica,sans-Serif" font-size="10.00">::Context</text>
<text text-anchor="start" x="129.88" y="-38.5" font-family="Helvetica,sans-Serif" font-size="10.00">+</text>
<text text-anchor="start" x="151" y="-38.5" font-family="Helvetica,sans-Serif" font-size="10.00">size</text>
<text text-anchor="start" x="129.88" y="-22.5" font-family="Helvetica,sans-Serif" font-size="10.00">+</text>
<text text-anchor="start" x="151" y="-22.5" font-family="Helvetica,sans-Serif" font-size="10.00">Context()</text>
<text text-anchor="start" x="129.88" y="-6.5" font-family="Helvetica,sans-Serif" font-size="10.00">+</text>
<text text-anchor="start" x="151" y="-6.5" font-family="Helvetica,sans-Serif" font-size="10.00">reset()</text>
<polygon fill="#666666" stroke="#666666" points="117,-50 117,-50 219,-50 219,-50 117,-50"/>
<polygon fill="#666666" stroke="#666666" points="117,-34 117,-34 149,-34 149,-34 117,-34"/>
<polygon fill="#666666" stroke="#666666" points="149,-34 149,-34 219,-34 219,-34 149,-34"/>
<polygon fill="none" stroke="#666666" points="117,0 117,-81 219,-81 219,0 117,0"/>
</a>
</g>
</g>
<!-- Node2 -->
<g id="Node000002" class="node">
<title>Node2</title>
<g id="a_Node000002"><a xlink:title=" ">
<polygon fill="white" stroke="none" points="98,-194.75 0,-194.75 0,-129.75 98,-129.75 98,-194.75"/>
<text text-anchor="start" x="4.75" y="-181.25" font-family="Helvetica,sans-Serif" font-size="10.00">std::array&lt; uint32</text>
<text text-anchor="start" x="32.88" y="-168.5" font-family="Helvetica,sans-Serif" font-size="10.00">_t, 5 &gt;</text>
<text text-anchor="start" x="11.88" y="-152.25" font-family="Helvetica,sans-Serif" font-size="10.00">+</text>
<text text-anchor="start" x="32" y="-152.25" font-family="Helvetica,sans-Serif" font-size="10.00">elements</text>
<text text-anchor="start" x="47.5" y="-136.25" font-family="Helvetica,sans-Serif" font-size="10.00"> </text>
<polygon fill="#666666" stroke="#666666" points="0,-163.75 0,-163.75 98,-163.75 98,-163.75 0,-163.75"/>
<polygon fill="#666666" stroke="#666666" points="0,-147.75 0,-147.75 30,-147.75 30,-147.75 0,-147.75"/>
<polygon fill="#666666" stroke="#666666" points="30,-147.75 30,-147.75 98,-147.75 98,-147.75 30,-147.75"/>
<polygon fill="none" stroke="#666666" points="0,-129.75 0,-194.75 98,-194.75 98,-129.75 0,-129.75"/>
</a>
</g>
</g>
<!-- Node2&#45;&gt;Node1 -->
<g id="edge1_Node000001_Node000002" class="edge">
<title>Node2&#45;&gt;Node1</title>
<g id="a_edge1_Node000001_Node000002"><a xlink:title=" ">
<path fill="none" stroke="#63b8ff" d="M80.27,-129.79C92.35,-117.63 106.46,-103.43 119.78,-90.02"/>
<polygon fill="none" stroke="#63b8ff" points="119.76,-90.05 121.15,-82.97 128.21,-81.54 126.82,-88.61 119.76,-90.05"/>
</a>
</g>
<text text-anchor="middle" x="127" y="-102.25" font-family="Helvetica,sans-Serif" font-size="10.00" fill="grey"> +state</text>
</g>
<!-- Node3 -->
<g id="Node000003" class="node">
<title>Node3</title>
<g id="a_Node000003"><a xlink:title=" ">
<polygon fill="white" stroke="none" points="210.5,-295.5 125.5,-295.5 125.5,-243.5 210.5,-243.5 210.5,-295.5"/>
<text text-anchor="start" x="130.5" y="-282" font-family="Helvetica,sans-Serif" font-size="10.00">std::array&lt; T &gt;</text>
<text text-anchor="start" x="166.5" y="-266" font-family="Helvetica,sans-Serif" font-size="10.00"> </text>
<text text-anchor="start" x="166.5" y="-250" font-family="Helvetica,sans-Serif" font-size="10.00"> </text>
<polygon fill="#666666" stroke="#666666" points="125.5,-277.5 125.5,-277.5 210.5,-277.5 210.5,-277.5 125.5,-277.5"/>
<polygon fill="#666666" stroke="#666666" points="125.5,-261.5 125.5,-261.5 210.5,-261.5 210.5,-261.5 125.5,-261.5"/>
<polygon fill="none" stroke="#666666" points="125.5,-243.5 125.5,-295.5 210.5,-295.5 210.5,-243.5 125.5,-243.5"/>
</a>
</g>
</g>
<!-- Node3&#45;&gt;Node2 -->
<g id="edge2_Node000002_Node000003" class="edge">
<title>Node3&#45;&gt;Node2</title>
<g id="a_edge2_Node000002_Node000003"><a xlink:title=" ">
<path fill="none" stroke="orange" d="M115.37,-246.01C105.19,-240.24 95.11,-233.38 86.75,-225.5 77.46,-216.74 69.63,-205.2 63.55,-194.44"/>
<polygon fill="orange" stroke="orange" points="113.71,-249.09 124.18,-250.71 117.01,-242.92 113.71,-249.09"/>
</a>
</g>
<text text-anchor="middle" x="125.62" y="-216" font-family="Helvetica,sans-Serif" font-size="10.00" fill="grey"> &lt; uint32_t, 5 &gt;</text>
</g>
<!-- Node5 -->
<g id="Node000005" class="node">
<title>Node5</title>
<g id="a_Node000005"><a xlink:title=" ">
<polygon fill="white" stroke="none" points="220,-194.75 116,-194.75 116,-129.75 220,-129.75 220,-194.75"/>
<text text-anchor="start" x="120.75" y="-181.25" font-family="Helvetica,sans-Serif" font-size="10.00">std::array&lt; uint8_t,</text>
<text text-anchor="start" x="154.88" y="-168.5" font-family="Helvetica,sans-Serif" font-size="10.00"> 64 &gt;</text>
<text text-anchor="start" x="129.38" y="-152.25" font-family="Helvetica,sans-Serif" font-size="10.00">+</text>
<text text-anchor="start" x="151" y="-152.25" font-family="Helvetica,sans-Serif" font-size="10.00">elements</text>
<text text-anchor="start" x="166.5" y="-136.25" font-family="Helvetica,sans-Serif" font-size="10.00"> </text>
<polygon fill="#666666" stroke="#666666" points="116,-163.75 116,-163.75 220,-163.75 220,-163.75 116,-163.75"/>
<polygon fill="#666666" stroke="#666666" points="116,-147.75 116,-147.75 149,-147.75 149,-147.75 116,-147.75"/>
<polygon fill="#666666" stroke="#666666" points="149,-147.75 149,-147.75 220,-147.75 220,-147.75 149,-147.75"/>
<polygon fill="none" stroke="#666666" points="116,-129.75 116,-194.75 220,-194.75 220,-129.75 116,-129.75"/>
</a>
</g>
</g>
<!-- Node3&#45;&gt;Node5 -->
<g id="edge5_Node000005_Node000003" class="edge">
<title>Node3&#45;&gt;Node5</title>
<g id="a_edge5_Node000005_Node000003"><a xlink:title=" ">
<path fill="none" stroke="orange" d="M168,-232.26C168,-219.95 168,-206.3 168,-194.42"/>
<polygon fill="orange" stroke="orange" points="164.5,-232.04 168,-242.04 171.5,-232.04 164.5,-232.04"/>
</a>
</g>
<text text-anchor="middle" x="206.62" y="-216" font-family="Helvetica,sans-Serif" font-size="10.00" fill="grey"> &lt; uint8_t, 64 &gt;</text>
</g>
<!-- Node6 -->
<g id="Node000006" class="node">
<title>Node6</title>
<g id="a_Node000006"><a xlink:title=" ">
<polygon fill="white" stroke="none" points="342,-194.75 238,-194.75 238,-129.75 342,-129.75 342,-194.75"/>
<text text-anchor="start" x="242.75" y="-181.25" font-family="Helvetica,sans-Serif" font-size="10.00">std::array&lt; uint8_t,</text>
<text text-anchor="start" x="276.88" y="-168.5" font-family="Helvetica,sans-Serif" font-size="10.00"> 20 &gt;</text>
<text text-anchor="start" x="251.38" y="-152.25" font-family="Helvetica,sans-Serif" font-size="10.00">+</text>
<text text-anchor="start" x="273" y="-152.25" font-family="Helvetica,sans-Serif" font-size="10.00">elements</text>
<text text-anchor="start" x="288.5" y="-136.25" font-family="Helvetica,sans-Serif" font-size="10.00"> </text>
<polygon fill="#666666" stroke="#666666" points="238,-163.75 238,-163.75 342,-163.75 342,-163.75 238,-163.75"/>
<polygon fill="#666666" stroke="#666666" points="238,-147.75 238,-147.75 271,-147.75 271,-147.75 238,-147.75"/>
<polygon fill="#666666" stroke="#666666" points="271,-147.75 271,-147.75 342,-147.75 342,-147.75 271,-147.75"/>
<polygon fill="none" stroke="#666666" points="238,-129.75 238,-194.75 342,-194.75 342,-129.75 238,-129.75"/>
</a>
</g>
</g>
<!-- Node3&#45;&gt;Node6 -->
<g id="edge7_Node000006_Node000003" class="edge">
<title>Node3&#45;&gt;Node6</title>
<g id="a_edge7_Node000006_Node000003"><a xlink:title=" ">
<path fill="none" stroke="orange" d="M220.24,-245.75C230.4,-239.99 240.52,-233.21 249,-225.5 258.57,-216.79 266.92,-205.39 273.54,-194.72"/>
<polygon fill="orange" stroke="orange" points="218.62,-242.64 211.46,-250.45 221.93,-248.81 218.62,-242.64"/>
</a>
</g>
<text text-anchor="middle" x="299.62" y="-216" font-family="Helvetica,sans-Serif" font-size="10.00" fill="grey"> &lt; uint8_t, 20 &gt;</text>
</g>
<!-- Node4 -->
<g id="Node000004" class="node">
<title>Node4</title>
<g id="a_Node000004"><a xlink:title=" ">
<polygon fill="white" stroke="none" points="176,-396.25 160,-396.25 160,-344.25 176,-344.25 176,-396.25"/>
<text text-anchor="start" x="165" y="-382.75" font-family="Helvetica,sans-Serif" font-size="10.00">T</text>
<text text-anchor="start" x="166.5" y="-366.75" font-family="Helvetica,sans-Serif" font-size="10.00"> </text>
<text text-anchor="start" x="166.5" y="-350.75" font-family="Helvetica,sans-Serif" font-size="10.00"> </text>
<polygon fill="#bfbfbf" stroke="#bfbfbf" points="160,-378.25 160,-378.25 176,-378.25 176,-378.25 160,-378.25"/>
<polygon fill="#bfbfbf" stroke="#bfbfbf" points="160,-362.25 160,-362.25 176,-362.25 176,-362.25 160,-362.25"/>
<polygon fill="none" stroke="#bfbfbf" points="160,-344.25 160,-396.25 176,-396.25 176,-344.25 160,-344.25"/>
</a>
</g>
</g>
<!-- Node4&#45;&gt;Node3 -->
<g id="edge3_Node000003_Node000004" class="edge">
<title>Node4&#45;&gt;Node3</title>
<g id="a_edge3_Node000003_Node000004"><a xlink:title=" ">
<path fill="none" stroke="#63b8ff" d="M168,-344.33C168,-333.45 168,-320.46 168,-308.43"/>
<polygon fill="none" stroke="#63b8ff" points="168,-308.31 164,-302.31 168,-296.31 172,-302.31 168,-308.31"/>
</a>
</g>
<text text-anchor="middle" x="196.5" y="-316.75" font-family="Helvetica,sans-Serif" font-size="10.00" fill="grey"> +elements</text>
</g>
<!-- Node5&#45;&gt;Node1 -->
<g id="edge4_Node000001_Node000005" class="edge">
<title>Node5&#45;&gt;Node1</title>
<g id="a_edge4_Node000001_Node000005"><a xlink:title=" ">
<path fill="none" stroke="#63b8ff" d="M168,-129.79C168,-118.79 168,-106.14 168,-93.91"/>
<polygon fill="none" stroke="#63b8ff" points="168,-93.8 164,-87.8 168,-81.8 172,-87.8 168,-93.8"/>
</a>
</g>
<text text-anchor="middle" x="187.88" y="-102.25" font-family="Helvetica,sans-Serif" font-size="10.00" fill="grey"> +buffer</text>
</g>
<!-- Node6&#45;&gt;Node1 -->
<g id="edge6_Node000001_Node000006" class="edge">
<title>Node6&#45;&gt;Node1</title>
<g id="a_edge6_Node000001_Node000006"><a xlink:title=" ">
<path fill="none" stroke="#63b8ff" d="M257.95,-129.79C245.56,-117.63 231.09,-103.43 217.43,-90.02"/>
<polygon fill="none" stroke="#63b8ff" points="217.34,-89.93 210.26,-88.59 208.78,-81.53 215.86,-82.88 217.34,-89.93"/>
</a>
</g>
<text text-anchor="middle" x="257.62" y="-102.25" font-family="Helvetica,sans-Serif" font-size="10.00" fill="grey"> +digest</text>
</g>
</g>
</svg>
</svg>

<style type='text/css'>
<![CDATA[
[data-mouse-over-selected='false'] { opacity: 0.7; }
[data-mouse-over-selected='true']  { opacity: 1.0; }
]]>
</style>
<script type="application/ecmascript"><![CDATA[
document.addEventListener('DOMContentLoaded', (event) => {
  highlightEdges();
  highlightAdjacentNodes();
});
]]></script>
</svg>
