<?xml version="1.0" encoding="UTF-8" standalone="no"?>
<!DOCTYPE svg PUBLIC "-//W3C//DTD SVG 1.1//EN"
 "http://www.w3.org/Graphics/SVG/1.1/DTD/svg11.dtd">
<!-- Generated by graphviz version 13.1.0 (0)
 -->
<!-- Title: anch::rest::MediaType Pages: 1 -->
<svg width="261pt" height="555pt"
 viewBox="0.00 0.00 261.00 555.00" xmlns="http://www.w3.org/2000/svg" xmlns:xlink="http://www.w3.org/1999/xlink">
<g id="graph0" class="graph" transform="scale(1 1) rotate(0) translate(4 551)">
<title>anch::rest::MediaType</title>
<!-- Node1 -->
<g id="Node000001" class="node">
<title>Node1</title>
<g id="a_Node000001"><a xlink:title="Media type.">
<polygon fill="#999999" stroke="none" points="195.75,-180 0,-180 0,0 195.75,0 195.75,-180"/>
<text xml:space="preserve" text-anchor="start" x="49.5" y="-166.5" font-family="Helvetica,sans-Serif" font-size="10.00">anch::rest::MediaType</text>
<text xml:space="preserve" text-anchor="start" x="4" y="-150.5" font-family="Helvetica,sans-Serif" font-size="10.00">+</text>
<text xml:space="preserve" text-anchor="start" x="14" y="-150.5" font-family="Helvetica,sans-Serif" font-size="10.00">NONE</text>
<text xml:space="preserve" text-anchor="start" x="4" y="-134.5" font-family="Helvetica,sans-Serif" font-size="10.00">+</text>
<text xml:space="preserve" text-anchor="start" x="14" y="-134.5" font-family="Helvetica,sans-Serif" font-size="10.00">APP_X_PROTOBUF</text>
<text xml:space="preserve" text-anchor="start" x="4" y="-118.5" font-family="Helvetica,sans-Serif" font-size="10.00">+</text>
<text xml:space="preserve" text-anchor="start" x="14" y="-118.5" font-family="Helvetica,sans-Serif" font-size="10.00">APP_X_WWW_FORM_URLENCODED</text>
<text xml:space="preserve" text-anchor="start" x="4" y="-102.5" font-family="Helvetica,sans-Serif" font-size="10.00">+</text>
<text xml:space="preserve" text-anchor="start" x="14" y="-102.5" font-family="Helvetica,sans-Serif" font-size="10.00">MULTIPART_FORM_DATA</text>
<text xml:space="preserve" text-anchor="start" x="4" y="-86.5" font-family="Helvetica,sans-Serif" font-size="10.00">+</text>
<text xml:space="preserve" text-anchor="start" x="14" y="-86.5" font-family="Helvetica,sans-Serif" font-size="10.00">TXT_CSS</text>
<text xml:space="preserve" text-anchor="start" x="4" y="-70.5" font-family="Helvetica,sans-Serif" font-size="10.00">+</text>
<text xml:space="preserve" text-anchor="start" x="14" y="-70.5" font-family="Helvetica,sans-Serif" font-size="10.00">TXT_CSV</text>
<text xml:space="preserve" text-anchor="start" x="4" y="-54.5" font-family="Helvetica,sans-Serif" font-size="10.00">+</text>
<text xml:space="preserve" text-anchor="start" x="14" y="-54.5" font-family="Helvetica,sans-Serif" font-size="10.00">TXT_HTML</text>
<text xml:space="preserve" text-anchor="start" x="4" y="-38.5" font-family="Helvetica,sans-Serif" font-size="10.00">+</text>
<text xml:space="preserve" text-anchor="start" x="14" y="-38.5" font-family="Helvetica,sans-Serif" font-size="10.00">TXT_PLAIN</text>
<text xml:space="preserve" text-anchor="start" x="4" y="-22.5" font-family="Helvetica,sans-Serif" font-size="10.00">+</text>
<text xml:space="preserve" text-anchor="start" x="14" y="-22.5" font-family="Helvetica,sans-Serif" font-size="10.00">TXT_XML</text>
<text xml:space="preserve" text-anchor="start" x="96.38" y="-6.5" font-family="Helvetica,sans-Serif" font-size="10.00"> </text>
<polygon fill="#666666" stroke="#666666" points="0,-162 0,-162 195.75,-162 195.75,-162 0,-162"/>
<polygon fill="#666666" stroke="#666666" points="0,-18 0,-18 12,-18 12,-18 0,-18"/>
<polygon fill="#666666" stroke="#666666" points="12,-18 12,-18 195.75,-18 195.75,-18 12,-18"/>
<polygon fill="none" stroke="#666666" points="0,0 0,-180 195.75,-180 195.75,0 0,0"/>
</a>
</g>
</g>
<!-- Node2 -->
<g id="Node000002" class="node">
<title>Node2</title>
<g id="a_Node000002"><a xlink:title=" ">
<polygon fill="white" stroke="none" points="123.62,-446 72.12,-446 72.12,-394 123.62,-394 123.62,-446"/>
<text xml:space="preserve" text-anchor="start" x="76.12" y="-432.5" font-family="Helvetica,sans-Serif" font-size="10.00">std::string</text>
<text xml:space="preserve" text-anchor="start" x="96.38" y="-416.5" font-family="Helvetica,sans-Serif" font-size="10.00"> </text>
<text xml:space="preserve" text-anchor="start" x="96.38" y="-400.5" font-family="Helvetica,sans-Serif" font-size="10.00"> </text>
<polygon fill="#666666" stroke="#666666" points="72.12,-428 72.12,-428 123.62,-428 123.62,-428 72.12,-428"/>
<polygon fill="#666666" stroke="#666666" points="72.12,-412 72.12,-412 123.62,-412 123.62,-412 72.12,-412"/>
<polygon fill="none" stroke="#666666" points="72.12,-394 72.12,-446 123.62,-446 123.62,-394 72.12,-394"/>
</a>
</g>
</g>
<!-- Node2&#45;&gt;Node1 -->
<g id="edge1_Node000001_Node000002" class="edge">
<title>Node2&#45;&gt;Node1</title>
<g id="a_edge1_Node000001_Node000002"><a xlink:title=" ">
<path fill="none" stroke="#63b8ff" d="M97.88,-394.08C97.88,-351.64 97.88,-263.12 97.88,-192.64"/>
<polygon fill="none" stroke="#63b8ff" points="97.88,-192.61 93.88,-186.61 97.88,-180.61 101.88,-186.61 97.88,-192.61"/>
</a>
</g>
<text xml:space="preserve" text-anchor="start" x="100.88" y="-363.5" font-family="Helvetica,sans-Serif" font-size="10.00" fill="grey">+ALL</text>
<text xml:space="preserve" text-anchor="start" x="100.88" y="-347.5" font-family="Helvetica,sans-Serif" font-size="10.00" fill="grey">+APP_GRAPHQL</text>
<text xml:space="preserve" text-anchor="start" x="100.88" y="-331.5" font-family="Helvetica,sans-Serif" font-size="10.00" fill="grey">+APP_JAVASCRIPT</text>
<text xml:space="preserve" text-anchor="start" x="100.88" y="-315.5" font-family="Helvetica,sans-Serif" font-size="10.00" fill="grey">+APP_JSON</text>
<text xml:space="preserve" text-anchor="start" x="100.88" y="-299.5" font-family="Helvetica,sans-Serif" font-size="10.00" fill="grey">+APP_OCTET_STREAM</text>
<text xml:space="preserve" text-anchor="start" x="100.88" y="-283.5" font-family="Helvetica,sans-Serif" font-size="10.00" fill="grey">+APP_VND_PROTOBUF</text>
<text xml:space="preserve" text-anchor="start" x="100.88" y="-267.5" font-family="Helvetica,sans-Serif" font-size="10.00" fill="grey">+APP_VND_THRIFT_BINARY</text>
<text xml:space="preserve" text-anchor="start" x="100.88" y="-251.5" font-family="Helvetica,sans-Serif" font-size="10.00" fill="grey">+APP_VND_THRIFT_COMPACT</text>
<text xml:space="preserve" text-anchor="start" x="100.88" y="-235.5" font-family="Helvetica,sans-Serif" font-size="10.00" fill="grey">+APP_VND_THRIFT_JSON</text>
<text xml:space="preserve" text-anchor="start" x="100.88" y="-219.5" font-family="Helvetica,sans-Serif" font-size="10.00" fill="grey">+APP_XML</text>
<text xml:space="preserve" text-anchor="start" x="100.88" y="-203.5" font-family="Helvetica,sans-Serif" font-size="10.00" fill="grey"> &#160;...</text>
</g>
<!-- Node3 -->
<g id="Node000003" class="node">
<title>Node3</title>
<g id="a_Node000003"><a xlink:title=" ">
<polygon fill="white" stroke="none" points="140.88,-547 54.88,-547 54.88,-483 140.88,-483 140.88,-547"/>
<text xml:space="preserve" text-anchor="start" x="58.88" y="-533.5" font-family="Helvetica,sans-Serif" font-size="10.00">std::basic_string&lt;</text>
<text xml:space="preserve" text-anchor="start" x="81.38" y="-521.5" font-family="Helvetica,sans-Serif" font-size="10.00"> Char &gt;</text>
<text xml:space="preserve" text-anchor="start" x="96.38" y="-505.5" font-family="Helvetica,sans-Serif" font-size="10.00"> </text>
<text xml:space="preserve" text-anchor="start" x="96.38" y="-489.5" font-family="Helvetica,sans-Serif" font-size="10.00"> </text>
<polygon fill="#666666" stroke="#666666" points="54.88,-517 54.88,-517 140.88,-517 140.88,-517 54.88,-517"/>
<polygon fill="#666666" stroke="#666666" points="54.88,-501 54.88,-501 140.88,-501 140.88,-501 54.88,-501"/>
<polygon fill="none" stroke="#666666" points="54.88,-483 54.88,-547 140.88,-547 140.88,-483 54.88,-483"/>
</a>
</g>
</g>
<!-- Node3&#45;&gt;Node2 -->
<g id="edge2_Node000002_Node000003" class="edge">
<title>Node3&#45;&gt;Node2</title>
<g id="a_edge2_Node000002_Node000003"><a xlink:title=" ">
<path fill="none" stroke="#63b8ff" d="M97.88,-471.69C97.88,-462.89 97.88,-453.89 97.88,-445.96"/>
<polygon fill="none" stroke="#63b8ff" points="94.38,-471.52 97.88,-481.52 101.38,-471.52 94.38,-471.52"/>
</a>
</g>
</g>
</g>
</svg>
