<?xml version="1.0" encoding="UTF-8" standalone="no"?>
<!DOCTYPE svg PUBLIC "-//W3C//DTD SVG 1.1//EN"
 "http://www.w3.org/Graphics/SVG/1.1/DTD/svg11.dtd">
<!-- Generated by graphviz version 14.0.4 (0)
 -->
<!-- Title: anch::rest::CommonHeaders Pages: 1 -->
<svg width="223pt" height="635pt"
 viewBox="0.00 0.00 223.00 635.00" xmlns="http://www.w3.org/2000/svg" xmlns:xlink="http://www.w3.org/1999/xlink">
<g id="graph0" class="graph" transform="scale(1 1) rotate(0) translate(4 631)">
<title>anch::rest::CommonHeaders</title>
<!-- Node1 -->
<g id="Node000001" class="node">
<title>Node1</title>
<g id="a_Node000001"><a xlink:title="Common HTTP headers.">
<polygon fill="#999999" stroke="none" points="134,-212 0,-212 0,0 134,0 134,-212"/>
<text xml:space="preserve" text-anchor="start" x="4" y="-198.5" font-family="Helvetica,sans-Serif" font-size="10.00">anch::rest::CommonHeaders</text>
<text xml:space="preserve" text-anchor="start" x="4.31" y="-182.5" font-family="Helvetica,sans-Serif" font-size="10.00">+</text>
<text xml:space="preserve" text-anchor="start" x="14.62" y="-182.5" font-family="Helvetica,sans-Serif" font-size="10.00">CACHE_CONTROL</text>
<text xml:space="preserve" text-anchor="start" x="4.31" y="-166.5" font-family="Helvetica,sans-Serif" font-size="10.00">+</text>
<text xml:space="preserve" text-anchor="start" x="14.62" y="-166.5" font-family="Helvetica,sans-Serif" font-size="10.00">CONNECTION</text>
<text xml:space="preserve" text-anchor="start" x="4.31" y="-150.5" font-family="Helvetica,sans-Serif" font-size="10.00">+</text>
<text xml:space="preserve" text-anchor="start" x="14.62" y="-150.5" font-family="Helvetica,sans-Serif" font-size="10.00">CONTENT_ENCODING</text>
<text xml:space="preserve" text-anchor="start" x="4.31" y="-134.5" font-family="Helvetica,sans-Serif" font-size="10.00">+</text>
<text xml:space="preserve" text-anchor="start" x="14.62" y="-134.5" font-family="Helvetica,sans-Serif" font-size="10.00">CONTENT_LENGTH</text>
<text xml:space="preserve" text-anchor="start" x="4.31" y="-118.5" font-family="Helvetica,sans-Serif" font-size="10.00">+</text>
<text xml:space="preserve" text-anchor="start" x="14.62" y="-118.5" font-family="Helvetica,sans-Serif" font-size="10.00">CONTENT_MD5</text>
<text xml:space="preserve" text-anchor="start" x="4.31" y="-102.5" font-family="Helvetica,sans-Serif" font-size="10.00">+</text>
<text xml:space="preserve" text-anchor="start" x="14.62" y="-102.5" font-family="Helvetica,sans-Serif" font-size="10.00">CONTENT_TYPE</text>
<text xml:space="preserve" text-anchor="start" x="4.31" y="-86.5" font-family="Helvetica,sans-Serif" font-size="10.00">+</text>
<text xml:space="preserve" text-anchor="start" x="14.62" y="-86.5" font-family="Helvetica,sans-Serif" font-size="10.00">DATE</text>
<text xml:space="preserve" text-anchor="start" x="4.31" y="-70.5" font-family="Helvetica,sans-Serif" font-size="10.00">+</text>
<text xml:space="preserve" text-anchor="start" x="14.62" y="-70.5" font-family="Helvetica,sans-Serif" font-size="10.00">PRAGMA</text>
<text xml:space="preserve" text-anchor="start" x="4.31" y="-54.5" font-family="Helvetica,sans-Serif" font-size="10.00">+</text>
<text xml:space="preserve" text-anchor="start" x="14.62" y="-54.5" font-family="Helvetica,sans-Serif" font-size="10.00">TRAILER</text>
<text xml:space="preserve" text-anchor="start" x="4.31" y="-38.5" font-family="Helvetica,sans-Serif" font-size="10.00">+</text>
<text xml:space="preserve" text-anchor="start" x="14.62" y="-38.5" font-family="Helvetica,sans-Serif" font-size="10.00">TRANSFER_ENCODING</text>
<text xml:space="preserve" text-anchor="start" x="14.62" y="-22.5" font-family="Helvetica,sans-Serif" font-size="10.00">and 87 more...</text>
<text xml:space="preserve" text-anchor="start" x="65.5" y="-6.5" font-family="Helvetica,sans-Serif" font-size="10.00"> </text>
<polygon fill="#666666" stroke="#666666" points="0,-194 0,-194 134,-194 134,-194 0,-194"/>
<polygon fill="#666666" stroke="#666666" points="0,-18 0,-18 12.62,-18 12.62,-18 0,-18"/>
<polygon fill="#666666" stroke="#666666" points="12.62,-18 12.62,-18 134,-18 134,-18 12.62,-18"/>
<polygon fill="none" stroke="#666666" points="0,0 0,-212 134,-212 134,0 0,0"/>
</a>
</g>
</g>
<!-- Node2 -->
<g id="Node000002" class="node">
<title>Node2</title>
<g id="a_Node000002"><a xlink:title=" ">
<polygon fill="white" stroke="none" points="92.75,-526 41.25,-526 41.25,-474 92.75,-474 92.75,-526"/>
<text xml:space="preserve" text-anchor="start" x="45.25" y="-512.5" font-family="Helvetica,sans-Serif" font-size="10.00">std::string</text>
<text xml:space="preserve" text-anchor="start" x="65.5" y="-496.5" font-family="Helvetica,sans-Serif" font-size="10.00"> </text>
<text xml:space="preserve" text-anchor="start" x="65.5" y="-480.5" font-family="Helvetica,sans-Serif" font-size="10.00"> </text>
<polygon fill="#666666" stroke="#666666" points="41.25,-508 41.25,-508 92.75,-508 92.75,-508 41.25,-508"/>
<polygon fill="#666666" stroke="#666666" points="41.25,-492 41.25,-492 92.75,-492 92.75,-492 41.25,-492"/>
<polygon fill="none" stroke="#666666" points="41.25,-474 41.25,-526 92.75,-526 92.75,-474 41.25,-474"/>
</a>
</g>
</g>
<!-- Node2&#45;&gt;Node1 -->
<g id="edge1_Node000001_Node000002" class="edge">
<title>Node2&#45;&gt;Node1</title>
<g id="a_edge1_Node000001_Node000002"><a xlink:title=" ">
<path fill="none" stroke="#63b8ff" d="M67,-474.18C67,-424.99 67,-312.28 67,-224.62"/>
<polygon fill="none" stroke="#63b8ff" points="67,-224.51 63,-218.51 67,-212.51 71,-218.51 67,-224.51"/>
</a>
</g>
<text xml:space="preserve" text-anchor="start" x="70" y="-443.5" font-family="Helvetica,sans-Serif" font-size="10.00" fill="grey">+ACCEPT</text>
<text xml:space="preserve" text-anchor="start" x="70" y="-427.5" font-family="Helvetica,sans-Serif" font-size="10.00" fill="grey">+ACCEPT_CH</text>
<text xml:space="preserve" text-anchor="start" x="70" y="-411.5" font-family="Helvetica,sans-Serif" font-size="10.00" fill="grey">+ACCEPT_CHARSET</text>
<text xml:space="preserve" text-anchor="start" x="70" y="-395.5" font-family="Helvetica,sans-Serif" font-size="10.00" fill="grey">+ACCEPT_DATETIME</text>
<text xml:space="preserve" text-anchor="start" x="70" y="-379.5" font-family="Helvetica,sans-Serif" font-size="10.00" fill="grey">+ACCEPT_LANGUAGE</text>
<text xml:space="preserve" text-anchor="start" x="70" y="-363.5" font-family="Helvetica,sans-Serif" font-size="10.00" fill="grey">+ACCEPT_PATCH</text>
<text xml:space="preserve" text-anchor="start" x="70" y="-347.5" font-family="Helvetica,sans-Serif" font-size="10.00" fill="grey">+ACCEPT_RANGES</text>
<text xml:space="preserve" text-anchor="start" x="70" y="-331.5" font-family="Helvetica,sans-Serif" font-size="10.00" fill="grey">+ACCESS_CONTROL_ALLOW</text>
<text xml:space="preserve" text-anchor="start" x="70" y="-315.5" font-family="Helvetica,sans-Serif" font-size="10.00" fill="grey">  _CREDENTIALS</text>
<text xml:space="preserve" text-anchor="start" x="70" y="-299.5" font-family="Helvetica,sans-Serif" font-size="10.00" fill="grey">+ACCESS_CONTROL_ALLOW</text>
<text xml:space="preserve" text-anchor="start" x="70" y="-283.5" font-family="Helvetica,sans-Serif" font-size="10.00" fill="grey">  _HEADERS</text>
<text xml:space="preserve" text-anchor="start" x="70" y="-267.5" font-family="Helvetica,sans-Serif" font-size="10.00" fill="grey">+ACCESS_CONTROL_ALLOW</text>
<text xml:space="preserve" text-anchor="start" x="70" y="-251.5" font-family="Helvetica,sans-Serif" font-size="10.00" fill="grey">  _METHODS</text>
<text xml:space="preserve" text-anchor="start" x="70" y="-235.5" font-family="Helvetica,sans-Serif" font-size="10.00" fill="grey"> &#160;...</text>
</g>
<!-- Node3 -->
<g id="Node000003" class="node">
<title>Node3</title>
<g id="a_Node000003"><a xlink:title=" ">
<polygon fill="white" stroke="none" points="110,-627 24,-627 24,-563 110,-563 110,-627"/>
<text xml:space="preserve" text-anchor="start" x="28" y="-613.5" font-family="Helvetica,sans-Serif" font-size="10.00">std::basic_string&lt;</text>
<text xml:space="preserve" text-anchor="start" x="50.5" y="-601.5" font-family="Helvetica,sans-Serif" font-size="10.00"> Char &gt;</text>
<text xml:space="preserve" text-anchor="start" x="65.5" y="-585.5" font-family="Helvetica,sans-Serif" font-size="10.00"> </text>
<text xml:space="preserve" text-anchor="start" x="65.5" y="-569.5" font-family="Helvetica,sans-Serif" font-size="10.00"> </text>
<polygon fill="#666666" stroke="#666666" points="24,-597 24,-597 110,-597 110,-597 24,-597"/>
<polygon fill="#666666" stroke="#666666" points="24,-581 24,-581 110,-581 110,-581 24,-581"/>
<polygon fill="none" stroke="#666666" points="24,-563 24,-627 110,-627 110,-563 24,-563"/>
</a>
</g>
</g>
<!-- Node3&#45;&gt;Node2 -->
<g id="edge2_Node000002_Node000003" class="edge">
<title>Node3&#45;&gt;Node2</title>
<g id="a_edge2_Node000002_Node000003"><a xlink:title=" ">
<path fill="none" stroke="#63b8ff" d="M67,-551.69C67,-542.89 67,-533.89 67,-525.96"/>
<polygon fill="none" stroke="#63b8ff" points="63.5,-551.52 67,-561.52 70.5,-551.52 63.5,-551.52"/>
</a>
</g>
</g>
</g>
</svg>
