<?xml version="1.0" encoding="UTF-8" standalone="no"?>
<!DOCTYPE svg PUBLIC "-//W3C//DTD SVG 1.1//EN"
 "http://www.w3.org/Graphics/SVG/1.1/DTD/svg11.dtd">
<!-- Generated by graphviz version 2.49.3 (0)
 -->
<!-- Title: anch::sql::SQLSharedLibrary Pages: 1 -->
<svg width="248pt" height="497pt"
 viewBox="0.00 0.00 247.50 497.00" xmlns="http://www.w3.org/2000/svg" xmlns:xlink="http://www.w3.org/1999/xlink">
<g id="graph0" class="graph" transform="scale(1 1) rotate(0) translate(4 493)">
<title>anch::sql::SQLSharedLibrary</title>
<!-- Node1 -->
<g id="node1" class="node">
<title>Node1</title>
<g id="a_node1"><a xlink:title="SQL shared library data.">
<polygon fill="#bfbfbf" stroke="black" points="64,-0.5 64,-68.5 216,-68.5 216,-0.5 64,-0.5"/>
<text text-anchor="middle" x="140" y="-56.5" font-family="Helvetica,sans-Serif" font-size="10.00">anch::sql::SQLSharedLibrary</text>
<polyline fill="none" stroke="black" points="64,-49.5 216,-49.5 "/>
<text text-anchor="start" x="72" y="-37.5" font-family="Helvetica,sans-Serif" font-size="10.00">+ _layer</text>
<text text-anchor="start" x="72" y="-26.5" font-family="Helvetica,sans-Serif" font-size="10.00">+ make_shared_connection</text>
<polyline fill="none" stroke="black" points="64,-19.5 216,-19.5 "/>
<text text-anchor="middle" x="140" y="-7.5" font-family="Helvetica,sans-Serif" font-size="10.00"> </text>
</a>
</g>
</g>
<!-- Node2 -->
<g id="node2" class="node">
<title>Node2</title>
<g id="a_node2"><a xlink:title=" ">
<polygon fill="none" stroke="#bfbfbf" points="19.5,-221 19.5,-278 84.5,-278 84.5,-221 19.5,-221"/>
<text text-anchor="middle" x="52" y="-266" font-family="Helvetica,sans-Serif" font-size="10.00">std::string</text>
<polyline fill="none" stroke="#bfbfbf" points="19.5,-259 84.5,-259 "/>
<text text-anchor="middle" x="52" y="-247" font-family="Helvetica,sans-Serif" font-size="10.00"> </text>
<polyline fill="none" stroke="#bfbfbf" points="19.5,-240 84.5,-240 "/>
<text text-anchor="middle" x="52" y="-228" font-family="Helvetica,sans-Serif" font-size="10.00"> </text>
</a>
</g>
</g>
<!-- Node2&#45;&gt;Node1 -->
<g id="edge1" class="edge">
<title>Node2&#45;&gt;Node1</title>
<path fill="none" stroke="#404040" d="M58.13,-220.95C66.24,-187.75 82.43,-130.95 107,-87 108.47,-84.36 110.03,-81.68 111.62,-78.99"/>
<polygon fill="none" stroke="#404040" points="111.67,-78.91 111.39,-71.7 117.93,-68.66 118.21,-75.87 111.67,-78.91"/>
<text text-anchor="middle" x="125.5" y="-90" font-family="Helvetica,sans-Serif" font-size="10.00"> +layer</text>
</g>
<!-- Node3 -->
<g id="node3" class="node">
<title>Node3</title>
<g id="a_node3"><a xlink:title=" ">
<polygon fill="none" stroke="#bfbfbf" points="0,-420.5 0,-488.5 104,-488.5 104,-420.5 0,-420.5"/>
<text text-anchor="start" x="8" y="-476.5" font-family="Helvetica,sans-Serif" font-size="10.00">std::basic_string&lt;</text>
<text text-anchor="middle" x="52" y="-465.5" font-family="Helvetica,sans-Serif" font-size="10.00"> Char &gt;</text>
<polyline fill="none" stroke="#bfbfbf" points="0,-458.5 104,-458.5 "/>
<text text-anchor="middle" x="52" y="-446.5" font-family="Helvetica,sans-Serif" font-size="10.00"> </text>
<polyline fill="none" stroke="#bfbfbf" points="0,-439.5 104,-439.5 "/>
<text text-anchor="middle" x="52" y="-427.5" font-family="Helvetica,sans-Serif" font-size="10.00"> </text>
</a>
</g>
</g>
<!-- Node3&#45;&gt;Node2 -->
<g id="edge2" class="edge">
<title>Node3&#45;&gt;Node2</title>
<path fill="none" stroke="midnightblue" d="M52,-410.43C52,-370.43 52,-312.06 52,-278.01"/>
<polygon fill="none" stroke="midnightblue" points="48.5,-410.43 52,-420.43 55.5,-410.43 48.5,-410.43"/>
</g>
<!-- Node4 -->
<g id="node4" class="node">
<title>Node4</title>
<g id="a_node4"><a xlink:href="classanch_1_1sql_1_1_connection.html" target="_top" xlink:title="SQL connection virtual class.">
<polygon fill="none" stroke="black" points="102.5,-116.5 102.5,-382.5 239.5,-382.5 239.5,-116.5 102.5,-116.5"/>
<text text-anchor="middle" x="171" y="-370.5" font-family="Helvetica,sans-Serif" font-size="10.00">anch::sql::Connection</text>
<polyline fill="none" stroke="black" points="102.5,-363.5 239.5,-363.5 "/>
<text text-anchor="start" x="110.5" y="-351.5" font-family="Helvetica,sans-Serif" font-size="10.00"># _valid</text>
<text text-anchor="start" x="110.5" y="-340.5" font-family="Helvetica,sans-Serif" font-size="10.00"># _transaction</text>
<text text-anchor="start" x="110.5" y="-329.5" font-family="Helvetica,sans-Serif" font-size="10.00"># _stmts</text>
<polyline fill="none" stroke="black" points="102.5,-322.5 239.5,-322.5 "/>
<text text-anchor="start" x="110.5" y="-310.5" font-family="Helvetica,sans-Serif" font-size="10.00">+ Connection()</text>
<text text-anchor="start" x="110.5" y="-299.5" font-family="Helvetica,sans-Serif" font-size="10.00">+ Connection()</text>
<text text-anchor="start" x="110.5" y="-288.5" font-family="Helvetica,sans-Serif" font-size="10.00">+ ~Connection()</text>
<text text-anchor="start" x="110.5" y="-277.5" font-family="Helvetica,sans-Serif" font-size="10.00">+ startTransaction()</text>
<text text-anchor="start" x="110.5" y="-266.5" font-family="Helvetica,sans-Serif" font-size="10.00">+ begin()</text>
<text text-anchor="start" x="110.5" y="-255.5" font-family="Helvetica,sans-Serif" font-size="10.00">+ commit()</text>
<text text-anchor="start" x="110.5" y="-244.5" font-family="Helvetica,sans-Serif" font-size="10.00">+ rollback()</text>
<text text-anchor="start" x="110.5" y="-233.5" font-family="Helvetica,sans-Serif" font-size="10.00">+ prepareStatement()</text>
<text text-anchor="start" x="110.5" y="-222.5" font-family="Helvetica,sans-Serif" font-size="10.00">+ query()</text>
<text text-anchor="start" x="110.5" y="-211.5" font-family="Helvetica,sans-Serif" font-size="10.00">+ queryMapRow()</text>
<text text-anchor="start" x="110.5" y="-200.5" font-family="Helvetica,sans-Serif" font-size="10.00">and 8 more...</text>
<text text-anchor="start" x="110.5" y="-189.5" font-family="Helvetica,sans-Serif" font-size="10.00"># executeQuery()</text>
<text text-anchor="start" x="110.5" y="-178.5" font-family="Helvetica,sans-Serif" font-size="10.00"># executeUpdate()</text>
<text text-anchor="start" x="110.5" y="-167.5" font-family="Helvetica,sans-Serif" font-size="10.00"># sendStartTransaction()</text>
<text text-anchor="start" x="110.5" y="-156.5" font-family="Helvetica,sans-Serif" font-size="10.00"># sendCommit()</text>
<text text-anchor="start" x="110.5" y="-145.5" font-family="Helvetica,sans-Serif" font-size="10.00"># sendRollback()</text>
<text text-anchor="start" x="110.5" y="-134.5" font-family="Helvetica,sans-Serif" font-size="10.00"># makePrepared()</text>
<text text-anchor="start" x="110.5" y="-123.5" font-family="Helvetica,sans-Serif" font-size="10.00"># setValid()</text>
</a>
</g>
</g>
<!-- Node4&#45;&gt;Node1 -->
<g id="edge3" class="edge">
<title>Node4&#45;&gt;Node1</title>
<path fill="none" stroke="#404040" d="M151.76,-116.33C149.94,-103.77 148.18,-91.71 146.61,-80.92"/>
<polygon fill="none" stroke="#404040" points="146.59,-80.75 141.76,-75.39 144.86,-68.87 149.68,-74.23 146.59,-80.75"/>
<text text-anchor="middle" x="169.5" y="-90" font-family="Helvetica,sans-Serif" font-size="10.00"> +create</text>
</g>
</g>
</svg>
