<?xml version="1.0" encoding="UTF-8" standalone="no"?>
<!DOCTYPE svg PUBLIC "-//W3C//DTD SVG 1.1//EN"
 "http://www.w3.org/Graphics/SVG/1.1/DTD/svg11.dtd">
<!-- Generated by graphviz version 12.1.2 (0)
 -->
<!-- Title: anch::crypto::SHA2&lt; O, B, W, R, I &gt;::Context&lt; Init &gt; Pages: 1 -->
<svg width="155pt" height="324pt"
 viewBox="0.00 0.00 155.00 324.00" xmlns="http://www.w3.org/2000/svg" xmlns:xlink="http://www.w3.org/1999/xlink">
<g id="graph0" class="graph" transform="scale(1 1) rotate(0) translate(4 320)">
<title>anch::crypto::SHA2&lt; O, B, W, R, I &gt;::Context&lt; Init &gt;</title>
<!-- Node1 -->
<g id="Node000001" class="node">
<title>Node1</title>
<g id="a_Node000001"><a xlink:title=" ">
<polygon fill="#999999" stroke="none" points="136.5,-316 10.5,-316 10.5,-176 136.5,-176 136.5,-316"/>
<text text-anchor="start" x="15.38" y="-302.5" font-family="Helvetica,sans-Serif" font-size="10.00">anch::crypto::SHA2</text>
<text text-anchor="start" x="15.38" y="-290.5" font-family="Helvetica,sans-Serif" font-size="10.00">&lt; O, B, W, R, I &gt;::Context</text>
<text text-anchor="start" x="57.75" y="-278.5" font-family="Helvetica,sans-Serif" font-size="10.00">&lt; Init &gt;</text>
<text text-anchor="start" x="31.5" y="-262.5" font-family="Helvetica,sans-Serif" font-size="10.00">+</text>
<text text-anchor="start" x="58.5" y="-262.5" font-family="Helvetica,sans-Serif" font-size="10.00">state</text>
<text text-anchor="start" x="31.5" y="-246.5" font-family="Helvetica,sans-Serif" font-size="10.00">+</text>
<text text-anchor="start" x="58.5" y="-246.5" font-family="Helvetica,sans-Serif" font-size="10.00">size</text>
<text text-anchor="start" x="31.5" y="-230.5" font-family="Helvetica,sans-Serif" font-size="10.00">+</text>
<text text-anchor="start" x="58.5" y="-230.5" font-family="Helvetica,sans-Serif" font-size="10.00">buffer</text>
<text text-anchor="start" x="31.5" y="-214.5" font-family="Helvetica,sans-Serif" font-size="10.00">+</text>
<text text-anchor="start" x="58.5" y="-214.5" font-family="Helvetica,sans-Serif" font-size="10.00">digest</text>
<text text-anchor="start" x="31.5" y="-198.5" font-family="Helvetica,sans-Serif" font-size="10.00">+</text>
<text text-anchor="start" x="58.5" y="-198.5" font-family="Helvetica,sans-Serif" font-size="10.00">Context()</text>
<text text-anchor="start" x="31.5" y="-182.5" font-family="Helvetica,sans-Serif" font-size="10.00">+</text>
<text text-anchor="start" x="58.5" y="-182.5" font-family="Helvetica,sans-Serif" font-size="10.00">reset()</text>
<polygon fill="#666666" stroke="#666666" points="10.5,-274 10.5,-274 136.5,-274 136.5,-274 10.5,-274"/>
<polygon fill="#666666" stroke="#666666" points="10.5,-210 10.5,-210 56.5,-210 56.5,-210 10.5,-210"/>
<polygon fill="#666666" stroke="#666666" points="56.5,-210 56.5,-210 136.5,-210 136.5,-210 56.5,-210"/>
<polygon fill="none" stroke="#666666" points="10.5,-176 10.5,-316 136.5,-316 136.5,-176 10.5,-176"/>
</a>
</g>
</g>
<!-- Node2 -->
<g id="Node000002" class="node">
<title>Node2</title>
<g id="a_Node000002"><a xlink:href="structanch_1_1crypto_1_1_s_h_a2_1_1_context.html" target="_top" xlink:title=" ">
<polygon fill="white" stroke="none" points="147,-128 0,-128 0,0 147,0 147,-128"/>
<text text-anchor="start" x="4.88" y="-114.5" font-family="Helvetica,sans-Serif" font-size="10.00">anch::crypto::SHA2</text>
<text text-anchor="start" x="4.88" y="-102.5" font-family="Helvetica,sans-Serif" font-size="10.00">&lt; O, B, W, R, I &gt;::Context&lt; I &gt;</text>
<text text-anchor="start" x="26" y="-86.5" font-family="Helvetica,sans-Serif" font-size="10.00">+</text>
<text text-anchor="start" x="58" y="-86.5" font-family="Helvetica,sans-Serif" font-size="10.00">state</text>
<text text-anchor="start" x="26" y="-70.5" font-family="Helvetica,sans-Serif" font-size="10.00">+</text>
<text text-anchor="start" x="58" y="-70.5" font-family="Helvetica,sans-Serif" font-size="10.00">size</text>
<text text-anchor="start" x="26" y="-54.5" font-family="Helvetica,sans-Serif" font-size="10.00">+</text>
<text text-anchor="start" x="58" y="-54.5" font-family="Helvetica,sans-Serif" font-size="10.00">buffer</text>
<text text-anchor="start" x="26" y="-38.5" font-family="Helvetica,sans-Serif" font-size="10.00">+</text>
<text text-anchor="start" x="58" y="-38.5" font-family="Helvetica,sans-Serif" font-size="10.00">digest</text>
<text text-anchor="start" x="26" y="-22.5" font-family="Helvetica,sans-Serif" font-size="10.00">+</text>
<text text-anchor="start" x="58" y="-22.5" font-family="Helvetica,sans-Serif" font-size="10.00">Context()</text>
<text text-anchor="start" x="26" y="-6.5" font-family="Helvetica,sans-Serif" font-size="10.00">+</text>
<text text-anchor="start" x="58" y="-6.5" font-family="Helvetica,sans-Serif" font-size="10.00">reset()</text>
<polygon fill="#666666" stroke="#666666" points="0,-98 0,-98 147,-98 147,-98 0,-98"/>
<polygon fill="#666666" stroke="#666666" points="0,-34 0,-34 56,-34 56,-34 0,-34"/>
<polygon fill="#666666" stroke="#666666" points="56,-34 56,-34 147,-34 147,-34 56,-34"/>
<polygon fill="none" stroke="#666666" points="0,0 0,-128 147,-128 147,0 0,0"/>
</a>
</g>
</g>
<!-- Node1&#45;&gt;Node2 -->
<g id="edge1_Node000001_Node000002" class="edge">
<title>Node1&#45;&gt;Node2</title>
<g id="a_edge1_Node000001_Node000002"><a xlink:title=" ">
<path fill="none" stroke="orange" d="M73.5,-164.89C73.5,-152.48 73.5,-139.83 73.5,-127.88"/>
<polygon fill="orange" stroke="orange" points="70,-164.67 73.5,-174.67 77,-164.67 70,-164.67"/>
</a>
</g>
<text text-anchor="middle" x="85.5" y="-148.5" font-family="Helvetica,sans-Serif" font-size="10.00" fill="grey"> &lt; I &gt;</text>
</g>
</g>
</svg>
