<?xml version="1.0" encoding="UTF-8" standalone="no"?>
<!DOCTYPE svg PUBLIC "-//W3C//DTD SVG 1.1//EN"
 "http://www.w3.org/Graphics/SVG/1.1/DTD/svg11.dtd">
<!-- Generated by graphviz version 7.1.0 (0)
 -->
<!-- Title: anch::rest::MediaType Pages: 1 -->
<svg width="257pt" height="475pt"
 viewBox="0.00 0.00 256.50 475.00" xmlns="http://www.w3.org/2000/svg" xmlns:xlink="http://www.w3.org/1999/xlink">
<g id="graph0" class="graph" transform="scale(1 1) rotate(0) translate(4 471)">
<title>anch::rest::MediaType</title>
<!-- Node1 -->
<g id="node1" class="node">
<title>Node1</title>
<g id="a_node1"><a xlink:title="Media type.">
<polygon fill="#999999" stroke="#666666" points="0,-0.5 0,-145.5 201,-145.5 201,-0.5 0,-0.5"/>
<text text-anchor="middle" x="100.5" y="-133.5" font-family="Helvetica,sans-Serif" font-size="10.00">anch::rest::MediaType</text>
<polyline fill="none" stroke="#666666" points="0,-126.5 201,-126.5"/>
<text text-anchor="start" x="8" y="-114.5" font-family="Helvetica,sans-Serif" font-size="10.00">+ NONE</text>
<text text-anchor="start" x="8" y="-103.5" font-family="Helvetica,sans-Serif" font-size="10.00">+ APP_X_PROTOBUF</text>
<text text-anchor="start" x="8" y="-92.5" font-family="Helvetica,sans-Serif" font-size="10.00">+ APP_X_WWW_FORM_URLENCODED</text>
<text text-anchor="start" x="8" y="-81.5" font-family="Helvetica,sans-Serif" font-size="10.00">+ MULTIPART_FORM_DATA</text>
<text text-anchor="start" x="8" y="-70.5" font-family="Helvetica,sans-Serif" font-size="10.00">+ TXT_CSS</text>
<text text-anchor="start" x="8" y="-59.5" font-family="Helvetica,sans-Serif" font-size="10.00">+ TXT_CSV</text>
<text text-anchor="start" x="8" y="-48.5" font-family="Helvetica,sans-Serif" font-size="10.00">+ TXT_HTML</text>
<text text-anchor="start" x="8" y="-37.5" font-family="Helvetica,sans-Serif" font-size="10.00">+ TXT_PLAIN</text>
<text text-anchor="start" x="8" y="-26.5" font-family="Helvetica,sans-Serif" font-size="10.00">+ TXT_XML</text>
<polyline fill="none" stroke="#666666" points="0,-19.5 201,-19.5"/>
<text text-anchor="middle" x="100.5" y="-7.5" font-family="Helvetica,sans-Serif" font-size="10.00"> </text>
</a>
</g>
</g>
<!-- Node2 -->
<g id="node2" class="node">
<title>Node2</title>
<g id="a_node2"><a xlink:title=" ">
<polygon fill="white" stroke="#666666" points="68,-303.5 68,-360.5 133,-360.5 133,-303.5 68,-303.5"/>
<text text-anchor="middle" x="100.5" y="-348.5" font-family="Helvetica,sans-Serif" font-size="10.00">std::string</text>
<polyline fill="none" stroke="#666666" points="68,-341.5 133,-341.5"/>
<text text-anchor="middle" x="100.5" y="-329.5" font-family="Helvetica,sans-Serif" font-size="10.00"> </text>
<polyline fill="none" stroke="#666666" points="68,-322.5 133,-322.5"/>
<text text-anchor="middle" x="100.5" y="-310.5" font-family="Helvetica,sans-Serif" font-size="10.00"> </text>
</a>
</g>
</g>
<!-- Node2&#45;&gt;Node1 -->
<g id="edge1" class="edge">
<title>Node2&#45;&gt;Node1</title>
<path fill="none" stroke="#404040" d="M100.5,-303.98C100.5,-269.66 100.5,-208.82 100.5,-158.34"/>
<polygon fill="none" stroke="#404040" points="100.5,-158.31 96.5,-152.31 100.5,-146.31 104.5,-152.31 100.5,-158.31"/>
<text text-anchor="middle" x="174.5" y="-277" font-family="Helvetica,sans-Serif" font-size="10.00"> +ALL</text>
<text text-anchor="middle" x="174.5" y="-266" font-family="Helvetica,sans-Serif" font-size="10.00">+APP_GRAPHQL</text>
<text text-anchor="middle" x="174.5" y="-255" font-family="Helvetica,sans-Serif" font-size="10.00">+APP_JAVASCRIPT</text>
<text text-anchor="middle" x="174.5" y="-244" font-family="Helvetica,sans-Serif" font-size="10.00">+APP_JSON</text>
<text text-anchor="middle" x="174.5" y="-233" font-family="Helvetica,sans-Serif" font-size="10.00">+APP_OCTET_STREAM</text>
<text text-anchor="middle" x="174.5" y="-222" font-family="Helvetica,sans-Serif" font-size="10.00">+APP_VND_PROTOBUF</text>
<text text-anchor="middle" x="174.5" y="-211" font-family="Helvetica,sans-Serif" font-size="10.00">+APP_VND_THRIFT_BINARY</text>
<text text-anchor="middle" x="174.5" y="-200" font-family="Helvetica,sans-Serif" font-size="10.00">+APP_VND_THRIFT_COMPACT</text>
<text text-anchor="middle" x="174.5" y="-189" font-family="Helvetica,sans-Serif" font-size="10.00">+APP_VND_THRIFT_JSON</text>
<text text-anchor="middle" x="174.5" y="-178" font-family="Helvetica,sans-Serif" font-size="10.00">+APP_XML</text>
<text text-anchor="middle" x="174.5" y="-167" font-family="Helvetica,sans-Serif" font-size="10.00">...</text>
</g>
<!-- Node3 -->
<g id="node3" class="node">
<title>Node3</title>
<g id="a_node3"><a xlink:title=" ">
<polygon fill="white" stroke="#666666" points="48.5,-398.5 48.5,-466.5 152.5,-466.5 152.5,-398.5 48.5,-398.5"/>
<text text-anchor="start" x="56.5" y="-454.5" font-family="Helvetica,sans-Serif" font-size="10.00">std::basic_string&lt;</text>
<text text-anchor="middle" x="100.5" y="-443.5" font-family="Helvetica,sans-Serif" font-size="10.00"> Char &gt;</text>
<polyline fill="none" stroke="#666666" points="48.5,-436.5 152.5,-436.5"/>
<text text-anchor="middle" x="100.5" y="-424.5" font-family="Helvetica,sans-Serif" font-size="10.00"> </text>
<polyline fill="none" stroke="#666666" points="48.5,-417.5 152.5,-417.5"/>
<text text-anchor="middle" x="100.5" y="-405.5" font-family="Helvetica,sans-Serif" font-size="10.00"> </text>
</a>
</g>
</g>
<!-- Node3&#45;&gt;Node2 -->
<g id="edge2" class="edge">
<title>Node3&#45;&gt;Node2</title>
<path fill="none" stroke="#63b8ff" d="M100.5,-387.32C100.5,-378.15 100.5,-368.75 100.5,-360.4"/>
<polygon fill="none" stroke="#63b8ff" points="97,-387.19 100.5,-397.19 104,-387.19 97,-387.19"/>
</g>
</g>
</svg>
