<?xml version="1.0" encoding="UTF-8" standalone="no"?>
<!DOCTYPE svg PUBLIC "-//W3C//DTD SVG 1.1//EN"
 "http://www.w3.org/Graphics/SVG/1.1/DTD/svg11.dtd">
<!-- Generated by graphviz version 12.1.2 (0)
 -->
<!-- Title: anch::rest::ProxyConfig Pages: 1 -->
<svg width="130pt" height="279pt"
 viewBox="0.00 0.00 130.00 278.75" xmlns="http://www.w3.org/2000/svg" xmlns:xlink="http://www.w3.org/1999/xlink">

<svg id="main" version="1.1" xmlns="http://www.w3.org/2000/svg" xmlns:xlink="http://www.w3.org/1999/xlink" xml:space="preserve">

<style type="text/css"><![CDATA[
.node, .edge {opacity: 0.7;}
.node.selected, .edge.selected {opacity: 1;}
.edge:hover path { stroke: red; }
.edge:hover polygon { stroke: red; fill: red; }
]]></style>
<script type="application/ecmascript" xlink:href="svg.min.js"/>
<svg id="graph" class="graph">
<g id="graph0" class="graph" transform="scale(1 1) rotate(0) translate(4 274.75)">
<title>anch::rest::ProxyConfig</title>
<!-- Node1 -->
<g id="Node000001" class="node">
<title>Node1</title>
<g id="a_Node000001"><a xlink:title=" ">
<polygon fill="#999999" stroke="none" points="122,-68 0,-68 0,0 122,0 122,-68"/>
<text text-anchor="start" x="4.75" y="-54.5" font-family="Helvetica,sans-Serif" font-size="10.00">anch::rest::ProxyConfig</text>
<text text-anchor="start" x="23.88" y="-38.5" font-family="Helvetica,sans-Serif" font-size="10.00">+</text>
<text text-anchor="start" x="56" y="-38.5" font-family="Helvetica,sans-Serif" font-size="10.00">port</text>
<text text-anchor="start" x="23.88" y="-22.5" font-family="Helvetica,sans-Serif" font-size="10.00">+</text>
<text text-anchor="start" x="56" y="-22.5" font-family="Helvetica,sans-Serif" font-size="10.00">auth</text>
<text text-anchor="start" x="59.5" y="-6.5" font-family="Helvetica,sans-Serif" font-size="10.00"> </text>
<polygon fill="#666666" stroke="#666666" points="0,-50 0,-50 122,-50 122,-50 0,-50"/>
<polygon fill="#666666" stroke="#666666" points="0,-18 0,-18 54,-18 54,-18 0,-18"/>
<polygon fill="#666666" stroke="#666666" points="54,-18 54,-18 122,-18 122,-18 54,-18"/>
<polygon fill="none" stroke="#666666" points="0,0 0,-68 122,-68 122,0 0,0"/>
</a>
</g>
</g>
<!-- Node2 -->
<g id="Node000002" class="node">
<title>Node2</title>
<g id="a_Node000002"><a xlink:title=" ">
<polygon fill="white" stroke="none" points="90,-168.75 32,-168.75 32,-116.75 90,-116.75 90,-168.75"/>
<text text-anchor="start" x="36.62" y="-155.25" font-family="Helvetica,sans-Serif" font-size="10.00">std::string</text>
<text text-anchor="start" x="59.5" y="-139.25" font-family="Helvetica,sans-Serif" font-size="10.00"> </text>
<text text-anchor="start" x="59.5" y="-123.25" font-family="Helvetica,sans-Serif" font-size="10.00"> </text>
<polygon fill="#666666" stroke="#666666" points="32,-150.75 32,-150.75 90,-150.75 90,-150.75 32,-150.75"/>
<polygon fill="#666666" stroke="#666666" points="32,-134.75 32,-134.75 90,-134.75 90,-134.75 32,-134.75"/>
<polygon fill="none" stroke="#666666" points="32,-116.75 32,-168.75 90,-168.75 90,-116.75 32,-116.75"/>
</a>
</g>
</g>
<!-- Node2&#45;&gt;Node1 -->
<g id="edge1_Node000001_Node000002" class="edge">
<title>Node2&#45;&gt;Node1</title>
<g id="a_edge1_Node000001_Node000002"><a xlink:title=" ">
<path fill="none" stroke="#63b8ff" d="M61,-116.99C61,-106.11 61,-92.98 61,-80.44"/>
<polygon fill="none" stroke="#63b8ff" points="61,-80.62 57,-74.62 61,-68.62 65,-74.62 61,-80.62"/>
</a>
</g>
<text text-anchor="middle" x="77.12" y="-89.25" font-family="Helvetica,sans-Serif" font-size="10.00" fill="grey"> +host</text>
</g>
<!-- Node3 -->
<g id="Node000003" class="node">
<title>Node3</title>
<g id="a_Node000003"><a xlink:title=" ">
<polygon fill="white" stroke="none" points="109.5,-270.75 12.5,-270.75 12.5,-205.75 109.5,-205.75 109.5,-270.75"/>
<text text-anchor="start" x="17.12" y="-257.25" font-family="Helvetica,sans-Serif" font-size="10.00">std::basic_string&lt;</text>
<text text-anchor="start" x="42.62" y="-244.5" font-family="Helvetica,sans-Serif" font-size="10.00"> Char &gt;</text>
<text text-anchor="start" x="59.5" y="-228.25" font-family="Helvetica,sans-Serif" font-size="10.00"> </text>
<text text-anchor="start" x="59.5" y="-212.25" font-family="Helvetica,sans-Serif" font-size="10.00"> </text>
<polygon fill="#666666" stroke="#666666" points="12.5,-239.75 12.5,-239.75 109.5,-239.75 109.5,-239.75 12.5,-239.75"/>
<polygon fill="#666666" stroke="#666666" points="12.5,-223.75 12.5,-223.75 109.5,-223.75 109.5,-223.75 12.5,-223.75"/>
<polygon fill="none" stroke="#666666" points="12.5,-205.75 12.5,-270.75 109.5,-270.75 109.5,-205.75 12.5,-205.75"/>
</a>
</g>
</g>
<!-- Node3&#45;&gt;Node2 -->
<g id="edge2_Node000002_Node000003" class="edge">
<title>Node3&#45;&gt;Node2</title>
<g id="a_edge2_Node000002_Node000003"><a xlink:title=" ">
<path fill="none" stroke="#63b8ff" d="M61,-194.48C61,-185.66 61,-176.64 61,-168.71"/>
<polygon fill="none" stroke="#63b8ff" points="57.5,-194.34 61,-204.34 64.5,-194.34 57.5,-194.34"/>
</a>
</g>
</g>
</g>
</svg>
</svg>

<style type='text/css'>
<![CDATA[
[data-mouse-over-selected='false'] { opacity: 0.7; }
[data-mouse-over-selected='true']  { opacity: 1.0; }
]]>
</style>
<script type="application/ecmascript"><![CDATA[
document.addEventListener('DOMContentLoaded', (event) => {
  highlightEdges();
  highlightAdjacentNodes();
});
]]></script>
</svg>
