<?xml version="1.0" encoding="UTF-8" standalone="no"?>
<!DOCTYPE svg PUBLIC "-//W3C//DTD SVG 1.1//EN"
 "http://www.w3.org/Graphics/SVG/1.1/DTD/svg11.dtd">
<!-- Generated by graphviz version 13.1.2 (0)
 -->
<!-- Title: FormatterOptions Pages: 1 -->
<!--zoomable 580 -->

<svg id="main" version="1.1" xmlns="http://www.w3.org/2000/svg" xmlns:xlink="http://www.w3.org/1999/xlink" xml:space="preserve" onload="init(evt)">

<style type="text/css"><![CDATA[
.node, .edge {opacity: 0.7;}
.node.selected, .edge.selected {opacity: 1;}
.edge:hover path { stroke: red; }
.edge:hover polygon { stroke: red; fill: red; }
]]></style>

<defs>
  <circle id="rim" cx="0" cy="0" r="7"/>
  <circle id="rim2" cx="0" cy="0" r="3.5"/>
  <g id="zoomPlus">
    <use xlink:href="#rim" fill="#404040"><set attributeName="fill" to="#808080" begin="zoomplus.mouseover" end="zoomplus.mouseout"/></use>
    <path d="M-4,0h8M0,-4v8" fill="none" stroke="white" stroke-width="1.5" pointer-events="none"/>
  </g>
  <g id="zoomMin">
    <use xlink:href="#rim" fill="#404040"><set attributeName="fill" to="#808080" begin="zoomminus.mouseover" end="zoomminus.mouseout"/></use>
    <path d="M-4,0h8" fill="none" stroke="white" stroke-width="1.5" pointer-events="none"/>
  </g>
  <g id="arrowUp" transform="translate(30 24)">
    <use xlink:href="#rim"/>
    <path pointer-events="none" fill="none" stroke="white" stroke-width="1.5" d="M0,-3.0v7 M-2.5,-0.5L0,-3.0L2.5,-0.5"/>
  </g>
  <g id="arrowRight" transform="rotate(90) translate(36 -43)">
    <use xlink:href="#rim"/>
    <path pointer-events="none" fill="none" stroke="white" stroke-width="1.5" d="M0,-3.0v7 M-2.5,-0.5L0,-3.0L2.5,-0.5"/>
  </g>
  <g id="arrowDown" transform="rotate(180) translate(-30 -48)">
    <use xlink:href="#rim"/>
    <path pointer-events="none" fill="none" stroke="white" stroke-width="1.5" d="M0,-3.0v7 M-2.5,-0.5L0,-3.0L2.5,-0.5"/>
  </g>
  <g id="arrowLeft" transform="rotate(270) translate(-36 17)">
    <use xlink:href="#rim"/>
    <path pointer-events="none" fill="none" stroke="white" stroke-width="1.5" d="M0,-3.0v7 M-2.5,-0.5L0,-3.0L2.5,-0.5"/>
  </g>
  <g id="resetDef">
    <use xlink:href="#rim2" fill="#404040"><set attributeName="fill" to="#808080" begin="reset.mouseover" end="reset.mouseout"/></use>
  </g>
</defs>
<script type="application/ecmascript">
var viewWidth = 287;
var viewHeight = 580;
var sectionId = 'dynsection-0';
</script>
<script type="application/ecmascript" xlink:href="svg.min.js"/>
<svg id="graph" class="graph">
<g id="viewport">
<title>FormatterOptions</title>
<!-- Node1 -->
<g id="Node000001" class="node">
<title>Node1</title>
<g id="a_Node000001"><a xlink:title=" ">
<polygon fill="#999999" stroke="none" points="146.75,-52 63,-52 63,0 146.75,0 146.75,-52"/>
<text xml:space="preserve" text-anchor="start" x="67" y="-38.5" font-family="Helvetica,sans-Serif" font-size="10.00">FormatterOptions</text>
<text xml:space="preserve" text-anchor="start" x="103.38" y="-22.5" font-family="Helvetica,sans-Serif" font-size="10.00"> </text>
<text xml:space="preserve" text-anchor="start" x="103.38" y="-6.5" font-family="Helvetica,sans-Serif" font-size="10.00"> </text>
<polygon fill="#666666" stroke="#666666" points="63,-34 63,-34 146.75,-34 146.75,-34 63,-34"/>
<polygon fill="#666666" stroke="#666666" points="63,-18 63,-18 146.75,-18 146.75,-18 63,-18"/>
<polygon fill="none" stroke="#666666" points="63,0 63,-52 146.75,-52 146.75,0 63,0"/>
</a>
</g>
</g>
<!-- Node2 -->
<g id="Node000002" class="node">
<title>Node2</title>
<g id="a_Node000002"><a xlink:title=" ">
<polygon fill="white" stroke="none" points="95.75,-170 0,-170 0,-106 95.75,-106 95.75,-170"/>
<text xml:space="preserve" text-anchor="start" x="4" y="-156.5" font-family="Helvetica,sans-Serif" font-size="10.00">std::shared_ptr&lt; std</text>
<text xml:space="preserve" text-anchor="start" x="24.25" y="-144.5" font-family="Helvetica,sans-Serif" font-size="10.00">::istream &gt;</text>
<text xml:space="preserve" text-anchor="start" x="46.38" y="-128.5" font-family="Helvetica,sans-Serif" font-size="10.00"> </text>
<text xml:space="preserve" text-anchor="start" x="10.88" y="-112.5" font-family="Helvetica,sans-Serif" font-size="10.00">+</text>
<text xml:space="preserve" text-anchor="start" x="27.75" y="-112.5" font-family="Helvetica,sans-Serif" font-size="10.00">operator&#45;&gt;()</text>
<polygon fill="#666666" stroke="#666666" points="0,-140 0,-140 95.75,-140 95.75,-140 0,-140"/>
<polygon fill="#666666" stroke="#666666" points="0,-124 0,-124 95.75,-124 95.75,-124 0,-124"/>
<polygon fill="none" stroke="#666666" points="0,-106 0,-170 95.75,-170 95.75,-106 0,-106"/>
</a>
</g>
</g>
<!-- Node2&#45;&gt;Node1 -->
<g id="edge1_Node000001_Node000002" class="edge">
<title>Node2&#45;&gt;Node1</title>
<g id="a_edge1_Node000001_Node000002"><a xlink:title=" ">
<path fill="none" stroke="#63b8ff" d="M63.9,-106.07C70.78,-92.8 78.86,-77.2 86.02,-63.38"/>
<polygon fill="none" stroke="#63b8ff" points="86.09,-63.25 85.3,-56.08 91.61,-52.59 92.4,-59.76 86.09,-63.25"/>
</a>
</g>
<text xml:space="preserve" text-anchor="start" x="84.48" y="-75.5" font-family="Helvetica,sans-Serif" font-size="10.00" fill="grey">+input</text>
</g>
<!-- Node3 -->
<g id="Node000003" class="node">
<title>Node3</title>
<g id="a_Node000003"><a xlink:title=" ">
<polygon fill="white" stroke="none" points="63.75,-276 4,-276 4,-224 63.75,-224 63.75,-276"/>
<text xml:space="preserve" text-anchor="start" x="8" y="-262.5" font-family="Helvetica,sans-Serif" font-size="10.00">std::istream</text>
<text xml:space="preserve" text-anchor="start" x="32.38" y="-246.5" font-family="Helvetica,sans-Serif" font-size="10.00"> </text>
<text xml:space="preserve" text-anchor="start" x="32.38" y="-230.5" font-family="Helvetica,sans-Serif" font-size="10.00"> </text>
<polygon fill="#666666" stroke="#666666" points="4,-258 4,-258 63.75,-258 63.75,-258 4,-258"/>
<polygon fill="#666666" stroke="#666666" points="4,-242 4,-242 63.75,-242 63.75,-242 4,-242"/>
<polygon fill="none" stroke="#666666" points="4,-224 4,-276 63.75,-276 63.75,-224 4,-224"/>
</a>
</g>
</g>
<!-- Node3&#45;&gt;Node2 -->
<g id="edge2_Node000002_Node000003" class="edge">
<title>Node3&#45;&gt;Node2</title>
<g id="a_edge2_Node000002_Node000003"><a xlink:title=" ">
<path fill="none" stroke="#63b8ff" d="M16.23,-224.23C10.52,-213.21 6.57,-200.03 10.62,-188 11.42,-185.65 12.37,-183.31 13.46,-181.02"/>
<polygon fill="none" stroke="#63b8ff" points="13.38,-181.16 12.87,-173.97 19.32,-170.74 19.82,-177.93 13.38,-181.16"/>
</a>
</g>
<text xml:space="preserve" text-anchor="start" x="13.62" y="-193.5" font-family="Helvetica,sans-Serif" font-size="10.00" fill="grey">+ptr</text>
</g>
<!-- Node4 -->
<g id="Node000004" class="node">
<title>Node4</title>
<g id="a_Node000004"><a xlink:title=" ">
<polygon fill="white" stroke="none" points="104,-394 15.75,-394 15.75,-330 104,-330 104,-394"/>
<text xml:space="preserve" text-anchor="start" x="19.75" y="-380.5" font-family="Helvetica,sans-Serif" font-size="10.00">std::basic_istream</text>
<text xml:space="preserve" text-anchor="start" x="40.38" y="-368.5" font-family="Helvetica,sans-Serif" font-size="10.00">&lt; Char &gt;</text>
<text xml:space="preserve" text-anchor="start" x="58.38" y="-352.5" font-family="Helvetica,sans-Serif" font-size="10.00"> </text>
<text xml:space="preserve" text-anchor="start" x="58.38" y="-336.5" font-family="Helvetica,sans-Serif" font-size="10.00"> </text>
<polygon fill="#666666" stroke="#666666" points="15.75,-364 15.75,-364 104,-364 104,-364 15.75,-364"/>
<polygon fill="#666666" stroke="#666666" points="15.75,-348 15.75,-348 104,-348 104,-348 15.75,-348"/>
<polygon fill="none" stroke="#666666" points="15.75,-330 15.75,-394 104,-394 104,-330 15.75,-330"/>
</a>
</g>
</g>
<!-- Node4&#45;&gt;Node3 -->
<g id="edge3_Node000003_Node000004" class="edge">
<title>Node4&#45;&gt;Node3</title>
<g id="a_edge3_Node000003_Node000004"><a xlink:title=" ">
<path fill="none" stroke="#63b8ff" d="M50,-319.2C46.54,-304.56 42.76,-288.6 39.74,-275.79"/>
<polygon fill="none" stroke="#63b8ff" points="46.51,-319.67 52.22,-328.59 53.32,-318.06 46.51,-319.67"/>
</a>
</g>
</g>
<!-- Node5 -->
<g id="Node000005" class="node">
<title>Node5</title>
<g id="a_Node000005"><a xlink:title=" ">
<polygon fill="white" stroke="none" points="182.75,-483 75,-483 75,-431 182.75,-431 182.75,-483"/>
<text xml:space="preserve" text-anchor="start" x="79" y="-469.5" font-family="Helvetica,sans-Serif" font-size="10.00">std::basic_ios&lt; Char &gt;</text>
<text xml:space="preserve" text-anchor="start" x="127.38" y="-453.5" font-family="Helvetica,sans-Serif" font-size="10.00"> </text>
<text xml:space="preserve" text-anchor="start" x="127.38" y="-437.5" font-family="Helvetica,sans-Serif" font-size="10.00"> </text>
<polygon fill="#666666" stroke="#666666" points="75,-465 75,-465 182.75,-465 182.75,-465 75,-465"/>
<polygon fill="#666666" stroke="#666666" points="75,-449 75,-449 182.75,-449 182.75,-449 75,-449"/>
<polygon fill="none" stroke="#666666" points="75,-431 75,-483 182.75,-483 182.75,-431 75,-431"/>
</a>
</g>
</g>
<!-- Node5&#45;&gt;Node4 -->
<g id="edge4_Node000004_Node000005" class="edge">
<title>Node5&#45;&gt;Node4</title>
<g id="a_edge4_Node000004_Node000005"><a xlink:title=" ">
<path fill="none" stroke="#63b8ff" d="M103.56,-421.88C96.78,-412.75 89.5,-402.93 82.86,-393.98"/>
<polygon fill="none" stroke="#63b8ff" points="100.71,-423.92 109.48,-429.86 106.33,-419.75 100.71,-423.92"/>
</a>
</g>
</g>
<!-- Node11 -->
<g id="Node000011" class="node">
<title>Node11</title>
<g id="a_Node000011"><a xlink:title=" ">
<polygon fill="white" stroke="none" points="275.5,-394 184.25,-394 184.25,-330 275.5,-330 275.5,-394"/>
<text xml:space="preserve" text-anchor="start" x="188.25" y="-380.5" font-family="Helvetica,sans-Serif" font-size="10.00">std::basic_ostream</text>
<text xml:space="preserve" text-anchor="start" x="210.38" y="-368.5" font-family="Helvetica,sans-Serif" font-size="10.00">&lt; Char &gt;</text>
<text xml:space="preserve" text-anchor="start" x="228.38" y="-352.5" font-family="Helvetica,sans-Serif" font-size="10.00"> </text>
<text xml:space="preserve" text-anchor="start" x="228.38" y="-336.5" font-family="Helvetica,sans-Serif" font-size="10.00"> </text>
<polygon fill="#666666" stroke="#666666" points="184.25,-364 184.25,-364 275.5,-364 275.5,-364 184.25,-364"/>
<polygon fill="#666666" stroke="#666666" points="184.25,-348 184.25,-348 275.5,-348 275.5,-348 184.25,-348"/>
<polygon fill="none" stroke="#666666" points="184.25,-330 184.25,-394 275.5,-394 275.5,-330 184.25,-330"/>
</a>
</g>
</g>
<!-- Node5&#45;&gt;Node11 -->
<g id="edge11_Node000011_Node000005" class="edge">
<title>Node5&#45;&gt;Node11</title>
<g id="a_edge11_Node000011_Node000005"><a xlink:title=" ">
<path fill="none" stroke="#63b8ff" d="M164.37,-423.31C174.72,-413.78 186,-403.4 196.23,-393.98"/>
<polygon fill="none" stroke="#63b8ff" points="162.04,-420.7 157.05,-430.05 166.78,-425.85 162.04,-420.7"/>
</a>
</g>
</g>
<!-- Node6 -->
<g id="Node000006" class="node">
<title>Node6</title>
<g id="a_Node000006"><a xlink:title=" ">
<polygon fill="white" stroke="none" points="162.12,-572 95.62,-572 95.62,-520 162.12,-520 162.12,-572"/>
<text xml:space="preserve" text-anchor="start" x="99.62" y="-558.5" font-family="Helvetica,sans-Serif" font-size="10.00">std::ios_base</text>
<text xml:space="preserve" text-anchor="start" x="127.38" y="-542.5" font-family="Helvetica,sans-Serif" font-size="10.00"> </text>
<text xml:space="preserve" text-anchor="start" x="127.38" y="-526.5" font-family="Helvetica,sans-Serif" font-size="10.00"> </text>
<polygon fill="#666666" stroke="#666666" points="95.62,-554 95.62,-554 162.12,-554 162.12,-554 95.62,-554"/>
<polygon fill="#666666" stroke="#666666" points="95.62,-538 95.62,-538 162.12,-538 162.12,-538 95.62,-538"/>
<polygon fill="none" stroke="#666666" points="95.62,-520 95.62,-572 162.12,-572 162.12,-520 95.62,-520"/>
</a>
</g>
</g>
<!-- Node6&#45;&gt;Node5 -->
<g id="edge5_Node000005_Node000006" class="edge">
<title>Node6&#45;&gt;Node5</title>
<g id="a_edge5_Node000005_Node000006"><a xlink:title=" ">
<path fill="none" stroke="#63b8ff" d="M128.88,-509.05C128.88,-500.21 128.88,-490.94 128.88,-482.76"/>
<polygon fill="none" stroke="#63b8ff" points="125.38,-508.79 128.88,-518.79 132.38,-508.79 125.38,-508.79"/>
</a>
</g>
</g>
<!-- Node7 -->
<g id="Node000007" class="node">
<title>Node7</title>
<g id="a_Node000007"><a xlink:title=" ">
<polygon fill="white" stroke="none" points="190.12,-276 93.62,-276 93.62,-224 190.12,-224 190.12,-276"/>
<text xml:space="preserve" text-anchor="start" x="97.62" y="-262.5" font-family="Helvetica,sans-Serif" font-size="10.00">std::shared_ptr&lt; T &gt;</text>
<text xml:space="preserve" text-anchor="start" x="140.38" y="-246.5" font-family="Helvetica,sans-Serif" font-size="10.00"> </text>
<text xml:space="preserve" text-anchor="start" x="104.69" y="-230.5" font-family="Helvetica,sans-Serif" font-size="10.00">+</text>
<text xml:space="preserve" text-anchor="start" x="121.75" y="-230.5" font-family="Helvetica,sans-Serif" font-size="10.00">operator&#45;&gt;()</text>
<polygon fill="#666666" stroke="#666666" points="93.62,-258 93.62,-258 190.12,-258 190.12,-258 93.62,-258"/>
<polygon fill="#666666" stroke="#666666" points="93.62,-242 93.62,-242 190.12,-242 190.12,-242 93.62,-242"/>
<polygon fill="none" stroke="#666666" points="93.62,-224 93.62,-276 190.12,-276 190.12,-224 93.62,-224"/>
</a>
</g>
</g>
<!-- Node7&#45;&gt;Node2 -->
<g id="edge6_Node000002_Node000007" class="edge">
<title>Node7&#45;&gt;Node2</title>
<g id="a_edge6_Node000002_Node000007"><a xlink:title=" ">
<path fill="none" stroke="orange" d="M84.5,-220.05C79.19,-215.83 74.26,-211.15 70.12,-206 61.85,-195.67 56.59,-182.13 53.28,-169.93"/>
<polygon fill="orange" stroke="orange" points="82.34,-222.8 92.5,-225.81 86.43,-217.12 82.34,-222.8"/>
</a>
</g>
<text xml:space="preserve" text-anchor="start" x="73.12" y="-193.5" font-family="Helvetica,sans-Serif" font-size="10.00" fill="grey">&lt; std::istream &gt;</text>
</g>
<!-- Node9 -->
<g id="Node000009" class="node">
<title>Node9</title>
<g id="a_Node000009"><a xlink:title=" ">
<polygon fill="white" stroke="none" points="209.75,-170 114,-170 114,-106 209.75,-106 209.75,-170"/>
<text xml:space="preserve" text-anchor="start" x="118" y="-156.5" font-family="Helvetica,sans-Serif" font-size="10.00">std::shared_ptr&lt; std</text>
<text xml:space="preserve" text-anchor="start" x="136.75" y="-144.5" font-family="Helvetica,sans-Serif" font-size="10.00">::ostream &gt;</text>
<text xml:space="preserve" text-anchor="start" x="160.38" y="-128.5" font-family="Helvetica,sans-Serif" font-size="10.00"> </text>
<text xml:space="preserve" text-anchor="start" x="124.88" y="-112.5" font-family="Helvetica,sans-Serif" font-size="10.00">+</text>
<text xml:space="preserve" text-anchor="start" x="141.75" y="-112.5" font-family="Helvetica,sans-Serif" font-size="10.00">operator&#45;&gt;()</text>
<polygon fill="#666666" stroke="#666666" points="114,-140 114,-140 209.75,-140 209.75,-140 114,-140"/>
<polygon fill="#666666" stroke="#666666" points="114,-124 114,-124 209.75,-124 209.75,-124 114,-124"/>
<polygon fill="none" stroke="#666666" points="114,-106 114,-170 209.75,-170 209.75,-106 114,-106"/>
</a>
</g>
</g>
<!-- Node7&#45;&gt;Node9 -->
<g id="edge12_Node000009_Node000007" class="edge">
<title>Node7&#45;&gt;Node9</title>
<g id="a_edge12_Node000009_Node000007"><a xlink:title=" ">
<path fill="none" stroke="orange" d="M148.45,-212.86C150.98,-198.92 153.85,-183.14 156.28,-169.75"/>
<polygon fill="orange" stroke="orange" points="145.03,-212.09 146.68,-222.55 151.92,-213.34 145.03,-212.09"/>
</a>
</g>
<text xml:space="preserve" text-anchor="start" x="155.47" y="-193.5" font-family="Helvetica,sans-Serif" font-size="10.00" fill="grey">&lt; std::ostream &gt;</text>
</g>
<!-- Node8 -->
<g id="Node000008" class="node">
<title>Node8</title>
<g id="a_Node000008"><a xlink:title=" ">
<polygon fill="white" stroke="none" points="148.88,-388 134.88,-388 134.88,-336 148.88,-336 148.88,-388"/>
<text xml:space="preserve" text-anchor="start" x="138.88" y="-374.5" font-family="Helvetica,sans-Serif" font-size="10.00">T</text>
<text xml:space="preserve" text-anchor="start" x="140.38" y="-358.5" font-family="Helvetica,sans-Serif" font-size="10.00"> </text>
<text xml:space="preserve" text-anchor="start" x="140.38" y="-342.5" font-family="Helvetica,sans-Serif" font-size="10.00"> </text>
<polygon fill="#bfbfbf" stroke="#bfbfbf" points="134.88,-370 134.88,-370 148.88,-370 148.88,-370 134.88,-370"/>
<polygon fill="#bfbfbf" stroke="#bfbfbf" points="134.88,-354 134.88,-354 148.88,-354 148.88,-354 134.88,-354"/>
<polygon fill="none" stroke="#bfbfbf" points="134.88,-336 134.88,-388 148.88,-388 148.88,-336 134.88,-336"/>
</a>
</g>
</g>
<!-- Node8&#45;&gt;Node7 -->
<g id="edge7_Node000007_Node000008" class="edge">
<title>Node8&#45;&gt;Node7</title>
<g id="a_edge7_Node000007_Node000008"><a xlink:title=" ">
<path fill="none" stroke="#63b8ff" d="M141.88,-336.04C141.88,-322.12 141.88,-304.49 141.88,-288.9"/>
<polygon fill="none" stroke="#63b8ff" points="141.88,-288.76 137.88,-282.76 141.88,-276.76 145.88,-282.76 141.88,-288.76"/>
</a>
</g>
<text xml:space="preserve" text-anchor="start" x="144.88" y="-299.5" font-family="Helvetica,sans-Serif" font-size="10.00" fill="grey">+ptr</text>
</g>
<!-- Node9&#45;&gt;Node1 -->
<g id="edge8_Node000001_Node000009" class="edge">
<title>Node9&#45;&gt;Node1</title>
<g id="a_edge8_Node000001_Node000009"><a xlink:title=" ">
<path fill="none" stroke="#63b8ff" d="M145.85,-106.07C138.97,-92.8 130.89,-77.2 123.73,-63.38"/>
<polygon fill="none" stroke="#63b8ff" points="123.66,-63.25 117.35,-59.76 118.14,-52.59 124.45,-56.08 123.66,-63.25"/>
</a>
</g>
<text xml:space="preserve" text-anchor="start" x="138.08" y="-75.5" font-family="Helvetica,sans-Serif" font-size="10.00" fill="grey">+output</text>
</g>
<!-- Node10 -->
<g id="Node000010" class="node">
<title>Node10</title>
<g id="a_Node000010"><a xlink:title=" ">
<polygon fill="white" stroke="none" points="279.25,-276 216.5,-276 216.5,-224 279.25,-224 279.25,-276"/>
<text xml:space="preserve" text-anchor="start" x="220.5" y="-262.5" font-family="Helvetica,sans-Serif" font-size="10.00">std::ostream</text>
<text xml:space="preserve" text-anchor="start" x="246.38" y="-246.5" font-family="Helvetica,sans-Serif" font-size="10.00"> </text>
<text xml:space="preserve" text-anchor="start" x="246.38" y="-230.5" font-family="Helvetica,sans-Serif" font-size="10.00"> </text>
<polygon fill="#666666" stroke="#666666" points="216.5,-258 216.5,-258 279.25,-258 279.25,-258 216.5,-258"/>
<polygon fill="#666666" stroke="#666666" points="216.5,-242 216.5,-242 279.25,-242 279.25,-242 216.5,-242"/>
<polygon fill="none" stroke="#666666" points="216.5,-224 216.5,-276 279.25,-276 279.25,-224 216.5,-224"/>
</a>
</g>
</g>
<!-- Node10&#45;&gt;Node9 -->
<g id="edge9_Node000009_Node000010" class="edge">
<title>Node10&#45;&gt;Node9</title>
<g id="a_edge9_Node000009_Node000010"><a xlink:title=" ">
<path fill="none" stroke="#63b8ff" d="M246.86,-224.16C245.36,-212.37 242.03,-198.58 234.88,-188 230.66,-181.76 225.35,-176.11 219.54,-171.05"/>
<polygon fill="none" stroke="#63b8ff" points="219.53,-171.04 212.34,-170.49 210.09,-163.65 217.28,-164.2 219.53,-171.04"/>
</a>
</g>
<text xml:space="preserve" text-anchor="start" x="245.72" y="-193.5" font-family="Helvetica,sans-Serif" font-size="10.00" fill="grey">+ptr</text>
</g>
<!-- Node11&#45;&gt;Node10 -->
<g id="edge10_Node000010_Node000011" class="edge">
<title>Node11&#45;&gt;Node10</title>
<g id="a_edge10_Node000010_Node000011"><a xlink:title=" ">
<path fill="none" stroke="#63b8ff" d="M236.78,-318.77C239.16,-304.25 241.74,-288.47 243.82,-275.79"/>
<polygon fill="none" stroke="#63b8ff" points="233.34,-318.14 235.18,-328.57 240.25,-319.27 233.34,-318.14"/>
</a>
</g>
</g>
</g>
</svg>

<g id="navigator" transform="translate(0 0)" fill="#404254">
  <rect fill="#f2f5e9" fill-opacity="0.5" stroke="#606060" stroke-width=".5" x="0" y="0" width="60" height="60"/>
  <use id="zoomplus" xlink:href="#zoomPlus" x="17" y="9" onmousedown="handleZoom(evt,'in')"/>
  <use id="zoomminus" xlink:href="#zoomMin" x="42" y="9" onmousedown="handleZoom(evt,'out')"/>
  <use id="reset" xlink:href="#resetDef" x="30" y="36" onmousedown="handleReset()"/>
   <use id="arrowup" xlink:href="#arrowUp" x="0" y="0" onmousedown="handlePan(0,-1)"/>
  <use id="arrowright" xlink:href="#arrowRight" x="0" y="0" onmousedown="handlePan(1,0)"/>
  <use id="arrowdown" xlink:href="#arrowDown" x="0" y="0" onmousedown="handlePan(0,1)"/>
  <use id="arrowleft" xlink:href="#arrowLeft" x="0" y="0" onmousedown="handlePan(-1,0)"/>
</g>
<svg viewBox="0 0 15 15" width="100%" height="30px" preserveAspectRatio="xMaxYMin meet">
 <g id="arrow_out" transform="scale(0.3 0.3)">
  <a xlink:href="struct_formatter_options__coll__graph_org.svg" target="_base">
   <rect id="button" ry="5" rx="5" y="6" x="6" height="38" width="38"
        fill="#f2f5e9" fill-opacity="0.5" stroke="#606060" stroke-width="1.0"/>
   <path id="arrow"
     d="M 11.500037,31.436501 C 11.940474,20.09759 22.043105,11.32322 32.158766,21.979434 L 37.068811,17.246167 C 37.068811,17.246167 37.088388,32 37.088388,32 L 22.160133,31.978069 C 22.160133,31.978069 26.997745,27.140456 26.997745,27.140456 C 18.528582,18.264221 13.291696,25.230495 11.500037,31.436501 z"
     style="fill:#404040;"/>
  </a>
 </g>
</svg>

<style type='text/css'>
<![CDATA[
[data-mouse-over-selected='false'] { opacity: 0.7; }
[data-mouse-over-selected='true']  { opacity: 1.0; }
]]>
</style>
<script type="application/ecmascript"><![CDATA[
document.addEventListener('DOMContentLoaded', (event) => {
  highlightEdges();
  highlightAdjacentNodes();
});
]]></script>
</svg>
