<?xml version="1.0" encoding="UTF-8" standalone="no"?>
<!DOCTYPE svg PUBLIC "-//W3C//DTD SVG 1.1//EN"
 "http://www.w3.org/Graphics/SVG/1.1/DTD/svg11.dtd">
<!-- Generated by graphviz version 14.1.3 (0)
 -->
<!-- Title: anch::conf::SubPlaceholder Pages: 1 -->
<svg width="263pt" height="360pt"
 viewBox="0.00 0.00 263.00 360.00" xmlns="http://www.w3.org/2000/svg" xmlns:xlink="http://www.w3.org/1999/xlink">
<g id="graph0" class="graph" transform="scale(1 1) rotate(0) translate(4 356)">
<title>anch::conf::SubPlaceholder</title>
<!-- Node1 -->
<g id="Node000001" class="node">
<title>Node1</title>
<g id="a_Node000001"><a xlink:title="Placeholder items.">
<polygon fill="#999999" stroke="none" points="201.62,-100 73.62,-100 73.62,0 201.62,0 201.62,-100"/>
<text xml:space="preserve" text-anchor="start" x="77.62" y="-86.25" font-family="Helvetica,sans-Serif" font-size="10.00">anch::conf::SubPlaceholder</text>
<text xml:space="preserve" text-anchor="start" x="85.06" y="-70.25" font-family="Helvetica,sans-Serif" font-size="10.00">+</text>
<text xml:space="preserve" text-anchor="start" x="102.5" y="-70.25" font-family="Helvetica,sans-Serif" font-size="10.00">val</text>
<text xml:space="preserve" text-anchor="start" x="85.06" y="-54.25" font-family="Helvetica,sans-Serif" font-size="10.00">+</text>
<text xml:space="preserve" text-anchor="start" x="102.5" y="-54.25" font-family="Helvetica,sans-Serif" font-size="10.00">SubPlaceholder()</text>
<text xml:space="preserve" text-anchor="start" x="85.06" y="-38.25" font-family="Helvetica,sans-Serif" font-size="10.00">+</text>
<text xml:space="preserve" text-anchor="start" x="102.5" y="-38.25" font-family="Helvetica,sans-Serif" font-size="10.00">~SubPlaceholder()</text>
<text xml:space="preserve" text-anchor="start" x="85.06" y="-22.25" font-family="Helvetica,sans-Serif" font-size="10.00">+</text>
<text xml:space="preserve" text-anchor="start" x="102.5" y="-22.25" font-family="Helvetica,sans-Serif" font-size="10.00">handle()</text>
<text xml:space="preserve" text-anchor="start" x="85.06" y="-6.25" font-family="Helvetica,sans-Serif" font-size="10.00">+</text>
<text xml:space="preserve" text-anchor="start" x="102.5" y="-6.25" font-family="Helvetica,sans-Serif" font-size="10.00">resvoled()</text>
<polygon fill="#666666" stroke="#666666" points="73.62,-82 73.62,-82 201.62,-82 201.62,-82 73.62,-82"/>
<polygon fill="#666666" stroke="#666666" points="73.62,-66 73.62,-66 100.5,-66 100.5,-66 73.62,-66"/>
<polygon fill="#666666" stroke="#666666" points="100.5,-66 100.5,-66 201.62,-66 201.62,-66 100.5,-66"/>
<polygon fill="none" stroke="#666666" points="73.62,0 73.62,-100 201.62,-100 201.62,0 73.62,0"/>
</a>
</g>
</g>
<!-- Node2 -->
<g id="Node000002" class="node">
<title>Node2</title>
<g id="a_Node000002"><a xlink:href="classanch_1_1events_1_1_observer.html" target="_top" xlink:title=" ">
<polygon fill="white" stroke="none" points="149.5,-234 17.75,-234 17.75,-170 149.5,-170 149.5,-234"/>
<text xml:space="preserve" text-anchor="start" x="21.75" y="-220.25" font-family="Helvetica,sans-Serif" font-size="10.00">anch::events::Observer</text>
<text xml:space="preserve" text-anchor="start" x="21.75" y="-208.25" font-family="Helvetica,sans-Serif" font-size="10.00">&lt; anch::conf::ResConfEvt &gt;</text>
<text xml:space="preserve" text-anchor="start" x="82.12" y="-192.25" font-family="Helvetica,sans-Serif" font-size="10.00"> </text>
<text xml:space="preserve" text-anchor="start" x="41.56" y="-176.25" font-family="Helvetica,sans-Serif" font-size="10.00">+</text>
<text xml:space="preserve" text-anchor="start" x="71.38" y="-176.25" font-family="Helvetica,sans-Serif" font-size="10.00">handle()</text>
<polygon fill="#666666" stroke="#666666" points="17.75,-204 17.75,-204 149.5,-204 149.5,-204 17.75,-204"/>
<polygon fill="#666666" stroke="#666666" points="17.75,-188 17.75,-188 149.5,-188 149.5,-188 17.75,-188"/>
<polygon fill="none" stroke="#666666" points="17.75,-170 17.75,-234 149.5,-234 149.5,-170 17.75,-170"/>
</a>
</g>
</g>
<!-- Node2&#45;&gt;Node1 -->
<g id="edge1_Node000001_Node000002" class="edge">
<title>Node2&#45;&gt;Node1</title>
<g id="a_edge1_Node000001_Node000002"><a xlink:title=" ">
<path fill="none" stroke="#63b8ff" d="M98.54,-159.57C105.18,-141.12 113.06,-119.24 119.99,-99.98"/>
<polygon fill="none" stroke="#63b8ff" points="95.29,-158.26 95.2,-168.86 101.88,-160.64 95.29,-158.26"/>
</a>
</g>
</g>
<!-- Node3 -->
<g id="Node000003" class="node">
<title>Node3</title>
<g id="a_Node000003"><a xlink:href="classanch_1_1events_1_1_observer.html" target="_top" xlink:title="An observer interface of the observers/observable design pattern.">
<polygon fill="white" stroke="none" points="133.25,-346 0,-346 0,-294 133.25,-294 133.25,-346"/>
<text xml:space="preserve" text-anchor="start" x="4" y="-332.25" font-family="Helvetica,sans-Serif" font-size="10.00">anch::events::Observer&lt; T &gt;</text>
<text xml:space="preserve" text-anchor="start" x="65.12" y="-316.25" font-family="Helvetica,sans-Serif" font-size="10.00"> </text>
<text xml:space="preserve" text-anchor="start" x="24.19" y="-300.25" font-family="Helvetica,sans-Serif" font-size="10.00">+</text>
<text xml:space="preserve" text-anchor="start" x="54.38" y="-300.25" font-family="Helvetica,sans-Serif" font-size="10.00">handle()</text>
<polygon fill="#666666" stroke="#666666" points="0,-328 0,-328 133.25,-328 133.25,-328 0,-328"/>
<polygon fill="#666666" stroke="#666666" points="0,-312 0,-312 133.25,-312 133.25,-312 0,-312"/>
<polygon fill="none" stroke="#666666" points="0,-294 0,-346 133.25,-346 133.25,-294 0,-294"/>
</a>
</g>
</g>
<!-- Node3&#45;&gt;Node2 -->
<g id="edge2_Node000002_Node000003" class="edge">
<title>Node3&#45;&gt;Node2</title>
<g id="a_edge2_Node000002_Node000003"><a xlink:title=" ">
<path fill="none" stroke="orange" d="M69.18,-282.82C70.11,-272.81 71.32,-261.96 72.88,-252 73.79,-246.15 74.97,-239.95 76.22,-234"/>
<polygon fill="orange" stroke="orange" points="65.71,-282.32 68.35,-292.58 72.68,-282.92 65.71,-282.32"/>
</a>
</g>
<text xml:space="preserve" text-anchor="start" x="75.88" y="-257.25" font-family="Helvetica,sans-Serif" font-size="10.00" fill="grey">&lt; anch::conf::ResConfEvt &gt;</text>
</g>
<!-- Node4 -->
<g id="Node000004" class="node">
<title>Node4</title>
<g id="a_Node000004"><a xlink:title=" ">
<polygon fill="white" stroke="none" points="228.38,-228 176.88,-228 176.88,-176 228.38,-176 228.38,-228"/>
<text xml:space="preserve" text-anchor="start" x="180.88" y="-214.25" font-family="Helvetica,sans-Serif" font-size="10.00">std::string</text>
<text xml:space="preserve" text-anchor="start" x="201.12" y="-198.25" font-family="Helvetica,sans-Serif" font-size="10.00"> </text>
<text xml:space="preserve" text-anchor="start" x="201.12" y="-182.25" font-family="Helvetica,sans-Serif" font-size="10.00"> </text>
<polygon fill="#666666" stroke="#666666" points="176.88,-210 176.88,-210 228.38,-210 228.38,-210 176.88,-210"/>
<polygon fill="#666666" stroke="#666666" points="176.88,-194 176.88,-194 228.38,-194 228.38,-194 176.88,-194"/>
<polygon fill="none" stroke="#666666" points="176.88,-176 176.88,-228 228.38,-228 228.38,-176 176.88,-176"/>
</a>
</g>
</g>
<!-- Node4&#45;&gt;Node1 -->
<g id="edge3_Node000001_Node000004" class="edge">
<title>Node4&#45;&gt;Node1</title>
<g id="a_edge3_Node000001_Node000004"><a xlink:title=" ">
<path fill="none" stroke="#63b8ff" d="M191.89,-176.23C184.28,-158.67 173.72,-134.3 163.94,-111.73"/>
<polygon fill="none" stroke="#63b8ff" points="163.89,-111.62 157.84,-107.7 159.12,-100.61 165.18,-104.52 163.89,-111.62"/>
</a>
</g>
<text xml:space="preserve" text-anchor="start" x="182.75" y="-139.25" font-family="Helvetica,sans-Serif" font-size="10.00" fill="grey">+arg</text>
<text xml:space="preserve" text-anchor="start" x="182.75" y="-123.25" font-family="Helvetica,sans-Serif" font-size="10.00" fill="grey">+res</text>
</g>
<!-- Node5 -->
<g id="Node000005" class="node">
<title>Node5</title>
<g id="a_Node000005"><a xlink:title=" ">
<polygon fill="white" stroke="none" points="254.62,-352 168.62,-352 168.62,-288 254.62,-288 254.62,-352"/>
<text xml:space="preserve" text-anchor="start" x="172.62" y="-338.25" font-family="Helvetica,sans-Serif" font-size="10.00">std::basic_string&lt;</text>
<text xml:space="preserve" text-anchor="start" x="195.12" y="-326.25" font-family="Helvetica,sans-Serif" font-size="10.00"> Char &gt;</text>
<text xml:space="preserve" text-anchor="start" x="210.12" y="-310.25" font-family="Helvetica,sans-Serif" font-size="10.00"> </text>
<text xml:space="preserve" text-anchor="start" x="210.12" y="-294.25" font-family="Helvetica,sans-Serif" font-size="10.00"> </text>
<polygon fill="#666666" stroke="#666666" points="168.62,-322 168.62,-322 254.62,-322 254.62,-322 168.62,-322"/>
<polygon fill="#666666" stroke="#666666" points="168.62,-306 168.62,-306 254.62,-306 254.62,-306 168.62,-306"/>
<polygon fill="none" stroke="#666666" points="168.62,-288 168.62,-352 254.62,-352 254.62,-288 168.62,-288"/>
</a>
</g>
</g>
<!-- Node5&#45;&gt;Node4 -->
<g id="edge4_Node000004_Node000005" class="edge">
<title>Node5&#45;&gt;Node4</title>
<g id="a_edge4_Node000004_Node000005"><a xlink:title=" ">
<path fill="none" stroke="#63b8ff" d="M208.38,-277.12C207.09,-260.54 205.65,-242.05 204.54,-227.68"/>
<polygon fill="none" stroke="#63b8ff" points="204.86,-277.01 209.12,-286.71 211.84,-276.47 204.86,-277.01"/>
</a>
</g>
</g>
</g>
</svg>
