<?xml version="1.0" encoding="UTF-8" standalone="no"?>
<!DOCTYPE svg PUBLIC "-//W3C//DTD SVG 1.1//EN"
 "http://www.w3.org/Graphics/SVG/1.1/DTD/svg11.dtd">
<!-- Generated by graphviz version 12.2.1 (0)
 -->
<!-- Title: anch::crypto::SHA2&lt; O, B, W, R, I &gt;::Context&lt; Init &gt; Pages: 1 -->
<svg width="153pt" height="324pt"
 viewBox="0.00 0.00 153.25 324.00" xmlns="http://www.w3.org/2000/svg" xmlns:xlink="http://www.w3.org/1999/xlink">
<g id="graph0" class="graph" transform="scale(1 1) rotate(0) translate(4 320)">
<title>anch::crypto::SHA2&lt; O, B, W, R, I &gt;::Context&lt; Init &gt;</title>
<!-- Node1 -->
<g id="Node000001" class="node">
<title>Node1</title>
<g id="a_Node000001"><a xlink:title=" ">
<polygon fill="#999999" stroke="none" points="134.75,-316 10.5,-316 10.5,-176 134.75,-176 134.75,-316"/>
<text text-anchor="start" x="14.5" y="-302.5" font-family="Helvetica,sans-Serif" font-size="10.00">anch::crypto::SHA2</text>
<text text-anchor="start" x="14.5" y="-290.5" font-family="Helvetica,sans-Serif" font-size="10.00">&lt; O, B, W, R, I &gt;::Context</text>
<text text-anchor="start" x="56.88" y="-278.5" font-family="Helvetica,sans-Serif" font-size="10.00">&lt; Init &gt;</text>
<text text-anchor="start" x="30.94" y="-262.5" font-family="Helvetica,sans-Serif" font-size="10.00">+</text>
<text text-anchor="start" x="57.38" y="-262.5" font-family="Helvetica,sans-Serif" font-size="10.00">state</text>
<text text-anchor="start" x="30.94" y="-246.5" font-family="Helvetica,sans-Serif" font-size="10.00">+</text>
<text text-anchor="start" x="57.38" y="-246.5" font-family="Helvetica,sans-Serif" font-size="10.00">size</text>
<text text-anchor="start" x="30.94" y="-230.5" font-family="Helvetica,sans-Serif" font-size="10.00">+</text>
<text text-anchor="start" x="57.38" y="-230.5" font-family="Helvetica,sans-Serif" font-size="10.00">buffer</text>
<text text-anchor="start" x="30.94" y="-214.5" font-family="Helvetica,sans-Serif" font-size="10.00">+</text>
<text text-anchor="start" x="57.38" y="-214.5" font-family="Helvetica,sans-Serif" font-size="10.00">digest</text>
<text text-anchor="start" x="30.94" y="-198.5" font-family="Helvetica,sans-Serif" font-size="10.00">+</text>
<text text-anchor="start" x="57.38" y="-198.5" font-family="Helvetica,sans-Serif" font-size="10.00">Context()</text>
<text text-anchor="start" x="30.94" y="-182.5" font-family="Helvetica,sans-Serif" font-size="10.00">+</text>
<text text-anchor="start" x="57.38" y="-182.5" font-family="Helvetica,sans-Serif" font-size="10.00">reset()</text>
<polygon fill="#666666" stroke="#666666" points="10.5,-274 10.5,-274 134.75,-274 134.75,-274 10.5,-274"/>
<polygon fill="#666666" stroke="#666666" points="10.5,-210 10.5,-210 55.38,-210 55.38,-210 10.5,-210"/>
<polygon fill="#666666" stroke="#666666" points="55.38,-210 55.38,-210 134.75,-210 134.75,-210 55.38,-210"/>
<polygon fill="none" stroke="#666666" points="10.5,-176 10.5,-316 134.75,-316 134.75,-176 10.5,-176"/>
</a>
</g>
</g>
<!-- Node2 -->
<g id="Node000002" class="node">
<title>Node2</title>
<g id="a_Node000002"><a xlink:href="structanch_1_1crypto_1_1_s_h_a2_1_1_context.html" target="_top" xlink:title=" ">
<polygon fill="white" stroke="none" points="145.25,-128 0,-128 0,0 145.25,0 145.25,-128"/>
<text text-anchor="start" x="4" y="-114.5" font-family="Helvetica,sans-Serif" font-size="10.00">anch::crypto::SHA2</text>
<text text-anchor="start" x="4" y="-102.5" font-family="Helvetica,sans-Serif" font-size="10.00">&lt; O, B, W, R, I &gt;::Context&lt; I &gt;</text>
<text text-anchor="start" x="25.69" y="-86.5" font-family="Helvetica,sans-Serif" font-size="10.00">+</text>
<text text-anchor="start" x="57.38" y="-86.5" font-family="Helvetica,sans-Serif" font-size="10.00">state</text>
<text text-anchor="start" x="25.69" y="-70.5" font-family="Helvetica,sans-Serif" font-size="10.00">+</text>
<text text-anchor="start" x="57.38" y="-70.5" font-family="Helvetica,sans-Serif" font-size="10.00">size</text>
<text text-anchor="start" x="25.69" y="-54.5" font-family="Helvetica,sans-Serif" font-size="10.00">+</text>
<text text-anchor="start" x="57.38" y="-54.5" font-family="Helvetica,sans-Serif" font-size="10.00">buffer</text>
<text text-anchor="start" x="25.69" y="-38.5" font-family="Helvetica,sans-Serif" font-size="10.00">+</text>
<text text-anchor="start" x="57.38" y="-38.5" font-family="Helvetica,sans-Serif" font-size="10.00">digest</text>
<text text-anchor="start" x="25.69" y="-22.5" font-family="Helvetica,sans-Serif" font-size="10.00">+</text>
<text text-anchor="start" x="57.38" y="-22.5" font-family="Helvetica,sans-Serif" font-size="10.00">Context()</text>
<text text-anchor="start" x="25.69" y="-6.5" font-family="Helvetica,sans-Serif" font-size="10.00">+</text>
<text text-anchor="start" x="57.38" y="-6.5" font-family="Helvetica,sans-Serif" font-size="10.00">reset()</text>
<polygon fill="#666666" stroke="#666666" points="0,-98 0,-98 145.25,-98 145.25,-98 0,-98"/>
<polygon fill="#666666" stroke="#666666" points="0,-34 0,-34 55.38,-34 55.38,-34 0,-34"/>
<polygon fill="#666666" stroke="#666666" points="55.38,-34 55.38,-34 145.25,-34 145.25,-34 55.38,-34"/>
<polygon fill="none" stroke="#666666" points="0,0 0,-128 145.25,-128 145.25,0 0,0"/>
</a>
</g>
</g>
<!-- Node1&#45;&gt;Node2 -->
<g id="edge1_Node000001_Node000002" class="edge">
<title>Node1&#45;&gt;Node2</title>
<g id="a_edge1_Node000001_Node000002"><a xlink:title=" ">
<path fill="none" stroke="orange" d="M72.62,-164.89C72.62,-152.48 72.62,-139.83 72.62,-127.88"/>
<polygon fill="orange" stroke="orange" points="69.13,-164.67 72.63,-174.67 76.13,-164.67 69.13,-164.67"/>
</a>
</g>
<text text-anchor="middle" x="84.62" y="-148.5" font-family="Helvetica,sans-Serif" font-size="10.00" fill="grey"> &lt; I &gt;</text>
</g>
</g>
</svg>
