<?xml version="1.0" encoding="UTF-8" standalone="no"?>
<!DOCTYPE svg PUBLIC "-//W3C//DTD SVG 1.1//EN"
 "http://www.w3.org/Graphics/SVG/1.1/DTD/svg11.dtd">
<!-- Generated by graphviz version 8.0.1 (0)
 -->
<!-- Title: anch::crypto::SHA2&lt; O, B, W, R, I &gt;::Context&lt; Init &gt; Pages: 1 -->
<svg width="266pt" height="425pt"
 viewBox="0.00 0.00 266.00 425.00" xmlns="http://www.w3.org/2000/svg" xmlns:xlink="http://www.w3.org/1999/xlink">
<g id="graph0" class="graph" transform="scale(1 1) rotate(0) translate(4 421)">
<title>anch::crypto::SHA2&lt; O, B, W, R, I &gt;::Context&lt; Init &gt;</title>
<!-- Node1 -->
<g id="node1" class="node">
<title>Node1</title>
<g id="a_node1"><a xlink:title=" ">
<polygon fill="#999999" stroke="#666666" points="52,-0.5 52,-101.5 193,-101.5 193,-0.5 52,-0.5"/>
<text text-anchor="start" x="60" y="-89.5" font-family="Helvetica,sans-Serif" font-size="10.00">anch::crypto::SHA2</text>
<text text-anchor="start" x="60" y="-78.5" font-family="Helvetica,sans-Serif" font-size="10.00">&lt; O, B, W, R, I &gt;::Context</text>
<text text-anchor="middle" x="122.5" y="-67.5" font-family="Helvetica,sans-Serif" font-size="10.00">&lt; Init &gt;</text>
<polyline fill="none" stroke="#666666" points="52,-60.5 193,-60.5"/>
<text text-anchor="start" x="60" y="-48.5" font-family="Helvetica,sans-Serif" font-size="10.00">+ size</text>
<text text-anchor="start" x="60" y="-37.5" font-family="Helvetica,sans-Serif" font-size="10.00">+ buffer</text>
<polyline fill="none" stroke="#666666" points="52,-30.5 193,-30.5"/>
<text text-anchor="start" x="60" y="-18.5" font-family="Helvetica,sans-Serif" font-size="10.00">+ Context()</text>
<text text-anchor="start" x="60" y="-7.5" font-family="Helvetica,sans-Serif" font-size="10.00">+ reset()</text>
</a>
</g>
</g>
<!-- Node2 -->
<g id="node2" class="node">
<title>Node2</title>
<g id="a_node2"><a xlink:title=" ">
<polygon fill="white" stroke="#666666" points="0,-149.5 0,-206.5 107,-206.5 107,-149.5 0,-149.5"/>
<text text-anchor="middle" x="53.5" y="-194.5" font-family="Helvetica,sans-Serif" font-size="10.00">std::array&lt; W, 8 &gt;</text>
<polyline fill="none" stroke="#666666" points="0,-187.5 107,-187.5"/>
<text text-anchor="start" x="8" y="-175.5" font-family="Helvetica,sans-Serif" font-size="10.00">+ elements</text>
<polyline fill="none" stroke="#666666" points="0,-168.5 107,-168.5"/>
<text text-anchor="middle" x="53.5" y="-156.5" font-family="Helvetica,sans-Serif" font-size="10.00"> </text>
</a>
</g>
</g>
<!-- Node2&#45;&gt;Node1 -->
<g id="edge1" class="edge">
<title>Node2&#45;&gt;Node1</title>
<path fill="none" stroke="#404040" d="M68.64,-149.57C74.69,-138.62 81.9,-125.54 89.06,-112.58"/>
<polygon fill="none" stroke="#404040" points="89.07,-112.57 88.46,-105.38 94.87,-102.06 95.47,-109.25 89.07,-112.57"/>
<text text-anchor="middle" x="103" y="-123" font-family="Helvetica,sans-Serif" font-size="10.00"> +state</text>
</g>
<!-- Node3 -->
<g id="node3" class="node">
<title>Node3</title>
<g id="a_node3"><a xlink:title=" ">
<polygon fill="white" stroke="#666666" points="75.5,-254.5 75.5,-311.5 167.5,-311.5 167.5,-254.5 75.5,-254.5"/>
<text text-anchor="middle" x="121.5" y="-299.5" font-family="Helvetica,sans-Serif" font-size="10.00">std::array&lt; T &gt;</text>
<polyline fill="none" stroke="#666666" points="75.5,-292.5 167.5,-292.5"/>
<text text-anchor="middle" x="121.5" y="-280.5" font-family="Helvetica,sans-Serif" font-size="10.00"> </text>
<polyline fill="none" stroke="#666666" points="75.5,-273.5 167.5,-273.5"/>
<text text-anchor="middle" x="121.5" y="-261.5" font-family="Helvetica,sans-Serif" font-size="10.00"> </text>
</a>
</g>
</g>
<!-- Node3&#45;&gt;Node2 -->
<g id="edge2" class="edge">
<title>Node3&#45;&gt;Node2</title>
<path fill="none" stroke="orange" d="M97.46,-245.59C88.96,-232.72 79.55,-218.46 71.63,-206.46"/>
<polygon fill="orange" stroke="orange" points="95.03,-247.25 103.46,-253.67 100.87,-243.39 95.03,-247.25"/>
<text text-anchor="middle" x="114.5" y="-228" font-family="Helvetica,sans-Serif" font-size="10.00"> &lt; W, 8 &gt;</text>
</g>
<!-- Node5 -->
<g id="node5" class="node">
<title>Node5</title>
<g id="a_node5"><a xlink:title=" ">
<polygon fill="white" stroke="#666666" points="125,-149.5 125,-206.5 258,-206.5 258,-149.5 125,-149.5"/>
<text text-anchor="middle" x="191.5" y="-194.5" font-family="Helvetica,sans-Serif" font-size="10.00">std::array&lt; uint8_t, O &gt;</text>
<polyline fill="none" stroke="#666666" points="125,-187.5 258,-187.5"/>
<text text-anchor="start" x="133" y="-175.5" font-family="Helvetica,sans-Serif" font-size="10.00">+ elements</text>
<polyline fill="none" stroke="#666666" points="125,-168.5 258,-168.5"/>
<text text-anchor="middle" x="191.5" y="-156.5" font-family="Helvetica,sans-Serif" font-size="10.00"> </text>
</a>
</g>
</g>
<!-- Node3&#45;&gt;Node5 -->
<g id="edge5" class="edge">
<title>Node3&#45;&gt;Node5</title>
<path fill="none" stroke="orange" d="M146.24,-245.59C154.99,-232.72 164.68,-218.46 172.84,-206.46"/>
<polygon fill="orange" stroke="orange" points="142.8,-243.43 140.07,-253.67 148.59,-247.36 142.8,-243.43"/>
<text text-anchor="middle" x="195" y="-228" font-family="Helvetica,sans-Serif" font-size="10.00"> &lt; uint8_t, O &gt;</text>
</g>
<!-- Node4 -->
<g id="node4" class="node">
<title>Node4</title>
<g id="a_node4"><a xlink:title=" ">
<polygon fill="white" stroke="#bfbfbf" points="107,-359.5 107,-416.5 136,-416.5 136,-359.5 107,-359.5"/>
<text text-anchor="middle" x="121.5" y="-404.5" font-family="Helvetica,sans-Serif" font-size="10.00">T</text>
<polyline fill="none" stroke="#bfbfbf" points="107,-397.5 136,-397.5"/>
<text text-anchor="middle" x="121.5" y="-385.5" font-family="Helvetica,sans-Serif" font-size="10.00"> </text>
<polyline fill="none" stroke="#bfbfbf" points="107,-378.5 136,-378.5"/>
<text text-anchor="middle" x="121.5" y="-366.5" font-family="Helvetica,sans-Serif" font-size="10.00"> </text>
</a>
</g>
</g>
<!-- Node4&#45;&gt;Node3 -->
<g id="edge3" class="edge">
<title>Node4&#45;&gt;Node3</title>
<path fill="none" stroke="#404040" d="M121.5,-359.67C121.5,-348.84 121.5,-336.17 121.5,-324.33"/>
<polygon fill="none" stroke="#404040" points="121.5,-324.36 117.5,-318.36 121.5,-312.36 125.5,-318.36 121.5,-324.36"/>
<text text-anchor="middle" x="150.5" y="-333" font-family="Helvetica,sans-Serif" font-size="10.00"> +elements</text>
</g>
<!-- Node5&#45;&gt;Node1 -->
<g id="edge4" class="edge">
<title>Node5&#45;&gt;Node1</title>
<path fill="none" stroke="#404040" d="M176.36,-149.57C170.31,-138.62 163.1,-125.54 155.94,-112.58"/>
<polygon fill="none" stroke="#404040" points="155.93,-112.57 149.53,-109.25 150.13,-102.06 156.54,-105.38 155.93,-112.57"/>
<text text-anchor="middle" x="185.5" y="-123" font-family="Helvetica,sans-Serif" font-size="10.00"> +digest</text>
</g>
</g>
</svg>
