<?xml version="1.0" encoding="UTF-8" standalone="no"?>
<!DOCTYPE svg PUBLIC "-//W3C//DTD SVG 1.1//EN"
 "http://www.w3.org/Graphics/SVG/1.1/DTD/svg11.dtd">
<!-- Generated by graphviz version 12.1.2 (0)
 -->
<!-- Title: anch::sql::SQLSharedLibrary Pages: 1 -->
<svg width="505pt" height="1420pt"
 viewBox="0.00 0.00 505.25 1420.00" xmlns="http://www.w3.org/2000/svg" xmlns:xlink="http://www.w3.org/1999/xlink">
<g id="graph0" class="graph" transform="scale(1 1) rotate(0) translate(4 1416)">
<title>anch::sql::SQLSharedLibrary</title>
<!-- Node1 -->
<g id="Node000001" class="node">
<title>Node1</title>
<g id="a_Node000001"><a xlink:title="SQL shared library data.">
<polygon fill="#999999" stroke="none" points="148.5,-52 13.5,-52 13.5,0 148.5,0 148.5,-52"/>
<text text-anchor="start" x="18.38" y="-38.5" font-family="Helvetica,sans-Serif" font-size="10.00">anch::sql::SQLSharedLibrary</text>
<text text-anchor="start" x="40" y="-22.5" font-family="Helvetica,sans-Serif" font-size="10.00">+</text>
<text text-anchor="start" x="72.5" y="-22.5" font-family="Helvetica,sans-Serif" font-size="10.00">_layer</text>
<text text-anchor="start" x="79.5" y="-6.5" font-family="Helvetica,sans-Serif" font-size="10.00"> </text>
<polygon fill="#666666" stroke="#666666" points="13.5,-34 13.5,-34 148.5,-34 148.5,-34 13.5,-34"/>
<polygon fill="#666666" stroke="#666666" points="13.5,-18 13.5,-18 70.5,-18 70.5,-18 13.5,-18"/>
<polygon fill="#666666" stroke="#666666" points="70.5,-18 70.5,-18 148.5,-18 148.5,-18 70.5,-18"/>
<polygon fill="none" stroke="#666666" points="13.5,0 13.5,-52 148.5,-52 148.5,0 13.5,0"/>
</a>
</g>
</g>
<!-- Node2 -->
<g id="Node000002" class="node">
<title>Node2</title>
<g id="a_Node000002"><a xlink:title=" ">
<polygon fill="white" stroke="none" points="70.5,-1300 17.5,-1300 17.5,-1248 70.5,-1248 70.5,-1300"/>
<text text-anchor="start" x="22.25" y="-1286.5" font-family="Helvetica,sans-Serif" font-size="10.00">std::string</text>
<text text-anchor="start" x="42.5" y="-1270.5" font-family="Helvetica,sans-Serif" font-size="10.00"> </text>
<text text-anchor="start" x="42.5" y="-1254.5" font-family="Helvetica,sans-Serif" font-size="10.00"> </text>
<polygon fill="#666666" stroke="#666666" points="17.5,-1282 17.5,-1282 70.5,-1282 70.5,-1282 17.5,-1282"/>
<polygon fill="#666666" stroke="#666666" points="17.5,-1266 17.5,-1266 70.5,-1266 70.5,-1266 17.5,-1266"/>
<polygon fill="none" stroke="#666666" points="17.5,-1248 17.5,-1300 70.5,-1300 70.5,-1248 17.5,-1248"/>
</a>
</g>
</g>
<!-- Node2&#45;&gt;Node1 -->
<g id="edge1_Node000001_Node000002" class="edge">
<title>Node2&#45;&gt;Node1</title>
<g id="a_edge1_Node000001_Node000002"><a xlink:title=" ">
<path fill="none" stroke="#63b8ff" d="M33.21,-1248.04C21.98,-1219.73 6,-1171.92 6,-1129 6,-1129 6,-1129 6,-131 6,-104.08 22.73,-79.39 40.39,-60.83"/>
<polygon fill="none" stroke="#63b8ff" points="40.45,-60.77 41.91,-53.7 48.99,-52.33 47.53,-59.39 40.45,-60.77"/>
</a>
</g>
<text text-anchor="middle" x="21" y="-644.5" font-family="Helvetica,sans-Serif" font-size="10.00" fill="grey"> +layer</text>
</g>
<!-- Node6 -->
<g id="Node000006" class="node">
<title>Node6</title>
<g id="a_Node000006"><a xlink:title=" ">
<polygon fill="white" stroke="none" points="222,-680 64,-680 64,-616 222,-616 222,-680"/>
<text text-anchor="start" x="68.75" y="-666.5" font-family="Helvetica,sans-Serif" font-size="10.00">std::map&lt; std::string,</text>
<text text-anchor="start" x="68.75" y="-654.5" font-family="Helvetica,sans-Serif" font-size="10.00"> anch::sql::PreparedStatement * &gt;</text>
<text text-anchor="start" x="141.5" y="-638.5" font-family="Helvetica,sans-Serif" font-size="10.00"> </text>
<text text-anchor="start" x="141.5" y="-622.5" font-family="Helvetica,sans-Serif" font-size="10.00"> </text>
<polygon fill="#666666" stroke="#666666" points="64,-650 64,-650 222,-650 222,-650 64,-650"/>
<polygon fill="#666666" stroke="#666666" points="64,-634 64,-634 222,-634 222,-634 64,-634"/>
<polygon fill="none" stroke="#666666" points="64,-616 64,-680 222,-680 222,-616 64,-616"/>
</a>
</g>
</g>
<!-- Node2&#45;&gt;Node6 -->
<g id="edge6_Node000006_Node000002" class="edge">
<title>Node2&#45;&gt;Node6</title>
<g id="a_edge6_Node000006_Node000002"><a xlink:title=" ">
<path fill="none" stroke="#63b8ff" d="M42.61,-1248.1C37.72,-1154.35 23.79,-823.14 65,-728 71.35,-713.35 81.76,-699.9 92.93,-688.42"/>
<polygon fill="none" stroke="#63b8ff" points="92.73,-688.62 94.26,-681.57 101.35,-680.28 99.82,-687.32 92.73,-688.62"/>
</a>
</g>
<text text-anchor="middle" x="51.79" y="-1062.5" font-family="Helvetica,sans-Serif" font-size="10.00" fill="grey"> +keys</text>
</g>
<!-- Node8 -->
<g id="Node000008" class="node">
<title>Node8</title>
<g id="a_Node000008"><a xlink:title=" ">
<polygon fill="white" stroke="none" points="190,-1160 96,-1160 96,-1096 190,-1096 190,-1160"/>
<text text-anchor="start" x="100.62" y="-1146.5" font-family="Helvetica,sans-Serif" font-size="10.00">std::map&lt; std::size</text>
<text text-anchor="start" x="109.62" y="-1134.5" font-family="Helvetica,sans-Serif" font-size="10.00">_t, std::string &gt;</text>
<text text-anchor="start" x="113.5" y="-1118.5" font-family="Helvetica,sans-Serif" font-size="10.00">+</text>
<text text-anchor="start" x="137" y="-1118.5" font-family="Helvetica,sans-Serif" font-size="10.00">keys</text>
<text text-anchor="start" x="141.5" y="-1102.5" font-family="Helvetica,sans-Serif" font-size="10.00"> </text>
<polygon fill="#666666" stroke="#666666" points="96,-1130 96,-1130 190,-1130 190,-1130 96,-1130"/>
<polygon fill="#666666" stroke="#666666" points="96,-1114 96,-1114 135,-1114 135,-1114 96,-1114"/>
<polygon fill="#666666" stroke="#666666" points="135,-1114 135,-1114 190,-1114 190,-1114 135,-1114"/>
<polygon fill="none" stroke="#666666" points="96,-1096 96,-1160 190,-1160 190,-1096 96,-1096"/>
</a>
</g>
</g>
<!-- Node2&#45;&gt;Node8 -->
<g id="edge9_Node000008_Node000002" class="edge">
<title>Node2&#45;&gt;Node8</title>
<g id="a_edge9_Node000008_Node000002"><a xlink:title=" ">
<path fill="none" stroke="#63b8ff" d="M50.54,-1248.28C56.72,-1228.04 67.42,-1199.36 83.25,-1178 85.57,-1174.87 88.14,-1171.82 90.86,-1168.86"/>
<polygon fill="none" stroke="#63b8ff" points="90.82,-1168.9 92.27,-1161.83 99.35,-1160.45 97.9,-1167.51 90.82,-1168.9"/>
</a>
</g>
<text text-anchor="middle" x="107.62" y="-1200.5" font-family="Helvetica,sans-Serif" font-size="10.00" fill="grey"> +elements</text>
</g>
<!-- Node3 -->
<g id="Node000003" class="node">
<title>Node3</title>
<g id="a_Node000003"><a xlink:title=" ">
<polygon fill="white" stroke="none" points="88,-1412 0,-1412 0,-1348 88,-1348 88,-1412"/>
<text text-anchor="start" x="5" y="-1398.5" font-family="Helvetica,sans-Serif" font-size="10.00">std::basic_string&lt;</text>
<text text-anchor="start" x="27.5" y="-1386.5" font-family="Helvetica,sans-Serif" font-size="10.00"> Char &gt;</text>
<text text-anchor="start" x="42.5" y="-1370.5" font-family="Helvetica,sans-Serif" font-size="10.00"> </text>
<text text-anchor="start" x="42.5" y="-1354.5" font-family="Helvetica,sans-Serif" font-size="10.00"> </text>
<polygon fill="#666666" stroke="#666666" points="0,-1382 0,-1382 88,-1382 88,-1382 0,-1382"/>
<polygon fill="#666666" stroke="#666666" points="0,-1366 0,-1366 88,-1366 88,-1366 0,-1366"/>
<polygon fill="none" stroke="#666666" points="0,-1348 0,-1412 88,-1412 88,-1348 0,-1348"/>
</a>
</g>
</g>
<!-- Node3&#45;&gt;Node2 -->
<g id="edge2_Node000002_Node000003" class="edge">
<title>Node3&#45;&gt;Node2</title>
<g id="a_edge2_Node000002_Node000003"><a xlink:title=" ">
<path fill="none" stroke="#63b8ff" d="M44,-1336.81C44,-1324.21 44,-1310.8 44,-1299.71"/>
<polygon fill="none" stroke="#63b8ff" points="40.5,-1336.56 44,-1346.56 47.5,-1336.56 40.5,-1336.56"/>
</a>
</g>
</g>
<!-- Node4 -->
<g id="Node000004" class="node">
<title>Node4</title>
<g id="a_Node000004"><a xlink:title=" ">
<polygon fill="white" stroke="none" points="240.5,-164 135.5,-164 135.5,-100 240.5,-100 240.5,-164"/>
<text text-anchor="start" x="140.38" y="-150.5" font-family="Helvetica,sans-Serif" font-size="10.00">std::shared_ptr&lt; anch</text>
<text text-anchor="start" x="146.38" y="-138.5" font-family="Helvetica,sans-Serif" font-size="10.00">::sql::Connection &gt;</text>
<text text-anchor="start" x="186.5" y="-122.5" font-family="Helvetica,sans-Serif" font-size="10.00"> </text>
<text text-anchor="start" x="148.5" y="-106.5" font-family="Helvetica,sans-Serif" font-size="10.00">+</text>
<text text-anchor="start" x="167.5" y="-106.5" font-family="Helvetica,sans-Serif" font-size="10.00">operator&#45;&gt;()</text>
<polygon fill="#666666" stroke="#666666" points="135.5,-134 135.5,-134 240.5,-134 240.5,-134 135.5,-134"/>
<polygon fill="#666666" stroke="#666666" points="135.5,-118 135.5,-118 240.5,-118 240.5,-118 135.5,-118"/>
<polygon fill="none" stroke="#666666" points="135.5,-100 135.5,-164 240.5,-164 240.5,-100 135.5,-100"/>
</a>
</g>
</g>
<!-- Node4&#45;&gt;Node1 -->
<g id="edge3_Node000001_Node000004" class="edge">
<title>Node4&#45;&gt;Node1</title>
<g id="a_edge3_Node000001_Node000004"><a xlink:title=" ">
<path fill="none" stroke="#63b8ff" d="M156.19,-100.08C143.4,-87.65 128.62,-73.28 115.56,-60.6"/>
<polygon fill="none" stroke="#63b8ff" points="115.67,-60.7 108.58,-59.38 107.06,-52.33 114.15,-53.65 115.67,-60.7"/>
</a>
</g>
<text text-anchor="middle" x="194.5" y="-72.5" font-family="Helvetica,sans-Serif" font-size="10.00" fill="grey"> +make_shared_connection</text>
</g>
<!-- Node5 -->
<g id="Node000005" class="node">
<title>Node5</title>
<g id="a_Node000005"><a xlink:href="classanch_1_1sql_1_1_connection.html" target="_top" xlink:title="SQL connection virtual class.">
<polygon fill="white" stroke="none" points="201.5,-568 84.5,-568 84.5,-212 201.5,-212 201.5,-568"/>
<text text-anchor="start" x="95.38" y="-554.5" font-family="Helvetica,sans-Serif" font-size="10.00">anch::sql::Connection</text>
<text text-anchor="start" x="88.88" y="-538.5" font-family="Helvetica,sans-Serif" font-size="10.00">#</text>
<text text-anchor="start" x="98.5" y="-538.5" font-family="Helvetica,sans-Serif" font-size="10.00">_valid</text>
<text text-anchor="start" x="88.88" y="-522.5" font-family="Helvetica,sans-Serif" font-size="10.00">#</text>
<text text-anchor="start" x="98.5" y="-522.5" font-family="Helvetica,sans-Serif" font-size="10.00">_transaction</text>
<text text-anchor="start" x="88.88" y="-506.5" font-family="Helvetica,sans-Serif" font-size="10.00">#</text>
<text text-anchor="start" x="98.5" y="-506.5" font-family="Helvetica,sans-Serif" font-size="10.00">_errors</text>
<text text-anchor="start" x="88.5" y="-490.5" font-family="Helvetica,sans-Serif" font-size="10.00">+</text>
<text text-anchor="start" x="98.5" y="-490.5" font-family="Helvetica,sans-Serif" font-size="10.00">Connection()</text>
<text text-anchor="start" x="88.5" y="-474.5" font-family="Helvetica,sans-Serif" font-size="10.00">+</text>
<text text-anchor="start" x="98.5" y="-474.5" font-family="Helvetica,sans-Serif" font-size="10.00">Connection()</text>
<text text-anchor="start" x="88.5" y="-458.5" font-family="Helvetica,sans-Serif" font-size="10.00">+</text>
<text text-anchor="start" x="98.5" y="-458.5" font-family="Helvetica,sans-Serif" font-size="10.00">~Connection()</text>
<text text-anchor="start" x="88.5" y="-442.5" font-family="Helvetica,sans-Serif" font-size="10.00">+</text>
<text text-anchor="start" x="98.5" y="-442.5" font-family="Helvetica,sans-Serif" font-size="10.00">startTransaction()</text>
<text text-anchor="start" x="88.5" y="-426.5" font-family="Helvetica,sans-Serif" font-size="10.00">+</text>
<text text-anchor="start" x="98.5" y="-426.5" font-family="Helvetica,sans-Serif" font-size="10.00">begin()</text>
<text text-anchor="start" x="88.5" y="-410.5" font-family="Helvetica,sans-Serif" font-size="10.00">+</text>
<text text-anchor="start" x="98.5" y="-410.5" font-family="Helvetica,sans-Serif" font-size="10.00">commit()</text>
<text text-anchor="start" x="88.5" y="-394.5" font-family="Helvetica,sans-Serif" font-size="10.00">+</text>
<text text-anchor="start" x="98.5" y="-394.5" font-family="Helvetica,sans-Serif" font-size="10.00">rollback()</text>
<text text-anchor="start" x="88.5" y="-378.5" font-family="Helvetica,sans-Serif" font-size="10.00">+</text>
<text text-anchor="start" x="98.5" y="-378.5" font-family="Helvetica,sans-Serif" font-size="10.00">release()</text>
<text text-anchor="start" x="88.5" y="-362.5" font-family="Helvetica,sans-Serif" font-size="10.00">+</text>
<text text-anchor="start" x="98.5" y="-362.5" font-family="Helvetica,sans-Serif" font-size="10.00">prepareStatement()</text>
<text text-anchor="start" x="88.5" y="-346.5" font-family="Helvetica,sans-Serif" font-size="10.00">+</text>
<text text-anchor="start" x="98.5" y="-346.5" font-family="Helvetica,sans-Serif" font-size="10.00">query()</text>
<text text-anchor="start" x="98.5" y="-330.5" font-family="Helvetica,sans-Serif" font-size="10.00">and 9 more...</text>
<text text-anchor="start" x="88.88" y="-314.5" font-family="Helvetica,sans-Serif" font-size="10.00">#</text>
<text text-anchor="start" x="98.5" y="-314.5" font-family="Helvetica,sans-Serif" font-size="10.00">executeQuery()</text>
<text text-anchor="start" x="88.88" y="-298.5" font-family="Helvetica,sans-Serif" font-size="10.00">#</text>
<text text-anchor="start" x="98.5" y="-298.5" font-family="Helvetica,sans-Serif" font-size="10.00">executeUpdate()</text>
<text text-anchor="start" x="88.88" y="-282.5" font-family="Helvetica,sans-Serif" font-size="10.00">#</text>
<text text-anchor="start" x="98.5" y="-282.5" font-family="Helvetica,sans-Serif" font-size="10.00">sendStartTransaction()</text>
<text text-anchor="start" x="88.88" y="-266.5" font-family="Helvetica,sans-Serif" font-size="10.00">#</text>
<text text-anchor="start" x="98.5" y="-266.5" font-family="Helvetica,sans-Serif" font-size="10.00">sendCommit()</text>
<text text-anchor="start" x="88.88" y="-250.5" font-family="Helvetica,sans-Serif" font-size="10.00">#</text>
<text text-anchor="start" x="98.5" y="-250.5" font-family="Helvetica,sans-Serif" font-size="10.00">sendRollback()</text>
<text text-anchor="start" x="88.88" y="-234.5" font-family="Helvetica,sans-Serif" font-size="10.00">#</text>
<text text-anchor="start" x="98.5" y="-234.5" font-family="Helvetica,sans-Serif" font-size="10.00">makePrepared()</text>
<text text-anchor="start" x="88.88" y="-218.5" font-family="Helvetica,sans-Serif" font-size="10.00">#</text>
<text text-anchor="start" x="98.5" y="-218.5" font-family="Helvetica,sans-Serif" font-size="10.00">setValid()</text>
<polygon fill="#666666" stroke="#666666" points="84.5,-550 84.5,-550 201.5,-550 201.5,-550 84.5,-550"/>
<polygon fill="#666666" stroke="#666666" points="84.5,-502 84.5,-502 96.5,-502 96.5,-502 84.5,-502"/>
<polygon fill="#666666" stroke="#666666" points="96.5,-502 96.5,-502 201.5,-502 201.5,-502 96.5,-502"/>
<polygon fill="none" stroke="#666666" points="84.5,-212 84.5,-568 201.5,-568 201.5,-212 84.5,-212"/>
</a>
</g>
</g>
<!-- Node5&#45;&gt;Node1 -->
<g id="edge16_Node000001_Node000005" class="edge">
<title>Node5&#45;&gt;Node1</title>
<g id="a_edge16_Node000001_Node000005"><a xlink:title=" ">
<path fill="none" stroke="#63b8ff" d="M99.41,-212.01C96.24,-195.84 93.37,-179.66 91,-164 85.97,-130.72 83.45,-92.49 82.19,-64.88"/>
<polygon fill="none" stroke="#63b8ff" points="82.19,-64.77 77.95,-58.94 81.7,-52.78 85.94,-58.61 82.19,-64.77"/>
</a>
</g>
<text text-anchor="middle" x="109" y="-128.5" font-family="Helvetica,sans-Serif" font-size="10.00" fill="grey"> +create</text>
</g>
<!-- Node5&#45;&gt;Node4 -->
<g id="edge4_Node000004_Node000005" class="edge">
<title>Node5&#45;&gt;Node4</title>
<g id="a_edge4_Node000004_Node000005"><a xlink:title=" ">
<path fill="none" stroke="#63b8ff" d="M174.07,-212.25C176.33,-199.38 178.46,-187.3 180.33,-176.62"/>
<polygon fill="none" stroke="#63b8ff" points="180.34,-176.6 177.43,-170 182.41,-164.79 185.31,-171.39 180.34,-176.6"/>
</a>
</g>
<text text-anchor="middle" x="188.41" y="-184.5" font-family="Helvetica,sans-Serif" font-size="10.00" fill="grey"> +ptr</text>
</g>
<!-- Node6&#45;&gt;Node5 -->
<g id="edge5_Node000005_Node000006" class="edge">
<title>Node6&#45;&gt;Node5</title>
<g id="a_edge5_Node000005_Node000006"><a xlink:title=" ">
<path fill="none" stroke="#63b8ff" d="M143,-616.12C143,-606.04 143,-594.02 143,-580.84"/>
<polygon fill="none" stroke="#63b8ff" points="143,-580.78 139,-574.78 143,-568.78 147,-574.78 143,-580.78"/>
</a>
</g>
<text text-anchor="middle" x="162.12" y="-588.5" font-family="Helvetica,sans-Serif" font-size="10.00" fill="grey"> #_stmts</text>
</g>
<!-- Node7 -->
<g id="Node000007" class="node">
<title>Node7</title>
<g id="a_Node000007"><a xlink:href="classanch_1_1sql_1_1_prepared_statement.html" target="_top" xlink:title="SQL prepared statement.">
<polygon fill="white" stroke="none" points="212.5,-1036 73.5,-1036 73.5,-728 212.5,-728 212.5,-1036"/>
<text text-anchor="start" x="78.12" y="-1022.5" font-family="Helvetica,sans-Serif" font-size="10.00">anch::sql::PreparedStatement</text>
<text text-anchor="start" x="83.88" y="-1006.5" font-family="Helvetica,sans-Serif" font-size="10.00">#</text>
<text text-anchor="start" x="99.5" y="-1006.5" font-family="Helvetica,sans-Serif" font-size="10.00">_nbPlaceholders</text>
<text text-anchor="start" x="83.5" y="-990.5" font-family="Helvetica,sans-Serif" font-size="10.00">+</text>
<text text-anchor="start" x="99.5" y="-990.5" font-family="Helvetica,sans-Serif" font-size="10.00">PreparedStatement()</text>
<text text-anchor="start" x="83.5" y="-974.5" font-family="Helvetica,sans-Serif" font-size="10.00">+</text>
<text text-anchor="start" x="99.5" y="-974.5" font-family="Helvetica,sans-Serif" font-size="10.00">~PreparedStatement()</text>
<text text-anchor="start" x="83.5" y="-958.5" font-family="Helvetica,sans-Serif" font-size="10.00">+</text>
<text text-anchor="start" x="99.5" y="-958.5" font-family="Helvetica,sans-Serif" font-size="10.00">executeQuery()</text>
<text text-anchor="start" x="83.5" y="-942.5" font-family="Helvetica,sans-Serif" font-size="10.00">+</text>
<text text-anchor="start" x="99.5" y="-942.5" font-family="Helvetica,sans-Serif" font-size="10.00">executeUpdate()</text>
<text text-anchor="start" x="83.5" y="-926.5" font-family="Helvetica,sans-Serif" font-size="10.00">+</text>
<text text-anchor="start" x="99.5" y="-926.5" font-family="Helvetica,sans-Serif" font-size="10.00">set()</text>
<text text-anchor="start" x="83.5" y="-910.5" font-family="Helvetica,sans-Serif" font-size="10.00">+</text>
<text text-anchor="start" x="99.5" y="-910.5" font-family="Helvetica,sans-Serif" font-size="10.00">set()</text>
<text text-anchor="start" x="83.5" y="-894.5" font-family="Helvetica,sans-Serif" font-size="10.00">+</text>
<text text-anchor="start" x="99.5" y="-894.5" font-family="Helvetica,sans-Serif" font-size="10.00">set()</text>
<text text-anchor="start" x="83.5" y="-878.5" font-family="Helvetica,sans-Serif" font-size="10.00">+</text>
<text text-anchor="start" x="99.5" y="-878.5" font-family="Helvetica,sans-Serif" font-size="10.00">set()</text>
<text text-anchor="start" x="83.5" y="-862.5" font-family="Helvetica,sans-Serif" font-size="10.00">+</text>
<text text-anchor="start" x="99.5" y="-862.5" font-family="Helvetica,sans-Serif" font-size="10.00">set()</text>
<text text-anchor="start" x="83.5" y="-846.5" font-family="Helvetica,sans-Serif" font-size="10.00">+</text>
<text text-anchor="start" x="99.5" y="-846.5" font-family="Helvetica,sans-Serif" font-size="10.00">set()</text>
<text text-anchor="start" x="83.5" y="-830.5" font-family="Helvetica,sans-Serif" font-size="10.00">+</text>
<text text-anchor="start" x="99.5" y="-830.5" font-family="Helvetica,sans-Serif" font-size="10.00">set()</text>
<text text-anchor="start" x="83.5" y="-814.5" font-family="Helvetica,sans-Serif" font-size="10.00">+</text>
<text text-anchor="start" x="99.5" y="-814.5" font-family="Helvetica,sans-Serif" font-size="10.00">set()</text>
<text text-anchor="start" x="83.5" y="-798.5" font-family="Helvetica,sans-Serif" font-size="10.00">+</text>
<text text-anchor="start" x="99.5" y="-798.5" font-family="Helvetica,sans-Serif" font-size="10.00">set()</text>
<text text-anchor="start" x="83.5" y="-782.5" font-family="Helvetica,sans-Serif" font-size="10.00">+</text>
<text text-anchor="start" x="99.5" y="-782.5" font-family="Helvetica,sans-Serif" font-size="10.00">set()</text>
<text text-anchor="start" x="83.5" y="-766.5" font-family="Helvetica,sans-Serif" font-size="10.00">+</text>
<text text-anchor="start" x="99.5" y="-766.5" font-family="Helvetica,sans-Serif" font-size="10.00">set()</text>
<text text-anchor="start" x="83.88" y="-750.5" font-family="Helvetica,sans-Serif" font-size="10.00">#</text>
<text text-anchor="start" x="99.5" y="-750.5" font-family="Helvetica,sans-Serif" font-size="10.00">getPlaceholders()</text>
<text text-anchor="start" x="83.88" y="-734.5" font-family="Helvetica,sans-Serif" font-size="10.00">#</text>
<text text-anchor="start" x="99.5" y="-734.5" font-family="Helvetica,sans-Serif" font-size="10.00">checkIndex()</text>
<polygon fill="#666666" stroke="#666666" points="73.5,-1018 73.5,-1018 212.5,-1018 212.5,-1018 73.5,-1018"/>
<polygon fill="#666666" stroke="#666666" points="73.5,-1002 73.5,-1002 97.5,-1002 97.5,-1002 73.5,-1002"/>
<polygon fill="#666666" stroke="#666666" points="97.5,-1002 97.5,-1002 212.5,-1002 212.5,-1002 97.5,-1002"/>
<polygon fill="none" stroke="#666666" points="73.5,-728 73.5,-1036 212.5,-1036 212.5,-728 73.5,-728"/>
</a>
</g>
</g>
<!-- Node7&#45;&gt;Node6 -->
<g id="edge7_Node000006_Node000007" class="edge">
<title>Node7&#45;&gt;Node6</title>
<g id="a_edge7_Node000006_Node000007"><a xlink:title=" ">
<path fill="none" stroke="#63b8ff" d="M143,-728.19C143,-715.43 143,-703.32 143,-692.6"/>
<polygon fill="none" stroke="#63b8ff" points="143,-692.7 139,-686.7 143,-680.7 147,-686.7 143,-692.7"/>
</a>
</g>
<text text-anchor="middle" x="167.38" y="-700.5" font-family="Helvetica,sans-Serif" font-size="10.00" fill="grey"> +elements</text>
</g>
<!-- Node8&#45;&gt;Node7 -->
<g id="edge8_Node000007_Node000008" class="edge">
<title>Node8&#45;&gt;Node7</title>
<g id="a_edge8_Node000007_Node000008"><a xlink:title=" ">
<path fill="none" stroke="#63b8ff" d="M143,-1096.1C143,-1082.98 143,-1066.6 143,-1048.78"/>
<polygon fill="none" stroke="#63b8ff" points="143,-1048.81 139,-1042.81 143,-1036.81 147,-1042.81 143,-1048.81"/>
</a>
</g>
<text text-anchor="middle" x="164" y="-1062.5" font-family="Helvetica,sans-Serif" font-size="10.00" fill="grey"> #_values</text>
</g>
<!-- Node9 -->
<g id="Node000009" class="node">
<title>Node9</title>
<g id="a_Node000009"><a xlink:title=" ">
<polygon fill="white" stroke="none" points="283,-1300 199,-1300 199,-1248 283,-1248 283,-1300"/>
<text text-anchor="start" x="203.88" y="-1286.5" font-family="Helvetica,sans-Serif" font-size="10.00">std::map&lt; K, T &gt;</text>
<text text-anchor="start" x="239.5" y="-1270.5" font-family="Helvetica,sans-Serif" font-size="10.00"> </text>
<text text-anchor="start" x="239.5" y="-1254.5" font-family="Helvetica,sans-Serif" font-size="10.00"> </text>
<polygon fill="#666666" stroke="#666666" points="199,-1282 199,-1282 283,-1282 283,-1282 199,-1282"/>
<polygon fill="#666666" stroke="#666666" points="199,-1266 199,-1266 283,-1266 283,-1266 199,-1266"/>
<polygon fill="none" stroke="#666666" points="199,-1248 199,-1300 283,-1300 283,-1248 199,-1248"/>
</a>
</g>
</g>
<!-- Node9&#45;&gt;Node6 -->
<g id="edge13_Node000006_Node000009" class="edge">
<title>Node9&#45;&gt;Node6</title>
<g id="a_edge13_Node000006_Node000009"><a xlink:title=" ">
<path fill="none" stroke="orange" d="M241.13,-1237.11C241.35,-1123.29 240.5,-775.07 222,-728 214.62,-709.23 200.2,-692.67 185.68,-679.62"/>
<polygon fill="orange" stroke="orange" points="237.63,-1236.77 241.11,-1246.78 244.63,-1236.79 237.63,-1236.77"/>
</a>
</g>
<text text-anchor="start" x="240.48" y="-1068.5" font-family="Helvetica,sans-Serif" font-size="10.00" fill="grey"> &lt; std::string, anch</text>
<text text-anchor="middle" x="302.73" y="-1056.5" font-family="Helvetica,sans-Serif" font-size="10.00" fill="grey">::sql::PreparedStatement * &gt;</text>
</g>
<!-- Node9&#45;&gt;Node8 -->
<g id="edge10_Node000008_Node000009" class="edge">
<title>Node9&#45;&gt;Node8</title>
<g id="a_edge10_Node000008_Node000009"><a xlink:title=" ">
<path fill="none" stroke="orange" d="M188.89,-1259.52C173.87,-1253.06 159.05,-1243.64 149.75,-1230 135.89,-1209.67 135.17,-1181.37 137.36,-1159.9"/>
<polygon fill="orange" stroke="orange" points="187.25,-1262.64 197.84,-1263 189.78,-1256.12 187.25,-1262.64"/>
</a>
</g>
<text text-anchor="start" x="149.75" y="-1206.5" font-family="Helvetica,sans-Serif" font-size="10.00" fill="grey"> &lt; std::size_t, std</text>
<text text-anchor="middle" x="188.38" y="-1194.5" font-family="Helvetica,sans-Serif" font-size="10.00" fill="grey">::string &gt;</text>
</g>
<!-- Node10 -->
<g id="Node000010" class="node">
<title>Node10</title>
<g id="a_Node000010"><a xlink:title=" ">
<polygon fill="white" stroke="none" points="249,-1406 233,-1406 233,-1354 249,-1354 249,-1406"/>
<text text-anchor="start" x="237.62" y="-1392.5" font-family="Helvetica,sans-Serif" font-size="10.00">K</text>
<text text-anchor="start" x="239.5" y="-1376.5" font-family="Helvetica,sans-Serif" font-size="10.00"> </text>
<text text-anchor="start" x="239.5" y="-1360.5" font-family="Helvetica,sans-Serif" font-size="10.00"> </text>
<polygon fill="#bfbfbf" stroke="#bfbfbf" points="233,-1388 233,-1388 249,-1388 249,-1388 233,-1388"/>
<polygon fill="#bfbfbf" stroke="#bfbfbf" points="233,-1372 233,-1372 249,-1372 249,-1372 233,-1372"/>
<polygon fill="none" stroke="#bfbfbf" points="233,-1354 233,-1406 249,-1406 249,-1354 233,-1354"/>
</a>
</g>
</g>
<!-- Node10&#45;&gt;Node9 -->
<g id="edge11_Node000009_Node000010" class="edge">
<title>Node10&#45;&gt;Node9</title>
<g id="a_edge11_Node000009_Node000010"><a xlink:title=" ">
<path fill="none" stroke="#63b8ff" d="M241,-1354.09C241,-1341.61 241,-1326.25 241,-1312.39"/>
<polygon fill="none" stroke="#63b8ff" points="241,-1312.61 237,-1306.61 241,-1300.61 245,-1306.61 241,-1312.61"/>
</a>
</g>
<text text-anchor="middle" x="256" y="-1320.5" font-family="Helvetica,sans-Serif" font-size="10.00" fill="grey"> +keys</text>
</g>
<!-- Node11 -->
<g id="Node000011" class="node">
<title>Node11</title>
<g id="a_Node000011"><a xlink:title=" ">
<polygon fill="white" stroke="none" points="345,-1406 329,-1406 329,-1354 345,-1354 345,-1406"/>
<text text-anchor="start" x="334" y="-1392.5" font-family="Helvetica,sans-Serif" font-size="10.00">T</text>
<text text-anchor="start" x="335.5" y="-1376.5" font-family="Helvetica,sans-Serif" font-size="10.00"> </text>
<text text-anchor="start" x="335.5" y="-1360.5" font-family="Helvetica,sans-Serif" font-size="10.00"> </text>
<polygon fill="#bfbfbf" stroke="#bfbfbf" points="329,-1388 329,-1388 345,-1388 345,-1388 329,-1388"/>
<polygon fill="#bfbfbf" stroke="#bfbfbf" points="329,-1372 329,-1372 345,-1372 345,-1372 329,-1372"/>
<polygon fill="none" stroke="#bfbfbf" points="329,-1354 329,-1406 345,-1406 345,-1354 329,-1354"/>
</a>
</g>
</g>
<!-- Node11&#45;&gt;Node9 -->
<g id="edge12_Node000009_Node000011" class="edge">
<title>Node11&#45;&gt;Node9</title>
<g id="a_edge12_Node000009_Node000011"><a xlink:title=" ">
<path fill="none" stroke="#63b8ff" d="M329.14,-1370.49C316.95,-1357.28 292.8,-1331.11 272.85,-1309.51"/>
<polygon fill="none" stroke="#63b8ff" points="272.79,-1309.44 265.78,-1307.75 264.65,-1300.62 271.66,-1302.32 272.79,-1309.44"/>
</a>
</g>
<text text-anchor="middle" x="313.38" y="-1320.5" font-family="Helvetica,sans-Serif" font-size="10.00" fill="grey"> +elements</text>
</g>
<!-- Node12 -->
<g id="Node000012" class="node">
<title>Node12</title>
<g id="a_Node000012"><a xlink:title=" ">
<polygon fill="white" stroke="none" points="428,-1230 330,-1230 330,-1178 428,-1178 428,-1230"/>
<text text-anchor="start" x="334.75" y="-1216.5" font-family="Helvetica,sans-Serif" font-size="10.00">std::shared_ptr&lt; T &gt;</text>
<text text-anchor="start" x="377.5" y="-1200.5" font-family="Helvetica,sans-Serif" font-size="10.00"> </text>
<text text-anchor="start" x="341.5" y="-1184.5" font-family="Helvetica,sans-Serif" font-size="10.00">+</text>
<text text-anchor="start" x="359" y="-1184.5" font-family="Helvetica,sans-Serif" font-size="10.00">operator&#45;&gt;()</text>
<polygon fill="#666666" stroke="#666666" points="330,-1212 330,-1212 428,-1212 428,-1212 330,-1212"/>
<polygon fill="#666666" stroke="#666666" points="330,-1196 330,-1196 428,-1196 428,-1196 330,-1196"/>
<polygon fill="none" stroke="#666666" points="330,-1178 330,-1230 428,-1230 428,-1178 330,-1178"/>
</a>
</g>
</g>
<!-- Node11&#45;&gt;Node12 -->
<g id="edge15_Node000012_Node000011" class="edge">
<title>Node11&#45;&gt;Node12</title>
<g id="a_edge15_Node000012_Node000011"><a xlink:title=" ">
<path fill="none" stroke="#63b8ff" d="M343.02,-1354.07C350.07,-1324.87 361.81,-1276.2 369.96,-1242.45"/>
<polygon fill="none" stroke="#63b8ff" points="369.97,-1242.42 367.49,-1235.65 372.78,-1230.76 375.26,-1237.53 369.97,-1242.42"/>
</a>
</g>
<text text-anchor="middle" x="361.05" y="-1320.5" font-family="Helvetica,sans-Serif" font-size="10.00" fill="grey"> +ptr</text>
</g>
<!-- Node12&#45;&gt;Node4 -->
<g id="edge14_Node000004_Node000012" class="edge">
<title>Node12&#45;&gt;Node4</title>
<g id="a_edge14_Node000004_Node000012"><a xlink:title=" ">
<path fill="none" stroke="orange" d="M379.82,-1167.06C380.37,-1139.64 381,-1100.94 381,-1067 381,-1067 381,-1067 381,-389 381,-291.04 289.78,-206.77 232.76,-163.68"/>
<polygon fill="orange" stroke="orange" points="376.32,-1166.85 379.61,-1176.92 383.32,-1167 376.32,-1166.85"/>
</a>
</g>
<text text-anchor="middle" x="439.12" y="-700.5" font-family="Helvetica,sans-Serif" font-size="10.00" fill="grey"> &lt; anch::sql::Connection &gt;</text>
</g>
</g>
</svg>
