<?xml version="1.0" encoding="UTF-8" standalone="no"?>
<!DOCTYPE svg PUBLIC "-//W3C//DTD SVG 1.1//EN"
 "http://www.w3.org/Graphics/SVG/1.1/DTD/svg11.dtd">
<!-- Generated by graphviz version 12.1.2 (0)
 -->
<!-- Title: anch::rest::MediaType Pages: 1 -->
<svg width="252pt" height="518pt"
 viewBox="0.00 0.00 251.50 518.25" xmlns="http://www.w3.org/2000/svg" xmlns:xlink="http://www.w3.org/1999/xlink">
<g id="graph0" class="graph" transform="scale(1 1) rotate(0) translate(4 514.25)">
<title>anch::rest::MediaType</title>
<!-- Node1 -->
<g id="Node000001" class="node">
<title>Node1</title>
<g id="a_Node000001"><a xlink:title="Media type.">
<polygon fill="#999999" stroke="none" points="193,-180 0,-180 0,0 193,0 193,-180"/>
<text text-anchor="start" x="43.25" y="-166.5" font-family="Helvetica,sans-Serif" font-size="10.00">anch::rest::MediaType</text>
<text text-anchor="start" x="3.88" y="-150.5" font-family="Helvetica,sans-Serif" font-size="10.00">+</text>
<text text-anchor="start" x="16" y="-150.5" font-family="Helvetica,sans-Serif" font-size="10.00">NONE</text>
<text text-anchor="start" x="3.88" y="-134.5" font-family="Helvetica,sans-Serif" font-size="10.00">+</text>
<text text-anchor="start" x="16" y="-134.5" font-family="Helvetica,sans-Serif" font-size="10.00">APP_X_PROTOBUF</text>
<text text-anchor="start" x="3.88" y="-118.5" font-family="Helvetica,sans-Serif" font-size="10.00">+</text>
<text text-anchor="start" x="16" y="-118.5" font-family="Helvetica,sans-Serif" font-size="10.00">APP_X_WWW_FORM_URLENCODED</text>
<text text-anchor="start" x="3.88" y="-102.5" font-family="Helvetica,sans-Serif" font-size="10.00">+</text>
<text text-anchor="start" x="16" y="-102.5" font-family="Helvetica,sans-Serif" font-size="10.00">MULTIPART_FORM_DATA</text>
<text text-anchor="start" x="3.88" y="-86.5" font-family="Helvetica,sans-Serif" font-size="10.00">+</text>
<text text-anchor="start" x="16" y="-86.5" font-family="Helvetica,sans-Serif" font-size="10.00">TXT_CSS</text>
<text text-anchor="start" x="3.88" y="-70.5" font-family="Helvetica,sans-Serif" font-size="10.00">+</text>
<text text-anchor="start" x="16" y="-70.5" font-family="Helvetica,sans-Serif" font-size="10.00">TXT_CSV</text>
<text text-anchor="start" x="3.88" y="-54.5" font-family="Helvetica,sans-Serif" font-size="10.00">+</text>
<text text-anchor="start" x="16" y="-54.5" font-family="Helvetica,sans-Serif" font-size="10.00">TXT_HTML</text>
<text text-anchor="start" x="3.88" y="-38.5" font-family="Helvetica,sans-Serif" font-size="10.00">+</text>
<text text-anchor="start" x="16" y="-38.5" font-family="Helvetica,sans-Serif" font-size="10.00">TXT_PLAIN</text>
<text text-anchor="start" x="3.88" y="-22.5" font-family="Helvetica,sans-Serif" font-size="10.00">+</text>
<text text-anchor="start" x="16" y="-22.5" font-family="Helvetica,sans-Serif" font-size="10.00">TXT_XML</text>
<text text-anchor="start" x="95" y="-6.5" font-family="Helvetica,sans-Serif" font-size="10.00"> </text>
<polygon fill="#666666" stroke="#666666" points="0,-162 0,-162 193,-162 193,-162 0,-162"/>
<polygon fill="#666666" stroke="#666666" points="0,-18 0,-18 14,-18 14,-18 0,-18"/>
<polygon fill="#666666" stroke="#666666" points="14,-18 14,-18 193,-18 193,-18 14,-18"/>
<polygon fill="none" stroke="#666666" points="0,0 0,-180 193,-180 193,0 0,0"/>
</a>
</g>
</g>
<!-- Node2 -->
<g id="Node000002" class="node">
<title>Node2</title>
<g id="a_Node000002"><a xlink:title=" ">
<polygon fill="white" stroke="none" points="125.5,-408.25 67.5,-408.25 67.5,-356.25 125.5,-356.25 125.5,-408.25"/>
<text text-anchor="start" x="72.12" y="-394.75" font-family="Helvetica,sans-Serif" font-size="10.00">std::string</text>
<text text-anchor="start" x="95" y="-378.75" font-family="Helvetica,sans-Serif" font-size="10.00"> </text>
<text text-anchor="start" x="95" y="-362.75" font-family="Helvetica,sans-Serif" font-size="10.00"> </text>
<polygon fill="#666666" stroke="#666666" points="67.5,-390.25 67.5,-390.25 125.5,-390.25 125.5,-390.25 67.5,-390.25"/>
<polygon fill="#666666" stroke="#666666" points="67.5,-374.25 67.5,-374.25 125.5,-374.25 125.5,-374.25 67.5,-374.25"/>
<polygon fill="none" stroke="#666666" points="67.5,-356.25 67.5,-408.25 125.5,-408.25 125.5,-356.25 67.5,-356.25"/>
</a>
</g>
</g>
<!-- Node2&#45;&gt;Node1 -->
<g id="edge1_Node000001_Node000002" class="edge">
<title>Node2&#45;&gt;Node1</title>
<g id="a_edge1_Node000001_Node000002"><a xlink:title=" ">
<path fill="none" stroke="#63b8ff" d="M96.5,-356.25C96.5,-320.06 96.5,-250.99 96.5,-192.4"/>
<polygon fill="none" stroke="#63b8ff" points="96.5,-192.59 92.5,-186.59 96.5,-180.59 100.5,-186.59 96.5,-192.59"/>
</a>
</g>
<text text-anchor="middle" x="170" y="-328.75" font-family="Helvetica,sans-Serif" font-size="10.00" fill="grey"> +ALL</text>
<text text-anchor="middle" x="170" y="-316" font-family="Helvetica,sans-Serif" font-size="10.00" fill="grey">+APP_GRAPHQL</text>
<text text-anchor="middle" x="170" y="-303.25" font-family="Helvetica,sans-Serif" font-size="10.00" fill="grey">+APP_JAVASCRIPT</text>
<text text-anchor="middle" x="170" y="-290.5" font-family="Helvetica,sans-Serif" font-size="10.00" fill="grey">+APP_JSON</text>
<text text-anchor="middle" x="170" y="-277.75" font-family="Helvetica,sans-Serif" font-size="10.00" fill="grey">+APP_OCTET_STREAM</text>
<text text-anchor="middle" x="170" y="-265" font-family="Helvetica,sans-Serif" font-size="10.00" fill="grey">+APP_VND_PROTOBUF</text>
<text text-anchor="middle" x="170" y="-252.25" font-family="Helvetica,sans-Serif" font-size="10.00" fill="grey">+APP_VND_THRIFT_BINARY</text>
<text text-anchor="middle" x="170" y="-239.5" font-family="Helvetica,sans-Serif" font-size="10.00" fill="grey">+APP_VND_THRIFT_COMPACT</text>
<text text-anchor="middle" x="170" y="-226.75" font-family="Helvetica,sans-Serif" font-size="10.00" fill="grey">+APP_VND_THRIFT_JSON</text>
<text text-anchor="middle" x="170" y="-214" font-family="Helvetica,sans-Serif" font-size="10.00" fill="grey">+APP_XML</text>
<text text-anchor="middle" x="170" y="-201.25" font-family="Helvetica,sans-Serif" font-size="10.00" fill="grey">...</text>
</g>
<!-- Node3 -->
<g id="Node000003" class="node">
<title>Node3</title>
<g id="a_Node000003"><a xlink:title=" ">
<polygon fill="white" stroke="none" points="145,-510.25 48,-510.25 48,-445.25 145,-445.25 145,-510.25"/>
<text text-anchor="start" x="52.62" y="-496.75" font-family="Helvetica,sans-Serif" font-size="10.00">std::basic_string&lt;</text>
<text text-anchor="start" x="78.12" y="-484" font-family="Helvetica,sans-Serif" font-size="10.00"> Char &gt;</text>
<text text-anchor="start" x="95" y="-467.75" font-family="Helvetica,sans-Serif" font-size="10.00"> </text>
<text text-anchor="start" x="95" y="-451.75" font-family="Helvetica,sans-Serif" font-size="10.00"> </text>
<polygon fill="#666666" stroke="#666666" points="48,-479.25 48,-479.25 145,-479.25 145,-479.25 48,-479.25"/>
<polygon fill="#666666" stroke="#666666" points="48,-463.25 48,-463.25 145,-463.25 145,-463.25 48,-463.25"/>
<polygon fill="none" stroke="#666666" points="48,-445.25 48,-510.25 145,-510.25 145,-445.25 48,-445.25"/>
</a>
</g>
</g>
<!-- Node3&#45;&gt;Node2 -->
<g id="edge2_Node000002_Node000003" class="edge">
<title>Node3&#45;&gt;Node2</title>
<g id="a_edge2_Node000002_Node000003"><a xlink:title=" ">
<path fill="none" stroke="#63b8ff" d="M96.5,-433.98C96.5,-425.16 96.5,-416.14 96.5,-408.21"/>
<polygon fill="none" stroke="#63b8ff" points="93,-433.84 96.5,-443.84 100,-433.84 93,-433.84"/>
</a>
</g>
</g>
</g>
</svg>
